<?xml version="1.0" encoding="utf-8" standalone="no"?>
<!DOCTYPE svg PUBLIC "-//W3C//DTD SVG 1.1//EN"
  "http://www.w3.org/Graphics/SVG/1.1/DTD/svg11.dtd">
<svg xmlns:xlink="http://www.w3.org/1999/xlink" width="576pt" height="288pt" viewBox="0 0 576 288" xmlns="http://www.w3.org/2000/svg" version="1.1">
 <metadata>
  <rdf:RDF xmlns:dc="http://purl.org/dc/elements/1.1/" xmlns:cc="http://creativecommons.org/ns#" xmlns:rdf="http://www.w3.org/1999/02/22-rdf-syntax-ns#">
   <cc:Work>
    <dc:type rdf:resource="http://purl.org/dc/dcmitype/StillImage"/>
    <dc:date>2025-08-01T20:30:39.922222</dc:date>
    <dc:format>image/svg+xml</dc:format>
    <dc:creator>
     <cc:Agent>
      <dc:title>Matplotlib v3.10.3, https://matplotlib.org/</dc:title>
     </cc:Agent>
    </dc:creator>
   </cc:Work>
  </rdf:RDF>
 </metadata>
 <defs>
  <style type="text/css">*{stroke-linejoin: round; stroke-linecap: butt}</style>
 </defs>
 <g id="figure_1">
  <g id="patch_1">
   <path d="M 0 288 
L 576 288 
L 576 0 
L 0 0 
z
" style="fill: #ffffff"/>
  </g>
  <g id="axes_1">
   <g id="patch_2">
    <path d="M 44.107322 288 
L 524.422678 288 
L 524.422678 0 
L 44.107322 0 
z
" style="fill: #ffffff"/>
   </g>
   <g id="matplotlib.axis_1"/>
   <g id="matplotlib.axis_2"/>
   <g id="patch_3">
    <path d="M 168.804578 282.461538 
Q 168.804578 252.692308 168.804578 225.159145 
" clip-path="url(#p41dca5ee7a)" style="fill: none; stroke-dasharray: 7.4,3.2; stroke-dashoffset: 0; stroke: #0000ff; stroke-width: 2; stroke-linecap: round"/>
    <path d="M 166.804578 229.159145 
L 168.804578 225.159145 
L 170.804578 229.159145 
z
" clip-path="url(#p41dca5ee7a)" style="fill: #0000ff; stroke: #0000ff; stroke-width: 2; stroke-linecap: round"/>
   </g>
   <g id="patch_4">
    <path d="M 399.725422 282.461538 
Q 313.130105 218.076923 228.329217 155.026485 
" clip-path="url(#p41dca5ee7a)" style="fill: none; stroke: #0000ff; stroke-width: 2; stroke-linecap: round"/>
    <path d="M 230.345862 159.018119 
L 228.329217 155.026485 
L 232.732511 155.80815 
z
" clip-path="url(#p41dca5ee7a)" style="fill: #0000ff; stroke: #0000ff; stroke-width: 2; stroke-linecap: round"/>
   </g>
   <g id="patch_5">
    <path d="M 399.725422 282.461538 
Q 399.725422 252.692308 399.725422 225.159145 
" clip-path="url(#p41dca5ee7a)" style="fill: none; stroke: #0000ff; stroke-width: 2; stroke-linecap: round"/>
    <path d="M 397.725422 229.159145 
L 399.725422 225.159145 
L 401.725422 229.159145 
z
" clip-path="url(#p41dca5ee7a)" style="fill: #0000ff; stroke: #0000ff; stroke-width: 2; stroke-linecap: round"/>
   </g>
   <g id="patch_6">
    <path d="M 168.804578 213.230769 
Q 111.074367 183.461538 55.331551 154.71713 
" clip-path="url(#p41dca5ee7a)" style="fill: none; stroke: #0000ff; stroke-width: 2; stroke-linecap: round"/>
    <path d="M 57.970082 158.327969 
L 55.331551 154.71713 
L 59.803341 154.772808 
z
" clip-path="url(#p41dca5ee7a)" style="fill: #0000ff; stroke: #0000ff; stroke-width: 2; stroke-linecap: round"/>
   </g>
   <g id="patch_7">
    <path d="M 168.804578 213.230769 
Q 180.35062 183.461538 191.088087 155.777063 
" clip-path="url(#p41dca5ee7a)" style="fill: none; stroke: #0000ff; stroke-width: 2; stroke-linecap: round"/>
    <path d="M 187.777001 158.783175 
L 191.088087 155.777063 
L 191.506325 160.229599 
z
" clip-path="url(#p41dca5ee7a)" style="fill: #0000ff; stroke: #0000ff; stroke-width: 2; stroke-linecap: round"/>
   </g>
   <g id="patch_8">
    <path d="M 168.804578 213.230769 
Q 255.399895 183.461538 339.880607 154.419254 
" clip-path="url(#p41dca5ee7a)" style="fill: none; stroke: #0000ff; stroke-width: 2; stroke-linecap: round"/>
    <path d="M 335.447688 153.828295 
L 339.880607 154.419254 
L 336.748089 157.611014 
z
" clip-path="url(#p41dca5ee7a)" style="fill: #0000ff; stroke: #0000ff; stroke-width: 2; stroke-linecap: round"/>
   </g>
   <g id="patch_9">
    <path d="M 168.804578 213.230769 
Q 318.903127 183.461538 466.808329 154.127317 
" clip-path="url(#p41dca5ee7a)" style="fill: none; stroke: #0000ff; stroke-width: 2; stroke-linecap: round"/>
    <path d="M 462.495668 152.943696 
L 466.808329 154.127317 
L 463.273836 156.867273 
z
" clip-path="url(#p41dca5ee7a)" style="fill: #0000ff; stroke: #0000ff; stroke-width: 2; stroke-linecap: round"/>
   </g>
   <g id="patch_10">
    <path d="M 399.725422 213.230769 
Q 249.626873 183.461538 101.721671 154.127317 
" clip-path="url(#p41dca5ee7a)" style="fill: none; stroke: #0000ff; stroke-width: 2; stroke-linecap: round"/>
    <path d="M 105.256164 156.867273 
L 101.721671 154.127317 
L 106.034332 152.943696 
z
" clip-path="url(#p41dca5ee7a)" style="fill: #0000ff; stroke: #0000ff; stroke-width: 2; stroke-linecap: round"/>
   </g>
   <g id="patch_11">
    <path d="M 399.725422 213.230769 
Q 389.333984 183.461538 379.679476 155.803453 
" clip-path="url(#p41dca5ee7a)" style="fill: none; stroke: #0000ff; stroke-width: 2; stroke-linecap: round"/>
    <path d="M 379.10947 160.239115 
L 379.679476 155.803453 
L 382.886002 158.920854 
z
" clip-path="url(#p41dca5ee7a)" style="fill: #0000ff; stroke: #0000ff; stroke-width: 2; stroke-linecap: round"/>
   </g>
   <g id="patch_12">
    <path d="M 399.725422 213.230769 
Q 457.455633 183.461538 513.198449 154.71713 
" clip-path="url(#p41dca5ee7a)" style="fill: none; stroke: #0000ff; stroke-width: 2; stroke-linecap: round"/>
    <path d="M 508.726659 154.772808 
L 513.198449 154.71713 
L 510.559918 158.327969 
z
" clip-path="url(#p41dca5ee7a)" style="fill: #0000ff; stroke: #0000ff; stroke-width: 2; stroke-linecap: round"/>
   </g>
   <g id="patch_13">
    <path d="M 53.344156 144 
Q 53.344156 114.230769 53.344156 86.697606 
" clip-path="url(#p41dca5ee7a)" style="fill: none; stroke: #0000ff; stroke-width: 2; stroke-linecap: round"/>
    <path d="M 51.344156 90.697606 
L 53.344156 86.697606 
L 55.344156 90.697606 
z
" clip-path="url(#p41dca5ee7a)" style="fill: #0000ff; stroke: #0000ff; stroke-width: 2; stroke-linecap: round"/>
   </g>
   <g id="patch_14">
    <path d="M 53.344156 144 
Q 139.939473 114.230769 224.420185 85.188485 
" clip-path="url(#p41dca5ee7a)" style="fill: none; stroke: #0000ff; stroke-width: 2; stroke-linecap: round"/>
    <path d="M 219.987267 84.597526 
L 224.420185 85.188485 
L 221.287667 88.380244 
z
" clip-path="url(#p41dca5ee7a)" style="fill: #0000ff; stroke: #0000ff; stroke-width: 2; stroke-linecap: round"/>
   </g>
   <g id="patch_15">
    <path d="M 208.061122 144 
Q 246.163061 114.230769 282.502971 85.83822 
" clip-path="url(#p41dca5ee7a)" style="fill: none; stroke: #0000ff; stroke-width: 2; stroke-linecap: round"/>
    <path d="M 278.119615 86.724897 
L 282.502971 85.83822 
L 280.582299 89.876911 
z
" clip-path="url(#p41dca5ee7a)" style="fill: #0000ff; stroke: #0000ff; stroke-width: 2; stroke-linecap: round"/>
   </g>
   <g id="patch_16">
    <path d="M 360.468878 144 
Q 351.232045 114.230769 342.657856 86.597165 
" clip-path="url(#p41dca5ee7a)" style="fill: none; stroke: #0000ff; stroke-width: 2; stroke-linecap: round"/>
    <path d="M 341.933068 91.010178 
L 342.657856 86.597165 
L 345.753394 89.824803 
z
" clip-path="url(#p41dca5ee7a)" style="fill: #0000ff; stroke: #0000ff; stroke-width: 2; stroke-linecap: round"/>
   </g>
   <g id="patch_17">
    <path d="M 515.185844 144 
Q 515.185844 114.230769 515.185844 86.697606 
" clip-path="url(#p41dca5ee7a)" style="fill: none; stroke: #0000ff; stroke-width: 2; stroke-linecap: round"/>
    <path d="M 513.185844 90.697606 
L 515.185844 86.697606 
L 517.185844 90.697606 
z
" clip-path="url(#p41dca5ee7a)" style="fill: #0000ff; stroke: #0000ff; stroke-width: 2; stroke-linecap: round"/>
   </g>
   <g id="patch_18">
    <path d="M 284.265 74.769231 
Q 284.265 45 284.265 17.466837 
" clip-path="url(#p41dca5ee7a)" style="fill: none; stroke: #0000ff; stroke-width: 2; stroke-linecap: round"/>
    <path d="M 282.265 21.466837 
L 284.265 17.466837 
L 286.265 21.466837 
z
" clip-path="url(#p41dca5ee7a)" style="fill: #0000ff; stroke: #0000ff; stroke-width: 2; stroke-linecap: round"/>
   </g>
   <g id="patch_19">
    <path d="M 515.185844 74.769231 
Q 422.817506 45 332.577436 15.916685 
" clip-path="url(#p41dca5ee7a)" style="fill: none; stroke: #0000ff; stroke-width: 2; stroke-linecap: round"/>
    <path d="M 335.771094 19.047267 
L 332.577436 15.916685 
L 336.998097 15.240108 
z
" clip-path="url(#p41dca5ee7a)" style="fill: #0000ff; stroke: #0000ff; stroke-width: 2; stroke-linecap: round"/>
   </g>
   <g id="text_1">
    <g id="patch_20">
     <path d="M 118.437391 291.300601 
L 219.171766 291.300601 
L 219.171766 273.622476 
L 118.437391 273.622476 
z
" style="fill: #ffc0cb; stroke: #ffc0cb; stroke-linejoin: miter"/>
    </g>
    <!-- passagemath-conf -->
    <g transform="translate(122.437391 285.220913) scale(0.1 -0.1)">
     <defs>
      <path id="DejaVuSans-70" d="M 1159 525 
L 1159 -1331 
L 581 -1331 
L 581 3500 
L 1159 3500 
L 1159 2969 
Q 1341 3281 1617 3432 
Q 1894 3584 2278 3584 
Q 2916 3584 3314 3078 
Q 3713 2572 3713 1747 
Q 3713 922 3314 415 
Q 2916 -91 2278 -91 
Q 1894 -91 1617 61 
Q 1341 213 1159 525 
z
M 3116 1747 
Q 3116 2381 2855 2742 
Q 2594 3103 2138 3103 
Q 1681 3103 1420 2742 
Q 1159 2381 1159 1747 
Q 1159 1113 1420 752 
Q 1681 391 2138 391 
Q 2594 391 2855 752 
Q 3116 1113 3116 1747 
z
" transform="scale(0.015625)"/>
      <path id="DejaVuSans-61" d="M 2194 1759 
Q 1497 1759 1228 1600 
Q 959 1441 959 1056 
Q 959 750 1161 570 
Q 1363 391 1709 391 
Q 2188 391 2477 730 
Q 2766 1069 2766 1631 
L 2766 1759 
L 2194 1759 
z
M 3341 1997 
L 3341 0 
L 2766 0 
L 2766 531 
Q 2569 213 2275 61 
Q 1981 -91 1556 -91 
Q 1019 -91 701 211 
Q 384 513 384 1019 
Q 384 1609 779 1909 
Q 1175 2209 1959 2209 
L 2766 2209 
L 2766 2266 
Q 2766 2663 2505 2880 
Q 2244 3097 1772 3097 
Q 1472 3097 1187 3025 
Q 903 2953 641 2809 
L 641 3341 
Q 956 3463 1253 3523 
Q 1550 3584 1831 3584 
Q 2591 3584 2966 3190 
Q 3341 2797 3341 1997 
z
" transform="scale(0.015625)"/>
      <path id="DejaVuSans-73" d="M 2834 3397 
L 2834 2853 
Q 2591 2978 2328 3040 
Q 2066 3103 1784 3103 
Q 1356 3103 1142 2972 
Q 928 2841 928 2578 
Q 928 2378 1081 2264 
Q 1234 2150 1697 2047 
L 1894 2003 
Q 2506 1872 2764 1633 
Q 3022 1394 3022 966 
Q 3022 478 2636 193 
Q 2250 -91 1575 -91 
Q 1294 -91 989 -36 
Q 684 19 347 128 
L 347 722 
Q 666 556 975 473 
Q 1284 391 1588 391 
Q 1994 391 2212 530 
Q 2431 669 2431 922 
Q 2431 1156 2273 1281 
Q 2116 1406 1581 1522 
L 1381 1569 
Q 847 1681 609 1914 
Q 372 2147 372 2553 
Q 372 3047 722 3315 
Q 1072 3584 1716 3584 
Q 2034 3584 2315 3537 
Q 2597 3491 2834 3397 
z
" transform="scale(0.015625)"/>
      <path id="DejaVuSans-67" d="M 2906 1791 
Q 2906 2416 2648 2759 
Q 2391 3103 1925 3103 
Q 1463 3103 1205 2759 
Q 947 2416 947 1791 
Q 947 1169 1205 825 
Q 1463 481 1925 481 
Q 2391 481 2648 825 
Q 2906 1169 2906 1791 
z
M 3481 434 
Q 3481 -459 3084 -895 
Q 2688 -1331 1869 -1331 
Q 1566 -1331 1297 -1286 
Q 1028 -1241 775 -1147 
L 775 -588 
Q 1028 -725 1275 -790 
Q 1522 -856 1778 -856 
Q 2344 -856 2625 -561 
Q 2906 -266 2906 331 
L 2906 616 
Q 2728 306 2450 153 
Q 2172 0 1784 0 
Q 1141 0 747 490 
Q 353 981 353 1791 
Q 353 2603 747 3093 
Q 1141 3584 1784 3584 
Q 2172 3584 2450 3431 
Q 2728 3278 2906 2969 
L 2906 3500 
L 3481 3500 
L 3481 434 
z
" transform="scale(0.015625)"/>
      <path id="DejaVuSans-65" d="M 3597 1894 
L 3597 1613 
L 953 1613 
Q 991 1019 1311 708 
Q 1631 397 2203 397 
Q 2534 397 2845 478 
Q 3156 559 3463 722 
L 3463 178 
Q 3153 47 2828 -22 
Q 2503 -91 2169 -91 
Q 1331 -91 842 396 
Q 353 884 353 1716 
Q 353 2575 817 3079 
Q 1281 3584 2069 3584 
Q 2775 3584 3186 3129 
Q 3597 2675 3597 1894 
z
M 3022 2063 
Q 3016 2534 2758 2815 
Q 2500 3097 2075 3097 
Q 1594 3097 1305 2825 
Q 1016 2553 972 2059 
L 3022 2063 
z
" transform="scale(0.015625)"/>
      <path id="DejaVuSans-6d" d="M 3328 2828 
Q 3544 3216 3844 3400 
Q 4144 3584 4550 3584 
Q 5097 3584 5394 3201 
Q 5691 2819 5691 2113 
L 5691 0 
L 5113 0 
L 5113 2094 
Q 5113 2597 4934 2840 
Q 4756 3084 4391 3084 
Q 3944 3084 3684 2787 
Q 3425 2491 3425 1978 
L 3425 0 
L 2847 0 
L 2847 2094 
Q 2847 2600 2669 2842 
Q 2491 3084 2119 3084 
Q 1678 3084 1418 2786 
Q 1159 2488 1159 1978 
L 1159 0 
L 581 0 
L 581 3500 
L 1159 3500 
L 1159 2956 
Q 1356 3278 1631 3431 
Q 1906 3584 2284 3584 
Q 2666 3584 2933 3390 
Q 3200 3197 3328 2828 
z
" transform="scale(0.015625)"/>
      <path id="DejaVuSans-74" d="M 1172 4494 
L 1172 3500 
L 2356 3500 
L 2356 3053 
L 1172 3053 
L 1172 1153 
Q 1172 725 1289 603 
Q 1406 481 1766 481 
L 2356 481 
L 2356 0 
L 1766 0 
Q 1100 0 847 248 
Q 594 497 594 1153 
L 594 3053 
L 172 3053 
L 172 3500 
L 594 3500 
L 594 4494 
L 1172 4494 
z
" transform="scale(0.015625)"/>
      <path id="DejaVuSans-68" d="M 3513 2113 
L 3513 0 
L 2938 0 
L 2938 2094 
Q 2938 2591 2744 2837 
Q 2550 3084 2163 3084 
Q 1697 3084 1428 2787 
Q 1159 2491 1159 1978 
L 1159 0 
L 581 0 
L 581 4863 
L 1159 4863 
L 1159 2956 
Q 1366 3272 1645 3428 
Q 1925 3584 2291 3584 
Q 2894 3584 3203 3211 
Q 3513 2838 3513 2113 
z
" transform="scale(0.015625)"/>
      <path id="DejaVuSans-2d" d="M 313 2009 
L 1997 2009 
L 1997 1497 
L 313 1497 
L 313 2009 
z
" transform="scale(0.015625)"/>
      <path id="DejaVuSans-63" d="M 3122 3366 
L 3122 2828 
Q 2878 2963 2633 3030 
Q 2388 3097 2138 3097 
Q 1578 3097 1268 2742 
Q 959 2388 959 1747 
Q 959 1106 1268 751 
Q 1578 397 2138 397 
Q 2388 397 2633 464 
Q 2878 531 3122 666 
L 3122 134 
Q 2881 22 2623 -34 
Q 2366 -91 2075 -91 
Q 1284 -91 818 406 
Q 353 903 353 1747 
Q 353 2603 823 3093 
Q 1294 3584 2113 3584 
Q 2378 3584 2631 3529 
Q 2884 3475 3122 3366 
z
" transform="scale(0.015625)"/>
      <path id="DejaVuSans-6f" d="M 1959 3097 
Q 1497 3097 1228 2736 
Q 959 2375 959 1747 
Q 959 1119 1226 758 
Q 1494 397 1959 397 
Q 2419 397 2687 759 
Q 2956 1122 2956 1747 
Q 2956 2369 2687 2733 
Q 2419 3097 1959 3097 
z
M 1959 3584 
Q 2709 3584 3137 3096 
Q 3566 2609 3566 1747 
Q 3566 888 3137 398 
Q 2709 -91 1959 -91 
Q 1206 -91 779 398 
Q 353 888 353 1747 
Q 353 2609 779 3096 
Q 1206 3584 1959 3584 
z
" transform="scale(0.015625)"/>
      <path id="DejaVuSans-6e" d="M 3513 2113 
L 3513 0 
L 2938 0 
L 2938 2094 
Q 2938 2591 2744 2837 
Q 2550 3084 2163 3084 
Q 1697 3084 1428 2787 
Q 1159 2491 1159 1978 
L 1159 0 
L 581 0 
L 581 3500 
L 1159 3500 
L 1159 2956 
Q 1366 3272 1645 3428 
Q 1925 3584 2291 3584 
Q 2894 3584 3203 3211 
Q 3513 2838 3513 2113 
z
" transform="scale(0.015625)"/>
      <path id="DejaVuSans-66" d="M 2375 4863 
L 2375 4384 
L 1825 4384 
Q 1516 4384 1395 4259 
Q 1275 4134 1275 3809 
L 1275 3500 
L 2222 3500 
L 2222 3053 
L 1275 3053 
L 1275 0 
L 697 0 
L 697 3053 
L 147 3053 
L 147 3500 
L 697 3500 
L 697 3744 
Q 697 4328 969 4595 
Q 1241 4863 1831 4863 
L 2375 4863 
z
" transform="scale(0.015625)"/>
     </defs>
     <use xlink:href="#DejaVuSans-70"/>
     <use xlink:href="#DejaVuSans-61" transform="translate(63.476562 0)"/>
     <use xlink:href="#DejaVuSans-73" transform="translate(124.755859 0)"/>
     <use xlink:href="#DejaVuSans-73" transform="translate(176.855469 0)"/>
     <use xlink:href="#DejaVuSans-61" transform="translate(228.955078 0)"/>
     <use xlink:href="#DejaVuSans-67" transform="translate(290.234375 0)"/>
     <use xlink:href="#DejaVuSans-65" transform="translate(353.710938 0)"/>
     <use xlink:href="#DejaVuSans-6d" transform="translate(415.234375 0)"/>
     <use xlink:href="#DejaVuSans-61" transform="translate(512.646484 0)"/>
     <use xlink:href="#DejaVuSans-74" transform="translate(573.925781 0)"/>
     <use xlink:href="#DejaVuSans-68" transform="translate(613.134766 0)"/>
     <use xlink:href="#DejaVuSans-2d" transform="translate(676.513672 0)"/>
     <use xlink:href="#DejaVuSans-63" transform="translate(712.597656 0)"/>
     <use xlink:href="#DejaVuSans-6f" transform="translate(767.578125 0)"/>
     <use xlink:href="#DejaVuSans-6e" transform="translate(828.759766 0)"/>
     <use xlink:href="#DejaVuSans-66" transform="translate(892.138672 0)"/>
    </g>
   </g>
   <g id="text_2">
    <g id="patch_21">
     <path d="M 341.988703 291.300601 
L 457.462141 291.300601 
L 457.462141 273.622476 
L 341.988703 273.622476 
z
" style="fill: #ffc0cb; stroke: #ffc0cb; stroke-linejoin: miter"/>
    </g>
    <!-- passagemath-objects -->
    <g transform="translate(345.988703 285.220913) scale(0.1 -0.1)">
     <defs>
      <path id="DejaVuSans-62" d="M 3116 1747 
Q 3116 2381 2855 2742 
Q 2594 3103 2138 3103 
Q 1681 3103 1420 2742 
Q 1159 2381 1159 1747 
Q 1159 1113 1420 752 
Q 1681 391 2138 391 
Q 2594 391 2855 752 
Q 3116 1113 3116 1747 
z
M 1159 2969 
Q 1341 3281 1617 3432 
Q 1894 3584 2278 3584 
Q 2916 3584 3314 3078 
Q 3713 2572 3713 1747 
Q 3713 922 3314 415 
Q 2916 -91 2278 -91 
Q 1894 -91 1617 61 
Q 1341 213 1159 525 
L 1159 0 
L 581 0 
L 581 4863 
L 1159 4863 
L 1159 2969 
z
" transform="scale(0.015625)"/>
      <path id="DejaVuSans-6a" d="M 603 3500 
L 1178 3500 
L 1178 -63 
Q 1178 -731 923 -1031 
Q 669 -1331 103 -1331 
L -116 -1331 
L -116 -844 
L 38 -844 
Q 366 -844 484 -692 
Q 603 -541 603 -63 
L 603 3500 
z
M 603 4863 
L 1178 4863 
L 1178 4134 
L 603 4134 
L 603 4863 
z
" transform="scale(0.015625)"/>
     </defs>
     <use xlink:href="#DejaVuSans-70"/>
     <use xlink:href="#DejaVuSans-61" transform="translate(63.476562 0)"/>
     <use xlink:href="#DejaVuSans-73" transform="translate(124.755859 0)"/>
     <use xlink:href="#DejaVuSans-73" transform="translate(176.855469 0)"/>
     <use xlink:href="#DejaVuSans-61" transform="translate(228.955078 0)"/>
     <use xlink:href="#DejaVuSans-67" transform="translate(290.234375 0)"/>
     <use xlink:href="#DejaVuSans-65" transform="translate(353.710938 0)"/>
     <use xlink:href="#DejaVuSans-6d" transform="translate(415.234375 0)"/>
     <use xlink:href="#DejaVuSans-61" transform="translate(512.646484 0)"/>
     <use xlink:href="#DejaVuSans-74" transform="translate(573.925781 0)"/>
     <use xlink:href="#DejaVuSans-68" transform="translate(613.134766 0)"/>
     <use xlink:href="#DejaVuSans-2d" transform="translate(676.513672 0)"/>
     <use xlink:href="#DejaVuSans-6f" transform="translate(714.472656 0)"/>
     <use xlink:href="#DejaVuSans-62" transform="translate(775.654297 0)"/>
     <use xlink:href="#DejaVuSans-6a" transform="translate(839.130859 0)"/>
     <use xlink:href="#DejaVuSans-65" transform="translate(866.914062 0)"/>
     <use xlink:href="#DejaVuSans-63" transform="translate(928.4375 0)"/>
     <use xlink:href="#DejaVuSans-74" transform="translate(983.417969 0)"/>
     <use xlink:href="#DejaVuSans-73" transform="translate(1022.626953 0)"/>
    </g>
   </g>
   <g id="text_3">
    <g id="patch_22">
     <path d="M 97.334266 222.069832 
L 240.274891 222.069832 
L 240.274891 204.391707 
L 97.334266 204.391707 
z
" style="fill: #ffc0cb; stroke: #ffc0cb; stroke-linejoin: miter"/>
    </g>
    <!-- passagemath-environment -->
    <g transform="translate(101.334266 215.990144) scale(0.1 -0.1)">
     <defs>
      <path id="DejaVuSans-76" d="M 191 3500 
L 800 3500 
L 1894 563 
L 2988 3500 
L 3597 3500 
L 2284 0 
L 1503 0 
L 191 3500 
z
" transform="scale(0.015625)"/>
      <path id="DejaVuSans-69" d="M 603 3500 
L 1178 3500 
L 1178 0 
L 603 0 
L 603 3500 
z
M 603 4863 
L 1178 4863 
L 1178 4134 
L 603 4134 
L 603 4863 
z
" transform="scale(0.015625)"/>
      <path id="DejaVuSans-72" d="M 2631 2963 
Q 2534 3019 2420 3045 
Q 2306 3072 2169 3072 
Q 1681 3072 1420 2755 
Q 1159 2438 1159 1844 
L 1159 0 
L 581 0 
L 581 3500 
L 1159 3500 
L 1159 2956 
Q 1341 3275 1631 3429 
Q 1922 3584 2338 3584 
Q 2397 3584 2469 3576 
Q 2541 3569 2628 3553 
L 2631 2963 
z
" transform="scale(0.015625)"/>
     </defs>
     <use xlink:href="#DejaVuSans-70"/>
     <use xlink:href="#DejaVuSans-61" transform="translate(63.476562 0)"/>
     <use xlink:href="#DejaVuSans-73" transform="translate(124.755859 0)"/>
     <use xlink:href="#DejaVuSans-73" transform="translate(176.855469 0)"/>
     <use xlink:href="#DejaVuSans-61" transform="translate(228.955078 0)"/>
     <use xlink:href="#DejaVuSans-67" transform="translate(290.234375 0)"/>
     <use xlink:href="#DejaVuSans-65" transform="translate(353.710938 0)"/>
     <use xlink:href="#DejaVuSans-6d" transform="translate(415.234375 0)"/>
     <use xlink:href="#DejaVuSans-61" transform="translate(512.646484 0)"/>
     <use xlink:href="#DejaVuSans-74" transform="translate(573.925781 0)"/>
     <use xlink:href="#DejaVuSans-68" transform="translate(613.134766 0)"/>
     <use xlink:href="#DejaVuSans-2d" transform="translate(676.513672 0)"/>
     <use xlink:href="#DejaVuSans-65" transform="translate(712.597656 0)"/>
     <use xlink:href="#DejaVuSans-6e" transform="translate(774.121094 0)"/>
     <use xlink:href="#DejaVuSans-76" transform="translate(837.5 0)"/>
     <use xlink:href="#DejaVuSans-69" transform="translate(896.679688 0)"/>
     <use xlink:href="#DejaVuSans-72" transform="translate(924.462891 0)"/>
     <use xlink:href="#DejaVuSans-6f" transform="translate(963.326172 0)"/>
     <use xlink:href="#DejaVuSans-6e" transform="translate(1024.507812 0)"/>
     <use xlink:href="#DejaVuSans-6d" transform="translate(1087.886719 0)"/>
     <use xlink:href="#DejaVuSans-65" transform="translate(1185.298828 0)"/>
     <use xlink:href="#DejaVuSans-6e" transform="translate(1246.822266 0)"/>
     <use xlink:href="#DejaVuSans-74" transform="translate(1310.201172 0)"/>
    </g>
   </g>
   <g id="text_4">
    <g id="patch_23">
     <path d="M 333.886359 222.069832 
L 465.564484 222.069832 
L 465.564484 204.391707 
L 333.886359 204.391707 
z
" style="fill: #ffc0cb; stroke: #ffc0cb; stroke-linejoin: miter"/>
    </g>
    <!-- passagemath-categories -->
    <g transform="translate(337.886359 215.990144) scale(0.1 -0.1)">
     <use xlink:href="#DejaVuSans-70"/>
     <use xlink:href="#DejaVuSans-61" transform="translate(63.476562 0)"/>
     <use xlink:href="#DejaVuSans-73" transform="translate(124.755859 0)"/>
     <use xlink:href="#DejaVuSans-73" transform="translate(176.855469 0)"/>
     <use xlink:href="#DejaVuSans-61" transform="translate(228.955078 0)"/>
     <use xlink:href="#DejaVuSans-67" transform="translate(290.234375 0)"/>
     <use xlink:href="#DejaVuSans-65" transform="translate(353.710938 0)"/>
     <use xlink:href="#DejaVuSans-6d" transform="translate(415.234375 0)"/>
     <use xlink:href="#DejaVuSans-61" transform="translate(512.646484 0)"/>
     <use xlink:href="#DejaVuSans-74" transform="translate(573.925781 0)"/>
     <use xlink:href="#DejaVuSans-68" transform="translate(613.134766 0)"/>
     <use xlink:href="#DejaVuSans-2d" transform="translate(676.513672 0)"/>
     <use xlink:href="#DejaVuSans-63" transform="translate(712.597656 0)"/>
     <use xlink:href="#DejaVuSans-61" transform="translate(767.578125 0)"/>
     <use xlink:href="#DejaVuSans-74" transform="translate(828.857422 0)"/>
     <use xlink:href="#DejaVuSans-65" transform="translate(868.066406 0)"/>
     <use xlink:href="#DejaVuSans-67" transform="translate(929.589844 0)"/>
     <use xlink:href="#DejaVuSans-6f" transform="translate(993.066406 0)"/>
     <use xlink:href="#DejaVuSans-72" transform="translate(1054.248047 0)"/>
     <use xlink:href="#DejaVuSans-69" transform="translate(1095.361328 0)"/>
     <use xlink:href="#DejaVuSans-65" transform="translate(1123.144531 0)"/>
     <use xlink:href="#DejaVuSans-73" transform="translate(1184.667969 0)"/>
    </g>
   </g>
   <g id="text_5">
    <g id="patch_24">
     <path d="M -3.526938 152.839063 
L 110.21525 152.839063 
L 110.21525 135.160938 
L -3.526938 135.160938 
z
" style="fill: #ffc0cb; stroke: #ffc0cb; stroke-linejoin: miter"/>
    </g>
    <!-- passagemath-graphs -->
    <g transform="translate(0.473062 146.759375) scale(0.1 -0.1)">
     <use xlink:href="#DejaVuSans-70"/>
     <use xlink:href="#DejaVuSans-61" transform="translate(63.476562 0)"/>
     <use xlink:href="#DejaVuSans-73" transform="translate(124.755859 0)"/>
     <use xlink:href="#DejaVuSans-73" transform="translate(176.855469 0)"/>
     <use xlink:href="#DejaVuSans-61" transform="translate(228.955078 0)"/>
     <use xlink:href="#DejaVuSans-67" transform="translate(290.234375 0)"/>
     <use xlink:href="#DejaVuSans-65" transform="translate(353.710938 0)"/>
     <use xlink:href="#DejaVuSans-6d" transform="translate(415.234375 0)"/>
     <use xlink:href="#DejaVuSans-61" transform="translate(512.646484 0)"/>
     <use xlink:href="#DejaVuSans-74" transform="translate(573.925781 0)"/>
     <use xlink:href="#DejaVuSans-68" transform="translate(613.134766 0)"/>
     <use xlink:href="#DejaVuSans-2d" transform="translate(676.513672 0)"/>
     <use xlink:href="#DejaVuSans-67" transform="translate(712.597656 0)"/>
     <use xlink:href="#DejaVuSans-72" transform="translate(776.074219 0)"/>
     <use xlink:href="#DejaVuSans-61" transform="translate(817.1875 0)"/>
     <use xlink:href="#DejaVuSans-70" transform="translate(878.466797 0)"/>
     <use xlink:href="#DejaVuSans-68" transform="translate(941.943359 0)"/>
     <use xlink:href="#DejaVuSans-73" transform="translate(1005.322266 0)"/>
    </g>
   </g>
   <g id="text_6">
    <g id="patch_25">
     <path d="M 158.848622 152.839063 
L 257.273622 152.839063 
L 257.273622 135.160938 
L 158.848622 135.160938 
z
" style="fill: #ffc0cb; stroke: #ffc0cb; stroke-linejoin: miter"/>
    </g>
    <!-- passagemath-repl -->
    <g transform="translate(162.848622 146.759375) scale(0.1 -0.1)">
     <defs>
      <path id="DejaVuSans-6c" d="M 603 4863 
L 1178 4863 
L 1178 0 
L 603 0 
L 603 4863 
z
" transform="scale(0.015625)"/>
     </defs>
     <use xlink:href="#DejaVuSans-70"/>
     <use xlink:href="#DejaVuSans-61" transform="translate(63.476562 0)"/>
     <use xlink:href="#DejaVuSans-73" transform="translate(124.755859 0)"/>
     <use xlink:href="#DejaVuSans-73" transform="translate(176.855469 0)"/>
     <use xlink:href="#DejaVuSans-61" transform="translate(228.955078 0)"/>
     <use xlink:href="#DejaVuSans-67" transform="translate(290.234375 0)"/>
     <use xlink:href="#DejaVuSans-65" transform="translate(353.710938 0)"/>
     <use xlink:href="#DejaVuSans-6d" transform="translate(415.234375 0)"/>
     <use xlink:href="#DejaVuSans-61" transform="translate(512.646484 0)"/>
     <use xlink:href="#DejaVuSans-74" transform="translate(573.925781 0)"/>
     <use xlink:href="#DejaVuSans-68" transform="translate(613.134766 0)"/>
     <use xlink:href="#DejaVuSans-2d" transform="translate(676.513672 0)"/>
     <use xlink:href="#DejaVuSans-72" transform="translate(712.597656 0)"/>
     <use xlink:href="#DejaVuSans-65" transform="translate(751.460938 0)"/>
     <use xlink:href="#DejaVuSans-70" transform="translate(812.984375 0)"/>
     <use xlink:href="#DejaVuSans-6c" transform="translate(876.460938 0)"/>
    </g>
   </g>
   <g id="text_7">
    <g id="patch_26">
     <path d="M 295.718097 152.839063 
L 425.21966 152.839063 
L 425.21966 135.160938 
L 295.718097 135.160938 
z
" style="fill: #ffc0cb; stroke: #ffc0cb; stroke-linejoin: miter"/>
    </g>
    <!-- passagemath-polyhedra -->
    <g transform="translate(299.718097 146.759375) scale(0.1 -0.1)">
     <defs>
      <path id="DejaVuSans-79" d="M 2059 -325 
Q 1816 -950 1584 -1140 
Q 1353 -1331 966 -1331 
L 506 -1331 
L 506 -850 
L 844 -850 
Q 1081 -850 1212 -737 
Q 1344 -625 1503 -206 
L 1606 56 
L 191 3500 
L 800 3500 
L 1894 763 
L 2988 3500 
L 3597 3500 
L 2059 -325 
z
" transform="scale(0.015625)"/>
      <path id="DejaVuSans-64" d="M 2906 2969 
L 2906 4863 
L 3481 4863 
L 3481 0 
L 2906 0 
L 2906 525 
Q 2725 213 2448 61 
Q 2172 -91 1784 -91 
Q 1150 -91 751 415 
Q 353 922 353 1747 
Q 353 2572 751 3078 
Q 1150 3584 1784 3584 
Q 2172 3584 2448 3432 
Q 2725 3281 2906 2969 
z
M 947 1747 
Q 947 1113 1208 752 
Q 1469 391 1925 391 
Q 2381 391 2643 752 
Q 2906 1113 2906 1747 
Q 2906 2381 2643 2742 
Q 2381 3103 1925 3103 
Q 1469 3103 1208 2742 
Q 947 2381 947 1747 
z
" transform="scale(0.015625)"/>
     </defs>
     <use xlink:href="#DejaVuSans-70"/>
     <use xlink:href="#DejaVuSans-61" transform="translate(63.476562 0)"/>
     <use xlink:href="#DejaVuSans-73" transform="translate(124.755859 0)"/>
     <use xlink:href="#DejaVuSans-73" transform="translate(176.855469 0)"/>
     <use xlink:href="#DejaVuSans-61" transform="translate(228.955078 0)"/>
     <use xlink:href="#DejaVuSans-67" transform="translate(290.234375 0)"/>
     <use xlink:href="#DejaVuSans-65" transform="translate(353.710938 0)"/>
     <use xlink:href="#DejaVuSans-6d" transform="translate(415.234375 0)"/>
     <use xlink:href="#DejaVuSans-61" transform="translate(512.646484 0)"/>
     <use xlink:href="#DejaVuSans-74" transform="translate(573.925781 0)"/>
     <use xlink:href="#DejaVuSans-68" transform="translate(613.134766 0)"/>
     <use xlink:href="#DejaVuSans-2d" transform="translate(676.513672 0)"/>
     <use xlink:href="#DejaVuSans-70" transform="translate(712.597656 0)"/>
     <use xlink:href="#DejaVuSans-6f" transform="translate(776.074219 0)"/>
     <use xlink:href="#DejaVuSans-6c" transform="translate(837.255859 0)"/>
     <use xlink:href="#DejaVuSans-79" transform="translate(865.039062 0)"/>
     <use xlink:href="#DejaVuSans-68" transform="translate(924.21875 0)"/>
     <use xlink:href="#DejaVuSans-65" transform="translate(987.597656 0)"/>
     <use xlink:href="#DejaVuSans-64" transform="translate(1049.121094 0)"/>
     <use xlink:href="#DejaVuSans-72" transform="translate(1112.597656 0)"/>
     <use xlink:href="#DejaVuSans-61" transform="translate(1153.710938 0)"/>
    </g>
   </g>
   <g id="text_8">
    <g id="patch_27">
     <path d="M 455.542094 152.839063 
L 574.829594 152.839063 
L 574.829594 135.160938 
L 455.542094 135.160938 
z
" style="fill: #ffc0cb; stroke: #ffc0cb; stroke-linejoin: miter"/>
    </g>
    <!-- passagemath-singular -->
    <g transform="translate(459.542094 146.759375) scale(0.1 -0.1)">
     <defs>
      <path id="DejaVuSans-75" d="M 544 1381 
L 544 3500 
L 1119 3500 
L 1119 1403 
Q 1119 906 1312 657 
Q 1506 409 1894 409 
Q 2359 409 2629 706 
Q 2900 1003 2900 1516 
L 2900 3500 
L 3475 3500 
L 3475 0 
L 2900 0 
L 2900 538 
Q 2691 219 2414 64 
Q 2138 -91 1772 -91 
Q 1169 -91 856 284 
Q 544 659 544 1381 
z
M 1991 3584 
L 1991 3584 
z
" transform="scale(0.015625)"/>
     </defs>
     <use xlink:href="#DejaVuSans-70"/>
     <use xlink:href="#DejaVuSans-61" transform="translate(63.476562 0)"/>
     <use xlink:href="#DejaVuSans-73" transform="translate(124.755859 0)"/>
     <use xlink:href="#DejaVuSans-73" transform="translate(176.855469 0)"/>
     <use xlink:href="#DejaVuSans-61" transform="translate(228.955078 0)"/>
     <use xlink:href="#DejaVuSans-67" transform="translate(290.234375 0)"/>
     <use xlink:href="#DejaVuSans-65" transform="translate(353.710938 0)"/>
     <use xlink:href="#DejaVuSans-6d" transform="translate(415.234375 0)"/>
     <use xlink:href="#DejaVuSans-61" transform="translate(512.646484 0)"/>
     <use xlink:href="#DejaVuSans-74" transform="translate(573.925781 0)"/>
     <use xlink:href="#DejaVuSans-68" transform="translate(613.134766 0)"/>
     <use xlink:href="#DejaVuSans-2d" transform="translate(676.513672 0)"/>
     <use xlink:href="#DejaVuSans-73" transform="translate(712.597656 0)"/>
     <use xlink:href="#DejaVuSans-69" transform="translate(764.697266 0)"/>
     <use xlink:href="#DejaVuSans-6e" transform="translate(792.480469 0)"/>
     <use xlink:href="#DejaVuSans-67" transform="translate(855.859375 0)"/>
     <use xlink:href="#DejaVuSans-75" transform="translate(919.335938 0)"/>
     <use xlink:href="#DejaVuSans-6c" transform="translate(982.714844 0)"/>
     <use xlink:href="#DejaVuSans-61" transform="translate(1010.498047 0)"/>
     <use xlink:href="#DejaVuSans-72" transform="translate(1071.777344 0)"/>
    </g>
   </g>
   <g id="text_9">
    <g id="patch_28">
     <path d="M 2.62775 83.608293 
L 104.060562 83.608293 
L 104.060562 65.930168 
L 2.62775 65.930168 
z
" style="fill: #ffc0cb; stroke: #ffc0cb; stroke-linejoin: miter"/>
    </g>
    <!-- passagemath-tdlib -->
    <g transform="translate(6.62775 77.528606) scale(0.1 -0.1)">
     <use xlink:href="#DejaVuSans-70"/>
     <use xlink:href="#DejaVuSans-61" transform="translate(63.476562 0)"/>
     <use xlink:href="#DejaVuSans-73" transform="translate(124.755859 0)"/>
     <use xlink:href="#DejaVuSans-73" transform="translate(176.855469 0)"/>
     <use xlink:href="#DejaVuSans-61" transform="translate(228.955078 0)"/>
     <use xlink:href="#DejaVuSans-67" transform="translate(290.234375 0)"/>
     <use xlink:href="#DejaVuSans-65" transform="translate(353.710938 0)"/>
     <use xlink:href="#DejaVuSans-6d" transform="translate(415.234375 0)"/>
     <use xlink:href="#DejaVuSans-61" transform="translate(512.646484 0)"/>
     <use xlink:href="#DejaVuSans-74" transform="translate(573.925781 0)"/>
     <use xlink:href="#DejaVuSans-68" transform="translate(613.134766 0)"/>
     <use xlink:href="#DejaVuSans-2d" transform="translate(676.513672 0)"/>
     <use xlink:href="#DejaVuSans-74" transform="translate(712.597656 0)"/>
     <use xlink:href="#DejaVuSans-64" transform="translate(751.806641 0)"/>
     <use xlink:href="#DejaVuSans-6c" transform="translate(815.283203 0)"/>
     <use xlink:href="#DejaVuSans-69" transform="translate(843.066406 0)"/>
     <use xlink:href="#DejaVuSans-62" transform="translate(870.849609 0)"/>
    </g>
   </g>
   <g id="text_10">
    <g id="patch_29">
     <path d="M 187.7275 83.608293 
L 380.8025 83.608293 
L 380.8025 65.930168 
L 187.7275 65.930168 
z
" style="fill: #ffc0cb; stroke: #ffc0cb; stroke-linejoin: miter"/>
    </g>
    <!-- passagemath-standard-no-symbolics -->
    <g transform="translate(191.7275 77.528606) scale(0.1 -0.1)">
     <use xlink:href="#DejaVuSans-70"/>
     <use xlink:href="#DejaVuSans-61" transform="translate(63.476562 0)"/>
     <use xlink:href="#DejaVuSans-73" transform="translate(124.755859 0)"/>
     <use xlink:href="#DejaVuSans-73" transform="translate(176.855469 0)"/>
     <use xlink:href="#DejaVuSans-61" transform="translate(228.955078 0)"/>
     <use xlink:href="#DejaVuSans-67" transform="translate(290.234375 0)"/>
     <use xlink:href="#DejaVuSans-65" transform="translate(353.710938 0)"/>
     <use xlink:href="#DejaVuSans-6d" transform="translate(415.234375 0)"/>
     <use xlink:href="#DejaVuSans-61" transform="translate(512.646484 0)"/>
     <use xlink:href="#DejaVuSans-74" transform="translate(573.925781 0)"/>
     <use xlink:href="#DejaVuSans-68" transform="translate(613.134766 0)"/>
     <use xlink:href="#DejaVuSans-2d" transform="translate(676.513672 0)"/>
     <use xlink:href="#DejaVuSans-73" transform="translate(712.597656 0)"/>
     <use xlink:href="#DejaVuSans-74" transform="translate(764.697266 0)"/>
     <use xlink:href="#DejaVuSans-61" transform="translate(803.90625 0)"/>
     <use xlink:href="#DejaVuSans-6e" transform="translate(865.185547 0)"/>
     <use xlink:href="#DejaVuSans-64" transform="translate(928.564453 0)"/>
     <use xlink:href="#DejaVuSans-61" transform="translate(992.041016 0)"/>
     <use xlink:href="#DejaVuSans-72" transform="translate(1053.320312 0)"/>
     <use xlink:href="#DejaVuSans-64" transform="translate(1092.683594 0)"/>
     <use xlink:href="#DejaVuSans-2d" transform="translate(1156.160156 0)"/>
     <use xlink:href="#DejaVuSans-6e" transform="translate(1192.244141 0)"/>
     <use xlink:href="#DejaVuSans-6f" transform="translate(1255.623047 0)"/>
     <use xlink:href="#DejaVuSans-2d" transform="translate(1318.679688 0)"/>
     <use xlink:href="#DejaVuSans-73" transform="translate(1354.763672 0)"/>
     <use xlink:href="#DejaVuSans-79" transform="translate(1406.863281 0)"/>
     <use xlink:href="#DejaVuSans-6d" transform="translate(1466.042969 0)"/>
     <use xlink:href="#DejaVuSans-62" transform="translate(1563.455078 0)"/>
     <use xlink:href="#DejaVuSans-6f" transform="translate(1626.931641 0)"/>
     <use xlink:href="#DejaVuSans-6c" transform="translate(1688.113281 0)"/>
     <use xlink:href="#DejaVuSans-69" transform="translate(1715.896484 0)"/>
     <use xlink:href="#DejaVuSans-63" transform="translate(1743.679688 0)"/>
     <use xlink:href="#DejaVuSans-73" transform="translate(1798.660156 0)"/>
    </g>
   </g>
   <g id="text_11">
    <g id="patch_30">
     <path d="M 450.756156 83.608293 
L 579.615531 83.608293 
L 579.615531 65.930168 
L 450.756156 65.930168 
z
" style="fill: #ffc0cb; stroke: #ffc0cb; stroke-linejoin: miter"/>
    </g>
    <!-- passagemath-symbolics -->
    <g transform="translate(454.756156 77.528606) scale(0.1 -0.1)">
     <use xlink:href="#DejaVuSans-70"/>
     <use xlink:href="#DejaVuSans-61" transform="translate(63.476562 0)"/>
     <use xlink:href="#DejaVuSans-73" transform="translate(124.755859 0)"/>
     <use xlink:href="#DejaVuSans-73" transform="translate(176.855469 0)"/>
     <use xlink:href="#DejaVuSans-61" transform="translate(228.955078 0)"/>
     <use xlink:href="#DejaVuSans-67" transform="translate(290.234375 0)"/>
     <use xlink:href="#DejaVuSans-65" transform="translate(353.710938 0)"/>
     <use xlink:href="#DejaVuSans-6d" transform="translate(415.234375 0)"/>
     <use xlink:href="#DejaVuSans-61" transform="translate(512.646484 0)"/>
     <use xlink:href="#DejaVuSans-74" transform="translate(573.925781 0)"/>
     <use xlink:href="#DejaVuSans-68" transform="translate(613.134766 0)"/>
     <use xlink:href="#DejaVuSans-2d" transform="translate(676.513672 0)"/>
     <use xlink:href="#DejaVuSans-73" transform="translate(712.597656 0)"/>
     <use xlink:href="#DejaVuSans-79" transform="translate(764.697266 0)"/>
     <use xlink:href="#DejaVuSans-6d" transform="translate(823.876953 0)"/>
     <use xlink:href="#DejaVuSans-62" transform="translate(921.289062 0)"/>
     <use xlink:href="#DejaVuSans-6f" transform="translate(984.765625 0)"/>
     <use xlink:href="#DejaVuSans-6c" transform="translate(1045.947266 0)"/>
     <use xlink:href="#DejaVuSans-69" transform="translate(1073.730469 0)"/>
     <use xlink:href="#DejaVuSans-63" transform="translate(1101.513672 0)"/>
     <use xlink:href="#DejaVuSans-73" transform="translate(1156.494141 0)"/>
    </g>
   </g>
   <g id="text_12">
    <g id="patch_31">
     <path d="M 222.457187 14.377524 
L 346.072812 14.377524 
L 346.072812 -3.300601 
L 222.457187 -3.300601 
z
" style="fill: #ffc0cb; stroke: #ffc0cb; stroke-linejoin: miter"/>
    </g>
    <!-- passagemath-standard -->
    <g transform="translate(226.457187 8.297837) scale(0.1 -0.1)">
     <use xlink:href="#DejaVuSans-70"/>
     <use xlink:href="#DejaVuSans-61" transform="translate(63.476562 0)"/>
     <use xlink:href="#DejaVuSans-73" transform="translate(124.755859 0)"/>
     <use xlink:href="#DejaVuSans-73" transform="translate(176.855469 0)"/>
     <use xlink:href="#DejaVuSans-61" transform="translate(228.955078 0)"/>
     <use xlink:href="#DejaVuSans-67" transform="translate(290.234375 0)"/>
     <use xlink:href="#DejaVuSans-65" transform="translate(353.710938 0)"/>
     <use xlink:href="#DejaVuSans-6d" transform="translate(415.234375 0)"/>
     <use xlink:href="#DejaVuSans-61" transform="translate(512.646484 0)"/>
     <use xlink:href="#DejaVuSans-74" transform="translate(573.925781 0)"/>
     <use xlink:href="#DejaVuSans-68" transform="translate(613.134766 0)"/>
     <use xlink:href="#DejaVuSans-2d" transform="translate(676.513672 0)"/>
     <use xlink:href="#DejaVuSans-73" transform="translate(712.597656 0)"/>
     <use xlink:href="#DejaVuSans-74" transform="translate(764.697266 0)"/>
     <use xlink:href="#DejaVuSans-61" transform="translate(803.90625 0)"/>
     <use xlink:href="#DejaVuSans-6e" transform="translate(865.185547 0)"/>
     <use xlink:href="#DejaVuSans-64" transform="translate(928.564453 0)"/>
     <use xlink:href="#DejaVuSans-61" transform="translate(992.041016 0)"/>
     <use xlink:href="#DejaVuSans-72" transform="translate(1053.320312 0)"/>
     <use xlink:href="#DejaVuSans-64" transform="translate(1092.683594 0)"/>
    </g>
   </g>
  </g>
 </g>
 <defs>
  <clipPath id="p41dca5ee7a">
   <rect x="44.107322" y="0" width="480.315355" height="288"/>
  </clipPath>
 </defs>
</svg>
