<?xml version="1.0" encoding="utf-8" standalone="no"?>
<!DOCTYPE svg PUBLIC "-//W3C//DTD SVG 1.1//EN"
  "http://www.w3.org/Graphics/SVG/1.1/DTD/svg11.dtd">
<svg xmlns:xlink="http://www.w3.org/1999/xlink" width="460.8pt" height="345.6pt" viewBox="0 0 460.8 345.6" xmlns="http://www.w3.org/2000/svg" version="1.1">
 <metadata>
  <rdf:RDF xmlns:dc="http://purl.org/dc/elements/1.1/" xmlns:cc="http://creativecommons.org/ns#" xmlns:rdf="http://www.w3.org/1999/02/22-rdf-syntax-ns#">
   <cc:Work>
    <dc:type rdf:resource="http://purl.org/dc/dcmitype/StillImage"/>
    <dc:date>2025-08-02T12:09:40.006468</dc:date>
    <dc:format>image/svg+xml</dc:format>
    <dc:creator>
     <cc:Agent>
      <dc:title>Matplotlib v3.10.3, https://matplotlib.org/</dc:title>
     </cc:Agent>
    </dc:creator>
   </cc:Work>
  </rdf:RDF>
 </metadata>
 <defs>
  <style type="text/css">*{stroke-linejoin: round; stroke-linecap: butt}</style>
 </defs>
 <g id="figure_1">
  <g id="patch_1">
   <path d="M 0 345.6 
L 460.8 345.6 
L 460.8 0 
L 0 0 
z
" style="fill: #ffffff"/>
  </g>
  <g id="axes_1">
   <g id="patch_2">
    <path d="M 174.234568 345.6 
L 286.565432 345.6 
L 286.565432 0 
L 174.234568 0 
z
" style="fill: #ffffff"/>
   </g>
   <g id="patch_3">
    <path d="M 206.855172 299.717905 
Q 242.754074 239.041483 237.945424 169.825576 
" clip-path="url(#pa98765d100)" style="fill: none; stroke: #7fff00; stroke-linecap: round"/>
    <path d="M 233.650508 180.148061 
L 237.945424 169.825576 
L 243.626463 179.455 
z
" clip-path="url(#pa98765d100)" style="fill: #7fff00; stroke: #7fff00; stroke-linecap: round"/>
   </g>
   <g id="patch_4">
    <path d="M 203.400679 298.900141 
Q 198.514543 228.568889 233.844143 168.854701 
" clip-path="url(#pa98765d100)" style="fill: none; stroke: #7fff00; stroke-linecap: round"/>
    <path d="M 224.448911 174.915198 
L 233.844143 168.854701 
L 233.055401 180.007185 
z
" clip-path="url(#pa98765d100)" style="fill: #7fff00; stroke: #7fff00; stroke-linecap: round"/>
   </g>
   <g id="patch_5">
    <path d="M 208.053589 300.651461 
Q 264.87384 244.27778 239.714121 169.472736 
" clip-path="url(#pa98765d100)" style="fill: none; stroke: #00ff3f; stroke-linecap: round"/>
    <path d="M 238.162882 180.544938 
L 239.714121 169.472736 
L 247.641139 177.357048 
z
" clip-path="url(#pa98765d100)" style="fill: #00ff3f; stroke: #00ff3f; stroke-linecap: round"/>
   </g>
   <g id="patch_6">
    <path d="M 201.910913 299.197337 
Q 176.394777 223.332592 232.421346 167.746356 
" clip-path="url(#pa98765d100)" style="fill: none; stroke: #00ffff; stroke-linecap: round"/>
    <path d="M 221.800878 171.240017 
L 232.421346 167.746356 
L 228.843995 178.338927 
z
" clip-path="url(#pa98765d100)" style="fill: #00ffff; stroke: #00ffff; stroke-linecap: round"/>
   </g>
   <g id="matplotlib.axis_1"/>
   <g id="matplotlib.axis_2"/>
   <g id="patch_7">
    <path d="M 239.089143 155.85485 
Q 255.246878 87.685372 271.662468 18.428 
" clip-path="url(#pa98765d100)" style="fill: none; stroke: #7f00ff; stroke-linecap: round"/>
    <path d="M 246.260678 147.277607 
L 239.089143 155.85485 
L 236.53027 144.971277 
z
" clip-path="url(#pa98765d100)" style="fill: #7f00ff; stroke: #7f00ff; stroke-linecap: round"/>
   </g>
   <g id="patch_8">
    <path d="M 205.1901 299.046379 
Q 220.634308 233.805186 235.820968 169.651959 
" clip-path="url(#pa98765d100)" style="fill: none; stroke: #003fff; stroke-linecap: round"/>
    <path d="M 228.651856 178.231226 
L 235.820968 169.651959 
L 238.382915 180.534809 
z
" clip-path="url(#pa98765d100)" style="fill: #003fff; stroke: #003fff; stroke-linecap: round"/>
   </g>
   <g id="text_1">
    <g id="patch_9">
     <path d="M 196.640316 336.427359 
L 210.988754 336.427359 
L 210.988754 318.749234 
L 196.640316 318.749234 
z
" style="fill: #ffffff; stroke: #ffffff; stroke-linejoin: miter"/>
    </g>
    <!-- b -->
    <g style="fill: #0000ff" transform="translate(200.640316 330.347672) scale(0.1 -0.1)">
     <defs>
      <path id="DejaVuSans-62" d="M 3116 1747 
Q 3116 2381 2855 2742 
Q 2594 3103 2138 3103 
Q 1681 3103 1420 2742 
Q 1159 2381 1159 1747 
Q 1159 1113 1420 752 
Q 1681 391 2138 391 
Q 2594 391 2855 752 
Q 3116 1113 3116 1747 
z
M 1159 2969 
Q 1341 3281 1617 3432 
Q 1894 3584 2278 3584 
Q 2916 3584 3314 3078 
Q 3713 2572 3713 1747 
Q 3713 922 3314 415 
Q 2916 -91 2278 -91 
Q 1894 -91 1617 61 
Q 1341 213 1159 525 
L 1159 0 
L 581 0 
L 581 4863 
L 1159 4863 
L 1159 2969 
z
" transform="scale(0.015625)"/>
     </defs>
     <use xlink:href="#DejaVuSans-62"/>
    </g>
   </g>
   <g id="text_2">
    <g id="patch_10">
     <path d="M 196.750473 347.792909 
L 210.878598 347.792909 
L 210.878598 330.114784 
L 196.750473 330.114784 
z
" style="fill: #ffffff; stroke: #ffffff; stroke-linejoin: miter"/>
    </g>
    <!-- a -->
    <g style="fill: #0000ff" transform="translate(200.750473 341.713221) scale(0.1 -0.1)">
     <defs>
      <path id="DejaVuSans-61" d="M 2194 1759 
Q 1497 1759 1228 1600 
Q 959 1441 959 1056 
Q 959 750 1161 570 
Q 1363 391 1709 391 
Q 2188 391 2477 730 
Q 2766 1069 2766 1631 
L 2766 1759 
L 2194 1759 
z
M 3341 1997 
L 3341 0 
L 2766 0 
L 2766 531 
Q 2569 213 2275 61 
Q 1981 -91 1556 -91 
Q 1019 -91 701 211 
Q 384 513 384 1019 
Q 384 1609 779 1909 
Q 1175 2209 1959 2209 
L 2766 2209 
L 2766 2266 
Q 2766 2663 2505 2880 
Q 2244 3097 1772 3097 
Q 1472 3097 1187 3025 
Q 903 2953 641 2809 
L 641 3341 
Q 956 3463 1253 3523 
Q 1550 3584 1831 3584 
Q 2591 3584 2966 3190 
Q 3341 2797 3341 1997 
z
" transform="scale(0.015625)"/>
     </defs>
     <use xlink:href="#DejaVuSans-61"/>
    </g>
   </g>
   <g id="text_3">
    <g id="patch_11">
     <path d="M 225.934035 245.262397 
L 237.454347 245.262397 
L 237.454347 227.584272 
L 225.934035 227.584272 
z
" style="fill: #ffffff; stroke: #ffffff; stroke-linejoin: miter"/>
    </g>
    <!-- f -->
    <g style="fill: #0000ff" transform="translate(229.934035 239.18271) scale(0.1 -0.1)">
     <defs>
      <path id="DejaVuSans-66" d="M 2375 4863 
L 2375 4384 
L 1825 4384 
Q 1516 4384 1395 4259 
Q 1275 4134 1275 3809 
L 1275 3500 
L 2222 3500 
L 2222 3053 
L 1275 3053 
L 1275 0 
L 697 0 
L 697 3053 
L 147 3053 
L 147 3500 
L 697 3500 
L 697 3744 
Q 697 4328 969 4595 
Q 1241 4863 1831 4863 
L 2375 4863 
z
" transform="scale(0.015625)"/>
     </defs>
     <use xlink:href="#DejaVuSans-66"/>
    </g>
   </g>
   <g id="text_4">
    <g id="patch_12">
     <path d="M 203.814269 240.0261 
L 215.334582 240.0261 
L 215.334582 222.347975 
L 203.814269 222.347975 
z
" style="fill: #ffffff; stroke: #ffffff; stroke-linejoin: miter"/>
    </g>
    <!-- f -->
    <g style="fill: #0000ff" transform="translate(207.814269 233.946412) scale(0.1 -0.1)">
     <use xlink:href="#DejaVuSans-66"/>
    </g>
   </g>
   <g id="text_5">
    <g id="patch_13">
     <path d="M 235.677512 247.880546 
L 249.830637 247.880546 
L 249.830637 230.202421 
L 235.677512 230.202421 
z
" style="fill: #ffffff; stroke: #ffffff; stroke-linejoin: miter"/>
    </g>
    <!-- e -->
    <g style="fill: #0000ff" transform="translate(239.677512 241.800858) scale(0.1 -0.1)">
     <defs>
      <path id="DejaVuSans-65" d="M 3597 1894 
L 3597 1613 
L 953 1613 
Q 991 1019 1311 708 
Q 1631 397 2203 397 
Q 2534 397 2845 478 
Q 3156 559 3463 722 
L 3463 178 
Q 3153 47 2828 -22 
Q 2503 -91 2169 -91 
Q 1331 -91 842 396 
Q 353 884 353 1716 
Q 353 2575 817 3079 
Q 1281 3584 2069 3584 
Q 2775 3584 3186 3129 
Q 3597 2675 3597 1894 
z
M 3022 2063 
Q 3016 2534 2758 2815 
Q 2500 3097 2075 3097 
Q 1594 3097 1305 2825 
Q 1016 2553 972 2059 
L 3022 2063 
z
" transform="scale(0.015625)"/>
     </defs>
     <use xlink:href="#DejaVuSans-65"/>
    </g>
   </g>
   <g id="text_6">
    <g id="patch_14">
     <path d="M 191.340324 237.407951 
L 205.688761 237.407951 
L 205.688761 219.729826 
L 191.340324 219.729826 
z
" style="fill: #ffffff; stroke: #ffffff; stroke-linejoin: miter"/>
    </g>
    <!-- d -->
    <g style="fill: #0000ff" transform="translate(195.340324 231.328264) scale(0.1 -0.1)">
     <defs>
      <path id="DejaVuSans-64" d="M 2906 2969 
L 2906 4863 
L 3481 4863 
L 3481 0 
L 2906 0 
L 2906 525 
Q 2725 213 2448 61 
Q 2172 -91 1784 -91 
Q 1150 -91 751 415 
Q 353 922 353 1747 
Q 353 2572 751 3078 
Q 1150 3584 1784 3584 
Q 2172 3584 2448 3432 
Q 2725 3281 2906 2969 
z
M 947 1747 
Q 947 1113 1208 752 
Q 1469 391 1925 391 
Q 2381 391 2643 752 
Q 2906 1113 2906 1747 
Q 2906 2381 2643 2742 
Q 2381 3103 1925 3103 
Q 1469 3103 1208 2742 
Q 947 2381 947 1747 
z
" transform="scale(0.015625)"/>
     </defs>
     <use xlink:href="#DejaVuSans-64"/>
    </g>
   </g>
   <g id="text_7">
    <g id="patch_15">
     <path d="M 265.870924 44.18773 
L 280.208424 44.18773 
L 280.208424 26.509605 
L 265.870924 26.509605 
z
" style="fill: #ffffff; stroke: #ffffff; stroke-linejoin: miter"/>
    </g>
    <!-- h -->
    <g style="fill: #0000ff" transform="translate(269.870924 38.108043) scale(0.1 -0.1)">
     <defs>
      <path id="DejaVuSans-68" d="M 3513 2113 
L 3513 0 
L 2938 0 
L 2938 2094 
Q 2938 2591 2744 2837 
Q 2550 3084 2163 3084 
Q 1697 3084 1428 2787 
Q 1159 2491 1159 1978 
L 1159 0 
L 581 0 
L 581 4863 
L 1159 4863 
L 1159 2956 
Q 1366 3272 1645 3428 
Q 1925 3584 2291 3584 
Q 2894 3584 3203 3211 
Q 3513 2838 3513 2113 
z
" transform="scale(0.015625)"/>
     </defs>
     <use xlink:href="#DejaVuSans-68"/>
    </g>
   </g>
   <g id="text_8">
    <g id="patch_16">
     <path d="M 248.072659 96.524434 
L 262.421096 96.524434 
L 262.421096 78.846309 
L 248.072659 78.846309 
z
" style="fill: #ffffff; stroke: #ffffff; stroke-linejoin: miter"/>
    </g>
    <!-- g -->
    <g style="fill: #0000ff" transform="translate(252.072659 90.444747) scale(0.1 -0.1)">
     <defs>
      <path id="DejaVuSans-67" d="M 2906 1791 
Q 2906 2416 2648 2759 
Q 2391 3103 1925 3103 
Q 1463 3103 1205 2759 
Q 947 2416 947 1791 
Q 947 1169 1205 825 
Q 1463 481 1925 481 
Q 2391 481 2648 825 
Q 2906 1169 2906 1791 
z
M 3481 434 
Q 3481 -459 3084 -895 
Q 2688 -1331 1869 -1331 
Q 1566 -1331 1297 -1286 
Q 1028 -1241 775 -1147 
L 775 -588 
Q 1028 -725 1275 -790 
Q 1522 -856 1778 -856 
Q 2344 -856 2625 -561 
Q 2906 -266 2906 331 
L 2906 616 
Q 2728 306 2450 153 
Q 2172 0 1784 0 
Q 1141 0 747 490 
Q 353 981 353 1791 
Q 353 2603 747 3093 
Q 1141 3584 1784 3584 
Q 2172 3584 2450 3431 
Q 2728 3278 2906 2969 
L 2906 3500 
L 3481 3500 
L 3481 434 
z
" transform="scale(0.015625)"/>
     </defs>
     <use xlink:href="#DejaVuSans-67"/>
    </g>
   </g>
   <g id="text_9">
    <g id="patch_17">
     <path d="M 213.88509 242.644249 
L 227.383527 242.644249 
L 227.383527 224.966124 
L 213.88509 224.966124 
z
" style="fill: #ffffff; stroke: #ffffff; stroke-linejoin: miter"/>
    </g>
    <!-- c -->
    <g style="fill: #0000ff" transform="translate(217.88509 236.564561) scale(0.1 -0.1)">
     <defs>
      <path id="DejaVuSans-63" d="M 3122 3366 
L 3122 2828 
Q 2878 2963 2633 3030 
Q 2388 3097 2138 3097 
Q 1578 3097 1268 2742 
Q 959 2388 959 1747 
Q 959 1106 1268 751 
Q 1578 397 2138 397 
Q 2388 397 2633 464 
Q 2878 531 3122 666 
L 3122 134 
Q 2881 22 2623 -34 
Q 2366 -91 2075 -91 
Q 1284 -91 818 406 
Q 353 903 353 1747 
Q 353 2603 823 3093 
Q 1294 3584 2113 3584 
Q 2378 3584 2631 3529 
Q 2884 3475 3122 3366 
z
" transform="scale(0.015625)"/>
     </defs>
     <use xlink:href="#DejaVuSans-63"/>
    </g>
   </g>
   <g id="patch_18">
    <path d="M 203.814535 310.828614 
C 205.398173 310.828614 206.917162 310.199428 208.036963 309.079627 
C 209.156765 307.959826 209.785951 306.440836 209.785951 304.857198 
C 209.785951 303.27356 209.156765 301.754571 208.036963 300.63477 
C 206.917162 299.514969 205.398173 298.885783 203.814535 298.885783 
C 202.230897 298.885783 200.711908 299.514969 199.592107 300.63477 
C 198.472305 301.754571 197.843119 303.27356 197.843119 304.857198 
C 197.843119 306.440836 198.472305 307.959826 199.592107 309.079627 
C 200.711908 310.199428 202.230897 310.828614 203.814535 310.828614 
z
" style="fill: #fec7b8; stroke: #000000; stroke-linejoin: miter"/>
   </g>
   <g id="patch_19">
    <path d="M 237.454082 168.724589 
C 239.03772 168.724589 240.556709 168.095403 241.67651 166.975602 
C 242.796311 165.855801 243.425497 164.336812 243.425497 162.753174 
C 243.425497 161.169536 242.796311 159.650546 241.67651 158.530745 
C 240.556709 157.410944 239.03772 156.781758 237.454082 156.781758 
C 235.870444 156.781758 234.351454 157.410944 233.231653 158.530745 
C 232.111852 159.650546 231.482666 161.169536 231.482666 162.753174 
C 231.482666 164.336812 232.111852 165.855801 233.231653 166.975602 
C 234.351454 168.095403 235.870444 168.724589 237.454082 168.724589 
z
" style="fill: #fec7b8; stroke: #000000; stroke-linejoin: miter"/>
   </g>
   <g id="patch_20">
    <path d="M 273.039674 18.588985 
C 274.623312 18.588985 276.142301 17.959799 277.262102 16.839998 
C 278.381903 15.720197 279.011089 14.201207 279.011089 12.617569 
C 279.011089 11.033932 278.381903 9.514942 277.262102 8.395141 
C 276.142301 7.27534 274.623312 6.646154 273.039674 6.646154 
C 271.456036 6.646154 269.937046 7.27534 268.817245 8.395141 
C 267.697444 9.514942 267.068258 11.033932 267.068258 12.617569 
C 267.068258 14.201207 267.697444 15.720197 268.817245 16.839998 
C 269.937046 17.959799 271.456036 18.588985 273.039674 18.588985 
z
" style="fill: #fec7b8; stroke: #000000; stroke-linejoin: miter"/>
   </g>
   <g id="patch_21">
    <path d="M 203.814535 327.588297 
C 206.828714 327.588297 209.719846 326.390751 211.851192 324.259405 
C 213.982538 322.128058 215.180084 319.236927 215.180084 316.222748 
C 215.180084 313.208569 213.982538 310.317437 211.851192 308.186091 
C 209.719846 306.054744 206.828714 304.857198 203.814535 304.857198 
C 200.800356 304.857198 197.909224 306.054744 195.777878 308.186091 
C 193.646532 310.317437 192.448986 313.208569 192.448986 316.222748 
C 192.448986 319.236927 193.646532 322.128058 195.777878 324.259405 
C 197.909224 326.390751 200.800356 327.588297 203.814535 327.588297 
L 203.814535 327.588297 
z
" clip-path="url(#pa98765d100)" style="fill: none; stroke: #ff0000; stroke-linejoin: miter"/>
   </g>
   <g id="patch_22">
    <path d="M 203.814535 338.953846 
C 208.335803 338.953846 212.672501 337.157527 215.86952 333.960508 
C 219.06654 330.763488 220.862859 326.426791 220.862859 321.905522 
C 220.862859 317.384254 219.06654 313.047556 215.86952 309.850537 
C 212.672501 306.653517 208.335803 304.857198 203.814535 304.857198 
C 199.293267 304.857198 194.956569 306.653517 191.75955 309.850537 
C 188.56253 313.047556 186.766211 317.384254 186.766211 321.905522 
C 186.766211 326.426791 188.56253 330.763488 191.75955 333.960508 
C 194.956569 337.157527 199.293267 338.953846 203.814535 338.953846 
L 203.814535 338.953846 
z
" clip-path="url(#pa98765d100)" style="fill: none; stroke: #ffbf00; stroke-linejoin: miter"/>
   </g>
   <g id="patch_23">
    <path d="M 273.039674 35.348668 
C 276.053853 35.348668 278.944984 34.151122 281.076331 32.019776 
C 283.207677 29.888429 284.405223 26.997298 284.405223 23.983119 
C 284.405223 20.96894 283.207677 18.077808 281.076331 15.946462 
C 278.944984 13.815115 276.053853 12.617569 273.039674 12.617569 
C 270.025495 12.617569 267.134363 13.815115 265.003017 15.946462 
C 262.87167 18.077808 261.674124 20.96894 261.674124 23.983119 
C 261.674124 26.997298 262.87167 29.888429 265.003017 32.019776 
C 267.134363 34.151122 270.025495 35.348668 273.039674 35.348668 
L 273.039674 35.348668 
z
" clip-path="url(#pa98765d100)" style="fill: none; stroke: #ff00bf; stroke-linejoin: miter"/>
   </g>
   <g id="text_10">
    <!-- 0 -->
    <g transform="translate(200.633285 307.616573) scale(0.1 -0.1)">
     <defs>
      <path id="DejaVuSans-30" d="M 2034 4250 
Q 1547 4250 1301 3770 
Q 1056 3291 1056 2328 
Q 1056 1369 1301 889 
Q 1547 409 2034 409 
Q 2525 409 2770 889 
Q 3016 1369 3016 2328 
Q 3016 3291 2770 3770 
Q 2525 4250 2034 4250 
z
M 2034 4750 
Q 2819 4750 3233 4129 
Q 3647 3509 3647 2328 
Q 3647 1150 3233 529 
Q 2819 -91 2034 -91 
Q 1250 -91 836 529 
Q 422 1150 422 2328 
Q 422 3509 836 4129 
Q 1250 4750 2034 4750 
z
" transform="scale(0.015625)"/>
     </defs>
     <use xlink:href="#DejaVuSans-30"/>
    </g>
   </g>
   <g id="text_11">
    <!-- 1 -->
    <g transform="translate(234.272832 165.512549) scale(0.1 -0.1)">
     <defs>
      <path id="DejaVuSans-31" d="M 794 531 
L 1825 531 
L 1825 4091 
L 703 3866 
L 703 4441 
L 1819 4666 
L 2450 4666 
L 2450 531 
L 3481 531 
L 3481 0 
L 794 0 
L 794 531 
z
" transform="scale(0.015625)"/>
     </defs>
     <use xlink:href="#DejaVuSans-31"/>
    </g>
   </g>
   <g id="text_12">
    <!-- 2 -->
    <g transform="translate(269.858424 15.376944) scale(0.1 -0.1)">
     <defs>
      <path id="DejaVuSans-32" d="M 1228 531 
L 3431 531 
L 3431 0 
L 469 0 
L 469 531 
Q 828 903 1448 1529 
Q 2069 2156 2228 2338 
Q 2531 2678 2651 2914 
Q 2772 3150 2772 3378 
Q 2772 3750 2511 3984 
Q 2250 4219 1831 4219 
Q 1534 4219 1204 4116 
Q 875 4013 500 3803 
L 500 4441 
Q 881 4594 1212 4672 
Q 1544 4750 1819 4750 
Q 2544 4750 2975 4387 
Q 3406 4025 3406 3419 
Q 3406 3131 3298 2873 
Q 3191 2616 2906 2266 
Q 2828 2175 2409 1742 
Q 1991 1309 1228 531 
z
" transform="scale(0.015625)"/>
     </defs>
     <use xlink:href="#DejaVuSans-32"/>
    </g>
   </g>
  </g>
 </g>
 <defs>
  <clipPath id="pa98765d100">
   <rect x="174.234568" y="0" width="112.330864" height="345.6"/>
  </clipPath>
 </defs>
</svg>
