<?xml version="1.0" encoding="utf-8" standalone="no"?>
<!DOCTYPE svg PUBLIC "-//W3C//DTD SVG 1.1//EN"
  "http://www.w3.org/Graphics/SVG/1.1/DTD/svg11.dtd">
<svg xmlns:xlink="http://www.w3.org/1999/xlink" width="460.8pt" height="345.6pt" viewBox="0 0 460.8 345.6" xmlns="http://www.w3.org/2000/svg" version="1.1">
 <metadata>
  <rdf:RDF xmlns:dc="http://purl.org/dc/elements/1.1/" xmlns:cc="http://creativecommons.org/ns#" xmlns:rdf="http://www.w3.org/1999/02/22-rdf-syntax-ns#">
   <cc:Work>
    <dc:type rdf:resource="http://purl.org/dc/dcmitype/StillImage"/>
    <dc:date>2025-08-02T22:40:48.875445</dc:date>
    <dc:format>image/svg+xml</dc:format>
    <dc:creator>
     <cc:Agent>
      <dc:title>Matplotlib v3.10.3, https://matplotlib.org/</dc:title>
     </cc:Agent>
    </dc:creator>
   </cc:Work>
  </rdf:RDF>
 </metadata>
 <defs>
  <style type="text/css">*{stroke-linejoin: round; stroke-linecap: butt}</style>
 </defs>
 <g id="figure_1">
  <g id="patch_1">
   <path d="M 0 345.6 
L 460.8 345.6 
L 460.8 0 
L 0 0 
z
" style="fill: #ffffff"/>
  </g>
  <g id="axes_1">
   <g id="patch_2">
    <path d="M 213.427113 345.6 
L 247.372887 345.6 
L 247.372887 0 
L 213.427113 0 
z
" style="fill: #ffffff"/>
   </g>
   <g id="matplotlib.axis_1"/>
   <g id="matplotlib.axis_2"/>
   <g id="patch_3">
    <path d="M 234.983552 307.807043 
Q 233.18947 267.846938 231.445535 229.003742 
" clip-path="url(#p34ea74206f)" style="fill: none; stroke: #00ff00; stroke-linecap: round"/>
    <path d="M 226.899083 239.217937 
L 231.445535 229.003742 
L 236.889019 238.769421 
z
" clip-path="url(#p34ea74206f)" style="fill: #00ff00; stroke: #00ff00; stroke-linecap: round"/>
   </g>
   <g id="patch_4">
    <path d="M 230.660009 211.024354 
Q 228.678931 164.217169 226.745131 118.527018 
" clip-path="url(#p34ea74206f)" style="fill: none; stroke: #00ff00; stroke-linecap: round"/>
    <path d="M 222.172467 128.729506 
L 226.745131 118.527018 
L 232.163522 128.306642 
z
" clip-path="url(#p34ea74206f)" style="fill: #00ff00; stroke: #00ff00; stroke-linecap: round"/>
   </g>
   <g id="patch_5">
    <path d="M 225.997761 100.545994 
Q 224.430082 62.031843 222.907875 24.634802 
" clip-path="url(#p34ea74206f)" style="fill: none; stroke: #000000; stroke-linecap: round"/>
    <path d="M 218.318714 34.829879 
L 222.907875 24.634802 
L 228.310441 34.423177 
z
" clip-path="url(#p34ea74206f)" style="stroke: #000000; stroke-linecap: round"/>
   </g>
   <g id="patch_6">
    <path d="M 235.362066 324.677072 
C 237.600184 324.677072 239.746936 323.787858 241.329525 322.20527 
C 242.912113 320.622681 243.801327 318.475929 243.801327 316.237811 
C 243.801327 313.999693 242.912113 311.852941 241.329525 310.270353 
C 239.746936 308.687764 237.600184 307.79855 235.362066 307.79855 
C 233.123948 307.79855 230.977196 308.687764 229.394608 310.270353 
C 227.812019 311.852941 226.922806 313.999693 226.922806 316.237811 
C 226.922806 318.475929 227.812019 320.622681 229.394608 322.20527 
C 230.977196 323.787858 233.123948 324.677072 235.362066 324.677072 
z
" style="fill: #fec7b8; stroke: #000000; stroke-linejoin: miter"/>
   </g>
   <g id="patch_7">
    <path d="M 231.016875 227.895326 
C 233.254993 227.895326 235.401745 227.006113 236.984333 225.423524 
C 238.566922 223.840936 239.456135 221.694184 239.456135 219.456066 
C 239.456135 217.217947 238.566922 215.071196 236.984333 213.488607 
C 235.401745 211.906019 233.254993 211.016805 231.016875 211.016805 
C 228.778756 211.016805 226.632005 211.906019 225.049416 213.488607 
C 223.466828 215.071196 222.577614 217.217947 222.577614 219.456066 
C 222.577614 221.694184 223.466828 223.840936 225.049416 225.423524 
C 226.632005 227.006113 228.778756 227.895326 231.016875 227.895326 
z
" style="fill: #fec7b8; stroke: #000000; stroke-linejoin: miter"/>
   </g>
   <g id="patch_8">
    <path d="M 226.340988 117.417533 
C 228.579106 117.417533 230.725858 116.528319 232.308446 114.945731 
C 233.891035 113.363142 234.780249 111.216391 234.780249 108.978272 
C 234.780249 106.740154 233.891035 104.593402 232.308446 103.010814 
C 230.725858 101.428225 228.579106 100.539012 226.340988 100.539012 
C 224.10287 100.539012 221.956118 101.428225 220.373529 103.010814 
C 218.790941 104.593402 217.901727 106.740154 217.901727 108.978272 
C 217.901727 111.216391 218.790941 113.363142 220.373529 114.945731 
C 221.956118 116.528319 224.10287 117.417533 226.340988 117.417533 
z
" style="fill: #fec7b8; stroke: #000000; stroke-linejoin: miter"/>
   </g>
   <g id="patch_9">
    <path d="M 222.519177 23.524675 
C 224.757295 23.524675 226.904047 22.635461 228.486635 21.052873 
C 230.069224 19.470285 230.958438 17.323533 230.958438 15.085415 
C 230.958438 12.847296 230.069224 10.700545 228.486635 9.117956 
C 226.904047 7.535368 224.757295 6.646154 222.519177 6.646154 
C 220.281059 6.646154 218.134307 7.535368 216.551718 9.117956 
C 214.96913 10.700545 214.079916 12.847296 214.079916 15.085415 
C 214.079916 17.323533 214.96913 19.470285 216.551718 21.052873 
C 218.134307 22.635461 220.281059 23.524675 222.519177 23.524675 
z
" style="fill: #fec7b8; stroke: #000000; stroke-linejoin: miter"/>
   </g>
   <g id="patch_10">
    <path d="M 235.362066 338.953846 
C 238.374248 338.953846 241.263464 337.757094 243.393397 335.62716 
C 245.523331 333.497226 246.720084 330.60801 246.720084 327.595829 
C 246.720084 324.583647 245.523331 321.694431 243.393397 319.564497 
C 241.263464 317.434563 238.374248 316.237811 235.362066 316.237811 
C 232.349885 316.237811 229.460669 317.434563 227.330735 319.564497 
C 225.200801 321.694431 224.004049 324.583647 224.004049 327.595829 
C 224.004049 330.60801 225.200801 333.497226 227.330735 335.62716 
C 229.460669 337.757094 232.349885 338.953846 235.362066 338.953846 
L 235.362066 338.953846 
z
" clip-path="url(#p34ea74206f)" style="fill: none; stroke: #000000; stroke-linejoin: miter"/>
   </g>
   <g id="text_1">
    <!-- 0 -->
    <g transform="translate(232.180816 318.997186) scale(0.1 -0.1)">
     <defs>
      <path id="DejaVuSans-30" d="M 2034 4250 
Q 1547 4250 1301 3770 
Q 1056 3291 1056 2328 
Q 1056 1369 1301 889 
Q 1547 409 2034 409 
Q 2525 409 2770 889 
Q 3016 1369 3016 2328 
Q 3016 3291 2770 3770 
Q 2525 4250 2034 4250 
z
M 2034 4750 
Q 2819 4750 3233 4129 
Q 3647 3509 3647 2328 
Q 3647 1150 3233 529 
Q 2819 -91 2034 -91 
Q 1250 -91 836 529 
Q 422 1150 422 2328 
Q 422 3509 836 4129 
Q 1250 4750 2034 4750 
z
" transform="scale(0.015625)"/>
     </defs>
     <use xlink:href="#DejaVuSans-30"/>
    </g>
   </g>
   <g id="text_2">
    <!-- 1 -->
    <g transform="translate(227.835625 222.215441) scale(0.1 -0.1)">
     <defs>
      <path id="DejaVuSans-31" d="M 794 531 
L 1825 531 
L 1825 4091 
L 703 3866 
L 703 4441 
L 1819 4666 
L 2450 4666 
L 2450 531 
L 3481 531 
L 3481 0 
L 794 0 
L 794 531 
z
" transform="scale(0.015625)"/>
     </defs>
     <use xlink:href="#DejaVuSans-31"/>
    </g>
   </g>
   <g id="text_3">
    <!-- 2 -->
    <g transform="translate(223.159738 111.737647) scale(0.1 -0.1)">
     <defs>
      <path id="DejaVuSans-32" d="M 1228 531 
L 3431 531 
L 3431 0 
L 469 0 
L 469 531 
Q 828 903 1448 1529 
Q 2069 2156 2228 2338 
Q 2531 2678 2651 2914 
Q 2772 3150 2772 3378 
Q 2772 3750 2511 3984 
Q 2250 4219 1831 4219 
Q 1534 4219 1204 4116 
Q 875 4013 500 3803 
L 500 4441 
Q 881 4594 1212 4672 
Q 1544 4750 1819 4750 
Q 2544 4750 2975 4387 
Q 3406 4025 3406 3419 
Q 3406 3131 3298 2873 
Q 3191 2616 2906 2266 
Q 2828 2175 2409 1742 
Q 1991 1309 1228 531 
z
" transform="scale(0.015625)"/>
     </defs>
     <use xlink:href="#DejaVuSans-32"/>
    </g>
   </g>
   <g id="text_4">
    <!-- 3 -->
    <g transform="translate(219.337927 17.84479) scale(0.1 -0.1)">
     <defs>
      <path id="DejaVuSans-33" d="M 2597 2516 
Q 3050 2419 3304 2112 
Q 3559 1806 3559 1356 
Q 3559 666 3084 287 
Q 2609 -91 1734 -91 
Q 1441 -91 1130 -33 
Q 819 25 488 141 
L 488 750 
Q 750 597 1062 519 
Q 1375 441 1716 441 
Q 2309 441 2620 675 
Q 2931 909 2931 1356 
Q 2931 1769 2642 2001 
Q 2353 2234 1838 2234 
L 1294 2234 
L 1294 2753 
L 1863 2753 
Q 2328 2753 2575 2939 
Q 2822 3125 2822 3475 
Q 2822 3834 2567 4026 
Q 2313 4219 1838 4219 
Q 1578 4219 1281 4162 
Q 984 4106 628 3988 
L 628 4550 
Q 988 4650 1302 4700 
Q 1616 4750 1894 4750 
Q 2613 4750 3031 4423 
Q 3450 4097 3450 3541 
Q 3450 3153 3228 2886 
Q 3006 2619 2597 2516 
z
" transform="scale(0.015625)"/>
     </defs>
     <use xlink:href="#DejaVuSans-33"/>
    </g>
   </g>
  </g>
 </g>
 <defs>
  <clipPath id="p34ea74206f">
   <rect x="213.427113" y="0" width="33.945774" height="345.6"/>
  </clipPath>
 </defs>
</svg>
