<?xml version="1.0" encoding="utf-8" standalone="no"?>
<!DOCTYPE svg PUBLIC "-//W3C//DTD SVG 1.1//EN"
  "http://www.w3.org/Graphics/SVG/1.1/DTD/svg11.dtd">
<svg xmlns:xlink="http://www.w3.org/1999/xlink" width="460.8pt" height="345.6pt" viewBox="0 0 460.8 345.6" xmlns="http://www.w3.org/2000/svg" version="1.1">
 <metadata>
  <rdf:RDF xmlns:dc="http://purl.org/dc/elements/1.1/" xmlns:cc="http://creativecommons.org/ns#" xmlns:rdf="http://www.w3.org/1999/02/22-rdf-syntax-ns#">
   <cc:Work>
    <dc:type rdf:resource="http://purl.org/dc/dcmitype/StillImage"/>
    <dc:date>2025-08-03T20:13:11.041004</dc:date>
    <dc:format>image/svg+xml</dc:format>
    <dc:creator>
     <cc:Agent>
      <dc:title>Matplotlib v3.10.3, https://matplotlib.org/</dc:title>
     </cc:Agent>
    </dc:creator>
   </cc:Work>
  </rdf:RDF>
 </metadata>
 <defs>
  <style type="text/css">*{stroke-linejoin: round; stroke-linecap: butt}</style>
 </defs>
 <g id="figure_1">
  <g id="patch_1">
   <path d="M 0 345.6 
L 460.8 345.6 
L 460.8 0 
L 0 0 
z
" style="fill: #ffffff"/>
  </g>
  <g id="axes_1">
   <g id="patch_2">
    <path d="M 184.377987 345.6 
L 276.422013 345.6 
L 276.422013 0 
L 184.377987 0 
z
" style="fill: #ffffff"/>
   </g>
   <g id="patch_3">
    <path d="M 225.515385 300.216203 
Q 252.525968 235.948293 238.927392 168.714513 
" clip-path="url(#pbb313acf4d)" style="fill: none; stroke: #7fff00; stroke-linecap: round"/>
    <path d="M 236.009067 179.507259 
L 238.927392 168.714513 
L 245.810594 177.524821 
z
" clip-path="url(#pbb313acf4d)" style="fill: #7fff00; stroke: #7fff00; stroke-linecap: round"/>
   </g>
   <g id="patch_4">
    <path d="M 222.094251 299.87588 
Q 208.274032 231.546256 234.85143 168.30905 
" clip-path="url(#pbb313acf4d)" style="fill: none; stroke: #7fff00; stroke-linecap: round"/>
    <path d="M 226.367455 175.590682 
L 234.85143 168.30905 
L 235.586351 179.465209 
z
" clip-path="url(#pbb313acf4d)" style="fill: #7fff00; stroke: #7fff00; stroke-linecap: round"/>
   </g>
   <g id="patch_5">
    <path d="M 226.792545 300.955123 
Q 274.651935 238.149311 240.592624 168.151176 
" clip-path="url(#pbb313acf4d)" style="fill: none; stroke: #00ff3f; stroke-linecap: round"/>
    <path d="M 240.471902 179.330864 
L 240.592624 168.151176 
L 249.463941 174.955567 
z
" clip-path="url(#pbb313acf4d)" style="fill: #00ff3f; stroke: #00ff3f; stroke-linecap: round"/>
   </g>
   <g id="patch_6">
    <path d="M 220.696549 300.348713 
Q 186.148065 229.345238 233.329812 167.428696 
" clip-path="url(#pbb313acf4d)" style="fill: none; stroke: #00ffff; stroke-linecap: round"/>
    <path d="M 223.291857 172.352054 
L 233.329812 167.428696 
L 231.245726 178.413075 
z
" clip-path="url(#pbb313acf4d)" style="fill: #00ffff; stroke: #00ffff; stroke-linecap: round"/>
   </g>
   <g id="matplotlib.axis_1"/>
   <g id="matplotlib.axis_2"/>
   <g id="patch_7">
    <path d="M 238.236512 154.968456 
Q 244.977434 87.190377 251.829004 18.299752 
" clip-path="url(#pbb313acf4d)" style="fill: none; stroke: #7f00ff; stroke-linecap: round"/>
    <path d="M 244.20164 145.512387 
L 238.236512 154.968456 
L 234.250733 144.522712 
z
" clip-path="url(#pbb313acf4d)" style="fill: #7f00ff; stroke: #7f00ff; stroke-linecap: round"/>
   </g>
   <g id="patch_8">
    <path d="M 223.830424 299.788638 
Q 230.4 233.747274 236.858904 168.818454 
" clip-path="url(#pbb313acf4d)" style="fill: none; stroke: #003fff; stroke-linecap: round"/>
    <path d="M 230.89358 178.2744 
L 236.858904 168.818454 
L 240.844466 179.264281 
z
" clip-path="url(#pbb313acf4d)" style="fill: #003fff; stroke: #003fff; stroke-linecap: round"/>
   </g>
   <g id="text_1">
    <g id="patch_9">
     <path d="M 216.078002 336.675322 
L 230.426439 336.675322 
L 230.426439 318.997197 
L 216.078002 318.997197 
z
" style="fill: #ffffff; stroke: #ffffff; stroke-linejoin: miter"/>
    </g>
    <!-- b -->
    <g style="fill: #0000ff" transform="translate(220.078002 330.595635) scale(0.1 -0.1)">
     <defs>
      <path id="DejaVuSans-62" d="M 3116 1747 
Q 3116 2381 2855 2742 
Q 2594 3103 2138 3103 
Q 1681 3103 1420 2742 
Q 1159 2381 1159 1747 
Q 1159 1113 1420 752 
Q 1681 391 2138 391 
Q 2594 391 2855 752 
Q 3116 1113 3116 1747 
z
M 1159 2969 
Q 1341 3281 1617 3432 
Q 1894 3584 2278 3584 
Q 2916 3584 3314 3078 
Q 3713 2572 3713 1747 
Q 3713 922 3314 415 
Q 2916 -91 2278 -91 
Q 1894 -91 1617 61 
Q 1341 213 1159 525 
L 1159 0 
L 581 0 
L 581 4863 
L 1159 4863 
L 1159 2969 
z
" transform="scale(0.015625)"/>
     </defs>
     <use xlink:href="#DejaVuSans-62"/>
    </g>
   </g>
   <g id="text_2">
    <g id="patch_10">
     <path d="M 216.188158 347.792909 
L 230.316283 347.792909 
L 230.316283 330.114784 
L 216.188158 330.114784 
z
" style="fill: #ffffff; stroke: #ffffff; stroke-linejoin: miter"/>
    </g>
    <!-- a -->
    <g style="fill: #0000ff" transform="translate(220.188158 341.713221) scale(0.1 -0.1)">
     <defs>
      <path id="DejaVuSans-61" d="M 2194 1759 
Q 1497 1759 1228 1600 
Q 959 1441 959 1056 
Q 959 750 1161 570 
Q 1363 391 1709 391 
Q 2188 391 2477 730 
Q 2766 1069 2766 1631 
L 2766 1759 
L 2194 1759 
z
M 3341 1997 
L 3341 0 
L 2766 0 
L 2766 531 
Q 2569 213 2275 61 
Q 1981 -91 1556 -91 
Q 1019 -91 701 211 
Q 384 513 384 1019 
Q 384 1609 779 1909 
Q 1175 2209 1959 2209 
L 2766 2209 
L 2766 2266 
Q 2766 2663 2505 2880 
Q 2244 3097 1772 3097 
Q 1472 3097 1187 3025 
Q 903 2953 641 2809 
L 641 3341 
Q 956 3463 1253 3523 
Q 1550 3584 1831 3584 
Q 2591 3584 2966 3190 
Q 3341 2797 3341 1997 
z
" transform="scale(0.015625)"/>
     </defs>
     <use xlink:href="#DejaVuSans-61"/>
    </g>
   </g>
   <g id="text_3">
    <g id="patch_11">
     <path d="M 235.702828 243.686846 
L 247.22314 243.686846 
L 247.22314 226.008721 
L 235.702828 226.008721 
z
" style="fill: #ffffff; stroke: #ffffff; stroke-linejoin: miter"/>
    </g>
    <!-- f -->
    <g style="fill: #0000ff" transform="translate(239.702828 237.607158) scale(0.1 -0.1)">
     <defs>
      <path id="DejaVuSans-66" d="M 2375 4863 
L 2375 4384 
L 1825 4384 
Q 1516 4384 1395 4259 
Q 1275 4134 1275 3809 
L 1275 3500 
L 2222 3500 
L 2222 3053 
L 1275 3053 
L 1275 0 
L 697 0 
L 697 3053 
L 147 3053 
L 147 3500 
L 697 3500 
L 697 3744 
Q 697 4328 969 4595 
Q 1241 4863 1831 4863 
L 2375 4863 
z
" transform="scale(0.015625)"/>
     </defs>
     <use xlink:href="#DejaVuSans-66"/>
    </g>
   </g>
   <g id="text_4">
    <g id="patch_12">
     <path d="M 213.57686 241.485828 
L 225.097172 241.485828 
L 225.097172 223.807703 
L 213.57686 223.807703 
z
" style="fill: #ffffff; stroke: #ffffff; stroke-linejoin: miter"/>
    </g>
    <!-- f -->
    <g style="fill: #0000ff" transform="translate(217.57686 235.40614) scale(0.1 -0.1)">
     <use xlink:href="#DejaVuSans-66"/>
    </g>
   </g>
   <g id="text_5">
    <g id="patch_13">
     <path d="M 245.449405 244.787355 
L 259.60253 244.787355 
L 259.60253 227.10923 
L 245.449405 227.10923 
z
" style="fill: #ffffff; stroke: #ffffff; stroke-linejoin: miter"/>
    </g>
    <!-- e -->
    <g style="fill: #0000ff" transform="translate(249.449405 238.707668) scale(0.1 -0.1)">
     <defs>
      <path id="DejaVuSans-65" d="M 3597 1894 
L 3597 1613 
L 953 1613 
Q 991 1019 1311 708 
Q 1631 397 2203 397 
Q 2534 397 2845 478 
Q 3156 559 3463 722 
L 3463 178 
Q 3153 47 2828 -22 
Q 2503 -91 2169 -91 
Q 1331 -91 842 396 
Q 353 884 353 1716 
Q 353 2575 817 3079 
Q 1281 3584 2069 3584 
Q 2775 3584 3186 3129 
Q 3597 2675 3597 1894 
z
M 3022 2063 
Q 3016 2534 2758 2815 
Q 2500 3097 2075 3097 
Q 1594 3097 1305 2825 
Q 1016 2553 972 2059 
L 3022 2063 
z
" transform="scale(0.015625)"/>
     </defs>
     <use xlink:href="#DejaVuSans-65"/>
    </g>
   </g>
   <g id="text_6">
    <g id="patch_14">
     <path d="M 201.099814 240.385319 
L 215.448251 240.385319 
L 215.448251 222.707194 
L 201.099814 222.707194 
z
" style="fill: #ffffff; stroke: #ffffff; stroke-linejoin: miter"/>
    </g>
    <!-- d -->
    <g style="fill: #0000ff" transform="translate(205.099814 234.305631) scale(0.1 -0.1)">
     <defs>
      <path id="DejaVuSans-64" d="M 2906 2969 
L 2906 4863 
L 3481 4863 
L 3481 0 
L 2906 0 
L 2906 525 
Q 2725 213 2448 61 
Q 2172 -91 1784 -91 
Q 1150 -91 751 415 
Q 353 922 353 1747 
Q 353 2572 751 3078 
Q 1150 3584 1784 3584 
Q 2172 3584 2448 3432 
Q 2725 3281 2906 2969 
z
M 947 1747 
Q 947 1113 1208 752 
Q 1469 391 1925 391 
Q 2381 391 2643 752 
Q 2906 1113 2906 1747 
Q 2906 2381 2643 2742 
Q 2381 3103 1925 3103 
Q 1469 3103 1208 2742 
Q 947 2381 947 1747 
z
" transform="scale(0.015625)"/>
     </defs>
     <use xlink:href="#DejaVuSans-64"/>
    </g>
   </g>
   <g id="text_7">
    <g id="patch_15">
     <path d="M 245.238337 43.561526 
L 259.575837 43.561526 
L 259.575837 25.883401 
L 245.238337 25.883401 
z
" style="fill: #ffffff; stroke: #ffffff; stroke-linejoin: miter"/>
    </g>
    <!-- h -->
    <g style="fill: #0000ff" transform="translate(249.238337 37.481839) scale(0.1 -0.1)">
     <defs>
      <path id="DejaVuSans-68" d="M 3513 2113 
L 3513 0 
L 2938 0 
L 2938 2094 
Q 2938 2591 2744 2837 
Q 2550 3084 2163 3084 
Q 1697 3084 1428 2787 
Q 1159 2491 1159 1978 
L 1159 0 
L 581 0 
L 581 4863 
L 1159 4863 
L 1159 2956 
Q 1366 3272 1645 3428 
Q 1925 3584 2291 3584 
Q 2894 3584 3203 3211 
Q 3513 2838 3513 2113 
z
" transform="scale(0.015625)"/>
     </defs>
     <use xlink:href="#DejaVuSans-68"/>
    </g>
   </g>
   <g id="text_8">
    <g id="patch_16">
     <path d="M 237.803215 96.029439 
L 252.151652 96.029439 
L 252.151652 78.351314 
L 237.803215 78.351314 
z
" style="fill: #ffffff; stroke: #ffffff; stroke-linejoin: miter"/>
    </g>
    <!-- g -->
    <g style="fill: #0000ff" transform="translate(241.803215 89.949752) scale(0.1 -0.1)">
     <defs>
      <path id="DejaVuSans-67" d="M 2906 1791 
Q 2906 2416 2648 2759 
Q 2391 3103 1925 3103 
Q 1463 3103 1205 2759 
Q 947 2416 947 1791 
Q 947 1169 1205 825 
Q 1463 481 1925 481 
Q 2391 481 2648 825 
Q 2906 1169 2906 1791 
z
M 3481 434 
Q 3481 -459 3084 -895 
Q 2688 -1331 1869 -1331 
Q 1566 -1331 1297 -1286 
Q 1028 -1241 775 -1147 
L 775 -588 
Q 1028 -725 1275 -790 
Q 1522 -856 1778 -856 
Q 2344 -856 2625 -561 
Q 2906 -266 2906 331 
L 2906 616 
Q 2728 306 2450 153 
Q 2172 0 1784 0 
Q 1141 0 747 490 
Q 353 981 353 1791 
Q 353 2603 747 3093 
Q 1141 3584 1784 3584 
Q 2172 3584 2450 3431 
Q 2728 3278 2906 2969 
L 2906 3500 
L 3481 3500 
L 3481 434 
z
" transform="scale(0.015625)"/>
     </defs>
     <use xlink:href="#DejaVuSans-67"/>
    </g>
   </g>
   <g id="text_9">
    <g id="patch_17">
     <path d="M 223.650781 242.586337 
L 237.149219 242.586337 
L 237.149219 224.908212 
L 223.650781 224.908212 
z
" style="fill: #ffffff; stroke: #ffffff; stroke-linejoin: miter"/>
    </g>
    <!-- c -->
    <g style="fill: #0000ff" transform="translate(227.650781 236.506649) scale(0.1 -0.1)">
     <defs>
      <path id="DejaVuSans-63" d="M 3122 3366 
L 3122 2828 
Q 2878 2963 2633 3030 
Q 2388 3097 2138 3097 
Q 1578 3097 1268 2742 
Q 959 2388 959 1747 
Q 959 1106 1268 751 
Q 1578 397 2138 397 
Q 2388 397 2633 464 
Q 2878 531 3122 666 
L 3122 134 
Q 2881 22 2623 -34 
Q 2366 -91 2075 -91 
Q 1284 -91 818 406 
Q 353 903 353 1747 
Q 353 2603 823 3093 
Q 1294 3584 2113 3584 
Q 2378 3584 2631 3529 
Q 2884 3475 3122 3366 
z
" transform="scale(0.015625)"/>
     </defs>
     <use xlink:href="#DejaVuSans-63"/>
    </g>
   </g>
   <g id="patch_18">
    <path d="M 223.25222 311.442223 
C 224.801308 311.442223 226.287158 310.826764 227.382528 309.731394 
C 228.477898 308.636024 229.093357 307.150174 229.093357 305.601087 
C 229.093357 304.051999 228.477898 302.566149 227.382528 301.470779 
C 226.287158 300.375409 224.801308 299.75995 223.25222 299.75995 
C 221.703133 299.75995 220.217283 300.375409 219.121913 301.470779 
C 218.026542 302.566149 217.411083 304.051999 217.411083 305.601087 
C 217.411083 307.150174 218.026542 308.636024 219.121913 309.731394 
C 220.217283 310.826764 221.703133 311.442223 223.25222 311.442223 
z
" style="fill: #fec7b8; stroke: #000000; stroke-linejoin: miter"/>
   </g>
   <g id="patch_19">
    <path d="M 237.54778 167.734599 
C 239.096867 167.734599 240.582717 167.11914 241.678087 166.02377 
C 242.773458 164.928399 243.388917 163.44255 243.388917 161.893462 
C 243.388917 160.344375 242.773458 158.858525 241.678087 157.763155 
C 240.582717 156.667784 239.096867 156.052325 237.54778 156.052325 
C 235.998692 156.052325 234.512842 156.667784 233.417472 157.763155 
C 232.322102 158.858525 231.706643 160.344375 231.706643 161.893462 
C 231.706643 163.44255 232.322102 164.928399 233.417472 166.02377 
C 234.512842 167.11914 235.998692 167.734599 237.54778 167.734599 
z
" style="fill: #fec7b8; stroke: #000000; stroke-linejoin: miter"/>
   </g>
   <g id="patch_20">
    <path d="M 252.407087 18.328428 
C 253.956175 18.328428 255.442025 17.712969 256.537395 16.617598 
C 257.632765 15.522228 258.248224 14.036378 258.248224 12.487291 
C 258.248224 10.938203 257.632765 9.452354 256.537395 8.356983 
C 255.442025 7.261613 253.956175 6.646154 252.407087 6.646154 
C 250.858 6.646154 249.37215 7.261613 248.27678 8.356983 
C 247.181409 9.452354 246.56595 10.938203 246.56595 12.487291 
C 246.56595 14.036378 247.181409 15.522228 248.27678 16.617598 
C 249.37215 17.712969 250.858 18.328428 252.407087 18.328428 
z
" style="fill: #fec7b8; stroke: #000000; stroke-linejoin: miter"/>
   </g>
   <g id="patch_21">
    <path d="M 223.25222 327.83626 
C 226.200639 327.83626 229.028695 326.664841 231.113541 324.579994 
C 233.198388 322.495147 234.369807 319.667091 234.369807 316.718673 
C 234.369807 313.770255 233.198388 310.942199 231.113541 308.857352 
C 229.028695 306.772506 226.200639 305.601087 223.25222 305.601087 
C 220.303802 305.601087 217.475746 306.772506 215.390899 308.857352 
C 213.306053 310.942199 212.134634 313.770255 212.134634 316.718673 
C 212.134634 319.667091 213.306053 322.495147 215.390899 324.579994 
C 217.475746 326.664841 220.303802 327.83626 223.25222 327.83626 
L 223.25222 327.83626 
z
" clip-path="url(#pbb313acf4d)" style="fill: none; stroke: #ff0000; stroke-linejoin: miter"/>
   </g>
   <g id="patch_22">
    <path d="M 223.25222 338.953846 
C 227.674848 338.953846 231.916932 337.196718 235.044202 334.069448 
C 238.171472 330.942178 239.9286 326.700094 239.9286 322.277466 
C 239.9286 317.854839 238.171472 313.612755 235.044202 310.485485 
C 231.916932 307.358215 227.674848 305.601087 223.25222 305.601087 
C 218.829593 305.601087 214.587509 307.358215 211.460239 310.485485 
C 208.332969 313.612755 206.575841 317.854839 206.575841 322.277466 
C 206.575841 326.700094 208.332969 330.942178 211.460239 334.069448 
C 214.587509 337.196718 218.829593 338.953846 223.25222 338.953846 
L 223.25222 338.953846 
z
" clip-path="url(#pbb313acf4d)" style="fill: none; stroke: #ffbf00; stroke-linejoin: miter"/>
   </g>
   <g id="patch_23">
    <path d="M 252.407087 34.722464 
C 255.355506 34.722464 258.183562 33.551045 260.268408 31.466198 
C 262.353255 29.381352 263.524674 26.553296 263.524674 23.604877 
C 263.524674 20.656459 262.353255 17.828403 260.268408 15.743557 
C 258.183562 13.65871 255.355506 12.487291 252.407087 12.487291 
C 249.458669 12.487291 246.630613 13.65871 244.545766 15.743557 
C 242.46092 17.828403 241.289501 20.656459 241.289501 23.604877 
C 241.289501 26.553296 242.46092 29.381352 244.545766 31.466198 
C 246.630613 33.551045 249.458669 34.722464 252.407087 34.722464 
L 252.407087 34.722464 
z
" clip-path="url(#pbb313acf4d)" style="fill: none; stroke: #ff00bf; stroke-linejoin: miter"/>
   </g>
   <g id="text_10">
    <!-- 0 -->
    <g transform="translate(220.07097 308.360462) scale(0.1 -0.1)">
     <defs>
      <path id="DejaVuSans-30" d="M 2034 4250 
Q 1547 4250 1301 3770 
Q 1056 3291 1056 2328 
Q 1056 1369 1301 889 
Q 1547 409 2034 409 
Q 2525 409 2770 889 
Q 3016 1369 3016 2328 
Q 3016 3291 2770 3770 
Q 2525 4250 2034 4250 
z
M 2034 4750 
Q 2819 4750 3233 4129 
Q 3647 3509 3647 2328 
Q 3647 1150 3233 529 
Q 2819 -91 2034 -91 
Q 1250 -91 836 529 
Q 422 1150 422 2328 
Q 422 3509 836 4129 
Q 1250 4750 2034 4750 
z
" transform="scale(0.015625)"/>
     </defs>
     <use xlink:href="#DejaVuSans-30"/>
    </g>
   </g>
   <g id="text_11">
    <!-- 1 -->
    <g transform="translate(234.36653 164.652837) scale(0.1 -0.1)">
     <defs>
      <path id="DejaVuSans-31" d="M 794 531 
L 1825 531 
L 1825 4091 
L 703 3866 
L 703 4441 
L 1819 4666 
L 2450 4666 
L 2450 531 
L 3481 531 
L 3481 0 
L 794 0 
L 794 531 
z
" transform="scale(0.015625)"/>
     </defs>
     <use xlink:href="#DejaVuSans-31"/>
    </g>
   </g>
   <g id="text_12">
    <!-- 2 -->
    <g transform="translate(249.225837 15.246666) scale(0.1 -0.1)">
     <defs>
      <path id="DejaVuSans-32" d="M 1228 531 
L 3431 531 
L 3431 0 
L 469 0 
L 469 531 
Q 828 903 1448 1529 
Q 2069 2156 2228 2338 
Q 2531 2678 2651 2914 
Q 2772 3150 2772 3378 
Q 2772 3750 2511 3984 
Q 2250 4219 1831 4219 
Q 1534 4219 1204 4116 
Q 875 4013 500 3803 
L 500 4441 
Q 881 4594 1212 4672 
Q 1544 4750 1819 4750 
Q 2544 4750 2975 4387 
Q 3406 4025 3406 3419 
Q 3406 3131 3298 2873 
Q 3191 2616 2906 2266 
Q 2828 2175 2409 1742 
Q 1991 1309 1228 531 
z
" transform="scale(0.015625)"/>
     </defs>
     <use xlink:href="#DejaVuSans-32"/>
    </g>
   </g>
  </g>
 </g>
 <defs>
  <clipPath id="pbb313acf4d">
   <rect x="184.377987" y="0" width="92.044025" height="345.6"/>
  </clipPath>
 </defs>
</svg>
