<?xml version="1.0" encoding="utf-8" standalone="no"?>
<!DOCTYPE svg PUBLIC "-//W3C//DTD SVG 1.1//EN"
  "http://www.w3.org/Graphics/SVG/1.1/DTD/svg11.dtd">
<svg xmlns:xlink="http://www.w3.org/1999/xlink" width="460.8pt" height="345.6pt" viewBox="0 0 460.8 345.6" xmlns="http://www.w3.org/2000/svg" version="1.1">
 <metadata>
  <rdf:RDF xmlns:dc="http://purl.org/dc/elements/1.1/" xmlns:cc="http://creativecommons.org/ns#" xmlns:rdf="http://www.w3.org/1999/02/22-rdf-syntax-ns#">
   <cc:Work>
    <dc:type rdf:resource="http://purl.org/dc/dcmitype/StillImage"/>
    <dc:date>2025-08-01T22:04:05.363797</dc:date>
    <dc:format>image/svg+xml</dc:format>
    <dc:creator>
     <cc:Agent>
      <dc:title>Matplotlib v3.10.3, https://matplotlib.org/</dc:title>
     </cc:Agent>
    </dc:creator>
   </cc:Work>
  </rdf:RDF>
 </metadata>
 <defs>
  <style type="text/css">*{stroke-linejoin: round; stroke-linecap: butt}</style>
 </defs>
 <g id="figure_1">
  <g id="patch_1">
   <path d="M 0 345.6 
L 460.8 345.6 
L 460.8 0 
L 0 0 
z
" style="fill: #ffffff"/>
  </g>
  <g id="axes_1">
   <g id="patch_2">
    <path d="M 115.613496 345.6 
L 345.186504 345.6 
L 345.186504 0 
L 115.613496 0 
z
" style="fill: #ffffff"/>
   </g>
   <g id="patch_3">
    <path d="M 319.047778 20.330579 
Q 296.723924 101.967714 233.7448 156.818492 
" clip-path="url(#p03775c3582)" style="fill: none; stroke: #7fff00; stroke-linecap: round"/>
    <path d="M 244.56957 154.021289 
L 233.7448 156.818492 
L 238.001899 146.480354 
z
" clip-path="url(#p03775c3582)" style="fill: #7fff00; stroke: #7fff00; stroke-linecap: round"/>
   </g>
   <g id="patch_4">
    <path d="M 315.632392 18.18645 
Q 251.810165 73.771516 229.781213 154.330211 
" clip-path="url(#p03775c3582)" style="fill: none; stroke: #7fff00; stroke-linecap: round"/>
    <path d="M 237.241826 146.003191 
L 229.781213 154.330211 
L 227.595965 143.365509 
z
" clip-path="url(#p03775c3582)" style="fill: #7fff00; stroke: #7fff00; stroke-linecap: round"/>
   </g>
   <g id="patch_5">
    <path d="M 320.769217 20.576293 
Q 319.180804 116.065812 234.86984 158.493778 
" clip-path="url(#p03775c3582)" style="fill: none; stroke: #00ff3f; stroke-linecap: round"/>
    <path d="M 246.050143 158.464909 
L 234.86984 158.493778 
L 241.554926 149.532214 
z
" clip-path="url(#p03775c3582)" style="fill: #00ff3f; stroke: #00ff3f; stroke-linecap: round"/>
   </g>
   <g id="patch_6">
    <path d="M 314.662955 16.742871 
Q 229.353286 59.673417 227.783468 154.045058 
" clip-path="url(#p03775c3582)" style="fill: none; stroke: #00ffff; stroke-linecap: round"/>
    <path d="M 232.949097 144.129602 
L 227.783468 154.045058 
L 222.950481 143.96328 
z
" clip-path="url(#p03775c3582)" style="fill: #00ffff; stroke: #00ffff; stroke-linecap: round"/>
   </g>
   <g id="matplotlib.axis_1"/>
   <g id="matplotlib.axis_2"/>
   <g id="patch_7">
    <path d="M 223.351026 168.973808 
Q 180.467548 237.282972 136.989617 306.539041 
" clip-path="url(#p03775c3582)" style="fill: none; stroke: #7f00ff; stroke-linecap: round"/>
    <path d="M 213.799402 174.784702 
L 223.351026 168.973808 
L 222.268767 180.101643 
z
" clip-path="url(#p03775c3582)" style="fill: #7f00ff; stroke: #7f00ff; stroke-linecap: round"/>
   </g>
   <g id="patch_8">
    <path d="M 317.181525 19.511084 
Q 274.267045 87.869615 231.947016 155.281242 
" clip-path="url(#p03775c3582)" style="fill: none; stroke: #003fff; stroke-linecap: round"/>
    <path d="M 241.49864 149.470349 
L 231.947016 155.281242 
L 233.029276 144.153407 
z
" clip-path="url(#p03775c3582)" style="fill: #003fff; stroke: #003fff; stroke-linecap: round"/>
   </g>
   <g id="text_1">
    <g id="patch_9">
     <path d="M 313.71085 48.966194 
L 328.059287 48.966194 
L 328.059287 31.288069 
L 313.71085 31.288069 
z
" style="fill: #ffffff; stroke: #ffffff; stroke-linejoin: miter"/>
    </g>
    <!-- b -->
    <g style="fill: #0000ff" transform="translate(317.71085 42.886506) scale(0.1 -0.1)">
     <defs>
      <path id="DejaVuSans-62" d="M 3116 1747 
Q 3116 2381 2855 2742 
Q 2594 3103 2138 3103 
Q 1681 3103 1420 2742 
Q 1159 2381 1159 1747 
Q 1159 1113 1420 752 
Q 1681 391 2138 391 
Q 2594 391 2855 752 
Q 3116 1113 3116 1747 
z
M 1159 2969 
Q 1341 3281 1617 3432 
Q 1894 3584 2278 3584 
Q 2916 3584 3314 3078 
Q 3713 2572 3713 1747 
Q 3713 922 3314 415 
Q 2916 -91 2278 -91 
Q 1894 -91 1617 61 
Q 1341 213 1159 525 
L 1159 0 
L 581 0 
L 581 4863 
L 1159 4863 
L 1159 2969 
z
" transform="scale(0.015625)"/>
     </defs>
     <use xlink:href="#DejaVuSans-62"/>
    </g>
   </g>
   <g id="text_2">
    <g id="patch_10">
     <path d="M 313.821006 62.223907 
L 327.949131 62.223907 
L 327.949131 44.545782 
L 313.821006 44.545782 
z
" style="fill: #ffffff; stroke: #ffffff; stroke-linejoin: miter"/>
    </g>
    <!-- a -->
    <g style="fill: #0000ff" transform="translate(317.821006 56.144219) scale(0.1 -0.1)">
     <defs>
      <path id="DejaVuSans-61" d="M 2194 1759 
Q 1497 1759 1228 1600 
Q 959 1441 959 1056 
Q 959 750 1161 570 
Q 1363 391 1709 391 
Q 2188 391 2477 730 
Q 2766 1069 2766 1631 
L 2766 1759 
L 2194 1759 
z
M 3341 1997 
L 3341 0 
L 2766 0 
L 2766 531 
Q 2569 213 2275 61 
Q 1981 -91 1556 -91 
Q 1019 -91 701 211 
Q 384 513 384 1019 
Q 384 1609 779 1909 
Q 1175 2209 1959 2209 
L 2766 2209 
L 2766 2266 
Q 2766 2663 2505 2880 
Q 2244 3097 1772 3097 
Q 1472 3097 1187 3025 
Q 903 2953 641 2809 
L 641 3341 
Q 956 3463 1253 3523 
Q 1550 3584 1831 3584 
Q 2591 3584 2966 3190 
Q 3341 2797 3341 1997 
z
" transform="scale(0.015625)"/>
     </defs>
     <use xlink:href="#DejaVuSans-61"/>
    </g>
   </g>
   <g id="text_3">
    <g id="patch_11">
     <path d="M 279.735328 103.757727 
L 291.255641 103.757727 
L 291.255641 86.079602 
L 279.735328 86.079602 
z
" style="fill: #ffffff; stroke: #ffffff; stroke-linejoin: miter"/>
    </g>
    <!-- f -->
    <g style="fill: #0000ff" transform="translate(283.735328 97.678039) scale(0.1 -0.1)">
     <defs>
      <path id="DejaVuSans-66" d="M 2375 4863 
L 2375 4384 
L 1825 4384 
Q 1516 4384 1395 4259 
Q 1275 4134 1275 3809 
L 1275 3500 
L 2222 3500 
L 2222 3053 
L 1275 3053 
L 1275 0 
L 697 0 
L 697 3053 
L 147 3053 
L 147 3500 
L 697 3500 
L 697 3744 
Q 697 4328 969 4595 
Q 1241 4863 1831 4863 
L 2375 4863 
z
" transform="scale(0.015625)"/>
     </defs>
     <use xlink:href="#DejaVuSans-66"/>
    </g>
   </g>
   <g id="text_4">
    <g id="patch_12">
     <path d="M 257.278449 89.659628 
L 268.798761 89.659628 
L 268.798761 71.981503 
L 257.278449 71.981503 
z
" style="fill: #ffffff; stroke: #ffffff; stroke-linejoin: miter"/>
    </g>
    <!-- f -->
    <g style="fill: #0000ff" transform="translate(261.278449 83.579941) scale(0.1 -0.1)">
     <use xlink:href="#DejaVuSans-66"/>
    </g>
   </g>
   <g id="text_5">
    <g id="patch_13">
     <path d="M 289.647362 110.806776 
L 303.800487 110.806776 
L 303.800487 93.128651 
L 289.647362 93.128651 
z
" style="fill: #ffffff; stroke: #ffffff; stroke-linejoin: miter"/>
    </g>
    <!-- e -->
    <g style="fill: #0000ff" transform="translate(293.647362 104.727089) scale(0.1 -0.1)">
     <defs>
      <path id="DejaVuSans-65" d="M 3597 1894 
L 3597 1613 
L 953 1613 
Q 991 1019 1311 708 
Q 1631 397 2203 397 
Q 2534 397 2845 478 
Q 3156 559 3463 722 
L 3463 178 
Q 3153 47 2828 -22 
Q 2503 -91 2169 -91 
Q 1331 -91 842 396 
Q 353 884 353 1716 
Q 353 2575 817 3079 
Q 1281 3584 2069 3584 
Q 2775 3584 3186 3129 
Q 3597 2675 3597 1894 
z
M 3022 2063 
Q 3016 2534 2758 2815 
Q 2500 3097 2075 3097 
Q 1594 3097 1305 2825 
Q 1016 2553 972 2059 
L 3022 2063 
z
" transform="scale(0.015625)"/>
     </defs>
     <use xlink:href="#DejaVuSans-65"/>
    </g>
   </g>
   <g id="text_6">
    <g id="patch_14">
     <path d="M 244.635946 82.610579 
L 258.984384 82.610579 
L 258.984384 64.932454 
L 244.635946 64.932454 
z
" style="fill: #ffffff; stroke: #ffffff; stroke-linejoin: miter"/>
    </g>
    <!-- d -->
    <g style="fill: #0000ff" transform="translate(248.635946 76.530891) scale(0.1 -0.1)">
     <defs>
      <path id="DejaVuSans-64" d="M 2906 2969 
L 2906 4863 
L 3481 4863 
L 3481 0 
L 2906 0 
L 2906 525 
Q 2725 213 2448 61 
Q 2172 -91 1784 -91 
Q 1150 -91 751 415 
Q 353 922 353 1747 
Q 353 2572 751 3078 
Q 1150 3584 1784 3584 
Q 2172 3584 2448 3432 
Q 2725 3281 2906 2969 
z
M 947 1747 
Q 947 1113 1208 752 
Q 1469 391 1925 391 
Q 2381 391 2643 752 
Q 2906 1113 2906 1747 
Q 2906 2381 2643 2742 
Q 2381 3103 1925 3103 
Q 1469 3103 1208 2742 
Q 947 2381 947 1747 
z
" transform="scale(0.015625)"/>
     </defs>
     <use xlink:href="#DejaVuSans-64"/>
    </g>
   </g>
   <g id="text_7">
    <g id="patch_15">
     <path d="M 126.117325 347.792909 
L 140.454825 347.792909 
L 140.454825 330.114784 
L 126.117325 330.114784 
z
" style="fill: #ffffff; stroke: #ffffff; stroke-linejoin: miter"/>
    </g>
    <!-- h -->
    <g style="fill: #0000ff" transform="translate(130.117325 341.713221) scale(0.1 -0.1)">
     <defs>
      <path id="DejaVuSans-68" d="M 3513 2113 
L 3513 0 
L 2938 0 
L 2938 2094 
Q 2938 2591 2744 2837 
Q 2550 3084 2163 3084 
Q 1697 3084 1428 2787 
Q 1159 2491 1159 1978 
L 1159 0 
L 581 0 
L 581 4863 
L 1159 4863 
L 1159 2956 
Q 1366 3272 1645 3428 
Q 1925 3584 2291 3584 
Q 2894 3584 3203 3211 
Q 3513 2838 3513 2113 
z
" transform="scale(0.015625)"/>
     </defs>
     <use xlink:href="#DejaVuSans-68"/>
    </g>
   </g>
   <g id="text_8">
    <g id="patch_16">
     <path d="M 173.293329 246.122035 
L 187.641766 246.122035 
L 187.641766 228.44391 
L 173.293329 228.44391 
z
" style="fill: #ffffff; stroke: #ffffff; stroke-linejoin: miter"/>
    </g>
    <!-- g -->
    <g style="fill: #0000ff" transform="translate(177.293329 240.042347) scale(0.1 -0.1)">
     <defs>
      <path id="DejaVuSans-67" d="M 2906 1791 
Q 2906 2416 2648 2759 
Q 2391 3103 1925 3103 
Q 1463 3103 1205 2759 
Q 947 2416 947 1791 
Q 947 1169 1205 825 
Q 1463 481 1925 481 
Q 2391 481 2648 825 
Q 2906 1169 2906 1791 
z
M 3481 434 
Q 3481 -459 3084 -895 
Q 2688 -1331 1869 -1331 
Q 1566 -1331 1297 -1286 
Q 1028 -1241 775 -1147 
L 775 -588 
Q 1028 -725 1275 -790 
Q 1522 -856 1778 -856 
Q 2344 -856 2625 -561 
Q 2906 -266 2906 331 
L 2906 616 
Q 2728 306 2450 153 
Q 2172 0 1784 0 
Q 1141 0 747 490 
Q 353 981 353 1791 
Q 353 2603 747 3093 
Q 1141 3584 1784 3584 
Q 2172 3584 2450 3431 
Q 2728 3278 2906 2969 
L 2906 3500 
L 3481 3500 
L 3481 434 
z
" transform="scale(0.015625)"/>
     </defs>
     <use xlink:href="#DejaVuSans-67"/>
    </g>
   </g>
   <g id="text_9">
    <g id="patch_17">
     <path d="M 267.517826 96.708677 
L 281.016263 96.708677 
L 281.016263 79.030552 
L 267.517826 79.030552 
z
" style="fill: #ffffff; stroke: #ffffff; stroke-linejoin: miter"/>
    </g>
    <!-- c -->
    <g style="fill: #0000ff" transform="translate(271.517826 90.62899) scale(0.1 -0.1)">
     <defs>
      <path id="DejaVuSans-63" d="M 3122 3366 
L 3122 2828 
Q 2878 2963 2633 3030 
Q 2388 3097 2138 3097 
Q 1578 3097 1268 2742 
Q 959 2388 959 1747 
Q 959 1106 1268 751 
Q 1578 397 2138 397 
Q 2388 397 2633 464 
Q 2878 531 3122 666 
L 3122 134 
Q 2881 22 2623 -34 
Q 2366 -91 2075 -91 
Q 1284 -91 818 406 
Q 353 903 353 1747 
Q 353 2603 823 3093 
Q 1294 3584 2113 3584 
Q 2378 3584 2631 3529 
Q 2884 3475 3122 3366 
z
" transform="scale(0.015625)"/>
     </defs>
     <use xlink:href="#DejaVuSans-63"/>
    </g>
   </g>
   <g id="patch_18">
    <path d="M 320.885069 20.577256 
C 322.732354 20.577256 324.504229 19.843322 325.810457 18.537093 
C 327.116685 17.230865 327.85062 15.458991 327.85062 13.611705 
C 327.85062 11.764419 327.116685 9.992545 325.810457 8.686317 
C 324.504229 7.380088 322.732354 6.646154 320.885069 6.646154 
C 319.037783 6.646154 317.265909 7.380088 315.95968 8.686317 
C 314.653452 9.992545 313.919518 11.764419 313.919518 13.611705 
C 313.919518 15.458991 314.653452 17.230865 315.95968 18.537093 
C 317.265909 19.843322 319.037783 20.577256 320.885069 20.577256 
z
" style="fill: #fec7b8; stroke: #000000; stroke-linejoin: miter"/>
   </g>
   <g id="patch_19">
    <path d="M 227.649021 169.093076 
C 229.496306 169.093076 231.268181 168.359142 232.574409 167.052913 
C 233.880637 165.746685 234.614572 163.974811 234.614572 162.127525 
C 234.614572 160.280239 233.880637 158.508365 232.574409 157.202136 
C 231.268181 155.895908 229.496306 155.161974 227.649021 155.161974 
C 225.801735 155.161974 224.02986 155.895908 222.723632 157.202136 
C 221.417404 158.508365 220.68347 160.280239 220.68347 162.127525 
C 220.68347 163.974811 221.417404 165.746685 222.723632 167.052913 
C 224.02986 168.359142 225.801735 169.093076 227.649021 169.093076 
z
" style="fill: #fec7b8; stroke: #000000; stroke-linejoin: miter"/>
   </g>
   <g id="patch_20">
    <path d="M 133.286075 319.403971 
C 135.133361 319.403971 136.905235 318.670037 138.211463 317.363808 
C 139.517692 316.05758 140.251626 314.285706 140.251626 312.43842 
C 140.251626 310.591134 139.517692 308.81926 138.211463 307.513032 
C 136.905235 306.206803 135.133361 305.472869 133.286075 305.472869 
C 131.438789 305.472869 129.666915 306.206803 128.360686 307.513032 
C 127.054458 308.81926 126.320524 310.591134 126.320524 312.43842 
C 126.320524 314.285706 127.054458 316.05758 128.360686 317.363808 
C 129.666915 318.670037 131.438789 319.403971 133.286075 319.403971 
z
" style="fill: #fec7b8; stroke: #000000; stroke-linejoin: miter"/>
   </g>
   <g id="patch_21">
    <path d="M 320.885069 40.127131 
C 324.401055 40.127131 327.77351 38.730215 330.259687 36.244037 
C 332.745865 33.757859 334.142782 30.385405 334.142782 26.869418 
C 334.142782 23.353431 332.745865 19.980977 330.259687 17.494799 
C 327.77351 15.008621 324.401055 13.611705 320.885069 13.611705 
C 317.369082 13.611705 313.996628 15.008621 311.51045 17.494799 
C 309.024272 19.980977 307.627356 23.353431 307.627356 26.869418 
C 307.627356 30.385405 309.024272 33.757859 311.51045 36.244037 
C 313.996628 38.730215 317.369082 40.127131 320.885069 40.127131 
L 320.885069 40.127131 
z
" clip-path="url(#p03775c3582)" style="fill: none; stroke: #ff0000; stroke-linejoin: miter"/>
   </g>
   <g id="patch_22">
    <path d="M 320.885069 53.384844 
C 326.159049 53.384844 331.21773 51.28947 334.946997 47.560203 
C 338.676264 43.830936 340.771638 38.772254 340.771638 33.498275 
C 340.771638 28.224295 338.676264 23.165613 334.946997 19.436346 
C 331.21773 15.707079 326.159049 13.611705 320.885069 13.611705 
C 315.611089 13.611705 310.552407 15.707079 306.82314 19.436346 
C 303.093874 23.165613 300.998499 28.224295 300.998499 33.498275 
C 300.998499 38.772254 303.093874 43.830936 306.82314 47.560203 
C 310.552407 51.28947 315.611089 53.384844 320.885069 53.384844 
L 320.885069 53.384844 
z
" clip-path="url(#p03775c3582)" style="fill: none; stroke: #ffbf00; stroke-linejoin: miter"/>
   </g>
   <g id="patch_23">
    <path d="M 133.286075 338.953846 
C 136.802061 338.953846 140.174516 337.55693 142.660694 335.070752 
C 145.146872 332.584574 146.543788 329.21212 146.543788 325.696133 
C 146.543788 322.180147 145.146872 318.807692 142.660694 316.321514 
C 140.174516 313.835336 136.802061 312.43842 133.286075 312.43842 
C 129.770088 312.43842 126.397634 313.835336 123.911456 316.321514 
C 121.425278 318.807692 120.028362 322.180147 120.028362 325.696133 
C 120.028362 329.21212 121.425278 332.584574 123.911456 335.070752 
C 126.397634 337.55693 129.770088 338.953846 133.286075 338.953846 
L 133.286075 338.953846 
z
" clip-path="url(#p03775c3582)" style="fill: none; stroke: #ff00bf; stroke-linejoin: miter"/>
   </g>
   <g id="text_10">
    <!-- 0 -->
    <g transform="translate(317.703819 16.37108) scale(0.1 -0.1)">
     <defs>
      <path id="DejaVuSans-30" d="M 2034 4250 
Q 1547 4250 1301 3770 
Q 1056 3291 1056 2328 
Q 1056 1369 1301 889 
Q 1547 409 2034 409 
Q 2525 409 2770 889 
Q 3016 1369 3016 2328 
Q 3016 3291 2770 3770 
Q 2525 4250 2034 4250 
z
M 2034 4750 
Q 2819 4750 3233 4129 
Q 3647 3509 3647 2328 
Q 3647 1150 3233 529 
Q 2819 -91 2034 -91 
Q 1250 -91 836 529 
Q 422 1150 422 2328 
Q 422 3509 836 4129 
Q 1250 4750 2034 4750 
z
" transform="scale(0.015625)"/>
     </defs>
     <use xlink:href="#DejaVuSans-30"/>
    </g>
   </g>
   <g id="text_11">
    <!-- 1 -->
    <g transform="translate(224.467771 164.8869) scale(0.1 -0.1)">
     <defs>
      <path id="DejaVuSans-31" d="M 794 531 
L 1825 531 
L 1825 4091 
L 703 3866 
L 703 4441 
L 1819 4666 
L 2450 4666 
L 2450 531 
L 3481 531 
L 3481 0 
L 794 0 
L 794 531 
z
" transform="scale(0.015625)"/>
     </defs>
     <use xlink:href="#DejaVuSans-31"/>
    </g>
   </g>
   <g id="text_12">
    <!-- 2 -->
    <g transform="translate(130.104825 315.197795) scale(0.1 -0.1)">
     <defs>
      <path id="DejaVuSans-32" d="M 1228 531 
L 3431 531 
L 3431 0 
L 469 0 
L 469 531 
Q 828 903 1448 1529 
Q 2069 2156 2228 2338 
Q 2531 2678 2651 2914 
Q 2772 3150 2772 3378 
Q 2772 3750 2511 3984 
Q 2250 4219 1831 4219 
Q 1534 4219 1204 4116 
Q 875 4013 500 3803 
L 500 4441 
Q 881 4594 1212 4672 
Q 1544 4750 1819 4750 
Q 2544 4750 2975 4387 
Q 3406 4025 3406 3419 
Q 3406 3131 3298 2873 
Q 3191 2616 2906 2266 
Q 2828 2175 2409 1742 
Q 1991 1309 1228 531 
z
" transform="scale(0.015625)"/>
     </defs>
     <use xlink:href="#DejaVuSans-32"/>
    </g>
   </g>
  </g>
 </g>
 <defs>
  <clipPath id="p03775c3582">
   <rect x="115.613496" y="0" width="229.573008" height="345.6"/>
  </clipPath>
 </defs>
</svg>
