<?xml version="1.0" encoding="utf-8" standalone="no"?>
<!DOCTYPE svg PUBLIC "-//W3C//DTD SVG 1.1//EN"
  "http://www.w3.org/Graphics/SVG/1.1/DTD/svg11.dtd">
<svg xmlns:xlink="http://www.w3.org/1999/xlink" width="460.8pt" height="345.6pt" viewBox="0 0 460.8 345.6" xmlns="http://www.w3.org/2000/svg" version="1.1">
 <metadata>
  <rdf:RDF xmlns:dc="http://purl.org/dc/elements/1.1/" xmlns:cc="http://creativecommons.org/ns#" xmlns:rdf="http://www.w3.org/1999/02/22-rdf-syntax-ns#">
   <cc:Work>
    <dc:type rdf:resource="http://purl.org/dc/dcmitype/StillImage"/>
    <dc:date>2025-08-04T21:49:07.106598</dc:date>
    <dc:format>image/svg+xml</dc:format>
    <dc:creator>
     <cc:Agent>
      <dc:title>Matplotlib v3.10.3, https://matplotlib.org/</dc:title>
     </cc:Agent>
    </dc:creator>
   </cc:Work>
  </rdf:RDF>
 </metadata>
 <defs>
  <style type="text/css">*{stroke-linejoin: round; stroke-linecap: butt}</style>
 </defs>
 <g id="figure_1">
  <g id="patch_1">
   <path d="M 0 345.6 
L 460.8 345.6 
L 460.8 0 
L 0 0 
z
" style="fill: #ffffff"/>
  </g>
  <g id="axes_1">
   <g id="patch_2">
    <path d="M 181.465064 345.6 
L 279.334936 345.6 
L 279.334936 0 
L 181.465064 0 
z
" style="fill: #ffffff"/>
   </g>
   <g id="patch_3">
    <path d="M 230.982971 174.412057 
Q 255.154745 192.286507 243.443514 218.756212 
" clip-path="url(#p447aa3a883)" style="fill: none; stroke: #ff0000; stroke-linecap: round"/>
    <path d="M 252.062034 211.634336 
L 243.443514 218.756212 
L 242.917125 207.588271 
z
" clip-path="url(#p447aa3a883)" style="fill: #ff0000; stroke: #ff0000; stroke-linecap: round"/>
   </g>
   <g id="patch_4">
    <path d="M 219.539186 178.343832 
Q 207.827954 204.813537 231.999729 222.687987 
" clip-path="url(#p447aa3a883)" style="fill: none; stroke: #00ffff; stroke-linecap: round"/>
    <path d="M 210.920666 185.465709 
L 219.539186 178.343832 
L 220.065575 189.511774 
z
" clip-path="url(#p447aa3a883)" style="fill: #00ffff; stroke: #00ffff; stroke-linecap: round"/>
   </g>
   <g id="patch_5">
    <path d="M 228.464511 159.987983 
Q 241.592885 135.292074 218.748936 117.286915 
" clip-path="url(#p447aa3a883)" style="fill: none; stroke: #ff0000; stroke-linecap: round"/>
    <path d="M 237.573417 153.505096 
L 228.464511 159.987983 
L 228.743545 148.811126 
z
" clip-path="url(#p447aa3a883)" style="fill: #ff0000; stroke: #ff0000; stroke-linecap: round"/>
   </g>
   <g id="patch_6">
    <path d="M 216.52884 163.375716 
Q 193.684891 145.370556 206.813265 120.674647 
" clip-path="url(#p447aa3a883)" style="fill: none; stroke: #00ffff; stroke-linecap: round"/>
    <path d="M 197.704359 127.157534 
L 206.813265 120.674647 
L 206.534231 131.851504 
z
" clip-path="url(#p447aa3a883)" style="fill: #00ffff; stroke: #00ffff; stroke-linecap: round"/>
   </g>
   <g id="patch_7">
    <path d="M 217.419148 103.261094 
Q 231.656847 82.693576 210.692642 67.091605 
" clip-path="url(#p447aa3a883)" style="fill: none; stroke: #ff0000; stroke-linecap: round"/>
    <path d="M 227.22197 97.884786 
L 217.419148 103.261094 
L 218.999795 92.193052 
z
" clip-path="url(#p447aa3a883)" style="fill: #ff0000; stroke: #ff0000; stroke-linecap: round"/>
   </g>
   <g id="patch_8">
    <path d="M 204.311383 106.228227 
Q 183.347177 90.626255 197.584876 70.058737 
" clip-path="url(#p447aa3a883)" style="fill: none; stroke: #00ffff; stroke-linecap: round"/>
    <path d="M 187.782054 75.435045 
L 197.584876 70.058737 
L 196.004229 81.126779 
z
" clip-path="url(#p447aa3a883)" style="fill: #00ffff; stroke: #00ffff; stroke-linecap: round"/>
   </g>
   <g id="patch_9">
    <path d="M 258.84434 276.670479 
Q 270.628212 250.772294 246.677281 233.428666 
" clip-path="url(#p447aa3a883)" style="fill: none; stroke: #ff0000; stroke-linecap: round"/>
    <path d="M 267.536895 269.639157 
L 258.84434 276.670479 
L 258.434816 265.497641 
z
" clip-path="url(#p447aa3a883)" style="fill: #ff0000; stroke: #ff0000; stroke-linecap: round"/>
   </g>
   <g id="patch_10">
    <path d="M 247.249415 280.631852 
Q 223.298484 263.288224 235.082356 237.390039 
" clip-path="url(#p447aa3a883)" style="fill: none; stroke: #00ffff; stroke-linecap: round"/>
    <path d="M 226.389801 244.421361 
L 235.082356 237.390039 
L 235.49188 248.562876 
z
" clip-path="url(#p447aa3a883)" style="fill: #00ffff; stroke: #00ffff; stroke-linecap: round"/>
   </g>
   <g id="matplotlib.axis_1"/>
   <g id="matplotlib.axis_2"/>
   <g id="patch_11">
    <path d="M 265.307441 320.114426 
Q 261.48694 307.912701 257.332362 294.64402 
" clip-path="url(#p447aa3a883)" style="fill: none; stroke: #ff0000; stroke-linecap: round"/>
    <path d="M 267.090943 309.077256 
L 265.307441 320.114426 
L 257.547806 312.065323 
z
" clip-path="url(#p447aa3a883)" style="fill: #ff0000; stroke: #ff0000; stroke-linecap: round"/>
   </g>
   <g id="patch_12">
    <path d="M 201.916156 52.689708 
Q 199.607035 38.701186 197.480007 25.81577 
" clip-path="url(#p447aa3a883)" style="fill: none; stroke: #00ffff; stroke-linecap: round"/>
    <path d="M 194.175452 36.49659 
L 197.480007 25.81577 
L 204.04193 34.867906 
z
" clip-path="url(#p447aa3a883)" style="fill: #00ffff; stroke: #00ffff; stroke-linecap: round"/>
   </g>
   <g id="text_1">
    <g id="patch_13">
     <path d="M 236.148829 204.257327 
L 250.497266 204.257327 
L 250.497266 186.579202 
L 236.148829 186.579202 
z
" style="fill: #ffffff; stroke: #ffffff; stroke-linejoin: miter"/>
    </g>
    <!-- b -->
    <g style="fill: #0000ff" transform="translate(240.148829 198.17764) scale(0.1 -0.1)">
     <defs>
      <path id="DejaVuSans-62" d="M 3116 1747 
Q 3116 2381 2855 2742 
Q 2594 3103 2138 3103 
Q 1681 3103 1420 2742 
Q 1159 2381 1159 1747 
Q 1159 1113 1420 752 
Q 1681 391 2138 391 
Q 2594 391 2855 752 
Q 3116 1113 3116 1747 
z
M 1159 2969 
Q 1341 3281 1617 3432 
Q 1894 3584 2278 3584 
Q 2916 3584 3314 3078 
Q 3713 2572 3713 1747 
Q 3713 922 3314 415 
Q 2916 -91 2278 -91 
Q 1894 -91 1617 61 
Q 1341 213 1159 525 
L 1159 0 
L 581 0 
L 581 4863 
L 1159 4863 
L 1159 2969 
z
" transform="scale(0.015625)"/>
     </defs>
     <use xlink:href="#DejaVuSans-62"/>
    </g>
   </g>
   <g id="text_2">
    <g id="patch_14">
     <path d="M 212.59559 210.520842 
L 226.723715 210.520842 
L 226.723715 192.842717 
L 212.59559 192.842717 
z
" style="fill: #ffffff; stroke: #ffffff; stroke-linejoin: miter"/>
    </g>
    <!-- a -->
    <g style="fill: #0000ff" transform="translate(216.59559 204.441155) scale(0.1 -0.1)">
     <defs>
      <path id="DejaVuSans-61" d="M 2194 1759 
Q 1497 1759 1228 1600 
Q 959 1441 959 1056 
Q 959 750 1161 570 
Q 1363 391 1709 391 
Q 2188 391 2477 730 
Q 2766 1069 2766 1631 
L 2766 1759 
L 2194 1759 
z
M 3341 1997 
L 3341 0 
L 2766 0 
L 2766 531 
Q 2569 213 2275 61 
Q 1981 -91 1556 -91 
Q 1019 -91 701 211 
Q 384 513 384 1019 
Q 384 1609 779 1909 
Q 1175 2209 1959 2209 
L 2766 2209 
L 2766 2266 
Q 2766 2663 2505 2880 
Q 2244 3097 1772 3097 
Q 1472 3097 1187 3025 
Q 903 2953 641 2809 
L 641 3341 
Q 956 3463 1253 3523 
Q 1550 3584 1831 3584 
Q 2591 3584 2966 3190 
Q 3341 2797 3341 1997 
z
" transform="scale(0.015625)"/>
     </defs>
     <use xlink:href="#DejaVuSans-61"/>
    </g>
   </g>
   <g id="text_3">
    <g id="patch_15">
     <path d="M 222.441668 146.650757 
L 236.790105 146.650757 
L 236.790105 128.972632 
L 222.441668 128.972632 
z
" style="fill: #ffffff; stroke: #ffffff; stroke-linejoin: miter"/>
    </g>
    <!-- b -->
    <g style="fill: #0000ff" transform="translate(226.441668 140.57107) scale(0.1 -0.1)">
     <use xlink:href="#DejaVuSans-62"/>
    </g>
   </g>
   <g id="text_4">
    <g id="patch_16">
     <path d="M 198.597827 151.689998 
L 212.725952 151.689998 
L 212.725952 134.011873 
L 198.597827 134.011873 
z
" style="fill: #ffffff; stroke: #ffffff; stroke-linejoin: miter"/>
    </g>
    <!-- a -->
    <g style="fill: #0000ff" transform="translate(202.597827 145.61031) scale(0.1 -0.1)">
     <use xlink:href="#DejaVuSans-61"/>
    </g>
   </g>
   <g id="text_5">
    <g id="patch_17">
     <path d="M 212.405211 93.515808 
L 226.753649 93.515808 
L 226.753649 75.837683 
L 212.405211 75.837683 
z
" style="fill: #ffffff; stroke: #ffffff; stroke-linejoin: miter"/>
    </g>
    <!-- b -->
    <g style="fill: #0000ff" transform="translate(216.405211 87.436121) scale(0.1 -0.1)">
     <use xlink:href="#DejaVuSans-62"/>
    </g>
   </g>
   <g id="text_6">
    <g id="patch_18">
     <path d="M 188.360532 97.482148 
L 202.488657 97.482148 
L 202.488657 79.804023 
L 188.360532 79.804023 
z
" style="fill: #ffffff; stroke: #ffffff; stroke-linejoin: miter"/>
    </g>
    <!-- a -->
    <g style="fill: #0000ff" transform="translate(192.360532 91.40246) scale(0.1 -0.1)">
     <use xlink:href="#DejaVuSans-61"/>
    </g>
   </g>
   <g id="text_7">
    <g id="patch_19">
     <path d="M 251.621561 262.740339 
L 265.969999 262.740339 
L 265.969999 245.062214 
L 251.621561 245.062214 
z
" style="fill: #ffffff; stroke: #ffffff; stroke-linejoin: miter"/>
    </g>
    <!-- b -->
    <g style="fill: #0000ff" transform="translate(255.621561 256.660651) scale(0.1 -0.1)">
     <use xlink:href="#DejaVuSans-62"/>
    </g>
   </g>
   <g id="text_8">
    <g id="patch_20">
     <path d="M 228.066853 268.998304 
L 242.194978 268.998304 
L 242.194978 251.320179 
L 228.066853 251.320179 
z
" style="fill: #ffffff; stroke: #ffffff; stroke-linejoin: miter"/>
    </g>
    <!-- a -->
    <g style="fill: #0000ff" transform="translate(232.066853 262.918616) scale(0.1 -0.1)">
     <use xlink:href="#DejaVuSans-61"/>
    </g>
   </g>
   <g id="text_9">
    <g id="patch_21">
     <path d="M 254.312721 316.751763 
L 268.661158 316.751763 
L 268.661158 299.073638 
L 254.312721 299.073638 
z
" style="fill: #ffffff; stroke: #ffffff; stroke-linejoin: miter"/>
    </g>
    <!-- b -->
    <g style="fill: #0000ff" transform="translate(258.312721 310.672076) scale(0.1 -0.1)">
     <use xlink:href="#DejaVuSans-62"/>
    </g>
   </g>
   <g id="text_10">
    <g id="patch_22">
     <path d="M 192.542973 47.540249 
L 206.671098 47.540249 
L 206.671098 29.862124 
L 192.542973 29.862124 
z
" style="fill: #ffffff; stroke: #ffffff; stroke-linejoin: miter"/>
    </g>
    <!-- a -->
    <g style="fill: #0000ff" transform="translate(196.542973 41.460561) scale(0.1 -0.1)">
     <use xlink:href="#DejaVuSans-61"/>
    </g>
   </g>
   <g id="patch_23">
    <path d="M 268.358855 338.953846 
C 270.770604 338.953846 273.083898 337.995648 274.789261 336.290285 
C 276.494625 334.584921 277.452823 332.271627 277.452823 329.859879 
C 277.452823 327.44813 276.494625 325.134836 274.789261 323.429473 
C 273.083898 321.724109 270.770604 320.765911 268.358855 320.765911 
C 265.947107 320.765911 263.633813 321.724109 261.928449 323.429473 
C 260.223086 325.134836 259.264888 327.44813 259.264888 329.859879 
C 259.264888 332.271627 260.223086 334.584921 261.928449 336.290285 
C 263.633813 337.995648 265.947107 338.953846 268.358855 338.953846 
z
" style="fill: #fec7b8; stroke: #000000; stroke-linejoin: miter"/>
   </g>
   <g id="patch_24">
    <path d="M 254.615024 295.059491 
C 257.026772 295.059491 259.340066 294.101293 261.04543 292.395929 
C 262.750793 290.690566 263.708991 288.377271 263.708991 285.965523 
C 263.708991 283.553775 262.750793 281.240481 261.04543 279.535117 
C 259.340066 277.829754 257.026772 276.871556 254.615024 276.871556 
C 252.203275 276.871556 249.889981 277.829754 248.184618 279.535117 
C 246.479254 281.240481 245.521056 283.553775 245.521056 285.965523 
C 245.521056 288.377271 246.479254 290.690566 248.184618 292.395929 
C 249.889981 294.101293 252.203275 295.059491 254.615024 295.059491 
z
" style="fill: #fec7b8; stroke: #000000; stroke-linejoin: miter"/>
   </g>
   <g id="patch_25">
    <path d="M 239.311672 237.188962 
C 241.723421 237.188962 244.036715 236.230764 245.742078 234.525401 
C 247.447442 232.820037 248.40564 230.506743 248.40564 228.094995 
C 248.40564 225.683246 247.447442 223.369952 245.742078 221.664589 
C 244.036715 219.959225 241.723421 219.001027 239.311672 219.001027 
C 236.899924 219.001027 234.58663 219.959225 232.881266 221.664589 
C 231.175903 223.369952 230.217705 225.683246 230.217705 228.094995 
C 230.217705 230.506743 231.175903 232.820037 232.881266 234.525401 
C 234.58663 236.230764 236.899924 237.188962 239.311672 237.188962 
z
" style="fill: #fec7b8; stroke: #000000; stroke-linejoin: miter"/>
   </g>
   <g id="patch_26">
    <path d="M 223.671028 178.099017 
C 226.082776 178.099017 228.39607 177.14082 230.101434 175.435456 
C 231.806797 173.730092 232.764995 171.416798 232.764995 169.00505 
C 232.764995 166.593302 231.806797 164.280008 230.101434 162.574644 
C 228.39607 160.86928 226.082776 159.911083 223.671028 159.911083 
C 221.259279 159.911083 218.945985 160.86928 217.240622 162.574644 
C 215.535258 164.280008 214.57706 166.593302 214.57706 169.00505 
C 214.57706 171.416798 215.535258 173.730092 217.240622 175.435456 
C 218.945985 177.14082 221.259279 178.099017 223.671028 178.099017 
z
" style="fill: #fec7b8; stroke: #000000; stroke-linejoin: miter"/>
   </g>
   <g id="patch_27">
    <path d="M 211.606749 120.751548 
C 214.018497 120.751548 216.331791 119.79335 218.037155 118.087986 
C 219.742518 116.382623 220.700716 114.069329 220.700716 111.65758 
C 220.700716 109.245832 219.742518 106.932538 218.037155 105.227174 
C 216.331791 103.521811 214.018497 102.563613 211.606749 102.563613 
C 209.195 102.563613 206.881706 103.521811 205.176343 105.227174 
C 203.470979 106.932538 202.512781 109.245832 202.512781 111.65758 
C 202.512781 114.069329 203.470979 116.382623 205.176343 118.087986 
C 206.881706 119.79335 209.195 120.751548 211.606749 120.751548 
z
" style="fill: #fec7b8; stroke: #000000; stroke-linejoin: miter"/>
   </g>
   <g id="patch_28">
    <path d="M 203.397276 70.756218 
C 205.809024 70.756218 208.122318 69.798021 209.827682 68.092657 
C 211.533046 66.387293 212.491243 64.073999 212.491243 61.662251 
C 212.491243 59.250503 211.533046 56.937209 209.827682 55.231845 
C 208.122318 53.526481 205.809024 52.568284 203.397276 52.568284 
C 200.985528 52.568284 198.672234 53.526481 196.96687 55.231845 
C 195.261506 56.937209 194.303309 59.250503 194.303309 61.662251 
C 194.303309 64.073999 195.261506 66.387293 196.96687 68.092657 
C 198.672234 69.798021 200.985528 70.756218 203.397276 70.756218 
z
" style="fill: #fec7b8; stroke: #000000; stroke-linejoin: miter"/>
   </g>
   <g id="patch_29">
    <path d="M 195.816794 24.834089 
C 198.228542 24.834089 200.541837 23.875891 202.2472 22.170527 
C 203.952564 20.465164 204.910762 18.15187 204.910762 15.740121 
C 204.910762 13.328373 203.952564 11.015079 202.2472 9.309715 
C 200.541837 7.604352 198.228542 6.646154 195.816794 6.646154 
C 193.405046 6.646154 191.091752 7.604352 189.386388 9.309715 
C 187.681025 11.015079 186.722827 13.328373 186.722827 15.740121 
C 186.722827 18.15187 187.681025 20.465164 189.386388 22.170527 
C 191.091752 23.875891 193.405046 24.834089 195.816794 24.834089 
z
" style="fill: #fec7b8; stroke: #000000; stroke-linejoin: miter"/>
   </g>
   <g id="text_11">
    <!-- -1 -->
    <g transform="translate(263.373699 332.619254) scale(0.1 -0.1)">
     <defs>
      <path id="DejaVuSans-2d" d="M 313 2009 
L 1997 2009 
L 1997 1497 
L 313 1497 
L 313 2009 
z
" transform="scale(0.015625)"/>
      <path id="DejaVuSans-31" d="M 794 531 
L 1825 531 
L 1825 4091 
L 703 3866 
L 703 4441 
L 1819 4666 
L 2450 4666 
L 2450 531 
L 3481 531 
L 3481 0 
L 794 0 
L 794 531 
z
" transform="scale(0.015625)"/>
     </defs>
     <use xlink:href="#DejaVuSans-2d"/>
     <use xlink:href="#DejaVuSans-31" transform="translate(36.083984 0)"/>
    </g>
   </g>
   <g id="text_12">
    <!-- 2 -->
    <g transform="translate(220.489778 171.764425) scale(0.1 -0.1)">
     <defs>
      <path id="DejaVuSans-32" d="M 1228 531 
L 3431 531 
L 3431 0 
L 469 0 
L 469 531 
Q 828 903 1448 1529 
Q 2069 2156 2228 2338 
Q 2531 2678 2651 2914 
Q 2772 3150 2772 3378 
Q 2772 3750 2511 3984 
Q 2250 4219 1831 4219 
Q 1534 4219 1204 4116 
Q 875 4013 500 3803 
L 500 4441 
Q 881 4594 1212 4672 
Q 1544 4750 1819 4750 
Q 2544 4750 2975 4387 
Q 3406 4025 3406 3419 
Q 3406 3131 3298 2873 
Q 3191 2616 2906 2266 
Q 2828 2175 2409 1742 
Q 1991 1309 1228 531 
z
" transform="scale(0.015625)"/>
     </defs>
     <use xlink:href="#DejaVuSans-32"/>
    </g>
   </g>
   <g id="text_13">
    <!-- 3 -->
    <g transform="translate(208.425499 114.416955) scale(0.1 -0.1)">
     <defs>
      <path id="DejaVuSans-33" d="M 2597 2516 
Q 3050 2419 3304 2112 
Q 3559 1806 3559 1356 
Q 3559 666 3084 287 
Q 2609 -91 1734 -91 
Q 1441 -91 1130 -33 
Q 819 25 488 141 
L 488 750 
Q 750 597 1062 519 
Q 1375 441 1716 441 
Q 2309 441 2620 675 
Q 2931 909 2931 1356 
Q 2931 1769 2642 2001 
Q 2353 2234 1838 2234 
L 1294 2234 
L 1294 2753 
L 1863 2753 
Q 2328 2753 2575 2939 
Q 2822 3125 2822 3475 
Q 2822 3834 2567 4026 
Q 2313 4219 1838 4219 
Q 1578 4219 1281 4162 
Q 984 4106 628 3988 
L 628 4550 
Q 988 4650 1302 4700 
Q 1616 4750 1894 4750 
Q 2613 4750 3031 4423 
Q 3450 4097 3450 3541 
Q 3450 3153 3228 2886 
Q 3006 2619 2597 2516 
z
" transform="scale(0.015625)"/>
     </defs>
     <use xlink:href="#DejaVuSans-33"/>
    </g>
   </g>
   <g id="text_14">
    <!-- 4 -->
    <g transform="translate(200.216026 64.421626) scale(0.1 -0.1)">
     <defs>
      <path id="DejaVuSans-34" d="M 2419 4116 
L 825 1625 
L 2419 1625 
L 2419 4116 
z
M 2253 4666 
L 3047 4666 
L 3047 1625 
L 3713 1625 
L 3713 1100 
L 3047 1100 
L 3047 0 
L 2419 0 
L 2419 1100 
L 313 1100 
L 313 1709 
L 2253 4666 
z
" transform="scale(0.015625)"/>
     </defs>
     <use xlink:href="#DejaVuSans-34"/>
    </g>
   </g>
   <g id="text_15">
    <!-- 5 -->
    <g transform="translate(192.635544 18.499496) scale(0.1 -0.1)">
     <defs>
      <path id="DejaVuSans-35" d="M 691 4666 
L 3169 4666 
L 3169 4134 
L 1269 4134 
L 1269 2991 
Q 1406 3038 1543 3061 
Q 1681 3084 1819 3084 
Q 2600 3084 3056 2656 
Q 3513 2228 3513 1497 
Q 3513 744 3044 326 
Q 2575 -91 1722 -91 
Q 1428 -91 1123 -41 
Q 819 9 494 109 
L 494 744 
Q 775 591 1075 516 
Q 1375 441 1709 441 
Q 2250 441 2565 725 
Q 2881 1009 2881 1497 
Q 2881 1984 2565 2268 
Q 2250 2553 1709 2553 
Q 1456 2553 1204 2497 
Q 953 2441 691 2322 
L 691 4666 
z
" transform="scale(0.015625)"/>
     </defs>
     <use xlink:href="#DejaVuSans-35"/>
    </g>
   </g>
   <g id="text_16">
    <!-- 0 -->
    <g transform="translate(251.433774 288.724898) scale(0.1 -0.1)">
     <defs>
      <path id="DejaVuSans-30" d="M 2034 4250 
Q 1547 4250 1301 3770 
Q 1056 3291 1056 2328 
Q 1056 1369 1301 889 
Q 1547 409 2034 409 
Q 2525 409 2770 889 
Q 3016 1369 3016 2328 
Q 3016 3291 2770 3770 
Q 2525 4250 2034 4250 
z
M 2034 4750 
Q 2819 4750 3233 4129 
Q 3647 3509 3647 2328 
Q 3647 1150 3233 529 
Q 2819 -91 2034 -91 
Q 1250 -91 836 529 
Q 422 1150 422 2328 
Q 422 3509 836 4129 
Q 1250 4750 2034 4750 
z
" transform="scale(0.015625)"/>
     </defs>
     <use xlink:href="#DejaVuSans-30"/>
    </g>
   </g>
   <g id="text_17">
    <!-- 1 -->
    <g transform="translate(236.130422 230.85437) scale(0.1 -0.1)">
     <use xlink:href="#DejaVuSans-31"/>
    </g>
   </g>
  </g>
 </g>
 <defs>
  <clipPath id="p447aa3a883">
   <rect x="181.465064" y="0" width="97.869871" height="345.6"/>
  </clipPath>
 </defs>
</svg>
