<?xml version="1.0" encoding="utf-8" standalone="no"?>
<!DOCTYPE svg PUBLIC "-//W3C//DTD SVG 1.1//EN"
  "http://www.w3.org/Graphics/SVG/1.1/DTD/svg11.dtd">
<svg xmlns:xlink="http://www.w3.org/1999/xlink" width="460.8pt" height="345.6pt" viewBox="0 0 460.8 345.6" xmlns="http://www.w3.org/2000/svg" version="1.1">
 <metadata>
  <rdf:RDF xmlns:dc="http://purl.org/dc/elements/1.1/" xmlns:cc="http://creativecommons.org/ns#" xmlns:rdf="http://www.w3.org/1999/02/22-rdf-syntax-ns#">
   <cc:Work>
    <dc:type rdf:resource="http://purl.org/dc/dcmitype/StillImage"/>
    <dc:date>2025-08-02T15:56:35.558553</dc:date>
    <dc:format>image/svg+xml</dc:format>
    <dc:creator>
     <cc:Agent>
      <dc:title>Matplotlib v3.10.3, https://matplotlib.org/</dc:title>
     </cc:Agent>
    </dc:creator>
   </cc:Work>
  </rdf:RDF>
 </metadata>
 <defs>
  <style type="text/css">*{stroke-linejoin: round; stroke-linecap: butt}</style>
 </defs>
 <g id="figure_1">
  <g id="patch_1">
   <path d="M 0 345.6 
L 460.8 345.6 
L 460.8 0 
L 0 0 
z
" style="fill: #ffffff"/>
  </g>
  <g id="axes_1">
   <g id="patch_2">
    <path d="M 164.317418 345.6 
L 296.482582 345.6 
L 296.482582 0 
L 164.317418 0 
z
" style="fill: #ffffff"/>
   </g>
   <g id="patch_3">
    <path d="M 270.596986 19.172858 
Q 271.107387 93.899733 230.105051 155.033409 
" clip-path="url(#p48d5ca0be5)" style="fill: none; stroke: #7fff00; stroke-linecap: round"/>
    <path d="M 239.827725 149.513482 
L 230.105051 155.033409 
L 231.522713 143.943313 
z
" clip-path="url(#p48d5ca0be5)" style="fill: #7fff00; stroke: #7fff00; stroke-linecap: round"/>
   </g>
   <g id="patch_4">
    <path d="M 267.065373 18.111361 
Q 225.440273 80.173566 225.943038 153.782433 
" clip-path="url(#p48d5ca0be5)" style="fill: none; stroke: #7fff00; stroke-linecap: round"/>
    <path d="M 230.87462 143.748516 
L 225.943038 153.782433 
L 220.874854 143.816817 
z
" clip-path="url(#p48d5ca0be5)" style="fill: #7fff00; stroke: #7fff00; stroke-linecap: round"/>
   </g>
   <g id="patch_5">
    <path d="M 272.165433 18.962218 
Q 293.940944 100.762816 231.510298 156.259603 
" clip-path="url(#p48d5ca0be5)" style="fill: none; stroke: #00ff3f; stroke-linecap: round"/>
    <path d="M 242.306136 153.352733 
L 231.510298 156.259603 
L 235.662305 145.878811 
z
" clip-path="url(#p48d5ca0be5)" style="fill: #00ff3f; stroke: #00ff3f; stroke-linecap: round"/>
   </g>
   <g id="patch_6">
    <path d="M 265.872971 17.070893 
Q 202.606716 73.310483 224.09462 154.030672 
" clip-path="url(#p48d5ca0be5)" style="fill: none; stroke: #00ffff; stroke-linecap: round"/>
    <path d="M 226.353915 143.080988 
L 224.09462 154.030672 
L 216.69045 145.653425 
z
" clip-path="url(#p48d5ca0be5)" style="fill: #00ffff; stroke: #00ffff; stroke-linecap: round"/>
   </g>
   <g id="matplotlib.axis_1"/>
   <g id="matplotlib.axis_2"/>
   <g id="patch_7">
    <path d="M 223.829179 168.220763 
Q 202.386924 238.137445 180.616857 309.123023 
" clip-path="url(#p48d5ca0be5)" style="fill: none; stroke: #7f00ff; stroke-linecap: round"/>
    <path d="M 216.116888 176.31524 
L 223.829179 168.220763 
L 225.677386 179.247282 
z
" clip-path="url(#p48d5ca0be5)" style="fill: #7f00ff; stroke: #7f00ff; stroke-linecap: round"/>
   </g>
   <g id="patch_8">
    <path d="M 268.751288 18.90791 
Q 248.27383 87.036649 228.118197 154.094674 
" clip-path="url(#p48d5ca0be5)" style="fill: none; stroke: #003fff; stroke-linecap: round"/>
    <path d="M 235.785063 145.957159 
L 228.118197 154.094674 
L 226.208304 143.078672 
z
" clip-path="url(#p48d5ca0be5)" style="fill: #003fff; stroke: #003fff; stroke-linecap: round"/>
   </g>
   <g id="text_1">
    <g id="patch_9">
     <path d="M 263.379988 45.591318 
L 277.728425 45.591318 
L 277.728425 27.913193 
L 263.379988 27.913193 
z
" style="fill: #ffffff; stroke: #ffffff; stroke-linejoin: miter"/>
    </g>
    <!-- b -->
    <g style="fill: #0000ff" transform="translate(267.379988 39.511631) scale(0.1 -0.1)">
     <defs>
      <path id="DejaVuSans-62" d="M 3116 1747 
Q 3116 2381 2855 2742 
Q 2594 3103 2138 3103 
Q 1681 3103 1420 2742 
Q 1159 2381 1159 1747 
Q 1159 1113 1420 752 
Q 1681 391 2138 391 
Q 2594 391 2855 752 
Q 3116 1113 3116 1747 
z
M 1159 2969 
Q 1341 3281 1617 3432 
Q 1894 3584 2278 3584 
Q 2916 3584 3314 3078 
Q 3713 2572 3713 1747 
Q 3713 922 3314 415 
Q 2916 -91 2278 -91 
Q 1894 -91 1617 61 
Q 1341 213 1159 525 
L 1159 0 
L 581 0 
L 581 4863 
L 1159 4863 
L 1159 2969 
z
" transform="scale(0.015625)"/>
     </defs>
     <use xlink:href="#DejaVuSans-62"/>
    </g>
   </g>
   <g id="text_2">
    <g id="patch_10">
     <path d="M 263.490144 57.512657 
L 277.618269 57.512657 
L 277.618269 39.834532 
L 263.490144 39.834532 
z
" style="fill: #ffffff; stroke: #ffffff; stroke-linejoin: miter"/>
    </g>
    <!-- a -->
    <g style="fill: #0000ff" transform="translate(267.490144 51.432969) scale(0.1 -0.1)">
     <defs>
      <path id="DejaVuSans-61" d="M 2194 1759 
Q 1497 1759 1228 1600 
Q 959 1441 959 1056 
Q 959 750 1161 570 
Q 1363 391 1709 391 
Q 2188 391 2477 730 
Q 2766 1069 2766 1631 
L 2766 1759 
L 2194 1759 
z
M 3341 1997 
L 3341 0 
L 2766 0 
L 2766 531 
Q 2569 213 2275 61 
Q 1981 -91 1556 -91 
Q 1019 -91 701 211 
Q 384 513 384 1019 
Q 384 1609 779 1909 
Q 1175 2209 1959 2209 
L 2766 2209 
L 2766 2266 
Q 2766 2663 2505 2880 
Q 2244 3097 1772 3097 
Q 1472 3097 1187 3025 
Q 903 2953 641 2809 
L 641 3341 
Q 956 3463 1253 3523 
Q 1550 3584 1831 3584 
Q 2591 3584 2966 3190 
Q 3341 2797 3341 1997 
z
" transform="scale(0.015625)"/>
     </defs>
     <use xlink:href="#DejaVuSans-61"/>
    </g>
   </g>
   <g id="text_3">
    <g id="patch_11">
     <path d="M 253.930452 99.307254 
L 265.450765 99.307254 
L 265.450765 81.629129 
L 253.930452 81.629129 
z
" style="fill: #ffffff; stroke: #ffffff; stroke-linejoin: miter"/>
    </g>
    <!-- f -->
    <g style="fill: #0000ff" transform="translate(257.930452 93.227566) scale(0.1 -0.1)">
     <defs>
      <path id="DejaVuSans-66" d="M 2375 4863 
L 2375 4384 
L 1825 4384 
Q 1516 4384 1395 4259 
Q 1275 4134 1275 3809 
L 1275 3500 
L 2222 3500 
L 2222 3053 
L 1275 3053 
L 1275 0 
L 697 0 
L 697 3053 
L 147 3053 
L 147 3500 
L 697 3500 
L 697 3744 
Q 697 4328 969 4595 
Q 1241 4863 1831 4863 
L 2375 4863 
z
" transform="scale(0.015625)"/>
     </defs>
     <use xlink:href="#DejaVuSans-66"/>
    </g>
   </g>
   <g id="text_4">
    <g id="patch_12">
     <path d="M 231.096895 92.44417 
L 242.617208 92.44417 
L 242.617208 74.766045 
L 231.096895 74.766045 
z
" style="fill: #ffffff; stroke: #ffffff; stroke-linejoin: miter"/>
    </g>
    <!-- f -->
    <g style="fill: #0000ff" transform="translate(235.096895 86.364483) scale(0.1 -0.1)">
     <use xlink:href="#DejaVuSans-66"/>
    </g>
   </g>
   <g id="text_5">
    <g id="patch_13">
     <path d="M 264.030825 102.738795 
L 278.18395 102.738795 
L 278.18395 85.06067 
L 264.030825 85.06067 
z
" style="fill: #ffffff; stroke: #ffffff; stroke-linejoin: miter"/>
    </g>
    <!-- e -->
    <g style="fill: #0000ff" transform="translate(268.030825 96.659108) scale(0.1 -0.1)">
     <defs>
      <path id="DejaVuSans-65" d="M 3597 1894 
L 3597 1613 
L 953 1613 
Q 991 1019 1311 708 
Q 1631 397 2203 397 
Q 2534 397 2845 478 
Q 3156 559 3463 722 
L 3463 178 
Q 3153 47 2828 -22 
Q 2503 -91 2169 -91 
Q 1331 -91 842 396 
Q 353 884 353 1716 
Q 353 2575 817 3079 
Q 1281 3584 2069 3584 
Q 2775 3584 3186 3129 
Q 3597 2675 3597 1894 
z
M 3022 2063 
Q 3016 2534 2758 2815 
Q 2500 3097 2075 3097 
Q 1594 3097 1305 2825 
Q 1016 2553 972 2059 
L 3022 2063 
z
" transform="scale(0.015625)"/>
     </defs>
     <use xlink:href="#DejaVuSans-65"/>
    </g>
   </g>
   <g id="text_6">
    <g id="patch_14">
     <path d="M 218.266054 89.012629 
L 232.614492 89.012629 
L 232.614492 71.334504 
L 218.266054 71.334504 
z
" style="fill: #ffffff; stroke: #ffffff; stroke-linejoin: miter"/>
    </g>
    <!-- d -->
    <g style="fill: #0000ff" transform="translate(222.266054 82.932941) scale(0.1 -0.1)">
     <defs>
      <path id="DejaVuSans-64" d="M 2906 2969 
L 2906 4863 
L 3481 4863 
L 3481 0 
L 2906 0 
L 2906 525 
Q 2725 213 2448 61 
Q 2172 -91 1784 -91 
Q 1150 -91 751 415 
Q 353 922 353 1747 
Q 353 2572 751 3078 
Q 1150 3584 1784 3584 
Q 2172 3584 2448 3432 
Q 2725 3281 2906 2969 
z
M 947 1747 
Q 947 1113 1208 752 
Q 1469 391 1925 391 
Q 2381 391 2643 752 
Q 2906 1113 2906 1747 
Q 2906 2381 2643 2742 
Q 2381 3103 1925 3103 
Q 1469 3103 1208 2742 
Q 947 2381 947 1747 
z
" transform="scale(0.015625)"/>
     </defs>
     <use xlink:href="#DejaVuSans-64"/>
    </g>
   </g>
   <g id="text_7">
    <g id="patch_15">
     <path d="M 171.611644 347.792909 
L 185.949144 347.792909 
L 185.949144 330.114784 
L 171.611644 330.114784 
z
" style="fill: #ffffff; stroke: #ffffff; stroke-linejoin: miter"/>
    </g>
    <!-- h -->
    <g style="fill: #0000ff" transform="translate(175.611644 341.713221) scale(0.1 -0.1)">
     <defs>
      <path id="DejaVuSans-68" d="M 3513 2113 
L 3513 0 
L 2938 0 
L 2938 2094 
Q 2938 2591 2744 2837 
Q 2550 3084 2163 3084 
Q 1697 3084 1428 2787 
Q 1159 2491 1159 1978 
L 1159 0 
L 581 0 
L 581 4863 
L 1159 4863 
L 1159 2956 
Q 1366 3272 1645 3428 
Q 1925 3584 2291 3584 
Q 2894 3584 3203 3211 
Q 3513 2838 3513 2113 
z
" transform="scale(0.015625)"/>
     </defs>
     <use xlink:href="#DejaVuSans-68"/>
    </g>
   </g>
   <g id="text_8">
    <g id="patch_16">
     <path d="M 195.212705 246.976507 
L 209.561143 246.976507 
L 209.561143 229.298382 
L 195.212705 229.298382 
z
" style="fill: #ffffff; stroke: #ffffff; stroke-linejoin: miter"/>
    </g>
    <!-- g -->
    <g style="fill: #0000ff" transform="translate(199.212705 240.89682) scale(0.1 -0.1)">
     <defs>
      <path id="DejaVuSans-67" d="M 2906 1791 
Q 2906 2416 2648 2759 
Q 2391 3103 1925 3103 
Q 1463 3103 1205 2759 
Q 947 2416 947 1791 
Q 947 1169 1205 825 
Q 1463 481 1925 481 
Q 2391 481 2648 825 
Q 2906 1169 2906 1791 
z
M 3481 434 
Q 3481 -459 3084 -895 
Q 2688 -1331 1869 -1331 
Q 1566 -1331 1297 -1286 
Q 1028 -1241 775 -1147 
L 775 -588 
Q 1028 -725 1275 -790 
Q 1522 -856 1778 -856 
Q 2344 -856 2625 -561 
Q 2906 -266 2906 331 
L 2906 616 
Q 2728 306 2450 153 
Q 2172 0 1784 0 
Q 1141 0 747 490 
Q 353 981 353 1791 
Q 353 2603 747 3093 
Q 1141 3584 1784 3584 
Q 2172 3584 2450 3431 
Q 2728 3278 2906 2969 
L 2906 3500 
L 3481 3500 
L 3481 434 
z
" transform="scale(0.015625)"/>
     </defs>
     <use xlink:href="#DejaVuSans-67"/>
    </g>
   </g>
   <g id="text_9">
    <g id="patch_17">
     <path d="M 241.524611 95.875712 
L 255.023049 95.875712 
L 255.023049 78.197587 
L 241.524611 78.197587 
z
" style="fill: #ffffff; stroke: #ffffff; stroke-linejoin: miter"/>
    </g>
    <!-- c -->
    <g style="fill: #0000ff" transform="translate(245.524611 89.796024) scale(0.1 -0.1)">
     <defs>
      <path id="DejaVuSans-63" d="M 3122 3366 
L 3122 2828 
Q 2878 2963 2633 3030 
Q 2388 3097 2138 3097 
Q 1578 3097 1268 2742 
Q 959 2388 959 1747 
Q 959 1106 1268 751 
Q 1578 397 2138 397 
Q 2388 397 2633 464 
Q 2878 531 3122 666 
L 3122 134 
Q 2881 22 2623 -34 
Q 2366 -91 2075 -91 
Q 1284 -91 818 406 
Q 353 903 353 1747 
Q 353 2603 823 3093 
Q 1294 3584 2113 3584 
Q 2378 3584 2631 3529 
Q 2884 3475 3122 3366 
z
" transform="scale(0.015625)"/>
     </defs>
     <use xlink:href="#DejaVuSans-63"/>
    </g>
   </g>
   <g id="patch_18">
    <path d="M 270.554206 19.173004 
C 272.215286 19.173004 273.808556 18.51305 274.983117 17.338489 
C 276.157677 16.163929 276.817631 14.570659 276.817631 12.909579 
C 276.817631 11.248499 276.157677 9.655229 274.983117 8.480669 
C 273.808556 7.306108 272.215286 6.646154 270.554206 6.646154 
C 268.893127 6.646154 267.299857 7.306108 266.125296 8.480669 
C 264.950735 9.655229 264.290781 11.248499 264.290781 12.909579 
C 264.290781 14.570659 264.950735 16.163929 266.125296 17.338489 
C 267.299857 18.51305 268.893127 19.173004 270.554206 19.173004 
z
" style="fill: #fec7b8; stroke: #000000; stroke-linejoin: miter"/>
   </g>
   <g id="patch_19">
    <path d="M 225.993454 167.427145 
C 227.654533 167.427145 229.247803 166.767191 230.422364 165.59263 
C 231.596925 164.41807 232.256879 162.8248 232.256879 161.16372 
C 232.256879 159.50264 231.596925 157.90937 230.422364 156.73481 
C 229.247803 155.560249 227.654533 154.900295 225.993454 154.900295 
C 224.332374 154.900295 222.739104 155.560249 221.564543 156.73481 
C 220.389982 157.90937 219.730028 159.50264 219.730028 161.16372 
C 219.730028 162.8248 220.389982 164.41807 221.564543 165.59263 
C 222.739104 166.767191 224.332374 167.427145 225.993454 167.427145 
z
" style="fill: #fec7b8; stroke: #000000; stroke-linejoin: miter"/>
   </g>
   <g id="patch_20">
    <path d="M 178.780394 321.374594 
C 180.441474 321.374594 182.034744 320.71464 183.209305 319.54008 
C 184.383865 318.365519 185.043819 316.772249 185.043819 315.111169 
C 185.043819 313.450089 184.383865 311.85682 183.209305 310.682259 
C 182.034744 309.507698 180.441474 308.847744 178.780394 308.847744 
C 177.119314 308.847744 175.526045 309.507698 174.351484 310.682259 
C 173.176923 311.85682 172.516969 313.450089 172.516969 315.111169 
C 172.516969 316.772249 173.176923 318.365519 174.351484 319.54008 
C 175.526045 320.71464 177.119314 321.374594 178.780394 321.374594 
z
" style="fill: #fec7b8; stroke: #000000; stroke-linejoin: miter"/>
   </g>
   <g id="patch_21">
    <path d="M 270.554206 36.752256 
C 273.715782 36.752256 276.748294 35.496148 278.983866 33.260577 
C 281.219437 31.025005 282.475545 27.992493 282.475545 24.830917 
C 282.475545 21.669341 281.219437 18.63683 278.983866 16.401258 
C 276.748294 14.165686 273.715782 12.909579 270.554206 12.909579 
C 267.39263 12.909579 264.360119 14.165686 262.124547 16.401258 
C 259.888975 18.63683 258.632868 21.669341 258.632868 24.830917 
C 258.632868 27.992493 259.888975 31.025005 262.124547 33.260577 
C 264.360119 35.496148 267.39263 36.752256 270.554206 36.752256 
L 270.554206 36.752256 
z
" clip-path="url(#p48d5ca0be5)" style="fill: none; stroke: #ff0000; stroke-linejoin: miter"/>
   </g>
   <g id="patch_22">
    <path d="M 270.554206 48.673594 
C 275.29657 48.673594 279.845338 46.789433 283.198695 43.436076 
C 286.552053 40.082718 288.436214 35.53395 288.436214 30.791587 
C 288.436214 26.049223 286.552053 21.500455 283.198695 18.147098 
C 279.845338 14.79374 275.29657 12.909579 270.554206 12.909579 
C 265.811843 12.909579 261.263075 14.79374 257.909717 18.147098 
C 254.55636 21.500455 252.672199 26.049223 252.672199 30.791587 
C 252.672199 35.53395 254.55636 40.082718 257.909717 43.436076 
C 261.263075 46.789433 265.811843 48.673594 270.554206 48.673594 
L 270.554206 48.673594 
z
" clip-path="url(#p48d5ca0be5)" style="fill: none; stroke: #ffbf00; stroke-linejoin: miter"/>
   </g>
   <g id="patch_23">
    <path d="M 178.780394 338.953846 
C 181.94197 338.953846 184.974482 337.697739 187.210053 335.462167 
C 189.445625 333.226595 190.701733 330.194084 190.701733 327.032508 
C 190.701733 323.870932 189.445625 320.83842 187.210053 318.602848 
C 184.974482 316.367277 181.94197 315.111169 178.780394 315.111169 
C 175.618818 315.111169 172.586307 316.367277 170.350735 318.602848 
C 168.115163 320.83842 166.859056 323.870932 166.859056 327.032508 
C 166.859056 330.194084 168.115163 333.226595 170.350735 335.462167 
C 172.586307 337.697739 175.618818 338.953846 178.780394 338.953846 
L 178.780394 338.953846 
z
" clip-path="url(#p48d5ca0be5)" style="fill: none; stroke: #ff00bf; stroke-linejoin: miter"/>
   </g>
   <g id="text_10">
    <!-- 0 -->
    <g transform="translate(267.372956 15.668954) scale(0.1 -0.1)">
     <defs>
      <path id="DejaVuSans-30" d="M 2034 4250 
Q 1547 4250 1301 3770 
Q 1056 3291 1056 2328 
Q 1056 1369 1301 889 
Q 1547 409 2034 409 
Q 2525 409 2770 889 
Q 3016 1369 3016 2328 
Q 3016 3291 2770 3770 
Q 2525 4250 2034 4250 
z
M 2034 4750 
Q 2819 4750 3233 4129 
Q 3647 3509 3647 2328 
Q 3647 1150 3233 529 
Q 2819 -91 2034 -91 
Q 1250 -91 836 529 
Q 422 1150 422 2328 
Q 422 3509 836 4129 
Q 1250 4750 2034 4750 
z
" transform="scale(0.015625)"/>
     </defs>
     <use xlink:href="#DejaVuSans-30"/>
    </g>
   </g>
   <g id="text_11">
    <!-- 1 -->
    <g transform="translate(222.812204 163.923095) scale(0.1 -0.1)">
     <defs>
      <path id="DejaVuSans-31" d="M 794 531 
L 1825 531 
L 1825 4091 
L 703 3866 
L 703 4441 
L 1819 4666 
L 2450 4666 
L 2450 531 
L 3481 531 
L 3481 0 
L 794 0 
L 794 531 
z
" transform="scale(0.015625)"/>
     </defs>
     <use xlink:href="#DejaVuSans-31"/>
    </g>
   </g>
   <g id="text_12">
    <!-- 2 -->
    <g transform="translate(175.599144 317.870544) scale(0.1 -0.1)">
     <defs>
      <path id="DejaVuSans-32" d="M 1228 531 
L 3431 531 
L 3431 0 
L 469 0 
L 469 531 
Q 828 903 1448 1529 
Q 2069 2156 2228 2338 
Q 2531 2678 2651 2914 
Q 2772 3150 2772 3378 
Q 2772 3750 2511 3984 
Q 2250 4219 1831 4219 
Q 1534 4219 1204 4116 
Q 875 4013 500 3803 
L 500 4441 
Q 881 4594 1212 4672 
Q 1544 4750 1819 4750 
Q 2544 4750 2975 4387 
Q 3406 4025 3406 3419 
Q 3406 3131 3298 2873 
Q 3191 2616 2906 2266 
Q 2828 2175 2409 1742 
Q 1991 1309 1228 531 
z
" transform="scale(0.015625)"/>
     </defs>
     <use xlink:href="#DejaVuSans-32"/>
    </g>
   </g>
  </g>
 </g>
 <defs>
  <clipPath id="p48d5ca0be5">
   <rect x="164.317418" y="0" width="132.165164" height="345.6"/>
  </clipPath>
 </defs>
</svg>
