<?xml version="1.0" encoding="utf-8" standalone="no"?>
<!DOCTYPE svg PUBLIC "-//W3C//DTD SVG 1.1//EN"
  "http://www.w3.org/Graphics/SVG/1.1/DTD/svg11.dtd">
<svg xmlns:xlink="http://www.w3.org/1999/xlink" width="460.8pt" height="345.6pt" viewBox="0 0 460.8 345.6" xmlns="http://www.w3.org/2000/svg" version="1.1">
 <metadata>
  <rdf:RDF xmlns:dc="http://purl.org/dc/elements/1.1/" xmlns:cc="http://creativecommons.org/ns#" xmlns:rdf="http://www.w3.org/1999/02/22-rdf-syntax-ns#">
   <cc:Work>
    <dc:type rdf:resource="http://purl.org/dc/dcmitype/StillImage"/>
    <dc:date>2025-08-03T20:13:05.419525</dc:date>
    <dc:format>image/svg+xml</dc:format>
    <dc:creator>
     <cc:Agent>
      <dc:title>Matplotlib v3.10.3, https://matplotlib.org/</dc:title>
     </cc:Agent>
    </dc:creator>
   </cc:Work>
  </rdf:RDF>
 </metadata>
 <defs>
  <style type="text/css">*{stroke-linejoin: round; stroke-linecap: butt}</style>
 </defs>
 <g id="figure_1">
  <g id="patch_1">
   <path d="M 0 345.6 
L 460.8 345.6 
L 460.8 0 
L 0 0 
z
" style="fill: #ffffff"/>
  </g>
  <g id="axes_1">
   <g id="patch_2">
    <path d="M 0 267.428028 
L 460.8 267.428028 
L 460.8 78.171972 
L 0 78.171972 
z
" style="fill: #ffffff"/>
   </g>
   <g id="patch_3">
    <path d="M 322.807723 195.248399 
Q 388.267335 193.773512 431.067419 241.83732 
" clip-path="url(#paa8f74baa9)" style="fill: none; stroke: #000000; stroke-linecap: round"/>
    <path d="M 428.151212 231.044001 
L 431.067419 241.83732 
L 420.68304 237.694294 
z
" clip-path="url(#paa8f74baa9)" style="stroke: #000000; stroke-linecap: round"/>
   </g>
   <g id="patch_4">
    <path d="M 319.505061 205.383479 
Q 362.305144 253.447288 427.764757 251.9724 
" clip-path="url(#paa8f74baa9)" style="fill: none; stroke: #000000; stroke-linecap: round"/>
    <path d="M 322.421267 216.176798 
L 319.505061 205.383479 
L 329.88944 209.526505 
z
" clip-path="url(#paa8f74baa9)" style="stroke: #000000; stroke-linecap: round"/>
   </g>
   <g id="matplotlib.axis_1"/>
   <g id="matplotlib.axis_2"/>
   <g id="patch_5">
    <path d="M 304.676156 185.053034 
Q 281.373705 144.710297 258.630461 105.335696 
" clip-path="url(#paa8f74baa9)" style="fill: none; stroke: #000000; stroke-linecap: round"/>
    <path d="M 259.302525 116.495818 
L 258.630461 105.335696 
L 267.961797 111.494118 
z
" clip-path="url(#paa8f74baa9)" style="stroke: #000000; stroke-linecap: round"/>
   </g>
   <g id="patch_6">
    <path d="M 298.842035 193.287782 
Q 238.217831 181.893466 178.692422 170.705668 
" clip-path="url(#paa8f74baa9)" style="fill: none; stroke: #000000; stroke-linecap: round"/>
    <path d="M 187.596763 177.466785 
L 178.692422 170.705668 
L 189.44392 167.638865 
z
" clip-path="url(#paa8f74baa9)" style="stroke: #000000; stroke-linecap: round"/>
   </g>
   <g id="patch_7">
    <path d="M 242.02002 102.520209 
Q 208.869132 131.083066 174.871238 160.375704 
" clip-path="url(#paa8f74baa9)" style="fill: none; stroke: #000000; stroke-linecap: round"/>
    <path d="M 231.180487 105.259649 
L 242.02002 102.520209 
L 237.707851 112.835499 
z
" clip-path="url(#paa8f74baa9)" style="stroke: #000000; stroke-linecap: round"/>
   </g>
   <g id="patch_8">
    <path d="M 153.633103 168.712269 
Q 93.331591 170.938772 34.147352 173.124023 
" clip-path="url(#paa8f74baa9)" style="fill: none; stroke: #000000; stroke-linecap: round"/>
    <path d="M 44.325031 177.751641 
L 34.147352 173.124023 
L 43.956054 167.758451 
z
" clip-path="url(#paa8f74baa9)" style="stroke: #000000; stroke-linecap: round"/>
   </g>
   <g id="patch_9">
    <path d="M 310.722404 207.609083 
C 313.928282 207.609083 317.003286 206.335374 319.270184 204.068477 
C 321.537082 201.801579 322.81079 198.726574 322.81079 195.520697 
C 322.81079 192.314819 321.537082 189.239815 319.270184 186.972917 
C 317.003286 184.706019 313.928282 183.432311 310.722404 183.432311 
C 307.516527 183.432311 304.441522 184.706019 302.174625 186.972917 
C 299.907727 189.239815 298.634018 192.314819 298.634018 195.520697 
C 298.634018 198.726574 299.907727 201.801579 302.174625 204.068477 
C 304.441522 206.335374 307.516527 207.609083 310.722404 207.609083 
z
" style="fill: #fec7b8; stroke: #000000; stroke-linejoin: miter"/>
   </g>
   <g id="patch_10">
    <path d="M 252.025006 105.988283 
C 255.230883 105.988283 258.305888 104.714575 260.572786 102.447677 
C 262.839683 100.180779 264.113392 97.105775 264.113392 93.899897 
C 264.113392 90.69402 262.839683 87.619015 260.572786 85.352118 
C 258.305888 83.08522 255.230883 81.811511 252.025006 81.811511 
C 248.819128 81.811511 245.744124 83.08522 243.477226 85.352118 
C 241.210328 87.619015 239.93662 90.69402 239.93662 93.899897 
C 239.93662 97.105775 241.210328 100.180779 243.477226 102.447677 
C 245.744124 104.714575 248.819128 105.988283 252.025006 105.988283 
z
" style="fill: #fec7b8; stroke: #000000; stroke-linejoin: miter"/>
   </g>
   <g id="patch_11">
    <path d="M 165.713258 180.354621 
C 168.919135 180.354621 171.99414 179.080912 174.261037 176.814015 
C 176.527935 174.547117 177.801644 171.472112 177.801644 168.266235 
C 177.801644 165.060357 176.527935 161.985353 174.261037 159.718455 
C 171.99414 157.451557 168.919135 156.177849 165.713258 156.177849 
C 162.50738 156.177849 159.432376 157.451557 157.165478 159.718455 
C 154.89858 161.985353 153.624872 165.060357 153.624872 168.266235 
C 153.624872 171.472112 154.89858 174.547117 157.165478 176.814015 
C 159.432376 179.080912 162.50738 180.354621 165.713258 180.354621 
z
" style="fill: #fec7b8; stroke: #000000; stroke-linejoin: miter"/>
   </g>
   <g id="patch_12">
    <path d="M 439.850076 263.788489 
C 443.055953 263.788489 446.130958 262.51478 448.397855 260.247882 
C 450.664753 257.980985 451.938462 254.90598 451.938462 251.700103 
C 451.938462 248.494225 450.664753 245.419221 448.397855 243.152323 
C 446.130958 240.885425 443.055953 239.611717 439.850076 239.611717 
C 436.644198 239.611717 433.569193 240.885425 431.302296 243.152323 
C 429.035398 245.419221 427.761689 248.494225 427.761689 251.700103 
C 427.761689 254.90598 429.035398 257.980985 431.302296 260.247882 
C 433.569193 262.51478 436.644198 263.788489 439.850076 263.788489 
z
" style="fill: #fec7b8; stroke: #000000; stroke-linejoin: miter"/>
   </g>
   <g id="patch_13">
    <path d="M 20.949924 185.699696 
C 24.155802 185.699696 27.230807 184.425987 29.497704 182.159089 
C 31.764602 179.892192 33.038311 176.817187 33.038311 173.61131 
C 33.038311 170.405432 31.764602 167.330428 29.497704 165.06353 
C 27.230807 162.796632 24.155802 161.522924 20.949924 161.522924 
C 17.744047 161.522924 14.669042 162.796632 12.402145 165.06353 
C 10.135247 167.330428 8.861538 170.405432 8.861538 173.61131 
C 8.861538 176.817187 10.135247 179.892192 12.402145 182.159089 
C 14.669042 184.425987 17.744047 185.699696 20.949924 185.699696 
z
" style="fill: #fec7b8; stroke: #000000; stroke-linejoin: miter"/>
   </g>
   <g id="text_1">
    <!-- 0 -->
    <g transform="translate(307.541154 198.280072) scale(0.1 -0.1)">
     <defs>
      <path id="DejaVuSans-30" d="M 2034 4250 
Q 1547 4250 1301 3770 
Q 1056 3291 1056 2328 
Q 1056 1369 1301 889 
Q 1547 409 2034 409 
Q 2525 409 2770 889 
Q 3016 1369 3016 2328 
Q 3016 3291 2770 3770 
Q 2525 4250 2034 4250 
z
M 2034 4750 
Q 2819 4750 3233 4129 
Q 3647 3509 3647 2328 
Q 3647 1150 3233 529 
Q 2819 -91 2034 -91 
Q 1250 -91 836 529 
Q 422 1150 422 2328 
Q 422 3509 836 4129 
Q 1250 4750 2034 4750 
z
" transform="scale(0.015625)"/>
     </defs>
     <use xlink:href="#DejaVuSans-30"/>
    </g>
   </g>
   <g id="text_2">
    <!-- 1 -->
    <g transform="translate(248.843756 96.659272) scale(0.1 -0.1)">
     <defs>
      <path id="DejaVuSans-31" d="M 794 531 
L 1825 531 
L 1825 4091 
L 703 3866 
L 703 4441 
L 1819 4666 
L 2450 4666 
L 2450 531 
L 3481 531 
L 3481 0 
L 794 0 
L 794 531 
z
" transform="scale(0.015625)"/>
     </defs>
     <use xlink:href="#DejaVuSans-31"/>
    </g>
   </g>
   <g id="text_3">
    <!-- 2 -->
    <g transform="translate(162.532008 171.02561) scale(0.1 -0.1)">
     <defs>
      <path id="DejaVuSans-32" d="M 1228 531 
L 3431 531 
L 3431 0 
L 469 0 
L 469 531 
Q 828 903 1448 1529 
Q 2069 2156 2228 2338 
Q 2531 2678 2651 2914 
Q 2772 3150 2772 3378 
Q 2772 3750 2511 3984 
Q 2250 4219 1831 4219 
Q 1534 4219 1204 4116 
Q 875 4013 500 3803 
L 500 4441 
Q 881 4594 1212 4672 
Q 1544 4750 1819 4750 
Q 2544 4750 2975 4387 
Q 3406 4025 3406 3419 
Q 3406 3131 3298 2873 
Q 3191 2616 2906 2266 
Q 2828 2175 2409 1742 
Q 1991 1309 1228 531 
z
" transform="scale(0.015625)"/>
     </defs>
     <use xlink:href="#DejaVuSans-32"/>
    </g>
   </g>
   <g id="text_4">
    <!-- 3 -->
    <g transform="translate(436.668826 254.459478) scale(0.1 -0.1)">
     <defs>
      <path id="DejaVuSans-33" d="M 2597 2516 
Q 3050 2419 3304 2112 
Q 3559 1806 3559 1356 
Q 3559 666 3084 287 
Q 2609 -91 1734 -91 
Q 1441 -91 1130 -33 
Q 819 25 488 141 
L 488 750 
Q 750 597 1062 519 
Q 1375 441 1716 441 
Q 2309 441 2620 675 
Q 2931 909 2931 1356 
Q 2931 1769 2642 2001 
Q 2353 2234 1838 2234 
L 1294 2234 
L 1294 2753 
L 1863 2753 
Q 2328 2753 2575 2939 
Q 2822 3125 2822 3475 
Q 2822 3834 2567 4026 
Q 2313 4219 1838 4219 
Q 1578 4219 1281 4162 
Q 984 4106 628 3988 
L 628 4550 
Q 988 4650 1302 4700 
Q 1616 4750 1894 4750 
Q 2613 4750 3031 4423 
Q 3450 4097 3450 3541 
Q 3450 3153 3228 2886 
Q 3006 2619 2597 2516 
z
" transform="scale(0.015625)"/>
     </defs>
     <use xlink:href="#DejaVuSans-33"/>
    </g>
   </g>
   <g id="text_5">
    <!-- 4 -->
    <g transform="translate(17.768674 176.370685) scale(0.1 -0.1)">
     <defs>
      <path id="DejaVuSans-34" d="M 2419 4116 
L 825 1625 
L 2419 1625 
L 2419 4116 
z
M 2253 4666 
L 3047 4666 
L 3047 1625 
L 3713 1625 
L 3713 1100 
L 3047 1100 
L 3047 0 
L 2419 0 
L 2419 1100 
L 313 1100 
L 313 1709 
L 2253 4666 
z
" transform="scale(0.015625)"/>
     </defs>
     <use xlink:href="#DejaVuSans-34"/>
    </g>
   </g>
  </g>
 </g>
 <defs>
  <clipPath id="paa8f74baa9">
   <rect x="0" y="78.171972" width="460.8" height="189.256056"/>
  </clipPath>
 </defs>
</svg>
