<?xml version="1.0" encoding="utf-8" standalone="no"?>
<!DOCTYPE svg PUBLIC "-//W3C//DTD SVG 1.1//EN"
  "http://www.w3.org/Graphics/SVG/1.1/DTD/svg11.dtd">
<svg xmlns:xlink="http://www.w3.org/1999/xlink" width="460.8pt" height="345.6pt" viewBox="0 0 460.8 345.6" xmlns="http://www.w3.org/2000/svg" version="1.1">
 <metadata>
  <rdf:RDF xmlns:dc="http://purl.org/dc/elements/1.1/" xmlns:cc="http://creativecommons.org/ns#" xmlns:rdf="http://www.w3.org/1999/02/22-rdf-syntax-ns#">
   <cc:Work>
    <dc:type rdf:resource="http://purl.org/dc/dcmitype/StillImage"/>
    <dc:date>2025-08-01T22:04:04.680388</dc:date>
    <dc:format>image/svg+xml</dc:format>
    <dc:creator>
     <cc:Agent>
      <dc:title>Matplotlib v3.10.3, https://matplotlib.org/</dc:title>
     </cc:Agent>
    </dc:creator>
   </cc:Work>
  </rdf:RDF>
 </metadata>
 <defs>
  <style type="text/css">*{stroke-linejoin: round; stroke-linecap: butt}</style>
 </defs>
 <g id="figure_1">
  <g id="patch_1">
   <path d="M 0 345.6 
L 460.8 345.6 
L 460.8 0 
L 0 0 
z
" style="fill: #ffffff"/>
  </g>
  <g id="axes_1">
   <g id="patch_2">
    <path d="M 0 236.338606 
L 460.8 236.338606 
L 460.8 109.261394 
L 0 109.261394 
z
" style="fill: #ffffff"/>
   </g>
   <g id="patch_3">
    <path d="M 31.798406 177.742934 
Q 136.367603 203.347407 238.007859 167.857066 
" clip-path="url(#pbe4da13dae)" style="fill: none; stroke: #7fff00; stroke-linejoin: miter"/>
   </g>
   <g id="patch_4">
    <path d="M 31.798406 177.742934 
Q 133.438662 142.252593 238.007859 167.857066 
" clip-path="url(#pbe4da13dae)" style="fill: none; stroke: #7fff00; stroke-linejoin: miter"/>
   </g>
   <g id="patch_5">
    <path d="M 31.798406 177.742934 
Q 137.832074 233.894813 238.007859 167.857066 
" clip-path="url(#pbe4da13dae)" style="fill: none; stroke: #00ff3f; stroke-linejoin: miter"/>
   </g>
   <g id="patch_6">
    <path d="M 31.798406 177.742934 
Q 131.974192 111.705187 238.007859 167.857066 
" clip-path="url(#pbe4da13dae)" style="fill: none; stroke: #00ffff; stroke-linejoin: miter"/>
   </g>
   <g id="matplotlib.axis_1"/>
   <g id="matplotlib.axis_2"/>
   <g id="line2d_1">
    <path d="M 238.007859 167.857066 
L 436.647216 160.73474 
" clip-path="url(#pbe4da13dae)" style="fill: none; stroke: #7f00ff; stroke-linecap: square"/>
   </g>
   <g id="line2d_2">
    <path d="M 31.798406 177.742934 
L 238.007859 167.857066 
" clip-path="url(#pbe4da13dae)" style="fill: none; stroke: #003fff; stroke-linecap: square"/>
   </g>
   <g id="text_1">
    <g id="patch_7">
     <path d="M 24.624188 217.164488 
L 38.972625 217.164488 
L 38.972625 199.486363 
L 24.624188 199.486363 
z
" style="fill: #ffffff; stroke: #ffffff; stroke-linejoin: miter"/>
    </g>
    <!-- b -->
    <g style="fill: #0000ff" transform="translate(28.624188 211.0848) scale(0.1 -0.1)">
     <defs>
      <path id="DejaVuSans-62" d="M 3116 1747 
Q 3116 2381 2855 2742 
Q 2594 3103 2138 3103 
Q 1681 3103 1420 2742 
Q 1159 2381 1159 1747 
Q 1159 1113 1420 752 
Q 1681 391 2138 391 
Q 2594 391 2855 752 
Q 3116 1113 3116 1747 
z
M 1159 2969 
Q 1341 3281 1617 3432 
Q 1894 3584 2278 3584 
Q 2916 3584 3314 3078 
Q 3713 2572 3713 1747 
Q 3713 922 3314 415 
Q 2916 -91 2278 -91 
Q 1894 -91 1617 61 
Q 1341 213 1159 525 
L 1159 0 
L 581 0 
L 581 4863 
L 1159 4863 
L 1159 2969 
z
" transform="scale(0.015625)"/>
     </defs>
     <use xlink:href="#DejaVuSans-62"/>
    </g>
   </g>
   <g id="text_2">
    <g id="patch_8">
     <path d="M 24.734344 232.455733 
L 38.862469 232.455733 
L 38.862469 214.777608 
L 24.734344 214.777608 
z
" style="fill: #ffffff; stroke: #ffffff; stroke-linejoin: miter"/>
    </g>
    <!-- a -->
    <g style="fill: #0000ff" transform="translate(28.734344 226.376045) scale(0.1 -0.1)">
     <defs>
      <path id="DejaVuSans-61" d="M 2194 1759 
Q 1497 1759 1228 1600 
Q 959 1441 959 1056 
Q 959 750 1161 570 
Q 1363 391 1709 391 
Q 2188 391 2477 730 
Q 2766 1069 2766 1631 
L 2766 1759 
L 2194 1759 
z
M 3341 1997 
L 3341 0 
L 2766 0 
L 2766 531 
Q 2569 213 2275 61 
Q 1981 -91 1556 -91 
Q 1019 -91 701 211 
Q 384 513 384 1019 
Q 384 1609 779 1909 
Q 1175 2209 1959 2209 
L 2766 2209 
L 2766 2266 
Q 2766 2663 2505 2880 
Q 2244 3097 1772 3097 
Q 1472 3097 1187 3025 
Q 903 2953 641 2809 
L 641 3341 
Q 956 3463 1253 3523 
Q 1550 3584 1831 3584 
Q 2591 3584 2966 3190 
Q 3341 2797 3341 1997 
z
" transform="scale(0.015625)"/>
     </defs>
     <use xlink:href="#DejaVuSans-61"/>
    </g>
   </g>
   <g id="text_3">
    <g id="patch_9">
     <path d="M 129.875212 196.912766 
L 141.395524 196.912766 
L 141.395524 179.234641 
L 129.875212 179.234641 
z
" style="fill: #ffffff; stroke: #ffffff; stroke-linejoin: miter"/>
    </g>
    <!-- f -->
    <g style="fill: #0000ff" transform="translate(133.875212 190.833078) scale(0.1 -0.1)">
     <defs>
      <path id="DejaVuSans-66" d="M 2375 4863 
L 2375 4384 
L 1825 4384 
Q 1516 4384 1395 4259 
Q 1275 4134 1275 3809 
L 1275 3500 
L 2222 3500 
L 2222 3053 
L 1275 3053 
L 1275 0 
L 697 0 
L 697 3053 
L 147 3053 
L 147 3500 
L 697 3500 
L 697 3744 
Q 697 4328 969 4595 
Q 1241 4863 1831 4863 
L 2375 4863 
z
" transform="scale(0.015625)"/>
     </defs>
     <use xlink:href="#DejaVuSans-66"/>
    </g>
   </g>
   <g id="text_4">
    <g id="patch_10">
     <path d="M 128.410741 166.365359 
L 139.931054 166.365359 
L 139.931054 148.687234 
L 128.410741 148.687234 
z
" style="fill: #ffffff; stroke: #ffffff; stroke-linejoin: miter"/>
    </g>
    <!-- f -->
    <g style="fill: #0000ff" transform="translate(132.410741 160.285672) scale(0.1 -0.1)">
     <use xlink:href="#DejaVuSans-66"/>
    </g>
   </g>
   <g id="text_5">
    <g id="patch_11">
     <path d="M 129.291041 212.186469 
L 143.444166 212.186469 
L 143.444166 194.508344 
L 129.291041 194.508344 
z
" style="fill: #ffffff; stroke: #ffffff; stroke-linejoin: miter"/>
    </g>
    <!-- e -->
    <g style="fill: #0000ff" transform="translate(133.291041 206.106782) scale(0.1 -0.1)">
     <defs>
      <path id="DejaVuSans-65" d="M 3597 1894 
L 3597 1613 
L 953 1613 
Q 991 1019 1311 708 
Q 1631 397 2203 397 
Q 2534 397 2845 478 
Q 3156 559 3463 722 
L 3463 178 
Q 3153 47 2828 -22 
Q 2503 -91 2169 -91 
Q 1331 -91 842 396 
Q 353 884 353 1716 
Q 353 2575 817 3079 
Q 1281 3584 2069 3584 
Q 2775 3584 3186 3129 
Q 3597 2675 3597 1894 
z
M 3022 2063 
Q 3016 2534 2758 2815 
Q 2500 3097 2075 3097 
Q 1594 3097 1305 2825 
Q 1016 2553 972 2059 
L 3022 2063 
z
" transform="scale(0.015625)"/>
     </defs>
     <use xlink:href="#DejaVuSans-65"/>
    </g>
   </g>
   <g id="text_6">
    <g id="patch_12">
     <path d="M 126.264444 151.091656 
L 140.612881 151.091656 
L 140.612881 133.413531 
L 126.264444 133.413531 
z
" style="fill: #ffffff; stroke: #ffffff; stroke-linejoin: miter"/>
    </g>
    <!-- d -->
    <g style="fill: #0000ff" transform="translate(130.264444 145.011968) scale(0.1 -0.1)">
     <defs>
      <path id="DejaVuSans-64" d="M 2906 2969 
L 2906 4863 
L 3481 4863 
L 3481 0 
L 2906 0 
L 2906 525 
Q 2725 213 2448 61 
Q 2172 -91 1784 -91 
Q 1150 -91 751 415 
Q 353 922 353 1747 
Q 353 2572 751 3078 
Q 1150 3584 1784 3584 
Q 2172 3584 2448 3432 
Q 2725 3281 2906 2969 
z
M 947 1747 
Q 947 1113 1208 752 
Q 1469 391 1925 391 
Q 2381 391 2643 752 
Q 2906 1113 2906 1747 
Q 2906 2381 2643 2742 
Q 2381 3103 1925 3103 
Q 1469 3103 1208 2742 
Q 947 2381 947 1747 
z
" transform="scale(0.015625)"/>
     </defs>
     <use xlink:href="#DejaVuSans-64"/>
    </g>
   </g>
   <g id="text_7">
    <g id="patch_13">
     <path d="M 429.478466 200.156293 
L 443.815966 200.156293 
L 443.815966 182.478168 
L 429.478466 182.478168 
z
" style="fill: #ffffff; stroke: #ffffff; stroke-linejoin: miter"/>
    </g>
    <!-- h -->
    <g style="fill: #0000ff" transform="translate(433.478466 194.076606) scale(0.1 -0.1)">
     <defs>
      <path id="DejaVuSans-68" d="M 3513 2113 
L 3513 0 
L 2938 0 
L 2938 2094 
Q 2938 2591 2744 2837 
Q 2550 3084 2163 3084 
Q 1697 3084 1428 2787 
Q 1159 2491 1159 1978 
L 1159 0 
L 581 0 
L 581 4863 
L 1159 4863 
L 1159 2956 
Q 1366 3272 1645 3428 
Q 1925 3584 2291 3584 
Q 2894 3584 3203 3211 
Q 3513 2838 3513 2113 
z
" transform="scale(0.015625)"/>
     </defs>
     <use xlink:href="#DejaVuSans-68"/>
    </g>
   </g>
   <g id="text_8">
    <g id="patch_14">
     <path d="M 330.153319 173.134965 
L 344.501757 173.134965 
L 344.501757 155.45684 
L 330.153319 155.45684 
z
" style="fill: #ffffff; stroke: #ffffff; stroke-linejoin: miter"/>
    </g>
    <!-- g -->
    <g style="fill: #0000ff" transform="translate(334.153319 167.055278) scale(0.1 -0.1)">
     <defs>
      <path id="DejaVuSans-67" d="M 2906 1791 
Q 2906 2416 2648 2759 
Q 2391 3103 1925 3103 
Q 1463 3103 1205 2759 
Q 947 2416 947 1791 
Q 947 1169 1205 825 
Q 1463 481 1925 481 
Q 2391 481 2648 825 
Q 2906 1169 2906 1791 
z
M 3481 434 
Q 3481 -459 3084 -895 
Q 2688 -1331 1869 -1331 
Q 1566 -1331 1297 -1286 
Q 1028 -1241 775 -1147 
L 775 -588 
Q 1028 -725 1275 -790 
Q 1522 -856 1778 -856 
Q 2344 -856 2625 -561 
Q 2906 -266 2906 331 
L 2906 616 
Q 2728 306 2450 153 
Q 2172 0 1784 0 
Q 1141 0 747 490 
Q 353 981 353 1791 
Q 353 2603 747 3093 
Q 1141 3584 1784 3584 
Q 2172 3584 2450 3431 
Q 2728 3278 2906 2969 
L 2906 3500 
L 3481 3500 
L 3481 434 
z
" transform="scale(0.015625)"/>
     </defs>
     <use xlink:href="#DejaVuSans-67"/>
    </g>
   </g>
   <g id="text_9">
    <g id="patch_15">
     <path d="M 128.153914 181.639062 
L 141.652352 181.639062 
L 141.652352 163.960938 
L 128.153914 163.960938 
z
" style="fill: #ffffff; stroke: #ffffff; stroke-linejoin: miter"/>
    </g>
    <!-- c -->
    <g style="fill: #0000ff" transform="translate(132.153914 175.559375) scale(0.1 -0.1)">
     <defs>
      <path id="DejaVuSans-63" d="M 3122 3366 
L 3122 2828 
Q 2878 2963 2633 3030 
Q 2388 3097 2138 3097 
Q 1578 3097 1268 2742 
Q 959 2388 959 1747 
Q 959 1106 1268 751 
Q 1578 397 2138 397 
Q 2388 397 2633 464 
Q 2878 531 3122 666 
L 3122 134 
Q 2881 22 2623 -34 
Q 2366 -91 2075 -91 
Q 1284 -91 818 406 
Q 353 903 353 1747 
Q 353 2603 823 3093 
Q 1294 3584 2113 3584 
Q 2378 3584 2631 3529 
Q 2884 3475 3122 3366 
z
" transform="scale(0.015625)"/>
     </defs>
     <use xlink:href="#DejaVuSans-63"/>
    </g>
   </g>
   <g id="patch_16">
    <path d="M 31.798406 208.325425 
C 35.853692 208.325425 39.74343 206.714243 42.61095 203.846723 
C 45.47847 200.979203 47.089652 197.089465 47.089652 193.03418 
C 47.089652 188.978894 45.47847 185.089156 42.61095 182.221637 
C 39.74343 179.354117 35.853692 177.742934 31.798406 177.742934 
C 27.743121 177.742934 23.853383 179.354117 20.985863 182.221637 
C 18.118343 185.089156 16.507161 188.978894 16.507161 193.03418 
C 16.507161 197.089465 18.118343 200.979203 20.985863 203.846723 
C 23.853383 206.714243 27.743121 208.325425 31.798406 208.325425 
L 31.798406 208.325425 
z
" clip-path="url(#pbe4da13dae)" style="fill: none; stroke: #ff0000; stroke-linejoin: miter"/>
   </g>
   <g id="patch_17">
    <path d="M 31.798406 223.61667 
C 37.881335 223.61667 43.715941 221.199897 48.017221 216.898617 
C 52.318501 212.597337 54.735274 206.762731 54.735274 200.679802 
C 54.735274 194.596874 52.318501 188.762268 48.017221 184.460988 
C 43.715941 180.159708 37.881335 177.742934 31.798406 177.742934 
C 25.715478 177.742934 19.880872 180.159708 15.579592 184.460988 
C 11.278312 188.762268 8.861538 194.596874 8.861538 200.679802 
C 8.861538 206.762731 11.278312 212.597337 15.579592 216.898617 
C 19.880872 221.199897 25.715478 223.61667 31.798406 223.61667 
L 31.798406 223.61667 
z
" clip-path="url(#pbe4da13dae)" style="fill: none; stroke: #ffbf00; stroke-linejoin: miter"/>
   </g>
   <g id="patch_18">
    <path d="M 436.647216 191.317231 
C 440.702502 191.317231 444.59224 189.706049 447.459759 186.838529 
C 450.327279 183.971009 451.938462 180.081271 451.938462 176.025985 
C 451.938462 171.9707 450.327279 168.080962 447.459759 165.213442 
C 444.59224 162.345922 440.702502 160.73474 436.647216 160.73474 
C 432.591931 160.73474 428.702193 162.345922 425.834673 165.213442 
C 422.967153 168.080962 421.355971 171.9707 421.355971 176.025985 
C 421.355971 180.081271 422.967153 183.971009 425.834673 186.838529 
C 428.702193 189.706049 432.591931 191.317231 436.647216 191.317231 
L 436.647216 191.317231 
z
" clip-path="url(#pbe4da13dae)" style="fill: none; stroke: #ff00bf; stroke-linejoin: miter"/>
   </g>
   <g id="PathCollection_1">
    <defs>
     <path id="m9a1e467d92" d="M 0 5 
C 1.326016 5 2.597899 4.473168 3.535534 3.535534 
C 4.473168 2.597899 5 1.326016 5 0 
C 5 -1.326016 4.473168 -2.597899 3.535534 -3.535534 
C 2.597899 -4.473168 1.326016 -5 0 -5 
C -1.326016 -5 -2.597899 -4.473168 -3.535534 -3.535534 
C -4.473168 -2.597899 -5 -1.326016 -5 0 
C -5 1.326016 -4.473168 2.597899 -3.535534 3.535534 
C -2.597899 4.473168 -1.326016 5 0 5 
z
" style="stroke: #000000"/>
    </defs>
    <g>
     <use xlink:href="#m9a1e467d92" x="31.798406" y="177.742934" style="fill: #fec7b8; stroke: #000000"/>
     <use xlink:href="#m9a1e467d92" x="238.007859" y="167.857066" style="fill: #fec7b8; stroke: #000000"/>
     <use xlink:href="#m9a1e467d92" x="436.647216" y="160.73474" style="fill: #fec7b8; stroke: #000000"/>
    </g>
   </g>
   <g id="text_10">
    <!-- 0 -->
    <g transform="translate(28.617156 180.502309) scale(0.1 -0.1)">
     <defs>
      <path id="DejaVuSans-30" d="M 2034 4250 
Q 1547 4250 1301 3770 
Q 1056 3291 1056 2328 
Q 1056 1369 1301 889 
Q 1547 409 2034 409 
Q 2525 409 2770 889 
Q 3016 1369 3016 2328 
Q 3016 3291 2770 3770 
Q 2525 4250 2034 4250 
z
M 2034 4750 
Q 2819 4750 3233 4129 
Q 3647 3509 3647 2328 
Q 3647 1150 3233 529 
Q 2819 -91 2034 -91 
Q 1250 -91 836 529 
Q 422 1150 422 2328 
Q 422 3509 836 4129 
Q 1250 4750 2034 4750 
z
" transform="scale(0.015625)"/>
     </defs>
     <use xlink:href="#DejaVuSans-30"/>
    </g>
   </g>
   <g id="text_11">
    <!-- 1 -->
    <g transform="translate(234.826609 170.616441) scale(0.1 -0.1)">
     <defs>
      <path id="DejaVuSans-31" d="M 794 531 
L 1825 531 
L 1825 4091 
L 703 3866 
L 703 4441 
L 1819 4666 
L 2450 4666 
L 2450 531 
L 3481 531 
L 3481 0 
L 794 0 
L 794 531 
z
" transform="scale(0.015625)"/>
     </defs>
     <use xlink:href="#DejaVuSans-31"/>
    </g>
   </g>
   <g id="text_12">
    <!-- 2 -->
    <g transform="translate(433.465966 163.494115) scale(0.1 -0.1)">
     <defs>
      <path id="DejaVuSans-32" d="M 1228 531 
L 3431 531 
L 3431 0 
L 469 0 
L 469 531 
Q 828 903 1448 1529 
Q 2069 2156 2228 2338 
Q 2531 2678 2651 2914 
Q 2772 3150 2772 3378 
Q 2772 3750 2511 3984 
Q 2250 4219 1831 4219 
Q 1534 4219 1204 4116 
Q 875 4013 500 3803 
L 500 4441 
Q 881 4594 1212 4672 
Q 1544 4750 1819 4750 
Q 2544 4750 2975 4387 
Q 3406 4025 3406 3419 
Q 3406 3131 3298 2873 
Q 3191 2616 2906 2266 
Q 2828 2175 2409 1742 
Q 1991 1309 1228 531 
z
" transform="scale(0.015625)"/>
     </defs>
     <use xlink:href="#DejaVuSans-32"/>
    </g>
   </g>
  </g>
 </g>
 <defs>
  <clipPath id="pbe4da13dae">
   <rect x="0" y="109.261394" width="460.8" height="127.077212"/>
  </clipPath>
 </defs>
</svg>
