<?xml version="1.0" encoding="utf-8" standalone="no"?>
<!DOCTYPE svg PUBLIC "-//W3C//DTD SVG 1.1//EN"
  "http://www.w3.org/Graphics/SVG/1.1/DTD/svg11.dtd">
<svg xmlns:xlink="http://www.w3.org/1999/xlink" width="460.8pt" height="345.6pt" viewBox="0 0 460.8 345.6" xmlns="http://www.w3.org/2000/svg" version="1.1">
 <metadata>
  <rdf:RDF xmlns:dc="http://purl.org/dc/elements/1.1/" xmlns:cc="http://creativecommons.org/ns#" xmlns:rdf="http://www.w3.org/1999/02/22-rdf-syntax-ns#">
   <cc:Work>
    <dc:type rdf:resource="http://purl.org/dc/dcmitype/StillImage"/>
    <dc:date>2025-08-04T20:42:47.401190</dc:date>
    <dc:format>image/svg+xml</dc:format>
    <dc:creator>
     <cc:Agent>
      <dc:title>Matplotlib v3.10.3, https://matplotlib.org/</dc:title>
     </cc:Agent>
    </dc:creator>
   </cc:Work>
  </rdf:RDF>
 </metadata>
 <defs>
  <style type="text/css">*{stroke-linejoin: round; stroke-linecap: butt}</style>
 </defs>
 <g id="figure_1">
  <g id="patch_1">
   <path d="M 0 345.6 
L 460.8 345.6 
L 460.8 0 
L 0 0 
z
" style="fill: #ffffff"/>
  </g>
  <g id="axes_1">
   <g id="patch_2">
    <path d="M 128.944573 345.6 
L 331.855427 345.6 
L 331.855427 0 
L 128.944573 0 
z
" style="fill: #ffffff"/>
   </g>
   <g id="patch_3">
    <path d="M 217.375397 252.667504 
Q 201.657819 304.086756 153.158518 324.576291 
" clip-path="url(#peb8bdea784)" style="fill: none; stroke: #000000; stroke-linecap: round"/>
    <path d="M 164.316025 325.290465 
L 153.158518 324.576291 
L 160.424362 316.07879 
z
" clip-path="url(#peb8bdea784)" style="stroke: #000000; stroke-linecap: round"/>
   </g>
   <g id="patch_4">
    <path d="M 210.034063 247.410335 
Q 161.534763 267.89987 145.817185 319.319122 
" clip-path="url(#peb8bdea784)" style="fill: none; stroke: #000000; stroke-linecap: round"/>
    <path d="M 198.876556 246.696161 
L 210.034063 247.410335 
L 202.768219 255.907836 
z
" clip-path="url(#peb8bdea784)" style="stroke: #000000; stroke-linecap: round"/>
   </g>
   <g id="matplotlib.axis_1"/>
   <g id="matplotlib.axis_2"/>
   <g id="patch_5">
    <path d="M 230.164014 241.167373 
Q 269.113024 233.650166 306.964259 226.344831 
" clip-path="url(#peb8bdea784)" style="fill: none; stroke: #000000; stroke-linecap: round"/>
    <path d="M 296.197939 223.330472 
L 306.964259 226.344831 
L 298.09298 233.149271 
z
" clip-path="url(#peb8bdea784)" style="stroke: #000000; stroke-linecap: round"/>
   </g>
   <g id="patch_6">
    <path d="M 225.019461 234.206662 
Q 247.797875 191.34647 270.051597 149.473546 
" clip-path="url(#peb8bdea784)" style="fill: none; stroke: #000000; stroke-linecap: round"/>
    <path d="M 260.943412 155.957446 
L 270.051597 149.473546 
L 269.773806 160.650434 
z
" clip-path="url(#peb8bdea784)" style="stroke: #000000; stroke-linecap: round"/>
   </g>
   <g id="patch_7">
    <path d="M 312.897507 214.269445 
Q 296.601584 181.927294 279.802581 148.586689 
" clip-path="url(#peb8bdea784)" style="fill: none; stroke: #000000; stroke-linecap: round"/>
    <path d="M 312.863034 203.089158 
L 312.897507 214.269445 
L 303.932594 207.588852 
z
" clip-path="url(#peb8bdea784)" style="stroke: #000000; stroke-linecap: round"/>
   </g>
   <g id="patch_8">
    <path d="M 277.112671 129.754583 
Q 286.661377 78.153157 296.006648 27.6511 
" clip-path="url(#peb8bdea784)" style="fill: none; stroke: #000000; stroke-linecap: round"/>
    <path d="M 289.270534 36.574372 
L 296.006648 27.6511 
L 299.103597 38.393954 
z
" clip-path="url(#peb8bdea784)" style="stroke: #000000; stroke-linecap: round"/>
   </g>
   <g id="patch_9">
    <path d="M 220.309314 253.105904 
C 222.971042 253.105904 225.52411 252.048389 227.406236 250.166263 
C 229.288361 248.284138 230.345877 245.731069 230.345877 243.069342 
C 230.345877 240.407614 229.288361 237.854546 227.406236 235.972421 
C 225.52411 234.090295 222.971042 233.03278 220.309314 233.03278 
C 217.647587 233.03278 215.094519 234.090295 213.212393 235.972421 
C 211.330268 237.854546 210.272752 240.407614 210.272752 243.069342 
C 210.272752 245.731069 211.330268 248.284138 213.212393 250.166263 
C 215.094519 252.048389 217.647587 253.105904 220.309314 253.105904 
z
" style="fill: #fec7b8; stroke: #000000; stroke-linejoin: miter"/>
   </g>
   <g id="patch_10">
    <path d="M 317.916733 234.267553 
C 320.578461 234.267553 323.131529 233.210037 325.013654 231.327911 
C 326.89578 229.445786 327.953295 226.892718 327.953295 224.23099 
C 327.953295 221.569263 326.89578 219.016195 325.013654 217.134069 
C 323.131529 215.251944 320.578461 214.194428 317.916733 214.194428 
C 315.255006 214.194428 312.701937 215.251944 310.819812 217.134069 
C 308.937686 219.016195 307.880171 221.569263 307.880171 224.23099 
C 307.880171 226.892718 308.937686 229.445786 310.819812 231.327911 
C 312.701937 233.210037 315.255006 234.267553 317.916733 234.267553 
z
" style="fill: #fec7b8; stroke: #000000; stroke-linejoin: miter"/>
   </g>
   <g id="patch_11">
    <path d="M 275.286436 149.66016 
C 277.948163 149.66016 280.501232 148.602644 282.383357 146.720519 
C 284.265483 144.838393 285.322998 142.285325 285.322998 139.623598 
C 285.322998 136.96187 284.265483 134.408802 282.383357 132.526676 
C 280.501232 130.644551 277.948163 129.587035 275.286436 129.587035 
C 272.624708 129.587035 270.07164 130.644551 268.189515 132.526676 
C 266.307389 134.408802 265.249874 136.96187 265.249874 139.623598 
C 265.249874 142.285325 266.307389 144.838393 268.189515 146.720519 
C 270.07164 148.602644 272.624708 149.66016 275.286436 149.66016 
z
" style="fill: #fec7b8; stroke: #000000; stroke-linejoin: miter"/>
   </g>
   <g id="patch_12">
    <path d="M 142.883267 338.953846 
C 145.544994 338.953846 148.098063 337.896331 149.980188 336.014205 
C 151.862314 334.13208 152.919829 331.579011 152.919829 328.917284 
C 152.919829 326.255557 151.862314 323.702488 149.980188 321.820363 
C 148.098063 319.938237 145.544994 318.880722 142.883267 318.880722 
C 140.221539 318.880722 137.668471 319.938237 135.786346 321.820363 
C 133.90422 323.702488 132.846705 326.255557 132.846705 328.917284 
C 132.846705 331.579011 133.90422 334.13208 135.786346 336.014205 
C 137.668471 337.896331 140.221539 338.953846 142.883267 338.953846 
z
" style="fill: #fec7b8; stroke: #000000; stroke-linejoin: miter"/>
   </g>
   <g id="patch_13">
    <path d="M 298.036318 26.719278 
C 300.698046 26.719278 303.251114 25.661763 305.133239 23.779637 
C 307.015365 21.897512 308.07288 19.344443 308.07288 16.682716 
C 308.07288 14.020989 307.015365 11.46792 305.133239 9.585795 
C 303.251114 7.703669 300.698046 6.646154 298.036318 6.646154 
C 295.374591 6.646154 292.821522 7.703669 290.939397 9.585795 
C 289.057271 11.46792 287.999756 14.020989 287.999756 16.682716 
C 287.999756 19.344443 289.057271 21.897512 290.939397 23.779637 
C 292.821522 25.661763 295.374591 26.719278 298.036318 26.719278 
z
" style="fill: #fec7b8; stroke: #000000; stroke-linejoin: miter"/>
   </g>
   <g id="text_1">
    <!-- 0 -->
    <g transform="translate(217.128064 245.828717) scale(0.1 -0.1)">
     <defs>
      <path id="DejaVuSans-30" d="M 2034 4250 
Q 1547 4250 1301 3770 
Q 1056 3291 1056 2328 
Q 1056 1369 1301 889 
Q 1547 409 2034 409 
Q 2525 409 2770 889 
Q 3016 1369 3016 2328 
Q 3016 3291 2770 3770 
Q 2525 4250 2034 4250 
z
M 2034 4750 
Q 2819 4750 3233 4129 
Q 3647 3509 3647 2328 
Q 3647 1150 3233 529 
Q 2819 -91 2034 -91 
Q 1250 -91 836 529 
Q 422 1150 422 2328 
Q 422 3509 836 4129 
Q 1250 4750 2034 4750 
z
" transform="scale(0.015625)"/>
     </defs>
     <use xlink:href="#DejaVuSans-30"/>
    </g>
   </g>
   <g id="text_2">
    <!-- 1 -->
    <g transform="translate(314.735483 226.990365) scale(0.1 -0.1)">
     <defs>
      <path id="DejaVuSans-31" d="M 794 531 
L 1825 531 
L 1825 4091 
L 703 3866 
L 703 4441 
L 1819 4666 
L 2450 4666 
L 2450 531 
L 3481 531 
L 3481 0 
L 794 0 
L 794 531 
z
" transform="scale(0.015625)"/>
     </defs>
     <use xlink:href="#DejaVuSans-31"/>
    </g>
   </g>
   <g id="text_3">
    <!-- 2 -->
    <g transform="translate(272.105186 142.382973) scale(0.1 -0.1)">
     <defs>
      <path id="DejaVuSans-32" d="M 1228 531 
L 3431 531 
L 3431 0 
L 469 0 
L 469 531 
Q 828 903 1448 1529 
Q 2069 2156 2228 2338 
Q 2531 2678 2651 2914 
Q 2772 3150 2772 3378 
Q 2772 3750 2511 3984 
Q 2250 4219 1831 4219 
Q 1534 4219 1204 4116 
Q 875 4013 500 3803 
L 500 4441 
Q 881 4594 1212 4672 
Q 1544 4750 1819 4750 
Q 2544 4750 2975 4387 
Q 3406 4025 3406 3419 
Q 3406 3131 3298 2873 
Q 3191 2616 2906 2266 
Q 2828 2175 2409 1742 
Q 1991 1309 1228 531 
z
" transform="scale(0.015625)"/>
     </defs>
     <use xlink:href="#DejaVuSans-32"/>
    </g>
   </g>
   <g id="text_4">
    <!-- 3 -->
    <g transform="translate(139.702017 331.676659) scale(0.1 -0.1)">
     <defs>
      <path id="DejaVuSans-33" d="M 2597 2516 
Q 3050 2419 3304 2112 
Q 3559 1806 3559 1356 
Q 3559 666 3084 287 
Q 2609 -91 1734 -91 
Q 1441 -91 1130 -33 
Q 819 25 488 141 
L 488 750 
Q 750 597 1062 519 
Q 1375 441 1716 441 
Q 2309 441 2620 675 
Q 2931 909 2931 1356 
Q 2931 1769 2642 2001 
Q 2353 2234 1838 2234 
L 1294 2234 
L 1294 2753 
L 1863 2753 
Q 2328 2753 2575 2939 
Q 2822 3125 2822 3475 
Q 2822 3834 2567 4026 
Q 2313 4219 1838 4219 
Q 1578 4219 1281 4162 
Q 984 4106 628 3988 
L 628 4550 
Q 988 4650 1302 4700 
Q 1616 4750 1894 4750 
Q 2613 4750 3031 4423 
Q 3450 4097 3450 3541 
Q 3450 3153 3228 2886 
Q 3006 2619 2597 2516 
z
" transform="scale(0.015625)"/>
     </defs>
     <use xlink:href="#DejaVuSans-33"/>
    </g>
   </g>
   <g id="text_5">
    <!-- 4 -->
    <g transform="translate(294.855068 19.442091) scale(0.1 -0.1)">
     <defs>
      <path id="DejaVuSans-34" d="M 2419 4116 
L 825 1625 
L 2419 1625 
L 2419 4116 
z
M 2253 4666 
L 3047 4666 
L 3047 1625 
L 3713 1625 
L 3713 1100 
L 3047 1100 
L 3047 0 
L 2419 0 
L 2419 1100 
L 313 1100 
L 313 1709 
L 2253 4666 
z
" transform="scale(0.015625)"/>
     </defs>
     <use xlink:href="#DejaVuSans-34"/>
    </g>
   </g>
  </g>
 </g>
 <defs>
  <clipPath id="peb8bdea784">
   <rect x="128.944573" y="0" width="202.910854" height="345.6"/>
  </clipPath>
 </defs>
</svg>
