<?xml version="1.0" encoding="utf-8" standalone="no"?>
<!DOCTYPE svg PUBLIC "-//W3C//DTD SVG 1.1//EN"
  "http://www.w3.org/Graphics/SVG/1.1/DTD/svg11.dtd">
<svg xmlns:xlink="http://www.w3.org/1999/xlink" width="460.8pt" height="345.6pt" viewBox="0 0 460.8 345.6" xmlns="http://www.w3.org/2000/svg" version="1.1">
 <metadata>
  <rdf:RDF xmlns:dc="http://purl.org/dc/elements/1.1/" xmlns:cc="http://creativecommons.org/ns#" xmlns:rdf="http://www.w3.org/1999/02/22-rdf-syntax-ns#">
   <cc:Work>
    <dc:type rdf:resource="http://purl.org/dc/dcmitype/StillImage"/>
    <dc:date>2025-08-02T22:40:59.311846</dc:date>
    <dc:format>image/svg+xml</dc:format>
    <dc:creator>
     <cc:Agent>
      <dc:title>Matplotlib v3.10.3, https://matplotlib.org/</dc:title>
     </cc:Agent>
    </dc:creator>
   </cc:Work>
  </rdf:RDF>
 </metadata>
 <defs>
  <style type="text/css">*{stroke-linejoin: round; stroke-linecap: butt}</style>
 </defs>
 <g id="figure_1">
  <g id="patch_1">
   <path d="M 0 345.6 
L 460.8 345.6 
L 460.8 0 
L 0 0 
z
" style="fill: #ffffff"/>
  </g>
  <g id="axes_1">
   <g id="patch_2">
    <path d="M 170.820193 345.6 
L 289.979807 345.6 
L 289.979807 0 
L 170.820193 0 
z
" style="fill: #ffffff"/>
   </g>
   <g id="patch_3">
    <path d="M 263.046047 298.89852 
Q 265.705568 226.253419 228.320351 165.217109 
" clip-path="url(#p3bd7b3ddb9)" style="fill: none; stroke: #7fff00; stroke-linecap: round"/>
    <path d="M 229.279763 176.356208 
L 228.320351 165.217109 
L 237.807278 171.133039 
z
" clip-path="url(#p3bd7b3ddb9)" style="fill: #7fff00; stroke: #7fff00; stroke-linecap: round"/>
   </g>
   <g id="patch_4">
    <path d="M 259.709338 299.773614 
Q 221.740153 237.783899 224.35877 166.256084 
" clip-path="url(#p3bd7b3ddb9)" style="fill: none; stroke: #7fff00; stroke-linecap: round"/>
    <path d="M 218.996265 176.066463 
L 224.35877 166.256084 
L 228.98957 176.432315 
z
" clip-path="url(#p3bd7b3ddb9)" style="fill: #7fff00; stroke: #7fff00; stroke-linecap: round"/>
   </g>
   <g id="patch_5">
    <path d="M 264.514945 299.137926 
Q 287.688276 220.488179 229.700368 164.113563 
" clip-path="url(#p3bd7b3ddb9)" style="fill: none; stroke: #00ff3f; stroke-linecap: round"/>
    <path d="M 233.38516 174.669239 
L 229.700368 164.113563 
L 240.355784 167.499134 
z
" clip-path="url(#p3bd7b3ddb9)" style="fill: #00ff3f; stroke: #00ff3f; stroke-linecap: round"/>
   </g>
   <g id="patch_6">
    <path d="M 258.546995 300.703095 
Q 199.757445 243.549139 222.614789 165.971844 
" clip-path="url(#p3bd7b3ddb9)" style="fill: none; stroke: #00ffff; stroke-linecap: round"/>
    <path d="M 214.992369 174.151007 
L 222.614789 165.971844 
L 224.584668 176.977278 
z
" clip-path="url(#p3bd7b3ddb9)" style="fill: #00ffff; stroke: #00ffff; stroke-linecap: round"/>
   </g>
   <g id="matplotlib.axis_1"/>
   <g id="matplotlib.axis_2"/>
   <g id="patch_7">
    <path d="M 222.745551 152.336351 
Q 204.546443 85.894474 186.051974 18.374283 
" clip-path="url(#p3bd7b3ddb9)" style="fill: none; stroke: #7f00ff; stroke-linecap: round"/>
    <path d="M 224.926128 141.370719 
L 222.745551 152.336351 
L 215.281391 144.012511 
z
" clip-path="url(#p3bd7b3ddb9)" style="fill: #7f00ff; stroke: #7f00ff; stroke-linecap: round"/>
   </g>
   <g id="patch_8">
    <path d="M 261.313111 299.089822 
Q 243.72286 232.018659 226.416236 166.028957 
" clip-path="url(#p3bd7b3ddb9)" style="fill: none; stroke: #003fff; stroke-linecap: round"/>
    <path d="M 224.116631 176.970246 
L 226.416236 166.028957 
L 233.789505 174.433414 
z
" clip-path="url(#p3bd7b3ddb9)" style="fill: #003fff; stroke: #003fff; stroke-linecap: round"/>
   </g>
   <g id="text_1">
    <g id="patch_9">
     <path d="M 255.65341 336.429839 
L 270.001848 336.429839 
L 270.001848 318.751714 
L 255.65341 318.751714 
z
" style="fill: #ffffff; stroke: #ffffff; stroke-linejoin: miter"/>
    </g>
    <!-- b -->
    <g style="fill: #0000ff" transform="translate(259.65341 330.350151) scale(0.1 -0.1)">
     <defs>
      <path id="DejaVuSans-62" d="M 3116 1747 
Q 3116 2381 2855 2742 
Q 2594 3103 2138 3103 
Q 1681 3103 1420 2742 
Q 1159 2381 1159 1747 
Q 1159 1113 1420 752 
Q 1681 391 2138 391 
Q 2594 391 2855 752 
Q 3116 1113 3116 1747 
z
M 1159 2969 
Q 1341 3281 1617 3432 
Q 1894 3584 2278 3584 
Q 2916 3584 3314 3078 
Q 3713 2572 3713 1747 
Q 3713 922 3314 415 
Q 2916 -91 2278 -91 
Q 1894 -91 1617 61 
Q 1341 213 1159 525 
L 1159 0 
L 581 0 
L 581 4863 
L 1159 4863 
L 1159 2969 
z
" transform="scale(0.015625)"/>
     </defs>
     <use xlink:href="#DejaVuSans-62"/>
    </g>
   </g>
   <g id="text_2">
    <g id="patch_10">
     <path d="M 255.763566 347.792909 
L 269.891691 347.792909 
L 269.891691 330.114784 
L 255.763566 330.114784 
z
" style="fill: #ffffff; stroke: #ffffff; stroke-linejoin: miter"/>
    </g>
    <!-- a -->
    <g style="fill: #0000ff" transform="translate(259.763566 341.713221) scale(0.1 -0.1)">
     <defs>
      <path id="DejaVuSans-61" d="M 2194 1759 
Q 1497 1759 1228 1600 
Q 959 1441 959 1056 
Q 959 750 1161 570 
Q 1363 391 1709 391 
Q 2188 391 2477 730 
Q 2766 1069 2766 1631 
L 2766 1759 
L 2194 1759 
z
M 3341 1997 
L 3341 0 
L 2766 0 
L 2766 531 
Q 2569 213 2275 61 
Q 1981 -91 1556 -91 
Q 1019 -91 701 211 
Q 384 513 384 1019 
Q 384 1609 779 1909 
Q 1175 2209 1959 2209 
L 2766 2209 
L 2766 2266 
Q 2766 2663 2505 2880 
Q 2244 3097 1772 3097 
Q 1472 3097 1187 3025 
Q 903 2953 641 2809 
L 641 3341 
Q 956 3463 1253 3523 
Q 1550 3584 1831 3584 
Q 2591 3584 2966 3190 
Q 3341 2797 3341 1997 
z
" transform="scale(0.015625)"/>
     </defs>
     <use xlink:href="#DejaVuSans-61"/>
    </g>
   </g>
   <g id="text_3">
    <g id="patch_11">
     <path d="M 248.954058 237.975102 
L 260.47437 237.975102 
L 260.47437 220.296977 
L 248.954058 220.296977 
z
" style="fill: #ffffff; stroke: #ffffff; stroke-linejoin: miter"/>
    </g>
    <!-- f -->
    <g style="fill: #0000ff" transform="translate(252.954058 231.895414) scale(0.1 -0.1)">
     <defs>
      <path id="DejaVuSans-66" d="M 2375 4863 
L 2375 4384 
L 1825 4384 
Q 1516 4384 1395 4259 
Q 1275 4134 1275 3809 
L 1275 3500 
L 2222 3500 
L 2222 3053 
L 1275 3053 
L 1275 0 
L 697 0 
L 697 3053 
L 147 3053 
L 147 3500 
L 697 3500 
L 697 3744 
Q 697 4328 969 4595 
Q 1241 4863 1831 4863 
L 2375 4863 
z
" transform="scale(0.015625)"/>
     </defs>
     <use xlink:href="#DejaVuSans-66"/>
    </g>
   </g>
   <g id="text_4">
    <g id="patch_12">
     <path d="M 226.97135 243.740342 
L 238.491663 243.740342 
L 238.491663 226.062217 
L 226.97135 226.062217 
z
" style="fill: #ffffff; stroke: #ffffff; stroke-linejoin: miter"/>
    </g>
    <!-- f -->
    <g style="fill: #0000ff" transform="translate(230.97135 237.660654) scale(0.1 -0.1)">
     <use xlink:href="#DejaVuSans-66"/>
    </g>
   </g>
   <g id="text_5">
    <g id="patch_13">
     <path d="M 258.629006 235.092482 
L 272.782131 235.092482 
L 272.782131 217.414357 
L 258.629006 217.414357 
z
" style="fill: #ffffff; stroke: #ffffff; stroke-linejoin: miter"/>
    </g>
    <!-- e -->
    <g style="fill: #0000ff" transform="translate(262.629006 229.012794) scale(0.1 -0.1)">
     <defs>
      <path id="DejaVuSans-65" d="M 3597 1894 
L 3597 1613 
L 953 1613 
Q 991 1019 1311 708 
Q 1631 397 2203 397 
Q 2534 397 2845 478 
Q 3156 559 3463 722 
L 3463 178 
Q 3153 47 2828 -22 
Q 2503 -91 2169 -91 
Q 1331 -91 842 396 
Q 353 884 353 1716 
Q 353 2575 817 3079 
Q 1281 3584 2069 3584 
Q 2775 3584 3186 3129 
Q 3597 2675 3597 1894 
z
M 3022 2063 
Q 3016 2534 2758 2815 
Q 2500 3097 2075 3097 
Q 1594 3097 1305 2825 
Q 1016 2553 972 2059 
L 3022 2063 
z
" transform="scale(0.015625)"/>
     </defs>
     <use xlink:href="#DejaVuSans-65"/>
    </g>
   </g>
   <g id="text_6">
    <g id="patch_14">
     <path d="M 214.565934 246.622962 
L 228.914371 246.622962 
L 228.914371 228.944837 
L 214.565934 228.944837 
z
" style="fill: #ffffff; stroke: #ffffff; stroke-linejoin: miter"/>
    </g>
    <!-- d -->
    <g style="fill: #0000ff" transform="translate(218.565934 240.543274) scale(0.1 -0.1)">
     <defs>
      <path id="DejaVuSans-64" d="M 2906 2969 
L 2906 4863 
L 3481 4863 
L 3481 0 
L 2906 0 
L 2906 525 
Q 2725 213 2448 61 
Q 2172 -91 1784 -91 
Q 1150 -91 751 415 
Q 353 922 353 1747 
Q 353 2572 751 3078 
Q 1150 3584 1784 3584 
Q 2172 3584 2448 3432 
Q 2725 3281 2906 2969 
z
M 947 1747 
Q 947 1113 1208 752 
Q 1469 391 1925 391 
Q 2381 391 2643 752 
Q 2906 1113 2906 1747 
Q 2906 2381 2643 2742 
Q 2381 3103 1925 3103 
Q 1469 3103 1208 2742 
Q 947 2381 947 1747 
z
" transform="scale(0.015625)"/>
     </defs>
     <use xlink:href="#DejaVuSans-64"/>
    </g>
   </g>
   <g id="text_7">
    <g id="patch_15">
     <path d="M 177.306044 44.181469 
L 191.643544 44.181469 
L 191.643544 26.503344 
L 177.306044 26.503344 
z
" style="fill: #ffffff; stroke: #ffffff; stroke-linejoin: miter"/>
    </g>
    <!-- h -->
    <g style="fill: #0000ff" transform="translate(181.306044 38.101782) scale(0.1 -0.1)">
     <defs>
      <path id="DejaVuSans-68" d="M 3513 2113 
L 3513 0 
L 2938 0 
L 2938 2094 
Q 2938 2591 2744 2837 
Q 2550 3084 2163 3084 
Q 1697 3084 1428 2787 
Q 1159 2491 1159 1978 
L 1159 0 
L 581 0 
L 581 4863 
L 1159 4863 
L 1159 2956 
Q 1366 3272 1645 3428 
Q 1925 3584 2291 3584 
Q 2894 3584 3203 3211 
Q 3513 2838 3513 2113 
z
" transform="scale(0.015625)"/>
     </defs>
     <use xlink:href="#DejaVuSans-68"/>
    </g>
   </g>
   <g id="text_8">
    <g id="patch_16">
     <path d="M 197.372224 94.733537 
L 211.720662 94.733537 
L 211.720662 77.055412 
L 197.372224 77.055412 
z
" style="fill: #ffffff; stroke: #ffffff; stroke-linejoin: miter"/>
    </g>
    <!-- g -->
    <g style="fill: #0000ff" transform="translate(201.372224 88.653849) scale(0.1 -0.1)">
     <defs>
      <path id="DejaVuSans-67" d="M 2906 1791 
Q 2906 2416 2648 2759 
Q 2391 3103 1925 3103 
Q 1463 3103 1205 2759 
Q 947 2416 947 1791 
Q 947 1169 1205 825 
Q 1463 481 1925 481 
Q 2391 481 2648 825 
Q 2906 1169 2906 1791 
z
M 3481 434 
Q 3481 -459 3084 -895 
Q 2688 -1331 1869 -1331 
Q 1566 -1331 1297 -1286 
Q 1028 -1241 775 -1147 
L 775 -588 
Q 1028 -725 1275 -790 
Q 1522 -856 1778 -856 
Q 2344 -856 2625 -561 
Q 2906 -266 2906 331 
L 2906 616 
Q 2728 306 2450 153 
Q 2172 0 1784 0 
Q 1141 0 747 490 
Q 353 981 353 1791 
Q 353 2603 747 3093 
Q 1141 3584 1784 3584 
Q 2172 3584 2450 3431 
Q 2728 3278 2906 2969 
L 2906 3500 
L 3481 3500 
L 3481 434 
z
" transform="scale(0.015625)"/>
     </defs>
     <use xlink:href="#DejaVuSans-67"/>
    </g>
   </g>
   <g id="text_9">
    <g id="patch_17">
     <path d="M 236.973642 240.857722 
L 250.472079 240.857722 
L 250.472079 223.179597 
L 236.973642 223.179597 
z
" style="fill: #ffffff; stroke: #ffffff; stroke-linejoin: miter"/>
    </g>
    <!-- c -->
    <g style="fill: #0000ff" transform="translate(240.973642 234.778034) scale(0.1 -0.1)">
     <defs>
      <path id="DejaVuSans-63" d="M 3122 3366 
L 3122 2828 
Q 2878 2963 2633 3030 
Q 2388 3097 2138 3097 
Q 1578 3097 1268 2742 
Q 959 2388 959 1747 
Q 959 1106 1268 751 
Q 1578 397 2138 397 
Q 2388 397 2633 464 
Q 2878 531 3122 666 
L 3122 134 
Q 2881 22 2623 -34 
Q 2366 -91 2075 -91 
Q 1284 -91 818 406 
Q 353 903 353 1747 
Q 353 2603 823 3093 
Q 1294 3584 2113 3584 
Q 2378 3584 2631 3529 
Q 2884 3475 3122 3366 
z
" transform="scale(0.015625)"/>
     </defs>
     <use xlink:href="#DejaVuSans-63"/>
    </g>
   </g>
   <g id="patch_18">
    <path d="M 262.827629 310.834749 
C 264.410921 310.834749 265.929579 310.205701 267.049136 309.086144 
C 268.168693 307.966587 268.797742 306.447929 268.797742 304.864636 
C 268.797742 303.281344 268.168693 301.762686 267.049136 300.643129 
C 265.929579 299.523572 264.410921 298.894523 262.827629 298.894523 
C 261.244336 298.894523 259.725678 299.523572 258.606121 300.643129 
C 257.486565 301.762686 256.857516 303.281344 256.857516 304.864636 
C 256.857516 306.447929 257.486565 307.966587 258.606121 309.086144 
C 259.725678 310.205701 261.244336 310.834749 262.827629 310.834749 
z
" style="fill: #fec7b8; stroke: #000000; stroke-linejoin: miter"/>
   </g>
   <g id="patch_19">
    <path d="M 224.618092 165.142795 
C 226.201384 165.142795 227.720042 164.513746 228.839599 163.394189 
C 229.959156 162.274632 230.588205 160.755974 230.588205 159.172682 
C 230.588205 157.589389 229.959156 156.070731 228.839599 154.951174 
C 227.720042 153.831618 226.201384 153.202569 224.618092 153.202569 
C 223.034799 153.202569 221.516141 153.831618 220.396585 154.951174 
C 219.277028 156.070731 218.647979 157.589389 218.647979 159.172682 
C 218.647979 160.755974 219.277028 162.274632 220.396585 163.394189 
C 221.516141 164.513746 223.034799 165.142795 224.618092 165.142795 
z
" style="fill: #fec7b8; stroke: #000000; stroke-linejoin: miter"/>
   </g>
   <g id="patch_20">
    <path d="M 184.474794 18.58638 
C 186.058087 18.58638 187.576745 17.957331 188.696301 16.837774 
C 189.815858 15.718217 190.444907 14.199559 190.444907 12.616267 
C 190.444907 11.032974 189.815858 9.514316 188.696301 8.394759 
C 187.576745 7.275203 186.058087 6.646154 184.474794 6.646154 
C 182.891502 6.646154 181.372844 7.275203 180.253287 8.394759 
C 179.13373 9.514316 178.504681 11.032974 178.504681 12.616267 
C 178.504681 14.199559 179.13373 15.718217 180.253287 16.837774 
C 181.372844 17.957331 182.891502 18.58638 184.474794 18.58638 
z
" style="fill: #fec7b8; stroke: #000000; stroke-linejoin: miter"/>
   </g>
   <g id="patch_21">
    <path d="M 262.827629 327.590776 
C 265.84115 327.590776 268.731651 326.393492 270.862533 324.26261 
C 272.993414 322.131729 274.190699 319.241228 274.190699 316.227706 
C 274.190699 313.214185 272.993414 310.323684 270.862533 308.192803 
C 268.731651 306.061921 265.84115 304.864636 262.827629 304.864636 
C 259.814107 304.864636 256.923606 306.061921 254.792725 308.192803 
C 252.661844 310.323684 251.464559 313.214185 251.464559 316.227706 
C 251.464559 319.241228 252.661844 322.131729 254.792725 324.26261 
C 256.923606 326.393492 259.814107 327.590776 262.827629 327.590776 
L 262.827629 327.590776 
z
" clip-path="url(#p3bd7b3ddb9)" style="fill: none; stroke: #ff0000; stroke-linejoin: miter"/>
   </g>
   <g id="patch_22">
    <path d="M 262.827629 338.953846 
C 267.347911 338.953846 271.683662 337.157919 274.879984 333.961597 
C 278.076307 330.765275 279.872234 326.429523 279.872234 321.909241 
C 279.872234 317.388959 278.076307 313.053208 274.879984 309.856886 
C 271.683662 306.660564 267.347911 304.864636 262.827629 304.864636 
C 258.307347 304.864636 253.971595 306.660564 250.775273 309.856886 
C 247.578951 313.053208 245.783024 317.388959 245.783024 321.909241 
C 245.783024 326.429523 247.578951 330.765275 250.775273 333.961597 
C 253.971595 337.157919 258.307347 338.953846 262.827629 338.953846 
L 262.827629 338.953846 
z
" clip-path="url(#p3bd7b3ddb9)" style="fill: none; stroke: #ffbf00; stroke-linejoin: miter"/>
   </g>
   <g id="patch_23">
    <path d="M 184.474794 35.342407 
C 187.488315 35.342407 190.378816 34.145122 192.509698 32.014241 
C 194.640579 29.883359 195.837864 26.992858 195.837864 23.979337 
C 195.837864 20.965815 194.640579 18.075314 192.509698 15.944433 
C 190.378816 13.813552 187.488315 12.616267 184.474794 12.616267 
C 181.461273 12.616267 178.570772 13.813552 176.43989 15.944433 
C 174.309009 18.075314 173.111724 20.965815 173.111724 23.979337 
C 173.111724 26.992858 174.309009 29.883359 176.43989 32.014241 
C 178.570772 34.145122 181.461273 35.342407 184.474794 35.342407 
L 184.474794 35.342407 
z
" clip-path="url(#p3bd7b3ddb9)" style="fill: none; stroke: #ff00bf; stroke-linejoin: miter"/>
   </g>
   <g id="text_10">
    <!-- 0 -->
    <g transform="translate(259.646379 307.624011) scale(0.1 -0.1)">
     <defs>
      <path id="DejaVuSans-30" d="M 2034 4250 
Q 1547 4250 1301 3770 
Q 1056 3291 1056 2328 
Q 1056 1369 1301 889 
Q 1547 409 2034 409 
Q 2525 409 2770 889 
Q 3016 1369 3016 2328 
Q 3016 3291 2770 3770 
Q 2525 4250 2034 4250 
z
M 2034 4750 
Q 2819 4750 3233 4129 
Q 3647 3509 3647 2328 
Q 3647 1150 3233 529 
Q 2819 -91 2034 -91 
Q 1250 -91 836 529 
Q 422 1150 422 2328 
Q 422 3509 836 4129 
Q 1250 4750 2034 4750 
z
" transform="scale(0.015625)"/>
     </defs>
     <use xlink:href="#DejaVuSans-30"/>
    </g>
   </g>
   <g id="text_11">
    <!-- 1 -->
    <g transform="translate(221.436842 161.932057) scale(0.1 -0.1)">
     <defs>
      <path id="DejaVuSans-31" d="M 794 531 
L 1825 531 
L 1825 4091 
L 703 3866 
L 703 4441 
L 1819 4666 
L 2450 4666 
L 2450 531 
L 3481 531 
L 3481 0 
L 794 0 
L 794 531 
z
" transform="scale(0.015625)"/>
     </defs>
     <use xlink:href="#DejaVuSans-31"/>
    </g>
   </g>
   <g id="text_12">
    <!-- 2 -->
    <g transform="translate(181.293544 15.375642) scale(0.1 -0.1)">
     <defs>
      <path id="DejaVuSans-32" d="M 1228 531 
L 3431 531 
L 3431 0 
L 469 0 
L 469 531 
Q 828 903 1448 1529 
Q 2069 2156 2228 2338 
Q 2531 2678 2651 2914 
Q 2772 3150 2772 3378 
Q 2772 3750 2511 3984 
Q 2250 4219 1831 4219 
Q 1534 4219 1204 4116 
Q 875 4013 500 3803 
L 500 4441 
Q 881 4594 1212 4672 
Q 1544 4750 1819 4750 
Q 2544 4750 2975 4387 
Q 3406 4025 3406 3419 
Q 3406 3131 3298 2873 
Q 3191 2616 2906 2266 
Q 2828 2175 2409 1742 
Q 1991 1309 1228 531 
z
" transform="scale(0.015625)"/>
     </defs>
     <use xlink:href="#DejaVuSans-32"/>
    </g>
   </g>
  </g>
 </g>
 <defs>
  <clipPath id="p3bd7b3ddb9">
   <rect x="170.820193" y="0" width="119.159614" height="345.6"/>
  </clipPath>
 </defs>
</svg>
