<?xml version="1.0" encoding="utf-8" standalone="no"?>
<!DOCTYPE svg PUBLIC "-//W3C//DTD SVG 1.1//EN"
  "http://www.w3.org/Graphics/SVG/1.1/DTD/svg11.dtd">
<svg xmlns:xlink="http://www.w3.org/1999/xlink" width="460.8pt" height="345.6pt" viewBox="0 0 460.8 345.6" xmlns="http://www.w3.org/2000/svg" version="1.1">
 <metadata>
  <rdf:RDF xmlns:dc="http://purl.org/dc/elements/1.1/" xmlns:cc="http://creativecommons.org/ns#" xmlns:rdf="http://www.w3.org/1999/02/22-rdf-syntax-ns#">
   <cc:Work>
    <dc:type rdf:resource="http://purl.org/dc/dcmitype/StillImage"/>
    <dc:date>2025-08-07T23:29:25.569356</dc:date>
    <dc:format>image/svg+xml</dc:format>
    <dc:creator>
     <cc:Agent>
      <dc:title>Matplotlib v3.10.3, https://matplotlib.org/</dc:title>
     </cc:Agent>
    </dc:creator>
   </cc:Work>
  </rdf:RDF>
 </metadata>
 <defs>
  <style type="text/css">*{stroke-linejoin: round; stroke-linecap: butt}</style>
 </defs>
 <g id="figure_1">
  <g id="patch_1">
   <path d="M 0 345.6 
L 460.8 345.6 
L 460.8 0 
L 0 0 
z
" style="fill: #ffffff"/>
  </g>
  <g id="axes_1">
   <g id="patch_2">
    <path d="M 141.248489 345.6 
L 319.551511 345.6 
L 319.551511 0 
L 141.248489 0 
z
" style="fill: #ffffff"/>
   </g>
   <g id="patch_3">
    <path d="M 167.877546 18.19608 
Q 222.339348 80.023649 234.474116 160.388414 
" clip-path="url(#p7d604346cd)" style="fill: none; stroke: #7fff00; stroke-linecap: round"/>
    <path d="M 237.925036 149.753981 
L 234.474116 160.388414 
L 228.037122 151.247018 
z
" clip-path="url(#p7d604346cd)" style="fill: #7fff00; stroke: #7fff00; stroke-linecap: round"/>
   </g>
   <g id="patch_4">
    <path d="M 164.501165 19.76916 
Q 176.80286 101.239428 230.525648 162.228033 
" clip-path="url(#p7d604346cd)" style="fill: none; stroke: #7fff00; stroke-linecap: round"/>
    <path d="M 227.667663 151.419152 
L 230.525648 162.228033 
L 220.163752 158.029092 
z
" clip-path="url(#p7d604346cd)" style="fill: #7fff00; stroke: #7fff00; stroke-linecap: round"/>
   </g>
   <g id="patch_5">
    <path d="M 168.951022 16.986345 
Q 245.107592 69.415759 236.364813 160.337351 
" clip-path="url(#p7d604346cd)" style="fill: none; stroke: #00ff3f; stroke-linecap: round"/>
    <path d="M 242.299015 150.861843 
L 236.364813 160.337351 
L 232.344928 149.904685 
z
" clip-path="url(#p7d604346cd)" style="fill: #00ff3f; stroke: #00ff3f; stroke-linecap: round"/>
   </g>
   <g id="patch_6">
    <path d="M 162.884408 19.812825 
Q 154.034615 111.847317 229.270284 163.642743 
" clip-path="url(#p7d604346cd)" style="fill: none; stroke: #00ffff; stroke-linecap: round"/>
    <path d="M 223.868769 153.853788 
L 229.270284 163.642743 
L 218.198211 162.090582 
z
" clip-path="url(#p7d604346cd)" style="fill: #00ffff; stroke: #00ffff; stroke-linecap: round"/>
   </g>
   <g id="matplotlib.axis_1"/>
   <g id="matplotlib.axis_2"/>
   <g id="patch_7">
    <path d="M 238.88506 175.013051 
Q 269.594882 240.92708 300.776872 307.854546 
" clip-path="url(#p7d604346cd)" style="fill: none; stroke: #7f00ff; stroke-linecap: round"/>
    <path d="M 238.576027 186.18912 
L 238.88506 175.013051 
L 247.640495 181.965919 
z
" clip-path="url(#p7d604346cd)" style="fill: #7f00ff; stroke: #7f00ff; stroke-linecap: round"/>
   </g>
   <g id="patch_8">
    <path d="M 166.30266 19.225811 
Q 199.571104 90.631538 232.36738 161.023827 
" clip-path="url(#p7d604346cd)" style="fill: none; stroke: #003fff; stroke-linecap: round"/>
    <path d="M 232.676413 149.847759 
L 232.36738 161.023827 
L 223.611945 154.07096 
z
" clip-path="url(#p7d604346cd)" style="fill: #003fff; stroke: #003fff; stroke-linecap: round"/>
   </g>
   <g id="text_1">
    <g id="patch_9">
     <path d="M 156.341769 47.201826 
L 170.690206 47.201826 
L 170.690206 29.523701 
L 156.341769 29.523701 
z
" style="fill: #ffffff; stroke: #ffffff; stroke-linejoin: miter"/>
    </g>
    <!-- b -->
    <g style="fill: #0000ff" transform="translate(160.341769 41.122138) scale(0.1 -0.1)">
     <defs>
      <path id="DejaVuSans-62" d="M 3116 1747 
Q 3116 2381 2855 2742 
Q 2594 3103 2138 3103 
Q 1681 3103 1420 2742 
Q 1159 2381 1159 1747 
Q 1159 1113 1420 752 
Q 1681 391 2138 391 
Q 2594 391 2855 752 
Q 3116 1113 3116 1747 
z
M 1159 2969 
Q 1341 3281 1617 3432 
Q 1894 3584 2278 3584 
Q 2916 3584 3314 3078 
Q 3713 2572 3713 1747 
Q 3713 922 3314 415 
Q 2916 -91 2278 -91 
Q 1894 -91 1617 61 
Q 1341 213 1159 525 
L 1159 0 
L 581 0 
L 581 4863 
L 1159 4863 
L 1159 2969 
z
" transform="scale(0.015625)"/>
     </defs>
     <use xlink:href="#DejaVuSans-62"/>
    </g>
   </g>
   <g id="text_2">
    <g id="patch_10">
     <path d="M 156.451925 59.760889 
L 170.58005 59.760889 
L 170.58005 42.082764 
L 156.451925 42.082764 
z
" style="fill: #ffffff; stroke: #ffffff; stroke-linejoin: miter"/>
    </g>
    <!-- a -->
    <g style="fill: #0000ff" transform="translate(160.451925 53.681201) scale(0.1 -0.1)">
     <defs>
      <path id="DejaVuSans-61" d="M 2194 1759 
Q 1497 1759 1228 1600 
Q 959 1441 959 1056 
Q 959 750 1161 570 
Q 1363 391 1709 391 
Q 2188 391 2477 730 
Q 2766 1069 2766 1631 
L 2766 1759 
L 2194 1759 
z
M 3341 1997 
L 3341 0 
L 2766 0 
L 2766 531 
Q 2569 213 2275 61 
Q 1981 -91 1556 -91 
Q 1019 -91 701 211 
Q 384 513 384 1019 
Q 384 1609 779 1909 
Q 1175 2209 1959 2209 
L 2766 2209 
L 2766 2266 
Q 2766 2663 2505 2880 
Q 2244 3097 1772 3097 
Q 1472 3097 1187 3025 
Q 903 2953 641 2809 
L 641 3341 
Q 956 3463 1253 3523 
Q 1550 3584 1831 3584 
Q 2591 3584 2966 3190 
Q 3341 2797 3341 1997 
z
" transform="scale(0.015625)"/>
     </defs>
     <use xlink:href="#DejaVuSans-61"/>
    </g>
   </g>
   <g id="text_3">
    <g id="patch_11">
     <path d="M 205.19507 94.166656 
L 216.715382 94.166656 
L 216.715382 76.488531 
L 205.19507 76.488531 
z
" style="fill: #ffffff; stroke: #ffffff; stroke-linejoin: miter"/>
    </g>
    <!-- f -->
    <g style="fill: #0000ff" transform="translate(209.19507 88.086968) scale(0.1 -0.1)">
     <defs>
      <path id="DejaVuSans-66" d="M 2375 4863 
L 2375 4384 
L 1825 4384 
Q 1516 4384 1395 4259 
Q 1275 4134 1275 3809 
L 1275 3500 
L 2222 3500 
L 2222 3053 
L 1275 3053 
L 1275 0 
L 697 0 
L 697 3053 
L 147 3053 
L 147 3500 
L 697 3500 
L 697 3744 
Q 697 4328 969 4595 
Q 1241 4863 1831 4863 
L 2375 4863 
z
" transform="scale(0.015625)"/>
     </defs>
     <use xlink:href="#DejaVuSans-66"/>
    </g>
   </g>
   <g id="text_4">
    <g id="patch_12">
     <path d="M 182.426825 104.774545 
L 193.947138 104.774545 
L 193.947138 87.09642 
L 182.426825 87.09642 
z
" style="fill: #ffffff; stroke: #ffffff; stroke-linejoin: miter"/>
    </g>
    <!-- f -->
    <g style="fill: #0000ff" transform="translate(186.426825 98.694858) scale(0.1 -0.1)">
     <use xlink:href="#DejaVuSans-66"/>
    </g>
   </g>
   <g id="text_5">
    <g id="patch_13">
     <path d="M 215.262786 88.862711 
L 229.415911 88.862711 
L 229.415911 71.184586 
L 215.262786 71.184586 
z
" style="fill: #ffffff; stroke: #ffffff; stroke-linejoin: miter"/>
    </g>
    <!-- e -->
    <g style="fill: #0000ff" transform="translate(219.262786 82.783024) scale(0.1 -0.1)">
     <defs>
      <path id="DejaVuSans-65" d="M 3597 1894 
L 3597 1613 
L 953 1613 
Q 991 1019 1311 708 
Q 1631 397 2203 397 
Q 2534 397 2845 478 
Q 3156 559 3463 722 
L 3463 178 
Q 3153 47 2828 -22 
Q 2503 -91 2169 -91 
Q 1331 -91 842 396 
Q 353 884 353 1716 
Q 353 2575 817 3079 
Q 1281 3584 2069 3584 
Q 2775 3584 3186 3129 
Q 3597 2675 3597 1894 
z
M 3022 2063 
Q 3016 2534 2758 2815 
Q 2500 3097 2075 3097 
Q 1594 3097 1305 2825 
Q 1016 2553 972 2059 
L 3022 2063 
z
" transform="scale(0.015625)"/>
     </defs>
     <use xlink:href="#DejaVuSans-65"/>
    </g>
   </g>
   <g id="text_6">
    <g id="patch_14">
     <path d="M 169.628641 110.07849 
L 183.977078 110.07849 
L 183.977078 92.400365 
L 169.628641 92.400365 
z
" style="fill: #ffffff; stroke: #ffffff; stroke-linejoin: miter"/>
    </g>
    <!-- d -->
    <g style="fill: #0000ff" transform="translate(173.628641 103.998803) scale(0.1 -0.1)">
     <defs>
      <path id="DejaVuSans-64" d="M 2906 2969 
L 2906 4863 
L 3481 4863 
L 3481 0 
L 2906 0 
L 2906 525 
Q 2725 213 2448 61 
Q 2172 -91 1784 -91 
Q 1150 -91 751 415 
Q 353 922 353 1747 
Q 353 2572 751 3078 
Q 1150 3584 1784 3584 
Q 2172 3584 2448 3432 
Q 2725 3281 2906 2969 
z
M 947 1747 
Q 947 1113 1208 752 
Q 1469 391 1925 391 
Q 2381 391 2643 752 
Q 2906 1113 2906 1747 
Q 2906 2381 2643 2742 
Q 2381 3103 1925 3103 
Q 1469 3103 1208 2742 
Q 947 2381 947 1747 
z
" transform="scale(0.015625)"/>
     </defs>
     <use xlink:href="#DejaVuSans-64"/>
    </g>
   </g>
   <g id="text_7">
    <g id="patch_15">
     <path d="M 296.394794 347.792909 
L 310.732294 347.792909 
L 310.732294 330.114784 
L 296.394794 330.114784 
z
" style="fill: #ffffff; stroke: #ffffff; stroke-linejoin: miter"/>
    </g>
    <!-- h -->
    <g style="fill: #0000ff" transform="translate(300.394794 341.713221) scale(0.1 -0.1)">
     <defs>
      <path id="DejaVuSans-68" d="M 3513 2113 
L 3513 0 
L 2938 0 
L 2938 2094 
Q 2938 2591 2744 2837 
Q 2550 3084 2163 3084 
Q 1697 3084 1428 2787 
Q 1159 2491 1159 1978 
L 1159 0 
L 581 0 
L 581 4863 
L 1159 4863 
L 1159 2956 
Q 1366 3272 1645 3428 
Q 1925 3584 2291 3584 
Q 2894 3584 3203 3211 
Q 3513 2838 3513 2113 
z
" transform="scale(0.015625)"/>
     </defs>
     <use xlink:href="#DejaVuSans-68"/>
    </g>
   </g>
   <g id="text_8">
    <g id="patch_16">
     <path d="M 262.420663 249.766142 
L 276.769101 249.766142 
L 276.769101 232.088017 
L 262.420663 232.088017 
z
" style="fill: #ffffff; stroke: #ffffff; stroke-linejoin: miter"/>
    </g>
    <!-- g -->
    <g style="fill: #0000ff" transform="translate(266.420663 243.686455) scale(0.1 -0.1)">
     <defs>
      <path id="DejaVuSans-67" d="M 2906 1791 
Q 2906 2416 2648 2759 
Q 2391 3103 1925 3103 
Q 1463 3103 1205 2759 
Q 947 2416 947 1791 
Q 947 1169 1205 825 
Q 1463 481 1925 481 
Q 2391 481 2648 825 
Q 2906 1169 2906 1791 
z
M 3481 434 
Q 3481 -459 3084 -895 
Q 2688 -1331 1869 -1331 
Q 1566 -1331 1297 -1286 
Q 1028 -1241 775 -1147 
L 775 -588 
Q 1028 -725 1275 -790 
Q 1522 -856 1778 -856 
Q 2344 -856 2625 -561 
Q 2906 -266 2906 331 
L 2906 616 
Q 2728 306 2450 153 
Q 2172 0 1784 0 
Q 1141 0 747 490 
Q 353 981 353 1791 
Q 353 2603 747 3093 
Q 1141 3584 1784 3584 
Q 2172 3584 2450 3431 
Q 2728 3278 2906 2969 
L 2906 3500 
L 3481 3500 
L 3481 434 
z
" transform="scale(0.015625)"/>
     </defs>
     <use xlink:href="#DejaVuSans-67"/>
    </g>
   </g>
   <g id="text_9">
    <g id="patch_17">
     <path d="M 192.821885 99.470601 
L 206.320323 99.470601 
L 206.320323 81.792476 
L 192.821885 81.792476 
z
" style="fill: #ffffff; stroke: #ffffff; stroke-linejoin: miter"/>
    </g>
    <!-- c -->
    <g style="fill: #0000ff" transform="translate(196.821885 93.390913) scale(0.1 -0.1)">
     <defs>
      <path id="DejaVuSans-63" d="M 3122 3366 
L 3122 2828 
Q 2878 2963 2633 3030 
Q 2388 3097 2138 3097 
Q 1578 3097 1268 2742 
Q 959 2388 959 1747 
Q 959 1106 1268 751 
Q 1578 397 2138 397 
Q 2388 397 2633 464 
Q 2878 531 3122 666 
L 3122 134 
Q 2881 22 2623 -34 
Q 2366 -91 2075 -91 
Q 1284 -91 818 406 
Q 353 903 353 1747 
Q 353 2603 823 3093 
Q 1294 3584 2113 3584 
Q 2378 3584 2631 3529 
Q 2884 3475 3122 3366 
z
" transform="scale(0.015625)"/>
     </defs>
     <use xlink:href="#DejaVuSans-63"/>
    </g>
   </g>
   <g id="patch_18">
    <path d="M 163.515988 19.84312 
C 165.265926 19.84312 166.944427 19.147862 168.18182 17.910469 
C 169.419213 16.673076 170.114471 14.994575 170.114471 13.244637 
C 170.114471 11.494699 169.419213 9.816198 168.18182 8.578805 
C 166.944427 7.341412 165.265926 6.646154 163.515988 6.646154 
C 161.766049 6.646154 160.087549 7.341412 158.850155 8.578805 
C 157.612762 9.816198 156.917505 11.494699 156.917505 13.244637 
C 156.917505 14.994575 157.612762 16.673076 158.850155 17.910469 
C 160.087549 19.147862 161.766049 19.84312 163.515988 19.84312 
z
" style="fill: #fec7b8; stroke: #000000; stroke-linejoin: miter"/>
   </g>
   <g id="patch_19">
    <path d="M 235.62622 174.616923 
C 237.376158 174.616923 239.054659 173.921665 240.292052 172.684272 
C 241.529445 171.446878 242.224703 169.768378 242.224703 168.018439 
C 242.224703 166.268501 241.529445 164.59 240.292052 163.352607 
C 239.054659 162.115214 237.376158 161.419956 235.62622 161.419956 
C 233.876282 161.419956 232.197781 162.115214 230.960388 163.352607 
C 229.722995 164.59 229.027737 166.268501 229.027737 168.018439 
C 229.027737 169.768378 229.722995 171.446878 230.960388 172.684272 
C 232.197781 173.921665 233.876282 174.616923 235.62622 174.616923 
z
" style="fill: #fec7b8; stroke: #000000; stroke-linejoin: miter"/>
   </g>
   <g id="patch_20">
    <path d="M 303.563544 320.434203 
C 305.313482 320.434203 306.991983 319.738945 308.229376 318.501552 
C 309.466769 317.264159 310.162027 315.585658 310.162027 313.83572 
C 310.162027 312.085782 309.466769 310.407281 308.229376 309.169888 
C 306.991983 307.932495 305.313482 307.237237 303.563544 307.237237 
C 301.813606 307.237237 300.135105 307.932495 298.897712 309.169888 
C 297.660319 310.407281 296.965061 312.085782 296.965061 313.83572 
C 296.965061 315.585658 297.660319 317.264159 298.897712 318.501552 
C 300.135105 319.738945 301.813606 320.434203 303.563544 320.434203 
z
" style="fill: #fec7b8; stroke: #000000; stroke-linejoin: miter"/>
   </g>
   <g id="patch_21">
    <path d="M 163.515988 38.362763 
C 166.84669 38.362763 170.041424 37.039461 172.396586 34.684299 
C 174.751749 32.329137 176.075051 29.134403 176.075051 25.8037 
C 176.075051 22.472998 174.751749 19.278264 172.396586 16.923101 
C 170.041424 14.567939 166.84669 13.244637 163.515988 13.244637 
C 160.185285 13.244637 156.990551 14.567939 154.635389 16.923101 
C 152.280227 19.278264 150.956925 22.472998 150.956925 25.8037 
C 150.956925 29.134403 152.280227 32.329137 154.635389 34.684299 
C 156.990551 37.039461 160.185285 38.362763 163.515988 38.362763 
L 163.515988 38.362763 
z
" clip-path="url(#p7d604346cd)" style="fill: none; stroke: #ff0000; stroke-linejoin: miter"/>
   </g>
   <g id="patch_22">
    <path d="M 163.515988 50.921826 
C 168.512041 50.921826 173.304142 48.936873 176.836886 45.40413 
C 180.369629 41.871386 182.354582 37.079285 182.354582 32.083232 
C 182.354582 27.087178 180.369629 22.295077 176.836886 18.762334 
C 173.304142 15.22959 168.512041 13.244637 163.515988 13.244637 
C 158.519934 13.244637 153.727833 15.22959 150.19509 18.762334 
C 146.662346 22.295077 144.677393 27.087178 144.677393 32.083232 
C 144.677393 37.079285 146.662346 41.871386 150.19509 45.40413 
C 153.727833 48.936873 158.519934 50.921826 163.515988 50.921826 
L 163.515988 50.921826 
z
" clip-path="url(#p7d604346cd)" style="fill: none; stroke: #ffbf00; stroke-linejoin: miter"/>
   </g>
   <g id="patch_23">
    <path d="M 303.563544 338.953846 
C 306.894246 338.953846 310.08898 337.630544 312.444143 335.275382 
C 314.799305 332.920219 316.122607 329.725486 316.122607 326.394783 
C 316.122607 323.064081 314.799305 319.869347 312.444143 317.514184 
C 310.08898 315.159022 306.894246 313.83572 303.563544 313.83572 
C 300.232841 313.83572 297.038107 315.159022 294.682945 317.514184 
C 292.327783 319.869347 291.004481 323.064081 291.004481 326.394783 
C 291.004481 329.725486 292.327783 332.920219 294.682945 335.275382 
C 297.038107 337.630544 300.232841 338.953846 303.563544 338.953846 
L 303.563544 338.953846 
z
" clip-path="url(#p7d604346cd)" style="fill: none; stroke: #ff00bf; stroke-linejoin: miter"/>
   </g>
   <g id="text_10">
    <!-- 0 -->
    <g transform="translate(160.334738 16.004012) scale(0.1 -0.1)">
     <defs>
      <path id="DejaVuSans-30" d="M 2034 4250 
Q 1547 4250 1301 3770 
Q 1056 3291 1056 2328 
Q 1056 1369 1301 889 
Q 1547 409 2034 409 
Q 2525 409 2770 889 
Q 3016 1369 3016 2328 
Q 3016 3291 2770 3770 
Q 2525 4250 2034 4250 
z
M 2034 4750 
Q 2819 4750 3233 4129 
Q 3647 3509 3647 2328 
Q 3647 1150 3233 529 
Q 2819 -91 2034 -91 
Q 1250 -91 836 529 
Q 422 1150 422 2328 
Q 422 3509 836 4129 
Q 1250 4750 2034 4750 
z
" transform="scale(0.015625)"/>
     </defs>
     <use xlink:href="#DejaVuSans-30"/>
    </g>
   </g>
   <g id="text_11">
    <!-- 1 -->
    <g transform="translate(232.44497 170.777814) scale(0.1 -0.1)">
     <defs>
      <path id="DejaVuSans-31" d="M 794 531 
L 1825 531 
L 1825 4091 
L 703 3866 
L 703 4441 
L 1819 4666 
L 2450 4666 
L 2450 531 
L 3481 531 
L 3481 0 
L 794 0 
L 794 531 
z
" transform="scale(0.015625)"/>
     </defs>
     <use xlink:href="#DejaVuSans-31"/>
    </g>
   </g>
   <g id="text_12">
    <!-- 2 -->
    <g transform="translate(300.382294 316.595095) scale(0.1 -0.1)">
     <defs>
      <path id="DejaVuSans-32" d="M 1228 531 
L 3431 531 
L 3431 0 
L 469 0 
L 469 531 
Q 828 903 1448 1529 
Q 2069 2156 2228 2338 
Q 2531 2678 2651 2914 
Q 2772 3150 2772 3378 
Q 2772 3750 2511 3984 
Q 2250 4219 1831 4219 
Q 1534 4219 1204 4116 
Q 875 4013 500 3803 
L 500 4441 
Q 881 4594 1212 4672 
Q 1544 4750 1819 4750 
Q 2544 4750 2975 4387 
Q 3406 4025 3406 3419 
Q 3406 3131 3298 2873 
Q 3191 2616 2906 2266 
Q 2828 2175 2409 1742 
Q 1991 1309 1228 531 
z
" transform="scale(0.015625)"/>
     </defs>
     <use xlink:href="#DejaVuSans-32"/>
    </g>
   </g>
  </g>
 </g>
 <defs>
  <clipPath id="p7d604346cd">
   <rect x="141.248489" y="0" width="178.303023" height="345.6"/>
  </clipPath>
 </defs>
</svg>
