<?xml version="1.0" encoding="utf-8" standalone="no"?>
<!DOCTYPE svg PUBLIC "-//W3C//DTD SVG 1.1//EN"
  "http://www.w3.org/Graphics/SVG/1.1/DTD/svg11.dtd">
<svg xmlns:xlink="http://www.w3.org/1999/xlink" width="460.8pt" height="345.6pt" viewBox="0 0 460.8 345.6" xmlns="http://www.w3.org/2000/svg" version="1.1">
 <metadata>
  <rdf:RDF xmlns:dc="http://purl.org/dc/elements/1.1/" xmlns:cc="http://creativecommons.org/ns#" xmlns:rdf="http://www.w3.org/1999/02/22-rdf-syntax-ns#">
   <cc:Work>
    <dc:type rdf:resource="http://purl.org/dc/dcmitype/StillImage"/>
    <dc:date>2025-08-01T20:08:32.696614</dc:date>
    <dc:format>image/svg+xml</dc:format>
    <dc:creator>
     <cc:Agent>
      <dc:title>Matplotlib v3.10.3, https://matplotlib.org/</dc:title>
     </cc:Agent>
    </dc:creator>
   </cc:Work>
  </rdf:RDF>
 </metadata>
 <defs>
  <style type="text/css">*{stroke-linejoin: round; stroke-linecap: butt}</style>
 </defs>
 <g id="figure_1">
  <g id="patch_1">
   <path d="M 0 345.6 
L 460.8 345.6 
L 460.8 0 
L 0 0 
z
" style="fill: #ffffff"/>
  </g>
  <g id="axes_1">
   <g id="patch_2">
    <path d="M 0 332.749358 
L 460.8 332.749358 
L 460.8 12.850642 
L 0 12.850642 
z
" style="fill: #ffffff"/>
   </g>
   <g id="patch_3">
    <path d="M 36.140644 19.00254 
Q 153.775748 55.215819 230.418871 151.523923 
" clip-path="url(#p31017dcb03)" style="fill: none; stroke: #7fff00; stroke-linejoin: miter"/>
   </g>
   <g id="patch_4">
    <path d="M 36.140644 19.00254 
Q 112.783767 115.310644 230.418871 151.523923 
" clip-path="url(#p31017dcb03)" style="fill: none; stroke: #7fff00; stroke-linejoin: miter"/>
   </g>
   <g id="patch_5">
    <path d="M 36.140644 19.00254 
Q 174.271738 25.168407 230.418871 151.523923 
" clip-path="url(#p31017dcb03)" style="fill: none; stroke: #00ff3f; stroke-linejoin: miter"/>
   </g>
   <g id="patch_6">
    <path d="M 36.140644 19.00254 
Q 92.287777 145.358056 230.418871 151.523923 
" clip-path="url(#p31017dcb03)" style="fill: none; stroke: #00ffff; stroke-linejoin: miter"/>
   </g>
   <g id="matplotlib.axis_1"/>
   <g id="matplotlib.axis_2"/>
   <g id="line2d_1">
    <path d="M 230.418871 151.523923 
L 433.752391 290.225319 
" clip-path="url(#p31017dcb03)" style="fill: none; stroke-dasharray: 1,1.65; stroke-dashoffset: 0; stroke: #7f00ff"/>
   </g>
   <g id="line2d_2">
    <path d="M 36.140644 19.00254 
L 230.418871 151.523923 
" clip-path="url(#p31017dcb03)" style="fill: none; stroke: #003fff; stroke-linecap: square"/>
   </g>
   <g id="text_1">
    <g id="patch_7">
     <path d="M 28.966425 64.213743 
L 43.314863 64.213743 
L 43.314863 46.535618 
L 28.966425 46.535618 
z
" style="fill: #ffffff; stroke: #ffffff; stroke-linejoin: miter"/>
    </g>
    <!-- b -->
    <g style="fill: #0000ff" transform="translate(32.966425 58.134056) scale(0.1 -0.1)">
     <defs>
      <path id="DejaVuSans-62" d="M 3116 1747 
Q 3116 2381 2855 2742 
Q 2594 3103 2138 3103 
Q 1681 3103 1420 2742 
Q 1159 2381 1159 1747 
Q 1159 1113 1420 752 
Q 1681 391 2138 391 
Q 2594 391 2855 752 
Q 3116 1113 3116 1747 
z
M 1159 2969 
Q 1341 3281 1617 3432 
Q 1894 3584 2278 3584 
Q 2916 3584 3314 3078 
Q 3713 2572 3713 1747 
Q 3713 922 3314 415 
Q 2916 -91 2278 -91 
Q 1894 -91 1617 61 
Q 1341 213 1159 525 
L 1159 0 
L 581 0 
L 581 4863 
L 1159 4863 
L 1159 2969 
z
" transform="scale(0.015625)"/>
     </defs>
     <use xlink:href="#DejaVuSans-62"/>
    </g>
   </g>
   <g id="text_2">
    <g id="patch_8">
     <path d="M 29.076581 82.399813 
L 43.204706 82.399813 
L 43.204706 64.721688 
L 29.076581 64.721688 
z
" style="fill: #ffffff; stroke: #ffffff; stroke-linejoin: miter"/>
    </g>
    <!-- a -->
    <g style="fill: #0000ff" transform="translate(33.076581 76.320126) scale(0.1 -0.1)">
     <defs>
      <path id="DejaVuSans-61" d="M 2194 1759 
Q 1497 1759 1228 1600 
Q 959 1441 959 1056 
Q 959 750 1161 570 
Q 1363 391 1709 391 
Q 2188 391 2477 730 
Q 2766 1069 2766 1631 
L 2766 1759 
L 2194 1759 
z
M 3341 1997 
L 3341 0 
L 2766 0 
L 2766 531 
Q 2569 213 2275 61 
Q 1981 -91 1556 -91 
Q 1019 -91 701 211 
Q 384 513 384 1019 
Q 384 1609 779 1909 
Q 1175 2209 1959 2209 
L 2766 2209 
L 2766 2266 
Q 2766 2663 2505 2880 
Q 2244 3097 1772 3097 
Q 1472 3097 1187 3025 
Q 903 2953 641 2809 
L 641 3341 
Q 956 3463 1253 3523 
Q 1550 3584 1831 3584 
Q 2591 3584 2966 3190 
Q 3341 2797 3341 1997 
z
" transform="scale(0.015625)"/>
     </defs>
     <use xlink:href="#DejaVuSans-61"/>
    </g>
   </g>
   <g id="text_3">
    <g id="patch_9">
     <path d="M 137.767596 79.078588 
L 149.287909 79.078588 
L 149.287909 61.400463 
L 137.767596 61.400463 
z
" style="fill: #ffffff; stroke: #ffffff; stroke-linejoin: miter"/>
    </g>
    <!-- f -->
    <g style="fill: #0000ff" transform="translate(141.767596 72.9989) scale(0.1 -0.1)">
     <defs>
      <path id="DejaVuSans-66" d="M 2375 4863 
L 2375 4384 
L 1825 4384 
Q 1516 4384 1395 4259 
Q 1275 4134 1275 3809 
L 1275 3500 
L 2222 3500 
L 2222 3053 
L 1275 3053 
L 1275 0 
L 697 0 
L 697 3053 
L 147 3053 
L 147 3500 
L 697 3500 
L 697 3744 
Q 697 4328 969 4595 
Q 1241 4863 1831 4863 
L 2375 4863 
z
" transform="scale(0.015625)"/>
     </defs>
     <use xlink:href="#DejaVuSans-66"/>
    </g>
   </g>
   <g id="text_4">
    <g id="patch_10">
     <path d="M 117.271606 109.126 
L 128.791919 109.126 
L 128.791919 91.447875 
L 117.271606 91.447875 
z
" style="fill: #ffffff; stroke: #ffffff; stroke-linejoin: miter"/>
    </g>
    <!-- f -->
    <g style="fill: #0000ff" transform="translate(121.271606 103.046313) scale(0.1 -0.1)">
     <use xlink:href="#DejaVuSans-66"/>
    </g>
   </g>
   <g id="text_5">
    <g id="patch_11">
     <path d="M 146.699185 64.054882 
L 160.85231 64.054882 
L 160.85231 46.376757 
L 146.699185 46.376757 
z
" style="fill: #ffffff; stroke: #ffffff; stroke-linejoin: miter"/>
    </g>
    <!-- e -->
    <g style="fill: #0000ff" transform="translate(150.699185 57.975194) scale(0.1 -0.1)">
     <defs>
      <path id="DejaVuSans-65" d="M 3597 1894 
L 3597 1613 
L 953 1613 
Q 991 1019 1311 708 
Q 1631 397 2203 397 
Q 2534 397 2845 478 
Q 3156 559 3463 722 
L 3463 178 
Q 3153 47 2828 -22 
Q 2503 -91 2169 -91 
Q 1331 -91 842 396 
Q 353 884 353 1716 
Q 353 2575 817 3079 
Q 1281 3584 2069 3584 
Q 2775 3584 3186 3129 
Q 3597 2675 3597 1894 
z
M 3022 2063 
Q 3016 2534 2758 2815 
Q 2500 3097 2075 3097 
Q 1594 3097 1305 2825 
Q 1016 2553 972 2059 
L 3022 2063 
z
" transform="scale(0.015625)"/>
     </defs>
     <use xlink:href="#DejaVuSans-65"/>
    </g>
   </g>
   <g id="text_6">
    <g id="patch_12">
     <path d="M 105.609548 124.149707 
L 119.957986 124.149707 
L 119.957986 106.471582 
L 105.609548 106.471582 
z
" style="fill: #ffffff; stroke: #ffffff; stroke-linejoin: miter"/>
    </g>
    <!-- d -->
    <g style="fill: #0000ff" transform="translate(109.609548 118.070019) scale(0.1 -0.1)">
     <defs>
      <path id="DejaVuSans-64" d="M 2906 2969 
L 2906 4863 
L 3481 4863 
L 3481 0 
L 2906 0 
L 2906 525 
Q 2725 213 2448 61 
Q 2172 -91 1784 -91 
Q 1150 -91 751 415 
Q 353 922 353 1747 
Q 353 2572 751 3078 
Q 1150 3584 1784 3584 
Q 2172 3584 2448 3432 
Q 2725 3281 2906 2969 
z
M 947 1747 
Q 947 1113 1208 752 
Q 1469 391 1925 391 
Q 2381 391 2643 752 
Q 2906 1113 2906 1747 
Q 2906 2381 2643 2742 
Q 2381 3103 1925 3103 
Q 1469 3103 1208 2742 
Q 947 2381 947 1747 
z
" transform="scale(0.015625)"/>
     </defs>
     <use xlink:href="#DejaVuSans-64"/>
    </g>
   </g>
   <g id="text_7">
    <g id="patch_13">
     <path d="M 426.583641 335.436522 
L 440.921141 335.436522 
L 440.921141 317.758397 
L 426.583641 317.758397 
z
" style="fill: #ffffff; stroke: #ffffff; stroke-linejoin: miter"/>
    </g>
    <!-- h -->
    <g style="fill: #0000ff" transform="translate(430.583641 329.356835) scale(0.1 -0.1)">
     <defs>
      <path id="DejaVuSans-68" d="M 3513 2113 
L 3513 0 
L 2938 0 
L 2938 2094 
Q 2938 2591 2744 2837 
Q 2550 3084 2163 3084 
Q 1697 3084 1428 2787 
Q 1159 2491 1159 1978 
L 1159 0 
L 581 0 
L 581 4863 
L 1159 4863 
L 1159 2956 
Q 1366 3272 1645 3428 
Q 1925 3584 2291 3584 
Q 2894 3584 3203 3211 
Q 3513 2838 3513 2113 
z
" transform="scale(0.015625)"/>
     </defs>
     <use xlink:href="#DejaVuSans-68"/>
    </g>
   </g>
   <g id="text_8">
    <g id="patch_14">
     <path d="M 324.911412 229.713684 
L 339.25985 229.713684 
L 339.25985 212.035559 
L 324.911412 212.035559 
z
" style="fill: #ffffff; stroke: #ffffff; stroke-linejoin: miter"/>
    </g>
    <!-- g -->
    <g style="fill: #0000ff" transform="translate(328.911412 223.633996) scale(0.1 -0.1)">
     <defs>
      <path id="DejaVuSans-67" d="M 2906 1791 
Q 2906 2416 2648 2759 
Q 2391 3103 1925 3103 
Q 1463 3103 1205 2759 
Q 947 2416 947 1791 
Q 947 1169 1205 825 
Q 1463 481 1925 481 
Q 2391 481 2648 825 
Q 2906 1169 2906 1791 
z
M 3481 434 
Q 3481 -459 3084 -895 
Q 2688 -1331 1869 -1331 
Q 1566 -1331 1297 -1286 
Q 1028 -1241 775 -1147 
L 775 -588 
Q 1028 -725 1275 -790 
Q 1522 -856 1778 -856 
Q 2344 -856 2625 -561 
Q 2906 -266 2906 331 
L 2906 616 
Q 2728 306 2450 153 
Q 2172 0 1784 0 
Q 1141 0 747 490 
Q 353 981 353 1791 
Q 353 2603 747 3093 
Q 1141 3584 1784 3584 
Q 2172 3584 2450 3431 
Q 2728 3278 2906 2969 
L 2906 3500 
L 3481 3500 
L 3481 434 
z
" transform="scale(0.015625)"/>
     </defs>
     <use xlink:href="#DejaVuSans-67"/>
    </g>
   </g>
   <g id="text_9">
    <g id="patch_15">
     <path d="M 126.530539 94.102294 
L 140.028976 94.102294 
L 140.028976 76.424169 
L 126.530539 76.424169 
z
" style="fill: #ffffff; stroke: #ffffff; stroke-linejoin: miter"/>
    </g>
    <!-- c -->
    <g style="fill: #0000ff" transform="translate(130.530539 88.022607) scale(0.1 -0.1)">
     <defs>
      <path id="DejaVuSans-63" d="M 3122 3366 
L 3122 2828 
Q 2878 2963 2633 3030 
Q 2388 3097 2138 3097 
Q 1578 3097 1268 2742 
Q 959 2388 959 1747 
Q 959 1106 1268 751 
Q 1578 397 2138 397 
Q 2388 397 2633 464 
Q 2878 531 3122 666 
L 3122 134 
Q 2881 22 2623 -34 
Q 2366 -91 2075 -91 
Q 1284 -91 818 406 
Q 353 903 353 1747 
Q 353 2603 823 3093 
Q 1294 3584 2113 3584 
Q 2378 3584 2631 3529 
Q 2884 3475 3122 3366 
z
" transform="scale(0.015625)"/>
     </defs>
     <use xlink:href="#DejaVuSans-63"/>
    </g>
   </g>
   <g id="patch_16">
    <path d="M 36.140644 55.374681 
C 40.963646 55.374681 45.58976 53.458482 49.000138 50.048104 
C 52.410515 46.637726 54.326714 42.011613 54.326714 37.18861 
C 54.326714 32.365608 52.410515 27.739494 49.000138 24.329117 
C 45.58976 20.918739 40.963646 19.00254 36.140644 19.00254 
C 31.317642 19.00254 26.691528 20.918739 23.28115 24.329117 
C 19.870773 27.739494 17.954574 32.365608 17.954574 37.18861 
C 17.954574 42.011613 19.870773 46.637726 23.28115 50.048104 
C 26.691528 53.458482 31.317642 55.374681 36.140644 55.374681 
L 36.140644 55.374681 
z
" clip-path="url(#p31017dcb03)" style="fill: none; stroke: #ff0000; stroke-linejoin: miter"/>
   </g>
   <g id="patch_17">
    <path d="M 36.140644 73.560751 
C 43.375147 73.560751 50.314318 70.686452 55.429884 65.570886 
C 60.545451 60.45532 63.419749 53.516149 63.419749 46.281646 
C 63.419749 39.047142 60.545451 32.107971 55.429884 26.992405 
C 50.314318 21.876839 43.375147 19.00254 36.140644 19.00254 
C 28.906141 19.00254 21.96697 21.876839 16.851403 26.992405 
C 11.735837 32.107971 8.861538 39.047142 8.861538 46.281646 
C 8.861538 53.516149 11.735837 60.45532 16.851403 65.570886 
C 21.96697 70.686452 28.906141 73.560751 36.140644 73.560751 
L 36.140644 73.560751 
z
" clip-path="url(#p31017dcb03)" style="fill: none; stroke-dasharray: 3.7,1.6; stroke-dashoffset: 0; stroke: #ffbf00; stroke-linejoin: miter"/>
   </g>
   <g id="patch_18">
    <path d="M 433.752391 326.59746 
C 438.575393 326.59746 443.201507 324.681261 446.611885 321.270883 
C 450.022262 317.860506 451.938462 313.234392 451.938462 308.41139 
C 451.938462 303.588387 450.022262 298.962274 446.611885 295.551896 
C 443.201507 292.141518 438.575393 290.225319 433.752391 290.225319 
C 428.929389 290.225319 424.303275 292.141518 420.892898 295.551896 
C 417.48252 298.962274 415.566321 303.588387 415.566321 308.41139 
C 415.566321 313.234392 417.48252 317.860506 420.892898 321.270883 
C 424.303275 324.681261 428.929389 326.59746 433.752391 326.59746 
L 433.752391 326.59746 
z
" clip-path="url(#p31017dcb03)" style="fill: none; stroke: #ff00bf; stroke-linejoin: miter"/>
   </g>
   <g id="PathCollection_1">
    <defs>
     <path id="mdbe33898f4" d="M 0 5 
C 1.326016 5 2.597899 4.473168 3.535534 3.535534 
C 4.473168 2.597899 5 1.326016 5 0 
C 5 -1.326016 4.473168 -2.597899 3.535534 -3.535534 
C 2.597899 -4.473168 1.326016 -5 0 -5 
C -1.326016 -5 -2.597899 -4.473168 -3.535534 -3.535534 
C -4.473168 -2.597899 -5 -1.326016 -5 0 
C -5 1.326016 -4.473168 2.597899 -3.535534 3.535534 
C -2.597899 4.473168 -1.326016 5 0 5 
z
" style="stroke: #000000"/>
    </defs>
    <g>
     <use xlink:href="#mdbe33898f4" x="36.140644" y="19.00254" style="fill: #fec7b8; stroke: #000000"/>
     <use xlink:href="#mdbe33898f4" x="230.418871" y="151.523923" style="fill: #fec7b8; stroke: #000000"/>
     <use xlink:href="#mdbe33898f4" x="433.752391" y="290.225319" style="fill: #fec7b8; stroke: #000000"/>
    </g>
   </g>
   <g id="text_10">
    <!-- 0 -->
    <g transform="translate(32.959394 21.761915) scale(0.1 -0.1)">
     <defs>
      <path id="DejaVuSans-30" d="M 2034 4250 
Q 1547 4250 1301 3770 
Q 1056 3291 1056 2328 
Q 1056 1369 1301 889 
Q 1547 409 2034 409 
Q 2525 409 2770 889 
Q 3016 1369 3016 2328 
Q 3016 3291 2770 3770 
Q 2525 4250 2034 4250 
z
M 2034 4750 
Q 2819 4750 3233 4129 
Q 3647 3509 3647 2328 
Q 3647 1150 3233 529 
Q 2819 -91 2034 -91 
Q 1250 -91 836 529 
Q 422 1150 422 2328 
Q 422 3509 836 4129 
Q 1250 4750 2034 4750 
z
" transform="scale(0.015625)"/>
     </defs>
     <use xlink:href="#DejaVuSans-30"/>
    </g>
   </g>
   <g id="text_11">
    <!-- 1 -->
    <g transform="translate(227.237621 154.283298) scale(0.1 -0.1)">
     <defs>
      <path id="DejaVuSans-31" d="M 794 531 
L 1825 531 
L 1825 4091 
L 703 3866 
L 703 4441 
L 1819 4666 
L 2450 4666 
L 2450 531 
L 3481 531 
L 3481 0 
L 794 0 
L 794 531 
z
" transform="scale(0.015625)"/>
     </defs>
     <use xlink:href="#DejaVuSans-31"/>
    </g>
   </g>
   <g id="text_12">
    <!-- 2 -->
    <g transform="translate(430.571141 292.984694) scale(0.1 -0.1)">
     <defs>
      <path id="DejaVuSans-32" d="M 1228 531 
L 3431 531 
L 3431 0 
L 469 0 
L 469 531 
Q 828 903 1448 1529 
Q 2069 2156 2228 2338 
Q 2531 2678 2651 2914 
Q 2772 3150 2772 3378 
Q 2772 3750 2511 3984 
Q 2250 4219 1831 4219 
Q 1534 4219 1204 4116 
Q 875 4013 500 3803 
L 500 4441 
Q 881 4594 1212 4672 
Q 1544 4750 1819 4750 
Q 2544 4750 2975 4387 
Q 3406 4025 3406 3419 
Q 3406 3131 3298 2873 
Q 3191 2616 2906 2266 
Q 2828 2175 2409 1742 
Q 1991 1309 1228 531 
z
" transform="scale(0.015625)"/>
     </defs>
     <use xlink:href="#DejaVuSans-32"/>
    </g>
   </g>
  </g>
 </g>
 <defs>
  <clipPath id="p31017dcb03">
   <rect x="0" y="12.850642" width="460.8" height="319.898717"/>
  </clipPath>
 </defs>
</svg>
