<?xml version="1.0" encoding="utf-8" standalone="no"?>
<!DOCTYPE svg PUBLIC "-//W3C//DTD SVG 1.1//EN"
  "http://www.w3.org/Graphics/SVG/1.1/DTD/svg11.dtd">
<svg xmlns:xlink="http://www.w3.org/1999/xlink" width="460.8pt" height="345.6pt" viewBox="0 0 460.8 345.6" xmlns="http://www.w3.org/2000/svg" version="1.1">
 <metadata>
  <rdf:RDF xmlns:dc="http://purl.org/dc/elements/1.1/" xmlns:cc="http://creativecommons.org/ns#" xmlns:rdf="http://www.w3.org/1999/02/22-rdf-syntax-ns#">
   <cc:Work>
    <dc:type rdf:resource="http://purl.org/dc/dcmitype/StillImage"/>
    <dc:date>2025-08-03T18:56:37.103102</dc:date>
    <dc:format>image/svg+xml</dc:format>
    <dc:creator>
     <cc:Agent>
      <dc:title>Matplotlib v3.10.3, https://matplotlib.org/</dc:title>
     </cc:Agent>
    </dc:creator>
   </cc:Work>
  </rdf:RDF>
 </metadata>
 <defs>
  <style type="text/css">*{stroke-linejoin: round; stroke-linecap: butt}</style>
 </defs>
 <g id="figure_1">
  <g id="patch_1">
   <path d="M 0 345.6 
L 460.8 345.6 
L 460.8 0 
L 0 0 
z
" style="fill: #ffffff"/>
  </g>
  <g id="axes_1">
   <g id="patch_2">
    <path d="M 0 246.432483 
L 460.8 246.432483 
L 460.8 99.167517 
L 0 99.167517 
z
" style="fill: #ffffff"/>
   </g>
   <g id="patch_3">
    <path d="M 40.00342 144.98827 
Q 138.754415 132.403705 227.218784 175.564289 
" clip-path="url(#p9e017e81fc)" style="fill: none; stroke: #7fff00; stroke-linecap: round"/>
    <path d="M 220.423804 166.685762 
L 227.218784 175.564289 
L 216.038974 175.673157 
z
" clip-path="url(#p9e017e81fc)" style="fill: #7fff00; stroke: #7fff00; stroke-linecap: round"/>
   </g>
   <g id="patch_4">
    <path d="M 39.248642 149.561221 
Q 128.717832 193.212044 226.359763 180.768815 
" clip-path="url(#p9e017e81fc)" style="fill: none; stroke: #7fff00; stroke-linecap: round"/>
    <path d="M 215.807914 177.073078 
L 226.359763 180.768815 
L 217.072063 186.992852 
z
" clip-path="url(#p9e017e81fc)" style="fill: #7fff00; stroke: #7fff00; stroke-linecap: round"/>
   </g>
   <g id="patch_5">
    <path d="M 39.5057 143.046299 
Q 143.772707 101.999536 228.465443 173.653371 
" clip-path="url(#p9e017e81fc)" style="fill: none; stroke: #00ff3f; stroke-linecap: round"/>
    <path d="M 224.060638 163.377297 
L 228.465443 173.653371 
L 217.601701 171.011571 
z
" clip-path="url(#p9e017e81fc)" style="fill: #00ff3f; stroke: #00ff3f; stroke-linecap: round"/>
   </g>
   <g id="patch_6">
    <path d="M 38.153266 151.240247 
Q 123.699541 223.616213 226.926224 182.978994 
" clip-path="url(#p9e017e81fc)" style="fill: none; stroke: #00ffff; stroke-linecap: round"/>
    <path d="M 215.789748 181.989597 
L 226.926224 182.978994 
L 219.452821 191.294537 
z
" clip-path="url(#p9e017e81fc)" style="fill: #00ffff; stroke: #00ffff; stroke-linecap: round"/>
   </g>
   <g id="matplotlib.axis_1"/>
   <g id="matplotlib.axis_2"/>
   <g id="patch_7">
    <path d="M 244.589289 181.104493 
Q 336.01488 196.194532 428.543581 211.466641 
" clip-path="url(#p9e017e81fc)" style="fill: none; stroke: #7f00ff; stroke-linecap: round"/>
    <path d="M 253.641552 187.666241 
L 244.589289 181.104493 
L 255.270045 177.799732 
z
" clip-path="url(#p9e017e81fc)" style="fill: #7f00ff; stroke: #7f00ff; stroke-linecap: round"/>
   </g>
   <g id="patch_8">
    <path d="M 39.960301 147.329918 
Q 133.736124 162.807875 226.408837 178.10376 
" clip-path="url(#p9e017e81fc)" style="fill: none; stroke: #003fff; stroke-linecap: round"/>
    <path d="M 217.356575 171.542011 
L 226.408837 178.10376 
L 215.728081 181.40852 
z
" clip-path="url(#p9e017e81fc)" style="fill: #003fff; stroke: #003fff; stroke-linecap: round"/>
   </g>
   <g id="text_1">
    <g id="patch_9">
     <path d="M 24.798966 185.666213 
L 39.147403 185.666213 
L 39.147403 167.988088 
L 24.798966 167.988088 
z
" style="fill: #ffffff; stroke: #ffffff; stroke-linejoin: miter"/>
    </g>
    <!-- b -->
    <g style="fill: #0000ff" transform="translate(28.798966 179.586525) scale(0.1 -0.1)">
     <defs>
      <path id="DejaVuSans-62" d="M 3116 1747 
Q 3116 2381 2855 2742 
Q 2594 3103 2138 3103 
Q 1681 3103 1420 2742 
Q 1159 2381 1159 1747 
Q 1159 1113 1420 752 
Q 1681 391 2138 391 
Q 2594 391 2855 752 
Q 3116 1113 3116 1747 
z
M 1159 2969 
Q 1341 3281 1617 3432 
Q 1894 3584 2278 3584 
Q 2916 3584 3314 3078 
Q 3713 2572 3713 1747 
Q 3713 922 3314 415 
Q 2916 -91 2278 -91 
Q 1894 -91 1617 61 
Q 1341 213 1159 525 
L 1159 0 
L 581 0 
L 581 4863 
L 1159 4863 
L 1159 2969 
z
" transform="scale(0.015625)"/>
     </defs>
     <use xlink:href="#DejaVuSans-62"/>
    </g>
   </g>
   <g id="text_2">
    <g id="patch_10">
     <path d="M 24.909122 201.073977 
L 39.037247 201.073977 
L 39.037247 183.395852 
L 24.909122 183.395852 
z
" style="fill: #ffffff; stroke: #ffffff; stroke-linejoin: miter"/>
    </g>
    <!-- a -->
    <g style="fill: #0000ff" transform="translate(28.909122 194.994289) scale(0.1 -0.1)">
     <defs>
      <path id="DejaVuSans-61" d="M 2194 1759 
Q 1497 1759 1228 1600 
Q 959 1441 959 1056 
Q 959 750 1161 570 
Q 1363 391 1709 391 
Q 2188 391 2477 730 
Q 2766 1069 2766 1631 
L 2766 1759 
L 2194 1759 
z
M 3341 1997 
L 3341 0 
L 2766 0 
L 2766 531 
Q 2569 213 2275 61 
Q 1981 -91 1556 -91 
Q 1019 -91 701 211 
Q 384 513 384 1019 
Q 384 1609 779 1909 
Q 1175 2209 1959 2209 
L 2766 2209 
L 2766 2266 
Q 2766 2663 2505 2880 
Q 2244 3097 1772 3097 
Q 1472 3097 1187 3025 
Q 903 2953 641 2809 
L 641 3341 
Q 956 3463 1253 3523 
Q 1550 3584 1831 3584 
Q 2591 3584 2966 3190 
Q 3341 2797 3341 1997 
z
" transform="scale(0.015625)"/>
     </defs>
     <use xlink:href="#DejaVuSans-61"/>
    </g>
   </g>
   <g id="text_3">
    <g id="patch_11">
     <path d="M 130.485113 156.444852 
L 142.005426 156.444852 
L 142.005426 138.766727 
L 130.485113 138.766727 
z
" style="fill: #ffffff; stroke: #ffffff; stroke-linejoin: miter"/>
    </g>
    <!-- f -->
    <g style="fill: #0000ff" transform="translate(134.485113 150.365165) scale(0.1 -0.1)">
     <defs>
      <path id="DejaVuSans-66" d="M 2375 4863 
L 2375 4384 
L 1825 4384 
Q 1516 4384 1395 4259 
Q 1275 4134 1275 3809 
L 1275 3500 
L 2222 3500 
L 2222 3053 
L 1275 3053 
L 1275 0 
L 697 0 
L 697 3053 
L 147 3053 
L 147 3500 
L 697 3500 
L 697 3744 
Q 697 4328 969 4595 
Q 1241 4863 1831 4863 
L 2375 4863 
z
" transform="scale(0.015625)"/>
     </defs>
     <use xlink:href="#DejaVuSans-66"/>
    </g>
   </g>
   <g id="text_4">
    <g id="patch_12">
     <path d="M 125.466822 186.849022 
L 136.987134 186.849022 
L 136.987134 169.170897 
L 125.466822 169.170897 
z
" style="fill: #ffffff; stroke: #ffffff; stroke-linejoin: miter"/>
    </g>
    <!-- f -->
    <g style="fill: #0000ff" transform="translate(129.466822 180.769334) scale(0.1 -0.1)">
     <use xlink:href="#DejaVuSans-66"/>
    </g>
   </g>
   <g id="text_5">
    <g id="patch_13">
     <path d="M 131.677853 141.242768 
L 145.830978 141.242768 
L 145.830978 123.564643 
L 131.677853 123.564643 
z
" style="fill: #ffffff; stroke: #ffffff; stroke-linejoin: miter"/>
    </g>
    <!-- e -->
    <g style="fill: #0000ff" transform="translate(135.677853 135.16308) scale(0.1 -0.1)">
     <defs>
      <path id="DejaVuSans-65" d="M 3597 1894 
L 3597 1613 
L 953 1613 
Q 991 1019 1311 708 
Q 1631 397 2203 397 
Q 2534 397 2845 478 
Q 3156 559 3463 722 
L 3463 178 
Q 3153 47 2828 -22 
Q 2503 -91 2169 -91 
Q 1331 -91 842 396 
Q 353 884 353 1716 
Q 353 2575 817 3079 
Q 1281 3584 2069 3584 
Q 2775 3584 3186 3129 
Q 3597 2675 3597 1894 
z
M 3022 2063 
Q 3016 2534 2758 2815 
Q 2500 3097 2075 3097 
Q 1594 3097 1305 2825 
Q 1016 2553 972 2059 
L 3022 2063 
z
" transform="scale(0.015625)"/>
     </defs>
     <use xlink:href="#DejaVuSans-65"/>
    </g>
   </g>
   <g id="text_6">
    <g id="patch_14">
     <path d="M 121.543614 202.051107 
L 135.892051 202.051107 
L 135.892051 184.372982 
L 121.543614 184.372982 
z
" style="fill: #ffffff; stroke: #ffffff; stroke-linejoin: miter"/>
    </g>
    <!-- d -->
    <g style="fill: #0000ff" transform="translate(125.543614 195.971419) scale(0.1 -0.1)">
     <defs>
      <path id="DejaVuSans-64" d="M 2906 2969 
L 2906 4863 
L 3481 4863 
L 3481 0 
L 2906 0 
L 2906 525 
Q 2725 213 2448 61 
Q 2172 -91 1784 -91 
Q 1150 -91 751 415 
Q 353 922 353 1747 
Q 353 2572 751 3078 
Q 1150 3584 1784 3584 
Q 2172 3584 2448 3432 
Q 2725 3281 2906 2969 
z
M 947 1747 
Q 947 1113 1208 752 
Q 1469 391 1925 391 
Q 2381 391 2643 752 
Q 2906 1113 2906 1747 
Q 2906 2381 2643 2742 
Q 2381 3103 1925 3103 
Q 1469 3103 1208 2742 
Q 947 2381 947 1747 
z
" transform="scale(0.015625)"/>
     </defs>
     <use xlink:href="#DejaVuSans-64"/>
    </g>
   </g>
   <g id="text_7">
    <g id="patch_15">
     <path d="M 429.361947 252.439527 
L 443.699447 252.439527 
L 443.699447 234.761402 
L 429.361947 234.761402 
z
" style="fill: #ffffff; stroke: #ffffff; stroke-linejoin: miter"/>
    </g>
    <!-- h -->
    <g style="fill: #0000ff" transform="translate(433.361947 246.359839) scale(0.1 -0.1)">
     <defs>
      <path id="DejaVuSans-68" d="M 3513 2113 
L 3513 0 
L 2938 0 
L 2938 2094 
Q 2938 2591 2744 2837 
Q 2550 3084 2163 3084 
Q 1697 3084 1428 2787 
Q 1159 2491 1159 1978 
L 1159 0 
L 581 0 
L 581 4863 
L 1159 4863 
L 1159 2956 
Q 1366 3272 1645 3428 
Q 1925 3584 2291 3584 
Q 2894 3584 3203 3211 
Q 3513 2838 3513 2113 
z
" transform="scale(0.015625)"/>
     </defs>
     <use xlink:href="#DejaVuSans-68"/>
    </g>
   </g>
   <g id="text_8">
    <g id="patch_16">
     <path d="M 328.840662 205.033594 
L 343.189099 205.033594 
L 343.189099 187.355469 
L 328.840662 187.355469 
z
" style="fill: #ffffff; stroke: #ffffff; stroke-linejoin: miter"/>
    </g>
    <!-- g -->
    <g style="fill: #0000ff" transform="translate(332.840662 198.953907) scale(0.1 -0.1)">
     <defs>
      <path id="DejaVuSans-67" d="M 2906 1791 
Q 2906 2416 2648 2759 
Q 2391 3103 1925 3103 
Q 1463 3103 1205 2759 
Q 947 2416 947 1791 
Q 947 1169 1205 825 
Q 1463 481 1925 481 
Q 2391 481 2648 825 
Q 2906 1169 2906 1791 
z
M 3481 434 
Q 3481 -459 3084 -895 
Q 2688 -1331 1869 -1331 
Q 1566 -1331 1297 -1286 
Q 1028 -1241 775 -1147 
L 775 -588 
Q 1028 -725 1275 -790 
Q 1522 -856 1778 -856 
Q 2344 -856 2625 -561 
Q 2906 -266 2906 331 
L 2906 616 
Q 2728 306 2450 153 
Q 2172 0 1784 0 
Q 1141 0 747 490 
Q 353 981 353 1791 
Q 353 2603 747 3093 
Q 1141 3584 1784 3584 
Q 2172 3584 2450 3431 
Q 2728 3278 2906 2969 
L 2906 3500 
L 3481 3500 
L 3481 434 
z
" transform="scale(0.015625)"/>
     </defs>
     <use xlink:href="#DejaVuSans-67"/>
    </g>
   </g>
   <g id="text_9">
    <g id="patch_17">
     <path d="M 126.986905 171.646937 
L 140.485343 171.646937 
L 140.485343 153.968812 
L 126.986905 153.968812 
z
" style="fill: #ffffff; stroke: #ffffff; stroke-linejoin: miter"/>
    </g>
    <!-- c -->
    <g style="fill: #0000ff" transform="translate(130.986905 165.56725) scale(0.1 -0.1)">
     <defs>
      <path id="DejaVuSans-63" d="M 3122 3366 
L 3122 2828 
Q 2878 2963 2633 3030 
Q 2388 3097 2138 3097 
Q 1578 3097 1268 2742 
Q 959 2388 959 1747 
Q 959 1106 1268 751 
Q 1578 397 2138 397 
Q 2388 397 2633 464 
Q 2878 531 3122 666 
L 3122 134 
Q 2881 22 2623 -34 
Q 2366 -91 2075 -91 
Q 1284 -91 818 406 
Q 353 903 353 1747 
Q 353 2603 823 3093 
Q 1294 3584 2113 3584 
Q 2378 3584 2631 3529 
Q 2884 3475 3122 3366 
z
" transform="scale(0.015625)"/>
     </defs>
     <use xlink:href="#DejaVuSans-63"/>
    </g>
   </g>
   <g id="patch_18">
    <path d="M 31.973185 154.106802 
C 34.120051 154.106802 36.179277 153.253843 37.697341 151.735779 
C 39.215405 150.217715 40.068364 148.158489 40.068364 146.011622 
C 40.068364 143.864756 39.215405 141.80553 37.697341 140.287466 
C 36.179277 138.769402 34.120051 137.916443 31.973185 137.916443 
C 29.826318 137.916443 27.767092 138.769402 26.249028 140.287466 
C 24.730964 141.80553 23.878005 143.864756 23.878005 146.011622 
C 23.878005 148.158489 24.730964 150.217715 26.249028 151.735779 
C 27.767092 153.253843 29.826318 154.106802 31.973185 154.106802 
z
" style="fill: #fec7b8; stroke: #000000; stroke-linejoin: miter"/>
   </g>
   <g id="patch_19">
    <path d="M 235.499063 187.699306 
C 237.64593 187.699306 239.705156 186.846347 241.22322 185.328283 
C 242.741284 183.810219 243.594243 181.750994 243.594243 179.604127 
C 243.594243 177.45726 242.741284 175.398034 241.22322 173.87997 
C 239.705156 172.361906 237.64593 171.508947 235.499063 171.508947 
C 233.352196 171.508947 231.292971 172.361906 229.774907 173.87997 
C 228.256843 175.398034 227.403884 177.45726 227.403884 179.604127 
C 227.403884 181.750994 228.256843 183.810219 229.774907 185.328283 
C 231.292971 186.846347 233.352196 187.699306 235.499063 187.699306 
z
" style="fill: #fec7b8; stroke: #000000; stroke-linejoin: miter"/>
   </g>
   <g id="patch_20">
    <path d="M 436.530697 220.880116 
C 438.677564 220.880116 440.73679 220.027157 442.254854 218.509093 
C 443.772918 216.991029 444.625877 214.931803 444.625877 212.784936 
C 444.625877 210.63807 443.772918 208.578844 442.254854 207.06078 
C 440.73679 205.542716 438.677564 204.689757 436.530697 204.689757 
C 434.383831 204.689757 432.324605 205.542716 430.806541 207.06078 
C 429.288477 208.578844 428.435518 210.63807 428.435518 212.784936 
C 428.435518 214.931803 429.288477 216.991029 430.806541 218.509093 
C 432.324605 220.027157 434.383831 220.880116 436.530697 220.880116 
z
" style="fill: #fec7b8; stroke: #000000; stroke-linejoin: miter"/>
   </g>
   <g id="patch_21">
    <path d="M 31.973185 176.82715 
C 36.059371 176.82715 39.978749 175.203691 42.868119 172.314321 
C 45.757489 169.42495 47.380949 165.505573 47.380949 161.419386 
C 47.380949 157.3332 45.757489 153.413822 42.868119 150.524452 
C 39.978749 147.635081 36.059371 146.011622 31.973185 146.011622 
C 27.886998 146.011622 23.96762 147.635081 21.07825 150.524452 
C 18.18888 153.413822 16.56542 157.3332 16.56542 161.419386 
C 16.56542 165.505573 18.18888 169.42495 21.07825 172.314321 
C 23.96762 175.203691 27.886998 176.82715 31.973185 176.82715 
L 31.973185 176.82715 
z
" clip-path="url(#p9e017e81fc)" style="fill: none; stroke: #ff0000; stroke-linejoin: miter"/>
   </g>
   <g id="patch_22">
    <path d="M 31.973185 192.234914 
C 38.102465 192.234914 43.981531 189.799726 48.315586 185.46567 
C 52.649642 181.131614 55.084831 175.252549 55.084831 169.123268 
C 55.084831 162.993988 52.649642 157.114922 48.315586 152.780867 
C 43.981531 148.446811 38.102465 146.011622 31.973185 146.011622 
C 25.843904 146.011622 19.964838 148.446811 15.630783 152.780867 
C 11.296727 157.114922 8.861538 162.993988 8.861538 169.123268 
C 8.861538 175.252549 11.296727 181.131614 15.630783 185.46567 
C 19.964838 189.799726 25.843904 192.234914 31.973185 192.234914 
L 31.973185 192.234914 
z
" clip-path="url(#p9e017e81fc)" style="fill: none; stroke: #ffbf00; stroke-linejoin: miter"/>
   </g>
   <g id="patch_23">
    <path d="M 436.530697 243.600464 
C 440.616884 243.600464 444.536262 241.977005 447.425632 239.087635 
C 450.315002 236.198264 451.938462 232.278887 451.938462 228.1927 
C 451.938462 224.106514 450.315002 220.187136 447.425632 217.297766 
C 444.536262 214.408396 440.616884 212.784936 436.530697 212.784936 
C 432.444511 212.784936 428.525133 214.408396 425.635763 217.297766 
C 422.746393 220.187136 421.122933 224.106514 421.122933 228.1927 
C 421.122933 232.278887 422.746393 236.198264 425.635763 239.087635 
C 428.525133 241.977005 432.444511 243.600464 436.530697 243.600464 
L 436.530697 243.600464 
z
" clip-path="url(#p9e017e81fc)" style="fill: none; stroke: #ff00bf; stroke-linejoin: miter"/>
   </g>
   <g id="text_10">
    <!-- 0 -->
    <g transform="translate(28.791935 148.770997) scale(0.1 -0.1)">
     <defs>
      <path id="DejaVuSans-30" d="M 2034 4250 
Q 1547 4250 1301 3770 
Q 1056 3291 1056 2328 
Q 1056 1369 1301 889 
Q 1547 409 2034 409 
Q 2525 409 2770 889 
Q 3016 1369 3016 2328 
Q 3016 3291 2770 3770 
Q 2525 4250 2034 4250 
z
M 2034 4750 
Q 2819 4750 3233 4129 
Q 3647 3509 3647 2328 
Q 3647 1150 3233 529 
Q 2819 -91 2034 -91 
Q 1250 -91 836 529 
Q 422 1150 422 2328 
Q 422 3509 836 4129 
Q 1250 4750 2034 4750 
z
" transform="scale(0.015625)"/>
     </defs>
     <use xlink:href="#DejaVuSans-30"/>
    </g>
   </g>
   <g id="text_11">
    <!-- 1 -->
    <g transform="translate(232.317813 182.363502) scale(0.1 -0.1)">
     <defs>
      <path id="DejaVuSans-31" d="M 794 531 
L 1825 531 
L 1825 4091 
L 703 3866 
L 703 4441 
L 1819 4666 
L 2450 4666 
L 2450 531 
L 3481 531 
L 3481 0 
L 794 0 
L 794 531 
z
" transform="scale(0.015625)"/>
     </defs>
     <use xlink:href="#DejaVuSans-31"/>
    </g>
   </g>
   <g id="text_12">
    <!-- 2 -->
    <g transform="translate(433.349447 215.544311) scale(0.1 -0.1)">
     <defs>
      <path id="DejaVuSans-32" d="M 1228 531 
L 3431 531 
L 3431 0 
L 469 0 
L 469 531 
Q 828 903 1448 1529 
Q 2069 2156 2228 2338 
Q 2531 2678 2651 2914 
Q 2772 3150 2772 3378 
Q 2772 3750 2511 3984 
Q 2250 4219 1831 4219 
Q 1534 4219 1204 4116 
Q 875 4013 500 3803 
L 500 4441 
Q 881 4594 1212 4672 
Q 1544 4750 1819 4750 
Q 2544 4750 2975 4387 
Q 3406 4025 3406 3419 
Q 3406 3131 3298 2873 
Q 3191 2616 2906 2266 
Q 2828 2175 2409 1742 
Q 1991 1309 1228 531 
z
" transform="scale(0.015625)"/>
     </defs>
     <use xlink:href="#DejaVuSans-32"/>
    </g>
   </g>
  </g>
 </g>
 <defs>
  <clipPath id="p9e017e81fc">
   <rect x="0" y="99.167517" width="460.8" height="147.264966"/>
  </clipPath>
 </defs>
</svg>
