<?xml version="1.0" encoding="utf-8" standalone="no"?>
<!DOCTYPE svg PUBLIC "-//W3C//DTD SVG 1.1//EN"
  "http://www.w3.org/Graphics/SVG/1.1/DTD/svg11.dtd">
<svg xmlns:xlink="http://www.w3.org/1999/xlink" width="460.8pt" height="345.6pt" viewBox="0 0 460.8 345.6" xmlns="http://www.w3.org/2000/svg" version="1.1">
 <metadata>
  <rdf:RDF xmlns:dc="http://purl.org/dc/elements/1.1/" xmlns:cc="http://creativecommons.org/ns#" xmlns:rdf="http://www.w3.org/1999/02/22-rdf-syntax-ns#">
   <cc:Work>
    <dc:type rdf:resource="http://purl.org/dc/dcmitype/StillImage"/>
    <dc:date>2025-08-01T20:08:30.744704</dc:date>
    <dc:format>image/svg+xml</dc:format>
    <dc:creator>
     <cc:Agent>
      <dc:title>Matplotlib v3.10.3, https://matplotlib.org/</dc:title>
     </cc:Agent>
    </dc:creator>
   </cc:Work>
  </rdf:RDF>
 </metadata>
 <defs>
  <style type="text/css">*{stroke-linejoin: round; stroke-linecap: butt}</style>
 </defs>
 <g id="figure_1">
  <g id="patch_1">
   <path d="M 0 345.6 
L 460.8 345.6 
L 460.8 0 
L 0 0 
z
" style="fill: #ffffff"/>
  </g>
  <g id="axes_1">
   <g id="patch_2">
    <path d="M 81.15248 345.6 
L 379.64752 345.6 
L 379.64752 0 
L 81.15248 0 
z
" style="fill: #ffffff"/>
   </g>
   <g id="patch_3">
    <path d="M 265.963008 254.01231 
Q 326.295793 264.07099 355.989025 316.263074 
" clip-path="url(#p10ed05488b)" style="fill: none; stroke: #000000; stroke-linecap: round"/>
    <path d="M 354.79091 293.934515 
L 355.989025 316.263074 
L 337.407309 303.824431 
z
" clip-path="url(#p10ed05488b)" style="stroke: #000000; stroke-linecap: round"/>
   </g>
   <g id="patch_4">
    <path d="M 260.800343 263.172715 
Q 290.493575 315.364799 350.82636 325.423479 
" clip-path="url(#p10ed05488b)" style="fill: none; stroke: #000000; stroke-linecap: round"/>
    <path d="M 261.998458 285.501274 
L 260.800343 263.172715 
L 279.382059 275.611358 
z
" clip-path="url(#p10ed05488b)" style="stroke: #000000; stroke-linecap: round"/>
   </g>
   <g id="matplotlib.axis_1"/>
   <g id="matplotlib.axis_2"/>
   <g id="patch_5">
    <path d="M 242.882619 252.207382 
Q 198.267979 252.61404 154.771325 253.010507 
" clip-path="url(#p10ed05488b)" style="fill: none; stroke: #000000; stroke-linecap: round"/>
    <path d="M 174.86164 262.827802 
L 154.771325 253.010507 
L 174.679349 242.828633 
z
" clip-path="url(#p10ed05488b)" style="stroke: #000000; stroke-linecap: round"/>
   </g>
   <g id="patch_6">
    <path d="M 246.713894 243.478014 
Q 205.437989 197.772893 164.911425 152.897523 
" clip-path="url(#p10ed05488b)" style="fill: none; stroke: #000000; stroke-linecap: round"/>
    <path d="M 170.89453 174.442881 
L 164.911425 152.897523 
L 185.737575 161.038254 
z
" clip-path="url(#p10ed05488b)" style="stroke: #000000; stroke-linecap: round"/>
   </g>
   <g id="patch_7">
    <path d="M 143.685562 240.496525 
Q 149.204298 198.285457 154.867973 154.965789 
" clip-path="url(#p10ed05488b)" style="fill: none; stroke: #000000; stroke-linecap: round"/>
    <path d="M 156.193939 221.961679 
L 143.685562 240.496525 
L 136.362711 219.368916 
z
" clip-path="url(#p10ed05488b)" style="stroke: #000000; stroke-linecap: round"/>
   </g>
   <g id="patch_8">
    <path d="M 151.498988 132.897044 
Q 127.443305 80.854998 103.856727 29.827812 
" clip-path="url(#p10ed05488b)" style="fill: none; stroke: #000000; stroke-linecap: round"/>
    <path d="M 103.171137 52.177979 
L 103.856727 29.827812 
L 121.325507 43.786385 
z
" clip-path="url(#p10ed05488b)" style="stroke: #000000; stroke-linecap: round"/>
   </g>
   <g id="patch_9">
    <path d="M 254.50167 263.721009 
C 257.583206 263.721009 260.538946 262.496702 262.717921 260.317727 
C 264.896896 258.138752 266.121203 255.183012 266.121203 252.101476 
C 266.121203 249.01994 264.896896 246.0642 262.717921 243.885225 
C 260.538946 241.70625 257.583206 240.481943 254.50167 240.481943 
C 251.420134 240.481943 248.464394 241.70625 246.285419 243.885225 
C 244.106444 246.0642 242.882137 249.01994 242.882137 252.101476 
C 242.882137 255.183012 244.106444 258.138752 246.285419 260.317727 
C 248.464394 262.496702 251.420134 263.721009 254.50167 263.721009 
z
" style="fill: #fec7b8; stroke: #000000; stroke-linejoin: miter"/>
   </g>
   <g id="patch_10">
    <path d="M 142.034287 264.746137 
C 145.115823 264.746137 148.071563 263.52183 150.250538 261.342855 
C 152.429513 259.16388 153.65382 256.20814 153.65382 253.126604 
C 153.65382 250.045068 152.429513 247.089329 150.250538 244.910353 
C 148.071563 242.731378 145.115823 241.507071 142.034287 241.507071 
C 138.952751 241.507071 135.997012 242.731378 133.818036 244.910353 
C 131.639061 247.089329 130.414754 250.045068 130.414754 253.126604 
C 130.414754 256.20814 131.639061 259.16388 133.818036 261.342855 
C 135.997012 263.52183 138.952751 264.746137 142.034287 264.746137 
z
" style="fill: #fec7b8; stroke: #000000; stroke-linejoin: miter"/>
   </g>
   <g id="patch_11">
    <path d="M 156.374308 155.063842 
C 159.455844 155.063842 162.411584 153.839535 164.590559 151.66056 
C 166.769534 149.481585 167.993841 146.525845 167.993841 143.444309 
C 167.993841 140.362773 166.769534 137.407033 164.590559 135.228058 
C 162.411584 133.049083 159.455844 131.824776 156.374308 131.824776 
C 153.292772 131.824776 150.337033 133.049083 148.158057 135.228058 
C 145.979082 137.407033 144.754775 140.362773 144.754775 143.444309 
C 144.754775 146.525845 145.979082 149.481585 148.158057 151.66056 
C 150.337033 153.839535 153.292772 155.063842 156.374308 155.063842 
z
" style="fill: #fec7b8; stroke: #000000; stroke-linejoin: miter"/>
   </g>
   <g id="patch_12">
    <path d="M 362.287698 338.953846 
C 365.369234 338.953846 368.324973 337.729539 370.503949 335.550564 
C 372.682924 333.371589 373.907231 330.415849 373.907231 327.334313 
C 373.907231 324.252777 372.682924 321.297037 370.503949 319.118062 
C 368.324973 316.939087 365.369234 315.71478 362.287698 315.71478 
C 359.206162 315.71478 356.250422 316.939087 354.071447 319.118062 
C 351.892472 321.297037 350.668165 324.252777 350.668165 327.334313 
C 350.668165 330.415849 351.892472 333.371589 354.071447 335.550564 
C 356.250422 337.729539 359.206162 338.953846 362.287698 338.953846 
z
" style="fill: #fec7b8; stroke: #000000; stroke-linejoin: miter"/>
   </g>
   <g id="patch_13">
    <path d="M 98.512302 29.88522 
C 101.593838 29.88522 104.549578 28.660913 106.728553 26.481938 
C 108.907528 24.302963 110.131835 21.347223 110.131835 18.265687 
C 110.131835 15.184151 108.907528 12.228411 106.728553 10.049436 
C 104.549578 7.870461 101.593838 6.646154 98.512302 6.646154 
C 95.430766 6.646154 92.475027 7.870461 90.296051 10.049436 
C 88.117076 12.228411 86.892769 15.184151 86.892769 18.265687 
C 86.892769 21.347223 88.117076 24.302963 90.296051 26.481938 
C 92.475027 28.660913 95.430766 29.88522 98.512302 29.88522 
z
" style="fill: #fec7b8; stroke: #000000; stroke-linejoin: miter"/>
   </g>
   <g id="text_1">
    <!-- 0 -->
    <g transform="translate(248.13917 257.620226) scale(0.2 -0.2)">
     <defs>
      <path id="DejaVuSans-30" d="M 2034 4250 
Q 1547 4250 1301 3770 
Q 1056 3291 1056 2328 
Q 1056 1369 1301 889 
Q 1547 409 2034 409 
Q 2525 409 2770 889 
Q 3016 1369 3016 2328 
Q 3016 3291 2770 3770 
Q 2525 4250 2034 4250 
z
M 2034 4750 
Q 2819 4750 3233 4129 
Q 3647 3509 3647 2328 
Q 3647 1150 3233 529 
Q 2819 -91 2034 -91 
Q 1250 -91 836 529 
Q 422 1150 422 2328 
Q 422 3509 836 4129 
Q 1250 4750 2034 4750 
z
" transform="scale(0.015625)"/>
     </defs>
     <use xlink:href="#DejaVuSans-30"/>
    </g>
   </g>
   <g id="text_2">
    <!-- 1 -->
    <g transform="translate(135.671787 258.645354) scale(0.2 -0.2)">
     <defs>
      <path id="DejaVuSans-31" d="M 794 531 
L 1825 531 
L 1825 4091 
L 703 3866 
L 703 4441 
L 1819 4666 
L 2450 4666 
L 2450 531 
L 3481 531 
L 3481 0 
L 794 0 
L 794 531 
z
" transform="scale(0.015625)"/>
     </defs>
     <use xlink:href="#DejaVuSans-31"/>
    </g>
   </g>
   <g id="text_3">
    <!-- 2 -->
    <g transform="translate(150.011808 148.963059) scale(0.2 -0.2)">
     <defs>
      <path id="DejaVuSans-32" d="M 1228 531 
L 3431 531 
L 3431 0 
L 469 0 
L 469 531 
Q 828 903 1448 1529 
Q 2069 2156 2228 2338 
Q 2531 2678 2651 2914 
Q 2772 3150 2772 3378 
Q 2772 3750 2511 3984 
Q 2250 4219 1831 4219 
Q 1534 4219 1204 4116 
Q 875 4013 500 3803 
L 500 4441 
Q 881 4594 1212 4672 
Q 1544 4750 1819 4750 
Q 2544 4750 2975 4387 
Q 3406 4025 3406 3419 
Q 3406 3131 3298 2873 
Q 3191 2616 2906 2266 
Q 2828 2175 2409 1742 
Q 1991 1309 1228 531 
z
" transform="scale(0.015625)"/>
     </defs>
     <use xlink:href="#DejaVuSans-32"/>
    </g>
   </g>
   <g id="text_4">
    <!-- 3 -->
    <g transform="translate(355.925198 332.853063) scale(0.2 -0.2)">
     <defs>
      <path id="DejaVuSans-33" d="M 2597 2516 
Q 3050 2419 3304 2112 
Q 3559 1806 3559 1356 
Q 3559 666 3084 287 
Q 2609 -91 1734 -91 
Q 1441 -91 1130 -33 
Q 819 25 488 141 
L 488 750 
Q 750 597 1062 519 
Q 1375 441 1716 441 
Q 2309 441 2620 675 
Q 2931 909 2931 1356 
Q 2931 1769 2642 2001 
Q 2353 2234 1838 2234 
L 1294 2234 
L 1294 2753 
L 1863 2753 
Q 2328 2753 2575 2939 
Q 2822 3125 2822 3475 
Q 2822 3834 2567 4026 
Q 2313 4219 1838 4219 
Q 1578 4219 1281 4162 
Q 984 4106 628 3988 
L 628 4550 
Q 988 4650 1302 4700 
Q 1616 4750 1894 4750 
Q 2613 4750 3031 4423 
Q 3450 4097 3450 3541 
Q 3450 3153 3228 2886 
Q 3006 2619 2597 2516 
z
" transform="scale(0.015625)"/>
     </defs>
     <use xlink:href="#DejaVuSans-33"/>
    </g>
   </g>
   <g id="text_5">
    <!-- 4 -->
    <g transform="translate(92.149802 23.784437) scale(0.2 -0.2)">
     <defs>
      <path id="DejaVuSans-34" d="M 2419 4116 
L 825 1625 
L 2419 1625 
L 2419 4116 
z
M 2253 4666 
L 3047 4666 
L 3047 1625 
L 3713 1625 
L 3713 1100 
L 3047 1100 
L 3047 0 
L 2419 0 
L 2419 1100 
L 313 1100 
L 313 1709 
L 2253 4666 
z
" transform="scale(0.015625)"/>
     </defs>
     <use xlink:href="#DejaVuSans-34"/>
    </g>
   </g>
  </g>
 </g>
 <defs>
  <clipPath id="p10ed05488b">
   <rect x="81.15248" y="0" width="298.495041" height="345.6"/>
  </clipPath>
 </defs>
</svg>
