<?xml version="1.0" encoding="utf-8" standalone="no"?>
<!DOCTYPE svg PUBLIC "-//W3C//DTD SVG 1.1//EN"
  "http://www.w3.org/Graphics/SVG/1.1/DTD/svg11.dtd">
<svg xmlns:xlink="http://www.w3.org/1999/xlink" width="460.8pt" height="345.6pt" viewBox="0 0 460.8 345.6" xmlns="http://www.w3.org/2000/svg" version="1.1">
 <metadata>
  <rdf:RDF xmlns:dc="http://purl.org/dc/elements/1.1/" xmlns:cc="http://creativecommons.org/ns#" xmlns:rdf="http://www.w3.org/1999/02/22-rdf-syntax-ns#">
   <cc:Work>
    <dc:type rdf:resource="http://purl.org/dc/dcmitype/StillImage"/>
    <dc:date>2025-12-05T15:07:12.109226</dc:date>
    <dc:format>image/svg+xml</dc:format>
    <dc:creator>
     <cc:Agent>
      <dc:title>Matplotlib v3.10.7, https://matplotlib.org/</dc:title>
     </cc:Agent>
    </dc:creator>
   </cc:Work>
  </rdf:RDF>
 </metadata>
 <defs>
  <style type="text/css">*{stroke-linejoin: round; stroke-linecap: butt}</style>
 </defs>
 <g id="figure_1">
  <g id="patch_1">
   <path d="M 0 345.6 
L 460.8 345.6 
L 460.8 0 
L 0 0 
z
" style="fill: #ffffff"/>
  </g>
  <g id="axes_1">
   <g id="patch_2">
    <path d="M 0 284.09828 
L 460.8 284.09828 
L 460.8 61.50172 
L 0 61.50172 
z
" style="fill: #ffffff"/>
   </g>
   <g id="patch_3">
    <path d="M 420.836162 91.493237 
Q 339.512073 156.462946 236.935209 165.471594 
" clip-path="url(#pf73294b0d2)" style="fill: none; stroke: #7fff00; stroke-linecap: round"/>
    <path d="M 247.334299 169.577556 
L 236.935209 165.471594 
L 246.459433 159.615899 
z
" clip-path="url(#pf73294b0d2)" style="fill: #7fff00; stroke: #7fff00; stroke-linecap: round"/>
   </g>
   <g id="patch_4">
    <path d="M 418.998243 86.902802 
Q 315.307633 96.009264 234.857051 160.281129 
" clip-path="url(#pf73294b0d2)" style="fill: none; stroke: #7fff00; stroke-linecap: round"/>
    <path d="M 245.790786 157.945868 
L 234.857051 160.281129 
L 239.549083 150.132984 
z
" clip-path="url(#pf73294b0d2)" style="fill: #7fff00; stroke: #7fff00; stroke-linecap: round"/>
   </g>
   <g id="patch_5">
    <path d="M 422.364949 92.980739 
Q 351.614293 186.689787 236.844985 167.881761 
" clip-path="url(#pf73294b0d2)" style="fill: none; stroke: #00ff3f; stroke-linecap: round"/>
    <path d="M 245.904755 174.433141 
L 236.844985 167.881761 
L 247.521951 164.564773 
z
" clip-path="url(#pf73294b0d2)" style="fill: #00ff3f; stroke: #00ff3f; stroke-linecap: round"/>
   </g>
   <g id="patch_6">
    <path d="M 419.078037 84.771257 
Q 303.205413 65.782423 233.128431 158.599191 
" clip-path="url(#pf73294b0d2)" style="fill: none; stroke: #00ffff; stroke-linecap: round"/>
    <path d="M 243.144352 153.631162 
L 233.128431 158.599191 
L 235.16356 147.605636 
z
" clip-path="url(#pf73294b0d2)" style="fill: #00ffff; stroke: #00ffff; stroke-linecap: round"/>
   </g>
   <g id="matplotlib.axis_1"/>
   <g id="matplotlib.axis_2"/>
   <g id="patch_7">
    <path d="M 218.322451 169.912494 
Q 126.221123 206.787858 33.081861 244.078788 
" clip-path="url(#pf73294b0d2)" style="fill: none; stroke: #7f00ff; stroke-linecap: round"/>
    <path d="M 207.180429 168.98765 
L 218.322451 169.912494 
L 210.897362 178.271205 
z
" clip-path="url(#pf73294b0d2)" style="fill: #7f00ff; stroke: #7f00ff; stroke-linecap: round"/>
   </g>
   <g id="patch_8">
    <path d="M 419.578251 89.333729 
Q 327.409853 126.236105 236.279387 162.722913 
" clip-path="url(#pf73294b0d2)" style="fill: none; stroke: #003fff; stroke-linecap: round"/>
    <path d="M 247.421411 163.647741 
L 236.279387 162.722913 
L 243.704464 154.364191 
z
" clip-path="url(#pf73294b0d2)" style="fill: #003fff; stroke: #003fff; stroke-linecap: round"/>
   </g>
   <g id="text_1">
    <g id="patch_9">
     <path d="M 420.344565 127.553133 
L 434.693002 127.553133 
L 434.693002 109.875008 
L 420.344565 109.875008 
z
" style="fill: #ffffff; stroke: #ffffff; stroke-linejoin: miter"/>
    </g>
    <!-- b -->
    <g style="fill: #0000ff" transform="translate(424.344565 121.473445) scale(0.1 -0.1)">
     <defs>
      <path id="DejaVuSans-62" d="M 3116 1747 
Q 3116 2381 2855 2742 
Q 2594 3103 2138 3103 
Q 1681 3103 1420 2742 
Q 1159 2381 1159 1747 
Q 1159 1113 1420 752 
Q 1681 391 2138 391 
Q 2594 391 2855 752 
Q 3116 1113 3116 1747 
z
M 1159 2969 
Q 1341 3281 1617 3432 
Q 1894 3584 2278 3584 
Q 2916 3584 3314 3078 
Q 3713 2572 3713 1747 
Q 3713 922 3314 415 
Q 2916 -91 2278 -91 
Q 1894 -91 1617 61 
Q 1341 213 1159 525 
L 1159 0 
L 581 0 
L 581 4863 
L 1159 4863 
L 1159 2969 
z
" transform="scale(0.015625)"/>
     </defs>
     <use xlink:href="#DejaVuSans-62"/>
    </g>
   </g>
   <g id="text_2">
    <g id="patch_10">
     <path d="M 420.454721 143.832918 
L 434.582846 143.832918 
L 434.582846 126.154793 
L 420.454721 126.154793 
z
" style="fill: #ffffff; stroke: #ffffff; stroke-linejoin: miter"/>
    </g>
    <!-- a -->
    <g style="fill: #0000ff" transform="translate(424.454721 137.75323) scale(0.1 -0.1)">
     <defs>
      <path id="DejaVuSans-61" d="M 2194 1759 
Q 1497 1759 1228 1600 
Q 959 1441 959 1056 
Q 959 750 1161 570 
Q 1363 391 1709 391 
Q 2188 391 2477 730 
Q 2766 1069 2766 1631 
L 2766 1759 
L 2194 1759 
z
M 3341 1997 
L 3341 0 
L 2766 0 
L 2766 531 
Q 2569 213 2275 61 
Q 1981 -91 1556 -91 
Q 1019 -91 701 211 
Q 384 513 384 1019 
Q 384 1609 779 1909 
Q 1175 2209 1959 2209 
L 2766 2209 
L 2766 2266 
Q 2766 2663 2505 2880 
Q 2244 3097 1772 3097 
Q 1472 3097 1187 3025 
Q 903 2953 641 2809 
L 641 3341 
Q 956 3463 1253 3523 
Q 1550 3584 1831 3584 
Q 2591 3584 2966 3190 
Q 3341 2797 3341 1997 
z
" transform="scale(0.015625)"/>
     </defs>
     <use xlink:href="#DejaVuSans-61"/>
    </g>
   </g>
   <g id="text_3">
    <g id="patch_11">
     <path d="M 327.700806 150.188588 
L 339.221119 150.188588 
L 339.221119 132.510463 
L 327.700806 132.510463 
z
" style="fill: #ffffff; stroke: #ffffff; stroke-linejoin: miter"/>
    </g>
    <!-- f -->
    <g style="fill: #0000ff" transform="translate(331.700806 144.1089) scale(0.1 -0.1)">
     <defs>
      <path id="DejaVuSans-66" d="M 2375 4863 
L 2375 4384 
L 1825 4384 
Q 1516 4384 1395 4259 
Q 1275 4134 1275 3809 
L 1275 3500 
L 2222 3500 
L 2222 3053 
L 1275 3053 
L 1275 0 
L 697 0 
L 697 3053 
L 147 3053 
L 147 3500 
L 697 3500 
L 697 3744 
Q 697 4328 969 4595 
Q 1241 4863 1831 4863 
L 2375 4863 
z
" transform="scale(0.015625)"/>
     </defs>
     <use xlink:href="#DejaVuSans-66"/>
    </g>
   </g>
   <g id="text_4">
    <g id="patch_12">
     <path d="M 315.598586 119.961747 
L 327.118899 119.961747 
L 327.118899 102.283622 
L 315.598586 102.283622 
z
" style="fill: #ffffff; stroke: #ffffff; stroke-linejoin: miter"/>
    </g>
    <!-- f -->
    <g style="fill: #0000ff" transform="translate(319.598586 113.882059) scale(0.1 -0.1)">
     <use xlink:href="#DejaVuSans-66"/>
    </g>
   </g>
   <g id="text_5">
    <g id="patch_13">
     <path d="M 332.43551 165.302008 
L 346.588635 165.302008 
L 346.588635 147.623883 
L 332.43551 147.623883 
z
" style="fill: #ffffff; stroke: #ffffff; stroke-linejoin: miter"/>
    </g>
    <!-- e -->
    <g style="fill: #0000ff" transform="translate(336.43551 159.222321) scale(0.1 -0.1)">
     <defs>
      <path id="DejaVuSans-65" d="M 3597 1894 
L 3597 1613 
L 953 1613 
Q 991 1019 1311 708 
Q 1631 397 2203 397 
Q 2534 397 2845 478 
Q 3156 559 3463 722 
L 3463 178 
Q 3153 47 2828 -22 
Q 2503 -91 2169 -91 
Q 1331 -91 842 396 
Q 353 884 353 1716 
Q 353 2575 817 3079 
Q 1281 3584 2069 3584 
Q 2775 3584 3186 3129 
Q 3597 2675 3597 1894 
z
M 3022 2063 
Q 3016 2534 2758 2815 
Q 2500 3097 2075 3097 
Q 1594 3097 1305 2825 
Q 1016 2553 972 2059 
L 3022 2063 
z
" transform="scale(0.015625)"/>
     </defs>
     <use xlink:href="#DejaVuSans-65"/>
    </g>
   </g>
   <g id="text_6">
    <g id="patch_14">
     <path d="M 308.133414 104.848326 
L 322.481851 104.848326 
L 322.481851 87.170201 
L 308.133414 87.170201 
z
" style="fill: #ffffff; stroke: #ffffff; stroke-linejoin: miter"/>
    </g>
    <!-- d -->
    <g style="fill: #0000ff" transform="translate(312.133414 98.768639) scale(0.1 -0.1)">
     <defs>
      <path id="DejaVuSans-64" d="M 2906 2969 
L 2906 4863 
L 3481 4863 
L 3481 0 
L 2906 0 
L 2906 525 
Q 2725 213 2448 61 
Q 2172 -91 1784 -91 
Q 1150 -91 751 415 
Q 353 922 353 1747 
Q 353 2572 751 3078 
Q 1150 3584 1784 3584 
Q 2172 3584 2448 3432 
Q 2725 3281 2906 2969 
z
M 947 1747 
Q 947 1113 1208 752 
Q 1469 391 1925 391 
Q 2381 391 2643 752 
Q 2906 1113 2906 1747 
Q 2906 2381 2643 2742 
Q 2381 3103 1925 3103 
Q 1469 3103 1208 2742 
Q 947 2381 947 1747 
z
" transform="scale(0.015625)"/>
     </defs>
     <use xlink:href="#DejaVuSans-64"/>
    </g>
   </g>
   <g id="text_7">
    <g id="patch_15">
     <path d="M 17.972574 288.656639 
L 32.310074 288.656639 
L 32.310074 270.978514 
L 17.972574 270.978514 
z
" style="fill: #ffffff; stroke: #ffffff; stroke-linejoin: miter"/>
    </g>
    <!-- h -->
    <g style="fill: #0000ff" transform="translate(21.972574 282.576952) scale(0.1 -0.1)">
     <defs>
      <path id="DejaVuSans-68" d="M 3513 2113 
L 3513 0 
L 2938 0 
L 2938 2094 
Q 2938 2591 2744 2837 
Q 2550 3084 2163 3084 
Q 1697 3084 1428 2787 
Q 1159 2491 1159 1978 
L 1159 0 
L 581 0 
L 581 4863 
L 1159 4863 
L 1159 2956 
Q 1366 3272 1645 3428 
Q 1925 3584 2291 3584 
Q 2894 3584 3203 3211 
Q 3513 2838 3513 2113 
z
" transform="scale(0.015625)"/>
     </defs>
     <use xlink:href="#DejaVuSans-68"/>
    </g>
   </g>
   <g id="text_8">
    <g id="patch_16">
     <path d="M 119.046904 215.626921 
L 133.395342 215.626921 
L 133.395342 197.948796 
L 119.046904 197.948796 
z
" style="fill: #ffffff; stroke: #ffffff; stroke-linejoin: miter"/>
    </g>
    <!-- g -->
    <g style="fill: #0000ff" transform="translate(123.046904 209.547233) scale(0.1 -0.1)">
     <defs>
      <path id="DejaVuSans-67" d="M 2906 1791 
Q 2906 2416 2648 2759 
Q 2391 3103 1925 3103 
Q 1463 3103 1205 2759 
Q 947 2416 947 1791 
Q 947 1169 1205 825 
Q 1463 481 1925 481 
Q 2391 481 2648 825 
Q 2906 1169 2906 1791 
z
M 3481 434 
Q 3481 -459 3084 -895 
Q 2688 -1331 1869 -1331 
Q 1566 -1331 1297 -1286 
Q 1028 -1241 775 -1147 
L 775 -588 
Q 1028 -725 1275 -790 
Q 1522 -856 1778 -856 
Q 2344 -856 2625 -561 
Q 2906 -266 2906 331 
L 2906 616 
Q 2728 306 2450 153 
Q 2172 0 1784 0 
Q 1141 0 747 490 
Q 353 981 353 1791 
Q 353 2603 747 3093 
Q 1141 3584 1784 3584 
Q 2172 3584 2450 3431 
Q 2728 3278 2906 2969 
L 2906 3500 
L 3481 3500 
L 3481 434 
z
" transform="scale(0.015625)"/>
     </defs>
     <use xlink:href="#DejaVuSans-67"/>
    </g>
   </g>
   <g id="text_9">
    <g id="patch_17">
     <path d="M 320.660634 135.075167 
L 334.159071 135.075167 
L 334.159071 117.397042 
L 320.660634 117.397042 
z
" style="fill: #ffffff; stroke: #ffffff; stroke-linejoin: miter"/>
    </g>
    <!-- c -->
    <g style="fill: #0000ff" transform="translate(324.660634 128.99548) scale(0.1 -0.1)">
     <defs>
      <path id="DejaVuSans-63" d="M 3122 3366 
L 3122 2828 
Q 2878 2963 2633 3030 
Q 2388 3097 2138 3097 
Q 1578 3097 1268 2742 
Q 959 2388 959 1747 
Q 959 1106 1268 751 
Q 1578 397 2138 397 
Q 2388 397 2633 464 
Q 2878 531 3122 666 
L 3122 134 
Q 2881 22 2623 -34 
Q 2366 -91 2075 -91 
Q 1284 -91 818 406 
Q 353 903 353 1747 
Q 353 2603 823 3093 
Q 1294 3584 2113 3584 
Q 2378 3584 2631 3529 
Q 2884 3475 3122 3366 
z
" transform="scale(0.015625)"/>
     </defs>
     <use xlink:href="#DejaVuSans-63"/>
    </g>
   </g>
   <g id="patch_18">
    <path d="M 427.518784 94.707836 
C 429.787155 94.707836 431.962925 93.806602 433.566906 92.202621 
C 435.170886 90.598641 436.07212 88.422871 436.07212 86.154499 
C 436.07212 83.886128 435.170886 81.710358 433.566906 80.106377 
C 431.962925 78.502397 429.787155 77.601163 427.518784 77.601163 
C 425.250412 77.601163 423.074642 78.502397 421.470662 80.106377 
C 419.866681 81.710358 418.965447 83.886128 418.965447 86.154499 
C 418.965447 88.422871 419.866681 90.598641 421.470662 92.202621 
C 423.074642 93.806602 425.250412 94.707836 427.518784 94.707836 
z
" style="fill: #fec7b8; stroke: #000000; stroke-linejoin: miter"/>
   </g>
   <g id="patch_19">
    <path d="M 227.300922 174.871046 
C 229.569293 174.871046 231.745063 173.969813 233.349044 172.365832 
C 234.953025 170.761852 235.854258 168.586082 235.854258 166.31771 
C 235.854258 164.049339 234.953025 161.873569 233.349044 160.269588 
C 231.745063 158.665608 229.569293 157.764374 227.300922 157.764374 
C 225.032551 157.764374 222.85678 158.665608 221.2528 160.269588 
C 219.648819 161.873569 218.747586 164.049339 218.747586 166.31771 
C 218.747586 168.586082 219.648819 170.761852 221.2528 172.365832 
C 222.85678 173.969813 225.032551 174.871046 227.300922 174.871046 
z
" style="fill: #fec7b8; stroke: #000000; stroke-linejoin: miter"/>
   </g>
   <g id="patch_20">
    <path d="M 25.141324 255.811343 
C 27.409695 255.811343 29.585465 254.910109 31.189446 253.306128 
C 32.793427 251.702148 33.69466 249.526378 33.69466 247.258006 
C 33.69466 244.989635 32.793427 242.813865 31.189446 241.209884 
C 29.585465 239.605904 27.409695 238.70467 25.141324 238.70467 
C 22.872953 238.70467 20.697182 239.605904 19.093202 241.209884 
C 17.489221 242.813865 16.587988 244.989635 16.587988 247.258006 
C 16.587988 249.526378 17.489221 251.702148 19.093202 253.306128 
C 20.697182 254.910109 22.872953 255.811343 25.141324 255.811343 
z
" style="fill: #fec7b8; stroke: #000000; stroke-linejoin: miter"/>
   </g>
   <g id="patch_21">
    <path d="M 427.518784 118.71407 
C 431.836233 118.71407 435.977432 116.998729 439.03033 113.945831 
C 442.083228 110.892933 443.798569 106.751734 443.798569 102.434285 
C 443.798569 98.116835 442.083228 93.975636 439.03033 90.922738 
C 435.977432 87.86984 431.836233 86.154499 427.518784 86.154499 
C 423.201334 86.154499 419.060135 87.86984 416.007237 90.922738 
C 412.954339 93.975636 411.238998 98.116835 411.238998 102.434285 
C 411.238998 106.751734 412.954339 110.892933 416.007237 113.945831 
C 419.060135 116.998729 423.201334 118.71407 427.518784 118.71407 
L 427.518784 118.71407 
z
" clip-path="url(#pf73294b0d2)" style="fill: none; stroke: #ff0000; stroke-linejoin: miter"/>
   </g>
   <g id="patch_22">
    <path d="M 427.518784 134.993855 
C 433.994958 134.993855 440.206757 132.420844 444.786103 127.841497 
C 449.36545 123.262151 451.938462 117.050352 451.938462 110.574177 
C 451.938462 104.098003 449.36545 97.886204 444.786103 93.306857 
C 440.206757 88.727511 433.994958 86.154499 427.518784 86.154499 
C 421.042609 86.154499 414.83081 88.727511 410.251464 93.306857 
C 405.672117 97.886204 403.099106 104.098003 403.099106 110.574177 
C 403.099106 117.050352 405.672117 123.262151 410.251464 127.841497 
C 414.83081 132.420844 421.042609 134.993855 427.518784 134.993855 
L 427.518784 134.993855 
z
" clip-path="url(#pf73294b0d2)" style="fill: none; stroke: #ffbf00; stroke-linejoin: miter"/>
   </g>
   <g id="patch_23">
    <path d="M 25.141324 279.817577 
C 29.458773 279.817577 33.599973 278.102236 36.65287 275.049338 
C 39.705768 271.99644 41.421109 267.855241 41.421109 263.537792 
C 41.421109 259.220342 39.705768 255.079143 36.65287 252.026245 
C 33.599973 248.973347 29.458773 247.258006 25.141324 247.258006 
C 20.823874 247.258006 16.682675 248.973347 13.629777 252.026245 
C 10.576879 255.079143 8.861538 259.220342 8.861538 263.537792 
C 8.861538 267.855241 10.576879 271.99644 13.629777 275.049338 
C 16.682675 278.102236 20.823874 279.817577 25.141324 279.817577 
L 25.141324 279.817577 
z
" clip-path="url(#pf73294b0d2)" style="fill: none; stroke: #ff00bf; stroke-linejoin: miter"/>
   </g>
   <g id="text_10">
    <!-- 0 -->
    <g transform="translate(424.337534 88.913874) scale(0.1 -0.1)">
     <defs>
      <path id="DejaVuSans-30" d="M 2034 4250 
Q 1547 4250 1301 3770 
Q 1056 3291 1056 2328 
Q 1056 1369 1301 889 
Q 1547 409 2034 409 
Q 2525 409 2770 889 
Q 3016 1369 3016 2328 
Q 3016 3291 2770 3770 
Q 2525 4250 2034 4250 
z
M 2034 4750 
Q 2819 4750 3233 4129 
Q 3647 3509 3647 2328 
Q 3647 1150 3233 529 
Q 2819 -91 2034 -91 
Q 1250 -91 836 529 
Q 422 1150 422 2328 
Q 422 3509 836 4129 
Q 1250 4750 2034 4750 
z
" transform="scale(0.015625)"/>
     </defs>
     <use xlink:href="#DejaVuSans-30"/>
    </g>
   </g>
   <g id="text_11">
    <!-- 1 -->
    <g transform="translate(224.119672 169.077085) scale(0.1 -0.1)">
     <defs>
      <path id="DejaVuSans-31" d="M 794 531 
L 1825 531 
L 1825 4091 
L 703 3866 
L 703 4441 
L 1819 4666 
L 2450 4666 
L 2450 531 
L 3481 531 
L 3481 0 
L 794 0 
L 794 531 
z
" transform="scale(0.015625)"/>
     </defs>
     <use xlink:href="#DejaVuSans-31"/>
    </g>
   </g>
   <g id="text_12">
    <!-- 2 -->
    <g transform="translate(21.960074 250.017381) scale(0.1 -0.1)">
     <defs>
      <path id="DejaVuSans-32" d="M 1228 531 
L 3431 531 
L 3431 0 
L 469 0 
L 469 531 
Q 828 903 1448 1529 
Q 2069 2156 2228 2338 
Q 2531 2678 2651 2914 
Q 2772 3150 2772 3378 
Q 2772 3750 2511 3984 
Q 2250 4219 1831 4219 
Q 1534 4219 1204 4116 
Q 875 4013 500 3803 
L 500 4441 
Q 881 4594 1212 4672 
Q 1544 4750 1819 4750 
Q 2544 4750 2975 4387 
Q 3406 4025 3406 3419 
Q 3406 3131 3298 2873 
Q 3191 2616 2906 2266 
Q 2828 2175 2409 1742 
Q 1991 1309 1228 531 
z
" transform="scale(0.015625)"/>
     </defs>
     <use xlink:href="#DejaVuSans-32"/>
    </g>
   </g>
  </g>
 </g>
 <defs>
  <clipPath id="pf73294b0d2">
   <rect x="0" y="61.50172" width="460.8" height="222.59656"/>
  </clipPath>
 </defs>
</svg>
