<?xml version="1.0" encoding="utf-8" standalone="no"?>
<!DOCTYPE svg PUBLIC "-//W3C//DTD SVG 1.1//EN"
  "http://www.w3.org/Graphics/SVG/1.1/DTD/svg11.dtd">
<svg xmlns:xlink="http://www.w3.org/1999/xlink" width="460.8pt" height="345.6pt" viewBox="0 0 460.8 345.6" xmlns="http://www.w3.org/2000/svg" version="1.1">
 <metadata>
  <rdf:RDF xmlns:dc="http://purl.org/dc/elements/1.1/" xmlns:cc="http://creativecommons.org/ns#" xmlns:rdf="http://www.w3.org/1999/02/22-rdf-syntax-ns#">
   <cc:Work>
    <dc:type rdf:resource="http://purl.org/dc/dcmitype/StillImage"/>
    <dc:date>2025-08-07T23:29:21.306349</dc:date>
    <dc:format>image/svg+xml</dc:format>
    <dc:creator>
     <cc:Agent>
      <dc:title>Matplotlib v3.10.3, https://matplotlib.org/</dc:title>
     </cc:Agent>
    </dc:creator>
   </cc:Work>
  </rdf:RDF>
 </metadata>
 <defs>
  <style type="text/css">*{stroke-linejoin: round; stroke-linecap: butt}</style>
 </defs>
 <g id="figure_1">
  <g id="patch_1">
   <path d="M 0 345.6 
L 460.8 345.6 
L 460.8 0 
L 0 0 
z
" style="fill: #ffffff"/>
  </g>
  <g id="axes_1">
   <g id="patch_2">
    <path d="M 0 218.269294 
L 460.8 218.269294 
L 460.8 127.330706 
L 0 127.330706 
z
" style="fill: #ffffff"/>
   </g>
   <g id="patch_3">
    <path d="M 246.445602 177.468027 
Q 274.696608 197.967265 296.549006 172.198844 
" clip-path="url(#p2baad04da0)" style="fill: none; stroke: #ff0000; stroke-linecap: round"/>
    <path d="M 286.267847 176.591767 
L 296.549006 172.198844 
L 293.894649 183.059525 
z
" clip-path="url(#p2baad04da0)" style="fill: #ff0000; stroke: #ff0000; stroke-linecap: round"/>
   </g>
   <g id="patch_4">
    <path d="M 245.250795 160.6919 
Q 267.103193 134.923478 295.354199 155.422716 
" clip-path="url(#p2baad04da0)" style="fill: none; stroke: #00ffff; stroke-linecap: round"/>
    <path d="M 255.531954 156.298977 
L 245.250795 160.6919 
L 247.905152 149.831219 
z
" clip-path="url(#p2baad04da0)" style="fill: #00ffff; stroke: #00ffff; stroke-linecap: round"/>
   </g>
   <g id="patch_5">
    <path d="M 228.037731 179.93427 
Q 202.143995 207.384332 168.827809 187.393008 
" clip-path="url(#p2baad04da0)" style="fill: none; stroke: #ff0000; stroke-linecap: round"/>
    <path d="M 217.538747 183.77762 
L 228.037731 179.93427 
L 224.813021 190.639467 
z
" clip-path="url(#p2baad04da0)" style="fill: #ff0000; stroke: #ff0000; stroke-linecap: round"/>
   </g>
   <g id="patch_6">
    <path d="M 226.784479 164.471671 
Q 193.468293 144.480348 167.574558 171.93041 
" clip-path="url(#p2baad04da0)" style="fill: none; stroke: #00ffff; stroke-linecap: round"/>
    <path d="M 178.073542 168.087059 
L 167.574558 171.93041 
L 170.799268 161.225213 
z
" clip-path="url(#p2baad04da0)" style="fill: #00ffff; stroke: #00ffff; stroke-linecap: round"/>
   </g>
   <g id="patch_7">
    <path d="M 149.58136 190.454083 
Q 123.508947 216.520475 92.114259 195.13614 
" clip-path="url(#p2baad04da0)" style="fill: none; stroke: #ff0000; stroke-linecap: round"/>
    <path d="M 138.97435 193.988392 
L 149.58136 190.454083 
L 146.044601 201.060276 
z
" clip-path="url(#p2baad04da0)" style="fill: #ff0000; stroke: #ff0000; stroke-linecap: round"/>
   </g>
   <g id="patch_8">
    <path d="M 148.964858 174.683689 
Q 117.57017 153.299355 91.497757 179.365746 
" clip-path="url(#p2baad04da0)" style="fill: none; stroke: #00ffff; stroke-linecap: round"/>
    <path d="M 102.104767 175.831437 
L 91.497757 179.365746 
L 95.034516 168.759553 
z
" clip-path="url(#p2baad04da0)" style="fill: #00ffff; stroke: #00ffff; stroke-linecap: round"/>
   </g>
   <g id="patch_9">
    <path d="M 366.706176 168.26039 
Q 341.812639 192.518539 314.034066 169.814596 
" clip-path="url(#p2baad04da0)" style="fill: none; stroke: #ff0000; stroke-linecap: round"/>
    <path d="M 356.05476 171.658528 
L 366.706176 168.26039 
L 363.033836 178.820405 
z
" clip-path="url(#p2baad04da0)" style="fill: #ff0000; stroke: #ff0000; stroke-linecap: round"/>
   </g>
   <g id="patch_10">
    <path d="M 366.821622 151.783469 
Q 339.04305 129.079525 314.149513 153.337674 
" clip-path="url(#p2baad04da0)" style="fill: none; stroke: #00ffff; stroke-linecap: round"/>
    <path d="M 324.800929 149.939537 
L 314.149513 153.337674 
L 317.821852 142.777659 
z
" clip-path="url(#p2baad04da0)" style="fill: #00ffff; stroke: #00ffff; stroke-linecap: round"/>
   </g>
   <g id="matplotlib.axis_1"/>
   <g id="matplotlib.axis_2"/>
   <g id="patch_11">
    <path d="M 427.2302 158.786221 
Q 408.048844 158.958974 387.749499 159.141795 
" clip-path="url(#p2baad04da0)" style="fill: none; stroke: #ff0000; stroke-linecap: round"/>
    <path d="M 417.185576 153.876483 
L 427.2302 158.786221 
L 417.275635 163.876077 
z
" clip-path="url(#p2baad04da0)" style="fill: #ff0000; stroke: #ff0000; stroke-linecap: round"/>
   </g>
   <g id="patch_12">
    <path d="M 70.607536 189.434019 
Q 51.511229 190.957707 33.529413 192.39247 
" clip-path="url(#p2baad04da0)" style="fill: none; stroke: #00ffff; stroke-linecap: round"/>
    <path d="M 43.895417 196.581261 
L 33.529413 192.39247 
L 43.100048 186.612942 
z
" clip-path="url(#p2baad04da0)" style="fill: #00ffff; stroke: #00ffff; stroke-linecap: round"/>
   </g>
   <g id="text_1">
    <g id="patch_13">
     <path d="M 265.624036 191.045381 
L 279.972473 191.045381 
L 279.972473 173.367256 
L 265.624036 173.367256 
z
" style="fill: #ffffff; stroke: #ffffff; stroke-linejoin: miter"/>
    </g>
    <!-- b -->
    <g style="fill: #0000ff" transform="translate(269.624036 184.965694) scale(0.1 -0.1)">
     <defs>
      <path id="DejaVuSans-62" d="M 3116 1747 
Q 3116 2381 2855 2742 
Q 2594 3103 2138 3103 
Q 1681 3103 1420 2742 
Q 1159 2381 1159 1747 
Q 1159 1113 1420 752 
Q 1681 391 2138 391 
Q 2594 391 2855 752 
Q 3116 1113 3116 1747 
z
M 1159 2969 
Q 1341 3281 1617 3432 
Q 1894 3584 2278 3584 
Q 2916 3584 3314 3078 
Q 3713 2572 3713 1747 
Q 3713 922 3314 415 
Q 2916 -91 2278 -91 
Q 1894 -91 1617 61 
Q 1341 213 1159 525 
L 1159 0 
L 581 0 
L 581 4863 
L 1159 4863 
L 1159 2969 
z
" transform="scale(0.015625)"/>
     </defs>
     <use xlink:href="#DejaVuSans-62"/>
    </g>
   </g>
   <g id="text_2">
    <g id="patch_14">
     <path d="M 261.937484 159.523487 
L 276.065609 159.523487 
L 276.065609 141.845362 
L 261.937484 141.845362 
z
" style="fill: #ffffff; stroke: #ffffff; stroke-linejoin: miter"/>
    </g>
    <!-- a -->
    <g style="fill: #0000ff" transform="translate(265.937484 153.4438) scale(0.1 -0.1)">
     <defs>
      <path id="DejaVuSans-61" d="M 2194 1759 
Q 1497 1759 1228 1600 
Q 959 1441 959 1056 
Q 959 750 1161 570 
Q 1363 391 1709 391 
Q 2188 391 2477 730 
Q 2766 1069 2766 1631 
L 2766 1759 
L 2194 1759 
z
M 3341 1997 
L 3341 0 
L 2766 0 
L 2766 531 
Q 2569 213 2275 61 
Q 1981 -91 1556 -91 
Q 1019 -91 701 211 
Q 384 513 384 1019 
Q 384 1609 779 1909 
Q 1175 2209 1959 2209 
L 2766 2209 
L 2766 2266 
Q 2766 2663 2505 2880 
Q 2244 3097 1772 3097 
Q 1472 3097 1187 3025 
Q 903 2953 641 2809 
L 641 3341 
Q 956 3463 1253 3523 
Q 1550 3584 1831 3584 
Q 2591 3584 2966 3190 
Q 3341 2797 3341 1997 
z
" transform="scale(0.015625)"/>
     </defs>
     <use xlink:href="#DejaVuSans-61"/>
    </g>
   </g>
   <g id="text_3">
    <g id="patch_15">
     <path d="M 192.800851 200.497398 
L 207.149289 200.497398 
L 207.149289 182.819273 
L 192.800851 182.819273 
z
" style="fill: #ffffff; stroke: #ffffff; stroke-linejoin: miter"/>
    </g>
    <!-- b -->
    <g style="fill: #0000ff" transform="translate(196.800851 194.417711) scale(0.1 -0.1)">
     <use xlink:href="#DejaVuSans-62"/>
    </g>
   </g>
   <g id="text_4">
    <g id="patch_16">
     <path d="M 188.573156 169.045406 
L 202.701281 169.045406 
L 202.701281 151.367281 
L 188.573156 151.367281 
z
" style="fill: #ffffff; stroke: #ffffff; stroke-linejoin: miter"/>
    </g>
    <!-- a -->
    <g style="fill: #0000ff" transform="translate(192.573156 162.965719) scale(0.1 -0.1)">
     <use xlink:href="#DejaVuSans-61"/>
    </g>
   </g>
   <g id="text_5">
    <g id="patch_17">
     <path d="M 114.850034 209.554257 
L 129.198471 209.554257 
L 129.198471 191.876132 
L 114.850034 191.876132 
z
" style="fill: #ffffff; stroke: #ffffff; stroke-linejoin: miter"/>
    </g>
    <!-- b -->
    <g style="fill: #0000ff" transform="translate(118.850034 203.47457) scale(0.1 -0.1)">
     <use xlink:href="#DejaVuSans-62"/>
    </g>
   </g>
   <g id="text_6">
    <g id="patch_18">
     <path d="M 111.990802 177.943697 
L 126.118927 177.943697 
L 126.118927 160.265572 
L 111.990802 160.265572 
z
" style="fill: #ffffff; stroke: #ffffff; stroke-linejoin: miter"/>
    </g>
    <!-- a -->
    <g style="fill: #0000ff" transform="translate(115.990802 171.86401) scale(0.1 -0.1)">
     <use xlink:href="#DejaVuSans-61"/>
    </g>
   </g>
   <g id="text_7">
    <g id="patch_19">
     <path d="M 333.946023 185.497848 
L 348.29446 185.497848 
L 348.29446 167.819723 
L 333.946023 167.819723 
z
" style="fill: #ffffff; stroke: #ffffff; stroke-linejoin: miter"/>
    </g>
    <!-- b -->
    <g style="fill: #0000ff" transform="translate(337.946023 179.418161) scale(0.1 -0.1)">
     <use xlink:href="#DejaVuSans-62"/>
    </g>
   </g>
   <g id="text_8">
    <g id="patch_20">
     <path d="M 332.671385 153.778341 
L 346.79951 153.778341 
L 346.79951 136.100216 
L 332.671385 136.100216 
z
" style="fill: #ffffff; stroke: #ffffff; stroke-linejoin: miter"/>
    </g>
    <!-- a -->
    <g style="fill: #0000ff" transform="translate(336.671385 147.698654) scale(0.1 -0.1)">
     <use xlink:href="#DejaVuSans-61"/>
    </g>
   </g>
   <g id="text_9">
    <g id="patch_21">
     <path d="M 400.874625 167.798036 
L 415.223063 167.798036 
L 415.223063 150.119911 
L 400.874625 150.119911 
z
" style="fill: #ffffff; stroke: #ffffff; stroke-linejoin: miter"/>
    </g>
    <!-- b -->
    <g style="fill: #0000ff" transform="translate(404.874625 161.718349) scale(0.1 -0.1)">
     <use xlink:href="#DejaVuSans-62"/>
    </g>
   </g>
   <g id="text_10">
    <g id="patch_22">
     <path d="M 44.447166 199.796769 
L 58.575291 199.796769 
L 58.575291 182.118644 
L 44.447166 182.118644 
z
" style="fill: #ffffff; stroke: #ffffff; stroke-linejoin: miter"/>
    </g>
    <!-- a -->
    <g style="fill: #0000ff" transform="translate(48.447166 193.717082) scale(0.1 -0.1)">
     <use xlink:href="#DejaVuSans-61"/>
    </g>
   </g>
   <g id="patch_23">
    <path d="M 440.143086 170.4653 
C 443.271256 170.4653 446.271726 169.222465 448.483676 167.010514 
C 450.695626 164.798564 451.938462 161.798094 451.938462 158.669924 
C 451.938462 155.541754 450.695626 152.541284 448.483676 150.329334 
C 446.271726 148.117383 443.271256 146.874548 440.143086 146.874548 
C 437.014916 146.874548 434.014446 148.117383 431.802496 150.329334 
C 429.590545 152.541284 428.34771 155.541754 428.34771 158.669924 
C 428.34771 161.798094 429.590545 164.798564 431.802496 167.010514 
C 434.014446 169.222465 437.014916 170.4653 440.143086 170.4653 
z
" style="fill: #fec7b8; stroke: #000000; stroke-linejoin: miter"/>
   </g>
   <g id="patch_24">
    <path d="M 375.954602 171.043399 
C 379.082772 171.043399 382.083242 169.800564 384.295192 167.588613 
C 386.507142 165.376663 387.749978 162.376193 387.749978 159.248023 
C 387.749978 156.119853 386.507142 153.119383 384.295192 150.907433 
C 382.083242 148.695482 379.082772 147.452647 375.954602 147.452647 
C 372.826432 147.452647 369.825962 148.695482 367.614012 150.907433 
C 365.402061 153.119383 364.159226 156.119853 364.159226 159.248023 
C 364.159226 162.376193 365.402061 165.376663 367.614012 167.588613 
C 369.825962 169.800564 372.826432 171.043399 375.954602 171.043399 
z
" style="fill: #fec7b8; stroke: #000000; stroke-linejoin: miter"/>
   </g>
   <g id="patch_25">
    <path d="M 304.901087 174.145417 
C 308.029257 174.145417 311.029726 172.902582 313.241677 170.690632 
C 315.453627 168.478681 316.696462 165.478212 316.696462 162.350042 
C 316.696462 159.221871 315.453627 156.221402 313.241677 154.009451 
C 311.029726 151.797501 308.029257 150.554666 304.901087 150.554666 
C 301.772916 150.554666 298.772447 151.797501 296.560496 154.009451 
C 294.348546 156.221402 293.105711 159.221871 293.105711 162.350042 
C 293.105711 165.478212 294.348546 168.478681 296.560496 170.690632 
C 298.772447 172.902582 301.772916 174.145417 304.901087 174.145417 
z
" style="fill: #fec7b8; stroke: #000000; stroke-linejoin: miter"/>
   </g>
   <g id="patch_26">
    <path d="M 236.898714 182.336078 
C 240.026885 182.336078 243.027354 181.093243 245.239305 178.881292 
C 247.451255 176.669342 248.69409 173.668872 248.69409 170.540702 
C 248.69409 167.412532 247.451255 164.412062 245.239305 162.200112 
C 243.027354 159.988161 240.026885 158.745326 236.898714 158.745326 
C 233.770544 158.745326 230.770075 159.988161 228.558124 162.200112 
C 226.346174 164.412062 225.103339 167.412532 225.103339 170.540702 
C 225.103339 173.668872 226.346174 176.669342 228.558124 178.881292 
C 230.770075 181.093243 233.770544 182.336078 236.898714 182.336078 
z
" style="fill: #fec7b8; stroke: #000000; stroke-linejoin: miter"/>
   </g>
   <g id="patch_27">
    <path d="M 158.713574 193.119353 
C 161.841744 193.119353 164.842214 191.876518 167.054164 189.664568 
C 169.266115 187.452618 170.50895 184.452148 170.50895 181.323978 
C 170.50895 178.195807 169.266115 175.195338 167.054164 172.983387 
C 164.842214 170.771437 161.841744 169.528602 158.713574 169.528602 
C 155.585404 169.528602 152.584934 170.771437 150.372984 172.983387 
C 148.161033 175.195338 146.918198 178.195807 146.918198 181.323978 
C 146.918198 184.452148 148.161033 187.452618 150.372984 189.664568 
C 152.584934 191.876518 155.585404 193.119353 158.713574 193.119353 
z
" style="fill: #fec7b8; stroke: #000000; stroke-linejoin: miter"/>
   </g>
   <g id="patch_28">
    <path d="M 82.365543 200.291227 
C 85.493713 200.291227 88.494183 199.048392 90.706133 196.836442 
C 92.918084 194.624491 94.160919 191.624022 94.160919 188.495852 
C 94.160919 185.367681 92.918084 182.367212 90.706133 180.155261 
C 88.494183 177.943311 85.493713 176.700476 82.365543 176.700476 
C 79.237373 176.700476 76.236903 177.943311 74.024953 180.155261 
C 71.813003 182.367212 70.570167 185.367681 70.570167 188.495852 
C 70.570167 191.624022 71.813003 194.624491 74.024953 196.836442 
C 76.236903 199.048392 79.237373 200.291227 82.365543 200.291227 
z
" style="fill: #fec7b8; stroke: #000000; stroke-linejoin: miter"/>
   </g>
   <g id="patch_29">
    <path d="M 20.656914 205.214938 
C 23.785084 205.214938 26.785554 203.972103 28.997504 201.760153 
C 31.209455 199.548202 32.45229 196.547733 32.45229 193.419562 
C 32.45229 190.291392 31.209455 187.290923 28.997504 185.078972 
C 26.785554 182.867022 23.785084 181.624187 20.656914 181.624187 
C 17.528744 181.624187 14.528274 182.867022 12.316324 185.078972 
C 10.104374 187.290923 8.861538 190.291392 8.861538 193.419562 
C 8.861538 196.547733 10.104374 199.548202 12.316324 201.760153 
C 14.528274 203.972103 17.528744 205.214938 20.656914 205.214938 
z
" style="fill: #fec7b8; stroke: #000000; stroke-linejoin: miter"/>
   </g>
   <g id="text_11">
    <!-- -1 -->
    <g transform="translate(435.157929 161.429299) scale(0.1 -0.1)">
     <defs>
      <path id="DejaVuSans-2d" d="M 313 2009 
L 1997 2009 
L 1997 1497 
L 313 1497 
L 313 2009 
z
" transform="scale(0.015625)"/>
      <path id="DejaVuSans-31" d="M 794 531 
L 1825 531 
L 1825 4091 
L 703 3866 
L 703 4441 
L 1819 4666 
L 2450 4666 
L 2450 531 
L 3481 531 
L 3481 0 
L 794 0 
L 794 531 
z
" transform="scale(0.015625)"/>
     </defs>
     <use xlink:href="#DejaVuSans-2d"/>
     <use xlink:href="#DejaVuSans-31" transform="translate(36.083984 0)"/>
    </g>
   </g>
   <g id="text_12">
    <!-- 2 -->
    <g transform="translate(233.717464 173.300077) scale(0.1 -0.1)">
     <defs>
      <path id="DejaVuSans-32" d="M 1228 531 
L 3431 531 
L 3431 0 
L 469 0 
L 469 531 
Q 828 903 1448 1529 
Q 2069 2156 2228 2338 
Q 2531 2678 2651 2914 
Q 2772 3150 2772 3378 
Q 2772 3750 2511 3984 
Q 2250 4219 1831 4219 
Q 1534 4219 1204 4116 
Q 875 4013 500 3803 
L 500 4441 
Q 881 4594 1212 4672 
Q 1544 4750 1819 4750 
Q 2544 4750 2975 4387 
Q 3406 4025 3406 3419 
Q 3406 3131 3298 2873 
Q 3191 2616 2906 2266 
Q 2828 2175 2409 1742 
Q 1991 1309 1228 531 
z
" transform="scale(0.015625)"/>
     </defs>
     <use xlink:href="#DejaVuSans-32"/>
    </g>
   </g>
   <g id="text_13">
    <!-- 3 -->
    <g transform="translate(155.532324 184.083353) scale(0.1 -0.1)">
     <defs>
      <path id="DejaVuSans-33" d="M 2597 2516 
Q 3050 2419 3304 2112 
Q 3559 1806 3559 1356 
Q 3559 666 3084 287 
Q 2609 -91 1734 -91 
Q 1441 -91 1130 -33 
Q 819 25 488 141 
L 488 750 
Q 750 597 1062 519 
Q 1375 441 1716 441 
Q 2309 441 2620 675 
Q 2931 909 2931 1356 
Q 2931 1769 2642 2001 
Q 2353 2234 1838 2234 
L 1294 2234 
L 1294 2753 
L 1863 2753 
Q 2328 2753 2575 2939 
Q 2822 3125 2822 3475 
Q 2822 3834 2567 4026 
Q 2313 4219 1838 4219 
Q 1578 4219 1281 4162 
Q 984 4106 628 3988 
L 628 4550 
Q 988 4650 1302 4700 
Q 1616 4750 1894 4750 
Q 2613 4750 3031 4423 
Q 3450 4097 3450 3541 
Q 3450 3153 3228 2886 
Q 3006 2619 2597 2516 
z
" transform="scale(0.015625)"/>
     </defs>
     <use xlink:href="#DejaVuSans-33"/>
    </g>
   </g>
   <g id="text_14">
    <!-- 4 -->
    <g transform="translate(79.184293 191.255227) scale(0.1 -0.1)">
     <defs>
      <path id="DejaVuSans-34" d="M 2419 4116 
L 825 1625 
L 2419 1625 
L 2419 4116 
z
M 2253 4666 
L 3047 4666 
L 3047 1625 
L 3713 1625 
L 3713 1100 
L 3047 1100 
L 3047 0 
L 2419 0 
L 2419 1100 
L 313 1100 
L 313 1709 
L 2253 4666 
z
" transform="scale(0.015625)"/>
     </defs>
     <use xlink:href="#DejaVuSans-34"/>
    </g>
   </g>
   <g id="text_15">
    <!-- 5 -->
    <g transform="translate(17.475664 196.178937) scale(0.1 -0.1)">
     <defs>
      <path id="DejaVuSans-35" d="M 691 4666 
L 3169 4666 
L 3169 4134 
L 1269 4134 
L 1269 2991 
Q 1406 3038 1543 3061 
Q 1681 3084 1819 3084 
Q 2600 3084 3056 2656 
Q 3513 2228 3513 1497 
Q 3513 744 3044 326 
Q 2575 -91 1722 -91 
Q 1428 -91 1123 -41 
Q 819 9 494 109 
L 494 744 
Q 775 591 1075 516 
Q 1375 441 1709 441 
Q 2250 441 2565 725 
Q 2881 1009 2881 1497 
Q 2881 1984 2565 2268 
Q 2250 2553 1709 2553 
Q 1456 2553 1204 2497 
Q 953 2441 691 2322 
L 691 4666 
z
" transform="scale(0.015625)"/>
     </defs>
     <use xlink:href="#DejaVuSans-35"/>
    </g>
   </g>
   <g id="text_16">
    <!-- 0 -->
    <g transform="translate(372.773352 162.007398) scale(0.1 -0.1)">
     <defs>
      <path id="DejaVuSans-30" d="M 2034 4250 
Q 1547 4250 1301 3770 
Q 1056 3291 1056 2328 
Q 1056 1369 1301 889 
Q 1547 409 2034 409 
Q 2525 409 2770 889 
Q 3016 1369 3016 2328 
Q 3016 3291 2770 3770 
Q 2525 4250 2034 4250 
z
M 2034 4750 
Q 2819 4750 3233 4129 
Q 3647 3509 3647 2328 
Q 3647 1150 3233 529 
Q 2819 -91 2034 -91 
Q 1250 -91 836 529 
Q 422 1150 422 2328 
Q 422 3509 836 4129 
Q 1250 4750 2034 4750 
z
" transform="scale(0.015625)"/>
     </defs>
     <use xlink:href="#DejaVuSans-30"/>
    </g>
   </g>
   <g id="text_17">
    <!-- 1 -->
    <g transform="translate(301.719837 165.109417) scale(0.1 -0.1)">
     <use xlink:href="#DejaVuSans-31"/>
    </g>
   </g>
  </g>
 </g>
 <defs>
  <clipPath id="p2baad04da0">
   <rect x="0" y="127.330706" width="460.8" height="90.938587"/>
  </clipPath>
 </defs>
</svg>
