<?xml version="1.0" encoding="utf-8" standalone="no"?>
<!DOCTYPE svg PUBLIC "-//W3C//DTD SVG 1.1//EN"
  "http://www.w3.org/Graphics/SVG/1.1/DTD/svg11.dtd">
<svg xmlns:xlink="http://www.w3.org/1999/xlink" width="460.8pt" height="345.6pt" viewBox="0 0 460.8 345.6" xmlns="http://www.w3.org/2000/svg" version="1.1">
 <metadata>
  <rdf:RDF xmlns:dc="http://purl.org/dc/elements/1.1/" xmlns:cc="http://creativecommons.org/ns#" xmlns:rdf="http://www.w3.org/1999/02/22-rdf-syntax-ns#">
   <cc:Work>
    <dc:type rdf:resource="http://purl.org/dc/dcmitype/StillImage"/>
    <dc:date>2025-08-07T23:29:26.257051</dc:date>
    <dc:format>image/svg+xml</dc:format>
    <dc:creator>
     <cc:Agent>
      <dc:title>Matplotlib v3.10.3, https://matplotlib.org/</dc:title>
     </cc:Agent>
    </dc:creator>
   </cc:Work>
  </rdf:RDF>
 </metadata>
 <defs>
  <style type="text/css">*{stroke-linejoin: round; stroke-linecap: butt}</style>
 </defs>
 <g id="figure_1">
  <g id="patch_1">
   <path d="M 0 345.6 
L 460.8 345.6 
L 460.8 0 
L 0 0 
z
" style="fill: #ffffff"/>
  </g>
  <g id="axes_1">
   <g id="patch_2">
    <path d="M 0 244.283775 
L 460.8 244.283775 
L 460.8 101.316225 
L 0 101.316225 
z
" style="fill: #ffffff"/>
   </g>
   <g id="patch_3">
    <path d="M 421.468697 153.912014 
Q 334.179049 195.676303 239.623627 181.258115 
" clip-path="url(#p04e9b55fc5)" style="fill: none; stroke: #7fff00; stroke-linecap: round"/>
    <path d="M 248.755651 187.708396 
L 239.623627 181.258115 
L 250.263067 177.822664 
z
" clip-path="url(#p04e9b55fc5)" style="fill: #7fff00; stroke: #7fff00; stroke-linecap: round"/>
   </g>
   <g id="patch_4">
    <path d="M 420.767119 149.189224 
Q 325.106438 134.602501 238.82533 175.884247 
" clip-path="url(#p04e9b55fc5)" style="fill: none; stroke: #7fff00; stroke-linecap: round"/>
    <path d="M 250.003981 176.078585 
L 238.82533 175.884247 
L 245.687991 167.057929 
z
" clip-path="url(#p04e9b55fc5)" style="fill: #7fff00; stroke: #7fff00; stroke-linecap: round"/>
   </g>
   <g id="patch_5">
    <path d="M 422.579453 155.633828 
Q 338.715355 226.213203 238.983832 183.500089 
" clip-path="url(#p04e9b55fc5)" style="fill: none; stroke: #00ff3f; stroke-linecap: round"/>
    <path d="M 246.20778 192.033234 
L 238.983832 183.500089 
L 250.144718 182.840818 
z
" clip-path="url(#p04e9b55fc5)" style="fill: #00ff3f; stroke: #00ff3f; stroke-linecap: round"/>
   </g>
   <g id="patch_6">
    <path d="M 421.329398 147.218878 
Q 320.570132 104.065601 237.561447 173.925067 
" clip-path="url(#p04e9b55fc5)" style="fill: none; stroke: #00ffff; stroke-linecap: round"/>
    <path d="M 248.432023 171.311529 
L 237.561447 173.925067 
L 241.992962 163.660484 
z
" clip-path="url(#p04e9b55fc5)" style="fill: #00ffff; stroke: #00ffff; stroke-linecap: round"/>
   </g>
   <g id="matplotlib.axis_1"/>
   <g id="matplotlib.axis_2"/>
   <g id="patch_7">
    <path d="M 221.374197 181.230105 
Q 127.399282 195.264732 32.318596 209.4645 
" clip-path="url(#p04e9b55fc5)" style="fill: none; stroke: #7f00ff; stroke-linecap: round"/>
    <path d="M 210.745353 177.762011 
L 221.374197 181.230105 
L 212.222415 187.652324 
z
" clip-path="url(#p04e9b55fc5)" style="fill: #7f00ff; stroke: #7f00ff; stroke-linecap: round"/>
   </g>
   <g id="patch_8">
    <path d="M 420.762477 151.603419 
Q 329.642743 165.139402 239.628908 178.511102 
" clip-path="url(#p04e9b55fc5)" style="fill: none; stroke: #003fff; stroke-linecap: round"/>
    <path d="M 250.25506 181.987438 
L 239.628908 178.511102 
L 248.785668 172.095983 
z
" clip-path="url(#p04e9b55fc5)" style="fill: #003fff; stroke: #003fff; stroke-linecap: round"/>
   </g>
   <g id="text_1">
    <g id="patch_9">
     <path d="M 421.610243 190.122802 
L 435.95868 190.122802 
L 435.95868 172.444677 
L 421.610243 172.444677 
z
" style="fill: #ffffff; stroke: #ffffff; stroke-linejoin: miter"/>
    </g>
    <!-- b -->
    <g style="fill: #0000ff" transform="translate(425.610243 184.043115) scale(0.1 -0.1)">
     <defs>
      <path id="DejaVuSans-62" d="M 3116 1747 
Q 3116 2381 2855 2742 
Q 2594 3103 2138 3103 
Q 1681 3103 1420 2742 
Q 1159 2381 1159 1747 
Q 1159 1113 1420 752 
Q 1681 391 2138 391 
Q 2594 391 2855 752 
Q 3116 1113 3116 1747 
z
M 1159 2969 
Q 1341 3281 1617 3432 
Q 1894 3584 2278 3584 
Q 2916 3584 3314 3078 
Q 3713 2572 3713 1747 
Q 3713 922 3314 415 
Q 2916 -91 2278 -91 
Q 1894 -91 1617 61 
Q 1341 213 1159 525 
L 1159 0 
L 581 0 
L 581 4863 
L 1159 4863 
L 1159 2969 
z
" transform="scale(0.015625)"/>
     </defs>
     <use xlink:href="#DejaVuSans-62"/>
    </g>
   </g>
   <g id="text_2">
    <g id="patch_10">
     <path d="M 421.720399 205.558802 
L 435.848524 205.558802 
L 435.848524 187.880677 
L 421.720399 187.880677 
z
" style="fill: #ffffff; stroke: #ffffff; stroke-linejoin: miter"/>
    </g>
    <!-- a -->
    <g style="fill: #0000ff" transform="translate(425.720399 199.479115) scale(0.1 -0.1)">
     <defs>
      <path id="DejaVuSans-61" d="M 2194 1759 
Q 1497 1759 1228 1600 
Q 959 1441 959 1056 
Q 959 750 1161 570 
Q 1363 391 1709 391 
Q 2188 391 2477 730 
Q 2766 1069 2766 1631 
L 2766 1759 
L 2194 1759 
z
M 3341 1997 
L 3341 0 
L 2766 0 
L 2766 531 
Q 2569 213 2275 61 
Q 1981 -91 1556 -91 
Q 1019 -91 701 211 
Q 384 513 384 1019 
Q 384 1609 779 1909 
Q 1175 2209 1959 2209 
L 2766 2209 
L 2766 2266 
Q 2766 2663 2505 2880 
Q 2244 3097 1772 3097 
Q 1472 3097 1187 3025 
Q 903 2953 641 2809 
L 641 3341 
Q 956 3463 1253 3523 
Q 1550 3584 1831 3584 
Q 2591 3584 2966 3190 
Q 3341 2797 3341 1997 
z
" transform="scale(0.015625)"/>
     </defs>
     <use xlink:href="#DejaVuSans-61"/>
    </g>
   </g>
   <g id="text_3">
    <g id="patch_11">
     <path d="M 326.15074 189.246915 
L 337.671053 189.246915 
L 337.671053 171.56879 
L 326.15074 171.56879 
z
" style="fill: #ffffff; stroke: #ffffff; stroke-linejoin: miter"/>
    </g>
    <!-- f -->
    <g style="fill: #0000ff" transform="translate(330.15074 183.167227) scale(0.1 -0.1)">
     <defs>
      <path id="DejaVuSans-66" d="M 2375 4863 
L 2375 4384 
L 1825 4384 
Q 1516 4384 1395 4259 
Q 1275 4134 1275 3809 
L 1275 3500 
L 2222 3500 
L 2222 3053 
L 1275 3053 
L 1275 0 
L 697 0 
L 697 3053 
L 147 3053 
L 147 3500 
L 697 3500 
L 697 3744 
Q 697 4328 969 4595 
Q 1241 4863 1831 4863 
L 2375 4863 
z
" transform="scale(0.015625)"/>
     </defs>
     <use xlink:href="#DejaVuSans-66"/>
    </g>
   </g>
   <g id="text_4">
    <g id="patch_12">
     <path d="M 321.614434 158.710014 
L 333.134747 158.710014 
L 333.134747 141.031889 
L 321.614434 141.031889 
z
" style="fill: #ffffff; stroke: #ffffff; stroke-linejoin: miter"/>
    </g>
    <!-- f -->
    <g style="fill: #0000ff" transform="translate(325.614434 152.630327) scale(0.1 -0.1)">
     <use xlink:href="#DejaVuSans-66"/>
    </g>
   </g>
   <g id="text_5">
    <g id="patch_13">
     <path d="M 327.102487 204.515365 
L 341.255612 204.515365 
L 341.255612 186.83724 
L 327.102487 186.83724 
z
" style="fill: #ffffff; stroke: #ffffff; stroke-linejoin: miter"/>
    </g>
    <!-- e -->
    <g style="fill: #0000ff" transform="translate(331.102487 198.435678) scale(0.1 -0.1)">
     <defs>
      <path id="DejaVuSans-65" d="M 3597 1894 
L 3597 1613 
L 953 1613 
Q 991 1019 1311 708 
Q 1631 397 2203 397 
Q 2534 397 2845 478 
Q 3156 559 3463 722 
L 3463 178 
Q 3153 47 2828 -22 
Q 2503 -91 2169 -91 
Q 1331 -91 842 396 
Q 353 884 353 1716 
Q 353 2575 817 3079 
Q 1281 3584 2069 3584 
Q 2775 3584 3186 3129 
Q 3597 2675 3597 1894 
z
M 3022 2063 
Q 3016 2534 2758 2815 
Q 2500 3097 2075 3097 
Q 1594 3097 1305 2825 
Q 1016 2553 972 2059 
L 3022 2063 
z
" transform="scale(0.015625)"/>
     </defs>
     <use xlink:href="#DejaVuSans-65"/>
    </g>
   </g>
   <g id="text_6">
    <g id="patch_14">
     <path d="M 317.932219 143.441564 
L 332.280656 143.441564 
L 332.280656 125.763439 
L 317.932219 125.763439 
z
" style="fill: #ffffff; stroke: #ffffff; stroke-linejoin: miter"/>
    </g>
    <!-- d -->
    <g style="fill: #0000ff" transform="translate(321.932219 137.361876) scale(0.1 -0.1)">
     <defs>
      <path id="DejaVuSans-64" d="M 2906 2969 
L 2906 4863 
L 3481 4863 
L 3481 0 
L 2906 0 
L 2906 525 
Q 2725 213 2448 61 
Q 2172 -91 1784 -91 
Q 1150 -91 751 415 
Q 353 922 353 1747 
Q 353 2572 751 3078 
Q 1150 3584 1784 3584 
Q 2172 3584 2448 3432 
Q 2725 3281 2906 2969 
z
M 947 1747 
Q 947 1113 1208 752 
Q 1469 391 1925 391 
Q 2381 391 2643 752 
Q 2906 1113 2906 1747 
Q 2906 2381 2643 2742 
Q 2381 3103 1925 3103 
Q 1469 3103 1208 2742 
Q 947 2381 947 1747 
z
" transform="scale(0.015625)"/>
     </defs>
     <use xlink:href="#DejaVuSans-64"/>
    </g>
   </g>
   <g id="text_7">
    <g id="patch_15">
     <path d="M 17.128788 250.373462 
L 31.466288 250.373462 
L 31.466288 232.695337 
L 17.128788 232.695337 
z
" style="fill: #ffffff; stroke: #ffffff; stroke-linejoin: miter"/>
    </g>
    <!-- h -->
    <g style="fill: #0000ff" transform="translate(21.128788 244.293774) scale(0.1 -0.1)">
     <defs>
      <path id="DejaVuSans-68" d="M 3513 2113 
L 3513 0 
L 2938 0 
L 2938 2094 
Q 2938 2591 2744 2837 
Q 2550 3084 2163 3084 
Q 1697 3084 1428 2787 
Q 1159 2491 1159 1978 
L 1159 0 
L 581 0 
L 581 4863 
L 1159 4863 
L 1159 2956 
Q 1366 3272 1645 3428 
Q 1925 3584 2291 3584 
Q 2894 3584 3203 3211 
Q 3513 2838 3513 2113 
z
" transform="scale(0.015625)"/>
     </defs>
     <use xlink:href="#DejaVuSans-68"/>
    </g>
   </g>
   <g id="text_8">
    <g id="patch_16">
     <path d="M 120.225063 204.103794 
L 134.573501 204.103794 
L 134.573501 186.425669 
L 120.225063 186.425669 
z
" style="fill: #ffffff; stroke: #ffffff; stroke-linejoin: miter"/>
    </g>
    <!-- g -->
    <g style="fill: #0000ff" transform="translate(124.225063 198.024107) scale(0.1 -0.1)">
     <defs>
      <path id="DejaVuSans-67" d="M 2906 1791 
Q 2906 2416 2648 2759 
Q 2391 3103 1925 3103 
Q 1463 3103 1205 2759 
Q 947 2416 947 1791 
Q 947 1169 1205 825 
Q 1463 481 1925 481 
Q 2391 481 2648 825 
Q 2906 1169 2906 1791 
z
M 3481 434 
Q 3481 -459 3084 -895 
Q 2688 -1331 1869 -1331 
Q 1566 -1331 1297 -1286 
Q 1028 -1241 775 -1147 
L 775 -588 
Q 1028 -725 1275 -790 
Q 1522 -856 1778 -856 
Q 2344 -856 2625 -561 
Q 2906 -266 2906 331 
L 2906 616 
Q 2728 306 2450 153 
Q 2172 0 1784 0 
Q 1141 0 747 490 
Q 353 981 353 1791 
Q 353 2603 747 3093 
Q 1141 3584 1784 3584 
Q 2172 3584 2450 3431 
Q 2728 3278 2906 2969 
L 2906 3500 
L 3481 3500 
L 3481 434 
z
" transform="scale(0.015625)"/>
     </defs>
     <use xlink:href="#DejaVuSans-67"/>
    </g>
   </g>
   <g id="text_9">
    <g id="patch_17">
     <path d="M 322.893525 173.978464 
L 336.391962 173.978464 
L 336.391962 156.300339 
L 322.893525 156.300339 
z
" style="fill: #ffffff; stroke: #ffffff; stroke-linejoin: miter"/>
    </g>
    <!-- c -->
    <g style="fill: #0000ff" transform="translate(326.893525 167.898777) scale(0.1 -0.1)">
     <defs>
      <path id="DejaVuSans-63" d="M 3122 3366 
L 3122 2828 
Q 2878 2963 2633 3030 
Q 2388 3097 2138 3097 
Q 1578 3097 1268 2742 
Q 959 2388 959 1747 
Q 959 1106 1268 751 
Q 1578 397 2138 397 
Q 2388 397 2633 464 
Q 2878 531 3122 666 
L 3122 134 
Q 2881 22 2623 -34 
Q 2366 -91 2075 -91 
Q 1284 -91 818 406 
Q 353 903 353 1747 
Q 353 2603 823 3093 
Q 1294 3584 2113 3584 
Q 2378 3584 2631 3529 
Q 2884 3475 3122 3366 
z
" transform="scale(0.015625)"/>
     </defs>
     <use xlink:href="#DejaVuSans-63"/>
    </g>
   </g>
   <g id="patch_18">
    <path d="M 428.784462 158.521755 
C 430.935263 158.521755 432.998262 157.667232 434.519108 156.146386 
C 436.039954 154.62554 436.894476 152.562541 436.894476 150.41174 
C 436.894476 148.260939 436.039954 146.19794 434.519108 144.677094 
C 432.998262 143.156248 430.935263 142.301725 428.784462 142.301725 
C 426.633661 142.301725 424.570661 143.156248 423.049815 144.677094 
C 421.528969 146.19794 420.674447 148.260939 420.674447 150.41174 
C 420.674447 152.562541 421.528969 154.62554 423.049815 156.146386 
C 424.570661 157.667232 426.633661 158.521755 428.784462 158.521755 
z
" style="fill: #fec7b8; stroke: #000000; stroke-linejoin: miter"/>
   </g>
   <g id="patch_19">
    <path d="M 230.501025 187.977079 
C 232.651826 187.977079 234.714826 187.122556 236.235672 185.60171 
C 237.756518 184.080864 238.61104 182.017865 238.61104 179.867064 
C 238.61104 177.716263 237.756518 175.653264 236.235672 174.132418 
C 234.714826 172.611572 232.651826 171.757049 230.501025 171.757049 
C 228.350224 171.757049 226.287225 172.611572 224.766379 174.132418 
C 223.245533 175.653264 222.391011 177.716263 222.391011 179.867064 
C 222.391011 182.017865 223.245533 184.080864 224.766379 185.60171 
C 226.287225 187.122556 228.350224 187.977079 230.501025 187.977079 
z
" style="fill: #fec7b8; stroke: #000000; stroke-linejoin: miter"/>
   </g>
   <g id="patch_20">
    <path d="M 24.297538 218.772414 
C 26.448339 218.772414 28.511339 217.917892 30.032185 216.397046 
C 31.553031 214.8762 32.407553 212.813201 32.407553 210.6624 
C 32.407553 208.511599 31.553031 206.448599 30.032185 204.927753 
C 28.511339 203.406907 26.448339 202.552385 24.297538 202.552385 
C 22.146737 202.552385 20.083738 203.406907 18.562892 204.927753 
C 17.042046 206.448599 16.187524 208.511599 16.187524 210.6624 
C 16.187524 212.813201 17.042046 214.8762 18.562892 216.397046 
C 20.083738 217.917892 22.146737 218.772414 24.297538 218.772414 
z
" style="fill: #fec7b8; stroke: #000000; stroke-linejoin: miter"/>
   </g>
   <g id="patch_21">
    <path d="M 428.784462 181.28374 
C 432.878137 181.28374 436.804696 179.657306 439.699362 176.76264 
C 442.594027 173.867975 444.220462 169.941415 444.220462 165.84774 
C 444.220462 161.754065 442.594027 157.827505 439.699362 154.93284 
C 436.804696 152.038174 432.878137 150.41174 428.784462 150.41174 
C 424.690787 150.41174 420.764227 152.038174 417.869561 154.93284 
C 414.974896 157.827505 413.348462 161.754065 413.348462 165.84774 
C 413.348462 169.941415 414.974896 173.867975 417.869561 176.76264 
C 420.764227 179.657306 424.690787 181.28374 428.784462 181.28374 
L 428.784462 181.28374 
z
" clip-path="url(#p04e9b55fc5)" style="fill: none; stroke: #ff0000; stroke-linejoin: miter"/>
   </g>
   <g id="patch_22">
    <path d="M 428.784462 196.71974 
C 434.924974 196.71974 440.814814 194.280088 445.156812 189.93809 
C 449.49881 185.596092 451.938462 179.706252 451.938462 173.56574 
C 451.938462 167.425227 449.49881 161.535388 445.156812 157.19339 
C 440.814814 152.851391 434.924974 150.41174 428.784462 150.41174 
C 422.643949 150.41174 416.754109 152.851391 412.412111 157.19339 
C 408.070113 161.535388 405.630462 167.425227 405.630462 173.56574 
C 405.630462 179.706252 408.070113 185.596092 412.412111 189.93809 
C 416.754109 194.280088 422.643949 196.71974 428.784462 196.71974 
L 428.784462 196.71974 
z
" clip-path="url(#p04e9b55fc5)" style="fill: none; stroke: #ffbf00; stroke-linejoin: miter"/>
   </g>
   <g id="patch_23">
    <path d="M 24.297538 241.534399 
C 28.391213 241.534399 32.317773 239.907965 35.212439 237.0133 
C 38.107104 234.118634 39.733538 230.192075 39.733538 226.0984 
C 39.733538 222.004725 38.107104 218.078165 35.212439 215.183499 
C 32.317773 212.288834 28.391213 210.6624 24.297538 210.6624 
C 20.203863 210.6624 16.277304 212.288834 13.382638 215.183499 
C 10.487973 218.078165 8.861538 222.004725 8.861538 226.0984 
C 8.861538 230.192075 10.487973 234.118634 13.382638 237.0133 
C 16.277304 239.907965 20.203863 241.534399 24.297538 241.534399 
L 24.297538 241.534399 
z
" clip-path="url(#p04e9b55fc5)" style="fill: none; stroke: #ff00bf; stroke-linejoin: miter"/>
   </g>
   <g id="text_10">
    <!-- 0 -->
    <g transform="translate(425.603212 153.171115) scale(0.1 -0.1)">
     <defs>
      <path id="DejaVuSans-30" d="M 2034 4250 
Q 1547 4250 1301 3770 
Q 1056 3291 1056 2328 
Q 1056 1369 1301 889 
Q 1547 409 2034 409 
Q 2525 409 2770 889 
Q 3016 1369 3016 2328 
Q 3016 3291 2770 3770 
Q 2525 4250 2034 4250 
z
M 2034 4750 
Q 2819 4750 3233 4129 
Q 3647 3509 3647 2328 
Q 3647 1150 3233 529 
Q 2819 -91 2034 -91 
Q 1250 -91 836 529 
Q 422 1150 422 2328 
Q 422 3509 836 4129 
Q 1250 4750 2034 4750 
z
" transform="scale(0.015625)"/>
     </defs>
     <use xlink:href="#DejaVuSans-30"/>
    </g>
   </g>
   <g id="text_11">
    <!-- 1 -->
    <g transform="translate(227.319775 182.626439) scale(0.1 -0.1)">
     <defs>
      <path id="DejaVuSans-31" d="M 794 531 
L 1825 531 
L 1825 4091 
L 703 3866 
L 703 4441 
L 1819 4666 
L 2450 4666 
L 2450 531 
L 3481 531 
L 3481 0 
L 794 0 
L 794 531 
z
" transform="scale(0.015625)"/>
     </defs>
     <use xlink:href="#DejaVuSans-31"/>
    </g>
   </g>
   <g id="text_12">
    <!-- 2 -->
    <g transform="translate(21.116288 213.421775) scale(0.1 -0.1)">
     <defs>
      <path id="DejaVuSans-32" d="M 1228 531 
L 3431 531 
L 3431 0 
L 469 0 
L 469 531 
Q 828 903 1448 1529 
Q 2069 2156 2228 2338 
Q 2531 2678 2651 2914 
Q 2772 3150 2772 3378 
Q 2772 3750 2511 3984 
Q 2250 4219 1831 4219 
Q 1534 4219 1204 4116 
Q 875 4013 500 3803 
L 500 4441 
Q 881 4594 1212 4672 
Q 1544 4750 1819 4750 
Q 2544 4750 2975 4387 
Q 3406 4025 3406 3419 
Q 3406 3131 3298 2873 
Q 3191 2616 2906 2266 
Q 2828 2175 2409 1742 
Q 1991 1309 1228 531 
z
" transform="scale(0.015625)"/>
     </defs>
     <use xlink:href="#DejaVuSans-32"/>
    </g>
   </g>
  </g>
 </g>
 <defs>
  <clipPath id="p04e9b55fc5">
   <rect x="0" y="101.316225" width="460.8" height="142.967551"/>
  </clipPath>
 </defs>
</svg>
