<?xml version="1.0" encoding="utf-8" standalone="no"?>
<!DOCTYPE svg PUBLIC "-//W3C//DTD SVG 1.1//EN"
  "http://www.w3.org/Graphics/SVG/1.1/DTD/svg11.dtd">
<svg xmlns:xlink="http://www.w3.org/1999/xlink" width="460.8pt" height="345.6pt" viewBox="0 0 460.8 345.6" xmlns="http://www.w3.org/2000/svg" version="1.1">
 <metadata>
  <rdf:RDF xmlns:dc="http://purl.org/dc/elements/1.1/" xmlns:cc="http://creativecommons.org/ns#" xmlns:rdf="http://www.w3.org/1999/02/22-rdf-syntax-ns#">
   <cc:Work>
    <dc:type rdf:resource="http://purl.org/dc/dcmitype/StillImage"/>
    <dc:date>2025-08-02T18:47:33.868050</dc:date>
    <dc:format>image/svg+xml</dc:format>
    <dc:creator>
     <cc:Agent>
      <dc:title>Matplotlib v3.10.3, https://matplotlib.org/</dc:title>
     </cc:Agent>
    </dc:creator>
   </cc:Work>
  </rdf:RDF>
 </metadata>
 <defs>
  <style type="text/css">*{stroke-linejoin: round; stroke-linecap: butt}</style>
 </defs>
 <g id="figure_1">
  <g id="patch_1">
   <path d="M 0 345.6 
L 460.8 345.6 
L 460.8 0 
L 0 0 
z
" style="fill: #ffffff"/>
  </g>
  <g id="axes_1">
   <g id="patch_2">
    <path d="M 69.753184 345.6 
L 391.046816 345.6 
L 391.046816 0 
L 69.753184 0 
z
" style="fill: #ffffff"/>
   </g>
   <g id="patch_3">
    <path d="M 105.097112 290.709927 
Q 184.384108 248.325635 223.957562 168.845986 
" clip-path="url(#p973850771e)" style="fill: none; stroke: #7fff00; stroke-linecap: round"/>
    <path d="M 215.024545 175.569171 
L 223.957562 168.845986 
L 223.9763 180.02631 
z
" clip-path="url(#p973850771e)" style="fill: #7fff00; stroke: #7fff00; stroke-linecap: round"/>
   </g>
   <g id="patch_4">
    <path d="M 101.692818 287.402776 
Q 141.764595 206.922291 220.065596 165.06508 
" clip-path="url(#p973850771e)" style="fill: none; stroke: #7fff00; stroke-linecap: round"/>
    <path d="M 208.889414 165.369936 
L 220.065596 165.06508 
L 213.603771 174.18894 
z
" clip-path="url(#p973850771e)" style="fill: #7fff00; stroke: #7fff00; stroke-linecap: round"/>
   </g>
   <g id="patch_5">
    <path d="M 105.810224 292.596885 
Q 205.693864 269.027307 226.137522 169.598474 
" clip-path="url(#p973850771e)" style="fill: none; stroke: #00ff3f; stroke-linecap: round"/>
    <path d="M 219.225996 178.38658 
L 226.137522 169.598474 
L 229.021091 180.400559 
z
" clip-path="url(#p973850771e)" style="fill: #00ff3f; stroke: #00ff3f; stroke-linecap: round"/>
   </g>
   <g id="patch_6">
    <path d="M 99.786011 286.744577 
Q 120.454839 186.220619 219.25033 162.907811 
" clip-path="url(#p973850771e)" style="fill: none; stroke: #00ffff; stroke-linecap: round"/>
    <path d="M 208.369313 160.33809 
L 219.25033 162.907811 
L 210.665942 170.070792 
z
" clip-path="url(#p973850771e)" style="fill: #00ffff; stroke: #00ffff; stroke-linecap: round"/>
   </g>
   <g id="matplotlib.axis_1"/>
   <g id="matplotlib.axis_2"/>
   <g id="patch_7">
    <path d="M 234.148467 154.455331 
Q 298.973895 87.654712 364.577941 20.051751 
" clip-path="url(#p973850771e)" style="fill: none; stroke: #7f00ff; stroke-linecap: round"/>
    <path d="M 244.700826 150.76105 
L 234.148467 154.455331 
L 237.524458 143.796875 
z
" clip-path="url(#p973850771e)" style="fill: #7f00ff; stroke: #7f00ff; stroke-linecap: round"/>
   </g>
   <g id="patch_8">
    <path d="M 103.652455 288.791298 
Q 163.074352 227.623963 221.717203 167.258556 
" clip-path="url(#p973850771e)" style="fill: none; stroke: #003fff; stroke-linecap: round"/>
    <path d="M 211.162881 170.947226 
L 221.717203 167.258556 
L 218.335546 177.915216 
z
" clip-path="url(#p973850771e)" style="fill: #003fff; stroke: #003fff; stroke-linecap: round"/>
   </g>
   <g id="text_1">
    <g id="patch_9">
     <path d="M 91.039947 332.93807 
L 105.388385 332.93807 
L 105.388385 315.259945 
L 91.039947 315.259945 
z
" style="fill: #ffffff; stroke: #ffffff; stroke-linejoin: miter"/>
    </g>
    <!-- b -->
    <g style="fill: #0000ff" transform="translate(95.039947 326.858382) scale(0.1 -0.1)">
     <defs>
      <path id="DejaVuSans-62" d="M 3116 1747 
Q 3116 2381 2855 2742 
Q 2594 3103 2138 3103 
Q 1681 3103 1420 2742 
Q 1159 2381 1159 1747 
Q 1159 1113 1420 752 
Q 1681 391 2138 391 
Q 2594 391 2855 752 
Q 3116 1113 3116 1747 
z
M 1159 2969 
Q 1341 3281 1617 3432 
Q 1894 3584 2278 3584 
Q 2916 3584 3314 3078 
Q 3713 2572 3713 1747 
Q 3713 922 3314 415 
Q 2916 -91 2278 -91 
Q 1894 -91 1617 61 
Q 1341 213 1159 525 
L 1159 0 
L 581 0 
L 581 4863 
L 1159 4863 
L 1159 2969 
z
" transform="scale(0.015625)"/>
     </defs>
     <use xlink:href="#DejaVuSans-62"/>
    </g>
   </g>
   <g id="text_2">
    <g id="patch_10">
     <path d="M 91.150104 347.792909 
L 105.278229 347.792909 
L 105.278229 330.114784 
L 91.150104 330.114784 
z
" style="fill: #ffffff; stroke: #ffffff; stroke-linejoin: miter"/>
    </g>
    <!-- a -->
    <g style="fill: #0000ff" transform="translate(95.150104 341.713221) scale(0.1 -0.1)">
     <defs>
      <path id="DejaVuSans-61" d="M 2194 1759 
Q 1497 1759 1228 1600 
Q 959 1441 959 1056 
Q 959 750 1161 570 
Q 1363 391 1709 391 
Q 2188 391 2477 730 
Q 2766 1069 2766 1631 
L 2766 1759 
L 2194 1759 
z
M 3341 1997 
L 3341 0 
L 2766 0 
L 2766 531 
Q 2569 213 2275 61 
Q 1981 -91 1556 -91 
Q 1019 -91 701 211 
Q 384 513 384 1019 
Q 384 1609 779 1909 
Q 1175 2209 1959 2209 
L 2766 2209 
L 2766 2266 
Q 2766 2663 2505 2880 
Q 2244 3097 1772 3097 
Q 1472 3097 1187 3025 
Q 903 2953 641 2809 
L 641 3341 
Q 956 3463 1253 3523 
Q 1550 3584 1831 3584 
Q 2591 3584 2966 3190 
Q 3341 2797 3341 1997 
z
" transform="scale(0.015625)"/>
     </defs>
     <use xlink:href="#DejaVuSans-61"/>
    </g>
   </g>
   <g id="text_3">
    <g id="patch_11">
     <path d="M 167.969073 246.813862 
L 179.489386 246.813862 
L 179.489386 229.135737 
L 167.969073 229.135737 
z
" style="fill: #ffffff; stroke: #ffffff; stroke-linejoin: miter"/>
    </g>
    <!-- f -->
    <g style="fill: #0000ff" transform="translate(171.969073 240.734174) scale(0.1 -0.1)">
     <defs>
      <path id="DejaVuSans-66" d="M 2375 4863 
L 2375 4384 
L 1825 4384 
Q 1516 4384 1395 4259 
Q 1275 4134 1275 3809 
L 1275 3500 
L 2222 3500 
L 2222 3053 
L 1275 3053 
L 1275 0 
L 697 0 
L 697 3053 
L 147 3053 
L 147 3500 
L 697 3500 
L 697 3744 
Q 697 4328 969 4595 
Q 1241 4863 1831 4863 
L 2375 4863 
z
" transform="scale(0.015625)"/>
     </defs>
     <use xlink:href="#DejaVuSans-66"/>
    </g>
   </g>
   <g id="text_4">
    <g id="patch_12">
     <path d="M 146.659317 226.112189 
L 158.17963 226.112189 
L 158.17963 208.434064 
L 146.659317 208.434064 
z
" style="fill: #ffffff; stroke: #ffffff; stroke-linejoin: miter"/>
    </g>
    <!-- f -->
    <g style="fill: #0000ff" transform="translate(150.659317 220.032502) scale(0.1 -0.1)">
     <use xlink:href="#DejaVuSans-66"/>
    </g>
   </g>
   <g id="text_5">
    <g id="patch_13">
     <path d="M 177.307545 257.164698 
L 191.46067 257.164698 
L 191.46067 239.486573 
L 177.307545 239.486573 
z
" style="fill: #ffffff; stroke: #ffffff; stroke-linejoin: miter"/>
    </g>
    <!-- e -->
    <g style="fill: #0000ff" transform="translate(181.307545 251.08501) scale(0.1 -0.1)">
     <defs>
      <path id="DejaVuSans-65" d="M 3597 1894 
L 3597 1613 
L 953 1613 
Q 991 1019 1311 708 
Q 1631 397 2203 397 
Q 2534 397 2845 478 
Q 3156 559 3463 722 
L 3463 178 
Q 3153 47 2828 -22 
Q 2503 -91 2169 -91 
Q 1331 -91 842 396 
Q 353 884 353 1716 
Q 353 2575 817 3079 
Q 1281 3584 2069 3584 
Q 2775 3584 3186 3129 
Q 3597 2675 3597 1894 
z
M 3022 2063 
Q 3016 2534 2758 2815 
Q 2500 3097 2075 3097 
Q 1594 3097 1305 2825 
Q 1016 2553 972 2059 
L 3022 2063 
z
" transform="scale(0.015625)"/>
     </defs>
     <use xlink:href="#DejaVuSans-65"/>
    </g>
   </g>
   <g id="text_6">
    <g id="patch_14">
     <path d="M 134.590377 215.761353 
L 148.938814 215.761353 
L 148.938814 198.083228 
L 134.590377 198.083228 
z
" style="fill: #ffffff; stroke: #ffffff; stroke-linejoin: miter"/>
    </g>
    <!-- d -->
    <g style="fill: #0000ff" transform="translate(138.590377 209.681666) scale(0.1 -0.1)">
     <defs>
      <path id="DejaVuSans-64" d="M 2906 2969 
L 2906 4863 
L 3481 4863 
L 3481 0 
L 2906 0 
L 2906 525 
Q 2725 213 2448 61 
Q 2172 -91 1784 -91 
Q 1150 -91 751 415 
Q 353 922 353 1747 
Q 353 2572 751 3078 
Q 1150 3584 1784 3584 
Q 2172 3584 2448 3432 
Q 2725 3281 2906 2969 
z
M 947 1747 
Q 947 1113 1208 752 
Q 1469 391 1925 391 
Q 2381 391 2643 752 
Q 2906 1113 2906 1747 
Q 2906 2381 2643 2742 
Q 2381 3103 1925 3103 
Q 1469 3103 1208 2742 
Q 947 2381 947 1747 
z
" transform="scale(0.015625)"/>
     </defs>
     <use xlink:href="#DejaVuSans-64"/>
    </g>
   </g>
   <g id="text_7">
    <g id="patch_15">
     <path d="M 362.844503 52.999569 
L 377.182003 52.999569 
L 377.182003 35.321444 
L 362.844503 35.321444 
z
" style="fill: #ffffff; stroke: #ffffff; stroke-linejoin: miter"/>
    </g>
    <!-- h -->
    <g style="fill: #0000ff" transform="translate(366.844503 46.919881) scale(0.1 -0.1)">
     <defs>
      <path id="DejaVuSans-68" d="M 3513 2113 
L 3513 0 
L 2938 0 
L 2938 2094 
Q 2938 2591 2744 2837 
Q 2550 3084 2163 3084 
Q 1697 3084 1428 2787 
Q 1159 2491 1159 1978 
L 1159 0 
L 581 0 
L 581 4863 
L 1159 4863 
L 1159 2956 
Q 1366 3272 1645 3428 
Q 1925 3584 2291 3584 
Q 2894 3584 3203 3211 
Q 3513 2838 3513 2113 
z
" transform="scale(0.015625)"/>
     </defs>
     <use xlink:href="#DejaVuSans-68"/>
    </g>
   </g>
   <g id="text_8">
    <g id="patch_16">
     <path d="M 291.799676 96.493775 
L 306.148114 96.493775 
L 306.148114 78.81565 
L 291.799676 78.81565 
z
" style="fill: #ffffff; stroke: #ffffff; stroke-linejoin: miter"/>
    </g>
    <!-- g -->
    <g style="fill: #0000ff" transform="translate(295.799676 90.414087) scale(0.1 -0.1)">
     <defs>
      <path id="DejaVuSans-67" d="M 2906 1791 
Q 2906 2416 2648 2759 
Q 2391 3103 1925 3103 
Q 1463 3103 1205 2759 
Q 947 2416 947 1791 
Q 947 1169 1205 825 
Q 1463 481 1925 481 
Q 2391 481 2648 825 
Q 2906 1169 2906 1791 
z
M 3481 434 
Q 3481 -459 3084 -895 
Q 2688 -1331 1869 -1331 
Q 1566 -1331 1297 -1286 
Q 1028 -1241 775 -1147 
L 775 -588 
Q 1028 -725 1275 -790 
Q 1522 -856 1778 -856 
Q 2344 -856 2625 -561 
Q 2906 -266 2906 331 
L 2906 616 
Q 2728 306 2450 153 
Q 2172 0 1784 0 
Q 1141 0 747 490 
Q 353 981 353 1791 
Q 353 2603 747 3093 
Q 1141 3584 1784 3584 
Q 2172 3584 2450 3431 
Q 2728 3278 2906 2969 
L 2906 3500 
L 3481 3500 
L 3481 434 
z
" transform="scale(0.015625)"/>
     </defs>
     <use xlink:href="#DejaVuSans-67"/>
    </g>
   </g>
   <g id="text_9">
    <g id="patch_17">
     <path d="M 156.325133 236.463025 
L 169.82357 236.463025 
L 169.82357 218.7849 
L 156.325133 218.7849 
z
" style="fill: #ffffff; stroke: #ffffff; stroke-linejoin: miter"/>
    </g>
    <!-- c -->
    <g style="fill: #0000ff" transform="translate(160.325133 230.383338) scale(0.1 -0.1)">
     <defs>
      <path id="DejaVuSans-63" d="M 3122 3366 
L 3122 2828 
Q 2878 2963 2633 3030 
Q 2388 3097 2138 3097 
Q 1578 3097 1268 2742 
Q 959 2388 959 1747 
Q 959 1106 1268 751 
Q 1578 397 2138 397 
Q 2388 397 2633 464 
Q 2878 531 3122 666 
L 3122 134 
Q 2881 22 2623 -34 
Q 2366 -91 2075 -91 
Q 1284 -91 818 406 
Q 353 903 353 1747 
Q 353 2603 823 3093 
Q 1294 3584 2113 3584 
Q 2378 3584 2631 3529 
Q 2884 3475 3122 3366 
z
" transform="scale(0.015625)"/>
     </defs>
     <use xlink:href="#DejaVuSans-63"/>
    </g>
   </g>
   <g id="patch_18">
    <path d="M 98.214166 302.194005 
C 100.28399 302.194005 102.269318 301.371655 103.732905 299.908068 
C 105.196491 298.444482 106.018841 296.459154 106.018841 294.38933 
C 106.018841 292.319506 105.196491 290.334178 103.732905 288.870591 
C 102.269318 287.407005 100.28399 286.584655 98.214166 286.584655 
C 96.144342 286.584655 94.159014 287.407005 92.695428 288.870591 
C 91.231841 290.334178 90.409491 292.319506 90.409491 294.38933 
C 90.409491 296.459154 91.231841 298.444482 92.695428 299.908068 
C 94.159014 301.371655 96.144342 302.194005 98.214166 302.194005 
z
" style="fill: #fec7b8; stroke: #000000; stroke-linejoin: miter"/>
   </g>
   <g id="patch_19">
    <path d="M 227.934537 168.663271 
C 230.004361 168.663271 231.989689 167.840921 233.453275 166.377335 
C 234.916862 164.913748 235.739212 162.92842 235.739212 160.858596 
C 235.739212 158.788772 234.916862 156.803444 233.453275 155.339858 
C 231.989689 153.876271 230.004361 153.053921 227.934537 153.053921 
C 225.864713 153.053921 223.879385 153.876271 222.415798 155.339858 
C 220.952212 156.803444 220.129862 158.788772 220.129862 160.858596 
C 220.129862 162.92842 220.952212 164.913748 222.415798 166.377335 
C 223.879385 167.840921 225.864713 168.663271 227.934537 168.663271 
z
" style="fill: #fec7b8; stroke: #000000; stroke-linejoin: miter"/>
   </g>
   <g id="patch_20">
    <path d="M 370.013253 22.255503 
C 372.083077 22.255503 374.068405 21.433154 375.531992 19.969567 
C 376.995578 18.505981 377.817928 16.520653 377.817928 14.450829 
C 377.817928 12.381005 376.995578 10.395677 375.531992 8.93209 
C 374.068405 7.468504 372.083077 6.646154 370.013253 6.646154 
C 367.943429 6.646154 365.958101 7.468504 364.494515 8.93209 
C 363.030928 10.395677 362.208578 12.381005 362.208578 14.450829 
C 362.208578 16.520653 363.030928 18.505981 364.494515 19.969567 
C 365.958101 21.433154 367.943429 22.255503 370.013253 22.255503 
z
" style="fill: #fec7b8; stroke: #000000; stroke-linejoin: miter"/>
   </g>
   <g id="patch_21">
    <path d="M 98.214166 324.099007 
C 102.153716 324.099007 105.932441 322.533808 108.718123 319.748126 
C 111.503805 316.962444 113.069005 313.183718 113.069005 309.244169 
C 113.069005 305.304619 111.503805 301.525893 108.718123 298.740211 
C 105.932441 295.954529 102.153716 294.38933 98.214166 294.38933 
C 94.274617 294.38933 90.495891 295.954529 87.710209 298.740211 
C 84.924527 301.525893 83.359327 305.304619 83.359327 309.244169 
C 83.359327 313.183718 84.924527 316.962444 87.710209 319.748126 
C 90.495891 322.533808 94.274617 324.099007 98.214166 324.099007 
L 98.214166 324.099007 
z
" clip-path="url(#p973850771e)" style="fill: none; stroke: #ff0000; stroke-linejoin: miter"/>
   </g>
   <g id="patch_22">
    <path d="M 98.214166 338.953846 
C 104.12349 338.953846 109.791579 336.606047 113.970102 332.427524 
C 118.148625 328.249001 120.496424 322.580912 120.496424 316.671588 
C 120.496424 310.762264 118.148625 305.094175 113.970102 300.915652 
C 109.791579 296.737129 104.12349 294.38933 98.214166 294.38933 
C 92.304842 294.38933 86.636753 296.737129 82.45823 300.915652 
C 78.279707 305.094175 75.931908 310.762264 75.931908 316.671588 
C 75.931908 322.580912 78.279707 328.249001 82.45823 332.427524 
C 86.636753 336.606047 92.304842 338.953846 98.214166 338.953846 
L 98.214166 338.953846 
z
" clip-path="url(#p973850771e)" style="fill: none; stroke: #ffbf00; stroke-linejoin: miter"/>
   </g>
   <g id="patch_23">
    <path d="M 370.013253 44.160506 
C 373.952802 44.160506 377.731528 42.595307 380.51721 39.809625 
C 383.302892 37.023943 384.868092 33.245217 384.868092 29.305667 
C 384.868092 25.366118 383.302892 21.587392 380.51721 18.80171 
C 377.731528 16.016028 373.952802 14.450829 370.013253 14.450829 
C 366.073704 14.450829 362.294978 16.016028 359.509296 18.80171 
C 356.723614 21.587392 355.158414 25.366118 355.158414 29.305667 
C 355.158414 33.245217 356.723614 37.023943 359.509296 39.809625 
C 362.294978 42.595307 366.073704 44.160506 370.013253 44.160506 
L 370.013253 44.160506 
z
" clip-path="url(#p973850771e)" style="fill: none; stroke: #ff00bf; stroke-linejoin: miter"/>
   </g>
   <g id="text_10">
    <!-- 0 -->
    <g transform="translate(95.032916 297.148705) scale(0.1 -0.1)">
     <defs>
      <path id="DejaVuSans-30" d="M 2034 4250 
Q 1547 4250 1301 3770 
Q 1056 3291 1056 2328 
Q 1056 1369 1301 889 
Q 1547 409 2034 409 
Q 2525 409 2770 889 
Q 3016 1369 3016 2328 
Q 3016 3291 2770 3770 
Q 2525 4250 2034 4250 
z
M 2034 4750 
Q 2819 4750 3233 4129 
Q 3647 3509 3647 2328 
Q 3647 1150 3233 529 
Q 2819 -91 2034 -91 
Q 1250 -91 836 529 
Q 422 1150 422 2328 
Q 422 3509 836 4129 
Q 1250 4750 2034 4750 
z
" transform="scale(0.015625)"/>
     </defs>
     <use xlink:href="#DejaVuSans-30"/>
    </g>
   </g>
   <g id="text_11">
    <!-- 1 -->
    <g transform="translate(224.753287 163.617971) scale(0.1 -0.1)">
     <defs>
      <path id="DejaVuSans-31" d="M 794 531 
L 1825 531 
L 1825 4091 
L 703 3866 
L 703 4441 
L 1819 4666 
L 2450 4666 
L 2450 531 
L 3481 531 
L 3481 0 
L 794 0 
L 794 531 
z
" transform="scale(0.015625)"/>
     </defs>
     <use xlink:href="#DejaVuSans-31"/>
    </g>
   </g>
   <g id="text_12">
    <!-- 2 -->
    <g transform="translate(366.832003 17.210204) scale(0.1 -0.1)">
     <defs>
      <path id="DejaVuSans-32" d="M 1228 531 
L 3431 531 
L 3431 0 
L 469 0 
L 469 531 
Q 828 903 1448 1529 
Q 2069 2156 2228 2338 
Q 2531 2678 2651 2914 
Q 2772 3150 2772 3378 
Q 2772 3750 2511 3984 
Q 2250 4219 1831 4219 
Q 1534 4219 1204 4116 
Q 875 4013 500 3803 
L 500 4441 
Q 881 4594 1212 4672 
Q 1544 4750 1819 4750 
Q 2544 4750 2975 4387 
Q 3406 4025 3406 3419 
Q 3406 3131 3298 2873 
Q 3191 2616 2906 2266 
Q 2828 2175 2409 1742 
Q 1991 1309 1228 531 
z
" transform="scale(0.015625)"/>
     </defs>
     <use xlink:href="#DejaVuSans-32"/>
    </g>
   </g>
  </g>
 </g>
 <defs>
  <clipPath id="p973850771e">
   <rect x="69.753184" y="0" width="321.293631" height="345.6"/>
  </clipPath>
 </defs>
</svg>
