<?xml version="1.0" encoding="utf-8" standalone="no"?>
<!DOCTYPE svg PUBLIC "-//W3C//DTD SVG 1.1//EN"
  "http://www.w3.org/Graphics/SVG/1.1/DTD/svg11.dtd">
<svg xmlns:xlink="http://www.w3.org/1999/xlink" width="460.8pt" height="345.6pt" viewBox="0 0 460.8 345.6" xmlns="http://www.w3.org/2000/svg" version="1.1">
 <metadata>
  <rdf:RDF xmlns:dc="http://purl.org/dc/elements/1.1/" xmlns:cc="http://creativecommons.org/ns#" xmlns:rdf="http://www.w3.org/1999/02/22-rdf-syntax-ns#">
   <cc:Work>
    <dc:type rdf:resource="http://purl.org/dc/dcmitype/StillImage"/>
    <dc:date>2025-08-02T18:47:18.850718</dc:date>
    <dc:format>image/svg+xml</dc:format>
    <dc:creator>
     <cc:Agent>
      <dc:title>Matplotlib v3.10.3, https://matplotlib.org/</dc:title>
     </cc:Agent>
    </dc:creator>
   </cc:Work>
  </rdf:RDF>
 </metadata>
 <defs>
  <style type="text/css">*{stroke-linejoin: round; stroke-linecap: butt}</style>
 </defs>
 <g id="figure_1">
  <g id="patch_1">
   <path d="M 0 345.6 
L 460.8 345.6 
L 460.8 0 
L 0 0 
z
" style="fill: #ffffff"/>
  </g>
  <g id="axes_1">
   <g id="patch_2">
    <path d="M 62.497102 345.6 
L 398.302898 345.6 
L 398.302898 0 
L 62.497102 0 
z
" style="fill: #ffffff"/>
   </g>
   <g id="matplotlib.axis_1"/>
   <g id="matplotlib.axis_2"/>
   <g id="patch_3">
    <path d="M 92.990294 299.473032 
Q 132.878756 260.706188 171.965457 222.718561 
" clip-path="url(#p1568d8a150)" style="fill: none; stroke: #00ff00; stroke-linecap: round"/>
    <path d="M 161.309522 226.102502 
L 171.965457 222.718561 
L 168.279049 233.273673 
z
" clip-path="url(#p1568d8a150)" style="fill: #00ff00; stroke: #00ff00; stroke-linecap: round"/>
   </g>
   <g id="patch_4">
    <path d="M 189.449695 205.670869 
Q 236.019099 160.102857 281.789389 115.316777 
" clip-path="url(#p1568d8a150)" style="fill: none; stroke: #00ff00; stroke-linecap: round"/>
    <path d="M 271.14499 118.736831 
L 281.789389 115.316777 
L 278.138793 125.884329 
z
" clip-path="url(#p1568d8a150)" style="fill: #00ff00; stroke: #00ff00; stroke-linecap: round"/>
   </g>
   <g id="patch_5">
    <path d="M 299.209384 98.203469 
Q 335.555094 62.341738 371.104954 27.265261 
" clip-path="url(#p1568d8a150)" style="fill: none; stroke: #000000; stroke-linecap: round"/>
    <path d="M 360.474894 30.729625 
L 371.104954 27.265261 
L 367.498409 37.847928 
z
" clip-path="url(#p1568d8a150)" style="stroke: #000000; stroke-linecap: round"/>
   </g>
   <g id="patch_6">
    <path d="M 84.635265 319.243985 
C 87.725108 319.243985 90.688815 318.016377 92.873665 315.831528 
C 95.058514 313.646678 96.286122 310.682971 96.286122 307.593128 
C 96.286122 304.503284 95.058514 301.539577 92.873665 299.354728 
C 90.688815 297.169878 87.725108 295.942271 84.635265 295.942271 
C 81.545421 295.942271 78.581714 297.169878 76.396865 299.354728 
C 74.212015 301.539577 72.984408 304.503284 72.984408 307.593128 
C 72.984408 310.682971 74.212015 313.646678 76.396865 315.831528 
C 78.581714 318.016377 81.545421 319.243985 84.635265 319.243985 
z
" style="fill: #fec7b8; stroke: #000000; stroke-linejoin: miter"/>
   </g>
   <g id="patch_7">
    <path d="M 181.122248 225.470106 
C 184.212091 225.470106 187.175799 224.242498 189.360648 222.057649 
C 191.545497 219.8728 192.773105 216.909092 192.773105 213.819249 
C 192.773105 210.729405 191.545497 207.765698 189.360648 205.580849 
C 187.175799 203.395999 184.212091 202.168392 181.122248 202.168392 
C 178.032404 202.168392 175.068697 203.395999 172.883848 205.580849 
C 170.698999 207.765698 169.471391 210.729405 169.471391 213.819249 
C 169.471391 216.909092 170.698999 219.8728 172.883848 222.057649 
C 175.068697 224.242498 178.032404 225.470106 181.122248 225.470106 
z
" style="fill: #fec7b8; stroke: #000000; stroke-linejoin: miter"/>
   </g>
   <g id="patch_8">
    <path d="M 290.915951 118.037323 
C 294.005794 118.037323 296.969502 116.809715 299.154351 114.624866 
C 301.3392 112.440017 302.566808 109.476309 302.566808 106.386466 
C 302.566808 103.296623 301.3392 100.332915 299.154351 98.148066 
C 296.969502 95.963217 294.005794 94.735609 290.915951 94.735609 
C 287.826108 94.735609 284.8624 95.963217 282.677551 98.148066 
C 280.492702 100.332915 279.265094 103.296623 279.265094 106.386466 
C 279.265094 109.476309 280.492702 112.440017 282.677551 114.624866 
C 284.8624 116.809715 287.826108 118.037323 290.915951 118.037323 
z
" style="fill: #fec7b8; stroke: #000000; stroke-linejoin: miter"/>
   </g>
   <g id="patch_9">
    <path d="M 380.194237 29.947868 
C 383.284081 29.947868 386.247788 28.72026 388.432638 26.535411 
C 390.617487 24.350562 391.845095 21.386854 391.845095 18.297011 
C 391.845095 15.207168 390.617487 12.24346 388.432638 10.058611 
C 386.247788 7.873762 383.284081 6.646154 380.194237 6.646154 
C 377.104394 6.646154 374.140687 7.873762 371.955837 10.058611 
C 369.770988 12.24346 368.54338 15.207168 368.54338 18.297011 
C 368.54338 21.386854 369.770988 24.350562 371.955837 26.535411 
C 374.140687 28.72026 377.104394 29.947868 380.194237 29.947868 
z
" style="fill: #fec7b8; stroke: #000000; stroke-linejoin: miter"/>
   </g>
   <g id="patch_10">
    <path d="M 84.635265 338.953846 
C 88.793745 338.953846 92.782464 337.301665 95.722953 334.361175 
C 98.663442 331.420686 100.315624 327.431967 100.315624 323.273487 
C 100.315624 319.115007 98.663442 315.126288 95.722953 312.185799 
C 92.782464 309.245309 88.793745 307.593128 84.635265 307.593128 
C 80.476785 307.593128 76.488066 309.245309 73.547576 312.185799 
C 70.607087 315.126288 68.954905 319.115007 68.954905 323.273487 
C 68.954905 327.431967 70.607087 331.420686 73.547576 334.361175 
C 76.488066 337.301665 80.476785 338.953846 84.635265 338.953846 
L 84.635265 338.953846 
z
" clip-path="url(#p1568d8a150)" style="fill: none; stroke: #000000; stroke-linejoin: miter"/>
   </g>
   <g id="text_1">
    <!-- 0 -->
    <g transform="translate(81.454015 310.352503) scale(0.1 -0.1)">
     <defs>
      <path id="DejaVuSans-30" d="M 2034 4250 
Q 1547 4250 1301 3770 
Q 1056 3291 1056 2328 
Q 1056 1369 1301 889 
Q 1547 409 2034 409 
Q 2525 409 2770 889 
Q 3016 1369 3016 2328 
Q 3016 3291 2770 3770 
Q 2525 4250 2034 4250 
z
M 2034 4750 
Q 2819 4750 3233 4129 
Q 3647 3509 3647 2328 
Q 3647 1150 3233 529 
Q 2819 -91 2034 -91 
Q 1250 -91 836 529 
Q 422 1150 422 2328 
Q 422 3509 836 4129 
Q 1250 4750 2034 4750 
z
" transform="scale(0.015625)"/>
     </defs>
     <use xlink:href="#DejaVuSans-30"/>
    </g>
   </g>
   <g id="text_2">
    <!-- 1 -->
    <g transform="translate(177.940998 216.578624) scale(0.1 -0.1)">
     <defs>
      <path id="DejaVuSans-31" d="M 794 531 
L 1825 531 
L 1825 4091 
L 703 3866 
L 703 4441 
L 1819 4666 
L 2450 4666 
L 2450 531 
L 3481 531 
L 3481 0 
L 794 0 
L 794 531 
z
" transform="scale(0.015625)"/>
     </defs>
     <use xlink:href="#DejaVuSans-31"/>
    </g>
   </g>
   <g id="text_3">
    <!-- 2 -->
    <g transform="translate(287.734701 109.145841) scale(0.1 -0.1)">
     <defs>
      <path id="DejaVuSans-32" d="M 1228 531 
L 3431 531 
L 3431 0 
L 469 0 
L 469 531 
Q 828 903 1448 1529 
Q 2069 2156 2228 2338 
Q 2531 2678 2651 2914 
Q 2772 3150 2772 3378 
Q 2772 3750 2511 3984 
Q 2250 4219 1831 4219 
Q 1534 4219 1204 4116 
Q 875 4013 500 3803 
L 500 4441 
Q 881 4594 1212 4672 
Q 1544 4750 1819 4750 
Q 2544 4750 2975 4387 
Q 3406 4025 3406 3419 
Q 3406 3131 3298 2873 
Q 3191 2616 2906 2266 
Q 2828 2175 2409 1742 
Q 1991 1309 1228 531 
z
" transform="scale(0.015625)"/>
     </defs>
     <use xlink:href="#DejaVuSans-32"/>
    </g>
   </g>
   <g id="text_4">
    <!-- 3 -->
    <g transform="translate(377.012987 21.056386) scale(0.1 -0.1)">
     <defs>
      <path id="DejaVuSans-33" d="M 2597 2516 
Q 3050 2419 3304 2112 
Q 3559 1806 3559 1356 
Q 3559 666 3084 287 
Q 2609 -91 1734 -91 
Q 1441 -91 1130 -33 
Q 819 25 488 141 
L 488 750 
Q 750 597 1062 519 
Q 1375 441 1716 441 
Q 2309 441 2620 675 
Q 2931 909 2931 1356 
Q 2931 1769 2642 2001 
Q 2353 2234 1838 2234 
L 1294 2234 
L 1294 2753 
L 1863 2753 
Q 2328 2753 2575 2939 
Q 2822 3125 2822 3475 
Q 2822 3834 2567 4026 
Q 2313 4219 1838 4219 
Q 1578 4219 1281 4162 
Q 984 4106 628 3988 
L 628 4550 
Q 988 4650 1302 4700 
Q 1616 4750 1894 4750 
Q 2613 4750 3031 4423 
Q 3450 4097 3450 3541 
Q 3450 3153 3228 2886 
Q 3006 2619 2597 2516 
z
" transform="scale(0.015625)"/>
     </defs>
     <use xlink:href="#DejaVuSans-33"/>
    </g>
   </g>
  </g>
 </g>
 <defs>
  <clipPath id="p1568d8a150">
   <rect x="62.497102" y="0" width="335.805797" height="345.6"/>
  </clipPath>
 </defs>
</svg>
