<?xml version="1.0" encoding="utf-8" standalone="no"?>
<!DOCTYPE svg PUBLIC "-//W3C//DTD SVG 1.1//EN"
  "http://www.w3.org/Graphics/SVG/1.1/DTD/svg11.dtd">
<svg xmlns:xlink="http://www.w3.org/1999/xlink" width="460.8pt" height="345.6pt" viewBox="0 0 460.8 345.6" xmlns="http://www.w3.org/2000/svg" version="1.1">
 <metadata>
  <rdf:RDF xmlns:dc="http://purl.org/dc/elements/1.1/" xmlns:cc="http://creativecommons.org/ns#" xmlns:rdf="http://www.w3.org/1999/02/22-rdf-syntax-ns#">
   <cc:Work>
    <dc:type rdf:resource="http://purl.org/dc/dcmitype/StillImage"/>
    <dc:date>2025-08-08T16:16:00.622726</dc:date>
    <dc:format>image/svg+xml</dc:format>
    <dc:creator>
     <cc:Agent>
      <dc:title>Matplotlib v3.10.3, https://matplotlib.org/</dc:title>
     </cc:Agent>
    </dc:creator>
   </cc:Work>
  </rdf:RDF>
 </metadata>
 <defs>
  <style type="text/css">*{stroke-linejoin: round; stroke-linecap: butt}</style>
 </defs>
 <g id="figure_1">
  <g id="patch_1">
   <path d="M 0 345.6 
L 460.8 345.6 
L 460.8 0 
L 0 0 
z
" style="fill: #ffffff"/>
  </g>
  <g id="axes_1">
   <g id="patch_2">
    <path d="M 0 291.414388 
L 460.8 291.414388 
L 460.8 54.185612 
L 0 54.185612 
z
" style="fill: #ffffff"/>
   </g>
   <g id="patch_3">
    <path d="M 157.789312 122.21944 
Q 100.603597 83.357611 35.051654 101.524535 
" clip-path="url(#p452d9431ec)" style="fill: none; stroke: #000000; stroke-linecap: round"/>
    <path d="M 56.995903 105.819877 
L 35.051654 101.524535 
L 51.654477 86.546342 
z
" clip-path="url(#p452d9431ec)" style="stroke: #000000; stroke-linecap: round"/>
   </g>
   <g id="patch_4">
    <path d="M 154.965147 133.121574 
Q 89.413204 151.288499 32.227488 112.426669 
" clip-path="url(#p452d9431ec)" style="fill: none; stroke: #000000; stroke-linecap: round"/>
    <path d="M 133.020898 128.826233 
L 154.965147 133.121574 
L 138.362324 148.099768 
z
" clip-path="url(#p452d9431ec)" style="stroke: #000000; stroke-linecap: round"/>
   </g>
   <g id="matplotlib.axis_1"/>
   <g id="matplotlib.axis_2"/>
   <g id="patch_5">
    <path d="M 179.715566 123.512536 
Q 224.073023 100.471911 267.438311 77.946649 
" clip-path="url(#p452d9431ec)" style="fill: none; stroke: #000000; stroke-linecap: round"/>
    <path d="M 245.08029 78.291514 
L 267.438311 77.946649 
L 254.299391 96.039984 
z
" clip-path="url(#p452d9431ec)" style="stroke: #000000; stroke-linecap: round"/>
   </g>
   <g id="patch_6">
    <path d="M 180.25395 134.123514 
Q 244.452706 159.59286 307.612225 184.649914 
" clip-path="url(#p452d9431ec)" style="fill: none; stroke: #000000; stroke-linecap: round"/>
    <path d="M 292.709441 167.97937 
L 307.612225 184.649914 
L 285.334119 186.569814 
z
" clip-path="url(#p452d9431ec)" style="stroke: #000000; stroke-linecap: round"/>
   </g>
   <g id="patch_7">
    <path d="M 284.311466 84.683745 
Q 300.159075 130.657262 316.371043 177.687775 
" clip-path="url(#p452d9431ec)" style="fill: none; stroke: #000000; stroke-linecap: round"/>
    <path d="M 281.375253 106.850808 
L 284.311466 84.683745 
L 300.283388 100.332953 
z
" clip-path="url(#p452d9431ec)" style="stroke: #000000; stroke-linecap: round"/>
   </g>
   <g id="patch_8">
    <path d="M 330.9634 197.186 
Q 379.844305 231.92095 427.813845 266.008279 
" clip-path="url(#p452d9431ec)" style="fill: none; stroke: #000000; stroke-linecap: round"/>
    <path d="M 417.303322 246.271792 
L 427.813845 266.008279 
L 405.718342 262.574805 
z
" clip-path="url(#p452d9431ec)" style="stroke: #000000; stroke-linecap: round"/>
   </g>
   <g id="patch_9">
    <path d="M 168.366654 142.196117 
C 171.758233 142.196117 175.011358 140.848629 177.409566 138.450421 
C 179.807774 136.052212 181.155262 132.799088 181.155262 129.407509 
C 181.155262 126.015931 179.807774 122.762806 177.409566 120.364598 
C 175.011358 117.966389 171.758233 116.618901 168.366654 116.618901 
C 164.975076 116.618901 161.721951 117.966389 159.323743 120.364598 
C 156.925535 122.762806 155.578046 126.015931 155.578046 129.407509 
C 155.578046 132.799088 156.925535 136.052212 159.323743 138.450421 
C 161.721951 140.848629 164.975076 142.196117 168.366654 142.196117 
z
" style="fill: #fec7b8; stroke: #000000; stroke-linejoin: miter"/>
   </g>
   <g id="patch_10">
    <path d="M 279.779392 84.32492 
C 283.17097 84.32492 286.424095 82.977432 288.822303 80.579224 
C 291.220511 78.181016 292.568 74.927891 292.568 71.536312 
C 292.568 68.144734 291.220511 64.891609 288.822303 62.493401 
C 286.424095 60.095193 283.17097 58.747704 279.779392 58.747704 
C 276.387813 58.747704 273.134688 60.095193 270.73648 62.493401 
C 268.338272 64.891609 266.990783 68.144734 266.990783 71.536312 
C 266.990783 74.927891 268.338272 78.181016 270.73648 80.579224 
C 273.134688 82.977432 276.387813 84.32492 279.779392 84.32492 
z
" style="fill: #fec7b8; stroke: #000000; stroke-linejoin: miter"/>
   </g>
   <g id="patch_11">
    <path d="M 320.538757 202.56682 
C 323.930336 202.56682 327.183461 201.219331 329.581669 198.821123 
C 331.979877 196.422915 333.327366 193.16979 333.327366 189.778212 
C 333.327366 186.386633 331.979877 183.133508 329.581669 180.7353 
C 327.183461 178.337092 323.930336 176.989604 320.538757 176.989604 
C 317.147179 176.989604 313.894054 178.337092 311.495846 180.7353 
C 309.097638 183.133508 307.750149 186.386633 307.750149 189.778212 
C 307.750149 193.16979 309.097638 196.422915 311.495846 198.821123 
C 313.894054 201.219331 317.147179 202.56682 320.538757 202.56682 
z
" style="fill: #fec7b8; stroke: #000000; stroke-linejoin: miter"/>
   </g>
   <g id="patch_12">
    <path d="M 21.650147 118.027209 
C 25.041725 118.027209 28.29485 116.67972 30.693058 114.281512 
C 33.091266 111.883304 34.438755 108.630179 34.438755 105.238601 
C 34.438755 101.847022 33.091266 98.593897 30.693058 96.195689 
C 28.29485 93.797481 25.041725 92.449992 21.650147 92.449992 
C 18.258568 92.449992 15.005443 93.797481 12.607235 96.195689 
C 10.209027 98.593897 8.861538 101.847022 8.861538 105.238601 
C 8.861538 108.630179 10.209027 111.883304 12.607235 114.281512 
C 15.005443 116.67972 18.258568 118.027209 21.650147 118.027209 
z
" style="fill: #fec7b8; stroke: #000000; stroke-linejoin: miter"/>
   </g>
   <g id="patch_13">
    <path d="M 439.149853 286.852296 
C 442.541432 286.852296 445.794557 285.504807 448.192765 283.106599 
C 450.590973 280.708391 451.938462 277.455266 451.938462 274.063688 
C 451.938462 270.672109 450.590973 267.418984 448.192765 265.020776 
C 445.794557 262.622568 442.541432 261.27508 439.149853 261.27508 
C 435.758275 261.27508 432.50515 262.622568 430.106942 265.020776 
C 427.708734 267.418984 426.361245 270.672109 426.361245 274.063688 
C 426.361245 277.455266 427.708734 280.708391 430.106942 283.106599 
C 432.50515 285.504807 435.758275 286.852296 439.149853 286.852296 
z
" style="fill: #fec7b8; stroke: #000000; stroke-linejoin: miter"/>
   </g>
   <g id="text_1">
    <!-- 0 -->
    <g transform="translate(162.004154 134.926259) scale(0.2 -0.2)">
     <defs>
      <path id="DejaVuSans-30" d="M 2034 4250 
Q 1547 4250 1301 3770 
Q 1056 3291 1056 2328 
Q 1056 1369 1301 889 
Q 1547 409 2034 409 
Q 2525 409 2770 889 
Q 3016 1369 3016 2328 
Q 3016 3291 2770 3770 
Q 2525 4250 2034 4250 
z
M 2034 4750 
Q 2819 4750 3233 4129 
Q 3647 3509 3647 2328 
Q 3647 1150 3233 529 
Q 2819 -91 2034 -91 
Q 1250 -91 836 529 
Q 422 1150 422 2328 
Q 422 3509 836 4129 
Q 1250 4750 2034 4750 
z
" transform="scale(0.015625)"/>
     </defs>
     <use xlink:href="#DejaVuSans-30"/>
    </g>
   </g>
   <g id="text_2">
    <!-- 1 -->
    <g transform="translate(273.416892 77.055062) scale(0.2 -0.2)">
     <defs>
      <path id="DejaVuSans-31" d="M 794 531 
L 1825 531 
L 1825 4091 
L 703 3866 
L 703 4441 
L 1819 4666 
L 2450 4666 
L 2450 531 
L 3481 531 
L 3481 0 
L 794 0 
L 794 531 
z
" transform="scale(0.015625)"/>
     </defs>
     <use xlink:href="#DejaVuSans-31"/>
    </g>
   </g>
   <g id="text_3">
    <!-- 2 -->
    <g transform="translate(314.176257 195.296962) scale(0.2 -0.2)">
     <defs>
      <path id="DejaVuSans-32" d="M 1228 531 
L 3431 531 
L 3431 0 
L 469 0 
L 469 531 
Q 828 903 1448 1529 
Q 2069 2156 2228 2338 
Q 2531 2678 2651 2914 
Q 2772 3150 2772 3378 
Q 2772 3750 2511 3984 
Q 2250 4219 1831 4219 
Q 1534 4219 1204 4116 
Q 875 4013 500 3803 
L 500 4441 
Q 881 4594 1212 4672 
Q 1544 4750 1819 4750 
Q 2544 4750 2975 4387 
Q 3406 4025 3406 3419 
Q 3406 3131 3298 2873 
Q 3191 2616 2906 2266 
Q 2828 2175 2409 1742 
Q 1991 1309 1228 531 
z
" transform="scale(0.015625)"/>
     </defs>
     <use xlink:href="#DejaVuSans-32"/>
    </g>
   </g>
   <g id="text_4">
    <!-- 3 -->
    <g transform="translate(15.287647 110.757351) scale(0.2 -0.2)">
     <defs>
      <path id="DejaVuSans-33" d="M 2597 2516 
Q 3050 2419 3304 2112 
Q 3559 1806 3559 1356 
Q 3559 666 3084 287 
Q 2609 -91 1734 -91 
Q 1441 -91 1130 -33 
Q 819 25 488 141 
L 488 750 
Q 750 597 1062 519 
Q 1375 441 1716 441 
Q 2309 441 2620 675 
Q 2931 909 2931 1356 
Q 2931 1769 2642 2001 
Q 2353 2234 1838 2234 
L 1294 2234 
L 1294 2753 
L 1863 2753 
Q 2328 2753 2575 2939 
Q 2822 3125 2822 3475 
Q 2822 3834 2567 4026 
Q 2313 4219 1838 4219 
Q 1578 4219 1281 4162 
Q 984 4106 628 3988 
L 628 4550 
Q 988 4650 1302 4700 
Q 1616 4750 1894 4750 
Q 2613 4750 3031 4423 
Q 3450 4097 3450 3541 
Q 3450 3153 3228 2886 
Q 3006 2619 2597 2516 
z
" transform="scale(0.015625)"/>
     </defs>
     <use xlink:href="#DejaVuSans-33"/>
    </g>
   </g>
   <g id="text_5">
    <!-- 4 -->
    <g transform="translate(432.787353 279.582438) scale(0.2 -0.2)">
     <defs>
      <path id="DejaVuSans-34" d="M 2419 4116 
L 825 1625 
L 2419 1625 
L 2419 4116 
z
M 2253 4666 
L 3047 4666 
L 3047 1625 
L 3713 1625 
L 3713 1100 
L 3047 1100 
L 3047 0 
L 2419 0 
L 2419 1100 
L 313 1100 
L 313 1709 
L 2253 4666 
z
" transform="scale(0.015625)"/>
     </defs>
     <use xlink:href="#DejaVuSans-34"/>
    </g>
   </g>
  </g>
 </g>
 <defs>
  <clipPath id="p452d9431ec">
   <rect x="0" y="54.185612" width="460.8" height="237.228775"/>
  </clipPath>
 </defs>
</svg>
