<?xml version="1.0" encoding="utf-8" standalone="no"?>
<!DOCTYPE svg PUBLIC "-//W3C//DTD SVG 1.1//EN"
  "http://www.w3.org/Graphics/SVG/1.1/DTD/svg11.dtd">
<svg xmlns:xlink="http://www.w3.org/1999/xlink" width="460.8pt" height="345.6pt" viewBox="0 0 460.8 345.6" xmlns="http://www.w3.org/2000/svg" version="1.1">
 <metadata>
  <rdf:RDF xmlns:dc="http://purl.org/dc/elements/1.1/" xmlns:cc="http://creativecommons.org/ns#" xmlns:rdf="http://www.w3.org/1999/02/22-rdf-syntax-ns#">
   <cc:Work>
    <dc:type rdf:resource="http://purl.org/dc/dcmitype/StillImage"/>
    <dc:date>2025-08-07T23:29:20.510093</dc:date>
    <dc:format>image/svg+xml</dc:format>
    <dc:creator>
     <cc:Agent>
      <dc:title>Matplotlib v3.10.3, https://matplotlib.org/</dc:title>
     </cc:Agent>
    </dc:creator>
   </cc:Work>
  </rdf:RDF>
 </metadata>
 <defs>
  <style type="text/css">*{stroke-linejoin: round; stroke-linecap: butt}</style>
 </defs>
 <g id="figure_1">
  <g id="patch_1">
   <path d="M 0 345.6 
L 460.8 345.6 
L 460.8 0 
L 0 0 
z
" style="fill: #ffffff"/>
  </g>
  <g id="axes_1">
   <g id="patch_2">
    <path d="M 146.738466 345.6 
L 314.061534 345.6 
L 314.061534 0 
L 146.738466 0 
z
" style="fill: #ffffff"/>
   </g>
   <g id="patch_3">
    <path d="M 249.780352 102.837781 
Q 292.866802 75.750524 299.937089 26.479629 
" clip-path="url(#p55cb9ee10f)" style="fill: none; stroke: #000000; stroke-linecap: round"/>
    <path d="M 287.19762 44.856406 
L 299.937089 26.479629 
L 306.994829 47.697271 
z
" clip-path="url(#p55cb9ee10f)" style="stroke: #000000; stroke-linecap: round"/>
   </g>
   <g id="patch_4">
    <path d="M 243.308524 97.424303 
Q 250.378812 48.153408 293.465262 21.066151 
" clip-path="url(#p55cb9ee10f)" style="fill: none; stroke: #000000; stroke-linecap: round"/>
    <path d="M 256.047994 79.047526 
L 243.308524 97.424303 
L 236.250785 76.206661 
z
" clip-path="url(#p55cb9ee10f)" style="stroke: #000000; stroke-linecap: round"/>
   </g>
   <g id="matplotlib.axis_1"/>
   <g id="matplotlib.axis_2"/>
   <g id="patch_5">
    <path d="M 233.027601 111.221107 
Q 200.590125 123.680282 169.196342 135.738577 
" clip-path="url(#p55cb9ee10f)" style="fill: none; stroke: #000000; stroke-linecap: round"/>
    <path d="M 191.452073 137.902481 
L 169.196342 135.738577 
L 184.280904 119.232335 
z
" clip-path="url(#p55cb9ee10f)" style="stroke: #000000; stroke-linecap: round"/>
   </g>
   <g id="patch_6">
    <path d="M 238.988874 116.824066 
Q 224.857859 161.745109 211.062341 205.599642 
" clip-path="url(#p55cb9ee10f)" style="fill: none; stroke: #000000; stroke-linecap: round"/>
    <path d="M 226.603036 189.522118 
L 211.062341 205.599642 
L 207.524738 183.520571 
z
" clip-path="url(#p55cb9ee10f)" style="stroke: #000000; stroke-linecap: round"/>
   </g>
   <g id="patch_7">
    <path d="M 165.027565 148.392191 
Q 183.635052 177.578714 202.843571 207.707978 
" clip-path="url(#p55cb9ee10f)" style="fill: none; stroke: #000000; stroke-linecap: round"/>
    <path d="M 167.347025 170.632248 
L 165.027565 148.392191 
L 184.211286 159.880658 
z
" clip-path="url(#p55cb9ee10f)" style="stroke: #000000; stroke-linecap: round"/>
   </g>
   <g id="patch_8">
    <path d="M 207.583757 225.049233 
Q 205.971126 272.593143 204.396396 319.019662 
" clip-path="url(#p55cb9ee10f)" style="fill: none; stroke: #000000; stroke-linecap: round"/>
    <path d="M 215.068634 299.370149 
L 204.396396 319.019662 
L 195.080129 298.692164 
z
" clip-path="url(#p55cb9ee10f)" style="stroke: #000000; stroke-linecap: round"/>
   </g>
   <g id="patch_9">
    <path d="M 241.812932 117.257778 
C 244.308785 117.257778 246.702751 116.266165 248.467585 114.50133 
C 250.23242 112.736496 251.224033 110.34253 251.224033 107.846677 
C 251.224033 105.350824 250.23242 102.956858 248.467585 101.192024 
C 246.702751 99.427189 244.308785 98.435576 241.812932 98.435576 
C 239.317079 98.435576 236.923113 99.427189 235.158278 101.192024 
C 233.393444 102.956858 232.401831 105.350824 232.401831 107.846677 
C 232.401831 110.34253 233.393444 112.736496 235.158278 114.50133 
C 236.923113 116.266165 239.317079 117.257778 241.812932 117.257778 
z
" style="fill: #fec7b8; stroke: #000000; stroke-linejoin: miter"/>
   </g>
   <g id="patch_10">
    <path d="M 159.367318 148.924988 
C 161.863171 148.924988 164.257137 147.933375 166.021972 146.168541 
C 167.786806 144.403706 168.778419 142.00974 168.778419 139.513887 
C 168.778419 137.018034 167.786806 134.624068 166.021972 132.859234 
C 164.257137 131.094399 161.863171 130.102786 159.367318 130.102786 
C 156.871465 130.102786 154.4775 131.094399 152.712665 132.859234 
C 150.94783 134.624068 149.956217 137.018034 149.956217 139.513887 
C 149.956217 142.00974 150.94783 144.403706 152.712665 146.168541 
C 154.4775 147.933375 156.871465 148.924988 159.367318 148.924988 
z
" style="fill: #fec7b8; stroke: #000000; stroke-linejoin: miter"/>
   </g>
   <g id="patch_11">
    <path d="M 207.902786 225.054642 
C 210.398639 225.054642 212.792605 224.063029 214.55744 222.298194 
C 216.322274 220.53336 217.313887 218.139394 217.313887 215.643541 
C 217.313887 213.147688 216.322274 210.753722 214.55744 208.988888 
C 212.792605 207.224053 210.398639 206.23244 207.902786 206.23244 
C 205.406933 206.23244 203.012967 207.224053 201.248133 208.988888 
C 199.483298 210.753722 198.491685 213.147688 198.491685 215.643541 
C 198.491685 218.139394 199.483298 220.53336 201.248133 222.298194 
C 203.012967 224.063029 205.406933 225.054642 207.902786 225.054642 
z
" style="fill: #fec7b8; stroke: #000000; stroke-linejoin: miter"/>
   </g>
   <g id="patch_12">
    <path d="M 301.432682 25.468356 
C 303.928535 25.468356 306.3225 24.476743 308.087335 22.711908 
C 309.85217 20.947074 310.843783 18.553108 310.843783 16.057255 
C 310.843783 13.561402 309.85217 11.167436 308.087335 9.402602 
C 306.3225 7.637767 303.928535 6.646154 301.432682 6.646154 
C 298.936829 6.646154 296.542863 7.637767 294.778028 9.402602 
C 293.013194 11.167436 292.021581 13.561402 292.021581 16.057255 
C 292.021581 18.553108 293.013194 20.947074 294.778028 22.711908 
C 296.542863 24.476743 298.936829 25.468356 301.432682 25.468356 
z
" style="fill: #fec7b8; stroke: #000000; stroke-linejoin: miter"/>
   </g>
   <g id="patch_13">
    <path d="M 204.039466 338.953846 
C 206.535319 338.953846 208.929285 337.962233 210.69412 336.197398 
C 212.458954 334.432564 213.450567 332.038598 213.450567 329.542745 
C 213.450567 327.046892 212.458954 324.652926 210.69412 322.888092 
C 208.929285 321.123257 206.535319 320.131644 204.039466 320.131644 
C 201.543613 320.131644 199.149647 321.123257 197.384813 322.888092 
C 195.619978 324.652926 194.628365 327.046892 194.628365 329.542745 
C 194.628365 332.038598 195.619978 334.432564 197.384813 336.197398 
C 199.149647 337.962233 201.543613 338.953846 204.039466 338.953846 
z
" style="fill: #fec7b8; stroke: #000000; stroke-linejoin: miter"/>
   </g>
   <g id="text_1">
    <!-- 0 -->
    <g transform="translate(235.450432 113.365427) scale(0.2 -0.2)">
     <defs>
      <path id="DejaVuSans-30" d="M 2034 4250 
Q 1547 4250 1301 3770 
Q 1056 3291 1056 2328 
Q 1056 1369 1301 889 
Q 1547 409 2034 409 
Q 2525 409 2770 889 
Q 3016 1369 3016 2328 
Q 3016 3291 2770 3770 
Q 2525 4250 2034 4250 
z
M 2034 4750 
Q 2819 4750 3233 4129 
Q 3647 3509 3647 2328 
Q 3647 1150 3233 529 
Q 2819 -91 2034 -91 
Q 1250 -91 836 529 
Q 422 1150 422 2328 
Q 422 3509 836 4129 
Q 1250 4750 2034 4750 
z
" transform="scale(0.015625)"/>
     </defs>
     <use xlink:href="#DejaVuSans-30"/>
    </g>
   </g>
   <g id="text_2">
    <!-- 1 -->
    <g transform="translate(153.004818 145.032637) scale(0.2 -0.2)">
     <defs>
      <path id="DejaVuSans-31" d="M 794 531 
L 1825 531 
L 1825 4091 
L 703 3866 
L 703 4441 
L 1819 4666 
L 2450 4666 
L 2450 531 
L 3481 531 
L 3481 0 
L 794 0 
L 794 531 
z
" transform="scale(0.015625)"/>
     </defs>
     <use xlink:href="#DejaVuSans-31"/>
    </g>
   </g>
   <g id="text_3">
    <!-- 2 -->
    <g transform="translate(201.540286 221.162291) scale(0.2 -0.2)">
     <defs>
      <path id="DejaVuSans-32" d="M 1228 531 
L 3431 531 
L 3431 0 
L 469 0 
L 469 531 
Q 828 903 1448 1529 
Q 2069 2156 2228 2338 
Q 2531 2678 2651 2914 
Q 2772 3150 2772 3378 
Q 2772 3750 2511 3984 
Q 2250 4219 1831 4219 
Q 1534 4219 1204 4116 
Q 875 4013 500 3803 
L 500 4441 
Q 881 4594 1212 4672 
Q 1544 4750 1819 4750 
Q 2544 4750 2975 4387 
Q 3406 4025 3406 3419 
Q 3406 3131 3298 2873 
Q 3191 2616 2906 2266 
Q 2828 2175 2409 1742 
Q 1991 1309 1228 531 
z
" transform="scale(0.015625)"/>
     </defs>
     <use xlink:href="#DejaVuSans-32"/>
    </g>
   </g>
   <g id="text_4">
    <!-- 3 -->
    <g transform="translate(295.070182 21.576005) scale(0.2 -0.2)">
     <defs>
      <path id="DejaVuSans-33" d="M 2597 2516 
Q 3050 2419 3304 2112 
Q 3559 1806 3559 1356 
Q 3559 666 3084 287 
Q 2609 -91 1734 -91 
Q 1441 -91 1130 -33 
Q 819 25 488 141 
L 488 750 
Q 750 597 1062 519 
Q 1375 441 1716 441 
Q 2309 441 2620 675 
Q 2931 909 2931 1356 
Q 2931 1769 2642 2001 
Q 2353 2234 1838 2234 
L 1294 2234 
L 1294 2753 
L 1863 2753 
Q 2328 2753 2575 2939 
Q 2822 3125 2822 3475 
Q 2822 3834 2567 4026 
Q 2313 4219 1838 4219 
Q 1578 4219 1281 4162 
Q 984 4106 628 3988 
L 628 4550 
Q 988 4650 1302 4700 
Q 1616 4750 1894 4750 
Q 2613 4750 3031 4423 
Q 3450 4097 3450 3541 
Q 3450 3153 3228 2886 
Q 3006 2619 2597 2516 
z
" transform="scale(0.015625)"/>
     </defs>
     <use xlink:href="#DejaVuSans-33"/>
    </g>
   </g>
   <g id="text_5">
    <!-- 4 -->
    <g transform="translate(197.676966 335.061495) scale(0.2 -0.2)">
     <defs>
      <path id="DejaVuSans-34" d="M 2419 4116 
L 825 1625 
L 2419 1625 
L 2419 4116 
z
M 2253 4666 
L 3047 4666 
L 3047 1625 
L 3713 1625 
L 3713 1100 
L 3047 1100 
L 3047 0 
L 2419 0 
L 2419 1100 
L 313 1100 
L 313 1709 
L 2253 4666 
z
" transform="scale(0.015625)"/>
     </defs>
     <use xlink:href="#DejaVuSans-34"/>
    </g>
   </g>
  </g>
 </g>
 <defs>
  <clipPath id="p55cb9ee10f">
   <rect x="146.738466" y="0" width="167.323068" height="345.6"/>
  </clipPath>
 </defs>
</svg>
