<?xml version="1.0" encoding="utf-8" standalone="no"?>
<!DOCTYPE svg PUBLIC "-//W3C//DTD SVG 1.1//EN"
  "http://www.w3.org/Graphics/SVG/1.1/DTD/svg11.dtd">
<svg xmlns:xlink="http://www.w3.org/1999/xlink" width="460.8pt" height="345.6pt" viewBox="0 0 460.8 345.6" xmlns="http://www.w3.org/2000/svg" version="1.1">
 <metadata>
  <rdf:RDF xmlns:dc="http://purl.org/dc/elements/1.1/" xmlns:cc="http://creativecommons.org/ns#" xmlns:rdf="http://www.w3.org/1999/02/22-rdf-syntax-ns#">
   <cc:Work>
    <dc:type rdf:resource="http://purl.org/dc/dcmitype/StillImage"/>
    <dc:date>2025-08-01T22:04:00.670455</dc:date>
    <dc:format>image/svg+xml</dc:format>
    <dc:creator>
     <cc:Agent>
      <dc:title>Matplotlib v3.10.3, https://matplotlib.org/</dc:title>
     </cc:Agent>
    </dc:creator>
   </cc:Work>
  </rdf:RDF>
 </metadata>
 <defs>
  <style type="text/css">*{stroke-linejoin: round; stroke-linecap: butt}</style>
 </defs>
 <g id="figure_1">
  <g id="patch_1">
   <path d="M 0 345.6 
L 460.8 345.6 
L 460.8 0 
L 0 0 
z
" style="fill: #ffffff"/>
  </g>
  <g id="axes_1">
   <g id="patch_2">
    <path d="M 0 250.852159 
L 460.8 250.852159 
L 460.8 94.747841 
L 0 94.747841 
z
" style="fill: #ffffff"/>
   </g>
   <g id="patch_3">
    <path d="M 312.312217 153.309281 
Q 379.230805 162.212002 430.047506 119.488287 
" clip-path="url(#pb86de3f04b)" style="fill: none; stroke: #000000; stroke-linecap: round"/>
    <path d="M 419.17563 122.096409 
L 430.047506 119.488287 
L 425.610878 129.750661 
z
" clip-path="url(#pb86de3f04b)" style="stroke: #000000; stroke-linecap: round"/>
   </g>
   <g id="patch_4">
    <path d="M 310.477075 143.350833 
Q 361.293776 100.627117 428.212364 109.529838 
" clip-path="url(#pb86de3f04b)" style="fill: none; stroke: #000000; stroke-linecap: round"/>
    <path d="M 321.348951 140.742711 
L 310.477075 143.350833 
L 314.913703 133.088458 
z
" clip-path="url(#pb86de3f04b)" style="stroke: #000000; stroke-linecap: round"/>
   </g>
   <g id="matplotlib.axis_1"/>
   <g id="matplotlib.axis_2"/>
   <g id="patch_5">
    <path d="M 292.802384 160.831776 
Q 264.860584 193.836519 237.64119 225.987958 
" clip-path="url(#pb86de3f04b)" style="fill: none; stroke: #000000; stroke-linecap: round"/>
    <path d="M 247.918688 221.586475 
L 237.64119 225.987958 
L 240.286502 215.12507 
z
" clip-path="url(#pb86de3f04b)" style="stroke: #000000; stroke-linecap: round"/>
   </g>
   <g id="patch_6">
    <path d="M 288.587712 151.543176 
Q 230.180797 150.588201 172.891767 149.651503 
" clip-path="url(#pb86de3f04b)" style="fill: none; stroke: #000000; stroke-linecap: round"/>
    <path d="M 182.80869 154.814317 
L 172.891767 149.651503 
L 182.972172 144.815654 
z
" clip-path="url(#pb86de3f04b)" style="stroke: #000000; stroke-linecap: round"/>
   </g>
   <g id="patch_7">
    <path d="M 221.06662 225.767231 
Q 194.540181 192.686754 167.314314 158.734038 
" clip-path="url(#pb86de3f04b)" style="fill: none; stroke: #000000; stroke-linecap: round"/>
    <path d="M 218.711522 214.837752 
L 221.06662 225.767231 
L 210.909978 221.093622 
z
" clip-path="url(#pb86de3f04b)" style="stroke: #000000; stroke-linecap: round"/>
   </g>
   <g id="patch_8">
    <path d="M 148.404527 146.162424 
Q 90.318507 129.551682 33.307431 113.248339 
" clip-path="url(#pb86de3f04b)" style="fill: none; stroke: #000000; stroke-linecap: round"/>
    <path d="M 41.547292 120.805103 
L 33.307431 113.248339 
L 44.296759 111.190508 
z
" clip-path="url(#pb86de3f04b)" style="stroke: #000000; stroke-linecap: round"/>
   </g>
   <g id="patch_9">
    <path d="M 300.5012 163.653046 
C 303.661116 163.653046 306.692036 162.397598 308.926434 160.1632 
C 311.160833 157.928802 312.416281 154.897882 312.416281 151.737966 
C 312.416281 148.57805 311.160833 145.54713 308.926434 143.312732 
C 306.692036 141.078333 303.661116 139.822885 300.5012 139.822885 
C 297.341284 139.822885 294.310364 141.078333 292.075966 143.312732 
C 289.841568 145.54713 288.58612 148.57805 288.58612 151.737966 
C 288.58612 154.897882 289.841568 157.928802 292.075966 160.1632 
C 294.310364 162.397598 297.341284 163.653046 300.5012 163.653046 
z
" style="fill: #fec7b8; stroke: #000000; stroke-linejoin: miter"/>
   </g>
   <g id="patch_10">
    <path d="M 229.219968 247.850153 
C 232.379884 247.850153 235.410804 246.594705 237.645202 244.360306 
C 239.8796 242.125908 241.135048 239.094988 241.135048 235.935072 
C 241.135048 232.775156 239.8796 229.744236 237.645202 227.509838 
C 235.410804 225.27544 232.379884 224.019992 229.219968 224.019992 
C 226.060052 224.019992 223.029132 225.27544 220.794734 227.509838 
C 218.560335 229.744236 217.304887 232.775156 217.304887 235.935072 
C 217.304887 239.094988 218.560335 242.125908 220.794734 244.360306 
C 223.029132 246.594705 226.060052 247.850153 229.219968 247.850153 
z
" style="fill: #fec7b8; stroke: #000000; stroke-linejoin: miter"/>
   </g>
   <g id="patch_11">
    <path d="M 159.860395 161.353516 
C 163.020311 161.353516 166.051231 160.098068 168.285629 157.86367 
C 170.520027 155.629272 171.775475 152.598352 171.775475 149.438436 
C 171.775475 146.278519 170.520027 143.2476 168.285629 141.013201 
C 166.051231 138.778803 163.020311 137.523355 159.860395 137.523355 
C 156.700478 137.523355 153.669559 138.778803 151.43516 141.013201 
C 149.200762 143.2476 147.945314 146.278519 147.945314 149.438436 
C 147.945314 152.598352 149.200762 155.629272 151.43516 157.86367 
C 153.669559 160.098068 156.700478 161.353516 159.860395 161.353516 
z
" style="fill: #fec7b8; stroke: #000000; stroke-linejoin: miter"/>
   </g>
   <g id="patch_12">
    <path d="M 440.023381 123.016234 
C 443.183297 123.016234 446.214217 121.760786 448.448615 119.526388 
C 450.683013 117.29199 451.938462 114.26107 451.938462 111.101154 
C 451.938462 107.941237 450.683013 104.910318 448.448615 102.675919 
C 446.214217 100.441521 443.183297 99.186073 440.023381 99.186073 
C 436.863465 99.186073 433.832545 100.441521 431.598147 102.675919 
C 429.363748 104.910318 428.1083 107.941237 428.1083 111.101154 
C 428.1083 114.26107 429.363748 117.29199 431.598147 119.526388 
C 433.832545 121.760786 436.863465 123.016234 440.023381 123.016234 
z
" style="fill: #fec7b8; stroke: #000000; stroke-linejoin: miter"/>
   </g>
   <g id="patch_13">
    <path d="M 20.776619 121.580008 
C 23.936535 121.580008 26.967455 120.32456 29.201853 118.090162 
C 31.436252 115.855764 32.6917 112.824844 32.6917 109.664928 
C 32.6917 106.505012 31.436252 103.474092 29.201853 101.239694 
C 26.967455 99.005295 23.936535 97.749847 20.776619 97.749847 
C 17.616703 97.749847 14.585783 99.005295 12.351385 101.239694 
C 10.116987 103.474092 8.861538 106.505012 8.861538 109.664928 
C 8.861538 112.824844 10.116987 115.855764 12.351385 118.090162 
C 14.585783 120.32456 17.616703 121.580008 20.776619 121.580008 
z
" style="fill: #fec7b8; stroke: #000000; stroke-linejoin: miter"/>
   </g>
   <g id="text_1">
    <!-- 0 -->
    <g transform="translate(297.31995 154.497341) scale(0.1 -0.1)">
     <defs>
      <path id="DejaVuSans-30" d="M 2034 4250 
Q 1547 4250 1301 3770 
Q 1056 3291 1056 2328 
Q 1056 1369 1301 889 
Q 1547 409 2034 409 
Q 2525 409 2770 889 
Q 3016 1369 3016 2328 
Q 3016 3291 2770 3770 
Q 2525 4250 2034 4250 
z
M 2034 4750 
Q 2819 4750 3233 4129 
Q 3647 3509 3647 2328 
Q 3647 1150 3233 529 
Q 2819 -91 2034 -91 
Q 1250 -91 836 529 
Q 422 1150 422 2328 
Q 422 3509 836 4129 
Q 1250 4750 2034 4750 
z
" transform="scale(0.015625)"/>
     </defs>
     <use xlink:href="#DejaVuSans-30"/>
    </g>
   </g>
   <g id="text_2">
    <!-- 1 -->
    <g transform="translate(226.038718 238.694447) scale(0.1 -0.1)">
     <defs>
      <path id="DejaVuSans-31" d="M 794 531 
L 1825 531 
L 1825 4091 
L 703 3866 
L 703 4441 
L 1819 4666 
L 2450 4666 
L 2450 531 
L 3481 531 
L 3481 0 
L 794 0 
L 794 531 
z
" transform="scale(0.015625)"/>
     </defs>
     <use xlink:href="#DejaVuSans-31"/>
    </g>
   </g>
   <g id="text_3">
    <!-- 2 -->
    <g transform="translate(156.679145 152.197811) scale(0.1 -0.1)">
     <defs>
      <path id="DejaVuSans-32" d="M 1228 531 
L 3431 531 
L 3431 0 
L 469 0 
L 469 531 
Q 828 903 1448 1529 
Q 2069 2156 2228 2338 
Q 2531 2678 2651 2914 
Q 2772 3150 2772 3378 
Q 2772 3750 2511 3984 
Q 2250 4219 1831 4219 
Q 1534 4219 1204 4116 
Q 875 4013 500 3803 
L 500 4441 
Q 881 4594 1212 4672 
Q 1544 4750 1819 4750 
Q 2544 4750 2975 4387 
Q 3406 4025 3406 3419 
Q 3406 3131 3298 2873 
Q 3191 2616 2906 2266 
Q 2828 2175 2409 1742 
Q 1991 1309 1228 531 
z
" transform="scale(0.015625)"/>
     </defs>
     <use xlink:href="#DejaVuSans-32"/>
    </g>
   </g>
   <g id="text_4">
    <!-- 3 -->
    <g transform="translate(436.842131 113.860529) scale(0.1 -0.1)">
     <defs>
      <path id="DejaVuSans-33" d="M 2597 2516 
Q 3050 2419 3304 2112 
Q 3559 1806 3559 1356 
Q 3559 666 3084 287 
Q 2609 -91 1734 -91 
Q 1441 -91 1130 -33 
Q 819 25 488 141 
L 488 750 
Q 750 597 1062 519 
Q 1375 441 1716 441 
Q 2309 441 2620 675 
Q 2931 909 2931 1356 
Q 2931 1769 2642 2001 
Q 2353 2234 1838 2234 
L 1294 2234 
L 1294 2753 
L 1863 2753 
Q 2328 2753 2575 2939 
Q 2822 3125 2822 3475 
Q 2822 3834 2567 4026 
Q 2313 4219 1838 4219 
Q 1578 4219 1281 4162 
Q 984 4106 628 3988 
L 628 4550 
Q 988 4650 1302 4700 
Q 1616 4750 1894 4750 
Q 2613 4750 3031 4423 
Q 3450 4097 3450 3541 
Q 3450 3153 3228 2886 
Q 3006 2619 2597 2516 
z
" transform="scale(0.015625)"/>
     </defs>
     <use xlink:href="#DejaVuSans-33"/>
    </g>
   </g>
   <g id="text_5">
    <!-- 4 -->
    <g transform="translate(17.595369 112.424303) scale(0.1 -0.1)">
     <defs>
      <path id="DejaVuSans-34" d="M 2419 4116 
L 825 1625 
L 2419 1625 
L 2419 4116 
z
M 2253 4666 
L 3047 4666 
L 3047 1625 
L 3713 1625 
L 3713 1100 
L 3047 1100 
L 3047 0 
L 2419 0 
L 2419 1100 
L 313 1100 
L 313 1709 
L 2253 4666 
z
" transform="scale(0.015625)"/>
     </defs>
     <use xlink:href="#DejaVuSans-34"/>
    </g>
   </g>
  </g>
 </g>
 <defs>
  <clipPath id="pb86de3f04b">
   <rect x="0" y="94.747841" width="460.8" height="156.104318"/>
  </clipPath>
 </defs>
</svg>
