<?xml version="1.0" encoding="utf-8" standalone="no"?>
<!DOCTYPE svg PUBLIC "-//W3C//DTD SVG 1.1//EN"
  "http://www.w3.org/Graphics/SVG/1.1/DTD/svg11.dtd">
<svg xmlns:xlink="http://www.w3.org/1999/xlink" width="460.8pt" height="345.6pt" viewBox="0 0 460.8 345.6" xmlns="http://www.w3.org/2000/svg" version="1.1">
 <metadata>
  <rdf:RDF xmlns:dc="http://purl.org/dc/elements/1.1/" xmlns:cc="http://creativecommons.org/ns#" xmlns:rdf="http://www.w3.org/1999/02/22-rdf-syntax-ns#">
   <cc:Work>
    <dc:type rdf:resource="http://purl.org/dc/dcmitype/StillImage"/>
    <dc:date>2025-08-02T12:09:35.136906</dc:date>
    <dc:format>image/svg+xml</dc:format>
    <dc:creator>
     <cc:Agent>
      <dc:title>Matplotlib v3.10.3, https://matplotlib.org/</dc:title>
     </cc:Agent>
    </dc:creator>
   </cc:Work>
  </rdf:RDF>
 </metadata>
 <defs>
  <style type="text/css">*{stroke-linejoin: round; stroke-linecap: butt}</style>
 </defs>
 <g id="figure_1">
  <g id="patch_1">
   <path d="M 0 345.6 
L 460.8 345.6 
L 460.8 0 
L 0 0 
z
" style="fill: #ffffff"/>
  </g>
  <g id="axes_1">
   <g id="patch_2">
    <path d="M 0 261.152487 
L 460.8 261.152487 
L 460.8 84.447513 
L 0 84.447513 
z
" style="fill: #ffffff"/>
   </g>
   <g id="patch_3">
    <path d="M 305.722426 173.772364 
Q 368.881026 198.034178 428.128291 167.746107 
" clip-path="url(#pc81ceb0258)" style="fill: none; stroke: #000000; stroke-linecap: round"/>
    <path d="M 416.948397 167.845962 
L 428.128291 167.746107 
L 421.500239 176.749935 
z
" clip-path="url(#pc81ceb0258)" style="stroke: #000000; stroke-linecap: round"/>
   </g>
   <g id="patch_4">
    <path d="M 306.1978 163.4422 
Q 365.445066 133.154128 428.603665 157.415942 
" clip-path="url(#pc81ceb0258)" style="fill: none; stroke: #000000; stroke-linecap: round"/>
    <path d="M 317.377694 163.342345 
L 306.1978 163.4422 
L 312.825853 154.438371 
z
" clip-path="url(#pc81ceb0258)" style="stroke: #000000; stroke-linecap: round"/>
   </g>
   <g id="matplotlib.axis_1"/>
   <g id="matplotlib.axis_2"/>
   <g id="patch_5">
    <path d="M 285.554604 177.594013 
Q 252.816658 207.565098 220.903362 236.781229 
" clip-path="url(#pc81ceb0258)" style="fill: none; stroke: #000000; stroke-linecap: round"/>
    <path d="M 231.655498 233.716663 
L 220.903362 236.781229 
L 224.902991 226.340781 
z
" clip-path="url(#pc81ceb0258)" style="stroke: #000000; stroke-linecap: round"/>
   </g>
   <g id="patch_6">
    <path d="M 282.511884 167.717251 
Q 222.325162 159.013339 163.244963 150.469447 
" clip-path="url(#pc81ceb0258)" style="fill: none; stroke: #000000; stroke-linecap: round"/>
    <path d="M 172.426376 156.849232 
L 163.244963 150.469447 
L 173.857638 146.952187 
z
" clip-path="url(#pc81ceb0258)" style="stroke: #000000; stroke-linecap: round"/>
   </g>
   <g id="patch_7">
    <path d="M 204.163763 234.518435 
Q 180.68547 197.133835 156.612566 158.802432 
" clip-path="url(#pc81ceb0258)" style="fill: none; stroke: #000000; stroke-linecap: round"/>
    <path d="M 203.079626 223.390782 
L 204.163763 234.518435 
L 194.611159 228.709153 
z
" clip-path="url(#pc81ceb0258)" style="stroke: #000000; stroke-linecap: round"/>
   </g>
   <g id="patch_8">
    <path d="M 138.899255 144.329625 
Q 85.562116 124.248241 33.271308 104.5608 
" clip-path="url(#pc81ceb0258)" style="fill: none; stroke: #000000; stroke-linecap: round"/>
    <path d="M 40.868214 112.763667 
L 33.271308 104.5608 
L 44.391745 103.404995 
z
" clip-path="url(#pc81ceb0258)" style="stroke: #000000; stroke-linecap: round"/>
   </g>
   <g id="patch_9">
    <path d="M 294.45635 181.513321 
C 297.657012 181.513321 300.727014 180.241685 302.990224 177.978475 
C 305.253434 175.715265 306.52507 172.645263 306.52507 169.444601 
C 306.52507 166.243939 305.253434 163.173937 302.990224 160.910727 
C 300.727014 158.647518 297.657012 157.375881 294.45635 157.375881 
C 291.255688 157.375881 288.185686 158.647518 285.922476 160.910727 
C 283.659266 163.173937 282.38763 166.243939 282.38763 169.444601 
C 282.38763 172.645263 283.659266 175.715265 285.922476 177.978475 
C 288.185686 180.241685 291.255688 181.513321 294.45635 181.513321 
z
" style="fill: #fec7b8; stroke: #000000; stroke-linejoin: miter"/>
   </g>
   <g id="patch_10">
    <path d="M 211.176967 257.754314 
C 214.377629 257.754314 217.447631 256.482678 219.710841 254.219468 
C 221.97405 251.956258 223.245687 248.886256 223.245687 245.685594 
C 223.245687 242.484932 221.97405 239.41493 219.710841 237.15172 
C 217.447631 234.888511 214.377629 233.616874 211.176967 233.616874 
C 207.976305 233.616874 204.906303 234.888511 202.643093 237.15172 
C 200.379883 239.41493 199.108247 242.484932 199.108247 245.685594 
C 199.108247 248.886256 200.379883 251.956258 202.643093 254.219468 
C 204.906303 256.482678 207.976305 257.754314 211.176967 257.754314 
z
" style="fill: #fec7b8; stroke: #000000; stroke-linejoin: miter"/>
   </g>
   <g id="patch_11">
    <path d="M 150.193974 160.650796 
C 153.394636 160.650796 156.464638 159.37916 158.727847 157.11595 
C 160.991057 154.85274 162.262694 151.782738 162.262694 148.582076 
C 162.262694 145.381414 160.991057 142.311412 158.727847 140.048202 
C 156.464638 137.784993 153.394636 136.513356 150.193974 136.513356 
C 146.993312 136.513356 143.92331 137.784993 141.6601 140.048202 
C 139.39689 142.311412 138.125254 145.381414 138.125254 148.582076 
C 138.125254 151.782738 139.39689 154.85274 141.6601 157.11595 
C 143.92331 159.37916 146.993312 160.650796 150.193974 160.650796 
z
" style="fill: #fec7b8; stroke: #000000; stroke-linejoin: miter"/>
   </g>
   <g id="patch_12">
    <path d="M 439.869742 173.812425 
C 443.070404 173.812425 446.140406 172.540789 448.403615 170.277579 
C 450.666825 168.014369 451.938462 164.944367 451.938462 161.743705 
C 451.938462 158.543043 450.666825 155.473041 448.403615 153.209831 
C 446.140406 150.946622 443.070404 149.674985 439.869742 149.674985 
C 436.66908 149.674985 433.599078 150.946622 431.335868 153.209831 
C 429.072658 155.473041 427.801022 158.543043 427.801022 161.743705 
C 427.801022 164.944367 429.072658 168.014369 431.335868 170.277579 
C 433.599078 172.540789 436.66908 173.812425 439.869742 173.812425 
z
" style="fill: #fec7b8; stroke: #000000; stroke-linejoin: miter"/>
   </g>
   <g id="patch_13">
    <path d="M 20.930258 111.983126 
C 24.13092 111.983126 27.200922 110.711489 29.464132 108.44828 
C 31.727342 106.18507 32.998978 103.115068 32.998978 99.914406 
C 32.998978 96.713744 31.727342 93.643742 29.464132 91.380532 
C 27.200922 89.117322 24.13092 87.845686 20.930258 87.845686 
C 17.729596 87.845686 14.659594 89.117322 12.396385 91.380532 
C 10.133175 93.643742 8.861538 96.713744 8.861538 99.914406 
C 8.861538 103.115068 10.133175 106.18507 12.396385 108.44828 
C 14.659594 110.711489 17.729596 111.983126 20.930258 111.983126 
z
" style="fill: #fec7b8; stroke: #000000; stroke-linejoin: miter"/>
   </g>
   <g id="text_1">
    <!-- 0 -->
    <g transform="translate(291.2751 172.203976) scale(0.1 -0.1)">
     <defs>
      <path id="DejaVuSans-30" d="M 2034 4250 
Q 1547 4250 1301 3770 
Q 1056 3291 1056 2328 
Q 1056 1369 1301 889 
Q 1547 409 2034 409 
Q 2525 409 2770 889 
Q 3016 1369 3016 2328 
Q 3016 3291 2770 3770 
Q 2525 4250 2034 4250 
z
M 2034 4750 
Q 2819 4750 3233 4129 
Q 3647 3509 3647 2328 
Q 3647 1150 3233 529 
Q 2819 -91 2034 -91 
Q 1250 -91 836 529 
Q 422 1150 422 2328 
Q 422 3509 836 4129 
Q 1250 4750 2034 4750 
z
" transform="scale(0.015625)"/>
     </defs>
     <use xlink:href="#DejaVuSans-30"/>
    </g>
   </g>
   <g id="text_2">
    <!-- 1 -->
    <g transform="translate(207.995717 248.444969) scale(0.1 -0.1)">
     <defs>
      <path id="DejaVuSans-31" d="M 794 531 
L 1825 531 
L 1825 4091 
L 703 3866 
L 703 4441 
L 1819 4666 
L 2450 4666 
L 2450 531 
L 3481 531 
L 3481 0 
L 794 0 
L 794 531 
z
" transform="scale(0.015625)"/>
     </defs>
     <use xlink:href="#DejaVuSans-31"/>
    </g>
   </g>
   <g id="text_3">
    <!-- 2 -->
    <g transform="translate(147.012724 151.341451) scale(0.1 -0.1)">
     <defs>
      <path id="DejaVuSans-32" d="M 1228 531 
L 3431 531 
L 3431 0 
L 469 0 
L 469 531 
Q 828 903 1448 1529 
Q 2069 2156 2228 2338 
Q 2531 2678 2651 2914 
Q 2772 3150 2772 3378 
Q 2772 3750 2511 3984 
Q 2250 4219 1831 4219 
Q 1534 4219 1204 4116 
Q 875 4013 500 3803 
L 500 4441 
Q 881 4594 1212 4672 
Q 1544 4750 1819 4750 
Q 2544 4750 2975 4387 
Q 3406 4025 3406 3419 
Q 3406 3131 3298 2873 
Q 3191 2616 2906 2266 
Q 2828 2175 2409 1742 
Q 1991 1309 1228 531 
z
" transform="scale(0.015625)"/>
     </defs>
     <use xlink:href="#DejaVuSans-32"/>
    </g>
   </g>
   <g id="text_4">
    <!-- 3 -->
    <g transform="translate(436.688492 164.50308) scale(0.1 -0.1)">
     <defs>
      <path id="DejaVuSans-33" d="M 2597 2516 
Q 3050 2419 3304 2112 
Q 3559 1806 3559 1356 
Q 3559 666 3084 287 
Q 2609 -91 1734 -91 
Q 1441 -91 1130 -33 
Q 819 25 488 141 
L 488 750 
Q 750 597 1062 519 
Q 1375 441 1716 441 
Q 2309 441 2620 675 
Q 2931 909 2931 1356 
Q 2931 1769 2642 2001 
Q 2353 2234 1838 2234 
L 1294 2234 
L 1294 2753 
L 1863 2753 
Q 2328 2753 2575 2939 
Q 2822 3125 2822 3475 
Q 2822 3834 2567 4026 
Q 2313 4219 1838 4219 
Q 1578 4219 1281 4162 
Q 984 4106 628 3988 
L 628 4550 
Q 988 4650 1302 4700 
Q 1616 4750 1894 4750 
Q 2613 4750 3031 4423 
Q 3450 4097 3450 3541 
Q 3450 3153 3228 2886 
Q 3006 2619 2597 2516 
z
" transform="scale(0.015625)"/>
     </defs>
     <use xlink:href="#DejaVuSans-33"/>
    </g>
   </g>
   <g id="text_5">
    <!-- 4 -->
    <g transform="translate(17.749008 102.673781) scale(0.1 -0.1)">
     <defs>
      <path id="DejaVuSans-34" d="M 2419 4116 
L 825 1625 
L 2419 1625 
L 2419 4116 
z
M 2253 4666 
L 3047 4666 
L 3047 1625 
L 3713 1625 
L 3713 1100 
L 3047 1100 
L 3047 0 
L 2419 0 
L 2419 1100 
L 313 1100 
L 313 1709 
L 2253 4666 
z
" transform="scale(0.015625)"/>
     </defs>
     <use xlink:href="#DejaVuSans-34"/>
    </g>
   </g>
  </g>
 </g>
 <defs>
  <clipPath id="pc81ceb0258">
   <rect x="0" y="84.447513" width="460.8" height="176.704973"/>
  </clipPath>
 </defs>
</svg>
