<?xml version="1.0" encoding="utf-8" standalone="no"?>
<!DOCTYPE svg PUBLIC "-//W3C//DTD SVG 1.1//EN"
  "http://www.w3.org/Graphics/SVG/1.1/DTD/svg11.dtd">
<svg xmlns:xlink="http://www.w3.org/1999/xlink" width="460.8pt" height="345.6pt" viewBox="0 0 460.8 345.6" xmlns="http://www.w3.org/2000/svg" version="1.1">
 <metadata>
  <rdf:RDF xmlns:dc="http://purl.org/dc/elements/1.1/" xmlns:cc="http://creativecommons.org/ns#" xmlns:rdf="http://www.w3.org/1999/02/22-rdf-syntax-ns#">
   <cc:Work>
    <dc:type rdf:resource="http://purl.org/dc/dcmitype/StillImage"/>
    <dc:date>2025-08-03T18:56:37.732785</dc:date>
    <dc:format>image/svg+xml</dc:format>
    <dc:creator>
     <cc:Agent>
      <dc:title>Matplotlib v3.10.3, https://matplotlib.org/</dc:title>
     </cc:Agent>
    </dc:creator>
   </cc:Work>
  </rdf:RDF>
 </metadata>
 <defs>
  <style type="text/css">*{stroke-linejoin: round; stroke-linecap: butt}</style>
 </defs>
 <g id="figure_1">
  <g id="patch_1">
   <path d="M 0 345.6 
L 460.8 345.6 
L 460.8 0 
L 0 0 
z
" style="fill: #ffffff"/>
  </g>
  <g id="axes_1">
   <g id="patch_2">
    <path d="M 0 266.265632 
L 460.8 266.265632 
L 460.8 79.334368 
L 0 79.334368 
z
" style="fill: #ffffff"/>
   </g>
   <g id="patch_3">
    <path d="M 40.959343 114.002434 
Q 144.155707 113.372158 230.083956 168.47855 
" clip-path="url(#pc833f9fa53)" style="fill: none; stroke: #7fff00; stroke-linecap: round"/>
    <path d="M 224.365411 158.871353 
L 230.083956 168.47855 
L 218.967071 167.289068 
z
" clip-path="url(#pc833f9fa53)" style="fill: #7fff00; stroke: #7fff00; stroke-linecap: round"/>
   </g>
   <g id="patch_4">
    <path d="M 39.642033 118.54813 
Q 126.511412 174.258075 228.589762 173.634627 
" clip-path="url(#pc833f9fa53)" style="fill: none; stroke: #7fff00; stroke-linecap: round"/>
    <path d="M 218.559412 168.695795 
L 228.589762 173.634627 
L 218.620486 178.695608 
z
" clip-path="url(#pc833f9fa53)" style="fill: #7fff00; stroke: #7fff00; stroke-linecap: round"/>
   </g>
   <g id="patch_5">
    <path d="M 40.694271 111.968485 
Q 152.977855 82.9292 231.57158 166.689722 
" clip-path="url(#pc833f9fa53)" style="fill: none; stroke: #00ff3f; stroke-linecap: round"/>
    <path d="M 228.375211 155.976028 
L 231.57158 166.689722 
L 221.082804 162.818601 
z
" clip-path="url(#pc833f9fa53)" style="fill: #00ff3f; stroke: #00ff3f; stroke-linecap: round"/>
   </g>
   <g id="patch_6">
    <path d="M 38.330516 120.125195 
Q 117.689264 204.701033 228.890427 175.941689 
" clip-path="url(#pc833f9fa53)" style="fill: none; stroke: #00ffff; stroke-linecap: round"/>
    <path d="M 217.957036 173.604821 
L 228.890427 175.941689 
L 220.460898 183.286282 
z
" clip-path="url(#pc833f9fa53)" style="fill: #00ffff; stroke: #00ffff; stroke-linecap: round"/>
   </g>
   <g id="matplotlib.axis_1"/>
   <g id="matplotlib.axis_2"/>
   <g id="patch_7">
    <path d="M 247.105086 176.205827 
Q 337.06234 202.276129 428.093443 228.65764 
" clip-path="url(#pc833f9fa53)" style="fill: none; stroke: #7f00ff; stroke-linecap: round"/>
    <path d="M 255.318101 183.79176 
L 247.105086 176.205827 
L 258.101641 174.186975 
z
" clip-path="url(#pc833f9fa53)" style="fill: #7f00ff; stroke: #7f00ff; stroke-linecap: round"/>
   </g>
   <g id="patch_8">
    <path d="M 40.630461 116.370848 
Q 135.333559 143.815117 228.962805 170.948191 
" clip-path="url(#pc833f9fa53)" style="fill: none; stroke: #003fff; stroke-linecap: round"/>
    <path d="M 220.749686 163.362371 
L 228.962805 170.948191 
L 217.966278 172.967195 
z
" clip-path="url(#pc833f9fa53)" style="fill: #003fff; stroke: #003fff; stroke-linecap: round"/>
   </g>
   <g id="text_1">
    <g id="patch_9">
     <path d="M 25.458936 154.587838 
L 39.807374 154.587838 
L 39.807374 136.909713 
L 25.458936 136.909713 
z
" style="fill: #ffffff; stroke: #ffffff; stroke-linejoin: miter"/>
    </g>
    <!-- b -->
    <g style="fill: #0000ff" transform="translate(29.458936 148.50815) scale(0.1 -0.1)">
     <defs>
      <path id="DejaVuSans-62" d="M 3116 1747 
Q 3116 2381 2855 2742 
Q 2594 3103 2138 3103 
Q 1681 3103 1420 2742 
Q 1159 2381 1159 1747 
Q 1159 1113 1420 752 
Q 1681 391 2138 391 
Q 2594 391 2855 752 
Q 3116 1113 3116 1747 
z
M 1159 2969 
Q 1341 3281 1617 3432 
Q 1894 3584 2278 3584 
Q 2916 3584 3314 3078 
Q 3713 2572 3713 1747 
Q 3713 922 3314 415 
Q 2916 -91 2278 -91 
Q 1894 -91 1617 61 
Q 1341 213 1159 525 
L 1159 0 
L 581 0 
L 581 4863 
L 1159 4863 
L 1159 2969 
z
" transform="scale(0.015625)"/>
     </defs>
     <use xlink:href="#DejaVuSans-62"/>
    </g>
   </g>
   <g id="text_2">
    <g id="patch_10">
     <path d="M 25.569092 170.435582 
L 39.697217 170.435582 
L 39.697217 152.757457 
L 25.569092 152.757457 
z
" style="fill: #ffffff; stroke: #ffffff; stroke-linejoin: miter"/>
    </g>
    <!-- a -->
    <g style="fill: #0000ff" transform="translate(29.569092 164.355895) scale(0.1 -0.1)">
     <defs>
      <path id="DejaVuSans-61" d="M 2194 1759 
Q 1497 1759 1228 1600 
Q 959 1441 959 1056 
Q 959 750 1161 570 
Q 1363 391 1709 391 
Q 2188 391 2477 730 
Q 2766 1069 2766 1631 
L 2766 1759 
L 2194 1759 
z
M 3341 1997 
L 3341 0 
L 2766 0 
L 2766 531 
Q 2569 213 2275 61 
Q 1981 -91 1556 -91 
Q 1019 -91 701 211 
Q 384 513 384 1019 
Q 384 1609 779 1909 
Q 1175 2209 1959 2209 
L 2766 2209 
L 2766 2266 
Q 2766 2663 2505 2880 
Q 2244 3097 1772 3097 
Q 1472 3097 1187 3025 
Q 903 2953 641 2809 
L 641 3341 
Q 956 3463 1253 3523 
Q 1550 3584 1831 3584 
Q 2591 3584 2966 3190 
Q 3341 2797 3341 1997 
z
" transform="scale(0.015625)"/>
     </defs>
     <use xlink:href="#DejaVuSans-61"/>
    </g>
   </g>
   <g id="text_3">
    <g id="patch_11">
     <path d="M 133.984477 137.4327 
L 145.504789 137.4327 
L 145.504789 119.754575 
L 133.984477 119.754575 
z
" style="fill: #ffffff; stroke: #ffffff; stroke-linejoin: miter"/>
    </g>
    <!-- f -->
    <g style="fill: #0000ff" transform="translate(137.984477 131.353012) scale(0.1 -0.1)">
     <defs>
      <path id="DejaVuSans-66" d="M 2375 4863 
L 2375 4384 
L 1825 4384 
Q 1516 4384 1395 4259 
Q 1275 4134 1275 3809 
L 1275 3500 
L 2222 3500 
L 2222 3053 
L 1275 3053 
L 1275 0 
L 697 0 
L 697 3053 
L 147 3053 
L 147 3500 
L 697 3500 
L 697 3744 
Q 697 4328 969 4595 
Q 1241 4863 1831 4863 
L 2375 4863 
z
" transform="scale(0.015625)"/>
     </defs>
     <use xlink:href="#DejaVuSans-66"/>
    </g>
   </g>
   <g id="text_4">
    <g id="patch_12">
     <path d="M 125.162329 167.875658 
L 136.682642 167.875658 
L 136.682642 150.197533 
L 125.162329 150.197533 
z
" style="fill: #ffffff; stroke: #ffffff; stroke-linejoin: miter"/>
    </g>
    <!-- f -->
    <g style="fill: #0000ff" transform="translate(129.162329 161.795971) scale(0.1 -0.1)">
     <use xlink:href="#DejaVuSans-66"/>
    </g>
   </g>
   <g id="text_5">
    <g id="patch_13">
     <path d="M 137.079144 122.211221 
L 151.232269 122.211221 
L 151.232269 104.533096 
L 137.079144 104.533096 
z
" style="fill: #ffffff; stroke: #ffffff; stroke-linejoin: miter"/>
    </g>
    <!-- e -->
    <g style="fill: #0000ff" transform="translate(141.079144 116.131533) scale(0.1 -0.1)">
     <defs>
      <path id="DejaVuSans-65" d="M 3597 1894 
L 3597 1613 
L 953 1613 
Q 991 1019 1311 708 
Q 1631 397 2203 397 
Q 2534 397 2845 478 
Q 3156 559 3463 722 
L 3463 178 
Q 3153 47 2828 -22 
Q 2503 -91 2169 -91 
Q 1331 -91 842 396 
Q 353 884 353 1716 
Q 353 2575 817 3079 
Q 1281 3584 2069 3584 
Q 2775 3584 3186 3129 
Q 3597 2675 3597 1894 
z
M 3022 2063 
Q 3016 2534 2758 2815 
Q 2500 3097 2075 3097 
Q 1594 3097 1305 2825 
Q 1016 2553 972 2059 
L 3022 2063 
z
" transform="scale(0.015625)"/>
     </defs>
     <use xlink:href="#DejaVuSans-65"/>
    </g>
   </g>
   <g id="text_6">
    <g id="patch_14">
     <path d="M 119.337193 183.097137 
L 133.68563 183.097137 
L 133.68563 165.419012 
L 119.337193 165.419012 
z
" style="fill: #ffffff; stroke: #ffffff; stroke-linejoin: miter"/>
    </g>
    <!-- d -->
    <g style="fill: #0000ff" transform="translate(123.337193 177.01745) scale(0.1 -0.1)">
     <defs>
      <path id="DejaVuSans-64" d="M 2906 2969 
L 2906 4863 
L 3481 4863 
L 3481 0 
L 2906 0 
L 2906 525 
Q 2725 213 2448 61 
Q 2172 -91 1784 -91 
Q 1150 -91 751 415 
Q 353 922 353 1747 
Q 353 2572 751 3078 
Q 1150 3584 1784 3584 
Q 2172 3584 2448 3432 
Q 2725 3281 2906 2969 
z
M 947 1747 
Q 947 1113 1208 752 
Q 1469 391 1925 391 
Q 2381 391 2643 752 
Q 2906 1113 2906 1747 
Q 2906 2381 2643 2742 
Q 2381 3103 1925 3103 
Q 1469 3103 1208 2742 
Q 947 2381 947 1747 
z
" transform="scale(0.015625)"/>
     </defs>
     <use xlink:href="#DejaVuSans-64"/>
    </g>
   </g>
   <g id="text_7">
    <g id="patch_15">
     <path d="M 428.921967 271.509862 
L 443.259467 271.509862 
L 443.259467 253.831737 
L 428.921967 253.831737 
z
" style="fill: #ffffff; stroke: #ffffff; stroke-linejoin: miter"/>
    </g>
    <!-- h -->
    <g style="fill: #0000ff" transform="translate(432.921967 265.430175) scale(0.1 -0.1)">
     <defs>
      <path id="DejaVuSans-68" d="M 3513 2113 
L 3513 0 
L 2938 0 
L 2938 2094 
Q 2938 2591 2744 2837 
Q 2550 3084 2163 3084 
Q 1697 3084 1428 2787 
Q 1159 2491 1159 1978 
L 1159 0 
L 581 0 
L 581 4863 
L 1159 4863 
L 1159 2956 
Q 1366 3272 1645 3428 
Q 1925 3584 2291 3584 
Q 2894 3584 3203 3211 
Q 3513 2838 3513 2113 
z
" transform="scale(0.015625)"/>
     </defs>
     <use xlink:href="#DejaVuSans-68"/>
    </g>
   </g>
   <g id="text_8">
    <g id="patch_16">
     <path d="M 329.888122 211.115191 
L 344.236559 211.115191 
L 344.236559 193.437066 
L 329.888122 193.437066 
z
" style="fill: #ffffff; stroke: #ffffff; stroke-linejoin: miter"/>
    </g>
    <!-- g -->
    <g style="fill: #0000ff" transform="translate(333.888122 205.035504) scale(0.1 -0.1)">
     <defs>
      <path id="DejaVuSans-67" d="M 2906 1791 
Q 2906 2416 2648 2759 
Q 2391 3103 1925 3103 
Q 1463 3103 1205 2759 
Q 947 2416 947 1791 
Q 947 1169 1205 825 
Q 1463 481 1925 481 
Q 2391 481 2648 825 
Q 2906 1169 2906 1791 
z
M 3481 434 
Q 3481 -459 3084 -895 
Q 2688 -1331 1869 -1331 
Q 1566 -1331 1297 -1286 
Q 1028 -1241 775 -1147 
L 775 -588 
Q 1028 -725 1275 -790 
Q 1522 -856 1778 -856 
Q 2344 -856 2625 -561 
Q 2906 -266 2906 331 
L 2906 616 
Q 2728 306 2450 153 
Q 2172 0 1784 0 
Q 1141 0 747 490 
Q 353 981 353 1791 
Q 353 2603 747 3093 
Q 1141 3584 1784 3584 
Q 2172 3584 2450 3431 
Q 2728 3278 2906 2969 
L 2906 3500 
L 3481 3500 
L 3481 434 
z
" transform="scale(0.015625)"/>
     </defs>
     <use xlink:href="#DejaVuSans-67"/>
    </g>
   </g>
   <g id="text_9">
    <g id="patch_17">
     <path d="M 128.58434 152.654179 
L 142.082778 152.654179 
L 142.082778 134.976054 
L 128.58434 134.976054 
z
" style="fill: #ffffff; stroke: #ffffff; stroke-linejoin: miter"/>
    </g>
    <!-- c -->
    <g style="fill: #0000ff" transform="translate(132.58434 146.574492) scale(0.1 -0.1)">
     <defs>
      <path id="DejaVuSans-63" d="M 3122 3366 
L 3122 2828 
Q 2878 2963 2633 3030 
Q 2388 3097 2138 3097 
Q 1578 3097 1268 2742 
Q 959 2388 959 1747 
Q 959 1106 1268 751 
Q 1578 397 2138 397 
Q 2388 397 2633 464 
Q 2878 531 3122 666 
L 3122 134 
Q 2881 22 2623 -34 
Q 2366 -91 2075 -91 
Q 1284 -91 818 406 
Q 353 903 353 1747 
Q 353 2603 823 3093 
Q 1294 3584 2113 3584 
Q 2378 3584 2631 3529 
Q 2884 3475 3122 3366 
z
" transform="scale(0.015625)"/>
     </defs>
     <use xlink:href="#DejaVuSans-63"/>
    </g>
   </g>
   <g id="patch_18">
    <path d="M 32.633155 122.37963 
C 34.841327 122.37963 36.959355 121.502314 38.520769 119.940901 
C 40.082182 118.379487 40.959498 116.261459 40.959498 114.053287 
C 40.959498 111.845115 40.082182 109.727086 38.520769 108.165673 
C 36.959355 106.604259 34.841327 105.726943 32.633155 105.726943 
C 30.424983 105.726943 28.306954 106.604259 26.745541 108.165673 
C 25.184127 109.727086 24.306811 111.845115 24.306811 114.053287 
C 24.306811 116.261459 25.184127 118.379487 26.745541 119.940901 
C 28.306954 121.502314 30.424983 122.37963 32.633155 122.37963 
z
" style="fill: #fec7b8; stroke: #000000; stroke-linejoin: miter"/>
   </g>
   <g id="patch_19">
    <path d="M 238.033964 181.90329 
C 240.242136 181.90329 242.360164 181.025974 243.921578 179.46456 
C 245.482991 177.903147 246.360307 175.785118 246.360307 173.576946 
C 246.360307 171.368774 245.482991 169.250746 243.921578 167.689332 
C 242.360164 166.127919 240.242136 165.250603 238.033964 165.250603 
C 235.825792 165.250603 233.707763 166.127919 232.14635 167.689332 
C 230.584936 169.250746 229.70762 171.368774 229.70762 173.576946 
C 229.70762 175.785118 230.584936 177.903147 232.14635 179.46456 
C 233.707763 181.025974 235.825792 181.90329 238.033964 181.90329 
z
" style="fill: #fec7b8; stroke: #000000; stroke-linejoin: miter"/>
   </g>
   <g id="patch_20">
    <path d="M 436.090717 239.301655 
C 438.298889 239.301655 440.416918 238.424339 441.978331 236.862925 
C 443.539745 235.301512 444.417061 233.183483 444.417061 230.975311 
C 444.417061 228.767139 443.539745 226.649111 441.978331 225.087697 
C 440.416918 223.526284 438.298889 222.648968 436.090717 222.648968 
C 433.882545 222.648968 431.764517 223.526284 430.203103 225.087697 
C 428.64169 226.649111 427.764374 228.767139 427.764374 230.975311 
C 427.764374 233.183483 428.64169 235.301512 430.203103 236.862925 
C 431.764517 238.424339 433.882545 239.301655 436.090717 239.301655 
z
" style="fill: #fec7b8; stroke: #000000; stroke-linejoin: miter"/>
   </g>
   <g id="patch_21">
    <path d="M 32.633155 145.748775 
C 36.836026 145.748775 40.867324 144.078957 43.839202 141.107078 
C 46.811081 138.1352 48.480899 134.103902 48.480899 129.901031 
C 48.480899 125.69816 46.811081 121.666862 43.839202 118.694984 
C 40.867324 115.723105 36.836026 114.053287 32.633155 114.053287 
C 28.430284 114.053287 24.398986 115.723105 21.427107 118.694984 
C 18.455229 121.666862 16.785411 125.69816 16.785411 129.901031 
C 16.785411 134.103902 18.455229 138.1352 21.427107 141.107078 
C 24.398986 144.078957 28.430284 145.748775 32.633155 145.748775 
L 32.633155 145.748775 
z
" clip-path="url(#pc833f9fa53)" style="fill: none; stroke: #ff0000; stroke-linejoin: miter"/>
   </g>
   <g id="patch_22">
    <path d="M 32.633155 161.59652 
C 38.937461 161.59652 44.984408 159.091792 49.442226 154.633974 
C 53.900044 150.176157 56.404771 144.12921 56.404771 137.824903 
C 56.404771 131.520597 53.900044 125.47365 49.442226 121.015832 
C 44.984408 116.558014 38.937461 114.053287 32.633155 114.053287 
C 26.328848 114.053287 20.281901 116.558014 15.824084 121.015832 
C 11.366266 125.47365 8.861538 131.520597 8.861538 137.824903 
C 8.861538 144.12921 11.366266 150.176157 15.824084 154.633974 
C 20.281901 159.091792 26.328848 161.59652 32.633155 161.59652 
L 32.633155 161.59652 
z
" clip-path="url(#pc833f9fa53)" style="fill: none; stroke: #ffbf00; stroke-linejoin: miter"/>
   </g>
   <g id="patch_23">
    <path d="M 436.090717 262.6708 
C 440.293588 262.6708 444.324886 261.000981 447.296765 258.029103 
C 450.268643 255.057224 451.938462 251.025926 451.938462 246.823055 
C 451.938462 242.620185 450.268643 238.588887 447.296765 235.617008 
C 444.324886 232.64513 440.293588 230.975311 436.090717 230.975311 
C 431.887846 230.975311 427.856548 232.64513 424.88467 235.617008 
C 421.912791 238.588887 420.242973 242.620185 420.242973 246.823055 
C 420.242973 251.025926 421.912791 255.057224 424.88467 258.029103 
C 427.856548 261.000981 431.887846 262.6708 436.090717 262.6708 
L 436.090717 262.6708 
z
" clip-path="url(#pc833f9fa53)" style="fill: none; stroke: #ff00bf; stroke-linejoin: miter"/>
   </g>
   <g id="text_10">
    <!-- 0 -->
    <g transform="translate(29.451905 116.812662) scale(0.1 -0.1)">
     <defs>
      <path id="DejaVuSans-30" d="M 2034 4250 
Q 1547 4250 1301 3770 
Q 1056 3291 1056 2328 
Q 1056 1369 1301 889 
Q 1547 409 2034 409 
Q 2525 409 2770 889 
Q 3016 1369 3016 2328 
Q 3016 3291 2770 3770 
Q 2525 4250 2034 4250 
z
M 2034 4750 
Q 2819 4750 3233 4129 
Q 3647 3509 3647 2328 
Q 3647 1150 3233 529 
Q 2819 -91 2034 -91 
Q 1250 -91 836 529 
Q 422 1150 422 2328 
Q 422 3509 836 4129 
Q 1250 4750 2034 4750 
z
" transform="scale(0.015625)"/>
     </defs>
     <use xlink:href="#DejaVuSans-30"/>
    </g>
   </g>
   <g id="text_11">
    <!-- 1 -->
    <g transform="translate(234.852714 176.336321) scale(0.1 -0.1)">
     <defs>
      <path id="DejaVuSans-31" d="M 794 531 
L 1825 531 
L 1825 4091 
L 703 3866 
L 703 4441 
L 1819 4666 
L 2450 4666 
L 2450 531 
L 3481 531 
L 3481 0 
L 794 0 
L 794 531 
z
" transform="scale(0.015625)"/>
     </defs>
     <use xlink:href="#DejaVuSans-31"/>
    </g>
   </g>
   <g id="text_12">
    <!-- 2 -->
    <g transform="translate(432.909467 233.734686) scale(0.1 -0.1)">
     <defs>
      <path id="DejaVuSans-32" d="M 1228 531 
L 3431 531 
L 3431 0 
L 469 0 
L 469 531 
Q 828 903 1448 1529 
Q 2069 2156 2228 2338 
Q 2531 2678 2651 2914 
Q 2772 3150 2772 3378 
Q 2772 3750 2511 3984 
Q 2250 4219 1831 4219 
Q 1534 4219 1204 4116 
Q 875 4013 500 3803 
L 500 4441 
Q 881 4594 1212 4672 
Q 1544 4750 1819 4750 
Q 2544 4750 2975 4387 
Q 3406 4025 3406 3419 
Q 3406 3131 3298 2873 
Q 3191 2616 2906 2266 
Q 2828 2175 2409 1742 
Q 1991 1309 1228 531 
z
" transform="scale(0.015625)"/>
     </defs>
     <use xlink:href="#DejaVuSans-32"/>
    </g>
   </g>
  </g>
 </g>
 <defs>
  <clipPath id="pc833f9fa53">
   <rect x="0" y="79.334368" width="460.8" height="186.931263"/>
  </clipPath>
 </defs>
</svg>
