<?xml version="1.0" encoding="utf-8" standalone="no"?>
<!DOCTYPE svg PUBLIC "-//W3C//DTD SVG 1.1//EN"
  "http://www.w3.org/Graphics/SVG/1.1/DTD/svg11.dtd">
<svg xmlns:xlink="http://www.w3.org/1999/xlink" width="460.8pt" height="345.6pt" viewBox="0 0 460.8 345.6" xmlns="http://www.w3.org/2000/svg" version="1.1">
 <metadata>
  <rdf:RDF xmlns:dc="http://purl.org/dc/elements/1.1/" xmlns:cc="http://creativecommons.org/ns#" xmlns:rdf="http://www.w3.org/1999/02/22-rdf-syntax-ns#">
   <cc:Work>
    <dc:type rdf:resource="http://purl.org/dc/dcmitype/StillImage"/>
    <dc:date>2025-08-07T23:33:32.313791</dc:date>
    <dc:format>image/svg+xml</dc:format>
    <dc:creator>
     <cc:Agent>
      <dc:title>Matplotlib v3.10.3, https://matplotlib.org/</dc:title>
     </cc:Agent>
    </dc:creator>
   </cc:Work>
  </rdf:RDF>
 </metadata>
 <defs>
  <style type="text/css">*{stroke-linejoin: round; stroke-linecap: butt}</style>
 </defs>
 <g id="figure_1">
  <g id="patch_1">
   <path d="M 0 345.6 
L 460.8 345.6 
L 460.8 0 
L 0 0 
z
" style="fill: #ffffff"/>
  </g>
  <g id="axes_1">
   <g id="patch_2">
    <path d="M 57.6 307.584 
L 414.72 307.584 
L 414.72 41.472 
L 57.6 41.472 
z
" style="fill: #ffffff"/>
   </g>
   <g id="matplotlib.axis_1">
    <g id="xtick_1">
     <g id="line2d_1">
      <defs>
       <path id="m2c7e3dfbc0" d="M 0 0 
L 0 3.5 
" style="stroke: #000000; stroke-width: 0.8"/>
      </defs>
      <g>
       <use xlink:href="#m2c7e3dfbc0" x="72.205923" y="174.528061" style="stroke: #000000; stroke-width: 0.8"/>
      </g>
     </g>
     <g id="text_1">
      <!-- −3 -->
      <g transform="translate(64.834829 189.126499) scale(0.1 -0.1)">
       <defs>
        <path id="DejaVuSans-2212" d="M 678 2272 
L 4684 2272 
L 4684 1741 
L 678 1741 
L 678 2272 
z
" transform="scale(0.015625)"/>
        <path id="DejaVuSans-33" d="M 2597 2516 
Q 3050 2419 3304 2112 
Q 3559 1806 3559 1356 
Q 3559 666 3084 287 
Q 2609 -91 1734 -91 
Q 1441 -91 1130 -33 
Q 819 25 488 141 
L 488 750 
Q 750 597 1062 519 
Q 1375 441 1716 441 
Q 2309 441 2620 675 
Q 2931 909 2931 1356 
Q 2931 1769 2642 2001 
Q 2353 2234 1838 2234 
L 1294 2234 
L 1294 2753 
L 1863 2753 
Q 2328 2753 2575 2939 
Q 2822 3125 2822 3475 
Q 2822 3834 2567 4026 
Q 2313 4219 1838 4219 
Q 1578 4219 1281 4162 
Q 984 4106 628 3988 
L 628 4550 
Q 988 4650 1302 4700 
Q 1616 4750 1894 4750 
Q 2613 4750 3031 4423 
Q 3450 4097 3450 3541 
Q 3450 3153 3228 2886 
Q 3006 2619 2597 2516 
z
" transform="scale(0.015625)"/>
       </defs>
       <use xlink:href="#DejaVuSans-2212"/>
       <use xlink:href="#DejaVuSans-33" transform="translate(83.789062 0)"/>
      </g>
     </g>
    </g>
    <g id="xtick_2">
     <g id="line2d_2">
      <g>
       <use xlink:href="#m2c7e3dfbc0" x="126.857282" y="174.528061" style="stroke: #000000; stroke-width: 0.8"/>
      </g>
     </g>
     <g id="text_2">
      <!-- −2 -->
      <g transform="translate(119.486188 189.126499) scale(0.1 -0.1)">
       <defs>
        <path id="DejaVuSans-32" d="M 1228 531 
L 3431 531 
L 3431 0 
L 469 0 
L 469 531 
Q 828 903 1448 1529 
Q 2069 2156 2228 2338 
Q 2531 2678 2651 2914 
Q 2772 3150 2772 3378 
Q 2772 3750 2511 3984 
Q 2250 4219 1831 4219 
Q 1534 4219 1204 4116 
Q 875 4013 500 3803 
L 500 4441 
Q 881 4594 1212 4672 
Q 1544 4750 1819 4750 
Q 2544 4750 2975 4387 
Q 3406 4025 3406 3419 
Q 3406 3131 3298 2873 
Q 3191 2616 2906 2266 
Q 2828 2175 2409 1742 
Q 1991 1309 1228 531 
z
" transform="scale(0.015625)"/>
       </defs>
       <use xlink:href="#DejaVuSans-2212"/>
       <use xlink:href="#DejaVuSans-32" transform="translate(83.789062 0)"/>
      </g>
     </g>
    </g>
    <g id="xtick_3">
     <g id="line2d_3">
      <g>
       <use xlink:href="#m2c7e3dfbc0" x="181.508641" y="174.528061" style="stroke: #000000; stroke-width: 0.8"/>
      </g>
     </g>
     <g id="text_3">
      <!-- −1 -->
      <g transform="translate(174.137547 189.126499) scale(0.1 -0.1)">
       <defs>
        <path id="DejaVuSans-31" d="M 794 531 
L 1825 531 
L 1825 4091 
L 703 3866 
L 703 4441 
L 1819 4666 
L 2450 4666 
L 2450 531 
L 3481 531 
L 3481 0 
L 794 0 
L 794 531 
z
" transform="scale(0.015625)"/>
       </defs>
       <use xlink:href="#DejaVuSans-2212"/>
       <use xlink:href="#DejaVuSans-31" transform="translate(83.789062 0)"/>
      </g>
     </g>
    </g>
    <g id="xtick_4">
     <g id="line2d_4">
      <g>
       <use xlink:href="#m2c7e3dfbc0" x="236.16" y="174.528061" style="stroke: #000000; stroke-width: 0.8"/>
      </g>
     </g>
    </g>
    <g id="xtick_5">
     <g id="line2d_5">
      <g>
       <use xlink:href="#m2c7e3dfbc0" x="290.811359" y="174.528061" style="stroke: #000000; stroke-width: 0.8"/>
      </g>
     </g>
     <g id="text_4">
      <!-- 1 -->
      <g transform="translate(287.630109 189.126499) scale(0.1 -0.1)">
       <use xlink:href="#DejaVuSans-31"/>
      </g>
     </g>
    </g>
    <g id="xtick_6">
     <g id="line2d_6">
      <g>
       <use xlink:href="#m2c7e3dfbc0" x="345.462718" y="174.528061" style="stroke: #000000; stroke-width: 0.8"/>
      </g>
     </g>
     <g id="text_5">
      <!-- 2 -->
      <g transform="translate(342.281468 189.126499) scale(0.1 -0.1)">
       <use xlink:href="#DejaVuSans-32"/>
      </g>
     </g>
    </g>
    <g id="xtick_7">
     <g id="line2d_7">
      <g>
       <use xlink:href="#m2c7e3dfbc0" x="400.114077" y="174.528061" style="stroke: #000000; stroke-width: 0.8"/>
      </g>
     </g>
     <g id="text_6">
      <!-- 3 -->
      <g transform="translate(396.932827 189.126499) scale(0.1 -0.1)">
       <use xlink:href="#DejaVuSans-33"/>
      </g>
     </g>
    </g>
    <g id="xtick_8">
     <g id="line2d_8">
      <defs>
       <path id="m7af9442e46" d="M 0 0 
L 0 2 
" style="stroke: #000000; stroke-width: 0.6"/>
      </defs>
      <g>
       <use xlink:href="#m7af9442e46" x="61.275651" y="174.528061" style="stroke: #000000; stroke-width: 0.6"/>
      </g>
     </g>
    </g>
    <g id="xtick_9">
     <g id="line2d_9">
      <g>
       <use xlink:href="#m7af9442e46" x="83.136195" y="174.528061" style="stroke: #000000; stroke-width: 0.6"/>
      </g>
     </g>
    </g>
    <g id="xtick_10">
     <g id="line2d_10">
      <g>
       <use xlink:href="#m7af9442e46" x="94.066467" y="174.528061" style="stroke: #000000; stroke-width: 0.6"/>
      </g>
     </g>
    </g>
    <g id="xtick_11">
     <g id="line2d_11">
      <g>
       <use xlink:href="#m7af9442e46" x="104.996739" y="174.528061" style="stroke: #000000; stroke-width: 0.6"/>
      </g>
     </g>
    </g>
    <g id="xtick_12">
     <g id="line2d_12">
      <g>
       <use xlink:href="#m7af9442e46" x="115.92701" y="174.528061" style="stroke: #000000; stroke-width: 0.6"/>
      </g>
     </g>
    </g>
    <g id="xtick_13">
     <g id="line2d_13">
      <g>
       <use xlink:href="#m7af9442e46" x="137.787554" y="174.528061" style="stroke: #000000; stroke-width: 0.6"/>
      </g>
     </g>
    </g>
    <g id="xtick_14">
     <g id="line2d_14">
      <g>
       <use xlink:href="#m7af9442e46" x="148.717826" y="174.528061" style="stroke: #000000; stroke-width: 0.6"/>
      </g>
     </g>
    </g>
    <g id="xtick_15">
     <g id="line2d_15">
      <g>
       <use xlink:href="#m7af9442e46" x="159.648098" y="174.528061" style="stroke: #000000; stroke-width: 0.6"/>
      </g>
     </g>
    </g>
    <g id="xtick_16">
     <g id="line2d_16">
      <g>
       <use xlink:href="#m7af9442e46" x="170.578369" y="174.528061" style="stroke: #000000; stroke-width: 0.6"/>
      </g>
     </g>
    </g>
    <g id="xtick_17">
     <g id="line2d_17">
      <g>
       <use xlink:href="#m7af9442e46" x="192.438913" y="174.528061" style="stroke: #000000; stroke-width: 0.6"/>
      </g>
     </g>
    </g>
    <g id="xtick_18">
     <g id="line2d_18">
      <g>
       <use xlink:href="#m7af9442e46" x="203.369185" y="174.528061" style="stroke: #000000; stroke-width: 0.6"/>
      </g>
     </g>
    </g>
    <g id="xtick_19">
     <g id="line2d_19">
      <g>
       <use xlink:href="#m7af9442e46" x="214.299456" y="174.528061" style="stroke: #000000; stroke-width: 0.6"/>
      </g>
     </g>
    </g>
    <g id="xtick_20">
     <g id="line2d_20">
      <g>
       <use xlink:href="#m7af9442e46" x="225.229728" y="174.528061" style="stroke: #000000; stroke-width: 0.6"/>
      </g>
     </g>
    </g>
    <g id="xtick_21">
     <g id="line2d_21">
      <g>
       <use xlink:href="#m7af9442e46" x="247.090272" y="174.528061" style="stroke: #000000; stroke-width: 0.6"/>
      </g>
     </g>
    </g>
    <g id="xtick_22">
     <g id="line2d_22">
      <g>
       <use xlink:href="#m7af9442e46" x="258.020544" y="174.528061" style="stroke: #000000; stroke-width: 0.6"/>
      </g>
     </g>
    </g>
    <g id="xtick_23">
     <g id="line2d_23">
      <g>
       <use xlink:href="#m7af9442e46" x="268.950815" y="174.528061" style="stroke: #000000; stroke-width: 0.6"/>
      </g>
     </g>
    </g>
    <g id="xtick_24">
     <g id="line2d_24">
      <g>
       <use xlink:href="#m7af9442e46" x="279.881087" y="174.528061" style="stroke: #000000; stroke-width: 0.6"/>
      </g>
     </g>
    </g>
    <g id="xtick_25">
     <g id="line2d_25">
      <g>
       <use xlink:href="#m7af9442e46" x="301.741631" y="174.528061" style="stroke: #000000; stroke-width: 0.6"/>
      </g>
     </g>
    </g>
    <g id="xtick_26">
     <g id="line2d_26">
      <g>
       <use xlink:href="#m7af9442e46" x="312.671902" y="174.528061" style="stroke: #000000; stroke-width: 0.6"/>
      </g>
     </g>
    </g>
    <g id="xtick_27">
     <g id="line2d_27">
      <g>
       <use xlink:href="#m7af9442e46" x="323.602174" y="174.528061" style="stroke: #000000; stroke-width: 0.6"/>
      </g>
     </g>
    </g>
    <g id="xtick_28">
     <g id="line2d_28">
      <g>
       <use xlink:href="#m7af9442e46" x="334.532446" y="174.528061" style="stroke: #000000; stroke-width: 0.6"/>
      </g>
     </g>
    </g>
    <g id="xtick_29">
     <g id="line2d_29">
      <g>
       <use xlink:href="#m7af9442e46" x="356.39299" y="174.528061" style="stroke: #000000; stroke-width: 0.6"/>
      </g>
     </g>
    </g>
    <g id="xtick_30">
     <g id="line2d_30">
      <g>
       <use xlink:href="#m7af9442e46" x="367.323261" y="174.528061" style="stroke: #000000; stroke-width: 0.6"/>
      </g>
     </g>
    </g>
    <g id="xtick_31">
     <g id="line2d_31">
      <g>
       <use xlink:href="#m7af9442e46" x="378.253533" y="174.528061" style="stroke: #000000; stroke-width: 0.6"/>
      </g>
     </g>
    </g>
    <g id="xtick_32">
     <g id="line2d_32">
      <g>
       <use xlink:href="#m7af9442e46" x="389.183805" y="174.528061" style="stroke: #000000; stroke-width: 0.6"/>
      </g>
     </g>
    </g>
    <g id="xtick_33">
     <g id="line2d_33">
      <g>
       <use xlink:href="#m7af9442e46" x="411.044349" y="174.528061" style="stroke: #000000; stroke-width: 0.6"/>
      </g>
     </g>
    </g>
   </g>
   <g id="matplotlib.axis_2">
    <g id="ytick_1">
     <g id="line2d_34">
      <defs>
       <path id="m94450dd03e" d="M 0 0 
L -3.5 0 
" style="stroke: #000000; stroke-width: 0.8"/>
      </defs>
      <g>
       <use xlink:href="#m94450dd03e" x="236.16" y="302.4666" style="stroke: #000000; stroke-width: 0.8"/>
      </g>
     </g>
     <g id="text_7">
      <!-- −1.0 -->
      <g transform="translate(204.877187 306.265819) scale(0.1 -0.1)">
       <defs>
        <path id="DejaVuSans-2e" d="M 684 794 
L 1344 794 
L 1344 0 
L 684 0 
L 684 794 
z
" transform="scale(0.015625)"/>
        <path id="DejaVuSans-30" d="M 2034 4250 
Q 1547 4250 1301 3770 
Q 1056 3291 1056 2328 
Q 1056 1369 1301 889 
Q 1547 409 2034 409 
Q 2525 409 2770 889 
Q 3016 1369 3016 2328 
Q 3016 3291 2770 3770 
Q 2525 4250 2034 4250 
z
M 2034 4750 
Q 2819 4750 3233 4129 
Q 3647 3509 3647 2328 
Q 3647 1150 3233 529 
Q 2819 -91 2034 -91 
Q 1250 -91 836 529 
Q 422 1150 422 2328 
Q 422 3509 836 4129 
Q 1250 4750 2034 4750 
z
" transform="scale(0.015625)"/>
       </defs>
       <use xlink:href="#DejaVuSans-2212"/>
       <use xlink:href="#DejaVuSans-31" transform="translate(83.789062 0)"/>
       <use xlink:href="#DejaVuSans-2e" transform="translate(147.412109 0)"/>
       <use xlink:href="#DejaVuSans-30" transform="translate(179.199219 0)"/>
      </g>
     </g>
    </g>
    <g id="ytick_2">
     <g id="line2d_35">
      <g>
       <use xlink:href="#m94450dd03e" x="236.16" y="238.497331" style="stroke: #000000; stroke-width: 0.8"/>
      </g>
     </g>
     <g id="text_8">
      <!-- −0.5 -->
      <g transform="translate(204.877187 242.296549) scale(0.1 -0.1)">
       <defs>
        <path id="DejaVuSans-35" d="M 691 4666 
L 3169 4666 
L 3169 4134 
L 1269 4134 
L 1269 2991 
Q 1406 3038 1543 3061 
Q 1681 3084 1819 3084 
Q 2600 3084 3056 2656 
Q 3513 2228 3513 1497 
Q 3513 744 3044 326 
Q 2575 -91 1722 -91 
Q 1428 -91 1123 -41 
Q 819 9 494 109 
L 494 744 
Q 775 591 1075 516 
Q 1375 441 1709 441 
Q 2250 441 2565 725 
Q 2881 1009 2881 1497 
Q 2881 1984 2565 2268 
Q 2250 2553 1709 2553 
Q 1456 2553 1204 2497 
Q 953 2441 691 2322 
L 691 4666 
z
" transform="scale(0.015625)"/>
       </defs>
       <use xlink:href="#DejaVuSans-2212"/>
       <use xlink:href="#DejaVuSans-30" transform="translate(83.789062 0)"/>
       <use xlink:href="#DejaVuSans-2e" transform="translate(147.412109 0)"/>
       <use xlink:href="#DejaVuSans-35" transform="translate(179.199219 0)"/>
      </g>
     </g>
    </g>
    <g id="ytick_3">
     <g id="line2d_36">
      <g>
       <use xlink:href="#m94450dd03e" x="236.16" y="174.528061" style="stroke: #000000; stroke-width: 0.8"/>
      </g>
     </g>
    </g>
    <g id="ytick_4">
     <g id="line2d_37">
      <g>
       <use xlink:href="#m94450dd03e" x="236.16" y="110.558792" style="stroke: #000000; stroke-width: 0.8"/>
      </g>
     </g>
     <g id="text_9">
      <!-- 0.5 -->
      <g transform="translate(213.256875 114.358011) scale(0.1 -0.1)">
       <use xlink:href="#DejaVuSans-30"/>
       <use xlink:href="#DejaVuSans-2e" transform="translate(63.623047 0)"/>
       <use xlink:href="#DejaVuSans-35" transform="translate(95.410156 0)"/>
      </g>
     </g>
    </g>
    <g id="ytick_5">
     <g id="line2d_38">
      <g>
       <use xlink:href="#m94450dd03e" x="236.16" y="46.589522" style="stroke: #000000; stroke-width: 0.8"/>
      </g>
     </g>
     <g id="text_10">
      <!-- 1.0 -->
      <g transform="translate(213.256875 50.388741) scale(0.1 -0.1)">
       <use xlink:href="#DejaVuSans-31"/>
       <use xlink:href="#DejaVuSans-2e" transform="translate(63.623047 0)"/>
       <use xlink:href="#DejaVuSans-30" transform="translate(95.410156 0)"/>
      </g>
     </g>
    </g>
    <g id="ytick_6">
     <g id="line2d_39">
      <defs>
       <path id="m53f527988f" d="M 0 0 
L -2 0 
" style="stroke: #000000; stroke-width: 0.6"/>
      </defs>
      <g>
       <use xlink:href="#m53f527988f" x="236.16" y="289.672746" style="stroke: #000000; stroke-width: 0.6"/>
      </g>
     </g>
    </g>
    <g id="ytick_7">
     <g id="line2d_40">
      <g>
       <use xlink:href="#m53f527988f" x="236.16" y="276.878892" style="stroke: #000000; stroke-width: 0.6"/>
      </g>
     </g>
    </g>
    <g id="ytick_8">
     <g id="line2d_41">
      <g>
       <use xlink:href="#m53f527988f" x="236.16" y="264.085038" style="stroke: #000000; stroke-width: 0.6"/>
      </g>
     </g>
    </g>
    <g id="ytick_9">
     <g id="line2d_42">
      <g>
       <use xlink:href="#m53f527988f" x="236.16" y="251.291185" style="stroke: #000000; stroke-width: 0.6"/>
      </g>
     </g>
    </g>
    <g id="ytick_10">
     <g id="line2d_43">
      <g>
       <use xlink:href="#m53f527988f" x="236.16" y="225.703477" style="stroke: #000000; stroke-width: 0.6"/>
      </g>
     </g>
    </g>
    <g id="ytick_11">
     <g id="line2d_44">
      <g>
       <use xlink:href="#m53f527988f" x="236.16" y="212.909623" style="stroke: #000000; stroke-width: 0.6"/>
      </g>
     </g>
    </g>
    <g id="ytick_12">
     <g id="line2d_45">
      <g>
       <use xlink:href="#m53f527988f" x="236.16" y="200.115769" style="stroke: #000000; stroke-width: 0.6"/>
      </g>
     </g>
    </g>
    <g id="ytick_13">
     <g id="line2d_46">
      <g>
       <use xlink:href="#m53f527988f" x="236.16" y="187.321915" style="stroke: #000000; stroke-width: 0.6"/>
      </g>
     </g>
    </g>
    <g id="ytick_14">
     <g id="line2d_47">
      <g>
       <use xlink:href="#m53f527988f" x="236.16" y="161.734207" style="stroke: #000000; stroke-width: 0.6"/>
      </g>
     </g>
    </g>
    <g id="ytick_15">
     <g id="line2d_48">
      <g>
       <use xlink:href="#m53f527988f" x="236.16" y="148.940354" style="stroke: #000000; stroke-width: 0.6"/>
      </g>
     </g>
    </g>
    <g id="ytick_16">
     <g id="line2d_49">
      <g>
       <use xlink:href="#m53f527988f" x="236.16" y="136.1465" style="stroke: #000000; stroke-width: 0.6"/>
      </g>
     </g>
    </g>
    <g id="ytick_17">
     <g id="line2d_50">
      <g>
       <use xlink:href="#m53f527988f" x="236.16" y="123.352646" style="stroke: #000000; stroke-width: 0.6"/>
      </g>
     </g>
    </g>
    <g id="ytick_18">
     <g id="line2d_51">
      <g>
       <use xlink:href="#m53f527988f" x="236.16" y="97.764938" style="stroke: #000000; stroke-width: 0.6"/>
      </g>
     </g>
    </g>
    <g id="ytick_19">
     <g id="line2d_52">
      <g>
       <use xlink:href="#m53f527988f" x="236.16" y="84.971084" style="stroke: #000000; stroke-width: 0.6"/>
      </g>
     </g>
    </g>
    <g id="ytick_20">
     <g id="line2d_53">
      <g>
       <use xlink:href="#m53f527988f" x="236.16" y="72.17723" style="stroke: #000000; stroke-width: 0.6"/>
      </g>
     </g>
    </g>
    <g id="ytick_21">
     <g id="line2d_54">
      <g>
       <use xlink:href="#m53f527988f" x="236.16" y="59.383376" style="stroke: #000000; stroke-width: 0.6"/>
      </g>
     </g>
    </g>
   </g>
   <g id="line2d_55">
    <path d="M 64.467692 123.571654 
L 65.295493 77.907628 
L 65.834353 58.055643 
L 66.237415 49.459237 
L 66.559863 46.699221 
L 66.640476 46.589612 
L 66.721088 46.711871 
L 66.882312 47.648053 
L 67.124149 50.755923 
L 67.446598 57.96658 
L 67.930271 74.823148 
L 68.543906 104.890313 
L 69.464359 161.38831 
L 71.009746 254.88052 
L 71.685033 283.288557 
L 72.185578 296.503498 
L 72.586014 301.705703 
L 72.786232 302.459167 
L 72.886341 302.372782 
L 73.055453 301.530106 
L 73.331462 298.303918 
L 73.676475 291.161232 
L 74.090489 278.361606 
L 74.754417 249.66114 
L 75.639654 200.714442 
L 77.519897 94.690507 
L 78.230869 66.783939 
L 78.768941 53.234688 
L 79.149019 48.047094 
L 79.402405 46.674609 
L 79.529097 46.616927 
L 79.65579 46.976294 
L 79.845829 48.28997 
L 80.162561 52.500765 
L 80.523841 60.253044 
L 81.063317 77.147734 
L 81.818583 109.541882 
L 82.633928 151.910386 
L 84.540767 250.736745 
L 85.367622 281.17383 
L 85.903065 294.161981 
L 86.331419 300.282307 
L 86.652685 302.288396 
L 86.759774 302.461618 
L 86.866862 302.387914 
L 87.106456 301.335647 
L 87.371467 298.766694 
L 87.768983 292.248017 
L 88.299004 278.942029 
L 88.961531 255.931474 
L 89.866545 216.163349 
L 92.603604 89.676979 
L 93.372317 65.866291 
L 93.948852 53.952755 
L 94.367864 48.787606 
L 94.703074 46.83586 
L 94.870679 46.589538 
L 95.038284 46.826856 
L 95.289691 48.079709 
L 95.626004 51.401775 
L 96.074421 58.633657 
L 96.634943 71.813219 
L 97.386897 95.636631 
L 98.465709 138.484993 
L 101.157787 250.34277 
L 102.077327 277.860037 
L 102.696073 290.973681 
L 103.211694 298.200874 
L 103.624809 301.465647 
L 103.934799 302.425561 
L 104.038129 302.462661 
L 104.24479 302.116033 
L 104.55478 300.557836 
L 104.968101 296.595984 
L 105.484752 288.773273 
L 106.104733 275.555489 
L 106.95485 251.720131 
L 107.99574 216.094912 
L 111.197211 101.062738 
L 112.185737 74.85966 
L 112.977452 59.63164 
L 113.604413 51.625215 
L 114.074633 48.068391 
L 114.388113 46.872661 
L 114.544853 46.626001 
L 114.701594 46.611822 
L 114.971032 47.125431 
L 115.309127 48.715757 
L 115.75992 52.42224 
L 116.277752 58.802134 
L 116.968195 70.536512 
L 117.839722 89.870896 
L 119.062825 123.339833 
L 123.560321 254.855114 
L 124.6229 276.630695 
L 125.472566 289.510152 
L 126.180622 296.920686 
L 126.747066 300.617065 
L 127.147773 302.032471 
L 127.348126 302.370681 
L 127.548479 302.465131 
L 127.748832 302.31832 
L 128.149539 301.313082 
L 128.563702 299.30295 
L 129.20513 294.332219 
L 129.846559 287.25786 
L 130.723824 274.54682 
L 131.829584 254.37075 
L 133.309681 222.223904 
L 137.974784 114.947511 
L 139.436854 88.295571 
L 140.533406 72.273417 
L 141.561552 60.683679 
L 142.22418 55.044543 
L 142.843953 51.080353 
L 143.463725 48.373843 
L 144.083498 46.90271 
L 144.393385 46.620094 
L 144.703271 46.632557 
L 145.100265 47.070093 
L 145.497259 47.968195 
L 146.092175 50.14254 
L 146.687091 53.259948 
L 147.420044 58.305493 
L 148.429072 67.210157 
L 149.438099 78.071616 
L 150.888669 96.404968 
L 152.861515 124.79313 
L 158.584705 210.079263 
L 160.699538 236.892145 
L 162.531209 256.580584 
L 163.806601 268.168669 
L 165.267727 279.253009 
L 166.403081 286.266574 
L 167.375549 291.193395 
L 168.348016 295.161088 
L 169.167497 297.792357 
L 169.986977 299.803973 
L 170.845215 301.281841 
L 171.46317 301.969261 
L 172.081125 302.358467 
L 172.699081 302.464956 
L 173.317036 302.304374 
L 173.800478 302.002698 
L 174.767361 300.967741 
L 175.250803 300.249306 
L 176.01546 298.862227 
L 176.780117 297.192734 
L 178.365933 292.9483 
L 180.226078 286.882692 
L 181.973353 280.401969 
L 184.344813 270.835736 
L 192.871697 235.521832 
L 195.737665 224.895086 
L 198.402389 215.957766 
L 200.650342 209.184015 
L 203.022373 202.813285 
L 205.379574 197.263827 
L 208.095985 191.799159 
L 209.890422 188.707682 
L 212.048999 185.500682 
L 213.464808 183.682438 
L 216.000879 180.946523 
L 217.580841 179.553395 
L 218.981412 178.50081 
L 221.395971 177.050293 
L 224.055354 175.918162 
L 227.091876 175.112514 
L 230.311818 174.684831 
L 235.171624 174.528818 
L 241.037359 174.437122 
L 244.032825 174.145598 
L 246.085141 173.761749 
L 248.420713 173.083498 
L 250.982792 171.975597 
L 252.294914 171.236132 
L 253.96488 170.104937 
L 255.719528 168.66504 
L 258.028569 166.33658 
L 260.122734 163.756141 
L 261.988234 161.048498 
L 264.174028 157.34853 
L 265.887059 154.026923 
L 267.406873 150.754912 
L 269.522619 145.672719 
L 271.216559 141.15069 
L 273.41254 134.682378 
L 275.687591 127.268685 
L 278.631875 116.66004 
L 281.703193 104.551854 
L 291.162925 65.549255 
L 293.057201 58.905414 
L 294.616458 54.216804 
L 295.825419 51.208698 
L 297.067673 48.809282 
L 297.668065 47.93602 
L 298.268457 47.268305 
L 298.868849 46.820339 
L 299.469241 46.606453 
L 299.92994 46.610054 
L 300.390639 46.766451 
L 300.814692 47.051022 
L 301.662798 48.044926 
L 302.461828 49.528587 
L 303.211781 51.432932 
L 303.961734 53.858169 
L 305.086663 58.522378 
L 306.254671 64.732039 
L 307.609009 73.750999 
L 308.889364 84.118486 
L 310.164507 96.226153 
L 311.839548 114.74899 
L 313.532041 136.230411 
L 315.47348 163.666877 
L 322.318503 264.199578 
L 323.540153 278.274125 
L 324.689423 289.071363 
L 325.551376 295.298826 
L 326.209378 298.830781 
L 326.855333 301.178655 
L 327.178311 301.913588 
L 327.501289 302.344672 
L 327.824266 302.464267 
L 328.308733 302.044548 
L 328.631711 301.356476 
L 329.111642 299.718307 
L 329.618807 297.174683 
L 330.18497 293.337195 
L 330.939854 286.576811 
L 331.88346 275.516148 
L 332.907755 260.359784 
L 334.053084 239.869409 
L 335.406755 211.63911 
L 337.680323 158.350695 
L 340.195175 100.708085 
L 341.33279 78.933704 
L 342.253043 64.679061 
L 343.036665 55.477603 
L 343.663562 50.334822 
L 344.133735 47.881902 
L 344.447184 46.948232 
L 344.771699 46.590968 
L 344.939489 46.653719 
L 345.275071 47.292617 
L 345.608614 48.613157 
L 346.108929 51.886102 
L 346.609244 56.709566 
L 347.212401 64.557033 
L 347.966348 77.374175 
L 348.871084 96.815388 
L 349.975743 125.6084 
L 351.565525 173.434057 
L 353.981578 246.271767 
L 355.041601 272.166536 
L 355.924954 288.510422 
L 356.631636 297.340111 
L 357.151948 301.130364 
L 357.48111 302.267092 
L 357.700552 302.465764 
L 357.919993 302.210362 
L 358.139434 301.496872 
L 358.468596 299.562982 
L 358.907479 295.37326 
L 359.409559 288.352178 
L 360.012056 276.902997 
L 360.714968 259.685907 
L 361.719128 228.986111 
L 363.161224 176.707057 
L 365.261824 100.60608 
L 366.298759 71.496246 
L 367.009204 57.306982 
L 367.566556 50.138775 
L 367.988016 47.253358 
L 368.240892 46.617706 
L 368.409476 46.659734 
L 368.578061 47.077755 
L 368.830937 48.413056 
L 369.168105 51.515262 
L 369.589565 57.493791 
L 370.117216 68.161391 
L 370.860549 88.725764 
L 371.710073 118.878442 
L 372.941538 170.643893 
L 374.908404 252.536161 
L 375.73659 278.632234 
L 376.3864 293.026679 
L 376.915174 300.048455 
L 377.311755 302.307202 
L 377.443949 302.466462 
L 377.576142 302.324891 
L 377.840529 301.134551 
L 378.104916 298.733968 
L 378.529578 292.373531 
L 379.010401 281.572103 
L 379.651498 261.705893 
L 380.45287 229.568996 
L 381.87706 161.037605 
L 383.386146 92.04156 
L 384.149873 66.424102 
L 384.659025 54.729787 
L 385.104532 48.600622 
L 385.422752 46.733939 
L 385.606733 46.639345 
L 385.790714 47.274459 
L 386.036022 49.258793 
L 386.403984 54.652214 
L 386.8946 66.207668 
L 387.508262 87.098021 
L 388.369583 126.159641 
L 391.457234 278.881896 
L 391.996356 293.475318 
L 392.381443 299.791897 
L 392.692157 302.19481 
L 392.899299 302.415693 
L 393.106442 301.517796 
L 393.422584 297.991452 
L 393.847726 289.222304 
L 394.379152 272.156458 
L 395.016865 243.943632 
L 395.973433 190.752954 
L 397.743144 90.86416 
L 398.446025 63.454007 
L 398.974535 50.975928 
L 399.331374 47.088879 
L 399.509794 46.589584 
L 399.599004 46.706653 
L 399.777423 47.677109 
L 400.045052 50.968036 
L 400.401892 58.715824 
L 400.84794 73.508325 
L 401.472409 102.532916 
L 402.436529 160.404585 
L 404.047249 258.484176 
L 404.736527 287.021046 
L 405.191967 298.233889 
L 405.481998 301.75683 
L 405.699522 302.46097 
L 405.844538 301.993172 
L 406.062061 299.882907 
L 406.37788 293.846717 
L 406.771061 281.611573 
L 407.360832 254.492335 
L 407.852308 225.484469 
L 407.852308 225.484469 
" clip-path="url(#p1ffaed8f5c)" style="fill: none; stroke: #0000ff; stroke-linecap: square"/>
   </g>
   <g id="patch_3">
    <path d="M 236.16 307.584 
L 236.16 41.472 
" style="fill: none; stroke: #000000; stroke-width: 0.8; stroke-linejoin: miter; stroke-linecap: square"/>
   </g>
   <g id="patch_4">
    <path d="M 57.6 174.528061 
L 414.72 174.528061 
" style="fill: none; stroke: #000000; stroke-width: 0.8; stroke-linejoin: miter; stroke-linecap: square"/>
   </g>
  </g>
  <g id="axes_2">
   <g id="patch_5">
    <path d="M 109.44 155.52 
L 213.12 155.52 
L 213.12 51.84 
L 109.44 51.84 
z
" style="fill: #ffffff"/>
   </g>
   <g id="matplotlib.axis_3">
    <g id="xtick_34">
     <g id="line2d_56">
      <g>
       <use xlink:href="#m2c7e3dfbc0" x="111.433846" y="103.68" style="stroke: #000000; stroke-width: 0.8"/>
      </g>
     </g>
     <g id="text_11">
      <!-- −1.0 -->
      <g transform="translate(99.29244 118.278437) scale(0.1 -0.1)">
       <use xlink:href="#DejaVuSans-2212"/>
       <use xlink:href="#DejaVuSans-31" transform="translate(83.789062 0)"/>
       <use xlink:href="#DejaVuSans-2e" transform="translate(147.412109 0)"/>
       <use xlink:href="#DejaVuSans-30" transform="translate(179.199219 0)"/>
      </g>
     </g>
    </g>
    <g id="xtick_35">
     <g id="line2d_57">
      <g>
       <use xlink:href="#m2c7e3dfbc0" x="136.356923" y="103.68" style="stroke: #000000; stroke-width: 0.8"/>
      </g>
     </g>
     <g id="text_12">
      <!-- −0.5 -->
      <g transform="translate(124.215517 118.278437) scale(0.1 -0.1)">
       <use xlink:href="#DejaVuSans-2212"/>
       <use xlink:href="#DejaVuSans-30" transform="translate(83.789062 0)"/>
       <use xlink:href="#DejaVuSans-2e" transform="translate(147.412109 0)"/>
       <use xlink:href="#DejaVuSans-35" transform="translate(179.199219 0)"/>
      </g>
     </g>
    </g>
    <g id="xtick_36">
     <g id="line2d_58">
      <g>
       <use xlink:href="#m2c7e3dfbc0" x="161.28" y="103.68" style="stroke: #000000; stroke-width: 0.8"/>
      </g>
     </g>
    </g>
    <g id="xtick_37">
     <g id="line2d_59">
      <g>
       <use xlink:href="#m2c7e3dfbc0" x="186.203077" y="103.68" style="stroke: #000000; stroke-width: 0.8"/>
      </g>
     </g>
     <g id="text_13">
      <!-- 0.5 -->
      <g transform="translate(178.251514 118.278437) scale(0.1 -0.1)">
       <use xlink:href="#DejaVuSans-30"/>
       <use xlink:href="#DejaVuSans-2e" transform="translate(63.623047 0)"/>
       <use xlink:href="#DejaVuSans-35" transform="translate(95.410156 0)"/>
      </g>
     </g>
    </g>
    <g id="xtick_38">
     <g id="line2d_60">
      <g>
       <use xlink:href="#m2c7e3dfbc0" x="211.126154" y="103.68" style="stroke: #000000; stroke-width: 0.8"/>
      </g>
     </g>
     <g id="text_14">
      <!-- 1.0 -->
      <g transform="translate(203.174591 118.278437) scale(0.1 -0.1)">
       <use xlink:href="#DejaVuSans-31"/>
       <use xlink:href="#DejaVuSans-2e" transform="translate(63.623047 0)"/>
       <use xlink:href="#DejaVuSans-30" transform="translate(95.410156 0)"/>
      </g>
     </g>
    </g>
    <g id="xtick_39">
     <g id="line2d_61">
      <g>
       <use xlink:href="#m7af9442e46" x="116.418462" y="103.68" style="stroke: #000000; stroke-width: 0.6"/>
      </g>
     </g>
    </g>
    <g id="xtick_40">
     <g id="line2d_62">
      <g>
       <use xlink:href="#m7af9442e46" x="121.403077" y="103.68" style="stroke: #000000; stroke-width: 0.6"/>
      </g>
     </g>
    </g>
    <g id="xtick_41">
     <g id="line2d_63">
      <g>
       <use xlink:href="#m7af9442e46" x="126.387692" y="103.68" style="stroke: #000000; stroke-width: 0.6"/>
      </g>
     </g>
    </g>
    <g id="xtick_42">
     <g id="line2d_64">
      <g>
       <use xlink:href="#m7af9442e46" x="131.372308" y="103.68" style="stroke: #000000; stroke-width: 0.6"/>
      </g>
     </g>
    </g>
    <g id="xtick_43">
     <g id="line2d_65">
      <g>
       <use xlink:href="#m7af9442e46" x="141.341538" y="103.68" style="stroke: #000000; stroke-width: 0.6"/>
      </g>
     </g>
    </g>
    <g id="xtick_44">
     <g id="line2d_66">
      <g>
       <use xlink:href="#m7af9442e46" x="146.326154" y="103.68" style="stroke: #000000; stroke-width: 0.6"/>
      </g>
     </g>
    </g>
    <g id="xtick_45">
     <g id="line2d_67">
      <g>
       <use xlink:href="#m7af9442e46" x="151.310769" y="103.68" style="stroke: #000000; stroke-width: 0.6"/>
      </g>
     </g>
    </g>
    <g id="xtick_46">
     <g id="line2d_68">
      <g>
       <use xlink:href="#m7af9442e46" x="156.295385" y="103.68" style="stroke: #000000; stroke-width: 0.6"/>
      </g>
     </g>
    </g>
    <g id="xtick_47">
     <g id="line2d_69">
      <g>
       <use xlink:href="#m7af9442e46" x="166.264615" y="103.68" style="stroke: #000000; stroke-width: 0.6"/>
      </g>
     </g>
    </g>
    <g id="xtick_48">
     <g id="line2d_70">
      <g>
       <use xlink:href="#m7af9442e46" x="171.249231" y="103.68" style="stroke: #000000; stroke-width: 0.6"/>
      </g>
     </g>
    </g>
    <g id="xtick_49">
     <g id="line2d_71">
      <g>
       <use xlink:href="#m7af9442e46" x="176.233846" y="103.68" style="stroke: #000000; stroke-width: 0.6"/>
      </g>
     </g>
    </g>
    <g id="xtick_50">
     <g id="line2d_72">
      <g>
       <use xlink:href="#m7af9442e46" x="181.218462" y="103.68" style="stroke: #000000; stroke-width: 0.6"/>
      </g>
     </g>
    </g>
    <g id="xtick_51">
     <g id="line2d_73">
      <g>
       <use xlink:href="#m7af9442e46" x="191.187692" y="103.68" style="stroke: #000000; stroke-width: 0.6"/>
      </g>
     </g>
    </g>
    <g id="xtick_52">
     <g id="line2d_74">
      <g>
       <use xlink:href="#m7af9442e46" x="196.172308" y="103.68" style="stroke: #000000; stroke-width: 0.6"/>
      </g>
     </g>
    </g>
    <g id="xtick_53">
     <g id="line2d_75">
      <g>
       <use xlink:href="#m7af9442e46" x="201.156923" y="103.68" style="stroke: #000000; stroke-width: 0.6"/>
      </g>
     </g>
    </g>
    <g id="xtick_54">
     <g id="line2d_76">
      <g>
       <use xlink:href="#m7af9442e46" x="206.141538" y="103.68" style="stroke: #000000; stroke-width: 0.6"/>
      </g>
     </g>
    </g>
   </g>
   <g id="matplotlib.axis_4">
    <g id="ytick_22">
     <g id="line2d_77">
      <g>
       <use xlink:href="#m94450dd03e" x="161.28" y="153.526154" style="stroke: #000000; stroke-width: 0.8"/>
      </g>
     </g>
     <g id="text_15">
      <!-- −1.0 -->
      <g transform="translate(129.997187 157.325373) scale(0.1 -0.1)">
       <use xlink:href="#DejaVuSans-2212"/>
       <use xlink:href="#DejaVuSans-31" transform="translate(83.789062 0)"/>
       <use xlink:href="#DejaVuSans-2e" transform="translate(147.412109 0)"/>
       <use xlink:href="#DejaVuSans-30" transform="translate(179.199219 0)"/>
      </g>
     </g>
    </g>
    <g id="ytick_23">
     <g id="line2d_78">
      <g>
       <use xlink:href="#m94450dd03e" x="161.28" y="128.603077" style="stroke: #000000; stroke-width: 0.8"/>
      </g>
     </g>
     <g id="text_16">
      <!-- −0.5 -->
      <g transform="translate(129.997187 132.402296) scale(0.1 -0.1)">
       <use xlink:href="#DejaVuSans-2212"/>
       <use xlink:href="#DejaVuSans-30" transform="translate(83.789062 0)"/>
       <use xlink:href="#DejaVuSans-2e" transform="translate(147.412109 0)"/>
       <use xlink:href="#DejaVuSans-35" transform="translate(179.199219 0)"/>
      </g>
     </g>
    </g>
    <g id="ytick_24">
     <g id="line2d_79">
      <g>
       <use xlink:href="#m94450dd03e" x="161.28" y="103.68" style="stroke: #000000; stroke-width: 0.8"/>
      </g>
     </g>
    </g>
    <g id="ytick_25">
     <g id="line2d_80">
      <g>
       <use xlink:href="#m94450dd03e" x="161.28" y="78.756923" style="stroke: #000000; stroke-width: 0.8"/>
      </g>
     </g>
     <g id="text_17">
      <!-- 0.5 -->
      <g transform="translate(138.376875 82.556142) scale(0.1 -0.1)">
       <use xlink:href="#DejaVuSans-30"/>
       <use xlink:href="#DejaVuSans-2e" transform="translate(63.623047 0)"/>
       <use xlink:href="#DejaVuSans-35" transform="translate(95.410156 0)"/>
      </g>
     </g>
    </g>
    <g id="ytick_26">
     <g id="line2d_81">
      <g>
       <use xlink:href="#m94450dd03e" x="161.28" y="53.833846" style="stroke: #000000; stroke-width: 0.8"/>
      </g>
     </g>
     <g id="text_18">
      <!-- 1.0 -->
      <g transform="translate(138.376875 57.633065) scale(0.1 -0.1)">
       <use xlink:href="#DejaVuSans-31"/>
       <use xlink:href="#DejaVuSans-2e" transform="translate(63.623047 0)"/>
       <use xlink:href="#DejaVuSans-30" transform="translate(95.410156 0)"/>
      </g>
     </g>
    </g>
    <g id="ytick_27">
     <g id="line2d_82">
      <g>
       <use xlink:href="#m53f527988f" x="161.28" y="148.541538" style="stroke: #000000; stroke-width: 0.6"/>
      </g>
     </g>
    </g>
    <g id="ytick_28">
     <g id="line2d_83">
      <g>
       <use xlink:href="#m53f527988f" x="161.28" y="143.556923" style="stroke: #000000; stroke-width: 0.6"/>
      </g>
     </g>
    </g>
    <g id="ytick_29">
     <g id="line2d_84">
      <g>
       <use xlink:href="#m53f527988f" x="161.28" y="138.572308" style="stroke: #000000; stroke-width: 0.6"/>
      </g>
     </g>
    </g>
    <g id="ytick_30">
     <g id="line2d_85">
      <g>
       <use xlink:href="#m53f527988f" x="161.28" y="133.587692" style="stroke: #000000; stroke-width: 0.6"/>
      </g>
     </g>
    </g>
    <g id="ytick_31">
     <g id="line2d_86">
      <g>
       <use xlink:href="#m53f527988f" x="161.28" y="123.618462" style="stroke: #000000; stroke-width: 0.6"/>
      </g>
     </g>
    </g>
    <g id="ytick_32">
     <g id="line2d_87">
      <g>
       <use xlink:href="#m53f527988f" x="161.28" y="118.633846" style="stroke: #000000; stroke-width: 0.6"/>
      </g>
     </g>
    </g>
    <g id="ytick_33">
     <g id="line2d_88">
      <g>
       <use xlink:href="#m53f527988f" x="161.28" y="113.649231" style="stroke: #000000; stroke-width: 0.6"/>
      </g>
     </g>
    </g>
    <g id="ytick_34">
     <g id="line2d_89">
      <g>
       <use xlink:href="#m53f527988f" x="161.28" y="108.664615" style="stroke: #000000; stroke-width: 0.6"/>
      </g>
     </g>
    </g>
    <g id="ytick_35">
     <g id="line2d_90">
      <g>
       <use xlink:href="#m53f527988f" x="161.28" y="98.695385" style="stroke: #000000; stroke-width: 0.6"/>
      </g>
     </g>
    </g>
    <g id="ytick_36">
     <g id="line2d_91">
      <g>
       <use xlink:href="#m53f527988f" x="161.28" y="93.710769" style="stroke: #000000; stroke-width: 0.6"/>
      </g>
     </g>
    </g>
    <g id="ytick_37">
     <g id="line2d_92">
      <g>
       <use xlink:href="#m53f527988f" x="161.28" y="88.726154" style="stroke: #000000; stroke-width: 0.6"/>
      </g>
     </g>
    </g>
    <g id="ytick_38">
     <g id="line2d_93">
      <g>
       <use xlink:href="#m53f527988f" x="161.28" y="83.741538" style="stroke: #000000; stroke-width: 0.6"/>
      </g>
     </g>
    </g>
    <g id="ytick_39">
     <g id="line2d_94">
      <g>
       <use xlink:href="#m53f527988f" x="161.28" y="73.772308" style="stroke: #000000; stroke-width: 0.6"/>
      </g>
     </g>
    </g>
    <g id="ytick_40">
     <g id="line2d_95">
      <g>
       <use xlink:href="#m53f527988f" x="161.28" y="68.787692" style="stroke: #000000; stroke-width: 0.6"/>
      </g>
     </g>
    </g>
    <g id="ytick_41">
     <g id="line2d_96">
      <g>
       <use xlink:href="#m53f527988f" x="161.28" y="63.803077" style="stroke: #000000; stroke-width: 0.6"/>
      </g>
     </g>
    </g>
    <g id="ytick_42">
     <g id="line2d_97">
      <g>
       <use xlink:href="#m53f527988f" x="161.28" y="58.818462" style="stroke: #000000; stroke-width: 0.6"/>
      </g>
     </g>
    </g>
   </g>
   <g id="patch_6">
    <path d="M 161.28 155.52 
L 161.28 51.84 
" style="fill: none; stroke: #000000; stroke-width: 0.8; stroke-linejoin: miter; stroke-linecap: square"/>
   </g>
   <g id="patch_7">
    <path d="M 109.44 103.68 
L 213.12 103.68 
" style="fill: none; stroke: #000000; stroke-width: 0.8; stroke-linejoin: miter; stroke-linecap: square"/>
   </g>
   <g id="patch_8">
    <path d="M 161.28 153.526154 
C 174.499355 153.526154 187.179058 148.274049 196.526553 138.926553 
C 205.874049 129.579058 211.126154 116.899355 211.126154 103.68 
C 211.126154 90.460645 205.874049 77.780942 196.526553 68.433447 
C 187.179058 59.085951 174.499355 53.833846 161.28 53.833846 
C 148.060645 53.833846 135.380942 59.085951 126.033447 68.433447 
C 116.685951 77.780942 111.433846 90.460645 111.433846 103.68 
C 111.433846 116.899355 116.685951 129.579058 126.033447 138.926553 
C 135.380942 148.274049 148.060645 153.526154 161.28 153.526154 
L 161.28 153.526154 
z
" clip-path="url(#pd67d28ece4)" style="fill: none; stroke: #ff0000; stroke-linejoin: miter"/>
   </g>
  </g>
 </g>
 <defs>
  <clipPath id="p1ffaed8f5c">
   <rect x="57.6" y="41.472" width="357.12" height="266.112"/>
  </clipPath>
  <clipPath id="pd67d28ece4">
   <rect x="109.44" y="51.84" width="103.68" height="103.68"/>
  </clipPath>
 </defs>
</svg>
