<?xml version="1.0" encoding="utf-8" standalone="no"?>
<!DOCTYPE svg PUBLIC "-//W3C//DTD SVG 1.1//EN"
  "http://www.w3.org/Graphics/SVG/1.1/DTD/svg11.dtd">
<svg xmlns:xlink="http://www.w3.org/1999/xlink" width="460.8pt" height="345.6pt" viewBox="0 0 460.8 345.6" xmlns="http://www.w3.org/2000/svg" version="1.1">
 <metadata>
  <rdf:RDF xmlns:dc="http://purl.org/dc/elements/1.1/" xmlns:cc="http://creativecommons.org/ns#" xmlns:rdf="http://www.w3.org/1999/02/22-rdf-syntax-ns#">
   <cc:Work>
    <dc:type rdf:resource="http://purl.org/dc/dcmitype/StillImage"/>
    <dc:date>2025-08-04T20:46:48.805362</dc:date>
    <dc:format>image/svg+xml</dc:format>
    <dc:creator>
     <cc:Agent>
      <dc:title>Matplotlib v3.10.3, https://matplotlib.org/</dc:title>
     </cc:Agent>
    </dc:creator>
   </cc:Work>
  </rdf:RDF>
 </metadata>
 <defs>
  <style type="text/css">*{stroke-linejoin: round; stroke-linecap: butt}</style>
 </defs>
 <g id="figure_1">
  <g id="patch_1">
   <path d="M 0 345.6 
L 460.8 345.6 
L 460.8 0 
L 0 0 
z
" style="fill: #ffffff"/>
  </g>
  <g id="axes_1">
   <g id="patch_2">
    <path d="M 57.6 307.584 
L 414.72 307.584 
L 414.72 41.472 
L 57.6 41.472 
z
" style="fill: #ffffff"/>
   </g>
   <g id="matplotlib.axis_1">
    <g id="xtick_1">
     <g id="line2d_1">
      <defs>
       <path id="m0f2c532d09" d="M 0 0 
L 0 3.5 
" style="stroke: #000000; stroke-width: 0.8"/>
      </defs>
      <g>
       <use xlink:href="#m0f2c532d09" x="72.205923" y="174.528127" style="stroke: #000000; stroke-width: 0.8"/>
      </g>
     </g>
     <g id="text_1">
      <!-- −3 -->
      <g transform="translate(64.834829 189.126564) scale(0.1 -0.1)">
       <defs>
        <path id="DejaVuSans-2212" d="M 678 2272 
L 4684 2272 
L 4684 1741 
L 678 1741 
L 678 2272 
z
" transform="scale(0.015625)"/>
        <path id="DejaVuSans-33" d="M 2597 2516 
Q 3050 2419 3304 2112 
Q 3559 1806 3559 1356 
Q 3559 666 3084 287 
Q 2609 -91 1734 -91 
Q 1441 -91 1130 -33 
Q 819 25 488 141 
L 488 750 
Q 750 597 1062 519 
Q 1375 441 1716 441 
Q 2309 441 2620 675 
Q 2931 909 2931 1356 
Q 2931 1769 2642 2001 
Q 2353 2234 1838 2234 
L 1294 2234 
L 1294 2753 
L 1863 2753 
Q 2328 2753 2575 2939 
Q 2822 3125 2822 3475 
Q 2822 3834 2567 4026 
Q 2313 4219 1838 4219 
Q 1578 4219 1281 4162 
Q 984 4106 628 3988 
L 628 4550 
Q 988 4650 1302 4700 
Q 1616 4750 1894 4750 
Q 2613 4750 3031 4423 
Q 3450 4097 3450 3541 
Q 3450 3153 3228 2886 
Q 3006 2619 2597 2516 
z
" transform="scale(0.015625)"/>
       </defs>
       <use xlink:href="#DejaVuSans-2212"/>
       <use xlink:href="#DejaVuSans-33" transform="translate(83.789062 0)"/>
      </g>
     </g>
    </g>
    <g id="xtick_2">
     <g id="line2d_2">
      <g>
       <use xlink:href="#m0f2c532d09" x="126.857282" y="174.528127" style="stroke: #000000; stroke-width: 0.8"/>
      </g>
     </g>
     <g id="text_2">
      <!-- −2 -->
      <g transform="translate(119.486188 189.126564) scale(0.1 -0.1)">
       <defs>
        <path id="DejaVuSans-32" d="M 1228 531 
L 3431 531 
L 3431 0 
L 469 0 
L 469 531 
Q 828 903 1448 1529 
Q 2069 2156 2228 2338 
Q 2531 2678 2651 2914 
Q 2772 3150 2772 3378 
Q 2772 3750 2511 3984 
Q 2250 4219 1831 4219 
Q 1534 4219 1204 4116 
Q 875 4013 500 3803 
L 500 4441 
Q 881 4594 1212 4672 
Q 1544 4750 1819 4750 
Q 2544 4750 2975 4387 
Q 3406 4025 3406 3419 
Q 3406 3131 3298 2873 
Q 3191 2616 2906 2266 
Q 2828 2175 2409 1742 
Q 1991 1309 1228 531 
z
" transform="scale(0.015625)"/>
       </defs>
       <use xlink:href="#DejaVuSans-2212"/>
       <use xlink:href="#DejaVuSans-32" transform="translate(83.789062 0)"/>
      </g>
     </g>
    </g>
    <g id="xtick_3">
     <g id="line2d_3">
      <g>
       <use xlink:href="#m0f2c532d09" x="181.508641" y="174.528127" style="stroke: #000000; stroke-width: 0.8"/>
      </g>
     </g>
     <g id="text_3">
      <!-- −1 -->
      <g transform="translate(174.137547 189.126564) scale(0.1 -0.1)">
       <defs>
        <path id="DejaVuSans-31" d="M 794 531 
L 1825 531 
L 1825 4091 
L 703 3866 
L 703 4441 
L 1819 4666 
L 2450 4666 
L 2450 531 
L 3481 531 
L 3481 0 
L 794 0 
L 794 531 
z
" transform="scale(0.015625)"/>
       </defs>
       <use xlink:href="#DejaVuSans-2212"/>
       <use xlink:href="#DejaVuSans-31" transform="translate(83.789062 0)"/>
      </g>
     </g>
    </g>
    <g id="xtick_4">
     <g id="line2d_4">
      <g>
       <use xlink:href="#m0f2c532d09" x="236.16" y="174.528127" style="stroke: #000000; stroke-width: 0.8"/>
      </g>
     </g>
    </g>
    <g id="xtick_5">
     <g id="line2d_5">
      <g>
       <use xlink:href="#m0f2c532d09" x="290.811359" y="174.528127" style="stroke: #000000; stroke-width: 0.8"/>
      </g>
     </g>
     <g id="text_4">
      <!-- 1 -->
      <g transform="translate(287.630109 189.126564) scale(0.1 -0.1)">
       <use xlink:href="#DejaVuSans-31"/>
      </g>
     </g>
    </g>
    <g id="xtick_6">
     <g id="line2d_6">
      <g>
       <use xlink:href="#m0f2c532d09" x="345.462718" y="174.528127" style="stroke: #000000; stroke-width: 0.8"/>
      </g>
     </g>
     <g id="text_5">
      <!-- 2 -->
      <g transform="translate(342.281468 189.126564) scale(0.1 -0.1)">
       <use xlink:href="#DejaVuSans-32"/>
      </g>
     </g>
    </g>
    <g id="xtick_7">
     <g id="line2d_7">
      <g>
       <use xlink:href="#m0f2c532d09" x="400.114077" y="174.528127" style="stroke: #000000; stroke-width: 0.8"/>
      </g>
     </g>
     <g id="text_6">
      <!-- 3 -->
      <g transform="translate(396.932827 189.126564) scale(0.1 -0.1)">
       <use xlink:href="#DejaVuSans-33"/>
      </g>
     </g>
    </g>
    <g id="xtick_8">
     <g id="line2d_8">
      <defs>
       <path id="m1bee7cc530" d="M 0 0 
L 0 2 
" style="stroke: #000000; stroke-width: 0.6"/>
      </defs>
      <g>
       <use xlink:href="#m1bee7cc530" x="61.275651" y="174.528127" style="stroke: #000000; stroke-width: 0.6"/>
      </g>
     </g>
    </g>
    <g id="xtick_9">
     <g id="line2d_9">
      <g>
       <use xlink:href="#m1bee7cc530" x="83.136195" y="174.528127" style="stroke: #000000; stroke-width: 0.6"/>
      </g>
     </g>
    </g>
    <g id="xtick_10">
     <g id="line2d_10">
      <g>
       <use xlink:href="#m1bee7cc530" x="94.066467" y="174.528127" style="stroke: #000000; stroke-width: 0.6"/>
      </g>
     </g>
    </g>
    <g id="xtick_11">
     <g id="line2d_11">
      <g>
       <use xlink:href="#m1bee7cc530" x="104.996739" y="174.528127" style="stroke: #000000; stroke-width: 0.6"/>
      </g>
     </g>
    </g>
    <g id="xtick_12">
     <g id="line2d_12">
      <g>
       <use xlink:href="#m1bee7cc530" x="115.92701" y="174.528127" style="stroke: #000000; stroke-width: 0.6"/>
      </g>
     </g>
    </g>
    <g id="xtick_13">
     <g id="line2d_13">
      <g>
       <use xlink:href="#m1bee7cc530" x="137.787554" y="174.528127" style="stroke: #000000; stroke-width: 0.6"/>
      </g>
     </g>
    </g>
    <g id="xtick_14">
     <g id="line2d_14">
      <g>
       <use xlink:href="#m1bee7cc530" x="148.717826" y="174.528127" style="stroke: #000000; stroke-width: 0.6"/>
      </g>
     </g>
    </g>
    <g id="xtick_15">
     <g id="line2d_15">
      <g>
       <use xlink:href="#m1bee7cc530" x="159.648098" y="174.528127" style="stroke: #000000; stroke-width: 0.6"/>
      </g>
     </g>
    </g>
    <g id="xtick_16">
     <g id="line2d_16">
      <g>
       <use xlink:href="#m1bee7cc530" x="170.578369" y="174.528127" style="stroke: #000000; stroke-width: 0.6"/>
      </g>
     </g>
    </g>
    <g id="xtick_17">
     <g id="line2d_17">
      <g>
       <use xlink:href="#m1bee7cc530" x="192.438913" y="174.528127" style="stroke: #000000; stroke-width: 0.6"/>
      </g>
     </g>
    </g>
    <g id="xtick_18">
     <g id="line2d_18">
      <g>
       <use xlink:href="#m1bee7cc530" x="203.369185" y="174.528127" style="stroke: #000000; stroke-width: 0.6"/>
      </g>
     </g>
    </g>
    <g id="xtick_19">
     <g id="line2d_19">
      <g>
       <use xlink:href="#m1bee7cc530" x="214.299456" y="174.528127" style="stroke: #000000; stroke-width: 0.6"/>
      </g>
     </g>
    </g>
    <g id="xtick_20">
     <g id="line2d_20">
      <g>
       <use xlink:href="#m1bee7cc530" x="225.229728" y="174.528127" style="stroke: #000000; stroke-width: 0.6"/>
      </g>
     </g>
    </g>
    <g id="xtick_21">
     <g id="line2d_21">
      <g>
       <use xlink:href="#m1bee7cc530" x="247.090272" y="174.528127" style="stroke: #000000; stroke-width: 0.6"/>
      </g>
     </g>
    </g>
    <g id="xtick_22">
     <g id="line2d_22">
      <g>
       <use xlink:href="#m1bee7cc530" x="258.020544" y="174.528127" style="stroke: #000000; stroke-width: 0.6"/>
      </g>
     </g>
    </g>
    <g id="xtick_23">
     <g id="line2d_23">
      <g>
       <use xlink:href="#m1bee7cc530" x="268.950815" y="174.528127" style="stroke: #000000; stroke-width: 0.6"/>
      </g>
     </g>
    </g>
    <g id="xtick_24">
     <g id="line2d_24">
      <g>
       <use xlink:href="#m1bee7cc530" x="279.881087" y="174.528127" style="stroke: #000000; stroke-width: 0.6"/>
      </g>
     </g>
    </g>
    <g id="xtick_25">
     <g id="line2d_25">
      <g>
       <use xlink:href="#m1bee7cc530" x="301.741631" y="174.528127" style="stroke: #000000; stroke-width: 0.6"/>
      </g>
     </g>
    </g>
    <g id="xtick_26">
     <g id="line2d_26">
      <g>
       <use xlink:href="#m1bee7cc530" x="312.671902" y="174.528127" style="stroke: #000000; stroke-width: 0.6"/>
      </g>
     </g>
    </g>
    <g id="xtick_27">
     <g id="line2d_27">
      <g>
       <use xlink:href="#m1bee7cc530" x="323.602174" y="174.528127" style="stroke: #000000; stroke-width: 0.6"/>
      </g>
     </g>
    </g>
    <g id="xtick_28">
     <g id="line2d_28">
      <g>
       <use xlink:href="#m1bee7cc530" x="334.532446" y="174.528127" style="stroke: #000000; stroke-width: 0.6"/>
      </g>
     </g>
    </g>
    <g id="xtick_29">
     <g id="line2d_29">
      <g>
       <use xlink:href="#m1bee7cc530" x="356.39299" y="174.528127" style="stroke: #000000; stroke-width: 0.6"/>
      </g>
     </g>
    </g>
    <g id="xtick_30">
     <g id="line2d_30">
      <g>
       <use xlink:href="#m1bee7cc530" x="367.323261" y="174.528127" style="stroke: #000000; stroke-width: 0.6"/>
      </g>
     </g>
    </g>
    <g id="xtick_31">
     <g id="line2d_31">
      <g>
       <use xlink:href="#m1bee7cc530" x="378.253533" y="174.528127" style="stroke: #000000; stroke-width: 0.6"/>
      </g>
     </g>
    </g>
    <g id="xtick_32">
     <g id="line2d_32">
      <g>
       <use xlink:href="#m1bee7cc530" x="389.183805" y="174.528127" style="stroke: #000000; stroke-width: 0.6"/>
      </g>
     </g>
    </g>
    <g id="xtick_33">
     <g id="line2d_33">
      <g>
       <use xlink:href="#m1bee7cc530" x="411.044349" y="174.528127" style="stroke: #000000; stroke-width: 0.6"/>
      </g>
     </g>
    </g>
   </g>
   <g id="matplotlib.axis_2">
    <g id="ytick_1">
     <g id="line2d_34">
      <defs>
       <path id="m18eed66f32" d="M 0 0 
L -3.5 0 
" style="stroke: #000000; stroke-width: 0.8"/>
      </defs>
      <g>
       <use xlink:href="#m18eed66f32" x="236.16" y="302.466718" style="stroke: #000000; stroke-width: 0.8"/>
      </g>
     </g>
     <g id="text_7">
      <!-- −1.0 -->
      <g transform="translate(204.877187 306.265937) scale(0.1 -0.1)">
       <defs>
        <path id="DejaVuSans-2e" d="M 684 794 
L 1344 794 
L 1344 0 
L 684 0 
L 684 794 
z
" transform="scale(0.015625)"/>
        <path id="DejaVuSans-30" d="M 2034 4250 
Q 1547 4250 1301 3770 
Q 1056 3291 1056 2328 
Q 1056 1369 1301 889 
Q 1547 409 2034 409 
Q 2525 409 2770 889 
Q 3016 1369 3016 2328 
Q 3016 3291 2770 3770 
Q 2525 4250 2034 4250 
z
M 2034 4750 
Q 2819 4750 3233 4129 
Q 3647 3509 3647 2328 
Q 3647 1150 3233 529 
Q 2819 -91 2034 -91 
Q 1250 -91 836 529 
Q 422 1150 422 2328 
Q 422 3509 836 4129 
Q 1250 4750 2034 4750 
z
" transform="scale(0.015625)"/>
       </defs>
       <use xlink:href="#DejaVuSans-2212"/>
       <use xlink:href="#DejaVuSans-31" transform="translate(83.789062 0)"/>
       <use xlink:href="#DejaVuSans-2e" transform="translate(147.412109 0)"/>
       <use xlink:href="#DejaVuSans-30" transform="translate(179.199219 0)"/>
      </g>
     </g>
    </g>
    <g id="ytick_2">
     <g id="line2d_35">
      <g>
       <use xlink:href="#m18eed66f32" x="236.16" y="238.497423" style="stroke: #000000; stroke-width: 0.8"/>
      </g>
     </g>
     <g id="text_8">
      <!-- −0.5 -->
      <g transform="translate(204.877187 242.296641) scale(0.1 -0.1)">
       <defs>
        <path id="DejaVuSans-35" d="M 691 4666 
L 3169 4666 
L 3169 4134 
L 1269 4134 
L 1269 2991 
Q 1406 3038 1543 3061 
Q 1681 3084 1819 3084 
Q 2600 3084 3056 2656 
Q 3513 2228 3513 1497 
Q 3513 744 3044 326 
Q 2575 -91 1722 -91 
Q 1428 -91 1123 -41 
Q 819 9 494 109 
L 494 744 
Q 775 591 1075 516 
Q 1375 441 1709 441 
Q 2250 441 2565 725 
Q 2881 1009 2881 1497 
Q 2881 1984 2565 2268 
Q 2250 2553 1709 2553 
Q 1456 2553 1204 2497 
Q 953 2441 691 2322 
L 691 4666 
z
" transform="scale(0.015625)"/>
       </defs>
       <use xlink:href="#DejaVuSans-2212"/>
       <use xlink:href="#DejaVuSans-30" transform="translate(83.789062 0)"/>
       <use xlink:href="#DejaVuSans-2e" transform="translate(147.412109 0)"/>
       <use xlink:href="#DejaVuSans-35" transform="translate(179.199219 0)"/>
      </g>
     </g>
    </g>
    <g id="ytick_3">
     <g id="line2d_36">
      <g>
       <use xlink:href="#m18eed66f32" x="236.16" y="174.528127" style="stroke: #000000; stroke-width: 0.8"/>
      </g>
     </g>
    </g>
    <g id="ytick_4">
     <g id="line2d_37">
      <g>
       <use xlink:href="#m18eed66f32" x="236.16" y="110.558831" style="stroke: #000000; stroke-width: 0.8"/>
      </g>
     </g>
     <g id="text_9">
      <!-- 0.5 -->
      <g transform="translate(213.256875 114.35805) scale(0.1 -0.1)">
       <use xlink:href="#DejaVuSans-30"/>
       <use xlink:href="#DejaVuSans-2e" transform="translate(63.623047 0)"/>
       <use xlink:href="#DejaVuSans-35" transform="translate(95.410156 0)"/>
      </g>
     </g>
    </g>
    <g id="ytick_5">
     <g id="line2d_38">
      <g>
       <use xlink:href="#m18eed66f32" x="236.16" y="46.589536" style="stroke: #000000; stroke-width: 0.8"/>
      </g>
     </g>
     <g id="text_10">
      <!-- 1.0 -->
      <g transform="translate(213.256875 50.388754) scale(0.1 -0.1)">
       <use xlink:href="#DejaVuSans-31"/>
       <use xlink:href="#DejaVuSans-2e" transform="translate(63.623047 0)"/>
       <use xlink:href="#DejaVuSans-30" transform="translate(95.410156 0)"/>
      </g>
     </g>
    </g>
    <g id="ytick_6">
     <g id="line2d_39">
      <defs>
       <path id="meccc0928af" d="M 0 0 
L -2 0 
" style="stroke: #000000; stroke-width: 0.6"/>
      </defs>
      <g>
       <use xlink:href="#meccc0928af" x="236.16" y="289.672859" style="stroke: #000000; stroke-width: 0.6"/>
      </g>
     </g>
    </g>
    <g id="ytick_7">
     <g id="line2d_40">
      <g>
       <use xlink:href="#meccc0928af" x="236.16" y="276.879" style="stroke: #000000; stroke-width: 0.6"/>
      </g>
     </g>
    </g>
    <g id="ytick_8">
     <g id="line2d_41">
      <g>
       <use xlink:href="#meccc0928af" x="236.16" y="264.085141" style="stroke: #000000; stroke-width: 0.6"/>
      </g>
     </g>
    </g>
    <g id="ytick_9">
     <g id="line2d_42">
      <g>
       <use xlink:href="#meccc0928af" x="236.16" y="251.291282" style="stroke: #000000; stroke-width: 0.6"/>
      </g>
     </g>
    </g>
    <g id="ytick_10">
     <g id="line2d_43">
      <g>
       <use xlink:href="#meccc0928af" x="236.16" y="225.703563" style="stroke: #000000; stroke-width: 0.6"/>
      </g>
     </g>
    </g>
    <g id="ytick_11">
     <g id="line2d_44">
      <g>
       <use xlink:href="#meccc0928af" x="236.16" y="212.909704" style="stroke: #000000; stroke-width: 0.6"/>
      </g>
     </g>
    </g>
    <g id="ytick_12">
     <g id="line2d_45">
      <g>
       <use xlink:href="#meccc0928af" x="236.16" y="200.115845" style="stroke: #000000; stroke-width: 0.6"/>
      </g>
     </g>
    </g>
    <g id="ytick_13">
     <g id="line2d_46">
      <g>
       <use xlink:href="#meccc0928af" x="236.16" y="187.321986" style="stroke: #000000; stroke-width: 0.6"/>
      </g>
     </g>
    </g>
    <g id="ytick_14">
     <g id="line2d_47">
      <g>
       <use xlink:href="#meccc0928af" x="236.16" y="161.734268" style="stroke: #000000; stroke-width: 0.6"/>
      </g>
     </g>
    </g>
    <g id="ytick_15">
     <g id="line2d_48">
      <g>
       <use xlink:href="#meccc0928af" x="236.16" y="148.940409" style="stroke: #000000; stroke-width: 0.6"/>
      </g>
     </g>
    </g>
    <g id="ytick_16">
     <g id="line2d_49">
      <g>
       <use xlink:href="#meccc0928af" x="236.16" y="136.14655" style="stroke: #000000; stroke-width: 0.6"/>
      </g>
     </g>
    </g>
    <g id="ytick_17">
     <g id="line2d_50">
      <g>
       <use xlink:href="#meccc0928af" x="236.16" y="123.35269" style="stroke: #000000; stroke-width: 0.6"/>
      </g>
     </g>
    </g>
    <g id="ytick_18">
     <g id="line2d_51">
      <g>
       <use xlink:href="#meccc0928af" x="236.16" y="97.764972" style="stroke: #000000; stroke-width: 0.6"/>
      </g>
     </g>
    </g>
    <g id="ytick_19">
     <g id="line2d_52">
      <g>
       <use xlink:href="#meccc0928af" x="236.16" y="84.971113" style="stroke: #000000; stroke-width: 0.6"/>
      </g>
     </g>
    </g>
    <g id="ytick_20">
     <g id="line2d_53">
      <g>
       <use xlink:href="#meccc0928af" x="236.16" y="72.177254" style="stroke: #000000; stroke-width: 0.6"/>
      </g>
     </g>
    </g>
    <g id="ytick_21">
     <g id="line2d_54">
      <g>
       <use xlink:href="#meccc0928af" x="236.16" y="59.383395" style="stroke: #000000; stroke-width: 0.6"/>
      </g>
     </g>
    </g>
   </g>
   <g id="line2d_55">
    <path d="M 64.467692 123.571698 
L 65.284237 78.415937 
L 65.878088 56.853284 
L 66.249245 49.292562 
L 66.546171 46.740929 
L 66.620402 46.595214 
L 66.694633 46.646248 
L 66.843096 47.335889 
L 67.12896 50.838149 
L 67.510112 59.782336 
L 68.005291 78.025131 
L 68.645117 110.588291 
L 69.818909 184.47158 
L 71.032924 256.031741 
L 71.686624 283.341949 
L 72.227373 297.274665 
L 72.58135 301.673532 
L 72.793737 302.463495 
L 72.864532 302.41795 
L 73.006123 301.866015 
L 73.222177 299.852455 
L 73.582268 293.443541 
L 74.014377 281.038622 
L 74.590522 257.555603 
L 75.443259 212.245552 
L 77.671166 87.903192 
L 78.343163 63.379333 
L 78.863456 51.597244 
L 79.253676 47.2769 
L 79.448786 46.604968 
L 79.578859 46.708504 
L 79.773969 47.684687 
L 80.005946 50.107558 
L 80.339826 55.924161 
L 80.840645 69.453442 
L 81.483336 94.091749 
L 82.409766 139.79087 
L 84.715819 258.113703 
L 85.405659 282.283577 
L 85.942526 294.888285 
L 86.402697 300.919939 
L 86.709478 302.411189 
L 86.862869 302.3952 
L 87.016259 301.875036 
L 87.246345 300.161244 
L 87.539913 296.386328 
L 87.973659 287.705946 
L 88.604882 269.112509 
L 89.350714 239.765468 
L 90.510896 184.641855 
L 92.198906 105.338283 
L 93.026916 75.516896 
L 93.716924 58.091042 
L 94.271215 49.7116 
L 94.62193 47.129697 
L 94.832359 46.603101 
L 94.972645 46.676551 
L 95.183074 47.417974 
L 95.48408 49.773821 
L 95.868851 54.932896 
L 96.330577 64.116487 
L 96.946211 80.90493 
L 97.845095 112.874506 
L 99.267847 173.542787 
L 100.955508 243.180623 
L 101.829371 271.327262 
L 102.528475 287.888127 
L 103.130483 297.293186 
L 103.581989 301.232767 
L 103.882993 302.353987 
L 104.033495 302.46413 
L 104.183997 302.276106 
L 104.476583 301.06719 
L 104.902832 297.361363 
L 105.329081 291.452424 
L 105.897414 280.408744 
L 106.607829 262.152327 
L 107.6429 228.757702 
L 109.77598 149.222559 
L 111.226278 100.191759 
L 112.189839 74.76681 
L 113.001096 59.263152 
L 113.578129 51.886385 
L 114.039756 48.259542 
L 114.322814 47.044372 
L 114.490465 46.685188 
L 114.658116 46.592563 
L 114.825768 46.764494 
L 115.16107 47.891352 
L 115.496372 50.039308 
L 115.999326 55.098932 
L 116.66993 65.040812 
L 117.418126 79.950114 
L 118.24468 100.269689 
L 119.511458 136.841893 
L 122.972602 240.429947 
L 124.052208 265.671903 
L 124.986056 282.65448 
L 125.692524 292.141805 
L 126.398992 298.581651 
L 126.928843 301.381917 
L 127.241698 302.221634 
L 127.514174 302.46627 
L 127.78665 302.263892 
L 128.059126 301.621892 
L 128.494525 299.705965 
L 128.943268 296.626199 
L 129.541591 290.87167 
L 130.289494 281.249391 
L 131.151813 267.228827 
L 132.313549 244.381535 
L 133.875538 208.976416 
L 137.489804 124.934175 
L 139.029065 95.158414 
L 140.151728 77.43402 
L 141.036932 66.170469 
L 141.917827 57.471807 
L 142.620965 52.361033 
L 143.345336 48.794543 
L 143.828251 47.360923 
L 144.234459 46.727836 
L 144.563962 46.590825 
L 144.728713 46.646521 
L 145.058216 47.0017 
L 145.387719 47.675246 
L 146.023911 49.844041 
L 146.660103 53.098979 
L 147.296295 57.365004 
L 148.365563 66.58835 
L 149.231714 75.708003 
L 150.551448 91.9026 
L 152.04083 112.635386 
L 155.316209 162.345661 
L 157.964828 201.507707 
L 159.845893 226.55839 
L 161.699734 248.078188 
L 163.29678 263.749947 
L 164.590516 274.406377 
L 165.942798 283.58954 
L 167.113219 289.960606 
L 168.232503 294.738714 
L 169.17001 297.799574 
L 170.107517 300.049643 
L 170.954751 301.426233 
L 171.630083 302.103259 
L 172.305416 302.429102 
L 172.980748 302.424059 
L 173.656081 302.10859 
L 174.331434 301.503135 
L 175.400385 300.001635 
L 176.581179 297.652823 
L 177.579336 295.175909 
L 178.932175 291.211778 
L 180.285014 286.675002 
L 182.154148 279.698654 
L 184.884875 268.581551 
L 191.77214 239.842737 
L 194.748209 228.452064 
L 197.554207 218.697861 
L 200.330516 210.104171 
L 202.823579 203.31673 
L 205.317622 197.39998 
L 207.897285 192.166351 
L 209.915112 188.667975 
L 212.193848 185.304651 
L 214.284538 182.727349 
L 216.58694 180.403319 
L 217.957012 179.254499 
L 219.598367 178.088144 
L 220.953569 177.283922 
L 222.95392 176.333247 
L 225.725272 175.418636 
L 228.887411 174.829612 
L 231.859917 174.590447 
L 243.333133 174.238843 
L 247.242591 173.461242 
L 250.115205 172.398089 
L 251.90082 171.471521 
L 254.366324 169.799157 
L 256.82647 167.613227 
L 258.113005 166.241525 
L 260.50479 163.234041 
L 261.843692 161.272785 
L 264.341029 157.041435 
L 266.007304 153.779393 
L 268.4963 148.21579 
L 270.394854 143.395078 
L 272.603716 137.144331 
L 274.599868 130.90223 
L 276.671921 123.844164 
L 279.29886 114.11196 
L 281.547264 105.187594 
L 291.174665 65.505539 
L 292.606214 60.404218 
L 294.252453 55.236366 
L 295.70675 51.476399 
L 296.963464 48.980763 
L 298.087312 47.447279 
L 298.582804 47.005464 
L 299.078296 46.718418 
L 299.914942 46.607579 
L 300.597252 46.88795 
L 301.292401 47.539483 
L 302.000391 48.605076 
L 302.746414 50.191461 
L 303.530471 52.398521 
L 304.364903 55.385378 
L 305.249713 59.304122 
L 306.493882 66.181194 
L 307.667605 74.186219 
L 308.783482 83.192876 
L 310.271319 97.320058 
L 311.709197 113.205313 
L 313.393989 134.384089 
L 315.202797 159.697098 
L 318.404778 208.231966 
L 321.090918 247.981972 
L 322.844663 270.550913 
L 324.168005 284.500953 
L 325.148353 292.602978 
L 326.082471 298.236804 
L 326.705216 300.736032 
L 327.220196 301.986927 
L 327.627412 302.428961 
L 327.83102 302.46351 
L 328.034628 302.371426 
L 328.441844 301.801077 
L 328.821096 300.798698 
L 329.348029 298.637452 
L 329.862224 295.654373 
L 330.633518 289.546387 
L 331.404811 281.48471 
L 332.259167 270.326652 
L 333.393359 252.101458 
L 334.792538 224.915322 
L 336.446299 187.826598 
L 340.375177 97.008438 
L 341.500765 76.08196 
L 342.535022 61.033159 
L 343.182281 54.099359 
L 343.84289 49.253053 
L 344.283297 47.365132 
L 344.5035 46.841397 
L 344.732629 46.600718 
L 344.961758 46.674862 
L 345.190887 47.067647 
L 345.569385 48.422186 
L 346.017495 51.17196 
L 346.614974 56.773746 
L 347.212453 64.557816 
L 348.003859 78.095442 
L 348.973494 99.269763 
L 350.240825 133.17943 
L 352.442192 200.906752 
L 354.137814 250.441666 
L 355.083456 273.05997 
L 355.917625 288.398063 
L 356.546083 296.490756 
L 357.105971 300.892756 
L 357.385915 302.041165 
L 357.665859 302.464566 
L 357.805831 302.400302 
L 358.085775 301.713928 
L 358.365719 300.279012 
L 358.745663 297.131646 
L 359.222498 291.242268 
L 359.806143 281.175633 
L 360.506517 265.198206 
L 361.461515 237.45077 
L 362.760288 191.812132 
L 365.408664 95.980357 
L 366.333073 70.691855 
L 367.065171 56.422114 
L 367.608855 49.748155 
L 368.034131 47.075412 
L 368.187564 46.682294 
L 368.340997 46.59746 
L 368.49443 46.823274 
L 368.801297 48.212535 
L 369.108163 50.853744 
L 369.568463 57.139786 
L 370.182195 69.710055 
L 370.853309 88.496909 
L 371.716108 119.113385 
L 373.029172 174.501032 
L 374.912742 252.691799 
L 375.819073 280.78416 
L 376.478222 294.562745 
L 376.972584 300.53882 
L 377.219765 302.020053 
L 377.472929 302.461348 
L 377.59951 302.268581 
L 377.845935 301.097693 
L 378.205464 297.505088 
L 378.684835 289.293974 
L 379.284049 273.814409 
L 380.002982 248.483962 
L 380.901492 208.964942 
L 383.667786 81.591779 
L 384.322431 61.931169 
L 384.883555 51.139935 
L 385.257637 47.435379 
L 385.538199 46.589538 
L 385.63172 46.682711 
L 385.818761 47.43556 
L 386.108253 50.090057 
L 386.518052 56.902806 
L 387.030302 70.241214 
L 387.645002 92.621951 
L 388.54077 134.923884 
L 391.218792 270.505209 
L 391.885328 290.997461 
L 392.329686 299.154396 
L 392.625925 301.88974 
L 392.848104 302.465053 
L 392.996223 302.135241 
L 393.20526 300.694741 
L 393.475216 297.153601 
L 393.894405 287.986748 
L 394.391776 271.674655 
L 395.031253 243.22497 
L 395.883888 196.068338 
L 397.70145 92.816814 
L 398.413589 64.46426 
L 398.931508 51.699083 
L 399.255208 47.59791 
L 399.514167 46.589623 
L 399.619984 46.769829 
L 399.778708 47.687671 
L 400.043249 50.938554 
L 400.360698 57.629994 
L 400.84532 73.405884 
L 401.491483 103.549542 
L 402.460727 161.969439 
L 404.054712 258.856882 
L 404.720329 286.501636 
L 405.182743 298.074481 
L 405.513039 301.960066 
L 405.711216 302.451232 
L 405.843334 302.000266 
L 406.041512 300.154434 
L 406.371808 293.995481 
L 406.768162 281.720094 
L 407.343265 255.433812 
L 407.852308 225.484555 
L 407.852308 225.484555 
" clip-path="url(#p3e9326d611)" style="fill: none; stroke: #0000ff; stroke-linecap: square"/>
   </g>
   <g id="patch_3">
    <path d="M 236.16 307.584 
L 236.16 41.472 
" style="fill: none; stroke: #000000; stroke-width: 0.8; stroke-linejoin: miter; stroke-linecap: square"/>
   </g>
   <g id="patch_4">
    <path d="M 57.6 174.528127 
L 414.72 174.528127 
" style="fill: none; stroke: #000000; stroke-width: 0.8; stroke-linejoin: miter; stroke-linecap: square"/>
   </g>
  </g>
  <g id="axes_2">
   <g id="patch_5">
    <path d="M 109.44 155.52 
L 213.12 155.52 
L 213.12 51.84 
L 109.44 51.84 
z
" style="fill: #ffffff"/>
   </g>
   <g id="matplotlib.axis_3">
    <g id="xtick_34">
     <g id="line2d_56">
      <g>
       <use xlink:href="#m0f2c532d09" x="111.433846" y="103.68" style="stroke: #000000; stroke-width: 0.8"/>
      </g>
     </g>
     <g id="text_11">
      <!-- −1.0 -->
      <g transform="translate(99.29244 118.278437) scale(0.1 -0.1)">
       <use xlink:href="#DejaVuSans-2212"/>
       <use xlink:href="#DejaVuSans-31" transform="translate(83.789062 0)"/>
       <use xlink:href="#DejaVuSans-2e" transform="translate(147.412109 0)"/>
       <use xlink:href="#DejaVuSans-30" transform="translate(179.199219 0)"/>
      </g>
     </g>
    </g>
    <g id="xtick_35">
     <g id="line2d_57">
      <g>
       <use xlink:href="#m0f2c532d09" x="136.356923" y="103.68" style="stroke: #000000; stroke-width: 0.8"/>
      </g>
     </g>
     <g id="text_12">
      <!-- −0.5 -->
      <g transform="translate(124.215517 118.278437) scale(0.1 -0.1)">
       <use xlink:href="#DejaVuSans-2212"/>
       <use xlink:href="#DejaVuSans-30" transform="translate(83.789062 0)"/>
       <use xlink:href="#DejaVuSans-2e" transform="translate(147.412109 0)"/>
       <use xlink:href="#DejaVuSans-35" transform="translate(179.199219 0)"/>
      </g>
     </g>
    </g>
    <g id="xtick_36">
     <g id="line2d_58">
      <g>
       <use xlink:href="#m0f2c532d09" x="161.28" y="103.68" style="stroke: #000000; stroke-width: 0.8"/>
      </g>
     </g>
    </g>
    <g id="xtick_37">
     <g id="line2d_59">
      <g>
       <use xlink:href="#m0f2c532d09" x="186.203077" y="103.68" style="stroke: #000000; stroke-width: 0.8"/>
      </g>
     </g>
     <g id="text_13">
      <!-- 0.5 -->
      <g transform="translate(178.251514 118.278437) scale(0.1 -0.1)">
       <use xlink:href="#DejaVuSans-30"/>
       <use xlink:href="#DejaVuSans-2e" transform="translate(63.623047 0)"/>
       <use xlink:href="#DejaVuSans-35" transform="translate(95.410156 0)"/>
      </g>
     </g>
    </g>
    <g id="xtick_38">
     <g id="line2d_60">
      <g>
       <use xlink:href="#m0f2c532d09" x="211.126154" y="103.68" style="stroke: #000000; stroke-width: 0.8"/>
      </g>
     </g>
     <g id="text_14">
      <!-- 1.0 -->
      <g transform="translate(203.174591 118.278437) scale(0.1 -0.1)">
       <use xlink:href="#DejaVuSans-31"/>
       <use xlink:href="#DejaVuSans-2e" transform="translate(63.623047 0)"/>
       <use xlink:href="#DejaVuSans-30" transform="translate(95.410156 0)"/>
      </g>
     </g>
    </g>
    <g id="xtick_39">
     <g id="line2d_61">
      <g>
       <use xlink:href="#m1bee7cc530" x="116.418462" y="103.68" style="stroke: #000000; stroke-width: 0.6"/>
      </g>
     </g>
    </g>
    <g id="xtick_40">
     <g id="line2d_62">
      <g>
       <use xlink:href="#m1bee7cc530" x="121.403077" y="103.68" style="stroke: #000000; stroke-width: 0.6"/>
      </g>
     </g>
    </g>
    <g id="xtick_41">
     <g id="line2d_63">
      <g>
       <use xlink:href="#m1bee7cc530" x="126.387692" y="103.68" style="stroke: #000000; stroke-width: 0.6"/>
      </g>
     </g>
    </g>
    <g id="xtick_42">
     <g id="line2d_64">
      <g>
       <use xlink:href="#m1bee7cc530" x="131.372308" y="103.68" style="stroke: #000000; stroke-width: 0.6"/>
      </g>
     </g>
    </g>
    <g id="xtick_43">
     <g id="line2d_65">
      <g>
       <use xlink:href="#m1bee7cc530" x="141.341538" y="103.68" style="stroke: #000000; stroke-width: 0.6"/>
      </g>
     </g>
    </g>
    <g id="xtick_44">
     <g id="line2d_66">
      <g>
       <use xlink:href="#m1bee7cc530" x="146.326154" y="103.68" style="stroke: #000000; stroke-width: 0.6"/>
      </g>
     </g>
    </g>
    <g id="xtick_45">
     <g id="line2d_67">
      <g>
       <use xlink:href="#m1bee7cc530" x="151.310769" y="103.68" style="stroke: #000000; stroke-width: 0.6"/>
      </g>
     </g>
    </g>
    <g id="xtick_46">
     <g id="line2d_68">
      <g>
       <use xlink:href="#m1bee7cc530" x="156.295385" y="103.68" style="stroke: #000000; stroke-width: 0.6"/>
      </g>
     </g>
    </g>
    <g id="xtick_47">
     <g id="line2d_69">
      <g>
       <use xlink:href="#m1bee7cc530" x="166.264615" y="103.68" style="stroke: #000000; stroke-width: 0.6"/>
      </g>
     </g>
    </g>
    <g id="xtick_48">
     <g id="line2d_70">
      <g>
       <use xlink:href="#m1bee7cc530" x="171.249231" y="103.68" style="stroke: #000000; stroke-width: 0.6"/>
      </g>
     </g>
    </g>
    <g id="xtick_49">
     <g id="line2d_71">
      <g>
       <use xlink:href="#m1bee7cc530" x="176.233846" y="103.68" style="stroke: #000000; stroke-width: 0.6"/>
      </g>
     </g>
    </g>
    <g id="xtick_50">
     <g id="line2d_72">
      <g>
       <use xlink:href="#m1bee7cc530" x="181.218462" y="103.68" style="stroke: #000000; stroke-width: 0.6"/>
      </g>
     </g>
    </g>
    <g id="xtick_51">
     <g id="line2d_73">
      <g>
       <use xlink:href="#m1bee7cc530" x="191.187692" y="103.68" style="stroke: #000000; stroke-width: 0.6"/>
      </g>
     </g>
    </g>
    <g id="xtick_52">
     <g id="line2d_74">
      <g>
       <use xlink:href="#m1bee7cc530" x="196.172308" y="103.68" style="stroke: #000000; stroke-width: 0.6"/>
      </g>
     </g>
    </g>
    <g id="xtick_53">
     <g id="line2d_75">
      <g>
       <use xlink:href="#m1bee7cc530" x="201.156923" y="103.68" style="stroke: #000000; stroke-width: 0.6"/>
      </g>
     </g>
    </g>
    <g id="xtick_54">
     <g id="line2d_76">
      <g>
       <use xlink:href="#m1bee7cc530" x="206.141538" y="103.68" style="stroke: #000000; stroke-width: 0.6"/>
      </g>
     </g>
    </g>
   </g>
   <g id="matplotlib.axis_4">
    <g id="ytick_22">
     <g id="line2d_77">
      <g>
       <use xlink:href="#m18eed66f32" x="161.28" y="153.526154" style="stroke: #000000; stroke-width: 0.8"/>
      </g>
     </g>
     <g id="text_15">
      <!-- −1.0 -->
      <g transform="translate(129.997187 157.325373) scale(0.1 -0.1)">
       <use xlink:href="#DejaVuSans-2212"/>
       <use xlink:href="#DejaVuSans-31" transform="translate(83.789062 0)"/>
       <use xlink:href="#DejaVuSans-2e" transform="translate(147.412109 0)"/>
       <use xlink:href="#DejaVuSans-30" transform="translate(179.199219 0)"/>
      </g>
     </g>
    </g>
    <g id="ytick_23">
     <g id="line2d_78">
      <g>
       <use xlink:href="#m18eed66f32" x="161.28" y="128.603077" style="stroke: #000000; stroke-width: 0.8"/>
      </g>
     </g>
     <g id="text_16">
      <!-- −0.5 -->
      <g transform="translate(129.997187 132.402296) scale(0.1 -0.1)">
       <use xlink:href="#DejaVuSans-2212"/>
       <use xlink:href="#DejaVuSans-30" transform="translate(83.789062 0)"/>
       <use xlink:href="#DejaVuSans-2e" transform="translate(147.412109 0)"/>
       <use xlink:href="#DejaVuSans-35" transform="translate(179.199219 0)"/>
      </g>
     </g>
    </g>
    <g id="ytick_24">
     <g id="line2d_79">
      <g>
       <use xlink:href="#m18eed66f32" x="161.28" y="103.68" style="stroke: #000000; stroke-width: 0.8"/>
      </g>
     </g>
    </g>
    <g id="ytick_25">
     <g id="line2d_80">
      <g>
       <use xlink:href="#m18eed66f32" x="161.28" y="78.756923" style="stroke: #000000; stroke-width: 0.8"/>
      </g>
     </g>
     <g id="text_17">
      <!-- 0.5 -->
      <g transform="translate(138.376875 82.556142) scale(0.1 -0.1)">
       <use xlink:href="#DejaVuSans-30"/>
       <use xlink:href="#DejaVuSans-2e" transform="translate(63.623047 0)"/>
       <use xlink:href="#DejaVuSans-35" transform="translate(95.410156 0)"/>
      </g>
     </g>
    </g>
    <g id="ytick_26">
     <g id="line2d_81">
      <g>
       <use xlink:href="#m18eed66f32" x="161.28" y="53.833846" style="stroke: #000000; stroke-width: 0.8"/>
      </g>
     </g>
     <g id="text_18">
      <!-- 1.0 -->
      <g transform="translate(138.376875 57.633065) scale(0.1 -0.1)">
       <use xlink:href="#DejaVuSans-31"/>
       <use xlink:href="#DejaVuSans-2e" transform="translate(63.623047 0)"/>
       <use xlink:href="#DejaVuSans-30" transform="translate(95.410156 0)"/>
      </g>
     </g>
    </g>
    <g id="ytick_27">
     <g id="line2d_82">
      <g>
       <use xlink:href="#meccc0928af" x="161.28" y="148.541538" style="stroke: #000000; stroke-width: 0.6"/>
      </g>
     </g>
    </g>
    <g id="ytick_28">
     <g id="line2d_83">
      <g>
       <use xlink:href="#meccc0928af" x="161.28" y="143.556923" style="stroke: #000000; stroke-width: 0.6"/>
      </g>
     </g>
    </g>
    <g id="ytick_29">
     <g id="line2d_84">
      <g>
       <use xlink:href="#meccc0928af" x="161.28" y="138.572308" style="stroke: #000000; stroke-width: 0.6"/>
      </g>
     </g>
    </g>
    <g id="ytick_30">
     <g id="line2d_85">
      <g>
       <use xlink:href="#meccc0928af" x="161.28" y="133.587692" style="stroke: #000000; stroke-width: 0.6"/>
      </g>
     </g>
    </g>
    <g id="ytick_31">
     <g id="line2d_86">
      <g>
       <use xlink:href="#meccc0928af" x="161.28" y="123.618462" style="stroke: #000000; stroke-width: 0.6"/>
      </g>
     </g>
    </g>
    <g id="ytick_32">
     <g id="line2d_87">
      <g>
       <use xlink:href="#meccc0928af" x="161.28" y="118.633846" style="stroke: #000000; stroke-width: 0.6"/>
      </g>
     </g>
    </g>
    <g id="ytick_33">
     <g id="line2d_88">
      <g>
       <use xlink:href="#meccc0928af" x="161.28" y="113.649231" style="stroke: #000000; stroke-width: 0.6"/>
      </g>
     </g>
    </g>
    <g id="ytick_34">
     <g id="line2d_89">
      <g>
       <use xlink:href="#meccc0928af" x="161.28" y="108.664615" style="stroke: #000000; stroke-width: 0.6"/>
      </g>
     </g>
    </g>
    <g id="ytick_35">
     <g id="line2d_90">
      <g>
       <use xlink:href="#meccc0928af" x="161.28" y="98.695385" style="stroke: #000000; stroke-width: 0.6"/>
      </g>
     </g>
    </g>
    <g id="ytick_36">
     <g id="line2d_91">
      <g>
       <use xlink:href="#meccc0928af" x="161.28" y="93.710769" style="stroke: #000000; stroke-width: 0.6"/>
      </g>
     </g>
    </g>
    <g id="ytick_37">
     <g id="line2d_92">
      <g>
       <use xlink:href="#meccc0928af" x="161.28" y="88.726154" style="stroke: #000000; stroke-width: 0.6"/>
      </g>
     </g>
    </g>
    <g id="ytick_38">
     <g id="line2d_93">
      <g>
       <use xlink:href="#meccc0928af" x="161.28" y="83.741538" style="stroke: #000000; stroke-width: 0.6"/>
      </g>
     </g>
    </g>
    <g id="ytick_39">
     <g id="line2d_94">
      <g>
       <use xlink:href="#meccc0928af" x="161.28" y="73.772308" style="stroke: #000000; stroke-width: 0.6"/>
      </g>
     </g>
    </g>
    <g id="ytick_40">
     <g id="line2d_95">
      <g>
       <use xlink:href="#meccc0928af" x="161.28" y="68.787692" style="stroke: #000000; stroke-width: 0.6"/>
      </g>
     </g>
    </g>
    <g id="ytick_41">
     <g id="line2d_96">
      <g>
       <use xlink:href="#meccc0928af" x="161.28" y="63.803077" style="stroke: #000000; stroke-width: 0.6"/>
      </g>
     </g>
    </g>
    <g id="ytick_42">
     <g id="line2d_97">
      <g>
       <use xlink:href="#meccc0928af" x="161.28" y="58.818462" style="stroke: #000000; stroke-width: 0.6"/>
      </g>
     </g>
    </g>
   </g>
   <g id="patch_6">
    <path d="M 161.28 155.52 
L 161.28 51.84 
" style="fill: none; stroke: #000000; stroke-width: 0.8; stroke-linejoin: miter; stroke-linecap: square"/>
   </g>
   <g id="patch_7">
    <path d="M 109.44 103.68 
L 213.12 103.68 
" style="fill: none; stroke: #000000; stroke-width: 0.8; stroke-linejoin: miter; stroke-linecap: square"/>
   </g>
   <g id="patch_8">
    <path d="M 161.28 153.526154 
C 174.499355 153.526154 187.179058 148.274049 196.526553 138.926553 
C 205.874049 129.579058 211.126154 116.899355 211.126154 103.68 
C 211.126154 90.460645 205.874049 77.780942 196.526553 68.433447 
C 187.179058 59.085951 174.499355 53.833846 161.28 53.833846 
C 148.060645 53.833846 135.380942 59.085951 126.033447 68.433447 
C 116.685951 77.780942 111.433846 90.460645 111.433846 103.68 
C 111.433846 116.899355 116.685951 129.579058 126.033447 138.926553 
C 135.380942 148.274049 148.060645 153.526154 161.28 153.526154 
L 161.28 153.526154 
z
" clip-path="url(#p6c7a77e41b)" style="fill: none; stroke: #ff0000; stroke-linejoin: miter"/>
   </g>
  </g>
 </g>
 <defs>
  <clipPath id="p3e9326d611">
   <rect x="57.6" y="41.472" width="357.12" height="266.112"/>
  </clipPath>
  <clipPath id="p6c7a77e41b">
   <rect x="109.44" y="51.84" width="103.68" height="103.68"/>
  </clipPath>
 </defs>
</svg>
