<?xml version="1.0" encoding="utf-8" standalone="no"?>
<!DOCTYPE svg PUBLIC "-//W3C//DTD SVG 1.1//EN"
  "http://www.w3.org/Graphics/SVG/1.1/DTD/svg11.dtd">
<svg xmlns:xlink="http://www.w3.org/1999/xlink" width="460.8pt" height="345.6pt" viewBox="0 0 460.8 345.6" xmlns="http://www.w3.org/2000/svg" version="1.1">
 <metadata>
  <rdf:RDF xmlns:dc="http://purl.org/dc/elements/1.1/" xmlns:cc="http://creativecommons.org/ns#" xmlns:rdf="http://www.w3.org/1999/02/22-rdf-syntax-ns#">
   <cc:Work>
    <dc:type rdf:resource="http://purl.org/dc/dcmitype/StillImage"/>
    <dc:date>2025-08-07T23:33:32.718170</dc:date>
    <dc:format>image/svg+xml</dc:format>
    <dc:creator>
     <cc:Agent>
      <dc:title>Matplotlib v3.10.3, https://matplotlib.org/</dc:title>
     </cc:Agent>
    </dc:creator>
   </cc:Work>
  </rdf:RDF>
 </metadata>
 <defs>
  <style type="text/css">*{stroke-linejoin: round; stroke-linecap: butt}</style>
 </defs>
 <g id="figure_1">
  <g id="patch_1">
   <path d="M 0 345.6 
L 460.8 345.6 
L 460.8 0 
L 0 0 
z
" style="fill: #ffffff"/>
  </g>
  <g id="axes_1">
   <g id="patch_2">
    <path d="M 57.6 307.584 
L 414.72 307.584 
L 414.72 41.472 
L 57.6 41.472 
z
" style="fill: #ffffff"/>
   </g>
   <g id="matplotlib.axis_1">
    <g id="xtick_1">
     <g id="line2d_1">
      <defs>
       <path id="m2b3fd9f0ab" d="M 0 0 
L 0 3.5 
" style="stroke: #000000; stroke-width: 0.8"/>
      </defs>
      <g>
       <use xlink:href="#m2b3fd9f0ab" x="72.205923" y="174.528107" style="stroke: #000000; stroke-width: 0.8"/>
      </g>
     </g>
     <g id="text_1">
      <!-- −3 -->
      <g transform="translate(64.834829 189.126545) scale(0.1 -0.1)">
       <defs>
        <path id="DejaVuSans-2212" d="M 678 2272 
L 4684 2272 
L 4684 1741 
L 678 1741 
L 678 2272 
z
" transform="scale(0.015625)"/>
        <path id="DejaVuSans-33" d="M 2597 2516 
Q 3050 2419 3304 2112 
Q 3559 1806 3559 1356 
Q 3559 666 3084 287 
Q 2609 -91 1734 -91 
Q 1441 -91 1130 -33 
Q 819 25 488 141 
L 488 750 
Q 750 597 1062 519 
Q 1375 441 1716 441 
Q 2309 441 2620 675 
Q 2931 909 2931 1356 
Q 2931 1769 2642 2001 
Q 2353 2234 1838 2234 
L 1294 2234 
L 1294 2753 
L 1863 2753 
Q 2328 2753 2575 2939 
Q 2822 3125 2822 3475 
Q 2822 3834 2567 4026 
Q 2313 4219 1838 4219 
Q 1578 4219 1281 4162 
Q 984 4106 628 3988 
L 628 4550 
Q 988 4650 1302 4700 
Q 1616 4750 1894 4750 
Q 2613 4750 3031 4423 
Q 3450 4097 3450 3541 
Q 3450 3153 3228 2886 
Q 3006 2619 2597 2516 
z
" transform="scale(0.015625)"/>
       </defs>
       <use xlink:href="#DejaVuSans-2212"/>
       <use xlink:href="#DejaVuSans-33" transform="translate(83.789062 0)"/>
      </g>
     </g>
    </g>
    <g id="xtick_2">
     <g id="line2d_2">
      <g>
       <use xlink:href="#m2b3fd9f0ab" x="126.857282" y="174.528107" style="stroke: #000000; stroke-width: 0.8"/>
      </g>
     </g>
     <g id="text_2">
      <!-- −2 -->
      <g transform="translate(119.486188 189.126545) scale(0.1 -0.1)">
       <defs>
        <path id="DejaVuSans-32" d="M 1228 531 
L 3431 531 
L 3431 0 
L 469 0 
L 469 531 
Q 828 903 1448 1529 
Q 2069 2156 2228 2338 
Q 2531 2678 2651 2914 
Q 2772 3150 2772 3378 
Q 2772 3750 2511 3984 
Q 2250 4219 1831 4219 
Q 1534 4219 1204 4116 
Q 875 4013 500 3803 
L 500 4441 
Q 881 4594 1212 4672 
Q 1544 4750 1819 4750 
Q 2544 4750 2975 4387 
Q 3406 4025 3406 3419 
Q 3406 3131 3298 2873 
Q 3191 2616 2906 2266 
Q 2828 2175 2409 1742 
Q 1991 1309 1228 531 
z
" transform="scale(0.015625)"/>
       </defs>
       <use xlink:href="#DejaVuSans-2212"/>
       <use xlink:href="#DejaVuSans-32" transform="translate(83.789062 0)"/>
      </g>
     </g>
    </g>
    <g id="xtick_3">
     <g id="line2d_3">
      <g>
       <use xlink:href="#m2b3fd9f0ab" x="181.508641" y="174.528107" style="stroke: #000000; stroke-width: 0.8"/>
      </g>
     </g>
     <g id="text_3">
      <!-- −1 -->
      <g transform="translate(174.137547 189.126545) scale(0.1 -0.1)">
       <defs>
        <path id="DejaVuSans-31" d="M 794 531 
L 1825 531 
L 1825 4091 
L 703 3866 
L 703 4441 
L 1819 4666 
L 2450 4666 
L 2450 531 
L 3481 531 
L 3481 0 
L 794 0 
L 794 531 
z
" transform="scale(0.015625)"/>
       </defs>
       <use xlink:href="#DejaVuSans-2212"/>
       <use xlink:href="#DejaVuSans-31" transform="translate(83.789062 0)"/>
      </g>
     </g>
    </g>
    <g id="xtick_4">
     <g id="line2d_4">
      <g>
       <use xlink:href="#m2b3fd9f0ab" x="236.16" y="174.528107" style="stroke: #000000; stroke-width: 0.8"/>
      </g>
     </g>
    </g>
    <g id="xtick_5">
     <g id="line2d_5">
      <g>
       <use xlink:href="#m2b3fd9f0ab" x="290.811359" y="174.528107" style="stroke: #000000; stroke-width: 0.8"/>
      </g>
     </g>
     <g id="text_4">
      <!-- 1 -->
      <g transform="translate(287.630109 189.126545) scale(0.1 -0.1)">
       <use xlink:href="#DejaVuSans-31"/>
      </g>
     </g>
    </g>
    <g id="xtick_6">
     <g id="line2d_6">
      <g>
       <use xlink:href="#m2b3fd9f0ab" x="345.462718" y="174.528107" style="stroke: #000000; stroke-width: 0.8"/>
      </g>
     </g>
     <g id="text_5">
      <!-- 2 -->
      <g transform="translate(342.281468 189.126545) scale(0.1 -0.1)">
       <use xlink:href="#DejaVuSans-32"/>
      </g>
     </g>
    </g>
    <g id="xtick_7">
     <g id="line2d_7">
      <g>
       <use xlink:href="#m2b3fd9f0ab" x="400.114077" y="174.528107" style="stroke: #000000; stroke-width: 0.8"/>
      </g>
     </g>
     <g id="text_6">
      <!-- 3 -->
      <g transform="translate(396.932827 189.126545) scale(0.1 -0.1)">
       <use xlink:href="#DejaVuSans-33"/>
      </g>
     </g>
    </g>
    <g id="xtick_8">
     <g id="line2d_8">
      <defs>
       <path id="m7032297002" d="M 0 0 
L 0 2 
" style="stroke: #000000; stroke-width: 0.6"/>
      </defs>
      <g>
       <use xlink:href="#m7032297002" x="61.275651" y="174.528107" style="stroke: #000000; stroke-width: 0.6"/>
      </g>
     </g>
    </g>
    <g id="xtick_9">
     <g id="line2d_9">
      <g>
       <use xlink:href="#m7032297002" x="83.136195" y="174.528107" style="stroke: #000000; stroke-width: 0.6"/>
      </g>
     </g>
    </g>
    <g id="xtick_10">
     <g id="line2d_10">
      <g>
       <use xlink:href="#m7032297002" x="94.066467" y="174.528107" style="stroke: #000000; stroke-width: 0.6"/>
      </g>
     </g>
    </g>
    <g id="xtick_11">
     <g id="line2d_11">
      <g>
       <use xlink:href="#m7032297002" x="104.996739" y="174.528107" style="stroke: #000000; stroke-width: 0.6"/>
      </g>
     </g>
    </g>
    <g id="xtick_12">
     <g id="line2d_12">
      <g>
       <use xlink:href="#m7032297002" x="115.92701" y="174.528107" style="stroke: #000000; stroke-width: 0.6"/>
      </g>
     </g>
    </g>
    <g id="xtick_13">
     <g id="line2d_13">
      <g>
       <use xlink:href="#m7032297002" x="137.787554" y="174.528107" style="stroke: #000000; stroke-width: 0.6"/>
      </g>
     </g>
    </g>
    <g id="xtick_14">
     <g id="line2d_14">
      <g>
       <use xlink:href="#m7032297002" x="148.717826" y="174.528107" style="stroke: #000000; stroke-width: 0.6"/>
      </g>
     </g>
    </g>
    <g id="xtick_15">
     <g id="line2d_15">
      <g>
       <use xlink:href="#m7032297002" x="159.648098" y="174.528107" style="stroke: #000000; stroke-width: 0.6"/>
      </g>
     </g>
    </g>
    <g id="xtick_16">
     <g id="line2d_16">
      <g>
       <use xlink:href="#m7032297002" x="170.578369" y="174.528107" style="stroke: #000000; stroke-width: 0.6"/>
      </g>
     </g>
    </g>
    <g id="xtick_17">
     <g id="line2d_17">
      <g>
       <use xlink:href="#m7032297002" x="192.438913" y="174.528107" style="stroke: #000000; stroke-width: 0.6"/>
      </g>
     </g>
    </g>
    <g id="xtick_18">
     <g id="line2d_18">
      <g>
       <use xlink:href="#m7032297002" x="203.369185" y="174.528107" style="stroke: #000000; stroke-width: 0.6"/>
      </g>
     </g>
    </g>
    <g id="xtick_19">
     <g id="line2d_19">
      <g>
       <use xlink:href="#m7032297002" x="214.299456" y="174.528107" style="stroke: #000000; stroke-width: 0.6"/>
      </g>
     </g>
    </g>
    <g id="xtick_20">
     <g id="line2d_20">
      <g>
       <use xlink:href="#m7032297002" x="225.229728" y="174.528107" style="stroke: #000000; stroke-width: 0.6"/>
      </g>
     </g>
    </g>
    <g id="xtick_21">
     <g id="line2d_21">
      <g>
       <use xlink:href="#m7032297002" x="247.090272" y="174.528107" style="stroke: #000000; stroke-width: 0.6"/>
      </g>
     </g>
    </g>
    <g id="xtick_22">
     <g id="line2d_22">
      <g>
       <use xlink:href="#m7032297002" x="258.020544" y="174.528107" style="stroke: #000000; stroke-width: 0.6"/>
      </g>
     </g>
    </g>
    <g id="xtick_23">
     <g id="line2d_23">
      <g>
       <use xlink:href="#m7032297002" x="268.950815" y="174.528107" style="stroke: #000000; stroke-width: 0.6"/>
      </g>
     </g>
    </g>
    <g id="xtick_24">
     <g id="line2d_24">
      <g>
       <use xlink:href="#m7032297002" x="279.881087" y="174.528107" style="stroke: #000000; stroke-width: 0.6"/>
      </g>
     </g>
    </g>
    <g id="xtick_25">
     <g id="line2d_25">
      <g>
       <use xlink:href="#m7032297002" x="301.741631" y="174.528107" style="stroke: #000000; stroke-width: 0.6"/>
      </g>
     </g>
    </g>
    <g id="xtick_26">
     <g id="line2d_26">
      <g>
       <use xlink:href="#m7032297002" x="312.671902" y="174.528107" style="stroke: #000000; stroke-width: 0.6"/>
      </g>
     </g>
    </g>
    <g id="xtick_27">
     <g id="line2d_27">
      <g>
       <use xlink:href="#m7032297002" x="323.602174" y="174.528107" style="stroke: #000000; stroke-width: 0.6"/>
      </g>
     </g>
    </g>
    <g id="xtick_28">
     <g id="line2d_28">
      <g>
       <use xlink:href="#m7032297002" x="334.532446" y="174.528107" style="stroke: #000000; stroke-width: 0.6"/>
      </g>
     </g>
    </g>
    <g id="xtick_29">
     <g id="line2d_29">
      <g>
       <use xlink:href="#m7032297002" x="356.39299" y="174.528107" style="stroke: #000000; stroke-width: 0.6"/>
      </g>
     </g>
    </g>
    <g id="xtick_30">
     <g id="line2d_30">
      <g>
       <use xlink:href="#m7032297002" x="367.323261" y="174.528107" style="stroke: #000000; stroke-width: 0.6"/>
      </g>
     </g>
    </g>
    <g id="xtick_31">
     <g id="line2d_31">
      <g>
       <use xlink:href="#m7032297002" x="378.253533" y="174.528107" style="stroke: #000000; stroke-width: 0.6"/>
      </g>
     </g>
    </g>
    <g id="xtick_32">
     <g id="line2d_32">
      <g>
       <use xlink:href="#m7032297002" x="389.183805" y="174.528107" style="stroke: #000000; stroke-width: 0.6"/>
      </g>
     </g>
    </g>
    <g id="xtick_33">
     <g id="line2d_33">
      <g>
       <use xlink:href="#m7032297002" x="411.044349" y="174.528107" style="stroke: #000000; stroke-width: 0.6"/>
      </g>
     </g>
    </g>
   </g>
   <g id="matplotlib.axis_2">
    <g id="ytick_1">
     <g id="line2d_34">
      <defs>
       <path id="m52c6c30f31" d="M 0 0 
L -3.5 0 
" style="stroke: #000000; stroke-width: 0.8"/>
      </defs>
      <g>
       <use xlink:href="#m52c6c30f31" x="236.16" y="302.466703" style="stroke: #000000; stroke-width: 0.8"/>
      </g>
     </g>
     <g id="text_7">
      <!-- −1.0 -->
      <g transform="translate(204.877187 306.265922) scale(0.1 -0.1)">
       <defs>
        <path id="DejaVuSans-2e" d="M 684 794 
L 1344 794 
L 1344 0 
L 684 0 
L 684 794 
z
" transform="scale(0.015625)"/>
        <path id="DejaVuSans-30" d="M 2034 4250 
Q 1547 4250 1301 3770 
Q 1056 3291 1056 2328 
Q 1056 1369 1301 889 
Q 1547 409 2034 409 
Q 2525 409 2770 889 
Q 3016 1369 3016 2328 
Q 3016 3291 2770 3770 
Q 2525 4250 2034 4250 
z
M 2034 4750 
Q 2819 4750 3233 4129 
Q 3647 3509 3647 2328 
Q 3647 1150 3233 529 
Q 2819 -91 2034 -91 
Q 1250 -91 836 529 
Q 422 1150 422 2328 
Q 422 3509 836 4129 
Q 1250 4750 2034 4750 
z
" transform="scale(0.015625)"/>
       </defs>
       <use xlink:href="#DejaVuSans-2212"/>
       <use xlink:href="#DejaVuSans-31" transform="translate(83.789062 0)"/>
       <use xlink:href="#DejaVuSans-2e" transform="translate(147.412109 0)"/>
       <use xlink:href="#DejaVuSans-30" transform="translate(179.199219 0)"/>
      </g>
     </g>
    </g>
    <g id="ytick_2">
     <g id="line2d_35">
      <g>
       <use xlink:href="#m52c6c30f31" x="236.16" y="238.497405" style="stroke: #000000; stroke-width: 0.8"/>
      </g>
     </g>
     <g id="text_8">
      <!-- −0.5 -->
      <g transform="translate(204.877187 242.296624) scale(0.1 -0.1)">
       <defs>
        <path id="DejaVuSans-35" d="M 691 4666 
L 3169 4666 
L 3169 4134 
L 1269 4134 
L 1269 2991 
Q 1406 3038 1543 3061 
Q 1681 3084 1819 3084 
Q 2600 3084 3056 2656 
Q 3513 2228 3513 1497 
Q 3513 744 3044 326 
Q 2575 -91 1722 -91 
Q 1428 -91 1123 -41 
Q 819 9 494 109 
L 494 744 
Q 775 591 1075 516 
Q 1375 441 1709 441 
Q 2250 441 2565 725 
Q 2881 1009 2881 1497 
Q 2881 1984 2565 2268 
Q 2250 2553 1709 2553 
Q 1456 2553 1204 2497 
Q 953 2441 691 2322 
L 691 4666 
z
" transform="scale(0.015625)"/>
       </defs>
       <use xlink:href="#DejaVuSans-2212"/>
       <use xlink:href="#DejaVuSans-30" transform="translate(83.789062 0)"/>
       <use xlink:href="#DejaVuSans-2e" transform="translate(147.412109 0)"/>
       <use xlink:href="#DejaVuSans-35" transform="translate(179.199219 0)"/>
      </g>
     </g>
    </g>
    <g id="ytick_3">
     <g id="line2d_36">
      <g>
       <use xlink:href="#m52c6c30f31" x="236.16" y="174.528107" style="stroke: #000000; stroke-width: 0.8"/>
      </g>
     </g>
    </g>
    <g id="ytick_4">
     <g id="line2d_37">
      <g>
       <use xlink:href="#m52c6c30f31" x="236.16" y="110.558809" style="stroke: #000000; stroke-width: 0.8"/>
      </g>
     </g>
     <g id="text_9">
      <!-- 0.5 -->
      <g transform="translate(213.256875 114.358028) scale(0.1 -0.1)">
       <use xlink:href="#DejaVuSans-30"/>
       <use xlink:href="#DejaVuSans-2e" transform="translate(63.623047 0)"/>
       <use xlink:href="#DejaVuSans-35" transform="translate(95.410156 0)"/>
      </g>
     </g>
    </g>
    <g id="ytick_5">
     <g id="line2d_38">
      <g>
       <use xlink:href="#m52c6c30f31" x="236.16" y="46.589511" style="stroke: #000000; stroke-width: 0.8"/>
      </g>
     </g>
     <g id="text_10">
      <!-- 1.0 -->
      <g transform="translate(213.256875 50.38873) scale(0.1 -0.1)">
       <use xlink:href="#DejaVuSans-31"/>
       <use xlink:href="#DejaVuSans-2e" transform="translate(63.623047 0)"/>
       <use xlink:href="#DejaVuSans-30" transform="translate(95.410156 0)"/>
      </g>
     </g>
    </g>
    <g id="ytick_6">
     <g id="line2d_39">
      <defs>
       <path id="md0999d6d82" d="M 0 0 
L -2 0 
" style="stroke: #000000; stroke-width: 0.6"/>
      </defs>
      <g>
       <use xlink:href="#md0999d6d82" x="236.16" y="289.672844" style="stroke: #000000; stroke-width: 0.6"/>
      </g>
     </g>
    </g>
    <g id="ytick_7">
     <g id="line2d_40">
      <g>
       <use xlink:href="#md0999d6d82" x="236.16" y="276.878984" style="stroke: #000000; stroke-width: 0.6"/>
      </g>
     </g>
    </g>
    <g id="ytick_8">
     <g id="line2d_41">
      <g>
       <use xlink:href="#md0999d6d82" x="236.16" y="264.085125" style="stroke: #000000; stroke-width: 0.6"/>
      </g>
     </g>
    </g>
    <g id="ytick_9">
     <g id="line2d_42">
      <g>
       <use xlink:href="#md0999d6d82" x="236.16" y="251.291265" style="stroke: #000000; stroke-width: 0.6"/>
      </g>
     </g>
    </g>
    <g id="ytick_10">
     <g id="line2d_43">
      <g>
       <use xlink:href="#md0999d6d82" x="236.16" y="225.703546" style="stroke: #000000; stroke-width: 0.6"/>
      </g>
     </g>
    </g>
    <g id="ytick_11">
     <g id="line2d_44">
      <g>
       <use xlink:href="#md0999d6d82" x="236.16" y="212.909686" style="stroke: #000000; stroke-width: 0.6"/>
      </g>
     </g>
    </g>
    <g id="ytick_12">
     <g id="line2d_45">
      <g>
       <use xlink:href="#md0999d6d82" x="236.16" y="200.115827" style="stroke: #000000; stroke-width: 0.6"/>
      </g>
     </g>
    </g>
    <g id="ytick_13">
     <g id="line2d_46">
      <g>
       <use xlink:href="#md0999d6d82" x="236.16" y="187.321967" style="stroke: #000000; stroke-width: 0.6"/>
      </g>
     </g>
    </g>
    <g id="ytick_14">
     <g id="line2d_47">
      <g>
       <use xlink:href="#md0999d6d82" x="236.16" y="161.734248" style="stroke: #000000; stroke-width: 0.6"/>
      </g>
     </g>
    </g>
    <g id="ytick_15">
     <g id="line2d_48">
      <g>
       <use xlink:href="#md0999d6d82" x="236.16" y="148.940388" style="stroke: #000000; stroke-width: 0.6"/>
      </g>
     </g>
    </g>
    <g id="ytick_16">
     <g id="line2d_49">
      <g>
       <use xlink:href="#md0999d6d82" x="236.16" y="136.146529" style="stroke: #000000; stroke-width: 0.6"/>
      </g>
     </g>
    </g>
    <g id="ytick_17">
     <g id="line2d_50">
      <g>
       <use xlink:href="#md0999d6d82" x="236.16" y="123.352669" style="stroke: #000000; stroke-width: 0.6"/>
      </g>
     </g>
    </g>
    <g id="ytick_18">
     <g id="line2d_51">
      <g>
       <use xlink:href="#md0999d6d82" x="236.16" y="97.76495" style="stroke: #000000; stroke-width: 0.6"/>
      </g>
     </g>
    </g>
    <g id="ytick_19">
     <g id="line2d_52">
      <g>
       <use xlink:href="#md0999d6d82" x="236.16" y="84.97109" style="stroke: #000000; stroke-width: 0.6"/>
      </g>
     </g>
    </g>
    <g id="ytick_20">
     <g id="line2d_53">
      <g>
       <use xlink:href="#md0999d6d82" x="236.16" y="72.177231" style="stroke: #000000; stroke-width: 0.6"/>
      </g>
     </g>
    </g>
    <g id="ytick_21">
     <g id="line2d_54">
      <g>
       <use xlink:href="#md0999d6d82" x="236.16" y="59.383371" style="stroke: #000000; stroke-width: 0.6"/>
      </g>
     </g>
    </g>
   </g>
   <g id="line2d_55">
    <path d="M 64.467692 123.571677 
L 65.31242 77.150068 
L 65.875571 56.920717 
L 66.278801 48.897775 
L 66.526299 46.813343 
L 66.650047 46.592 
L 66.773796 46.916762 
L 66.959419 48.418983 
L 67.26879 53.567526 
L 67.640036 63.883556 
L 68.192242 86.618013 
L 68.920743 126.904767 
L 71.31746 269.197809 
L 71.903965 289.956286 
L 72.371637 299.529934 
L 72.683418 302.226818 
L 72.839309 302.45183 
L 72.943236 302.186765 
L 73.110126 301.07201 
L 73.361976 297.80916 
L 73.73975 289.492851 
L 74.24345 272.570157 
L 74.936038 240.394352 
L 76.187227 167.841085 
L 77.52717 94.354717 
L 78.191954 68.032013 
L 78.764826 53.311147 
L 79.153874 48.005034 
L 79.451609 46.602515 
L 79.550855 46.649042 
L 79.749345 47.507525 
L 80.04708 50.677765 
L 80.444061 58.281338 
L 80.940287 72.777287 
L 81.635003 100.89376 
L 82.329719 135.528288 
L 84.502123 249.048479 
L 85.259617 277.873975 
L 85.890477 293.923596 
L 86.33208 300.288818 
L 86.64751 302.273859 
L 86.773837 302.466106 
L 86.837 302.433337 
L 86.963327 302.111213 
L 87.215981 300.450875 
L 87.531798 296.514053 
L 88.037105 286.14208 
L 88.668739 266.881435 
L 89.502748 233.030288 
L 90.995465 160.589657 
L 92.343709 99.516679 
L 93.20376 70.351181 
L 93.789765 56.694774 
L 94.292056 49.498705 
L 94.626916 47.10833 
L 94.878061 46.589824 
L 95.045491 46.847838 
L 95.296637 48.129423 
L 95.631497 51.47131 
L 96.099519 59.128832 
L 96.677751 72.993099 
L 97.449228 97.876664 
L 98.517456 140.703449 
L 101.129034 249.346579 
L 101.985404 275.519936 
L 102.655234 290.254623 
L 103.185623 297.919019 
L 103.604799 301.359904 
L 103.864279 302.319337 
L 104.047898 302.45899 
L 104.231517 302.155168 
L 104.506945 300.878683 
L 104.874183 297.680936 
L 105.386788 290.490853 
L 105.968255 278.797305 
L 106.695089 259.613387 
L 107.567289 231.404339 
L 109.724671 151.115119 
L 111.163182 102.089458 
L 112.127891 76.184264 
L 112.899658 60.880322 
L 113.478483 52.93613 
L 113.97608 48.638543 
L 114.318754 47.056364 
L 114.495564 46.678426 
L 114.672373 46.596899 
L 114.849182 46.809399 
L 115.2028 48.103649 
L 115.556419 50.52924 
L 116.086846 56.195752 
L 116.794083 67.252483 
L 117.632617 84.873385 
L 118.631338 110.873096 
L 120.129421 156.006735 
L 122.705122 233.380478 
L 123.948027 263.483025 
L 124.880485 280.981876 
L 125.717647 292.423566 
L 126.387377 298.500748 
L 126.889675 301.234374 
L 127.22454 302.191109 
L 127.44835 302.448356 
L 127.67216 302.402925 
L 127.89597 302.058644 
L 128.287378 300.752074 
L 128.79017 297.799742 
L 129.292963 293.483688 
L 129.936054 286.114791 
L 130.887041 271.835697 
L 131.972742 251.479552 
L 133.49826 217.848552 
L 137.897934 116.495812 
L 139.38993 89.061273 
L 140.456811 73.272485 
L 141.288589 63.426455 
L 142.152738 55.582882 
L 142.907152 50.747043 
L 143.472963 48.342909 
L 144.038773 46.968178 
L 144.415981 46.611087 
L 144.604584 46.596905 
L 144.899773 46.790644 
L 145.194961 47.243032 
L 145.785338 48.899607 
L 146.463091 51.979287 
L 147.140843 56.233517 
L 147.87788 62.081118 
L 148.833681 71.350172 
L 150.174881 87.035615 
L 151.832258 109.613894 
L 153.514324 134.687988 
L 157.932858 201.05803 
L 159.972929 228.140164 
L 161.732152 248.423429 
L 163.412026 264.773763 
L 164.661535 274.938147 
L 166.072965 284.369434 
L 167.402338 291.315453 
L 168.405674 295.367236 
L 169.346688 298.284168 
L 170.009147 299.850187 
L 170.706721 301.08542 
L 171.515448 302.013622 
L 171.975389 302.312455 
L 172.43533 302.45319 
L 172.895271 302.442266 
L 173.441432 302.241252 
L 173.987593 301.846342 
L 174.533754 301.268331 
L 175.615037 299.625693 
L 176.685281 297.414289 
L 177.93739 294.190056 
L 179.381237 289.762804 
L 180.94918 284.277268 
L 182.984621 276.405085 
L 187.740741 256.500067 
L 191.829665 239.613715 
L 194.566477 229.118623 
L 196.302575 222.920809 
L 199.546053 212.422377 
L 201.888321 205.75969 
L 204.727029 198.723438 
L 206.943513 193.999262 
L 209.823144 188.816504 
L 211.573729 186.160699 
L 212.634862 184.721873 
L 214.203114 182.819099 
L 215.563129 181.373447 
L 217.358371 179.736037 
L 218.935034 178.533111 
L 220.57327 177.49584 
L 222.211506 176.655074 
L 225.31273 175.528466 
L 227.976137 174.957716 
L 231.39096 174.613122 
L 236.254111 174.528107 
L 240.459417 174.465816 
L 244.10386 174.135198 
L 245.907403 173.80223 
L 248.82309 172.936608 
L 251.96157 171.435982 
L 253.334822 170.557968 
L 255.786605 168.6046 
L 256.865134 167.574362 
L 259.635887 164.398098 
L 261.955827 161.099025 
L 263.897697 157.849034 
L 265.294212 155.219723 
L 267.50377 150.535724 
L 269.270006 146.312373 
L 272.212871 138.300804 
L 274.172015 132.287015 
L 276.349322 124.98049 
L 278.786649 116.073207 
L 282.405963 101.664222 
L 291.510681 64.265832 
L 293.496259 57.503833 
L 295.03613 53.104176 
L 296.365968 50.071651 
L 297.307056 48.437354 
L 298.302673 47.236725 
L 298.800481 46.859798 
L 299.335015 46.633204 
L 299.869548 46.601008 
L 300.404081 46.773363 
L 300.938614 47.160373 
L 301.869732 48.376847 
L 302.490477 49.592049 
L 303.421594 52.057927 
L 304.416485 55.59226 
L 305.540991 60.76874 
L 306.6772 67.333192 
L 307.707203 74.482417 
L 309.167444 86.608032 
L 310.705857 101.89489 
L 312.322941 120.617305 
L 314.328401 147.172535 
L 317.000994 186.667793 
L 321.147076 248.760296 
L 322.655562 268.315425 
L 323.904545 281.980036 
L 324.895884 290.719188 
L 325.692231 296.147737 
L 326.345626 299.420989 
L 327.027088 301.606923 
L 327.481396 302.327151 
L 327.70855 302.457784 
L 328.013157 302.387143 
L 328.317764 302.029889 
L 328.622371 301.381125 
L 329.231584 299.192679 
L 329.840797 295.796025 
L 330.615271 289.71352 
L 331.491222 280.461271 
L 332.506433 266.674838 
L 333.521644 249.811479 
L 334.691633 227.026492 
L 336.207534 193.41438 
L 340.49182 94.657321 
L 341.794836 71.348671 
L 342.609221 60.13483 
L 343.33654 52.7588 
L 343.900983 48.940959 
L 344.282259 47.368247 
L 344.663536 46.640311 
L 344.91772 46.635959 
L 345.171905 47.022899 
L 345.553181 48.346054 
L 345.934458 50.568325 
L 346.428889 54.792806 
L 347.046928 62.186183 
L 347.788575 74.061396 
L 348.654309 91.782745 
L 349.643812 116.454869 
L 351.158129 160.747642 
L 354.104637 249.565163 
L 355.232224 276.144935 
L 355.958263 289.016483 
L 356.618687 297.215655 
L 357.082265 300.762695 
L 357.429948 302.156168 
L 357.661737 302.463641 
L 357.777631 302.428132 
L 358.00942 301.975177 
L 358.357104 300.334347 
L 358.819935 296.355448 
L 359.35239 289.269662 
L 359.991337 277.349461 
L 360.736774 259.090605 
L 361.695193 229.787598 
L 363.191015 175.577069 
L 365.297461 99.470284 
L 366.266163 72.27088 
L 366.911965 58.928808 
L 367.484867 50.955777 
L 367.901536 47.661081 
L 368.22499 46.633047 
L 368.332808 46.594134 
L 368.548444 46.976994 
L 368.76408 47.977265 
L 369.087534 50.637023 
L 369.518806 56.329223 
L 370.050391 66.621269 
L 370.75667 85.492902 
L 371.604204 114.799474 
L 372.961619 171.527168 
L 374.907498 252.5037 
L 375.785276 279.913269 
L 376.399722 293.257628 
L 376.926389 300.148613 
L 377.251644 302.135922 
L 377.489122 302.452106 
L 377.607861 302.246111 
L 377.845338 301.101785 
L 378.193902 297.655199 
L 378.653553 289.946314 
L 379.189813 276.612177 
L 379.80268 256.203259 
L 380.692926 218.724459 
L 383.923309 73.09374 
L 384.567455 56.477373 
L 385.029782 49.347236 
L 385.376527 46.871789 
L 385.492109 46.612862 
L 385.607691 46.640748 
L 385.838855 47.561396 
L 386.137435 50.457586 
L 386.541936 57.408058 
L 387.050385 70.86759 
L 387.638428 92.34974 
L 388.520491 133.872706 
L 391.235887 271.141589 
L 391.906817 291.499235 
L 392.338795 299.271442 
L 392.647351 302.000825 
L 392.832484 302.466462 
L 392.955907 302.281736 
L 393.14104 301.258675 
L 393.387885 298.505093 
L 393.758152 291.444981 
L 394.263703 276.405762 
L 394.87511 250.8483 
L 395.715795 205.920402 
L 397.908349 83.454536 
L 398.551966 60.343827 
L 399.044586 49.914134 
L 399.386209 46.831696 
L 399.500084 46.59162 
L 399.557021 46.621003 
L 399.670895 46.979542 
L 399.898644 48.895969 
L 400.183331 53.521458 
L 400.581891 64.028246 
L 401.117092 84.937427 
L 401.875478 125.326113 
L 404.528478 279.758643 
L 405.043227 295.313225 
L 405.410904 301.163938 
L 405.631511 302.421672 
L 405.705046 302.457026 
L 405.852118 301.948141 
L 406.072724 299.736274 
L 406.366866 294.1155 
L 406.831067 279.308608 
L 407.388107 253.016237 
L 407.852308 225.484538 
L 407.852308 225.484538 
" clip-path="url(#p96efbbf867)" style="fill: none; stroke: #0000ff; stroke-linecap: square"/>
   </g>
   <g id="patch_3">
    <path d="M 236.16 307.584 
L 236.16 41.472 
" style="fill: none; stroke: #000000; stroke-width: 0.8; stroke-linejoin: miter; stroke-linecap: square"/>
   </g>
   <g id="patch_4">
    <path d="M 57.6 174.528107 
L 414.72 174.528107 
" style="fill: none; stroke: #000000; stroke-width: 0.8; stroke-linejoin: miter; stroke-linecap: square"/>
   </g>
  </g>
  <g id="axes_2">
   <g id="patch_5">
    <path d="M 109.44 155.52 
L 213.12 155.52 
L 213.12 51.84 
L 109.44 51.84 
L 109.44 155.52 
z
" style="fill: none"/>
   </g>
   <g id="matplotlib.axis_3">
    <g id="xtick_34">
     <g id="line2d_56">
      <g>
       <use xlink:href="#m2b3fd9f0ab" x="111.433846" y="103.68" style="stroke: #000000; stroke-width: 0.8"/>
      </g>
     </g>
     <g id="text_11">
      <!-- −1.0 -->
      <g transform="translate(99.29244 118.278437) scale(0.1 -0.1)">
       <use xlink:href="#DejaVuSans-2212"/>
       <use xlink:href="#DejaVuSans-31" transform="translate(83.789062 0)"/>
       <use xlink:href="#DejaVuSans-2e" transform="translate(147.412109 0)"/>
       <use xlink:href="#DejaVuSans-30" transform="translate(179.199219 0)"/>
      </g>
     </g>
    </g>
    <g id="xtick_35">
     <g id="line2d_57">
      <g>
       <use xlink:href="#m2b3fd9f0ab" x="136.356923" y="103.68" style="stroke: #000000; stroke-width: 0.8"/>
      </g>
     </g>
     <g id="text_12">
      <!-- −0.5 -->
      <g transform="translate(124.215517 118.278437) scale(0.1 -0.1)">
       <use xlink:href="#DejaVuSans-2212"/>
       <use xlink:href="#DejaVuSans-30" transform="translate(83.789062 0)"/>
       <use xlink:href="#DejaVuSans-2e" transform="translate(147.412109 0)"/>
       <use xlink:href="#DejaVuSans-35" transform="translate(179.199219 0)"/>
      </g>
     </g>
    </g>
    <g id="xtick_36">
     <g id="line2d_58">
      <g>
       <use xlink:href="#m2b3fd9f0ab" x="161.28" y="103.68" style="stroke: #000000; stroke-width: 0.8"/>
      </g>
     </g>
    </g>
    <g id="xtick_37">
     <g id="line2d_59">
      <g>
       <use xlink:href="#m2b3fd9f0ab" x="186.203077" y="103.68" style="stroke: #000000; stroke-width: 0.8"/>
      </g>
     </g>
     <g id="text_13">
      <!-- 0.5 -->
      <g transform="translate(178.251514 118.278437) scale(0.1 -0.1)">
       <use xlink:href="#DejaVuSans-30"/>
       <use xlink:href="#DejaVuSans-2e" transform="translate(63.623047 0)"/>
       <use xlink:href="#DejaVuSans-35" transform="translate(95.410156 0)"/>
      </g>
     </g>
    </g>
    <g id="xtick_38">
     <g id="line2d_60">
      <g>
       <use xlink:href="#m2b3fd9f0ab" x="211.126154" y="103.68" style="stroke: #000000; stroke-width: 0.8"/>
      </g>
     </g>
     <g id="text_14">
      <!-- 1.0 -->
      <g transform="translate(203.174591 118.278437) scale(0.1 -0.1)">
       <use xlink:href="#DejaVuSans-31"/>
       <use xlink:href="#DejaVuSans-2e" transform="translate(63.623047 0)"/>
       <use xlink:href="#DejaVuSans-30" transform="translate(95.410156 0)"/>
      </g>
     </g>
    </g>
    <g id="xtick_39">
     <g id="line2d_61">
      <g>
       <use xlink:href="#m7032297002" x="116.418462" y="103.68" style="stroke: #000000; stroke-width: 0.6"/>
      </g>
     </g>
    </g>
    <g id="xtick_40">
     <g id="line2d_62">
      <g>
       <use xlink:href="#m7032297002" x="121.403077" y="103.68" style="stroke: #000000; stroke-width: 0.6"/>
      </g>
     </g>
    </g>
    <g id="xtick_41">
     <g id="line2d_63">
      <g>
       <use xlink:href="#m7032297002" x="126.387692" y="103.68" style="stroke: #000000; stroke-width: 0.6"/>
      </g>
     </g>
    </g>
    <g id="xtick_42">
     <g id="line2d_64">
      <g>
       <use xlink:href="#m7032297002" x="131.372308" y="103.68" style="stroke: #000000; stroke-width: 0.6"/>
      </g>
     </g>
    </g>
    <g id="xtick_43">
     <g id="line2d_65">
      <g>
       <use xlink:href="#m7032297002" x="141.341538" y="103.68" style="stroke: #000000; stroke-width: 0.6"/>
      </g>
     </g>
    </g>
    <g id="xtick_44">
     <g id="line2d_66">
      <g>
       <use xlink:href="#m7032297002" x="146.326154" y="103.68" style="stroke: #000000; stroke-width: 0.6"/>
      </g>
     </g>
    </g>
    <g id="xtick_45">
     <g id="line2d_67">
      <g>
       <use xlink:href="#m7032297002" x="151.310769" y="103.68" style="stroke: #000000; stroke-width: 0.6"/>
      </g>
     </g>
    </g>
    <g id="xtick_46">
     <g id="line2d_68">
      <g>
       <use xlink:href="#m7032297002" x="156.295385" y="103.68" style="stroke: #000000; stroke-width: 0.6"/>
      </g>
     </g>
    </g>
    <g id="xtick_47">
     <g id="line2d_69">
      <g>
       <use xlink:href="#m7032297002" x="166.264615" y="103.68" style="stroke: #000000; stroke-width: 0.6"/>
      </g>
     </g>
    </g>
    <g id="xtick_48">
     <g id="line2d_70">
      <g>
       <use xlink:href="#m7032297002" x="171.249231" y="103.68" style="stroke: #000000; stroke-width: 0.6"/>
      </g>
     </g>
    </g>
    <g id="xtick_49">
     <g id="line2d_71">
      <g>
       <use xlink:href="#m7032297002" x="176.233846" y="103.68" style="stroke: #000000; stroke-width: 0.6"/>
      </g>
     </g>
    </g>
    <g id="xtick_50">
     <g id="line2d_72">
      <g>
       <use xlink:href="#m7032297002" x="181.218462" y="103.68" style="stroke: #000000; stroke-width: 0.6"/>
      </g>
     </g>
    </g>
    <g id="xtick_51">
     <g id="line2d_73">
      <g>
       <use xlink:href="#m7032297002" x="191.187692" y="103.68" style="stroke: #000000; stroke-width: 0.6"/>
      </g>
     </g>
    </g>
    <g id="xtick_52">
     <g id="line2d_74">
      <g>
       <use xlink:href="#m7032297002" x="196.172308" y="103.68" style="stroke: #000000; stroke-width: 0.6"/>
      </g>
     </g>
    </g>
    <g id="xtick_53">
     <g id="line2d_75">
      <g>
       <use xlink:href="#m7032297002" x="201.156923" y="103.68" style="stroke: #000000; stroke-width: 0.6"/>
      </g>
     </g>
    </g>
    <g id="xtick_54">
     <g id="line2d_76">
      <g>
       <use xlink:href="#m7032297002" x="206.141538" y="103.68" style="stroke: #000000; stroke-width: 0.6"/>
      </g>
     </g>
    </g>
   </g>
   <g id="matplotlib.axis_4">
    <g id="ytick_22">
     <g id="line2d_77">
      <g>
       <use xlink:href="#m52c6c30f31" x="161.28" y="153.526154" style="stroke: #000000; stroke-width: 0.8"/>
      </g>
     </g>
     <g id="text_15">
      <!-- −1.0 -->
      <g transform="translate(129.997187 157.325373) scale(0.1 -0.1)">
       <use xlink:href="#DejaVuSans-2212"/>
       <use xlink:href="#DejaVuSans-31" transform="translate(83.789062 0)"/>
       <use xlink:href="#DejaVuSans-2e" transform="translate(147.412109 0)"/>
       <use xlink:href="#DejaVuSans-30" transform="translate(179.199219 0)"/>
      </g>
     </g>
    </g>
    <g id="ytick_23">
     <g id="line2d_78">
      <g>
       <use xlink:href="#m52c6c30f31" x="161.28" y="128.603077" style="stroke: #000000; stroke-width: 0.8"/>
      </g>
     </g>
     <g id="text_16">
      <!-- −0.5 -->
      <g transform="translate(129.997187 132.402296) scale(0.1 -0.1)">
       <use xlink:href="#DejaVuSans-2212"/>
       <use xlink:href="#DejaVuSans-30" transform="translate(83.789062 0)"/>
       <use xlink:href="#DejaVuSans-2e" transform="translate(147.412109 0)"/>
       <use xlink:href="#DejaVuSans-35" transform="translate(179.199219 0)"/>
      </g>
     </g>
    </g>
    <g id="ytick_24">
     <g id="line2d_79">
      <g>
       <use xlink:href="#m52c6c30f31" x="161.28" y="103.68" style="stroke: #000000; stroke-width: 0.8"/>
      </g>
     </g>
    </g>
    <g id="ytick_25">
     <g id="line2d_80">
      <g>
       <use xlink:href="#m52c6c30f31" x="161.28" y="78.756923" style="stroke: #000000; stroke-width: 0.8"/>
      </g>
     </g>
     <g id="text_17">
      <!-- 0.5 -->
      <g transform="translate(138.376875 82.556142) scale(0.1 -0.1)">
       <use xlink:href="#DejaVuSans-30"/>
       <use xlink:href="#DejaVuSans-2e" transform="translate(63.623047 0)"/>
       <use xlink:href="#DejaVuSans-35" transform="translate(95.410156 0)"/>
      </g>
     </g>
    </g>
    <g id="ytick_26">
     <g id="line2d_81">
      <g>
       <use xlink:href="#m52c6c30f31" x="161.28" y="53.833846" style="stroke: #000000; stroke-width: 0.8"/>
      </g>
     </g>
     <g id="text_18">
      <!-- 1.0 -->
      <g transform="translate(138.376875 57.633065) scale(0.1 -0.1)">
       <use xlink:href="#DejaVuSans-31"/>
       <use xlink:href="#DejaVuSans-2e" transform="translate(63.623047 0)"/>
       <use xlink:href="#DejaVuSans-30" transform="translate(95.410156 0)"/>
      </g>
     </g>
    </g>
    <g id="ytick_27">
     <g id="line2d_82">
      <g>
       <use xlink:href="#md0999d6d82" x="161.28" y="148.541538" style="stroke: #000000; stroke-width: 0.6"/>
      </g>
     </g>
    </g>
    <g id="ytick_28">
     <g id="line2d_83">
      <g>
       <use xlink:href="#md0999d6d82" x="161.28" y="143.556923" style="stroke: #000000; stroke-width: 0.6"/>
      </g>
     </g>
    </g>
    <g id="ytick_29">
     <g id="line2d_84">
      <g>
       <use xlink:href="#md0999d6d82" x="161.28" y="138.572308" style="stroke: #000000; stroke-width: 0.6"/>
      </g>
     </g>
    </g>
    <g id="ytick_30">
     <g id="line2d_85">
      <g>
       <use xlink:href="#md0999d6d82" x="161.28" y="133.587692" style="stroke: #000000; stroke-width: 0.6"/>
      </g>
     </g>
    </g>
    <g id="ytick_31">
     <g id="line2d_86">
      <g>
       <use xlink:href="#md0999d6d82" x="161.28" y="123.618462" style="stroke: #000000; stroke-width: 0.6"/>
      </g>
     </g>
    </g>
    <g id="ytick_32">
     <g id="line2d_87">
      <g>
       <use xlink:href="#md0999d6d82" x="161.28" y="118.633846" style="stroke: #000000; stroke-width: 0.6"/>
      </g>
     </g>
    </g>
    <g id="ytick_33">
     <g id="line2d_88">
      <g>
       <use xlink:href="#md0999d6d82" x="161.28" y="113.649231" style="stroke: #000000; stroke-width: 0.6"/>
      </g>
     </g>
    </g>
    <g id="ytick_34">
     <g id="line2d_89">
      <g>
       <use xlink:href="#md0999d6d82" x="161.28" y="108.664615" style="stroke: #000000; stroke-width: 0.6"/>
      </g>
     </g>
    </g>
    <g id="ytick_35">
     <g id="line2d_90">
      <g>
       <use xlink:href="#md0999d6d82" x="161.28" y="98.695385" style="stroke: #000000; stroke-width: 0.6"/>
      </g>
     </g>
    </g>
    <g id="ytick_36">
     <g id="line2d_91">
      <g>
       <use xlink:href="#md0999d6d82" x="161.28" y="93.710769" style="stroke: #000000; stroke-width: 0.6"/>
      </g>
     </g>
    </g>
    <g id="ytick_37">
     <g id="line2d_92">
      <g>
       <use xlink:href="#md0999d6d82" x="161.28" y="88.726154" style="stroke: #000000; stroke-width: 0.6"/>
      </g>
     </g>
    </g>
    <g id="ytick_38">
     <g id="line2d_93">
      <g>
       <use xlink:href="#md0999d6d82" x="161.28" y="83.741538" style="stroke: #000000; stroke-width: 0.6"/>
      </g>
     </g>
    </g>
    <g id="ytick_39">
     <g id="line2d_94">
      <g>
       <use xlink:href="#md0999d6d82" x="161.28" y="73.772308" style="stroke: #000000; stroke-width: 0.6"/>
      </g>
     </g>
    </g>
    <g id="ytick_40">
     <g id="line2d_95">
      <g>
       <use xlink:href="#md0999d6d82" x="161.28" y="68.787692" style="stroke: #000000; stroke-width: 0.6"/>
      </g>
     </g>
    </g>
    <g id="ytick_41">
     <g id="line2d_96">
      <g>
       <use xlink:href="#md0999d6d82" x="161.28" y="63.803077" style="stroke: #000000; stroke-width: 0.6"/>
      </g>
     </g>
    </g>
    <g id="ytick_42">
     <g id="line2d_97">
      <g>
       <use xlink:href="#md0999d6d82" x="161.28" y="58.818462" style="stroke: #000000; stroke-width: 0.6"/>
      </g>
     </g>
    </g>
   </g>
   <g id="patch_6">
    <path d="M 161.28 155.52 
L 161.28 51.84 
" style="fill: none; stroke: #000000; stroke-width: 0.8; stroke-linejoin: miter; stroke-linecap: square"/>
   </g>
   <g id="patch_7">
    <path d="M 109.44 103.68 
L 213.12 103.68 
" style="fill: none; stroke: #000000; stroke-width: 0.8; stroke-linejoin: miter; stroke-linecap: square"/>
   </g>
   <g id="patch_8">
    <path d="M 161.28 153.526154 
C 174.499355 153.526154 187.179058 148.274049 196.526553 138.926553 
C 205.874049 129.579058 211.126154 116.899355 211.126154 103.68 
C 211.126154 90.460645 205.874049 77.780942 196.526553 68.433447 
C 187.179058 59.085951 174.499355 53.833846 161.28 53.833846 
C 148.060645 53.833846 135.380942 59.085951 126.033447 68.433447 
C 116.685951 77.780942 111.433846 90.460645 111.433846 103.68 
C 111.433846 116.899355 116.685951 129.579058 126.033447 138.926553 
C 135.380942 148.274049 148.060645 153.526154 161.28 153.526154 
L 161.28 153.526154 
z
" clip-path="url(#p1e9f52f89c)" style="fill: none; stroke: #ff0000; stroke-linejoin: miter"/>
   </g>
  </g>
 </g>
 <defs>
  <clipPath id="p96efbbf867">
   <rect x="57.6" y="41.472" width="357.12" height="266.112"/>
  </clipPath>
  <clipPath id="p1e9f52f89c">
   <rect x="109.44" y="51.84" width="103.68" height="103.68"/>
  </clipPath>
 </defs>
</svg>
