<?xml version="1.0" encoding="utf-8" standalone="no"?>
<!DOCTYPE svg PUBLIC "-//W3C//DTD SVG 1.1//EN"
  "http://www.w3.org/Graphics/SVG/1.1/DTD/svg11.dtd">
<svg xmlns:xlink="http://www.w3.org/1999/xlink" width="460.8pt" height="345.6pt" viewBox="0 0 460.8 345.6" xmlns="http://www.w3.org/2000/svg" version="1.1">
 <metadata>
  <rdf:RDF xmlns:dc="http://purl.org/dc/elements/1.1/" xmlns:cc="http://creativecommons.org/ns#" xmlns:rdf="http://www.w3.org/1999/02/22-rdf-syntax-ns#">
   <cc:Work>
    <dc:type rdf:resource="http://purl.org/dc/dcmitype/StillImage"/>
    <dc:date>2025-08-03T19:00:20.952376</dc:date>
    <dc:format>image/svg+xml</dc:format>
    <dc:creator>
     <cc:Agent>
      <dc:title>Matplotlib v3.10.3, https://matplotlib.org/</dc:title>
     </cc:Agent>
    </dc:creator>
   </cc:Work>
  </rdf:RDF>
 </metadata>
 <defs>
  <style type="text/css">*{stroke-linejoin: round; stroke-linecap: butt}</style>
 </defs>
 <g id="figure_1">
  <g id="patch_1">
   <path d="M 0 345.6 
L 460.8 345.6 
L 460.8 0 
L 0 0 
z
" style="fill: #ffffff"/>
  </g>
  <g id="axes_1">
   <g id="patch_2">
    <path d="M 57.6 276.48 
L 241.92 276.48 
L 241.92 138.24 
L 57.6 138.24 
z
" style="fill: #ffffff"/>
   </g>
   <g id="matplotlib.axis_1">
    <g id="xtick_1">
     <g id="line2d_1">
      <defs>
       <path id="mb9219a3132" d="M 0 0 
L 0 3.5 
" style="stroke: #000000; stroke-width: 0.8"/>
      </defs>
      <g>
       <use xlink:href="#mb9219a3132" x="61.144615" y="207.360759" style="stroke: #000000; stroke-width: 0.8"/>
      </g>
     </g>
     <g id="text_1">
      <!-- −1.0 -->
      <g transform="translate(49.003209 221.959197) scale(0.1 -0.1)">
       <defs>
        <path id="DejaVuSans-2212" d="M 678 2272 
L 4684 2272 
L 4684 1741 
L 678 1741 
L 678 2272 
z
" transform="scale(0.015625)"/>
        <path id="DejaVuSans-31" d="M 794 531 
L 1825 531 
L 1825 4091 
L 703 3866 
L 703 4441 
L 1819 4666 
L 2450 4666 
L 2450 531 
L 3481 531 
L 3481 0 
L 794 0 
L 794 531 
z
" transform="scale(0.015625)"/>
        <path id="DejaVuSans-2e" d="M 684 794 
L 1344 794 
L 1344 0 
L 684 0 
L 684 794 
z
" transform="scale(0.015625)"/>
        <path id="DejaVuSans-30" d="M 2034 4250 
Q 1547 4250 1301 3770 
Q 1056 3291 1056 2328 
Q 1056 1369 1301 889 
Q 1547 409 2034 409 
Q 2525 409 2770 889 
Q 3016 1369 3016 2328 
Q 3016 3291 2770 3770 
Q 2525 4250 2034 4250 
z
M 2034 4750 
Q 2819 4750 3233 4129 
Q 3647 3509 3647 2328 
Q 3647 1150 3233 529 
Q 2819 -91 2034 -91 
Q 1250 -91 836 529 
Q 422 1150 422 2328 
Q 422 3509 836 4129 
Q 1250 4750 2034 4750 
z
" transform="scale(0.015625)"/>
       </defs>
       <use xlink:href="#DejaVuSans-2212"/>
       <use xlink:href="#DejaVuSans-31" transform="translate(83.789062 0)"/>
       <use xlink:href="#DejaVuSans-2e" transform="translate(147.412109 0)"/>
       <use xlink:href="#DejaVuSans-30" transform="translate(179.199219 0)"/>
      </g>
     </g>
    </g>
    <g id="xtick_2">
     <g id="line2d_2">
      <g>
       <use xlink:href="#mb9219a3132" x="105.452308" y="207.360759" style="stroke: #000000; stroke-width: 0.8"/>
      </g>
     </g>
     <g id="text_2">
      <!-- −0.5 -->
      <g transform="translate(93.310901 221.959197) scale(0.1 -0.1)">
       <defs>
        <path id="DejaVuSans-35" d="M 691 4666 
L 3169 4666 
L 3169 4134 
L 1269 4134 
L 1269 2991 
Q 1406 3038 1543 3061 
Q 1681 3084 1819 3084 
Q 2600 3084 3056 2656 
Q 3513 2228 3513 1497 
Q 3513 744 3044 326 
Q 2575 -91 1722 -91 
Q 1428 -91 1123 -41 
Q 819 9 494 109 
L 494 744 
Q 775 591 1075 516 
Q 1375 441 1709 441 
Q 2250 441 2565 725 
Q 2881 1009 2881 1497 
Q 2881 1984 2565 2268 
Q 2250 2553 1709 2553 
Q 1456 2553 1204 2497 
Q 953 2441 691 2322 
L 691 4666 
z
" transform="scale(0.015625)"/>
       </defs>
       <use xlink:href="#DejaVuSans-2212"/>
       <use xlink:href="#DejaVuSans-30" transform="translate(83.789062 0)"/>
       <use xlink:href="#DejaVuSans-2e" transform="translate(147.412109 0)"/>
       <use xlink:href="#DejaVuSans-35" transform="translate(179.199219 0)"/>
      </g>
     </g>
    </g>
    <g id="xtick_3">
     <g id="line2d_3">
      <g>
       <use xlink:href="#mb9219a3132" x="149.76" y="207.360759" style="stroke: #000000; stroke-width: 0.8"/>
      </g>
     </g>
    </g>
    <g id="xtick_4">
     <g id="line2d_4">
      <g>
       <use xlink:href="#mb9219a3132" x="194.067692" y="207.360759" style="stroke: #000000; stroke-width: 0.8"/>
      </g>
     </g>
     <g id="text_3">
      <!-- 0.5 -->
      <g transform="translate(186.11613 221.959197) scale(0.1 -0.1)">
       <use xlink:href="#DejaVuSans-30"/>
       <use xlink:href="#DejaVuSans-2e" transform="translate(63.623047 0)"/>
       <use xlink:href="#DejaVuSans-35" transform="translate(95.410156 0)"/>
      </g>
     </g>
    </g>
    <g id="xtick_5">
     <g id="line2d_5">
      <g>
       <use xlink:href="#mb9219a3132" x="238.375385" y="207.360759" style="stroke: #000000; stroke-width: 0.8"/>
      </g>
     </g>
     <g id="text_4">
      <!-- 1.0 -->
      <g transform="translate(230.423822 221.959197) scale(0.1 -0.1)">
       <use xlink:href="#DejaVuSans-31"/>
       <use xlink:href="#DejaVuSans-2e" transform="translate(63.623047 0)"/>
       <use xlink:href="#DejaVuSans-30" transform="translate(95.410156 0)"/>
      </g>
     </g>
    </g>
    <g id="xtick_6">
     <g id="line2d_6">
      <defs>
       <path id="m6183b0d63a" d="M 0 0 
L 0 2 
" style="stroke: #000000; stroke-width: 0.6"/>
      </defs>
      <g>
       <use xlink:href="#m6183b0d63a" x="70.006154" y="207.360759" style="stroke: #000000; stroke-width: 0.6"/>
      </g>
     </g>
    </g>
    <g id="xtick_7">
     <g id="line2d_7">
      <g>
       <use xlink:href="#m6183b0d63a" x="78.867692" y="207.360759" style="stroke: #000000; stroke-width: 0.6"/>
      </g>
     </g>
    </g>
    <g id="xtick_8">
     <g id="line2d_8">
      <g>
       <use xlink:href="#m6183b0d63a" x="87.729231" y="207.360759" style="stroke: #000000; stroke-width: 0.6"/>
      </g>
     </g>
    </g>
    <g id="xtick_9">
     <g id="line2d_9">
      <g>
       <use xlink:href="#m6183b0d63a" x="96.590769" y="207.360759" style="stroke: #000000; stroke-width: 0.6"/>
      </g>
     </g>
    </g>
    <g id="xtick_10">
     <g id="line2d_10">
      <g>
       <use xlink:href="#m6183b0d63a" x="114.313846" y="207.360759" style="stroke: #000000; stroke-width: 0.6"/>
      </g>
     </g>
    </g>
    <g id="xtick_11">
     <g id="line2d_11">
      <g>
       <use xlink:href="#m6183b0d63a" x="123.175385" y="207.360759" style="stroke: #000000; stroke-width: 0.6"/>
      </g>
     </g>
    </g>
    <g id="xtick_12">
     <g id="line2d_12">
      <g>
       <use xlink:href="#m6183b0d63a" x="132.036923" y="207.360759" style="stroke: #000000; stroke-width: 0.6"/>
      </g>
     </g>
    </g>
    <g id="xtick_13">
     <g id="line2d_13">
      <g>
       <use xlink:href="#m6183b0d63a" x="140.898462" y="207.360759" style="stroke: #000000; stroke-width: 0.6"/>
      </g>
     </g>
    </g>
    <g id="xtick_14">
     <g id="line2d_14">
      <g>
       <use xlink:href="#m6183b0d63a" x="158.621538" y="207.360759" style="stroke: #000000; stroke-width: 0.6"/>
      </g>
     </g>
    </g>
    <g id="xtick_15">
     <g id="line2d_15">
      <g>
       <use xlink:href="#m6183b0d63a" x="167.483077" y="207.360759" style="stroke: #000000; stroke-width: 0.6"/>
      </g>
     </g>
    </g>
    <g id="xtick_16">
     <g id="line2d_16">
      <g>
       <use xlink:href="#m6183b0d63a" x="176.344615" y="207.360759" style="stroke: #000000; stroke-width: 0.6"/>
      </g>
     </g>
    </g>
    <g id="xtick_17">
     <g id="line2d_17">
      <g>
       <use xlink:href="#m6183b0d63a" x="185.206154" y="207.360759" style="stroke: #000000; stroke-width: 0.6"/>
      </g>
     </g>
    </g>
    <g id="xtick_18">
     <g id="line2d_18">
      <g>
       <use xlink:href="#m6183b0d63a" x="202.929231" y="207.360759" style="stroke: #000000; stroke-width: 0.6"/>
      </g>
     </g>
    </g>
    <g id="xtick_19">
     <g id="line2d_19">
      <g>
       <use xlink:href="#m6183b0d63a" x="211.790769" y="207.360759" style="stroke: #000000; stroke-width: 0.6"/>
      </g>
     </g>
    </g>
    <g id="xtick_20">
     <g id="line2d_20">
      <g>
       <use xlink:href="#m6183b0d63a" x="220.652308" y="207.360759" style="stroke: #000000; stroke-width: 0.6"/>
      </g>
     </g>
    </g>
    <g id="xtick_21">
     <g id="line2d_21">
      <g>
       <use xlink:href="#m6183b0d63a" x="229.513846" y="207.360759" style="stroke: #000000; stroke-width: 0.6"/>
      </g>
     </g>
    </g>
   </g>
   <g id="matplotlib.axis_2">
    <g id="ytick_1">
     <g id="line2d_22">
      <defs>
       <path id="m64218f0cd9" d="M 0 0 
L -3.5 0 
" style="stroke: #000000; stroke-width: 0.8"/>
      </defs>
      <g>
       <use xlink:href="#m64218f0cd9" x="149.76" y="273.823057" style="stroke: #000000; stroke-width: 0.8"/>
      </g>
     </g>
     <g id="text_5">
      <!-- −1.0 -->
      <g transform="translate(118.477188 277.622275) scale(0.1 -0.1)">
       <use xlink:href="#DejaVuSans-2212"/>
       <use xlink:href="#DejaVuSans-31" transform="translate(83.789062 0)"/>
       <use xlink:href="#DejaVuSans-2e" transform="translate(147.412109 0)"/>
       <use xlink:href="#DejaVuSans-30" transform="translate(179.199219 0)"/>
      </g>
     </g>
    </g>
    <g id="ytick_2">
     <g id="line2d_23">
      <g>
       <use xlink:href="#m64218f0cd9" x="149.76" y="240.591908" style="stroke: #000000; stroke-width: 0.8"/>
      </g>
     </g>
     <g id="text_6">
      <!-- −0.5 -->
      <g transform="translate(118.477188 244.391127) scale(0.1 -0.1)">
       <use xlink:href="#DejaVuSans-2212"/>
       <use xlink:href="#DejaVuSans-30" transform="translate(83.789062 0)"/>
       <use xlink:href="#DejaVuSans-2e" transform="translate(147.412109 0)"/>
       <use xlink:href="#DejaVuSans-35" transform="translate(179.199219 0)"/>
      </g>
     </g>
    </g>
    <g id="ytick_3">
     <g id="line2d_24">
      <g>
       <use xlink:href="#m64218f0cd9" x="149.76" y="207.360759" style="stroke: #000000; stroke-width: 0.8"/>
      </g>
     </g>
    </g>
    <g id="ytick_4">
     <g id="line2d_25">
      <g>
       <use xlink:href="#m64218f0cd9" x="149.76" y="174.12961" style="stroke: #000000; stroke-width: 0.8"/>
      </g>
     </g>
     <g id="text_7">
      <!-- 0.5 -->
      <g transform="translate(126.856875 177.928829) scale(0.1 -0.1)">
       <use xlink:href="#DejaVuSans-30"/>
       <use xlink:href="#DejaVuSans-2e" transform="translate(63.623047 0)"/>
       <use xlink:href="#DejaVuSans-35" transform="translate(95.410156 0)"/>
      </g>
     </g>
    </g>
    <g id="ytick_5">
     <g id="line2d_26">
      <g>
       <use xlink:href="#m64218f0cd9" x="149.76" y="140.898462" style="stroke: #000000; stroke-width: 0.8"/>
      </g>
     </g>
     <g id="text_8">
      <!-- 1.0 -->
      <g transform="translate(126.856875 144.69768) scale(0.1 -0.1)">
       <use xlink:href="#DejaVuSans-31"/>
       <use xlink:href="#DejaVuSans-2e" transform="translate(63.623047 0)"/>
       <use xlink:href="#DejaVuSans-30" transform="translate(95.410156 0)"/>
      </g>
     </g>
    </g>
    <g id="ytick_6">
     <g id="line2d_27">
      <defs>
       <path id="m0de669e96b" d="M 0 0 
L -2 0 
" style="stroke: #000000; stroke-width: 0.6"/>
      </defs>
      <g>
       <use xlink:href="#m0de669e96b" x="149.76" y="267.176827" style="stroke: #000000; stroke-width: 0.6"/>
      </g>
     </g>
    </g>
    <g id="ytick_7">
     <g id="line2d_28">
      <g>
       <use xlink:href="#m0de669e96b" x="149.76" y="260.530597" style="stroke: #000000; stroke-width: 0.6"/>
      </g>
     </g>
    </g>
    <g id="ytick_8">
     <g id="line2d_29">
      <g>
       <use xlink:href="#m0de669e96b" x="149.76" y="253.884367" style="stroke: #000000; stroke-width: 0.6"/>
      </g>
     </g>
    </g>
    <g id="ytick_9">
     <g id="line2d_30">
      <g>
       <use xlink:href="#m0de669e96b" x="149.76" y="247.238138" style="stroke: #000000; stroke-width: 0.6"/>
      </g>
     </g>
    </g>
    <g id="ytick_10">
     <g id="line2d_31">
      <g>
       <use xlink:href="#m0de669e96b" x="149.76" y="233.945678" style="stroke: #000000; stroke-width: 0.6"/>
      </g>
     </g>
    </g>
    <g id="ytick_11">
     <g id="line2d_32">
      <g>
       <use xlink:href="#m0de669e96b" x="149.76" y="227.299448" style="stroke: #000000; stroke-width: 0.6"/>
      </g>
     </g>
    </g>
    <g id="ytick_12">
     <g id="line2d_33">
      <g>
       <use xlink:href="#m0de669e96b" x="149.76" y="220.653219" style="stroke: #000000; stroke-width: 0.6"/>
      </g>
     </g>
    </g>
    <g id="ytick_13">
     <g id="line2d_34">
      <g>
       <use xlink:href="#m0de669e96b" x="149.76" y="214.006989" style="stroke: #000000; stroke-width: 0.6"/>
      </g>
     </g>
    </g>
    <g id="ytick_14">
     <g id="line2d_35">
      <g>
       <use xlink:href="#m0de669e96b" x="149.76" y="200.714529" style="stroke: #000000; stroke-width: 0.6"/>
      </g>
     </g>
    </g>
    <g id="ytick_15">
     <g id="line2d_36">
      <g>
       <use xlink:href="#m0de669e96b" x="149.76" y="194.0683" style="stroke: #000000; stroke-width: 0.6"/>
      </g>
     </g>
    </g>
    <g id="ytick_16">
     <g id="line2d_37">
      <g>
       <use xlink:href="#m0de669e96b" x="149.76" y="187.42207" style="stroke: #000000; stroke-width: 0.6"/>
      </g>
     </g>
    </g>
    <g id="ytick_17">
     <g id="line2d_38">
      <g>
       <use xlink:href="#m0de669e96b" x="149.76" y="180.77584" style="stroke: #000000; stroke-width: 0.6"/>
      </g>
     </g>
    </g>
    <g id="ytick_18">
     <g id="line2d_39">
      <g>
       <use xlink:href="#m0de669e96b" x="149.76" y="167.483381" style="stroke: #000000; stroke-width: 0.6"/>
      </g>
     </g>
    </g>
    <g id="ytick_19">
     <g id="line2d_40">
      <g>
       <use xlink:href="#m0de669e96b" x="149.76" y="160.837151" style="stroke: #000000; stroke-width: 0.6"/>
      </g>
     </g>
    </g>
    <g id="ytick_20">
     <g id="line2d_41">
      <g>
       <use xlink:href="#m0de669e96b" x="149.76" y="154.190921" style="stroke: #000000; stroke-width: 0.6"/>
      </g>
     </g>
    </g>
    <g id="ytick_21">
     <g id="line2d_42">
      <g>
       <use xlink:href="#m0de669e96b" x="149.76" y="147.544691" style="stroke: #000000; stroke-width: 0.6"/>
      </g>
     </g>
    </g>
   </g>
   <g id="line2d_43">
    <path d="M 61.144615 140.898462 
L 63.123824 163.346627 
L 65.055512 182.832473 
L 67.037982 200.476569 
L 68.869029 214.770561 
L 70.653802 226.954663 
L 72.385501 237.21629 
L 74.077956 245.842075 
L 75.618251 252.551915 
L 77.067686 257.92591 
L 78.515002 262.429698 
L 79.949097 266.086822 
L 81.192387 268.64189 
L 82.155399 270.2466 
L 83.347338 271.800713 
L 84.418478 272.807625 
L 85.459073 273.449062 
L 86.213622 273.715285 
L 86.993667 273.821538 
L 87.786683 273.759802 
L 88.948209 273.37377 
L 89.999542 272.736228 
L 91.295975 271.595285 
L 92.720791 269.919203 
L 93.992047 268.077849 
L 95.503342 265.498801 
L 97.173327 262.201025 
L 98.931475 258.275784 
L 101.16037 252.720499 
L 103.384301 246.637542 
L 106.107549 238.612056 
L 110.036567 226.27092 
L 122.394307 186.768889 
L 125.884325 176.694001 
L 128.97452 168.541826 
L 131.330686 162.900519 
L 133.554897 158.084621 
L 135.868555 153.643356 
L 138.004968 150.089923 
L 140.07216 147.177297 
L 141.919377 145.028318 
L 143.282465 143.724251 
L 144.757279 142.587631 
L 146.095384 141.8062 
L 147.402395 141.274543 
L 148.789813 140.962186 
L 150.086827 140.905694 
L 151.055428 141.012062 
L 152.641287 141.459976 
L 154.062734 142.14904 
L 155.563405 143.169091 
L 157.008901 144.432535 
L 158.686417 146.238841 
L 160.466342 148.546379 
L 162.176797 151.132679 
L 163.975011 154.228146 
L 166.213804 158.597223 
L 168.628457 163.911282 
L 171.067638 169.862104 
L 173.700612 176.873632 
L 176.514792 184.947824 
L 179.508746 194.067096 
L 183.899331 208.100534 
L 192.708337 236.455047 
L 196.321473 247.163645 
L 199.159543 254.782353 
L 201.364494 260.061894 
L 203.382582 264.29942 
L 205.156326 267.481608 
L 206.792476 269.910285 
L 208.093595 271.45975 
L 209.273341 272.548281 
L 210.405238 273.29061 
L 211.531671 273.717577 
L 212.569467 273.820046 
L 213.455329 273.675648 
L 214.379691 273.286906 
L 215.333398 272.620035 
L 216.389071 271.553109 
L 217.212484 270.471134 
L 218.344548 268.610793 
L 219.396068 266.479939 
L 220.741573 263.160288 
L 221.916628 259.690892 
L 223.309966 254.853375 
L 224.79451 248.791742 
L 226.210907 242.090412 
L 227.894268 232.89774 
L 229.541083 222.544271 
L 231.321367 209.753322 
L 233.101195 195.213837 
L 234.858231 179.048513 
L 236.739165 159.640292 
L 238.375385 140.898462 
L 238.375385 140.898462 
" clip-path="url(#pde660e5862)" style="fill: none; stroke: #0000ff; stroke-linecap: square"/>
   </g>
   <g id="patch_3">
    <path d="M 149.76 276.48 
L 149.76 138.24 
" style="fill: none; stroke: #000000; stroke-width: 0.8; stroke-linejoin: miter; stroke-linecap: square"/>
   </g>
   <g id="patch_4">
    <path d="M 57.6 207.360759 
L 241.92 207.360759 
" style="fill: none; stroke: #000000; stroke-width: 0.8; stroke-linejoin: miter; stroke-linecap: square"/>
   </g>
   <g id="text_9">
    <!-- n=4 -->
    <g transform="translate(139.220156 132.24) scale(0.1 -0.1)">
     <defs>
      <path id="DejaVuSans-6e" d="M 3513 2113 
L 3513 0 
L 2938 0 
L 2938 2094 
Q 2938 2591 2744 2837 
Q 2550 3084 2163 3084 
Q 1697 3084 1428 2787 
Q 1159 2491 1159 1978 
L 1159 0 
L 581 0 
L 581 3500 
L 1159 3500 
L 1159 2956 
Q 1366 3272 1645 3428 
Q 1925 3584 2291 3584 
Q 2894 3584 3203 3211 
Q 3513 2838 3513 2113 
z
" transform="scale(0.015625)"/>
      <path id="DejaVuSans-3d" d="M 678 2906 
L 4684 2906 
L 4684 2381 
L 678 2381 
L 678 2906 
z
M 678 1631 
L 4684 1631 
L 4684 1100 
L 678 1100 
L 678 1631 
z
" transform="scale(0.015625)"/>
      <path id="DejaVuSans-34" d="M 2419 4116 
L 825 1625 
L 2419 1625 
L 2419 4116 
z
M 2253 4666 
L 3047 4666 
L 3047 1625 
L 3713 1625 
L 3713 1100 
L 3047 1100 
L 3047 0 
L 2419 0 
L 2419 1100 
L 313 1100 
L 313 1709 
L 2253 4666 
z
" transform="scale(0.015625)"/>
     </defs>
     <use xlink:href="#DejaVuSans-6e"/>
     <use xlink:href="#DejaVuSans-3d" transform="translate(63.378906 0)"/>
     <use xlink:href="#DejaVuSans-34" transform="translate(147.167969 0)"/>
    </g>
   </g>
  </g>
  <g id="axes_2">
   <g id="patch_5">
    <path d="M 253.44 207.36 
L 437.76 207.36 
L 437.76 69.12 
L 253.44 69.12 
z
" style="fill: #ffffff"/>
   </g>
   <g id="matplotlib.axis_3">
    <g id="xtick_22">
     <g id="line2d_44">
      <g>
       <use xlink:href="#mb9219a3132" x="256.984615" y="138.240152" style="stroke: #000000; stroke-width: 0.8"/>
      </g>
     </g>
     <g id="text_10">
      <!-- −1.0 -->
      <g transform="translate(244.843209 152.83859) scale(0.1 -0.1)">
       <use xlink:href="#DejaVuSans-2212"/>
       <use xlink:href="#DejaVuSans-31" transform="translate(83.789062 0)"/>
       <use xlink:href="#DejaVuSans-2e" transform="translate(147.412109 0)"/>
       <use xlink:href="#DejaVuSans-30" transform="translate(179.199219 0)"/>
      </g>
     </g>
    </g>
    <g id="xtick_23">
     <g id="line2d_45">
      <g>
       <use xlink:href="#mb9219a3132" x="301.292308" y="138.240152" style="stroke: #000000; stroke-width: 0.8"/>
      </g>
     </g>
     <g id="text_11">
      <!-- −0.5 -->
      <g transform="translate(289.150901 152.83859) scale(0.1 -0.1)">
       <use xlink:href="#DejaVuSans-2212"/>
       <use xlink:href="#DejaVuSans-30" transform="translate(83.789062 0)"/>
       <use xlink:href="#DejaVuSans-2e" transform="translate(147.412109 0)"/>
       <use xlink:href="#DejaVuSans-35" transform="translate(179.199219 0)"/>
      </g>
     </g>
    </g>
    <g id="xtick_24">
     <g id="line2d_46">
      <g>
       <use xlink:href="#mb9219a3132" x="345.6" y="138.240152" style="stroke: #000000; stroke-width: 0.8"/>
      </g>
     </g>
    </g>
    <g id="xtick_25">
     <g id="line2d_47">
      <g>
       <use xlink:href="#mb9219a3132" x="389.907692" y="138.240152" style="stroke: #000000; stroke-width: 0.8"/>
      </g>
     </g>
     <g id="text_12">
      <!-- 0.5 -->
      <g transform="translate(381.95613 152.83859) scale(0.1 -0.1)">
       <use xlink:href="#DejaVuSans-30"/>
       <use xlink:href="#DejaVuSans-2e" transform="translate(63.623047 0)"/>
       <use xlink:href="#DejaVuSans-35" transform="translate(95.410156 0)"/>
      </g>
     </g>
    </g>
    <g id="xtick_26">
     <g id="line2d_48">
      <g>
       <use xlink:href="#mb9219a3132" x="434.215385" y="138.240152" style="stroke: #000000; stroke-width: 0.8"/>
      </g>
     </g>
     <g id="text_13">
      <!-- 1.0 -->
      <g transform="translate(426.263822 152.83859) scale(0.1 -0.1)">
       <use xlink:href="#DejaVuSans-31"/>
       <use xlink:href="#DejaVuSans-2e" transform="translate(63.623047 0)"/>
       <use xlink:href="#DejaVuSans-30" transform="translate(95.410156 0)"/>
      </g>
     </g>
    </g>
    <g id="xtick_27">
     <g id="line2d_49">
      <g>
       <use xlink:href="#m6183b0d63a" x="265.846154" y="138.240152" style="stroke: #000000; stroke-width: 0.6"/>
      </g>
     </g>
    </g>
    <g id="xtick_28">
     <g id="line2d_50">
      <g>
       <use xlink:href="#m6183b0d63a" x="274.707692" y="138.240152" style="stroke: #000000; stroke-width: 0.6"/>
      </g>
     </g>
    </g>
    <g id="xtick_29">
     <g id="line2d_51">
      <g>
       <use xlink:href="#m6183b0d63a" x="283.569231" y="138.240152" style="stroke: #000000; stroke-width: 0.6"/>
      </g>
     </g>
    </g>
    <g id="xtick_30">
     <g id="line2d_52">
      <g>
       <use xlink:href="#m6183b0d63a" x="292.430769" y="138.240152" style="stroke: #000000; stroke-width: 0.6"/>
      </g>
     </g>
    </g>
    <g id="xtick_31">
     <g id="line2d_53">
      <g>
       <use xlink:href="#m6183b0d63a" x="310.153846" y="138.240152" style="stroke: #000000; stroke-width: 0.6"/>
      </g>
     </g>
    </g>
    <g id="xtick_32">
     <g id="line2d_54">
      <g>
       <use xlink:href="#m6183b0d63a" x="319.015385" y="138.240152" style="stroke: #000000; stroke-width: 0.6"/>
      </g>
     </g>
    </g>
    <g id="xtick_33">
     <g id="line2d_55">
      <g>
       <use xlink:href="#m6183b0d63a" x="327.876923" y="138.240152" style="stroke: #000000; stroke-width: 0.6"/>
      </g>
     </g>
    </g>
    <g id="xtick_34">
     <g id="line2d_56">
      <g>
       <use xlink:href="#m6183b0d63a" x="336.738462" y="138.240152" style="stroke: #000000; stroke-width: 0.6"/>
      </g>
     </g>
    </g>
    <g id="xtick_35">
     <g id="line2d_57">
      <g>
       <use xlink:href="#m6183b0d63a" x="354.461538" y="138.240152" style="stroke: #000000; stroke-width: 0.6"/>
      </g>
     </g>
    </g>
    <g id="xtick_36">
     <g id="line2d_58">
      <g>
       <use xlink:href="#m6183b0d63a" x="363.323077" y="138.240152" style="stroke: #000000; stroke-width: 0.6"/>
      </g>
     </g>
    </g>
    <g id="xtick_37">
     <g id="line2d_59">
      <g>
       <use xlink:href="#m6183b0d63a" x="372.184615" y="138.240152" style="stroke: #000000; stroke-width: 0.6"/>
      </g>
     </g>
    </g>
    <g id="xtick_38">
     <g id="line2d_60">
      <g>
       <use xlink:href="#m6183b0d63a" x="381.046154" y="138.240152" style="stroke: #000000; stroke-width: 0.6"/>
      </g>
     </g>
    </g>
    <g id="xtick_39">
     <g id="line2d_61">
      <g>
       <use xlink:href="#m6183b0d63a" x="398.769231" y="138.240152" style="stroke: #000000; stroke-width: 0.6"/>
      </g>
     </g>
    </g>
    <g id="xtick_40">
     <g id="line2d_62">
      <g>
       <use xlink:href="#m6183b0d63a" x="407.630769" y="138.240152" style="stroke: #000000; stroke-width: 0.6"/>
      </g>
     </g>
    </g>
    <g id="xtick_41">
     <g id="line2d_63">
      <g>
       <use xlink:href="#m6183b0d63a" x="416.492308" y="138.240152" style="stroke: #000000; stroke-width: 0.6"/>
      </g>
     </g>
    </g>
    <g id="xtick_42">
     <g id="line2d_64">
      <g>
       <use xlink:href="#m6183b0d63a" x="425.353846" y="138.240152" style="stroke: #000000; stroke-width: 0.6"/>
      </g>
     </g>
    </g>
   </g>
   <g id="matplotlib.axis_4">
    <g id="ytick_22">
     <g id="line2d_65">
      <g>
       <use xlink:href="#m64218f0cd9" x="345.6" y="204.701843" style="stroke: #000000; stroke-width: 0.8"/>
      </g>
     </g>
     <g id="text_14">
      <!-- −1.0 -->
      <g transform="translate(314.317188 208.501062) scale(0.1 -0.1)">
       <use xlink:href="#DejaVuSans-2212"/>
       <use xlink:href="#DejaVuSans-31" transform="translate(83.789062 0)"/>
       <use xlink:href="#DejaVuSans-2e" transform="translate(147.412109 0)"/>
       <use xlink:href="#DejaVuSans-30" transform="translate(179.199219 0)"/>
      </g>
     </g>
    </g>
    <g id="ytick_23">
     <g id="line2d_66">
      <g>
       <use xlink:href="#m64218f0cd9" x="345.6" y="171.470997" style="stroke: #000000; stroke-width: 0.8"/>
      </g>
     </g>
     <g id="text_15">
      <!-- −0.5 -->
      <g transform="translate(314.317188 175.270216) scale(0.1 -0.1)">
       <use xlink:href="#DejaVuSans-2212"/>
       <use xlink:href="#DejaVuSans-30" transform="translate(83.789062 0)"/>
       <use xlink:href="#DejaVuSans-2e" transform="translate(147.412109 0)"/>
       <use xlink:href="#DejaVuSans-35" transform="translate(179.199219 0)"/>
      </g>
     </g>
    </g>
    <g id="ytick_24">
     <g id="line2d_67">
      <g>
       <use xlink:href="#m64218f0cd9" x="345.6" y="138.240152" style="stroke: #000000; stroke-width: 0.8"/>
      </g>
     </g>
    </g>
    <g id="ytick_25">
     <g id="line2d_68">
      <g>
       <use xlink:href="#m64218f0cd9" x="345.6" y="105.009307" style="stroke: #000000; stroke-width: 0.8"/>
      </g>
     </g>
     <g id="text_16">
      <!-- 0.5 -->
      <g transform="translate(322.696875 108.808526) scale(0.1 -0.1)">
       <use xlink:href="#DejaVuSans-30"/>
       <use xlink:href="#DejaVuSans-2e" transform="translate(63.623047 0)"/>
       <use xlink:href="#DejaVuSans-35" transform="translate(95.410156 0)"/>
      </g>
     </g>
    </g>
    <g id="ytick_26">
     <g id="line2d_69">
      <g>
       <use xlink:href="#m64218f0cd9" x="345.6" y="71.778462" style="stroke: #000000; stroke-width: 0.8"/>
      </g>
     </g>
     <g id="text_17">
      <!-- 1.0 -->
      <g transform="translate(322.696875 75.57768) scale(0.1 -0.1)">
       <use xlink:href="#DejaVuSans-31"/>
       <use xlink:href="#DejaVuSans-2e" transform="translate(63.623047 0)"/>
       <use xlink:href="#DejaVuSans-30" transform="translate(95.410156 0)"/>
      </g>
     </g>
    </g>
    <g id="ytick_27">
     <g id="line2d_70">
      <g>
       <use xlink:href="#m0de669e96b" x="345.6" y="198.055674" style="stroke: #000000; stroke-width: 0.6"/>
      </g>
     </g>
    </g>
    <g id="ytick_28">
     <g id="line2d_71">
      <g>
       <use xlink:href="#m0de669e96b" x="345.6" y="191.409505" style="stroke: #000000; stroke-width: 0.6"/>
      </g>
     </g>
    </g>
    <g id="ytick_29">
     <g id="line2d_72">
      <g>
       <use xlink:href="#m0de669e96b" x="345.6" y="184.763336" style="stroke: #000000; stroke-width: 0.6"/>
      </g>
     </g>
    </g>
    <g id="ytick_30">
     <g id="line2d_73">
      <g>
       <use xlink:href="#m0de669e96b" x="345.6" y="178.117167" style="stroke: #000000; stroke-width: 0.6"/>
      </g>
     </g>
    </g>
    <g id="ytick_31">
     <g id="line2d_74">
      <g>
       <use xlink:href="#m0de669e96b" x="345.6" y="164.824828" style="stroke: #000000; stroke-width: 0.6"/>
      </g>
     </g>
    </g>
    <g id="ytick_32">
     <g id="line2d_75">
      <g>
       <use xlink:href="#m0de669e96b" x="345.6" y="158.178659" style="stroke: #000000; stroke-width: 0.6"/>
      </g>
     </g>
    </g>
    <g id="ytick_33">
     <g id="line2d_76">
      <g>
       <use xlink:href="#m0de669e96b" x="345.6" y="151.53249" style="stroke: #000000; stroke-width: 0.6"/>
      </g>
     </g>
    </g>
    <g id="ytick_34">
     <g id="line2d_77">
      <g>
       <use xlink:href="#m0de669e96b" x="345.6" y="144.886321" style="stroke: #000000; stroke-width: 0.6"/>
      </g>
     </g>
    </g>
    <g id="ytick_35">
     <g id="line2d_78">
      <g>
       <use xlink:href="#m0de669e96b" x="345.6" y="131.593983" style="stroke: #000000; stroke-width: 0.6"/>
      </g>
     </g>
    </g>
    <g id="ytick_36">
     <g id="line2d_79">
      <g>
       <use xlink:href="#m0de669e96b" x="345.6" y="124.947814" style="stroke: #000000; stroke-width: 0.6"/>
      </g>
     </g>
    </g>
    <g id="ytick_37">
     <g id="line2d_80">
      <g>
       <use xlink:href="#m0de669e96b" x="345.6" y="118.301645" style="stroke: #000000; stroke-width: 0.6"/>
      </g>
     </g>
    </g>
    <g id="ytick_38">
     <g id="line2d_81">
      <g>
       <use xlink:href="#m0de669e96b" x="345.6" y="111.655476" style="stroke: #000000; stroke-width: 0.6"/>
      </g>
     </g>
    </g>
    <g id="ytick_39">
     <g id="line2d_82">
      <g>
       <use xlink:href="#m0de669e96b" x="345.6" y="98.363138" style="stroke: #000000; stroke-width: 0.6"/>
      </g>
     </g>
    </g>
    <g id="ytick_40">
     <g id="line2d_83">
      <g>
       <use xlink:href="#m0de669e96b" x="345.6" y="91.716969" style="stroke: #000000; stroke-width: 0.6"/>
      </g>
     </g>
    </g>
    <g id="ytick_41">
     <g id="line2d_84">
      <g>
       <use xlink:href="#m0de669e96b" x="345.6" y="85.0708" style="stroke: #000000; stroke-width: 0.6"/>
      </g>
     </g>
    </g>
    <g id="ytick_42">
     <g id="line2d_85">
      <g>
       <use xlink:href="#m0de669e96b" x="345.6" y="78.424631" style="stroke: #000000; stroke-width: 0.6"/>
      </g>
     </g>
    </g>
   </g>
   <g id="line2d_86">
    <path d="M 256.984615 71.778462 
L 257.987448 114.447979 
L 258.910151 144.873276 
L 259.798957 167.196704 
L 260.631561 182.676212 
L 261.354991 192.3848 
L 262.012398 198.545548 
L 262.582986 202.063304 
L 263.091261 203.912244 
L 263.503736 204.605577 
L 263.813092 204.689168 
L 264.122448 204.424965 
L 264.431805 203.835743 
L 264.902824 202.36379 
L 265.550243 199.329385 
L 266.311017 194.488815 
L 267.243917 187.046046 
L 268.482015 175.314923 
L 270.382871 155.054765 
L 273.714299 119.602929 
L 275.306839 104.922719 
L 276.62854 94.513921 
L 277.931545 86.064485 
L 278.954893 80.77631 
L 279.851822 77.144769 
L 280.677997 74.634047 
L 281.396476 73.096732 
L 281.996436 72.266992 
L 282.447521 71.910546 
L 282.869725 71.781099 
L 283.344542 71.866756 
L 283.871971 72.242094 
L 284.489469 73.04481 
L 285.101444 74.212461 
L 285.847762 76.113887 
L 286.709775 78.923392 
L 287.774772 83.226651 
L 289.048412 89.441071 
L 290.481574 97.600339 
L 292.205995 108.674159 
L 295.072164 128.86499 
L 299.426311 159.630392 
L 301.594266 173.263981 
L 303.4143 183.20603 
L 304.859429 189.915569 
L 306.276061 195.356503 
L 307.437227 198.921086 
L 308.419066 201.281014 
L 309.29148 202.864475 
L 309.970823 203.759694 
L 310.689656 204.383991 
L 311.334023 204.661936 
L 311.98195 204.674535 
L 312.658013 204.40517 
L 313.328489 203.856989 
L 314.134231 202.835045 
L 314.973386 201.360098 
L 315.810915 199.484206 
L 316.867882 196.566476 
L 318.075421 192.52666 
L 319.378981 187.389965 
L 321.11516 179.448289 
L 322.79706 170.756331 
L 325.186173 157.169887 
L 334.059402 104.872976 
L 335.950107 95.531484 
L 337.665337 88.15505 
L 339.111489 82.877737 
L 340.465526 78.799201 
L 341.632303 75.999497 
L 342.632079 74.150762 
L 343.532929 72.93253 
L 344.235899 72.281825 
L 344.866094 71.924288 
L 345.552712 71.779067 
L 346.188117 71.872117 
L 346.862625 72.209793 
L 347.602853 72.862118 
L 348.366391 73.841047 
L 349.12072 75.109147 
L 350.100726 77.194152 
L 351.158706 79.983407 
L 352.345107 83.746798 
L 353.703663 88.830192 
L 355.210064 95.347573 
L 357.078716 104.549656 
L 359.361081 117.117359 
L 362.116257 133.527005 
L 367.379135 165.081093 
L 369.667128 177.372545 
L 371.382775 185.496922 
L 372.969838 191.957492 
L 374.441576 196.896192 
L 375.417675 199.554722 
L 376.472514 201.834928 
L 377.41258 203.322946 
L 378.154663 204.122337 
L 378.883437 204.577056 
L 379.444321 204.700405 
L 380.005206 204.624366 
L 380.604427 204.321157 
L 381.225706 203.763507 
L 381.906618 202.867396 
L 382.720176 201.407024 
L 383.654767 199.210343 
L 384.750972 195.939647 
L 385.794428 192.15136 
L 387.116451 186.45246 
L 388.661669 178.614679 
L 390.36629 168.677582 
L 392.428701 155.211123 
L 395.013485 136.930041 
L 399.330246 106.428142 
L 401.160997 94.964447 
L 402.698471 86.640926 
L 403.990216 80.834695 
L 405.143997 76.734103 
L 406.094306 74.221828 
L 406.784062 72.929129 
L 407.379924 72.192311 
L 407.978248 71.821428 
L 408.427608 71.79362 
L 408.833962 71.958142 
L 409.241417 72.307274 
L 409.852598 73.182777 
L 410.46378 74.487188 
L 411.270872 76.875934 
L 412.182891 80.494001 
L 413.15313 85.408229 
L 414.231247 92.127578 
L 415.497545 101.624237 
L 416.893605 113.901265 
L 418.570238 130.66156 
L 424.169243 188.871556 
L 425.226388 196.789571 
L 426.052273 201.345585 
L 426.633474 203.483161 
L 427.117809 204.47822 
L 427.40841 204.694872 
L 427.698694 204.603482 
L 427.956584 204.248491 
L 428.326515 203.260173 
L 428.784704 201.194603 
L 429.301709 197.644841 
L 429.850989 192.317609 
L 430.503448 183.683612 
L 431.198835 171.411817 
L 431.987022 153.202328 
L 432.835604 127.834303 
L 433.720486 94.17142 
L 434.215385 71.778462 
L 434.215385 71.778462 
" clip-path="url(#p9bf231192f)" style="fill: none; stroke: #ff0000; stroke-linecap: square"/>
   </g>
   <g id="patch_6">
    <path d="M 345.6 207.36 
L 345.6 69.12 
" style="fill: none; stroke: #000000; stroke-width: 0.8; stroke-linejoin: miter; stroke-linecap: square"/>
   </g>
   <g id="patch_7">
    <path d="M 253.44 138.240152 
L 437.76 138.240152 
" style="fill: none; stroke: #000000; stroke-width: 0.8; stroke-linejoin: miter; stroke-linecap: square"/>
   </g>
   <g id="text_18">
    <!-- n=8 -->
    <g transform="translate(335.060156 63.12) scale(0.1 -0.1)">
     <defs>
      <path id="DejaVuSans-38" d="M 2034 2216 
Q 1584 2216 1326 1975 
Q 1069 1734 1069 1313 
Q 1069 891 1326 650 
Q 1584 409 2034 409 
Q 2484 409 2743 651 
Q 3003 894 3003 1313 
Q 3003 1734 2745 1975 
Q 2488 2216 2034 2216 
z
M 1403 2484 
Q 997 2584 770 2862 
Q 544 3141 544 3541 
Q 544 4100 942 4425 
Q 1341 4750 2034 4750 
Q 2731 4750 3128 4425 
Q 3525 4100 3525 3541 
Q 3525 3141 3298 2862 
Q 3072 2584 2669 2484 
Q 3125 2378 3379 2068 
Q 3634 1759 3634 1313 
Q 3634 634 3220 271 
Q 2806 -91 2034 -91 
Q 1263 -91 848 271 
Q 434 634 434 1313 
Q 434 1759 690 2068 
Q 947 2378 1403 2484 
z
M 1172 3481 
Q 1172 3119 1398 2916 
Q 1625 2713 2034 2713 
Q 2441 2713 2670 2916 
Q 2900 3119 2900 3481 
Q 2900 3844 2670 4047 
Q 2441 4250 2034 4250 
Q 1625 4250 1398 4047 
Q 1172 3844 1172 3481 
z
" transform="scale(0.015625)"/>
     </defs>
     <use xlink:href="#DejaVuSans-6e"/>
     <use xlink:href="#DejaVuSans-3d" transform="translate(63.378906 0)"/>
     <use xlink:href="#DejaVuSans-38" transform="translate(147.167969 0)"/>
    </g>
   </g>
  </g>
  <g id="axes_3">
   <g id="patch_8">
    <path d="M 253.44 307.584 
L 437.76 307.584 
L 437.76 255.744 
L 253.44 255.744 
z
" style="fill: #ffffff"/>
   </g>
   <g id="matplotlib.axis_5">
    <g id="xtick_43">
     <g id="line2d_87">
      <g>
       <use xlink:href="#mb9219a3132" x="256.984615" y="281.664" style="stroke: #000000; stroke-width: 0.8"/>
      </g>
     </g>
     <g id="text_19">
      <!-- −1.0 -->
      <g transform="translate(244.843209 296.262438) scale(0.1 -0.1)">
       <use xlink:href="#DejaVuSans-2212"/>
       <use xlink:href="#DejaVuSans-31" transform="translate(83.789062 0)"/>
       <use xlink:href="#DejaVuSans-2e" transform="translate(147.412109 0)"/>
       <use xlink:href="#DejaVuSans-30" transform="translate(179.199219 0)"/>
      </g>
     </g>
    </g>
    <g id="xtick_44">
     <g id="line2d_88">
      <g>
       <use xlink:href="#mb9219a3132" x="301.292308" y="281.664" style="stroke: #000000; stroke-width: 0.8"/>
      </g>
     </g>
     <g id="text_20">
      <!-- −0.5 -->
      <g transform="translate(289.150901 296.262438) scale(0.1 -0.1)">
       <use xlink:href="#DejaVuSans-2212"/>
       <use xlink:href="#DejaVuSans-30" transform="translate(83.789062 0)"/>
       <use xlink:href="#DejaVuSans-2e" transform="translate(147.412109 0)"/>
       <use xlink:href="#DejaVuSans-35" transform="translate(179.199219 0)"/>
      </g>
     </g>
    </g>
    <g id="xtick_45">
     <g id="line2d_89">
      <g>
       <use xlink:href="#mb9219a3132" x="345.6" y="281.664" style="stroke: #000000; stroke-width: 0.8"/>
      </g>
     </g>
    </g>
    <g id="xtick_46">
     <g id="line2d_90">
      <g>
       <use xlink:href="#mb9219a3132" x="389.907692" y="281.664" style="stroke: #000000; stroke-width: 0.8"/>
      </g>
     </g>
     <g id="text_21">
      <!-- 0.5 -->
      <g transform="translate(381.95613 296.262438) scale(0.1 -0.1)">
       <use xlink:href="#DejaVuSans-30"/>
       <use xlink:href="#DejaVuSans-2e" transform="translate(63.623047 0)"/>
       <use xlink:href="#DejaVuSans-35" transform="translate(95.410156 0)"/>
      </g>
     </g>
    </g>
    <g id="xtick_47">
     <g id="line2d_91">
      <g>
       <use xlink:href="#mb9219a3132" x="434.215385" y="281.664" style="stroke: #000000; stroke-width: 0.8"/>
      </g>
     </g>
     <g id="text_22">
      <!-- 1.0 -->
      <g transform="translate(426.263822 296.262438) scale(0.1 -0.1)">
       <use xlink:href="#DejaVuSans-31"/>
       <use xlink:href="#DejaVuSans-2e" transform="translate(63.623047 0)"/>
       <use xlink:href="#DejaVuSans-30" transform="translate(95.410156 0)"/>
      </g>
     </g>
    </g>
    <g id="xtick_48">
     <g id="line2d_92">
      <g>
       <use xlink:href="#m6183b0d63a" x="265.846154" y="281.664" style="stroke: #000000; stroke-width: 0.6"/>
      </g>
     </g>
    </g>
    <g id="xtick_49">
     <g id="line2d_93">
      <g>
       <use xlink:href="#m6183b0d63a" x="274.707692" y="281.664" style="stroke: #000000; stroke-width: 0.6"/>
      </g>
     </g>
    </g>
    <g id="xtick_50">
     <g id="line2d_94">
      <g>
       <use xlink:href="#m6183b0d63a" x="283.569231" y="281.664" style="stroke: #000000; stroke-width: 0.6"/>
      </g>
     </g>
    </g>
    <g id="xtick_51">
     <g id="line2d_95">
      <g>
       <use xlink:href="#m6183b0d63a" x="292.430769" y="281.664" style="stroke: #000000; stroke-width: 0.6"/>
      </g>
     </g>
    </g>
    <g id="xtick_52">
     <g id="line2d_96">
      <g>
       <use xlink:href="#m6183b0d63a" x="310.153846" y="281.664" style="stroke: #000000; stroke-width: 0.6"/>
      </g>
     </g>
    </g>
    <g id="xtick_53">
     <g id="line2d_97">
      <g>
       <use xlink:href="#m6183b0d63a" x="319.015385" y="281.664" style="stroke: #000000; stroke-width: 0.6"/>
      </g>
     </g>
    </g>
    <g id="xtick_54">
     <g id="line2d_98">
      <g>
       <use xlink:href="#m6183b0d63a" x="327.876923" y="281.664" style="stroke: #000000; stroke-width: 0.6"/>
      </g>
     </g>
    </g>
    <g id="xtick_55">
     <g id="line2d_99">
      <g>
       <use xlink:href="#m6183b0d63a" x="336.738462" y="281.664" style="stroke: #000000; stroke-width: 0.6"/>
      </g>
     </g>
    </g>
    <g id="xtick_56">
     <g id="line2d_100">
      <g>
       <use xlink:href="#m6183b0d63a" x="354.461538" y="281.664" style="stroke: #000000; stroke-width: 0.6"/>
      </g>
     </g>
    </g>
    <g id="xtick_57">
     <g id="line2d_101">
      <g>
       <use xlink:href="#m6183b0d63a" x="363.323077" y="281.664" style="stroke: #000000; stroke-width: 0.6"/>
      </g>
     </g>
    </g>
    <g id="xtick_58">
     <g id="line2d_102">
      <g>
       <use xlink:href="#m6183b0d63a" x="372.184615" y="281.664" style="stroke: #000000; stroke-width: 0.6"/>
      </g>
     </g>
    </g>
    <g id="xtick_59">
     <g id="line2d_103">
      <g>
       <use xlink:href="#m6183b0d63a" x="381.046154" y="281.664" style="stroke: #000000; stroke-width: 0.6"/>
      </g>
     </g>
    </g>
    <g id="xtick_60">
     <g id="line2d_104">
      <g>
       <use xlink:href="#m6183b0d63a" x="398.769231" y="281.664" style="stroke: #000000; stroke-width: 0.6"/>
      </g>
     </g>
    </g>
    <g id="xtick_61">
     <g id="line2d_105">
      <g>
       <use xlink:href="#m6183b0d63a" x="407.630769" y="281.664" style="stroke: #000000; stroke-width: 0.6"/>
      </g>
     </g>
    </g>
    <g id="xtick_62">
     <g id="line2d_106">
      <g>
       <use xlink:href="#m6183b0d63a" x="416.492308" y="281.664" style="stroke: #000000; stroke-width: 0.6"/>
      </g>
     </g>
    </g>
    <g id="xtick_63">
     <g id="line2d_107">
      <g>
       <use xlink:href="#m6183b0d63a" x="425.353846" y="281.664" style="stroke: #000000; stroke-width: 0.6"/>
      </g>
     </g>
    </g>
   </g>
   <g id="matplotlib.axis_6">
    <g id="ytick_43">
     <g id="line2d_108">
      <g>
       <use xlink:href="#m64218f0cd9" x="345.6" y="306.587078" style="stroke: #000000; stroke-width: 0.8"/>
      </g>
     </g>
     <g id="text_23">
      <!-- −1.0 -->
      <g transform="translate(314.317188 310.386297) scale(0.1 -0.1)">
       <use xlink:href="#DejaVuSans-2212"/>
       <use xlink:href="#DejaVuSans-31" transform="translate(83.789062 0)"/>
       <use xlink:href="#DejaVuSans-2e" transform="translate(147.412109 0)"/>
       <use xlink:href="#DejaVuSans-30" transform="translate(179.199219 0)"/>
      </g>
     </g>
    </g>
    <g id="ytick_44">
     <g id="line2d_109">
      <g>
       <use xlink:href="#m64218f0cd9" x="345.6" y="294.125539" style="stroke: #000000; stroke-width: 0.8"/>
      </g>
     </g>
     <g id="text_24">
      <!-- −0.5 -->
      <g transform="translate(314.317188 297.924758) scale(0.1 -0.1)">
       <use xlink:href="#DejaVuSans-2212"/>
       <use xlink:href="#DejaVuSans-30" transform="translate(83.789062 0)"/>
       <use xlink:href="#DejaVuSans-2e" transform="translate(147.412109 0)"/>
       <use xlink:href="#DejaVuSans-35" transform="translate(179.199219 0)"/>
      </g>
     </g>
    </g>
    <g id="ytick_45">
     <g id="line2d_110">
      <g>
       <use xlink:href="#m64218f0cd9" x="345.6" y="281.664" style="stroke: #000000; stroke-width: 0.8"/>
      </g>
     </g>
    </g>
    <g id="ytick_46">
     <g id="line2d_111">
      <g>
       <use xlink:href="#m64218f0cd9" x="345.6" y="269.202462" style="stroke: #000000; stroke-width: 0.8"/>
      </g>
     </g>
     <g id="text_25">
      <!-- 0.5 -->
      <g transform="translate(322.696875 273.001681) scale(0.1 -0.1)">
       <use xlink:href="#DejaVuSans-30"/>
       <use xlink:href="#DejaVuSans-2e" transform="translate(63.623047 0)"/>
       <use xlink:href="#DejaVuSans-35" transform="translate(95.410156 0)"/>
      </g>
     </g>
    </g>
    <g id="ytick_47">
     <g id="line2d_112">
      <g>
       <use xlink:href="#m64218f0cd9" x="345.6" y="256.740923" style="stroke: #000000; stroke-width: 0.8"/>
      </g>
     </g>
     <g id="text_26">
      <!-- 1.0 -->
      <g transform="translate(322.696875 260.540142) scale(0.1 -0.1)">
       <use xlink:href="#DejaVuSans-31"/>
       <use xlink:href="#DejaVuSans-2e" transform="translate(63.623047 0)"/>
       <use xlink:href="#DejaVuSans-30" transform="translate(95.410156 0)"/>
      </g>
     </g>
    </g>
    <g id="ytick_48">
     <g id="line2d_113">
      <g>
       <use xlink:href="#m0de669e96b" x="345.6" y="304.09477" style="stroke: #000000; stroke-width: 0.6"/>
      </g>
     </g>
    </g>
    <g id="ytick_49">
     <g id="line2d_114">
      <g>
       <use xlink:href="#m0de669e96b" x="345.6" y="301.602462" style="stroke: #000000; stroke-width: 0.6"/>
      </g>
     </g>
    </g>
    <g id="ytick_50">
     <g id="line2d_115">
      <g>
       <use xlink:href="#m0de669e96b" x="345.6" y="299.110155" style="stroke: #000000; stroke-width: 0.6"/>
      </g>
     </g>
    </g>
    <g id="ytick_51">
     <g id="line2d_116">
      <g>
       <use xlink:href="#m0de669e96b" x="345.6" y="296.617847" style="stroke: #000000; stroke-width: 0.6"/>
      </g>
     </g>
    </g>
    <g id="ytick_52">
     <g id="line2d_117">
      <g>
       <use xlink:href="#m0de669e96b" x="345.6" y="291.633231" style="stroke: #000000; stroke-width: 0.6"/>
      </g>
     </g>
    </g>
    <g id="ytick_53">
     <g id="line2d_118">
      <g>
       <use xlink:href="#m0de669e96b" x="345.6" y="289.140924" style="stroke: #000000; stroke-width: 0.6"/>
      </g>
     </g>
    </g>
    <g id="ytick_54">
     <g id="line2d_119">
      <g>
       <use xlink:href="#m0de669e96b" x="345.6" y="286.648616" style="stroke: #000000; stroke-width: 0.6"/>
      </g>
     </g>
    </g>
    <g id="ytick_55">
     <g id="line2d_120">
      <g>
       <use xlink:href="#m0de669e96b" x="345.6" y="284.156308" style="stroke: #000000; stroke-width: 0.6"/>
      </g>
     </g>
    </g>
    <g id="ytick_56">
     <g id="line2d_121">
      <g>
       <use xlink:href="#m0de669e96b" x="345.6" y="279.171693" style="stroke: #000000; stroke-width: 0.6"/>
      </g>
     </g>
    </g>
    <g id="ytick_57">
     <g id="line2d_122">
      <g>
       <use xlink:href="#m0de669e96b" x="345.6" y="276.679385" style="stroke: #000000; stroke-width: 0.6"/>
      </g>
     </g>
    </g>
    <g id="ytick_58">
     <g id="line2d_123">
      <g>
       <use xlink:href="#m0de669e96b" x="345.6" y="274.187077" style="stroke: #000000; stroke-width: 0.6"/>
      </g>
     </g>
    </g>
    <g id="ytick_59">
     <g id="line2d_124">
      <g>
       <use xlink:href="#m0de669e96b" x="345.6" y="271.69477" style="stroke: #000000; stroke-width: 0.6"/>
      </g>
     </g>
    </g>
    <g id="ytick_60">
     <g id="line2d_125">
      <g>
       <use xlink:href="#m0de669e96b" x="345.6" y="266.710154" style="stroke: #000000; stroke-width: 0.6"/>
      </g>
     </g>
    </g>
    <g id="ytick_61">
     <g id="line2d_126">
      <g>
       <use xlink:href="#m0de669e96b" x="345.6" y="264.217846" style="stroke: #000000; stroke-width: 0.6"/>
      </g>
     </g>
    </g>
    <g id="ytick_62">
     <g id="line2d_127">
      <g>
       <use xlink:href="#m0de669e96b" x="345.6" y="261.725539" style="stroke: #000000; stroke-width: 0.6"/>
      </g>
     </g>
    </g>
    <g id="ytick_63">
     <g id="line2d_128">
      <g>
       <use xlink:href="#m0de669e96b" x="345.6" y="259.233231" style="stroke: #000000; stroke-width: 0.6"/>
      </g>
     </g>
    </g>
   </g>
   <g id="line2d_129">
    <path d="M 256.984615 256.740923 
L 257.481922 284.773404 
L 257.925116 298.876716 
L 258.305867 304.853317 
L 258.576597 306.451911 
L 258.700883 306.585127 
L 258.742311 306.55533 
L 258.908026 306.099691 
L 259.156599 304.539582 
L 259.570886 300.178162 
L 260.279573 289.870959 
L 261.715903 268.859275 
L 262.395862 262.018197 
L 262.935019 258.578587 
L 263.342043 257.169315 
L 263.624845 256.771858 
L 263.813381 256.760066 
L 264.04905 257.01646 
L 264.378986 257.849855 
L 264.818881 259.735961 
L 265.408612 263.425164 
L 266.205453 269.931845 
L 269.501339 298.716022 
L 270.294489 303.017865 
L 270.927077 305.263185 
L 271.400835 306.228859 
L 271.788455 306.564561 
L 272.046869 306.565644 
L 272.384228 306.306686 
L 272.769212 305.665141 
L 273.263508 304.334602 
L 273.850227 302.087023 
L 274.682522 297.855456 
L 275.819641 290.663996 
L 279.490489 266.30571 
L 280.424654 261.910363 
L 281.178683 259.289383 
L 281.844768 257.725526 
L 282.358767 257.016968 
L 282.801764 256.756361 
L 283.181036 256.788143 
L 283.55159 257.041832 
L 283.989281 257.616605 
L 284.528393 258.715591 
L 285.168926 260.542628 
L 286.005553 263.683536 
L 287.021392 268.430286 
L 288.500201 276.53422 
L 291.544246 293.580391 
L 292.736377 298.985535 
L 293.725838 302.498791 
L 294.560056 304.659303 
L 295.225372 305.815863 
L 295.782955 306.38519 
L 296.283589 306.582895 
L 296.698798 306.522968 
L 297.19705 306.187188 
L 297.676877 305.598553 
L 298.253632 304.560192 
L 298.982132 302.76405 
L 299.815 300.111754 
L 300.827463 296.159051 
L 302.266393 289.533472 
L 306.951038 266.919221 
L 308.164483 262.524147 
L 309.084598 259.941093 
L 309.895069 258.269935 
L 310.589704 257.31644 
L 311.168135 256.869962 
L 311.689764 256.740924 
L 312.164915 256.848677 
L 312.732843 257.25568 
L 313.331697 258.005016 
L 313.951909 259.113958 
L 314.711326 260.905496 
L 315.681131 263.821581 
L 316.792757 267.897723 
L 318.318656 274.424101 
L 323.346851 296.766632 
L 324.538456 300.759408 
L 325.467859 303.225594 
L 326.328216 304.935754 
L 327.02996 305.894081 
L 327.711811 306.434891 
L 328.273426 306.58645 
L 328.761353 306.501937 
L 329.289683 306.185358 
L 329.89189 305.543969 
L 330.569068 304.476644 
L 331.353097 302.806342 
L 332.325106 300.141329 
L 333.481807 296.227991 
L 334.93116 290.44857 
L 337.312623 279.864262 
L 339.690346 269.650049 
L 341.14057 264.39879 
L 342.257561 261.145445 
L 343.232018 258.984941 
L 344.055772 257.70352 
L 344.70344 257.066773 
L 345.29579 256.77851 
L 345.825228 256.761528 
L 346.342746 256.964709 
L 346.878224 257.401782 
L 347.498024 258.190389 
L 348.315698 259.678375 
L 349.157778 261.711314 
L 350.100101 264.531418 
L 351.366406 269.088139 
L 352.94774 275.676891 
L 357.683192 296.098673 
L 358.99914 300.516077 
L 360.001755 303.171705 
L 360.895224 304.935836 
L 361.625398 305.918721 
L 362.241214 306.41087 
L 362.75272 306.579351 
L 363.264226 306.527273 
L 363.766566 306.261143 
L 364.399188 305.625427 
L 365.087322 304.561555 
L 365.869142 302.901098 
L 366.76051 300.461516 
L 367.808255 296.932118 
L 369.071583 291.901197 
L 370.72289 284.480214 
L 374.123105 269.043834 
L 375.493084 263.907861 
L 376.520699 260.820796 
L 377.40674 258.798998 
L 378.15184 257.609963 
L 378.791051 256.986764 
L 379.371369 256.750281 
L 379.883649 256.806886 
L 380.358007 257.082562 
L 380.867626 257.617011 
L 381.475321 258.572162 
L 382.197546 260.142888 
L 382.996746 262.401443 
L 384.006317 265.959507 
L 385.286131 271.403869 
L 387.172186 280.640322 
L 390.002238 294.548697 
L 391.328935 299.912381 
L 392.361433 303.158717 
L 393.156003 304.978284 
L 393.786613 305.953494 
L 394.351741 306.452211 
L 394.821066 306.587007 
L 395.290391 306.463228 
L 395.744284 306.095605 
L 396.277446 305.353256 
L 396.890478 304.091798 
L 397.650572 301.945009 
L 398.493905 298.863032 
L 399.483586 294.428947 
L 400.829396 287.329868 
L 404.967492 264.664618 
L 405.95151 260.806401 
L 406.709078 258.625787 
L 407.31094 257.459266 
L 407.776427 256.929653 
L 408.16413 256.748463 
L 408.567148 256.817643 
L 408.970166 257.153647 
L 409.473938 257.951172 
L 410.005688 259.24446 
L 410.699821 261.608724 
L 411.489232 265.163774 
L 412.501122 270.8758 
L 413.829327 279.747133 
L 416.431773 297.361682 
L 417.399521 302.303399 
L 418.041876 304.66377 
L 418.595743 305.983989 
L 418.992318 306.478421 
L 419.312899 306.585737 
L 419.63348 306.421956 
L 419.989985 305.913835 
L 420.400377 304.89838 
L 420.892847 303.073403 
L 421.54145 299.693545 
L 422.319527 294.309309 
L 423.38061 285.166775 
L 425.890484 262.725409 
L 426.555191 258.891098 
L 427.027535 257.265589 
L 427.354542 256.777555 
L 427.58233 256.776238 
L 427.78846 257.028387 
L 428.077042 257.802592 
L 428.449846 259.554712 
L 428.901506 262.830714 
L 429.463192 268.610076 
L 430.244671 279.288715 
L 431.976694 303.968653 
L 432.354712 306.332773 
L 432.53472 306.581852 
L 432.642426 306.400462 
L 432.821837 305.471531 
L 433.061051 302.829746 
L 433.360069 296.826694 
L 433.730142 284.260523 
L 434.149215 261.355814 
L 434.215385 256.740923 
L 434.215385 256.740923 
" clip-path="url(#p1dc6bfe0a7)" style="fill: none; stroke: #a52a2a; stroke-linecap: square"/>
   </g>
   <g id="patch_9">
    <path d="M 345.6 307.584 
L 345.6 255.744 
" style="fill: none; stroke: #000000; stroke-width: 0.8; stroke-linejoin: miter; stroke-linecap: square"/>
   </g>
   <g id="patch_10">
    <path d="M 253.44 281.664 
L 437.76 281.664 
" style="fill: none; stroke: #000000; stroke-width: 0.8; stroke-linejoin: miter; stroke-linecap: square"/>
   </g>
   <g id="text_27">
    <!-- n=16 -->
    <g transform="translate(331.878906 249.744) scale(0.1 -0.1)">
     <defs>
      <path id="DejaVuSans-36" d="M 2113 2584 
Q 1688 2584 1439 2293 
Q 1191 2003 1191 1497 
Q 1191 994 1439 701 
Q 1688 409 2113 409 
Q 2538 409 2786 701 
Q 3034 994 3034 1497 
Q 3034 2003 2786 2293 
Q 2538 2584 2113 2584 
z
M 3366 4563 
L 3366 3988 
Q 3128 4100 2886 4159 
Q 2644 4219 2406 4219 
Q 1781 4219 1451 3797 
Q 1122 3375 1075 2522 
Q 1259 2794 1537 2939 
Q 1816 3084 2150 3084 
Q 2853 3084 3261 2657 
Q 3669 2231 3669 1497 
Q 3669 778 3244 343 
Q 2819 -91 2113 -91 
Q 1303 -91 875 529 
Q 447 1150 447 2328 
Q 447 3434 972 4092 
Q 1497 4750 2381 4750 
Q 2619 4750 2861 4703 
Q 3103 4656 3366 4563 
z
" transform="scale(0.015625)"/>
     </defs>
     <use xlink:href="#DejaVuSans-6e"/>
     <use xlink:href="#DejaVuSans-3d" transform="translate(63.378906 0)"/>
     <use xlink:href="#DejaVuSans-31" transform="translate(147.167969 0)"/>
     <use xlink:href="#DejaVuSans-36" transform="translate(210.791016 0)"/>
    </g>
   </g>
  </g>
  <g id="axes_4">
   <g id="patch_11">
    <path d="M 82.944 69.12 
L 405.504 69.12 
L 405.504 34.56 
L 82.944 34.56 
z
" style="fill: #ffffff"/>
   </g>
   <g id="matplotlib.axis_7"/>
   <g id="matplotlib.axis_8"/>
   <g id="text_28">
    <!-- Chebyshev polynomials -->
    <g style="fill: #0000ff" transform="translate(149.19025 56.255) scale(0.16 -0.16)">
     <defs>
      <path id="DejaVuSans-43" d="M 4122 4306 
L 4122 3641 
Q 3803 3938 3442 4084 
Q 3081 4231 2675 4231 
Q 1875 4231 1450 3742 
Q 1025 3253 1025 2328 
Q 1025 1406 1450 917 
Q 1875 428 2675 428 
Q 3081 428 3442 575 
Q 3803 722 4122 1019 
L 4122 359 
Q 3791 134 3420 21 
Q 3050 -91 2638 -91 
Q 1578 -91 968 557 
Q 359 1206 359 2328 
Q 359 3453 968 4101 
Q 1578 4750 2638 4750 
Q 3056 4750 3426 4639 
Q 3797 4528 4122 4306 
z
" transform="scale(0.015625)"/>
      <path id="DejaVuSans-68" d="M 3513 2113 
L 3513 0 
L 2938 0 
L 2938 2094 
Q 2938 2591 2744 2837 
Q 2550 3084 2163 3084 
Q 1697 3084 1428 2787 
Q 1159 2491 1159 1978 
L 1159 0 
L 581 0 
L 581 4863 
L 1159 4863 
L 1159 2956 
Q 1366 3272 1645 3428 
Q 1925 3584 2291 3584 
Q 2894 3584 3203 3211 
Q 3513 2838 3513 2113 
z
" transform="scale(0.015625)"/>
      <path id="DejaVuSans-65" d="M 3597 1894 
L 3597 1613 
L 953 1613 
Q 991 1019 1311 708 
Q 1631 397 2203 397 
Q 2534 397 2845 478 
Q 3156 559 3463 722 
L 3463 178 
Q 3153 47 2828 -22 
Q 2503 -91 2169 -91 
Q 1331 -91 842 396 
Q 353 884 353 1716 
Q 353 2575 817 3079 
Q 1281 3584 2069 3584 
Q 2775 3584 3186 3129 
Q 3597 2675 3597 1894 
z
M 3022 2063 
Q 3016 2534 2758 2815 
Q 2500 3097 2075 3097 
Q 1594 3097 1305 2825 
Q 1016 2553 972 2059 
L 3022 2063 
z
" transform="scale(0.015625)"/>
      <path id="DejaVuSans-62" d="M 3116 1747 
Q 3116 2381 2855 2742 
Q 2594 3103 2138 3103 
Q 1681 3103 1420 2742 
Q 1159 2381 1159 1747 
Q 1159 1113 1420 752 
Q 1681 391 2138 391 
Q 2594 391 2855 752 
Q 3116 1113 3116 1747 
z
M 1159 2969 
Q 1341 3281 1617 3432 
Q 1894 3584 2278 3584 
Q 2916 3584 3314 3078 
Q 3713 2572 3713 1747 
Q 3713 922 3314 415 
Q 2916 -91 2278 -91 
Q 1894 -91 1617 61 
Q 1341 213 1159 525 
L 1159 0 
L 581 0 
L 581 4863 
L 1159 4863 
L 1159 2969 
z
" transform="scale(0.015625)"/>
      <path id="DejaVuSans-79" d="M 2059 -325 
Q 1816 -950 1584 -1140 
Q 1353 -1331 966 -1331 
L 506 -1331 
L 506 -850 
L 844 -850 
Q 1081 -850 1212 -737 
Q 1344 -625 1503 -206 
L 1606 56 
L 191 3500 
L 800 3500 
L 1894 763 
L 2988 3500 
L 3597 3500 
L 2059 -325 
z
" transform="scale(0.015625)"/>
      <path id="DejaVuSans-73" d="M 2834 3397 
L 2834 2853 
Q 2591 2978 2328 3040 
Q 2066 3103 1784 3103 
Q 1356 3103 1142 2972 
Q 928 2841 928 2578 
Q 928 2378 1081 2264 
Q 1234 2150 1697 2047 
L 1894 2003 
Q 2506 1872 2764 1633 
Q 3022 1394 3022 966 
Q 3022 478 2636 193 
Q 2250 -91 1575 -91 
Q 1294 -91 989 -36 
Q 684 19 347 128 
L 347 722 
Q 666 556 975 473 
Q 1284 391 1588 391 
Q 1994 391 2212 530 
Q 2431 669 2431 922 
Q 2431 1156 2273 1281 
Q 2116 1406 1581 1522 
L 1381 1569 
Q 847 1681 609 1914 
Q 372 2147 372 2553 
Q 372 3047 722 3315 
Q 1072 3584 1716 3584 
Q 2034 3584 2315 3537 
Q 2597 3491 2834 3397 
z
" transform="scale(0.015625)"/>
      <path id="DejaVuSans-76" d="M 191 3500 
L 800 3500 
L 1894 563 
L 2988 3500 
L 3597 3500 
L 2284 0 
L 1503 0 
L 191 3500 
z
" transform="scale(0.015625)"/>
      <path id="DejaVuSans-20" transform="scale(0.015625)"/>
      <path id="DejaVuSans-70" d="M 1159 525 
L 1159 -1331 
L 581 -1331 
L 581 3500 
L 1159 3500 
L 1159 2969 
Q 1341 3281 1617 3432 
Q 1894 3584 2278 3584 
Q 2916 3584 3314 3078 
Q 3713 2572 3713 1747 
Q 3713 922 3314 415 
Q 2916 -91 2278 -91 
Q 1894 -91 1617 61 
Q 1341 213 1159 525 
z
M 3116 1747 
Q 3116 2381 2855 2742 
Q 2594 3103 2138 3103 
Q 1681 3103 1420 2742 
Q 1159 2381 1159 1747 
Q 1159 1113 1420 752 
Q 1681 391 2138 391 
Q 2594 391 2855 752 
Q 3116 1113 3116 1747 
z
" transform="scale(0.015625)"/>
      <path id="DejaVuSans-6f" d="M 1959 3097 
Q 1497 3097 1228 2736 
Q 959 2375 959 1747 
Q 959 1119 1226 758 
Q 1494 397 1959 397 
Q 2419 397 2687 759 
Q 2956 1122 2956 1747 
Q 2956 2369 2687 2733 
Q 2419 3097 1959 3097 
z
M 1959 3584 
Q 2709 3584 3137 3096 
Q 3566 2609 3566 1747 
Q 3566 888 3137 398 
Q 2709 -91 1959 -91 
Q 1206 -91 779 398 
Q 353 888 353 1747 
Q 353 2609 779 3096 
Q 1206 3584 1959 3584 
z
" transform="scale(0.015625)"/>
      <path id="DejaVuSans-6c" d="M 603 4863 
L 1178 4863 
L 1178 0 
L 603 0 
L 603 4863 
z
" transform="scale(0.015625)"/>
      <path id="DejaVuSans-6d" d="M 3328 2828 
Q 3544 3216 3844 3400 
Q 4144 3584 4550 3584 
Q 5097 3584 5394 3201 
Q 5691 2819 5691 2113 
L 5691 0 
L 5113 0 
L 5113 2094 
Q 5113 2597 4934 2840 
Q 4756 3084 4391 3084 
Q 3944 3084 3684 2787 
Q 3425 2491 3425 1978 
L 3425 0 
L 2847 0 
L 2847 2094 
Q 2847 2600 2669 2842 
Q 2491 3084 2119 3084 
Q 1678 3084 1418 2786 
Q 1159 2488 1159 1978 
L 1159 0 
L 581 0 
L 581 3500 
L 1159 3500 
L 1159 2956 
Q 1356 3278 1631 3431 
Q 1906 3584 2284 3584 
Q 2666 3584 2933 3390 
Q 3200 3197 3328 2828 
z
" transform="scale(0.015625)"/>
      <path id="DejaVuSans-69" d="M 603 3500 
L 1178 3500 
L 1178 0 
L 603 0 
L 603 3500 
z
M 603 4863 
L 1178 4863 
L 1178 4134 
L 603 4134 
L 603 4863 
z
" transform="scale(0.015625)"/>
      <path id="DejaVuSans-61" d="M 2194 1759 
Q 1497 1759 1228 1600 
Q 959 1441 959 1056 
Q 959 750 1161 570 
Q 1363 391 1709 391 
Q 2188 391 2477 730 
Q 2766 1069 2766 1631 
L 2766 1759 
L 2194 1759 
z
M 3341 1997 
L 3341 0 
L 2766 0 
L 2766 531 
Q 2569 213 2275 61 
Q 1981 -91 1556 -91 
Q 1019 -91 701 211 
Q 384 513 384 1019 
Q 384 1609 779 1909 
Q 1175 2209 1959 2209 
L 2766 2209 
L 2766 2266 
Q 2766 2663 2505 2880 
Q 2244 3097 1772 3097 
Q 1472 3097 1187 3025 
Q 903 2953 641 2809 
L 641 3341 
Q 956 3463 1253 3523 
Q 1550 3584 1831 3584 
Q 2591 3584 2966 3190 
Q 3341 2797 3341 1997 
z
" transform="scale(0.015625)"/>
     </defs>
     <use xlink:href="#DejaVuSans-43"/>
     <use xlink:href="#DejaVuSans-68" transform="translate(69.824219 0)"/>
     <use xlink:href="#DejaVuSans-65" transform="translate(133.203125 0)"/>
     <use xlink:href="#DejaVuSans-62" transform="translate(194.726562 0)"/>
     <use xlink:href="#DejaVuSans-79" transform="translate(258.203125 0)"/>
     <use xlink:href="#DejaVuSans-73" transform="translate(317.382812 0)"/>
     <use xlink:href="#DejaVuSans-68" transform="translate(369.482422 0)"/>
     <use xlink:href="#DejaVuSans-65" transform="translate(432.861328 0)"/>
     <use xlink:href="#DejaVuSans-76" transform="translate(494.384766 0)"/>
     <use xlink:href="#DejaVuSans-20" transform="translate(553.564453 0)"/>
     <use xlink:href="#DejaVuSans-70" transform="translate(585.351562 0)"/>
     <use xlink:href="#DejaVuSans-6f" transform="translate(648.828125 0)"/>
     <use xlink:href="#DejaVuSans-6c" transform="translate(710.009766 0)"/>
     <use xlink:href="#DejaVuSans-79" transform="translate(737.792969 0)"/>
     <use xlink:href="#DejaVuSans-6e" transform="translate(796.972656 0)"/>
     <use xlink:href="#DejaVuSans-6f" transform="translate(860.351562 0)"/>
     <use xlink:href="#DejaVuSans-6d" transform="translate(921.533203 0)"/>
     <use xlink:href="#DejaVuSans-69" transform="translate(1018.945312 0)"/>
     <use xlink:href="#DejaVuSans-61" transform="translate(1046.728516 0)"/>
     <use xlink:href="#DejaVuSans-6c" transform="translate(1108.007812 0)"/>
     <use xlink:href="#DejaVuSans-73" transform="translate(1135.791016 0)"/>
    </g>
   </g>
  </g>
 </g>
 <defs>
  <clipPath id="pde660e5862">
   <rect x="57.6" y="138.24" width="184.32" height="138.24"/>
  </clipPath>
  <clipPath id="p9bf231192f">
   <rect x="253.44" y="69.12" width="184.32" height="138.24"/>
  </clipPath>
  <clipPath id="p1dc6bfe0a7">
   <rect x="253.44" y="255.744" width="184.32" height="51.84"/>
  </clipPath>
 </defs>
</svg>
