<?xml version="1.0" encoding="utf-8" standalone="no"?>
<!DOCTYPE svg PUBLIC "-//W3C//DTD SVG 1.1//EN"
  "http://www.w3.org/Graphics/SVG/1.1/DTD/svg11.dtd">
<svg xmlns:xlink="http://www.w3.org/1999/xlink" width="460.8pt" height="345.6pt" viewBox="0 0 460.8 345.6" xmlns="http://www.w3.org/2000/svg" version="1.1">
 <metadata>
  <rdf:RDF xmlns:dc="http://purl.org/dc/elements/1.1/" xmlns:cc="http://creativecommons.org/ns#" xmlns:rdf="http://www.w3.org/1999/02/22-rdf-syntax-ns#">
   <cc:Work>
    <dc:type rdf:resource="http://purl.org/dc/dcmitype/StillImage"/>
    <dc:date>2025-08-01T22:08:16.626420</dc:date>
    <dc:format>image/svg+xml</dc:format>
    <dc:creator>
     <cc:Agent>
      <dc:title>Matplotlib v3.10.3, https://matplotlib.org/</dc:title>
     </cc:Agent>
    </dc:creator>
   </cc:Work>
  </rdf:RDF>
 </metadata>
 <defs>
  <style type="text/css">*{stroke-linejoin: round; stroke-linecap: butt}</style>
 </defs>
 <g id="figure_1">
  <g id="patch_1">
   <path d="M 0 345.6 
L 460.8 345.6 
L 460.8 0 
L 0 0 
z
" style="fill: #ffffff"/>
  </g>
  <g id="axes_1">
   <g id="patch_2">
    <path d="M 57.6 276.48 
L 241.92 276.48 
L 241.92 138.24 
L 57.6 138.24 
z
" style="fill: #ffffff"/>
   </g>
   <g id="matplotlib.axis_1">
    <g id="xtick_1">
     <g id="line2d_1">
      <defs>
       <path id="me6302f412c" d="M 0 0 
L 0 3.5 
" style="stroke: #000000; stroke-width: 0.8"/>
      </defs>
      <g>
       <use xlink:href="#me6302f412c" x="61.144615" y="207.360534" style="stroke: #000000; stroke-width: 0.8"/>
      </g>
     </g>
     <g id="text_1">
      <!-- −1.0 -->
      <g transform="translate(49.003209 221.958971) scale(0.1 -0.1)">
       <defs>
        <path id="DejaVuSans-2212" d="M 678 2272 
L 4684 2272 
L 4684 1741 
L 678 1741 
L 678 2272 
z
" transform="scale(0.015625)"/>
        <path id="DejaVuSans-31" d="M 794 531 
L 1825 531 
L 1825 4091 
L 703 3866 
L 703 4441 
L 1819 4666 
L 2450 4666 
L 2450 531 
L 3481 531 
L 3481 0 
L 794 0 
L 794 531 
z
" transform="scale(0.015625)"/>
        <path id="DejaVuSans-2e" d="M 684 794 
L 1344 794 
L 1344 0 
L 684 0 
L 684 794 
z
" transform="scale(0.015625)"/>
        <path id="DejaVuSans-30" d="M 2034 4250 
Q 1547 4250 1301 3770 
Q 1056 3291 1056 2328 
Q 1056 1369 1301 889 
Q 1547 409 2034 409 
Q 2525 409 2770 889 
Q 3016 1369 3016 2328 
Q 3016 3291 2770 3770 
Q 2525 4250 2034 4250 
z
M 2034 4750 
Q 2819 4750 3233 4129 
Q 3647 3509 3647 2328 
Q 3647 1150 3233 529 
Q 2819 -91 2034 -91 
Q 1250 -91 836 529 
Q 422 1150 422 2328 
Q 422 3509 836 4129 
Q 1250 4750 2034 4750 
z
" transform="scale(0.015625)"/>
       </defs>
       <use xlink:href="#DejaVuSans-2212"/>
       <use xlink:href="#DejaVuSans-31" transform="translate(83.789062 0)"/>
       <use xlink:href="#DejaVuSans-2e" transform="translate(147.412109 0)"/>
       <use xlink:href="#DejaVuSans-30" transform="translate(179.199219 0)"/>
      </g>
     </g>
    </g>
    <g id="xtick_2">
     <g id="line2d_2">
      <g>
       <use xlink:href="#me6302f412c" x="105.452308" y="207.360534" style="stroke: #000000; stroke-width: 0.8"/>
      </g>
     </g>
     <g id="text_2">
      <!-- −0.5 -->
      <g transform="translate(93.310901 221.958971) scale(0.1 -0.1)">
       <defs>
        <path id="DejaVuSans-35" d="M 691 4666 
L 3169 4666 
L 3169 4134 
L 1269 4134 
L 1269 2991 
Q 1406 3038 1543 3061 
Q 1681 3084 1819 3084 
Q 2600 3084 3056 2656 
Q 3513 2228 3513 1497 
Q 3513 744 3044 326 
Q 2575 -91 1722 -91 
Q 1428 -91 1123 -41 
Q 819 9 494 109 
L 494 744 
Q 775 591 1075 516 
Q 1375 441 1709 441 
Q 2250 441 2565 725 
Q 2881 1009 2881 1497 
Q 2881 1984 2565 2268 
Q 2250 2553 1709 2553 
Q 1456 2553 1204 2497 
Q 953 2441 691 2322 
L 691 4666 
z
" transform="scale(0.015625)"/>
       </defs>
       <use xlink:href="#DejaVuSans-2212"/>
       <use xlink:href="#DejaVuSans-30" transform="translate(83.789062 0)"/>
       <use xlink:href="#DejaVuSans-2e" transform="translate(147.412109 0)"/>
       <use xlink:href="#DejaVuSans-35" transform="translate(179.199219 0)"/>
      </g>
     </g>
    </g>
    <g id="xtick_3">
     <g id="line2d_3">
      <g>
       <use xlink:href="#me6302f412c" x="149.76" y="207.360534" style="stroke: #000000; stroke-width: 0.8"/>
      </g>
     </g>
    </g>
    <g id="xtick_4">
     <g id="line2d_4">
      <g>
       <use xlink:href="#me6302f412c" x="194.067692" y="207.360534" style="stroke: #000000; stroke-width: 0.8"/>
      </g>
     </g>
     <g id="text_3">
      <!-- 0.5 -->
      <g transform="translate(186.11613 221.958971) scale(0.1 -0.1)">
       <use xlink:href="#DejaVuSans-30"/>
       <use xlink:href="#DejaVuSans-2e" transform="translate(63.623047 0)"/>
       <use xlink:href="#DejaVuSans-35" transform="translate(95.410156 0)"/>
      </g>
     </g>
    </g>
    <g id="xtick_5">
     <g id="line2d_5">
      <g>
       <use xlink:href="#me6302f412c" x="238.375385" y="207.360534" style="stroke: #000000; stroke-width: 0.8"/>
      </g>
     </g>
     <g id="text_4">
      <!-- 1.0 -->
      <g transform="translate(230.423822 221.958971) scale(0.1 -0.1)">
       <use xlink:href="#DejaVuSans-31"/>
       <use xlink:href="#DejaVuSans-2e" transform="translate(63.623047 0)"/>
       <use xlink:href="#DejaVuSans-30" transform="translate(95.410156 0)"/>
      </g>
     </g>
    </g>
    <g id="xtick_6">
     <g id="line2d_6">
      <defs>
       <path id="mc09e3a2f3e" d="M 0 0 
L 0 2 
" style="stroke: #000000; stroke-width: 0.6"/>
      </defs>
      <g>
       <use xlink:href="#mc09e3a2f3e" x="70.006154" y="207.360534" style="stroke: #000000; stroke-width: 0.6"/>
      </g>
     </g>
    </g>
    <g id="xtick_7">
     <g id="line2d_7">
      <g>
       <use xlink:href="#mc09e3a2f3e" x="78.867692" y="207.360534" style="stroke: #000000; stroke-width: 0.6"/>
      </g>
     </g>
    </g>
    <g id="xtick_8">
     <g id="line2d_8">
      <g>
       <use xlink:href="#mc09e3a2f3e" x="87.729231" y="207.360534" style="stroke: #000000; stroke-width: 0.6"/>
      </g>
     </g>
    </g>
    <g id="xtick_9">
     <g id="line2d_9">
      <g>
       <use xlink:href="#mc09e3a2f3e" x="96.590769" y="207.360534" style="stroke: #000000; stroke-width: 0.6"/>
      </g>
     </g>
    </g>
    <g id="xtick_10">
     <g id="line2d_10">
      <g>
       <use xlink:href="#mc09e3a2f3e" x="114.313846" y="207.360534" style="stroke: #000000; stroke-width: 0.6"/>
      </g>
     </g>
    </g>
    <g id="xtick_11">
     <g id="line2d_11">
      <g>
       <use xlink:href="#mc09e3a2f3e" x="123.175385" y="207.360534" style="stroke: #000000; stroke-width: 0.6"/>
      </g>
     </g>
    </g>
    <g id="xtick_12">
     <g id="line2d_12">
      <g>
       <use xlink:href="#mc09e3a2f3e" x="132.036923" y="207.360534" style="stroke: #000000; stroke-width: 0.6"/>
      </g>
     </g>
    </g>
    <g id="xtick_13">
     <g id="line2d_13">
      <g>
       <use xlink:href="#mc09e3a2f3e" x="140.898462" y="207.360534" style="stroke: #000000; stroke-width: 0.6"/>
      </g>
     </g>
    </g>
    <g id="xtick_14">
     <g id="line2d_14">
      <g>
       <use xlink:href="#mc09e3a2f3e" x="158.621538" y="207.360534" style="stroke: #000000; stroke-width: 0.6"/>
      </g>
     </g>
    </g>
    <g id="xtick_15">
     <g id="line2d_15">
      <g>
       <use xlink:href="#mc09e3a2f3e" x="167.483077" y="207.360534" style="stroke: #000000; stroke-width: 0.6"/>
      </g>
     </g>
    </g>
    <g id="xtick_16">
     <g id="line2d_16">
      <g>
       <use xlink:href="#mc09e3a2f3e" x="176.344615" y="207.360534" style="stroke: #000000; stroke-width: 0.6"/>
      </g>
     </g>
    </g>
    <g id="xtick_17">
     <g id="line2d_17">
      <g>
       <use xlink:href="#mc09e3a2f3e" x="185.206154" y="207.360534" style="stroke: #000000; stroke-width: 0.6"/>
      </g>
     </g>
    </g>
    <g id="xtick_18">
     <g id="line2d_18">
      <g>
       <use xlink:href="#mc09e3a2f3e" x="202.929231" y="207.360534" style="stroke: #000000; stroke-width: 0.6"/>
      </g>
     </g>
    </g>
    <g id="xtick_19">
     <g id="line2d_19">
      <g>
       <use xlink:href="#mc09e3a2f3e" x="211.790769" y="207.360534" style="stroke: #000000; stroke-width: 0.6"/>
      </g>
     </g>
    </g>
    <g id="xtick_20">
     <g id="line2d_20">
      <g>
       <use xlink:href="#mc09e3a2f3e" x="220.652308" y="207.360534" style="stroke: #000000; stroke-width: 0.6"/>
      </g>
     </g>
    </g>
    <g id="xtick_21">
     <g id="line2d_21">
      <g>
       <use xlink:href="#mc09e3a2f3e" x="229.513846" y="207.360534" style="stroke: #000000; stroke-width: 0.6"/>
      </g>
     </g>
    </g>
   </g>
   <g id="matplotlib.axis_2">
    <g id="ytick_1">
     <g id="line2d_22">
      <defs>
       <path id="mc9729300ae" d="M 0 0 
L -3.5 0 
" style="stroke: #000000; stroke-width: 0.8"/>
      </defs>
      <g>
       <use xlink:href="#mc9729300ae" x="149.76" y="273.822606" style="stroke: #000000; stroke-width: 0.8"/>
      </g>
     </g>
     <g id="text_5">
      <!-- −1.0 -->
      <g transform="translate(118.477188 277.621825) scale(0.1 -0.1)">
       <use xlink:href="#DejaVuSans-2212"/>
       <use xlink:href="#DejaVuSans-31" transform="translate(83.789062 0)"/>
       <use xlink:href="#DejaVuSans-2e" transform="translate(147.412109 0)"/>
       <use xlink:href="#DejaVuSans-30" transform="translate(179.199219 0)"/>
      </g>
     </g>
    </g>
    <g id="ytick_2">
     <g id="line2d_23">
      <g>
       <use xlink:href="#mc9729300ae" x="149.76" y="240.59157" style="stroke: #000000; stroke-width: 0.8"/>
      </g>
     </g>
     <g id="text_6">
      <!-- −0.5 -->
      <g transform="translate(118.477188 244.390789) scale(0.1 -0.1)">
       <use xlink:href="#DejaVuSans-2212"/>
       <use xlink:href="#DejaVuSans-30" transform="translate(83.789062 0)"/>
       <use xlink:href="#DejaVuSans-2e" transform="translate(147.412109 0)"/>
       <use xlink:href="#DejaVuSans-35" transform="translate(179.199219 0)"/>
      </g>
     </g>
    </g>
    <g id="ytick_3">
     <g id="line2d_24">
      <g>
       <use xlink:href="#mc9729300ae" x="149.76" y="207.360534" style="stroke: #000000; stroke-width: 0.8"/>
      </g>
     </g>
    </g>
    <g id="ytick_4">
     <g id="line2d_25">
      <g>
       <use xlink:href="#mc9729300ae" x="149.76" y="174.129498" style="stroke: #000000; stroke-width: 0.8"/>
      </g>
     </g>
     <g id="text_7">
      <!-- 0.5 -->
      <g transform="translate(126.856875 177.928716) scale(0.1 -0.1)">
       <use xlink:href="#DejaVuSans-30"/>
       <use xlink:href="#DejaVuSans-2e" transform="translate(63.623047 0)"/>
       <use xlink:href="#DejaVuSans-35" transform="translate(95.410156 0)"/>
      </g>
     </g>
    </g>
    <g id="ytick_5">
     <g id="line2d_26">
      <g>
       <use xlink:href="#mc9729300ae" x="149.76" y="140.898462" style="stroke: #000000; stroke-width: 0.8"/>
      </g>
     </g>
     <g id="text_8">
      <!-- 1.0 -->
      <g transform="translate(126.856875 144.69768) scale(0.1 -0.1)">
       <use xlink:href="#DejaVuSans-31"/>
       <use xlink:href="#DejaVuSans-2e" transform="translate(63.623047 0)"/>
       <use xlink:href="#DejaVuSans-30" transform="translate(95.410156 0)"/>
      </g>
     </g>
    </g>
    <g id="ytick_6">
     <g id="line2d_27">
      <defs>
       <path id="macee7b4bfe" d="M 0 0 
L -2 0 
" style="stroke: #000000; stroke-width: 0.6"/>
      </defs>
      <g>
       <use xlink:href="#macee7b4bfe" x="149.76" y="267.176399" style="stroke: #000000; stroke-width: 0.6"/>
      </g>
     </g>
    </g>
    <g id="ytick_7">
     <g id="line2d_28">
      <g>
       <use xlink:href="#macee7b4bfe" x="149.76" y="260.530192" style="stroke: #000000; stroke-width: 0.6"/>
      </g>
     </g>
    </g>
    <g id="ytick_8">
     <g id="line2d_29">
      <g>
       <use xlink:href="#macee7b4bfe" x="149.76" y="253.883984" style="stroke: #000000; stroke-width: 0.6"/>
      </g>
     </g>
    </g>
    <g id="ytick_9">
     <g id="line2d_30">
      <g>
       <use xlink:href="#macee7b4bfe" x="149.76" y="247.237777" style="stroke: #000000; stroke-width: 0.6"/>
      </g>
     </g>
    </g>
    <g id="ytick_10">
     <g id="line2d_31">
      <g>
       <use xlink:href="#macee7b4bfe" x="149.76" y="233.945363" style="stroke: #000000; stroke-width: 0.6"/>
      </g>
     </g>
    </g>
    <g id="ytick_11">
     <g id="line2d_32">
      <g>
       <use xlink:href="#macee7b4bfe" x="149.76" y="227.299155" style="stroke: #000000; stroke-width: 0.6"/>
      </g>
     </g>
    </g>
    <g id="ytick_12">
     <g id="line2d_33">
      <g>
       <use xlink:href="#macee7b4bfe" x="149.76" y="220.652948" style="stroke: #000000; stroke-width: 0.6"/>
      </g>
     </g>
    </g>
    <g id="ytick_13">
     <g id="line2d_34">
      <g>
       <use xlink:href="#macee7b4bfe" x="149.76" y="214.006741" style="stroke: #000000; stroke-width: 0.6"/>
      </g>
     </g>
    </g>
    <g id="ytick_14">
     <g id="line2d_35">
      <g>
       <use xlink:href="#macee7b4bfe" x="149.76" y="200.714327" style="stroke: #000000; stroke-width: 0.6"/>
      </g>
     </g>
    </g>
    <g id="ytick_15">
     <g id="line2d_36">
      <g>
       <use xlink:href="#macee7b4bfe" x="149.76" y="194.068119" style="stroke: #000000; stroke-width: 0.6"/>
      </g>
     </g>
    </g>
    <g id="ytick_16">
     <g id="line2d_37">
      <g>
       <use xlink:href="#macee7b4bfe" x="149.76" y="187.421912" style="stroke: #000000; stroke-width: 0.6"/>
      </g>
     </g>
    </g>
    <g id="ytick_17">
     <g id="line2d_38">
      <g>
       <use xlink:href="#macee7b4bfe" x="149.76" y="180.775705" style="stroke: #000000; stroke-width: 0.6"/>
      </g>
     </g>
    </g>
    <g id="ytick_18">
     <g id="line2d_39">
      <g>
       <use xlink:href="#macee7b4bfe" x="149.76" y="167.48329" style="stroke: #000000; stroke-width: 0.6"/>
      </g>
     </g>
    </g>
    <g id="ytick_19">
     <g id="line2d_40">
      <g>
       <use xlink:href="#macee7b4bfe" x="149.76" y="160.837083" style="stroke: #000000; stroke-width: 0.6"/>
      </g>
     </g>
    </g>
    <g id="ytick_20">
     <g id="line2d_41">
      <g>
       <use xlink:href="#macee7b4bfe" x="149.76" y="154.190876" style="stroke: #000000; stroke-width: 0.6"/>
      </g>
     </g>
    </g>
    <g id="ytick_21">
     <g id="line2d_42">
      <g>
       <use xlink:href="#macee7b4bfe" x="149.76" y="147.544669" style="stroke: #000000; stroke-width: 0.6"/>
      </g>
     </g>
    </g>
   </g>
   <g id="line2d_43">
    <path d="M 61.144615 140.898462 
L 63.149405 163.619951 
L 65.185604 184.061807 
L 67.142391 201.34205 
L 68.910032 215.069226 
L 70.605339 226.645496 
L 72.17426 236.043609 
L 73.762476 244.335447 
L 75.164581 250.684602 
L 76.772204 256.901598 
L 78.240192 261.638297 
L 79.623518 265.324231 
L 80.760694 267.817183 
L 81.880708 269.820884 
L 83.086081 271.499461 
L 83.991317 272.4487 
L 85.030839 273.223839 
L 86.04136 273.668425 
L 87.010737 273.821538 
L 87.954371 273.724979 
L 88.946317 273.374226 
L 89.981087 272.749246 
L 91.020961 271.868418 
L 92.173994 270.612164 
L 93.651069 268.601857 
L 95.10467 266.217833 
L 96.941616 262.684451 
L 99.099091 257.878971 
L 101.314666 252.314226 
L 104.017867 244.820719 
L 107.142716 235.430876 
L 111.822742 220.487086 
L 120.350219 193.011737 
L 124.109433 181.714991 
L 127.442859 172.482335 
L 130.237953 165.450655 
L 132.51835 160.264605 
L 134.854623 155.515764 
L 136.995319 151.701838 
L 138.730422 149.007751 
L 140.308499 146.878148 
L 141.980278 144.964893 
L 143.623268 143.436114 
L 145.272566 142.258423 
L 146.746338 141.512693 
L 148.11094 141.082525 
L 149.461645 140.904489 
L 150.611877 140.947593 
L 152.089973 141.265784 
L 153.514828 141.851357 
L 154.970194 142.730141 
L 156.560439 144.011283 
L 158.257391 145.742471 
L 160.068932 147.996778 
L 161.696944 150.371276 
L 163.742871 153.807327 
L 165.704525 157.554664 
L 168.055762 162.59687 
L 170.321355 167.982586 
L 173.167259 175.407751 
L 175.966436 183.332522 
L 179.150979 192.95336 
L 183.561245 207.002163 
L 192.919993 237.106145 
L 196.234698 246.91792 
L 198.848549 253.988967 
L 200.755174 258.665839 
L 202.923119 263.389029 
L 204.614596 266.567133 
L 206.081209 268.917202 
L 207.489551 270.783984 
L 208.737939 272.092477 
L 210.057035 273.094406 
L 211.113086 273.595923 
L 212.064543 273.805541 
L 212.82696 273.800093 
L 213.838592 273.544101 
L 214.823876 273.010142 
L 215.809351 272.18222 
L 216.904202 270.901991 
L 217.908491 269.379124 
L 218.883819 267.567121 
L 220.215182 264.539817 
L 221.307843 261.555937 
L 222.785812 256.767234 
L 224.017306 252.084522 
L 225.621387 244.991053 
L 227.160834 237.070992 
L 228.693587 228.04473 
L 230.473103 216.0604 
L 232.160235 203.124421 
L 233.897154 188.11932 
L 235.707746 170.558783 
L 237.642945 149.50739 
L 238.375385 140.898462 
L 238.375385 140.898462 
" clip-path="url(#pb659ae9349)" style="fill: none; stroke: #0000ff; stroke-linecap: square"/>
   </g>
   <g id="patch_3">
    <path d="M 149.76 276.48 
L 149.76 138.24 
" style="fill: none; stroke: #000000; stroke-width: 0.8; stroke-linejoin: miter; stroke-linecap: square"/>
   </g>
   <g id="patch_4">
    <path d="M 57.6 207.360534 
L 241.92 207.360534 
" style="fill: none; stroke: #000000; stroke-width: 0.8; stroke-linejoin: miter; stroke-linecap: square"/>
   </g>
   <g id="text_9">
    <!-- n=4 -->
    <g transform="translate(139.220156 132.24) scale(0.1 -0.1)">
     <defs>
      <path id="DejaVuSans-6e" d="M 3513 2113 
L 3513 0 
L 2938 0 
L 2938 2094 
Q 2938 2591 2744 2837 
Q 2550 3084 2163 3084 
Q 1697 3084 1428 2787 
Q 1159 2491 1159 1978 
L 1159 0 
L 581 0 
L 581 3500 
L 1159 3500 
L 1159 2956 
Q 1366 3272 1645 3428 
Q 1925 3584 2291 3584 
Q 2894 3584 3203 3211 
Q 3513 2838 3513 2113 
z
" transform="scale(0.015625)"/>
      <path id="DejaVuSans-3d" d="M 678 2906 
L 4684 2906 
L 4684 2381 
L 678 2381 
L 678 2906 
z
M 678 1631 
L 4684 1631 
L 4684 1100 
L 678 1100 
L 678 1631 
z
" transform="scale(0.015625)"/>
      <path id="DejaVuSans-34" d="M 2419 4116 
L 825 1625 
L 2419 1625 
L 2419 4116 
z
M 2253 4666 
L 3047 4666 
L 3047 1625 
L 3713 1625 
L 3713 1100 
L 3047 1100 
L 3047 0 
L 2419 0 
L 2419 1100 
L 313 1100 
L 313 1709 
L 2253 4666 
z
" transform="scale(0.015625)"/>
     </defs>
     <use xlink:href="#DejaVuSans-6e"/>
     <use xlink:href="#DejaVuSans-3d" transform="translate(63.378906 0)"/>
     <use xlink:href="#DejaVuSans-34" transform="translate(147.167969 0)"/>
    </g>
   </g>
  </g>
  <g id="axes_2">
   <g id="patch_5">
    <path d="M 253.44 207.36 
L 437.76 207.36 
L 437.76 69.12 
L 253.44 69.12 
z
" style="fill: #ffffff"/>
   </g>
   <g id="matplotlib.axis_3">
    <g id="xtick_22">
     <g id="line2d_44">
      <g>
       <use xlink:href="#me6302f412c" x="256.984615" y="138.240092" style="stroke: #000000; stroke-width: 0.8"/>
      </g>
     </g>
     <g id="text_10">
      <!-- −1.0 -->
      <g transform="translate(244.843209 152.83853) scale(0.1 -0.1)">
       <use xlink:href="#DejaVuSans-2212"/>
       <use xlink:href="#DejaVuSans-31" transform="translate(83.789062 0)"/>
       <use xlink:href="#DejaVuSans-2e" transform="translate(147.412109 0)"/>
       <use xlink:href="#DejaVuSans-30" transform="translate(179.199219 0)"/>
      </g>
     </g>
    </g>
    <g id="xtick_23">
     <g id="line2d_45">
      <g>
       <use xlink:href="#me6302f412c" x="301.292308" y="138.240092" style="stroke: #000000; stroke-width: 0.8"/>
      </g>
     </g>
     <g id="text_11">
      <!-- −0.5 -->
      <g transform="translate(289.150901 152.83853) scale(0.1 -0.1)">
       <use xlink:href="#DejaVuSans-2212"/>
       <use xlink:href="#DejaVuSans-30" transform="translate(83.789062 0)"/>
       <use xlink:href="#DejaVuSans-2e" transform="translate(147.412109 0)"/>
       <use xlink:href="#DejaVuSans-35" transform="translate(179.199219 0)"/>
      </g>
     </g>
    </g>
    <g id="xtick_24">
     <g id="line2d_46">
      <g>
       <use xlink:href="#me6302f412c" x="345.6" y="138.240092" style="stroke: #000000; stroke-width: 0.8"/>
      </g>
     </g>
    </g>
    <g id="xtick_25">
     <g id="line2d_47">
      <g>
       <use xlink:href="#me6302f412c" x="389.907692" y="138.240092" style="stroke: #000000; stroke-width: 0.8"/>
      </g>
     </g>
     <g id="text_12">
      <!-- 0.5 -->
      <g transform="translate(381.95613 152.83853) scale(0.1 -0.1)">
       <use xlink:href="#DejaVuSans-30"/>
       <use xlink:href="#DejaVuSans-2e" transform="translate(63.623047 0)"/>
       <use xlink:href="#DejaVuSans-35" transform="translate(95.410156 0)"/>
      </g>
     </g>
    </g>
    <g id="xtick_26">
     <g id="line2d_48">
      <g>
       <use xlink:href="#me6302f412c" x="434.215385" y="138.240092" style="stroke: #000000; stroke-width: 0.8"/>
      </g>
     </g>
     <g id="text_13">
      <!-- 1.0 -->
      <g transform="translate(426.263822 152.83853) scale(0.1 -0.1)">
       <use xlink:href="#DejaVuSans-31"/>
       <use xlink:href="#DejaVuSans-2e" transform="translate(63.623047 0)"/>
       <use xlink:href="#DejaVuSans-30" transform="translate(95.410156 0)"/>
      </g>
     </g>
    </g>
    <g id="xtick_27">
     <g id="line2d_49">
      <g>
       <use xlink:href="#mc09e3a2f3e" x="265.846154" y="138.240092" style="stroke: #000000; stroke-width: 0.6"/>
      </g>
     </g>
    </g>
    <g id="xtick_28">
     <g id="line2d_50">
      <g>
       <use xlink:href="#mc09e3a2f3e" x="274.707692" y="138.240092" style="stroke: #000000; stroke-width: 0.6"/>
      </g>
     </g>
    </g>
    <g id="xtick_29">
     <g id="line2d_51">
      <g>
       <use xlink:href="#mc09e3a2f3e" x="283.569231" y="138.240092" style="stroke: #000000; stroke-width: 0.6"/>
      </g>
     </g>
    </g>
    <g id="xtick_30">
     <g id="line2d_52">
      <g>
       <use xlink:href="#mc09e3a2f3e" x="292.430769" y="138.240092" style="stroke: #000000; stroke-width: 0.6"/>
      </g>
     </g>
    </g>
    <g id="xtick_31">
     <g id="line2d_53">
      <g>
       <use xlink:href="#mc09e3a2f3e" x="310.153846" y="138.240092" style="stroke: #000000; stroke-width: 0.6"/>
      </g>
     </g>
    </g>
    <g id="xtick_32">
     <g id="line2d_54">
      <g>
       <use xlink:href="#mc09e3a2f3e" x="319.015385" y="138.240092" style="stroke: #000000; stroke-width: 0.6"/>
      </g>
     </g>
    </g>
    <g id="xtick_33">
     <g id="line2d_55">
      <g>
       <use xlink:href="#mc09e3a2f3e" x="327.876923" y="138.240092" style="stroke: #000000; stroke-width: 0.6"/>
      </g>
     </g>
    </g>
    <g id="xtick_34">
     <g id="line2d_56">
      <g>
       <use xlink:href="#mc09e3a2f3e" x="336.738462" y="138.240092" style="stroke: #000000; stroke-width: 0.6"/>
      </g>
     </g>
    </g>
    <g id="xtick_35">
     <g id="line2d_57">
      <g>
       <use xlink:href="#mc09e3a2f3e" x="354.461538" y="138.240092" style="stroke: #000000; stroke-width: 0.6"/>
      </g>
     </g>
    </g>
    <g id="xtick_36">
     <g id="line2d_58">
      <g>
       <use xlink:href="#mc09e3a2f3e" x="363.323077" y="138.240092" style="stroke: #000000; stroke-width: 0.6"/>
      </g>
     </g>
    </g>
    <g id="xtick_37">
     <g id="line2d_59">
      <g>
       <use xlink:href="#mc09e3a2f3e" x="372.184615" y="138.240092" style="stroke: #000000; stroke-width: 0.6"/>
      </g>
     </g>
    </g>
    <g id="xtick_38">
     <g id="line2d_60">
      <g>
       <use xlink:href="#mc09e3a2f3e" x="381.046154" y="138.240092" style="stroke: #000000; stroke-width: 0.6"/>
      </g>
     </g>
    </g>
    <g id="xtick_39">
     <g id="line2d_61">
      <g>
       <use xlink:href="#mc09e3a2f3e" x="398.769231" y="138.240092" style="stroke: #000000; stroke-width: 0.6"/>
      </g>
     </g>
    </g>
    <g id="xtick_40">
     <g id="line2d_62">
      <g>
       <use xlink:href="#mc09e3a2f3e" x="407.630769" y="138.240092" style="stroke: #000000; stroke-width: 0.6"/>
      </g>
     </g>
    </g>
    <g id="xtick_41">
     <g id="line2d_63">
      <g>
       <use xlink:href="#mc09e3a2f3e" x="416.492308" y="138.240092" style="stroke: #000000; stroke-width: 0.6"/>
      </g>
     </g>
    </g>
    <g id="xtick_42">
     <g id="line2d_64">
      <g>
       <use xlink:href="#mc09e3a2f3e" x="425.353846" y="138.240092" style="stroke: #000000; stroke-width: 0.6"/>
      </g>
     </g>
    </g>
   </g>
   <g id="matplotlib.axis_4">
    <g id="ytick_22">
     <g id="line2d_65">
      <g>
       <use xlink:href="#mc9729300ae" x="345.6" y="204.701723" style="stroke: #000000; stroke-width: 0.8"/>
      </g>
     </g>
     <g id="text_14">
      <!-- −1.0 -->
      <g transform="translate(314.317188 208.500941) scale(0.1 -0.1)">
       <use xlink:href="#DejaVuSans-2212"/>
       <use xlink:href="#DejaVuSans-31" transform="translate(83.789062 0)"/>
       <use xlink:href="#DejaVuSans-2e" transform="translate(147.412109 0)"/>
       <use xlink:href="#DejaVuSans-30" transform="translate(179.199219 0)"/>
      </g>
     </g>
    </g>
    <g id="ytick_23">
     <g id="line2d_66">
      <g>
       <use xlink:href="#mc9729300ae" x="345.6" y="171.470907" style="stroke: #000000; stroke-width: 0.8"/>
      </g>
     </g>
     <g id="text_15">
      <!-- −0.5 -->
      <g transform="translate(314.317188 175.270126) scale(0.1 -0.1)">
       <use xlink:href="#DejaVuSans-2212"/>
       <use xlink:href="#DejaVuSans-30" transform="translate(83.789062 0)"/>
       <use xlink:href="#DejaVuSans-2e" transform="translate(147.412109 0)"/>
       <use xlink:href="#DejaVuSans-35" transform="translate(179.199219 0)"/>
      </g>
     </g>
    </g>
    <g id="ytick_24">
     <g id="line2d_67">
      <g>
       <use xlink:href="#mc9729300ae" x="345.6" y="138.240092" style="stroke: #000000; stroke-width: 0.8"/>
      </g>
     </g>
    </g>
    <g id="ytick_25">
     <g id="line2d_68">
      <g>
       <use xlink:href="#mc9729300ae" x="345.6" y="105.009277" style="stroke: #000000; stroke-width: 0.8"/>
      </g>
     </g>
     <g id="text_16">
      <!-- 0.5 -->
      <g transform="translate(322.696875 108.808496) scale(0.1 -0.1)">
       <use xlink:href="#DejaVuSans-30"/>
       <use xlink:href="#DejaVuSans-2e" transform="translate(63.623047 0)"/>
       <use xlink:href="#DejaVuSans-35" transform="translate(95.410156 0)"/>
      </g>
     </g>
    </g>
    <g id="ytick_26">
     <g id="line2d_69">
      <g>
       <use xlink:href="#mc9729300ae" x="345.6" y="71.778462" style="stroke: #000000; stroke-width: 0.8"/>
      </g>
     </g>
     <g id="text_17">
      <!-- 1.0 -->
      <g transform="translate(322.696875 75.57768) scale(0.1 -0.1)">
       <use xlink:href="#DejaVuSans-31"/>
       <use xlink:href="#DejaVuSans-2e" transform="translate(63.623047 0)"/>
       <use xlink:href="#DejaVuSans-30" transform="translate(95.410156 0)"/>
      </g>
     </g>
    </g>
    <g id="ytick_27">
     <g id="line2d_70">
      <g>
       <use xlink:href="#macee7b4bfe" x="345.6" y="198.05556" style="stroke: #000000; stroke-width: 0.6"/>
      </g>
     </g>
    </g>
    <g id="ytick_28">
     <g id="line2d_71">
      <g>
       <use xlink:href="#macee7b4bfe" x="345.6" y="191.409396" style="stroke: #000000; stroke-width: 0.6"/>
      </g>
     </g>
    </g>
    <g id="ytick_29">
     <g id="line2d_72">
      <g>
       <use xlink:href="#macee7b4bfe" x="345.6" y="184.763233" style="stroke: #000000; stroke-width: 0.6"/>
      </g>
     </g>
    </g>
    <g id="ytick_30">
     <g id="line2d_73">
      <g>
       <use xlink:href="#macee7b4bfe" x="345.6" y="178.11707" style="stroke: #000000; stroke-width: 0.6"/>
      </g>
     </g>
    </g>
    <g id="ytick_31">
     <g id="line2d_74">
      <g>
       <use xlink:href="#macee7b4bfe" x="345.6" y="164.824744" style="stroke: #000000; stroke-width: 0.6"/>
      </g>
     </g>
    </g>
    <g id="ytick_32">
     <g id="line2d_75">
      <g>
       <use xlink:href="#macee7b4bfe" x="345.6" y="158.178581" style="stroke: #000000; stroke-width: 0.6"/>
      </g>
     </g>
    </g>
    <g id="ytick_33">
     <g id="line2d_76">
      <g>
       <use xlink:href="#macee7b4bfe" x="345.6" y="151.532418" style="stroke: #000000; stroke-width: 0.6"/>
      </g>
     </g>
    </g>
    <g id="ytick_34">
     <g id="line2d_77">
      <g>
       <use xlink:href="#macee7b4bfe" x="345.6" y="144.886255" style="stroke: #000000; stroke-width: 0.6"/>
      </g>
     </g>
    </g>
    <g id="ytick_35">
     <g id="line2d_78">
      <g>
       <use xlink:href="#macee7b4bfe" x="345.6" y="131.593929" style="stroke: #000000; stroke-width: 0.6"/>
      </g>
     </g>
    </g>
    <g id="ytick_36">
     <g id="line2d_79">
      <g>
       <use xlink:href="#macee7b4bfe" x="345.6" y="124.947766" style="stroke: #000000; stroke-width: 0.6"/>
      </g>
     </g>
    </g>
    <g id="ytick_37">
     <g id="line2d_80">
      <g>
       <use xlink:href="#macee7b4bfe" x="345.6" y="118.301603" style="stroke: #000000; stroke-width: 0.6"/>
      </g>
     </g>
    </g>
    <g id="ytick_38">
     <g id="line2d_81">
      <g>
       <use xlink:href="#macee7b4bfe" x="345.6" y="111.65544" style="stroke: #000000; stroke-width: 0.6"/>
      </g>
     </g>
    </g>
    <g id="ytick_39">
     <g id="line2d_82">
      <g>
       <use xlink:href="#macee7b4bfe" x="345.6" y="98.363114" style="stroke: #000000; stroke-width: 0.6"/>
      </g>
     </g>
    </g>
    <g id="ytick_40">
     <g id="line2d_83">
      <g>
       <use xlink:href="#macee7b4bfe" x="345.6" y="91.716951" style="stroke: #000000; stroke-width: 0.6"/>
      </g>
     </g>
    </g>
    <g id="ytick_41">
     <g id="line2d_84">
      <g>
       <use xlink:href="#macee7b4bfe" x="345.6" y="85.070788" style="stroke: #000000; stroke-width: 0.6"/>
      </g>
     </g>
    </g>
    <g id="ytick_42">
     <g id="line2d_85">
      <g>
       <use xlink:href="#macee7b4bfe" x="345.6" y="78.424625" style="stroke: #000000; stroke-width: 0.6"/>
      </g>
     </g>
    </g>
   </g>
   <g id="line2d_86">
    <path d="M 256.984615 71.778462 
L 257.960098 113.422844 
L 258.877874 143.939294 
L 259.780232 166.790826 
L 260.583492 181.913098 
L 261.319554 191.983473 
L 261.959626 198.13736 
L 262.550462 201.905082 
L 263.069778 203.856844 
L 263.471936 204.576222 
L 263.740041 204.701538 
L 264.008147 204.561516 
L 264.341033 204.040896 
L 264.673919 203.162005 
L 265.194551 201.132287 
L 265.922965 197.114381 
L 266.743999 191.216184 
L 267.779421 182.185167 
L 269.314662 166.648457 
L 274.612082 111.065847 
L 276.083232 98.594431 
L 277.362037 89.526065 
L 278.540829 82.77008 
L 279.507103 78.428898 
L 280.354732 75.521331 
L 281.193578 73.470426 
L 281.886093 72.38893 
L 282.301602 72.001002 
L 282.868482 71.781194 
L 283.290836 71.844955 
L 283.712867 72.098284 
L 284.275575 72.723253 
L 284.842419 73.67405 
L 285.618566 75.475808 
L 286.569292 78.422686 
L 287.574883 82.353137 
L 288.79711 88.130887 
L 290.33625 96.724213 
L 292.226588 108.812849 
L 294.895891 127.591145 
L 299.529523 160.315687 
L 301.676714 173.746819 
L 303.492903 183.599266 
L 304.971278 190.387164 
L 306.305633 195.45737 
L 307.345423 198.669389 
L 308.418677 201.280083 
L 309.313794 202.89847 
L 310.173357 203.969069 
L 310.830342 204.467236 
L 311.441095 204.682299 
L 312.031889 204.664345 
L 312.681398 204.390614 
L 313.36845 203.815463 
L 314.158464 202.798148 
L 314.983835 201.339031 
L 316.033003 198.921004 
L 317.214724 195.480749 
L 318.56291 190.69556 
L 320.022836 184.581641 
L 321.701367 176.518773 
L 323.895852 164.655781 
L 326.327336 150.342229 
L 332.514892 113.269575 
L 334.926481 100.44637 
L 336.916935 91.232852 
L 338.480155 85.069041 
L 339.947358 80.257322 
L 341.243158 76.85755 
L 342.257695 74.782475 
L 343.163632 73.380031 
L 344.094124 72.391735 
L 344.796557 71.953219 
L 345.486078 71.781976 
L 346.075857 71.83978 
L 346.861188 72.208812 
L 347.633598 72.895553 
L 348.376301 73.855778 
L 349.3232 75.499774 
L 350.357748 77.821143 
L 351.555208 81.168118 
L 352.884076 85.668065 
L 354.198903 90.875534 
L 355.870316 98.468169 
L 357.759613 108.165471 
L 359.891946 120.199601 
L 363.204654 140.177649 
L 367.346407 164.895565 
L 369.651201 177.292151 
L 371.421725 185.668273 
L 372.842684 191.481258 
L 374.262183 196.352445 
L 375.502154 199.760327 
L 376.609764 202.084571 
L 377.397021 203.302485 
L 378.204115 204.1635 
L 378.95647 204.604222 
L 379.586292 204.699954 
L 380.216113 204.543746 
L 380.908973 204.078674 
L 381.53662 203.391166 
L 382.30442 202.206069 
L 383.168929 200.420959 
L 384.094243 197.987935 
L 385.139084 194.605973 
L 386.427058 189.5459 
L 387.717563 183.547075 
L 389.276133 175.176978 
L 391.119753 163.917002 
L 393.504988 147.727555 
L 400.251909 100.478503 
L 401.830366 91.171342 
L 403.228422 84.114933 
L 404.440771 79.103496 
L 405.519693 75.64305 
L 406.374507 73.641107 
L 406.976252 72.652227 
L 407.577996 72.027947 
L 408.096462 71.793005 
L 408.531929 71.818527 
L 409.002261 72.079827 
L 409.534838 72.674505 
L 410.074326 73.606079 
L 410.753669 75.257525 
L 411.599356 78.066658 
L 412.507613 82.017164 
L 413.576908 87.893979 
L 414.664882 95.190867 
L 415.943923 105.356698 
L 417.408019 118.839948 
L 419.414673 139.686561 
L 423.415617 182.13846 
L 424.654829 192.761063 
L 425.629951 199.219675 
L 426.343731 202.538328 
L 426.862417 204.048175 
L 427.279954 204.635868 
L 427.549295 204.690011 
L 427.818636 204.471224 
L 428.14596 203.815107 
L 428.551844 202.365165 
L 429.015711 199.775104 
L 429.586785 195.089752 
L 430.200444 188.020926 
L 430.878797 177.475607 
L 431.628971 162.074707 
L 432.408367 141.399382 
L 433.23967 113.431606 
L 434.171721 73.863485 
L 434.215385 71.778462 
L 434.215385 71.778462 
" clip-path="url(#p81c2c1ff29)" style="fill: none; stroke: #ff0000; stroke-linecap: square"/>
   </g>
   <g id="patch_6">
    <path d="M 345.6 207.36 
L 345.6 69.12 
" style="fill: none; stroke: #000000; stroke-width: 0.8; stroke-linejoin: miter; stroke-linecap: square"/>
   </g>
   <g id="patch_7">
    <path d="M 253.44 138.240092 
L 437.76 138.240092 
" style="fill: none; stroke: #000000; stroke-width: 0.8; stroke-linejoin: miter; stroke-linecap: square"/>
   </g>
   <g id="text_18">
    <!-- n=8 -->
    <g transform="translate(335.060156 63.12) scale(0.1 -0.1)">
     <defs>
      <path id="DejaVuSans-38" d="M 2034 2216 
Q 1584 2216 1326 1975 
Q 1069 1734 1069 1313 
Q 1069 891 1326 650 
Q 1584 409 2034 409 
Q 2484 409 2743 651 
Q 3003 894 3003 1313 
Q 3003 1734 2745 1975 
Q 2488 2216 2034 2216 
z
M 1403 2484 
Q 997 2584 770 2862 
Q 544 3141 544 3541 
Q 544 4100 942 4425 
Q 1341 4750 2034 4750 
Q 2731 4750 3128 4425 
Q 3525 4100 3525 3541 
Q 3525 3141 3298 2862 
Q 3072 2584 2669 2484 
Q 3125 2378 3379 2068 
Q 3634 1759 3634 1313 
Q 3634 634 3220 271 
Q 2806 -91 2034 -91 
Q 1263 -91 848 271 
Q 434 634 434 1313 
Q 434 1759 690 2068 
Q 947 2378 1403 2484 
z
M 1172 3481 
Q 1172 3119 1398 2916 
Q 1625 2713 2034 2713 
Q 2441 2713 2670 2916 
Q 2900 3119 2900 3481 
Q 2900 3844 2670 4047 
Q 2441 4250 2034 4250 
Q 1625 4250 1398 4047 
Q 1172 3844 1172 3481 
z
" transform="scale(0.015625)"/>
     </defs>
     <use xlink:href="#DejaVuSans-6e"/>
     <use xlink:href="#DejaVuSans-3d" transform="translate(63.378906 0)"/>
     <use xlink:href="#DejaVuSans-38" transform="translate(147.167969 0)"/>
    </g>
   </g>
  </g>
  <g id="axes_3">
   <g id="patch_8">
    <path d="M 253.44 307.584 
L 437.76 307.584 
L 437.76 255.744 
L 253.44 255.744 
z
" style="fill: #ffffff"/>
   </g>
   <g id="matplotlib.axis_5">
    <g id="xtick_43">
     <g id="line2d_87">
      <g>
       <use xlink:href="#me6302f412c" x="256.984615" y="281.664" style="stroke: #000000; stroke-width: 0.8"/>
      </g>
     </g>
     <g id="text_19">
      <!-- −1.0 -->
      <g transform="translate(244.843209 296.262438) scale(0.1 -0.1)">
       <use xlink:href="#DejaVuSans-2212"/>
       <use xlink:href="#DejaVuSans-31" transform="translate(83.789062 0)"/>
       <use xlink:href="#DejaVuSans-2e" transform="translate(147.412109 0)"/>
       <use xlink:href="#DejaVuSans-30" transform="translate(179.199219 0)"/>
      </g>
     </g>
    </g>
    <g id="xtick_44">
     <g id="line2d_88">
      <g>
       <use xlink:href="#me6302f412c" x="301.292308" y="281.664" style="stroke: #000000; stroke-width: 0.8"/>
      </g>
     </g>
     <g id="text_20">
      <!-- −0.5 -->
      <g transform="translate(289.150901 296.262438) scale(0.1 -0.1)">
       <use xlink:href="#DejaVuSans-2212"/>
       <use xlink:href="#DejaVuSans-30" transform="translate(83.789062 0)"/>
       <use xlink:href="#DejaVuSans-2e" transform="translate(147.412109 0)"/>
       <use xlink:href="#DejaVuSans-35" transform="translate(179.199219 0)"/>
      </g>
     </g>
    </g>
    <g id="xtick_45">
     <g id="line2d_89">
      <g>
       <use xlink:href="#me6302f412c" x="345.6" y="281.664" style="stroke: #000000; stroke-width: 0.8"/>
      </g>
     </g>
    </g>
    <g id="xtick_46">
     <g id="line2d_90">
      <g>
       <use xlink:href="#me6302f412c" x="389.907692" y="281.664" style="stroke: #000000; stroke-width: 0.8"/>
      </g>
     </g>
     <g id="text_21">
      <!-- 0.5 -->
      <g transform="translate(381.95613 296.262438) scale(0.1 -0.1)">
       <use xlink:href="#DejaVuSans-30"/>
       <use xlink:href="#DejaVuSans-2e" transform="translate(63.623047 0)"/>
       <use xlink:href="#DejaVuSans-35" transform="translate(95.410156 0)"/>
      </g>
     </g>
    </g>
    <g id="xtick_47">
     <g id="line2d_91">
      <g>
       <use xlink:href="#me6302f412c" x="434.215385" y="281.664" style="stroke: #000000; stroke-width: 0.8"/>
      </g>
     </g>
     <g id="text_22">
      <!-- 1.0 -->
      <g transform="translate(426.263822 296.262438) scale(0.1 -0.1)">
       <use xlink:href="#DejaVuSans-31"/>
       <use xlink:href="#DejaVuSans-2e" transform="translate(63.623047 0)"/>
       <use xlink:href="#DejaVuSans-30" transform="translate(95.410156 0)"/>
      </g>
     </g>
    </g>
    <g id="xtick_48">
     <g id="line2d_92">
      <g>
       <use xlink:href="#mc09e3a2f3e" x="265.846154" y="281.664" style="stroke: #000000; stroke-width: 0.6"/>
      </g>
     </g>
    </g>
    <g id="xtick_49">
     <g id="line2d_93">
      <g>
       <use xlink:href="#mc09e3a2f3e" x="274.707692" y="281.664" style="stroke: #000000; stroke-width: 0.6"/>
      </g>
     </g>
    </g>
    <g id="xtick_50">
     <g id="line2d_94">
      <g>
       <use xlink:href="#mc09e3a2f3e" x="283.569231" y="281.664" style="stroke: #000000; stroke-width: 0.6"/>
      </g>
     </g>
    </g>
    <g id="xtick_51">
     <g id="line2d_95">
      <g>
       <use xlink:href="#mc09e3a2f3e" x="292.430769" y="281.664" style="stroke: #000000; stroke-width: 0.6"/>
      </g>
     </g>
    </g>
    <g id="xtick_52">
     <g id="line2d_96">
      <g>
       <use xlink:href="#mc09e3a2f3e" x="310.153846" y="281.664" style="stroke: #000000; stroke-width: 0.6"/>
      </g>
     </g>
    </g>
    <g id="xtick_53">
     <g id="line2d_97">
      <g>
       <use xlink:href="#mc09e3a2f3e" x="319.015385" y="281.664" style="stroke: #000000; stroke-width: 0.6"/>
      </g>
     </g>
    </g>
    <g id="xtick_54">
     <g id="line2d_98">
      <g>
       <use xlink:href="#mc09e3a2f3e" x="327.876923" y="281.664" style="stroke: #000000; stroke-width: 0.6"/>
      </g>
     </g>
    </g>
    <g id="xtick_55">
     <g id="line2d_99">
      <g>
       <use xlink:href="#mc09e3a2f3e" x="336.738462" y="281.664" style="stroke: #000000; stroke-width: 0.6"/>
      </g>
     </g>
    </g>
    <g id="xtick_56">
     <g id="line2d_100">
      <g>
       <use xlink:href="#mc09e3a2f3e" x="354.461538" y="281.664" style="stroke: #000000; stroke-width: 0.6"/>
      </g>
     </g>
    </g>
    <g id="xtick_57">
     <g id="line2d_101">
      <g>
       <use xlink:href="#mc09e3a2f3e" x="363.323077" y="281.664" style="stroke: #000000; stroke-width: 0.6"/>
      </g>
     </g>
    </g>
    <g id="xtick_58">
     <g id="line2d_102">
      <g>
       <use xlink:href="#mc09e3a2f3e" x="372.184615" y="281.664" style="stroke: #000000; stroke-width: 0.6"/>
      </g>
     </g>
    </g>
    <g id="xtick_59">
     <g id="line2d_103">
      <g>
       <use xlink:href="#mc09e3a2f3e" x="381.046154" y="281.664" style="stroke: #000000; stroke-width: 0.6"/>
      </g>
     </g>
    </g>
    <g id="xtick_60">
     <g id="line2d_104">
      <g>
       <use xlink:href="#mc09e3a2f3e" x="398.769231" y="281.664" style="stroke: #000000; stroke-width: 0.6"/>
      </g>
     </g>
    </g>
    <g id="xtick_61">
     <g id="line2d_105">
      <g>
       <use xlink:href="#mc09e3a2f3e" x="407.630769" y="281.664" style="stroke: #000000; stroke-width: 0.6"/>
      </g>
     </g>
    </g>
    <g id="xtick_62">
     <g id="line2d_106">
      <g>
       <use xlink:href="#mc09e3a2f3e" x="416.492308" y="281.664" style="stroke: #000000; stroke-width: 0.6"/>
      </g>
     </g>
    </g>
    <g id="xtick_63">
     <g id="line2d_107">
      <g>
       <use xlink:href="#mc09e3a2f3e" x="425.353846" y="281.664" style="stroke: #000000; stroke-width: 0.6"/>
      </g>
     </g>
    </g>
   </g>
   <g id="matplotlib.axis_6">
    <g id="ytick_43">
     <g id="line2d_108">
      <g>
       <use xlink:href="#mc9729300ae" x="345.6" y="306.587077" style="stroke: #000000; stroke-width: 0.8"/>
      </g>
     </g>
     <g id="text_23">
      <!-- −1.0 -->
      <g transform="translate(314.317188 310.386296) scale(0.1 -0.1)">
       <use xlink:href="#DejaVuSans-2212"/>
       <use xlink:href="#DejaVuSans-31" transform="translate(83.789062 0)"/>
       <use xlink:href="#DejaVuSans-2e" transform="translate(147.412109 0)"/>
       <use xlink:href="#DejaVuSans-30" transform="translate(179.199219 0)"/>
      </g>
     </g>
    </g>
    <g id="ytick_44">
     <g id="line2d_109">
      <g>
       <use xlink:href="#mc9729300ae" x="345.6" y="294.125539" style="stroke: #000000; stroke-width: 0.8"/>
      </g>
     </g>
     <g id="text_24">
      <!-- −0.5 -->
      <g transform="translate(314.317188 297.924758) scale(0.1 -0.1)">
       <use xlink:href="#DejaVuSans-2212"/>
       <use xlink:href="#DejaVuSans-30" transform="translate(83.789062 0)"/>
       <use xlink:href="#DejaVuSans-2e" transform="translate(147.412109 0)"/>
       <use xlink:href="#DejaVuSans-35" transform="translate(179.199219 0)"/>
      </g>
     </g>
    </g>
    <g id="ytick_45">
     <g id="line2d_110">
      <g>
       <use xlink:href="#mc9729300ae" x="345.6" y="281.664" style="stroke: #000000; stroke-width: 0.8"/>
      </g>
     </g>
    </g>
    <g id="ytick_46">
     <g id="line2d_111">
      <g>
       <use xlink:href="#mc9729300ae" x="345.6" y="269.202462" style="stroke: #000000; stroke-width: 0.8"/>
      </g>
     </g>
     <g id="text_25">
      <!-- 0.5 -->
      <g transform="translate(322.696875 273.00168) scale(0.1 -0.1)">
       <use xlink:href="#DejaVuSans-30"/>
       <use xlink:href="#DejaVuSans-2e" transform="translate(63.623047 0)"/>
       <use xlink:href="#DejaVuSans-35" transform="translate(95.410156 0)"/>
      </g>
     </g>
    </g>
    <g id="ytick_47">
     <g id="line2d_112">
      <g>
       <use xlink:href="#mc9729300ae" x="345.6" y="256.740923" style="stroke: #000000; stroke-width: 0.8"/>
      </g>
     </g>
     <g id="text_26">
      <!-- 1.0 -->
      <g transform="translate(322.696875 260.540142) scale(0.1 -0.1)">
       <use xlink:href="#DejaVuSans-31"/>
       <use xlink:href="#DejaVuSans-2e" transform="translate(63.623047 0)"/>
       <use xlink:href="#DejaVuSans-30" transform="translate(95.410156 0)"/>
      </g>
     </g>
    </g>
    <g id="ytick_48">
     <g id="line2d_113">
      <g>
       <use xlink:href="#macee7b4bfe" x="345.6" y="304.09477" style="stroke: #000000; stroke-width: 0.6"/>
      </g>
     </g>
    </g>
    <g id="ytick_49">
     <g id="line2d_114">
      <g>
       <use xlink:href="#macee7b4bfe" x="345.6" y="301.602462" style="stroke: #000000; stroke-width: 0.6"/>
      </g>
     </g>
    </g>
    <g id="ytick_50">
     <g id="line2d_115">
      <g>
       <use xlink:href="#macee7b4bfe" x="345.6" y="299.110154" style="stroke: #000000; stroke-width: 0.6"/>
      </g>
     </g>
    </g>
    <g id="ytick_51">
     <g id="line2d_116">
      <g>
       <use xlink:href="#macee7b4bfe" x="345.6" y="296.617847" style="stroke: #000000; stroke-width: 0.6"/>
      </g>
     </g>
    </g>
    <g id="ytick_52">
     <g id="line2d_117">
      <g>
       <use xlink:href="#macee7b4bfe" x="345.6" y="291.633231" style="stroke: #000000; stroke-width: 0.6"/>
      </g>
     </g>
    </g>
    <g id="ytick_53">
     <g id="line2d_118">
      <g>
       <use xlink:href="#macee7b4bfe" x="345.6" y="289.140923" style="stroke: #000000; stroke-width: 0.6"/>
      </g>
     </g>
    </g>
    <g id="ytick_54">
     <g id="line2d_119">
      <g>
       <use xlink:href="#macee7b4bfe" x="345.6" y="286.648616" style="stroke: #000000; stroke-width: 0.6"/>
      </g>
     </g>
    </g>
    <g id="ytick_55">
     <g id="line2d_120">
      <g>
       <use xlink:href="#macee7b4bfe" x="345.6" y="284.156308" style="stroke: #000000; stroke-width: 0.6"/>
      </g>
     </g>
    </g>
    <g id="ytick_56">
     <g id="line2d_121">
      <g>
       <use xlink:href="#macee7b4bfe" x="345.6" y="279.171693" style="stroke: #000000; stroke-width: 0.6"/>
      </g>
     </g>
    </g>
    <g id="ytick_57">
     <g id="line2d_122">
      <g>
       <use xlink:href="#macee7b4bfe" x="345.6" y="276.679385" style="stroke: #000000; stroke-width: 0.6"/>
      </g>
     </g>
    </g>
    <g id="ytick_58">
     <g id="line2d_123">
      <g>
       <use xlink:href="#macee7b4bfe" x="345.6" y="274.187077" style="stroke: #000000; stroke-width: 0.6"/>
      </g>
     </g>
    </g>
    <g id="ytick_59">
     <g id="line2d_124">
      <g>
       <use xlink:href="#macee7b4bfe" x="345.6" y="271.694769" style="stroke: #000000; stroke-width: 0.6"/>
      </g>
     </g>
    </g>
    <g id="ytick_60">
     <g id="line2d_125">
      <g>
       <use xlink:href="#macee7b4bfe" x="345.6" y="266.710154" style="stroke: #000000; stroke-width: 0.6"/>
      </g>
     </g>
    </g>
    <g id="ytick_61">
     <g id="line2d_126">
      <g>
       <use xlink:href="#macee7b4bfe" x="345.6" y="264.217846" style="stroke: #000000; stroke-width: 0.6"/>
      </g>
     </g>
    </g>
    <g id="ytick_62">
     <g id="line2d_127">
      <g>
       <use xlink:href="#macee7b4bfe" x="345.6" y="261.725539" style="stroke: #000000; stroke-width: 0.6"/>
      </g>
     </g>
    </g>
    <g id="ytick_63">
     <g id="line2d_128">
      <g>
       <use xlink:href="#macee7b4bfe" x="345.6" y="259.233231" style="stroke: #000000; stroke-width: 0.6"/>
      </g>
     </g>
    </g>
   </g>
   <g id="line2d_129">
    <path d="M 256.984615 256.740923 
L 257.478075 284.610692 
L 257.936288 299.12455 
L 258.304399 304.839207 
L 258.592211 306.487791 
L 258.720128 306.575708 
L 258.848044 306.324033 
L 259.071898 305.177 
L 259.434891 301.806497 
L 260.035635 293.649133 
L 261.923051 266.494124 
L 262.574914 260.676 
L 263.068225 258.006213 
L 263.447695 256.966323 
L 263.700328 256.74338 
L 263.902019 256.821919 
L 264.174388 257.270073 
L 264.517435 258.353164 
L 264.985697 260.656971 
L 265.666095 265.371101 
L 266.641825 273.950198 
L 268.982376 295.088644 
L 269.867698 300.900534 
L 270.55346 304.068201 
L 271.110895 305.710879 
L 271.516319 306.37131 
L 271.861972 306.582789 
L 272.150015 306.517357 
L 272.496381 306.157064 
L 272.936183 305.277283 
L 273.481728 303.578601 
L 274.133332 300.772168 
L 275.055136 295.642942 
L 276.267862 287.56022 
L 278.980614 269.171813 
L 280.075484 263.412886 
L 280.900928 260.152393 
L 281.548824 258.331132 
L 282.073029 257.356939 
L 282.597233 256.836546 
L 283.016597 256.745751 
L 283.416235 256.924002 
L 283.891127 257.462357 
L 284.417063 258.454528 
L 285.014214 260.052315 
L 285.795196 262.820662 
L 286.734182 267.00079 
L 288.060424 274.027167 
L 292.013516 295.842901 
L 293.128264 300.493161 
L 294.055857 303.445399 
L 294.847072 305.221278 
L 295.461124 306.10142 
L 296.003295 306.508728 
L 296.502841 306.576396 
L 296.972176 306.373995 
L 297.444338 305.915777 
L 298.011689 305.038634 
L 298.730794 303.44216 
L 299.532336 301.078399 
L 300.509035 297.478211 
L 301.788282 291.835424 
L 303.810493 281.748218 
L 306.204984 270.088303 
L 307.498808 264.807536 
L 308.603529 261.204517 
L 309.462224 259.089298 
L 310.228251 257.756318 
L 310.819499 257.100961 
L 311.321079 256.805219 
L 311.837567 256.75151 
L 312.366529 256.958758 
L 312.893057 257.424393 
L 313.507341 258.285402 
L 314.253813 259.770931 
L 315.137108 262.10413 
L 316.250018 265.820293 
L 317.52347 270.915951 
L 319.606425 280.394795 
L 322.444131 293.225183 
L 323.841424 298.52759 
L 324.977819 302.001634 
L 325.868454 304.093283 
L 326.637737 305.407953 
L 327.268389 306.127414 
L 327.797638 306.475296 
L 328.309219 306.587074 
L 328.803133 306.485389 
L 329.345469 306.138403 
L 329.947736 305.46962 
L 330.607544 304.405327 
L 331.398153 302.696855 
L 332.431988 299.811404 
L 333.61479 295.733588 
L 335.117355 289.653933 
L 340.81862 265.473703 
L 341.976406 261.890343 
L 342.946711 259.547441 
L 343.78241 258.071208 
L 344.511365 257.220857 
L 345.131048 256.830212 
L 345.705849 256.745475 
L 346.215298 256.89457 
L 346.826638 257.349727 
L 347.492048 258.181363 
L 348.205604 259.449295 
L 349.075972 261.492733 
L 349.994276 264.188282 
L 351.24392 268.614404 
L 352.862462 275.303834 
L 357.834125 296.652113 
L 359.045514 300.653491 
L 360.050105 303.28228 
L 360.863555 304.883659 
L 361.592261 305.883396 
L 362.252589 306.417001 
L 362.816707 306.584931 
L 363.293538 306.51759 
L 363.84984 306.196519 
L 364.452419 305.556832 
L 365.191811 304.366921 
L 365.973096 302.645633 
L 366.795789 300.353759 
L 367.876489 296.680171 
L 369.232617 291.211295 
L 371.0692 282.859729 
L 374.085787 269.197091 
L 375.430543 264.118894 
L 376.445654 261.020502 
L 377.354418 258.900531 
L 378.045677 257.749478 
L 378.735091 257.026275 
L 379.292235 256.763806 
L 379.714301 256.760489 
L 380.279236 257.021929 
L 380.821053 257.557991 
L 381.500316 258.618727 
L 382.292629 260.383711 
L 383.167092 262.949238 
L 384.251521 266.929538 
L 385.662863 273.161963 
L 387.258556 281.080318 
L 390.011423 294.589556 
L 391.312661 299.854045 
L 392.348019 303.122663 
L 393.152406 304.971495 
L 393.791189 305.958979 
L 394.275316 306.406058 
L 394.799145 306.586441 
L 395.24347 306.487315 
L 395.661294 306.181042 
L 396.235367 305.423952 
L 396.861524 304.16101 
L 397.585871 302.151918 
L 398.419482 299.162589 
L 399.425129 294.712313 
L 400.708197 288.006246 
L 405.059919 264.259004 
L 405.992485 260.669586 
L 406.803672 258.40783 
L 407.386593 257.350526 
L 407.914553 256.83759 
L 408.352844 256.747856 
L 408.766952 256.950703 
L 409.214478 257.488069 
L 409.693788 258.430142 
L 410.288592 260.117626 
L 410.980616 262.772466 
L 411.84415 267.033288 
L 412.898795 273.405725 
L 414.572999 285.02191 
L 416.36541 296.972904 
L 417.352657 302.09969 
L 418.065093 304.733059 
L 418.649314 306.073482 
L 419.067015 306.527223 
L 419.401176 306.568001 
L 419.729135 306.319564 
L 420.078958 305.732893 
L 420.500579 304.580376 
L 421.050164 302.353375 
L 421.691931 298.759075 
L 422.457242 293.224112 
L 423.619311 282.924413 
L 425.722959 263.924958 
L 426.434721 259.462746 
L 426.960663 257.432278 
L 427.328822 256.795599 
L 427.56568 256.766521 
L 427.763371 256.984505 
L 428.040137 257.67561 
L 428.418306 259.373166 
L 428.866946 262.535698 
L 429.421347 268.118242 
L 430.19329 278.514835 
L 432.017254 304.322741 
L 432.347712 306.310302 
L 432.54445 306.576194 
L 432.692004 306.225481 
L 432.888742 304.904569 
L 433.134664 301.651513 
L 433.478956 293.467736 
L 433.878161 277.336911 
L 434.215385 256.740923 
L 434.215385 256.740923 
" clip-path="url(#p134cb9f55d)" style="fill: none; stroke: #a52a2a; stroke-linecap: square"/>
   </g>
   <g id="patch_9">
    <path d="M 345.6 307.584 
L 345.6 255.744 
" style="fill: none; stroke: #000000; stroke-width: 0.8; stroke-linejoin: miter; stroke-linecap: square"/>
   </g>
   <g id="patch_10">
    <path d="M 253.44 281.664 
L 437.76 281.664 
" style="fill: none; stroke: #000000; stroke-width: 0.8; stroke-linejoin: miter; stroke-linecap: square"/>
   </g>
   <g id="text_27">
    <!-- n=16 -->
    <g transform="translate(331.878906 249.744) scale(0.1 -0.1)">
     <defs>
      <path id="DejaVuSans-36" d="M 2113 2584 
Q 1688 2584 1439 2293 
Q 1191 2003 1191 1497 
Q 1191 994 1439 701 
Q 1688 409 2113 409 
Q 2538 409 2786 701 
Q 3034 994 3034 1497 
Q 3034 2003 2786 2293 
Q 2538 2584 2113 2584 
z
M 3366 4563 
L 3366 3988 
Q 3128 4100 2886 4159 
Q 2644 4219 2406 4219 
Q 1781 4219 1451 3797 
Q 1122 3375 1075 2522 
Q 1259 2794 1537 2939 
Q 1816 3084 2150 3084 
Q 2853 3084 3261 2657 
Q 3669 2231 3669 1497 
Q 3669 778 3244 343 
Q 2819 -91 2113 -91 
Q 1303 -91 875 529 
Q 447 1150 447 2328 
Q 447 3434 972 4092 
Q 1497 4750 2381 4750 
Q 2619 4750 2861 4703 
Q 3103 4656 3366 4563 
z
" transform="scale(0.015625)"/>
     </defs>
     <use xlink:href="#DejaVuSans-6e"/>
     <use xlink:href="#DejaVuSans-3d" transform="translate(63.378906 0)"/>
     <use xlink:href="#DejaVuSans-31" transform="translate(147.167969 0)"/>
     <use xlink:href="#DejaVuSans-36" transform="translate(210.791016 0)"/>
    </g>
   </g>
  </g>
  <g id="axes_4">
   <g id="patch_11">
    <path d="M 82.944 69.12 
L 405.504 69.12 
L 405.504 34.56 
L 82.944 34.56 
z
" style="fill: #ffffff"/>
   </g>
   <g id="matplotlib.axis_7"/>
   <g id="matplotlib.axis_8"/>
   <g id="text_28">
    <!-- Chebyshev polynomials -->
    <g style="fill: #0000ff" transform="translate(149.19025 56.255) scale(0.16 -0.16)">
     <defs>
      <path id="DejaVuSans-43" d="M 4122 4306 
L 4122 3641 
Q 3803 3938 3442 4084 
Q 3081 4231 2675 4231 
Q 1875 4231 1450 3742 
Q 1025 3253 1025 2328 
Q 1025 1406 1450 917 
Q 1875 428 2675 428 
Q 3081 428 3442 575 
Q 3803 722 4122 1019 
L 4122 359 
Q 3791 134 3420 21 
Q 3050 -91 2638 -91 
Q 1578 -91 968 557 
Q 359 1206 359 2328 
Q 359 3453 968 4101 
Q 1578 4750 2638 4750 
Q 3056 4750 3426 4639 
Q 3797 4528 4122 4306 
z
" transform="scale(0.015625)"/>
      <path id="DejaVuSans-68" d="M 3513 2113 
L 3513 0 
L 2938 0 
L 2938 2094 
Q 2938 2591 2744 2837 
Q 2550 3084 2163 3084 
Q 1697 3084 1428 2787 
Q 1159 2491 1159 1978 
L 1159 0 
L 581 0 
L 581 4863 
L 1159 4863 
L 1159 2956 
Q 1366 3272 1645 3428 
Q 1925 3584 2291 3584 
Q 2894 3584 3203 3211 
Q 3513 2838 3513 2113 
z
" transform="scale(0.015625)"/>
      <path id="DejaVuSans-65" d="M 3597 1894 
L 3597 1613 
L 953 1613 
Q 991 1019 1311 708 
Q 1631 397 2203 397 
Q 2534 397 2845 478 
Q 3156 559 3463 722 
L 3463 178 
Q 3153 47 2828 -22 
Q 2503 -91 2169 -91 
Q 1331 -91 842 396 
Q 353 884 353 1716 
Q 353 2575 817 3079 
Q 1281 3584 2069 3584 
Q 2775 3584 3186 3129 
Q 3597 2675 3597 1894 
z
M 3022 2063 
Q 3016 2534 2758 2815 
Q 2500 3097 2075 3097 
Q 1594 3097 1305 2825 
Q 1016 2553 972 2059 
L 3022 2063 
z
" transform="scale(0.015625)"/>
      <path id="DejaVuSans-62" d="M 3116 1747 
Q 3116 2381 2855 2742 
Q 2594 3103 2138 3103 
Q 1681 3103 1420 2742 
Q 1159 2381 1159 1747 
Q 1159 1113 1420 752 
Q 1681 391 2138 391 
Q 2594 391 2855 752 
Q 3116 1113 3116 1747 
z
M 1159 2969 
Q 1341 3281 1617 3432 
Q 1894 3584 2278 3584 
Q 2916 3584 3314 3078 
Q 3713 2572 3713 1747 
Q 3713 922 3314 415 
Q 2916 -91 2278 -91 
Q 1894 -91 1617 61 
Q 1341 213 1159 525 
L 1159 0 
L 581 0 
L 581 4863 
L 1159 4863 
L 1159 2969 
z
" transform="scale(0.015625)"/>
      <path id="DejaVuSans-79" d="M 2059 -325 
Q 1816 -950 1584 -1140 
Q 1353 -1331 966 -1331 
L 506 -1331 
L 506 -850 
L 844 -850 
Q 1081 -850 1212 -737 
Q 1344 -625 1503 -206 
L 1606 56 
L 191 3500 
L 800 3500 
L 1894 763 
L 2988 3500 
L 3597 3500 
L 2059 -325 
z
" transform="scale(0.015625)"/>
      <path id="DejaVuSans-73" d="M 2834 3397 
L 2834 2853 
Q 2591 2978 2328 3040 
Q 2066 3103 1784 3103 
Q 1356 3103 1142 2972 
Q 928 2841 928 2578 
Q 928 2378 1081 2264 
Q 1234 2150 1697 2047 
L 1894 2003 
Q 2506 1872 2764 1633 
Q 3022 1394 3022 966 
Q 3022 478 2636 193 
Q 2250 -91 1575 -91 
Q 1294 -91 989 -36 
Q 684 19 347 128 
L 347 722 
Q 666 556 975 473 
Q 1284 391 1588 391 
Q 1994 391 2212 530 
Q 2431 669 2431 922 
Q 2431 1156 2273 1281 
Q 2116 1406 1581 1522 
L 1381 1569 
Q 847 1681 609 1914 
Q 372 2147 372 2553 
Q 372 3047 722 3315 
Q 1072 3584 1716 3584 
Q 2034 3584 2315 3537 
Q 2597 3491 2834 3397 
z
" transform="scale(0.015625)"/>
      <path id="DejaVuSans-76" d="M 191 3500 
L 800 3500 
L 1894 563 
L 2988 3500 
L 3597 3500 
L 2284 0 
L 1503 0 
L 191 3500 
z
" transform="scale(0.015625)"/>
      <path id="DejaVuSans-20" transform="scale(0.015625)"/>
      <path id="DejaVuSans-70" d="M 1159 525 
L 1159 -1331 
L 581 -1331 
L 581 3500 
L 1159 3500 
L 1159 2969 
Q 1341 3281 1617 3432 
Q 1894 3584 2278 3584 
Q 2916 3584 3314 3078 
Q 3713 2572 3713 1747 
Q 3713 922 3314 415 
Q 2916 -91 2278 -91 
Q 1894 -91 1617 61 
Q 1341 213 1159 525 
z
M 3116 1747 
Q 3116 2381 2855 2742 
Q 2594 3103 2138 3103 
Q 1681 3103 1420 2742 
Q 1159 2381 1159 1747 
Q 1159 1113 1420 752 
Q 1681 391 2138 391 
Q 2594 391 2855 752 
Q 3116 1113 3116 1747 
z
" transform="scale(0.015625)"/>
      <path id="DejaVuSans-6f" d="M 1959 3097 
Q 1497 3097 1228 2736 
Q 959 2375 959 1747 
Q 959 1119 1226 758 
Q 1494 397 1959 397 
Q 2419 397 2687 759 
Q 2956 1122 2956 1747 
Q 2956 2369 2687 2733 
Q 2419 3097 1959 3097 
z
M 1959 3584 
Q 2709 3584 3137 3096 
Q 3566 2609 3566 1747 
Q 3566 888 3137 398 
Q 2709 -91 1959 -91 
Q 1206 -91 779 398 
Q 353 888 353 1747 
Q 353 2609 779 3096 
Q 1206 3584 1959 3584 
z
" transform="scale(0.015625)"/>
      <path id="DejaVuSans-6c" d="M 603 4863 
L 1178 4863 
L 1178 0 
L 603 0 
L 603 4863 
z
" transform="scale(0.015625)"/>
      <path id="DejaVuSans-6d" d="M 3328 2828 
Q 3544 3216 3844 3400 
Q 4144 3584 4550 3584 
Q 5097 3584 5394 3201 
Q 5691 2819 5691 2113 
L 5691 0 
L 5113 0 
L 5113 2094 
Q 5113 2597 4934 2840 
Q 4756 3084 4391 3084 
Q 3944 3084 3684 2787 
Q 3425 2491 3425 1978 
L 3425 0 
L 2847 0 
L 2847 2094 
Q 2847 2600 2669 2842 
Q 2491 3084 2119 3084 
Q 1678 3084 1418 2786 
Q 1159 2488 1159 1978 
L 1159 0 
L 581 0 
L 581 3500 
L 1159 3500 
L 1159 2956 
Q 1356 3278 1631 3431 
Q 1906 3584 2284 3584 
Q 2666 3584 2933 3390 
Q 3200 3197 3328 2828 
z
" transform="scale(0.015625)"/>
      <path id="DejaVuSans-69" d="M 603 3500 
L 1178 3500 
L 1178 0 
L 603 0 
L 603 3500 
z
M 603 4863 
L 1178 4863 
L 1178 4134 
L 603 4134 
L 603 4863 
z
" transform="scale(0.015625)"/>
      <path id="DejaVuSans-61" d="M 2194 1759 
Q 1497 1759 1228 1600 
Q 959 1441 959 1056 
Q 959 750 1161 570 
Q 1363 391 1709 391 
Q 2188 391 2477 730 
Q 2766 1069 2766 1631 
L 2766 1759 
L 2194 1759 
z
M 3341 1997 
L 3341 0 
L 2766 0 
L 2766 531 
Q 2569 213 2275 61 
Q 1981 -91 1556 -91 
Q 1019 -91 701 211 
Q 384 513 384 1019 
Q 384 1609 779 1909 
Q 1175 2209 1959 2209 
L 2766 2209 
L 2766 2266 
Q 2766 2663 2505 2880 
Q 2244 3097 1772 3097 
Q 1472 3097 1187 3025 
Q 903 2953 641 2809 
L 641 3341 
Q 956 3463 1253 3523 
Q 1550 3584 1831 3584 
Q 2591 3584 2966 3190 
Q 3341 2797 3341 1997 
z
" transform="scale(0.015625)"/>
     </defs>
     <use xlink:href="#DejaVuSans-43"/>
     <use xlink:href="#DejaVuSans-68" transform="translate(69.824219 0)"/>
     <use xlink:href="#DejaVuSans-65" transform="translate(133.203125 0)"/>
     <use xlink:href="#DejaVuSans-62" transform="translate(194.726562 0)"/>
     <use xlink:href="#DejaVuSans-79" transform="translate(258.203125 0)"/>
     <use xlink:href="#DejaVuSans-73" transform="translate(317.382812 0)"/>
     <use xlink:href="#DejaVuSans-68" transform="translate(369.482422 0)"/>
     <use xlink:href="#DejaVuSans-65" transform="translate(432.861328 0)"/>
     <use xlink:href="#DejaVuSans-76" transform="translate(494.384766 0)"/>
     <use xlink:href="#DejaVuSans-20" transform="translate(553.564453 0)"/>
     <use xlink:href="#DejaVuSans-70" transform="translate(585.351562 0)"/>
     <use xlink:href="#DejaVuSans-6f" transform="translate(648.828125 0)"/>
     <use xlink:href="#DejaVuSans-6c" transform="translate(710.009766 0)"/>
     <use xlink:href="#DejaVuSans-79" transform="translate(737.792969 0)"/>
     <use xlink:href="#DejaVuSans-6e" transform="translate(796.972656 0)"/>
     <use xlink:href="#DejaVuSans-6f" transform="translate(860.351562 0)"/>
     <use xlink:href="#DejaVuSans-6d" transform="translate(921.533203 0)"/>
     <use xlink:href="#DejaVuSans-69" transform="translate(1018.945312 0)"/>
     <use xlink:href="#DejaVuSans-61" transform="translate(1046.728516 0)"/>
     <use xlink:href="#DejaVuSans-6c" transform="translate(1108.007812 0)"/>
     <use xlink:href="#DejaVuSans-73" transform="translate(1135.791016 0)"/>
    </g>
   </g>
  </g>
 </g>
 <defs>
  <clipPath id="pb659ae9349">
   <rect x="57.6" y="138.24" width="184.32" height="138.24"/>
  </clipPath>
  <clipPath id="p81c2c1ff29">
   <rect x="253.44" y="69.12" width="184.32" height="138.24"/>
  </clipPath>
  <clipPath id="p134cb9f55d">
   <rect x="253.44" y="255.744" width="184.32" height="51.84"/>
  </clipPath>
 </defs>
</svg>
