<?xml version="1.0" encoding="utf-8" standalone="no"?>
<!DOCTYPE svg PUBLIC "-//W3C//DTD SVG 1.1//EN"
  "http://www.w3.org/Graphics/SVG/1.1/DTD/svg11.dtd">
<svg xmlns:xlink="http://www.w3.org/1999/xlink" width="288pt" height="216pt" viewBox="0 0 288 216" xmlns="http://www.w3.org/2000/svg" version="1.1">
 <metadata>
  <rdf:RDF xmlns:dc="http://purl.org/dc/elements/1.1/" xmlns:cc="http://creativecommons.org/ns#" xmlns:rdf="http://www.w3.org/1999/02/22-rdf-syntax-ns#">
   <cc:Work>
    <dc:type rdf:resource="http://purl.org/dc/dcmitype/StillImage"/>
    <dc:date>2025-08-04T21:52:56.925083</dc:date>
    <dc:format>image/svg+xml</dc:format>
    <dc:creator>
     <cc:Agent>
      <dc:title>Matplotlib v3.10.3, https://matplotlib.org/</dc:title>
     </cc:Agent>
    </dc:creator>
   </cc:Work>
  </rdf:RDF>
 </metadata>
 <defs>
  <style type="text/css">*{stroke-linejoin: round; stroke-linecap: butt}</style>
 </defs>
 <g id="figure_1">
  <g id="patch_1">
   <path d="M 0 216 
L 288 216 
L 288 0 
L 0 0 
z
" style="fill: #ffffff"/>
  </g>
  <g id="axes_1">
   <g id="patch_2">
    <path d="M 10.8 102.6 
L 138.6 102.6 
L 138.6 10.8 
L 10.8 10.8 
z
" style="fill: #ffffff"/>
   </g>
   <g id="matplotlib.axis_1"/>
   <g id="matplotlib.axis_2"/>
   <g id="line2d_1">
    <path d="M 13.257692 100.834615 
L 17.901527 98.56882 
L 22.967565 95.824863 
L 28.161437 92.735862 
L 33.679222 89.172828 
L 39.539391 85.102816 
L 45.912459 80.384812 
L 53.014613 74.829496 
L 61.550511 67.839386 
L 73.519701 57.707484 
L 90.239665 43.575753 
L 98.818422 36.636319 
L 106.079254 31.062882 
L 111.937624 26.823152 
L 117.406435 23.10955 
L 123.21688 19.455972 
L 127.850583 16.779386 
L 132.87025 14.136383 
L 136.142308 12.565385 
L 136.142308 12.565385 
" clip-path="url(#pe028b8a5bc)" style="fill: none; stroke: #0000ff; stroke-linecap: square"/>
   </g>
  </g>
  <g id="axes_2">
   <g id="patch_3">
    <path d="M 149.4 102.6 
L 277.2 102.6 
L 277.2 10.8 
L 149.4 10.8 
z
" style="fill: #ffffff"/>
   </g>
   <g id="matplotlib.axis_3"/>
   <g id="matplotlib.axis_4"/>
   <g id="line2d_2">
    <path d="M 151.857692 100.834615 
L 156.566057 88.769357 
L 161.266302 77.402861 
L 165.194438 68.471509 
L 168.506512 61.371619 
L 172.416294 53.527418 
L 175.936825 46.986485 
L 178.996823 41.720667 
L 182.096276 36.798717 
L 185.259749 32.215371 
L 188.117076 28.467919 
L 190.573927 25.549907 
L 193.060772 22.887769 
L 195.478934 20.584513 
L 198.017099 18.473544 
L 200.848918 16.493273 
L 202.850967 15.334082 
L 205.265251 14.203529 
L 207.597454 13.390483 
L 209.918423 12.854798 
L 211.626763 12.635254 
L 213.963758 12.575261 
L 216.158635 12.771843 
L 218.403413 13.226045 
L 221.001097 14.070369 
L 223.302437 15.10287 
L 225.904504 16.59036 
L 228.387221 18.323941 
L 230.730825 20.239433 
L 233.228111 22.575582 
L 236.075472 25.605774 
L 238.804066 28.870253 
L 241.50018 32.436215 
L 244.317654 36.516701 
L 247.735811 41.940629 
L 250.812624 47.253786 
L 253.556556 52.325278 
L 257.062694 59.245924 
L 260.411875 66.298921 
L 264.241047 74.864745 
L 268.652764 85.355947 
L 272.995394 96.28321 
L 274.742308 100.834615 
L 274.742308 100.834615 
" clip-path="url(#pb6217dc332)" style="fill: none; stroke: #0000ff; stroke-linecap: square"/>
   </g>
  </g>
  <g id="axes_3">
   <g id="patch_4">
    <path d="M 10.8 205.2 
L 138.6 205.2 
L 138.6 113.4 
L 10.8 113.4 
z
" style="fill: #ffffff"/>
   </g>
   <g id="matplotlib.axis_5"/>
   <g id="matplotlib.axis_6"/>
   <g id="line2d_3">
    <path d="M 13.257692 203.434615 
L 15.722249 199.767901 
L 18.263953 196.401957 
L 20.892784 193.283926 
L 23.900547 190.086798 
L 26.998016 187.131403 
L 29.829903 184.67493 
L 33.552014 181.737523 
L 37.118991 179.175877 
L 41.947387 176.02082 
L 46.369579 173.378765 
L 52.157227 170.190303 
L 58.917369 166.74373 
L 67.717344 162.534488 
L 92.292618 150.956646 
L 99.00613 147.465618 
L 104.38775 144.431899 
L 109.577036 141.230168 
L 113.853789 138.321851 
L 117.498669 135.596641 
L 120.934832 132.767739 
L 124.07623 129.909479 
L 127.281089 126.662817 
L 129.880365 123.72916 
L 132.360118 120.624491 
L 134.672066 117.405209 
L 136.142308 115.165385 
L 136.142308 115.165385 
" clip-path="url(#pcef684172b)" style="fill: none; stroke: #0000ff; stroke-linecap: square"/>
   </g>
  </g>
  <g id="axes_4">
   <g id="patch_5">
    <path d="M 149.4 205.2 
L 277.2 205.2 
L 277.2 113.4 
L 149.4 113.4 
z
" style="fill: #ffffff"/>
   </g>
   <g id="matplotlib.axis_7"/>
   <g id="matplotlib.axis_8"/>
   <g id="line2d_4">
    <path d="M 151.857692 115.165385 
L 153.872951 124.402112 
L 155.750075 132.078638 
L 157.626743 138.984106 
L 159.874566 146.381729 
L 162.115514 152.939367 
L 163.96266 157.811401 
L 166.490821 163.799338 
L 169.121556 169.302926 
L 171.010299 172.853417 
L 173.20493 176.605248 
L 175.247604 179.771502 
L 177.532474 182.977544 
L 180.029669 186.115442 
L 183.087705 189.491312 
L 185.807855 192.10631 
L 188.169482 194.108046 
L 190.563581 195.902565 
L 193.017051 197.51345 
L 196.195295 199.280762 
L 198.612086 200.398325 
L 201.019781 201.32773 
L 204.215958 202.290642 
L 207.477258 202.967325 
L 210.653263 203.338614 
L 213.455058 203.434615 
L 216.619165 203.283382 
L 219.610629 202.885318 
L 222.830312 202.174282 
L 225.486851 201.360182 
L 228.260133 200.281849 
L 230.734898 199.113215 
L 233.522497 197.550357 
L 235.75452 196.099097 
L 238.317776 194.197719 
L 241.07687 191.848581 
L 243.610418 189.390409 
L 246.237869 186.506406 
L 248.614944 183.573491 
L 251.283486 179.873208 
L 253.28526 176.783149 
L 255.940478 172.217504 
L 258.202226 167.856653 
L 260.800698 162.233943 
L 262.713156 157.620129 
L 264.956873 151.618987 
L 267.16442 145.005499 
L 269.402167 137.468181 
L 271.227941 130.598174 
L 273.378597 121.536276 
L 274.742308 115.165385 
L 274.742308 115.165385 
" clip-path="url(#p73c58419fc)" style="fill: none; stroke: #0000ff; stroke-linecap: square"/>
   </g>
  </g>
 </g>
 <defs>
  <clipPath id="pe028b8a5bc">
   <rect x="10.8" y="10.8" width="127.8" height="91.8"/>
  </clipPath>
  <clipPath id="pb6217dc332">
   <rect x="149.4" y="10.8" width="127.8" height="91.8"/>
  </clipPath>
  <clipPath id="pcef684172b">
   <rect x="10.8" y="113.4" width="127.8" height="91.8"/>
  </clipPath>
  <clipPath id="p73c58419fc">
   <rect x="149.4" y="113.4" width="127.8" height="91.8"/>
  </clipPath>
 </defs>
</svg>
