<?xml version="1.0" encoding="utf-8" standalone="no"?>
<!DOCTYPE svg PUBLIC "-//W3C//DTD SVG 1.1//EN"
  "http://www.w3.org/Graphics/SVG/1.1/DTD/svg11.dtd">
<svg xmlns:xlink="http://www.w3.org/1999/xlink" width="460.8pt" height="345.6pt" viewBox="0 0 460.8 345.6" xmlns="http://www.w3.org/2000/svg" version="1.1">
 <metadata>
  <rdf:RDF xmlns:dc="http://purl.org/dc/elements/1.1/" xmlns:cc="http://creativecommons.org/ns#" xmlns:rdf="http://www.w3.org/1999/02/22-rdf-syntax-ns#">
   <cc:Work>
    <dc:type rdf:resource="http://purl.org/dc/dcmitype/StillImage"/>
    <dc:date>2025-08-07T23:33:35.982404</dc:date>
    <dc:format>image/svg+xml</dc:format>
    <dc:creator>
     <cc:Agent>
      <dc:title>Matplotlib v3.10.3, https://matplotlib.org/</dc:title>
     </cc:Agent>
    </dc:creator>
   </cc:Work>
  </rdf:RDF>
 </metadata>
 <defs>
  <style type="text/css">*{stroke-linejoin: round; stroke-linecap: butt}</style>
 </defs>
 <g id="figure_1">
  <g id="patch_1">
   <path d="M 0 345.6 
L 460.8 345.6 
L 460.8 0 
L 0 0 
z
" style="fill: #ffffff"/>
  </g>
  <g id="axes_1">
   <g id="patch_2">
    <path d="M 57.6 276.48 
L 241.92 276.48 
L 241.92 138.24 
L 57.6 138.24 
z
" style="fill: #ffffff"/>
   </g>
   <g id="matplotlib.axis_1">
    <g id="xtick_1">
     <g id="line2d_1">
      <defs>
       <path id="m17036bf2a2" d="M 0 0 
L 0 3.5 
" style="stroke: #000000; stroke-width: 0.8"/>
      </defs>
      <g>
       <use xlink:href="#m17036bf2a2" x="61.144615" y="207.360875" style="stroke: #000000; stroke-width: 0.8"/>
      </g>
     </g>
     <g id="text_1">
      <!-- −1.0 -->
      <g transform="translate(49.003209 221.959313) scale(0.1 -0.1)">
       <defs>
        <path id="DejaVuSans-2212" d="M 678 2272 
L 4684 2272 
L 4684 1741 
L 678 1741 
L 678 2272 
z
" transform="scale(0.015625)"/>
        <path id="DejaVuSans-31" d="M 794 531 
L 1825 531 
L 1825 4091 
L 703 3866 
L 703 4441 
L 1819 4666 
L 2450 4666 
L 2450 531 
L 3481 531 
L 3481 0 
L 794 0 
L 794 531 
z
" transform="scale(0.015625)"/>
        <path id="DejaVuSans-2e" d="M 684 794 
L 1344 794 
L 1344 0 
L 684 0 
L 684 794 
z
" transform="scale(0.015625)"/>
        <path id="DejaVuSans-30" d="M 2034 4250 
Q 1547 4250 1301 3770 
Q 1056 3291 1056 2328 
Q 1056 1369 1301 889 
Q 1547 409 2034 409 
Q 2525 409 2770 889 
Q 3016 1369 3016 2328 
Q 3016 3291 2770 3770 
Q 2525 4250 2034 4250 
z
M 2034 4750 
Q 2819 4750 3233 4129 
Q 3647 3509 3647 2328 
Q 3647 1150 3233 529 
Q 2819 -91 2034 -91 
Q 1250 -91 836 529 
Q 422 1150 422 2328 
Q 422 3509 836 4129 
Q 1250 4750 2034 4750 
z
" transform="scale(0.015625)"/>
       </defs>
       <use xlink:href="#DejaVuSans-2212"/>
       <use xlink:href="#DejaVuSans-31" transform="translate(83.789062 0)"/>
       <use xlink:href="#DejaVuSans-2e" transform="translate(147.412109 0)"/>
       <use xlink:href="#DejaVuSans-30" transform="translate(179.199219 0)"/>
      </g>
     </g>
    </g>
    <g id="xtick_2">
     <g id="line2d_2">
      <g>
       <use xlink:href="#m17036bf2a2" x="105.452308" y="207.360875" style="stroke: #000000; stroke-width: 0.8"/>
      </g>
     </g>
     <g id="text_2">
      <!-- −0.5 -->
      <g transform="translate(93.310901 221.959313) scale(0.1 -0.1)">
       <defs>
        <path id="DejaVuSans-35" d="M 691 4666 
L 3169 4666 
L 3169 4134 
L 1269 4134 
L 1269 2991 
Q 1406 3038 1543 3061 
Q 1681 3084 1819 3084 
Q 2600 3084 3056 2656 
Q 3513 2228 3513 1497 
Q 3513 744 3044 326 
Q 2575 -91 1722 -91 
Q 1428 -91 1123 -41 
Q 819 9 494 109 
L 494 744 
Q 775 591 1075 516 
Q 1375 441 1709 441 
Q 2250 441 2565 725 
Q 2881 1009 2881 1497 
Q 2881 1984 2565 2268 
Q 2250 2553 1709 2553 
Q 1456 2553 1204 2497 
Q 953 2441 691 2322 
L 691 4666 
z
" transform="scale(0.015625)"/>
       </defs>
       <use xlink:href="#DejaVuSans-2212"/>
       <use xlink:href="#DejaVuSans-30" transform="translate(83.789062 0)"/>
       <use xlink:href="#DejaVuSans-2e" transform="translate(147.412109 0)"/>
       <use xlink:href="#DejaVuSans-35" transform="translate(179.199219 0)"/>
      </g>
     </g>
    </g>
    <g id="xtick_3">
     <g id="line2d_3">
      <g>
       <use xlink:href="#m17036bf2a2" x="149.76" y="207.360875" style="stroke: #000000; stroke-width: 0.8"/>
      </g>
     </g>
    </g>
    <g id="xtick_4">
     <g id="line2d_4">
      <g>
       <use xlink:href="#m17036bf2a2" x="194.067692" y="207.360875" style="stroke: #000000; stroke-width: 0.8"/>
      </g>
     </g>
     <g id="text_3">
      <!-- 0.5 -->
      <g transform="translate(186.11613 221.959313) scale(0.1 -0.1)">
       <use xlink:href="#DejaVuSans-30"/>
       <use xlink:href="#DejaVuSans-2e" transform="translate(63.623047 0)"/>
       <use xlink:href="#DejaVuSans-35" transform="translate(95.410156 0)"/>
      </g>
     </g>
    </g>
    <g id="xtick_5">
     <g id="line2d_5">
      <g>
       <use xlink:href="#m17036bf2a2" x="238.375385" y="207.360875" style="stroke: #000000; stroke-width: 0.8"/>
      </g>
     </g>
     <g id="text_4">
      <!-- 1.0 -->
      <g transform="translate(230.423822 221.959313) scale(0.1 -0.1)">
       <use xlink:href="#DejaVuSans-31"/>
       <use xlink:href="#DejaVuSans-2e" transform="translate(63.623047 0)"/>
       <use xlink:href="#DejaVuSans-30" transform="translate(95.410156 0)"/>
      </g>
     </g>
    </g>
    <g id="xtick_6">
     <g id="line2d_6">
      <defs>
       <path id="m2e8231bae2" d="M 0 0 
L 0 2 
" style="stroke: #000000; stroke-width: 0.6"/>
      </defs>
      <g>
       <use xlink:href="#m2e8231bae2" x="70.006154" y="207.360875" style="stroke: #000000; stroke-width: 0.6"/>
      </g>
     </g>
    </g>
    <g id="xtick_7">
     <g id="line2d_7">
      <g>
       <use xlink:href="#m2e8231bae2" x="78.867692" y="207.360875" style="stroke: #000000; stroke-width: 0.6"/>
      </g>
     </g>
    </g>
    <g id="xtick_8">
     <g id="line2d_8">
      <g>
       <use xlink:href="#m2e8231bae2" x="87.729231" y="207.360875" style="stroke: #000000; stroke-width: 0.6"/>
      </g>
     </g>
    </g>
    <g id="xtick_9">
     <g id="line2d_9">
      <g>
       <use xlink:href="#m2e8231bae2" x="96.590769" y="207.360875" style="stroke: #000000; stroke-width: 0.6"/>
      </g>
     </g>
    </g>
    <g id="xtick_10">
     <g id="line2d_10">
      <g>
       <use xlink:href="#m2e8231bae2" x="114.313846" y="207.360875" style="stroke: #000000; stroke-width: 0.6"/>
      </g>
     </g>
    </g>
    <g id="xtick_11">
     <g id="line2d_11">
      <g>
       <use xlink:href="#m2e8231bae2" x="123.175385" y="207.360875" style="stroke: #000000; stroke-width: 0.6"/>
      </g>
     </g>
    </g>
    <g id="xtick_12">
     <g id="line2d_12">
      <g>
       <use xlink:href="#m2e8231bae2" x="132.036923" y="207.360875" style="stroke: #000000; stroke-width: 0.6"/>
      </g>
     </g>
    </g>
    <g id="xtick_13">
     <g id="line2d_13">
      <g>
       <use xlink:href="#m2e8231bae2" x="140.898462" y="207.360875" style="stroke: #000000; stroke-width: 0.6"/>
      </g>
     </g>
    </g>
    <g id="xtick_14">
     <g id="line2d_14">
      <g>
       <use xlink:href="#m2e8231bae2" x="158.621538" y="207.360875" style="stroke: #000000; stroke-width: 0.6"/>
      </g>
     </g>
    </g>
    <g id="xtick_15">
     <g id="line2d_15">
      <g>
       <use xlink:href="#m2e8231bae2" x="167.483077" y="207.360875" style="stroke: #000000; stroke-width: 0.6"/>
      </g>
     </g>
    </g>
    <g id="xtick_16">
     <g id="line2d_16">
      <g>
       <use xlink:href="#m2e8231bae2" x="176.344615" y="207.360875" style="stroke: #000000; stroke-width: 0.6"/>
      </g>
     </g>
    </g>
    <g id="xtick_17">
     <g id="line2d_17">
      <g>
       <use xlink:href="#m2e8231bae2" x="185.206154" y="207.360875" style="stroke: #000000; stroke-width: 0.6"/>
      </g>
     </g>
    </g>
    <g id="xtick_18">
     <g id="line2d_18">
      <g>
       <use xlink:href="#m2e8231bae2" x="202.929231" y="207.360875" style="stroke: #000000; stroke-width: 0.6"/>
      </g>
     </g>
    </g>
    <g id="xtick_19">
     <g id="line2d_19">
      <g>
       <use xlink:href="#m2e8231bae2" x="211.790769" y="207.360875" style="stroke: #000000; stroke-width: 0.6"/>
      </g>
     </g>
    </g>
    <g id="xtick_20">
     <g id="line2d_20">
      <g>
       <use xlink:href="#m2e8231bae2" x="220.652308" y="207.360875" style="stroke: #000000; stroke-width: 0.6"/>
      </g>
     </g>
    </g>
    <g id="xtick_21">
     <g id="line2d_21">
      <g>
       <use xlink:href="#m2e8231bae2" x="229.513846" y="207.360875" style="stroke: #000000; stroke-width: 0.6"/>
      </g>
     </g>
    </g>
   </g>
   <g id="matplotlib.axis_2">
    <g id="ytick_1">
     <g id="line2d_22">
      <defs>
       <path id="m749795a735" d="M 0 0 
L -3.5 0 
" style="stroke: #000000; stroke-width: 0.8"/>
      </defs>
      <g>
       <use xlink:href="#m749795a735" x="149.76" y="273.823289" style="stroke: #000000; stroke-width: 0.8"/>
      </g>
     </g>
     <g id="text_5">
      <!-- −1.0 -->
      <g transform="translate(118.477188 277.622507) scale(0.1 -0.1)">
       <use xlink:href="#DejaVuSans-2212"/>
       <use xlink:href="#DejaVuSans-31" transform="translate(83.789062 0)"/>
       <use xlink:href="#DejaVuSans-2e" transform="translate(147.412109 0)"/>
       <use xlink:href="#DejaVuSans-30" transform="translate(179.199219 0)"/>
      </g>
     </g>
    </g>
    <g id="ytick_2">
     <g id="line2d_23">
      <g>
       <use xlink:href="#m749795a735" x="149.76" y="240.592082" style="stroke: #000000; stroke-width: 0.8"/>
      </g>
     </g>
     <g id="text_6">
      <!-- −0.5 -->
      <g transform="translate(118.477188 244.391301) scale(0.1 -0.1)">
       <use xlink:href="#DejaVuSans-2212"/>
       <use xlink:href="#DejaVuSans-30" transform="translate(83.789062 0)"/>
       <use xlink:href="#DejaVuSans-2e" transform="translate(147.412109 0)"/>
       <use xlink:href="#DejaVuSans-35" transform="translate(179.199219 0)"/>
      </g>
     </g>
    </g>
    <g id="ytick_3">
     <g id="line2d_24">
      <g>
       <use xlink:href="#m749795a735" x="149.76" y="207.360875" style="stroke: #000000; stroke-width: 0.8"/>
      </g>
     </g>
    </g>
    <g id="ytick_4">
     <g id="line2d_25">
      <g>
       <use xlink:href="#m749795a735" x="149.76" y="174.129668" style="stroke: #000000; stroke-width: 0.8"/>
      </g>
     </g>
     <g id="text_7">
      <!-- 0.5 -->
      <g transform="translate(126.856875 177.928887) scale(0.1 -0.1)">
       <use xlink:href="#DejaVuSans-30"/>
       <use xlink:href="#DejaVuSans-2e" transform="translate(63.623047 0)"/>
       <use xlink:href="#DejaVuSans-35" transform="translate(95.410156 0)"/>
      </g>
     </g>
    </g>
    <g id="ytick_5">
     <g id="line2d_26">
      <g>
       <use xlink:href="#m749795a735" x="149.76" y="140.898462" style="stroke: #000000; stroke-width: 0.8"/>
      </g>
     </g>
     <g id="text_8">
      <!-- 1.0 -->
      <g transform="translate(126.856875 144.69768) scale(0.1 -0.1)">
       <use xlink:href="#DejaVuSans-31"/>
       <use xlink:href="#DejaVuSans-2e" transform="translate(63.623047 0)"/>
       <use xlink:href="#DejaVuSans-30" transform="translate(95.410156 0)"/>
      </g>
     </g>
    </g>
    <g id="ytick_6">
     <g id="line2d_27">
      <defs>
       <path id="m6426a83afe" d="M 0 0 
L -2 0 
" style="stroke: #000000; stroke-width: 0.6"/>
      </defs>
      <g>
       <use xlink:href="#m6426a83afe" x="149.76" y="267.177047" style="stroke: #000000; stroke-width: 0.6"/>
      </g>
     </g>
    </g>
    <g id="ytick_7">
     <g id="line2d_28">
      <g>
       <use xlink:href="#m6426a83afe" x="149.76" y="260.530806" style="stroke: #000000; stroke-width: 0.6"/>
      </g>
     </g>
    </g>
    <g id="ytick_8">
     <g id="line2d_29">
      <g>
       <use xlink:href="#m6426a83afe" x="149.76" y="253.884565" style="stroke: #000000; stroke-width: 0.6"/>
      </g>
     </g>
    </g>
    <g id="ytick_9">
     <g id="line2d_30">
      <g>
       <use xlink:href="#m6426a83afe" x="149.76" y="247.238323" style="stroke: #000000; stroke-width: 0.6"/>
      </g>
     </g>
    </g>
    <g id="ytick_10">
     <g id="line2d_31">
      <g>
       <use xlink:href="#m6426a83afe" x="149.76" y="233.94584" style="stroke: #000000; stroke-width: 0.6"/>
      </g>
     </g>
    </g>
    <g id="ytick_11">
     <g id="line2d_32">
      <g>
       <use xlink:href="#m6426a83afe" x="149.76" y="227.299599" style="stroke: #000000; stroke-width: 0.6"/>
      </g>
     </g>
    </g>
    <g id="ytick_12">
     <g id="line2d_33">
      <g>
       <use xlink:href="#m6426a83afe" x="149.76" y="220.653358" style="stroke: #000000; stroke-width: 0.6"/>
      </g>
     </g>
    </g>
    <g id="ytick_13">
     <g id="line2d_34">
      <g>
       <use xlink:href="#m6426a83afe" x="149.76" y="214.007116" style="stroke: #000000; stroke-width: 0.6"/>
      </g>
     </g>
    </g>
    <g id="ytick_14">
     <g id="line2d_35">
      <g>
       <use xlink:href="#m6426a83afe" x="149.76" y="200.714634" style="stroke: #000000; stroke-width: 0.6"/>
      </g>
     </g>
    </g>
    <g id="ytick_15">
     <g id="line2d_36">
      <g>
       <use xlink:href="#m6426a83afe" x="149.76" y="194.068392" style="stroke: #000000; stroke-width: 0.6"/>
      </g>
     </g>
    </g>
    <g id="ytick_16">
     <g id="line2d_37">
      <g>
       <use xlink:href="#m6426a83afe" x="149.76" y="187.422151" style="stroke: #000000; stroke-width: 0.6"/>
      </g>
     </g>
    </g>
    <g id="ytick_17">
     <g id="line2d_38">
      <g>
       <use xlink:href="#m6426a83afe" x="149.76" y="180.77591" style="stroke: #000000; stroke-width: 0.6"/>
      </g>
     </g>
    </g>
    <g id="ytick_18">
     <g id="line2d_39">
      <g>
       <use xlink:href="#m6426a83afe" x="149.76" y="167.483427" style="stroke: #000000; stroke-width: 0.6"/>
      </g>
     </g>
    </g>
    <g id="ytick_19">
     <g id="line2d_40">
      <g>
       <use xlink:href="#m6426a83afe" x="149.76" y="160.837186" style="stroke: #000000; stroke-width: 0.6"/>
      </g>
     </g>
    </g>
    <g id="ytick_20">
     <g id="line2d_41">
      <g>
       <use xlink:href="#m6426a83afe" x="149.76" y="154.190944" style="stroke: #000000; stroke-width: 0.6"/>
      </g>
     </g>
    </g>
    <g id="ytick_21">
     <g id="line2d_42">
      <g>
       <use xlink:href="#m6426a83afe" x="149.76" y="147.544703" style="stroke: #000000; stroke-width: 0.6"/>
      </g>
     </g>
    </g>
   </g>
   <g id="line2d_43">
    <path d="M 61.144615 140.898462 
L 63.068934 162.758608 
L 65.136023 183.594653 
L 67.035084 200.452553 
L 68.868679 214.768136 
L 70.767132 227.67242 
L 72.455273 237.598928 
L 74.117331 246.027054 
L 75.594773 252.457692 
L 76.910864 257.387183 
L 78.151952 261.378639 
L 79.537245 265.11629 
L 80.88799 268.067764 
L 82.031167 270.057659 
L 83.003213 271.400102 
L 84.033186 272.487012 
L 84.883486 273.134586 
L 85.910847 273.628323 
L 86.666382 273.797714 
L 87.486679 273.803109 
L 88.377636 273.606541 
L 89.501577 273.071569 
L 90.620049 272.237818 
L 91.76953 271.085889 
L 93.107295 269.392889 
L 94.582943 267.118196 
L 95.912541 264.732606 
L 97.688823 261.09599 
L 99.654178 256.540947 
L 101.793652 251.038639 
L 104.597568 243.130641 
L 108.123571 232.365302 
L 113.560128 214.82003 
L 120.327724 193.081869 
L 124.055446 181.871402 
L 127.370074 172.674784 
L 130.21516 165.505214 
L 132.557839 160.179567 
L 134.829075 155.564525 
L 136.944555 151.786153 
L 139.097008 148.485492 
L 140.652862 146.454948 
L 142.277417 144.662407 
L 144.025476 143.115739 
L 145.588669 142.073992 
L 147.014838 141.408223 
L 148.193337 141.064597 
L 149.543925 140.901623 
L 150.979926 140.999209 
L 152.134549 141.279965 
L 153.60041 141.895212 
L 154.918972 142.694435 
L 156.235149 143.722187 
L 158.037893 145.497649 
L 159.566852 147.330599 
L 161.332493 149.811611 
L 163.035683 152.563962 
L 165.061235 156.278428 
L 167.01724 160.298362 
L 169.220923 165.305053 
L 171.727193 171.564225 
L 174.734308 179.775482 
L 177.993213 189.391839 
L 181.492688 200.336247 
L 194.959244 243.238773 
L 198.072904 251.964385 
L 200.163461 257.263599 
L 202.436437 262.389643 
L 204.31823 266.045762 
L 205.917664 268.67567 
L 207.180082 270.408893 
L 208.333158 271.706065 
L 209.469399 272.69879 
L 210.588659 273.382042 
L 211.598215 273.732914 
L 212.566204 273.820409 
L 213.587179 273.63553 
L 214.515744 273.208774 
L 215.51529 272.461474 
L 216.43202 271.502398 
L 217.556382 269.952609 
L 218.472534 268.37275 
L 219.52011 266.202407 
L 220.819452 262.947309 
L 221.991426 259.451655 
L 223.399007 254.516865 
L 224.697634 249.216998 
L 226.213378 242.078092 
L 227.77024 233.622255 
L 229.229703 224.608593 
L 230.988033 212.278858 
L 232.648454 199.08378 
L 234.504234 182.45486 
L 236.335755 163.991739 
L 238.215715 142.805901 
L 238.375385 140.898462 
L 238.375385 140.898462 
" clip-path="url(#p57b5773f77)" style="fill: none; stroke: #0000ff; stroke-linecap: square"/>
   </g>
   <g id="patch_3">
    <path d="M 149.76 276.48 
L 149.76 138.24 
" style="fill: none; stroke: #000000; stroke-width: 0.8; stroke-linejoin: miter; stroke-linecap: square"/>
   </g>
   <g id="patch_4">
    <path d="M 57.6 207.360875 
L 241.92 207.360875 
" style="fill: none; stroke: #000000; stroke-width: 0.8; stroke-linejoin: miter; stroke-linecap: square"/>
   </g>
   <g id="text_9">
    <!-- n=4 -->
    <g transform="translate(139.220156 132.24) scale(0.1 -0.1)">
     <defs>
      <path id="DejaVuSans-6e" d="M 3513 2113 
L 3513 0 
L 2938 0 
L 2938 2094 
Q 2938 2591 2744 2837 
Q 2550 3084 2163 3084 
Q 1697 3084 1428 2787 
Q 1159 2491 1159 1978 
L 1159 0 
L 581 0 
L 581 3500 
L 1159 3500 
L 1159 2956 
Q 1366 3272 1645 3428 
Q 1925 3584 2291 3584 
Q 2894 3584 3203 3211 
Q 3513 2838 3513 2113 
z
" transform="scale(0.015625)"/>
      <path id="DejaVuSans-3d" d="M 678 2906 
L 4684 2906 
L 4684 2381 
L 678 2381 
L 678 2906 
z
M 678 1631 
L 4684 1631 
L 4684 1100 
L 678 1100 
L 678 1631 
z
" transform="scale(0.015625)"/>
      <path id="DejaVuSans-34" d="M 2419 4116 
L 825 1625 
L 2419 1625 
L 2419 4116 
z
M 2253 4666 
L 3047 4666 
L 3047 1625 
L 3713 1625 
L 3713 1100 
L 3047 1100 
L 3047 0 
L 2419 0 
L 2419 1100 
L 313 1100 
L 313 1709 
L 2253 4666 
z
" transform="scale(0.015625)"/>
     </defs>
     <use xlink:href="#DejaVuSans-6e"/>
     <use xlink:href="#DejaVuSans-3d" transform="translate(63.378906 0)"/>
     <use xlink:href="#DejaVuSans-34" transform="translate(147.167969 0)"/>
    </g>
   </g>
  </g>
  <g id="axes_2">
   <g id="patch_5">
    <path d="M 253.44 207.36 
L 437.76 207.36 
L 437.76 69.12 
L 253.44 69.12 
z
" style="fill: #ffffff"/>
   </g>
   <g id="matplotlib.axis_3">
    <g id="xtick_22">
     <g id="line2d_44">
      <g>
       <use xlink:href="#m17036bf2a2" x="256.984615" y="138.240132" style="stroke: #000000; stroke-width: 0.8"/>
      </g>
     </g>
     <g id="text_10">
      <!-- −1.0 -->
      <g transform="translate(244.843209 152.83857) scale(0.1 -0.1)">
       <use xlink:href="#DejaVuSans-2212"/>
       <use xlink:href="#DejaVuSans-31" transform="translate(83.789062 0)"/>
       <use xlink:href="#DejaVuSans-2e" transform="translate(147.412109 0)"/>
       <use xlink:href="#DejaVuSans-30" transform="translate(179.199219 0)"/>
      </g>
     </g>
    </g>
    <g id="xtick_23">
     <g id="line2d_45">
      <g>
       <use xlink:href="#m17036bf2a2" x="301.292308" y="138.240132" style="stroke: #000000; stroke-width: 0.8"/>
      </g>
     </g>
     <g id="text_11">
      <!-- −0.5 -->
      <g transform="translate(289.150901 152.83857) scale(0.1 -0.1)">
       <use xlink:href="#DejaVuSans-2212"/>
       <use xlink:href="#DejaVuSans-30" transform="translate(83.789062 0)"/>
       <use xlink:href="#DejaVuSans-2e" transform="translate(147.412109 0)"/>
       <use xlink:href="#DejaVuSans-35" transform="translate(179.199219 0)"/>
      </g>
     </g>
    </g>
    <g id="xtick_24">
     <g id="line2d_46">
      <g>
       <use xlink:href="#m17036bf2a2" x="345.6" y="138.240132" style="stroke: #000000; stroke-width: 0.8"/>
      </g>
     </g>
    </g>
    <g id="xtick_25">
     <g id="line2d_47">
      <g>
       <use xlink:href="#m17036bf2a2" x="389.907692" y="138.240132" style="stroke: #000000; stroke-width: 0.8"/>
      </g>
     </g>
     <g id="text_12">
      <!-- 0.5 -->
      <g transform="translate(381.95613 152.83857) scale(0.1 -0.1)">
       <use xlink:href="#DejaVuSans-30"/>
       <use xlink:href="#DejaVuSans-2e" transform="translate(63.623047 0)"/>
       <use xlink:href="#DejaVuSans-35" transform="translate(95.410156 0)"/>
      </g>
     </g>
    </g>
    <g id="xtick_26">
     <g id="line2d_48">
      <g>
       <use xlink:href="#m17036bf2a2" x="434.215385" y="138.240132" style="stroke: #000000; stroke-width: 0.8"/>
      </g>
     </g>
     <g id="text_13">
      <!-- 1.0 -->
      <g transform="translate(426.263822 152.83857) scale(0.1 -0.1)">
       <use xlink:href="#DejaVuSans-31"/>
       <use xlink:href="#DejaVuSans-2e" transform="translate(63.623047 0)"/>
       <use xlink:href="#DejaVuSans-30" transform="translate(95.410156 0)"/>
      </g>
     </g>
    </g>
    <g id="xtick_27">
     <g id="line2d_49">
      <g>
       <use xlink:href="#m2e8231bae2" x="265.846154" y="138.240132" style="stroke: #000000; stroke-width: 0.6"/>
      </g>
     </g>
    </g>
    <g id="xtick_28">
     <g id="line2d_50">
      <g>
       <use xlink:href="#m2e8231bae2" x="274.707692" y="138.240132" style="stroke: #000000; stroke-width: 0.6"/>
      </g>
     </g>
    </g>
    <g id="xtick_29">
     <g id="line2d_51">
      <g>
       <use xlink:href="#m2e8231bae2" x="283.569231" y="138.240132" style="stroke: #000000; stroke-width: 0.6"/>
      </g>
     </g>
    </g>
    <g id="xtick_30">
     <g id="line2d_52">
      <g>
       <use xlink:href="#m2e8231bae2" x="292.430769" y="138.240132" style="stroke: #000000; stroke-width: 0.6"/>
      </g>
     </g>
    </g>
    <g id="xtick_31">
     <g id="line2d_53">
      <g>
       <use xlink:href="#m2e8231bae2" x="310.153846" y="138.240132" style="stroke: #000000; stroke-width: 0.6"/>
      </g>
     </g>
    </g>
    <g id="xtick_32">
     <g id="line2d_54">
      <g>
       <use xlink:href="#m2e8231bae2" x="319.015385" y="138.240132" style="stroke: #000000; stroke-width: 0.6"/>
      </g>
     </g>
    </g>
    <g id="xtick_33">
     <g id="line2d_55">
      <g>
       <use xlink:href="#m2e8231bae2" x="327.876923" y="138.240132" style="stroke: #000000; stroke-width: 0.6"/>
      </g>
     </g>
    </g>
    <g id="xtick_34">
     <g id="line2d_56">
      <g>
       <use xlink:href="#m2e8231bae2" x="336.738462" y="138.240132" style="stroke: #000000; stroke-width: 0.6"/>
      </g>
     </g>
    </g>
    <g id="xtick_35">
     <g id="line2d_57">
      <g>
       <use xlink:href="#m2e8231bae2" x="354.461538" y="138.240132" style="stroke: #000000; stroke-width: 0.6"/>
      </g>
     </g>
    </g>
    <g id="xtick_36">
     <g id="line2d_58">
      <g>
       <use xlink:href="#m2e8231bae2" x="363.323077" y="138.240132" style="stroke: #000000; stroke-width: 0.6"/>
      </g>
     </g>
    </g>
    <g id="xtick_37">
     <g id="line2d_59">
      <g>
       <use xlink:href="#m2e8231bae2" x="372.184615" y="138.240132" style="stroke: #000000; stroke-width: 0.6"/>
      </g>
     </g>
    </g>
    <g id="xtick_38">
     <g id="line2d_60">
      <g>
       <use xlink:href="#m2e8231bae2" x="381.046154" y="138.240132" style="stroke: #000000; stroke-width: 0.6"/>
      </g>
     </g>
    </g>
    <g id="xtick_39">
     <g id="line2d_61">
      <g>
       <use xlink:href="#m2e8231bae2" x="398.769231" y="138.240132" style="stroke: #000000; stroke-width: 0.6"/>
      </g>
     </g>
    </g>
    <g id="xtick_40">
     <g id="line2d_62">
      <g>
       <use xlink:href="#m2e8231bae2" x="407.630769" y="138.240132" style="stroke: #000000; stroke-width: 0.6"/>
      </g>
     </g>
    </g>
    <g id="xtick_41">
     <g id="line2d_63">
      <g>
       <use xlink:href="#m2e8231bae2" x="416.492308" y="138.240132" style="stroke: #000000; stroke-width: 0.6"/>
      </g>
     </g>
    </g>
    <g id="xtick_42">
     <g id="line2d_64">
      <g>
       <use xlink:href="#m2e8231bae2" x="425.353846" y="138.240132" style="stroke: #000000; stroke-width: 0.6"/>
      </g>
     </g>
    </g>
   </g>
   <g id="matplotlib.axis_4">
    <g id="ytick_22">
     <g id="line2d_65">
      <g>
       <use xlink:href="#m749795a735" x="345.6" y="204.701803" style="stroke: #000000; stroke-width: 0.8"/>
      </g>
     </g>
     <g id="text_14">
      <!-- −1.0 -->
      <g transform="translate(314.317188 208.501022) scale(0.1 -0.1)">
       <use xlink:href="#DejaVuSans-2212"/>
       <use xlink:href="#DejaVuSans-31" transform="translate(83.789062 0)"/>
       <use xlink:href="#DejaVuSans-2e" transform="translate(147.412109 0)"/>
       <use xlink:href="#DejaVuSans-30" transform="translate(179.199219 0)"/>
      </g>
     </g>
    </g>
    <g id="ytick_23">
     <g id="line2d_66">
      <g>
       <use xlink:href="#m749795a735" x="345.6" y="171.470968" style="stroke: #000000; stroke-width: 0.8"/>
      </g>
     </g>
     <g id="text_15">
      <!-- −0.5 -->
      <g transform="translate(314.317188 175.270187) scale(0.1 -0.1)">
       <use xlink:href="#DejaVuSans-2212"/>
       <use xlink:href="#DejaVuSans-30" transform="translate(83.789062 0)"/>
       <use xlink:href="#DejaVuSans-2e" transform="translate(147.412109 0)"/>
       <use xlink:href="#DejaVuSans-35" transform="translate(179.199219 0)"/>
      </g>
     </g>
    </g>
    <g id="ytick_24">
     <g id="line2d_67">
      <g>
       <use xlink:href="#m749795a735" x="345.6" y="138.240132" style="stroke: #000000; stroke-width: 0.8"/>
      </g>
     </g>
    </g>
    <g id="ytick_25">
     <g id="line2d_68">
      <g>
       <use xlink:href="#m749795a735" x="345.6" y="105.009297" style="stroke: #000000; stroke-width: 0.8"/>
      </g>
     </g>
     <g id="text_16">
      <!-- 0.5 -->
      <g transform="translate(322.696875 108.808516) scale(0.1 -0.1)">
       <use xlink:href="#DejaVuSans-30"/>
       <use xlink:href="#DejaVuSans-2e" transform="translate(63.623047 0)"/>
       <use xlink:href="#DejaVuSans-35" transform="translate(95.410156 0)"/>
      </g>
     </g>
    </g>
    <g id="ytick_26">
     <g id="line2d_69">
      <g>
       <use xlink:href="#m749795a735" x="345.6" y="71.778462" style="stroke: #000000; stroke-width: 0.8"/>
      </g>
     </g>
     <g id="text_17">
      <!-- 1.0 -->
      <g transform="translate(322.696875 75.57768) scale(0.1 -0.1)">
       <use xlink:href="#DejaVuSans-31"/>
       <use xlink:href="#DejaVuSans-2e" transform="translate(63.623047 0)"/>
       <use xlink:href="#DejaVuSans-30" transform="translate(95.410156 0)"/>
      </g>
     </g>
    </g>
    <g id="ytick_27">
     <g id="line2d_70">
      <g>
       <use xlink:href="#m6426a83afe" x="345.6" y="198.055636" style="stroke: #000000; stroke-width: 0.6"/>
      </g>
     </g>
    </g>
    <g id="ytick_28">
     <g id="line2d_71">
      <g>
       <use xlink:href="#m6426a83afe" x="345.6" y="191.409469" style="stroke: #000000; stroke-width: 0.6"/>
      </g>
     </g>
    </g>
    <g id="ytick_29">
     <g id="line2d_72">
      <g>
       <use xlink:href="#m6426a83afe" x="345.6" y="184.763302" style="stroke: #000000; stroke-width: 0.6"/>
      </g>
     </g>
    </g>
    <g id="ytick_30">
     <g id="line2d_73">
      <g>
       <use xlink:href="#m6426a83afe" x="345.6" y="178.117135" style="stroke: #000000; stroke-width: 0.6"/>
      </g>
     </g>
    </g>
    <g id="ytick_31">
     <g id="line2d_74">
      <g>
       <use xlink:href="#m6426a83afe" x="345.6" y="164.824801" style="stroke: #000000; stroke-width: 0.6"/>
      </g>
     </g>
    </g>
    <g id="ytick_32">
     <g id="line2d_75">
      <g>
       <use xlink:href="#m6426a83afe" x="345.6" y="158.178634" style="stroke: #000000; stroke-width: 0.6"/>
      </g>
     </g>
    </g>
    <g id="ytick_33">
     <g id="line2d_76">
      <g>
       <use xlink:href="#m6426a83afe" x="345.6" y="151.532467" style="stroke: #000000; stroke-width: 0.6"/>
      </g>
     </g>
    </g>
    <g id="ytick_34">
     <g id="line2d_77">
      <g>
       <use xlink:href="#m6426a83afe" x="345.6" y="144.886299" style="stroke: #000000; stroke-width: 0.6"/>
      </g>
     </g>
    </g>
    <g id="ytick_35">
     <g id="line2d_78">
      <g>
       <use xlink:href="#m6426a83afe" x="345.6" y="131.593965" style="stroke: #000000; stroke-width: 0.6"/>
      </g>
     </g>
    </g>
    <g id="ytick_36">
     <g id="line2d_79">
      <g>
       <use xlink:href="#m6426a83afe" x="345.6" y="124.947798" style="stroke: #000000; stroke-width: 0.6"/>
      </g>
     </g>
    </g>
    <g id="ytick_37">
     <g id="line2d_80">
      <g>
       <use xlink:href="#m6426a83afe" x="345.6" y="118.301631" style="stroke: #000000; stroke-width: 0.6"/>
      </g>
     </g>
    </g>
    <g id="ytick_38">
     <g id="line2d_81">
      <g>
       <use xlink:href="#m6426a83afe" x="345.6" y="111.655464" style="stroke: #000000; stroke-width: 0.6"/>
      </g>
     </g>
    </g>
    <g id="ytick_39">
     <g id="line2d_82">
      <g>
       <use xlink:href="#m6426a83afe" x="345.6" y="98.36313" style="stroke: #000000; stroke-width: 0.6"/>
      </g>
     </g>
    </g>
    <g id="ytick_40">
     <g id="line2d_83">
      <g>
       <use xlink:href="#m6426a83afe" x="345.6" y="91.716963" style="stroke: #000000; stroke-width: 0.6"/>
      </g>
     </g>
    </g>
    <g id="ytick_41">
     <g id="line2d_84">
      <g>
       <use xlink:href="#m6426a83afe" x="345.6" y="85.070796" style="stroke: #000000; stroke-width: 0.6"/>
      </g>
     </g>
    </g>
    <g id="ytick_42">
     <g id="line2d_85">
      <g>
       <use xlink:href="#m6426a83afe" x="345.6" y="78.424629" style="stroke: #000000; stroke-width: 0.6"/>
      </g>
     </g>
    </g>
   </g>
   <g id="line2d_86">
    <path d="M 256.984615 71.778462 
L 257.957756 113.334778 
L 258.858046 143.361121 
L 259.719628 165.45926 
L 260.537154 181.163066 
L 261.306944 191.839008 
L 261.959009 198.132581 
L 262.557599 201.940282 
L 263.037267 203.769544 
L 263.442112 204.545296 
L 263.773726 204.698288 
L 263.989671 204.579446 
L 264.313589 204.09782 
L 264.765285 202.861759 
L 265.238678 200.926182 
L 265.906576 197.21841 
L 266.795466 190.805296 
L 267.867702 181.350017 
L 269.306449 166.736049 
L 274.537114 111.754046 
L 276.038912 98.939598 
L 277.330441 89.728768 
L 278.379503 83.600771 
L 279.356659 79.033027 
L 280.302657 75.675687 
L 281.089163 73.681221 
L 281.804289 72.488215 
L 282.432759 71.918622 
L 282.918205 71.778706 
L 283.464472 71.926475 
L 284.061174 72.447022 
L 284.648918 73.313997 
L 285.341436 74.767956 
L 286.087661 76.831719 
L 287.096622 80.384797 
L 288.243819 85.388647 
L 289.5232 92.019754 
L 291.180834 101.949723 
L 293.310554 116.277018 
L 300.720596 167.97604 
L 302.60142 178.957742 
L 304.078131 186.427092 
L 305.344891 191.911342 
L 306.607107 196.456734 
L 307.72357 199.671953 
L 308.697113 201.838412 
L 309.512978 203.188894 
L 310.308768 204.094508 
L 311.012971 204.556619 
L 311.717246 204.701538 
L 312.253093 204.600921 
L 312.818846 204.298978 
L 313.384599 203.798533 
L 314.287466 202.596566 
L 315.092243 201.118053 
L 315.969237 199.085524 
L 317.043936 196.023101 
L 318.132094 192.319484 
L 319.492064 186.909104 
L 321.062042 179.707947 
L 322.794514 170.770085 
L 325.138004 157.454395 
L 330.140344 127.130002 
L 333.120042 109.908907 
L 335.172513 99.232961 
L 337.038203 90.718894 
L 338.483735 85.056124 
L 339.759191 80.818664 
L 340.986621 77.464914 
L 342.098502 75.07316 
L 343.040253 73.545654 
L 343.79333 72.660643 
L 344.604451 72.046721 
L 345.378426 71.791758 
L 346.162976 71.864283 
L 346.935828 72.261199 
L 347.610358 72.870233 
L 348.468158 73.99478 
L 349.295275 75.444648 
L 350.320363 77.727908 
L 351.52754 81.08304 
L 352.819367 85.430643 
L 354.239716 91.048472 
L 355.938874 98.800774 
L 357.944496 109.168539 
L 360.426146 123.347307 
L 369.050218 174.203335 
L 371.005972 183.80694 
L 372.662211 190.792677 
L 374.103631 195.858201 
L 375.374473 199.447956 
L 376.449414 201.791775 
L 377.394771 203.299611 
L 378.150475 204.118732 
L 378.803778 204.543439 
L 379.430322 204.699706 
L 380.056867 204.607238 
L 380.709272 204.244404 
L 381.478309 203.465789 
L 382.230721 202.336296 
L 383.041418 200.714167 
L 383.985169 198.302561 
L 385.124122 194.659129 
L 386.31503 190.023872 
L 387.678005 183.74411 
L 389.124048 176.04379 
L 390.901059 165.319552 
L 393.109237 150.507087 
L 400.943317 96.248869 
L 402.576683 87.248013 
L 403.932233 81.069066 
L 405.044381 77.044201 
L 405.968258 74.507363 
L 406.788729 72.921967 
L 407.427389 72.149213 
L 407.894801 71.850486 
L 408.355384 71.783341 
L 408.852655 71.970101 
L 409.398857 72.492184 
L 409.993988 73.446163 
L 410.636363 74.933997 
L 411.430734 77.439603 
L 412.248886 80.793604 
L 413.173948 85.525569 
L 414.303406 92.623283 
L 415.545516 102.016132 
L 416.984377 114.757868 
L 418.765276 132.719712 
L 424.000847 187.43491 
L 425.021746 195.421648 
L 425.854992 200.408634 
L 426.537163 203.196824 
L 426.961402 204.240607 
L 427.31877 204.659994 
L 427.616576 204.661621 
L 427.877437 204.385697 
L 428.206145 203.645824 
L 428.617029 202.063191 
L 429.110091 199.118709 
L 429.672315 194.235886 
L 430.338599 186.1158 
L 431.025626 174.78423 
L 431.784691 158.342614 
L 432.601547 135.471074 
L 433.496641 103.433897 
L 434.215385 71.778462 
L 434.215385 71.778462 
" clip-path="url(#p3ced04672d)" style="fill: none; stroke: #ff0000; stroke-linecap: square"/>
   </g>
   <g id="patch_6">
    <path d="M 345.6 207.36 
L 345.6 69.12 
" style="fill: none; stroke: #000000; stroke-width: 0.8; stroke-linejoin: miter; stroke-linecap: square"/>
   </g>
   <g id="patch_7">
    <path d="M 253.44 138.240132 
L 437.76 138.240132 
" style="fill: none; stroke: #000000; stroke-width: 0.8; stroke-linejoin: miter; stroke-linecap: square"/>
   </g>
   <g id="text_18">
    <!-- n=8 -->
    <g transform="translate(335.060156 63.12) scale(0.1 -0.1)">
     <defs>
      <path id="DejaVuSans-38" d="M 2034 2216 
Q 1584 2216 1326 1975 
Q 1069 1734 1069 1313 
Q 1069 891 1326 650 
Q 1584 409 2034 409 
Q 2484 409 2743 651 
Q 3003 894 3003 1313 
Q 3003 1734 2745 1975 
Q 2488 2216 2034 2216 
z
M 1403 2484 
Q 997 2584 770 2862 
Q 544 3141 544 3541 
Q 544 4100 942 4425 
Q 1341 4750 2034 4750 
Q 2731 4750 3128 4425 
Q 3525 4100 3525 3541 
Q 3525 3141 3298 2862 
Q 3072 2584 2669 2484 
Q 3125 2378 3379 2068 
Q 3634 1759 3634 1313 
Q 3634 634 3220 271 
Q 2806 -91 2034 -91 
Q 1263 -91 848 271 
Q 434 634 434 1313 
Q 434 1759 690 2068 
Q 947 2378 1403 2484 
z
M 1172 3481 
Q 1172 3119 1398 2916 
Q 1625 2713 2034 2713 
Q 2441 2713 2670 2916 
Q 2900 3119 2900 3481 
Q 2900 3844 2670 4047 
Q 2441 4250 2034 4250 
Q 1625 4250 1398 4047 
Q 1172 3844 1172 3481 
z
" transform="scale(0.015625)"/>
     </defs>
     <use xlink:href="#DejaVuSans-6e"/>
     <use xlink:href="#DejaVuSans-3d" transform="translate(63.378906 0)"/>
     <use xlink:href="#DejaVuSans-38" transform="translate(147.167969 0)"/>
    </g>
   </g>
  </g>
  <g id="axes_3">
   <g id="patch_8">
    <path d="M 253.44 307.584 
L 437.76 307.584 
L 437.76 255.744 
L 253.44 255.744 
z
" style="fill: #ffffff"/>
   </g>
   <g id="matplotlib.axis_5">
    <g id="xtick_43">
     <g id="line2d_87">
      <g>
       <use xlink:href="#m17036bf2a2" x="256.984615" y="281.66408" style="stroke: #000000; stroke-width: 0.8"/>
      </g>
     </g>
     <g id="text_19">
      <!-- −1.0 -->
      <g transform="translate(244.843209 296.262518) scale(0.1 -0.1)">
       <use xlink:href="#DejaVuSans-2212"/>
       <use xlink:href="#DejaVuSans-31" transform="translate(83.789062 0)"/>
       <use xlink:href="#DejaVuSans-2e" transform="translate(147.412109 0)"/>
       <use xlink:href="#DejaVuSans-30" transform="translate(179.199219 0)"/>
      </g>
     </g>
    </g>
    <g id="xtick_44">
     <g id="line2d_88">
      <g>
       <use xlink:href="#m17036bf2a2" x="301.292308" y="281.66408" style="stroke: #000000; stroke-width: 0.8"/>
      </g>
     </g>
     <g id="text_20">
      <!-- −0.5 -->
      <g transform="translate(289.150901 296.262518) scale(0.1 -0.1)">
       <use xlink:href="#DejaVuSans-2212"/>
       <use xlink:href="#DejaVuSans-30" transform="translate(83.789062 0)"/>
       <use xlink:href="#DejaVuSans-2e" transform="translate(147.412109 0)"/>
       <use xlink:href="#DejaVuSans-35" transform="translate(179.199219 0)"/>
      </g>
     </g>
    </g>
    <g id="xtick_45">
     <g id="line2d_89">
      <g>
       <use xlink:href="#m17036bf2a2" x="345.6" y="281.66408" style="stroke: #000000; stroke-width: 0.8"/>
      </g>
     </g>
    </g>
    <g id="xtick_46">
     <g id="line2d_90">
      <g>
       <use xlink:href="#m17036bf2a2" x="389.907692" y="281.66408" style="stroke: #000000; stroke-width: 0.8"/>
      </g>
     </g>
     <g id="text_21">
      <!-- 0.5 -->
      <g transform="translate(381.95613 296.262518) scale(0.1 -0.1)">
       <use xlink:href="#DejaVuSans-30"/>
       <use xlink:href="#DejaVuSans-2e" transform="translate(63.623047 0)"/>
       <use xlink:href="#DejaVuSans-35" transform="translate(95.410156 0)"/>
      </g>
     </g>
    </g>
    <g id="xtick_47">
     <g id="line2d_91">
      <g>
       <use xlink:href="#m17036bf2a2" x="434.215385" y="281.66408" style="stroke: #000000; stroke-width: 0.8"/>
      </g>
     </g>
     <g id="text_22">
      <!-- 1.0 -->
      <g transform="translate(426.263822 296.262518) scale(0.1 -0.1)">
       <use xlink:href="#DejaVuSans-31"/>
       <use xlink:href="#DejaVuSans-2e" transform="translate(63.623047 0)"/>
       <use xlink:href="#DejaVuSans-30" transform="translate(95.410156 0)"/>
      </g>
     </g>
    </g>
    <g id="xtick_48">
     <g id="line2d_92">
      <g>
       <use xlink:href="#m2e8231bae2" x="265.846154" y="281.66408" style="stroke: #000000; stroke-width: 0.6"/>
      </g>
     </g>
    </g>
    <g id="xtick_49">
     <g id="line2d_93">
      <g>
       <use xlink:href="#m2e8231bae2" x="274.707692" y="281.66408" style="stroke: #000000; stroke-width: 0.6"/>
      </g>
     </g>
    </g>
    <g id="xtick_50">
     <g id="line2d_94">
      <g>
       <use xlink:href="#m2e8231bae2" x="283.569231" y="281.66408" style="stroke: #000000; stroke-width: 0.6"/>
      </g>
     </g>
    </g>
    <g id="xtick_51">
     <g id="line2d_95">
      <g>
       <use xlink:href="#m2e8231bae2" x="292.430769" y="281.66408" style="stroke: #000000; stroke-width: 0.6"/>
      </g>
     </g>
    </g>
    <g id="xtick_52">
     <g id="line2d_96">
      <g>
       <use xlink:href="#m2e8231bae2" x="310.153846" y="281.66408" style="stroke: #000000; stroke-width: 0.6"/>
      </g>
     </g>
    </g>
    <g id="xtick_53">
     <g id="line2d_97">
      <g>
       <use xlink:href="#m2e8231bae2" x="319.015385" y="281.66408" style="stroke: #000000; stroke-width: 0.6"/>
      </g>
     </g>
    </g>
    <g id="xtick_54">
     <g id="line2d_98">
      <g>
       <use xlink:href="#m2e8231bae2" x="327.876923" y="281.66408" style="stroke: #000000; stroke-width: 0.6"/>
      </g>
     </g>
    </g>
    <g id="xtick_55">
     <g id="line2d_99">
      <g>
       <use xlink:href="#m2e8231bae2" x="336.738462" y="281.66408" style="stroke: #000000; stroke-width: 0.6"/>
      </g>
     </g>
    </g>
    <g id="xtick_56">
     <g id="line2d_100">
      <g>
       <use xlink:href="#m2e8231bae2" x="354.461538" y="281.66408" style="stroke: #000000; stroke-width: 0.6"/>
      </g>
     </g>
    </g>
    <g id="xtick_57">
     <g id="line2d_101">
      <g>
       <use xlink:href="#m2e8231bae2" x="363.323077" y="281.66408" style="stroke: #000000; stroke-width: 0.6"/>
      </g>
     </g>
    </g>
    <g id="xtick_58">
     <g id="line2d_102">
      <g>
       <use xlink:href="#m2e8231bae2" x="372.184615" y="281.66408" style="stroke: #000000; stroke-width: 0.6"/>
      </g>
     </g>
    </g>
    <g id="xtick_59">
     <g id="line2d_103">
      <g>
       <use xlink:href="#m2e8231bae2" x="381.046154" y="281.66408" style="stroke: #000000; stroke-width: 0.6"/>
      </g>
     </g>
    </g>
    <g id="xtick_60">
     <g id="line2d_104">
      <g>
       <use xlink:href="#m2e8231bae2" x="398.769231" y="281.66408" style="stroke: #000000; stroke-width: 0.6"/>
      </g>
     </g>
    </g>
    <g id="xtick_61">
     <g id="line2d_105">
      <g>
       <use xlink:href="#m2e8231bae2" x="407.630769" y="281.66408" style="stroke: #000000; stroke-width: 0.6"/>
      </g>
     </g>
    </g>
    <g id="xtick_62">
     <g id="line2d_106">
      <g>
       <use xlink:href="#m2e8231bae2" x="416.492308" y="281.66408" style="stroke: #000000; stroke-width: 0.6"/>
      </g>
     </g>
    </g>
    <g id="xtick_63">
     <g id="line2d_107">
      <g>
       <use xlink:href="#m2e8231bae2" x="425.353846" y="281.66408" style="stroke: #000000; stroke-width: 0.6"/>
      </g>
     </g>
    </g>
   </g>
   <g id="matplotlib.axis_6">
    <g id="ytick_43">
     <g id="line2d_108">
      <g>
       <use xlink:href="#m749795a735" x="345.6" y="306.587237" style="stroke: #000000; stroke-width: 0.8"/>
      </g>
     </g>
     <g id="text_23">
      <!-- −1.0 -->
      <g transform="translate(314.317188 310.386456) scale(0.1 -0.1)">
       <use xlink:href="#DejaVuSans-2212"/>
       <use xlink:href="#DejaVuSans-31" transform="translate(83.789062 0)"/>
       <use xlink:href="#DejaVuSans-2e" transform="translate(147.412109 0)"/>
       <use xlink:href="#DejaVuSans-30" transform="translate(179.199219 0)"/>
      </g>
     </g>
    </g>
    <g id="ytick_44">
     <g id="line2d_109">
      <g>
       <use xlink:href="#m749795a735" x="345.6" y="294.125659" style="stroke: #000000; stroke-width: 0.8"/>
      </g>
     </g>
     <g id="text_24">
      <!-- −0.5 -->
      <g transform="translate(314.317188 297.924877) scale(0.1 -0.1)">
       <use xlink:href="#DejaVuSans-2212"/>
       <use xlink:href="#DejaVuSans-30" transform="translate(83.789062 0)"/>
       <use xlink:href="#DejaVuSans-2e" transform="translate(147.412109 0)"/>
       <use xlink:href="#DejaVuSans-35" transform="translate(179.199219 0)"/>
      </g>
     </g>
    </g>
    <g id="ytick_45">
     <g id="line2d_110">
      <g>
       <use xlink:href="#m749795a735" x="345.6" y="281.66408" style="stroke: #000000; stroke-width: 0.8"/>
      </g>
     </g>
    </g>
    <g id="ytick_46">
     <g id="line2d_111">
      <g>
       <use xlink:href="#m749795a735" x="345.6" y="269.202502" style="stroke: #000000; stroke-width: 0.8"/>
      </g>
     </g>
     <g id="text_25">
      <!-- 0.5 -->
      <g transform="translate(322.696875 273.00172) scale(0.1 -0.1)">
       <use xlink:href="#DejaVuSans-30"/>
       <use xlink:href="#DejaVuSans-2e" transform="translate(63.623047 0)"/>
       <use xlink:href="#DejaVuSans-35" transform="translate(95.410156 0)"/>
      </g>
     </g>
    </g>
    <g id="ytick_47">
     <g id="line2d_112">
      <g>
       <use xlink:href="#m749795a735" x="345.6" y="256.740923" style="stroke: #000000; stroke-width: 0.8"/>
      </g>
     </g>
     <g id="text_26">
      <!-- 1.0 -->
      <g transform="translate(322.696875 260.540142) scale(0.1 -0.1)">
       <use xlink:href="#DejaVuSans-31"/>
       <use xlink:href="#DejaVuSans-2e" transform="translate(63.623047 0)"/>
       <use xlink:href="#DejaVuSans-30" transform="translate(95.410156 0)"/>
      </g>
     </g>
    </g>
    <g id="ytick_48">
     <g id="line2d_113">
      <g>
       <use xlink:href="#m6426a83afe" x="345.6" y="304.094922" style="stroke: #000000; stroke-width: 0.6"/>
      </g>
     </g>
    </g>
    <g id="ytick_49">
     <g id="line2d_114">
      <g>
       <use xlink:href="#m6426a83afe" x="345.6" y="301.602606" style="stroke: #000000; stroke-width: 0.6"/>
      </g>
     </g>
    </g>
    <g id="ytick_50">
     <g id="line2d_115">
      <g>
       <use xlink:href="#m6426a83afe" x="345.6" y="299.11029" style="stroke: #000000; stroke-width: 0.6"/>
      </g>
     </g>
    </g>
    <g id="ytick_51">
     <g id="line2d_116">
      <g>
       <use xlink:href="#m6426a83afe" x="345.6" y="296.617974" style="stroke: #000000; stroke-width: 0.6"/>
      </g>
     </g>
    </g>
    <g id="ytick_52">
     <g id="line2d_117">
      <g>
       <use xlink:href="#m6426a83afe" x="345.6" y="291.633343" style="stroke: #000000; stroke-width: 0.6"/>
      </g>
     </g>
    </g>
    <g id="ytick_53">
     <g id="line2d_118">
      <g>
       <use xlink:href="#m6426a83afe" x="345.6" y="289.141027" style="stroke: #000000; stroke-width: 0.6"/>
      </g>
     </g>
    </g>
    <g id="ytick_54">
     <g id="line2d_119">
      <g>
       <use xlink:href="#m6426a83afe" x="345.6" y="286.648712" style="stroke: #000000; stroke-width: 0.6"/>
      </g>
     </g>
    </g>
    <g id="ytick_55">
     <g id="line2d_120">
      <g>
       <use xlink:href="#m6426a83afe" x="345.6" y="284.156396" style="stroke: #000000; stroke-width: 0.6"/>
      </g>
     </g>
    </g>
    <g id="ytick_56">
     <g id="line2d_121">
      <g>
       <use xlink:href="#m6426a83afe" x="345.6" y="279.171764" style="stroke: #000000; stroke-width: 0.6"/>
      </g>
     </g>
    </g>
    <g id="ytick_57">
     <g id="line2d_122">
      <g>
       <use xlink:href="#m6426a83afe" x="345.6" y="276.679449" style="stroke: #000000; stroke-width: 0.6"/>
      </g>
     </g>
    </g>
    <g id="ytick_58">
     <g id="line2d_123">
      <g>
       <use xlink:href="#m6426a83afe" x="345.6" y="274.187133" style="stroke: #000000; stroke-width: 0.6"/>
      </g>
     </g>
    </g>
    <g id="ytick_59">
     <g id="line2d_124">
      <g>
       <use xlink:href="#m6426a83afe" x="345.6" y="271.694817" style="stroke: #000000; stroke-width: 0.6"/>
      </g>
     </g>
    </g>
    <g id="ytick_60">
     <g id="line2d_125">
      <g>
       <use xlink:href="#m6426a83afe" x="345.6" y="266.710186" style="stroke: #000000; stroke-width: 0.6"/>
      </g>
     </g>
    </g>
    <g id="ytick_61">
     <g id="line2d_126">
      <g>
       <use xlink:href="#m6426a83afe" x="345.6" y="264.21787" style="stroke: #000000; stroke-width: 0.6"/>
      </g>
     </g>
    </g>
    <g id="ytick_62">
     <g id="line2d_127">
      <g>
       <use xlink:href="#m6426a83afe" x="345.6" y="261.725554" style="stroke: #000000; stroke-width: 0.6"/>
      </g>
     </g>
    </g>
    <g id="ytick_63">
     <g id="line2d_128">
      <g>
       <use xlink:href="#m6426a83afe" x="345.6" y="259.233239" style="stroke: #000000; stroke-width: 0.6"/>
      </g>
     </g>
    </g>
   </g>
   <g id="line2d_129">
    <path d="M 256.984615 256.740923 
L 257.48167 284.762875 
L 257.910707 298.550143 
L 258.30312 304.827028 
L 258.564729 306.420977 
L 258.695533 306.586522 
L 258.739135 306.559026 
L 258.869939 306.249809 
L 259.087946 305.064275 
L 259.462955 301.484361 
L 260.038568 293.60475 
L 261.930838 266.409868 
L 262.58217 260.625801 
L 263.072457 257.989821 
L 263.451944 256.959533 
L 263.712785 256.741752 
L 263.908415 256.828014 
L 264.169255 257.258142 
L 264.506268 258.309373 
L 264.9711 260.572248 
L 265.625737 265.054746 
L 266.50252 272.645255 
L 269.097504 295.943904 
L 269.971983 301.461515 
L 270.641592 304.384536 
L 271.176751 305.848883 
L 271.579352 306.433967 
L 271.892486 306.586311 
L 272.205621 306.480119 
L 272.523932 306.11572 
L 272.934299 305.282175 
L 273.426322 303.780003 
L 274.104065 300.914606 
L 274.99532 296.009315 
L 276.274672 287.512495 
L 278.958587 269.302179 
L 279.983988 263.835192 
L 280.858042 260.296463 
L 281.575864 258.269846 
L 282.134171 257.272834 
L 282.593776 256.838492 
L 282.989853 256.742985 
L 283.370456 256.890674 
L 283.761222 257.28059 
L 284.249678 258.095047 
L 284.835826 259.525015 
L 285.592003 262.032211 
L 286.566582 266.196281 
L 287.800718 272.577519 
L 292.392421 297.545887 
L 293.452281 301.626298 
L 294.273139 304.003641 
L 295.010602 305.49898 
L 295.583653 306.224071 
L 296.072108 306.535693 
L 296.529308 306.571958 
L 297.030363 306.331346 
L 297.534292 305.800286 
L 298.151353 304.770034 
L 298.856566 303.110449 
L 299.670282 300.614952 
L 300.732354 296.559872 
L 302.033179 290.666499 
L 307.382453 265.239419 
L 308.449726 261.64918 
L 309.378053 259.268257 
L 310.147884 257.870776 
L 310.764101 257.148323 
L 311.347138 256.796415 
L 311.820334 256.749207 
L 312.350903 256.948866 
L 312.959333 257.501024 
L 313.582208 258.413097 
L 314.295099 259.866549 
L 315.136595 262.102624 
L 316.234564 265.763497 
L 317.453324 270.616657 
L 319.472193 279.764173 
L 322.395942 293.025794 
L 323.794729 298.367471 
L 324.90225 301.797648 
L 325.826502 304.008323 
L 326.588695 305.338463 
L 327.249268 306.110607 
L 327.839567 306.492935 
L 328.331482 306.587077 
L 328.795625 306.48863 
L 329.355205 306.130104 
L 330.012983 305.379757 
L 330.700379 304.228784 
L 331.547474 302.324047 
L 332.50373 299.586235 
L 333.729818 295.299475 
L 335.299608 288.867547 
L 340.567695 266.34989 
L 341.812815 262.347443 
L 342.833608 259.7868 
L 343.716135 258.169054 
L 344.453677 257.272887 
L 345.072232 256.853995 
L 345.609395 256.740959 
L 346.146557 256.862183 
L 346.635434 257.175228 
L 347.301018 257.907328 
L 348.050886 259.142249 
L 348.924444 261.099569 
L 349.89411 263.869427 
L 351.032035 267.810298 
L 352.464507 273.584875 
L 355.329347 286.357333 
L 357.365524 294.899239 
L 358.754624 299.769729 
L 359.746098 302.559567 
L 360.705424 304.611661 
L 361.494779 305.774462 
L 362.14931 306.357525 
L 362.720881 306.575447 
L 363.264799 306.52725 
L 363.83803 306.206197 
L 364.482034 305.51782 
L 365.170241 304.407955 
L 365.912445 302.795794 
L 366.883786 300.081574 
L 368.04015 296.065945 
L 369.351663 290.695537 
L 371.566316 280.523026 
L 374.027567 269.43744 
L 375.399458 264.22473 
L 376.424089 261.078691 
L 377.382288 258.846168 
L 378.16289 257.596025 
L 378.818426 256.968499 
L 379.342121 256.754587 
L 379.815287 256.784862 
L 380.319557 257.052229 
L 380.899975 257.659207 
L 381.519277 258.654436 
L 382.180225 260.099864 
L 383.035598 262.524423 
L 383.986347 265.882236 
L 385.251132 271.243664 
L 387.056601 280.052498 
L 389.987894 294.484917 
L 391.295465 299.792319 
L 392.316336 303.036979 
L 393.117876 304.905805 
L 393.786637 305.953679 
L 394.371514 306.463214 
L 394.810172 306.586956 
L 395.248803 306.484868 
L 395.687421 306.155181 
L 396.236656 305.421974 
L 396.90036 304.06811 
L 397.589998 302.138998 
L 398.508595 298.80344 
L 399.581148 293.95074 
L 400.893112 286.972188 
L 404.832471 265.27162 
L 405.886554 261.027486 
L 406.713914 258.614345 
L 407.274664 257.514477 
L 407.762962 256.940241 
L 408.1536 256.750198 
L 408.544238 256.806587 
L 408.927772 257.105673 
L 409.419399 257.844624 
L 409.992963 259.20818 
L 410.684761 261.549606 
L 411.501381 265.22517 
L 412.43745 270.483891 
L 413.809327 279.606648 
L 416.429199 297.346837 
L 417.36667 302.161168 
L 418.034516 304.641713 
L 418.60258 305.995955 
L 419.028627 306.50409 
L 419.359998 306.579004 
L 419.674711 306.381018 
L 420.034222 305.82674 
L 420.506051 304.562374 
L 421.063227 302.290803 
L 421.756816 298.33971 
L 422.603808 292.031069 
L 423.821305 280.999538 
L 425.626217 264.653453 
L 426.365957 259.815301 
L 426.88454 257.64843 
L 427.253666 256.868611 
L 427.48437 256.741501 
L 427.668933 256.852273 
L 427.899637 257.267583 
L 428.208971 258.324614 
L 428.602123 260.518223 
L 429.116819 264.830479 
L 429.734208 272.012635 
L 430.633153 285.326667 
L 431.819517 302.409291 
L 432.263755 305.972364 
L 432.500682 306.58571 
L 432.58953 306.522751 
L 432.737609 306.010825 
L 432.946509 304.310915 
L 433.203524 300.378879 
L 433.540811 291.476855 
L 433.915574 275.394704 
L 434.215385 256.740923 
L 434.215385 256.740923 
" clip-path="url(#pc1f5cac0aa)" style="fill: none; stroke: #a52a2a; stroke-linecap: square"/>
   </g>
   <g id="patch_9">
    <path d="M 345.6 307.584 
L 345.6 255.744 
" style="fill: none; stroke: #000000; stroke-width: 0.8; stroke-linejoin: miter; stroke-linecap: square"/>
   </g>
   <g id="patch_10">
    <path d="M 253.44 281.66408 
L 437.76 281.66408 
" style="fill: none; stroke: #000000; stroke-width: 0.8; stroke-linejoin: miter; stroke-linecap: square"/>
   </g>
   <g id="text_27">
    <!-- n=16 -->
    <g transform="translate(331.878906 249.744) scale(0.1 -0.1)">
     <defs>
      <path id="DejaVuSans-36" d="M 2113 2584 
Q 1688 2584 1439 2293 
Q 1191 2003 1191 1497 
Q 1191 994 1439 701 
Q 1688 409 2113 409 
Q 2538 409 2786 701 
Q 3034 994 3034 1497 
Q 3034 2003 2786 2293 
Q 2538 2584 2113 2584 
z
M 3366 4563 
L 3366 3988 
Q 3128 4100 2886 4159 
Q 2644 4219 2406 4219 
Q 1781 4219 1451 3797 
Q 1122 3375 1075 2522 
Q 1259 2794 1537 2939 
Q 1816 3084 2150 3084 
Q 2853 3084 3261 2657 
Q 3669 2231 3669 1497 
Q 3669 778 3244 343 
Q 2819 -91 2113 -91 
Q 1303 -91 875 529 
Q 447 1150 447 2328 
Q 447 3434 972 4092 
Q 1497 4750 2381 4750 
Q 2619 4750 2861 4703 
Q 3103 4656 3366 4563 
z
" transform="scale(0.015625)"/>
     </defs>
     <use xlink:href="#DejaVuSans-6e"/>
     <use xlink:href="#DejaVuSans-3d" transform="translate(63.378906 0)"/>
     <use xlink:href="#DejaVuSans-31" transform="translate(147.167969 0)"/>
     <use xlink:href="#DejaVuSans-36" transform="translate(210.791016 0)"/>
    </g>
   </g>
  </g>
  <g id="axes_4">
   <g id="patch_11">
    <path d="M 82.944 69.12 
L 405.504 69.12 
L 405.504 34.56 
L 82.944 34.56 
z
" style="fill: #ffffff"/>
   </g>
   <g id="matplotlib.axis_7"/>
   <g id="matplotlib.axis_8"/>
   <g id="text_28">
    <!-- Chebyshev polynomials -->
    <g style="fill: #0000ff" transform="translate(149.19025 56.255) scale(0.16 -0.16)">
     <defs>
      <path id="DejaVuSans-43" d="M 4122 4306 
L 4122 3641 
Q 3803 3938 3442 4084 
Q 3081 4231 2675 4231 
Q 1875 4231 1450 3742 
Q 1025 3253 1025 2328 
Q 1025 1406 1450 917 
Q 1875 428 2675 428 
Q 3081 428 3442 575 
Q 3803 722 4122 1019 
L 4122 359 
Q 3791 134 3420 21 
Q 3050 -91 2638 -91 
Q 1578 -91 968 557 
Q 359 1206 359 2328 
Q 359 3453 968 4101 
Q 1578 4750 2638 4750 
Q 3056 4750 3426 4639 
Q 3797 4528 4122 4306 
z
" transform="scale(0.015625)"/>
      <path id="DejaVuSans-68" d="M 3513 2113 
L 3513 0 
L 2938 0 
L 2938 2094 
Q 2938 2591 2744 2837 
Q 2550 3084 2163 3084 
Q 1697 3084 1428 2787 
Q 1159 2491 1159 1978 
L 1159 0 
L 581 0 
L 581 4863 
L 1159 4863 
L 1159 2956 
Q 1366 3272 1645 3428 
Q 1925 3584 2291 3584 
Q 2894 3584 3203 3211 
Q 3513 2838 3513 2113 
z
" transform="scale(0.015625)"/>
      <path id="DejaVuSans-65" d="M 3597 1894 
L 3597 1613 
L 953 1613 
Q 991 1019 1311 708 
Q 1631 397 2203 397 
Q 2534 397 2845 478 
Q 3156 559 3463 722 
L 3463 178 
Q 3153 47 2828 -22 
Q 2503 -91 2169 -91 
Q 1331 -91 842 396 
Q 353 884 353 1716 
Q 353 2575 817 3079 
Q 1281 3584 2069 3584 
Q 2775 3584 3186 3129 
Q 3597 2675 3597 1894 
z
M 3022 2063 
Q 3016 2534 2758 2815 
Q 2500 3097 2075 3097 
Q 1594 3097 1305 2825 
Q 1016 2553 972 2059 
L 3022 2063 
z
" transform="scale(0.015625)"/>
      <path id="DejaVuSans-62" d="M 3116 1747 
Q 3116 2381 2855 2742 
Q 2594 3103 2138 3103 
Q 1681 3103 1420 2742 
Q 1159 2381 1159 1747 
Q 1159 1113 1420 752 
Q 1681 391 2138 391 
Q 2594 391 2855 752 
Q 3116 1113 3116 1747 
z
M 1159 2969 
Q 1341 3281 1617 3432 
Q 1894 3584 2278 3584 
Q 2916 3584 3314 3078 
Q 3713 2572 3713 1747 
Q 3713 922 3314 415 
Q 2916 -91 2278 -91 
Q 1894 -91 1617 61 
Q 1341 213 1159 525 
L 1159 0 
L 581 0 
L 581 4863 
L 1159 4863 
L 1159 2969 
z
" transform="scale(0.015625)"/>
      <path id="DejaVuSans-79" d="M 2059 -325 
Q 1816 -950 1584 -1140 
Q 1353 -1331 966 -1331 
L 506 -1331 
L 506 -850 
L 844 -850 
Q 1081 -850 1212 -737 
Q 1344 -625 1503 -206 
L 1606 56 
L 191 3500 
L 800 3500 
L 1894 763 
L 2988 3500 
L 3597 3500 
L 2059 -325 
z
" transform="scale(0.015625)"/>
      <path id="DejaVuSans-73" d="M 2834 3397 
L 2834 2853 
Q 2591 2978 2328 3040 
Q 2066 3103 1784 3103 
Q 1356 3103 1142 2972 
Q 928 2841 928 2578 
Q 928 2378 1081 2264 
Q 1234 2150 1697 2047 
L 1894 2003 
Q 2506 1872 2764 1633 
Q 3022 1394 3022 966 
Q 3022 478 2636 193 
Q 2250 -91 1575 -91 
Q 1294 -91 989 -36 
Q 684 19 347 128 
L 347 722 
Q 666 556 975 473 
Q 1284 391 1588 391 
Q 1994 391 2212 530 
Q 2431 669 2431 922 
Q 2431 1156 2273 1281 
Q 2116 1406 1581 1522 
L 1381 1569 
Q 847 1681 609 1914 
Q 372 2147 372 2553 
Q 372 3047 722 3315 
Q 1072 3584 1716 3584 
Q 2034 3584 2315 3537 
Q 2597 3491 2834 3397 
z
" transform="scale(0.015625)"/>
      <path id="DejaVuSans-76" d="M 191 3500 
L 800 3500 
L 1894 563 
L 2988 3500 
L 3597 3500 
L 2284 0 
L 1503 0 
L 191 3500 
z
" transform="scale(0.015625)"/>
      <path id="DejaVuSans-20" transform="scale(0.015625)"/>
      <path id="DejaVuSans-70" d="M 1159 525 
L 1159 -1331 
L 581 -1331 
L 581 3500 
L 1159 3500 
L 1159 2969 
Q 1341 3281 1617 3432 
Q 1894 3584 2278 3584 
Q 2916 3584 3314 3078 
Q 3713 2572 3713 1747 
Q 3713 922 3314 415 
Q 2916 -91 2278 -91 
Q 1894 -91 1617 61 
Q 1341 213 1159 525 
z
M 3116 1747 
Q 3116 2381 2855 2742 
Q 2594 3103 2138 3103 
Q 1681 3103 1420 2742 
Q 1159 2381 1159 1747 
Q 1159 1113 1420 752 
Q 1681 391 2138 391 
Q 2594 391 2855 752 
Q 3116 1113 3116 1747 
z
" transform="scale(0.015625)"/>
      <path id="DejaVuSans-6f" d="M 1959 3097 
Q 1497 3097 1228 2736 
Q 959 2375 959 1747 
Q 959 1119 1226 758 
Q 1494 397 1959 397 
Q 2419 397 2687 759 
Q 2956 1122 2956 1747 
Q 2956 2369 2687 2733 
Q 2419 3097 1959 3097 
z
M 1959 3584 
Q 2709 3584 3137 3096 
Q 3566 2609 3566 1747 
Q 3566 888 3137 398 
Q 2709 -91 1959 -91 
Q 1206 -91 779 398 
Q 353 888 353 1747 
Q 353 2609 779 3096 
Q 1206 3584 1959 3584 
z
" transform="scale(0.015625)"/>
      <path id="DejaVuSans-6c" d="M 603 4863 
L 1178 4863 
L 1178 0 
L 603 0 
L 603 4863 
z
" transform="scale(0.015625)"/>
      <path id="DejaVuSans-6d" d="M 3328 2828 
Q 3544 3216 3844 3400 
Q 4144 3584 4550 3584 
Q 5097 3584 5394 3201 
Q 5691 2819 5691 2113 
L 5691 0 
L 5113 0 
L 5113 2094 
Q 5113 2597 4934 2840 
Q 4756 3084 4391 3084 
Q 3944 3084 3684 2787 
Q 3425 2491 3425 1978 
L 3425 0 
L 2847 0 
L 2847 2094 
Q 2847 2600 2669 2842 
Q 2491 3084 2119 3084 
Q 1678 3084 1418 2786 
Q 1159 2488 1159 1978 
L 1159 0 
L 581 0 
L 581 3500 
L 1159 3500 
L 1159 2956 
Q 1356 3278 1631 3431 
Q 1906 3584 2284 3584 
Q 2666 3584 2933 3390 
Q 3200 3197 3328 2828 
z
" transform="scale(0.015625)"/>
      <path id="DejaVuSans-69" d="M 603 3500 
L 1178 3500 
L 1178 0 
L 603 0 
L 603 3500 
z
M 603 4863 
L 1178 4863 
L 1178 4134 
L 603 4134 
L 603 4863 
z
" transform="scale(0.015625)"/>
      <path id="DejaVuSans-61" d="M 2194 1759 
Q 1497 1759 1228 1600 
Q 959 1441 959 1056 
Q 959 750 1161 570 
Q 1363 391 1709 391 
Q 2188 391 2477 730 
Q 2766 1069 2766 1631 
L 2766 1759 
L 2194 1759 
z
M 3341 1997 
L 3341 0 
L 2766 0 
L 2766 531 
Q 2569 213 2275 61 
Q 1981 -91 1556 -91 
Q 1019 -91 701 211 
Q 384 513 384 1019 
Q 384 1609 779 1909 
Q 1175 2209 1959 2209 
L 2766 2209 
L 2766 2266 
Q 2766 2663 2505 2880 
Q 2244 3097 1772 3097 
Q 1472 3097 1187 3025 
Q 903 2953 641 2809 
L 641 3341 
Q 956 3463 1253 3523 
Q 1550 3584 1831 3584 
Q 2591 3584 2966 3190 
Q 3341 2797 3341 1997 
z
" transform="scale(0.015625)"/>
     </defs>
     <use xlink:href="#DejaVuSans-43"/>
     <use xlink:href="#DejaVuSans-68" transform="translate(69.824219 0)"/>
     <use xlink:href="#DejaVuSans-65" transform="translate(133.203125 0)"/>
     <use xlink:href="#DejaVuSans-62" transform="translate(194.726562 0)"/>
     <use xlink:href="#DejaVuSans-79" transform="translate(258.203125 0)"/>
     <use xlink:href="#DejaVuSans-73" transform="translate(317.382812 0)"/>
     <use xlink:href="#DejaVuSans-68" transform="translate(369.482422 0)"/>
     <use xlink:href="#DejaVuSans-65" transform="translate(432.861328 0)"/>
     <use xlink:href="#DejaVuSans-76" transform="translate(494.384766 0)"/>
     <use xlink:href="#DejaVuSans-20" transform="translate(553.564453 0)"/>
     <use xlink:href="#DejaVuSans-70" transform="translate(585.351562 0)"/>
     <use xlink:href="#DejaVuSans-6f" transform="translate(648.828125 0)"/>
     <use xlink:href="#DejaVuSans-6c" transform="translate(710.009766 0)"/>
     <use xlink:href="#DejaVuSans-79" transform="translate(737.792969 0)"/>
     <use xlink:href="#DejaVuSans-6e" transform="translate(796.972656 0)"/>
     <use xlink:href="#DejaVuSans-6f" transform="translate(860.351562 0)"/>
     <use xlink:href="#DejaVuSans-6d" transform="translate(921.533203 0)"/>
     <use xlink:href="#DejaVuSans-69" transform="translate(1018.945312 0)"/>
     <use xlink:href="#DejaVuSans-61" transform="translate(1046.728516 0)"/>
     <use xlink:href="#DejaVuSans-6c" transform="translate(1108.007812 0)"/>
     <use xlink:href="#DejaVuSans-73" transform="translate(1135.791016 0)"/>
    </g>
   </g>
  </g>
 </g>
 <defs>
  <clipPath id="p57b5773f77">
   <rect x="57.6" y="138.24" width="184.32" height="138.24"/>
  </clipPath>
  <clipPath id="p3ced04672d">
   <rect x="253.44" y="69.12" width="184.32" height="138.24"/>
  </clipPath>
  <clipPath id="pc1f5cac0aa">
   <rect x="253.44" y="255.744" width="184.32" height="51.84"/>
  </clipPath>
 </defs>
</svg>
