<?xml version="1.0" encoding="utf-8" standalone="no"?>
<!DOCTYPE svg PUBLIC "-//W3C//DTD SVG 1.1//EN"
  "http://www.w3.org/Graphics/SVG/1.1/DTD/svg11.dtd">
<svg xmlns:xlink="http://www.w3.org/1999/xlink" width="460.8pt" height="345.6pt" viewBox="0 0 460.8 345.6" xmlns="http://www.w3.org/2000/svg" version="1.1">
 <metadata>
  <rdf:RDF xmlns:dc="http://purl.org/dc/elements/1.1/" xmlns:cc="http://creativecommons.org/ns#" xmlns:rdf="http://www.w3.org/1999/02/22-rdf-syntax-ns#">
   <cc:Work>
    <dc:type rdf:resource="http://purl.org/dc/dcmitype/StillImage"/>
    <dc:date>2025-08-02T16:01:19.376033</dc:date>
    <dc:format>image/svg+xml</dc:format>
    <dc:creator>
     <cc:Agent>
      <dc:title>Matplotlib v3.10.3, https://matplotlib.org/</dc:title>
     </cc:Agent>
    </dc:creator>
   </cc:Work>
  </rdf:RDF>
 </metadata>
 <defs>
  <style type="text/css">*{stroke-linejoin: round; stroke-linecap: butt}</style>
 </defs>
 <g id="figure_1">
  <g id="patch_1">
   <path d="M 0 345.6 
L 460.8 345.6 
L 460.8 0 
L 0 0 
z
" style="fill: #ffffff"/>
  </g>
  <g id="axes_1">
   <g id="patch_2">
    <path d="M 0 345.292033 
L 445.06 345.292033 
L 445.06 20.6 
L 0 20.6 
z
" style="fill: #ffffff"/>
   </g>
   <g id="matplotlib.axis_1">
    <g id="xtick_1">
     <g id="line2d_1">
      <defs>
       <path id="m50693e2922" d="M 0 0 
L 0 3.5 
" style="stroke: #000000; stroke-width: 0.8"/>
      </defs>
      <g>
       <use xlink:href="#m50693e2922" x="8.558846" y="182.946895" style="stroke: #000000; stroke-width: 0.8"/>
      </g>
     </g>
     <g id="text_1">
      <!-- −3 -->
      <g transform="translate(1.187752 197.545333) scale(0.1 -0.1)">
       <defs>
        <path id="DejaVuSans-2212" d="M 678 2272 
L 4684 2272 
L 4684 1741 
L 678 1741 
L 678 2272 
z
" transform="scale(0.015625)"/>
        <path id="DejaVuSans-33" d="M 2597 2516 
Q 3050 2419 3304 2112 
Q 3559 1806 3559 1356 
Q 3559 666 3084 287 
Q 2609 -91 1734 -91 
Q 1441 -91 1130 -33 
Q 819 25 488 141 
L 488 750 
Q 750 597 1062 519 
Q 1375 441 1716 441 
Q 2309 441 2620 675 
Q 2931 909 2931 1356 
Q 2931 1769 2642 2001 
Q 2353 2234 1838 2234 
L 1294 2234 
L 1294 2753 
L 1863 2753 
Q 2328 2753 2575 2939 
Q 2822 3125 2822 3475 
Q 2822 3834 2567 4026 
Q 2313 4219 1838 4219 
Q 1578 4219 1281 4162 
Q 984 4106 628 3988 
L 628 4550 
Q 988 4650 1302 4700 
Q 1616 4750 1894 4750 
Q 2613 4750 3031 4423 
Q 3450 4097 3450 3541 
Q 3450 3153 3228 2886 
Q 3006 2619 2597 2516 
z
" transform="scale(0.015625)"/>
       </defs>
       <use xlink:href="#DejaVuSans-2212"/>
       <use xlink:href="#DejaVuSans-33" transform="translate(83.789062 0)"/>
      </g>
     </g>
    </g>
    <g id="xtick_2">
     <g id="line2d_2">
      <g>
       <use xlink:href="#m50693e2922" x="79.882564" y="182.946895" style="stroke: #000000; stroke-width: 0.8"/>
      </g>
     </g>
     <g id="text_2">
      <!-- −2 -->
      <g transform="translate(72.51147 197.545333) scale(0.1 -0.1)">
       <defs>
        <path id="DejaVuSans-32" d="M 1228 531 
L 3431 531 
L 3431 0 
L 469 0 
L 469 531 
Q 828 903 1448 1529 
Q 2069 2156 2228 2338 
Q 2531 2678 2651 2914 
Q 2772 3150 2772 3378 
Q 2772 3750 2511 3984 
Q 2250 4219 1831 4219 
Q 1534 4219 1204 4116 
Q 875 4013 500 3803 
L 500 4441 
Q 881 4594 1212 4672 
Q 1544 4750 1819 4750 
Q 2544 4750 2975 4387 
Q 3406 4025 3406 3419 
Q 3406 3131 3298 2873 
Q 3191 2616 2906 2266 
Q 2828 2175 2409 1742 
Q 1991 1309 1228 531 
z
" transform="scale(0.015625)"/>
       </defs>
       <use xlink:href="#DejaVuSans-2212"/>
       <use xlink:href="#DejaVuSans-32" transform="translate(83.789062 0)"/>
      </g>
     </g>
    </g>
    <g id="xtick_3">
     <g id="line2d_3">
      <g>
       <use xlink:href="#m50693e2922" x="151.206282" y="182.946895" style="stroke: #000000; stroke-width: 0.8"/>
      </g>
     </g>
     <g id="text_3">
      <!-- −1 -->
      <g transform="translate(143.835188 197.545333) scale(0.1 -0.1)">
       <defs>
        <path id="DejaVuSans-31" d="M 794 531 
L 1825 531 
L 1825 4091 
L 703 3866 
L 703 4441 
L 1819 4666 
L 2450 4666 
L 2450 531 
L 3481 531 
L 3481 0 
L 794 0 
L 794 531 
z
" transform="scale(0.015625)"/>
       </defs>
       <use xlink:href="#DejaVuSans-2212"/>
       <use xlink:href="#DejaVuSans-31" transform="translate(83.789062 0)"/>
      </g>
     </g>
    </g>
    <g id="xtick_4">
     <g id="line2d_4">
      <g>
       <use xlink:href="#m50693e2922" x="222.53" y="182.946895" style="stroke: #000000; stroke-width: 0.8"/>
      </g>
     </g>
    </g>
    <g id="xtick_5">
     <g id="line2d_5">
      <g>
       <use xlink:href="#m50693e2922" x="293.853718" y="182.946895" style="stroke: #000000; stroke-width: 0.8"/>
      </g>
     </g>
     <g id="text_4">
      <!-- 1 -->
      <g transform="translate(290.672468 197.545333) scale(0.1 -0.1)">
       <use xlink:href="#DejaVuSans-31"/>
      </g>
     </g>
    </g>
    <g id="xtick_6">
     <g id="line2d_6">
      <g>
       <use xlink:href="#m50693e2922" x="365.177436" y="182.946895" style="stroke: #000000; stroke-width: 0.8"/>
      </g>
     </g>
     <g id="text_5">
      <!-- 2 -->
      <g transform="translate(361.996186 197.545333) scale(0.1 -0.1)">
       <use xlink:href="#DejaVuSans-32"/>
      </g>
     </g>
    </g>
    <g id="xtick_7">
     <g id="line2d_7">
      <g>
       <use xlink:href="#m50693e2922" x="436.501154" y="182.946895" style="stroke: #000000; stroke-width: 0.8"/>
      </g>
     </g>
     <g id="text_6">
      <!-- 3 -->
      <g transform="translate(433.319904 197.545333) scale(0.1 -0.1)">
       <use xlink:href="#DejaVuSans-33"/>
      </g>
     </g>
    </g>
    <g id="xtick_8">
     <g id="line2d_8">
      <defs>
       <path id="mad813e038b" d="M 0 0 
L 0 2 
" style="stroke: #000000; stroke-width: 0.6"/>
      </defs>
      <g>
       <use xlink:href="#mad813e038b" x="22.82359" y="182.946895" style="stroke: #000000; stroke-width: 0.6"/>
      </g>
     </g>
    </g>
    <g id="xtick_9">
     <g id="line2d_9">
      <g>
       <use xlink:href="#mad813e038b" x="37.088333" y="182.946895" style="stroke: #000000; stroke-width: 0.6"/>
      </g>
     </g>
    </g>
    <g id="xtick_10">
     <g id="line2d_10">
      <g>
       <use xlink:href="#mad813e038b" x="51.353077" y="182.946895" style="stroke: #000000; stroke-width: 0.6"/>
      </g>
     </g>
    </g>
    <g id="xtick_11">
     <g id="line2d_11">
      <g>
       <use xlink:href="#mad813e038b" x="65.617821" y="182.946895" style="stroke: #000000; stroke-width: 0.6"/>
      </g>
     </g>
    </g>
    <g id="xtick_12">
     <g id="line2d_12">
      <g>
       <use xlink:href="#mad813e038b" x="94.147308" y="182.946895" style="stroke: #000000; stroke-width: 0.6"/>
      </g>
     </g>
    </g>
    <g id="xtick_13">
     <g id="line2d_13">
      <g>
       <use xlink:href="#mad813e038b" x="108.412051" y="182.946895" style="stroke: #000000; stroke-width: 0.6"/>
      </g>
     </g>
    </g>
    <g id="xtick_14">
     <g id="line2d_14">
      <g>
       <use xlink:href="#mad813e038b" x="122.676795" y="182.946895" style="stroke: #000000; stroke-width: 0.6"/>
      </g>
     </g>
    </g>
    <g id="xtick_15">
     <g id="line2d_15">
      <g>
       <use xlink:href="#mad813e038b" x="136.941538" y="182.946895" style="stroke: #000000; stroke-width: 0.6"/>
      </g>
     </g>
    </g>
    <g id="xtick_16">
     <g id="line2d_16">
      <g>
       <use xlink:href="#mad813e038b" x="165.471026" y="182.946895" style="stroke: #000000; stroke-width: 0.6"/>
      </g>
     </g>
    </g>
    <g id="xtick_17">
     <g id="line2d_17">
      <g>
       <use xlink:href="#mad813e038b" x="179.735769" y="182.946895" style="stroke: #000000; stroke-width: 0.6"/>
      </g>
     </g>
    </g>
    <g id="xtick_18">
     <g id="line2d_18">
      <g>
       <use xlink:href="#mad813e038b" x="194.000513" y="182.946895" style="stroke: #000000; stroke-width: 0.6"/>
      </g>
     </g>
    </g>
    <g id="xtick_19">
     <g id="line2d_19">
      <g>
       <use xlink:href="#mad813e038b" x="208.265256" y="182.946895" style="stroke: #000000; stroke-width: 0.6"/>
      </g>
     </g>
    </g>
    <g id="xtick_20">
     <g id="line2d_20">
      <g>
       <use xlink:href="#mad813e038b" x="236.794744" y="182.946895" style="stroke: #000000; stroke-width: 0.6"/>
      </g>
     </g>
    </g>
    <g id="xtick_21">
     <g id="line2d_21">
      <g>
       <use xlink:href="#mad813e038b" x="251.059487" y="182.946895" style="stroke: #000000; stroke-width: 0.6"/>
      </g>
     </g>
    </g>
    <g id="xtick_22">
     <g id="line2d_22">
      <g>
       <use xlink:href="#mad813e038b" x="265.324231" y="182.946895" style="stroke: #000000; stroke-width: 0.6"/>
      </g>
     </g>
    </g>
    <g id="xtick_23">
     <g id="line2d_23">
      <g>
       <use xlink:href="#mad813e038b" x="279.588974" y="182.946895" style="stroke: #000000; stroke-width: 0.6"/>
      </g>
     </g>
    </g>
    <g id="xtick_24">
     <g id="line2d_24">
      <g>
       <use xlink:href="#mad813e038b" x="308.118462" y="182.946895" style="stroke: #000000; stroke-width: 0.6"/>
      </g>
     </g>
    </g>
    <g id="xtick_25">
     <g id="line2d_25">
      <g>
       <use xlink:href="#mad813e038b" x="322.383205" y="182.946895" style="stroke: #000000; stroke-width: 0.6"/>
      </g>
     </g>
    </g>
    <g id="xtick_26">
     <g id="line2d_26">
      <g>
       <use xlink:href="#mad813e038b" x="336.647949" y="182.946895" style="stroke: #000000; stroke-width: 0.6"/>
      </g>
     </g>
    </g>
    <g id="xtick_27">
     <g id="line2d_27">
      <g>
       <use xlink:href="#mad813e038b" x="350.912692" y="182.946895" style="stroke: #000000; stroke-width: 0.6"/>
      </g>
     </g>
    </g>
    <g id="xtick_28">
     <g id="line2d_28">
      <g>
       <use xlink:href="#mad813e038b" x="379.442179" y="182.946895" style="stroke: #000000; stroke-width: 0.6"/>
      </g>
     </g>
    </g>
    <g id="xtick_29">
     <g id="line2d_29">
      <g>
       <use xlink:href="#mad813e038b" x="393.706923" y="182.946895" style="stroke: #000000; stroke-width: 0.6"/>
      </g>
     </g>
    </g>
    <g id="xtick_30">
     <g id="line2d_30">
      <g>
       <use xlink:href="#mad813e038b" x="407.971667" y="182.946895" style="stroke: #000000; stroke-width: 0.6"/>
      </g>
     </g>
    </g>
    <g id="xtick_31">
     <g id="line2d_31">
      <g>
       <use xlink:href="#mad813e038b" x="422.23641" y="182.946895" style="stroke: #000000; stroke-width: 0.6"/>
      </g>
     </g>
    </g>
    <g id="text_7">
     <!-- x -->
     <g transform="translate(453.06 182.946895) scale(0.25 -0.25)">
      <defs>
       <path id="DejaVuSans-78" d="M 3513 3500 
L 2247 1797 
L 3578 0 
L 2900 0 
L 1881 1375 
L 863 0 
L 184 0 
L 1544 1831 
L 300 3500 
L 978 3500 
L 1906 2253 
L 2834 3500 
L 3513 3500 
z
" transform="scale(0.015625)"/>
      </defs>
      <use xlink:href="#DejaVuSans-78"/>
     </g>
    </g>
   </g>
   <g id="matplotlib.axis_2">
    <g id="ytick_1">
     <g id="line2d_32">
      <defs>
       <path id="me2d153c79a" d="M 0 0 
L -3.5 0 
" style="stroke: #000000; stroke-width: 0.8"/>
      </defs>
      <g>
       <use xlink:href="#me2d153c79a" x="222.53" y="339.051444" style="stroke: #000000; stroke-width: 0.8"/>
      </g>
     </g>
     <g id="text_8">
      <!-- −1.0 -->
      <g transform="translate(191.247188 342.850663) scale(0.1 -0.1)">
       <defs>
        <path id="DejaVuSans-2e" d="M 684 794 
L 1344 794 
L 1344 0 
L 684 0 
L 684 794 
z
" transform="scale(0.015625)"/>
        <path id="DejaVuSans-30" d="M 2034 4250 
Q 1547 4250 1301 3770 
Q 1056 3291 1056 2328 
Q 1056 1369 1301 889 
Q 1547 409 2034 409 
Q 2525 409 2770 889 
Q 3016 1369 3016 2328 
Q 3016 3291 2770 3770 
Q 2525 4250 2034 4250 
z
M 2034 4750 
Q 2819 4750 3233 4129 
Q 3647 3509 3647 2328 
Q 3647 1150 3233 529 
Q 2819 -91 2034 -91 
Q 1250 -91 836 529 
Q 422 1150 422 2328 
Q 422 3509 836 4129 
Q 1250 4750 2034 4750 
z
" transform="scale(0.015625)"/>
       </defs>
       <use xlink:href="#DejaVuSans-2212"/>
       <use xlink:href="#DejaVuSans-31" transform="translate(83.789062 0)"/>
       <use xlink:href="#DejaVuSans-2e" transform="translate(147.412109 0)"/>
       <use xlink:href="#DejaVuSans-30" transform="translate(179.199219 0)"/>
      </g>
     </g>
    </g>
    <g id="ytick_2">
     <g id="line2d_33">
      <g>
       <use xlink:href="#me2d153c79a" x="222.53" y="260.99917" style="stroke: #000000; stroke-width: 0.8"/>
      </g>
     </g>
     <g id="text_9">
      <!-- −0.5 -->
      <g transform="translate(191.247188 264.798388) scale(0.1 -0.1)">
       <defs>
        <path id="DejaVuSans-35" d="M 691 4666 
L 3169 4666 
L 3169 4134 
L 1269 4134 
L 1269 2991 
Q 1406 3038 1543 3061 
Q 1681 3084 1819 3084 
Q 2600 3084 3056 2656 
Q 3513 2228 3513 1497 
Q 3513 744 3044 326 
Q 2575 -91 1722 -91 
Q 1428 -91 1123 -41 
Q 819 9 494 109 
L 494 744 
Q 775 591 1075 516 
Q 1375 441 1709 441 
Q 2250 441 2565 725 
Q 2881 1009 2881 1497 
Q 2881 1984 2565 2268 
Q 2250 2553 1709 2553 
Q 1456 2553 1204 2497 
Q 953 2441 691 2322 
L 691 4666 
z
" transform="scale(0.015625)"/>
       </defs>
       <use xlink:href="#DejaVuSans-2212"/>
       <use xlink:href="#DejaVuSans-30" transform="translate(83.789062 0)"/>
       <use xlink:href="#DejaVuSans-2e" transform="translate(147.412109 0)"/>
       <use xlink:href="#DejaVuSans-35" transform="translate(179.199219 0)"/>
      </g>
     </g>
    </g>
    <g id="ytick_3">
     <g id="line2d_34">
      <g>
       <use xlink:href="#me2d153c79a" x="222.53" y="182.946895" style="stroke: #000000; stroke-width: 0.8"/>
      </g>
     </g>
    </g>
    <g id="ytick_4">
     <g id="line2d_35">
      <g>
       <use xlink:href="#me2d153c79a" x="222.53" y="104.894621" style="stroke: #000000; stroke-width: 0.8"/>
      </g>
     </g>
     <g id="text_10">
      <!-- 0.5 -->
      <g transform="translate(199.626875 108.693839) scale(0.1 -0.1)">
       <use xlink:href="#DejaVuSans-30"/>
       <use xlink:href="#DejaVuSans-2e" transform="translate(63.623047 0)"/>
       <use xlink:href="#DejaVuSans-35" transform="translate(95.410156 0)"/>
      </g>
     </g>
    </g>
    <g id="ytick_5">
     <g id="line2d_36">
      <g>
       <use xlink:href="#me2d153c79a" x="222.53" y="26.842346" style="stroke: #000000; stroke-width: 0.8"/>
      </g>
     </g>
     <g id="text_11">
      <!-- 1.0 -->
      <g transform="translate(199.626875 30.641565) scale(0.1 -0.1)">
       <use xlink:href="#DejaVuSans-31"/>
       <use xlink:href="#DejaVuSans-2e" transform="translate(63.623047 0)"/>
       <use xlink:href="#DejaVuSans-30" transform="translate(95.410156 0)"/>
      </g>
     </g>
    </g>
    <g id="ytick_6">
     <g id="line2d_37">
      <defs>
       <path id="m7a530f9940" d="M 0 0 
L -2 0 
" style="stroke: #000000; stroke-width: 0.6"/>
      </defs>
      <g>
       <use xlink:href="#m7a530f9940" x="222.53" y="323.440989" style="stroke: #000000; stroke-width: 0.6"/>
      </g>
     </g>
    </g>
    <g id="ytick_7">
     <g id="line2d_38">
      <g>
       <use xlink:href="#m7a530f9940" x="222.53" y="307.830534" style="stroke: #000000; stroke-width: 0.6"/>
      </g>
     </g>
    </g>
    <g id="ytick_8">
     <g id="line2d_39">
      <g>
       <use xlink:href="#m7a530f9940" x="222.53" y="292.22008" style="stroke: #000000; stroke-width: 0.6"/>
      </g>
     </g>
    </g>
    <g id="ytick_9">
     <g id="line2d_40">
      <g>
       <use xlink:href="#m7a530f9940" x="222.53" y="276.609625" style="stroke: #000000; stroke-width: 0.6"/>
      </g>
     </g>
    </g>
    <g id="ytick_10">
     <g id="line2d_41">
      <g>
       <use xlink:href="#m7a530f9940" x="222.53" y="245.388715" style="stroke: #000000; stroke-width: 0.6"/>
      </g>
     </g>
    </g>
    <g id="ytick_11">
     <g id="line2d_42">
      <g>
       <use xlink:href="#m7a530f9940" x="222.53" y="229.77826" style="stroke: #000000; stroke-width: 0.6"/>
      </g>
     </g>
    </g>
    <g id="ytick_12">
     <g id="line2d_43">
      <g>
       <use xlink:href="#m7a530f9940" x="222.53" y="214.167805" style="stroke: #000000; stroke-width: 0.6"/>
      </g>
     </g>
    </g>
    <g id="ytick_13">
     <g id="line2d_44">
      <g>
       <use xlink:href="#m7a530f9940" x="222.53" y="198.55735" style="stroke: #000000; stroke-width: 0.6"/>
      </g>
     </g>
    </g>
    <g id="ytick_14">
     <g id="line2d_45">
      <g>
       <use xlink:href="#m7a530f9940" x="222.53" y="167.33644" style="stroke: #000000; stroke-width: 0.6"/>
      </g>
     </g>
    </g>
    <g id="ytick_15">
     <g id="line2d_46">
      <g>
       <use xlink:href="#m7a530f9940" x="222.53" y="151.725985" style="stroke: #000000; stroke-width: 0.6"/>
      </g>
     </g>
    </g>
    <g id="ytick_16">
     <g id="line2d_47">
      <g>
       <use xlink:href="#m7a530f9940" x="222.53" y="136.11553" style="stroke: #000000; stroke-width: 0.6"/>
      </g>
     </g>
    </g>
    <g id="ytick_17">
     <g id="line2d_48">
      <g>
       <use xlink:href="#m7a530f9940" x="222.53" y="120.505075" style="stroke: #000000; stroke-width: 0.6"/>
      </g>
     </g>
    </g>
    <g id="ytick_18">
     <g id="line2d_49">
      <g>
       <use xlink:href="#m7a530f9940" x="222.53" y="89.284166" style="stroke: #000000; stroke-width: 0.6"/>
      </g>
     </g>
    </g>
    <g id="ytick_19">
     <g id="line2d_50">
      <g>
       <use xlink:href="#m7a530f9940" x="222.53" y="73.673711" style="stroke: #000000; stroke-width: 0.6"/>
      </g>
     </g>
    </g>
    <g id="ytick_20">
     <g id="line2d_51">
      <g>
       <use xlink:href="#m7a530f9940" x="222.53" y="58.063256" style="stroke: #000000; stroke-width: 0.6"/>
      </g>
     </g>
    </g>
    <g id="ytick_21">
     <g id="line2d_52">
      <g>
       <use xlink:href="#m7a530f9940" x="222.53" y="42.452801" style="stroke: #000000; stroke-width: 0.6"/>
      </g>
     </g>
    </g>
    <g id="text_12">
     <!-- y -->
     <g transform="translate(215.131563 7.400781) scale(0.25 -0.25)">
      <defs>
       <path id="DejaVuSans-79" d="M 2059 -325 
Q 1816 -950 1584 -1140 
Q 1353 -1331 966 -1331 
L 506 -1331 
L 506 -850 
L 844 -850 
Q 1081 -850 1212 -737 
Q 1344 -625 1503 -206 
L 1606 56 
L 191 3500 
L 800 3500 
L 1894 763 
L 2988 3500 
L 3597 3500 
L 2059 -325 
z
" transform="scale(0.015625)"/>
      </defs>
      <use xlink:href="#DejaVuSans-79"/>
     </g>
    </g>
   </g>
   <g id="line2d_53">
    <path d="M 8.558846 118.613325 
L 10.834224 92.858991 
L 12.824435 73.157627 
L 14.544645 58.628824 
L 16.071251 47.877057 
L 17.377682 40.373636 
L 18.574024 34.926016 
L 19.371585 32.064805 
L 20.38879 29.318587 
L 21.007215 28.145044 
L 21.625639 27.346089 
L 22.244063 26.920211 
L 22.860096 26.8645 
L 23.432167 27.139305 
L 24.004237 27.725246 
L 24.576307 28.618468 
L 25.588805 30.938566 
L 26.469658 33.706085 
L 27.350512 37.147427 
L 28.671793 43.517637 
L 29.869171 50.472124 
L 31.405224 60.908752 
L 33.223145 75.227773 
L 35.266127 93.478859 
L 37.865842 119.258329 
L 41.391479 157.040743 
L 47.716961 225.468814 
L 50.137712 249.593632 
L 52.267973 269.094645 
L 54.320486 286.015605 
L 55.966185 298.084283 
L 57.567199 308.436896 
L 58.803926 315.447941 
L 60.210039 322.338419 
L 61.743201 328.510588 
L 62.573306 331.261298 
L 64.002787 335.020122 
L 64.717527 336.436025 
L 65.643542 337.813447 
L 66.610237 338.705555 
L 67.093585 338.944612 
L 67.576932 339.047046 
L 68.060279 339.014035 
L 68.543627 338.846873 
L 69.026974 338.546962 
L 69.973549 337.580941 
L 70.436777 336.928515 
L 71.265872 335.472342 
L 72.094967 333.654406 
L 72.924062 331.485144 
L 74.543389 326.277905 
L 75.923406 320.883203 
L 77.391486 314.24803 
L 79.148077 305.199174 
L 81.023409 294.349479 
L 83.377285 279.25004 
L 85.714779 262.939217 
L 88.803597 239.940576 
L 100.9697 146.32629 
L 104.658385 120.663273 
L 107.336747 103.610876 
L 109.721599 89.720778 
L 112.061165 77.377114 
L 114.35671 66.56332 
L 116.681928 56.958595 
L 118.355762 50.894858 
L 119.960062 45.751218 
L 121.415877 41.645742 
L 122.871693 38.06862 
L 124.948117 33.863093 
L 126.780149 31.00403 
L 127.751434 29.802331 
L 128.722719 28.812434 
L 129.694004 28.029468 
L 130.624996 27.468468 
L 131.949048 26.980651 
L 133.2731 26.844078 
L 134.561878 27.034398 
L 135.850657 27.529384 
L 137.478157 28.567271 
L 139.244902 30.183236 
L 140.360689 31.449323 
L 141.476475 32.893823 
L 142.734883 34.724811 
L 145.314933 39.090619 
L 147.99533 44.391568 
L 150.067909 48.944062 
L 152.665807 55.112865 
L 156.007562 63.641932 
L 160.70284 76.376341 
L 172.230821 108.470987 
L 177.0622 121.239815 
L 181.87309 133.110482 
L 185.380031 141.113433 
L 188.409201 147.531818 
L 191.99532 154.495724 
L 195.02116 159.810843 
L 197.136124 163.211679 
L 198.951387 165.920635 
L 201.370206 169.225141 
L 203.851266 172.24891 
L 207.010935 175.559073 
L 209.798868 177.974013 
L 212.006566 179.548857 
L 214.594783 181.014686 
L 217.538385 182.182306 
L 218.850416 182.531421 
L 220.299323 182.794201 
L 222.994872 182.940264 
L 224.716579 182.800179 
L 226.753526 182.399505 
L 228.790472 181.744195 
L 230.800269 180.848082 
L 232.841724 179.684185 
L 235.00964 178.16848 
L 237.190109 176.353747 
L 239.944254 173.646528 
L 241.777114 171.589077 
L 243.609974 169.328207 
L 246.78527 164.933678 
L 249.99466 159.884551 
L 252.643731 155.266381 
L 254.999366 150.82642 
L 258.742352 143.150786 
L 261.953328 135.992451 
L 266.187298 125.81842 
L 271.158569 112.966659 
L 277.266788 96.230502 
L 285.615639 72.902887 
L 291.094725 58.360251 
L 293.65088 52.070612 
L 295.675164 47.404195 
L 298.734689 41.004116 
L 300.490566 37.749543 
L 301.918358 35.360203 
L 304.303993 31.941201 
L 305.261836 30.788111 
L 306.645979 29.362135 
L 308.49106 27.932141 
L 309.4136 27.431205 
L 310.876919 26.946206 
L 311.719527 26.846251 
L 312.562134 26.882253 
L 313.404741 27.05806 
L 314.247349 27.377426 
L 315.510565 28.133097 
L 316.773782 29.2314 
L 318.242039 30.953229 
L 319.807672 33.333837 
L 320.590489 34.740318 
L 321.677029 36.936152 
L 322.790628 39.485028 
L 324.870725 45.069492 
L 326.803719 51.235319 
L 328.590734 57.780049 
L 330.819587 67.079579 
L 332.664984 75.723394 
L 335.43389 90.252104 
L 337.486944 102.178109 
L 340.056725 118.386855 
L 342.575073 135.510054 
L 345.571665 157.218822 
L 348.729846 181.255821 
L 358.637669 257.794159 
L 361.80031 280.038778 
L 364.322369 296.075649 
L 366.394687 307.799589 
L 368.365975 317.51096 
L 369.894798 323.952256 
L 371.191819 328.601299 
L 372.257038 331.823481 
L 373.48557 334.837496 
L 374.341728 336.475294 
L 375.197887 337.720409 
L 376.054046 338.562745 
L 376.910205 338.993158 
L 377.469592 339.047955 
L 378.033798 338.919506 
L 378.598004 338.604693 
L 379.162211 338.10187 
L 379.726417 337.40962 
L 380.515473 336.12158 
L 381.699057 333.485492 
L 382.88264 330.001255 
L 384.230202 325.00326 
L 385.577763 318.917284 
L 386.753302 312.734658 
L 388.330947 303.193158 
L 390.381175 288.761856 
L 391.89781 276.708496 
L 394.181625 256.578159 
L 396.739716 231.648036 
L 400.391173 193.018077 
L 407.250111 118.679813 
L 409.909163 92.39595 
L 412.283284 71.529628 
L 413.912135 59.048041 
L 415.3892 49.24572 
L 416.627021 42.262292 
L 417.953164 36.129392 
L 418.884969 32.704253 
L 419.864484 29.926443 
L 420.843999 28.020294 
L 421.333757 27.40188 
L 421.823515 27.010118 
L 422.313272 26.847274 
L 422.718404 26.886957 
L 423.123535 27.085535 
L 423.528667 27.443768 
L 423.933799 27.962254 
L 424.551456 29.062052 
L 425.169113 30.536055 
L 425.78677 32.384087 
L 426.872881 36.536867 
L 427.80979 41.034983 
L 429.027289 48.122562 
L 430.160036 55.940836 
L 431.756748 68.868258 
L 433.612605 86.482095 
L 435.004499 101.320906 
L 436.501154 118.613325 
L 436.501154 118.613325 
" clip-path="url(#pf996dd9123)" style="fill: none; stroke: #0000ff; stroke-linecap: square"/>
   </g>
   <g id="patch_3">
    <path d="M 222.53 345.292033 
L 222.53 20.6 
" style="fill: none; stroke: #000000; stroke-width: 0.8; stroke-linejoin: miter; stroke-linecap: square"/>
   </g>
   <g id="patch_4">
    <path d="M 0 182.946895 
L 445.06 182.946895 
" style="fill: none; stroke: #000000; stroke-width: 0.8; stroke-linejoin: miter; stroke-linecap: square"/>
   </g>
  </g>
 </g>
 <defs>
  <clipPath id="pf996dd9123">
   <rect x="0" y="20.6" width="445.06" height="324.692033"/>
  </clipPath>
 </defs>
</svg>
