<?xml version="1.0" encoding="utf-8" standalone="no"?>
<!DOCTYPE svg PUBLIC "-//W3C//DTD SVG 1.1//EN"
  "http://www.w3.org/Graphics/SVG/1.1/DTD/svg11.dtd">
<svg xmlns:xlink="http://www.w3.org/1999/xlink" width="460.8pt" height="345.6pt" viewBox="0 0 460.8 345.6" xmlns="http://www.w3.org/2000/svg" version="1.1">
 <metadata>
  <rdf:RDF xmlns:dc="http://purl.org/dc/elements/1.1/" xmlns:cc="http://creativecommons.org/ns#" xmlns:rdf="http://www.w3.org/1999/02/22-rdf-syntax-ns#">
   <cc:Work>
    <dc:type rdf:resource="http://purl.org/dc/dcmitype/StillImage"/>
    <dc:date>2025-08-04T21:53:09.072392</dc:date>
    <dc:format>image/svg+xml</dc:format>
    <dc:creator>
     <cc:Agent>
      <dc:title>Matplotlib v3.10.3, https://matplotlib.org/</dc:title>
     </cc:Agent>
    </dc:creator>
   </cc:Work>
  </rdf:RDF>
 </metadata>
 <defs>
  <style type="text/css">*{stroke-linejoin: round; stroke-linecap: butt}</style>
 </defs>
 <g id="figure_1">
  <g id="patch_1">
   <path d="M 0 345.6 
L 460.8 345.6 
L 460.8 0 
L 0 0 
z
" style="fill: #ffffff"/>
  </g>
  <g id="axes_1">
   <g id="patch_2">
    <path d="M 0 345.6 
L 460.8 345.6 
L 460.8 0 
L 0 0 
z
" style="fill: #ffffff"/>
   </g>
   <g id="PathCollection_1">
    <defs>
     <path id="C0_0_e89c1643e4" d="M 0 2.738613 
C 0.726289 2.738613 1.422928 2.450055 1.936492 1.936492 
C 2.450055 1.422928 2.738613 0.726289 2.738613 -0 
C 2.738613 -0.726289 2.450055 -1.422928 1.936492 -1.936492 
C 1.422928 -2.450055 0.726289 -2.738613 0 -2.738613 
C -0.726289 -2.738613 -1.422928 -2.450055 -1.936492 -1.936492 
C -2.450055 -1.422928 -2.738613 -0.726289 -2.738613 0 
C -2.738613 0.726289 -2.450055 1.422928 -1.936492 1.936492 
C -1.422928 2.450055 -0.726289 2.738613 0 2.738613 
z
"/>
    </defs>
    <g clip-path="url(#pb09e4dd83e)">
     <use xlink:href="#C0_0_e89c1643e4" x="8.861538" y="245.944719" style="fill: #33991a"/>
    </g>
    <g clip-path="url(#pb09e4dd83e)">
     <use xlink:href="#C0_0_e89c1643e4" x="12.584874" y="288.186982" style="fill: #33991a"/>
    </g>
    <g clip-path="url(#pb09e4dd83e)">
     <use xlink:href="#C0_0_e89c1643e4" x="16.308209" y="318.538152" style="fill: #33991a"/>
    </g>
    <g clip-path="url(#pb09e4dd83e)">
     <use xlink:href="#C0_0_e89c1643e4" x="20.031545" y="335.385707" style="fill: #33991a"/>
    </g>
    <g clip-path="url(#pb09e4dd83e)">
     <use xlink:href="#C0_0_e89c1643e4" x="23.75488" y="338.454184" style="fill: #33991a"/>
    </g>
    <g clip-path="url(#pb09e4dd83e)">
     <use xlink:href="#C0_0_e89c1643e4" x="27.478216" y="328.647805" style="fill: #33991a"/>
    </g>
    <g clip-path="url(#pb09e4dd83e)">
     <use xlink:href="#C0_0_e89c1643e4" x="31.201551" y="307.810453" style="fill: #33991a"/>
    </g>
    <g clip-path="url(#pb09e4dd83e)">
     <use xlink:href="#C0_0_e89c1643e4" x="34.924887" y="278.44056" style="fill: #33991a"/>
    </g>
    <g clip-path="url(#pb09e4dd83e)">
     <use xlink:href="#C0_0_e89c1643e4" x="38.648222" y="243.395449" style="fill: #33991a"/>
    </g>
    <g clip-path="url(#pb09e4dd83e)">
     <use xlink:href="#C0_0_e89c1643e4" x="42.371558" y="205.613802" style="fill: #33991a"/>
    </g>
    <g clip-path="url(#pb09e4dd83e)">
     <use xlink:href="#C0_0_e89c1643e4" x="46.094893" y="167.877472" style="fill: #33991a"/>
    </g>
    <g clip-path="url(#pb09e4dd83e)">
     <use xlink:href="#C0_0_e89c1643e4" x="49.818229" y="132.625895" style="fill: #33991a"/>
    </g>
    <g clip-path="url(#pb09e4dd83e)">
     <use xlink:href="#C0_0_e89c1643e4" x="53.541564" y="101.828929" style="fill: #33991a"/>
    </g>
    <g clip-path="url(#pb09e4dd83e)">
     <use xlink:href="#C0_0_e89c1643e4" x="57.2649" y="76.917547" style="fill: #33991a"/>
    </g>
    <g clip-path="url(#pb09e4dd83e)">
     <use xlink:href="#C0_0_e89c1643e4" x="60.988235" y="58.766948" style="fill: #33991a"/>
    </g>
    <g clip-path="url(#pb09e4dd83e)">
     <use xlink:href="#C0_0_e89c1643e4" x="64.711571" y="47.723291" style="fill: #33991a"/>
    </g>
    <g clip-path="url(#pb09e4dd83e)">
     <use xlink:href="#C0_0_e89c1643e4" x="68.434906" y="43.663525" style="fill: #33991a"/>
    </g>
    <g clip-path="url(#pb09e4dd83e)">
     <use xlink:href="#C0_0_e89c1643e4" x="72.158242" y="46.077281" style="fill: #33991a"/>
    </g>
    <g clip-path="url(#pb09e4dd83e)">
     <use xlink:href="#C0_0_e89c1643e4" x="75.881577" y="54.160411" style="fill: #33991a"/>
    </g>
    <g clip-path="url(#pb09e4dd83e)">
     <use xlink:href="#C0_0_e89c1643e4" x="79.604913" y="66.911084" style="fill: #33991a"/>
    </g>
    <g clip-path="url(#pb09e4dd83e)">
     <use xlink:href="#C0_0_e89c1643e4" x="83.328248" y="83.221098" style="fill: #33991a"/>
    </g>
    <g clip-path="url(#pb09e4dd83e)">
     <use xlink:href="#C0_0_e89c1643e4" x="87.051584" y="101.957062" style="fill: #33991a"/>
    </g>
    <g clip-path="url(#pb09e4dd83e)">
     <use xlink:href="#C0_0_e89c1643e4" x="90.774919" y="122.027989" style="fill: #33991a"/>
    </g>
    <g clip-path="url(#pb09e4dd83e)">
     <use xlink:href="#C0_0_e89c1643e4" x="94.498255" y="142.43761" style="fill: #33991a"/>
    </g>
    <g clip-path="url(#pb09e4dd83e)">
     <use xlink:href="#C0_0_e89c1643e4" x="98.22159" y="162.321154" style="fill: #33991a"/>
    </g>
    <g clip-path="url(#pb09e4dd83e)">
     <use xlink:href="#C0_0_e89c1643e4" x="101.944926" y="180.967499" style="fill: #33991a"/>
    </g>
    <g clip-path="url(#pb09e4dd83e)">
     <use xlink:href="#C0_0_e89c1643e4" x="105.668261" y="197.828373" style="fill: #33991a"/>
    </g>
    <g clip-path="url(#pb09e4dd83e)">
     <use xlink:href="#C0_0_e89c1643e4" x="109.391597" y="212.516784" style="fill: #33991a"/>
    </g>
    <g clip-path="url(#pb09e4dd83e)">
     <use xlink:href="#C0_0_e89c1643e4" x="113.114932" y="224.797045" style="fill: #33991a"/>
    </g>
    <g clip-path="url(#pb09e4dd83e)">
     <use xlink:href="#C0_0_e89c1643e4" x="116.838268" y="234.568802" style="fill: #33991a"/>
    </g>
    <g clip-path="url(#pb09e4dd83e)">
     <use xlink:href="#C0_0_e89c1643e4" x="120.561603" y="241.847241" style="fill: #33991a"/>
    </g>
    <g clip-path="url(#pb09e4dd83e)">
     <use xlink:href="#C0_0_e89c1643e4" x="124.284939" y="246.741435" style="fill: #33991a"/>
    </g>
    <g clip-path="url(#pb09e4dd83e)">
     <use xlink:href="#C0_0_e89c1643e4" x="128.008274" y="249.43242" style="fill: #33991a"/>
    </g>
    <g clip-path="url(#pb09e4dd83e)">
     <use xlink:href="#C0_0_e89c1643e4" x="131.73161" y="250.152244" style="fill: #33991a"/>
    </g>
    <g clip-path="url(#pb09e4dd83e)">
     <use xlink:href="#C0_0_e89c1643e4" x="135.454945" y="249.164876" style="fill: #33991a"/>
    </g>
    <g clip-path="url(#pb09e4dd83e)">
     <use xlink:href="#C0_0_e89c1643e4" x="139.178281" y="246.749564" style="fill: #33991a"/>
    </g>
    <g clip-path="url(#pb09e4dd83e)">
     <use xlink:href="#C0_0_e89c1643e4" x="142.901616" y="243.186932" style="fill: #33991a"/>
    </g>
    <g clip-path="url(#pb09e4dd83e)">
     <use xlink:href="#C0_0_e89c1643e4" x="146.624952" y="238.747908" style="fill: #33991a"/>
    </g>
    <g clip-path="url(#pb09e4dd83e)">
     <use xlink:href="#C0_0_e89c1643e4" x="150.348287" y="233.685368" style="fill: #33991a"/>
    </g>
    <g clip-path="url(#pb09e4dd83e)">
     <use xlink:href="#C0_0_e89c1643e4" x="154.071622" y="228.228302" style="fill: #33991a"/>
    </g>
    <g clip-path="url(#pb09e4dd83e)">
     <use xlink:href="#C0_0_e89c1643e4" x="157.794958" y="222.57819" style="fill: #33991a"/>
    </g>
    <g clip-path="url(#pb09e4dd83e)">
     <use xlink:href="#C0_0_e89c1643e4" x="161.518293" y="216.907254" style="fill: #33991a"/>
    </g>
    <g clip-path="url(#pb09e4dd83e)">
     <use xlink:href="#C0_0_e89c1643e4" x="165.241629" y="211.358233" style="fill: #33991a"/>
    </g>
    <g clip-path="url(#pb09e4dd83e)">
     <use xlink:href="#C0_0_e89c1643e4" x="168.964964" y="206.04534" style="fill: #33991a"/>
    </g>
    <g clip-path="url(#pb09e4dd83e)">
     <use xlink:href="#C0_0_e89c1643e4" x="172.6883" y="201.056076" style="fill: #33991a"/>
    </g>
    <g clip-path="url(#pb09e4dd83e)">
     <use xlink:href="#C0_0_e89c1643e4" x="176.411635" y="196.453633" style="fill: #33991a"/>
    </g>
    <g clip-path="url(#pb09e4dd83e)">
     <use xlink:href="#C0_0_e89c1643e4" x="180.134971" y="192.27963" style="fill: #33991a"/>
    </g>
    <g clip-path="url(#pb09e4dd83e)">
     <use xlink:href="#C0_0_e89c1643e4" x="183.858306" y="188.556999" style="fill: #33991a"/>
    </g>
    <g clip-path="url(#pb09e4dd83e)">
     <use xlink:href="#C0_0_e89c1643e4" x="187.581642" y="185.292853" style="fill: #33991a"/>
    </g>
    <g clip-path="url(#pb09e4dd83e)">
     <use xlink:href="#C0_0_e89c1643e4" x="191.304977" y="182.481224" style="fill: #33991a"/>
    </g>
    <g clip-path="url(#pb09e4dd83e)">
     <use xlink:href="#C0_0_e89c1643e4" x="195.028313" y="180.10559" style="fill: #33991a"/>
    </g>
    <g clip-path="url(#pb09e4dd83e)">
     <use xlink:href="#C0_0_e89c1643e4" x="198.751648" y="178.141133" style="fill: #33991a"/>
    </g>
    <g clip-path="url(#pb09e4dd83e)">
     <use xlink:href="#C0_0_e89c1643e4" x="202.474984" y="176.556702" style="fill: #33991a"/>
    </g>
    <g clip-path="url(#pb09e4dd83e)">
     <use xlink:href="#C0_0_e89c1643e4" x="206.198319" y="175.316468" style="fill: #33991a"/>
    </g>
    <g clip-path="url(#pb09e4dd83e)">
     <use xlink:href="#C0_0_e89c1643e4" x="209.921655" y="174.38128" style="fill: #33991a"/>
    </g>
    <g clip-path="url(#pb09e4dd83e)">
     <use xlink:href="#C0_0_e89c1643e4" x="213.64499" y="173.70974" style="fill: #33991a"/>
    </g>
    <g clip-path="url(#pb09e4dd83e)">
     <use xlink:href="#C0_0_e89c1643e4" x="217.368326" y="173.259021" style="fill: #33991a"/>
    </g>
    <g clip-path="url(#pb09e4dd83e)">
     <use xlink:href="#C0_0_e89c1643e4" x="221.091661" y="172.985455" style="fill: #33991a"/>
    </g>
    <g clip-path="url(#pb09e4dd83e)">
     <use xlink:href="#C0_0_e89c1643e4" x="224.814997" y="172.844935" style="fill: #33991a"/>
    </g>
    <g clip-path="url(#pb09e4dd83e)">
     <use xlink:href="#C0_0_e89c1643e4" x="228.538332" y="172.793159" style="fill: #33991a"/>
    </g>
    <g clip-path="url(#pb09e4dd83e)">
     <use xlink:href="#C0_0_e89c1643e4" x="232.261668" y="172.785763" style="fill: #33991a"/>
    </g>
    <g clip-path="url(#pb09e4dd83e)">
     <use xlink:href="#C0_0_e89c1643e4" x="235.985003" y="172.778366" style="fill: #33991a"/>
    </g>
    <g clip-path="url(#pb09e4dd83e)">
     <use xlink:href="#C0_0_e89c1643e4" x="239.708339" y="172.726591" style="fill: #33991a"/>
    </g>
    <g clip-path="url(#pb09e4dd83e)">
     <use xlink:href="#C0_0_e89c1643e4" x="243.431674" y="172.586071" style="fill: #33991a"/>
    </g>
    <g clip-path="url(#pb09e4dd83e)">
     <use xlink:href="#C0_0_e89c1643e4" x="247.15501" y="172.312504" style="fill: #33991a"/>
    </g>
    <g clip-path="url(#pb09e4dd83e)">
     <use xlink:href="#C0_0_e89c1643e4" x="250.878345" y="171.861785" style="fill: #33991a"/>
    </g>
    <g clip-path="url(#pb09e4dd83e)">
     <use xlink:href="#C0_0_e89c1643e4" x="254.601681" y="171.190246" style="fill: #33991a"/>
    </g>
    <g clip-path="url(#pb09e4dd83e)">
     <use xlink:href="#C0_0_e89c1643e4" x="258.325016" y="170.255058" style="fill: #33991a"/>
    </g>
    <g clip-path="url(#pb09e4dd83e)">
     <use xlink:href="#C0_0_e89c1643e4" x="262.048352" y="169.014823" style="fill: #33991a"/>
    </g>
    <g clip-path="url(#pb09e4dd83e)">
     <use xlink:href="#C0_0_e89c1643e4" x="265.771687" y="167.430393" style="fill: #33991a"/>
    </g>
    <g clip-path="url(#pb09e4dd83e)">
     <use xlink:href="#C0_0_e89c1643e4" x="269.495023" y="165.465936" style="fill: #33991a"/>
    </g>
    <g clip-path="url(#pb09e4dd83e)">
     <use xlink:href="#C0_0_e89c1643e4" x="273.218358" y="163.090302" style="fill: #33991a"/>
    </g>
    <g clip-path="url(#pb09e4dd83e)">
     <use xlink:href="#C0_0_e89c1643e4" x="276.941694" y="160.278673" style="fill: #33991a"/>
    </g>
    <g clip-path="url(#pb09e4dd83e)">
     <use xlink:href="#C0_0_e89c1643e4" x="280.665029" y="157.014526" style="fill: #33991a"/>
    </g>
    <g clip-path="url(#pb09e4dd83e)">
     <use xlink:href="#C0_0_e89c1643e4" x="284.388365" y="153.291895" style="fill: #33991a"/>
    </g>
    <g clip-path="url(#pb09e4dd83e)">
     <use xlink:href="#C0_0_e89c1643e4" x="288.1117" y="149.117893" style="fill: #33991a"/>
    </g>
    <g clip-path="url(#pb09e4dd83e)">
     <use xlink:href="#C0_0_e89c1643e4" x="291.835036" y="144.515449" style="fill: #33991a"/>
    </g>
    <g clip-path="url(#pb09e4dd83e)">
     <use xlink:href="#C0_0_e89c1643e4" x="295.558371" y="139.526185" style="fill: #33991a"/>
    </g>
    <g clip-path="url(#pb09e4dd83e)">
     <use xlink:href="#C0_0_e89c1643e4" x="299.281707" y="134.213292" style="fill: #33991a"/>
    </g>
    <g clip-path="url(#pb09e4dd83e)">
     <use xlink:href="#C0_0_e89c1643e4" x="303.005042" y="128.664272" style="fill: #33991a"/>
    </g>
    <g clip-path="url(#pb09e4dd83e)">
     <use xlink:href="#C0_0_e89c1643e4" x="306.728378" y="122.993335" style="fill: #33991a"/>
    </g>
    <g clip-path="url(#pb09e4dd83e)">
     <use xlink:href="#C0_0_e89c1643e4" x="310.451713" y="117.343223" style="fill: #33991a"/>
    </g>
    <g clip-path="url(#pb09e4dd83e)">
     <use xlink:href="#C0_0_e89c1643e4" x="314.175048" y="111.886157" style="fill: #33991a"/>
    </g>
    <g clip-path="url(#pb09e4dd83e)">
     <use xlink:href="#C0_0_e89c1643e4" x="317.898384" y="106.823617" style="fill: #33991a"/>
    </g>
    <g clip-path="url(#pb09e4dd83e)">
     <use xlink:href="#C0_0_e89c1643e4" x="321.621719" y="102.384593" style="fill: #33991a"/>
    </g>
    <g clip-path="url(#pb09e4dd83e)">
     <use xlink:href="#C0_0_e89c1643e4" x="325.345055" y="98.821962" style="fill: #33991a"/>
    </g>
    <g clip-path="url(#pb09e4dd83e)">
     <use xlink:href="#C0_0_e89c1643e4" x="329.06839" y="96.406649" style="fill: #33991a"/>
    </g>
    <g clip-path="url(#pb09e4dd83e)">
     <use xlink:href="#C0_0_e89c1643e4" x="332.791726" y="95.419281" style="fill: #33991a"/>
    </g>
    <g clip-path="url(#pb09e4dd83e)">
     <use xlink:href="#C0_0_e89c1643e4" x="336.515061" y="96.139105" style="fill: #33991a"/>
    </g>
    <g clip-path="url(#pb09e4dd83e)">
     <use xlink:href="#C0_0_e89c1643e4" x="340.238397" y="98.830091" style="fill: #33991a"/>
    </g>
    <g clip-path="url(#pb09e4dd83e)">
     <use xlink:href="#C0_0_e89c1643e4" x="343.961732" y="103.724285" style="fill: #33991a"/>
    </g>
    <g clip-path="url(#pb09e4dd83e)">
     <use xlink:href="#C0_0_e89c1643e4" x="347.685068" y="111.002724" style="fill: #33991a"/>
    </g>
    <g clip-path="url(#pb09e4dd83e)">
     <use xlink:href="#C0_0_e89c1643e4" x="351.408403" y="120.77448" style="fill: #33991a"/>
    </g>
    <g clip-path="url(#pb09e4dd83e)">
     <use xlink:href="#C0_0_e89c1643e4" x="355.131739" y="133.054742" style="fill: #33991a"/>
    </g>
    <g clip-path="url(#pb09e4dd83e)">
     <use xlink:href="#C0_0_e89c1643e4" x="358.855074" y="147.743152" style="fill: #33991a"/>
    </g>
    <g clip-path="url(#pb09e4dd83e)">
     <use xlink:href="#C0_0_e89c1643e4" x="362.57841" y="164.604027" style="fill: #33991a"/>
    </g>
    <g clip-path="url(#pb09e4dd83e)">
     <use xlink:href="#C0_0_e89c1643e4" x="366.301745" y="183.250372" style="fill: #33991a"/>
    </g>
    <g clip-path="url(#pb09e4dd83e)">
     <use xlink:href="#C0_0_e89c1643e4" x="370.025081" y="203.133915" style="fill: #33991a"/>
    </g>
    <g clip-path="url(#pb09e4dd83e)">
     <use xlink:href="#C0_0_e89c1643e4" x="373.748416" y="223.543536" style="fill: #33991a"/>
    </g>
    <g clip-path="url(#pb09e4dd83e)">
     <use xlink:href="#C0_0_e89c1643e4" x="377.471752" y="243.614464" style="fill: #33991a"/>
    </g>
    <g clip-path="url(#pb09e4dd83e)">
     <use xlink:href="#C0_0_e89c1643e4" x="381.195087" y="262.350427" style="fill: #33991a"/>
    </g>
    <g clip-path="url(#pb09e4dd83e)">
     <use xlink:href="#C0_0_e89c1643e4" x="384.918423" y="278.660441" style="fill: #33991a"/>
    </g>
    <g clip-path="url(#pb09e4dd83e)">
     <use xlink:href="#C0_0_e89c1643e4" x="388.641758" y="291.411114" style="fill: #33991a"/>
    </g>
    <g clip-path="url(#pb09e4dd83e)">
     <use xlink:href="#C0_0_e89c1643e4" x="392.365094" y="299.494245" style="fill: #33991a"/>
    </g>
    <g clip-path="url(#pb09e4dd83e)">
     <use xlink:href="#C0_0_e89c1643e4" x="396.088429" y="301.908001" style="fill: #33991a"/>
    </g>
    <g clip-path="url(#pb09e4dd83e)">
     <use xlink:href="#C0_0_e89c1643e4" x="399.811765" y="297.848235" style="fill: #33991a"/>
    </g>
    <g clip-path="url(#pb09e4dd83e)">
     <use xlink:href="#C0_0_e89c1643e4" x="403.5351" y="286.804578" style="fill: #33991a"/>
    </g>
    <g clip-path="url(#pb09e4dd83e)">
     <use xlink:href="#C0_0_e89c1643e4" x="407.258436" y="268.653979" style="fill: #33991a"/>
    </g>
    <g clip-path="url(#pb09e4dd83e)">
     <use xlink:href="#C0_0_e89c1643e4" x="410.981771" y="243.742597" style="fill: #33991a"/>
    </g>
    <g clip-path="url(#pb09e4dd83e)">
     <use xlink:href="#C0_0_e89c1643e4" x="414.705107" y="212.94563" style="fill: #33991a"/>
    </g>
    <g clip-path="url(#pb09e4dd83e)">
     <use xlink:href="#C0_0_e89c1643e4" x="418.428442" y="177.694054" style="fill: #33991a"/>
    </g>
    <g clip-path="url(#pb09e4dd83e)">
     <use xlink:href="#C0_0_e89c1643e4" x="422.151778" y="139.957723" style="fill: #33991a"/>
    </g>
    <g clip-path="url(#pb09e4dd83e)">
     <use xlink:href="#C0_0_e89c1643e4" x="425.875113" y="102.176077" style="fill: #33991a"/>
    </g>
    <g clip-path="url(#pb09e4dd83e)">
     <use xlink:href="#C0_0_e89c1643e4" x="429.598449" y="67.130965" style="fill: #33991a"/>
    </g>
    <g clip-path="url(#pb09e4dd83e)">
     <use xlink:href="#C0_0_e89c1643e4" x="433.321784" y="37.761073" style="fill: #33991a"/>
    </g>
    <g clip-path="url(#pb09e4dd83e)">
     <use xlink:href="#C0_0_e89c1643e4" x="437.04512" y="16.923721" style="fill: #33991a"/>
    </g>
    <g clip-path="url(#pb09e4dd83e)">
     <use xlink:href="#C0_0_e89c1643e4" x="440.768455" y="7.117342" style="fill: #33991a"/>
    </g>
    <g clip-path="url(#pb09e4dd83e)">
     <use xlink:href="#C0_0_e89c1643e4" x="444.491791" y="10.185819" style="fill: #33991a"/>
    </g>
    <g clip-path="url(#pb09e4dd83e)">
     <use xlink:href="#C0_0_e89c1643e4" x="448.215126" y="27.033374" style="fill: #33991a"/>
    </g>
    <g clip-path="url(#pb09e4dd83e)">
     <use xlink:href="#C0_0_e89c1643e4" x="451.938462" y="57.384543" style="fill: #33991a"/>
    </g>
   </g>
   <g id="matplotlib.axis_1">
    <g id="xtick_1">
     <g id="line2d_1">
      <defs>
       <path id="m4c05c2e19b" d="M 0 0 
L 0 3.5 
" style="stroke: #000000; stroke-width: 0.8"/>
      </defs>
      <g>
       <use xlink:href="#m4c05c2e19b" x="8.861538" y="172.785763" style="stroke: #000000; stroke-width: 0.8"/>
      </g>
     </g>
     <g id="text_1">
      <!-- −3 -->
      <g transform="translate(1.490445 187.3842) scale(0.1 -0.1)">
       <defs>
        <path id="DejaVuSans-2212" d="M 678 2272 
L 4684 2272 
L 4684 1741 
L 678 1741 
L 678 2272 
z
" transform="scale(0.015625)"/>
        <path id="DejaVuSans-33" d="M 2597 2516 
Q 3050 2419 3304 2112 
Q 3559 1806 3559 1356 
Q 3559 666 3084 287 
Q 2609 -91 1734 -91 
Q 1441 -91 1130 -33 
Q 819 25 488 141 
L 488 750 
Q 750 597 1062 519 
Q 1375 441 1716 441 
Q 2309 441 2620 675 
Q 2931 909 2931 1356 
Q 2931 1769 2642 2001 
Q 2353 2234 1838 2234 
L 1294 2234 
L 1294 2753 
L 1863 2753 
Q 2328 2753 2575 2939 
Q 2822 3125 2822 3475 
Q 2822 3834 2567 4026 
Q 2313 4219 1838 4219 
Q 1578 4219 1281 4162 
Q 984 4106 628 3988 
L 628 4550 
Q 988 4650 1302 4700 
Q 1616 4750 1894 4750 
Q 2613 4750 3031 4423 
Q 3450 4097 3450 3541 
Q 3450 3153 3228 2886 
Q 3006 2619 2597 2516 
z
" transform="scale(0.015625)"/>
       </defs>
       <use xlink:href="#DejaVuSans-2212"/>
       <use xlink:href="#DejaVuSans-33" transform="translate(83.789062 0)"/>
      </g>
     </g>
    </g>
    <g id="xtick_2">
     <g id="line2d_2">
      <g>
       <use xlink:href="#m4c05c2e19b" x="83.328248" y="172.785763" style="stroke: #000000; stroke-width: 0.8"/>
      </g>
     </g>
     <g id="text_2">
      <!-- −2 -->
      <g transform="translate(75.957154 187.3842) scale(0.1 -0.1)">
       <defs>
        <path id="DejaVuSans-32" d="M 1228 531 
L 3431 531 
L 3431 0 
L 469 0 
L 469 531 
Q 828 903 1448 1529 
Q 2069 2156 2228 2338 
Q 2531 2678 2651 2914 
Q 2772 3150 2772 3378 
Q 2772 3750 2511 3984 
Q 2250 4219 1831 4219 
Q 1534 4219 1204 4116 
Q 875 4013 500 3803 
L 500 4441 
Q 881 4594 1212 4672 
Q 1544 4750 1819 4750 
Q 2544 4750 2975 4387 
Q 3406 4025 3406 3419 
Q 3406 3131 3298 2873 
Q 3191 2616 2906 2266 
Q 2828 2175 2409 1742 
Q 1991 1309 1228 531 
z
" transform="scale(0.015625)"/>
       </defs>
       <use xlink:href="#DejaVuSans-2212"/>
       <use xlink:href="#DejaVuSans-32" transform="translate(83.789062 0)"/>
      </g>
     </g>
    </g>
    <g id="xtick_3">
     <g id="line2d_3">
      <g>
       <use xlink:href="#m4c05c2e19b" x="157.794958" y="172.785763" style="stroke: #000000; stroke-width: 0.8"/>
      </g>
     </g>
     <g id="text_3">
      <!-- −1 -->
      <g transform="translate(150.423864 187.3842) scale(0.1 -0.1)">
       <defs>
        <path id="DejaVuSans-31" d="M 794 531 
L 1825 531 
L 1825 4091 
L 703 3866 
L 703 4441 
L 1819 4666 
L 2450 4666 
L 2450 531 
L 3481 531 
L 3481 0 
L 794 0 
L 794 531 
z
" transform="scale(0.015625)"/>
       </defs>
       <use xlink:href="#DejaVuSans-2212"/>
       <use xlink:href="#DejaVuSans-31" transform="translate(83.789062 0)"/>
      </g>
     </g>
    </g>
    <g id="xtick_4">
     <g id="line2d_4">
      <g>
       <use xlink:href="#m4c05c2e19b" x="232.261668" y="172.785763" style="stroke: #000000; stroke-width: 0.8"/>
      </g>
     </g>
    </g>
    <g id="xtick_5">
     <g id="line2d_5">
      <g>
       <use xlink:href="#m4c05c2e19b" x="306.728378" y="172.785763" style="stroke: #000000; stroke-width: 0.8"/>
      </g>
     </g>
     <g id="text_4">
      <!-- 1 -->
      <g transform="translate(303.547128 187.3842) scale(0.1 -0.1)">
       <use xlink:href="#DejaVuSans-31"/>
      </g>
     </g>
    </g>
    <g id="xtick_6">
     <g id="line2d_6">
      <g>
       <use xlink:href="#m4c05c2e19b" x="381.195087" y="172.785763" style="stroke: #000000; stroke-width: 0.8"/>
      </g>
     </g>
     <g id="text_5">
      <!-- 2 -->
      <g transform="translate(378.013837 187.3842) scale(0.1 -0.1)">
       <use xlink:href="#DejaVuSans-32"/>
      </g>
     </g>
    </g>
    <g id="xtick_7">
     <g id="line2d_7">
      <g>
       <use xlink:href="#m4c05c2e19b" x="455.661797" y="172.785763" style="stroke: #000000; stroke-width: 0.8"/>
      </g>
     </g>
     <g id="text_6">
      <!-- 3 -->
      <g transform="translate(452.480547 187.3842) scale(0.1 -0.1)">
       <use xlink:href="#DejaVuSans-33"/>
      </g>
     </g>
    </g>
    <g id="xtick_8">
     <g id="line2d_8">
      <defs>
       <path id="m7b54b2710f" d="M 0 0 
L 0 2 
" style="stroke: #000000; stroke-width: 0.6"/>
      </defs>
      <g>
       <use xlink:href="#m7b54b2710f" x="23.75488" y="172.785763" style="stroke: #000000; stroke-width: 0.6"/>
      </g>
     </g>
    </g>
    <g id="xtick_9">
     <g id="line2d_9">
      <g>
       <use xlink:href="#m7b54b2710f" x="38.648222" y="172.785763" style="stroke: #000000; stroke-width: 0.6"/>
      </g>
     </g>
    </g>
    <g id="xtick_10">
     <g id="line2d_10">
      <g>
       <use xlink:href="#m7b54b2710f" x="53.541564" y="172.785763" style="stroke: #000000; stroke-width: 0.6"/>
      </g>
     </g>
    </g>
    <g id="xtick_11">
     <g id="line2d_11">
      <g>
       <use xlink:href="#m7b54b2710f" x="68.434906" y="172.785763" style="stroke: #000000; stroke-width: 0.6"/>
      </g>
     </g>
    </g>
    <g id="xtick_12">
     <g id="line2d_12">
      <g>
       <use xlink:href="#m7b54b2710f" x="98.22159" y="172.785763" style="stroke: #000000; stroke-width: 0.6"/>
      </g>
     </g>
    </g>
    <g id="xtick_13">
     <g id="line2d_13">
      <g>
       <use xlink:href="#m7b54b2710f" x="113.114932" y="172.785763" style="stroke: #000000; stroke-width: 0.6"/>
      </g>
     </g>
    </g>
    <g id="xtick_14">
     <g id="line2d_14">
      <g>
       <use xlink:href="#m7b54b2710f" x="128.008274" y="172.785763" style="stroke: #000000; stroke-width: 0.6"/>
      </g>
     </g>
    </g>
    <g id="xtick_15">
     <g id="line2d_15">
      <g>
       <use xlink:href="#m7b54b2710f" x="142.901616" y="172.785763" style="stroke: #000000; stroke-width: 0.6"/>
      </g>
     </g>
    </g>
    <g id="xtick_16">
     <g id="line2d_16">
      <g>
       <use xlink:href="#m7b54b2710f" x="172.6883" y="172.785763" style="stroke: #000000; stroke-width: 0.6"/>
      </g>
     </g>
    </g>
    <g id="xtick_17">
     <g id="line2d_17">
      <g>
       <use xlink:href="#m7b54b2710f" x="187.581642" y="172.785763" style="stroke: #000000; stroke-width: 0.6"/>
      </g>
     </g>
    </g>
    <g id="xtick_18">
     <g id="line2d_18">
      <g>
       <use xlink:href="#m7b54b2710f" x="202.474984" y="172.785763" style="stroke: #000000; stroke-width: 0.6"/>
      </g>
     </g>
    </g>
    <g id="xtick_19">
     <g id="line2d_19">
      <g>
       <use xlink:href="#m7b54b2710f" x="217.368326" y="172.785763" style="stroke: #000000; stroke-width: 0.6"/>
      </g>
     </g>
    </g>
    <g id="xtick_20">
     <g id="line2d_20">
      <g>
       <use xlink:href="#m7b54b2710f" x="247.15501" y="172.785763" style="stroke: #000000; stroke-width: 0.6"/>
      </g>
     </g>
    </g>
    <g id="xtick_21">
     <g id="line2d_21">
      <g>
       <use xlink:href="#m7b54b2710f" x="262.048352" y="172.785763" style="stroke: #000000; stroke-width: 0.6"/>
      </g>
     </g>
    </g>
    <g id="xtick_22">
     <g id="line2d_22">
      <g>
       <use xlink:href="#m7b54b2710f" x="276.941694" y="172.785763" style="stroke: #000000; stroke-width: 0.6"/>
      </g>
     </g>
    </g>
    <g id="xtick_23">
     <g id="line2d_23">
      <g>
       <use xlink:href="#m7b54b2710f" x="291.835036" y="172.785763" style="stroke: #000000; stroke-width: 0.6"/>
      </g>
     </g>
    </g>
    <g id="xtick_24">
     <g id="line2d_24">
      <g>
       <use xlink:href="#m7b54b2710f" x="321.621719" y="172.785763" style="stroke: #000000; stroke-width: 0.6"/>
      </g>
     </g>
    </g>
    <g id="xtick_25">
     <g id="line2d_25">
      <g>
       <use xlink:href="#m7b54b2710f" x="336.515061" y="172.785763" style="stroke: #000000; stroke-width: 0.6"/>
      </g>
     </g>
    </g>
    <g id="xtick_26">
     <g id="line2d_26">
      <g>
       <use xlink:href="#m7b54b2710f" x="351.408403" y="172.785763" style="stroke: #000000; stroke-width: 0.6"/>
      </g>
     </g>
    </g>
    <g id="xtick_27">
     <g id="line2d_27">
      <g>
       <use xlink:href="#m7b54b2710f" x="366.301745" y="172.785763" style="stroke: #000000; stroke-width: 0.6"/>
      </g>
     </g>
    </g>
    <g id="xtick_28">
     <g id="line2d_28">
      <g>
       <use xlink:href="#m7b54b2710f" x="396.088429" y="172.785763" style="stroke: #000000; stroke-width: 0.6"/>
      </g>
     </g>
    </g>
    <g id="xtick_29">
     <g id="line2d_29">
      <g>
       <use xlink:href="#m7b54b2710f" x="410.981771" y="172.785763" style="stroke: #000000; stroke-width: 0.6"/>
      </g>
     </g>
    </g>
    <g id="xtick_30">
     <g id="line2d_30">
      <g>
       <use xlink:href="#m7b54b2710f" x="425.875113" y="172.785763" style="stroke: #000000; stroke-width: 0.6"/>
      </g>
     </g>
    </g>
    <g id="xtick_31">
     <g id="line2d_31">
      <g>
       <use xlink:href="#m7b54b2710f" x="440.768455" y="172.785763" style="stroke: #000000; stroke-width: 0.6"/>
      </g>
     </g>
    </g>
   </g>
   <g id="matplotlib.axis_2">
    <g id="ytick_1">
     <g id="line2d_32">
      <defs>
       <path id="m927b2d5029" d="M 0 0 
L -3.5 0 
" style="stroke: #000000; stroke-width: 0.8"/>
      </defs>
      <g>
       <use xlink:href="#m927b2d5029" x="232.261668" y="291.131917" style="stroke: #000000; stroke-width: 0.8"/>
      </g>
     </g>
     <g id="text_7">
      <!-- −2 -->
      <g transform="translate(210.51948 294.931136) scale(0.1 -0.1)">
       <use xlink:href="#DejaVuSans-2212"/>
       <use xlink:href="#DejaVuSans-32" transform="translate(83.789062 0)"/>
      </g>
     </g>
    </g>
    <g id="ytick_2">
     <g id="line2d_33">
      <g>
       <use xlink:href="#m927b2d5029" x="232.261668" y="231.95884" style="stroke: #000000; stroke-width: 0.8"/>
      </g>
     </g>
     <g id="text_8">
      <!-- −1 -->
      <g transform="translate(210.51948 235.758059) scale(0.1 -0.1)">
       <use xlink:href="#DejaVuSans-2212"/>
       <use xlink:href="#DejaVuSans-31" transform="translate(83.789062 0)"/>
      </g>
     </g>
    </g>
    <g id="ytick_3">
     <g id="line2d_34">
      <g>
       <use xlink:href="#m927b2d5029" x="232.261668" y="172.785763" style="stroke: #000000; stroke-width: 0.8"/>
      </g>
     </g>
    </g>
    <g id="ytick_4">
     <g id="line2d_35">
      <g>
       <use xlink:href="#m927b2d5029" x="232.261668" y="113.612686" style="stroke: #000000; stroke-width: 0.8"/>
      </g>
     </g>
     <g id="text_9">
      <!-- 1 -->
      <g transform="translate(218.899168 117.411905) scale(0.1 -0.1)">
       <use xlink:href="#DejaVuSans-31"/>
      </g>
     </g>
    </g>
    <g id="ytick_5">
     <g id="line2d_36">
      <g>
       <use xlink:href="#m927b2d5029" x="232.261668" y="54.439609" style="stroke: #000000; stroke-width: 0.8"/>
      </g>
     </g>
     <g id="text_10">
      <!-- 2 -->
      <g transform="translate(218.899168 58.238828) scale(0.1 -0.1)">
       <use xlink:href="#DejaVuSans-32"/>
      </g>
     </g>
    </g>
    <g id="ytick_6">
     <g id="line2d_37">
      <defs>
       <path id="mc9d842517a" d="M 0 0 
L -2 0 
" style="stroke: #000000; stroke-width: 0.6"/>
      </defs>
      <g>
       <use xlink:href="#mc9d842517a" x="232.261668" y="338.470378" style="stroke: #000000; stroke-width: 0.6"/>
      </g>
     </g>
    </g>
    <g id="ytick_7">
     <g id="line2d_38">
      <g>
       <use xlink:href="#mc9d842517a" x="232.261668" y="326.635763" style="stroke: #000000; stroke-width: 0.6"/>
      </g>
     </g>
    </g>
    <g id="ytick_8">
     <g id="line2d_39">
      <g>
       <use xlink:href="#mc9d842517a" x="232.261668" y="314.801148" style="stroke: #000000; stroke-width: 0.6"/>
      </g>
     </g>
    </g>
    <g id="ytick_9">
     <g id="line2d_40">
      <g>
       <use xlink:href="#mc9d842517a" x="232.261668" y="302.966532" style="stroke: #000000; stroke-width: 0.6"/>
      </g>
     </g>
    </g>
    <g id="ytick_10">
     <g id="line2d_41">
      <g>
       <use xlink:href="#mc9d842517a" x="232.261668" y="279.297301" style="stroke: #000000; stroke-width: 0.6"/>
      </g>
     </g>
    </g>
    <g id="ytick_11">
     <g id="line2d_42">
      <g>
       <use xlink:href="#mc9d842517a" x="232.261668" y="267.462686" style="stroke: #000000; stroke-width: 0.6"/>
      </g>
     </g>
    </g>
    <g id="ytick_12">
     <g id="line2d_43">
      <g>
       <use xlink:href="#mc9d842517a" x="232.261668" y="255.628071" style="stroke: #000000; stroke-width: 0.6"/>
      </g>
     </g>
    </g>
    <g id="ytick_13">
     <g id="line2d_44">
      <g>
       <use xlink:href="#mc9d842517a" x="232.261668" y="243.793455" style="stroke: #000000; stroke-width: 0.6"/>
      </g>
     </g>
    </g>
    <g id="ytick_14">
     <g id="line2d_45">
      <g>
       <use xlink:href="#mc9d842517a" x="232.261668" y="220.124224" style="stroke: #000000; stroke-width: 0.6"/>
      </g>
     </g>
    </g>
    <g id="ytick_15">
     <g id="line2d_46">
      <g>
       <use xlink:href="#mc9d842517a" x="232.261668" y="208.289609" style="stroke: #000000; stroke-width: 0.6"/>
      </g>
     </g>
    </g>
    <g id="ytick_16">
     <g id="line2d_47">
      <g>
       <use xlink:href="#mc9d842517a" x="232.261668" y="196.454994" style="stroke: #000000; stroke-width: 0.6"/>
      </g>
     </g>
    </g>
    <g id="ytick_17">
     <g id="line2d_48">
      <g>
       <use xlink:href="#mc9d842517a" x="232.261668" y="184.620378" style="stroke: #000000; stroke-width: 0.6"/>
      </g>
     </g>
    </g>
    <g id="ytick_18">
     <g id="line2d_49">
      <g>
       <use xlink:href="#mc9d842517a" x="232.261668" y="160.951147" style="stroke: #000000; stroke-width: 0.6"/>
      </g>
     </g>
    </g>
    <g id="ytick_19">
     <g id="line2d_50">
      <g>
       <use xlink:href="#mc9d842517a" x="232.261668" y="149.116532" style="stroke: #000000; stroke-width: 0.6"/>
      </g>
     </g>
    </g>
    <g id="ytick_20">
     <g id="line2d_51">
      <g>
       <use xlink:href="#mc9d842517a" x="232.261668" y="137.281917" style="stroke: #000000; stroke-width: 0.6"/>
      </g>
     </g>
    </g>
    <g id="ytick_21">
     <g id="line2d_52">
      <g>
       <use xlink:href="#mc9d842517a" x="232.261668" y="125.447301" style="stroke: #000000; stroke-width: 0.6"/>
      </g>
     </g>
    </g>
    <g id="ytick_22">
     <g id="line2d_53">
      <g>
       <use xlink:href="#mc9d842517a" x="232.261668" y="101.77807" style="stroke: #000000; stroke-width: 0.6"/>
      </g>
     </g>
    </g>
    <g id="ytick_23">
     <g id="line2d_54">
      <g>
       <use xlink:href="#mc9d842517a" x="232.261668" y="89.943455" style="stroke: #000000; stroke-width: 0.6"/>
      </g>
     </g>
    </g>
    <g id="ytick_24">
     <g id="line2d_55">
      <g>
       <use xlink:href="#mc9d842517a" x="232.261668" y="78.10884" style="stroke: #000000; stroke-width: 0.6"/>
      </g>
     </g>
    </g>
    <g id="ytick_25">
     <g id="line2d_56">
      <g>
       <use xlink:href="#mc9d842517a" x="232.261668" y="66.274224" style="stroke: #000000; stroke-width: 0.6"/>
      </g>
     </g>
    </g>
    <g id="ytick_26">
     <g id="line2d_57">
      <g>
       <use xlink:href="#mc9d842517a" x="232.261668" y="42.604993" style="stroke: #000000; stroke-width: 0.6"/>
      </g>
     </g>
    </g>
    <g id="ytick_27">
     <g id="line2d_58">
      <g>
       <use xlink:href="#mc9d842517a" x="232.261668" y="30.770378" style="stroke: #000000; stroke-width: 0.6"/>
      </g>
     </g>
    </g>
    <g id="ytick_28">
     <g id="line2d_59">
      <g>
       <use xlink:href="#mc9d842517a" x="232.261668" y="18.935763" style="stroke: #000000; stroke-width: 0.6"/>
      </g>
     </g>
    </g>
    <g id="ytick_29">
     <g id="line2d_60">
      <g>
       <use xlink:href="#mc9d842517a" x="232.261668" y="7.101147" style="stroke: #000000; stroke-width: 0.6"/>
      </g>
     </g>
    </g>
   </g>
   <g id="line2d_61">
    <path d="M 11.492286 276.650359 
L 13.28609 294.971261 
L 14.701351 307.130813 
L 16.050431 316.875266 
L 17.377451 324.761939 
L 18.562188 330.367813 
L 19.415169 333.545331 
L 20.250831 335.947238 
L 21.051851 337.585059 
L 21.784742 338.522402 
L 22.273336 338.853931 
L 22.761931 338.953846 
L 23.250525 338.824785 
L 23.739119 338.469387 
L 24.227713 337.890518 
L 24.960605 336.611748 
L 25.759823 334.670451 
L 26.544387 332.226905 
L 27.721234 327.600207 
L 28.898081 321.877952 
L 30.370683 313.295393 
L 31.949873 302.504037 
L 33.79226 288.11023 
L 35.910676 269.593429 
L 38.524449 244.62046 
L 41.541523 214.126687 
L 47.420448 154.930813 
L 50.216241 129.091559 
L 52.370646 110.937166 
L 54.241551 96.662886 
L 56.144293 83.734236 
L 57.761662 74.092601 
L 59.250258 66.365459 
L 60.610083 60.288157 
L 62.049264 54.893758 
L 63.169056 51.435455 
L 64.250629 48.705394 
L 65.193798 46.811317 
L 66.136968 45.365045 
L 67.080137 44.358148 
L 68.023307 43.782072 
L 68.747713 43.626747 
L 69.47212 43.715644 
L 70.196526 44.042789 
L 70.920932 44.60214 
L 71.758724 45.530681 
L 72.596516 46.752327 
L 73.515084 48.416117 
L 74.822249 51.339497 
L 75.988036 54.465263 
L 77.54242 59.336016 
L 79.489715 66.457391 
L 81.61634 75.352585 
L 83.597851 84.509733 
L 86.794762 100.609798 
L 91.255008 124.660201 
L 98.195779 162.186846 
L 101.989189 181.17935 
L 105.036485 195.111661 
L 107.407962 204.979157 
L 109.443548 212.705077 
L 111.816326 220.796118 
L 113.748526 226.637846 
L 115.582982 231.555637 
L 117.413027 235.853277 
L 118.878326 238.860277 
L 120.311784 241.43514 
L 122.07815 244.11947 
L 123.972421 246.418231 
L 125.795514 248.086517 
L 127.618608 249.24745 
L 129.255229 249.880388 
L 130.551521 250.121839 
L 131.847812 250.145812 
L 133.377912 249.909826 
L 134.908012 249.40614 
L 136.23721 248.766471 
L 138.15829 247.537088 
L 140.23609 245.84206 
L 141.954995 244.18628 
L 143.673899 242.32959 
L 145.797235 239.797215 
L 149.087176 235.455212 
L 151.400283 232.174297 
L 158.428377 221.610637 
L 165.383593 211.150697 
L 170.711571 203.660259 
L 174.983237 198.170508 
L 178.223487 194.367183 
L 182.162409 190.19585 
L 185.685021 186.898404 
L 188.359163 184.668754 
L 191.672105 182.227955 
L 195.404379 179.888983 
L 197.688853 178.661663 
L 200.527964 177.339953 
L 203.561664 176.160857 
L 206.717608 175.168658 
L 209.855462 174.395479 
L 213.805196 173.686111 
L 218.452347 173.163048 
L 221.967358 172.942079 
L 226.919905 172.807605 
L 242.730283 172.621372 
L 247.076186 172.319976 
L 251.610351 171.748563 
L 254.817036 171.143744 
L 258.687277 170.148433 
L 261.544046 169.20212 
L 264.840838 167.860799 
L 268.383781 166.093966 
L 271.330638 164.347823 
L 274.585728 162.109462 
L 278.090495 159.320305 
L 281.143125 156.562159 
L 283.376982 154.348278 
L 286.73344 150.714478 
L 289.926914 146.925456 
L 292.202956 144.038797 
L 296.452465 138.276999 
L 301.328236 131.185772 
L 315.111034 110.56782 
L 318.516762 106.036646 
L 321.326829 102.707652 
L 323.566075 100.397972 
L 325.651715 98.57589 
L 327.24611 97.427846 
L 329.164806 96.361856 
L 330.556383 95.824979 
L 332.060405 95.487154 
L 333.62323 95.422331 
L 335.325128 95.706928 
L 337.1073 96.428875 
L 338.518385 97.326368 
L 339.689186 98.29976 
L 341.376842 100.083277 
L 342.927407 102.132216 
L 344.227541 104.163131 
L 345.527675 106.486942 
L 347.30161 110.139158 
L 349.306753 114.949258 
L 351.311896 120.489371 
L 353.333511 126.814362 
L 355.368744 133.919737 
L 357.669438 142.816252 
L 360.40731 154.527321 
L 363.089155 167.06685 
L 365.755569 180.422879 
L 369.699903 201.365088 
L 378.048852 246.632537 
L 381.079394 261.798973 
L 383.67546 273.555271 
L 385.620241 281.370345 
L 387.464215 287.831905 
L 389.090948 292.654941 
L 390.684484 296.490843 
L 391.746841 298.51949 
L 392.809198 300.097729 
L 393.552967 300.922902 
L 394.296736 301.510093 
L 395.005939 301.842351 
L 395.715142 301.94662 
L 396.424345 301.817264 
L 397.133548 301.449593 
L 398.111737 300.544629 
L 399.089927 299.169736 
L 400.072505 297.305978 
L 400.876396 295.416057 
L 401.829127 292.748277 
L 403.258224 287.871429 
L 404.60774 282.297732 
L 405.798095 276.607905 
L 407.254106 268.679128 
L 409.068361 257.346191 
L 410.867052 244.603883 
L 412.752572 229.753427 
L 415.242071 208.095681 
L 417.646767 185.373709 
L 421.419437 147.465837 
L 426.997462 91.191071 
L 429.636192 66.799784 
L 431.803492 48.863747 
L 433.372139 37.416279 
L 434.832413 28.129661 
L 436.264203 20.458519 
L 437.495718 15.104265 
L 438.604527 11.342441 
L 439.473224 9.135453 
L 440.323571 7.634167 
L 440.961331 6.951858 
L 441.599091 6.657854 
L 442.024264 6.677555 
L 442.449438 6.869543 
L 443.107574 7.505926 
L 443.765711 8.553682 
L 444.481595 10.159448 
L 445.19748 12.254356 
L 446.151993 15.848262 
L 447.106505 20.417034 
L 448.054975 25.986974 
L 449.136178 33.618067 
L 450.152826 41.783773 
L 450.152826 41.783773 
" clip-path="url(#pb09e4dd83e)" style="fill: none; stroke: #0000ff; stroke-linecap: square"/>
   </g>
   <g id="patch_3">
    <path d="M 232.261668 345.6 
L 232.261668 0 
" style="fill: none; stroke: #000000; stroke-width: 0.8; stroke-linejoin: miter; stroke-linecap: square"/>
   </g>
   <g id="patch_4">
    <path d="M 0 172.785763 
L 460.8 172.785763 
" style="fill: none; stroke: #000000; stroke-width: 0.8; stroke-linejoin: miter; stroke-linecap: square"/>
   </g>
  </g>
 </g>
 <defs>
  <clipPath id="pb09e4dd83e">
   <rect x="0" y="0" width="460.8" height="345.6"/>
  </clipPath>
 </defs>
</svg>
