<?xml version="1.0" encoding="utf-8" standalone="no"?>
<!DOCTYPE svg PUBLIC "-//W3C//DTD SVG 1.1//EN"
  "http://www.w3.org/Graphics/SVG/1.1/DTD/svg11.dtd">
<svg xmlns:xlink="http://www.w3.org/1999/xlink" width="460.8pt" height="345.6pt" viewBox="0 0 460.8 345.6" xmlns="http://www.w3.org/2000/svg" version="1.1">
 <metadata>
  <rdf:RDF xmlns:dc="http://purl.org/dc/elements/1.1/" xmlns:cc="http://creativecommons.org/ns#" xmlns:rdf="http://www.w3.org/1999/02/22-rdf-syntax-ns#">
   <cc:Work>
    <dc:type rdf:resource="http://purl.org/dc/dcmitype/StillImage"/>
    <dc:date>2025-08-04T20:47:25.250280</dc:date>
    <dc:format>image/svg+xml</dc:format>
    <dc:creator>
     <cc:Agent>
      <dc:title>Matplotlib v3.10.3, https://matplotlib.org/</dc:title>
     </cc:Agent>
    </dc:creator>
   </cc:Work>
  </rdf:RDF>
 </metadata>
 <defs>
  <style type="text/css">*{stroke-linejoin: round; stroke-linecap: butt}</style>
 </defs>
 <g id="figure_1">
  <g id="patch_1">
   <path d="M 0 345.6 
L 460.8 345.6 
L 460.8 0 
L 0 0 
z
" style="fill: #ffffff"/>
  </g>
  <g id="axes_1">
   <g id="patch_2">
    <path d="M 146.769809 334.520269 
L 314.030191 334.520269 
L 314.030191 0 
L 146.769809 0 
z
" style="fill: #ffffff"/>
   </g>
   <g id="patch_3">
    <path d="M 149.986354 6.433082 
L 151.071694 15.057204 
L 151.45149 18.047391 
L 152.727429 27.987939 
L 152.878525 29.154369 
L 154.185245 39.147209 
L 154.699912 43.036375 
L 155.806501 51.309265 
L 156.328312 55.168069 
L 157.159108 61.255925 
L 157.899139 66.620856 
L 159.117193 75.33262 
L 159.491833 77.982446 
L 160.799629 87.12301 
L 161.486916 91.858446 
L 162.410467 98.147755 
L 162.930407 101.651172 
L 163.817399 107.565751 
L 164.151554 109.773641 
L 164.94469 114.969728 
L 166.150282 122.748077 
L 166.669069 126.050734 
L 167.663291 132.305238 
L 168.957681 140.300702 
L 169.062773 140.942543 
L 170.334602 148.622995 
L 171.165188 153.551965 
L 172.156609 159.34553 
L 172.78885 162.989091 
L 173.060504 164.542398 
L 174.049474 170.13528 
L 175.348454 177.333515 
L 175.455015 177.916565 
L 176.972069 186.094661 
L 177.527025 189.029103 
L 178.668834 194.970283 
L 179.394243 198.677427 
L 180.228605 202.876631 
L 181.074764 207.06448 
L 181.420415 208.754696 
L 181.9939 211.532792 
L 183.085951 216.732471 
L 183.81026 220.115746 
L 184.914842 225.174803 
L 185.887316 229.52832 
L 186.038596 230.197105 
L 187.239114 235.423686 
L 187.882325 238.164984 
L 188.494049 240.733897 
L 189.980252 246.820061 
L 190.331103 248.224776 
L 191.53005 252.932609 
L 192.206485 255.525622 
L 193.051336 258.700303 
L 193.342371 259.777474 
L 194.826224 265.138472 
L 194.902992 265.409866 
L 195.781792 268.47488 
L 197.008547 272.624983 
L 197.436888 274.03879 
L 198.080268 276.128072 
L 199.457146 280.460911 
L 199.882409 281.761031 
L 200.878728 284.73654 
L 201.593781 286.811174 
L 202.773683 290.123292 
L 203.696794 292.618003 
L 204.1833 293.898673 
L 204.574859 294.912304 
L 205.891348 298.208457 
L 206.547022 299.785774 
L 207.259406 301.451036 
L 208.273386 303.734234 
L 208.872573 305.035353 
L 209.71117 306.796367 
L 210.314301 308.019663 
L 211.233908 309.815189 
L 212.197129 311.60566 
L 213.246774 313.451683 
L 213.574574 314.005728 
L 214.755101 315.912474 
L 215.400166 316.895782 
L 216.476398 318.444192 
L 216.721705 318.780998 
L 217.470417 319.771956 
L 218.703965 321.282987 
L 219.859927 322.561581 
L 220.041707 322.750549 
L 220.994349 323.687105 
L 221.67227 324.298593 
L 222.796914 325.212187 
L 223.537706 325.745223 
L 224.238143 326.199006 
L 224.975565 326.624008 
L 226.160922 327.193797 
L 226.548133 327.349637 
L 227.868167 327.768804 
L 228.150698 327.835998 
L 229.412307 328.039139 
L 230.225895 328.086157 
L 230.497959 328.087187 
L 231.976813 327.963987 
L 232.408839 327.886931 
L 233.440609 327.627777 
L 234.156351 327.385785 
L 235.043882 327.014929 
L 235.700182 326.690293 
L 236.629733 326.157167 
L 237.111344 325.847142 
L 238.367466 324.929966 
L 238.702366 324.658929 
L 240.016696 323.487408 
L 240.681383 322.829511 
L 240.934779 322.567131 
L 242.373953 320.955763 
L 242.871817 320.350359 
L 243.76479 319.202725 
L 244.436487 318.28719 
L 245.541582 316.683256 
L 246.167386 315.721083 
L 246.860763 314.609518 
L 248.124349 312.460836 
L 248.809307 311.2297 
L 249.385117 310.158635 
L 250.555648 307.879645 
L 250.84961 307.285894 
L 252.194937 304.458874 
L 252.837472 303.045142 
L 253.619677 301.268665 
L 254.452034 299.311437 
L 255.35232 297.116888 
L 255.942295 295.635021 
L 256.65853 293.789486 
L 257.399774 291.825768 
L 258.155955 289.766156 
L 259.401314 286.250178 
L 259.89124 284.824697 
L 260.956379 281.643195 
L 261.474966 280.053353 
L 262.307777 277.44421 
L 262.763846 275.986133 
L 263.557743 273.398643 
L 264.900552 268.8794 
L 265.48172 266.867852 
L 266.120815 264.617014 
L 267.539413 259.475628 
L 268.099954 257.388891 
L 268.978214 254.056517 
L 269.860779 250.630508 
L 270.672858 247.409661 
L 271.297001 244.889611 
L 272.015889 241.938991 
L 273.223569 236.866426 
L 273.290216 236.582266 
L 274.050511 233.309365 
L 274.882437 229.662222 
L 276.004747 224.632936 
L 277.192328 219.174708 
L 278.05259 215.133239 
L 278.829126 211.42188 
L 279.191109 209.671331 
L 279.909902 206.156599 
L 281.265689 199.387205 
L 281.593529 197.722856 
L 282.869568 191.142967 
L 283.683705 186.860228 
L 283.81314 186.173266 
L 285.313044 178.09111 
L 285.367582 177.793022 
L 286.756125 170.103892 
L 287.24371 167.358357 
L 287.873322 163.778103 
L 289.295716 155.544543 
L 290.065931 151.002129 
L 290.989904 145.475054 
L 291.233798 144.001941 
L 292.13142 138.529381 
L 293.27202 131.459801 
L 293.629092 129.220019 
L 294.937446 120.904819 
L 295.071695 120.04197 
L 296.110707 113.30337 
L 296.90593 108.073331 
L 298.038105 100.518666 
L 298.82404 95.199367 
L 299.402499 91.24503 
L 300.259398 85.326109 
L 301.285351 78.143369 
L 302.13467 72.118028 
L 302.733783 67.824563 
L 303.348227 63.384139 
L 304.168303 57.39915 
L 305.484152 47.656161 
L 305.980346 43.937445 
L 306.915372 36.863354 
L 307.640207 31.319645 
L 308.549446 24.29167 
L 309.59742 16.089308 
L 310.388933 9.821813 
L 310.813646 6.433082 
z
" clip-path="url(#pece0b163f2)" style="fill: #808080; opacity: 0.5"/>
   </g>
   <g id="matplotlib.axis_1">
    <g id="xtick_1">
     <g id="line2d_1">
      <defs>
       <path id="mc03c94ba57" d="M 0 0 
L 0 3.5 
" style="stroke: #000000; stroke-width: 0.8"/>
      </defs>
      <g>
       <use xlink:href="#mc03c94ba57" x="149.986354" y="328.087665" style="stroke: #000000; stroke-width: 0.8"/>
      </g>
     </g>
     <g id="text_1">
      <!-- −4 -->
      <g transform="translate(142.615261 342.686102) scale(0.1 -0.1)">
       <defs>
        <path id="DejaVuSans-2212" d="M 678 2272 
L 4684 2272 
L 4684 1741 
L 678 1741 
L 678 2272 
z
" transform="scale(0.015625)"/>
        <path id="DejaVuSans-34" d="M 2419 4116 
L 825 1625 
L 2419 1625 
L 2419 4116 
z
M 2253 4666 
L 3047 4666 
L 3047 1625 
L 3713 1625 
L 3713 1100 
L 3047 1100 
L 3047 0 
L 2419 0 
L 2419 1100 
L 313 1100 
L 313 1709 
L 2253 4666 
z
" transform="scale(0.015625)"/>
       </defs>
       <use xlink:href="#DejaVuSans-2212"/>
       <use xlink:href="#DejaVuSans-34" transform="translate(83.789062 0)"/>
      </g>
     </g>
    </g>
    <g id="xtick_2">
     <g id="line2d_2">
      <g>
       <use xlink:href="#mc03c94ba57" x="170.089766" y="328.087665" style="stroke: #000000; stroke-width: 0.8"/>
      </g>
     </g>
     <g id="text_2">
      <!-- −3 -->
      <g transform="translate(162.718672 342.686102) scale(0.1 -0.1)">
       <defs>
        <path id="DejaVuSans-33" d="M 2597 2516 
Q 3050 2419 3304 2112 
Q 3559 1806 3559 1356 
Q 3559 666 3084 287 
Q 2609 -91 1734 -91 
Q 1441 -91 1130 -33 
Q 819 25 488 141 
L 488 750 
Q 750 597 1062 519 
Q 1375 441 1716 441 
Q 2309 441 2620 675 
Q 2931 909 2931 1356 
Q 2931 1769 2642 2001 
Q 2353 2234 1838 2234 
L 1294 2234 
L 1294 2753 
L 1863 2753 
Q 2328 2753 2575 2939 
Q 2822 3125 2822 3475 
Q 2822 3834 2567 4026 
Q 2313 4219 1838 4219 
Q 1578 4219 1281 4162 
Q 984 4106 628 3988 
L 628 4550 
Q 988 4650 1302 4700 
Q 1616 4750 1894 4750 
Q 2613 4750 3031 4423 
Q 3450 4097 3450 3541 
Q 3450 3153 3228 2886 
Q 3006 2619 2597 2516 
z
" transform="scale(0.015625)"/>
       </defs>
       <use xlink:href="#DejaVuSans-2212"/>
       <use xlink:href="#DejaVuSans-33" transform="translate(83.789062 0)"/>
      </g>
     </g>
    </g>
    <g id="xtick_3">
     <g id="line2d_3">
      <g>
       <use xlink:href="#mc03c94ba57" x="190.193177" y="328.087665" style="stroke: #000000; stroke-width: 0.8"/>
      </g>
     </g>
     <g id="text_3">
      <!-- −2 -->
      <g transform="translate(182.822083 342.686102) scale(0.1 -0.1)">
       <defs>
        <path id="DejaVuSans-32" d="M 1228 531 
L 3431 531 
L 3431 0 
L 469 0 
L 469 531 
Q 828 903 1448 1529 
Q 2069 2156 2228 2338 
Q 2531 2678 2651 2914 
Q 2772 3150 2772 3378 
Q 2772 3750 2511 3984 
Q 2250 4219 1831 4219 
Q 1534 4219 1204 4116 
Q 875 4013 500 3803 
L 500 4441 
Q 881 4594 1212 4672 
Q 1544 4750 1819 4750 
Q 2544 4750 2975 4387 
Q 3406 4025 3406 3419 
Q 3406 3131 3298 2873 
Q 3191 2616 2906 2266 
Q 2828 2175 2409 1742 
Q 1991 1309 1228 531 
z
" transform="scale(0.015625)"/>
       </defs>
       <use xlink:href="#DejaVuSans-2212"/>
       <use xlink:href="#DejaVuSans-32" transform="translate(83.789062 0)"/>
      </g>
     </g>
    </g>
    <g id="xtick_4">
     <g id="line2d_4">
      <g>
       <use xlink:href="#mc03c94ba57" x="210.296589" y="328.087665" style="stroke: #000000; stroke-width: 0.8"/>
      </g>
     </g>
     <g id="text_4">
      <!-- −1 -->
      <g transform="translate(202.925495 342.686102) scale(0.1 -0.1)">
       <defs>
        <path id="DejaVuSans-31" d="M 794 531 
L 1825 531 
L 1825 4091 
L 703 3866 
L 703 4441 
L 1819 4666 
L 2450 4666 
L 2450 531 
L 3481 531 
L 3481 0 
L 794 0 
L 794 531 
z
" transform="scale(0.015625)"/>
       </defs>
       <use xlink:href="#DejaVuSans-2212"/>
       <use xlink:href="#DejaVuSans-31" transform="translate(83.789062 0)"/>
      </g>
     </g>
    </g>
    <g id="xtick_5">
     <g id="line2d_5">
      <g>
       <use xlink:href="#mc03c94ba57" x="230.4" y="328.087665" style="stroke: #000000; stroke-width: 0.8"/>
      </g>
     </g>
    </g>
    <g id="xtick_6">
     <g id="line2d_6">
      <g>
       <use xlink:href="#mc03c94ba57" x="250.503411" y="328.087665" style="stroke: #000000; stroke-width: 0.8"/>
      </g>
     </g>
     <g id="text_5">
      <!-- 1 -->
      <g transform="translate(247.322161 342.686102) scale(0.1 -0.1)">
       <use xlink:href="#DejaVuSans-31"/>
      </g>
     </g>
    </g>
    <g id="xtick_7">
     <g id="line2d_7">
      <g>
       <use xlink:href="#mc03c94ba57" x="270.606823" y="328.087665" style="stroke: #000000; stroke-width: 0.8"/>
      </g>
     </g>
     <g id="text_6">
      <!-- 2 -->
      <g transform="translate(267.425573 342.686102) scale(0.1 -0.1)">
       <use xlink:href="#DejaVuSans-32"/>
      </g>
     </g>
    </g>
    <g id="xtick_8">
     <g id="line2d_8">
      <g>
       <use xlink:href="#mc03c94ba57" x="290.710234" y="328.087665" style="stroke: #000000; stroke-width: 0.8"/>
      </g>
     </g>
     <g id="text_7">
      <!-- 3 -->
      <g transform="translate(287.528984 342.686102) scale(0.1 -0.1)">
       <use xlink:href="#DejaVuSans-33"/>
      </g>
     </g>
    </g>
    <g id="xtick_9">
     <g id="line2d_9">
      <g>
       <use xlink:href="#mc03c94ba57" x="310.813646" y="328.087665" style="stroke: #000000; stroke-width: 0.8"/>
      </g>
     </g>
     <g id="text_8">
      <!-- 4 -->
      <g transform="translate(307.632396 342.686102) scale(0.1 -0.1)">
       <use xlink:href="#DejaVuSans-34"/>
      </g>
     </g>
    </g>
    <g id="xtick_10">
     <g id="line2d_10">
      <defs>
       <path id="m6c84946b37" d="M 0 0 
L 0 2 
" style="stroke: #000000; stroke-width: 0.6"/>
      </defs>
      <g>
       <use xlink:href="#m6c84946b37" x="154.007037" y="328.087665" style="stroke: #000000; stroke-width: 0.6"/>
      </g>
     </g>
    </g>
    <g id="xtick_11">
     <g id="line2d_11">
      <g>
       <use xlink:href="#m6c84946b37" x="158.027719" y="328.087665" style="stroke: #000000; stroke-width: 0.6"/>
      </g>
     </g>
    </g>
    <g id="xtick_12">
     <g id="line2d_12">
      <g>
       <use xlink:href="#m6c84946b37" x="162.048401" y="328.087665" style="stroke: #000000; stroke-width: 0.6"/>
      </g>
     </g>
    </g>
    <g id="xtick_13">
     <g id="line2d_13">
      <g>
       <use xlink:href="#m6c84946b37" x="166.069084" y="328.087665" style="stroke: #000000; stroke-width: 0.6"/>
      </g>
     </g>
    </g>
    <g id="xtick_14">
     <g id="line2d_14">
      <g>
       <use xlink:href="#m6c84946b37" x="174.110448" y="328.087665" style="stroke: #000000; stroke-width: 0.6"/>
      </g>
     </g>
    </g>
    <g id="xtick_15">
     <g id="line2d_15">
      <g>
       <use xlink:href="#m6c84946b37" x="178.13113" y="328.087665" style="stroke: #000000; stroke-width: 0.6"/>
      </g>
     </g>
    </g>
    <g id="xtick_16">
     <g id="line2d_16">
      <g>
       <use xlink:href="#m6c84946b37" x="182.151813" y="328.087665" style="stroke: #000000; stroke-width: 0.6"/>
      </g>
     </g>
    </g>
    <g id="xtick_17">
     <g id="line2d_17">
      <g>
       <use xlink:href="#m6c84946b37" x="186.172495" y="328.087665" style="stroke: #000000; stroke-width: 0.6"/>
      </g>
     </g>
    </g>
    <g id="xtick_18">
     <g id="line2d_18">
      <g>
       <use xlink:href="#m6c84946b37" x="194.213859" y="328.087665" style="stroke: #000000; stroke-width: 0.6"/>
      </g>
     </g>
    </g>
    <g id="xtick_19">
     <g id="line2d_19">
      <g>
       <use xlink:href="#m6c84946b37" x="198.234542" y="328.087665" style="stroke: #000000; stroke-width: 0.6"/>
      </g>
     </g>
    </g>
    <g id="xtick_20">
     <g id="line2d_20">
      <g>
       <use xlink:href="#m6c84946b37" x="202.255224" y="328.087665" style="stroke: #000000; stroke-width: 0.6"/>
      </g>
     </g>
    </g>
    <g id="xtick_21">
     <g id="line2d_21">
      <g>
       <use xlink:href="#m6c84946b37" x="206.275906" y="328.087665" style="stroke: #000000; stroke-width: 0.6"/>
      </g>
     </g>
    </g>
    <g id="xtick_22">
     <g id="line2d_22">
      <g>
       <use xlink:href="#m6c84946b37" x="214.317271" y="328.087665" style="stroke: #000000; stroke-width: 0.6"/>
      </g>
     </g>
    </g>
    <g id="xtick_23">
     <g id="line2d_23">
      <g>
       <use xlink:href="#m6c84946b37" x="218.337953" y="328.087665" style="stroke: #000000; stroke-width: 0.6"/>
      </g>
     </g>
    </g>
    <g id="xtick_24">
     <g id="line2d_24">
      <g>
       <use xlink:href="#m6c84946b37" x="222.358635" y="328.087665" style="stroke: #000000; stroke-width: 0.6"/>
      </g>
     </g>
    </g>
    <g id="xtick_25">
     <g id="line2d_25">
      <g>
       <use xlink:href="#m6c84946b37" x="226.379318" y="328.087665" style="stroke: #000000; stroke-width: 0.6"/>
      </g>
     </g>
    </g>
    <g id="xtick_26">
     <g id="line2d_26">
      <g>
       <use xlink:href="#m6c84946b37" x="234.420682" y="328.087665" style="stroke: #000000; stroke-width: 0.6"/>
      </g>
     </g>
    </g>
    <g id="xtick_27">
     <g id="line2d_27">
      <g>
       <use xlink:href="#m6c84946b37" x="238.441365" y="328.087665" style="stroke: #000000; stroke-width: 0.6"/>
      </g>
     </g>
    </g>
    <g id="xtick_28">
     <g id="line2d_28">
      <g>
       <use xlink:href="#m6c84946b37" x="242.462047" y="328.087665" style="stroke: #000000; stroke-width: 0.6"/>
      </g>
     </g>
    </g>
    <g id="xtick_29">
     <g id="line2d_29">
      <g>
       <use xlink:href="#m6c84946b37" x="246.482729" y="328.087665" style="stroke: #000000; stroke-width: 0.6"/>
      </g>
     </g>
    </g>
    <g id="xtick_30">
     <g id="line2d_30">
      <g>
       <use xlink:href="#m6c84946b37" x="254.524094" y="328.087665" style="stroke: #000000; stroke-width: 0.6"/>
      </g>
     </g>
    </g>
    <g id="xtick_31">
     <g id="line2d_31">
      <g>
       <use xlink:href="#m6c84946b37" x="258.544776" y="328.087665" style="stroke: #000000; stroke-width: 0.6"/>
      </g>
     </g>
    </g>
    <g id="xtick_32">
     <g id="line2d_32">
      <g>
       <use xlink:href="#m6c84946b37" x="262.565458" y="328.087665" style="stroke: #000000; stroke-width: 0.6"/>
      </g>
     </g>
    </g>
    <g id="xtick_33">
     <g id="line2d_33">
      <g>
       <use xlink:href="#m6c84946b37" x="266.586141" y="328.087665" style="stroke: #000000; stroke-width: 0.6"/>
      </g>
     </g>
    </g>
    <g id="xtick_34">
     <g id="line2d_34">
      <g>
       <use xlink:href="#m6c84946b37" x="274.627505" y="328.087665" style="stroke: #000000; stroke-width: 0.6"/>
      </g>
     </g>
    </g>
    <g id="xtick_35">
     <g id="line2d_35">
      <g>
       <use xlink:href="#m6c84946b37" x="278.648187" y="328.087665" style="stroke: #000000; stroke-width: 0.6"/>
      </g>
     </g>
    </g>
    <g id="xtick_36">
     <g id="line2d_36">
      <g>
       <use xlink:href="#m6c84946b37" x="282.66887" y="328.087665" style="stroke: #000000; stroke-width: 0.6"/>
      </g>
     </g>
    </g>
    <g id="xtick_37">
     <g id="line2d_37">
      <g>
       <use xlink:href="#m6c84946b37" x="286.689552" y="328.087665" style="stroke: #000000; stroke-width: 0.6"/>
      </g>
     </g>
    </g>
    <g id="xtick_38">
     <g id="line2d_38">
      <g>
       <use xlink:href="#m6c84946b37" x="294.730916" y="328.087665" style="stroke: #000000; stroke-width: 0.6"/>
      </g>
     </g>
    </g>
    <g id="xtick_39">
     <g id="line2d_39">
      <g>
       <use xlink:href="#m6c84946b37" x="298.751599" y="328.087665" style="stroke: #000000; stroke-width: 0.6"/>
      </g>
     </g>
    </g>
    <g id="xtick_40">
     <g id="line2d_40">
      <g>
       <use xlink:href="#m6c84946b37" x="302.772281" y="328.087665" style="stroke: #000000; stroke-width: 0.6"/>
      </g>
     </g>
    </g>
    <g id="xtick_41">
     <g id="line2d_41">
      <g>
       <use xlink:href="#m6c84946b37" x="306.792963" y="328.087665" style="stroke: #000000; stroke-width: 0.6"/>
      </g>
     </g>
    </g>
   </g>
   <g id="matplotlib.axis_2">
    <g id="ytick_1">
     <g id="line2d_42">
      <defs>
       <path id="m9b3eae5a02" d="M 0 0 
L -3.5 0 
" style="stroke: #000000; stroke-width: 0.8"/>
      </defs>
      <g>
       <use xlink:href="#m9b3eae5a02" x="230.4" y="328.087665" style="stroke: #000000; stroke-width: 0.8"/>
      </g>
     </g>
    </g>
    <g id="ytick_2">
     <g id="line2d_43">
      <g>
       <use xlink:href="#m9b3eae5a02" x="230.4" y="287.880842" style="stroke: #000000; stroke-width: 0.8"/>
      </g>
     </g>
     <g id="text_9">
      <!-- 2 -->
      <g transform="translate(217.0375 291.680061) scale(0.1 -0.1)">
       <use xlink:href="#DejaVuSans-32"/>
      </g>
     </g>
    </g>
    <g id="ytick_3">
     <g id="line2d_44">
      <g>
       <use xlink:href="#m9b3eae5a02" x="230.4" y="247.674019" style="stroke: #000000; stroke-width: 0.8"/>
      </g>
     </g>
     <g id="text_10">
      <!-- 4 -->
      <g transform="translate(217.0375 251.473238) scale(0.1 -0.1)">
       <use xlink:href="#DejaVuSans-34"/>
      </g>
     </g>
    </g>
    <g id="ytick_4">
     <g id="line2d_45">
      <g>
       <use xlink:href="#m9b3eae5a02" x="230.4" y="207.467196" style="stroke: #000000; stroke-width: 0.8"/>
      </g>
     </g>
     <g id="text_11">
      <!-- 6 -->
      <g transform="translate(217.0375 211.266415) scale(0.1 -0.1)">
       <defs>
        <path id="DejaVuSans-36" d="M 2113 2584 
Q 1688 2584 1439 2293 
Q 1191 2003 1191 1497 
Q 1191 994 1439 701 
Q 1688 409 2113 409 
Q 2538 409 2786 701 
Q 3034 994 3034 1497 
Q 3034 2003 2786 2293 
Q 2538 2584 2113 2584 
z
M 3366 4563 
L 3366 3988 
Q 3128 4100 2886 4159 
Q 2644 4219 2406 4219 
Q 1781 4219 1451 3797 
Q 1122 3375 1075 2522 
Q 1259 2794 1537 2939 
Q 1816 3084 2150 3084 
Q 2853 3084 3261 2657 
Q 3669 2231 3669 1497 
Q 3669 778 3244 343 
Q 2819 -91 2113 -91 
Q 1303 -91 875 529 
Q 447 1150 447 2328 
Q 447 3434 972 4092 
Q 1497 4750 2381 4750 
Q 2619 4750 2861 4703 
Q 3103 4656 3366 4563 
z
" transform="scale(0.015625)"/>
       </defs>
       <use xlink:href="#DejaVuSans-36"/>
      </g>
     </g>
    </g>
    <g id="ytick_5">
     <g id="line2d_46">
      <g>
       <use xlink:href="#m9b3eae5a02" x="230.4" y="167.260373" style="stroke: #000000; stroke-width: 0.8"/>
      </g>
     </g>
     <g id="text_12">
      <!-- 8 -->
      <g transform="translate(217.0375 171.059592) scale(0.1 -0.1)">
       <defs>
        <path id="DejaVuSans-38" d="M 2034 2216 
Q 1584 2216 1326 1975 
Q 1069 1734 1069 1313 
Q 1069 891 1326 650 
Q 1584 409 2034 409 
Q 2484 409 2743 651 
Q 3003 894 3003 1313 
Q 3003 1734 2745 1975 
Q 2488 2216 2034 2216 
z
M 1403 2484 
Q 997 2584 770 2862 
Q 544 3141 544 3541 
Q 544 4100 942 4425 
Q 1341 4750 2034 4750 
Q 2731 4750 3128 4425 
Q 3525 4100 3525 3541 
Q 3525 3141 3298 2862 
Q 3072 2584 2669 2484 
Q 3125 2378 3379 2068 
Q 3634 1759 3634 1313 
Q 3634 634 3220 271 
Q 2806 -91 2034 -91 
Q 1263 -91 848 271 
Q 434 634 434 1313 
Q 434 1759 690 2068 
Q 947 2378 1403 2484 
z
M 1172 3481 
Q 1172 3119 1398 2916 
Q 1625 2713 2034 2713 
Q 2441 2713 2670 2916 
Q 2900 3119 2900 3481 
Q 2900 3844 2670 4047 
Q 2441 4250 2034 4250 
Q 1625 4250 1398 4047 
Q 1172 3844 1172 3481 
z
" transform="scale(0.015625)"/>
       </defs>
       <use xlink:href="#DejaVuSans-38"/>
      </g>
     </g>
    </g>
    <g id="ytick_6">
     <g id="line2d_47">
      <g>
       <use xlink:href="#m9b3eae5a02" x="230.4" y="127.053551" style="stroke: #000000; stroke-width: 0.8"/>
      </g>
     </g>
     <g id="text_13">
      <!-- 10 -->
      <g transform="translate(210.675 130.852769) scale(0.1 -0.1)">
       <defs>
        <path id="DejaVuSans-30" d="M 2034 4250 
Q 1547 4250 1301 3770 
Q 1056 3291 1056 2328 
Q 1056 1369 1301 889 
Q 1547 409 2034 409 
Q 2525 409 2770 889 
Q 3016 1369 3016 2328 
Q 3016 3291 2770 3770 
Q 2525 4250 2034 4250 
z
M 2034 4750 
Q 2819 4750 3233 4129 
Q 3647 3509 3647 2328 
Q 3647 1150 3233 529 
Q 2819 -91 2034 -91 
Q 1250 -91 836 529 
Q 422 1150 422 2328 
Q 422 3509 836 4129 
Q 1250 4750 2034 4750 
z
" transform="scale(0.015625)"/>
       </defs>
       <use xlink:href="#DejaVuSans-31"/>
       <use xlink:href="#DejaVuSans-30" transform="translate(63.623047 0)"/>
      </g>
     </g>
    </g>
    <g id="ytick_7">
     <g id="line2d_48">
      <g>
       <use xlink:href="#m9b3eae5a02" x="230.4" y="86.846728" style="stroke: #000000; stroke-width: 0.8"/>
      </g>
     </g>
     <g id="text_14">
      <!-- 12 -->
      <g transform="translate(210.675 90.645946) scale(0.1 -0.1)">
       <use xlink:href="#DejaVuSans-31"/>
       <use xlink:href="#DejaVuSans-32" transform="translate(63.623047 0)"/>
      </g>
     </g>
    </g>
    <g id="ytick_8">
     <g id="line2d_49">
      <g>
       <use xlink:href="#m9b3eae5a02" x="230.4" y="46.639905" style="stroke: #000000; stroke-width: 0.8"/>
      </g>
     </g>
     <g id="text_15">
      <!-- 14 -->
      <g transform="translate(210.675 50.439124) scale(0.1 -0.1)">
       <use xlink:href="#DejaVuSans-31"/>
       <use xlink:href="#DejaVuSans-34" transform="translate(63.623047 0)"/>
      </g>
     </g>
    </g>
    <g id="ytick_9">
     <g id="line2d_50">
      <g>
       <use xlink:href="#m9b3eae5a02" x="230.4" y="6.433082" style="stroke: #000000; stroke-width: 0.8"/>
      </g>
     </g>
     <g id="text_16">
      <!-- 16 -->
      <g transform="translate(210.675 10.232301) scale(0.1 -0.1)">
       <use xlink:href="#DejaVuSans-31"/>
       <use xlink:href="#DejaVuSans-36" transform="translate(63.623047 0)"/>
      </g>
     </g>
    </g>
    <g id="ytick_10">
     <g id="line2d_51">
      <defs>
       <path id="m98c5fa6cd5" d="M 0 0 
L -2 0 
" style="stroke: #000000; stroke-width: 0.6"/>
      </defs>
      <g>
       <use xlink:href="#m98c5fa6cd5" x="230.4" y="318.035959" style="stroke: #000000; stroke-width: 0.6"/>
      </g>
     </g>
    </g>
    <g id="ytick_11">
     <g id="line2d_52">
      <g>
       <use xlink:href="#m98c5fa6cd5" x="230.4" y="307.984253" style="stroke: #000000; stroke-width: 0.6"/>
      </g>
     </g>
    </g>
    <g id="ytick_12">
     <g id="line2d_53">
      <g>
       <use xlink:href="#m98c5fa6cd5" x="230.4" y="297.932547" style="stroke: #000000; stroke-width: 0.6"/>
      </g>
     </g>
    </g>
    <g id="ytick_13">
     <g id="line2d_54">
      <g>
       <use xlink:href="#m98c5fa6cd5" x="230.4" y="277.829136" style="stroke: #000000; stroke-width: 0.6"/>
      </g>
     </g>
    </g>
    <g id="ytick_14">
     <g id="line2d_55">
      <g>
       <use xlink:href="#m98c5fa6cd5" x="230.4" y="267.77743" style="stroke: #000000; stroke-width: 0.6"/>
      </g>
     </g>
    </g>
    <g id="ytick_15">
     <g id="line2d_56">
      <g>
       <use xlink:href="#m98c5fa6cd5" x="230.4" y="257.725725" style="stroke: #000000; stroke-width: 0.6"/>
      </g>
     </g>
    </g>
    <g id="ytick_16">
     <g id="line2d_57">
      <g>
       <use xlink:href="#m98c5fa6cd5" x="230.4" y="237.622313" style="stroke: #000000; stroke-width: 0.6"/>
      </g>
     </g>
    </g>
    <g id="ytick_17">
     <g id="line2d_58">
      <g>
       <use xlink:href="#m98c5fa6cd5" x="230.4" y="227.570608" style="stroke: #000000; stroke-width: 0.6"/>
      </g>
     </g>
    </g>
    <g id="ytick_18">
     <g id="line2d_59">
      <g>
       <use xlink:href="#m98c5fa6cd5" x="230.4" y="217.518902" style="stroke: #000000; stroke-width: 0.6"/>
      </g>
     </g>
    </g>
    <g id="ytick_19">
     <g id="line2d_60">
      <g>
       <use xlink:href="#m98c5fa6cd5" x="230.4" y="197.41549" style="stroke: #000000; stroke-width: 0.6"/>
      </g>
     </g>
    </g>
    <g id="ytick_20">
     <g id="line2d_61">
      <g>
       <use xlink:href="#m98c5fa6cd5" x="230.4" y="187.363785" style="stroke: #000000; stroke-width: 0.6"/>
      </g>
     </g>
    </g>
    <g id="ytick_21">
     <g id="line2d_62">
      <g>
       <use xlink:href="#m98c5fa6cd5" x="230.4" y="177.312079" style="stroke: #000000; stroke-width: 0.6"/>
      </g>
     </g>
    </g>
    <g id="ytick_22">
     <g id="line2d_63">
      <g>
       <use xlink:href="#m98c5fa6cd5" x="230.4" y="157.208668" style="stroke: #000000; stroke-width: 0.6"/>
      </g>
     </g>
    </g>
    <g id="ytick_23">
     <g id="line2d_64">
      <g>
       <use xlink:href="#m98c5fa6cd5" x="230.4" y="147.156962" style="stroke: #000000; stroke-width: 0.6"/>
      </g>
     </g>
    </g>
    <g id="ytick_24">
     <g id="line2d_65">
      <g>
       <use xlink:href="#m98c5fa6cd5" x="230.4" y="137.105256" style="stroke: #000000; stroke-width: 0.6"/>
      </g>
     </g>
    </g>
    <g id="ytick_25">
     <g id="line2d_66">
      <g>
       <use xlink:href="#m98c5fa6cd5" x="230.4" y="117.001845" style="stroke: #000000; stroke-width: 0.6"/>
      </g>
     </g>
    </g>
    <g id="ytick_26">
     <g id="line2d_67">
      <g>
       <use xlink:href="#m98c5fa6cd5" x="230.4" y="106.950139" style="stroke: #000000; stroke-width: 0.6"/>
      </g>
     </g>
    </g>
    <g id="ytick_27">
     <g id="line2d_68">
      <g>
       <use xlink:href="#m98c5fa6cd5" x="230.4" y="96.898433" style="stroke: #000000; stroke-width: 0.6"/>
      </g>
     </g>
    </g>
    <g id="ytick_28">
     <g id="line2d_69">
      <g>
       <use xlink:href="#m98c5fa6cd5" x="230.4" y="76.795022" style="stroke: #000000; stroke-width: 0.6"/>
      </g>
     </g>
    </g>
    <g id="ytick_29">
     <g id="line2d_70">
      <g>
       <use xlink:href="#m98c5fa6cd5" x="230.4" y="66.743316" style="stroke: #000000; stroke-width: 0.6"/>
      </g>
     </g>
    </g>
    <g id="ytick_30">
     <g id="line2d_71">
      <g>
       <use xlink:href="#m98c5fa6cd5" x="230.4" y="56.691611" style="stroke: #000000; stroke-width: 0.6"/>
      </g>
     </g>
    </g>
    <g id="ytick_31">
     <g id="line2d_72">
      <g>
       <use xlink:href="#m98c5fa6cd5" x="230.4" y="36.588199" style="stroke: #000000; stroke-width: 0.6"/>
      </g>
     </g>
    </g>
    <g id="ytick_32">
     <g id="line2d_73">
      <g>
       <use xlink:href="#m98c5fa6cd5" x="230.4" y="26.536494" style="stroke: #000000; stroke-width: 0.6"/>
      </g>
     </g>
    </g>
    <g id="ytick_33">
     <g id="line2d_74">
      <g>
       <use xlink:href="#m98c5fa6cd5" x="230.4" y="16.484788" style="stroke: #000000; stroke-width: 0.6"/>
      </g>
     </g>
    </g>
   </g>
   <g id="line2d_75">
    <path d="M 149.986354 6.433082 
L 154.699912 43.036375 
L 159.117193 75.33262 
L 162.930407 101.651172 
L 166.669069 126.050734 
L 170.334602 148.622995 
L 174.049474 170.13528 
L 177.527025 189.029103 
L 181.420415 208.754696 
L 184.914842 225.174803 
L 188.494049 240.733897 
L 192.206485 255.525622 
L 194.902992 265.409866 
L 198.080268 276.128072 
L 200.878728 284.73654 
L 203.696794 292.618003 
L 205.891348 298.208457 
L 208.273386 303.734234 
L 210.314301 308.019663 
L 212.197129 311.60566 
L 214.755101 315.912474 
L 216.721705 318.780998 
L 218.703965 321.282987 
L 220.994349 323.687105 
L 222.796914 325.212187 
L 224.238143 326.199006 
L 226.160922 327.193797 
L 227.868167 327.768804 
L 229.412307 328.039139 
L 230.497959 328.087187 
L 232.408839 327.886931 
L 234.156351 327.385785 
L 235.700182 326.690293 
L 237.111344 325.847142 
L 238.702366 324.658929 
L 240.934779 322.567131 
L 242.871817 320.350359 
L 244.436487 318.28719 
L 246.860763 314.609518 
L 249.385117 310.158635 
L 252.194937 304.458874 
L 254.452034 299.311437 
L 256.65853 293.789486 
L 259.401314 286.250178 
L 261.474966 280.053353 
L 263.557743 273.398643 
L 266.120815 264.617014 
L 268.978214 254.056517 
L 272.015889 241.938991 
L 274.882437 229.662222 
L 278.05259 215.133239 
L 281.593529 197.722856 
L 285.367582 177.793022 
L 289.295716 155.544543 
L 293.27202 131.459801 
L 296.90593 108.073331 
L 301.285351 78.143369 
L 305.484152 47.656161 
L 309.59742 16.089308 
L 310.813646 6.433082 
L 310.813646 6.433082 
" clip-path="url(#pece0b163f2)" style="fill: none; stroke: #0000ff; stroke-linecap: square"/>
   </g>
   <g id="patch_4">
    <path d="M 230.4 334.520269 
L 230.4 -0 
" style="fill: none; stroke: #000000; stroke-width: 0.8; stroke-linejoin: miter; stroke-linecap: square"/>
   </g>
   <g id="patch_5">
    <path d="M 146.769809 328.087665 
L 314.030191 328.087665 
" style="fill: none; stroke: #000000; stroke-width: 0.8; stroke-linejoin: miter; stroke-linecap: square"/>
   </g>
  </g>
 </g>
 <defs>
  <clipPath id="pece0b163f2">
   <rect x="146.769809" y="0" width="167.260383" height="334.520269"/>
  </clipPath>
 </defs>
</svg>
