<?xml version="1.0" encoding="utf-8" standalone="no"?>
<!DOCTYPE svg PUBLIC "-//W3C//DTD SVG 1.1//EN"
  "http://www.w3.org/Graphics/SVG/1.1/DTD/svg11.dtd">
<svg xmlns:xlink="http://www.w3.org/1999/xlink" width="460.8pt" height="345.6pt" viewBox="0 0 460.8 345.6" xmlns="http://www.w3.org/2000/svg" version="1.1">
 <metadata>
  <rdf:RDF xmlns:dc="http://purl.org/dc/elements/1.1/" xmlns:cc="http://creativecommons.org/ns#" xmlns:rdf="http://www.w3.org/1999/02/22-rdf-syntax-ns#">
   <cc:Work>
    <dc:type rdf:resource="http://purl.org/dc/dcmitype/StillImage"/>
    <dc:date>2025-08-03T19:01:09.583961</dc:date>
    <dc:format>image/svg+xml</dc:format>
    <dc:creator>
     <cc:Agent>
      <dc:title>Matplotlib v3.10.3, https://matplotlib.org/</dc:title>
     </cc:Agent>
    </dc:creator>
   </cc:Work>
  </rdf:RDF>
 </metadata>
 <defs>
  <style type="text/css">*{stroke-linejoin: round; stroke-linecap: butt}</style>
 </defs>
 <g id="figure_1">
  <g id="patch_1">
   <path d="M 0 345.6 
L 460.8 345.6 
L 460.8 0 
L 0 0 
z
" style="fill: #ffffff"/>
  </g>
  <g id="axes_1">
   <g id="patch_2">
    <path d="M 42.1 150.323688 
L 225 150.323688 
L 225 12.447491 
L 42.1 12.447491 
z
" style="fill: #ffffff"/>
   </g>
   <g id="patch_3">
    <path d="M 45.617308 81.378637 
L 45.617308 81.378637 
L 46.077924 82.46958 
L 47.676076 86.250528 
L 48.345853 87.831091 
L 48.853384 89.026369 
L 50.37046 92.582665 
L 51.030779 94.120903 
L 51.705749 95.685936 
L 52.694105 97.962344 
L 53.231259 99.191038 
L 54.253997 101.511957 
L 55.476773 104.251284 
L 55.942356 105.283117 
L 57.138932 107.903962 
L 57.559071 108.812933 
L 58.915125 111.703559 
L 60.072787 114.11523 
L 60.482336 114.955216 
L 61.945846 117.896887 
L 62.805587 119.578939 
L 63.548264 121.003003 
L 63.753136 121.390973 
L 64.813474 123.364241 
L 66.063282 125.612539 
L 66.583321 126.522318 
L 67.87715 128.717518 
L 68.194629 129.240899 
L 69.039161 130.602999 
L 69.883694 131.920288 
L 70.388632 132.685979 
L 71.640155 134.511301 
L 71.699612 134.595403 
L 73.212383 136.653422 
L 74.30682 138.042018 
L 75.076254 138.966521 
L 75.834879 139.835437 
L 76.569383 140.635817 
L 77.432953 141.524611 
L 78.534278 142.574936 
L 79.308239 143.256469 
L 80.121883 143.921926 
L 81.365718 144.836902 
L 82.040949 145.28124 
L 82.96324 145.828024 
L 83.356353 146.039846 
L 84.483882 146.576507 
L 85.121648 146.833267 
L 85.90479 147.102059 
L 86.687932 147.319403 
L 87.07938 147.408701 
L 87.842405 147.545629 
L 89.090946 147.6636 
L 89.781084 147.672222 
L 90.929235 147.597279 
L 91.569676 147.507056 
L 92.194814 147.385599 
L 92.953651 147.193933 
L 93.712488 146.953895 
L 93.914271 146.881946 
L 95.2496 146.320202 
L 95.841534 146.023826 
L 96.471459 145.676677 
L 97.24762 145.204176 
L 98.023781 144.682599 
L 98.618572 144.249937 
L 99.249111 143.760274 
L 100.338029 142.840254 
L 100.871691 142.355313 
L 101.985661 141.271833 
L 103.429017 139.727179 
L 104.206674 138.83036 
L 104.880717 138.01713 
L 105.569584 137.152084 
L 106.445335 136.003655 
L 107.591293 134.420306 
L 108.770601 132.698089 
L 109.203991 132.042127 
L 110.411265 130.151305 
L 111.375634 128.575564 
L 112.109317 127.339129 
L 112.786972 126.169043 
L 113.8149 124.344267 
L 114.835309 122.475523 
L 115.676299 120.894196 
L 116.119845 120.045731 
L 117.093136 118.150177 
L 118.037701 116.268038 
L 119.069601 114.166543 
L 119.824494 112.600795 
L 120.893752 110.344419 
L 121.824654 108.345474 
L 122.07317 107.806693 
L 123.758747 104.099574 
L 124.398556 102.670125 
L 124.8881 101.568842 
L 126.291645 98.378349 
L 126.780052 97.257682 
L 127.735797 95.051021 
L 128.249403 93.858437 
L 129.548351 90.824471 
L 130.414016 88.790829 
L 131.003322 87.402242 
L 132.248278 84.460715 
L 132.767801 83.231071 
L 133.713176 80.99215 
L 134.94403 78.078179 
L 136.061787 75.437337 
L 136.507946 74.385639 
L 137.181637 72.801053 
L 138.557865 69.580462 
L 139.636415 67.076024 
L 140.320333 65.498708 
L 140.978228 63.990342 
L 142.294303 61.002618 
L 143.170853 59.037277 
L 143.392067 58.544673 
L 144.811405 55.419306 
L 145.396358 54.150216 
L 146.006275 52.839634 
L 147.562874 49.557701 
L 147.777442 49.112798 
L 149.220958 46.170257 
L 150.262084 44.105643 
L 150.802148 43.054799 
L 151.814209 41.124275 
L 152.664112 39.543621 
L 153.474408 38.072522 
L 154.215237 36.759269 
L 155.457261 34.628139 
L 156.466177 32.96455 
L 157.294948 31.64496 
L 157.622945 31.134695 
L 158.305572 30.094931 
L 159.246417 28.711971 
L 160.070195 27.549895 
L 160.893974 26.434441 
L 161.514043 25.626165 
L 162.459067 24.447057 
L 163.404827 23.332001 
L 164.174639 22.473253 
L 165.302956 21.295267 
L 165.515664 21.084077 
L 166.973899 19.730628 
L 167.410323 19.357937 
L 168.0712 18.822301 
L 169.352051 17.883721 
L 170.114533 17.388001 
L 171.091986 16.822019 
L 172.113529 16.314644 
L 172.54018 16.128356 
L 173.606766 15.729066 
L 174.981257 15.355135 
L 175.596315 15.239322 
L 176.53289 15.124321 
L 176.91004 15.098956 
L 178.154889 15.100654 
L 179.242214 15.209391 
L 180.117224 15.369412 
L 180.737095 15.521819 
L 182.071345 15.959333 
L 182.549097 16.152192 
L 183.852983 16.775064 
L 183.934671 16.818768 
L 185.234755 17.588088 
L 186.540296 18.499102 
L 187.059974 18.899916 
L 187.858053 19.557336 
L 188.40134 20.033656 
L 189.212683 20.787962 
L 190.024026 21.593175 
L 190.726354 22.330784 
L 191.619232 23.322125 
L 192.578475 24.452944 
L 192.95247 24.912023 
L 194.16909 26.474727 
L 194.649582 27.120641 
L 195.559007 28.386771 
L 196.353608 29.538876 
L 197.874942 31.860429 
L 198.65109 33.101617 
L 199.775956 34.966087 
L 200.194495 35.679113 
L 200.82083 36.76518 
L 201.751113 38.419359 
L 203.055838 40.818869 
L 203.436737 41.536233 
L 204.993247 44.542911 
L 205.662805 45.871868 
L 206.565891 47.69638 
L 207.165486 48.927235 
L 208.123759 50.925064 
L 208.794886 52.345637 
L 209.866428 54.648029 
L 210.892382 56.889219 
L 211.602988 58.461003 
L 212.868241 61.295507 
L 213.139274 61.908229 
L 214.804631 65.710982 
L 215.366191 67.00645 
L 216.36452 69.323457 
L 216.653067 69.996127 
L 217.796701 72.673411 
L 218.43794 74.181217 
L 219.725375 77.219084 
L 220.203107 78.348937 
L 221.482692 81.378637 
L 221.482692 81.378637 
z
" clip-path="url(#p328a28aaff)" style="fill: #808080; opacity: 0.5"/>
   </g>
   <g id="matplotlib.axis_1">
    <g id="xtick_1">
     <g id="line2d_1">
      <defs>
       <path id="m0abeb96094" d="M 0 0 
L 0 3.5 
" style="stroke: #000000; stroke-width: 0.8"/>
      </defs>
      <g>
       <use xlink:href="#m0abeb96094" x="49.580464" y="150.323688" style="stroke: #000000; stroke-width: 0.8"/>
      </g>
     </g>
     <g id="text_1">
      <!-- −3 -->
      <g transform="translate(42.20937 164.922125) scale(0.1 -0.1)">
       <defs>
        <path id="DejaVuSans-2212" d="M 678 2272 
L 4684 2272 
L 4684 1741 
L 678 1741 
L 678 2272 
z
" transform="scale(0.015625)"/>
        <path id="DejaVuSans-33" d="M 2597 2516 
Q 3050 2419 3304 2112 
Q 3559 1806 3559 1356 
Q 3559 666 3084 287 
Q 2609 -91 1734 -91 
Q 1441 -91 1130 -33 
Q 819 25 488 141 
L 488 750 
Q 750 597 1062 519 
Q 1375 441 1716 441 
Q 2309 441 2620 675 
Q 2931 909 2931 1356 
Q 2931 1769 2642 2001 
Q 2353 2234 1838 2234 
L 1294 2234 
L 1294 2753 
L 1863 2753 
Q 2328 2753 2575 2939 
Q 2822 3125 2822 3475 
Q 2822 3834 2567 4026 
Q 2313 4219 1838 4219 
Q 1578 4219 1281 4162 
Q 984 4106 628 3988 
L 628 4550 
Q 988 4650 1302 4700 
Q 1616 4750 1894 4750 
Q 2613 4750 3031 4423 
Q 3450 4097 3450 3541 
Q 3450 3153 3228 2886 
Q 3006 2619 2597 2516 
z
" transform="scale(0.015625)"/>
       </defs>
       <use xlink:href="#DejaVuSans-2212"/>
       <use xlink:href="#DejaVuSans-33" transform="translate(83.789062 0)"/>
      </g>
     </g>
    </g>
    <g id="xtick_2">
     <g id="line2d_2">
      <g>
       <use xlink:href="#m0abeb96094" x="77.570309" y="150.323688" style="stroke: #000000; stroke-width: 0.8"/>
      </g>
     </g>
     <g id="text_2">
      <!-- −2 -->
      <g transform="translate(70.199216 164.922125) scale(0.1 -0.1)">
       <defs>
        <path id="DejaVuSans-32" d="M 1228 531 
L 3431 531 
L 3431 0 
L 469 0 
L 469 531 
Q 828 903 1448 1529 
Q 2069 2156 2228 2338 
Q 2531 2678 2651 2914 
Q 2772 3150 2772 3378 
Q 2772 3750 2511 3984 
Q 2250 4219 1831 4219 
Q 1534 4219 1204 4116 
Q 875 4013 500 3803 
L 500 4441 
Q 881 4594 1212 4672 
Q 1544 4750 1819 4750 
Q 2544 4750 2975 4387 
Q 3406 4025 3406 3419 
Q 3406 3131 3298 2873 
Q 3191 2616 2906 2266 
Q 2828 2175 2409 1742 
Q 1991 1309 1228 531 
z
" transform="scale(0.015625)"/>
       </defs>
       <use xlink:href="#DejaVuSans-2212"/>
       <use xlink:href="#DejaVuSans-32" transform="translate(83.789062 0)"/>
      </g>
     </g>
    </g>
    <g id="xtick_3">
     <g id="line2d_3">
      <g>
       <use xlink:href="#m0abeb96094" x="105.560155" y="150.323688" style="stroke: #000000; stroke-width: 0.8"/>
      </g>
     </g>
     <g id="text_3">
      <!-- −1 -->
      <g transform="translate(98.189061 164.922125) scale(0.1 -0.1)">
       <defs>
        <path id="DejaVuSans-31" d="M 794 531 
L 1825 531 
L 1825 4091 
L 703 3866 
L 703 4441 
L 1819 4666 
L 2450 4666 
L 2450 531 
L 3481 531 
L 3481 0 
L 794 0 
L 794 531 
z
" transform="scale(0.015625)"/>
       </defs>
       <use xlink:href="#DejaVuSans-2212"/>
       <use xlink:href="#DejaVuSans-31" transform="translate(83.789062 0)"/>
      </g>
     </g>
    </g>
    <g id="xtick_4">
     <g id="line2d_4">
      <g>
       <use xlink:href="#m0abeb96094" x="133.55" y="150.323688" style="stroke: #000000; stroke-width: 0.8"/>
      </g>
     </g>
     <g id="text_4">
      <!-- 0 -->
      <g transform="translate(130.36875 164.922125) scale(0.1 -0.1)">
       <defs>
        <path id="DejaVuSans-30" d="M 2034 4250 
Q 1547 4250 1301 3770 
Q 1056 3291 1056 2328 
Q 1056 1369 1301 889 
Q 1547 409 2034 409 
Q 2525 409 2770 889 
Q 3016 1369 3016 2328 
Q 3016 3291 2770 3770 
Q 2525 4250 2034 4250 
z
M 2034 4750 
Q 2819 4750 3233 4129 
Q 3647 3509 3647 2328 
Q 3647 1150 3233 529 
Q 2819 -91 2034 -91 
Q 1250 -91 836 529 
Q 422 1150 422 2328 
Q 422 3509 836 4129 
Q 1250 4750 2034 4750 
z
" transform="scale(0.015625)"/>
       </defs>
       <use xlink:href="#DejaVuSans-30"/>
      </g>
     </g>
    </g>
    <g id="xtick_5">
     <g id="line2d_5">
      <g>
       <use xlink:href="#m0abeb96094" x="161.539845" y="150.323688" style="stroke: #000000; stroke-width: 0.8"/>
      </g>
     </g>
     <g id="text_5">
      <!-- 1 -->
      <g transform="translate(158.358595 164.922125) scale(0.1 -0.1)">
       <use xlink:href="#DejaVuSans-31"/>
      </g>
     </g>
    </g>
    <g id="xtick_6">
     <g id="line2d_6">
      <g>
       <use xlink:href="#m0abeb96094" x="189.529691" y="150.323688" style="stroke: #000000; stroke-width: 0.8"/>
      </g>
     </g>
     <g id="text_6">
      <!-- 2 -->
      <g transform="translate(186.348441 164.922125) scale(0.1 -0.1)">
       <use xlink:href="#DejaVuSans-32"/>
      </g>
     </g>
    </g>
    <g id="xtick_7">
     <g id="line2d_7">
      <g>
       <use xlink:href="#m0abeb96094" x="217.519536" y="150.323688" style="stroke: #000000; stroke-width: 0.8"/>
      </g>
     </g>
     <g id="text_7">
      <!-- 3 -->
      <g transform="translate(214.338286 164.922125) scale(0.1 -0.1)">
       <use xlink:href="#DejaVuSans-33"/>
      </g>
     </g>
    </g>
    <g id="xtick_8">
     <g id="line2d_8">
      <defs>
       <path id="m58d6546157" d="M 0 0 
L 0 2 
" style="stroke: #000000; stroke-width: 0.6"/>
      </defs>
      <g>
       <use xlink:href="#m58d6546157" x="43.982495" y="150.323688" style="stroke: #000000; stroke-width: 0.6"/>
      </g>
     </g>
    </g>
    <g id="xtick_9">
     <g id="line2d_9">
      <g>
       <use xlink:href="#m58d6546157" x="55.178433" y="150.323688" style="stroke: #000000; stroke-width: 0.6"/>
      </g>
     </g>
    </g>
    <g id="xtick_10">
     <g id="line2d_10">
      <g>
       <use xlink:href="#m58d6546157" x="60.776402" y="150.323688" style="stroke: #000000; stroke-width: 0.6"/>
      </g>
     </g>
    </g>
    <g id="xtick_11">
     <g id="line2d_11">
      <g>
       <use xlink:href="#m58d6546157" x="66.374371" y="150.323688" style="stroke: #000000; stroke-width: 0.6"/>
      </g>
     </g>
    </g>
    <g id="xtick_12">
     <g id="line2d_12">
      <g>
       <use xlink:href="#m58d6546157" x="71.97234" y="150.323688" style="stroke: #000000; stroke-width: 0.6"/>
      </g>
     </g>
    </g>
    <g id="xtick_13">
     <g id="line2d_13">
      <g>
       <use xlink:href="#m58d6546157" x="83.168278" y="150.323688" style="stroke: #000000; stroke-width: 0.6"/>
      </g>
     </g>
    </g>
    <g id="xtick_14">
     <g id="line2d_14">
      <g>
       <use xlink:href="#m58d6546157" x="88.766248" y="150.323688" style="stroke: #000000; stroke-width: 0.6"/>
      </g>
     </g>
    </g>
    <g id="xtick_15">
     <g id="line2d_15">
      <g>
       <use xlink:href="#m58d6546157" x="94.364217" y="150.323688" style="stroke: #000000; stroke-width: 0.6"/>
      </g>
     </g>
    </g>
    <g id="xtick_16">
     <g id="line2d_16">
      <g>
       <use xlink:href="#m58d6546157" x="99.962186" y="150.323688" style="stroke: #000000; stroke-width: 0.6"/>
      </g>
     </g>
    </g>
    <g id="xtick_17">
     <g id="line2d_17">
      <g>
       <use xlink:href="#m58d6546157" x="111.158124" y="150.323688" style="stroke: #000000; stroke-width: 0.6"/>
      </g>
     </g>
    </g>
    <g id="xtick_18">
     <g id="line2d_18">
      <g>
       <use xlink:href="#m58d6546157" x="116.756093" y="150.323688" style="stroke: #000000; stroke-width: 0.6"/>
      </g>
     </g>
    </g>
    <g id="xtick_19">
     <g id="line2d_19">
      <g>
       <use xlink:href="#m58d6546157" x="122.354062" y="150.323688" style="stroke: #000000; stroke-width: 0.6"/>
      </g>
     </g>
    </g>
    <g id="xtick_20">
     <g id="line2d_20">
      <g>
       <use xlink:href="#m58d6546157" x="127.952031" y="150.323688" style="stroke: #000000; stroke-width: 0.6"/>
      </g>
     </g>
    </g>
    <g id="xtick_21">
     <g id="line2d_21">
      <g>
       <use xlink:href="#m58d6546157" x="139.147969" y="150.323688" style="stroke: #000000; stroke-width: 0.6"/>
      </g>
     </g>
    </g>
    <g id="xtick_22">
     <g id="line2d_22">
      <g>
       <use xlink:href="#m58d6546157" x="144.745938" y="150.323688" style="stroke: #000000; stroke-width: 0.6"/>
      </g>
     </g>
    </g>
    <g id="xtick_23">
     <g id="line2d_23">
      <g>
       <use xlink:href="#m58d6546157" x="150.343907" y="150.323688" style="stroke: #000000; stroke-width: 0.6"/>
      </g>
     </g>
    </g>
    <g id="xtick_24">
     <g id="line2d_24">
      <g>
       <use xlink:href="#m58d6546157" x="155.941876" y="150.323688" style="stroke: #000000; stroke-width: 0.6"/>
      </g>
     </g>
    </g>
    <g id="xtick_25">
     <g id="line2d_25">
      <g>
       <use xlink:href="#m58d6546157" x="167.137814" y="150.323688" style="stroke: #000000; stroke-width: 0.6"/>
      </g>
     </g>
    </g>
    <g id="xtick_26">
     <g id="line2d_26">
      <g>
       <use xlink:href="#m58d6546157" x="172.735783" y="150.323688" style="stroke: #000000; stroke-width: 0.6"/>
      </g>
     </g>
    </g>
    <g id="xtick_27">
     <g id="line2d_27">
      <g>
       <use xlink:href="#m58d6546157" x="178.333752" y="150.323688" style="stroke: #000000; stroke-width: 0.6"/>
      </g>
     </g>
    </g>
    <g id="xtick_28">
     <g id="line2d_28">
      <g>
       <use xlink:href="#m58d6546157" x="183.931722" y="150.323688" style="stroke: #000000; stroke-width: 0.6"/>
      </g>
     </g>
    </g>
    <g id="xtick_29">
     <g id="line2d_29">
      <g>
       <use xlink:href="#m58d6546157" x="195.12766" y="150.323688" style="stroke: #000000; stroke-width: 0.6"/>
      </g>
     </g>
    </g>
    <g id="xtick_30">
     <g id="line2d_30">
      <g>
       <use xlink:href="#m58d6546157" x="200.725629" y="150.323688" style="stroke: #000000; stroke-width: 0.6"/>
      </g>
     </g>
    </g>
    <g id="xtick_31">
     <g id="line2d_31">
      <g>
       <use xlink:href="#m58d6546157" x="206.323598" y="150.323688" style="stroke: #000000; stroke-width: 0.6"/>
      </g>
     </g>
    </g>
    <g id="xtick_32">
     <g id="line2d_32">
      <g>
       <use xlink:href="#m58d6546157" x="211.921567" y="150.323688" style="stroke: #000000; stroke-width: 0.6"/>
      </g>
     </g>
    </g>
    <g id="xtick_33">
     <g id="line2d_33">
      <g>
       <use xlink:href="#m58d6546157" x="223.117505" y="150.323688" style="stroke: #000000; stroke-width: 0.6"/>
      </g>
     </g>
    </g>
   </g>
   <g id="matplotlib.axis_2">
    <g id="ytick_1">
     <g id="line2d_34">
      <defs>
       <path id="m4e779182cf" d="M 0 0 
L -3.5 0 
" style="stroke: #000000; stroke-width: 0.8"/>
      </defs>
      <g>
       <use xlink:href="#m4e779182cf" x="42.1" y="147.673872" style="stroke: #000000; stroke-width: 0.8"/>
      </g>
     </g>
     <g id="text_8">
      <!-- −1.0 -->
      <g transform="translate(10.817188 151.47309) scale(0.1 -0.1)">
       <defs>
        <path id="DejaVuSans-2e" d="M 684 794 
L 1344 794 
L 1344 0 
L 684 0 
L 684 794 
z
" transform="scale(0.015625)"/>
       </defs>
       <use xlink:href="#DejaVuSans-2212"/>
       <use xlink:href="#DejaVuSans-31" transform="translate(83.789062 0)"/>
       <use xlink:href="#DejaVuSans-2e" transform="translate(147.412109 0)"/>
       <use xlink:href="#DejaVuSans-30" transform="translate(179.199219 0)"/>
      </g>
     </g>
    </g>
    <g id="ytick_2">
     <g id="line2d_35">
      <g>
       <use xlink:href="#m4e779182cf" x="42.1" y="114.526254" style="stroke: #000000; stroke-width: 0.8"/>
      </g>
     </g>
     <g id="text_9">
      <!-- −0.5 -->
      <g transform="translate(10.817188 118.325473) scale(0.1 -0.1)">
       <defs>
        <path id="DejaVuSans-35" d="M 691 4666 
L 3169 4666 
L 3169 4134 
L 1269 4134 
L 1269 2991 
Q 1406 3038 1543 3061 
Q 1681 3084 1819 3084 
Q 2600 3084 3056 2656 
Q 3513 2228 3513 1497 
Q 3513 744 3044 326 
Q 2575 -91 1722 -91 
Q 1428 -91 1123 -41 
Q 819 9 494 109 
L 494 744 
Q 775 591 1075 516 
Q 1375 441 1709 441 
Q 2250 441 2565 725 
Q 2881 1009 2881 1497 
Q 2881 1984 2565 2268 
Q 2250 2553 1709 2553 
Q 1456 2553 1204 2497 
Q 953 2441 691 2322 
L 691 4666 
z
" transform="scale(0.015625)"/>
       </defs>
       <use xlink:href="#DejaVuSans-2212"/>
       <use xlink:href="#DejaVuSans-30" transform="translate(83.789062 0)"/>
       <use xlink:href="#DejaVuSans-2e" transform="translate(147.412109 0)"/>
       <use xlink:href="#DejaVuSans-35" transform="translate(179.199219 0)"/>
      </g>
     </g>
    </g>
    <g id="ytick_3">
     <g id="line2d_36">
      <g>
       <use xlink:href="#m4e779182cf" x="42.1" y="81.378637" style="stroke: #000000; stroke-width: 0.8"/>
      </g>
     </g>
     <g id="text_10">
      <!-- 0.0 -->
      <g transform="translate(19.196875 85.177856) scale(0.1 -0.1)">
       <use xlink:href="#DejaVuSans-30"/>
       <use xlink:href="#DejaVuSans-2e" transform="translate(63.623047 0)"/>
       <use xlink:href="#DejaVuSans-30" transform="translate(95.410156 0)"/>
      </g>
     </g>
    </g>
    <g id="ytick_4">
     <g id="line2d_37">
      <g>
       <use xlink:href="#m4e779182cf" x="42.1" y="48.23102" style="stroke: #000000; stroke-width: 0.8"/>
      </g>
     </g>
     <g id="text_11">
      <!-- 0.5 -->
      <g transform="translate(19.196875 52.030239) scale(0.1 -0.1)">
       <use xlink:href="#DejaVuSans-30"/>
       <use xlink:href="#DejaVuSans-2e" transform="translate(63.623047 0)"/>
       <use xlink:href="#DejaVuSans-35" transform="translate(95.410156 0)"/>
      </g>
     </g>
    </g>
    <g id="ytick_5">
     <g id="line2d_38">
      <g>
       <use xlink:href="#m4e779182cf" x="42.1" y="15.083403" style="stroke: #000000; stroke-width: 0.8"/>
      </g>
     </g>
     <g id="text_12">
      <!-- 1.0 -->
      <g transform="translate(19.196875 18.882622) scale(0.1 -0.1)">
       <use xlink:href="#DejaVuSans-31"/>
       <use xlink:href="#DejaVuSans-2e" transform="translate(63.623047 0)"/>
       <use xlink:href="#DejaVuSans-30" transform="translate(95.410156 0)"/>
      </g>
     </g>
    </g>
    <g id="ytick_6">
     <g id="line2d_39">
      <defs>
       <path id="md038e202b8" d="M 0 0 
L -2 0 
" style="stroke: #000000; stroke-width: 0.6"/>
      </defs>
      <g>
       <use xlink:href="#md038e202b8" x="42.1" y="141.044348" style="stroke: #000000; stroke-width: 0.6"/>
      </g>
     </g>
    </g>
    <g id="ytick_7">
     <g id="line2d_40">
      <g>
       <use xlink:href="#md038e202b8" x="42.1" y="134.414825" style="stroke: #000000; stroke-width: 0.6"/>
      </g>
     </g>
    </g>
    <g id="ytick_8">
     <g id="line2d_41">
      <g>
       <use xlink:href="#md038e202b8" x="42.1" y="127.785301" style="stroke: #000000; stroke-width: 0.6"/>
      </g>
     </g>
    </g>
    <g id="ytick_9">
     <g id="line2d_42">
      <g>
       <use xlink:href="#md038e202b8" x="42.1" y="121.155778" style="stroke: #000000; stroke-width: 0.6"/>
      </g>
     </g>
    </g>
    <g id="ytick_10">
     <g id="line2d_43">
      <g>
       <use xlink:href="#md038e202b8" x="42.1" y="107.896731" style="stroke: #000000; stroke-width: 0.6"/>
      </g>
     </g>
    </g>
    <g id="ytick_11">
     <g id="line2d_44">
      <g>
       <use xlink:href="#md038e202b8" x="42.1" y="101.267208" style="stroke: #000000; stroke-width: 0.6"/>
      </g>
     </g>
    </g>
    <g id="ytick_12">
     <g id="line2d_45">
      <g>
       <use xlink:href="#md038e202b8" x="42.1" y="94.637684" style="stroke: #000000; stroke-width: 0.6"/>
      </g>
     </g>
    </g>
    <g id="ytick_13">
     <g id="line2d_46">
      <g>
       <use xlink:href="#md038e202b8" x="42.1" y="88.008161" style="stroke: #000000; stroke-width: 0.6"/>
      </g>
     </g>
    </g>
    <g id="ytick_14">
     <g id="line2d_47">
      <g>
       <use xlink:href="#md038e202b8" x="42.1" y="74.749114" style="stroke: #000000; stroke-width: 0.6"/>
      </g>
     </g>
    </g>
    <g id="ytick_15">
     <g id="line2d_48">
      <g>
       <use xlink:href="#md038e202b8" x="42.1" y="68.119591" style="stroke: #000000; stroke-width: 0.6"/>
      </g>
     </g>
    </g>
    <g id="ytick_16">
     <g id="line2d_49">
      <g>
       <use xlink:href="#md038e202b8" x="42.1" y="61.490067" style="stroke: #000000; stroke-width: 0.6"/>
      </g>
     </g>
    </g>
    <g id="ytick_17">
     <g id="line2d_50">
      <g>
       <use xlink:href="#md038e202b8" x="42.1" y="54.860544" style="stroke: #000000; stroke-width: 0.6"/>
      </g>
     </g>
    </g>
    <g id="ytick_18">
     <g id="line2d_51">
      <g>
       <use xlink:href="#md038e202b8" x="42.1" y="41.601497" style="stroke: #000000; stroke-width: 0.6"/>
      </g>
     </g>
    </g>
    <g id="ytick_19">
     <g id="line2d_52">
      <g>
       <use xlink:href="#md038e202b8" x="42.1" y="34.971973" style="stroke: #000000; stroke-width: 0.6"/>
      </g>
     </g>
    </g>
    <g id="ytick_20">
     <g id="line2d_53">
      <g>
       <use xlink:href="#md038e202b8" x="42.1" y="28.34245" style="stroke: #000000; stroke-width: 0.6"/>
      </g>
     </g>
    </g>
    <g id="ytick_21">
     <g id="line2d_54">
      <g>
       <use xlink:href="#md038e202b8" x="42.1" y="21.712927" style="stroke: #000000; stroke-width: 0.6"/>
      </g>
     </g>
    </g>
   </g>
   <g id="line2d_55">
    <path d="M 45.617308 81.378637 
L 53.231259 99.191038 
L 57.559071 108.812933 
L 60.482336 114.955216 
L 63.753136 121.390973 
L 66.583321 126.522318 
L 69.883694 131.920288 
L 71.699612 134.595403 
L 74.30682 138.042018 
L 76.569383 140.635817 
L 78.534278 142.574936 
L 80.121883 143.921926 
L 82.040949 145.28124 
L 83.356353 146.039846 
L 85.121648 146.833267 
L 87.07938 147.408701 
L 89.090946 147.6636 
L 90.929235 147.597279 
L 92.194814 147.385599 
L 93.914271 146.881946 
L 95.841534 146.023826 
L 97.24762 145.204176 
L 99.249111 143.760274 
L 100.871691 142.355313 
L 103.429017 139.727179 
L 105.569584 137.152084 
L 107.591293 134.420306 
L 110.411265 130.151305 
L 112.786972 126.169043 
L 116.119845 120.045731 
L 119.824494 112.600795 
L 123.758747 104.099574 
L 128.249403 93.858437 
L 144.811405 55.419306 
L 147.777442 49.112798 
L 151.814209 41.124275 
L 154.215237 36.759269 
L 157.294948 31.64496 
L 159.246417 28.711971 
L 161.514043 25.626165 
L 164.174639 22.473253 
L 165.515664 21.084077 
L 168.0712 18.822301 
L 170.114533 17.388001 
L 172.113529 16.314644 
L 173.606766 15.729066 
L 175.596315 15.239322 
L 176.91004 15.098956 
L 179.242214 15.209391 
L 180.737095 15.521819 
L 182.549097 16.152192 
L 183.934671 16.818768 
L 185.234755 17.588088 
L 187.059974 18.899916 
L 189.212683 20.787962 
L 191.619232 23.322125 
L 194.16909 26.474727 
L 196.353608 29.538876 
L 198.65109 33.101617 
L 201.751113 38.419359 
L 204.993247 44.542911 
L 208.123759 50.925064 
L 211.602988 58.461003 
L 216.653067 69.996127 
L 221.482692 81.378637 
L 221.482692 81.378637 
" clip-path="url(#p328a28aaff)" style="fill: none; stroke: #0000ff; stroke-linecap: square"/>
   </g>
   <g id="patch_4">
    <path d="M 42.1 150.323688 
L 42.1 12.447491 
" style="fill: none; stroke: #000000; stroke-width: 0.8; stroke-linejoin: miter; stroke-linecap: square"/>
   </g>
   <g id="patch_5">
    <path d="M 225 150.323688 
L 225 12.447491 
" style="fill: none; stroke: #000000; stroke-width: 0.8; stroke-linejoin: miter; stroke-linecap: square"/>
   </g>
   <g id="patch_6">
    <path d="M 42.1 150.323688 
L 225 150.323688 
" style="fill: none; stroke: #000000; stroke-width: 0.8; stroke-linejoin: miter; stroke-linecap: square"/>
   </g>
   <g id="patch_7">
    <path d="M 42.1 12.447491 
L 225 12.447491 
" style="fill: none; stroke: #000000; stroke-width: 0.8; stroke-linejoin: miter; stroke-linecap: square"/>
   </g>
  </g>
  <g id="axes_2">
   <g id="patch_8">
    <path d="M 267.1 150.323688 
L 450 150.323688 
L 450 12.447491 
L 267.1 12.447491 
z
" style="fill: #ffffff"/>
   </g>
   <g id="patch_9">
    <path d="M 270.617308 147.672222 
L 270.617308 81.380702 
L 271.453226 83.360226 
L 272.462581 85.747945 
L 273.441932 88.059291 
L 274.172131 89.777452 
L 274.597955 90.776855 
L 275.509512 92.90866 
L 276.870939 96.069096 
L 277.512116 97.545953 
L 278.279018 99.301194 
L 279.849259 102.851672 
L 280.034601 103.266507 
L 280.837961 105.053269 
L 282.241539 108.127317 
L 283.121919 110.021647 
L 283.531549 110.89351 
L 284.838591 113.632277 
L 285.422762 114.833959 
L 286.271072 116.552911 
L 287.836911 119.639811 
L 288.435572 120.788896 
L 289.296827 122.410254 
L 289.799945 123.339523 
L 290.997968 125.497174 
L 291.759679 126.827244 
L 292.453419 128.009365 
L 293.221644 129.284957 
L 294.055974 130.629405 
L 295.309945 132.5674 
L 296.540131 134.368842 
L 297.023597 135.048985 
L 298.424154 136.928218 
L 298.713745 137.299584 
L 299.653957 138.463831 
L 300.917137 139.926387 
L 301.595254 140.662536 
L 302.616361 141.705252 
L 303.68553 142.710993 
L 304.359133 143.298776 
L 305.444331 144.170158 
L 306.348637 144.824253 
L 306.495134 144.924 
L 307.391633 145.496393 
L 308.148741 145.928584 
L 308.905849 146.313551 
L 309.075058 146.393103 
L 309.83127 146.719551 
L 310.587481 146.99831 
L 311.315067 147.221309 
L 311.815084 147.348777 
L 312.770956 147.533836 
L 313.981357 147.657462 
L 314.70142 147.672222 
L 315.699206 147.620165 
L 316.232188 147.557861 
L 317.31532 147.357351 
L 317.903427 147.207075 
L 319.037767 146.835209 
L 320.08072 146.398437 
L 320.902233 145.990814 
L 322.137752 145.273101 
L 323.161551 144.584002 
L 323.595315 144.266487 
L 324.816369 143.291841 
L 325.346916 142.831527 
L 326.269468 141.978629 
L 327.440017 140.801839 
L 328.259113 139.916449 
L 328.732875 139.381412 
L 330.159007 137.671178 
L 330.354987 137.424633 
L 331.455957 135.988884 
L 332.200985 134.969243 
L 333.241665 133.481586 
L 333.810369 132.638055 
L 335.288888 130.346918 
L 336.358134 128.6045 
L 336.597192 128.20542 
L 337.474105 126.712491 
L 338.906832 124.178255 
L 339.19859 123.648226 
L 340.783694 120.689873 
L 341.758331 118.807665 
L 341.880988 118.56753 
L 342.878484 116.588542 
L 343.584604 115.16045 
L 345.209713 111.793606 
L 345.439777 111.308418 
L 346.873706 108.240094 
L 347.471334 106.940012 
L 348.081054 105.601624 
L 349.22247 103.065715 
L 350.35501 100.513881 
L 350.924092 99.219539 
L 351.929712 96.914631 
L 352.642653 95.268227 
L 353.999064 92.111867 
L 354.626991 90.6417 
L 355.617651 88.313081 
L 356.719971 85.711917 
L 357.041694 84.951298 
L 357.725703 83.332714 
L 358.898044 80.556406 
L 360.058107 77.810578 
L 360.873345 75.88433 
L 361.741323 73.83863 
L 362.399445 72.292259 
L 363.795134 69.030528 
L 364.349872 67.742178 
L 364.926241 66.409275 
L 365.870602 64.239337 
L 366.687948 62.376915 
L 367.599856 60.318219 
L 368.30481 58.741943 
L 369.665003 55.742006 
L 370.801683 53.281169 
L 371.628365 51.520334 
L 371.865172 51.020665 
L 373.509232 47.613516 
L 374.084027 46.449199 
L 374.918501 44.785219 
L 375.960629 42.753007 
L 376.442493 41.831278 
L 377.542472 39.771544 
L 378.714559 37.647572 
L 379.422365 36.401835 
L 380.496586 34.566417 
L 380.967293 33.783735 
L 382.316544 31.615566 
L 382.575499 31.212512 
L 383.492171 29.820488 
L 384.237212 28.729766 
L 385.073232 27.550301 
L 385.909253 26.418857 
L 385.991213 26.310558 
L 387.441864 24.472696 
L 387.848425 23.98483 
L 389.141115 22.514569 
L 389.792646 21.820936 
L 390.721546 20.887899 
L 391.705257 19.972461 
L 392.583889 19.2189 
L 393.690039 18.357386 
L 394.087895 18.07152 
L 395.476084 17.174611 
L 395.922543 16.919617 
L 397.041783 16.352589 
L 397.76835 16.040098 
L 398.932494 15.631268 
L 399.942761 15.368624 
L 400.689692 15.229716 
L 401.623419 15.122327 
L 402.021485 15.098956 
L 403.206949 15.108773 
L 403.651385 15.143095 
L 404.611756 15.274276 
L 405.493598 15.463269 
L 406.233094 15.672201 
L 406.97259 15.926996 
L 407.256733 16.037058 
L 407.986159 16.350403 
L 408.715584 16.707911 
L 409.292445 17.021758 
L 410.066205 17.485627 
L 410.787655 17.962131 
L 411.509104 18.480765 
L 411.584947 18.537721 
L 412.931099 19.625005 
L 413.791607 20.395034 
L 414.524944 21.096783 
L 415.90505 22.52925 
L 416.245601 22.904868 
L 416.951445 23.710894 
L 417.797907 24.725808 
L 418.644369 25.792533 
L 419.200343 26.520902 
L 420.231912 27.929454 
L 420.415833 28.18827 
L 421.865774 30.308152 
L 422.728136 31.634326 
L 423.580632 32.991745 
L 424.045515 33.750966 
L 425.121966 35.559042 
L 426.51349 37.996357 
L 426.633762 38.212139 
L 427.847678 40.433996 
L 428.448248 41.561972 
L 429.29074 43.175094 
L 430.428969 45.40916 
L 431.270006 47.098329 
L 432.731238 50.105817 
L 433.350345 51.40624 
L 433.920488 52.616801 
L 435.108312 55.176602 
L 436.065326 57.273541 
L 436.820737 58.948765 
L 437.289986 59.997694 
L 438.541881 62.824692 
L 439.633931 65.321241 
L 440.080145 66.348587 
L 441.46244 69.554214 
L 442.167211 71.200215 
L 443.199768 73.623128 
L 444.053196 75.633823 
L 444.773431 77.334946 
L 445.324347 78.63802 
L 446.482692 81.380702 
L 446.482692 147.672222 
z
" clip-path="url(#pa669fd0660)" style="fill: #808080"/>
   </g>
   <g id="matplotlib.axis_3">
    <g id="xtick_34">
     <g id="line2d_56">
      <g>
       <use xlink:href="#m0abeb96094" x="274.580464" y="150.323688" style="stroke: #000000; stroke-width: 0.8"/>
      </g>
     </g>
     <g id="text_13">
      <!-- −3 -->
      <g transform="translate(267.20937 164.922125) scale(0.1 -0.1)">
       <use xlink:href="#DejaVuSans-2212"/>
       <use xlink:href="#DejaVuSans-33" transform="translate(83.789062 0)"/>
      </g>
     </g>
    </g>
    <g id="xtick_35">
     <g id="line2d_57">
      <g>
       <use xlink:href="#m0abeb96094" x="302.570309" y="150.323688" style="stroke: #000000; stroke-width: 0.8"/>
      </g>
     </g>
     <g id="text_14">
      <!-- −2 -->
      <g transform="translate(295.199216 164.922125) scale(0.1 -0.1)">
       <use xlink:href="#DejaVuSans-2212"/>
       <use xlink:href="#DejaVuSans-32" transform="translate(83.789062 0)"/>
      </g>
     </g>
    </g>
    <g id="xtick_36">
     <g id="line2d_58">
      <g>
       <use xlink:href="#m0abeb96094" x="330.560155" y="150.323688" style="stroke: #000000; stroke-width: 0.8"/>
      </g>
     </g>
     <g id="text_15">
      <!-- −1 -->
      <g transform="translate(323.189061 164.922125) scale(0.1 -0.1)">
       <use xlink:href="#DejaVuSans-2212"/>
       <use xlink:href="#DejaVuSans-31" transform="translate(83.789062 0)"/>
      </g>
     </g>
    </g>
    <g id="xtick_37">
     <g id="line2d_59">
      <g>
       <use xlink:href="#m0abeb96094" x="358.55" y="150.323688" style="stroke: #000000; stroke-width: 0.8"/>
      </g>
     </g>
     <g id="text_16">
      <!-- 0 -->
      <g transform="translate(355.36875 164.922125) scale(0.1 -0.1)">
       <use xlink:href="#DejaVuSans-30"/>
      </g>
     </g>
    </g>
    <g id="xtick_38">
     <g id="line2d_60">
      <g>
       <use xlink:href="#m0abeb96094" x="386.539845" y="150.323688" style="stroke: #000000; stroke-width: 0.8"/>
      </g>
     </g>
     <g id="text_17">
      <!-- 1 -->
      <g transform="translate(383.358595 164.922125) scale(0.1 -0.1)">
       <use xlink:href="#DejaVuSans-31"/>
      </g>
     </g>
    </g>
    <g id="xtick_39">
     <g id="line2d_61">
      <g>
       <use xlink:href="#m0abeb96094" x="414.529691" y="150.323688" style="stroke: #000000; stroke-width: 0.8"/>
      </g>
     </g>
     <g id="text_18">
      <!-- 2 -->
      <g transform="translate(411.348441 164.922125) scale(0.1 -0.1)">
       <use xlink:href="#DejaVuSans-32"/>
      </g>
     </g>
    </g>
    <g id="xtick_40">
     <g id="line2d_62">
      <g>
       <use xlink:href="#m0abeb96094" x="442.519536" y="150.323688" style="stroke: #000000; stroke-width: 0.8"/>
      </g>
     </g>
     <g id="text_19">
      <!-- 3 -->
      <g transform="translate(439.338286 164.922125) scale(0.1 -0.1)">
       <use xlink:href="#DejaVuSans-33"/>
      </g>
     </g>
    </g>
    <g id="xtick_41">
     <g id="line2d_63">
      <g>
       <use xlink:href="#m58d6546157" x="268.982495" y="150.323688" style="stroke: #000000; stroke-width: 0.6"/>
      </g>
     </g>
    </g>
    <g id="xtick_42">
     <g id="line2d_64">
      <g>
       <use xlink:href="#m58d6546157" x="280.178433" y="150.323688" style="stroke: #000000; stroke-width: 0.6"/>
      </g>
     </g>
    </g>
    <g id="xtick_43">
     <g id="line2d_65">
      <g>
       <use xlink:href="#m58d6546157" x="285.776402" y="150.323688" style="stroke: #000000; stroke-width: 0.6"/>
      </g>
     </g>
    </g>
    <g id="xtick_44">
     <g id="line2d_66">
      <g>
       <use xlink:href="#m58d6546157" x="291.374371" y="150.323688" style="stroke: #000000; stroke-width: 0.6"/>
      </g>
     </g>
    </g>
    <g id="xtick_45">
     <g id="line2d_67">
      <g>
       <use xlink:href="#m58d6546157" x="296.97234" y="150.323688" style="stroke: #000000; stroke-width: 0.6"/>
      </g>
     </g>
    </g>
    <g id="xtick_46">
     <g id="line2d_68">
      <g>
       <use xlink:href="#m58d6546157" x="308.168278" y="150.323688" style="stroke: #000000; stroke-width: 0.6"/>
      </g>
     </g>
    </g>
    <g id="xtick_47">
     <g id="line2d_69">
      <g>
       <use xlink:href="#m58d6546157" x="313.766248" y="150.323688" style="stroke: #000000; stroke-width: 0.6"/>
      </g>
     </g>
    </g>
    <g id="xtick_48">
     <g id="line2d_70">
      <g>
       <use xlink:href="#m58d6546157" x="319.364217" y="150.323688" style="stroke: #000000; stroke-width: 0.6"/>
      </g>
     </g>
    </g>
    <g id="xtick_49">
     <g id="line2d_71">
      <g>
       <use xlink:href="#m58d6546157" x="324.962186" y="150.323688" style="stroke: #000000; stroke-width: 0.6"/>
      </g>
     </g>
    </g>
    <g id="xtick_50">
     <g id="line2d_72">
      <g>
       <use xlink:href="#m58d6546157" x="336.158124" y="150.323688" style="stroke: #000000; stroke-width: 0.6"/>
      </g>
     </g>
    </g>
    <g id="xtick_51">
     <g id="line2d_73">
      <g>
       <use xlink:href="#m58d6546157" x="341.756093" y="150.323688" style="stroke: #000000; stroke-width: 0.6"/>
      </g>
     </g>
    </g>
    <g id="xtick_52">
     <g id="line2d_74">
      <g>
       <use xlink:href="#m58d6546157" x="347.354062" y="150.323688" style="stroke: #000000; stroke-width: 0.6"/>
      </g>
     </g>
    </g>
    <g id="xtick_53">
     <g id="line2d_75">
      <g>
       <use xlink:href="#m58d6546157" x="352.952031" y="150.323688" style="stroke: #000000; stroke-width: 0.6"/>
      </g>
     </g>
    </g>
    <g id="xtick_54">
     <g id="line2d_76">
      <g>
       <use xlink:href="#m58d6546157" x="364.147969" y="150.323688" style="stroke: #000000; stroke-width: 0.6"/>
      </g>
     </g>
    </g>
    <g id="xtick_55">
     <g id="line2d_77">
      <g>
       <use xlink:href="#m58d6546157" x="369.745938" y="150.323688" style="stroke: #000000; stroke-width: 0.6"/>
      </g>
     </g>
    </g>
    <g id="xtick_56">
     <g id="line2d_78">
      <g>
       <use xlink:href="#m58d6546157" x="375.343907" y="150.323688" style="stroke: #000000; stroke-width: 0.6"/>
      </g>
     </g>
    </g>
    <g id="xtick_57">
     <g id="line2d_79">
      <g>
       <use xlink:href="#m58d6546157" x="380.941876" y="150.323688" style="stroke: #000000; stroke-width: 0.6"/>
      </g>
     </g>
    </g>
    <g id="xtick_58">
     <g id="line2d_80">
      <g>
       <use xlink:href="#m58d6546157" x="392.137814" y="150.323688" style="stroke: #000000; stroke-width: 0.6"/>
      </g>
     </g>
    </g>
    <g id="xtick_59">
     <g id="line2d_81">
      <g>
       <use xlink:href="#m58d6546157" x="397.735783" y="150.323688" style="stroke: #000000; stroke-width: 0.6"/>
      </g>
     </g>
    </g>
    <g id="xtick_60">
     <g id="line2d_82">
      <g>
       <use xlink:href="#m58d6546157" x="403.333752" y="150.323688" style="stroke: #000000; stroke-width: 0.6"/>
      </g>
     </g>
    </g>
    <g id="xtick_61">
     <g id="line2d_83">
      <g>
       <use xlink:href="#m58d6546157" x="408.931722" y="150.323688" style="stroke: #000000; stroke-width: 0.6"/>
      </g>
     </g>
    </g>
    <g id="xtick_62">
     <g id="line2d_84">
      <g>
       <use xlink:href="#m58d6546157" x="420.12766" y="150.323688" style="stroke: #000000; stroke-width: 0.6"/>
      </g>
     </g>
    </g>
    <g id="xtick_63">
     <g id="line2d_85">
      <g>
       <use xlink:href="#m58d6546157" x="425.725629" y="150.323688" style="stroke: #000000; stroke-width: 0.6"/>
      </g>
     </g>
    </g>
    <g id="xtick_64">
     <g id="line2d_86">
      <g>
       <use xlink:href="#m58d6546157" x="431.323598" y="150.323688" style="stroke: #000000; stroke-width: 0.6"/>
      </g>
     </g>
    </g>
    <g id="xtick_65">
     <g id="line2d_87">
      <g>
       <use xlink:href="#m58d6546157" x="436.921567" y="150.323688" style="stroke: #000000; stroke-width: 0.6"/>
      </g>
     </g>
    </g>
    <g id="xtick_66">
     <g id="line2d_88">
      <g>
       <use xlink:href="#m58d6546157" x="448.117505" y="150.323688" style="stroke: #000000; stroke-width: 0.6"/>
      </g>
     </g>
    </g>
   </g>
   <g id="matplotlib.axis_4">
    <g id="ytick_22">
     <g id="line2d_89">
      <g>
       <use xlink:href="#m4e779182cf" x="267.1" y="147.672809" style="stroke: #000000; stroke-width: 0.8"/>
      </g>
     </g>
     <g id="text_20">
      <!-- −1.0 -->
      <g transform="translate(235.817188 151.472028) scale(0.1 -0.1)">
       <use xlink:href="#DejaVuSans-2212"/>
       <use xlink:href="#DejaVuSans-31" transform="translate(83.789062 0)"/>
       <use xlink:href="#DejaVuSans-2e" transform="translate(147.412109 0)"/>
       <use xlink:href="#DejaVuSans-30" transform="translate(179.199219 0)"/>
      </g>
     </g>
    </g>
    <g id="ytick_23">
     <g id="line2d_90">
      <g>
       <use xlink:href="#m4e779182cf" x="267.1" y="114.526756" style="stroke: #000000; stroke-width: 0.8"/>
      </g>
     </g>
     <g id="text_21">
      <!-- −0.5 -->
      <g transform="translate(235.817188 118.325975) scale(0.1 -0.1)">
       <use xlink:href="#DejaVuSans-2212"/>
       <use xlink:href="#DejaVuSans-30" transform="translate(83.789062 0)"/>
       <use xlink:href="#DejaVuSans-2e" transform="translate(147.412109 0)"/>
       <use xlink:href="#DejaVuSans-35" transform="translate(179.199219 0)"/>
      </g>
     </g>
    </g>
    <g id="ytick_24">
     <g id="line2d_91">
      <g>
       <use xlink:href="#m4e779182cf" x="267.1" y="81.380702" style="stroke: #000000; stroke-width: 0.8"/>
      </g>
     </g>
     <g id="text_22">
      <!-- 0.0 -->
      <g transform="translate(244.196875 85.179921) scale(0.1 -0.1)">
       <use xlink:href="#DejaVuSans-30"/>
       <use xlink:href="#DejaVuSans-2e" transform="translate(63.623047 0)"/>
       <use xlink:href="#DejaVuSans-30" transform="translate(95.410156 0)"/>
      </g>
     </g>
    </g>
    <g id="ytick_25">
     <g id="line2d_92">
      <g>
       <use xlink:href="#m4e779182cf" x="267.1" y="48.234649" style="stroke: #000000; stroke-width: 0.8"/>
      </g>
     </g>
     <g id="text_23">
      <!-- 0.5 -->
      <g transform="translate(244.196875 52.033868) scale(0.1 -0.1)">
       <use xlink:href="#DejaVuSans-30"/>
       <use xlink:href="#DejaVuSans-2e" transform="translate(63.623047 0)"/>
       <use xlink:href="#DejaVuSans-35" transform="translate(95.410156 0)"/>
      </g>
     </g>
    </g>
    <g id="ytick_26">
     <g id="line2d_93">
      <g>
       <use xlink:href="#m4e779182cf" x="267.1" y="15.088596" style="stroke: #000000; stroke-width: 0.8"/>
      </g>
     </g>
     <g id="text_24">
      <!-- 1.0 -->
      <g transform="translate(244.196875 18.887815) scale(0.1 -0.1)">
       <use xlink:href="#DejaVuSans-31"/>
       <use xlink:href="#DejaVuSans-2e" transform="translate(63.623047 0)"/>
       <use xlink:href="#DejaVuSans-30" transform="translate(95.410156 0)"/>
      </g>
     </g>
    </g>
    <g id="ytick_27">
     <g id="line2d_94">
      <g>
       <use xlink:href="#md038e202b8" x="267.1" y="141.043598" style="stroke: #000000; stroke-width: 0.6"/>
      </g>
     </g>
    </g>
    <g id="ytick_28">
     <g id="line2d_95">
      <g>
       <use xlink:href="#md038e202b8" x="267.1" y="134.414388" style="stroke: #000000; stroke-width: 0.6"/>
      </g>
     </g>
    </g>
    <g id="ytick_29">
     <g id="line2d_96">
      <g>
       <use xlink:href="#md038e202b8" x="267.1" y="127.785177" style="stroke: #000000; stroke-width: 0.6"/>
      </g>
     </g>
    </g>
    <g id="ytick_30">
     <g id="line2d_97">
      <g>
       <use xlink:href="#md038e202b8" x="267.1" y="121.155966" style="stroke: #000000; stroke-width: 0.6"/>
      </g>
     </g>
    </g>
    <g id="ytick_31">
     <g id="line2d_98">
      <g>
       <use xlink:href="#md038e202b8" x="267.1" y="107.897545" style="stroke: #000000; stroke-width: 0.6"/>
      </g>
     </g>
    </g>
    <g id="ytick_32">
     <g id="line2d_99">
      <g>
       <use xlink:href="#md038e202b8" x="267.1" y="101.268334" style="stroke: #000000; stroke-width: 0.6"/>
      </g>
     </g>
    </g>
    <g id="ytick_33">
     <g id="line2d_100">
      <g>
       <use xlink:href="#md038e202b8" x="267.1" y="94.639124" style="stroke: #000000; stroke-width: 0.6"/>
      </g>
     </g>
    </g>
    <g id="ytick_34">
     <g id="line2d_101">
      <g>
       <use xlink:href="#md038e202b8" x="267.1" y="88.009913" style="stroke: #000000; stroke-width: 0.6"/>
      </g>
     </g>
    </g>
    <g id="ytick_35">
     <g id="line2d_102">
      <g>
       <use xlink:href="#md038e202b8" x="267.1" y="74.751492" style="stroke: #000000; stroke-width: 0.6"/>
      </g>
     </g>
    </g>
    <g id="ytick_36">
     <g id="line2d_103">
      <g>
       <use xlink:href="#md038e202b8" x="267.1" y="68.122281" style="stroke: #000000; stroke-width: 0.6"/>
      </g>
     </g>
    </g>
    <g id="ytick_37">
     <g id="line2d_104">
      <g>
       <use xlink:href="#md038e202b8" x="267.1" y="61.49307" style="stroke: #000000; stroke-width: 0.6"/>
      </g>
     </g>
    </g>
    <g id="ytick_38">
     <g id="line2d_105">
      <g>
       <use xlink:href="#md038e202b8" x="267.1" y="54.86386" style="stroke: #000000; stroke-width: 0.6"/>
      </g>
     </g>
    </g>
    <g id="ytick_39">
     <g id="line2d_106">
      <g>
       <use xlink:href="#md038e202b8" x="267.1" y="41.605438" style="stroke: #000000; stroke-width: 0.6"/>
      </g>
     </g>
    </g>
    <g id="ytick_40">
     <g id="line2d_107">
      <g>
       <use xlink:href="#md038e202b8" x="267.1" y="34.976228" style="stroke: #000000; stroke-width: 0.6"/>
      </g>
     </g>
    </g>
    <g id="ytick_41">
     <g id="line2d_108">
      <g>
       <use xlink:href="#md038e202b8" x="267.1" y="28.347017" style="stroke: #000000; stroke-width: 0.6"/>
      </g>
     </g>
    </g>
    <g id="ytick_42">
     <g id="line2d_109">
      <g>
       <use xlink:href="#md038e202b8" x="267.1" y="21.717806" style="stroke: #000000; stroke-width: 0.6"/>
      </g>
     </g>
    </g>
   </g>
   <g id="line2d_110">
    <path d="M 270.617308 81.380702 
L 278.279018 99.301194 
L 283.121919 110.021647 
L 286.271072 116.552911 
L 289.799945 123.339523 
L 293.221644 129.284957 
L 295.309945 132.5674 
L 297.023597 135.048985 
L 299.653957 138.463831 
L 301.595254 140.662536 
L 303.68553 142.710993 
L 305.444331 144.170158 
L 307.391633 145.496393 
L 309.075058 146.393103 
L 310.587481 146.99831 
L 311.815084 147.348777 
L 313.981357 147.657462 
L 315.699206 147.620165 
L 317.31532 147.357351 
L 319.037767 146.835209 
L 320.902233 145.990814 
L 323.161551 144.584002 
L 324.816369 143.291841 
L 326.269468 141.978629 
L 328.732875 139.381412 
L 331.455957 135.988884 
L 333.810369 132.638055 
L 336.597192 128.20542 
L 339.19859 123.648226 
L 342.878484 116.588542 
L 345.439777 111.308418 
L 349.22247 103.065715 
L 354.626991 90.6417 
L 368.30481 58.741943 
L 371.865172 51.020665 
L 375.960629 42.753007 
L 378.714559 37.647572 
L 380.967293 33.783735 
L 384.237212 28.729766 
L 385.991213 26.310558 
L 387.848425 23.98483 
L 389.792646 21.820936 
L 391.705257 19.972461 
L 394.087895 18.07152 
L 395.922543 16.919617 
L 397.76835 16.040098 
L 399.942761 15.368624 
L 401.623419 15.122327 
L 403.206949 15.108773 
L 404.611756 15.274276 
L 406.233094 15.672201 
L 407.986159 16.350403 
L 410.066205 17.485627 
L 411.584947 18.537721 
L 413.791607 20.395034 
L 415.90505 22.52925 
L 417.797907 24.725808 
L 420.415833 28.18827 
L 423.580632 32.991745 
L 425.121966 35.559042 
L 428.448248 41.561972 
L 431.270006 47.098329 
L 435.108312 55.176602 
L 439.633931 65.321241 
L 445.324347 78.63802 
L 446.482692 81.380702 
L 446.482692 81.380702 
" clip-path="url(#pa669fd0660)" style="fill: none; stroke: #0000ff; stroke-linecap: square"/>
   </g>
   <g id="patch_10">
    <path d="M 267.1 150.323688 
L 267.1 12.447491 
" style="fill: none; stroke: #000000; stroke-width: 0.8; stroke-linejoin: miter; stroke-linecap: square"/>
   </g>
   <g id="patch_11">
    <path d="M 450 150.323688 
L 450 12.447491 
" style="fill: none; stroke: #000000; stroke-width: 0.8; stroke-linejoin: miter; stroke-linecap: square"/>
   </g>
   <g id="patch_12">
    <path d="M 267.1 150.323688 
L 450 150.323688 
" style="fill: none; stroke: #000000; stroke-width: 0.8; stroke-linejoin: miter; stroke-linecap: square"/>
   </g>
   <g id="patch_13">
    <path d="M 267.1 12.447491 
L 450 12.447491 
" style="fill: none; stroke: #000000; stroke-width: 0.8; stroke-linejoin: miter; stroke-linecap: square"/>
   </g>
  </g>
  <g id="axes_3">
   <g id="patch_14">
    <path d="M 42.1 317.72 
L 225 317.72 
L 225 179.843803 
L 42.1 179.843803 
z
" style="fill: #ffffff"/>
   </g>
   <g id="patch_15">
    <path d="M 45.617308 182.495269 
L 45.617308 248.781543 
L 46.435653 250.719502 
L 47.600719 253.475285 
L 48.227806 254.955498 
L 49.490955 257.926944 
L 49.886926 258.854881 
L 50.703763 260.762518 
L 51.708637 263.09513 
L 52.75153 265.496447 
L 53.258639 266.655913 
L 54.715274 269.952457 
L 55.214416 271.069335 
L 56.356483 273.59759 
L 57.483047 276.051069 
L 58.330435 277.867653 
L 59.170451 279.642127 
L 59.564664 280.465389 
L 60.31832 282.021668 
L 61.534788 284.482324 
L 62.300916 285.997722 
L 63.268415 287.871457 
L 64.069281 289.387245 
L 65.483819 291.982555 
L 65.523793 292.054325 
L 66.746065 294.205505 
L 67.400697 295.322287 
L 68.988276 297.923746 
L 69.272645 298.373266 
L 70.438025 300.161487 
L 71.535042 301.763489 
L 72.311287 302.848036 
L 72.815328 303.530053 
L 74.024197 305.093011 
L 74.68778 305.906494 
L 75.796487 307.193798 
L 76.21887 307.660219 
L 77.558661 309.050494 
L 78.544627 309.985591 
L 78.912767 310.315327 
L 79.653483 310.946459 
L 80.394199 311.534058 
L 80.620075 311.704517 
L 81.610807 312.403633 
L 82.333012 312.86308 
L 83.055217 313.279866 
L 83.493194 313.511725 
L 84.24052 313.870726 
L 85.638453 314.41752 
L 86.670982 314.716347 
L 87.566269 314.902845 
L 88.45506 315.021081 
L 89.105535 315.065292 
L 89.973477 315.068535 
L 90.547377 315.035672 
L 91.472426 314.924083 
L 92.162743 314.793732 
L 92.971427 314.589968 
L 94.269451 314.148151 
L 94.93301 313.867928 
L 95.681738 313.507824 
L 97.068784 312.718567 
L 98.193016 311.963573 
L 98.212879 311.949314 
L 99.500342 310.957545 
L 100.467145 310.126197 
L 101.131444 309.512488 
L 101.961807 308.697302 
L 102.70027 307.928015 
L 103.609189 306.924698 
L 104.602716 305.757892 
L 106.051304 303.928456 
L 106.71655 303.038518 
L 107.717484 301.641927 
L 108.331656 300.751401 
L 109.298543 299.298922 
L 110.230615 297.841661 
L 110.855345 296.834366 
L 112.287091 294.436408 
L 112.597815 293.899998 
L 114.059322 291.303492 
L 114.941542 289.679577 
L 115.571671 288.494723 
L 116.235619 287.224513 
L 117.378746 284.987305 
L 118.031292 283.682895 
L 118.857596 282.004026 
L 119.555909 280.562573 
L 120.895869 277.742024 
L 121.202014 277.088054 
L 122.220457 274.888582 
L 123.374956 272.353645 
L 124.032175 270.892395 
L 125.108566 268.473209 
L 125.777036 266.955938 
L 127.295821 263.471493 
L 128.038844 261.750433 
L 129.013241 259.479783 
L 129.909449 257.379828 
L 130.750735 255.400503 
L 131.570712 253.465543 
L 132.20249 251.971862 
L 132.703178 250.78692 
L 134.108313 247.459276 
L 134.698594 246.061883 
L 135.826793 243.394947 
L 136.676939 241.390842 
L 137.239694 240.067861 
L 138.439841 237.258869 
L 139.167612 235.565481 
L 139.954021 233.74573 
L 140.800626 231.799993 
L 141.878276 229.345952 
L 143.029808 226.755597 
L 143.525102 225.65265 
L 144.401624 223.718729 
L 145.37525 221.599455 
L 146.302962 219.610682 
L 147.663761 216.752062 
L 147.840236 216.386744 
L 148.6038 214.821133 
L 149.668538 212.680435 
L 150.702964 210.65068 
L 151.225572 209.644845 
L 152.247412 207.717901 
L 153.043912 206.253718 
L 154.518263 203.635197 
L 155.015108 202.780635 
L 155.699402 201.627448 
L 156.900357 199.67212 
L 157.66981 198.46663 
L 158.301414 197.505482 
L 159.14698 196.259692 
L 159.992547 195.061831 
L 160.329164 194.598549 
L 161.467531 193.09028 
L 162.178862 192.194415 
L 162.923109 191.296225 
L 163.891754 190.188183 
L 165.356575 188.646254 
L 165.901689 188.114274 
L 166.964727 187.143214 
L 167.75936 186.475327 
L 168.333903 186.023675 
L 169.111737 185.45438 
L 169.814638 184.98198 
L 171.118072 184.212662 
L 172.124097 183.714532 
L 172.718207 183.459798 
L 173.640498 183.122691 
L 174.226463 182.945527 
L 175.371234 182.682715 
L 176.70419 182.516028 
L 177.105359 182.495269 
L 178.376016 182.519388 
L 179.094172 182.593426 
L 180.077317 182.76542 
L 180.817399 182.948634 
L 182.002009 183.337621 
L 182.469228 183.523317 
L 183.840874 184.173305 
L 183.991699 184.254276 
L 185.166765 184.949082 
L 186.170253 185.631536 
L 187.428077 186.601469 
L 187.950253 187.04113 
L 189.078916 188.064643 
L 189.715577 188.685651 
L 190.600795 189.6007 
L 191.251407 190.311029 
L 192.406433 191.649638 
L 193.268508 192.712263 
L 194.20253 193.923565 
L 194.54239 194.379547 
L 195.620683 195.879032 
L 197.112089 198.081889 
L 197.683735 198.964735 
L 198.806226 200.758407 
L 199.500871 201.90728 
L 200.683517 203.929281 
L 200.780581 204.098839 
L 201.969439 206.218587 
L 202.900665 207.932795 
L 203.728064 209.493868 
L 204.858089 211.681099 
L 205.437798 212.826854 
L 206.314925 214.589595 
L 207.311642 216.633327 
L 208.223548 218.538932 
L 209.302338 220.834557 
L 210.201788 222.780433 
L 211.071879 224.688362 
L 211.646552 225.961382 
L 212.831714 228.616531 
L 213.674702 230.527383 
L 213.996971 231.262356 
L 215.464835 234.637919 
L 215.868915 235.57438 
L 217.396649 239.138165 
L 217.679237 239.800829 
L 218.950824 242.793034 
L 220.073162 245.444507 
L 220.377742 246.165168 
L 221.482692 248.781543 
L 221.482692 182.495269 
z
" clip-path="url(#p31071f8067)" style="fill: #808080; opacity: 0.5"/>
   </g>
   <g id="matplotlib.axis_5">
    <g id="xtick_67">
     <g id="line2d_111">
      <g>
       <use xlink:href="#m0abeb96094" x="49.580464" y="317.72" style="stroke: #000000; stroke-width: 0.8"/>
      </g>
     </g>
     <g id="text_25">
      <!-- −3 -->
      <g transform="translate(42.20937 332.318438) scale(0.1 -0.1)">
       <use xlink:href="#DejaVuSans-2212"/>
       <use xlink:href="#DejaVuSans-33" transform="translate(83.789062 0)"/>
      </g>
     </g>
    </g>
    <g id="xtick_68">
     <g id="line2d_112">
      <g>
       <use xlink:href="#m0abeb96094" x="77.570309" y="317.72" style="stroke: #000000; stroke-width: 0.8"/>
      </g>
     </g>
     <g id="text_26">
      <!-- −2 -->
      <g transform="translate(70.199216 332.318438) scale(0.1 -0.1)">
       <use xlink:href="#DejaVuSans-2212"/>
       <use xlink:href="#DejaVuSans-32" transform="translate(83.789062 0)"/>
      </g>
     </g>
    </g>
    <g id="xtick_69">
     <g id="line2d_113">
      <g>
       <use xlink:href="#m0abeb96094" x="105.560155" y="317.72" style="stroke: #000000; stroke-width: 0.8"/>
      </g>
     </g>
     <g id="text_27">
      <!-- −1 -->
      <g transform="translate(98.189061 332.318438) scale(0.1 -0.1)">
       <use xlink:href="#DejaVuSans-2212"/>
       <use xlink:href="#DejaVuSans-31" transform="translate(83.789062 0)"/>
      </g>
     </g>
    </g>
    <g id="xtick_70">
     <g id="line2d_114">
      <g>
       <use xlink:href="#m0abeb96094" x="133.55" y="317.72" style="stroke: #000000; stroke-width: 0.8"/>
      </g>
     </g>
     <g id="text_28">
      <!-- 0 -->
      <g transform="translate(130.36875 332.318438) scale(0.1 -0.1)">
       <use xlink:href="#DejaVuSans-30"/>
      </g>
     </g>
    </g>
    <g id="xtick_71">
     <g id="line2d_115">
      <g>
       <use xlink:href="#m0abeb96094" x="161.539845" y="317.72" style="stroke: #000000; stroke-width: 0.8"/>
      </g>
     </g>
     <g id="text_29">
      <!-- 1 -->
      <g transform="translate(158.358595 332.318438) scale(0.1 -0.1)">
       <use xlink:href="#DejaVuSans-31"/>
      </g>
     </g>
    </g>
    <g id="xtick_72">
     <g id="line2d_116">
      <g>
       <use xlink:href="#m0abeb96094" x="189.529691" y="317.72" style="stroke: #000000; stroke-width: 0.8"/>
      </g>
     </g>
     <g id="text_30">
      <!-- 2 -->
      <g transform="translate(186.348441 332.318438) scale(0.1 -0.1)">
       <use xlink:href="#DejaVuSans-32"/>
      </g>
     </g>
    </g>
    <g id="xtick_73">
     <g id="line2d_117">
      <g>
       <use xlink:href="#m0abeb96094" x="217.519536" y="317.72" style="stroke: #000000; stroke-width: 0.8"/>
      </g>
     </g>
     <g id="text_31">
      <!-- 3 -->
      <g transform="translate(214.338286 332.318438) scale(0.1 -0.1)">
       <use xlink:href="#DejaVuSans-33"/>
      </g>
     </g>
    </g>
    <g id="xtick_74">
     <g id="line2d_118">
      <g>
       <use xlink:href="#m58d6546157" x="43.982495" y="317.72" style="stroke: #000000; stroke-width: 0.6"/>
      </g>
     </g>
    </g>
    <g id="xtick_75">
     <g id="line2d_119">
      <g>
       <use xlink:href="#m58d6546157" x="55.178433" y="317.72" style="stroke: #000000; stroke-width: 0.6"/>
      </g>
     </g>
    </g>
    <g id="xtick_76">
     <g id="line2d_120">
      <g>
       <use xlink:href="#m58d6546157" x="60.776402" y="317.72" style="stroke: #000000; stroke-width: 0.6"/>
      </g>
     </g>
    </g>
    <g id="xtick_77">
     <g id="line2d_121">
      <g>
       <use xlink:href="#m58d6546157" x="66.374371" y="317.72" style="stroke: #000000; stroke-width: 0.6"/>
      </g>
     </g>
    </g>
    <g id="xtick_78">
     <g id="line2d_122">
      <g>
       <use xlink:href="#m58d6546157" x="71.97234" y="317.72" style="stroke: #000000; stroke-width: 0.6"/>
      </g>
     </g>
    </g>
    <g id="xtick_79">
     <g id="line2d_123">
      <g>
       <use xlink:href="#m58d6546157" x="83.168278" y="317.72" style="stroke: #000000; stroke-width: 0.6"/>
      </g>
     </g>
    </g>
    <g id="xtick_80">
     <g id="line2d_124">
      <g>
       <use xlink:href="#m58d6546157" x="88.766248" y="317.72" style="stroke: #000000; stroke-width: 0.6"/>
      </g>
     </g>
    </g>
    <g id="xtick_81">
     <g id="line2d_125">
      <g>
       <use xlink:href="#m58d6546157" x="94.364217" y="317.72" style="stroke: #000000; stroke-width: 0.6"/>
      </g>
     </g>
    </g>
    <g id="xtick_82">
     <g id="line2d_126">
      <g>
       <use xlink:href="#m58d6546157" x="99.962186" y="317.72" style="stroke: #000000; stroke-width: 0.6"/>
      </g>
     </g>
    </g>
    <g id="xtick_83">
     <g id="line2d_127">
      <g>
       <use xlink:href="#m58d6546157" x="111.158124" y="317.72" style="stroke: #000000; stroke-width: 0.6"/>
      </g>
     </g>
    </g>
    <g id="xtick_84">
     <g id="line2d_128">
      <g>
       <use xlink:href="#m58d6546157" x="116.756093" y="317.72" style="stroke: #000000; stroke-width: 0.6"/>
      </g>
     </g>
    </g>
    <g id="xtick_85">
     <g id="line2d_129">
      <g>
       <use xlink:href="#m58d6546157" x="122.354062" y="317.72" style="stroke: #000000; stroke-width: 0.6"/>
      </g>
     </g>
    </g>
    <g id="xtick_86">
     <g id="line2d_130">
      <g>
       <use xlink:href="#m58d6546157" x="127.952031" y="317.72" style="stroke: #000000; stroke-width: 0.6"/>
      </g>
     </g>
    </g>
    <g id="xtick_87">
     <g id="line2d_131">
      <g>
       <use xlink:href="#m58d6546157" x="139.147969" y="317.72" style="stroke: #000000; stroke-width: 0.6"/>
      </g>
     </g>
    </g>
    <g id="xtick_88">
     <g id="line2d_132">
      <g>
       <use xlink:href="#m58d6546157" x="144.745938" y="317.72" style="stroke: #000000; stroke-width: 0.6"/>
      </g>
     </g>
    </g>
    <g id="xtick_89">
     <g id="line2d_133">
      <g>
       <use xlink:href="#m58d6546157" x="150.343907" y="317.72" style="stroke: #000000; stroke-width: 0.6"/>
      </g>
     </g>
    </g>
    <g id="xtick_90">
     <g id="line2d_134">
      <g>
       <use xlink:href="#m58d6546157" x="155.941876" y="317.72" style="stroke: #000000; stroke-width: 0.6"/>
      </g>
     </g>
    </g>
    <g id="xtick_91">
     <g id="line2d_135">
      <g>
       <use xlink:href="#m58d6546157" x="167.137814" y="317.72" style="stroke: #000000; stroke-width: 0.6"/>
      </g>
     </g>
    </g>
    <g id="xtick_92">
     <g id="line2d_136">
      <g>
       <use xlink:href="#m58d6546157" x="172.735783" y="317.72" style="stroke: #000000; stroke-width: 0.6"/>
      </g>
     </g>
    </g>
    <g id="xtick_93">
     <g id="line2d_137">
      <g>
       <use xlink:href="#m58d6546157" x="178.333752" y="317.72" style="stroke: #000000; stroke-width: 0.6"/>
      </g>
     </g>
    </g>
    <g id="xtick_94">
     <g id="line2d_138">
      <g>
       <use xlink:href="#m58d6546157" x="183.931722" y="317.72" style="stroke: #000000; stroke-width: 0.6"/>
      </g>
     </g>
    </g>
    <g id="xtick_95">
     <g id="line2d_139">
      <g>
       <use xlink:href="#m58d6546157" x="195.12766" y="317.72" style="stroke: #000000; stroke-width: 0.6"/>
      </g>
     </g>
    </g>
    <g id="xtick_96">
     <g id="line2d_140">
      <g>
       <use xlink:href="#m58d6546157" x="200.725629" y="317.72" style="stroke: #000000; stroke-width: 0.6"/>
      </g>
     </g>
    </g>
    <g id="xtick_97">
     <g id="line2d_141">
      <g>
       <use xlink:href="#m58d6546157" x="206.323598" y="317.72" style="stroke: #000000; stroke-width: 0.6"/>
      </g>
     </g>
    </g>
    <g id="xtick_98">
     <g id="line2d_142">
      <g>
       <use xlink:href="#m58d6546157" x="211.921567" y="317.72" style="stroke: #000000; stroke-width: 0.6"/>
      </g>
     </g>
    </g>
    <g id="xtick_99">
     <g id="line2d_143">
      <g>
       <use xlink:href="#m58d6546157" x="223.117505" y="317.72" style="stroke: #000000; stroke-width: 0.6"/>
      </g>
     </g>
    </g>
   </g>
   <g id="matplotlib.axis_6">
    <g id="ytick_43">
     <g id="line2d_144">
      <g>
       <use xlink:href="#m4e779182cf" x="42.1" y="315.074964" style="stroke: #000000; stroke-width: 0.8"/>
      </g>
     </g>
     <g id="text_32">
      <!-- −1.0 -->
      <g transform="translate(10.817188 318.874183) scale(0.1 -0.1)">
       <use xlink:href="#DejaVuSans-2212"/>
       <use xlink:href="#DejaVuSans-31" transform="translate(83.789062 0)"/>
       <use xlink:href="#DejaVuSans-2e" transform="translate(147.412109 0)"/>
       <use xlink:href="#DejaVuSans-30" transform="translate(179.199219 0)"/>
      </g>
     </g>
    </g>
    <g id="ytick_44">
     <g id="line2d_145">
      <g>
       <use xlink:href="#m4e779182cf" x="42.1" y="281.928254" style="stroke: #000000; stroke-width: 0.8"/>
      </g>
     </g>
     <g id="text_33">
      <!-- −0.5 -->
      <g transform="translate(10.817188 285.727472) scale(0.1 -0.1)">
       <use xlink:href="#DejaVuSans-2212"/>
       <use xlink:href="#DejaVuSans-30" transform="translate(83.789062 0)"/>
       <use xlink:href="#DejaVuSans-2e" transform="translate(147.412109 0)"/>
       <use xlink:href="#DejaVuSans-35" transform="translate(179.199219 0)"/>
      </g>
     </g>
    </g>
    <g id="ytick_45">
     <g id="line2d_146">
      <g>
       <use xlink:href="#m4e779182cf" x="42.1" y="248.781543" style="stroke: #000000; stroke-width: 0.8"/>
      </g>
     </g>
     <g id="text_34">
      <!-- 0.0 -->
      <g transform="translate(19.196875 252.580762) scale(0.1 -0.1)">
       <use xlink:href="#DejaVuSans-30"/>
       <use xlink:href="#DejaVuSans-2e" transform="translate(63.623047 0)"/>
       <use xlink:href="#DejaVuSans-30" transform="translate(95.410156 0)"/>
      </g>
     </g>
    </g>
    <g id="ytick_46">
     <g id="line2d_147">
      <g>
       <use xlink:href="#m4e779182cf" x="42.1" y="215.634833" style="stroke: #000000; stroke-width: 0.8"/>
      </g>
     </g>
     <g id="text_35">
      <!-- 0.5 -->
      <g transform="translate(19.196875 219.434052) scale(0.1 -0.1)">
       <use xlink:href="#DejaVuSans-30"/>
       <use xlink:href="#DejaVuSans-2e" transform="translate(63.623047 0)"/>
       <use xlink:href="#DejaVuSans-35" transform="translate(95.410156 0)"/>
      </g>
     </g>
    </g>
    <g id="ytick_47">
     <g id="line2d_148">
      <g>
       <use xlink:href="#m4e779182cf" x="42.1" y="182.488122" style="stroke: #000000; stroke-width: 0.8"/>
      </g>
     </g>
     <g id="text_36">
      <!-- 1.0 -->
      <g transform="translate(19.196875 186.287341) scale(0.1 -0.1)">
       <use xlink:href="#DejaVuSans-31"/>
       <use xlink:href="#DejaVuSans-2e" transform="translate(63.623047 0)"/>
       <use xlink:href="#DejaVuSans-30" transform="translate(95.410156 0)"/>
      </g>
     </g>
    </g>
    <g id="ytick_48">
     <g id="line2d_149">
      <g>
       <use xlink:href="#md038e202b8" x="42.1" y="308.445622" style="stroke: #000000; stroke-width: 0.6"/>
      </g>
     </g>
    </g>
    <g id="ytick_49">
     <g id="line2d_150">
      <g>
       <use xlink:href="#md038e202b8" x="42.1" y="301.81628" style="stroke: #000000; stroke-width: 0.6"/>
      </g>
     </g>
    </g>
    <g id="ytick_50">
     <g id="line2d_151">
      <g>
       <use xlink:href="#md038e202b8" x="42.1" y="295.186938" style="stroke: #000000; stroke-width: 0.6"/>
      </g>
     </g>
    </g>
    <g id="ytick_51">
     <g id="line2d_152">
      <g>
       <use xlink:href="#md038e202b8" x="42.1" y="288.557596" style="stroke: #000000; stroke-width: 0.6"/>
      </g>
     </g>
    </g>
    <g id="ytick_52">
     <g id="line2d_153">
      <g>
       <use xlink:href="#md038e202b8" x="42.1" y="275.298912" style="stroke: #000000; stroke-width: 0.6"/>
      </g>
     </g>
    </g>
    <g id="ytick_53">
     <g id="line2d_154">
      <g>
       <use xlink:href="#md038e202b8" x="42.1" y="268.669569" style="stroke: #000000; stroke-width: 0.6"/>
      </g>
     </g>
    </g>
    <g id="ytick_54">
     <g id="line2d_155">
      <g>
       <use xlink:href="#md038e202b8" x="42.1" y="262.040227" style="stroke: #000000; stroke-width: 0.6"/>
      </g>
     </g>
    </g>
    <g id="ytick_55">
     <g id="line2d_156">
      <g>
       <use xlink:href="#md038e202b8" x="42.1" y="255.410885" style="stroke: #000000; stroke-width: 0.6"/>
      </g>
     </g>
    </g>
    <g id="ytick_56">
     <g id="line2d_157">
      <g>
       <use xlink:href="#md038e202b8" x="42.1" y="242.152201" style="stroke: #000000; stroke-width: 0.6"/>
      </g>
     </g>
    </g>
    <g id="ytick_57">
     <g id="line2d_158">
      <g>
       <use xlink:href="#md038e202b8" x="42.1" y="235.522859" style="stroke: #000000; stroke-width: 0.6"/>
      </g>
     </g>
    </g>
    <g id="ytick_58">
     <g id="line2d_159">
      <g>
       <use xlink:href="#md038e202b8" x="42.1" y="228.893517" style="stroke: #000000; stroke-width: 0.6"/>
      </g>
     </g>
    </g>
    <g id="ytick_59">
     <g id="line2d_160">
      <g>
       <use xlink:href="#md038e202b8" x="42.1" y="222.264175" style="stroke: #000000; stroke-width: 0.6"/>
      </g>
     </g>
    </g>
    <g id="ytick_60">
     <g id="line2d_161">
      <g>
       <use xlink:href="#md038e202b8" x="42.1" y="209.005491" style="stroke: #000000; stroke-width: 0.6"/>
      </g>
     </g>
    </g>
    <g id="ytick_61">
     <g id="line2d_162">
      <g>
       <use xlink:href="#md038e202b8" x="42.1" y="202.376149" style="stroke: #000000; stroke-width: 0.6"/>
      </g>
     </g>
    </g>
    <g id="ytick_62">
     <g id="line2d_163">
      <g>
       <use xlink:href="#md038e202b8" x="42.1" y="195.746806" style="stroke: #000000; stroke-width: 0.6"/>
      </g>
     </g>
    </g>
    <g id="ytick_63">
     <g id="line2d_164">
      <g>
       <use xlink:href="#md038e202b8" x="42.1" y="189.117464" style="stroke: #000000; stroke-width: 0.6"/>
      </g>
     </g>
    </g>
   </g>
   <g id="line2d_165">
    <path d="M 45.617308 248.781543 
L 53.258639 266.655913 
L 58.330435 277.867653 
L 62.300916 285.997722 
L 65.523793 292.054325 
L 67.400697 295.322287 
L 70.438025 300.161487 
L 72.815328 303.530053 
L 74.68778 305.906494 
L 76.21887 307.660219 
L 78.912767 310.315327 
L 80.620075 311.704517 
L 82.333012 312.86308 
L 84.24052 313.870726 
L 86.670982 314.716347 
L 88.45506 315.021081 
L 89.973477 315.068535 
L 91.472426 314.924083 
L 92.971427 314.589968 
L 94.93301 313.867928 
L 97.068784 312.718567 
L 99.500342 310.957545 
L 101.961807 308.697302 
L 103.609189 306.924698 
L 106.051304 303.928456 
L 108.331656 300.751401 
L 110.855345 296.834366 
L 114.059322 291.303492 
L 117.378746 284.987305 
L 120.895869 277.742024 
L 124.032175 270.892395 
L 129.013241 259.479783 
L 143.525102 225.65265 
L 147.840236 216.386744 
L 151.225572 209.644845 
L 154.518263 203.635197 
L 156.900357 199.67212 
L 159.14698 196.259692 
L 161.467531 193.09028 
L 163.891754 190.188183 
L 165.901689 188.114274 
L 168.333903 186.023675 
L 169.814638 184.98198 
L 172.124097 183.714532 
L 173.640498 183.122691 
L 175.371234 182.682715 
L 177.105359 182.495269 
L 179.094172 182.593426 
L 180.817399 182.948634 
L 182.469228 183.523317 
L 183.991699 184.254276 
L 186.170253 185.631536 
L 187.950253 187.04113 
L 189.715577 188.685651 
L 191.251407 190.311029 
L 193.268508 192.712263 
L 195.620683 195.879032 
L 198.806226 200.758407 
L 200.780581 204.098839 
L 203.728064 209.493868 
L 207.311642 216.633327 
L 211.071879 224.688362 
L 215.868915 235.57438 
L 221.482692 248.781543 
L 221.482692 248.781543 
" clip-path="url(#p31071f8067)" style="fill: none; stroke: #0000ff; stroke-linecap: square"/>
   </g>
   <g id="patch_16">
    <path d="M 42.1 317.72 
L 42.1 179.843803 
" style="fill: none; stroke: #000000; stroke-width: 0.8; stroke-linejoin: miter; stroke-linecap: square"/>
   </g>
   <g id="patch_17">
    <path d="M 225 317.72 
L 225 179.843803 
" style="fill: none; stroke: #000000; stroke-width: 0.8; stroke-linejoin: miter; stroke-linecap: square"/>
   </g>
   <g id="patch_18">
    <path d="M 42.1 317.72 
L 225 317.72 
" style="fill: none; stroke: #000000; stroke-width: 0.8; stroke-linejoin: miter; stroke-linecap: square"/>
   </g>
   <g id="patch_19">
    <path d="M 42.1 179.843803 
L 225 179.843803 
" style="fill: none; stroke: #000000; stroke-width: 0.8; stroke-linejoin: miter; stroke-linecap: square"/>
   </g>
  </g>
  <g id="axes_4">
   <g id="patch_20">
    <path d="M 267.1 317.72 
L 450 317.72 
L 450 179.843803 
L 267.1 179.843803 
z
" style="fill: #ffffff"/>
   </g>
   <g id="patch_21">
    <path d="M 446.482692 299.133965 
L 445.409169 298.421975 
L 445.132642 298.238575 
L 443.434077 297.11204 
L 442.878499 296.743566 
L 441.931757 296.115661 
L 441.588941 295.888296 
L 439.879526 294.754566 
L 439.51672 294.513943 
L 438.485156 293.829782 
L 437.553108 293.211622 
L 436.676783 292.630419 
L 435.975035 292.165001 
L 435.359277 291.756614 
L 433.836848 290.746897 
L 433.492757 290.518687 
L 432.677093 289.977717 
L 431.65465 289.299605 
L 431.005391 288.868998 
L 429.464707 287.847175 
L 429.090227 287.59881 
L 427.610169 286.617195 
L 426.76942 286.059587 
L 426.137195 285.640279 
L 424.92421 284.835794 
L 424.444922 284.517918 
L 423.534128 283.913854 
L 422.312201 283.103439 
L 422.111056 282.970034 
L 421.19326 282.361327 
L 419.548225 281.270295 
L 419.292458 281.100664 
L 418.616795 280.652546 
L 417.389569 279.838616 
L 416.756324 279.418631 
L 415.12054 278.333734 
L 414.929457 278.207003 
L 413.385108 277.182749 
L 413.155294 277.03033 
L 412.075894 276.314442 
L 411.44098 275.89335 
L 409.877161 274.856183 
L 409.679123 274.724839 
L 408.102056 273.678885 
L 407.520335 273.293072 
L 406.823994 272.83124 
L 405.595773 272.01665 
L 404.762041 271.463697 
L 404.05271 270.993249 
L 403.285039 270.484109 
L 402.474612 269.946612 
L 401.287547 269.159318 
L 400.840575 268.862874 
L 399.909829 268.245578 
L 399.175714 267.758693 
L 397.627824 266.73209 
L 396.969958 266.295776 
L 395.712345 265.461692 
L 395.3289 265.207381 
L 393.916335 264.27053 
L 393.841156 264.220669 
L 392.579886 263.38416 
L 391.769974 262.847005 
L 390.717945 262.149271 
L 389.914406 261.616342 
L 389.426769 261.292928 
L 388.368754 260.591223 
L 387.524228 260.031111 
L 386.042598 259.048454 
L 385.615808 258.765395 
L 384.53862 258.050975 
L 383.871305 257.608393 
L 382.525422 256.715768 
L 381.86462 256.277506 
L 381.01687 255.715255 
L 379.894124 254.970619 
L 379.249292 254.542949 
L 378.783946 254.234319 
L 377.701593 253.516473 
L 376.416886 252.66442 
L 375.485882 252.046953 
L 374.492331 251.388003 
L 374.203747 251.196607 
L 373.421381 250.67772 
L 372.130275 249.821424 
L 371.231266 249.225176 
L 370.381945 248.661884 
L 369.832479 248.297463 
L 368.303677 247.28352 
L 367.536291 246.774568 
L 367.312429 246.626098 
L 365.72123 245.570771 
L 364.900251 245.026275 
L 364.477457 244.745867 
L 362.978473 243.7517 
L 362.695271 243.563873 
L 361.593914 242.833423 
L 360.469409 242.087621 
L 360.071307 241.823589 
L 358.921754 241.061174 
L 358.425248 240.731878 
L 357.165043 239.896076 
L 355.94196 239.084894 
L 355.408558 238.731127 
L 354.980044 238.446925 
L 353.481237 237.452876 
L 352.599444 236.868047 
L 351.801866 236.339071 
L 350.718399 235.620486 
L 350.394699 235.4058 
L 349.547199 234.843715 
L 348.579575 234.20196 
L 347.661967 233.593377 
L 346.340908 232.717215 
L 346.028717 232.510162 
L 344.479229 231.482499 
L 343.799113 231.031428 
L 343.334035 230.722976 
L 341.839473 229.731742 
L 341.06479 229.217951 
L 340.724116 228.992007 
L 339.226446 227.998711 
L 338.819823 227.729028 
L 337.660072 226.959849 
L 336.803783 226.391936 
L 336.402304 226.125664 
L 334.763204 225.038568 
L 333.925369 224.482893 
L 333.287177 224.059627 
L 332.780935 223.723873 
L 331.857444 223.111389 
L 330.304857 222.081671 
L 329.912151 221.821218 
L 328.528202 220.903345 
L 328.191193 220.679832 
L 327.162077 219.997294 
L 326.313858 219.434733 
L 325.81478 219.103731 
L 324.189417 218.025746 
L 323.867464 217.812218 
L 322.813726 217.11335 
L 321.728873 216.393846 
L 321.047275 215.941792 
L 319.765958 215.091988 
L 318.809374 214.457555 
L 318.07812 213.972567 
L 317.340535 213.483381 
L 316.340327 212.820016 
L 315.669155 212.374877 
L 314.505705 211.603245 
L 313.889266 211.194406 
L 313.098334 210.669838 
L 312.029227 209.960778 
L 310.836312 209.169604 
L 310.639023 209.038756 
L 309.459908 208.256736 
L 308.493616 207.615864 
L 308.128266 207.373555 
L 306.682527 206.414701 
L 305.990849 205.955961 
L 304.720987 205.113755 
L 303.813129 204.511638 
L 302.998041 203.97105 
L 302.230271 203.461844 
L 301.613415 203.052728 
L 300.835251 202.536629 
L 299.608763 201.723188 
L 298.659064 201.093322 
L 298.153967 200.758329 
L 297.207787 200.130796 
L 296.093552 199.391806 
L 295.662839 199.106144 
L 294.365023 198.245398 
L 293.437561 197.63028 
L 292.610747 197.081915 
L 292.246861 196.840575 
L 290.949955 195.980432 
L 290.248005 195.51488 
L 288.955944 194.65795 
L 288.26216 194.197814 
L 287.174892 193.476708 
L 286.245087 192.860036 
L 285.413141 192.308267 
L 285.160578 192.14076 
L 283.794438 191.234699 
L 283.114275 190.783597 
L 282.168746 190.156496 
L 281.560053 189.752795 
L 280.306799 188.921603 
L 279.848656 188.617749 
L 278.214687 187.534057 
L 277.686113 187.183492 
L 276.485779 186.387398 
L 276.084989 186.121584 
L 274.631332 185.157478 
L 274.138678 184.830737 
L 273.545642 184.43742 
L 272.428881 183.696753 
L 271.166073 182.859225 
L 270.617308 182.495269 
L 270.617308 259.378242 
L 271.385886 260.907275 
L 272.218057 262.561487 
L 273.610428 265.322253 
L 274.317266 266.718558 
L 275.215631 268.486341 
L 275.580652 269.202043 
L 276.410353 270.822441 
L 277.484067 272.904265 
L 278.283295 274.441136 
L 279.307981 276.393412 
L 280.719524 279.044872 
L 280.854615 279.296111 
L 282.103469 281.595983 
L 283.039381 283.290804 
L 284.064662 285.116707 
L 285.046531 286.832962 
L 285.482948 287.585075 
L 286.883039 289.950782 
L 287.63259 291.186221 
L 288.221747 292.141324 
L 289.573849 294.277707 
L 290.206929 295.250311 
L 290.604648 295.851975 
L 291.626045 297.363102 
L 292.681969 298.872117 
L 293.402238 299.869334 
L 294.822952 301.757111 
L 295.697102 302.864692 
L 295.935359 303.159261 
L 296.97433 304.406443 
L 298.226628 305.827104 
L 298.814946 306.462587 
L 299.717871 307.397346 
L 300.471453 308.139281 
L 301.618669 309.200739 
L 302.21896 309.722912 
L 303.390907 310.675407 
L 303.757936 310.955293 
L 304.779931 311.687764 
L 305.522918 312.176545 
L 306.265904 312.628125 
L 306.978924 313.026216 
L 307.817705 313.449939 
L 308.287729 313.666173 
L 309.267368 314.067587 
L 310.177501 314.380504 
L 310.938628 314.597553 
L 311.699756 314.773772 
L 312.285792 314.88155 
L 313.179053 314.999009 
L 314.184807 315.063463 
L 314.711626 315.068535 
L 315.621616 315.030828 
L 316.786649 314.896709 
L 317.806107 314.700439 
L 318.164082 314.614096 
L 319.212364 314.309345 
L 319.888282 314.071962 
L 320.611495 313.782653 
L 321.334708 313.457025 
L 321.713292 313.272156 
L 322.895919 312.631319 
L 323.288105 312.397754 
L 324.691844 311.4768 
L 325.597816 310.812695 
L 326.181988 310.355861 
L 327.092991 309.5992 
L 327.632293 309.126146 
L 328.448108 308.375505 
L 329.263924 307.583242 
L 329.99819 306.83514 
L 330.470978 306.336127 
L 331.875602 304.775129 
L 332.703818 303.800877 
L 333.208493 303.18809 
L 334.452948 301.616612 
L 335.365682 300.410776 
L 336.308362 299.119591 
L 336.808461 298.416214 
L 337.663559 297.184795 
L 338.508245 295.933723 
L 339.242936 294.818455 
L 340.530938 292.804807 
L 341.222962 291.693401 
L 342.462357 289.653993 
L 342.965092 288.809599 
L 344.370084 286.400302 
L 345.283054 284.797856 
L 345.993759 283.531618 
L 346.43007 282.746491 
L 347.752711 280.332543 
L 348.458495 279.024931 
L 349.102557 277.820749 
L 350.275455 275.603188 
L 351.286792 273.668069 
L 352.314512 271.682508 
L 352.638552 271.052894 
L 353.403651 269.56024 
L 354.258595 267.883357 
L 355.357027 265.717471 
L 355.962772 264.518675 
L 357.208536 262.046305 
L 357.892175 260.686984 
L 358.718898 259.04219 
L 359.729869 257.031373 
L 361.05879 254.393231 
L 361.441935 253.634444 
L 362.677909 251.194759 
L 363.313761 249.945569 
L 364.507183 247.614629 
L 365.124108 246.417796 
L 366.022745 244.685865 
L 366.531844 243.71129 
L 367.628289 241.630374 
L 368.547536 239.90661 
L 369.413787 238.301412 
L 370.507718 236.303347 
L 371.485776 234.546673 
L 372.504626 232.749004 
L 373.114439 231.689772 
L 374.200263 229.836572 
L 374.594409 229.174727 
L 375.381531 227.871052 
L 376.892414 225.439328 
L 377.401799 224.641427 
L 378.163173 223.47034 
L 379.087689 222.08412 
L 380.302772 220.324332 
L 380.838939 219.571018 
L 382.174977 217.758014 
L 382.525468 217.297934 
L 383.968143 215.474418 
L 384.64613 214.657449 
L 385.643046 213.503958 
L 386.438452 212.625294 
L 387.633063 211.376784 
L 388.093682 210.918616 
L 388.962137 210.090579 
L 389.87569 209.270761 
L 391.203602 208.174499 
L 392.088904 207.507512 
L 392.42108 207.270603 
L 393.219969 206.730945 
L 394.348231 206.041941 
L 395.309149 205.523418 
L 396.050312 205.166805 
L 397.008501 204.762134 
L 397.583288 204.550069 
L 398.340916 204.305881 
L 399.208838 204.07574 
L 400.07676 203.898769 
L 400.093388 203.895899 
L 400.824673 203.789051 
L 401.555957 203.720146 
L 402.241582 203.69005 
L 403.101572 203.699539 
L 404.345064 203.806187 
L 405.164395 203.936413 
L 405.958402 204.10794 
L 406.69362 204.306426 
L 407.394629 204.531066 
L 408.790592 205.080706 
L 409.183941 205.260034 
L 409.908696 205.618411 
L 411.129379 206.303353 
L 412.343318 207.084611 
L 412.932112 207.49906 
L 413.657237 208.040996 
L 414.79373 208.959547 
L 415.585431 209.648636 
L 416.430932 210.428469 
L 417.640907 211.621973 
L 418.456023 212.47644 
L 418.867885 212.923358 
L 420.074948 214.290727 
L 420.909446 215.28523 
L 421.708121 216.273756 
L 422.601637 217.42122 
L 423.408568 218.494266 
L 424.655346 220.218691 
L 425.502938 221.435574 
L 426.489171 222.895215 
L 427.207412 223.986833 
L 427.835673 224.960826 
L 428.681595 226.29956 
L 429.259665 227.23185 
L 430.716712 229.641646 
L 431.026571 230.164735 
L 432.639044 232.943144 
L 433.511637 234.483861 
L 434.071735 235.485656 
L 435.296191 237.708488 
L 436.237934 239.446529 
L 436.632142 240.180875 
L 437.641437 242.078036 
L 438.475403 243.662714 
L 439.009615 244.685226 
L 440.326375 247.227656 
L 441.591624 249.696026 
L 442.505541 251.491579 
L 443.34982 253.157832 
L 443.418189 253.293031 
L 444.511894 255.46022 
L 445.962907 258.344094 
L 446.482692 259.378242 
z
" clip-path="url(#p6938034a41)" style="fill: #0000ff; opacity: 0.2"/>
   </g>
   <g id="matplotlib.axis_7">
    <g id="xtick_100">
     <g id="line2d_166">
      <g>
       <use xlink:href="#m0abeb96094" x="274.580464" y="317.72" style="stroke: #000000; stroke-width: 0.8"/>
      </g>
     </g>
     <g id="text_37">
      <!-- −3 -->
      <g transform="translate(267.20937 332.318438) scale(0.1 -0.1)">
       <use xlink:href="#DejaVuSans-2212"/>
       <use xlink:href="#DejaVuSans-33" transform="translate(83.789062 0)"/>
      </g>
     </g>
    </g>
    <g id="xtick_101">
     <g id="line2d_167">
      <g>
       <use xlink:href="#m0abeb96094" x="302.570309" y="317.72" style="stroke: #000000; stroke-width: 0.8"/>
      </g>
     </g>
     <g id="text_38">
      <!-- −2 -->
      <g transform="translate(295.199216 332.318438) scale(0.1 -0.1)">
       <use xlink:href="#DejaVuSans-2212"/>
       <use xlink:href="#DejaVuSans-32" transform="translate(83.789062 0)"/>
      </g>
     </g>
    </g>
    <g id="xtick_102">
     <g id="line2d_168">
      <g>
       <use xlink:href="#m0abeb96094" x="330.560155" y="317.72" style="stroke: #000000; stroke-width: 0.8"/>
      </g>
     </g>
     <g id="text_39">
      <!-- −1 -->
      <g transform="translate(323.189061 332.318438) scale(0.1 -0.1)">
       <use xlink:href="#DejaVuSans-2212"/>
       <use xlink:href="#DejaVuSans-31" transform="translate(83.789062 0)"/>
      </g>
     </g>
    </g>
    <g id="xtick_103">
     <g id="line2d_169">
      <g>
       <use xlink:href="#m0abeb96094" x="358.55" y="317.72" style="stroke: #000000; stroke-width: 0.8"/>
      </g>
     </g>
     <g id="text_40">
      <!-- 0 -->
      <g transform="translate(355.36875 332.318438) scale(0.1 -0.1)">
       <use xlink:href="#DejaVuSans-30"/>
      </g>
     </g>
    </g>
    <g id="xtick_104">
     <g id="line2d_170">
      <g>
       <use xlink:href="#m0abeb96094" x="386.539845" y="317.72" style="stroke: #000000; stroke-width: 0.8"/>
      </g>
     </g>
     <g id="text_41">
      <!-- 1 -->
      <g transform="translate(383.358595 332.318438) scale(0.1 -0.1)">
       <use xlink:href="#DejaVuSans-31"/>
      </g>
     </g>
    </g>
    <g id="xtick_105">
     <g id="line2d_171">
      <g>
       <use xlink:href="#m0abeb96094" x="414.529691" y="317.72" style="stroke: #000000; stroke-width: 0.8"/>
      </g>
     </g>
     <g id="text_42">
      <!-- 2 -->
      <g transform="translate(411.348441 332.318438) scale(0.1 -0.1)">
       <use xlink:href="#DejaVuSans-32"/>
      </g>
     </g>
    </g>
    <g id="xtick_106">
     <g id="line2d_172">
      <g>
       <use xlink:href="#m0abeb96094" x="442.519536" y="317.72" style="stroke: #000000; stroke-width: 0.8"/>
      </g>
     </g>
     <g id="text_43">
      <!-- 3 -->
      <g transform="translate(439.338286 332.318438) scale(0.1 -0.1)">
       <use xlink:href="#DejaVuSans-33"/>
      </g>
     </g>
    </g>
    <g id="xtick_107">
     <g id="line2d_173">
      <g>
       <use xlink:href="#m58d6546157" x="268.982495" y="317.72" style="stroke: #000000; stroke-width: 0.6"/>
      </g>
     </g>
    </g>
    <g id="xtick_108">
     <g id="line2d_174">
      <g>
       <use xlink:href="#m58d6546157" x="280.178433" y="317.72" style="stroke: #000000; stroke-width: 0.6"/>
      </g>
     </g>
    </g>
    <g id="xtick_109">
     <g id="line2d_175">
      <g>
       <use xlink:href="#m58d6546157" x="285.776402" y="317.72" style="stroke: #000000; stroke-width: 0.6"/>
      </g>
     </g>
    </g>
    <g id="xtick_110">
     <g id="line2d_176">
      <g>
       <use xlink:href="#m58d6546157" x="291.374371" y="317.72" style="stroke: #000000; stroke-width: 0.6"/>
      </g>
     </g>
    </g>
    <g id="xtick_111">
     <g id="line2d_177">
      <g>
       <use xlink:href="#m58d6546157" x="296.97234" y="317.72" style="stroke: #000000; stroke-width: 0.6"/>
      </g>
     </g>
    </g>
    <g id="xtick_112">
     <g id="line2d_178">
      <g>
       <use xlink:href="#m58d6546157" x="308.168278" y="317.72" style="stroke: #000000; stroke-width: 0.6"/>
      </g>
     </g>
    </g>
    <g id="xtick_113">
     <g id="line2d_179">
      <g>
       <use xlink:href="#m58d6546157" x="313.766248" y="317.72" style="stroke: #000000; stroke-width: 0.6"/>
      </g>
     </g>
    </g>
    <g id="xtick_114">
     <g id="line2d_180">
      <g>
       <use xlink:href="#m58d6546157" x="319.364217" y="317.72" style="stroke: #000000; stroke-width: 0.6"/>
      </g>
     </g>
    </g>
    <g id="xtick_115">
     <g id="line2d_181">
      <g>
       <use xlink:href="#m58d6546157" x="324.962186" y="317.72" style="stroke: #000000; stroke-width: 0.6"/>
      </g>
     </g>
    </g>
    <g id="xtick_116">
     <g id="line2d_182">
      <g>
       <use xlink:href="#m58d6546157" x="336.158124" y="317.72" style="stroke: #000000; stroke-width: 0.6"/>
      </g>
     </g>
    </g>
    <g id="xtick_117">
     <g id="line2d_183">
      <g>
       <use xlink:href="#m58d6546157" x="341.756093" y="317.72" style="stroke: #000000; stroke-width: 0.6"/>
      </g>
     </g>
    </g>
    <g id="xtick_118">
     <g id="line2d_184">
      <g>
       <use xlink:href="#m58d6546157" x="347.354062" y="317.72" style="stroke: #000000; stroke-width: 0.6"/>
      </g>
     </g>
    </g>
    <g id="xtick_119">
     <g id="line2d_185">
      <g>
       <use xlink:href="#m58d6546157" x="352.952031" y="317.72" style="stroke: #000000; stroke-width: 0.6"/>
      </g>
     </g>
    </g>
    <g id="xtick_120">
     <g id="line2d_186">
      <g>
       <use xlink:href="#m58d6546157" x="364.147969" y="317.72" style="stroke: #000000; stroke-width: 0.6"/>
      </g>
     </g>
    </g>
    <g id="xtick_121">
     <g id="line2d_187">
      <g>
       <use xlink:href="#m58d6546157" x="369.745938" y="317.72" style="stroke: #000000; stroke-width: 0.6"/>
      </g>
     </g>
    </g>
    <g id="xtick_122">
     <g id="line2d_188">
      <g>
       <use xlink:href="#m58d6546157" x="375.343907" y="317.72" style="stroke: #000000; stroke-width: 0.6"/>
      </g>
     </g>
    </g>
    <g id="xtick_123">
     <g id="line2d_189">
      <g>
       <use xlink:href="#m58d6546157" x="380.941876" y="317.72" style="stroke: #000000; stroke-width: 0.6"/>
      </g>
     </g>
    </g>
    <g id="xtick_124">
     <g id="line2d_190">
      <g>
       <use xlink:href="#m58d6546157" x="392.137814" y="317.72" style="stroke: #000000; stroke-width: 0.6"/>
      </g>
     </g>
    </g>
    <g id="xtick_125">
     <g id="line2d_191">
      <g>
       <use xlink:href="#m58d6546157" x="397.735783" y="317.72" style="stroke: #000000; stroke-width: 0.6"/>
      </g>
     </g>
    </g>
    <g id="xtick_126">
     <g id="line2d_192">
      <g>
       <use xlink:href="#m58d6546157" x="403.333752" y="317.72" style="stroke: #000000; stroke-width: 0.6"/>
      </g>
     </g>
    </g>
    <g id="xtick_127">
     <g id="line2d_193">
      <g>
       <use xlink:href="#m58d6546157" x="408.931722" y="317.72" style="stroke: #000000; stroke-width: 0.6"/>
      </g>
     </g>
    </g>
    <g id="xtick_128">
     <g id="line2d_194">
      <g>
       <use xlink:href="#m58d6546157" x="420.12766" y="317.72" style="stroke: #000000; stroke-width: 0.6"/>
      </g>
     </g>
    </g>
    <g id="xtick_129">
     <g id="line2d_195">
      <g>
       <use xlink:href="#m58d6546157" x="425.725629" y="317.72" style="stroke: #000000; stroke-width: 0.6"/>
      </g>
     </g>
    </g>
    <g id="xtick_130">
     <g id="line2d_196">
      <g>
       <use xlink:href="#m58d6546157" x="431.323598" y="317.72" style="stroke: #000000; stroke-width: 0.6"/>
      </g>
     </g>
    </g>
    <g id="xtick_131">
     <g id="line2d_197">
      <g>
       <use xlink:href="#m58d6546157" x="436.921567" y="317.72" style="stroke: #000000; stroke-width: 0.6"/>
      </g>
     </g>
    </g>
    <g id="xtick_132">
     <g id="line2d_198">
      <g>
       <use xlink:href="#m58d6546157" x="448.117505" y="317.72" style="stroke: #000000; stroke-width: 0.6"/>
      </g>
     </g>
    </g>
   </g>
   <g id="matplotlib.axis_8">
    <g id="ytick_64">
     <g id="line2d_199">
      <g>
       <use xlink:href="#m4e779182cf" x="267.1" y="315.069117" style="stroke: #000000; stroke-width: 0.8"/>
      </g>
     </g>
     <g id="text_44">
      <!-- −1.0 -->
      <g transform="translate(235.817188 318.868336) scale(0.1 -0.1)">
       <use xlink:href="#DejaVuSans-2212"/>
       <use xlink:href="#DejaVuSans-31" transform="translate(83.789062 0)"/>
       <use xlink:href="#DejaVuSans-2e" transform="translate(147.412109 0)"/>
       <use xlink:href="#DejaVuSans-30" transform="translate(179.199219 0)"/>
      </g>
     </g>
    </g>
    <g id="ytick_65">
     <g id="line2d_200">
      <g>
       <use xlink:href="#m4e779182cf" x="267.1" y="287.223679" style="stroke: #000000; stroke-width: 0.8"/>
      </g>
     </g>
     <g id="text_45">
      <!-- −0.5 -->
      <g transform="translate(235.817188 291.022898) scale(0.1 -0.1)">
       <use xlink:href="#DejaVuSans-2212"/>
       <use xlink:href="#DejaVuSans-30" transform="translate(83.789062 0)"/>
       <use xlink:href="#DejaVuSans-2e" transform="translate(147.412109 0)"/>
       <use xlink:href="#DejaVuSans-35" transform="translate(179.199219 0)"/>
      </g>
     </g>
    </g>
    <g id="ytick_66">
     <g id="line2d_201">
      <g>
       <use xlink:href="#m4e779182cf" x="267.1" y="259.378242" style="stroke: #000000; stroke-width: 0.8"/>
      </g>
     </g>
     <g id="text_46">
      <!-- 0.0 -->
      <g transform="translate(244.196875 263.17746) scale(0.1 -0.1)">
       <use xlink:href="#DejaVuSans-30"/>
       <use xlink:href="#DejaVuSans-2e" transform="translate(63.623047 0)"/>
       <use xlink:href="#DejaVuSans-30" transform="translate(95.410156 0)"/>
      </g>
     </g>
    </g>
    <g id="ytick_67">
     <g id="line2d_202">
      <g>
       <use xlink:href="#m4e779182cf" x="267.1" y="231.532804" style="stroke: #000000; stroke-width: 0.8"/>
      </g>
     </g>
     <g id="text_47">
      <!-- 0.5 -->
      <g transform="translate(244.196875 235.332023) scale(0.1 -0.1)">
       <use xlink:href="#DejaVuSans-30"/>
       <use xlink:href="#DejaVuSans-2e" transform="translate(63.623047 0)"/>
       <use xlink:href="#DejaVuSans-35" transform="translate(95.410156 0)"/>
      </g>
     </g>
    </g>
    <g id="ytick_68">
     <g id="line2d_203">
      <g>
       <use xlink:href="#m4e779182cf" x="267.1" y="203.687367" style="stroke: #000000; stroke-width: 0.8"/>
      </g>
     </g>
     <g id="text_48">
      <!-- 1.0 -->
      <g transform="translate(244.196875 207.486585) scale(0.1 -0.1)">
       <use xlink:href="#DejaVuSans-31"/>
       <use xlink:href="#DejaVuSans-2e" transform="translate(63.623047 0)"/>
       <use xlink:href="#DejaVuSans-30" transform="translate(95.410156 0)"/>
      </g>
     </g>
    </g>
    <g id="ytick_69">
     <g id="line2d_204">
      <g>
       <use xlink:href="#md038e202b8" x="267.1" y="309.500029" style="stroke: #000000; stroke-width: 0.6"/>
      </g>
     </g>
    </g>
    <g id="ytick_70">
     <g id="line2d_205">
      <g>
       <use xlink:href="#md038e202b8" x="267.1" y="303.930942" style="stroke: #000000; stroke-width: 0.6"/>
      </g>
     </g>
    </g>
    <g id="ytick_71">
     <g id="line2d_206">
      <g>
       <use xlink:href="#md038e202b8" x="267.1" y="298.361854" style="stroke: #000000; stroke-width: 0.6"/>
      </g>
     </g>
    </g>
    <g id="ytick_72">
     <g id="line2d_207">
      <g>
       <use xlink:href="#md038e202b8" x="267.1" y="292.792767" style="stroke: #000000; stroke-width: 0.6"/>
      </g>
     </g>
    </g>
    <g id="ytick_73">
     <g id="line2d_208">
      <g>
       <use xlink:href="#md038e202b8" x="267.1" y="281.654592" style="stroke: #000000; stroke-width: 0.6"/>
      </g>
     </g>
    </g>
    <g id="ytick_74">
     <g id="line2d_209">
      <g>
       <use xlink:href="#md038e202b8" x="267.1" y="276.085504" style="stroke: #000000; stroke-width: 0.6"/>
      </g>
     </g>
    </g>
    <g id="ytick_75">
     <g id="line2d_210">
      <g>
       <use xlink:href="#md038e202b8" x="267.1" y="270.516417" style="stroke: #000000; stroke-width: 0.6"/>
      </g>
     </g>
    </g>
    <g id="ytick_76">
     <g id="line2d_211">
      <g>
       <use xlink:href="#md038e202b8" x="267.1" y="264.947329" style="stroke: #000000; stroke-width: 0.6"/>
      </g>
     </g>
    </g>
    <g id="ytick_77">
     <g id="line2d_212">
      <g>
       <use xlink:href="#md038e202b8" x="267.1" y="253.809154" style="stroke: #000000; stroke-width: 0.6"/>
      </g>
     </g>
    </g>
    <g id="ytick_78">
     <g id="line2d_213">
      <g>
       <use xlink:href="#md038e202b8" x="267.1" y="248.240067" style="stroke: #000000; stroke-width: 0.6"/>
      </g>
     </g>
    </g>
    <g id="ytick_79">
     <g id="line2d_214">
      <g>
       <use xlink:href="#md038e202b8" x="267.1" y="242.670979" style="stroke: #000000; stroke-width: 0.6"/>
      </g>
     </g>
    </g>
    <g id="ytick_80">
     <g id="line2d_215">
      <g>
       <use xlink:href="#md038e202b8" x="267.1" y="237.101892" style="stroke: #000000; stroke-width: 0.6"/>
      </g>
     </g>
    </g>
    <g id="ytick_81">
     <g id="line2d_216">
      <g>
       <use xlink:href="#md038e202b8" x="267.1" y="225.963717" style="stroke: #000000; stroke-width: 0.6"/>
      </g>
     </g>
    </g>
    <g id="ytick_82">
     <g id="line2d_217">
      <g>
       <use xlink:href="#md038e202b8" x="267.1" y="220.394629" style="stroke: #000000; stroke-width: 0.6"/>
      </g>
     </g>
    </g>
    <g id="ytick_83">
     <g id="line2d_218">
      <g>
       <use xlink:href="#md038e202b8" x="267.1" y="214.825542" style="stroke: #000000; stroke-width: 0.6"/>
      </g>
     </g>
    </g>
    <g id="ytick_84">
     <g id="line2d_219">
      <g>
       <use xlink:href="#md038e202b8" x="267.1" y="209.256454" style="stroke: #000000; stroke-width: 0.6"/>
      </g>
     </g>
    </g>
    <g id="ytick_85">
     <g id="line2d_220">
      <g>
       <use xlink:href="#md038e202b8" x="267.1" y="198.118279" style="stroke: #000000; stroke-width: 0.6"/>
      </g>
     </g>
    </g>
    <g id="ytick_86">
     <g id="line2d_221">
      <g>
       <use xlink:href="#md038e202b8" x="267.1" y="192.549192" style="stroke: #000000; stroke-width: 0.6"/>
      </g>
     </g>
    </g>
    <g id="ytick_87">
     <g id="line2d_222">
      <g>
       <use xlink:href="#md038e202b8" x="267.1" y="186.980104" style="stroke: #000000; stroke-width: 0.6"/>
      </g>
     </g>
    </g>
    <g id="ytick_88">
     <g id="line2d_223">
      <g>
       <use xlink:href="#md038e202b8" x="267.1" y="181.411017" style="stroke: #000000; stroke-width: 0.6"/>
      </g>
     </g>
    </g>
   </g>
   <g id="line2d_224">
    <path d="M 270.617308 259.378242 
L 278.283295 274.441136 
L 283.039381 283.290804 
L 286.883039 289.950782 
L 290.206929 295.250311 
L 292.681969 298.872117 
L 295.697102 302.864692 
L 298.226628 305.827104 
L 300.471453 308.139281 
L 302.21896 309.722912 
L 304.779931 311.687764 
L 306.978924 313.026216 
L 309.267368 314.067587 
L 310.938628 314.597553 
L 312.285792 314.88155 
L 314.184807 315.063463 
L 315.621616 315.030828 
L 317.806107 314.700439 
L 319.212364 314.309345 
L 321.334708 313.457025 
L 323.288105 312.397754 
L 325.597816 310.812695 
L 327.632293 309.126146 
L 329.99819 306.83514 
L 331.875602 304.775129 
L 334.452948 301.616612 
L 336.808461 298.416214 
L 339.242936 294.818455 
L 342.965092 288.809599 
L 346.43007 282.746491 
L 351.286792 273.668069 
L 357.892175 260.686984 
L 366.531844 243.71129 
L 371.485776 234.546673 
L 375.381531 227.871052 
L 379.087689 222.08412 
L 382.525468 217.297934 
L 385.643046 213.503958 
L 388.093682 210.918616 
L 389.87569 209.270761 
L 392.42108 207.270603 
L 394.348231 206.041941 
L 396.050312 205.166805 
L 398.340916 204.305881 
L 400.093388 203.895899 
L 402.241582 203.69005 
L 404.345064 203.806187 
L 405.958402 204.10794 
L 407.394629 204.531066 
L 409.908696 205.618411 
L 412.343318 207.084611 
L 413.657237 208.040996 
L 415.585431 209.648636 
L 417.640907 211.621973 
L 420.074948 214.290727 
L 422.601637 217.42122 
L 425.502938 221.435574 
L 428.681595 226.29956 
L 431.026571 230.164735 
L 435.296191 237.708488 
L 439.009615 244.685226 
L 445.962907 258.344094 
L 446.482692 259.378242 
L 446.482692 259.378242 
" clip-path="url(#p6938034a41)" style="fill: none; stroke: #0000ff; stroke-linecap: square"/>
   </g>
   <g id="patch_22">
    <path d="M 267.1 317.72 
L 267.1 179.843803 
" style="fill: none; stroke: #000000; stroke-width: 0.8; stroke-linejoin: miter; stroke-linecap: square"/>
   </g>
   <g id="patch_23">
    <path d="M 450 317.72 
L 450 179.843803 
" style="fill: none; stroke: #000000; stroke-width: 0.8; stroke-linejoin: miter; stroke-linecap: square"/>
   </g>
   <g id="patch_24">
    <path d="M 267.1 317.72 
L 450 317.72 
" style="fill: none; stroke: #000000; stroke-width: 0.8; stroke-linejoin: miter; stroke-linecap: square"/>
   </g>
   <g id="patch_25">
    <path d="M 267.1 179.843803 
L 450 179.843803 
" style="fill: none; stroke: #000000; stroke-width: 0.8; stroke-linejoin: miter; stroke-linecap: square"/>
   </g>
  </g>
 </g>
 <defs>
  <clipPath id="p328a28aaff">
   <rect x="42.1" y="12.447491" width="182.9" height="137.876197"/>
  </clipPath>
  <clipPath id="pa669fd0660">
   <rect x="267.1" y="12.447491" width="182.9" height="137.876197"/>
  </clipPath>
  <clipPath id="p31071f8067">
   <rect x="42.1" y="179.843803" width="182.9" height="137.876197"/>
  </clipPath>
  <clipPath id="p6938034a41">
   <rect x="267.1" y="179.843803" width="182.9" height="137.876197"/>
  </clipPath>
 </defs>
</svg>
