<?xml version="1.0" encoding="utf-8" standalone="no"?>
<!DOCTYPE svg PUBLIC "-//W3C//DTD SVG 1.1//EN"
  "http://www.w3.org/Graphics/SVG/1.1/DTD/svg11.dtd">
<svg xmlns:xlink="http://www.w3.org/1999/xlink" width="460.8pt" height="345.6pt" viewBox="0 0 460.8 345.6" xmlns="http://www.w3.org/2000/svg" version="1.1">
 <metadata>
  <rdf:RDF xmlns:dc="http://purl.org/dc/elements/1.1/" xmlns:cc="http://creativecommons.org/ns#" xmlns:rdf="http://www.w3.org/1999/02/22-rdf-syntax-ns#">
   <cc:Work>
    <dc:type rdf:resource="http://purl.org/dc/dcmitype/StillImage"/>
    <dc:date>2025-08-03T19:01:16.374282</dc:date>
    <dc:format>image/svg+xml</dc:format>
    <dc:creator>
     <cc:Agent>
      <dc:title>Matplotlib v3.10.3, https://matplotlib.org/</dc:title>
     </cc:Agent>
    </dc:creator>
   </cc:Work>
  </rdf:RDF>
 </metadata>
 <defs>
  <style type="text/css">*{stroke-linejoin: round; stroke-linecap: butt}</style>
 </defs>
 <g id="figure_1">
  <g id="patch_1">
   <path d="M 0 345.6 
L 460.8 345.6 
L 460.8 0 
L 0 0 
z
" style="fill: #ffffff"/>
  </g>
  <g id="axes_1">
   <g id="patch_2">
    <path d="M 29.78 334.520722 
L 460.8 334.520722 
L 460.8 0 
L 29.78 0 
z
" style="fill: #ffffff"/>
   </g>
   <g id="matplotlib.axis_1">
    <g id="xtick_1">
     <g id="line2d_1">
      <defs>
       <path id="m8332aae7a9" d="M 0 0 
L 0 3.5 
" style="stroke: #000000; stroke-width: 0.8"/>
      </defs>
      <g>
       <use xlink:href="#m8332aae7a9" x="84.439692" y="328.087631" style="stroke: #000000; stroke-width: 0.8"/>
      </g>
     </g>
     <g id="text_1">
      <!-- 2 -->
      <g transform="translate(81.258442 342.686069) scale(0.1 -0.1)">
       <defs>
        <path id="DejaVuSans-32" d="M 1228 531 
L 3431 531 
L 3431 0 
L 469 0 
L 469 531 
Q 828 903 1448 1529 
Q 2069 2156 2228 2338 
Q 2531 2678 2651 2914 
Q 2772 3150 2772 3378 
Q 2772 3750 2511 3984 
Q 2250 4219 1831 4219 
Q 1534 4219 1204 4116 
Q 875 4013 500 3803 
L 500 4441 
Q 881 4594 1212 4672 
Q 1544 4750 1819 4750 
Q 2544 4750 2975 4387 
Q 3406 4025 3406 3419 
Q 3406 3131 3298 2873 
Q 3191 2616 2906 2266 
Q 2828 2175 2409 1742 
Q 1991 1309 1228 531 
z
" transform="scale(0.015625)"/>
       </defs>
       <use xlink:href="#DejaVuSans-32"/>
      </g>
     </g>
    </g>
    <g id="xtick_2">
     <g id="line2d_2">
      <g>
       <use xlink:href="#m8332aae7a9" x="176.354154" y="328.087631" style="stroke: #000000; stroke-width: 0.8"/>
      </g>
     </g>
     <g id="text_2">
      <!-- 4 -->
      <g transform="translate(173.172904 342.686069) scale(0.1 -0.1)">
       <defs>
        <path id="DejaVuSans-34" d="M 2419 4116 
L 825 1625 
L 2419 1625 
L 2419 4116 
z
M 2253 4666 
L 3047 4666 
L 3047 1625 
L 3713 1625 
L 3713 1100 
L 3047 1100 
L 3047 0 
L 2419 0 
L 2419 1100 
L 313 1100 
L 313 1709 
L 2253 4666 
z
" transform="scale(0.015625)"/>
       </defs>
       <use xlink:href="#DejaVuSans-34"/>
      </g>
     </g>
    </g>
    <g id="xtick_3">
     <g id="line2d_3">
      <g>
       <use xlink:href="#m8332aae7a9" x="268.268615" y="328.087631" style="stroke: #000000; stroke-width: 0.8"/>
      </g>
     </g>
     <g id="text_3">
      <!-- 6 -->
      <g transform="translate(265.087365 342.686069) scale(0.1 -0.1)">
       <defs>
        <path id="DejaVuSans-36" d="M 2113 2584 
Q 1688 2584 1439 2293 
Q 1191 2003 1191 1497 
Q 1191 994 1439 701 
Q 1688 409 2113 409 
Q 2538 409 2786 701 
Q 3034 994 3034 1497 
Q 3034 2003 2786 2293 
Q 2538 2584 2113 2584 
z
M 3366 4563 
L 3366 3988 
Q 3128 4100 2886 4159 
Q 2644 4219 2406 4219 
Q 1781 4219 1451 3797 
Q 1122 3375 1075 2522 
Q 1259 2794 1537 2939 
Q 1816 3084 2150 3084 
Q 2853 3084 3261 2657 
Q 3669 2231 3669 1497 
Q 3669 778 3244 343 
Q 2819 -91 2113 -91 
Q 1303 -91 875 529 
Q 447 1150 447 2328 
Q 447 3434 972 4092 
Q 1497 4750 2381 4750 
Q 2619 4750 2861 4703 
Q 3103 4656 3366 4563 
z
" transform="scale(0.015625)"/>
       </defs>
       <use xlink:href="#DejaVuSans-36"/>
      </g>
     </g>
    </g>
    <g id="xtick_4">
     <g id="line2d_4">
      <g>
       <use xlink:href="#m8332aae7a9" x="360.183077" y="328.087631" style="stroke: #000000; stroke-width: 0.8"/>
      </g>
     </g>
     <g id="text_4">
      <!-- 8 -->
      <g transform="translate(357.001827 342.686069) scale(0.1 -0.1)">
       <defs>
        <path id="DejaVuSans-38" d="M 2034 2216 
Q 1584 2216 1326 1975 
Q 1069 1734 1069 1313 
Q 1069 891 1326 650 
Q 1584 409 2034 409 
Q 2484 409 2743 651 
Q 3003 894 3003 1313 
Q 3003 1734 2745 1975 
Q 2488 2216 2034 2216 
z
M 1403 2484 
Q 997 2584 770 2862 
Q 544 3141 544 3541 
Q 544 4100 942 4425 
Q 1341 4750 2034 4750 
Q 2731 4750 3128 4425 
Q 3525 4100 3525 3541 
Q 3525 3141 3298 2862 
Q 3072 2584 2669 2484 
Q 3125 2378 3379 2068 
Q 3634 1759 3634 1313 
Q 3634 634 3220 271 
Q 2806 -91 2034 -91 
Q 1263 -91 848 271 
Q 434 634 434 1313 
Q 434 1759 690 2068 
Q 947 2378 1403 2484 
z
M 1172 3481 
Q 1172 3119 1398 2916 
Q 1625 2713 2034 2713 
Q 2441 2713 2670 2916 
Q 2900 3119 2900 3481 
Q 2900 3844 2670 4047 
Q 2441 4250 2034 4250 
Q 1625 4250 1398 4047 
Q 1172 3844 1172 3481 
z
" transform="scale(0.015625)"/>
       </defs>
       <use xlink:href="#DejaVuSans-38"/>
      </g>
     </g>
    </g>
    <g id="xtick_5">
     <g id="line2d_5">
      <g>
       <use xlink:href="#m8332aae7a9" x="452.097539" y="328.087631" style="stroke: #000000; stroke-width: 0.8"/>
      </g>
     </g>
     <g id="text_5">
      <!-- 10 -->
      <g transform="translate(445.735039 342.686069) scale(0.1 -0.1)">
       <defs>
        <path id="DejaVuSans-31" d="M 794 531 
L 1825 531 
L 1825 4091 
L 703 3866 
L 703 4441 
L 1819 4666 
L 2450 4666 
L 2450 531 
L 3481 531 
L 3481 0 
L 794 0 
L 794 531 
z
" transform="scale(0.015625)"/>
        <path id="DejaVuSans-30" d="M 2034 4250 
Q 1547 4250 1301 3770 
Q 1056 3291 1056 2328 
Q 1056 1369 1301 889 
Q 1547 409 2034 409 
Q 2525 409 2770 889 
Q 3016 1369 3016 2328 
Q 3016 3291 2770 3770 
Q 2525 4250 2034 4250 
z
M 2034 4750 
Q 2819 4750 3233 4129 
Q 3647 3509 3647 2328 
Q 3647 1150 3233 529 
Q 2819 -91 2034 -91 
Q 1250 -91 836 529 
Q 422 1150 422 2328 
Q 422 3509 836 4129 
Q 1250 4750 2034 4750 
z
" transform="scale(0.015625)"/>
       </defs>
       <use xlink:href="#DejaVuSans-31"/>
       <use xlink:href="#DejaVuSans-30" transform="translate(63.623047 0)"/>
      </g>
     </g>
    </g>
    <g id="xtick_6">
     <g id="line2d_6">
      <defs>
       <path id="m3ac582cc0b" d="M 0 0 
L 0 2 
" style="stroke: #000000; stroke-width: 0.6"/>
      </defs>
      <g>
       <use xlink:href="#m3ac582cc0b" x="38.482461" y="328.087631" style="stroke: #000000; stroke-width: 0.6"/>
      </g>
     </g>
    </g>
    <g id="xtick_7">
     <g id="line2d_7">
      <g>
       <use xlink:href="#m3ac582cc0b" x="61.461077" y="328.087631" style="stroke: #000000; stroke-width: 0.6"/>
      </g>
     </g>
    </g>
    <g id="xtick_8">
     <g id="line2d_8">
      <g>
       <use xlink:href="#m3ac582cc0b" x="107.418307" y="328.087631" style="stroke: #000000; stroke-width: 0.6"/>
      </g>
     </g>
    </g>
    <g id="xtick_9">
     <g id="line2d_9">
      <g>
       <use xlink:href="#m3ac582cc0b" x="130.396923" y="328.087631" style="stroke: #000000; stroke-width: 0.6"/>
      </g>
     </g>
    </g>
    <g id="xtick_10">
     <g id="line2d_10">
      <g>
       <use xlink:href="#m3ac582cc0b" x="153.375538" y="328.087631" style="stroke: #000000; stroke-width: 0.6"/>
      </g>
     </g>
    </g>
    <g id="xtick_11">
     <g id="line2d_11">
      <g>
       <use xlink:href="#m3ac582cc0b" x="199.332769" y="328.087631" style="stroke: #000000; stroke-width: 0.6"/>
      </g>
     </g>
    </g>
    <g id="xtick_12">
     <g id="line2d_12">
      <g>
       <use xlink:href="#m3ac582cc0b" x="222.311385" y="328.087631" style="stroke: #000000; stroke-width: 0.6"/>
      </g>
     </g>
    </g>
    <g id="xtick_13">
     <g id="line2d_13">
      <g>
       <use xlink:href="#m3ac582cc0b" x="245.29" y="328.087631" style="stroke: #000000; stroke-width: 0.6"/>
      </g>
     </g>
    </g>
    <g id="xtick_14">
     <g id="line2d_14">
      <g>
       <use xlink:href="#m3ac582cc0b" x="291.247231" y="328.087631" style="stroke: #000000; stroke-width: 0.6"/>
      </g>
     </g>
    </g>
    <g id="xtick_15">
     <g id="line2d_15">
      <g>
       <use xlink:href="#m3ac582cc0b" x="314.225846" y="328.087631" style="stroke: #000000; stroke-width: 0.6"/>
      </g>
     </g>
    </g>
    <g id="xtick_16">
     <g id="line2d_16">
      <g>
       <use xlink:href="#m3ac582cc0b" x="337.204462" y="328.087631" style="stroke: #000000; stroke-width: 0.6"/>
      </g>
     </g>
    </g>
    <g id="xtick_17">
     <g id="line2d_17">
      <g>
       <use xlink:href="#m3ac582cc0b" x="383.161693" y="328.087631" style="stroke: #000000; stroke-width: 0.6"/>
      </g>
     </g>
    </g>
    <g id="xtick_18">
     <g id="line2d_18">
      <g>
       <use xlink:href="#m3ac582cc0b" x="406.140308" y="328.087631" style="stroke: #000000; stroke-width: 0.6"/>
      </g>
     </g>
    </g>
    <g id="xtick_19">
     <g id="line2d_19">
      <g>
       <use xlink:href="#m3ac582cc0b" x="429.118923" y="328.087631" style="stroke: #000000; stroke-width: 0.6"/>
      </g>
     </g>
    </g>
   </g>
   <g id="matplotlib.axis_2">
    <g id="ytick_1">
     <g id="line2d_20">
      <defs>
       <path id="m51d381b335" d="M 0 0 
L -3.5 0 
" style="stroke: #000000; stroke-width: 0.8"/>
      </defs>
      <g>
       <use xlink:href="#m51d381b335" x="19.78" y="328.087631" style="stroke: #000000; stroke-width: 0.8"/>
      </g>
     </g>
     <g id="text_6">
      <!-- 0 -->
      <g transform="translate(6.4175 331.88685) scale(0.1 -0.1)">
       <use xlink:href="#DejaVuSans-30"/>
      </g>
     </g>
    </g>
    <g id="ytick_2">
     <g id="line2d_21">
      <g>
       <use xlink:href="#m51d381b335" x="19.78" y="263.756723" style="stroke: #000000; stroke-width: 0.8"/>
      </g>
     </g>
     <g id="text_7">
      <!-- 2 -->
      <g transform="translate(6.4175 267.555942) scale(0.1 -0.1)">
       <use xlink:href="#DejaVuSans-32"/>
      </g>
     </g>
    </g>
    <g id="ytick_3">
     <g id="line2d_22">
      <g>
       <use xlink:href="#m51d381b335" x="19.78" y="199.425815" style="stroke: #000000; stroke-width: 0.8"/>
      </g>
     </g>
     <g id="text_8">
      <!-- 4 -->
      <g transform="translate(6.4175 203.225034) scale(0.1 -0.1)">
       <use xlink:href="#DejaVuSans-34"/>
      </g>
     </g>
    </g>
    <g id="ytick_4">
     <g id="line2d_23">
      <g>
       <use xlink:href="#m51d381b335" x="19.78" y="135.094907" style="stroke: #000000; stroke-width: 0.8"/>
      </g>
     </g>
     <g id="text_9">
      <!-- 6 -->
      <g transform="translate(6.4175 138.894126) scale(0.1 -0.1)">
       <use xlink:href="#DejaVuSans-36"/>
      </g>
     </g>
    </g>
    <g id="ytick_5">
     <g id="line2d_24">
      <g>
       <use xlink:href="#m51d381b335" x="19.78" y="70.763999" style="stroke: #000000; stroke-width: 0.8"/>
      </g>
     </g>
     <g id="text_10">
      <!-- 8 -->
      <g transform="translate(6.4175 74.563218) scale(0.1 -0.1)">
       <use xlink:href="#DejaVuSans-38"/>
      </g>
     </g>
    </g>
    <g id="ytick_6">
     <g id="line2d_25">
      <g>
       <use xlink:href="#m51d381b335" x="19.78" y="6.433091" style="stroke: #000000; stroke-width: 0.8"/>
      </g>
     </g>
     <g id="text_11">
      <!-- 10 -->
      <g transform="translate(0.055 10.23231) scale(0.1 -0.1)">
       <use xlink:href="#DejaVuSans-31"/>
       <use xlink:href="#DejaVuSans-30" transform="translate(63.623047 0)"/>
      </g>
     </g>
    </g>
    <g id="ytick_7">
     <g id="line2d_26">
      <defs>
       <path id="m156bdbad5b" d="M 0 0 
L -2 0 
" style="stroke: #000000; stroke-width: 0.6"/>
      </defs>
      <g>
       <use xlink:href="#m156bdbad5b" x="19.78" y="312.004904" style="stroke: #000000; stroke-width: 0.6"/>
      </g>
     </g>
    </g>
    <g id="ytick_8">
     <g id="line2d_27">
      <g>
       <use xlink:href="#m156bdbad5b" x="19.78" y="295.922177" style="stroke: #000000; stroke-width: 0.6"/>
      </g>
     </g>
    </g>
    <g id="ytick_9">
     <g id="line2d_28">
      <g>
       <use xlink:href="#m156bdbad5b" x="19.78" y="279.83945" style="stroke: #000000; stroke-width: 0.6"/>
      </g>
     </g>
    </g>
    <g id="ytick_10">
     <g id="line2d_29">
      <g>
       <use xlink:href="#m156bdbad5b" x="19.78" y="247.673996" style="stroke: #000000; stroke-width: 0.6"/>
      </g>
     </g>
    </g>
    <g id="ytick_11">
     <g id="line2d_30">
      <g>
       <use xlink:href="#m156bdbad5b" x="19.78" y="231.591269" style="stroke: #000000; stroke-width: 0.6"/>
      </g>
     </g>
    </g>
    <g id="ytick_12">
     <g id="line2d_31">
      <g>
       <use xlink:href="#m156bdbad5b" x="19.78" y="215.508542" style="stroke: #000000; stroke-width: 0.6"/>
      </g>
     </g>
    </g>
    <g id="ytick_13">
     <g id="line2d_32">
      <g>
       <use xlink:href="#m156bdbad5b" x="19.78" y="183.343088" style="stroke: #000000; stroke-width: 0.6"/>
      </g>
     </g>
    </g>
    <g id="ytick_14">
     <g id="line2d_33">
      <g>
       <use xlink:href="#m156bdbad5b" x="19.78" y="167.260361" style="stroke: #000000; stroke-width: 0.6"/>
      </g>
     </g>
    </g>
    <g id="ytick_15">
     <g id="line2d_34">
      <g>
       <use xlink:href="#m156bdbad5b" x="19.78" y="151.177634" style="stroke: #000000; stroke-width: 0.6"/>
      </g>
     </g>
    </g>
    <g id="ytick_16">
     <g id="line2d_35">
      <g>
       <use xlink:href="#m156bdbad5b" x="19.78" y="119.01218" style="stroke: #000000; stroke-width: 0.6"/>
      </g>
     </g>
    </g>
    <g id="ytick_17">
     <g id="line2d_36">
      <g>
       <use xlink:href="#m156bdbad5b" x="19.78" y="102.929453" style="stroke: #000000; stroke-width: 0.6"/>
      </g>
     </g>
    </g>
    <g id="ytick_18">
     <g id="line2d_37">
      <g>
       <use xlink:href="#m156bdbad5b" x="19.78" y="86.846726" style="stroke: #000000; stroke-width: 0.6"/>
      </g>
     </g>
    </g>
    <g id="ytick_19">
     <g id="line2d_38">
      <g>
       <use xlink:href="#m156bdbad5b" x="19.78" y="54.681272" style="stroke: #000000; stroke-width: 0.6"/>
      </g>
     </g>
    </g>
    <g id="ytick_20">
     <g id="line2d_39">
      <g>
       <use xlink:href="#m156bdbad5b" x="19.78" y="38.598545" style="stroke: #000000; stroke-width: 0.6"/>
      </g>
     </g>
    </g>
    <g id="ytick_21">
     <g id="line2d_40">
      <g>
       <use xlink:href="#m156bdbad5b" x="19.78" y="22.515818" style="stroke: #000000; stroke-width: 0.6"/>
      </g>
     </g>
    </g>
   </g>
   <g id="line2d_41">
    <path d="M 38.068846 328.087631 
L 38.275654 328.087631 
L 38.379057 328.087631 
L 38.430759 328.087631 
L 38.45661 328.087631 
" clip-path="url(#p08c6eb971c)" style="fill: none; stroke: #0000ff; stroke-linecap: square"/>
   </g>
   <g id="line2d_42">
    <path d="M 38.896076 295.922177 
L 39.548285 295.922177 
L 43.211126 295.922177 
L 44.570997 295.922177 
L 47.501208 295.922177 
L 48.607525 295.922177 
L 50.991057 295.922177 
L 52.263578 295.922177 
L 54.76133 295.922177 
L 56.755015 295.922177 
L 59.340301 295.922177 
L 60.665983 295.922177 
L 63.71682 295.922177 
L 65.239347 295.922177 
L 66.756049 295.922177 
L 69.753348 295.922177 
L 72.451332 295.922177 
L 74.093116 295.922177 
L 75.063047 295.922177 
L 78.061382 295.922177 
L 79.388424 295.922177 
L 81.669355 295.922177 
L 84.026077 295.922177 
L 84.321431 295.922177 
L 84.395269 295.922177 
" clip-path="url(#p08c6eb971c)" style="fill: none; stroke: #0000ff; stroke-linecap: square"/>
   </g>
   <g id="line2d_43">
    <path d="M 84.469108 263.756723 
L 84.616785 263.756723 
L 84.853307 263.756723 
L 85.981494 263.756723 
L 88.021464 263.756723 
L 90.978512 263.756723 
L 91.672747 263.756723 
L 94.003837 263.756723 
L 97.244455 263.756723 
L 97.987957 263.756723 
L 100.028327 263.756723 
L 103.496428 263.756723 
L 105.294268 263.756723 
L 106.061514 263.756723 
L 108.222016 263.756723 
L 111.372703 263.756723 
L 113.519385 263.756723 
L 114.613181 263.756723 
L 117.566306 263.756723 
L 118.883883 263.756723 
L 122.520232 263.756723 
L 123.49216 263.756723 
L 125.440673 263.756723 
L 128.445076 263.756723 
L 129.976964 263.756723 
L 129.983308 263.756723 
L 130.190115 263.756723 
L 130.293519 263.756723 
L 130.345221 263.756723 
" clip-path="url(#p08c6eb971c)" style="fill: none; stroke: #0000ff; stroke-linecap: square"/>
   </g>
   <g id="line2d_44">
    <path d="M 130.810538 231.591269 
L 131.363537 231.591269 
L 133.148928 231.591269 
L 136.263057 231.591269 
L 138.644029 231.591269 
L 140.63992 231.591269 
L 142.571003 231.591269 
L 144.209925 231.591269 
L 147.290252 231.591269 
L 148.947621 231.591269 
L 150.37199 231.591269 
L 153.637429 231.591269 
L 155.573325 231.591269 
L 156.207581 231.591269 
L 159.782867 231.591269 
L 161.857868 231.591269 
L 163.728466 231.591269 
L 165.629568 231.591269 
L 166.465939 231.591269 
L 170.340761 231.591269 
L 171.505461 231.591269 
L 173.759758 231.591269 
L 175.940539 231.591269 
L 176.331018 231.591269 
" clip-path="url(#p08c6eb971c)" style="fill: none; stroke: #0000ff; stroke-linecap: square"/>
   </g>
   <g id="line2d_45">
    <path d="M 176.385612 199.425815 
L 176.440206 199.425815 
L 176.549394 199.425815 
L 176.767769 199.425815 
L 177.043774 199.425815 
L 179.121962 199.425815 
L 182.265529 199.425815 
L 183.461559 199.425815 
L 185.93528 199.425815 
L 187.394142 199.425815 
L 191.156909 199.425815 
L 192.360978 199.425815 
L 193.460247 199.425815 
L 197.163861 199.425815 
L 198.28417 199.425815 
L 200.928178 199.425815 
L 203.435709 199.425815 
L 203.780538 199.425815 
L 206.327303 199.425815 
L 209.024849 199.425815 
L 211.397384 199.425815 
L 212.881244 199.425815 
L 215.187634 199.425815 
L 216.965865 199.425815 
L 220.273695 199.425815 
L 221.586443 199.425815 
L 221.89777 199.425815 
L 222.285043 199.425815 
" clip-path="url(#p08c6eb971c)" style="fill: none; stroke: #0000ff; stroke-linecap: square"/>
   </g>
   <g id="line2d_46">
    <path d="M 222.381861 167.260361 
L 222.478679 167.260361 
L 222.672316 167.260361 
L 222.725 167.260361 
L 226.104748 167.260361 
L 226.6758 167.260361 
L 229.470061 167.260361 
L 230.9168 167.260361 
L 234.328922 167.260361 
L 235.428829 167.260361 
L 238.409981 167.260361 
L 239.286625 167.260361 
L 241.997496 167.260361 
L 243.224635 167.260361 
L 246.271047 167.260361 
L 247.915759 167.260361 
L 250.520179 167.260361 
L 252.460419 167.260361 
L 253.885428 167.260361 
L 255.945336 167.260361 
L 258.905182 167.260361 
L 260.165206 167.260361 
L 263.555013 167.260361 
L 265.48455 167.260361 
L 266.212835 167.260361 
L 267.855 167.260361 
L 268.061808 167.260361 
L 268.165212 167.260361 
L 268.216914 167.260361 
" clip-path="url(#p08c6eb971c)" style="fill: none; stroke: #0000ff; stroke-linecap: square"/>
   </g>
   <g id="line2d_47">
    <path d="M 268.68223 135.094907 
L 269.82821 135.094907 
L 270.506378 135.094907 
L 272.664284 135.094907 
L 275.747922 135.094907 
L 276.986681 135.094907 
L 278.903594 135.094907 
L 282.358765 135.094907 
L 282.763566 135.094907 
L 285.769189 135.094907 
L 288.395727 135.094907 
L 290.866486 135.094907 
L 292.809724 135.094907 
L 293.242818 135.094907 
L 296.468061 135.094907 
L 297.357811 135.094907 
L 300.908076 135.094907 
L 302.365408 135.094907 
L 305.436976 135.094907 
L 305.679943 135.094907 
L 307.853566 135.094907 
L 310.697658 135.094907 
L 312.028041 135.094907 
L 313.812231 135.094907 
L 314.019039 135.094907 
L 314.122442 135.094907 
L 314.174144 135.094907 
" clip-path="url(#p08c6eb971c)" style="fill: none; stroke: #0000ff; stroke-linecap: square"/>
   </g>
   <g id="line2d_48">
    <path d="M 314.639461 102.929453 
L 314.99245 102.929453 
L 317.823241 102.929453 
L 318.053792 102.929453 
L 320.821226 102.929453 
L 324.098354 102.929453 
L 324.976505 102.929453 
L 326.941047 102.929453 
L 329.80588 102.929453 
L 331.326189 102.929453 
L 332.921645 102.929453 
L 335.256635 102.929453 
L 337.622752 102.929453 
L 339.231535 102.929453 
L 341.66209 102.929453 
L 344.221381 102.929453 
L 345.698628 102.929453 
L 347.885582 102.929453 
L 351.217439 102.929453 
L 352.597919 102.929453 
L 353.903069 102.929453 
L 356.548208 102.929453 
L 358.304473 102.929453 
L 359.769462 102.929453 
L 360.06445 102.929453 
L 360.13098 102.929453 
L 360.164245 102.929453 
" clip-path="url(#p08c6eb971c)" style="fill: none; stroke: #0000ff; stroke-linecap: square"/>
   </g>
   <g id="line2d_49">
    <path d="M 360.330571 70.763999 
L 360.596692 70.763999 
L 361.754113 70.763999 
L 365.409577 70.763999 
L 366.054531 70.763999 
L 369.748937 70.763999 
L 371.899456 70.763999 
L 373.372819 70.763999 
L 375.927334 70.763999 
L 377.807369 70.763999 
L 379.899028 70.763999 
L 381.304658 70.763999 
L 384.015099 70.763999 
L 385.769955 70.763999 
L 387.536676 70.763999 
L 390.291536 70.763999 
L 391.903382 70.763999 
L 394.126172 70.763999 
L 395.048505 70.763999 
L 397.394781 70.763999 
L 399.834024 70.763999 
L 402.220129 70.763999 
L 405.182021 70.763999 
L 405.705404 70.763999 
L 405.726693 70.763999 
L 405.9335 70.763999 
L 406.036904 70.763999 
L 406.088606 70.763999 
" clip-path="url(#p08c6eb971c)" style="fill: none; stroke: #0000ff; stroke-linecap: square"/>
   </g>
   <g id="line2d_50">
    <path d="M 406.553923 38.598545 
L 409.320801 38.598545 
L 410.069516 38.598545 
L 413.328816 38.598545 
L 414.001168 38.598545 
L 416.143732 38.598545 
L 419.330436 38.598545 
L 421.652291 38.598545 
L 423.11223 38.598545 
L 424.353672 38.598545 
L 428.143984 38.598545 
L 429.328742 38.598545 
L 431.610884 38.598545 
L 433.249012 38.598545 
L 436.162474 38.598545 
L 437.777011 38.598545 
L 438.759854 38.598545 
L 441.972801 38.598545 
L 443.650881 38.598545 
L 446.016524 38.598545 
L 448.147482 38.598545 
L 450.675938 38.598545 
L 451.683924 38.598545 
L 451.890731 38.598545 
L 451.994135 38.598545 
L 452.045837 38.598545 
L 452.071688 38.598545 
" clip-path="url(#p08c6eb971c)" style="fill: none; stroke: #0000ff; stroke-linecap: square"/>
   </g>
   <g id="line2d_51">
    <path d="M 452.511154 6.433091 
" clip-path="url(#p08c6eb971c)" style="fill: none; stroke: #0000ff; stroke-linecap: square"/>
   </g>
   <g id="patch_3">
    <path d="M 19.78 334.520722 
L 19.78 0 
" style="fill: none; stroke: #000000; stroke-width: 0.8; stroke-linejoin: miter; stroke-linecap: square"/>
   </g>
   <g id="patch_4">
    <path d="M 29.78 328.087631 
L 460.8 328.087631 
" style="fill: none; stroke: #000000; stroke-width: 0.8; stroke-linejoin: miter; stroke-linecap: square"/>
   </g>
  </g>
 </g>
 <defs>
  <clipPath id="p08c6eb971c">
   <rect x="29.78" y="0" width="431.02" height="334.520722"/>
  </clipPath>
 </defs>
</svg>
