<?xml version="1.0" encoding="utf-8" standalone="no"?>
<!DOCTYPE svg PUBLIC "-//W3C//DTD SVG 1.1//EN"
  "http://www.w3.org/Graphics/SVG/1.1/DTD/svg11.dtd">
<svg xmlns:xlink="http://www.w3.org/1999/xlink" width="460.8pt" height="345.6pt" viewBox="0 0 460.8 345.6" xmlns="http://www.w3.org/2000/svg" version="1.1">
 <metadata>
  <rdf:RDF xmlns:dc="http://purl.org/dc/elements/1.1/" xmlns:cc="http://creativecommons.org/ns#" xmlns:rdf="http://www.w3.org/1999/02/22-rdf-syntax-ns#">
   <cc:Work>
    <dc:type rdf:resource="http://purl.org/dc/dcmitype/StillImage"/>
    <dc:date>2025-08-01T22:08:52.976688</dc:date>
    <dc:format>image/svg+xml</dc:format>
    <dc:creator>
     <cc:Agent>
      <dc:title>Matplotlib v3.10.3, https://matplotlib.org/</dc:title>
     </cc:Agent>
    </dc:creator>
   </cc:Work>
  </rdf:RDF>
 </metadata>
 <defs>
  <style type="text/css">*{stroke-linejoin: round; stroke-linecap: butt}</style>
 </defs>
 <g id="figure_1">
  <g id="patch_1">
   <path d="M 0 345.6 
L 460.8 345.6 
L 460.8 0 
L 0 0 
z
" style="fill: #ffffff"/>
  </g>
  <g id="axes_1">
   <g id="patch_2">
    <path d="M 57.595965 345.6 
L 403.204035 345.6 
L 403.204035 0 
L 57.595965 0 
z
" style="fill: #ffffff"/>
   </g>
   <g id="matplotlib.axis_1">
    <g id="xtick_1">
     <g id="line2d_1">
      <defs>
       <path id="m3e8871d4e1" d="M 0 0 
L 0 3.5 
" style="stroke: #000000; stroke-width: 0.8"/>
      </defs>
      <g>
       <use xlink:href="#m3e8871d4e1" x="64.222294" y="172.78601" style="stroke: #000000; stroke-width: 0.8"/>
      </g>
     </g>
     <g id="text_1">
      <!-- −1.0 -->
      <g transform="translate(52.080888 187.384447) scale(0.1 -0.1)">
       <defs>
        <path id="DejaVuSans-2212" d="M 678 2272 
L 4684 2272 
L 4684 1741 
L 678 1741 
L 678 2272 
z
" transform="scale(0.015625)"/>
        <path id="DejaVuSans-31" d="M 794 531 
L 1825 531 
L 1825 4091 
L 703 3866 
L 703 4441 
L 1819 4666 
L 2450 4666 
L 2450 531 
L 3481 531 
L 3481 0 
L 794 0 
L 794 531 
z
" transform="scale(0.015625)"/>
        <path id="DejaVuSans-2e" d="M 684 794 
L 1344 794 
L 1344 0 
L 684 0 
L 684 794 
z
" transform="scale(0.015625)"/>
        <path id="DejaVuSans-30" d="M 2034 4250 
Q 1547 4250 1301 3770 
Q 1056 3291 1056 2328 
Q 1056 1369 1301 889 
Q 1547 409 2034 409 
Q 2525 409 2770 889 
Q 3016 1369 3016 2328 
Q 3016 3291 2770 3770 
Q 2525 4250 2034 4250 
z
M 2034 4750 
Q 2819 4750 3233 4129 
Q 3647 3509 3647 2328 
Q 3647 1150 3233 529 
Q 2819 -91 2034 -91 
Q 1250 -91 836 529 
Q 422 1150 422 2328 
Q 422 3509 836 4129 
Q 1250 4750 2034 4750 
z
" transform="scale(0.015625)"/>
       </defs>
       <use xlink:href="#DejaVuSans-2212"/>
       <use xlink:href="#DejaVuSans-31" transform="translate(83.789062 0)"/>
       <use xlink:href="#DejaVuSans-2e" transform="translate(147.412109 0)"/>
       <use xlink:href="#DejaVuSans-30" transform="translate(179.199219 0)"/>
      </g>
     </g>
    </g>
    <g id="xtick_2">
     <g id="line2d_2">
      <g>
       <use xlink:href="#m3e8871d4e1" x="147.306414" y="172.78601" style="stroke: #000000; stroke-width: 0.8"/>
      </g>
     </g>
     <g id="text_2">
      <!-- −0.5 -->
      <g transform="translate(135.165008 187.384447) scale(0.1 -0.1)">
       <defs>
        <path id="DejaVuSans-35" d="M 691 4666 
L 3169 4666 
L 3169 4134 
L 1269 4134 
L 1269 2991 
Q 1406 3038 1543 3061 
Q 1681 3084 1819 3084 
Q 2600 3084 3056 2656 
Q 3513 2228 3513 1497 
Q 3513 744 3044 326 
Q 2575 -91 1722 -91 
Q 1428 -91 1123 -41 
Q 819 9 494 109 
L 494 744 
Q 775 591 1075 516 
Q 1375 441 1709 441 
Q 2250 441 2565 725 
Q 2881 1009 2881 1497 
Q 2881 1984 2565 2268 
Q 2250 2553 1709 2553 
Q 1456 2553 1204 2497 
Q 953 2441 691 2322 
L 691 4666 
z
" transform="scale(0.015625)"/>
       </defs>
       <use xlink:href="#DejaVuSans-2212"/>
       <use xlink:href="#DejaVuSans-30" transform="translate(83.789062 0)"/>
       <use xlink:href="#DejaVuSans-2e" transform="translate(147.412109 0)"/>
       <use xlink:href="#DejaVuSans-35" transform="translate(179.199219 0)"/>
      </g>
     </g>
    </g>
    <g id="xtick_3">
     <g id="line2d_3">
      <g>
       <use xlink:href="#m3e8871d4e1" x="230.390534" y="172.78601" style="stroke: #000000; stroke-width: 0.8"/>
      </g>
     </g>
    </g>
    <g id="xtick_4">
     <g id="line2d_4">
      <g>
       <use xlink:href="#m3e8871d4e1" x="313.474655" y="172.78601" style="stroke: #000000; stroke-width: 0.8"/>
      </g>
     </g>
     <g id="text_3">
      <!-- 0.5 -->
      <g transform="translate(305.523092 187.384447) scale(0.1 -0.1)">
       <use xlink:href="#DejaVuSans-30"/>
       <use xlink:href="#DejaVuSans-2e" transform="translate(63.623047 0)"/>
       <use xlink:href="#DejaVuSans-35" transform="translate(95.410156 0)"/>
      </g>
     </g>
    </g>
    <g id="xtick_5">
     <g id="line2d_5">
      <g>
       <use xlink:href="#m3e8871d4e1" x="396.558775" y="172.78601" style="stroke: #000000; stroke-width: 0.8"/>
      </g>
     </g>
     <g id="text_4">
      <!-- 1.0 -->
      <g transform="translate(388.607212 187.384447) scale(0.1 -0.1)">
       <use xlink:href="#DejaVuSans-31"/>
       <use xlink:href="#DejaVuSans-2e" transform="translate(63.623047 0)"/>
       <use xlink:href="#DejaVuSans-30" transform="translate(95.410156 0)"/>
      </g>
     </g>
    </g>
    <g id="xtick_6">
     <g id="line2d_6">
      <defs>
       <path id="m5816ca6ae5" d="M 0 0 
L 0 2 
" style="stroke: #000000; stroke-width: 0.6"/>
      </defs>
      <g>
       <use xlink:href="#m5816ca6ae5" x="80.839118" y="172.78601" style="stroke: #000000; stroke-width: 0.6"/>
      </g>
     </g>
    </g>
    <g id="xtick_7">
     <g id="line2d_7">
      <g>
       <use xlink:href="#m5816ca6ae5" x="97.455942" y="172.78601" style="stroke: #000000; stroke-width: 0.6"/>
      </g>
     </g>
    </g>
    <g id="xtick_8">
     <g id="line2d_8">
      <g>
       <use xlink:href="#m5816ca6ae5" x="114.072766" y="172.78601" style="stroke: #000000; stroke-width: 0.6"/>
      </g>
     </g>
    </g>
    <g id="xtick_9">
     <g id="line2d_9">
      <g>
       <use xlink:href="#m5816ca6ae5" x="130.68959" y="172.78601" style="stroke: #000000; stroke-width: 0.6"/>
      </g>
     </g>
    </g>
    <g id="xtick_10">
     <g id="line2d_10">
      <g>
       <use xlink:href="#m5816ca6ae5" x="163.923238" y="172.78601" style="stroke: #000000; stroke-width: 0.6"/>
      </g>
     </g>
    </g>
    <g id="xtick_11">
     <g id="line2d_11">
      <g>
       <use xlink:href="#m5816ca6ae5" x="180.540062" y="172.78601" style="stroke: #000000; stroke-width: 0.6"/>
      </g>
     </g>
    </g>
    <g id="xtick_12">
     <g id="line2d_12">
      <g>
       <use xlink:href="#m5816ca6ae5" x="197.156886" y="172.78601" style="stroke: #000000; stroke-width: 0.6"/>
      </g>
     </g>
    </g>
    <g id="xtick_13">
     <g id="line2d_13">
      <g>
       <use xlink:href="#m5816ca6ae5" x="213.77371" y="172.78601" style="stroke: #000000; stroke-width: 0.6"/>
      </g>
     </g>
    </g>
    <g id="xtick_14">
     <g id="line2d_14">
      <g>
       <use xlink:href="#m5816ca6ae5" x="247.007358" y="172.78601" style="stroke: #000000; stroke-width: 0.6"/>
      </g>
     </g>
    </g>
    <g id="xtick_15">
     <g id="line2d_15">
      <g>
       <use xlink:href="#m5816ca6ae5" x="263.624182" y="172.78601" style="stroke: #000000; stroke-width: 0.6"/>
      </g>
     </g>
    </g>
    <g id="xtick_16">
     <g id="line2d_16">
      <g>
       <use xlink:href="#m5816ca6ae5" x="280.241007" y="172.78601" style="stroke: #000000; stroke-width: 0.6"/>
      </g>
     </g>
    </g>
    <g id="xtick_17">
     <g id="line2d_17">
      <g>
       <use xlink:href="#m5816ca6ae5" x="296.857831" y="172.78601" style="stroke: #000000; stroke-width: 0.6"/>
      </g>
     </g>
    </g>
    <g id="xtick_18">
     <g id="line2d_18">
      <g>
       <use xlink:href="#m5816ca6ae5" x="330.091479" y="172.78601" style="stroke: #000000; stroke-width: 0.6"/>
      </g>
     </g>
    </g>
    <g id="xtick_19">
     <g id="line2d_19">
      <g>
       <use xlink:href="#m5816ca6ae5" x="346.708303" y="172.78601" style="stroke: #000000; stroke-width: 0.6"/>
      </g>
     </g>
    </g>
    <g id="xtick_20">
     <g id="line2d_20">
      <g>
       <use xlink:href="#m5816ca6ae5" x="363.325127" y="172.78601" style="stroke: #000000; stroke-width: 0.6"/>
      </g>
     </g>
    </g>
    <g id="xtick_21">
     <g id="line2d_21">
      <g>
       <use xlink:href="#m5816ca6ae5" x="379.941951" y="172.78601" style="stroke: #000000; stroke-width: 0.6"/>
      </g>
     </g>
    </g>
   </g>
   <g id="matplotlib.axis_2">
    <g id="ytick_1">
     <g id="line2d_22">
      <defs>
       <path id="md3b7086ce7" d="M 0 0 
L -3.5 0 
" style="stroke: #000000; stroke-width: 0.8"/>
      </defs>
      <g>
       <use xlink:href="#md3b7086ce7" x="230.390534" y="338.95425" style="stroke: #000000; stroke-width: 0.8"/>
      </g>
     </g>
     <g id="text_5">
      <!-- −1.0 -->
      <g transform="translate(199.107722 342.753469) scale(0.1 -0.1)">
       <use xlink:href="#DejaVuSans-2212"/>
       <use xlink:href="#DejaVuSans-31" transform="translate(83.789062 0)"/>
       <use xlink:href="#DejaVuSans-2e" transform="translate(147.412109 0)"/>
       <use xlink:href="#DejaVuSans-30" transform="translate(179.199219 0)"/>
      </g>
     </g>
    </g>
    <g id="ytick_2">
     <g id="line2d_23">
      <g>
       <use xlink:href="#md3b7086ce7" x="230.390534" y="255.87013" style="stroke: #000000; stroke-width: 0.8"/>
      </g>
     </g>
     <g id="text_6">
      <!-- −0.5 -->
      <g transform="translate(199.107722 259.669349) scale(0.1 -0.1)">
       <use xlink:href="#DejaVuSans-2212"/>
       <use xlink:href="#DejaVuSans-30" transform="translate(83.789062 0)"/>
       <use xlink:href="#DejaVuSans-2e" transform="translate(147.412109 0)"/>
       <use xlink:href="#DejaVuSans-35" transform="translate(179.199219 0)"/>
      </g>
     </g>
    </g>
    <g id="ytick_3">
     <g id="line2d_24">
      <g>
       <use xlink:href="#md3b7086ce7" x="230.390534" y="172.78601" style="stroke: #000000; stroke-width: 0.8"/>
      </g>
     </g>
    </g>
    <g id="ytick_4">
     <g id="line2d_25">
      <g>
       <use xlink:href="#md3b7086ce7" x="230.390534" y="89.70189" style="stroke: #000000; stroke-width: 0.8"/>
      </g>
     </g>
     <g id="text_7">
      <!-- 0.5 -->
      <g transform="translate(207.487409 93.501108) scale(0.1 -0.1)">
       <use xlink:href="#DejaVuSans-30"/>
       <use xlink:href="#DejaVuSans-2e" transform="translate(63.623047 0)"/>
       <use xlink:href="#DejaVuSans-35" transform="translate(95.410156 0)"/>
      </g>
     </g>
    </g>
    <g id="ytick_5">
     <g id="line2d_26">
      <g>
       <use xlink:href="#md3b7086ce7" x="230.390534" y="6.617769" style="stroke: #000000; stroke-width: 0.8"/>
      </g>
     </g>
     <g id="text_8">
      <!-- 1.0 -->
      <g transform="translate(207.487409 10.416988) scale(0.1 -0.1)">
       <use xlink:href="#DejaVuSans-31"/>
       <use xlink:href="#DejaVuSans-2e" transform="translate(63.623047 0)"/>
       <use xlink:href="#DejaVuSans-30" transform="translate(95.410156 0)"/>
      </g>
     </g>
    </g>
    <g id="ytick_6">
     <g id="line2d_27">
      <defs>
       <path id="mb675caf0e5" d="M 0 0 
L -2 0 
" style="stroke: #000000; stroke-width: 0.6"/>
      </defs>
      <g>
       <use xlink:href="#mb675caf0e5" x="230.390534" y="322.337426" style="stroke: #000000; stroke-width: 0.6"/>
      </g>
     </g>
    </g>
    <g id="ytick_7">
     <g id="line2d_28">
      <g>
       <use xlink:href="#mb675caf0e5" x="230.390534" y="305.720602" style="stroke: #000000; stroke-width: 0.6"/>
      </g>
     </g>
    </g>
    <g id="ytick_8">
     <g id="line2d_29">
      <g>
       <use xlink:href="#mb675caf0e5" x="230.390534" y="289.103778" style="stroke: #000000; stroke-width: 0.6"/>
      </g>
     </g>
    </g>
    <g id="ytick_9">
     <g id="line2d_30">
      <g>
       <use xlink:href="#mb675caf0e5" x="230.390534" y="272.486954" style="stroke: #000000; stroke-width: 0.6"/>
      </g>
     </g>
    </g>
    <g id="ytick_10">
     <g id="line2d_31">
      <g>
       <use xlink:href="#mb675caf0e5" x="230.390534" y="239.253306" style="stroke: #000000; stroke-width: 0.6"/>
      </g>
     </g>
    </g>
    <g id="ytick_11">
     <g id="line2d_32">
      <g>
       <use xlink:href="#mb675caf0e5" x="230.390534" y="222.636482" style="stroke: #000000; stroke-width: 0.6"/>
      </g>
     </g>
    </g>
    <g id="ytick_12">
     <g id="line2d_33">
      <g>
       <use xlink:href="#mb675caf0e5" x="230.390534" y="206.019658" style="stroke: #000000; stroke-width: 0.6"/>
      </g>
     </g>
    </g>
    <g id="ytick_13">
     <g id="line2d_34">
      <g>
       <use xlink:href="#mb675caf0e5" x="230.390534" y="189.402834" style="stroke: #000000; stroke-width: 0.6"/>
      </g>
     </g>
    </g>
    <g id="ytick_14">
     <g id="line2d_35">
      <g>
       <use xlink:href="#mb675caf0e5" x="230.390534" y="156.169186" style="stroke: #000000; stroke-width: 0.6"/>
      </g>
     </g>
    </g>
    <g id="ytick_15">
     <g id="line2d_36">
      <g>
       <use xlink:href="#mb675caf0e5" x="230.390534" y="139.552362" style="stroke: #000000; stroke-width: 0.6"/>
      </g>
     </g>
    </g>
    <g id="ytick_16">
     <g id="line2d_37">
      <g>
       <use xlink:href="#mb675caf0e5" x="230.390534" y="122.935538" style="stroke: #000000; stroke-width: 0.6"/>
      </g>
     </g>
    </g>
    <g id="ytick_17">
     <g id="line2d_38">
      <g>
       <use xlink:href="#mb675caf0e5" x="230.390534" y="106.318714" style="stroke: #000000; stroke-width: 0.6"/>
      </g>
     </g>
    </g>
    <g id="ytick_18">
     <g id="line2d_39">
      <g>
       <use xlink:href="#mb675caf0e5" x="230.390534" y="73.085066" style="stroke: #000000; stroke-width: 0.6"/>
      </g>
     </g>
    </g>
    <g id="ytick_19">
     <g id="line2d_40">
      <g>
       <use xlink:href="#mb675caf0e5" x="230.390534" y="56.468242" style="stroke: #000000; stroke-width: 0.6"/>
      </g>
     </g>
    </g>
    <g id="ytick_20">
     <g id="line2d_41">
      <g>
       <use xlink:href="#mb675caf0e5" x="230.390534" y="39.851417" style="stroke: #000000; stroke-width: 0.6"/>
      </g>
     </g>
    </g>
    <g id="ytick_21">
     <g id="line2d_42">
      <g>
       <use xlink:href="#mb675caf0e5" x="230.390534" y="23.234593" style="stroke: #000000; stroke-width: 0.6"/>
      </g>
     </g>
    </g>
   </g>
   <g id="line2d_43">
    <path d="M 230.390534 172.78601 
L 247.519931 138.709727 
L 259.235603 115.971719 
L 264.518548 105.985077 
L 270.352864 95.207073 
L 275.841251 85.351043 
L 281.457801 75.594239 
L 288.319989 64.195577 
L 293.399129 56.179702 
L 298.147382 49.049957 
L 301.245531 44.604748 
L 305.387226 38.938337 
L 311.134263 31.64504 
L 316.124121 25.903453 
L 319.944869 21.914609 
L 324.157237 17.962522 
L 327.080146 15.515285 
L 334.311092 10.605626 
L 336.519404 9.460097 
L 340.469998 7.865145 
L 344.404125 6.901781 
L 348.970093 6.646154 
L 350.933443 6.846826 
L 354.44611 7.71487 
L 360.125502 10.656171 
L 363.501771 13.430566 
L 366.610111 16.761663 
L 367.867024 18.341737 
L 371.600932 23.922239 
L 375.23291 30.80883 
L 378.288391 37.943069 
L 380.058192 42.742007 
L 382.099977 48.994547 
L 384.01269 55.66828 
L 385.197545 60.268257 
L 387.706819 71.46441 
L 389.630104 81.779614 
L 391.480318 93.743445 
L 393.399462 109.515033 
L 394.302506 118.946901 
L 395.408882 134.026404 
L 395.799618 141.199656 
L 396.202703 151.087835 
L 396.557726 171.605376 
L 396.492781 182.147745 
L 396.144791 196.172041 
L 395.814582 204.063043 
L 394.655271 222.370385 
L 393.413572 235.922355 
L 391.999996 247.976467 
L 390.836045 256.274846 
L 389.711738 263.312429 
L 387.803184 273.631332 
L 386.298481 280.658185 
L 384.239784 289.051754 
L 383.125205 293.107879 
L 381.112519 299.704418 
L 377.954463 308.47622 
L 374.939204 315.380272 
L 371.358668 322.055051 
L 368.904874 325.816766 
L 365.745853 329.816638 
L 362.011172 333.468725 
L 358.790337 335.792035 
L 355.287483 337.54646 
L 349.344049 338.902661 
L 347.759559 338.953846 
L 342.706443 338.334699 
L 340.261387 337.637883 
L 335.052889 335.370711 
L 328.174047 330.906971 
L 324.020282 327.488742 
L 319.247219 322.956846 
L 315.149998 318.593588 
L 308.988801 311.285619 
L 303.217189 303.705479 
L 299.541191 298.542935 
L 291.290012 286.110297 
L 283.943497 274.177176 
L 273.737824 256.47884 
L 264.322928 239.22076 
L 261.122648 233.1899 
L 251.297398 214.267461 
L 235.021404 182.044152 
L 214.342388 140.839754 
L 203.823944 120.336289 
L 191.279348 96.761249 
L 186.125977 87.455719 
L 179.040384 75.112489 
L 173.582205 66.015165 
L 168.531369 57.959914 
L 159.868253 45.073902 
L 156.111849 39.897059 
L 151.601089 34.047004 
L 147.379641 28.964709 
L 144.189515 25.395811 
L 140.767063 21.845877 
L 135.524044 17.01234 
L 130.874651 13.394592 
L 123.179055 8.963634 
L 116.990886 7.008703 
L 115.949787 6.837191 
L 109.709346 6.868415 
L 108.224426 7.164109 
L 102.886357 9.258165 
L 100.665686 10.649077 
L 96.457811 14.234753 
L 95.463601 15.280004 
L 90.993727 21.038193 
L 89.186854 23.910916 
L 86.748653 28.356358 
L 83.450224 35.55993 
L 80.341157 43.849353 
L 77.077449 54.530168 
L 74.653134 64.168754 
L 72.396428 74.899007 
L 70.410904 86.279162 
L 69.263838 94.008743 
L 68.232626 101.964853 
L 66.525039 118.414479 
L 65.530254 131.497612 
L 64.964281 141.554841 
L 64.379232 158.359195 
L 64.242274 167.63313 
L 64.411246 188.612236 
L 65.030545 205.365614 
L 65.954446 220.147612 
L 67.114585 233.447922 
L 68.743094 247.684543 
L 70.272801 258.414147 
L 71.444103 265.484794 
L 73.15676 274.512365 
L 74.996278 282.873457 
L 76.927925 290.494293 
L 78.8381 297.088268 
L 81.608824 305.299092 
L 84.075576 311.493591 
L 86.18609 316.089269 
L 89.218868 321.714999 
L 92.948919 327.276041 
L 94.145122 328.779285 
L 96.891346 331.76826 
L 99.744478 334.248081 
L 103.530569 336.65745 
L 105.968151 337.726766 
L 108.363967 338.44074 
L 111.764749 338.923374 
L 114.821461 338.866063 
L 119.336796 338.005749 
L 125.876447 335.291458 
L 129.784028 332.928146 
L 132.63178 330.888134 
L 135.476363 328.600082 
L 142.664924 321.794337 
L 145.648632 318.573999 
L 149.474345 314.134933 
L 153.39554 309.247689 
L 160.614172 299.439028 
L 166.662646 290.495876 
L 172.688587 281.008612 
L 178.243933 271.810647 
L 182.759784 264.050134 
L 192.508449 246.555095 
L 201.939931 228.846989 
L 213.341879 206.703383 
L 230.390534 172.78601 
L 230.390534 172.78601 
" clip-path="url(#pdce6d45871)" style="fill: none; stroke: #008000; stroke-linecap: square"/>
   </g>
   <g id="patch_3">
    <path d="M 230.390534 345.6 
L 230.390534 0 
" style="fill: none; stroke: #000000; stroke-width: 0.8; stroke-linejoin: miter; stroke-linecap: square"/>
   </g>
   <g id="patch_4">
    <path d="M 57.595965 172.78601 
L 403.204035 172.78601 
" style="fill: none; stroke: #000000; stroke-width: 0.8; stroke-linejoin: miter; stroke-linecap: square"/>
   </g>
  </g>
 </g>
 <defs>
  <clipPath id="pdce6d45871">
   <rect x="57.595965" y="0" width="345.608071" height="345.6"/>
  </clipPath>
 </defs>
</svg>
