<?xml version="1.0" encoding="utf-8" standalone="no"?>
<!DOCTYPE svg PUBLIC "-//W3C//DTD SVG 1.1//EN"
  "http://www.w3.org/Graphics/SVG/1.1/DTD/svg11.dtd">
<svg xmlns:xlink="http://www.w3.org/1999/xlink" width="460.8pt" height="345.6pt" viewBox="0 0 460.8 345.6" xmlns="http://www.w3.org/2000/svg" version="1.1">
 <metadata>
  <rdf:RDF xmlns:dc="http://purl.org/dc/elements/1.1/" xmlns:cc="http://creativecommons.org/ns#" xmlns:rdf="http://www.w3.org/1999/02/22-rdf-syntax-ns#">
   <cc:Work>
    <dc:type rdf:resource="http://purl.org/dc/dcmitype/StillImage"/>
    <dc:date>2025-08-02T18:54:29.832038</dc:date>
    <dc:format>image/svg+xml</dc:format>
    <dc:creator>
     <cc:Agent>
      <dc:title>Matplotlib v3.10.3, https://matplotlib.org/</dc:title>
     </cc:Agent>
    </dc:creator>
   </cc:Work>
  </rdf:RDF>
 </metadata>
 <defs>
  <style type="text/css">*{stroke-linejoin: round; stroke-linecap: butt}</style>
 </defs>
 <g id="figure_1">
  <g id="patch_1">
   <path d="M 0 345.6 
L 460.8 345.6 
L 460.8 0 
L 0 0 
z
" style="fill: #ffffff"/>
  </g>
  <g id="axes_1">
   <g id="patch_2">
    <path d="M 9.33054 334.520722 
L 459.416766 334.520722 
L 459.416766 0 
L 9.33054 0 
z
" style="fill: #ffffff"/>
   </g>
   <g id="patch_3">
    <path d="M 450.761262 6.433091 
L 450.722077 13.994156 
L 450.682893 13.994156 
L 450.604523 13.994156 
L 450.447784 13.994156 
L 450.134306 13.994156 
L 449.507351 13.994156 
L 447.641165 13.994156 
L 446.708072 13.994156 
L 446.474799 13.994156 
L 446.358162 12.002499 
L 446.241525 12.002499 
L 445.774979 12.002499 
L 443.684914 12.002499 
L 442.798169 12.002499 
L 442.354797 12.002499 
L 442.13311 12.002499 
L 442.022267 12.002499 
L 441.966846 16.099215 
L 441.911424 16.099215 
L 440.58 16.099215 
L 437.638751 16.565308 
L 435.935988 16.565308 
L 433.381511 16.565308 
L 433.288556 16.565308 
L 433.195601 15.789517 
L 433.009691 15.789517 
L 432.637871 15.789517 
L 431.894232 15.789517 
L 430.406952 15.789517 
L 429.430697 15.789517 
L 428.942569 15.789517 
L 428.881553 17.527244 
L 428.820537 17.527244 
L 428.698505 17.527244 
L 428.454441 17.527244 
L 426.121094 17.527244 
L 424.925948 17.527244 
L 424.627161 17.527244 
L 424.552464 17.527244 
L 424.477768 16.745113 
L 424.328374 16.745113 
L 423.730801 16.745113 
L 422.53153 16.745113 
L 420.658106 16.745113 
L 420.367402 16.745113 
L 420.22205 16.745113 
L 420.149374 18.531003 
L 420.076698 18.531003 
L 419.49529 18.531003 
L 418.332475 18.531003 
L 416.446149 18.531003 
L 415.846522 18.531003 
L 415.771568 22.969575 
L 415.696615 22.969575 
L 415.546708 22.969575 
L 415.246894 22.969575 
L 414.04764 22.969575 
L 411.943162 22.969575 
L 411.547738 22.969575 
L 411.448882 22.969575 
L 411.350026 22.221843 
L 411.152314 22.221843 
L 410.361465 22.221843 
L 408.779768 22.221843 
L 407.630151 22.221843 
L 407.125836 22.221843 
L 407.062797 22.221843 
L 406.999757 20.121229 
L 406.873679 20.121229 
L 406.621521 20.121229 
L 405.612891 20.121229 
L 403.089177 20.121229 
L 402.701978 20.121229 
L 402.605178 19.324136 
L 402.508378 19.324136 
L 402.314778 19.324136 
L 401.54038 19.324136 
L 399.991583 19.324136 
L 399.079944 19.324136 
L 398.624125 19.324136 
L 398.396215 19.324136 
L 398.339237 19.324136 
L 398.28226 21.242307 
L 398.168305 21.242307 
L 397.242149 21.242307 
L 393.265226 21.8224 
L 392.787783 21.8224 
L 390.823304 21.8224 
L 389.841065 21.8224 
L 389.595505 21.8224 
L 389.472725 21.017188 
L 389.349945 21.017188 
L 388.858826 21.017188 
L 387.953789 21.017188 
L 385.815853 21.017188 
L 384.249105 21.608413 
L 380.964423 21.608413 
L 380.832061 21.608413 
L 380.76588 19.348556 
L 380.6997 19.348556 
L 380.434976 19.348556 
L 379.90553 19.348556 
L 378.846637 19.348556 
L 377.425602 19.348556 
L 376.715084 19.348556 
L 376.537455 19.348556 
L 376.44864 19.348556 
L 376.359826 22.834123 
L 376.004567 22.834123 
L 373.903151 22.834123 
L 373.496756 22.834123 
L 372.739977 22.834123 
L 372.361587 22.834123 
L 372.172393 22.834123 
L 372.077795 22.834123 
L 371.983198 20.533599 
L 370.469639 20.533599 
L 368.476003 20.533599 
L 368.064717 20.533599 
L 367.859074 20.533599 
L 367.756252 20.533599 
L 367.704841 20.533599 
L 367.653431 24.121118 
L 366.830859 24.121118 
L 364.457657 24.121118 
L 363.337941 24.121118 
L 363.267959 26.294256 
L 363.197976 26.294256 
L 363.058012 26.294256 
L 362.778083 26.294256 
L 362.218224 26.294256 
L 359.358192 26.294256 
L 359.092799 26.294256 
L 359.02645 26.294256 
L 358.960102 25.474113 
L 358.827405 25.474113 
L 358.296618 25.474113 
L 357.235044 25.474113 
L 354.733124 25.474113 
L 354.639215 25.474113 
L 354.59226 25.474113 
L 354.545305 27.721267 
L 354.357487 27.721267 
L 353.981849 27.721267 
L 353.230574 27.721267 
L 351.654571 27.721267 
L 350.866569 27.721267 
L 350.472569 27.721267 
L 350.275568 27.721267 
L 350.177068 28.462938 
L 350.078568 28.462938 
L 349.439003 28.462938 
L 347.403996 28.462938 
L 346.386493 28.462938 
L 345.877741 28.462938 
L 345.750553 27.638905 
L 345.623365 27.638905 
L 345.36899 27.638905 
L 343.15666 27.638905 
L 343.02307 27.638905 
L 342.247898 27.638905 
L 341.860313 27.638905 
L 341.66652 27.638905 
L 341.569624 27.638905 
L 341.472727 28.399507 
L 339.922385 28.399507 
L 338.171077 28.399507 
L 337.622032 28.399507 
L 337.34751 28.399507 
L 337.210249 28.399507 
L 337.141619 28.399507 
L 337.072988 29.180948 
L 335.9749 29.180948 
L 333.138119 29.180948 
L 332.875113 29.180948 
L 332.74361 29.180948 
L 332.677859 31.635639 
L 332.612107 31.635639 
L 332.086096 31.635639 
L 331.034072 31.635639 
L 328.480183 31.635639 
L 328.402886 31.635639 
L 328.364237 31.635639 
L 328.325588 32.484672 
L 328.170994 32.484672 
L 327.861805 32.484672 
L 327.243427 32.484672 
L 324.688779 32.484672 
L 324.19907 32.484672 
L 324.076643 32.484672 
L 324.01543 32.484672 
L 323.954216 31.659232 
L 323.709362 31.659232 
L 322.729945 31.659232 
L 320.111025 31.659232 
L 319.810177 31.659232 
L 319.659753 31.659232 
L 319.584541 29.086518 
L 319.509329 29.086518 
L 318.907632 29.086518 
L 317.70424 29.086518 
L 316.597345 29.086518 
L 315.260744 29.086518 
L 315.177206 33.432907 
L 315.093669 33.432907 
L 314.926594 33.432907 
L 314.592444 33.432907 
L 313.924143 33.432907 
L 311.450179 33.432907 
L 311.10217 33.432907 
L 310.928165 33.432907 
L 310.884664 33.432907 
L 310.841163 34.359453 
L 310.75416 34.359453 
L 310.058141 34.359453 
L 307.784649 34.359453 
L 307.075975 34.359453 
L 306.721637 34.359453 
L 306.544469 34.359453 
L 306.455884 42.52081 
L 306.3673 42.52081 
L 304.949951 42.52081 
L 303.532433 42.52081 
L 302.823674 42.52081 
L 302.469294 42.52081 
L 302.292105 42.52081 
L 302.20351 42.52081 
L 302.114915 41.786277 
L 300.472715 41.786277 
L 297.897036 41.786277 
L 297.824952 41.786277 
L 297.78891 41.786277 
L 297.752867 39.170805 
L 297.608699 39.170805 
L 297.320362 39.170805 
L 296.743687 39.170805 
L 294.108206 39.170805 
L 293.732031 39.170805 
L 293.543943 39.170805 
L 293.449899 39.170805 
L 293.355855 38.359779 
L 292.603505 38.359779 
L 291.098803 38.359779 
L 289.297826 38.359779 
L 289.055916 38.359779 
L 288.995439 47.112196 
L 288.934962 47.112196 
L 288.814007 47.112196 
L 288.330189 47.112196 
L 287.362553 47.112196 
L 285.891254 47.112196 
L 285.155604 47.112196 
L 284.78778 47.112196 
L 284.695823 47.112196 
L 284.603867 52.252854 
L 284.419955 52.252854 
L 283.149762 52.252854 
L 280.584615 52.252854 
L 280.329942 52.252854 
L 280.266273 49.637459 
L 280.202605 49.637459 
L 280.075268 49.637459 
L 279.56592 49.637459 
L 278.547225 49.637459 
L 276.217883 49.637459 
L 276.006802 49.637459 
L 275.954032 49.637459 
L 275.901261 48.94885 
L 275.795721 48.94885 
L 275.373558 48.94885 
L 274.529233 48.94885 
L 272.138252 48.94885 
L 271.726343 48.94885 
L 271.623366 48.94885 
L 271.571877 48.94885 
L 271.520389 50.286686 
L 271.314434 50.286686 
L 270.490616 50.286686 
L 268.58728 50.286686 
L 267.234444 50.286686 
L 267.149891 47.499145 
L 267.065339 47.499145 
L 266.896235 47.499145 
L 266.558025 47.499145 
L 265.881607 47.499145 
L 263.778558 47.499145 
L 263.137083 47.499145 
L 262.816346 47.499145 
L 262.776254 48.858875 
L 262.736162 48.858875 
L 262.655977 48.858875 
L 262.495609 48.858875 
L 260.406939 48.858875 
L 259.347727 48.858875 
L 258.818121 48.858875 
L 258.553318 48.858875 
L 258.420916 48.858875 
L 258.354716 50.268048 
L 258.288515 50.268048 
L 254.53803 50.268048 
L 254.236163 50.268048 
L 254.085229 50.268048 
L 254.009763 51.729414 
L 253.934296 51.729414 
L 253.330561 51.729414 
L 252.123092 51.729414 
L 250.949598 51.729414 
L 250.228031 51.729414 
L 249.867247 51.729414 
L 249.686855 51.729414 
L 249.596659 57.733137 
L 249.506463 57.733137 
L 248.063328 57.733137 
L 246.614046 57.733137 
L 245.587356 57.733137 
L 245.330684 57.733137 
L 245.266515 54.820764 
L 245.202347 54.820764 
L 245.074011 54.820764 
L 244.560666 54.820764 
L 242.586838 54.820764 
L 241.390041 54.820764 
L 241.090842 54.820764 
L 240.941242 54.820764 
L 240.866442 56.457361 
L 240.791643 56.457361 
L 240.193244 56.457361 
L 238.152872 56.457361 
L 237.27415 56.457361 
L 236.834789 56.457361 
L 236.615108 56.457361 
L 236.505268 55.7812 
L 236.395428 55.7812 
L 234.637983 55.7812 
L 232.361268 55.7812 
L 232.272288 55.7812 
L 232.227798 55.7812 
L 232.183308 52.650683 
L 232.005349 52.650683 
L 231.649431 52.650683 
L 230.937594 52.650683 
L 228.172607 52.650683 
L 227.937273 52.650683 
L 227.819606 52.650683 
L 227.760772 51.867042 
L 227.701939 51.867042 
L 227.23127 51.867042 
L 226.289933 51.867042 
L 223.9264 51.867042 
L 223.644744 51.867042 
L 223.503915 51.867042 
L 223.433501 61.17015 
L 223.363087 61.17015 
L 222.799774 61.17015 
L 221.673147 61.17015 
L 219.52577 61.17015 
L 219.240071 61.17015 
L 219.097222 61.17015 
L 219.061509 70.87774 
L 219.025797 70.87774 
L 218.954372 70.87774 
L 218.382974 70.87774 
L 215.710773 70.87774 
L 214.972015 70.87774 
L 214.787325 70.87774 
L 214.69498 67.804434 
L 214.602635 67.804434 
L 214.233256 67.804434 
L 212.75574 67.804434 
L 210.632026 67.804434 
L 209.490762 67.293957 
L 206.403099 67.293957 
L 206.163193 67.293957 
L 206.04324 67.293957 
L 205.983263 67.293957 
L 205.923287 63.994362 
L 205.443475 63.994362 
L 204.483851 63.994362 
L 203.714561 63.994362 
L 202.446514 63.994362 
L 201.81249 63.994362 
L 201.653984 63.994362 
L 201.574731 71.862511 
L 201.495478 71.862511 
L 201.178467 71.862511 
L 198.271566 71.862511 
L 197.559861 71.862511 
L 197.381935 71.862511 
L 197.292972 71.862511 
L 197.204009 68.513389 
L 196.848157 68.513389 
L 195.424748 68.513389 
L 193.169612 68.513389 
L 192.932196 68.513389 
L 192.872842 68.513389 
L 192.813488 70.942366 
L 192.694781 70.942366 
L 192.219949 70.942366 
L 191.270287 70.942366 
L 190.610972 70.942366 
L 189.326606 70.942366 
L 188.684423 70.942366 
L 188.523877 70.942366 
L 188.443604 73.495905 
L 188.363332 73.495905 
L 188.04224 73.495905 
L 184.772839 73.495905 
L 184.208199 73.495905 
L 180.795438 73.054602 
L 179.860712 73.054602 
L 179.743871 73.054602 
L 179.68545 75.803259 
L 179.62703 75.803259 
L 179.393348 75.803259 
L 178.925985 75.803259 
L 176.564349 75.803259 
L 175.835412 75.803259 
L 175.470944 75.803259 
L 175.379827 75.803259 
L 175.28871 78.704618 
L 175.106476 78.704618 
L 173.648603 78.704618 
L 172.455964 78.704618 
L 171.678416 78.704618 
L 171.289642 78.704618 
L 171.095255 78.704618 
L 170.998061 78.704618 
L 170.900868 74.976849 
L 169.345771 74.976849 
L 168.319258 74.976849 
L 167.34855 74.976849 
L 166.863195 74.976849 
L 166.620518 74.976849 
L 166.559849 85.019342 
L 166.49918 85.019342 
L 166.377841 85.019342 
L 162.852401 85.019342 
L 162.283906 85.019342 
L 162.248375 85.019342 
L 162.212844 81.257003 
L 162.141783 81.257003 
L 161.999659 81.257003 
L 161.715411 81.257003 
L 159.326345 81.257003 
L 158.214565 81.257003 
L 157.972952 81.257003 
L 157.852146 84.691462 
L 157.731339 84.691462 
L 157.248113 84.691462 
L 156.281661 84.691462 
L 154.348758 84.691462 
L 151.817369 84.511657 
L 150.414433 84.511657 
L 149.507696 84.511657 
L 149.281012 84.511657 
L 149.16767 84.511657 
L 149.110999 104.138382 
L 149.054328 104.138382 
L 148.600959 104.138382 
L 146.269427 104.138382 
L 143.496771 104.61676 
L 141.616111 104.61676 
L 140.472896 104.61676 
L 140.35122 100.882483 
L 140.229544 100.882483 
L 139.986193 100.882483 
L 139.49949 100.882483 
L 138.526084 100.882483 
L 136.579273 100.882483 
L 134.640955 101.275708 
L 133.695168 101.275708 
L 132.168608 101.275708 
L 131.786968 101.275708 
L 131.691558 101.275708 
L 131.596148 97.125676 
L 131.405328 97.125676 
L 130.642048 97.125676 
L 129.541503 97.125676 
L 125.785046 97.400086 
L 123.555262 97.400086 
L 123.180353 97.400086 
L 122.992899 97.400086 
L 122.946035 97.400086 
L 122.899172 107.606623 
L 122.805444 107.606623 
L 122.055627 107.606623 
L 120.528458 107.606623 
L 118.9857 107.606623 
L 118.600011 107.606623 
L 118.503589 113.530636 
L 118.407166 113.530636 
L 118.214321 113.530636 
L 117.442943 113.530636 
L 116.833176 113.530636 
L 114.813039 113.530636 
L 114.308005 113.530636 
L 114.181746 113.530636 
L 114.055488 114.588146 
L 113.802971 114.588146 
L 112.792902 114.588146 
L 111.957679 114.588146 
L 110.584229 114.588146 
L 109.897504 114.588146 
L 109.811664 114.588146 
L 109.725823 121.408805 
L 109.554142 121.408805 
L 109.210779 121.408805 
L 106.631549 121.408805 
L 105.924103 121.408805 
L 105.57038 121.408805 
L 105.481949 121.408805 
L 105.437733 121.408805 
L 105.393518 117.020419 
L 105.216656 117.020419 
L 102.030663 117.020419 
L 101.475725 117.020419 
L 101.198256 117.020419 
L 101.059521 117.020419 
L 100.990154 118.428577 
L 100.920786 118.428577 
L 99.810909 118.428577 
L 98.776256 118.428577 
L 97.239206 118.428577 
L 96.854943 118.428577 
L 96.758878 118.428577 
L 96.662812 126.599369 
L 96.470681 126.599369 
L 95.702156 126.599369 
L 93.272504 126.599369 
L 92.902374 126.599369 
L 92.420943 126.599369 
L 92.300585 121.741889 
L 92.180227 121.741889 
L 91.939511 121.741889 
L 90.976648 121.741889 
L 89.050922 121.741889 
L 87.965304 121.741889 
L 87.893624 131.141113 
L 87.821944 131.141113 
L 87.678584 131.141113 
L 87.391864 131.141113 
L 86.818423 131.141113 
L 85.671542 131.141113 
L 84.594261 131.141113 
L 84.05562 131.141113 
L 83.7863 131.141113 
L 83.65164 131.141113 
L 83.58431 131.141113 
L 83.51698 141.793566 
L 81.383944 141.793566 
L 79.884355 141.793566 
L 79.372968 141.793566 
L 79.245122 141.793566 
L 79.117275 145.474148 
L 78.861582 145.474148 
L 77.83881 145.474148 
L 75.793265 145.474148 
L 75.111348 145.474148 
L 74.940869 145.474148 
L 74.85563 145.474148 
L 74.81301 140.573965 
L 74.77039 140.573965 
L 74.429432 140.573965 
L 72.90077 140.573965 
L 71.65157 140.573965 
L 71.026971 140.573965 
L 70.714671 140.573965 
L 70.558521 140.573965 
L 70.480446 140.573965 
L 70.402371 144.766343 
L 68.257932 144.766343 
L 67.073724 144.766343 
L 66.48162 144.766343 
L 66.185569 144.766343 
L 66.111556 144.766343 
L 66.037543 160.531073 
L 65.889517 160.531073 
L 63.370257 160.531073 
L 62.430313 160.531073 
L 62.049974 160.531073 
L 61.859805 160.531073 
L 61.76472 160.531073 
L 61.669636 155.666528 
L 60.908958 155.666528 
L 59.387604 155.666528 
L 57.953341 155.666528 
L 57.594775 155.666528 
L 57.415492 155.666528 
L 57.325851 176.145663 
L 57.23621 176.145663 
L 56.519078 176.145663 
L 55.921159 176.145663 
L 54.241875 176.145663 
L 53.402233 176.145663 
L 52.982412 176.145663 
L 52.877456 186.880693 
L 52.772501 186.880693 
L 52.562591 186.880693 
L 51.663 186.880693 
L 50.109581 186.880693 
L 49.332871 186.880693 
L 48.944516 186.880693 
L 48.750339 186.880693 
L 48.65325 186.880693 
L 48.556161 183.695574 
L 46.670987 183.695574 
L 44.841468 183.695574 
L 44.292342 183.695574 
L 44.223701 183.695574 
L 44.15506 199.267267 
L 44.017779 199.267267 
L 43.743216 199.267267 
L 42.644964 199.267267 
L 40.739848 199.267267 
L 40.263569 199.267267 
L 40.02543 199.267267 
L 39.90636 199.267267 
L 39.78729 197.285415 
L 38.834733 197.285415 
L 38.179247 197.285415 
L 35.698048 197.285415 
L 35.522413 197.285415 
L 35.434596 224.040414 
L 35.346779 224.040414 
L 34.99551 224.040414 
L 34.292971 224.040414 
L 32.887895 224.040414 
L 31.641648 224.040414 
L 31.330086 224.040414 
L 31.174305 224.040414 
L 31.096415 228.995043 
L 31.018524 228.995043 
L 30.395401 228.995043 
L 29.785607 228.995043 
L 27.803797 228.995043 
L 26.812893 228.995043 
L 26.689029 238.904302 
L 26.565166 238.904302 
L 26.31744 238.904302 
L 25.821988 238.904302 
L 25.11055 238.904302 
L 23.424426 238.904302 
L 22.581364 238.904302 
L 22.370598 238.904302 
L 22.265215 209.176526 
L 22.159833 209.176526 
L 21.738302 209.176526 
L 21.012555 209.176526 
L 17.986044 209.176526 
L 17.986044 328.087631 
L 18.742333 317.36699 
L 19.498622 308.123955 
L 20.254911 300.000118 
L 21.011201 292.753481 
L 21.966868 284.58971 
L 22.922535 277.311323 
L 24.163694 268.901642 
L 25.899242 258.668753 
L 27.917163 248.450713 
L 29.935085 239.583528 
L 30.012606 239.265158 
L 33.196644 227.343016 
L 35.511718 219.835663 
L 38.014216 212.565448 
L 39.941506 207.457792 
L 41.622181 203.300148 
L 44.698785 196.297892 
L 45.988054 193.56753 
L 48.127529 189.268027 
L 49.768899 186.1465 
L 53.001939 180.392225 
L 54.581056 177.75125 
L 56.847791 174.13302 
L 60.140479 169.201647 
L 62.093709 166.438724 
L 63.038532 165.141937 
L 64.848497 162.725531 
L 67.019475 159.93732 
L 70.835945 155.299894 
L 71.388846 154.653839 
L 74.045004 151.633935 
L 77.35585 148.050329 
L 79.561911 145.764423 
L 82.098642 143.228557 
L 84.044534 141.346201 
L 86.030187 139.478251 
L 88.634409 137.104571 
L 90.024251 135.871272 
L 91.097466 134.934192 
L 93.918232 132.531798 
L 95.968074 130.838353 
L 97.949675 129.240887 
L 99.917439 127.691295 
L 102.242124 125.905526 
L 104.9585 123.877283 
L 107.221011 122.233448 
L 110.334648 120.03504 
L 112.397248 118.617357 
L 114.24789 117.37033 
L 114.992986 116.874722 
L 117.052157 115.523757 
L 121.122167 112.930888 
L 121.380496 112.769644 
L 124.181788 111.04554 
L 126.761388 109.496084 
L 129.787333 107.722931 
L 131.753678 106.595276 
L 134.271067 105.178696 
L 135.380867 104.563554 
L 136.654823 103.864299 
L 140.577138 101.755991 
L 140.920213 101.57469 
L 143.069267 100.450007 
L 146.19781 98.845655 
L 148.274258 97.801598 
L 150.641883 96.6306 
L 153.196873 95.389419 
L 155.338713 94.366322 
L 156.990398 93.587863 
L 160.139961 92.12798 
L 160.666367 91.887045 
L 163.720462 90.505987 
L 165.640945 89.651865 
L 167.930655 88.647522 
L 171.213464 87.233271 
L 172.616354 86.637862 
L 175.64189 85.37146 
L 176.443004 85.040096 
L 178.608596 84.152439 
L 180.789678 83.270132 
L 183.839845 82.055371 
L 185.252177 81.500249 
L 187.947849 80.453272 
L 188.710449 80.160021 
L 191.755096 79.001823 
L 194.899694 77.8262 
L 196.271743 77.319629 
L 199.002622 76.322595 
L 201.101834 75.566114 
L 201.853224 75.297396 
L 205.324384 74.069779 
L 206.718752 73.582891 
L 208.870551 72.838378 
L 211.178533 72.048891 
L 213.3644 71.309634 
L 215.147088 70.712697 
L 217.49733 69.933731 
L 220.73791 68.874272 
L 221.918528 68.492401 
L 225.102946 67.473094 
L 226.837476 66.924323 
L 227.99135 66.561727 
L 232.186301 65.259745 
L 233.224307 64.941437 
L 236.370882 63.985642 
L 238.073092 63.474196 
L 238.808471 63.254443 
L 242.738694 62.092007 
L 243.706419 61.808844 
L 247.127994 60.81713 
L 247.854032 60.608564 
L 250.573322 59.833107 
L 253.280845 59.069797 
L 254.399751 58.756868 
L 256.578775 58.151603 
L 258.91421 57.50889 
L 261.980446 56.674289 
L 263.768521 56.192334 
L 266.970565 55.337807 
L 267.750007 55.131432 
L 270.404058 54.43343 
L 272.607533 53.859386 
L 274.282098 53.426389 
L 276.056206 52.970677 
L 279.378717 52.125457 
L 280.44437 51.8566 
L 282.747679 51.279141 
L 284.732602 50.785455 
L 287.626973 50.072013 
L 289.391114 49.640852 
L 292.514681 48.884165 
L 293.16365 48.728015 
L 295.682821 48.125288 
L 297.575488 47.675986 
L 299.922863 47.122883 
L 302.396242 46.544976 
L 304.742836 46.001249 
L 307.307106 45.412074 
L 309.501128 44.912037 
L 311.486886 44.462652 
L 313.429263 44.025973 
L 315.438249 43.577286 
L 317.154037 43.196439 
L 319.419958 42.696768 
L 323.163596 41.879292 
L 325.339632 41.408656 
L 327.07666 41.035321 
L 329.443582 40.529921 
L 332.011147 39.985944 
L 333.009658 39.775578 
L 335.249686 39.306032 
L 337.765865 38.782485 
L 338.936633 38.540265 
L 342.90656 37.725366 
L 343.43769 37.617088 
L 347.319247 36.831034 
L 349.395369 36.414343 
L 350.430807 36.207486 
L 351.999947 35.895216 
L 355.559352 35.192205 
L 357.426805 34.826289 
L 358.936958 34.531834 
L 361.30831 34.072049 
L 364.367919 33.483427 
L 365.591084 33.249544 
L 368.770561 32.645375 
L 369.907735 32.4306 
L 372.660366 31.913542 
L 373.868145 31.687921 
L 376.45547 31.207128 
L 378.654301 30.801214 
L 380.26792 30.504885 
L 382.52934 30.09178 
L 386.539145 29.365476 
L 386.982799 29.285596 
L 389.774256 28.785163 
L 391.219067 28.527604 
L 394.380468 27.967458 
L 396.987458 27.509031 
L 398.445781 27.25395 
L 401.520931 26.719216 
L 403.423176 26.390556 
L 404.074368 26.278414 
L 406.180425 25.917008 
L 408.743066 25.479856 
L 412.287714 24.879837 
L 413.570219 24.664055 
L 415.457544 24.347767 
L 418.334383 23.868497 
L 420.053532 23.583717 
L 421.984179 23.265335 
L 424.146666 22.910502 
L 426.842763 22.47072 
L 428.183348 22.253114 
L 430.197052 21.927564 
L 434.178623 21.288482 
L 434.496273 21.237756 
L 438.79642 20.554813 
L 439.511017 20.441991 
L 441.367975 20.149694 
L 444.688335 19.630198 
L 446.135249 19.405067 
L 449.167777 18.935659 
L 450.761262 18.69031 
z
" clip-path="url(#pe718e66fcc)" style="fill: #ff0000; opacity: 0.5"/>
   </g>
   <g id="matplotlib.axis_1">
    <g id="xtick_1">
     <g id="line2d_1">
      <defs>
       <path id="m6c63d7f617" d="M 0 0 
L 0 3.5 
" style="stroke: #000000; stroke-width: 0.8"/>
      </defs>
      <g>
       <use xlink:href="#m6c63d7f617" x="13.614577" y="328.087631" style="stroke: #000000; stroke-width: 0.8"/>
      </g>
     </g>
    </g>
    <g id="xtick_2">
     <g id="line2d_2">
      <g>
       <use xlink:href="#m6c63d7f617" x="101.043914" y="328.087631" style="stroke: #000000; stroke-width: 0.8"/>
      </g>
     </g>
     <g id="text_1">
      <!-- 20 -->
      <g transform="translate(94.681414 342.686069) scale(0.1 -0.1)">
       <defs>
        <path id="DejaVuSans-32" d="M 1228 531 
L 3431 531 
L 3431 0 
L 469 0 
L 469 531 
Q 828 903 1448 1529 
Q 2069 2156 2228 2338 
Q 2531 2678 2651 2914 
Q 2772 3150 2772 3378 
Q 2772 3750 2511 3984 
Q 2250 4219 1831 4219 
Q 1534 4219 1204 4116 
Q 875 4013 500 3803 
L 500 4441 
Q 881 4594 1212 4672 
Q 1544 4750 1819 4750 
Q 2544 4750 2975 4387 
Q 3406 4025 3406 3419 
Q 3406 3131 3298 2873 
Q 3191 2616 2906 2266 
Q 2828 2175 2409 1742 
Q 1991 1309 1228 531 
z
" transform="scale(0.015625)"/>
        <path id="DejaVuSans-30" d="M 2034 4250 
Q 1547 4250 1301 3770 
Q 1056 3291 1056 2328 
Q 1056 1369 1301 889 
Q 1547 409 2034 409 
Q 2525 409 2770 889 
Q 3016 1369 3016 2328 
Q 3016 3291 2770 3770 
Q 2525 4250 2034 4250 
z
M 2034 4750 
Q 2819 4750 3233 4129 
Q 3647 3509 3647 2328 
Q 3647 1150 3233 529 
Q 2819 -91 2034 -91 
Q 1250 -91 836 529 
Q 422 1150 422 2328 
Q 422 3509 836 4129 
Q 1250 4750 2034 4750 
z
" transform="scale(0.015625)"/>
       </defs>
       <use xlink:href="#DejaVuSans-32"/>
       <use xlink:href="#DejaVuSans-30" transform="translate(63.623047 0)"/>
      </g>
     </g>
    </g>
    <g id="xtick_3">
     <g id="line2d_3">
      <g>
       <use xlink:href="#m6c63d7f617" x="188.473251" y="328.087631" style="stroke: #000000; stroke-width: 0.8"/>
      </g>
     </g>
     <g id="text_2">
      <!-- 40 -->
      <g transform="translate(182.110751 342.686069) scale(0.1 -0.1)">
       <defs>
        <path id="DejaVuSans-34" d="M 2419 4116 
L 825 1625 
L 2419 1625 
L 2419 4116 
z
M 2253 4666 
L 3047 4666 
L 3047 1625 
L 3713 1625 
L 3713 1100 
L 3047 1100 
L 3047 0 
L 2419 0 
L 2419 1100 
L 313 1100 
L 313 1709 
L 2253 4666 
z
" transform="scale(0.015625)"/>
       </defs>
       <use xlink:href="#DejaVuSans-34"/>
       <use xlink:href="#DejaVuSans-30" transform="translate(63.623047 0)"/>
      </g>
     </g>
    </g>
    <g id="xtick_4">
     <g id="line2d_4">
      <g>
       <use xlink:href="#m6c63d7f617" x="275.902588" y="328.087631" style="stroke: #000000; stroke-width: 0.8"/>
      </g>
     </g>
     <g id="text_3">
      <!-- 60 -->
      <g transform="translate(269.540088 342.686069) scale(0.1 -0.1)">
       <defs>
        <path id="DejaVuSans-36" d="M 2113 2584 
Q 1688 2584 1439 2293 
Q 1191 2003 1191 1497 
Q 1191 994 1439 701 
Q 1688 409 2113 409 
Q 2538 409 2786 701 
Q 3034 994 3034 1497 
Q 3034 2003 2786 2293 
Q 2538 2584 2113 2584 
z
M 3366 4563 
L 3366 3988 
Q 3128 4100 2886 4159 
Q 2644 4219 2406 4219 
Q 1781 4219 1451 3797 
Q 1122 3375 1075 2522 
Q 1259 2794 1537 2939 
Q 1816 3084 2150 3084 
Q 2853 3084 3261 2657 
Q 3669 2231 3669 1497 
Q 3669 778 3244 343 
Q 2819 -91 2113 -91 
Q 1303 -91 875 529 
Q 447 1150 447 2328 
Q 447 3434 972 4092 
Q 1497 4750 2381 4750 
Q 2619 4750 2861 4703 
Q 3103 4656 3366 4563 
z
" transform="scale(0.015625)"/>
       </defs>
       <use xlink:href="#DejaVuSans-36"/>
       <use xlink:href="#DejaVuSans-30" transform="translate(63.623047 0)"/>
      </g>
     </g>
    </g>
    <g id="xtick_5">
     <g id="line2d_5">
      <g>
       <use xlink:href="#m6c63d7f617" x="363.331925" y="328.087631" style="stroke: #000000; stroke-width: 0.8"/>
      </g>
     </g>
     <g id="text_4">
      <!-- 80 -->
      <g transform="translate(356.969425 342.686069) scale(0.1 -0.1)">
       <defs>
        <path id="DejaVuSans-38" d="M 2034 2216 
Q 1584 2216 1326 1975 
Q 1069 1734 1069 1313 
Q 1069 891 1326 650 
Q 1584 409 2034 409 
Q 2484 409 2743 651 
Q 3003 894 3003 1313 
Q 3003 1734 2745 1975 
Q 2488 2216 2034 2216 
z
M 1403 2484 
Q 997 2584 770 2862 
Q 544 3141 544 3541 
Q 544 4100 942 4425 
Q 1341 4750 2034 4750 
Q 2731 4750 3128 4425 
Q 3525 4100 3525 3541 
Q 3525 3141 3298 2862 
Q 3072 2584 2669 2484 
Q 3125 2378 3379 2068 
Q 3634 1759 3634 1313 
Q 3634 634 3220 271 
Q 2806 -91 2034 -91 
Q 1263 -91 848 271 
Q 434 634 434 1313 
Q 434 1759 690 2068 
Q 947 2378 1403 2484 
z
M 1172 3481 
Q 1172 3119 1398 2916 
Q 1625 2713 2034 2713 
Q 2441 2713 2670 2916 
Q 2900 3119 2900 3481 
Q 2900 3844 2670 4047 
Q 2441 4250 2034 4250 
Q 1625 4250 1398 4047 
Q 1172 3844 1172 3481 
z
" transform="scale(0.015625)"/>
       </defs>
       <use xlink:href="#DejaVuSans-38"/>
       <use xlink:href="#DejaVuSans-30" transform="translate(63.623047 0)"/>
      </g>
     </g>
    </g>
    <g id="xtick_6">
     <g id="line2d_6">
      <g>
       <use xlink:href="#m6c63d7f617" x="450.761262" y="328.087631" style="stroke: #000000; stroke-width: 0.8"/>
      </g>
     </g>
     <g id="text_5">
      <!-- 100 -->
      <g transform="translate(441.217512 342.686069) scale(0.1 -0.1)">
       <defs>
        <path id="DejaVuSans-31" d="M 794 531 
L 1825 531 
L 1825 4091 
L 703 3866 
L 703 4441 
L 1819 4666 
L 2450 4666 
L 2450 531 
L 3481 531 
L 3481 0 
L 794 0 
L 794 531 
z
" transform="scale(0.015625)"/>
       </defs>
       <use xlink:href="#DejaVuSans-31"/>
       <use xlink:href="#DejaVuSans-30" transform="translate(63.623047 0)"/>
       <use xlink:href="#DejaVuSans-30" transform="translate(127.246094 0)"/>
      </g>
     </g>
    </g>
    <g id="xtick_7">
     <g id="line2d_7">
      <defs>
       <path id="mae3b94604d" d="M 0 0 
L 0 2 
" style="stroke: #000000; stroke-width: 0.6"/>
      </defs>
      <g>
       <use xlink:href="#mae3b94604d" x="35.471912" y="328.087631" style="stroke: #000000; stroke-width: 0.6"/>
      </g>
     </g>
    </g>
    <g id="xtick_8">
     <g id="line2d_8">
      <g>
       <use xlink:href="#mae3b94604d" x="57.329246" y="328.087631" style="stroke: #000000; stroke-width: 0.6"/>
      </g>
     </g>
    </g>
    <g id="xtick_9">
     <g id="line2d_9">
      <g>
       <use xlink:href="#mae3b94604d" x="79.18658" y="328.087631" style="stroke: #000000; stroke-width: 0.6"/>
      </g>
     </g>
    </g>
    <g id="xtick_10">
     <g id="line2d_10">
      <g>
       <use xlink:href="#mae3b94604d" x="122.901249" y="328.087631" style="stroke: #000000; stroke-width: 0.6"/>
      </g>
     </g>
    </g>
    <g id="xtick_11">
     <g id="line2d_11">
      <g>
       <use xlink:href="#mae3b94604d" x="144.758583" y="328.087631" style="stroke: #000000; stroke-width: 0.6"/>
      </g>
     </g>
    </g>
    <g id="xtick_12">
     <g id="line2d_12">
      <g>
       <use xlink:href="#mae3b94604d" x="166.615917" y="328.087631" style="stroke: #000000; stroke-width: 0.6"/>
      </g>
     </g>
    </g>
    <g id="xtick_13">
     <g id="line2d_13">
      <g>
       <use xlink:href="#mae3b94604d" x="210.330585" y="328.087631" style="stroke: #000000; stroke-width: 0.6"/>
      </g>
     </g>
    </g>
    <g id="xtick_14">
     <g id="line2d_14">
      <g>
       <use xlink:href="#mae3b94604d" x="232.18792" y="328.087631" style="stroke: #000000; stroke-width: 0.6"/>
      </g>
     </g>
    </g>
    <g id="xtick_15">
     <g id="line2d_15">
      <g>
       <use xlink:href="#mae3b94604d" x="254.045254" y="328.087631" style="stroke: #000000; stroke-width: 0.6"/>
      </g>
     </g>
    </g>
    <g id="xtick_16">
     <g id="line2d_16">
      <g>
       <use xlink:href="#mae3b94604d" x="297.759922" y="328.087631" style="stroke: #000000; stroke-width: 0.6"/>
      </g>
     </g>
    </g>
    <g id="xtick_17">
     <g id="line2d_17">
      <g>
       <use xlink:href="#mae3b94604d" x="319.617257" y="328.087631" style="stroke: #000000; stroke-width: 0.6"/>
      </g>
     </g>
    </g>
    <g id="xtick_18">
     <g id="line2d_18">
      <g>
       <use xlink:href="#mae3b94604d" x="341.474591" y="328.087631" style="stroke: #000000; stroke-width: 0.6"/>
      </g>
     </g>
    </g>
    <g id="xtick_19">
     <g id="line2d_19">
      <g>
       <use xlink:href="#mae3b94604d" x="385.189259" y="328.087631" style="stroke: #000000; stroke-width: 0.6"/>
      </g>
     </g>
    </g>
    <g id="xtick_20">
     <g id="line2d_20">
      <g>
       <use xlink:href="#mae3b94604d" x="407.046594" y="328.087631" style="stroke: #000000; stroke-width: 0.6"/>
      </g>
     </g>
    </g>
    <g id="xtick_21">
     <g id="line2d_21">
      <g>
       <use xlink:href="#mae3b94604d" x="428.903928" y="328.087631" style="stroke: #000000; stroke-width: 0.6"/>
      </g>
     </g>
    </g>
   </g>
   <g id="matplotlib.axis_2">
    <g id="ytick_1">
     <g id="line2d_22">
      <defs>
       <path id="m73fede7286" d="M 0 0 
L -3.5 0 
" style="stroke: #000000; stroke-width: 0.8"/>
      </defs>
      <g>
       <use xlink:href="#m73fede7286" x="13.614577" y="328.087631" style="stroke: #000000; stroke-width: 0.8"/>
      </g>
     </g>
    </g>
    <g id="ytick_2">
     <g id="line2d_23">
      <g>
       <use xlink:href="#m73fede7286" x="13.614577" y="268.632078" style="stroke: #000000; stroke-width: 0.8"/>
      </g>
     </g>
     <g id="text_6">
      <!-- 1 -->
      <g transform="translate(0.252077 272.431297) scale(0.1 -0.1)">
       <use xlink:href="#DejaVuSans-31"/>
      </g>
     </g>
    </g>
    <g id="ytick_3">
     <g id="line2d_24">
      <g>
       <use xlink:href="#m73fede7286" x="13.614577" y="209.176526" style="stroke: #000000; stroke-width: 0.8"/>
      </g>
     </g>
     <g id="text_7">
      <!-- 2 -->
      <g transform="translate(0.252077 212.975744) scale(0.1 -0.1)">
       <use xlink:href="#DejaVuSans-32"/>
      </g>
     </g>
    </g>
    <g id="ytick_4">
     <g id="line2d_25">
      <g>
       <use xlink:href="#m73fede7286" x="13.614577" y="149.720973" style="stroke: #000000; stroke-width: 0.8"/>
      </g>
     </g>
     <g id="text_8">
      <!-- 3 -->
      <g transform="translate(0.252077 153.520192) scale(0.1 -0.1)">
       <defs>
        <path id="DejaVuSans-33" d="M 2597 2516 
Q 3050 2419 3304 2112 
Q 3559 1806 3559 1356 
Q 3559 666 3084 287 
Q 2609 -91 1734 -91 
Q 1441 -91 1130 -33 
Q 819 25 488 141 
L 488 750 
Q 750 597 1062 519 
Q 1375 441 1716 441 
Q 2309 441 2620 675 
Q 2931 909 2931 1356 
Q 2931 1769 2642 2001 
Q 2353 2234 1838 2234 
L 1294 2234 
L 1294 2753 
L 1863 2753 
Q 2328 2753 2575 2939 
Q 2822 3125 2822 3475 
Q 2822 3834 2567 4026 
Q 2313 4219 1838 4219 
Q 1578 4219 1281 4162 
Q 984 4106 628 3988 
L 628 4550 
Q 988 4650 1302 4700 
Q 1616 4750 1894 4750 
Q 2613 4750 3031 4423 
Q 3450 4097 3450 3541 
Q 3450 3153 3228 2886 
Q 3006 2619 2597 2516 
z
" transform="scale(0.015625)"/>
       </defs>
       <use xlink:href="#DejaVuSans-33"/>
      </g>
     </g>
    </g>
    <g id="ytick_5">
     <g id="line2d_26">
      <g>
       <use xlink:href="#m73fede7286" x="13.614577" y="90.26542" style="stroke: #000000; stroke-width: 0.8"/>
      </g>
     </g>
     <g id="text_9">
      <!-- 4 -->
      <g transform="translate(0.252077 94.064639) scale(0.1 -0.1)">
       <use xlink:href="#DejaVuSans-34"/>
      </g>
     </g>
    </g>
    <g id="ytick_6">
     <g id="line2d_27">
      <g>
       <use xlink:href="#m73fede7286" x="13.614577" y="30.809867" style="stroke: #000000; stroke-width: 0.8"/>
      </g>
     </g>
     <g id="text_10">
      <!-- 5 -->
      <g transform="translate(0.252077 34.609086) scale(0.1 -0.1)">
       <defs>
        <path id="DejaVuSans-35" d="M 691 4666 
L 3169 4666 
L 3169 4134 
L 1269 4134 
L 1269 2991 
Q 1406 3038 1543 3061 
Q 1681 3084 1819 3084 
Q 2600 3084 3056 2656 
Q 3513 2228 3513 1497 
Q 3513 744 3044 326 
Q 2575 -91 1722 -91 
Q 1428 -91 1123 -41 
Q 819 9 494 109 
L 494 744 
Q 775 591 1075 516 
Q 1375 441 1709 441 
Q 2250 441 2565 725 
Q 2881 1009 2881 1497 
Q 2881 1984 2565 2268 
Q 2250 2553 1709 2553 
Q 1456 2553 1204 2497 
Q 953 2441 691 2322 
L 691 4666 
z
" transform="scale(0.015625)"/>
       </defs>
       <use xlink:href="#DejaVuSans-35"/>
      </g>
     </g>
    </g>
    <g id="ytick_7">
     <g id="line2d_28">
      <defs>
       <path id="m76c6c7023e" d="M 0 0 
L -2 0 
" style="stroke: #000000; stroke-width: 0.6"/>
      </defs>
      <g>
       <use xlink:href="#m76c6c7023e" x="13.614577" y="316.196521" style="stroke: #000000; stroke-width: 0.6"/>
      </g>
     </g>
    </g>
    <g id="ytick_8">
     <g id="line2d_29">
      <g>
       <use xlink:href="#m76c6c7023e" x="13.614577" y="304.30541" style="stroke: #000000; stroke-width: 0.6"/>
      </g>
     </g>
    </g>
    <g id="ytick_9">
     <g id="line2d_30">
      <g>
       <use xlink:href="#m76c6c7023e" x="13.614577" y="292.414299" style="stroke: #000000; stroke-width: 0.6"/>
      </g>
     </g>
    </g>
    <g id="ytick_10">
     <g id="line2d_31">
      <g>
       <use xlink:href="#m76c6c7023e" x="13.614577" y="280.523189" style="stroke: #000000; stroke-width: 0.6"/>
      </g>
     </g>
    </g>
    <g id="ytick_11">
     <g id="line2d_32">
      <g>
       <use xlink:href="#m76c6c7023e" x="13.614577" y="256.740968" style="stroke: #000000; stroke-width: 0.6"/>
      </g>
     </g>
    </g>
    <g id="ytick_12">
     <g id="line2d_33">
      <g>
       <use xlink:href="#m76c6c7023e" x="13.614577" y="244.849857" style="stroke: #000000; stroke-width: 0.6"/>
      </g>
     </g>
    </g>
    <g id="ytick_13">
     <g id="line2d_34">
      <g>
       <use xlink:href="#m76c6c7023e" x="13.614577" y="232.958747" style="stroke: #000000; stroke-width: 0.6"/>
      </g>
     </g>
    </g>
    <g id="ytick_14">
     <g id="line2d_35">
      <g>
       <use xlink:href="#m76c6c7023e" x="13.614577" y="221.067636" style="stroke: #000000; stroke-width: 0.6"/>
      </g>
     </g>
    </g>
    <g id="ytick_15">
     <g id="line2d_36">
      <g>
       <use xlink:href="#m76c6c7023e" x="13.614577" y="197.285415" style="stroke: #000000; stroke-width: 0.6"/>
      </g>
     </g>
    </g>
    <g id="ytick_16">
     <g id="line2d_37">
      <g>
       <use xlink:href="#m76c6c7023e" x="13.614577" y="185.394305" style="stroke: #000000; stroke-width: 0.6"/>
      </g>
     </g>
    </g>
    <g id="ytick_17">
     <g id="line2d_38">
      <g>
       <use xlink:href="#m76c6c7023e" x="13.614577" y="173.503194" style="stroke: #000000; stroke-width: 0.6"/>
      </g>
     </g>
    </g>
    <g id="ytick_18">
     <g id="line2d_39">
      <g>
       <use xlink:href="#m76c6c7023e" x="13.614577" y="161.612083" style="stroke: #000000; stroke-width: 0.6"/>
      </g>
     </g>
    </g>
    <g id="ytick_19">
     <g id="line2d_40">
      <g>
       <use xlink:href="#m76c6c7023e" x="13.614577" y="137.829862" style="stroke: #000000; stroke-width: 0.6"/>
      </g>
     </g>
    </g>
    <g id="ytick_20">
     <g id="line2d_41">
      <g>
       <use xlink:href="#m76c6c7023e" x="13.614577" y="125.938752" style="stroke: #000000; stroke-width: 0.6"/>
      </g>
     </g>
    </g>
    <g id="ytick_21">
     <g id="line2d_42">
      <g>
       <use xlink:href="#m76c6c7023e" x="13.614577" y="114.047641" style="stroke: #000000; stroke-width: 0.6"/>
      </g>
     </g>
    </g>
    <g id="ytick_22">
     <g id="line2d_43">
      <g>
       <use xlink:href="#m76c6c7023e" x="13.614577" y="102.156531" style="stroke: #000000; stroke-width: 0.6"/>
      </g>
     </g>
    </g>
    <g id="ytick_23">
     <g id="line2d_44">
      <g>
       <use xlink:href="#m76c6c7023e" x="13.614577" y="78.37431" style="stroke: #000000; stroke-width: 0.6"/>
      </g>
     </g>
    </g>
    <g id="ytick_24">
     <g id="line2d_45">
      <g>
       <use xlink:href="#m76c6c7023e" x="13.614577" y="66.483199" style="stroke: #000000; stroke-width: 0.6"/>
      </g>
     </g>
    </g>
    <g id="ytick_25">
     <g id="line2d_46">
      <g>
       <use xlink:href="#m76c6c7023e" x="13.614577" y="54.592089" style="stroke: #000000; stroke-width: 0.6"/>
      </g>
     </g>
    </g>
    <g id="ytick_26">
     <g id="line2d_47">
      <g>
       <use xlink:href="#m76c6c7023e" x="13.614577" y="42.700978" style="stroke: #000000; stroke-width: 0.6"/>
      </g>
     </g>
    </g>
    <g id="ytick_27">
     <g id="line2d_48">
      <g>
       <use xlink:href="#m76c6c7023e" x="13.614577" y="18.918757" style="stroke: #000000; stroke-width: 0.6"/>
      </g>
     </g>
    </g>
    <g id="ytick_28">
     <g id="line2d_49">
      <g>
       <use xlink:href="#m76c6c7023e" x="13.614577" y="7.027646" style="stroke: #000000; stroke-width: 0.6"/>
      </g>
     </g>
    </g>
   </g>
   <g id="line2d_50">
    <path d="M 17.986044 328.087631 
L 19.498622 308.123955 
L 21.011201 292.753481 
L 22.922535 277.311323 
L 24.163694 268.901642 
L 25.899242 258.668753 
L 27.917163 248.450713 
L 30.012606 239.265158 
L 33.196644 227.343016 
L 35.511718 219.835663 
L 38.014216 212.565448 
L 41.622181 203.300148 
L 45.988054 193.56753 
L 49.768899 186.1465 
L 54.581056 177.75125 
L 56.847791 174.13302 
L 62.093709 166.438724 
L 64.848497 162.725531 
L 67.019475 159.93732 
L 71.388846 154.653839 
L 74.045004 151.633935 
L 79.561911 145.764423 
L 84.044534 141.346201 
L 90.024251 135.871272 
L 93.918232 132.531798 
L 99.917439 127.691295 
L 104.9585 123.877283 
L 110.334648 120.03504 
L 117.052157 115.523757 
L 124.181788 111.04554 
L 131.753678 106.595276 
L 140.577138 101.755991 
L 148.274258 97.801598 
L 156.990398 93.587863 
L 165.640945 89.651865 
L 175.64189 85.37146 
L 185.252177 81.500249 
L 196.271743 77.319629 
L 206.718752 73.582891 
L 217.49733 69.933731 
L 227.99135 66.561727 
L 242.738694 62.092007 
L 256.578775 58.151603 
L 270.404058 54.43343 
L 284.732602 50.785455 
L 302.396242 46.544976 
L 319.419958 42.696768 
L 338.936633 38.540265 
L 358.936958 34.531834 
L 380.26792 30.504885 
L 401.520931 26.719216 
L 424.146666 22.910502 
L 449.167777 18.935659 
L 450.761262 18.69031 
L 450.761262 18.69031 
" clip-path="url(#pe718e66fcc)" style="fill: none; stroke: #0000ff; stroke-linecap: square"/>
   </g>
   <g id="patch_4">
    <path d="M 13.614577 334.520722 
L 13.614577 0 
" style="fill: none; stroke: #000000; stroke-width: 0.8; stroke-linejoin: miter; stroke-linecap: square"/>
   </g>
   <g id="patch_5">
    <path d="M 9.33054 328.087631 
L 459.416766 328.087631 
" style="fill: none; stroke: #000000; stroke-width: 0.8; stroke-linejoin: miter; stroke-linecap: square"/>
   </g>
  </g>
 </g>
 <defs>
  <clipPath id="pe718e66fcc">
   <rect x="9.33054" y="0" width="450.086227" height="334.520722"/>
  </clipPath>
 </defs>
</svg>
