<?xml version="1.0" encoding="utf-8" standalone="no"?>
<!DOCTYPE svg PUBLIC "-//W3C//DTD SVG 1.1//EN"
  "http://www.w3.org/Graphics/SVG/1.1/DTD/svg11.dtd">
<svg xmlns:xlink="http://www.w3.org/1999/xlink" width="460.8pt" height="345.6pt" viewBox="0 0 460.8 345.6" xmlns="http://www.w3.org/2000/svg" version="1.1">
 <metadata>
  <rdf:RDF xmlns:dc="http://purl.org/dc/elements/1.1/" xmlns:cc="http://creativecommons.org/ns#" xmlns:rdf="http://www.w3.org/1999/02/22-rdf-syntax-ns#">
   <cc:Work>
    <dc:type rdf:resource="http://purl.org/dc/dcmitype/StillImage"/>
    <dc:date>2025-08-04T21:53:43.261245</dc:date>
    <dc:format>image/svg+xml</dc:format>
    <dc:creator>
     <cc:Agent>
      <dc:title>Matplotlib v3.10.3, https://matplotlib.org/</dc:title>
     </cc:Agent>
    </dc:creator>
   </cc:Work>
  </rdf:RDF>
 </metadata>
 <defs>
  <style type="text/css">*{stroke-linejoin: round; stroke-linecap: butt}</style>
 </defs>
 <g id="figure_1">
  <g id="patch_1">
   <path d="M 0 345.6 
L 460.8 345.6 
L 460.8 0 
L 0 0 
z
" style="fill: #ffffff"/>
  </g>
  <g id="axes_1">
   <g id="patch_2">
    <path d="M 0 345.6 
L 460.8 345.6 
L 460.8 0 
L 0 0 
z
" style="fill: #ffffff"/>
   </g>
   <g id="patch_3">
    <path d="M 451.938462 39.876923 
L 449.83393 40.981802 
L 448.325381 41.77379 
L 444.879793 43.582724 
L 441.961374 45.114894 
L 441.890704 45.151996 
L 437.800199 47.299511 
L 436.186294 48.146811 
L 435.108855 48.712466 
L 432.860912 49.892637 
L 430.587918 51.085958 
L 426.45642 53.254995 
L 425.202391 53.91336 
L 422.973239 55.083665 
L 420.439948 56.413643 
L 418.48036 57.442426 
L 416.670198 58.392762 
L 413.425145 60.096414 
L 411.851268 60.9227 
L 410.236857 61.770266 
L 406.936852 63.502768 
L 404.674734 64.69038 
L 402.521478 65.820839 
L 400.790144 66.72979 
L 398.372781 67.998905 
L 396.087584 69.198634 
L 395.157751 69.686796 
L 390.740764 72.005714 
L 389.061611 72.887269 
L 387.265876 73.830031 
L 384.588036 75.235897 
L 383.253558 75.936497 
L 379.923941 77.684546 
L 377.701016 78.851582 
L 375.640927 79.933129 
L 373.942048 80.82504 
L 372.811496 81.41858 
L 369.52834 83.142237 
L 368.057473 83.914442 
L 364.788078 85.630874 
L 363.382269 86.368924 
L 359.760351 88.270431 
L 358.827068 88.760405 
L 355.108743 90.712525 
L 354.383765 91.093139 
L 352.040485 92.323361 
L 349.671806 93.566917 
L 347.882154 94.506485 
L 344.061073 96.512552 
L 343.322433 96.900338 
L 340.925141 98.158917 
L 338.507281 99.428293 
L 336.976935 100.231724 
L 334.428277 101.56977 
L 331.064024 103.336003 
L 328.445606 104.710672 
L 326.15043 105.91564 
L 325.391122 106.314276 
L 322.680589 107.737306 
L 321.14543 108.543264 
L 318.416981 109.9757 
L 316.750226 110.850747 
L 314.549089 112.006344 
L 312.662295 112.996911 
L 308.781892 115.034122 
L 307.944887 115.47355 
L 304.727322 117.162771 
L 303.820408 117.638901 
L 301.257326 118.984519 
L 297.523201 120.944935 
L 297.048666 121.194065 
L 293.632384 122.987614 
L 292.604533 123.527236 
L 289.155111 125.338182 
L 287.884784 126.005104 
L 285.160491 127.435358 
L 283.785574 128.157189 
L 279.622568 130.342767 
L 277.854503 131.271001 
L 276.599175 131.930049 
L 273.899737 133.347253 
L 272.232752 134.222421 
L 268.756835 136.047277 
L 267.343779 136.789131 
L 265.924126 137.534449 
L 262.753926 139.198804 
L 261.301671 139.961238 
L 258.309573 141.532089 
L 255.658127 142.924099 
L 254.596517 143.481444 
L 252.297878 144.688229 
L 250.239807 145.768717 
L 246.812218 147.568201 
L 245.485034 148.264973 
L 242.31705 149.928164 
L 239.899603 151.197324 
L 238.876087 151.73467 
L 235.547629 153.48211 
L 234.539945 154.011144 
L 232.526891 155.067997 
L 229.442677 156.68721 
L 226.752921 158.099332 
L 223.8045 159.647253 
L 223.034097 160.051714 
L 219.429488 161.944134 
L 217.933366 162.729598 
L 215.267927 164.128954 
L 212.607664 165.525592 
L 211.755102 165.973187 
L 210.16127 166.809949 
L 207.529825 168.191457 
L 204.912854 169.565367 
L 202.003458 171.0928 
L 200.671094 171.792291 
L 197.745772 173.328085 
L 195.246448 174.64023 
L 193.370565 175.625069 
L 192.015269 176.336599 
L 189.343612 177.739219 
L 186.321331 179.325917 
L 184.130486 180.47611 
L 181.79124 181.704214 
L 179.854356 182.721078 
L 178.661381 183.34739 
L 175.10335 185.215357 
L 173.118384 186.257464 
L 171.688652 187.008073 
L 168.820043 188.514093 
L 166.659764 189.648239 
L 164.15541 190.963025 
L 163.491724 191.31146 
L 160.915637 192.663906 
L 157.276805 194.574293 
L 155.502888 195.505599 
L 154.479717 196.042764 
L 151.270363 197.727675 
L 148.500803 199.181694 
L 147.60068 199.654258 
L 144.457058 201.30466 
L 143.027109 202.055383 
L 140.861295 203.192435 
L 138.017566 204.685393 
L 135.857555 205.819399 
L 133.309612 207.157069 
L 130.390162 208.689781 
L 129.870652 208.962523 
L 126.419122 210.774577 
L 124.405306 211.83183 
L 122.684784 212.735104 
L 121.206937 213.510974 
L 117.205616 215.611667 
L 114.719846 216.916696 
L 114.190115 217.194805 
L 110.350053 219.210838 
L 110.150874 219.315406 
L 106.231173 221.37325 
L 104.776728 222.136833 
L 102.728036 223.212396 
L 99.787218 224.756326 
L 98.833743 225.256901 
L 95.55098 226.980351 
L 93.252761 228.186916 
L 90.36742 229.70172 
L 88.853157 230.496708 
L 86.511962 231.725835 
L 84.520268 232.771475 
L 82.807023 233.670928 
L 79.698418 235.302946 
L 78.738199 235.807061 
L 74.655702 237.950372 
L 74.542487 238.00981 
L 72.063149 239.311462 
L 69.652196 240.577213 
L 67.037819 241.94976 
L 64.862835 243.091627 
L 62.514309 244.324603 
L 59.602674 245.853212 
L 57.290342 247.067186 
L 55.04852 248.244142 
L 52.770082 249.440322 
L 50.423211 250.67243 
L 48.903887 251.470075 
L 46.469004 252.748388 
L 43.622994 254.242544 
L 41.744957 255.228513 
L 39.672915 256.316335 
L 38.647063 256.854907 
L 34.812469 258.868069 
L 34.41002 259.079355 
L 30.506698 261.128599 
L 27.79069 262.554503 
L 26.35541 263.308025 
L 24.076777 264.504307 
L 22.238915 265.469185 
L 19.740896 266.780645 
L 16.696477 268.378965 
L 16.58715 268.436362 
L 13.618459 269.994924 
L 10.920947 271.411118 
L 8.861538 272.492308 
L 8.861538 280.646154 
L 11.544087 279.326465 
L 13.954331 278.142466 
L 14.883427 277.686509 
L 18.130554 276.094988 
L 20.972272 274.704831 
L 21.293876 274.547664 
L 24.495183 272.985039 
L 25.993212 272.254993 
L 28.25797 271.152761 
L 31.179009 269.733823 
L 32.260015 269.209502 
L 36.690321 267.065339 
L 37.02874 266.90187 
L 40.96507 265.003941 
L 42.92963 264.05918 
L 44.014841 263.538028 
L 47.158071 262.031581 
L 49.812066 260.763245 
L 50.72066 260.329824 
L 54.090919 258.725802 
L 56.016719 257.811938 
L 57.484603 257.116737 
L 58.988398 256.405787 
L 62.426204 254.785468 
L 64.820716 253.661147 
L 66.373596 252.933967 
L 69.513388 251.468591 
L 71.152858 250.706156 
L 72.393528 250.130472 
L 75.249107 248.80984 
L 77.854273 247.610591 
L 79.512929 246.849961 
L 82.710544 245.390311 
L 84.049231 244.78197 
L 87.258434 243.330579 
L 89.420438 242.35862 
L 90.483702 241.88242 
L 92.955741 240.780083 
L 95.784142 239.527497 
L 97.314179 238.853972 
L 100.203546 237.590332 
L 102.716725 236.500528 
L 104.538856 235.716151 
L 107.409987 234.490688 
L 109.263616 233.706745 
L 112.046176 232.541354 
L 114.133573 231.67671 
L 115.67151 231.045271 
L 117.256006 230.399961 
L 119.386952 229.540965 
L 121.305469 228.776837 
L 125.009669 227.328465 
L 125.942726 226.969669 
L 129.015179 225.806995 
L 131.809893 224.776668 
L 133.539512 224.153325 
L 135.305236 223.529238 
L 137.103061 222.907497 
L 139.116662 222.228886 
L 141.130264 221.570705 
L 143.546743 220.8106 
L 144.155519 220.624652 
L 146.615327 219.898167 
L 148.385118 219.402254 
L 149.625958 219.069268 
L 150.866798 218.749386 
L 152.596366 218.327195 
L 154.325934 217.935251 
L 154.718471 217.850848 
L 156.34614 217.520293 
L 157.97381 217.223637 
L 158.932241 217.066373 
L 159.890672 216.923117 
L 160.719598 216.811279 
L 161.548525 216.711366 
L 162.40132 216.621831 
L 163.254115 216.546643 
L 164.106911 216.486804 
L 164.959706 216.443416 
L 165.968 216.415008 
L 166.787849 216.411653 
L 167.607698 216.427444 
L 168.427547 216.463866 
L 169.247396 216.522568 
L 170.119205 216.611493 
L 170.991014 216.730164 
L 171.900037 216.888597 
L 172.80906 217.086003 
L 173.374119 217.230142 
L 173.939177 217.392023 
L 174.504236 217.57285 
L 175.069294 217.773945 
L 175.580283 217.974454 
L 176.091272 218.193894 
L 176.602261 218.433546 
L 177.11325 218.69481 
L 177.558592 218.94133 
L 178.003934 219.206541 
L 178.449276 219.491649 
L 178.894618 219.79797 
L 179.33996 220.126938 
L 179.785302 220.480124 
L 180.230644 220.859248 
L 180.675986 221.266199 
L 181.03237 221.613297 
L 181.388754 221.980707 
L 181.745138 222.36969 
L 182.101522 222.781616 
L 182.457907 223.217972 
L 182.814291 223.680381 
L 183.170675 224.170612 
L 183.527059 224.690599 
L 183.786214 225.088613 
L 184.04537 225.504362 
L 184.304525 225.938793 
L 184.56368 226.392921 
L 184.822836 226.867838 
L 185.081991 227.364717 
L 185.341147 227.884824 
L 185.600302 228.429521 
L 185.903884 229.100859 
L 186.207467 229.810551 
L 186.511049 230.561434 
L 186.814631 231.356634 
L 186.966422 231.771918 
L 187.118214 232.199603 
L 187.270005 232.64018 
L 187.421796 233.094164 
L 187.573587 233.562099 
L 187.725378 234.044558 
L 187.877169 234.542148 
L 188.028961 235.055509 
L 188.16063 235.514115 
L 188.2923 235.985562 
L 188.42397 236.470339 
L 188.55564 236.968962 
L 188.687309 237.481971 
L 188.818979 238.009938 
L 188.950649 238.553463 
L 189.082318 239.11318 
L 189.213988 239.689758 
L 189.345658 240.283903 
L 189.477328 240.89636 
L 189.608997 241.52792 
L 189.740667 242.179417 
L 189.872337 242.851737 
L 190.004007 243.545818 
L 190.135676 244.262654 
L 190.285291 245.106151 
L 190.434906 245.982054 
L 190.584521 246.892138 
L 190.734136 247.838315 
L 190.827784 248.449828 
L 190.921432 249.076818 
L 191.01508 249.719847 
L 191.108728 250.379504 
L 191.202376 251.056406 
L 191.296024 251.751203 
L 191.389672 252.464576 
L 191.48332 253.197243 
L 191.576968 253.949957 
L 191.670616 254.723514 
L 191.764264 255.51875 
L 191.857912 256.336547 
L 191.95156 257.177838 
L 192.045208 258.043604 
L 192.138856 258.934885 
L 192.232504 259.852779 
L 192.326152 260.798448 
L 192.419799 261.773124 
L 192.513447 262.778112 
L 192.607095 263.814797 
L 192.700743 264.884649 
L 192.794391 265.989231 
L 192.888039 267.130205 
L 192.981687 268.309343 
L 193.075335 269.528532 
L 193.168983 270.789786 
L 193.262631 272.095257 
L 193.356279 273.447246 
L 193.449927 274.848215 
L 193.543575 276.300807 
L 193.637223 277.807856 
L 193.730871 279.372406 
L 193.805993 280.671219 
L 193.881115 282.010947 
L 193.956237 283.39351 
L 194.03136 284.820955 
L 194.106482 286.295456 
L 194.181604 287.819335 
L 194.256726 289.395065 
L 194.331848 291.025289 
L 194.40697 292.712834 
L 194.482093 294.460724 
L 194.557215 296.272201 
L 194.632337 298.150741 
L 194.707459 300.100082 
L 194.782581 302.124243 
L 194.857703 304.227552 
L 194.932825 306.414679 
L 195.007948 308.690669 
L 195.08307 311.06098 
L 195.158192 313.531527 
L 195.233314 316.108728 
L 195.308436 318.799562 
L 195.383558 321.611633 
L 195.458681 324.553236 
L 195.533803 327.633442 
L 195.608925 330.862189 
L 195.684047 334.250388 
L 195.759169 337.810046 
L 195.834291 341.554407 
L 195.909413 345.498114 
L 195.984536 349.657403 
L 196.059658 354.050318 
L 196.13478 358.69698 
L 196.175263 361.314049 
L 196.215746 364.015134 
L 196.256229 366.804323 
L 196.296712 369.685975 
L 196.337195 372.66474 
L 196.377678 375.745587 
L 196.418161 378.933828 
L 196.458644 382.23515 
L 196.499127 385.65565 
L 196.53961 389.201873 
L 196.580093 392.880847 
L 196.620576 396.700139 
L 196.661059 400.667899 
L 196.701542 404.792924 
L 196.742025 409.084715 
L 196.782508 413.553559 
L 196.822991 418.210605 
L 196.863474 423.067956 
L 196.903957 428.138779 
L 196.94444 433.43742 
L 196.984923 438.979538 
L 197.025406 444.782264 
L 197.065889 450.864371 
L 197.106372 457.246482 
L 197.146855 463.951301 
L 197.187338 471.003882 
L 197.227821 478.431941 
L 197.268304 486.266219 
L 197.308786 494.540909 
L 197.349269 503.29415 
L 197.389752 512.568617 
L 197.430235 522.412215 
L 197.486848 537.236019 
L 197.54346 553.450875 
L 197.600073 571.261936 
L 197.656685 590.916785 
L 197.713298 612.717 
L 197.76991 637.033717 
L 197.826523 664.328924 
L 197.883135 695.185059 
L 197.939748 730.347015 
L 197.99636 770.783012 
L 198.052973 817.775088 
L 198.109585 873.057442 
L 198.166198 939.035054 
L 198.22281 1019.142723 
L 198.279423 1118.462363 
L 198.336035 1244.844803 
L 198.392648 1411.093006 
L 198.44926 1639.597705 
L 198.505872 1973.379723 
L 198.562485 2506.960659 
L 198.619097 3496.342733 
L 198.67571 5960.93164 
L 198.732322 22864.901965 
L 198.788935 -11562.130401 
L 198.845547 -4476.495743 
L 198.90216 -2721.171923 
L 198.958772 -1925.411941 
L 199.015385 -1471.288751 
L 199.071997 -1177.678836 
L 199.12861 -972.264003 
L 199.185222 -820.4969 
L 199.241835 -703.78991 
L 199.374633 -513.273185 
L 199.507432 -389.723545 
L 199.640231 -303.116246 
L 199.77303 -239.041666 
L 199.905828 -189.722007 
L 200.038627 -150.589723 
L 200.171426 -118.78617 
L 200.304225 -92.430751 
L 200.437023 -70.235596 
L 200.569822 -51.289097 
L 200.702621 -34.927849 
L 200.83542 -20.657565 
L 200.968218 -8.102411 
L 201.101017 3.028471 
L 201.233816 12.963693 
L 201.366615 21.885429 
L 201.499413 29.940633 
L 201.632212 37.249164 
L 201.765011 43.909747 
L 201.89781 50.004443 
L 202.030608 55.602016 
L 202.163407 60.760525 
L 202.296206 65.529329 
L 202.429005 69.950657 
L 202.561803 74.060848 
L 202.694602 77.891349 
L 202.827401 81.469507 
L 202.9602 84.819216 
L 203.092998 87.961449 
L 203.225797 90.914688 
L 203.358596 93.695284 
L 203.491395 96.317754 
L 203.554403 97.510495 
L 203.617411 98.671841 
L 203.680419 99.802997 
L 203.743427 100.905107 
L 203.806435 101.979257 
L 203.869443 103.026482 
L 203.932451 104.047765 
L 203.995459 105.04404 
L 204.058467 106.016201 
L 204.121475 106.965095 
L 204.184483 107.891534 
L 204.247492 108.79629 
L 204.3105 109.680101 
L 204.373508 110.543673 
L 204.436516 111.387678 
L 204.499524 112.212761 
L 204.562532 113.019539 
L 204.62554 113.8086 
L 204.688548 114.58051 
L 204.751556 115.335809 
L 204.814564 116.075016 
L 204.877572 116.798629 
L 204.94058 117.507123 
L 205.003588 118.200958 
L 205.066597 118.880571 
L 205.129605 119.546386 
L 205.192613 120.198808 
L 205.255621 120.838226 
L 205.318629 121.465016 
L 205.381637 122.079538 
L 205.507653 123.273153 
L 205.617628 124.277915 
L 205.727604 125.249979 
L 205.837579 126.190871 
L 205.947555 127.102021 
L 206.05753 127.984777 
L 206.167506 128.840405 
L 206.277481 129.670096 
L 206.387456 130.474975 
L 206.497432 131.2561 
L 206.607407 132.014472 
L 206.717383 132.751037 
L 206.827358 133.466688 
L 206.937333 134.16227 
L 207.047309 134.838585 
L 207.157284 135.496392 
L 207.26726 136.136409 
L 207.425447 137.027169 
L 207.583634 137.884442 
L 207.741821 138.710002 
L 207.900008 139.505501 
L 208.058194 140.272481 
L 208.216381 141.012379 
L 208.374568 141.726537 
L 208.532755 142.416211 
L 208.735236 143.26514 
L 208.937716 144.078168 
L 209.140196 144.857408 
L 209.342677 145.604813 
L 209.545157 146.322189 
L 209.747637 147.011209 
L 209.950118 147.673425 
L 210.152598 148.31028 
L 210.355078 148.923114 
L 210.557559 149.513177 
L 210.760039 150.081636 
L 210.96252 150.629578 
L 211.165 151.15802 
L 211.36748 151.667916 
L 211.569961 152.160157 
L 211.772441 152.635579 
L 211.959578 153.060704 
L 212.146715 153.472718 
L 212.333852 153.872175 
L 212.520989 154.259596 
L 212.895263 155.000285 
L 213.269538 155.698435 
L 213.643812 156.357334 
L 214.018086 156.979946 
L 214.39236 157.568956 
L 214.766634 158.126796 
L 215.214618 158.756602 
L 215.601067 159.2692 
L 215.987516 159.755466 
L 216.373965 160.217218 
L 216.760413 160.656116 
L 217.146862 161.073687 
L 217.533311 161.47133 
L 217.91976 161.850335 
L 218.306209 162.21189 
L 218.849257 162.69256 
L 219.392305 163.143711 
L 219.935353 163.567844 
L 220.478401 163.967219 
L 221.226622 164.480666 
L 221.974843 164.955746 
L 222.863434 165.475887 
L 223.752025 165.953995 
L 224.640617 166.395447 
L 225.529208 166.804957 
L 226.249403 167.116303 
L 226.969599 167.411402 
L 227.822356 167.742293 
L 228.675113 168.055694 
L 229.52787 168.3541 
L 230.380627 168.639794 
L 230.421252 168.653124 
L 232.268022 169.237159 
L 234.114792 169.790608 
L 236.108638 170.372844 
L 237.741345 170.850601 
L 239.108455 171.258891 
L 240.475566 171.680519 
L 241.867938 172.129239 
L 243.26031 172.603147 
L 244.725649 173.135563 
L 245.674349 173.501963 
L 246.623049 173.887801 
L 247.39016 174.215445 
L 248.157271 174.558349 
L 248.924383 174.917732 
L 249.691494 175.294873 
L 250.571381 175.751066 
L 251.281323 176.138931 
L 251.991265 176.545751 
L 252.701207 176.97279 
L 253.41115 177.421385 
L 254.006161 177.814995 
L 254.601171 178.225627 
L 255.196182 178.654213 
L 255.791193 179.10174 
L 256.270436 179.476672 
L 256.74968 179.865139 
L 257.228923 180.267742 
L 257.708167 180.685114 
L 258.336044 181.255389 
L 258.96392 181.853735 
L 259.591797 182.481843 
L 260.219674 183.141525 
L 260.939699 183.939406 
L 261.299711 184.355858 
L 261.659723 184.784542 
L 262.019736 185.225899 
L 262.379748 185.680389 
L 262.73976 186.148494 
L 263.099772 186.630717 
L 263.465136 187.135084 
L 263.830501 187.655112 
L 264.195865 188.191407 
L 264.561229 188.744602 
L 264.926593 189.315365 
L 265.291957 189.904397 
L 265.657321 190.512433 
L 266.022685 191.140249 
L 266.393439 191.798384 
L 266.764193 192.478625 
L 267.134946 193.181922 
L 267.5057 193.909274 
L 267.843315 194.593435 
L 268.18093 195.299263 
L 268.518545 196.027649 
L 268.85616 196.779527 
L 269.193775 197.555886 
L 269.53139 198.357768 
L 269.869006 199.186274 
L 270.206621 200.042568 
L 270.455754 200.692981 
L 270.704886 201.359715 
L 270.954019 202.043312 
L 271.203152 202.744338 
L 271.407391 203.332454 
L 271.611629 203.933021 
L 271.815868 204.546391 
L 272.020106 205.17293 
L 272.224345 205.813016 
L 272.428584 206.467044 
L 272.632822 207.135422 
L 272.837061 207.818575 
L 273.032876 208.487835 
L 273.228691 209.171488 
L 273.424506 209.869953 
L 273.620321 210.583666 
L 273.816136 211.313082 
L 274.011951 212.058671 
L 274.207766 212.820925 
L 274.403581 213.600353 
L 274.599396 214.397488 
L 274.795211 215.212882 
L 274.991026 216.047112 
L 275.186841 216.900779 
L 275.382656 217.774509 
L 275.578471 218.668955 
L 275.774286 219.5848 
L 275.970101 220.522756 
L 276.151457 221.411825 
L 276.332814 222.321114 
L 276.51417 223.251267 
L 276.695527 224.202953 
L 276.876883 225.176871 
L 277.05824 226.173751 
L 277.239596 227.194354 
L 277.420953 228.239476 
L 277.602309 229.309948 
L 277.783666 230.406639 
L 277.965022 231.530459 
L 278.146379 232.682358 
L 278.327735 233.863334 
L 278.509092 235.07443 
L 278.690448 236.316742 
L 278.871805 237.591416 
L 279.08259 239.115203 
L 279.187983 239.894721 
L 279.293376 240.686334 
L 279.398769 241.490308 
L 279.504162 242.306921 
L 279.609555 243.136456 
L 279.714948 243.979206 
L 279.82077 244.838988 
L 279.926593 245.712712 
L 280.032415 246.600701 
L 280.138237 247.503291 
L 280.244059 248.420827 
L 280.349881 249.353664 
L 280.455704 250.302171 
L 280.561526 251.266725 
L 280.667348 252.247719 
L 280.77317 253.245558 
L 280.878992 254.260658 
L 280.984814 255.293451 
L 281.090637 256.344384 
L 281.196459 257.413917 
L 281.302281 258.502529 
L 281.408103 259.610711 
L 281.513925 260.738974 
L 281.619748 261.887848 
L 281.72557 263.057879 
L 281.831392 264.249633 
L 281.937214 265.463698 
L 282.043036 266.700682 
L 282.148858 267.961215 
L 282.254681 269.245952 
L 282.360503 270.55557 
L 282.466325 271.890775 
L 282.572147 273.252295 
L 282.677969 274.640891 
L 282.783792 276.05735 
L 282.889614 277.502492 
L 282.995436 278.977168 
L 283.101258 280.482262 
L 283.215495 282.142247 
L 283.329732 283.839964 
L 283.443969 285.576674 
L 283.558206 287.353697 
L 283.672443 289.172412 
L 283.786681 291.03426 
L 283.900918 292.940752 
L 283.958036 293.911231 
L 284.015155 294.893469 
L 284.072273 295.887677 
L 284.129392 296.894068 
L 284.18651 297.912862 
L 284.243629 298.944284 
L 284.300747 299.988565 
L 284.357866 301.04594 
L 284.414984 302.116651 
L 284.472103 303.200947 
L 284.529222 304.299081 
L 284.58634 305.411314 
L 284.643459 306.537912 
L 284.700577 307.679149 
L 284.757696 308.835307 
L 284.814814 310.006672 
L 284.871933 311.19354 
L 284.929051 312.396215 
L 285.015938 314.256684 
L 285.102824 316.155582 
L 285.18971 318.094085 
L 285.276596 320.073421 
L 285.363483 322.094866 
L 285.450369 324.159753 
L 285.537255 326.26947 
L 285.624141 328.425463 
L 285.711028 330.629245 
L 285.797914 332.882392 
L 285.8848 335.186553 
L 285.971687 337.543448 
L 286.058573 339.954878 
L 286.145459 342.422726 
L 286.232345 344.948961 
L 286.319232 347.535648 
L 286.406118 350.184949 
L 286.493004 352.899128 
L 286.57989 355.680563 
L 286.666777 358.531748 
L 286.753663 361.455302 
L 286.840549 364.453976 
L 286.927436 367.530664 
L 287.014322 370.688409 
L 287.101208 373.930415 
L 287.188094 377.260057 
L 287.274981 380.680892 
L 287.361867 384.196674 
L 287.448753 387.811363 
L 287.535639 391.529144 
L 287.622526 395.354443 
L 287.709412 399.29194 
L 287.767943 402.010166 
L 287.826474 404.783141 
L 287.885005 407.612521 
L 287.943536 410.500026 
L 288.002067 413.44745 
L 288.060598 416.456659 
L 288.119129 419.529598 
L 288.17766 422.668295 
L 288.236191 425.874866 
L 288.294722 429.151515 
L 288.353253 432.500547 
L 288.411784 435.924367 
L 288.470315 439.425486 
L 288.528846 443.006532 
L 288.587377 446.670252 
L 288.645908 450.419521 
L 288.704439 454.257347 
L 288.76297 458.186881 
L 288.821501 462.211429 
L 288.880032 466.334453 
L 288.938563 470.559588 
L 288.997094 474.890649 
L 289.055625 479.331643 
L 289.114156 483.886785 
L 289.172687 488.560503 
L 289.231218 493.357461 
L 289.289749 498.28257 
L 289.34828 503.341005 
L 289.406811 508.538223 
L 289.465342 513.879983 
L 289.523873 519.372368 
L 289.582404 525.021807 
L 289.613886 528.127775 
L 289.645368 531.282245 
L 289.67685 534.486356 
L 289.708332 537.741283 
L 289.739814 541.048239 
L 289.771296 544.408476 
L 289.802778 547.823286 
L 289.83426 551.294004 
L 289.865741 554.822009 
L 289.897223 558.408724 
L 289.928705 562.055621 
L 289.960187 565.76422 
L 289.991669 569.536096 
L 290.023151 573.372875 
L 290.054633 577.27624 
L 290.086115 581.247932 
L 290.117597 585.289755 
L 290.149079 589.403576 
L 290.180561 593.591329 
L 290.212043 597.855017 
L 290.243525 602.196718 
L 290.275007 606.618585 
L 290.306489 611.122851 
L 290.33797 615.711833 
L 290.369452 620.387936 
L 290.400934 625.153657 
L 290.432416 630.011588 
L 290.463898 634.964424 
L 290.49538 640.014964 
L 290.526862 645.16612 
L 290.558344 650.420919 
L 290.589826 655.782513 
L 290.692832 674.112755 
L 290.795838 693.748213 
L 290.898844 714.833048 
L 291.00185 737.533461 
L 291.104856 762.042074 
L 291.207862 788.583397 
L 291.310868 817.420712 
L 291.413875 848.864821 
L 291.516881 883.285274 
L 291.619887 921.124934 
L 291.722893 962.919111 
L 291.825899 1009.321013 
L 291.928905 1061.136089 
L 292.031911 1119.369134 
L 292.134917 1185.290024 
L 292.237923 1260.5273 
L 292.340929 1347.204429 
L 292.443935 1448.143262 
L 292.546941 1567.17688 
L 292.649948 1709.647142 
L 292.752954 1883.228068 
L 292.85596 2099.354494 
L 292.958966 2375.847581 
L 293.061972 2742.096766 
L 293.164978 3250.26483 
L 293.267984 4002.64603 
L 293.37099 5230.935933 
L 293.473996 7595.483608 
L 293.577002 14029.63223 
L 293.680008 99860.129465 
L 293.783014 -19174.595859 
L 293.88602 -8677.522433 
L 293.981556 -5727.582489 
L 294.077092 -4259.439759 
L 294.172628 -3380.737734 
L 294.268164 -2795.851052 
L 294.3637 -2378.527566 
L 294.459236 -2065.786477 
L 294.554772 -1822.695696 
L 294.650308 -1628.321682 
L 294.745844 -1469.355824 
L 294.84138 -1336.932513 
L 294.936916 -1224.917883 
L 295.032452 -1128.932901 
L 295.127988 -1045.767709 
L 295.223524 -973.015835 
L 295.31906 -908.837648 
L 295.414596 -851.802743 
L 295.510132 -800.782143 
L 295.605668 -754.872874 
L 295.701204 -713.344108 
L 295.79674 -675.598006 
L 295.892276 -641.140783 
L 295.987812 -609.561016 
L 296.083348 -580.513158 
L 296.178884 -553.704858 
L 296.27442 -528.88711 
L 296.369956 -505.8465 
L 296.465492 -484.399072 
L 296.561028 -464.385409 
L 296.656564 -445.66668 
L 296.7521 -428.121415 
L 296.847636 -411.642877 
L 296.943172 -396.136893 
L 296.995484 -388.02805 
L 297.047796 -380.173159 
L 297.100108 -372.560508 
L 297.15242 -365.179098 
L 297.204732 -358.018582 
L 297.257044 -351.069226 
L 297.309356 -344.321855 
L 297.361668 -337.76782 
L 297.41398 -331.39896 
L 297.466292 -325.207566 
L 297.518604 -319.18635 
L 297.570916 -313.328419 
L 297.623228 -307.627247 
L 297.67554 -302.076651 
L 297.727852 -296.670768 
L 297.780164 -291.404039 
L 297.832476 -286.271181 
L 297.884788 -281.267179 
L 297.9371 -276.387265 
L 297.989412 -271.626901 
L 298.041724 -266.981769 
L 298.094036 -262.447758 
L 298.146347 -258.020948 
L 298.198659 -253.697603 
L 298.250971 -249.474157 
L 298.303283 -245.347206 
L 298.355595 -241.313501 
L 298.407907 -237.369935 
L 298.460219 -233.51354 
L 298.512531 -229.741473 
L 298.564843 -226.051017 
L 298.617155 -222.439569 
L 298.688807 -217.61669 
L 298.760458 -212.931278 
L 298.832109 -208.377577 
L 298.903761 -203.950152 
L 298.975412 -199.643859 
L 299.047063 -195.453834 
L 299.118714 -191.375466 
L 299.190366 -187.404387 
L 299.262017 -183.536453 
L 299.333668 -179.767731 
L 299.40532 -176.094486 
L 299.476971 -172.513166 
L 299.548622 -169.020397 
L 299.620274 -165.612963 
L 299.691925 -162.287807 
L 299.763576 -159.042012 
L 299.835227 -155.872801 
L 299.906879 -152.777522 
L 299.97853 -149.753646 
L 300.050181 -146.798757 
L 300.121833 -143.910547 
L 300.193484 -141.08681 
L 300.265135 -138.325437 
L 300.336787 -135.624408 
L 300.408438 -132.981792 
L 300.480089 -130.395737 
L 300.551741 -127.864471 
L 300.623392 -125.386291 
L 300.695043 -122.95957 
L 300.766694 -120.582741 
L 300.838346 -118.254304 
L 300.909997 -115.972816 
L 300.977712 -113.858576 
L 301.045426 -111.783907 
L 301.113141 -109.747723 
L 301.180856 -107.748981 
L 301.24857 -105.786674 
L 301.316285 -103.859829 
L 301.384 -101.967511 
L 301.451715 -100.108814 
L 301.519429 -98.282866 
L 301.587144 -96.488824 
L 301.654859 -94.725873 
L 301.722573 -92.993227 
L 301.790288 -91.290124 
L 301.858003 -89.615831 
L 301.925717 -87.969634 
L 301.993432 -86.350848 
L 302.061147 -84.758805 
L 302.128861 -83.192862 
L 302.196576 -81.652396 
L 302.264291 -80.136801 
L 302.332005 -78.645494 
L 302.39972 -77.177907 
L 302.467435 -75.733491 
L 302.535149 -74.311713 
L 302.602864 -72.912058 
L 302.670579 -71.534024 
L 302.738294 -70.177125 
L 302.806008 -68.840891 
L 302.873723 -67.524865 
L 302.941438 -66.228601 
L 303.009152 -64.95167 
L 303.076867 -63.693652 
L 303.159081 -62.191092 
L 303.241296 -60.715108 
L 303.32351 -59.265021 
L 303.405725 -57.840173 
L 303.487939 -56.439927 
L 303.570154 -55.06367 
L 303.652368 -53.710807 
L 303.734583 -52.380764 
L 303.816797 -51.072984 
L 303.899012 -49.786929 
L 303.981226 -48.522079 
L 304.063441 -47.277929 
L 304.145655 -46.053991 
L 304.227869 -44.849791 
L 304.310084 -43.664871 
L 304.392298 -42.498786 
L 304.474513 -41.351105 
L 304.556727 -40.221411 
L 304.638942 -39.109297 
L 304.721156 -38.014372 
L 304.803371 -36.936253 
L 304.885585 -35.87457 
L 304.9678 -34.828963 
L 305.050014 -33.799084 
L 305.132229 -32.784592 
L 305.214443 -31.78516 
L 305.296658 -30.800465 
L 305.378872 -29.830199 
L 305.461086 -28.874057 
L 305.543301 -27.931747 
L 305.625515 -27.002981 
L 305.70773 -26.087483 
L 305.81542 -24.907925 
L 305.923109 -23.750078 
L 306.030799 -22.613373 
L 306.138489 -21.497261 
L 306.246179 -20.401213 
L 306.353868 -19.324716 
L 306.461558 -18.267276 
L 306.569248 -17.228415 
L 306.676938 -16.20767 
L 306.784628 -15.204594 
L 306.892317 -14.218756 
L 307.000007 -13.249737 
L 307.107697 -12.297131 
L 307.215387 -11.360546 
L 307.323076 -10.439604 
L 307.430766 -9.533935 
L 307.591691 -8.208257 
L 307.752616 -6.914749 
L 307.913541 -5.65232 
L 308.074466 -4.419927 
L 308.23539 -3.216573 
L 308.396315 -2.041304 
L 308.55724 -0.89321 
L 308.718165 0.228584 
L 308.87909 1.324913 
L 309.040014 2.396577 
L 309.200939 3.444345 
L 309.361864 4.468952 
L 309.522789 5.471105 
L 309.683714 6.45148 
L 309.844639 7.41073 
L 310.005563 8.349477 
L 310.155346 9.205335 
L 310.305129 10.044419 
L 310.454912 10.867177 
L 310.604695 11.674045 
L 310.754477 12.46544 
L 310.90426 13.241766 
L 311.054043 14.003412 
L 311.203826 14.750756 
L 311.353609 15.48416 
L 311.503392 16.203977 
L 311.653174 16.910545 
L 311.802957 17.604195 
L 311.95274 18.285242 
L 312.102523 18.953995 
L 312.252306 19.610752 
L 312.402088 20.255799 
L 312.702069 21.513581 
L 313.002049 22.727643 
L 313.30203 23.899988 
L 313.60201 25.032501 
L 313.776882 25.675025 
L 313.951755 26.304952 
L 314.126627 26.922605 
L 314.301499 27.528296 
L 314.651243 28.704988 
L 315.000988 29.837324 
L 315.350732 30.92745 
L 315.700477 31.977376 
L 316.050221 32.988986 
L 316.399965 33.96405 
L 316.646959 34.63154 
L 316.893953 35.282187 
L 317.140947 35.916524 
L 317.38794 36.53506 
L 317.666987 37.215465 
L 317.946033 37.876998 
L 318.225079 38.520301 
L 318.504125 39.14599 
L 318.783171 39.75465 
L 319.062217 40.346843 
L 319.341263 40.923106 
L 319.620309 41.483951 
L 319.878493 41.989561 
L 320.136677 42.482769 
L 320.39486 42.963931 
L 320.653044 43.433395 
L 321.169412 44.33854 
L 321.68578 45.200717 
L 322.202148 46.022256 
L 322.718516 46.80532 
L 323.234883 47.551921 
L 323.751251 48.263936 
L 324.128932 48.763829 
L 324.506614 49.2468 
L 324.884295 49.713462 
L 325.261976 50.1644 
L 325.813386 50.79567 
L 326.364796 51.396234 
L 326.916205 51.967617 
L 327.467615 52.511244 
L 327.963911 52.977904 
L 328.460208 53.424075 
L 328.983914 53.873618 
L 329.50762 54.30226 
L 330.031325 54.7109 
L 330.555031 55.100388 
L 331.078737 55.471527 
L 331.602443 55.825072 
L 332.126149 56.161741 
L 332.649855 56.482211 
L 333.418517 56.924576 
L 334.071649 57.275535 
L 334.724781 57.604751 
L 335.377912 57.913242 
L 336.031044 58.201964 
L 336.611433 58.442664 
L 337.191822 58.669055 
L 337.772211 58.881698 
L 338.3526 59.081128 
L 338.989462 59.285357 
L 339.626324 59.474916 
L 340.263185 59.650404 
L 340.900047 59.812387 
L 341.519439 59.957481 
L 342.13883 60.090776 
L 343.377614 60.323722 
L 344.48559 60.49627 
L 345.593567 60.637249 
L 346.872599 60.763298 
L 348.151631 60.852652 
L 348.576869 60.87467 
L 349.88184 60.919553 
L 351.186811 60.93201 
L 352.827794 60.904931 
L 354.468777 60.833797 
L 355.423048 60.773551 
L 356.377318 60.700198 
L 357.66363 60.581609 
L 358.949942 60.441597 
L 360.490813 60.247394 
L 362.017357 60.028326 
L 363.543902 59.784441 
L 365.34094 59.467667 
L 366.685917 59.210912 
L 367.87137 58.971454 
L 369.056824 58.720271 
L 370.489846 58.401742 
L 371.922868 58.06775 
L 373.041433 57.796836 
L 374.410953 57.453534 
L 375.780473 57.098046 
L 378.573121 56.337824 
L 381.123867 55.605164 
L 383.024174 55.037469 
L 384.877329 54.467108 
L 387.184681 53.73531 
L 390.249413 52.728918 
L 392.495037 51.968489 
L 394.070628 51.424117 
L 396.548192 50.551127 
L 399.186621 49.600053 
L 401.71693 48.668658 
L 403.887414 47.855645 
L 404.093784 47.777697 
L 406.616159 46.816282 
L 408.787826 45.976211 
L 412.403132 44.554129 
L 413.690869 44.040896 
L 416.157454 43.048584 
L 418.500658 42.095193 
L 421.276782 40.952936 
L 422.107403 40.60861 
L 425.939701 39.005542 
L 427.164577 38.488385 
L 429.778146 37.377585 
L 431.358184 36.701399 
L 433.827349 35.638016 
L 435.291504 35.003751 
L 437.51221 34.036705 
L 440.048196 32.925237 
L 442.759547 31.728915 
L 446.14802 30.222859 
L 447.723844 29.518512 
L 449.944218 28.522004 
L 451.938462 27.623077 
z
" clip-path="url(#p81829160cc)" style="fill: #cccccc; opacity: 0.5"/>
   </g>
   <g id="matplotlib.axis_1">
    <g id="xtick_1">
     <g id="line2d_1">
      <defs>
       <path id="me95d3e988e" d="M 0 0 
L 0 3.5 
" style="stroke: #000000; stroke-width: 0.8"/>
      </defs>
      <g>
       <use xlink:href="#me95d3e988e" x="40.50989" y="172.8" style="stroke: #000000; stroke-width: 0.8"/>
      </g>
     </g>
     <g id="text_1">
      <!-- −6 -->
      <g transform="translate(33.138796 187.398437) scale(0.1 -0.1)">
       <defs>
        <path id="DejaVuSans-2212" d="M 678 2272 
L 4684 2272 
L 4684 1741 
L 678 1741 
L 678 2272 
z
" transform="scale(0.015625)"/>
        <path id="DejaVuSans-36" d="M 2113 2584 
Q 1688 2584 1439 2293 
Q 1191 2003 1191 1497 
Q 1191 994 1439 701 
Q 1688 409 2113 409 
Q 2538 409 2786 701 
Q 3034 994 3034 1497 
Q 3034 2003 2786 2293 
Q 2538 2584 2113 2584 
z
M 3366 4563 
L 3366 3988 
Q 3128 4100 2886 4159 
Q 2644 4219 2406 4219 
Q 1781 4219 1451 3797 
Q 1122 3375 1075 2522 
Q 1259 2794 1537 2939 
Q 1816 3084 2150 3084 
Q 2853 3084 3261 2657 
Q 3669 2231 3669 1497 
Q 3669 778 3244 343 
Q 2819 -91 2113 -91 
Q 1303 -91 875 529 
Q 447 1150 447 2328 
Q 447 3434 972 4092 
Q 1497 4750 2381 4750 
Q 2619 4750 2861 4703 
Q 3103 4656 3366 4563 
z
" transform="scale(0.015625)"/>
       </defs>
       <use xlink:href="#DejaVuSans-2212"/>
       <use xlink:href="#DejaVuSans-36" transform="translate(83.789062 0)"/>
      </g>
     </g>
    </g>
    <g id="xtick_2">
     <g id="line2d_2">
      <g>
       <use xlink:href="#me95d3e988e" x="103.806593" y="172.8" style="stroke: #000000; stroke-width: 0.8"/>
      </g>
     </g>
     <g id="text_2">
      <!-- −4 -->
      <g transform="translate(96.4355 187.398437) scale(0.1 -0.1)">
       <defs>
        <path id="DejaVuSans-34" d="M 2419 4116 
L 825 1625 
L 2419 1625 
L 2419 4116 
z
M 2253 4666 
L 3047 4666 
L 3047 1625 
L 3713 1625 
L 3713 1100 
L 3047 1100 
L 3047 0 
L 2419 0 
L 2419 1100 
L 313 1100 
L 313 1709 
L 2253 4666 
z
" transform="scale(0.015625)"/>
       </defs>
       <use xlink:href="#DejaVuSans-2212"/>
       <use xlink:href="#DejaVuSans-34" transform="translate(83.789062 0)"/>
      </g>
     </g>
    </g>
    <g id="xtick_3">
     <g id="line2d_3">
      <g>
       <use xlink:href="#me95d3e988e" x="167.103297" y="172.8" style="stroke: #000000; stroke-width: 0.8"/>
      </g>
     </g>
     <g id="text_3">
      <!-- −2 -->
      <g transform="translate(159.732203 187.398437) scale(0.1 -0.1)">
       <defs>
        <path id="DejaVuSans-32" d="M 1228 531 
L 3431 531 
L 3431 0 
L 469 0 
L 469 531 
Q 828 903 1448 1529 
Q 2069 2156 2228 2338 
Q 2531 2678 2651 2914 
Q 2772 3150 2772 3378 
Q 2772 3750 2511 3984 
Q 2250 4219 1831 4219 
Q 1534 4219 1204 4116 
Q 875 4013 500 3803 
L 500 4441 
Q 881 4594 1212 4672 
Q 1544 4750 1819 4750 
Q 2544 4750 2975 4387 
Q 3406 4025 3406 3419 
Q 3406 3131 3298 2873 
Q 3191 2616 2906 2266 
Q 2828 2175 2409 1742 
Q 1991 1309 1228 531 
z
" transform="scale(0.015625)"/>
       </defs>
       <use xlink:href="#DejaVuSans-2212"/>
       <use xlink:href="#DejaVuSans-32" transform="translate(83.789062 0)"/>
      </g>
     </g>
    </g>
    <g id="xtick_4">
     <g id="line2d_4">
      <g>
       <use xlink:href="#me95d3e988e" x="230.4" y="172.8" style="stroke: #000000; stroke-width: 0.8"/>
      </g>
     </g>
    </g>
    <g id="xtick_5">
     <g id="line2d_5">
      <g>
       <use xlink:href="#me95d3e988e" x="293.696703" y="172.8" style="stroke: #000000; stroke-width: 0.8"/>
      </g>
     </g>
     <g id="text_4">
      <!-- 2 -->
      <g transform="translate(290.515453 187.398437) scale(0.1 -0.1)">
       <use xlink:href="#DejaVuSans-32"/>
      </g>
     </g>
    </g>
    <g id="xtick_6">
     <g id="line2d_6">
      <g>
       <use xlink:href="#me95d3e988e" x="356.993407" y="172.8" style="stroke: #000000; stroke-width: 0.8"/>
      </g>
     </g>
     <g id="text_5">
      <!-- 4 -->
      <g transform="translate(353.812157 187.398437) scale(0.1 -0.1)">
       <use xlink:href="#DejaVuSans-34"/>
      </g>
     </g>
    </g>
    <g id="xtick_7">
     <g id="line2d_7">
      <g>
       <use xlink:href="#me95d3e988e" x="420.29011" y="172.8" style="stroke: #000000; stroke-width: 0.8"/>
      </g>
     </g>
     <g id="text_6">
      <!-- 6 -->
      <g transform="translate(417.10886 187.398437) scale(0.1 -0.1)">
       <use xlink:href="#DejaVuSans-36"/>
      </g>
     </g>
    </g>
    <g id="xtick_8">
     <g id="line2d_8">
      <defs>
       <path id="m41596af4c2" d="M 0 0 
L 0 2 
" style="stroke: #000000; stroke-width: 0.6"/>
      </defs>
      <g>
       <use xlink:href="#m41596af4c2" x="8.861538" y="172.8" style="stroke: #000000; stroke-width: 0.6"/>
      </g>
     </g>
    </g>
    <g id="xtick_9">
     <g id="line2d_9">
      <g>
       <use xlink:href="#m41596af4c2" x="24.685714" y="172.8" style="stroke: #000000; stroke-width: 0.6"/>
      </g>
     </g>
    </g>
    <g id="xtick_10">
     <g id="line2d_10">
      <g>
       <use xlink:href="#m41596af4c2" x="56.334066" y="172.8" style="stroke: #000000; stroke-width: 0.6"/>
      </g>
     </g>
    </g>
    <g id="xtick_11">
     <g id="line2d_11">
      <g>
       <use xlink:href="#m41596af4c2" x="72.158242" y="172.8" style="stroke: #000000; stroke-width: 0.6"/>
      </g>
     </g>
    </g>
    <g id="xtick_12">
     <g id="line2d_12">
      <g>
       <use xlink:href="#m41596af4c2" x="87.982418" y="172.8" style="stroke: #000000; stroke-width: 0.6"/>
      </g>
     </g>
    </g>
    <g id="xtick_13">
     <g id="line2d_13">
      <g>
       <use xlink:href="#m41596af4c2" x="119.630769" y="172.8" style="stroke: #000000; stroke-width: 0.6"/>
      </g>
     </g>
    </g>
    <g id="xtick_14">
     <g id="line2d_14">
      <g>
       <use xlink:href="#m41596af4c2" x="135.454945" y="172.8" style="stroke: #000000; stroke-width: 0.6"/>
      </g>
     </g>
    </g>
    <g id="xtick_15">
     <g id="line2d_15">
      <g>
       <use xlink:href="#m41596af4c2" x="151.279121" y="172.8" style="stroke: #000000; stroke-width: 0.6"/>
      </g>
     </g>
    </g>
    <g id="xtick_16">
     <g id="line2d_16">
      <g>
       <use xlink:href="#m41596af4c2" x="182.927473" y="172.8" style="stroke: #000000; stroke-width: 0.6"/>
      </g>
     </g>
    </g>
    <g id="xtick_17">
     <g id="line2d_17">
      <g>
       <use xlink:href="#m41596af4c2" x="198.751648" y="172.8" style="stroke: #000000; stroke-width: 0.6"/>
      </g>
     </g>
    </g>
    <g id="xtick_18">
     <g id="line2d_18">
      <g>
       <use xlink:href="#m41596af4c2" x="214.575824" y="172.8" style="stroke: #000000; stroke-width: 0.6"/>
      </g>
     </g>
    </g>
    <g id="xtick_19">
     <g id="line2d_19">
      <g>
       <use xlink:href="#m41596af4c2" x="246.224176" y="172.8" style="stroke: #000000; stroke-width: 0.6"/>
      </g>
     </g>
    </g>
    <g id="xtick_20">
     <g id="line2d_20">
      <g>
       <use xlink:href="#m41596af4c2" x="262.048352" y="172.8" style="stroke: #000000; stroke-width: 0.6"/>
      </g>
     </g>
    </g>
    <g id="xtick_21">
     <g id="line2d_21">
      <g>
       <use xlink:href="#m41596af4c2" x="277.872527" y="172.8" style="stroke: #000000; stroke-width: 0.6"/>
      </g>
     </g>
    </g>
    <g id="xtick_22">
     <g id="line2d_22">
      <g>
       <use xlink:href="#m41596af4c2" x="309.520879" y="172.8" style="stroke: #000000; stroke-width: 0.6"/>
      </g>
     </g>
    </g>
    <g id="xtick_23">
     <g id="line2d_23">
      <g>
       <use xlink:href="#m41596af4c2" x="325.345055" y="172.8" style="stroke: #000000; stroke-width: 0.6"/>
      </g>
     </g>
    </g>
    <g id="xtick_24">
     <g id="line2d_24">
      <g>
       <use xlink:href="#m41596af4c2" x="341.169231" y="172.8" style="stroke: #000000; stroke-width: 0.6"/>
      </g>
     </g>
    </g>
    <g id="xtick_25">
     <g id="line2d_25">
      <g>
       <use xlink:href="#m41596af4c2" x="372.817582" y="172.8" style="stroke: #000000; stroke-width: 0.6"/>
      </g>
     </g>
    </g>
    <g id="xtick_26">
     <g id="line2d_26">
      <g>
       <use xlink:href="#m41596af4c2" x="388.641758" y="172.8" style="stroke: #000000; stroke-width: 0.6"/>
      </g>
     </g>
    </g>
    <g id="xtick_27">
     <g id="line2d_27">
      <g>
       <use xlink:href="#m41596af4c2" x="404.465934" y="172.8" style="stroke: #000000; stroke-width: 0.6"/>
      </g>
     </g>
    </g>
    <g id="xtick_28">
     <g id="line2d_28">
      <g>
       <use xlink:href="#m41596af4c2" x="436.114286" y="172.8" style="stroke: #000000; stroke-width: 0.6"/>
      </g>
     </g>
    </g>
    <g id="xtick_29">
     <g id="line2d_29">
      <g>
       <use xlink:href="#m41596af4c2" x="451.938462" y="172.8" style="stroke: #000000; stroke-width: 0.6"/>
      </g>
     </g>
    </g>
   </g>
   <g id="matplotlib.axis_2">
    <g id="ytick_1">
     <g id="line2d_30">
      <defs>
       <path id="mfbd3521536" d="M 0 0 
L -3.5 0 
" style="stroke: #000000; stroke-width: 0.8"/>
      </defs>
      <g>
       <use xlink:href="#mfbd3521536" x="230.4" y="338.953846" style="stroke: #000000; stroke-width: 0.8"/>
      </g>
     </g>
     <g id="text_7">
      <!-- −20 -->
      <g transform="translate(202.295312 342.753065) scale(0.1 -0.1)">
       <defs>
        <path id="DejaVuSans-30" d="M 2034 4250 
Q 1547 4250 1301 3770 
Q 1056 3291 1056 2328 
Q 1056 1369 1301 889 
Q 1547 409 2034 409 
Q 2525 409 2770 889 
Q 3016 1369 3016 2328 
Q 3016 3291 2770 3770 
Q 2525 4250 2034 4250 
z
M 2034 4750 
Q 2819 4750 3233 4129 
Q 3647 3509 3647 2328 
Q 3647 1150 3233 529 
Q 2819 -91 2034 -91 
Q 1250 -91 836 529 
Q 422 1150 422 2328 
Q 422 3509 836 4129 
Q 1250 4750 2034 4750 
z
" transform="scale(0.015625)"/>
       </defs>
       <use xlink:href="#DejaVuSans-2212"/>
       <use xlink:href="#DejaVuSans-32" transform="translate(83.789062 0)"/>
       <use xlink:href="#DejaVuSans-30" transform="translate(147.412109 0)"/>
      </g>
     </g>
    </g>
    <g id="ytick_2">
     <g id="line2d_31">
      <g>
       <use xlink:href="#mfbd3521536" x="230.4" y="297.415385" style="stroke: #000000; stroke-width: 0.8"/>
      </g>
     </g>
     <g id="text_8">
      <!-- −15 -->
      <g transform="translate(202.295312 301.214603) scale(0.1 -0.1)">
       <defs>
        <path id="DejaVuSans-31" d="M 794 531 
L 1825 531 
L 1825 4091 
L 703 3866 
L 703 4441 
L 1819 4666 
L 2450 4666 
L 2450 531 
L 3481 531 
L 3481 0 
L 794 0 
L 794 531 
z
" transform="scale(0.015625)"/>
        <path id="DejaVuSans-35" d="M 691 4666 
L 3169 4666 
L 3169 4134 
L 1269 4134 
L 1269 2991 
Q 1406 3038 1543 3061 
Q 1681 3084 1819 3084 
Q 2600 3084 3056 2656 
Q 3513 2228 3513 1497 
Q 3513 744 3044 326 
Q 2575 -91 1722 -91 
Q 1428 -91 1123 -41 
Q 819 9 494 109 
L 494 744 
Q 775 591 1075 516 
Q 1375 441 1709 441 
Q 2250 441 2565 725 
Q 2881 1009 2881 1497 
Q 2881 1984 2565 2268 
Q 2250 2553 1709 2553 
Q 1456 2553 1204 2497 
Q 953 2441 691 2322 
L 691 4666 
z
" transform="scale(0.015625)"/>
       </defs>
       <use xlink:href="#DejaVuSans-2212"/>
       <use xlink:href="#DejaVuSans-31" transform="translate(83.789062 0)"/>
       <use xlink:href="#DejaVuSans-35" transform="translate(147.412109 0)"/>
      </g>
     </g>
    </g>
    <g id="ytick_3">
     <g id="line2d_32">
      <g>
       <use xlink:href="#mfbd3521536" x="230.4" y="255.876923" style="stroke: #000000; stroke-width: 0.8"/>
      </g>
     </g>
     <g id="text_9">
      <!-- −10 -->
      <g transform="translate(202.295312 259.676142) scale(0.1 -0.1)">
       <use xlink:href="#DejaVuSans-2212"/>
       <use xlink:href="#DejaVuSans-31" transform="translate(83.789062 0)"/>
       <use xlink:href="#DejaVuSans-30" transform="translate(147.412109 0)"/>
      </g>
     </g>
    </g>
    <g id="ytick_4">
     <g id="line2d_33">
      <g>
       <use xlink:href="#mfbd3521536" x="230.4" y="214.338462" style="stroke: #000000; stroke-width: 0.8"/>
      </g>
     </g>
     <g id="text_10">
      <!-- −5 -->
      <g transform="translate(208.657812 218.13768) scale(0.1 -0.1)">
       <use xlink:href="#DejaVuSans-2212"/>
       <use xlink:href="#DejaVuSans-35" transform="translate(83.789062 0)"/>
      </g>
     </g>
    </g>
    <g id="ytick_5">
     <g id="line2d_34">
      <g>
       <use xlink:href="#mfbd3521536" x="230.4" y="172.8" style="stroke: #000000; stroke-width: 0.8"/>
      </g>
     </g>
    </g>
    <g id="ytick_6">
     <g id="line2d_35">
      <g>
       <use xlink:href="#mfbd3521536" x="230.4" y="131.261538" style="stroke: #000000; stroke-width: 0.8"/>
      </g>
     </g>
     <g id="text_11">
      <!-- 5 -->
      <g transform="translate(217.0375 135.060757) scale(0.1 -0.1)">
       <use xlink:href="#DejaVuSans-35"/>
      </g>
     </g>
    </g>
    <g id="ytick_7">
     <g id="line2d_36">
      <g>
       <use xlink:href="#mfbd3521536" x="230.4" y="89.723077" style="stroke: #000000; stroke-width: 0.8"/>
      </g>
     </g>
     <g id="text_12">
      <!-- 10 -->
      <g transform="translate(210.675 93.522296) scale(0.1 -0.1)">
       <use xlink:href="#DejaVuSans-31"/>
       <use xlink:href="#DejaVuSans-30" transform="translate(63.623047 0)"/>
      </g>
     </g>
    </g>
    <g id="ytick_8">
     <g id="line2d_37">
      <g>
       <use xlink:href="#mfbd3521536" x="230.4" y="48.184615" style="stroke: #000000; stroke-width: 0.8"/>
      </g>
     </g>
     <g id="text_13">
      <!-- 15 -->
      <g transform="translate(210.675 51.983834) scale(0.1 -0.1)">
       <use xlink:href="#DejaVuSans-31"/>
       <use xlink:href="#DejaVuSans-35" transform="translate(63.623047 0)"/>
      </g>
     </g>
    </g>
    <g id="ytick_9">
     <g id="line2d_38">
      <g>
       <use xlink:href="#mfbd3521536" x="230.4" y="6.646154" style="stroke: #000000; stroke-width: 0.8"/>
      </g>
     </g>
     <g id="text_14">
      <!-- 20 -->
      <g transform="translate(210.675 10.445373) scale(0.1 -0.1)">
       <use xlink:href="#DejaVuSans-32"/>
       <use xlink:href="#DejaVuSans-30" transform="translate(63.623047 0)"/>
      </g>
     </g>
    </g>
    <g id="ytick_10">
     <g id="line2d_39">
      <defs>
       <path id="m6b13c26fc7" d="M 0 0 
L -2 0 
" style="stroke: #000000; stroke-width: 0.6"/>
      </defs>
      <g>
       <use xlink:href="#m6b13c26fc7" x="230.4" y="330.646154" style="stroke: #000000; stroke-width: 0.6"/>
      </g>
     </g>
    </g>
    <g id="ytick_11">
     <g id="line2d_40">
      <g>
       <use xlink:href="#m6b13c26fc7" x="230.4" y="322.338462" style="stroke: #000000; stroke-width: 0.6"/>
      </g>
     </g>
    </g>
    <g id="ytick_12">
     <g id="line2d_41">
      <g>
       <use xlink:href="#m6b13c26fc7" x="230.4" y="314.030769" style="stroke: #000000; stroke-width: 0.6"/>
      </g>
     </g>
    </g>
    <g id="ytick_13">
     <g id="line2d_42">
      <g>
       <use xlink:href="#m6b13c26fc7" x="230.4" y="305.723077" style="stroke: #000000; stroke-width: 0.6"/>
      </g>
     </g>
    </g>
    <g id="ytick_14">
     <g id="line2d_43">
      <g>
       <use xlink:href="#m6b13c26fc7" x="230.4" y="289.107692" style="stroke: #000000; stroke-width: 0.6"/>
      </g>
     </g>
    </g>
    <g id="ytick_15">
     <g id="line2d_44">
      <g>
       <use xlink:href="#m6b13c26fc7" x="230.4" y="280.8" style="stroke: #000000; stroke-width: 0.6"/>
      </g>
     </g>
    </g>
    <g id="ytick_16">
     <g id="line2d_45">
      <g>
       <use xlink:href="#m6b13c26fc7" x="230.4" y="272.492308" style="stroke: #000000; stroke-width: 0.6"/>
      </g>
     </g>
    </g>
    <g id="ytick_17">
     <g id="line2d_46">
      <g>
       <use xlink:href="#m6b13c26fc7" x="230.4" y="264.184615" style="stroke: #000000; stroke-width: 0.6"/>
      </g>
     </g>
    </g>
    <g id="ytick_18">
     <g id="line2d_47">
      <g>
       <use xlink:href="#m6b13c26fc7" x="230.4" y="247.569231" style="stroke: #000000; stroke-width: 0.6"/>
      </g>
     </g>
    </g>
    <g id="ytick_19">
     <g id="line2d_48">
      <g>
       <use xlink:href="#m6b13c26fc7" x="230.4" y="239.261538" style="stroke: #000000; stroke-width: 0.6"/>
      </g>
     </g>
    </g>
    <g id="ytick_20">
     <g id="line2d_49">
      <g>
       <use xlink:href="#m6b13c26fc7" x="230.4" y="230.953846" style="stroke: #000000; stroke-width: 0.6"/>
      </g>
     </g>
    </g>
    <g id="ytick_21">
     <g id="line2d_50">
      <g>
       <use xlink:href="#m6b13c26fc7" x="230.4" y="222.646154" style="stroke: #000000; stroke-width: 0.6"/>
      </g>
     </g>
    </g>
    <g id="ytick_22">
     <g id="line2d_51">
      <g>
       <use xlink:href="#m6b13c26fc7" x="230.4" y="206.030769" style="stroke: #000000; stroke-width: 0.6"/>
      </g>
     </g>
    </g>
    <g id="ytick_23">
     <g id="line2d_52">
      <g>
       <use xlink:href="#m6b13c26fc7" x="230.4" y="197.723077" style="stroke: #000000; stroke-width: 0.6"/>
      </g>
     </g>
    </g>
    <g id="ytick_24">
     <g id="line2d_53">
      <g>
       <use xlink:href="#m6b13c26fc7" x="230.4" y="189.415385" style="stroke: #000000; stroke-width: 0.6"/>
      </g>
     </g>
    </g>
    <g id="ytick_25">
     <g id="line2d_54">
      <g>
       <use xlink:href="#m6b13c26fc7" x="230.4" y="181.107692" style="stroke: #000000; stroke-width: 0.6"/>
      </g>
     </g>
    </g>
    <g id="ytick_26">
     <g id="line2d_55">
      <g>
       <use xlink:href="#m6b13c26fc7" x="230.4" y="164.492308" style="stroke: #000000; stroke-width: 0.6"/>
      </g>
     </g>
    </g>
    <g id="ytick_27">
     <g id="line2d_56">
      <g>
       <use xlink:href="#m6b13c26fc7" x="230.4" y="156.184615" style="stroke: #000000; stroke-width: 0.6"/>
      </g>
     </g>
    </g>
    <g id="ytick_28">
     <g id="line2d_57">
      <g>
       <use xlink:href="#m6b13c26fc7" x="230.4" y="147.876923" style="stroke: #000000; stroke-width: 0.6"/>
      </g>
     </g>
    </g>
    <g id="ytick_29">
     <g id="line2d_58">
      <g>
       <use xlink:href="#m6b13c26fc7" x="230.4" y="139.569231" style="stroke: #000000; stroke-width: 0.6"/>
      </g>
     </g>
    </g>
    <g id="ytick_30">
     <g id="line2d_59">
      <g>
       <use xlink:href="#m6b13c26fc7" x="230.4" y="122.953846" style="stroke: #000000; stroke-width: 0.6"/>
      </g>
     </g>
    </g>
    <g id="ytick_31">
     <g id="line2d_60">
      <g>
       <use xlink:href="#m6b13c26fc7" x="230.4" y="114.646154" style="stroke: #000000; stroke-width: 0.6"/>
      </g>
     </g>
    </g>
    <g id="ytick_32">
     <g id="line2d_61">
      <g>
       <use xlink:href="#m6b13c26fc7" x="230.4" y="106.338462" style="stroke: #000000; stroke-width: 0.6"/>
      </g>
     </g>
    </g>
    <g id="ytick_33">
     <g id="line2d_62">
      <g>
       <use xlink:href="#m6b13c26fc7" x="230.4" y="98.030769" style="stroke: #000000; stroke-width: 0.6"/>
      </g>
     </g>
    </g>
    <g id="ytick_34">
     <g id="line2d_63">
      <g>
       <use xlink:href="#m6b13c26fc7" x="230.4" y="81.415385" style="stroke: #000000; stroke-width: 0.6"/>
      </g>
     </g>
    </g>
    <g id="ytick_35">
     <g id="line2d_64">
      <g>
       <use xlink:href="#m6b13c26fc7" x="230.4" y="73.107692" style="stroke: #000000; stroke-width: 0.6"/>
      </g>
     </g>
    </g>
    <g id="ytick_36">
     <g id="line2d_65">
      <g>
       <use xlink:href="#m6b13c26fc7" x="230.4" y="64.8" style="stroke: #000000; stroke-width: 0.6"/>
      </g>
     </g>
    </g>
    <g id="ytick_37">
     <g id="line2d_66">
      <g>
       <use xlink:href="#m6b13c26fc7" x="230.4" y="56.492308" style="stroke: #000000; stroke-width: 0.6"/>
      </g>
     </g>
    </g>
    <g id="ytick_38">
     <g id="line2d_67">
      <g>
       <use xlink:href="#m6b13c26fc7" x="230.4" y="39.876923" style="stroke: #000000; stroke-width: 0.6"/>
      </g>
     </g>
    </g>
    <g id="ytick_39">
     <g id="line2d_68">
      <g>
       <use xlink:href="#m6b13c26fc7" x="230.4" y="31.569231" style="stroke: #000000; stroke-width: 0.6"/>
      </g>
     </g>
    </g>
    <g id="ytick_40">
     <g id="line2d_69">
      <g>
       <use xlink:href="#m6b13c26fc7" x="230.4" y="23.261538" style="stroke: #000000; stroke-width: 0.6"/>
      </g>
     </g>
    </g>
    <g id="ytick_41">
     <g id="line2d_70">
      <g>
       <use xlink:href="#m6b13c26fc7" x="230.4" y="14.953846" style="stroke: #000000; stroke-width: 0.6"/>
      </g>
     </g>
    </g>
   </g>
   <g id="line2d_71">
    <path d="M 8.861538 280.646154 
L 37.02874 266.90187 
L 58.988398 256.405787 
L 79.512929 246.849961 
L 95.784142 239.527497 
L 109.263616 233.706745 
L 121.305469 228.776837 
L 131.809893 224.776668 
L 139.116662 222.228886 
L 144.155519 220.624652 
L 150.866798 218.749386 
L 156.34614 217.520293 
L 160.719598 216.811279 
L 164.106911 216.486804 
L 166.787849 216.411653 
L 169.247396 216.522568 
L 171.900037 216.888597 
L 173.939177 217.392023 
L 176.091272 218.193894 
L 178.003934 219.206541 
L 179.33996 220.126938 
L 180.675986 221.266199 
L 182.101522 222.781616 
L 183.527059 224.690599 
L 184.822836 226.867838 
L 185.903884 229.100859 
L 187.118214 232.199603 
L 188.16063 235.514115 
L 189.213988 239.689758 
L 190.135676 244.262654 
L 191.108728 250.379504 
L 191.95156 257.177838 
L 192.794391 265.989231 
L 193.543575 276.300807 
L 194.256726 289.395065 
L 194.932825 306.414679 
L 195.533803 327.633442 
L 195.929315 346.6 
M 198.769352 346.6 
L 198.769924 -1 
M 201.052955 -1 
L 201.499413 29.940633 
L 202.163407 60.760525 
L 202.827401 81.469507 
L 203.617411 98.671841 
L 204.436516 111.387678 
L 205.255621 120.838226 
L 206.167506 128.840405 
L 207.157284 135.496392 
L 208.216381 141.012379 
L 209.342677 145.604813 
L 210.557559 149.513177 
L 211.772441 152.635579 
L 212.895263 155.000285 
L 214.39236 157.568956 
L 215.987516 159.755466 
L 217.533311 161.47133 
L 219.392305 163.143711 
L 221.226622 164.480666 
L 223.752025 165.953995 
L 226.249403 167.116303 
L 229.52787 168.3541 
L 234.114792 169.790608 
L 241.867938 172.129239 
L 245.674349 173.501963 
L 248.924383 174.917732 
L 251.991265 176.545751 
L 254.601171 178.225627 
L 256.74968 179.865139 
L 258.96392 181.853735 
L 260.939699 183.939406 
L 262.73976 186.148494 
L 264.561229 188.744602 
L 266.393439 191.798384 
L 268.18093 195.299263 
L 269.869006 199.186274 
L 271.407391 203.332454 
L 272.837061 207.818575 
L 274.207766 212.820925 
L 275.578471 218.668955 
L 276.876883 225.176871 
L 278.146379 232.682358 
L 279.398769 241.490308 
L 280.561526 251.266725 
L 281.72557 263.057879 
L 282.783792 276.05735 
L 283.786681 291.03426 
L 284.814814 310.006672 
L 285.711028 330.629245 
L 286.287803 346.6 
M 293.766122 346.6 
L 293.766423 -1 
M 308.542272 -1 
L 309.683714 6.45148 
L 311.054043 14.003412 
L 312.402088 20.255799 
L 313.951755 26.304952 
L 315.350732 30.92745 
L 316.893953 35.282187 
L 318.504125 39.14599 
L 320.136677 42.482769 
L 321.68578 45.200717 
L 323.234883 47.551921 
L 325.261976 50.1644 
L 326.916205 51.967617 
L 328.983914 53.873618 
L 331.078737 55.471527 
L 333.418517 56.924576 
L 335.377912 57.913242 
L 337.772211 58.881698 
L 340.263185 59.650404 
L 342.13883 60.090776 
L 345.593567 60.637249 
L 348.576869 60.87467 
L 351.186811 60.93201 
L 355.423048 60.773551 
L 358.949942 60.441597 
L 363.543902 59.784441 
L 369.056824 58.720271 
L 374.410953 57.453534 
L 381.123867 55.605164 
L 387.184681 53.73531 
L 396.548192 50.551127 
L 406.616159 46.816282 
L 416.157454 43.048584 
L 427.164577 38.488385 
L 440.048196 32.925237 
L 451.938462 27.623077 
L 451.938462 27.623077 
" clip-path="url(#p81829160cc)" style="fill: none; stroke: #0000cc; stroke-linecap: square"/>
   </g>
   <g id="line2d_72">
    <path d="M 8.861538 272.492308 
L 451.938462 39.876923 
L 451.938462 39.876923 
" clip-path="url(#p81829160cc)" style="fill: none; stroke: #3ccc00; stroke-linecap: square"/>
   </g>
   <g id="patch_4">
    <path d="M 230.4 345.6 
L 230.4 0 
" style="fill: none; stroke: #000000; stroke-width: 0.8; stroke-linejoin: miter; stroke-linecap: square"/>
   </g>
   <g id="patch_5">
    <path d="M 0 172.8 
L 460.8 172.8 
" style="fill: none; stroke: #000000; stroke-width: 0.8; stroke-linejoin: miter; stroke-linecap: square"/>
   </g>
  </g>
 </g>
 <defs>
  <clipPath id="p81829160cc">
   <rect x="0" y="0" width="460.8" height="345.6"/>
  </clipPath>
 </defs>
</svg>
