<?xml version="1.0" encoding="utf-8" standalone="no"?>
<!DOCTYPE svg PUBLIC "-//W3C//DTD SVG 1.1//EN"
  "http://www.w3.org/Graphics/SVG/1.1/DTD/svg11.dtd">
<svg xmlns:xlink="http://www.w3.org/1999/xlink" width="460.8pt" height="345.6pt" viewBox="0 0 460.8 345.6" xmlns="http://www.w3.org/2000/svg" version="1.1">
 <metadata>
  <rdf:RDF xmlns:dc="http://purl.org/dc/elements/1.1/" xmlns:cc="http://creativecommons.org/ns#" xmlns:rdf="http://www.w3.org/1999/02/22-rdf-syntax-ns#">
   <cc:Work>
    <dc:type rdf:resource="http://purl.org/dc/dcmitype/StillImage"/>
    <dc:date>2025-08-03T20:17:40.696140</dc:date>
    <dc:format>image/svg+xml</dc:format>
    <dc:creator>
     <cc:Agent>
      <dc:title>Matplotlib v3.10.3, https://matplotlib.org/</dc:title>
     </cc:Agent>
    </dc:creator>
   </cc:Work>
  </rdf:RDF>
 </metadata>
 <defs>
  <style type="text/css">*{stroke-linejoin: round; stroke-linecap: butt}</style>
 </defs>
 <g id="figure_1">
  <g id="patch_1">
   <path d="M 0 345.6 
L 460.8 345.6 
L 460.8 0 
L 0 0 
z
" style="fill: #ffffff"/>
  </g>
  <g id="axes_1">
   <g id="patch_2">
    <path d="M 3.826531 345.6 
L 460.8 345.6 
L 460.8 0 
L 3.826531 0 
z
" style="fill: #ffffff"/>
   </g>
   <g id="matplotlib.axis_1">
    <g id="xtick_1">
     <g id="line2d_1">
      <defs>
       <path id="maaa06da6af" d="M 0 0 
L 0 3.5 
" style="stroke: #000000; stroke-width: 0.8"/>
      </defs>
      <g>
       <use xlink:href="#maaa06da6af" x="12.614482" y="172.799849" style="stroke: #000000; stroke-width: 0.8"/>
      </g>
     </g>
     <g id="text_1">
      <!-- −1.0 -->
      <g transform="translate(0.473076 187.398287) scale(0.1 -0.1)">
       <defs>
        <path id="DejaVuSans-2212" d="M 678 2272 
L 4684 2272 
L 4684 1741 
L 678 1741 
L 678 2272 
z
" transform="scale(0.015625)"/>
        <path id="DejaVuSans-31" d="M 794 531 
L 1825 531 
L 1825 4091 
L 703 3866 
L 703 4441 
L 1819 4666 
L 2450 4666 
L 2450 531 
L 3481 531 
L 3481 0 
L 794 0 
L 794 531 
z
" transform="scale(0.015625)"/>
        <path id="DejaVuSans-2e" d="M 684 794 
L 1344 794 
L 1344 0 
L 684 0 
L 684 794 
z
" transform="scale(0.015625)"/>
        <path id="DejaVuSans-30" d="M 2034 4250 
Q 1547 4250 1301 3770 
Q 1056 3291 1056 2328 
Q 1056 1369 1301 889 
Q 1547 409 2034 409 
Q 2525 409 2770 889 
Q 3016 1369 3016 2328 
Q 3016 3291 2770 3770 
Q 2525 4250 2034 4250 
z
M 2034 4750 
Q 2819 4750 3233 4129 
Q 3647 3509 3647 2328 
Q 3647 1150 3233 529 
Q 2819 -91 2034 -91 
Q 1250 -91 836 529 
Q 422 1150 422 2328 
Q 422 3509 836 4129 
Q 1250 4750 2034 4750 
z
" transform="scale(0.015625)"/>
       </defs>
       <use xlink:href="#DejaVuSans-2212"/>
       <use xlink:href="#DejaVuSans-31" transform="translate(83.789062 0)"/>
       <use xlink:href="#DejaVuSans-2e" transform="translate(147.412109 0)"/>
       <use xlink:href="#DejaVuSans-30" transform="translate(179.199219 0)"/>
      </g>
     </g>
    </g>
    <g id="xtick_2">
     <g id="line2d_2">
      <g>
       <use xlink:href="#maaa06da6af" x="122.463874" y="172.799849" style="stroke: #000000; stroke-width: 0.8"/>
      </g>
     </g>
     <g id="text_2">
      <!-- −0.5 -->
      <g transform="translate(110.322468 187.398287) scale(0.1 -0.1)">
       <defs>
        <path id="DejaVuSans-35" d="M 691 4666 
L 3169 4666 
L 3169 4134 
L 1269 4134 
L 1269 2991 
Q 1406 3038 1543 3061 
Q 1681 3084 1819 3084 
Q 2600 3084 3056 2656 
Q 3513 2228 3513 1497 
Q 3513 744 3044 326 
Q 2575 -91 1722 -91 
Q 1428 -91 1123 -41 
Q 819 9 494 109 
L 494 744 
Q 775 591 1075 516 
Q 1375 441 1709 441 
Q 2250 441 2565 725 
Q 2881 1009 2881 1497 
Q 2881 1984 2565 2268 
Q 2250 2553 1709 2553 
Q 1456 2553 1204 2497 
Q 953 2441 691 2322 
L 691 4666 
z
" transform="scale(0.015625)"/>
       </defs>
       <use xlink:href="#DejaVuSans-2212"/>
       <use xlink:href="#DejaVuSans-30" transform="translate(83.789062 0)"/>
       <use xlink:href="#DejaVuSans-2e" transform="translate(147.412109 0)"/>
       <use xlink:href="#DejaVuSans-35" transform="translate(179.199219 0)"/>
      </g>
     </g>
    </g>
    <g id="xtick_3">
     <g id="line2d_3">
      <g>
       <use xlink:href="#maaa06da6af" x="232.313266" y="172.799849" style="stroke: #000000; stroke-width: 0.8"/>
      </g>
     </g>
    </g>
    <g id="xtick_4">
     <g id="line2d_4">
      <g>
       <use xlink:href="#maaa06da6af" x="342.162657" y="172.799849" style="stroke: #000000; stroke-width: 0.8"/>
      </g>
     </g>
     <g id="text_3">
      <!-- 0.5 -->
      <g transform="translate(334.211095 187.398287) scale(0.1 -0.1)">
       <use xlink:href="#DejaVuSans-30"/>
       <use xlink:href="#DejaVuSans-2e" transform="translate(63.623047 0)"/>
       <use xlink:href="#DejaVuSans-35" transform="translate(95.410156 0)"/>
      </g>
     </g>
    </g>
    <g id="xtick_5">
     <g id="line2d_5">
      <g>
       <use xlink:href="#maaa06da6af" x="452.012049" y="172.799849" style="stroke: #000000; stroke-width: 0.8"/>
      </g>
     </g>
     <g id="text_4">
      <!-- 1.0 -->
      <g transform="translate(444.060486 187.398287) scale(0.1 -0.1)">
       <use xlink:href="#DejaVuSans-31"/>
       <use xlink:href="#DejaVuSans-2e" transform="translate(63.623047 0)"/>
       <use xlink:href="#DejaVuSans-30" transform="translate(95.410156 0)"/>
      </g>
     </g>
    </g>
    <g id="xtick_6">
     <g id="line2d_6">
      <defs>
       <path id="mf9b690c6eb" d="M 0 0 
L 0 2 
" style="stroke: #000000; stroke-width: 0.6"/>
      </defs>
      <g>
       <use xlink:href="#mf9b690c6eb" x="34.584361" y="172.799849" style="stroke: #000000; stroke-width: 0.6"/>
      </g>
     </g>
    </g>
    <g id="xtick_7">
     <g id="line2d_7">
      <g>
       <use xlink:href="#mf9b690c6eb" x="56.554239" y="172.799849" style="stroke: #000000; stroke-width: 0.6"/>
      </g>
     </g>
    </g>
    <g id="xtick_8">
     <g id="line2d_8">
      <g>
       <use xlink:href="#mf9b690c6eb" x="78.524117" y="172.799849" style="stroke: #000000; stroke-width: 0.6"/>
      </g>
     </g>
    </g>
    <g id="xtick_9">
     <g id="line2d_9">
      <g>
       <use xlink:href="#mf9b690c6eb" x="100.493996" y="172.799849" style="stroke: #000000; stroke-width: 0.6"/>
      </g>
     </g>
    </g>
    <g id="xtick_10">
     <g id="line2d_10">
      <g>
       <use xlink:href="#mf9b690c6eb" x="144.433752" y="172.799849" style="stroke: #000000; stroke-width: 0.6"/>
      </g>
     </g>
    </g>
    <g id="xtick_11">
     <g id="line2d_11">
      <g>
       <use xlink:href="#mf9b690c6eb" x="166.403631" y="172.799849" style="stroke: #000000; stroke-width: 0.6"/>
      </g>
     </g>
    </g>
    <g id="xtick_12">
     <g id="line2d_12">
      <g>
       <use xlink:href="#mf9b690c6eb" x="188.373509" y="172.799849" style="stroke: #000000; stroke-width: 0.6"/>
      </g>
     </g>
    </g>
    <g id="xtick_13">
     <g id="line2d_13">
      <g>
       <use xlink:href="#mf9b690c6eb" x="210.343387" y="172.799849" style="stroke: #000000; stroke-width: 0.6"/>
      </g>
     </g>
    </g>
    <g id="xtick_14">
     <g id="line2d_14">
      <g>
       <use xlink:href="#mf9b690c6eb" x="254.283144" y="172.799849" style="stroke: #000000; stroke-width: 0.6"/>
      </g>
     </g>
    </g>
    <g id="xtick_15">
     <g id="line2d_15">
      <g>
       <use xlink:href="#mf9b690c6eb" x="276.253022" y="172.799849" style="stroke: #000000; stroke-width: 0.6"/>
      </g>
     </g>
    </g>
    <g id="xtick_16">
     <g id="line2d_16">
      <g>
       <use xlink:href="#mf9b690c6eb" x="298.2229" y="172.799849" style="stroke: #000000; stroke-width: 0.6"/>
      </g>
     </g>
    </g>
    <g id="xtick_17">
     <g id="line2d_17">
      <g>
       <use xlink:href="#mf9b690c6eb" x="320.192779" y="172.799849" style="stroke: #000000; stroke-width: 0.6"/>
      </g>
     </g>
    </g>
    <g id="xtick_18">
     <g id="line2d_18">
      <g>
       <use xlink:href="#mf9b690c6eb" x="364.132535" y="172.799849" style="stroke: #000000; stroke-width: 0.6"/>
      </g>
     </g>
    </g>
    <g id="xtick_19">
     <g id="line2d_19">
      <g>
       <use xlink:href="#mf9b690c6eb" x="386.102414" y="172.799849" style="stroke: #000000; stroke-width: 0.6"/>
      </g>
     </g>
    </g>
    <g id="xtick_20">
     <g id="line2d_20">
      <g>
       <use xlink:href="#mf9b690c6eb" x="408.072292" y="172.799849" style="stroke: #000000; stroke-width: 0.6"/>
      </g>
     </g>
    </g>
    <g id="xtick_21">
     <g id="line2d_21">
      <g>
       <use xlink:href="#mf9b690c6eb" x="430.04217" y="172.799849" style="stroke: #000000; stroke-width: 0.6"/>
      </g>
     </g>
    </g>
   </g>
   <g id="matplotlib.axis_2">
    <g id="ytick_1">
     <g id="line2d_22">
      <defs>
       <path id="m8ac991bd1c" d="M 0 0 
L -3.5 0 
" style="stroke: #000000; stroke-width: 0.8"/>
      </defs>
      <g>
       <use xlink:href="#m8ac991bd1c" x="232.313266" y="338.954061" style="stroke: #000000; stroke-width: 0.8"/>
      </g>
     </g>
     <g id="text_5">
      <!-- −1.0 -->
      <g transform="translate(201.030453 342.75328) scale(0.1 -0.1)">
       <use xlink:href="#DejaVuSans-2212"/>
       <use xlink:href="#DejaVuSans-31" transform="translate(83.789062 0)"/>
       <use xlink:href="#DejaVuSans-2e" transform="translate(147.412109 0)"/>
       <use xlink:href="#DejaVuSans-30" transform="translate(179.199219 0)"/>
      </g>
     </g>
    </g>
    <g id="ytick_2">
     <g id="line2d_23">
      <g>
       <use xlink:href="#m8ac991bd1c" x="232.313266" y="255.876955" style="stroke: #000000; stroke-width: 0.8"/>
      </g>
     </g>
     <g id="text_6">
      <!-- −0.5 -->
      <g transform="translate(201.030453 259.676174) scale(0.1 -0.1)">
       <use xlink:href="#DejaVuSans-2212"/>
       <use xlink:href="#DejaVuSans-30" transform="translate(83.789062 0)"/>
       <use xlink:href="#DejaVuSans-2e" transform="translate(147.412109 0)"/>
       <use xlink:href="#DejaVuSans-35" transform="translate(179.199219 0)"/>
      </g>
     </g>
    </g>
    <g id="ytick_3">
     <g id="line2d_24">
      <g>
       <use xlink:href="#m8ac991bd1c" x="232.313266" y="172.799849" style="stroke: #000000; stroke-width: 0.8"/>
      </g>
     </g>
    </g>
    <g id="ytick_4">
     <g id="line2d_25">
      <g>
       <use xlink:href="#m8ac991bd1c" x="232.313266" y="89.722744" style="stroke: #000000; stroke-width: 0.8"/>
      </g>
     </g>
     <g id="text_7">
      <!-- 0.5 -->
      <g transform="translate(209.410141 93.521962) scale(0.1 -0.1)">
       <use xlink:href="#DejaVuSans-30"/>
       <use xlink:href="#DejaVuSans-2e" transform="translate(63.623047 0)"/>
       <use xlink:href="#DejaVuSans-35" transform="translate(95.410156 0)"/>
      </g>
     </g>
    </g>
    <g id="ytick_5">
     <g id="line2d_26">
      <g>
       <use xlink:href="#m8ac991bd1c" x="232.313266" y="6.645638" style="stroke: #000000; stroke-width: 0.8"/>
      </g>
     </g>
     <g id="text_8">
      <!-- 1.0 -->
      <g transform="translate(209.410141 10.444857) scale(0.1 -0.1)">
       <use xlink:href="#DejaVuSans-31"/>
       <use xlink:href="#DejaVuSans-2e" transform="translate(63.623047 0)"/>
       <use xlink:href="#DejaVuSans-30" transform="translate(95.410156 0)"/>
      </g>
     </g>
    </g>
    <g id="ytick_6">
     <g id="line2d_27">
      <defs>
       <path id="m5140bce0ad" d="M 0 0 
L -2 0 
" style="stroke: #000000; stroke-width: 0.6"/>
      </defs>
      <g>
       <use xlink:href="#m5140bce0ad" x="232.313266" y="322.33864" style="stroke: #000000; stroke-width: 0.6"/>
      </g>
     </g>
    </g>
    <g id="ytick_7">
     <g id="line2d_28">
      <g>
       <use xlink:href="#m5140bce0ad" x="232.313266" y="305.723219" style="stroke: #000000; stroke-width: 0.6"/>
      </g>
     </g>
    </g>
    <g id="ytick_8">
     <g id="line2d_29">
      <g>
       <use xlink:href="#m5140bce0ad" x="232.313266" y="289.107797" style="stroke: #000000; stroke-width: 0.6"/>
      </g>
     </g>
    </g>
    <g id="ytick_9">
     <g id="line2d_30">
      <g>
       <use xlink:href="#m5140bce0ad" x="232.313266" y="272.492376" style="stroke: #000000; stroke-width: 0.6"/>
      </g>
     </g>
    </g>
    <g id="ytick_10">
     <g id="line2d_31">
      <g>
       <use xlink:href="#m5140bce0ad" x="232.313266" y="239.261534" style="stroke: #000000; stroke-width: 0.6"/>
      </g>
     </g>
    </g>
    <g id="ytick_11">
     <g id="line2d_32">
      <g>
       <use xlink:href="#m5140bce0ad" x="232.313266" y="222.646113" style="stroke: #000000; stroke-width: 0.6"/>
      </g>
     </g>
    </g>
    <g id="ytick_12">
     <g id="line2d_33">
      <g>
       <use xlink:href="#m5140bce0ad" x="232.313266" y="206.030692" style="stroke: #000000; stroke-width: 0.6"/>
      </g>
     </g>
    </g>
    <g id="ytick_13">
     <g id="line2d_34">
      <g>
       <use xlink:href="#m5140bce0ad" x="232.313266" y="189.415271" style="stroke: #000000; stroke-width: 0.6"/>
      </g>
     </g>
    </g>
    <g id="ytick_14">
     <g id="line2d_35">
      <g>
       <use xlink:href="#m5140bce0ad" x="232.313266" y="156.184428" style="stroke: #000000; stroke-width: 0.6"/>
      </g>
     </g>
    </g>
    <g id="ytick_15">
     <g id="line2d_36">
      <g>
       <use xlink:href="#m5140bce0ad" x="232.313266" y="139.569007" style="stroke: #000000; stroke-width: 0.6"/>
      </g>
     </g>
    </g>
    <g id="ytick_16">
     <g id="line2d_37">
      <g>
       <use xlink:href="#m5140bce0ad" x="232.313266" y="122.953586" style="stroke: #000000; stroke-width: 0.6"/>
      </g>
     </g>
    </g>
    <g id="ytick_17">
     <g id="line2d_38">
      <g>
       <use xlink:href="#m5140bce0ad" x="232.313266" y="106.338165" style="stroke: #000000; stroke-width: 0.6"/>
      </g>
     </g>
    </g>
    <g id="ytick_18">
     <g id="line2d_39">
      <g>
       <use xlink:href="#m5140bce0ad" x="232.313266" y="73.107322" style="stroke: #000000; stroke-width: 0.6"/>
      </g>
     </g>
    </g>
    <g id="ytick_19">
     <g id="line2d_40">
      <g>
       <use xlink:href="#m5140bce0ad" x="232.313266" y="56.491901" style="stroke: #000000; stroke-width: 0.6"/>
      </g>
     </g>
    </g>
    <g id="ytick_20">
     <g id="line2d_41">
      <g>
       <use xlink:href="#m5140bce0ad" x="232.313266" y="39.87648" style="stroke: #000000; stroke-width: 0.6"/>
      </g>
     </g>
    </g>
    <g id="ytick_21">
     <g id="line2d_42">
      <g>
       <use xlink:href="#m5140bce0ad" x="232.313266" y="23.261059" style="stroke: #000000; stroke-width: 0.6"/>
      </g>
     </g>
    </g>
   </g>
   <g id="line2d_43">
    <path d="M 12.614482 312.613797 
L 38.62303 323.373717 
L 50.880762 328.309814 
L 60.355946 331.865134 
L 67.796574 334.372609 
L 71.659848 335.533436 
L 78.030857 337.167131 
L 82.937629 338.12372 
L 86.158873 338.574566 
L 89.688873 338.877315 
L 93.001888 338.950828 
L 95.714707 338.83689 
L 98.475822 338.538525 
L 100.845188 338.118623 
L 104.069634 337.27371 
L 106.958774 336.215104 
L 109.299817 335.122302 
L 112.283273 333.387993 
L 114.6483 331.710751 
L 117.322444 329.454674 
L 119.981873 326.790502 
L 122.110983 324.323176 
L 124.937712 320.538152 
L 127.163998 317.106874 
L 129.39502 313.229936 
L 131.548041 309.034703 
L 133.98346 303.702137 
L 135.945327 298.91366 
L 138.314636 292.492572 
L 140.691158 285.290442 
L 142.853939 278.016526 
L 145.058308 269.840716 
L 147.418417 260.169999 
L 149.602822 250.314175 
L 152.20502 237.360795 
L 154.598785 224.212914 
L 157.078956 209.28637 
L 159.633398 192.486638 
L 161.974857 175.813498 
L 165.093727 151.790517 
L 168.34814 124.798731 
L 178.149208 41.154773 
L 180.04231 27.734004 
L 181.462137 19.246307 
L 182.479108 14.253938 
L 183.524941 10.271253 
L 184.231783 8.343664 
L 184.761915 7.35054 
L 185.292047 6.778917 
L 185.645468 6.647451 
L 185.954237 6.704785 
L 186.417391 7.106611 
L 186.880544 7.907173 
L 187.343697 9.129007 
L 187.961235 11.452829 
L 188.694029 15.309331 
L 189.467153 20.765211 
L 190.246007 27.803549 
L 191.154371 38.096851 
L 192.127041 51.752143 
L 193.207785 70.262671 
L 194.28853 92.355134 
L 195.645228 125.029116 
L 197.127692 166.291008 
L 199.67561 244.811654 
L 201.377542 294.123697 
L 202.343326 316.71483 
L 203.079253 329.508637 
L 203.604915 335.602359 
L 204.005141 338.236017 
L 204.300235 338.943553 
L 204.3986 338.931745 
L 204.595329 338.520583 
L 204.890423 336.89636 
L 205.283882 332.748486 
L 205.775705 324.186171 
L 206.365893 308.691121 
L 207.040017 283.830664 
L 207.860369 243.602598 
L 208.863022 182.109136 
L 211.083088 40.241603 
L 211.655585 17.317947 
L 212.064511 8.403328 
L 212.309867 6.658621 
L 212.420004 6.839453 
L 212.561764 7.995797 
L 212.788581 12.093616 
L 213.100453 22.431926 
L 213.484627 42.849477 
L 214.041756 87.053174 
L 214.784595 167.369522 
L 216.084564 309.979886 
L 216.509569 334.370427 
L 216.748864 338.914939 
L 216.808688 338.864893 
L 216.928335 337.259021 
L 217.107806 330.957313 
L 217.406925 309.797025 
L 217.825691 258.699464 
L 218.504212 139.496907 
L 219.196631 29.367671 
L 219.51621 7.665302 
L 219.622736 6.737567 
L 219.729262 9.324606 
L 219.889051 20.044758 
L 220.172998 59.195932 
L 220.627313 164.610057 
L 221.308785 321.986343 
L 221.535943 338.851905 
L 221.592732 338.512535 
L 221.706311 331.903593 
L 221.934669 294.588543 
L 222.277205 189.422303 
L 222.848099 16.756093 
L 222.962278 7.020999 
L 223.019367 7.13911 
L 223.133546 17.95689 
L 223.361904 80.478904 
L 224.072593 338.798751 
L 224.149653 335.358391 
L 224.303773 297.026894 
L 224.920254 8.005796 
L 224.997314 9.48004 
L 225.151434 60.814985 
L 225.690855 336.016349 
L 225.844975 265.518775 
L 226.233078 6.647919 
L 226.35007 47.244403 
L 226.701044 337.690277 
L 226.818036 298.805014 
L 227.16901 13.876074 
L 227.519984 332.407595 
L 227.753967 27.604599 
L 227.870959 52.517203 
L 228.104942 327.740645 
L 228.338924 14.136886 
L 228.572907 308.231453 
L 228.689899 38.266741 
L 228.923882 324.713665 
L 229.040873 20.230615 
L 229.157865 254.090781 
L 229.391848 140.534345 
L 229.508839 205.778819 
L 229.625831 184.247582 
L 229.742822 72.489734 
L 229.809082 134.612369 
L 229.875341 311.620903 
L 229.941601 6.793082 
L 230.007861 316.883954 
L 230.074121 62.257949 
L 230.14038 263.61644 
L 230.20664 76.681952 
L 230.2729 298.937049 
L 230.339159 11.262333 
L 230.405419 319.618094 
L 230.471679 159.20849 
L 230.537938 16.254582 
L 230.670458 335.091973 
L 230.736718 322.661517 
L 230.802977 308.419107 
L 230.869237 334.792445 
L 230.935497 287.43596 
L 231.001756 31.954319 
L 231.068016 252.50821 
L 231.134276 33.801854 
L 231.266795 258.801027 
L 231.333055 26.167506 
L 231.465574 338.948355 
L 231.531834 6.691303 
L 231.598094 68.465211 
L 231.664353 62.335662 
L 231.730613 185.328284 
L 231.796873 11.282987 
L 231.863132 22.646759 
L 232.020169 331.170969 
L 232.098687 123.838012 
L 232.177205 161.350813 
L 232.255723 35.644958 
L 232.334241 152.44238 
L 232.412759 113.805026 
L 232.491277 98.767366 
L 232.569795 16.340228 
L 232.648313 45.964517 
L 232.726831 222.179658 
L 232.883867 9.480052 
L 232.962385 296.023936 
L 233.119421 54.526677 
L 233.197939 198.109104 
L 233.276457 15.559601 
L 233.354975 239.846823 
L 233.433494 11.014845 
L 233.512012 27.735859 
L 233.59053 55.915281 
L 233.669048 333.632865 
L 233.747566 57.954492 
L 233.826084 64.296701 
L 233.98312 234.315627 
L 234.218674 38.993127 
L 234.297192 290.080626 
L 234.37571 220.41837 
L 234.41769 283.100048 
L 234.45967 12.013629 
L 234.50165 195.630049 
L 234.54363 321.929172 
L 234.58561 65.045621 
L 234.62759 68.040836 
L 234.66957 313.423961 
L 234.71155 252.521956 
L 234.753531 26.614397 
L 234.795511 86.875287 
L 234.837491 305.839537 
L 234.879471 290.748835 
L 234.963431 16.843177 
L 235.005411 185.097071 
L 235.047391 334.044091 
L 235.089371 266.534616 
L 235.173331 8.587084 
L 235.215311 122.654204 
L 235.299271 333.736038 
L 235.341251 221.815554 
L 235.425211 7.278464 
L 235.467191 86.833633 
L 235.551151 331.119914 
L 235.593131 313.560376 
L 235.719071 7.551809 
L 235.774204 72.552526 
L 235.88447 333.435201 
L 235.939603 302.325277 
L 236.105002 9.270678 
L 236.325534 334.908808 
L 236.380666 267.638427 
L 236.546065 7.0253 
L 236.601198 35.643383 
L 236.82173 338.848746 
L 236.876863 314.180016 
L 237.152527 8.608402 
L 237.262793 107.250872 
L 237.483325 338.382889 
L 237.596503 285.253851 
L 237.936038 9.855361 
L 238.162395 195.685507 
L 238.388752 338.862515 
L 238.50193 307.240294 
L 238.954644 7.372557 
L 239.067823 23.969629 
L 239.633715 336.655636 
L 239.746893 331.996642 
L 239.97325 238.577365 
L 240.425963 18.333458 
L 240.539142 6.647485 
L 240.65232 17.166597 
L 240.878677 90.704495 
L 241.50387 329.288373 
L 241.6112 338.583166 
L 241.677271 338.125777 
L 241.809412 324.078537 
L 242.073696 255.067138 
L 242.866547 19.613408 
L 243.06476 6.661698 
L 243.13083 7.666399 
L 243.262972 17.06371 
L 243.527256 60.526928 
L 244.832963 332.956992 
L 245.046338 338.903889 
L 245.153026 336.616374 
L 245.366402 322.582457 
L 245.686465 282.400068 
L 247.421809 20.034419 
L 247.723758 7.826127 
L 247.816665 6.740763 
L 247.915392 6.904531 
L 248.112845 11.089931 
L 248.409025 26.01587 
L 248.902658 68.716678 
L 249.988651 195.446461 
L 250.778463 275.767933 
L 251.400137 317.411518 
L 251.824357 333.170341 
L 252.121312 338.191929 
L 252.291 338.953846 
L 252.333422 338.914961 
L 252.439557 338.42841 
L 252.651827 335.853368 
L 252.970232 328.303286 
L 253.394772 312.309643 
L 254.031581 278.697891 
L 254.880661 223.558129 
L 256.753198 102.714289 
L 257.656248 58.844399 
L 258.415455 32.280526 
L 259.03231 17.804099 
L 259.488226 11.04467 
L 259.906311 7.615955 
L 260.219875 6.674569 
L 260.324397 6.655175 
L 260.533439 7.038883 
L 260.847003 8.62137 
L 261.265089 12.469847 
L 261.787695 19.76844 
L 262.519345 33.877422 
L 263.479116 57.593166 
L 264.977546 101.610737 
L 268.413455 205.382562 
L 269.878735 242.78303 
L 271.20767 271.303829 
L 272.387463 292.093997 
L 273.423108 306.880572 
L 274.458754 318.57587 
L 275.264255 325.661772 
L 276.086689 331.204983 
L 276.87871 335.042607 
L 277.538727 337.199191 
L 278.066741 338.29044 
L 278.589702 338.851479 
L 279.112663 338.927413 
L 279.635625 338.549598 
L 280.158586 337.748545 
L 280.715077 336.464458 
L 281.457064 334.11801 
L 282.328036 330.534415 
L 283.470493 324.661473 
L 284.841442 316.167702 
L 286.391491 305.094829 
L 288.488178 288.392176 
L 291.366803 263.681095 
L 297.866235 207.416336 
L 301.099508 181.49277 
L 303.822226 161.299976 
L 306.633854 142.155227 
L 309.094576 126.844657 
L 311.662285 112.27812 
L 313.917307 100.627412 
L 316.476011 88.633038 
L 319.010712 77.955363 
L 321.299289 69.271846 
L 323.415141 61.994165 
L 326.002044 54.001504 
L 328.490234 47.177027 
L 330.949831 41.189657 
L 333.052493 36.618537 
L 335.025872 32.750589 
L 337.168228 28.978285 
L 339.829897 24.857956 
L 342.426061 21.387177 
L 345.213156 18.202112 
L 347.207084 16.234554 
L 349.201011 14.503612 
L 351.988053 12.445756 
L 354.882063 10.710664 
L 357.370426 9.511208 
L 360.468314 8.354015 
L 363.954454 7.444905 
L 366.593922 6.999978 
L 369.38938 6.730457 
L 373.214518 6.656734 
L 376.341702 6.816931 
L 379.895115 7.20583 
L 383.396487 7.774591 
L 387.287205 8.59031 
L 393.778989 10.300868 
L 401.920888 12.909656 
L 407.300506 14.83561 
L 416.269379 18.283326 
L 429.411205 23.632474 
L 452.012049 32.985901 
L 452.012049 32.985901 
" clip-path="url(#p50f226a9d9)" style="fill: none; stroke: #0000ff; stroke-linecap: square"/>
   </g>
   <g id="patch_3">
    <path d="M 232.313266 345.6 
L 232.313266 0 
" style="fill: none; stroke: #000000; stroke-width: 0.8; stroke-linejoin: miter; stroke-linecap: square"/>
   </g>
   <g id="patch_4">
    <path d="M 3.826531 172.799849 
L 460.8 172.799849 
" style="fill: none; stroke: #000000; stroke-width: 0.8; stroke-linejoin: miter; stroke-linecap: square"/>
   </g>
  </g>
 </g>
 <defs>
  <clipPath id="p50f226a9d9">
   <rect x="3.826531" y="0" width="456.973469" height="345.6"/>
  </clipPath>
 </defs>
</svg>
