<?xml version="1.0" encoding="utf-8" standalone="no"?>
<!DOCTYPE svg PUBLIC "-//W3C//DTD SVG 1.1//EN"
  "http://www.w3.org/Graphics/SVG/1.1/DTD/svg11.dtd">
<svg xmlns:xlink="http://www.w3.org/1999/xlink" width="460.8pt" height="345.6pt" viewBox="0 0 460.8 345.6" xmlns="http://www.w3.org/2000/svg" version="1.1">
 <metadata>
  <rdf:RDF xmlns:dc="http://purl.org/dc/elements/1.1/" xmlns:cc="http://creativecommons.org/ns#" xmlns:rdf="http://www.w3.org/1999/02/22-rdf-syntax-ns#">
   <cc:Work>
    <dc:type rdf:resource="http://purl.org/dc/dcmitype/StillImage"/>
    <dc:date>2025-08-02T22:45:51.667959</dc:date>
    <dc:format>image/svg+xml</dc:format>
    <dc:creator>
     <cc:Agent>
      <dc:title>Matplotlib v3.10.3, https://matplotlib.org/</dc:title>
     </cc:Agent>
    </dc:creator>
   </cc:Work>
  </rdf:RDF>
 </metadata>
 <defs>
  <style type="text/css">*{stroke-linejoin: round; stroke-linecap: butt}</style>
 </defs>
 <g id="figure_1">
  <g id="patch_1">
   <path d="M 0 345.6 
L 460.8 345.6 
L 460.8 0 
L 0 0 
z
" style="fill: #ffffff"/>
  </g>
  <g id="axes_1">
   <g id="patch_2">
    <path d="M 146.769609 334.512027 
L 314.030391 334.512027 
L 314.030391 0 
L 146.769609 0 
z
" style="fill: #ffffff"/>
   </g>
   <g id="patch_3">
    <path d="M 149.986162 6.432924 
L 150.474211 10.325468 
L 151.243132 16.41009 
L 152.543351 26.565153 
L 153.473453 33.726316 
L 153.895172 36.944914 
L 154.674284 42.84463 
L 155.835402 51.524963 
L 156.679454 57.750778 
L 156.994385 60.055584 
L 158.29359 69.459436 
L 158.646711 71.986357 
L 159.474631 77.862289 
L 160.15996 82.674628 
L 161.138608 89.465644 
L 161.875214 94.514233 
L 163.036187 102.361784 
L 163.92491 108.278466 
L 164.298102 110.739565 
L 164.949352 115.001203 
L 166.374741 124.18139 
L 167.205994 129.441745 
L 167.563558 131.68335 
L 168.92638 140.11038 
L 169.699917 144.811356 
L 170.321238 148.544167 
L 171.372527 154.772703 
L 172.125514 159.166315 
L 172.74894 162.761273 
L 173.637614 167.818919 
L 173.89909 169.292081 
L 175.177993 176.399451 
L 175.567673 178.532719 
L 176.805338 185.208002 
L 177.635041 189.597639 
L 178.339649 193.271668 
L 179.301763 198.208647 
L 179.664912 200.048164 
L 180.342439 203.445081 
L 181.604086 209.648894 
L 182.414692 213.551281 
L 183.291634 217.699404 
L 183.89946 220.529659 
L 184.746749 224.413615 
L 185.863611 229.424164 
L 186.525038 232.332997 
L 187.446052 236.310952 
L 187.727698 237.510562 
L 188.529553 240.882671 
L 189.349731 244.265657 
L 190.064584 247.159626 
L 191.17632 251.559302 
L 191.779226 253.89387 
L 192.620822 257.092219 
L 193.305276 259.64142 
L 194.362579 263.487666 
L 195.29835 266.799032 
L 196.090809 269.53514 
L 196.88659 272.219849 
L 197.828305 275.315499 
L 198.536816 277.586394 
L 198.992567 279.020756 
L 199.862231 281.70047 
L 201.104008 285.396362 
L 201.458755 286.424019 
L 202.84395 290.316871 
L 203.251934 291.427046 
L 204.505114 294.733561 
L 204.945717 295.858969 
L 205.540888 297.348518 
L 206.707917 300.16697 
L 207.05554 300.980314 
L 208.447575 304.11683 
L 208.973256 305.251142 
L 209.661606 306.694892 
L 210.563457 308.515104 
L 211.02351 309.412466 
L 212.389906 311.953565 
L 213.103653 313.207073 
L 213.874967 314.504705 
L 214.615863 315.695433 
L 215.211363 316.612902 
L 216.551501 318.548576 
L 217.360509 319.630609 
L 218.003803 320.44453 
L 218.581054 321.139845 
L 219.506385 322.185268 
L 220.019523 322.728286 
L 221.400847 324.059876 
L 221.98694 324.567508 
L 222.433119 324.931047 
L 223.503015 325.722094 
L 223.949965 326.018832 
L 224.948759 326.610119 
L 225.783382 327.028101 
L 227.164908 327.567677 
L 227.902075 327.777898 
L 228.256483 327.859723 
L 228.787936 327.959006 
L 229.619046 328.057937 
L 230.82939 328.079103 
L 231.393617 328.039165 
L 232.258607 327.916442 
L 233.17785 327.704438 
L 233.765591 327.524829 
L 234.442249 327.27549 
L 235.540556 326.773808 
L 236.596594 326.178266 
L 237.391454 325.656831 
L 238.424393 324.885299 
L 238.594266 324.748252 
L 239.809426 323.684192 
L 240.876535 322.628628 
L 241.260502 322.221099 
L 242.040101 321.348542 
L 242.805014 320.433653 
L 244.116097 318.730118 
L 244.62756 318.019188 
L 245.455039 316.813886 
L 246.203248 315.665406 
L 246.958901 314.44897 
L 247.642687 313.299265 
L 248.790893 311.264059 
L 249.644716 309.66562 
L 250.286728 308.415941 
L 250.735636 307.51778 
L 252.044419 304.78478 
L 252.578119 303.621393 
L 253.099808 302.456801 
L 254.1158 300.111042 
L 255.453246 296.866526 
L 255.60573 296.485313 
L 256.97991 292.945487 
L 257.65785 291.12994 
L 258.647982 288.396176 
L 259.294899 286.557352 
L 260.16225 284.026628 
L 260.869258 281.908378 
L 261.30833 280.567852 
L 262.328626 277.378735 
L 262.900086 275.547289 
L 263.752832 272.753948 
L 264.851933 269.046909 
L 265.315785 267.446373 
L 266.454443 263.426623 
L 267.035805 261.324531 
L 268.202835 257.003277 
L 268.713464 255.069921 
L 269.973695 250.187388 
L 270.179314 249.37576 
L 270.81871 246.825043 
L 271.755915 243.012784 
L 272.966039 237.961115 
L 273.849247 234.182193 
L 274.768884 230.164935 
L 274.915845 229.515166 
L 276.282886 223.368027 
L 276.972866 220.19481 
L 277.568031 217.419603 
L 278.767351 211.720211 
L 279.516584 208.087098 
L 279.868588 206.360904 
L 280.850971 201.478202 
L 282.018474 195.550547 
L 282.927349 190.842127 
L 283.481228 187.932458 
L 283.852802 185.963378 
L 285.133358 179.072109 
L 285.539341 176.853261 
L 286.689893 170.475993 
L 287.03263 168.550818 
L 288.136514 162.270791 
L 289.298938 155.526684 
L 289.880472 152.102317 
L 290.260557 149.846004 
L 291.031296 145.226513 
L 292.39567 136.904111 
L 293.113011 132.454195 
L 293.86472 127.736156 
L 294.665299 122.649567 
L 295.115796 119.759245 
L 296.577572 110.241639 
L 297.00716 107.404177 
L 298.217096 99.31379 
L 298.775956 95.527736 
L 299.785238 88.611517 
L 300.267828 85.268702 
L 301.46777 76.856489 
L 302.21866 71.519502 
L 303.084706 65.294378 
L 303.756845 60.411625 
L 304.124529 57.721563 
L 305.448558 47.92326 
L 306.195123 42.321504 
L 306.883026 37.110826 
L 307.49445 32.439943 
L 308.740594 22.80506 
L 308.938749 21.258744 
L 309.620991 15.904919 
L 310.813838 6.432924 
z
" clip-path="url(#p0ede40a82b)" style="fill: #808080; opacity: 0.5"/>
   </g>
   <g id="matplotlib.axis_1">
    <g id="xtick_1">
     <g id="line2d_1">
      <defs>
       <path id="mb594b7705e" d="M 0 0 
L 0 3.5 
" style="stroke: #000000; stroke-width: 0.8"/>
      </defs>
      <g>
       <use xlink:href="#mb594b7705e" x="149.986162" y="328.088274" style="stroke: #000000; stroke-width: 0.8"/>
      </g>
     </g>
     <g id="text_1">
      <!-- −4 -->
      <g transform="translate(142.615069 342.686712) scale(0.1 -0.1)">
       <defs>
        <path id="DejaVuSans-2212" d="M 678 2272 
L 4684 2272 
L 4684 1741 
L 678 1741 
L 678 2272 
z
" transform="scale(0.015625)"/>
        <path id="DejaVuSans-34" d="M 2419 4116 
L 825 1625 
L 2419 1625 
L 2419 4116 
z
M 2253 4666 
L 3047 4666 
L 3047 1625 
L 3713 1625 
L 3713 1100 
L 3047 1100 
L 3047 0 
L 2419 0 
L 2419 1100 
L 313 1100 
L 313 1709 
L 2253 4666 
z
" transform="scale(0.015625)"/>
       </defs>
       <use xlink:href="#DejaVuSans-2212"/>
       <use xlink:href="#DejaVuSans-34" transform="translate(83.789062 0)"/>
      </g>
     </g>
    </g>
    <g id="xtick_2">
     <g id="line2d_2">
      <g>
       <use xlink:href="#mb594b7705e" x="170.089622" y="328.088274" style="stroke: #000000; stroke-width: 0.8"/>
      </g>
     </g>
     <g id="text_2">
      <!-- −3 -->
      <g transform="translate(162.718528 342.686712) scale(0.1 -0.1)">
       <defs>
        <path id="DejaVuSans-33" d="M 2597 2516 
Q 3050 2419 3304 2112 
Q 3559 1806 3559 1356 
Q 3559 666 3084 287 
Q 2609 -91 1734 -91 
Q 1441 -91 1130 -33 
Q 819 25 488 141 
L 488 750 
Q 750 597 1062 519 
Q 1375 441 1716 441 
Q 2309 441 2620 675 
Q 2931 909 2931 1356 
Q 2931 1769 2642 2001 
Q 2353 2234 1838 2234 
L 1294 2234 
L 1294 2753 
L 1863 2753 
Q 2328 2753 2575 2939 
Q 2822 3125 2822 3475 
Q 2822 3834 2567 4026 
Q 2313 4219 1838 4219 
Q 1578 4219 1281 4162 
Q 984 4106 628 3988 
L 628 4550 
Q 988 4650 1302 4700 
Q 1616 4750 1894 4750 
Q 2613 4750 3031 4423 
Q 3450 4097 3450 3541 
Q 3450 3153 3228 2886 
Q 3006 2619 2597 2516 
z
" transform="scale(0.015625)"/>
       </defs>
       <use xlink:href="#DejaVuSans-2212"/>
       <use xlink:href="#DejaVuSans-33" transform="translate(83.789062 0)"/>
      </g>
     </g>
    </g>
    <g id="xtick_3">
     <g id="line2d_3">
      <g>
       <use xlink:href="#mb594b7705e" x="190.193081" y="328.088274" style="stroke: #000000; stroke-width: 0.8"/>
      </g>
     </g>
     <g id="text_3">
      <!-- −2 -->
      <g transform="translate(182.821987 342.686712) scale(0.1 -0.1)">
       <defs>
        <path id="DejaVuSans-32" d="M 1228 531 
L 3431 531 
L 3431 0 
L 469 0 
L 469 531 
Q 828 903 1448 1529 
Q 2069 2156 2228 2338 
Q 2531 2678 2651 2914 
Q 2772 3150 2772 3378 
Q 2772 3750 2511 3984 
Q 2250 4219 1831 4219 
Q 1534 4219 1204 4116 
Q 875 4013 500 3803 
L 500 4441 
Q 881 4594 1212 4672 
Q 1544 4750 1819 4750 
Q 2544 4750 2975 4387 
Q 3406 4025 3406 3419 
Q 3406 3131 3298 2873 
Q 3191 2616 2906 2266 
Q 2828 2175 2409 1742 
Q 1991 1309 1228 531 
z
" transform="scale(0.015625)"/>
       </defs>
       <use xlink:href="#DejaVuSans-2212"/>
       <use xlink:href="#DejaVuSans-32" transform="translate(83.789062 0)"/>
      </g>
     </g>
    </g>
    <g id="xtick_4">
     <g id="line2d_4">
      <g>
       <use xlink:href="#mb594b7705e" x="210.296541" y="328.088274" style="stroke: #000000; stroke-width: 0.8"/>
      </g>
     </g>
     <g id="text_4">
      <!-- −1 -->
      <g transform="translate(202.925447 342.686712) scale(0.1 -0.1)">
       <defs>
        <path id="DejaVuSans-31" d="M 794 531 
L 1825 531 
L 1825 4091 
L 703 3866 
L 703 4441 
L 1819 4666 
L 2450 4666 
L 2450 531 
L 3481 531 
L 3481 0 
L 794 0 
L 794 531 
z
" transform="scale(0.015625)"/>
       </defs>
       <use xlink:href="#DejaVuSans-2212"/>
       <use xlink:href="#DejaVuSans-31" transform="translate(83.789062 0)"/>
      </g>
     </g>
    </g>
    <g id="xtick_5">
     <g id="line2d_5">
      <g>
       <use xlink:href="#mb594b7705e" x="230.4" y="328.088274" style="stroke: #000000; stroke-width: 0.8"/>
      </g>
     </g>
    </g>
    <g id="xtick_6">
     <g id="line2d_6">
      <g>
       <use xlink:href="#mb594b7705e" x="250.503459" y="328.088274" style="stroke: #000000; stroke-width: 0.8"/>
      </g>
     </g>
     <g id="text_5">
      <!-- 1 -->
      <g transform="translate(247.322209 342.686712) scale(0.1 -0.1)">
       <use xlink:href="#DejaVuSans-31"/>
      </g>
     </g>
    </g>
    <g id="xtick_7">
     <g id="line2d_7">
      <g>
       <use xlink:href="#mb594b7705e" x="270.606919" y="328.088274" style="stroke: #000000; stroke-width: 0.8"/>
      </g>
     </g>
     <g id="text_6">
      <!-- 2 -->
      <g transform="translate(267.425669 342.686712) scale(0.1 -0.1)">
       <use xlink:href="#DejaVuSans-32"/>
      </g>
     </g>
    </g>
    <g id="xtick_8">
     <g id="line2d_8">
      <g>
       <use xlink:href="#mb594b7705e" x="290.710378" y="328.088274" style="stroke: #000000; stroke-width: 0.8"/>
      </g>
     </g>
     <g id="text_7">
      <!-- 3 -->
      <g transform="translate(287.529128 342.686712) scale(0.1 -0.1)">
       <use xlink:href="#DejaVuSans-33"/>
      </g>
     </g>
    </g>
    <g id="xtick_9">
     <g id="line2d_9">
      <g>
       <use xlink:href="#mb594b7705e" x="310.813838" y="328.088274" style="stroke: #000000; stroke-width: 0.8"/>
      </g>
     </g>
     <g id="text_8">
      <!-- 4 -->
      <g transform="translate(307.632588 342.686712) scale(0.1 -0.1)">
       <use xlink:href="#DejaVuSans-34"/>
      </g>
     </g>
    </g>
    <g id="xtick_10">
     <g id="line2d_10">
      <defs>
       <path id="m6506044c2e" d="M 0 0 
L 0 2 
" style="stroke: #000000; stroke-width: 0.6"/>
      </defs>
      <g>
       <use xlink:href="#m6506044c2e" x="154.006854" y="328.088274" style="stroke: #000000; stroke-width: 0.6"/>
      </g>
     </g>
    </g>
    <g id="xtick_11">
     <g id="line2d_11">
      <g>
       <use xlink:href="#m6506044c2e" x="158.027546" y="328.088274" style="stroke: #000000; stroke-width: 0.6"/>
      </g>
     </g>
    </g>
    <g id="xtick_12">
     <g id="line2d_12">
      <g>
       <use xlink:href="#m6506044c2e" x="162.048238" y="328.088274" style="stroke: #000000; stroke-width: 0.6"/>
      </g>
     </g>
    </g>
    <g id="xtick_13">
     <g id="line2d_13">
      <g>
       <use xlink:href="#m6506044c2e" x="166.06893" y="328.088274" style="stroke: #000000; stroke-width: 0.6"/>
      </g>
     </g>
    </g>
    <g id="xtick_14">
     <g id="line2d_14">
      <g>
       <use xlink:href="#m6506044c2e" x="174.110314" y="328.088274" style="stroke: #000000; stroke-width: 0.6"/>
      </g>
     </g>
    </g>
    <g id="xtick_15">
     <g id="line2d_15">
      <g>
       <use xlink:href="#m6506044c2e" x="178.131005" y="328.088274" style="stroke: #000000; stroke-width: 0.6"/>
      </g>
     </g>
    </g>
    <g id="xtick_16">
     <g id="line2d_16">
      <g>
       <use xlink:href="#m6506044c2e" x="182.151697" y="328.088274" style="stroke: #000000; stroke-width: 0.6"/>
      </g>
     </g>
    </g>
    <g id="xtick_17">
     <g id="line2d_17">
      <g>
       <use xlink:href="#m6506044c2e" x="186.172389" y="328.088274" style="stroke: #000000; stroke-width: 0.6"/>
      </g>
     </g>
    </g>
    <g id="xtick_18">
     <g id="line2d_18">
      <g>
       <use xlink:href="#m6506044c2e" x="194.213773" y="328.088274" style="stroke: #000000; stroke-width: 0.6"/>
      </g>
     </g>
    </g>
    <g id="xtick_19">
     <g id="line2d_19">
      <g>
       <use xlink:href="#m6506044c2e" x="198.234465" y="328.088274" style="stroke: #000000; stroke-width: 0.6"/>
      </g>
     </g>
    </g>
    <g id="xtick_20">
     <g id="line2d_20">
      <g>
       <use xlink:href="#m6506044c2e" x="202.255157" y="328.088274" style="stroke: #000000; stroke-width: 0.6"/>
      </g>
     </g>
    </g>
    <g id="xtick_21">
     <g id="line2d_21">
      <g>
       <use xlink:href="#m6506044c2e" x="206.275849" y="328.088274" style="stroke: #000000; stroke-width: 0.6"/>
      </g>
     </g>
    </g>
    <g id="xtick_22">
     <g id="line2d_22">
      <g>
       <use xlink:href="#m6506044c2e" x="214.317232" y="328.088274" style="stroke: #000000; stroke-width: 0.6"/>
      </g>
     </g>
    </g>
    <g id="xtick_23">
     <g id="line2d_23">
      <g>
       <use xlink:href="#m6506044c2e" x="218.337924" y="328.088274" style="stroke: #000000; stroke-width: 0.6"/>
      </g>
     </g>
    </g>
    <g id="xtick_24">
     <g id="line2d_24">
      <g>
       <use xlink:href="#m6506044c2e" x="222.358616" y="328.088274" style="stroke: #000000; stroke-width: 0.6"/>
      </g>
     </g>
    </g>
    <g id="xtick_25">
     <g id="line2d_25">
      <g>
       <use xlink:href="#m6506044c2e" x="226.379308" y="328.088274" style="stroke: #000000; stroke-width: 0.6"/>
      </g>
     </g>
    </g>
    <g id="xtick_26">
     <g id="line2d_26">
      <g>
       <use xlink:href="#m6506044c2e" x="234.420692" y="328.088274" style="stroke: #000000; stroke-width: 0.6"/>
      </g>
     </g>
    </g>
    <g id="xtick_27">
     <g id="line2d_27">
      <g>
       <use xlink:href="#m6506044c2e" x="238.441384" y="328.088274" style="stroke: #000000; stroke-width: 0.6"/>
      </g>
     </g>
    </g>
    <g id="xtick_28">
     <g id="line2d_28">
      <g>
       <use xlink:href="#m6506044c2e" x="242.462076" y="328.088274" style="stroke: #000000; stroke-width: 0.6"/>
      </g>
     </g>
    </g>
    <g id="xtick_29">
     <g id="line2d_29">
      <g>
       <use xlink:href="#m6506044c2e" x="246.482768" y="328.088274" style="stroke: #000000; stroke-width: 0.6"/>
      </g>
     </g>
    </g>
    <g id="xtick_30">
     <g id="line2d_30">
      <g>
       <use xlink:href="#m6506044c2e" x="254.524151" y="328.088274" style="stroke: #000000; stroke-width: 0.6"/>
      </g>
     </g>
    </g>
    <g id="xtick_31">
     <g id="line2d_31">
      <g>
       <use xlink:href="#m6506044c2e" x="258.544843" y="328.088274" style="stroke: #000000; stroke-width: 0.6"/>
      </g>
     </g>
    </g>
    <g id="xtick_32">
     <g id="line2d_32">
      <g>
       <use xlink:href="#m6506044c2e" x="262.565535" y="328.088274" style="stroke: #000000; stroke-width: 0.6"/>
      </g>
     </g>
    </g>
    <g id="xtick_33">
     <g id="line2d_33">
      <g>
       <use xlink:href="#m6506044c2e" x="266.586227" y="328.088274" style="stroke: #000000; stroke-width: 0.6"/>
      </g>
     </g>
    </g>
    <g id="xtick_34">
     <g id="line2d_34">
      <g>
       <use xlink:href="#m6506044c2e" x="274.627611" y="328.088274" style="stroke: #000000; stroke-width: 0.6"/>
      </g>
     </g>
    </g>
    <g id="xtick_35">
     <g id="line2d_35">
      <g>
       <use xlink:href="#m6506044c2e" x="278.648303" y="328.088274" style="stroke: #000000; stroke-width: 0.6"/>
      </g>
     </g>
    </g>
    <g id="xtick_36">
     <g id="line2d_36">
      <g>
       <use xlink:href="#m6506044c2e" x="282.668995" y="328.088274" style="stroke: #000000; stroke-width: 0.6"/>
      </g>
     </g>
    </g>
    <g id="xtick_37">
     <g id="line2d_37">
      <g>
       <use xlink:href="#m6506044c2e" x="286.689686" y="328.088274" style="stroke: #000000; stroke-width: 0.6"/>
      </g>
     </g>
    </g>
    <g id="xtick_38">
     <g id="line2d_38">
      <g>
       <use xlink:href="#m6506044c2e" x="294.73107" y="328.088274" style="stroke: #000000; stroke-width: 0.6"/>
      </g>
     </g>
    </g>
    <g id="xtick_39">
     <g id="line2d_39">
      <g>
       <use xlink:href="#m6506044c2e" x="298.751762" y="328.088274" style="stroke: #000000; stroke-width: 0.6"/>
      </g>
     </g>
    </g>
    <g id="xtick_40">
     <g id="line2d_40">
      <g>
       <use xlink:href="#m6506044c2e" x="302.772454" y="328.088274" style="stroke: #000000; stroke-width: 0.6"/>
      </g>
     </g>
    </g>
    <g id="xtick_41">
     <g id="line2d_41">
      <g>
       <use xlink:href="#m6506044c2e" x="306.793146" y="328.088274" style="stroke: #000000; stroke-width: 0.6"/>
      </g>
     </g>
    </g>
   </g>
   <g id="matplotlib.axis_2">
    <g id="ytick_1">
     <g id="line2d_42">
      <defs>
       <path id="mcdcc842532" d="M 0 0 
L -3.5 0 
" style="stroke: #000000; stroke-width: 0.8"/>
      </defs>
      <g>
       <use xlink:href="#mcdcc842532" x="230.4" y="328.088274" style="stroke: #000000; stroke-width: 0.8"/>
      </g>
     </g>
    </g>
    <g id="ytick_2">
     <g id="line2d_43">
      <g>
       <use xlink:href="#mcdcc842532" x="230.4" y="287.881356" style="stroke: #000000; stroke-width: 0.8"/>
      </g>
     </g>
     <g id="text_9">
      <!-- 2 -->
      <g transform="translate(217.0375 291.680574) scale(0.1 -0.1)">
       <use xlink:href="#DejaVuSans-32"/>
      </g>
     </g>
    </g>
    <g id="ytick_3">
     <g id="line2d_44">
      <g>
       <use xlink:href="#mcdcc842532" x="230.4" y="247.674437" style="stroke: #000000; stroke-width: 0.8"/>
      </g>
     </g>
     <g id="text_10">
      <!-- 4 -->
      <g transform="translate(217.0375 251.473655) scale(0.1 -0.1)">
       <use xlink:href="#DejaVuSans-34"/>
      </g>
     </g>
    </g>
    <g id="ytick_4">
     <g id="line2d_45">
      <g>
       <use xlink:href="#mcdcc842532" x="230.4" y="207.467518" style="stroke: #000000; stroke-width: 0.8"/>
      </g>
     </g>
     <g id="text_11">
      <!-- 6 -->
      <g transform="translate(217.0375 211.266737) scale(0.1 -0.1)">
       <defs>
        <path id="DejaVuSans-36" d="M 2113 2584 
Q 1688 2584 1439 2293 
Q 1191 2003 1191 1497 
Q 1191 994 1439 701 
Q 1688 409 2113 409 
Q 2538 409 2786 701 
Q 3034 994 3034 1497 
Q 3034 2003 2786 2293 
Q 2538 2584 2113 2584 
z
M 3366 4563 
L 3366 3988 
Q 3128 4100 2886 4159 
Q 2644 4219 2406 4219 
Q 1781 4219 1451 3797 
Q 1122 3375 1075 2522 
Q 1259 2794 1537 2939 
Q 1816 3084 2150 3084 
Q 2853 3084 3261 2657 
Q 3669 2231 3669 1497 
Q 3669 778 3244 343 
Q 2819 -91 2113 -91 
Q 1303 -91 875 529 
Q 447 1150 447 2328 
Q 447 3434 972 4092 
Q 1497 4750 2381 4750 
Q 2619 4750 2861 4703 
Q 3103 4656 3366 4563 
z
" transform="scale(0.015625)"/>
       </defs>
       <use xlink:href="#DejaVuSans-36"/>
      </g>
     </g>
    </g>
    <g id="ytick_5">
     <g id="line2d_46">
      <g>
       <use xlink:href="#mcdcc842532" x="230.4" y="167.260599" style="stroke: #000000; stroke-width: 0.8"/>
      </g>
     </g>
     <g id="text_12">
      <!-- 8 -->
      <g transform="translate(217.0375 171.059818) scale(0.1 -0.1)">
       <defs>
        <path id="DejaVuSans-38" d="M 2034 2216 
Q 1584 2216 1326 1975 
Q 1069 1734 1069 1313 
Q 1069 891 1326 650 
Q 1584 409 2034 409 
Q 2484 409 2743 651 
Q 3003 894 3003 1313 
Q 3003 1734 2745 1975 
Q 2488 2216 2034 2216 
z
M 1403 2484 
Q 997 2584 770 2862 
Q 544 3141 544 3541 
Q 544 4100 942 4425 
Q 1341 4750 2034 4750 
Q 2731 4750 3128 4425 
Q 3525 4100 3525 3541 
Q 3525 3141 3298 2862 
Q 3072 2584 2669 2484 
Q 3125 2378 3379 2068 
Q 3634 1759 3634 1313 
Q 3634 634 3220 271 
Q 2806 -91 2034 -91 
Q 1263 -91 848 271 
Q 434 634 434 1313 
Q 434 1759 690 2068 
Q 947 2378 1403 2484 
z
M 1172 3481 
Q 1172 3119 1398 2916 
Q 1625 2713 2034 2713 
Q 2441 2713 2670 2916 
Q 2900 3119 2900 3481 
Q 2900 3844 2670 4047 
Q 2441 4250 2034 4250 
Q 1625 4250 1398 4047 
Q 1172 3844 1172 3481 
z
" transform="scale(0.015625)"/>
       </defs>
       <use xlink:href="#DejaVuSans-38"/>
      </g>
     </g>
    </g>
    <g id="ytick_6">
     <g id="line2d_47">
      <g>
       <use xlink:href="#mcdcc842532" x="230.4" y="127.05368" style="stroke: #000000; stroke-width: 0.8"/>
      </g>
     </g>
     <g id="text_13">
      <!-- 10 -->
      <g transform="translate(210.675 130.852899) scale(0.1 -0.1)">
       <defs>
        <path id="DejaVuSans-30" d="M 2034 4250 
Q 1547 4250 1301 3770 
Q 1056 3291 1056 2328 
Q 1056 1369 1301 889 
Q 1547 409 2034 409 
Q 2525 409 2770 889 
Q 3016 1369 3016 2328 
Q 3016 3291 2770 3770 
Q 2525 4250 2034 4250 
z
M 2034 4750 
Q 2819 4750 3233 4129 
Q 3647 3509 3647 2328 
Q 3647 1150 3233 529 
Q 2819 -91 2034 -91 
Q 1250 -91 836 529 
Q 422 1150 422 2328 
Q 422 3509 836 4129 
Q 1250 4750 2034 4750 
z
" transform="scale(0.015625)"/>
       </defs>
       <use xlink:href="#DejaVuSans-31"/>
       <use xlink:href="#DejaVuSans-30" transform="translate(63.623047 0)"/>
      </g>
     </g>
    </g>
    <g id="ytick_7">
     <g id="line2d_48">
      <g>
       <use xlink:href="#mcdcc842532" x="230.4" y="86.846761" style="stroke: #000000; stroke-width: 0.8"/>
      </g>
     </g>
     <g id="text_14">
      <!-- 12 -->
      <g transform="translate(210.675 90.64598) scale(0.1 -0.1)">
       <use xlink:href="#DejaVuSans-31"/>
       <use xlink:href="#DejaVuSans-32" transform="translate(63.623047 0)"/>
      </g>
     </g>
    </g>
    <g id="ytick_8">
     <g id="line2d_49">
      <g>
       <use xlink:href="#mcdcc842532" x="230.4" y="46.639842" style="stroke: #000000; stroke-width: 0.8"/>
      </g>
     </g>
     <g id="text_15">
      <!-- 14 -->
      <g transform="translate(210.675 50.439061) scale(0.1 -0.1)">
       <use xlink:href="#DejaVuSans-31"/>
       <use xlink:href="#DejaVuSans-34" transform="translate(63.623047 0)"/>
      </g>
     </g>
    </g>
    <g id="ytick_9">
     <g id="line2d_50">
      <g>
       <use xlink:href="#mcdcc842532" x="230.4" y="6.432924" style="stroke: #000000; stroke-width: 0.8"/>
      </g>
     </g>
     <g id="text_16">
      <!-- 16 -->
      <g transform="translate(210.675 10.232142) scale(0.1 -0.1)">
       <use xlink:href="#DejaVuSans-31"/>
       <use xlink:href="#DejaVuSans-36" transform="translate(63.623047 0)"/>
      </g>
     </g>
    </g>
    <g id="ytick_10">
     <g id="line2d_51">
      <defs>
       <path id="m2467b8d0f6" d="M 0 0 
L -2 0 
" style="stroke: #000000; stroke-width: 0.6"/>
      </defs>
      <g>
       <use xlink:href="#m2467b8d0f6" x="230.4" y="318.036545" style="stroke: #000000; stroke-width: 0.6"/>
      </g>
     </g>
    </g>
    <g id="ytick_11">
     <g id="line2d_52">
      <g>
       <use xlink:href="#m2467b8d0f6" x="230.4" y="307.984815" style="stroke: #000000; stroke-width: 0.6"/>
      </g>
     </g>
    </g>
    <g id="ytick_12">
     <g id="line2d_53">
      <g>
       <use xlink:href="#m2467b8d0f6" x="230.4" y="297.933085" style="stroke: #000000; stroke-width: 0.6"/>
      </g>
     </g>
    </g>
    <g id="ytick_13">
     <g id="line2d_54">
      <g>
       <use xlink:href="#m2467b8d0f6" x="230.4" y="277.829626" style="stroke: #000000; stroke-width: 0.6"/>
      </g>
     </g>
    </g>
    <g id="ytick_14">
     <g id="line2d_55">
      <g>
       <use xlink:href="#m2467b8d0f6" x="230.4" y="267.777896" style="stroke: #000000; stroke-width: 0.6"/>
      </g>
     </g>
    </g>
    <g id="ytick_15">
     <g id="line2d_56">
      <g>
       <use xlink:href="#m2467b8d0f6" x="230.4" y="257.726166" style="stroke: #000000; stroke-width: 0.6"/>
      </g>
     </g>
    </g>
    <g id="ytick_16">
     <g id="line2d_57">
      <g>
       <use xlink:href="#m2467b8d0f6" x="230.4" y="237.622707" style="stroke: #000000; stroke-width: 0.6"/>
      </g>
     </g>
    </g>
    <g id="ytick_17">
     <g id="line2d_58">
      <g>
       <use xlink:href="#m2467b8d0f6" x="230.4" y="227.570977" style="stroke: #000000; stroke-width: 0.6"/>
      </g>
     </g>
    </g>
    <g id="ytick_18">
     <g id="line2d_59">
      <g>
       <use xlink:href="#m2467b8d0f6" x="230.4" y="217.519248" style="stroke: #000000; stroke-width: 0.6"/>
      </g>
     </g>
    </g>
    <g id="ytick_19">
     <g id="line2d_60">
      <g>
       <use xlink:href="#m2467b8d0f6" x="230.4" y="197.415788" style="stroke: #000000; stroke-width: 0.6"/>
      </g>
     </g>
    </g>
    <g id="ytick_20">
     <g id="line2d_61">
      <g>
       <use xlink:href="#m2467b8d0f6" x="230.4" y="187.364058" style="stroke: #000000; stroke-width: 0.6"/>
      </g>
     </g>
    </g>
    <g id="ytick_21">
     <g id="line2d_62">
      <g>
       <use xlink:href="#m2467b8d0f6" x="230.4" y="177.312329" style="stroke: #000000; stroke-width: 0.6"/>
      </g>
     </g>
    </g>
    <g id="ytick_22">
     <g id="line2d_63">
      <g>
       <use xlink:href="#m2467b8d0f6" x="230.4" y="157.208869" style="stroke: #000000; stroke-width: 0.6"/>
      </g>
     </g>
    </g>
    <g id="ytick_23">
     <g id="line2d_64">
      <g>
       <use xlink:href="#m2467b8d0f6" x="230.4" y="147.15714" style="stroke: #000000; stroke-width: 0.6"/>
      </g>
     </g>
    </g>
    <g id="ytick_24">
     <g id="line2d_65">
      <g>
       <use xlink:href="#m2467b8d0f6" x="230.4" y="137.10541" style="stroke: #000000; stroke-width: 0.6"/>
      </g>
     </g>
    </g>
    <g id="ytick_25">
     <g id="line2d_66">
      <g>
       <use xlink:href="#m2467b8d0f6" x="230.4" y="117.00195" style="stroke: #000000; stroke-width: 0.6"/>
      </g>
     </g>
    </g>
    <g id="ytick_26">
     <g id="line2d_67">
      <g>
       <use xlink:href="#m2467b8d0f6" x="230.4" y="106.950221" style="stroke: #000000; stroke-width: 0.6"/>
      </g>
     </g>
    </g>
    <g id="ytick_27">
     <g id="line2d_68">
      <g>
       <use xlink:href="#m2467b8d0f6" x="230.4" y="96.898491" style="stroke: #000000; stroke-width: 0.6"/>
      </g>
     </g>
    </g>
    <g id="ytick_28">
     <g id="line2d_69">
      <g>
       <use xlink:href="#m2467b8d0f6" x="230.4" y="76.795032" style="stroke: #000000; stroke-width: 0.6"/>
      </g>
     </g>
    </g>
    <g id="ytick_29">
     <g id="line2d_70">
      <g>
       <use xlink:href="#m2467b8d0f6" x="230.4" y="66.743302" style="stroke: #000000; stroke-width: 0.6"/>
      </g>
     </g>
    </g>
    <g id="ytick_30">
     <g id="line2d_71">
      <g>
       <use xlink:href="#m2467b8d0f6" x="230.4" y="56.691572" style="stroke: #000000; stroke-width: 0.6"/>
      </g>
     </g>
    </g>
    <g id="ytick_31">
     <g id="line2d_72">
      <g>
       <use xlink:href="#m2467b8d0f6" x="230.4" y="36.588113" style="stroke: #000000; stroke-width: 0.6"/>
      </g>
     </g>
    </g>
    <g id="ytick_32">
     <g id="line2d_73">
      <g>
       <use xlink:href="#m2467b8d0f6" x="230.4" y="26.536383" style="stroke: #000000; stroke-width: 0.6"/>
      </g>
     </g>
    </g>
    <g id="ytick_33">
     <g id="line2d_74">
      <g>
       <use xlink:href="#m2467b8d0f6" x="230.4" y="16.484653" style="stroke: #000000; stroke-width: 0.6"/>
      </g>
     </g>
    </g>
   </g>
   <g id="line2d_75">
    <path d="M 149.986162 6.432924 
L 153.895172 36.944914 
L 158.29359 69.459436 
L 161.875214 94.514233 
L 166.374741 124.18139 
L 170.321238 148.544167 
L 173.89909 169.292081 
L 177.635041 189.597639 
L 180.342439 203.445081 
L 183.89946 220.529659 
L 187.446052 236.310952 
L 190.064584 247.159626 
L 193.305276 259.64142 
L 196.090809 269.53514 
L 198.992567 279.020756 
L 201.458755 286.424019 
L 204.505114 294.733561 
L 207.05554 300.980314 
L 209.661606 306.694892 
L 212.389906 311.953565 
L 214.615863 315.695433 
L 216.551501 318.548576 
L 218.581054 321.139845 
L 220.019523 322.728286 
L 222.433119 324.931047 
L 223.949965 326.018832 
L 225.783382 327.028101 
L 227.902075 327.777898 
L 228.787936 327.959006 
L 229.619046 328.057937 
L 231.393617 328.039165 
L 233.17785 327.704438 
L 234.442249 327.27549 
L 236.596594 326.178266 
L 238.594266 324.748252 
L 240.876535 322.628628 
L 242.805014 320.433653 
L 245.455039 316.813886 
L 247.642687 313.299265 
L 250.286728 308.415941 
L 252.578119 303.621393 
L 254.1158 300.111042 
L 256.97991 292.945487 
L 259.294899 286.557352 
L 262.328626 277.378735 
L 265.315785 267.446373 
L 268.713464 255.069921 
L 271.755915 243.012784 
L 274.915845 229.515166 
L 278.767351 211.720211 
L 282.018474 195.550547 
L 285.539341 176.853261 
L 289.298938 155.526684 
L 293.113011 132.454195 
L 297.00716 107.404177 
L 301.46777 76.856489 
L 305.448558 47.92326 
L 309.620991 15.904919 
L 310.813838 6.432924 
L 310.813838 6.432924 
" clip-path="url(#p0ede40a82b)" style="fill: none; stroke: #0000ff; stroke-linecap: square"/>
   </g>
   <g id="patch_4">
    <path d="M 230.4 334.512027 
L 230.4 0 
" style="fill: none; stroke: #000000; stroke-width: 0.8; stroke-linejoin: miter; stroke-linecap: square"/>
   </g>
   <g id="patch_5">
    <path d="M 146.769609 328.088274 
L 314.030391 328.088274 
" style="fill: none; stroke: #000000; stroke-width: 0.8; stroke-linejoin: miter; stroke-linecap: square"/>
   </g>
  </g>
 </g>
 <defs>
  <clipPath id="p0ede40a82b">
   <rect x="146.769609" y="0" width="167.260782" height="334.512027"/>
  </clipPath>
 </defs>
</svg>
