<?xml version="1.0" encoding="utf-8" standalone="no"?>
<!DOCTYPE svg PUBLIC "-//W3C//DTD SVG 1.1//EN"
  "http://www.w3.org/Graphics/SVG/1.1/DTD/svg11.dtd">
<svg xmlns:xlink="http://www.w3.org/1999/xlink" width="460.8pt" height="345.6pt" viewBox="0 0 460.8 345.6" xmlns="http://www.w3.org/2000/svg" version="1.1">
 <metadata>
  <rdf:RDF xmlns:dc="http://purl.org/dc/elements/1.1/" xmlns:cc="http://creativecommons.org/ns#" xmlns:rdf="http://www.w3.org/1999/02/22-rdf-syntax-ns#">
   <cc:Work>
    <dc:type rdf:resource="http://purl.org/dc/dcmitype/StillImage"/>
    <dc:date>2025-08-02T22:45:54.209186</dc:date>
    <dc:format>image/svg+xml</dc:format>
    <dc:creator>
     <cc:Agent>
      <dc:title>Matplotlib v3.10.3, https://matplotlib.org/</dc:title>
     </cc:Agent>
    </dc:creator>
   </cc:Work>
  </rdf:RDF>
 </metadata>
 <defs>
  <style type="text/css">*{stroke-linejoin: round; stroke-linecap: butt}</style>
 </defs>
 <g id="figure_1">
  <g id="patch_1">
   <path d="M 0 345.6 
L 460.8 345.6 
L 460.8 0 
L 0 0 
z
" style="fill: #ffffff"/>
  </g>
  <g id="axes_1">
   <g id="patch_2">
    <path d="M 14.813839 268.435995 
L 460.8 268.435995 
L 460.8 77.164005 
L 14.813839 77.164005 
z
" style="fill: #ffffff"/>
   </g>
   <g id="matplotlib.axis_1">
    <g id="xtick_1">
     <g id="line2d_1">
      <defs>
       <path id="m3ff4702208" d="M 0 0 
L 0 3.5 
" style="stroke: #000000; stroke-width: 0.8"/>
      </defs>
      <g>
       <use xlink:href="#m3ff4702208" x="23.390496" y="264.757688" style="stroke: #000000; stroke-width: 0.8"/>
      </g>
     </g>
    </g>
    <g id="xtick_2">
     <g id="line2d_2">
      <g>
       <use xlink:href="#m3ff4702208" x="130.598708" y="264.757688" style="stroke: #000000; stroke-width: 0.8"/>
      </g>
     </g>
     <g id="text_1">
      <!-- 0.5 -->
      <g transform="translate(122.647145 279.356125) scale(0.1 -0.1)">
       <defs>
        <path id="DejaVuSans-30" d="M 2034 4250 
Q 1547 4250 1301 3770 
Q 1056 3291 1056 2328 
Q 1056 1369 1301 889 
Q 1547 409 2034 409 
Q 2525 409 2770 889 
Q 3016 1369 3016 2328 
Q 3016 3291 2770 3770 
Q 2525 4250 2034 4250 
z
M 2034 4750 
Q 2819 4750 3233 4129 
Q 3647 3509 3647 2328 
Q 3647 1150 3233 529 
Q 2819 -91 2034 -91 
Q 1250 -91 836 529 
Q 422 1150 422 2328 
Q 422 3509 836 4129 
Q 1250 4750 2034 4750 
z
" transform="scale(0.015625)"/>
        <path id="DejaVuSans-2e" d="M 684 794 
L 1344 794 
L 1344 0 
L 684 0 
L 684 794 
z
" transform="scale(0.015625)"/>
        <path id="DejaVuSans-35" d="M 691 4666 
L 3169 4666 
L 3169 4134 
L 1269 4134 
L 1269 2991 
Q 1406 3038 1543 3061 
Q 1681 3084 1819 3084 
Q 2600 3084 3056 2656 
Q 3513 2228 3513 1497 
Q 3513 744 3044 326 
Q 2575 -91 1722 -91 
Q 1428 -91 1123 -41 
Q 819 9 494 109 
L 494 744 
Q 775 591 1075 516 
Q 1375 441 1709 441 
Q 2250 441 2565 725 
Q 2881 1009 2881 1497 
Q 2881 1984 2565 2268 
Q 2250 2553 1709 2553 
Q 1456 2553 1204 2497 
Q 953 2441 691 2322 
L 691 4666 
z
" transform="scale(0.015625)"/>
       </defs>
       <use xlink:href="#DejaVuSans-30"/>
       <use xlink:href="#DejaVuSans-2e" transform="translate(63.623047 0)"/>
       <use xlink:href="#DejaVuSans-35" transform="translate(95.410156 0)"/>
      </g>
     </g>
    </g>
    <g id="xtick_3">
     <g id="line2d_3">
      <g>
       <use xlink:href="#m3ff4702208" x="237.806919" y="264.757688" style="stroke: #000000; stroke-width: 0.8"/>
      </g>
     </g>
     <g id="text_2">
      <!-- 1.0 -->
      <g transform="translate(229.855357 279.356125) scale(0.1 -0.1)">
       <defs>
        <path id="DejaVuSans-31" d="M 794 531 
L 1825 531 
L 1825 4091 
L 703 3866 
L 703 4441 
L 1819 4666 
L 2450 4666 
L 2450 531 
L 3481 531 
L 3481 0 
L 794 0 
L 794 531 
z
" transform="scale(0.015625)"/>
       </defs>
       <use xlink:href="#DejaVuSans-31"/>
       <use xlink:href="#DejaVuSans-2e" transform="translate(63.623047 0)"/>
       <use xlink:href="#DejaVuSans-30" transform="translate(95.410156 0)"/>
      </g>
     </g>
    </g>
    <g id="xtick_4">
     <g id="line2d_4">
      <g>
       <use xlink:href="#m3ff4702208" x="345.015131" y="264.757688" style="stroke: #000000; stroke-width: 0.8"/>
      </g>
     </g>
     <g id="text_3">
      <!-- 1.5 -->
      <g transform="translate(337.063569 279.356125) scale(0.1 -0.1)">
       <use xlink:href="#DejaVuSans-31"/>
       <use xlink:href="#DejaVuSans-2e" transform="translate(63.623047 0)"/>
       <use xlink:href="#DejaVuSans-35" transform="translate(95.410156 0)"/>
      </g>
     </g>
    </g>
    <g id="xtick_5">
     <g id="line2d_5">
      <g>
       <use xlink:href="#m3ff4702208" x="452.223343" y="264.757688" style="stroke: #000000; stroke-width: 0.8"/>
      </g>
     </g>
     <g id="text_4">
      <!-- 2.0 -->
      <g transform="translate(444.271781 279.356125) scale(0.1 -0.1)">
       <defs>
        <path id="DejaVuSans-32" d="M 1228 531 
L 3431 531 
L 3431 0 
L 469 0 
L 469 531 
Q 828 903 1448 1529 
Q 2069 2156 2228 2338 
Q 2531 2678 2651 2914 
Q 2772 3150 2772 3378 
Q 2772 3750 2511 3984 
Q 2250 4219 1831 4219 
Q 1534 4219 1204 4116 
Q 875 4013 500 3803 
L 500 4441 
Q 881 4594 1212 4672 
Q 1544 4750 1819 4750 
Q 2544 4750 2975 4387 
Q 3406 4025 3406 3419 
Q 3406 3131 3298 2873 
Q 3191 2616 2906 2266 
Q 2828 2175 2409 1742 
Q 1991 1309 1228 531 
z
" transform="scale(0.015625)"/>
       </defs>
       <use xlink:href="#DejaVuSans-32"/>
       <use xlink:href="#DejaVuSans-2e" transform="translate(63.623047 0)"/>
       <use xlink:href="#DejaVuSans-30" transform="translate(95.410156 0)"/>
      </g>
     </g>
    </g>
    <g id="xtick_6">
     <g id="line2d_6">
      <defs>
       <path id="m270506c375" d="M 0 0 
L 0 2 
" style="stroke: #000000; stroke-width: 0.6"/>
      </defs>
      <g>
       <use xlink:href="#m270506c375" x="44.832138" y="264.757688" style="stroke: #000000; stroke-width: 0.6"/>
      </g>
     </g>
    </g>
    <g id="xtick_7">
     <g id="line2d_7">
      <g>
       <use xlink:href="#m270506c375" x="66.27378" y="264.757688" style="stroke: #000000; stroke-width: 0.6"/>
      </g>
     </g>
    </g>
    <g id="xtick_8">
     <g id="line2d_8">
      <g>
       <use xlink:href="#m270506c375" x="87.715423" y="264.757688" style="stroke: #000000; stroke-width: 0.6"/>
      </g>
     </g>
    </g>
    <g id="xtick_9">
     <g id="line2d_9">
      <g>
       <use xlink:href="#m270506c375" x="109.157065" y="264.757688" style="stroke: #000000; stroke-width: 0.6"/>
      </g>
     </g>
    </g>
    <g id="xtick_10">
     <g id="line2d_10">
      <g>
       <use xlink:href="#m270506c375" x="152.04035" y="264.757688" style="stroke: #000000; stroke-width: 0.6"/>
      </g>
     </g>
    </g>
    <g id="xtick_11">
     <g id="line2d_11">
      <g>
       <use xlink:href="#m270506c375" x="173.481992" y="264.757688" style="stroke: #000000; stroke-width: 0.6"/>
      </g>
     </g>
    </g>
    <g id="xtick_12">
     <g id="line2d_12">
      <g>
       <use xlink:href="#m270506c375" x="194.923635" y="264.757688" style="stroke: #000000; stroke-width: 0.6"/>
      </g>
     </g>
    </g>
    <g id="xtick_13">
     <g id="line2d_13">
      <g>
       <use xlink:href="#m270506c375" x="216.365277" y="264.757688" style="stroke: #000000; stroke-width: 0.6"/>
      </g>
     </g>
    </g>
    <g id="xtick_14">
     <g id="line2d_14">
      <g>
       <use xlink:href="#m270506c375" x="259.248562" y="264.757688" style="stroke: #000000; stroke-width: 0.6"/>
      </g>
     </g>
    </g>
    <g id="xtick_15">
     <g id="line2d_15">
      <g>
       <use xlink:href="#m270506c375" x="280.690204" y="264.757688" style="stroke: #000000; stroke-width: 0.6"/>
      </g>
     </g>
    </g>
    <g id="xtick_16">
     <g id="line2d_16">
      <g>
       <use xlink:href="#m270506c375" x="302.131846" y="264.757688" style="stroke: #000000; stroke-width: 0.6"/>
      </g>
     </g>
    </g>
    <g id="xtick_17">
     <g id="line2d_17">
      <g>
       <use xlink:href="#m270506c375" x="323.573489" y="264.757688" style="stroke: #000000; stroke-width: 0.6"/>
      </g>
     </g>
    </g>
    <g id="xtick_18">
     <g id="line2d_18">
      <g>
       <use xlink:href="#m270506c375" x="366.456774" y="264.757688" style="stroke: #000000; stroke-width: 0.6"/>
      </g>
     </g>
    </g>
    <g id="xtick_19">
     <g id="line2d_19">
      <g>
       <use xlink:href="#m270506c375" x="387.898416" y="264.757688" style="stroke: #000000; stroke-width: 0.6"/>
      </g>
     </g>
    </g>
    <g id="xtick_20">
     <g id="line2d_20">
      <g>
       <use xlink:href="#m270506c375" x="409.340058" y="264.757688" style="stroke: #000000; stroke-width: 0.6"/>
      </g>
     </g>
    </g>
    <g id="xtick_21">
     <g id="line2d_21">
      <g>
       <use xlink:href="#m270506c375" x="430.781701" y="264.757688" style="stroke: #000000; stroke-width: 0.6"/>
      </g>
     </g>
    </g>
   </g>
   <g id="matplotlib.axis_2">
    <g id="ytick_1">
     <g id="line2d_22">
      <defs>
       <path id="m50e1b99ba2" d="M 0 0 
L -3.5 0 
" style="stroke: #000000; stroke-width: 0.8"/>
      </defs>
      <g>
       <use xlink:href="#m50e1b99ba2" x="23.390496" y="264.757688" style="stroke: #000000; stroke-width: 0.8"/>
      </g>
     </g>
    </g>
    <g id="ytick_2">
     <g id="line2d_23">
      <g>
       <use xlink:href="#m50e1b99ba2" x="23.390496" y="230.45106" style="stroke: #000000; stroke-width: 0.8"/>
      </g>
     </g>
     <g id="text_5">
      <!-- 0.2 -->
      <g transform="translate(0.487371 234.250278) scale(0.1 -0.1)">
       <use xlink:href="#DejaVuSans-30"/>
       <use xlink:href="#DejaVuSans-2e" transform="translate(63.623047 0)"/>
       <use xlink:href="#DejaVuSans-32" transform="translate(95.410156 0)"/>
      </g>
     </g>
    </g>
    <g id="ytick_3">
     <g id="line2d_24">
      <g>
       <use xlink:href="#m50e1b99ba2" x="23.390496" y="196.144432" style="stroke: #000000; stroke-width: 0.8"/>
      </g>
     </g>
     <g id="text_6">
      <!-- 0.4 -->
      <g transform="translate(0.487371 199.943651) scale(0.1 -0.1)">
       <defs>
        <path id="DejaVuSans-34" d="M 2419 4116 
L 825 1625 
L 2419 1625 
L 2419 4116 
z
M 2253 4666 
L 3047 4666 
L 3047 1625 
L 3713 1625 
L 3713 1100 
L 3047 1100 
L 3047 0 
L 2419 0 
L 2419 1100 
L 313 1100 
L 313 1709 
L 2253 4666 
z
" transform="scale(0.015625)"/>
       </defs>
       <use xlink:href="#DejaVuSans-30"/>
       <use xlink:href="#DejaVuSans-2e" transform="translate(63.623047 0)"/>
       <use xlink:href="#DejaVuSans-34" transform="translate(95.410156 0)"/>
      </g>
     </g>
    </g>
    <g id="ytick_4">
     <g id="line2d_25">
      <g>
       <use xlink:href="#m50e1b99ba2" x="23.390496" y="161.837804" style="stroke: #000000; stroke-width: 0.8"/>
      </g>
     </g>
     <g id="text_7">
      <!-- 0.6 -->
      <g transform="translate(0.487371 165.637023) scale(0.1 -0.1)">
       <defs>
        <path id="DejaVuSans-36" d="M 2113 2584 
Q 1688 2584 1439 2293 
Q 1191 2003 1191 1497 
Q 1191 994 1439 701 
Q 1688 409 2113 409 
Q 2538 409 2786 701 
Q 3034 994 3034 1497 
Q 3034 2003 2786 2293 
Q 2538 2584 2113 2584 
z
M 3366 4563 
L 3366 3988 
Q 3128 4100 2886 4159 
Q 2644 4219 2406 4219 
Q 1781 4219 1451 3797 
Q 1122 3375 1075 2522 
Q 1259 2794 1537 2939 
Q 1816 3084 2150 3084 
Q 2853 3084 3261 2657 
Q 3669 2231 3669 1497 
Q 3669 778 3244 343 
Q 2819 -91 2113 -91 
Q 1303 -91 875 529 
Q 447 1150 447 2328 
Q 447 3434 972 4092 
Q 1497 4750 2381 4750 
Q 2619 4750 2861 4703 
Q 3103 4656 3366 4563 
z
" transform="scale(0.015625)"/>
       </defs>
       <use xlink:href="#DejaVuSans-30"/>
       <use xlink:href="#DejaVuSans-2e" transform="translate(63.623047 0)"/>
       <use xlink:href="#DejaVuSans-36" transform="translate(95.410156 0)"/>
      </g>
     </g>
    </g>
    <g id="ytick_5">
     <g id="line2d_26">
      <g>
       <use xlink:href="#m50e1b99ba2" x="23.390496" y="127.531176" style="stroke: #000000; stroke-width: 0.8"/>
      </g>
     </g>
     <g id="text_8">
      <!-- 0.8 -->
      <g transform="translate(0.487371 131.330395) scale(0.1 -0.1)">
       <defs>
        <path id="DejaVuSans-38" d="M 2034 2216 
Q 1584 2216 1326 1975 
Q 1069 1734 1069 1313 
Q 1069 891 1326 650 
Q 1584 409 2034 409 
Q 2484 409 2743 651 
Q 3003 894 3003 1313 
Q 3003 1734 2745 1975 
Q 2488 2216 2034 2216 
z
M 1403 2484 
Q 997 2584 770 2862 
Q 544 3141 544 3541 
Q 544 4100 942 4425 
Q 1341 4750 2034 4750 
Q 2731 4750 3128 4425 
Q 3525 4100 3525 3541 
Q 3525 3141 3298 2862 
Q 3072 2584 2669 2484 
Q 3125 2378 3379 2068 
Q 3634 1759 3634 1313 
Q 3634 634 3220 271 
Q 2806 -91 2034 -91 
Q 1263 -91 848 271 
Q 434 634 434 1313 
Q 434 1759 690 2068 
Q 947 2378 1403 2484 
z
M 1172 3481 
Q 1172 3119 1398 2916 
Q 1625 2713 2034 2713 
Q 2441 2713 2670 2916 
Q 2900 3119 2900 3481 
Q 2900 3844 2670 4047 
Q 2441 4250 2034 4250 
Q 1625 4250 1398 4047 
Q 1172 3844 1172 3481 
z
" transform="scale(0.015625)"/>
       </defs>
       <use xlink:href="#DejaVuSans-30"/>
       <use xlink:href="#DejaVuSans-2e" transform="translate(63.623047 0)"/>
       <use xlink:href="#DejaVuSans-38" transform="translate(95.410156 0)"/>
      </g>
     </g>
    </g>
    <g id="ytick_6">
     <g id="line2d_27">
      <g>
       <use xlink:href="#m50e1b99ba2" x="23.390496" y="93.224549" style="stroke: #000000; stroke-width: 0.8"/>
      </g>
     </g>
     <g id="text_9">
      <!-- 1.0 -->
      <g transform="translate(0.487371 97.023767) scale(0.1 -0.1)">
       <use xlink:href="#DejaVuSans-31"/>
       <use xlink:href="#DejaVuSans-2e" transform="translate(63.623047 0)"/>
       <use xlink:href="#DejaVuSans-30" transform="translate(95.410156 0)"/>
      </g>
     </g>
    </g>
    <g id="ytick_7">
     <g id="line2d_28">
      <defs>
       <path id="m86f3fd2f90" d="M 0 0 
L -2 0 
" style="stroke: #000000; stroke-width: 0.6"/>
      </defs>
      <g>
       <use xlink:href="#m86f3fd2f90" x="23.390496" y="256.181031" style="stroke: #000000; stroke-width: 0.6"/>
      </g>
     </g>
    </g>
    <g id="ytick_8">
     <g id="line2d_29">
      <g>
       <use xlink:href="#m86f3fd2f90" x="23.390496" y="247.604374" style="stroke: #000000; stroke-width: 0.6"/>
      </g>
     </g>
    </g>
    <g id="ytick_9">
     <g id="line2d_30">
      <g>
       <use xlink:href="#m86f3fd2f90" x="23.390496" y="239.027717" style="stroke: #000000; stroke-width: 0.6"/>
      </g>
     </g>
    </g>
    <g id="ytick_10">
     <g id="line2d_31">
      <g>
       <use xlink:href="#m86f3fd2f90" x="23.390496" y="221.874403" style="stroke: #000000; stroke-width: 0.6"/>
      </g>
     </g>
    </g>
    <g id="ytick_11">
     <g id="line2d_32">
      <g>
       <use xlink:href="#m86f3fd2f90" x="23.390496" y="213.297746" style="stroke: #000000; stroke-width: 0.6"/>
      </g>
     </g>
    </g>
    <g id="ytick_12">
     <g id="line2d_33">
      <g>
       <use xlink:href="#m86f3fd2f90" x="23.390496" y="204.721089" style="stroke: #000000; stroke-width: 0.6"/>
      </g>
     </g>
    </g>
    <g id="ytick_13">
     <g id="line2d_34">
      <g>
       <use xlink:href="#m86f3fd2f90" x="23.390496" y="187.567775" style="stroke: #000000; stroke-width: 0.6"/>
      </g>
     </g>
    </g>
    <g id="ytick_14">
     <g id="line2d_35">
      <g>
       <use xlink:href="#m86f3fd2f90" x="23.390496" y="178.991118" style="stroke: #000000; stroke-width: 0.6"/>
      </g>
     </g>
    </g>
    <g id="ytick_15">
     <g id="line2d_36">
      <g>
       <use xlink:href="#m86f3fd2f90" x="23.390496" y="170.414461" style="stroke: #000000; stroke-width: 0.6"/>
      </g>
     </g>
    </g>
    <g id="ytick_16">
     <g id="line2d_37">
      <g>
       <use xlink:href="#m86f3fd2f90" x="23.390496" y="153.261147" style="stroke: #000000; stroke-width: 0.6"/>
      </g>
     </g>
    </g>
    <g id="ytick_17">
     <g id="line2d_38">
      <g>
       <use xlink:href="#m86f3fd2f90" x="23.390496" y="144.68449" style="stroke: #000000; stroke-width: 0.6"/>
      </g>
     </g>
    </g>
    <g id="ytick_18">
     <g id="line2d_39">
      <g>
       <use xlink:href="#m86f3fd2f90" x="23.390496" y="136.107833" style="stroke: #000000; stroke-width: 0.6"/>
      </g>
     </g>
    </g>
    <g id="ytick_19">
     <g id="line2d_40">
      <g>
       <use xlink:href="#m86f3fd2f90" x="23.390496" y="118.954519" style="stroke: #000000; stroke-width: 0.6"/>
      </g>
     </g>
    </g>
    <g id="ytick_20">
     <g id="line2d_41">
      <g>
       <use xlink:href="#m86f3fd2f90" x="23.390496" y="110.377862" style="stroke: #000000; stroke-width: 0.6"/>
      </g>
     </g>
    </g>
    <g id="ytick_21">
     <g id="line2d_42">
      <g>
       <use xlink:href="#m86f3fd2f90" x="23.390496" y="101.801206" style="stroke: #000000; stroke-width: 0.6"/>
      </g>
     </g>
    </g>
    <g id="ytick_22">
     <g id="line2d_43">
      <g>
       <use xlink:href="#m86f3fd2f90" x="23.390496" y="84.647892" style="stroke: #000000; stroke-width: 0.6"/>
      </g>
     </g>
    </g>
   </g>
   <g id="line2d_44">
    <path d="M 23.390496 264.757688 
L 39.986684 231.763573 
L 50.4117 211.566777 
L 59.798531 194.011091 
L 66.194491 182.494278 
L 73.749564 169.4449 
L 79.2586 160.355578 
L 83.34083 153.873225 
L 88.501809 146.006374 
L 93.534079 138.708428 
L 98.767966 131.528581 
L 104.282234 124.437024 
L 108.281951 119.607487 
L 112.276378 115.055107 
L 116.552749 110.487369 
L 120.052405 106.988456 
L 124.469783 102.883475 
L 128.465225 99.472869 
L 132.192217 96.552051 
L 135.344704 94.278589 
L 139.085626 91.815467 
L 142.887126 89.573169 
L 147.168715 87.361266 
L 151.035637 85.647307 
L 156.220893 83.7674 
L 160.398382 82.596899 
L 162.485635 82.125496 
L 166.708205 81.399512 
L 171.558847 80.934794 
L 176.289674 80.852174 
L 181.557404 81.177347 
L 185.642315 81.72197 
L 190.556238 82.702822 
L 195.292863 83.971387 
L 200.240593 85.619235 
L 203.937166 87.05545 
L 209.280143 89.424633 
L 212.481105 91.001604 
L 219.195139 94.666602 
L 225.421243 98.463321 
L 229.381279 101.059268 
L 236.974918 106.389137 
L 242.356353 110.414702 
L 250.666291 116.971445 
L 258.821166 123.731594 
L 268.021639 131.643243 
L 282.364912 144.327508 
L 304.823524 164.248918 
L 314.152176 172.300048 
L 324.008393 180.548519 
L 333.65842 188.304773 
L 342.526235 195.109807 
L 348.583262 199.563846 
L 356.763246 205.313788 
L 363.542563 209.839335 
L 369.845758 213.84699 
L 377.989479 218.735438 
L 385.242155 222.813143 
L 392.80466 226.789686 
L 400.250986 230.434241 
L 408.788438 234.289639 
L 417.445269 237.857759 
L 424.65802 240.578628 
L 431.24271 242.87103 
L 438.64499 245.239699 
L 445.44953 247.232103 
L 452.223343 249.048992 
L 452.223343 249.048992 
" clip-path="url(#pe941546bef)" style="fill: none; stroke: #0000cc; stroke-linecap: square"/>
   </g>
   <g id="line2d_45">
    <path d="M 23.390496 264.757688 
L 35.905469 239.897705 
L 43.042743 226.108036 
L 49.976505 213.195734 
L 55.958098 202.559595 
L 62.370165 191.784717 
L 68.116409 182.761104 
L 71.593491 177.620033 
L 74.599825 173.381196 
L 78.575095 168.083031 
L 82.762773 162.895025 
L 87.591645 157.432822 
L 91.482875 153.448683 
L 95.140603 150.050529 
L 98.512792 147.219354 
L 102.129094 144.507376 
L 106.302878 141.795673 
L 108.367584 140.619801 
L 111.771875 138.919225 
L 114.819388 137.646647 
L 118.562524 136.402631 
L 121.34847 135.701705 
L 124.28151 135.167565 
L 127.49905 134.81729 
L 129.855087 134.713824 
L 133.194159 134.783148 
L 137.097683 135.175379 
L 139.52917 135.583408 
L 144.079814 136.670178 
L 146.858036 137.531859 
L 150.486047 138.871423 
L 154.617643 140.676027 
L 157.617271 142.160823 
L 161.445049 144.254048 
L 167.2794 147.835009 
L 172.129829 151.130765 
L 177.82129 155.314178 
L 182.183472 158.71681 
L 188.707203 164.061837 
L 197.129623 171.294494 
L 210.850717 183.47126 
L 224.623361 195.627464 
L 233.886005 203.500052 
L 242.433021 210.422022 
L 251.25895 217.145341 
L 257.330805 221.489957 
L 262.181126 224.785592 
L 269.941586 229.723908 
L 274.647268 232.514291 
L 281.238956 236.162982 
L 287.846557 239.518703 
L 292.343801 241.63312 
L 300.062708 244.951887 
L 306.004696 247.249764 
L 313.567727 249.868902 
L 320.588436 252.012933 
L 326.634754 253.653461 
L 334.075161 255.431264 
L 340.163381 256.704448 
L 348.646476 258.233148 
L 356.60151 259.435617 
L 366.088036 260.616445 
L 373.725197 261.394845 
L 384.583581 262.28029 
L 395.266981 262.943459 
L 408.750999 263.55195 
L 424.788641 264.032291 
L 443.218104 264.364923 
L 452.223343 264.469973 
L 452.223343 264.469973 
" clip-path="url(#pe941546bef)" style="fill: none; stroke: #3ccc00; stroke-linecap: square"/>
   </g>
   <g id="line2d_46">
    <path d="M 23.390496 264.757688 
L 35.552569 240.66719 
L 41.67632 228.975352 
L 47.776086 217.842755 
L 52.544374 209.595769 
L 57.288753 201.858812 
L 61.572349 195.323652 
L 63.964847 191.874531 
L 68.745928 185.441459 
L 72.459383 180.888577 
L 76.432368 176.4664 
L 79.769181 173.121543 
L 83.075657 170.146461 
L 85.657818 168.060818 
L 89.067766 165.628097 
L 92.060801 163.794802 
L 94.914973 162.308676 
L 98.282091 160.88177 
L 101.045498 159.971309 
L 103.627778 159.329428 
L 106.388154 158.862248 
L 109.083483 158.619549 
L 111.604491 158.578567 
L 114.321063 158.72984 
L 116.643555 159.014947 
L 119.178152 159.484334 
L 121.804285 160.138379 
L 124.771176 161.073522 
L 128.241144 162.417012 
L 132.76708 164.544631 
L 136.642352 166.674256 
L 140.058062 168.763594 
L 144.212175 171.543745 
L 149.167283 175.157676 
L 155.472561 180.13724 
L 160.637862 184.458577 
L 166.948826 189.93842 
L 191.684009 211.736306 
L 198.403044 217.32443 
L 203.66833 221.512123 
L 210.283719 226.496613 
L 215.413702 230.129452 
L 221.05027 233.872636 
L 227.6542 237.916551 
L 234.647001 241.792202 
L 241.429175 245.156265 
L 247.25995 247.746764 
L 252.20968 249.73575 
L 257.337449 251.602323 
L 262.520274 253.299004 
L 269.925937 255.415402 
L 276.076203 256.920811 
L 283.58169 258.48049 
L 291.93573 259.901299 
L 300.395358 261.050939 
L 310.687836 262.125962 
L 318.039313 262.716074 
L 330.290133 263.443009 
L 343.512775 263.95936 
L 358.827103 264.323213 
L 380.28226 264.582325 
L 413.786241 264.720244 
L 452.223343 264.752418 
L 452.223343 264.752418 
" clip-path="url(#pe941546bef)" style="fill: none; stroke: #cc0077; stroke-linecap: square"/>
   </g>
   <g id="line2d_47">
    <path d="M 23.390496 264.757688 
L 33.122078 245.454235 
L 40.372442 231.635382 
L 45.350477 222.642365 
L 50.427175 214.016266 
L 54.736446 207.202518 
L 58.783492 201.280971 
L 61.110275 198.101842 
L 65.092106 193.065397 
L 67.991847 189.731734 
L 71.299433 186.285069 
L 74.461273 183.353131 
L 77.289444 181.035804 
L 80.516692 178.746459 
L 83.584789 176.921363 
L 87.04558 175.271435 
L 89.820742 174.257782 
L 92.96411 173.436188 
L 95.532618 173.016694 
L 98.242641 172.813026 
L 100.783113 172.838269 
L 103.348391 173.068749 
L 105.637702 173.441986 
L 108.232998 174.048332 
L 111.496545 175.073251 
L 114.300679 176.173545 
L 118.230675 178.031096 
L 123.135729 180.814131 
L 127.979254 184.000019 
L 131.620001 186.636764 
L 136.420493 190.373419 
L 141.69747 194.746027 
L 151.048443 202.913313 
L 167.807806 217.705939 
L 174.691173 223.464051 
L 182.132691 229.312628 
L 189.393094 234.565973 
L 195.714705 238.737878 
L 200.160828 241.438187 
L 203.774376 243.488959 
L 209.87909 246.662248 
L 215.951854 249.46416 
L 220.735117 251.431911 
L 226.151357 253.418889 
L 232.261501 255.372889 
L 238.026776 256.959551 
L 242.505947 258.03491 
L 250.125286 259.581232 
L 255.134323 260.425112 
L 263.421964 261.564184 
L 271.100145 262.378461 
L 281.091808 263.16256 
L 293.132087 263.796815 
L 305.58009 264.204778 
L 321.95503 264.501937 
L 343.98674 264.673878 
L 389.707319 264.751457 
L 452.223343 264.757591 
L 452.223343 264.757591 
" clip-path="url(#pe941546bef)" style="fill: none; stroke: #00b3cc; stroke-linecap: square"/>
   </g>
   <g id="line2d_48">
    <path d="M 23.390496 264.757688 
L 32.245246 247.198558 
L 38.743039 234.829689 
L 43.250703 226.705111 
L 47.905441 218.829935 
L 51.620842 212.984562 
L 56.05147 206.590953 
L 59.23357 202.419408 
L 63.069133 197.888718 
L 65.395049 195.416593 
L 67.353204 193.50064 
L 70.162801 191.019695 
L 72.442893 189.24098 
L 74.621559 187.738898 
L 77.993397 185.794624 
L 80.400183 184.68783 
L 83.02764 183.74346 
L 85.064493 183.197952 
L 87.226131 182.79381 
L 89.396237 182.565143 
L 91.332802 182.5071 
L 94.963637 182.755966 
L 98.051924 183.31756 
L 100.974823 184.127463 
L 103.29982 184.953404 
L 106.3981 186.287337 
L 109.665601 187.960097 
L 113.079204 189.970213 
L 117.37521 192.832802 
L 121.988256 196.251736 
L 125.972397 199.433495 
L 134.21969 206.476849 
L 154.102679 223.98663 
L 161.258545 229.865932 
L 165.357992 233.042689 
L 170.11806 236.529655 
L 176.536324 240.859343 
L 182.664114 244.574803 
L 187.960573 247.452496 
L 193.329872 250.058725 
L 199.102154 252.524046 
L 203.402556 254.145545 
L 207.867311 255.646399 
L 212.370178 256.984015 
L 219.012246 258.662721 
L 225.878786 260.071299 
L 230.467753 260.85109 
L 238.209562 261.916713 
L 244.950285 262.629786 
L 253.103711 263.279058 
L 263.990738 263.870275 
L 275.061052 264.244512 
L 290.839844 264.533923 
L 313.825001 264.69744 
L 360.957531 264.754887 
L 452.223343 264.757686 
L 452.223343 264.757686 
" clip-path="url(#pe941546bef)" style="fill: none; stroke: #ccaa00; stroke-linecap: square"/>
   </g>
   <g id="patch_3">
    <path d="M 23.390496 268.435995 
L 23.390496 77.164005 
" style="fill: none; stroke: #000000; stroke-width: 0.8; stroke-linejoin: miter; stroke-linecap: square"/>
   </g>
   <g id="patch_4">
    <path d="M 14.813839 264.757688 
L 460.8 264.757688 
" style="fill: none; stroke: #000000; stroke-width: 0.8; stroke-linejoin: miter; stroke-linecap: square"/>
   </g>
  </g>
 </g>
 <defs>
  <clipPath id="pe941546bef">
   <rect x="14.813839" y="77.164005" width="445.986161" height="191.27199"/>
  </clipPath>
 </defs>
</svg>
