<?xml version="1.0" encoding="utf-8" standalone="no"?>
<!DOCTYPE svg PUBLIC "-//W3C//DTD SVG 1.1//EN"
  "http://www.w3.org/Graphics/SVG/1.1/DTD/svg11.dtd">
<svg xmlns:xlink="http://www.w3.org/1999/xlink" width="460.8pt" height="345.6pt" viewBox="0 0 460.8 345.6" xmlns="http://www.w3.org/2000/svg" version="1.1">
 <metadata>
  <rdf:RDF xmlns:dc="http://purl.org/dc/elements/1.1/" xmlns:cc="http://creativecommons.org/ns#" xmlns:rdf="http://www.w3.org/1999/02/22-rdf-syntax-ns#">
   <cc:Work>
    <dc:type rdf:resource="http://purl.org/dc/dcmitype/StillImage"/>
    <dc:date>2025-08-02T16:01:30.223050</dc:date>
    <dc:format>image/svg+xml</dc:format>
    <dc:creator>
     <cc:Agent>
      <dc:title>Matplotlib v3.10.3, https://matplotlib.org/</dc:title>
     </cc:Agent>
    </dc:creator>
   </cc:Work>
  </rdf:RDF>
 </metadata>
 <defs>
  <style type="text/css">*{stroke-linejoin: round; stroke-linecap: butt}</style>
 </defs>
 <g id="figure_1">
  <g id="patch_1">
   <path d="M 0 345.6 
L 460.8 345.6 
L 460.8 0 
L 0 0 
z
" style="fill: #ffffff"/>
  </g>
  <g id="axes_1">
   <g id="patch_2">
    <path d="M 3.858403 287.032905 
L 460.8 287.032905 
L 460.8 58.567095 
L 3.858403 58.567095 
z
" style="fill: #ffffff"/>
   </g>
   <g id="matplotlib.axis_1">
    <g id="xtick_1">
     <g id="line2d_1">
      <defs>
       <path id="mc4cc171824" d="M 0 0 
L 0 3.5 
" style="stroke: #000000; stroke-width: 0.8"/>
      </defs>
      <g>
       <use xlink:href="#mc4cc171824" x="12.612617" y="172.799362" style="stroke: #000000; stroke-width: 0.8"/>
      </g>
     </g>
     <g id="text_1">
      <!-- −1.0 -->
      <g transform="translate(0.471211 187.397799) scale(0.1 -0.1)">
       <defs>
        <path id="DejaVuSans-2212" d="M 678 2272 
L 4684 2272 
L 4684 1741 
L 678 1741 
L 678 2272 
z
" transform="scale(0.015625)"/>
        <path id="DejaVuSans-31" d="M 794 531 
L 1825 531 
L 1825 4091 
L 703 3866 
L 703 4441 
L 1819 4666 
L 2450 4666 
L 2450 531 
L 3481 531 
L 3481 0 
L 794 0 
L 794 531 
z
" transform="scale(0.015625)"/>
        <path id="DejaVuSans-2e" d="M 684 794 
L 1344 794 
L 1344 0 
L 684 0 
L 684 794 
z
" transform="scale(0.015625)"/>
        <path id="DejaVuSans-30" d="M 2034 4250 
Q 1547 4250 1301 3770 
Q 1056 3291 1056 2328 
Q 1056 1369 1301 889 
Q 1547 409 2034 409 
Q 2525 409 2770 889 
Q 3016 1369 3016 2328 
Q 3016 3291 2770 3770 
Q 2525 4250 2034 4250 
z
M 2034 4750 
Q 2819 4750 3233 4129 
Q 3647 3509 3647 2328 
Q 3647 1150 3233 529 
Q 2819 -91 2034 -91 
Q 1250 -91 836 529 
Q 422 1150 422 2328 
Q 422 3509 836 4129 
Q 1250 4750 2034 4750 
z
" transform="scale(0.015625)"/>
       </defs>
       <use xlink:href="#DejaVuSans-2212"/>
       <use xlink:href="#DejaVuSans-31" transform="translate(83.789062 0)"/>
       <use xlink:href="#DejaVuSans-2e" transform="translate(147.412109 0)"/>
       <use xlink:href="#DejaVuSans-30" transform="translate(179.199219 0)"/>
      </g>
     </g>
    </g>
    <g id="xtick_2">
     <g id="line2d_2">
      <g>
       <use xlink:href="#mc4cc171824" x="122.462628" y="172.799362" style="stroke: #000000; stroke-width: 0.8"/>
      </g>
     </g>
     <g id="text_2">
      <!-- −0.5 -->
      <g transform="translate(110.321222 187.397799) scale(0.1 -0.1)">
       <defs>
        <path id="DejaVuSans-35" d="M 691 4666 
L 3169 4666 
L 3169 4134 
L 1269 4134 
L 1269 2991 
Q 1406 3038 1543 3061 
Q 1681 3084 1819 3084 
Q 2600 3084 3056 2656 
Q 3513 2228 3513 1497 
Q 3513 744 3044 326 
Q 2575 -91 1722 -91 
Q 1428 -91 1123 -41 
Q 819 9 494 109 
L 494 744 
Q 775 591 1075 516 
Q 1375 441 1709 441 
Q 2250 441 2565 725 
Q 2881 1009 2881 1497 
Q 2881 1984 2565 2268 
Q 2250 2553 1709 2553 
Q 1456 2553 1204 2497 
Q 953 2441 691 2322 
L 691 4666 
z
" transform="scale(0.015625)"/>
       </defs>
       <use xlink:href="#DejaVuSans-2212"/>
       <use xlink:href="#DejaVuSans-30" transform="translate(83.789062 0)"/>
       <use xlink:href="#DejaVuSans-2e" transform="translate(147.412109 0)"/>
       <use xlink:href="#DejaVuSans-35" transform="translate(179.199219 0)"/>
      </g>
     </g>
    </g>
    <g id="xtick_3">
     <g id="line2d_3">
      <g>
       <use xlink:href="#mc4cc171824" x="232.312639" y="172.799362" style="stroke: #000000; stroke-width: 0.8"/>
      </g>
     </g>
    </g>
    <g id="xtick_4">
     <g id="line2d_4">
      <g>
       <use xlink:href="#mc4cc171824" x="342.16265" y="172.799362" style="stroke: #000000; stroke-width: 0.8"/>
      </g>
     </g>
     <g id="text_3">
      <!-- 0.5 -->
      <g transform="translate(334.211088 187.397799) scale(0.1 -0.1)">
       <use xlink:href="#DejaVuSans-30"/>
       <use xlink:href="#DejaVuSans-2e" transform="translate(63.623047 0)"/>
       <use xlink:href="#DejaVuSans-35" transform="translate(95.410156 0)"/>
      </g>
     </g>
    </g>
    <g id="xtick_5">
     <g id="line2d_5">
      <g>
       <use xlink:href="#mc4cc171824" x="452.012662" y="172.799362" style="stroke: #000000; stroke-width: 0.8"/>
      </g>
     </g>
     <g id="text_4">
      <!-- 1.0 -->
      <g transform="translate(444.061099 187.397799) scale(0.1 -0.1)">
       <use xlink:href="#DejaVuSans-31"/>
       <use xlink:href="#DejaVuSans-2e" transform="translate(63.623047 0)"/>
       <use xlink:href="#DejaVuSans-30" transform="translate(95.410156 0)"/>
      </g>
     </g>
    </g>
    <g id="xtick_6">
     <g id="line2d_6">
      <defs>
       <path id="m58f7cc40a7" d="M 0 0 
L 0 2 
" style="stroke: #000000; stroke-width: 0.6"/>
      </defs>
      <g>
       <use xlink:href="#m58f7cc40a7" x="34.582619" y="172.799362" style="stroke: #000000; stroke-width: 0.6"/>
      </g>
     </g>
    </g>
    <g id="xtick_7">
     <g id="line2d_7">
      <g>
       <use xlink:href="#m58f7cc40a7" x="56.552621" y="172.799362" style="stroke: #000000; stroke-width: 0.6"/>
      </g>
     </g>
    </g>
    <g id="xtick_8">
     <g id="line2d_8">
      <g>
       <use xlink:href="#m58f7cc40a7" x="78.522624" y="172.799362" style="stroke: #000000; stroke-width: 0.6"/>
      </g>
     </g>
    </g>
    <g id="xtick_9">
     <g id="line2d_9">
      <g>
       <use xlink:href="#m58f7cc40a7" x="100.492626" y="172.799362" style="stroke: #000000; stroke-width: 0.6"/>
      </g>
     </g>
    </g>
    <g id="xtick_10">
     <g id="line2d_10">
      <g>
       <use xlink:href="#m58f7cc40a7" x="144.43263" y="172.799362" style="stroke: #000000; stroke-width: 0.6"/>
      </g>
     </g>
    </g>
    <g id="xtick_11">
     <g id="line2d_11">
      <g>
       <use xlink:href="#m58f7cc40a7" x="166.402633" y="172.799362" style="stroke: #000000; stroke-width: 0.6"/>
      </g>
     </g>
    </g>
    <g id="xtick_12">
     <g id="line2d_12">
      <g>
       <use xlink:href="#m58f7cc40a7" x="188.372635" y="172.799362" style="stroke: #000000; stroke-width: 0.6"/>
      </g>
     </g>
    </g>
    <g id="xtick_13">
     <g id="line2d_13">
      <g>
       <use xlink:href="#m58f7cc40a7" x="210.342637" y="172.799362" style="stroke: #000000; stroke-width: 0.6"/>
      </g>
     </g>
    </g>
    <g id="xtick_14">
     <g id="line2d_14">
      <g>
       <use xlink:href="#m58f7cc40a7" x="254.282641" y="172.799362" style="stroke: #000000; stroke-width: 0.6"/>
      </g>
     </g>
    </g>
    <g id="xtick_15">
     <g id="line2d_15">
      <g>
       <use xlink:href="#m58f7cc40a7" x="276.252644" y="172.799362" style="stroke: #000000; stroke-width: 0.6"/>
      </g>
     </g>
    </g>
    <g id="xtick_16">
     <g id="line2d_16">
      <g>
       <use xlink:href="#m58f7cc40a7" x="298.222646" y="172.799362" style="stroke: #000000; stroke-width: 0.6"/>
      </g>
     </g>
    </g>
    <g id="xtick_17">
     <g id="line2d_17">
      <g>
       <use xlink:href="#m58f7cc40a7" x="320.192648" y="172.799362" style="stroke: #000000; stroke-width: 0.6"/>
      </g>
     </g>
    </g>
    <g id="xtick_18">
     <g id="line2d_18">
      <g>
       <use xlink:href="#m58f7cc40a7" x="364.132653" y="172.799362" style="stroke: #000000; stroke-width: 0.6"/>
      </g>
     </g>
    </g>
    <g id="xtick_19">
     <g id="line2d_19">
      <g>
       <use xlink:href="#m58f7cc40a7" x="386.102655" y="172.799362" style="stroke: #000000; stroke-width: 0.6"/>
      </g>
     </g>
    </g>
    <g id="xtick_20">
     <g id="line2d_20">
      <g>
       <use xlink:href="#m58f7cc40a7" x="408.072657" y="172.799362" style="stroke: #000000; stroke-width: 0.6"/>
      </g>
     </g>
    </g>
    <g id="xtick_21">
     <g id="line2d_21">
      <g>
       <use xlink:href="#m58f7cc40a7" x="430.042659" y="172.799362" style="stroke: #000000; stroke-width: 0.6"/>
      </g>
     </g>
    </g>
   </g>
   <g id="matplotlib.axis_2">
    <g id="ytick_1">
     <g id="line2d_22">
      <defs>
       <path id="mc644d21aeb" d="M 0 0 
L -3.5 0 
" style="stroke: #000000; stroke-width: 0.8"/>
      </defs>
      <g>
       <use xlink:href="#mc644d21aeb" x="232.312639" y="260.679371" style="stroke: #000000; stroke-width: 0.8"/>
      </g>
     </g>
     <g id="text_5">
      <!-- −0.4 -->
      <g transform="translate(201.029827 264.478589) scale(0.1 -0.1)">
       <defs>
        <path id="DejaVuSans-34" d="M 2419 4116 
L 825 1625 
L 2419 1625 
L 2419 4116 
z
M 2253 4666 
L 3047 4666 
L 3047 1625 
L 3713 1625 
L 3713 1100 
L 3047 1100 
L 3047 0 
L 2419 0 
L 2419 1100 
L 313 1100 
L 313 1709 
L 2253 4666 
z
" transform="scale(0.015625)"/>
       </defs>
       <use xlink:href="#DejaVuSans-2212"/>
       <use xlink:href="#DejaVuSans-30" transform="translate(83.789062 0)"/>
       <use xlink:href="#DejaVuSans-2e" transform="translate(147.412109 0)"/>
       <use xlink:href="#DejaVuSans-34" transform="translate(179.199219 0)"/>
      </g>
     </g>
    </g>
    <g id="ytick_2">
     <g id="line2d_23">
      <g>
       <use xlink:href="#mc644d21aeb" x="232.312639" y="216.739366" style="stroke: #000000; stroke-width: 0.8"/>
      </g>
     </g>
     <g id="text_6">
      <!-- −0.2 -->
      <g transform="translate(201.029827 220.538585) scale(0.1 -0.1)">
       <defs>
        <path id="DejaVuSans-32" d="M 1228 531 
L 3431 531 
L 3431 0 
L 469 0 
L 469 531 
Q 828 903 1448 1529 
Q 2069 2156 2228 2338 
Q 2531 2678 2651 2914 
Q 2772 3150 2772 3378 
Q 2772 3750 2511 3984 
Q 2250 4219 1831 4219 
Q 1534 4219 1204 4116 
Q 875 4013 500 3803 
L 500 4441 
Q 881 4594 1212 4672 
Q 1544 4750 1819 4750 
Q 2544 4750 2975 4387 
Q 3406 4025 3406 3419 
Q 3406 3131 3298 2873 
Q 3191 2616 2906 2266 
Q 2828 2175 2409 1742 
Q 1991 1309 1228 531 
z
" transform="scale(0.015625)"/>
       </defs>
       <use xlink:href="#DejaVuSans-2212"/>
       <use xlink:href="#DejaVuSans-30" transform="translate(83.789062 0)"/>
       <use xlink:href="#DejaVuSans-2e" transform="translate(147.412109 0)"/>
       <use xlink:href="#DejaVuSans-32" transform="translate(179.199219 0)"/>
      </g>
     </g>
    </g>
    <g id="ytick_3">
     <g id="line2d_24">
      <g>
       <use xlink:href="#mc644d21aeb" x="232.312639" y="172.799362" style="stroke: #000000; stroke-width: 0.8"/>
      </g>
     </g>
    </g>
    <g id="ytick_4">
     <g id="line2d_25">
      <g>
       <use xlink:href="#mc644d21aeb" x="232.312639" y="128.859357" style="stroke: #000000; stroke-width: 0.8"/>
      </g>
     </g>
     <g id="text_7">
      <!-- 0.2 -->
      <g transform="translate(209.409514 132.658576) scale(0.1 -0.1)">
       <use xlink:href="#DejaVuSans-30"/>
       <use xlink:href="#DejaVuSans-2e" transform="translate(63.623047 0)"/>
       <use xlink:href="#DejaVuSans-32" transform="translate(95.410156 0)"/>
      </g>
     </g>
    </g>
    <g id="ytick_5">
     <g id="line2d_26">
      <g>
       <use xlink:href="#mc644d21aeb" x="232.312639" y="84.919353" style="stroke: #000000; stroke-width: 0.8"/>
      </g>
     </g>
     <g id="text_8">
      <!-- 0.4 -->
      <g transform="translate(209.409514 88.718571) scale(0.1 -0.1)">
       <use xlink:href="#DejaVuSans-30"/>
       <use xlink:href="#DejaVuSans-2e" transform="translate(63.623047 0)"/>
       <use xlink:href="#DejaVuSans-34" transform="translate(95.410156 0)"/>
      </g>
     </g>
    </g>
    <g id="ytick_6">
     <g id="line2d_27">
      <defs>
       <path id="m4d54abcfc5" d="M 0 0 
L -2 0 
" style="stroke: #000000; stroke-width: 0.6"/>
      </defs>
      <g>
       <use xlink:href="#m4d54abcfc5" x="232.312639" y="282.649373" style="stroke: #000000; stroke-width: 0.6"/>
      </g>
     </g>
    </g>
    <g id="ytick_7">
     <g id="line2d_28">
      <g>
       <use xlink:href="#m4d54abcfc5" x="232.312639" y="271.664372" style="stroke: #000000; stroke-width: 0.6"/>
      </g>
     </g>
    </g>
    <g id="ytick_8">
     <g id="line2d_29">
      <g>
       <use xlink:href="#m4d54abcfc5" x="232.312639" y="249.69437" style="stroke: #000000; stroke-width: 0.6"/>
      </g>
     </g>
    </g>
    <g id="ytick_9">
     <g id="line2d_30">
      <g>
       <use xlink:href="#m4d54abcfc5" x="232.312639" y="238.709368" style="stroke: #000000; stroke-width: 0.6"/>
      </g>
     </g>
    </g>
    <g id="ytick_10">
     <g id="line2d_31">
      <g>
       <use xlink:href="#m4d54abcfc5" x="232.312639" y="227.724367" style="stroke: #000000; stroke-width: 0.6"/>
      </g>
     </g>
    </g>
    <g id="ytick_11">
     <g id="line2d_32">
      <g>
       <use xlink:href="#m4d54abcfc5" x="232.312639" y="205.754365" style="stroke: #000000; stroke-width: 0.6"/>
      </g>
     </g>
    </g>
    <g id="ytick_12">
     <g id="line2d_33">
      <g>
       <use xlink:href="#m4d54abcfc5" x="232.312639" y="194.769364" style="stroke: #000000; stroke-width: 0.6"/>
      </g>
     </g>
    </g>
    <g id="ytick_13">
     <g id="line2d_34">
      <g>
       <use xlink:href="#m4d54abcfc5" x="232.312639" y="183.784363" style="stroke: #000000; stroke-width: 0.6"/>
      </g>
     </g>
    </g>
    <g id="ytick_14">
     <g id="line2d_35">
      <g>
       <use xlink:href="#m4d54abcfc5" x="232.312639" y="161.814361" style="stroke: #000000; stroke-width: 0.6"/>
      </g>
     </g>
    </g>
    <g id="ytick_15">
     <g id="line2d_36">
      <g>
       <use xlink:href="#m4d54abcfc5" x="232.312639" y="150.829359" style="stroke: #000000; stroke-width: 0.6"/>
      </g>
     </g>
    </g>
    <g id="ytick_16">
     <g id="line2d_37">
      <g>
       <use xlink:href="#m4d54abcfc5" x="232.312639" y="139.844358" style="stroke: #000000; stroke-width: 0.6"/>
      </g>
     </g>
    </g>
    <g id="ytick_17">
     <g id="line2d_38">
      <g>
       <use xlink:href="#m4d54abcfc5" x="232.312639" y="117.874356" style="stroke: #000000; stroke-width: 0.6"/>
      </g>
     </g>
    </g>
    <g id="ytick_18">
     <g id="line2d_39">
      <g>
       <use xlink:href="#m4d54abcfc5" x="232.312639" y="106.889355" style="stroke: #000000; stroke-width: 0.6"/>
      </g>
     </g>
    </g>
    <g id="ytick_19">
     <g id="line2d_40">
      <g>
       <use xlink:href="#m4d54abcfc5" x="232.312639" y="95.904354" style="stroke: #000000; stroke-width: 0.6"/>
      </g>
     </g>
    </g>
    <g id="ytick_20">
     <g id="line2d_41">
      <g>
       <use xlink:href="#m4d54abcfc5" x="232.312639" y="73.934352" style="stroke: #000000; stroke-width: 0.6"/>
      </g>
     </g>
    </g>
    <g id="ytick_21">
     <g id="line2d_42">
      <g>
       <use xlink:href="#m4d54abcfc5" x="232.312639" y="62.94935" style="stroke: #000000; stroke-width: 0.6"/>
      </g>
     </g>
    </g>
   </g>
   <g id="line2d_43">
    <path d="M 452.012662 172.799362 
L 451.528714 162.499401 
L 451.130933 158.909133 
L 450.211281 152.987284 
L 448.839524 146.587348 
L 446.225741 137.615585 
L 443.886346 131.334743 
L 442.455021 127.983456 
L 439.600912 122.076485 
L 436.375209 116.310259 
L 432.971361 110.986717 
L 429.267053 105.867695 
L 426.071047 101.902211 
L 423.692658 99.179508 
L 416.553781 91.972481 
L 411.062142 87.243035 
L 408.017211 84.877796 
L 403.04954 81.367356 
L 397.895172 78.137273 
L 393.29144 75.573481 
L 386.656328 72.363623 
L 376.745644 68.535075 
L 368.631717 66.185978 
L 361.07021 64.588784 
L 355.357028 63.744635 
L 349.384278 63.186985 
L 339.26426 62.987594 
L 336.893159 63.075812 
L 326.873178 64.018587 
L 323.829593 64.489972 
L 315.735593 66.175558 
L 304.13967 69.739777 
L 301.84038 70.617468 
L 293.236407 74.446692 
L 289.330798 76.488301 
L 280.265277 82.048383 
L 275.485422 85.500036 
L 272.001127 88.274894 
L 267.368613 92.34517 
L 260.439645 99.393808 
L 256.772819 103.693634 
L 250.82638 111.768954 
L 249.659987 113.551726 
L 245.697616 120.249175 
L 240.971001 130.052723 
L 238.903574 135.321526 
L 237.70587 138.802216 
L 234.799417 149.557998 
L 234.204983 152.497463 
L 233.410763 157.305751 
L 232.471921 166.885913 
L 232.31274 172.650586 
L 232.290084 170.573423 
L 232.201571 167.860802 
L 231.554881 159.918941 
L 230.413135 152.459426 
L 228.392124 143.713853 
L 226.992135 139.026488 
L 224.486741 132.079522 
L 222.121763 126.592417 
L 216.46123 115.954944 
L 215.049104 113.682787 
L 208.78488 104.861936 
L 204.115961 99.316315 
L 201.177133 96.176573 
L 194.130994 89.548714 
L 191.644984 87.471602 
L 182.512933 80.815744 
L 179.675134 79.024343 
L 176.315437 77.055433 
L 165.435085 71.703403 
L 162.972464 70.691682 
L 153.095784 67.307017 
L 145.693092 65.433769 
L 139.787337 64.324114 
L 130.479711 63.242293 
L 124.039463 62.960668 
L 119.140204 62.999606 
L 112.282546 63.422075 
L 107.217643 64.012343 
L 97.492158 65.825063 
L 91.87318 67.294335 
L 87.544897 68.6467 
L 76.471518 73.040439 
L 70.321725 76.11249 
L 64.069616 79.75485 
L 55.099362 86.02831 
L 48.162201 91.889094 
L 43.246046 96.695761 
L 40.749852 99.382421 
L 34.049365 107.606418 
L 32.810207 109.321268 
L 29.794839 113.810331 
L 26.226926 119.830365 
L 23.231406 125.680475 
L 20.591109 131.699258 
L 17.655082 139.899464 
L 15.663523 147.089904 
L 14.347176 153.355236 
L 13.077167 162.707487 
L 12.731589 167.688194 
L 12.645741 175.496828 
L 12.967721 181.624903 
L 13.788621 188.830121 
L 15.033431 195.73389 
L 17.242687 204.355487 
L 19.169447 210.183098 
L 20.930752 214.731486 
L 24.697521 222.889368 
L 28.317515 229.400799 
L 30.110482 232.281344 
L 34.740923 238.919914 
L 38.338554 243.440463 
L 42.168879 247.765613 
L 44.428642 250.115091 
L 52.336902 257.353531 
L 55.746657 260.069083 
L 61.193398 263.9756 
L 65.889055 266.961221 
L 71.005575 269.851907 
L 80.15163 274.173936 
L 86.592221 276.627772 
L 95.745352 279.350815 
L 102.047763 280.735724 
L 108.981447 281.819005 
L 112.861515 282.22899 
L 118.549161 282.579641 
L 127.962069 282.511627 
L 136.24422 281.781437 
L 145.20294 280.269837 
L 155.731819 277.490268 
L 158.808094 276.462432 
L 165.168665 274.008152 
L 172.04413 270.823337 
L 182.123291 265.036178 
L 186.346802 262.162874 
L 191.856494 257.955197 
L 196.446568 253.999125 
L 202.493136 248.046573 
L 208.161954 241.520905 
L 215.279196 231.554019 
L 218.33633 226.420796 
L 222.168414 218.905556 
L 225.20137 211.680922 
L 228.309974 202.182425 
L 230.417313 193.117109 
L 231.494579 186.180639 
L 231.890072 182.425335 
L 232.305331 174.066503 
L 232.312714 172.927387 
L 232.3232 174.322532 
L 232.543896 179.923513 
L 232.835955 183.509106 
L 234.157075 192.844826 
L 235.651014 199.67493 
L 237.737167 206.892519 
L 239.81719 212.704647 
L 241.176663 216.02962 
L 245.956384 225.821804 
L 247.02937 227.723709 
L 253.851493 238.130552 
L 254.946658 239.585556 
L 261.560275 247.433684 
L 268.563514 254.348071 
L 270.937916 256.429872 
L 274.76137 259.540888 
L 279.731749 263.184136 
L 288.724138 268.775142 
L 295.668778 272.32496 
L 303.151715 275.489049 
L 305.988669 276.522397 
L 315.224842 279.295275 
L 323.562473 281.063198 
L 328.263676 281.766529 
L 331.401613 282.12102 
L 343.647897 282.639332 
L 347.008762 282.542426 
L 353.95773 282.014292 
L 362.024272 280.838896 
L 369.626524 279.160824 
L 376.132176 277.265128 
L 379.032613 276.277044 
L 389.769625 271.797346 
L 396.341202 268.35934 
L 398.86721 266.882399 
L 407.914434 260.797816 
L 410.985189 258.417602 
L 414.530844 255.442386 
L 419.731643 250.581599 
L 424.449405 245.572399 
L 428.853583 240.265702 
L 435.210334 231.187318 
L 438.186956 226.15063 
L 441.918457 218.797231 
L 444.231499 213.406937 
L 445.996552 208.653872 
L 448.457748 200.518978 
L 450.320274 192.007524 
L 451.159966 186.459898 
L 451.919936 177.311933 
L 452.012662 172.799362 
L 452.012662 172.799362 
" clip-path="url(#pd13b703c7a)" style="fill: none; stroke: #ff0000; stroke-linecap: square"/>
   </g>
   <g id="patch_3">
    <path d="M 232.312639 287.032905 
L 232.312639 58.567095 
" style="fill: none; stroke: #000000; stroke-width: 0.8; stroke-linejoin: miter; stroke-linecap: square"/>
   </g>
   <g id="patch_4">
    <path d="M 3.858403 172.799362 
L 460.8 172.799362 
" style="fill: none; stroke: #000000; stroke-width: 0.8; stroke-linejoin: miter; stroke-linecap: square"/>
   </g>
  </g>
 </g>
 <defs>
  <clipPath id="pd13b703c7a">
   <rect x="3.858403" y="58.567095" width="456.941597" height="228.46581"/>
  </clipPath>
 </defs>
</svg>
