<?xml version="1.0" encoding="utf-8" standalone="no"?>
<!DOCTYPE svg PUBLIC "-//W3C//DTD SVG 1.1//EN"
  "http://www.w3.org/Graphics/SVG/1.1/DTD/svg11.dtd">
<svg xmlns:xlink="http://www.w3.org/1999/xlink" width="460.8pt" height="345.6pt" viewBox="0 0 460.8 345.6" xmlns="http://www.w3.org/2000/svg" version="1.1">
 <metadata>
  <rdf:RDF xmlns:dc="http://purl.org/dc/elements/1.1/" xmlns:cc="http://creativecommons.org/ns#" xmlns:rdf="http://www.w3.org/1999/02/22-rdf-syntax-ns#">
   <cc:Work>
    <dc:type rdf:resource="http://purl.org/dc/dcmitype/StillImage"/>
    <dc:date>2025-08-02T18:54:47.593853</dc:date>
    <dc:format>image/svg+xml</dc:format>
    <dc:creator>
     <cc:Agent>
      <dc:title>Matplotlib v3.10.3, https://matplotlib.org/</dc:title>
     </cc:Agent>
    </dc:creator>
   </cc:Work>
  </rdf:RDF>
 </metadata>
 <defs>
  <style type="text/css">*{stroke-linejoin: round; stroke-linecap: butt}</style>
 </defs>
 <g id="figure_1">
  <g id="patch_1">
   <path d="M 0 345.6 
L 460.8 345.6 
L 460.8 0 
L 0 0 
z
" style="fill: #ffffff"/>
  </g>
  <g id="axes_1">
   <g id="patch_2">
    <path d="M 17.478808 345.6 
L 443.321192 345.6 
L 443.321192 0 
L 17.478808 0 
z
" style="fill: #ffffff"/>
   </g>
   <g id="patch_3">
    <path d="M 196.464829 131.128085 
L 196.464829 131.128085 
L 196.464829 131.128085 
L 196.464829 131.128085 
L 196.464829 131.128085 
L 196.464829 131.128085 
L 196.464829 131.128085 
L 196.464829 131.128085 
L 196.464829 131.128085 
L 196.464829 131.128085 
L 196.464829 131.128085 
L 196.464829 131.128085 
L 196.464829 131.128085 
L 196.464829 131.128085 
L 196.464829 131.128085 
L 196.464829 131.128085 
L 196.464829 131.128085 
L 196.464829 131.128085 
L 196.464829 131.128085 
L 196.464829 131.128085 
L 196.464829 131.128085 
L 196.464829 131.128085 
L 196.464829 131.128085 
L 196.464829 131.128085 
L 196.464829 131.128085 
L 196.464829 131.128085 
L 196.464829 131.128085 
L 196.464829 131.128085 
L 196.464829 131.128085 
L 196.464829 131.128085 
L 196.464829 131.128085 
L 196.464829 131.128085 
L 196.464829 131.128085 
L 196.464829 131.128085 
L 196.464829 131.128085 
L 196.464829 131.128085 
L 196.464829 131.128085 
L 196.464829 131.128085 
L 196.464829 131.128085 
L 196.464829 131.128085 
L 196.464829 131.128085 
L 196.464829 131.128085 
L 196.464829 131.128085 
L 196.464829 131.128085 
L 196.464829 131.128085 
L 196.464829 131.128085 
L 196.464829 131.128085 
L 196.464829 131.128085 
L 196.464829 131.128085 
L 196.464829 131.128085 
L 196.464829 131.128085 
L 196.464829 131.128085 
L 196.464829 131.128085 
L 196.464829 131.128085 
L 196.464829 131.128085 
L 196.464829 131.128085 
L 196.464829 131.128085 
L 196.464829 131.128085 
L 196.464829 131.128085 
L 196.464829 131.128085 
L 196.464829 131.128085 
L 196.464829 131.128085 
L 196.464829 131.128085 
L 196.464829 131.128085 
L 196.464829 131.128085 
L 196.464829 131.128085 
L 196.464829 131.128085 
L 196.464829 131.128085 
L 196.464829 131.128085 
L 196.464829 131.128085 
L 196.464829 131.128085 
L 196.464829 131.128085 
L 196.464829 131.128085 
L 196.464829 131.128085 
L 196.464829 131.128085 
L 196.464829 131.128085 
L 196.464829 131.128085 
L 196.464829 131.128085 
L 196.464829 131.128085 
L 196.464829 131.128085 
L 196.464829 131.128085 
L 196.464829 131.128085 
L 196.464829 131.128085 
L 196.464829 131.128085 
L 196.464829 131.128085 
L 196.464829 131.128085 
L 196.464829 131.128085 
L 196.464829 131.128085 
L 196.464829 131.128085 
L 196.464829 131.128085 
L 196.464829 131.128085 
L 196.464829 131.128085 
L 196.464829 131.128085 
L 196.464829 131.128085 
L 196.464829 131.128085 
L 196.464829 131.128085 
L 196.464829 131.128085 
L 196.464829 131.128085 
L 196.464829 131.128085 
L 196.464829 131.128085 
L 196.464829 131.128085 
L 196.464829 131.128085 
L 196.464829 131.128085 
L 196.464829 131.128085 
L 196.464829 131.128085 
L 196.464829 131.128085 
L 196.464829 131.128085 
L 196.464829 131.128085 
L 196.464829 131.128085 
L 196.464829 131.128085 
L 196.464829 131.128085 
L 196.464829 131.128085 
L 196.464829 131.128085 
L 196.464829 131.128085 
L 196.464829 131.128085 
L 196.464829 131.128085 
L 196.464829 131.128085 
L 196.464829 131.128085 
L 196.464829 131.128085 
L 196.464829 131.128085 
L 196.464829 131.128085 
L 196.464829 131.128085 
L 196.464829 131.128085 
L 196.464829 131.128085 
L 196.464829 131.128085 
L 196.464829 131.128085 
L 196.464829 131.128085 
L 196.464829 131.128085 
L 196.464829 131.128085 
L 196.464829 131.128085 
L 196.464829 131.128085 
L 196.464829 131.128085 
L 196.464829 131.128085 
L 196.464829 131.128085 
L 196.464829 131.128085 
L 196.464829 131.128085 
L 196.464829 131.128085 
L 196.464829 131.128085 
L 196.464829 131.128085 
L 196.464829 131.128085 
L 196.464829 131.128085 
L 196.464829 131.128085 
L 196.464829 131.128085 
L 196.464829 131.128085 
L 196.464829 131.128085 
L 196.464829 131.128085 
L 196.464829 131.128085 
L 196.464829 131.128085 
L 196.464829 131.128085 
L 196.464829 131.128085 
L 196.464829 131.128085 
L 196.464829 131.128085 
L 196.464829 131.128085 
L 196.464829 131.128085 
L 196.464829 131.128085 
L 196.464829 131.128085 
L 196.464829 131.128085 
L 196.464829 131.128085 
L 196.464829 131.128085 
L 196.464829 131.128085 
L 196.464829 131.128085 
L 196.464829 131.128085 
L 196.464829 131.128085 
L 196.464829 131.128085 
L 196.464829 131.128085 
L 196.464829 131.128085 
L 196.464829 131.128085 
L 196.464829 131.128085 
L 196.464829 131.128085 
L 196.464829 131.128085 
L 196.464829 131.128085 
L 196.464829 131.128085 
L 196.464829 131.128085 
L 196.464829 131.128085 
L 196.464829 131.128085 
L 196.464829 131.128085 
L 196.464829 131.128085 
L 196.464829 131.128085 
L 196.464829 131.128085 
L 196.464829 131.128085 
L 196.464829 131.128085 
L 196.464829 131.128085 
L 196.464829 131.128085 
L 196.464829 131.128085 
L 196.464829 131.128085 
L 196.464829 131.128085 
L 196.464829 131.128085 
L 196.464829 131.128085 
L 196.464829 131.128085 
L 196.464829 131.128085 
L 196.464829 131.128085 
L 196.464829 131.128085 
L 196.464829 131.128085 
L 196.464829 131.128085 
L 196.464829 131.128085 
L 196.464829 131.128085 
L 196.464829 131.128085 
L 196.464829 131.128085 
L 196.464829 131.128085 
L 196.464829 131.128085 
L 196.464829 131.128085 
L 199.687575 131.124393 
L 201.022471 131.117643 
L 202.04676 131.108901 
L 202.910258 131.098549 
L 203.670995 131.086807 
L 204.358731 131.073823 
L 205.579755 131.044544 
L 206.655385 131.011333 
L 207.627701 130.974612 
L 208.521698 130.93469 
L 209.353656 130.891804 
L 210.873614 130.797883 
L 212.247039 130.694039 
L 213.509236 130.58115 
L 214.683196 130.459893 
L 216.25965 130.270385 
L 217.717059 130.06577 
L 219.078102 129.847111 
L 220.358921 129.61528 
L 221.700378 129.343564 
L 222.970128 129.057388 
L 225.330369 128.444484 
L 227.765005 127.691107 
L 229.999175 126.879058 
L 232.549988 125.793456 
L 234.88845 124.630955 
L 236.618425 123.655053 
L 238.245512 122.636785 
L 239.87234 121.51059 
L 241.956429 119.889025 
L 243.873271 118.192254 
L 244.655704 117.43476 
L 247.21864 114.638724 
L 249.112861 112.189532 
L 250.437976 110.22266 
L 251.640118 108.204772 
L 252.518006 106.552553 
L 254.15101 102.916429 
L 255.095794 100.30904 
L 256.042473 97.039673 
L 256.081438 96.883642 
L 256.741351 93.803299 
L 257.323794 89.606878 
L 257.473304 87.725056 
L 257.573767 83.797531 
L 257.38949 79.755427 
L 257.028144 76.447644 
L 256.905563 75.600558 
L 255.688656 69.598829 
L 255.38282 68.438242 
L 254.807696 66.457522 
L 253.301083 62.094087 
L 251.759243 58.395309 
L 251.267994 57.328391 
L 249.359707 53.559184 
L 247.488536 50.308569 
L 245.031517 46.527388 
L 243.651557 44.594802 
L 241.267073 41.516665 
L 239.914728 39.897317 
L 237.760174 37.479441 
L 235.222521 34.854437 
L 231.759831 31.603464 
L 228.509874 28.84887 
L 226.026391 26.912701 
L 223.865833 25.335505 
L 219.758283 22.585752 
L 215.589556 20.094786 
L 214.475631 19.476047 
L 211.012379 17.669892 
L 207.845531 16.165378 
L 202.71565 14.00402 
L 200.470788 13.158971 
L 194.140366 11.08387 
L 190.000698 9.959221 
L 189.333835 9.794482 
L 184.523187 8.736734 
L 179.501811 7.869779 
L 176.319535 7.441443 
L 173.499892 7.138473 
L 167.205259 6.715754 
L 164.854083 6.646154 
L 157.601319 6.728505 
L 156.664626 6.771574 
L 151.705238 7.122402 
L 147.052609 7.638965 
L 143.766811 8.113196 
L 135.608142 9.685258 
L 133.614625 10.155795 
L 127.374288 11.852231 
L 124.825945 12.643989 
L 118.429911 14.8911 
L 114.589392 16.424032 
L 114.007976 16.668434 
L 108.402547 19.195786 
L 102.288747 22.319867 
L 98.624707 24.386196 
L 96.33983 25.751988 
L 92.480247 28.199812 
L 88.604365 30.844777 
L 85.472845 33.126552 
L 81.972185 35.840064 
L 77.162119 39.87011 
L 72.042692 44.5815 
L 68.771509 47.845186 
L 66.945897 49.760544 
L 64.110368 52.879612 
L 59.402958 58.486455 
L 55.361055 63.791842 
L 53.835192 65.930055 
L 49.912545 71.821195 
L 47.685523 75.454723 
L 45.041288 80.091533 
L 43.775429 82.453208 
L 41.095363 87.811014 
L 39.406712 91.479866 
L 36.565151 98.302803 
L 35.696236 100.589154 
L 32.556689 109.932532 
L 32.437511 110.329375 
L 30.936458 115.690855 
L 28.810527 124.935975 
L 28.293633 127.652127 
L 26.96651 136.274511 
L 26.522913 140.145057 
L 26.105415 144.888799 
L 25.757165 151.358298 
L 25.688564 153.95029 
L 25.668085 158.766656 
L 26.054708 168.579451 
L 26.315219 171.897588 
L 26.984923 178.151378 
L 28.036231 185.288376 
L 29.122687 191.109461 
L 29.680224 193.732186 
L 30.847864 198.677233 
L 33.159884 206.989863 
L 34.12024 210.039275 
L 36.946418 218.06963 
L 39.520665 224.477118 
L 41.457259 228.873056 
L 44.054829 234.315653 
L 45.885766 237.890684 
L 47.649669 241.159775 
L 52.179866 248.893736 
L 55.764089 254.451731 
L 56.93492 256.175661 
L 62.509027 263.850114 
L 64.50735 266.410148 
L 70.059115 273.068452 
L 75.072664 278.576766 
L 76.064138 279.615284 
L 80.522903 284.095941 
L 84.67429 288.008743 
L 88.645354 291.538254 
L 93.742746 295.788563 
L 99.370506 300.145852 
L 105.582877 304.582931 
L 113.614592 309.792337 
L 117.384087 312.047704 
L 120.439458 313.792026 
L 126.973334 317.282304 
L 130.804876 319.183623 
L 137.852674 322.414772 
L 143.041255 324.582783 
L 153.661715 328.493851 
L 157.927929 329.874361 
L 160.114595 330.541035 
L 171.67179 333.618247 
L 176.788149 334.747722 
L 180.04161 335.393661 
L 188.635896 336.834979 
L 194.609577 337.614377 
L 198.428572 338.018574 
L 209.632914 338.786932 
L 216.561325 338.953846 
L 222.568261 338.909428 
L 225.696131 338.816932 
L 233.985587 338.34209 
L 242.687371 337.483773 
L 250.215617 336.44162 
L 257.045805 335.2529 
L 262.053878 334.232386 
L 268.340263 332.770379 
L 276.874908 330.456628 
L 282.652226 328.670218 
L 287.67362 326.969388 
L 291.657129 325.519896 
L 302.526964 321.098107 
L 307.16739 318.994608 
L 314.573603 315.356575 
L 316.116436 314.553857 
L 325.934823 309.065081 
L 332.215812 305.191217 
L 336.5202 302.362449 
L 341.123998 299.171987 
L 345.908277 295.666461 
L 353.050159 290.048418 
L 361.609261 282.649738 
L 365.769569 278.764384 
L 369.927377 274.674228 
L 372.770542 271.749888 
L 381.480382 262.076249 
L 382.263438 261.148854 
L 387.40612 254.793114 
L 393.165083 247.069602 
L 397.380602 240.945923 
L 401.502254 234.51001 
L 404.4864 229.531688 
L 406.350997 226.267448 
L 412.086294 215.350678 
L 414.938121 209.327999 
L 417.06384 204.519895 
L 420.916182 194.942713 
L 423.649488 187.275738 
L 424.323984 185.242068 
L 427.741711 173.783797 
L 428.553771 170.697802 
L 430.576599 162.119604 
L 432.825702 150.224163 
L 433.382234 146.622278 
L 434.441093 138.389639 
L 435.131915 131.128085 
z
" clip-path="url(#pbb1ed14740)" style="fill: #808080; opacity: 0.5"/>
   </g>
   <g id="matplotlib.axis_1">
    <g id="xtick_1">
     <g id="line2d_1">
      <defs>
       <path id="m4a6dfbb57a" d="M 0 0 
L 0 3.5 
" style="stroke: #000000; stroke-width: 0.8"/>
      </defs>
      <g>
       <use xlink:href="#m4a6dfbb57a" x="53.643242" y="131.128085" style="stroke: #000000; stroke-width: 0.8"/>
      </g>
     </g>
     <g id="text_1">
      <!-- −1.5 -->
      <g transform="translate(41.501836 145.726523) scale(0.1 -0.1)">
       <defs>
        <path id="DejaVuSans-2212" d="M 678 2272 
L 4684 2272 
L 4684 1741 
L 678 1741 
L 678 2272 
z
" transform="scale(0.015625)"/>
        <path id="DejaVuSans-31" d="M 794 531 
L 1825 531 
L 1825 4091 
L 703 3866 
L 703 4441 
L 1819 4666 
L 2450 4666 
L 2450 531 
L 3481 531 
L 3481 0 
L 794 0 
L 794 531 
z
" transform="scale(0.015625)"/>
        <path id="DejaVuSans-2e" d="M 684 794 
L 1344 794 
L 1344 0 
L 684 0 
L 684 794 
z
" transform="scale(0.015625)"/>
        <path id="DejaVuSans-35" d="M 691 4666 
L 3169 4666 
L 3169 4134 
L 1269 4134 
L 1269 2991 
Q 1406 3038 1543 3061 
Q 1681 3084 1819 3084 
Q 2600 3084 3056 2656 
Q 3513 2228 3513 1497 
Q 3513 744 3044 326 
Q 2575 -91 1722 -91 
Q 1428 -91 1123 -41 
Q 819 9 494 109 
L 494 744 
Q 775 591 1075 516 
Q 1375 441 1709 441 
Q 2250 441 2565 725 
Q 2881 1009 2881 1497 
Q 2881 1984 2565 2268 
Q 2250 2553 1709 2553 
Q 1456 2553 1204 2497 
Q 953 2441 691 2322 
L 691 4666 
z
" transform="scale(0.015625)"/>
       </defs>
       <use xlink:href="#DejaVuSans-2212"/>
       <use xlink:href="#DejaVuSans-31" transform="translate(83.789062 0)"/>
       <use xlink:href="#DejaVuSans-2e" transform="translate(147.412109 0)"/>
       <use xlink:href="#DejaVuSans-35" transform="translate(179.199219 0)"/>
      </g>
     </g>
    </g>
    <g id="xtick_2">
     <g id="line2d_2">
      <g>
       <use xlink:href="#m4a6dfbb57a" x="101.250438" y="131.128085" style="stroke: #000000; stroke-width: 0.8"/>
      </g>
     </g>
     <g id="text_2">
      <!-- −1.0 -->
      <g transform="translate(89.109032 145.726523) scale(0.1 -0.1)">
       <defs>
        <path id="DejaVuSans-30" d="M 2034 4250 
Q 1547 4250 1301 3770 
Q 1056 3291 1056 2328 
Q 1056 1369 1301 889 
Q 1547 409 2034 409 
Q 2525 409 2770 889 
Q 3016 1369 3016 2328 
Q 3016 3291 2770 3770 
Q 2525 4250 2034 4250 
z
M 2034 4750 
Q 2819 4750 3233 4129 
Q 3647 3509 3647 2328 
Q 3647 1150 3233 529 
Q 2819 -91 2034 -91 
Q 1250 -91 836 529 
Q 422 1150 422 2328 
Q 422 3509 836 4129 
Q 1250 4750 2034 4750 
z
" transform="scale(0.015625)"/>
       </defs>
       <use xlink:href="#DejaVuSans-2212"/>
       <use xlink:href="#DejaVuSans-31" transform="translate(83.789062 0)"/>
       <use xlink:href="#DejaVuSans-2e" transform="translate(147.412109 0)"/>
       <use xlink:href="#DejaVuSans-30" transform="translate(179.199219 0)"/>
      </g>
     </g>
    </g>
    <g id="xtick_3">
     <g id="line2d_3">
      <g>
       <use xlink:href="#m4a6dfbb57a" x="148.857634" y="131.128085" style="stroke: #000000; stroke-width: 0.8"/>
      </g>
     </g>
     <g id="text_3">
      <!-- −0.5 -->
      <g transform="translate(136.716227 145.726523) scale(0.1 -0.1)">
       <use xlink:href="#DejaVuSans-2212"/>
       <use xlink:href="#DejaVuSans-30" transform="translate(83.789062 0)"/>
       <use xlink:href="#DejaVuSans-2e" transform="translate(147.412109 0)"/>
       <use xlink:href="#DejaVuSans-35" transform="translate(179.199219 0)"/>
      </g>
     </g>
    </g>
    <g id="xtick_4">
     <g id="line2d_4">
      <g>
       <use xlink:href="#m4a6dfbb57a" x="196.464829" y="131.128085" style="stroke: #000000; stroke-width: 0.8"/>
      </g>
     </g>
    </g>
    <g id="xtick_5">
     <g id="line2d_5">
      <g>
       <use xlink:href="#m4a6dfbb57a" x="244.072025" y="131.128085" style="stroke: #000000; stroke-width: 0.8"/>
      </g>
     </g>
     <g id="text_4">
      <!-- 0.5 -->
      <g transform="translate(236.120462 145.726523) scale(0.1 -0.1)">
       <use xlink:href="#DejaVuSans-30"/>
       <use xlink:href="#DejaVuSans-2e" transform="translate(63.623047 0)"/>
       <use xlink:href="#DejaVuSans-35" transform="translate(95.410156 0)"/>
      </g>
     </g>
    </g>
    <g id="xtick_6">
     <g id="line2d_6">
      <g>
       <use xlink:href="#m4a6dfbb57a" x="291.679221" y="131.128085" style="stroke: #000000; stroke-width: 0.8"/>
      </g>
     </g>
     <g id="text_5">
      <!-- 1.0 -->
      <g transform="translate(283.727658 145.726523) scale(0.1 -0.1)">
       <use xlink:href="#DejaVuSans-31"/>
       <use xlink:href="#DejaVuSans-2e" transform="translate(63.623047 0)"/>
       <use xlink:href="#DejaVuSans-30" transform="translate(95.410156 0)"/>
      </g>
     </g>
    </g>
    <g id="xtick_7">
     <g id="line2d_7">
      <g>
       <use xlink:href="#m4a6dfbb57a" x="339.286416" y="131.128085" style="stroke: #000000; stroke-width: 0.8"/>
      </g>
     </g>
     <g id="text_6">
      <!-- 1.5 -->
      <g transform="translate(331.334854 145.726523) scale(0.1 -0.1)">
       <use xlink:href="#DejaVuSans-31"/>
       <use xlink:href="#DejaVuSans-2e" transform="translate(63.623047 0)"/>
       <use xlink:href="#DejaVuSans-35" transform="translate(95.410156 0)"/>
      </g>
     </g>
    </g>
    <g id="xtick_8">
     <g id="line2d_8">
      <g>
       <use xlink:href="#m4a6dfbb57a" x="386.893612" y="131.128085" style="stroke: #000000; stroke-width: 0.8"/>
      </g>
     </g>
     <g id="text_7">
      <!-- 2.0 -->
      <g transform="translate(378.94205 145.726523) scale(0.1 -0.1)">
       <defs>
        <path id="DejaVuSans-32" d="M 1228 531 
L 3431 531 
L 3431 0 
L 469 0 
L 469 531 
Q 828 903 1448 1529 
Q 2069 2156 2228 2338 
Q 2531 2678 2651 2914 
Q 2772 3150 2772 3378 
Q 2772 3750 2511 3984 
Q 2250 4219 1831 4219 
Q 1534 4219 1204 4116 
Q 875 4013 500 3803 
L 500 4441 
Q 881 4594 1212 4672 
Q 1544 4750 1819 4750 
Q 2544 4750 2975 4387 
Q 3406 4025 3406 3419 
Q 3406 3131 3298 2873 
Q 3191 2616 2906 2266 
Q 2828 2175 2409 1742 
Q 1991 1309 1228 531 
z
" transform="scale(0.015625)"/>
       </defs>
       <use xlink:href="#DejaVuSans-32"/>
       <use xlink:href="#DejaVuSans-2e" transform="translate(63.623047 0)"/>
       <use xlink:href="#DejaVuSans-30" transform="translate(95.410156 0)"/>
      </g>
     </g>
    </g>
    <g id="xtick_9">
     <g id="line2d_9">
      <g>
       <use xlink:href="#m4a6dfbb57a" x="434.500808" y="131.128085" style="stroke: #000000; stroke-width: 0.8"/>
      </g>
     </g>
     <g id="text_8">
      <!-- 2.5 -->
      <g transform="translate(426.549245 145.726523) scale(0.1 -0.1)">
       <use xlink:href="#DejaVuSans-32"/>
       <use xlink:href="#DejaVuSans-2e" transform="translate(63.623047 0)"/>
       <use xlink:href="#DejaVuSans-35" transform="translate(95.410156 0)"/>
      </g>
     </g>
    </g>
    <g id="xtick_10">
     <g id="line2d_10">
      <defs>
       <path id="mcf2cfa78ee" d="M 0 0 
L 0 2 
" style="stroke: #000000; stroke-width: 0.6"/>
      </defs>
      <g>
       <use xlink:href="#mcf2cfa78ee" x="25.078925" y="131.128085" style="stroke: #000000; stroke-width: 0.6"/>
      </g>
     </g>
    </g>
    <g id="xtick_11">
     <g id="line2d_11">
      <g>
       <use xlink:href="#mcf2cfa78ee" x="34.600364" y="131.128085" style="stroke: #000000; stroke-width: 0.6"/>
      </g>
     </g>
    </g>
    <g id="xtick_12">
     <g id="line2d_12">
      <g>
       <use xlink:href="#mcf2cfa78ee" x="44.121803" y="131.128085" style="stroke: #000000; stroke-width: 0.6"/>
      </g>
     </g>
    </g>
    <g id="xtick_13">
     <g id="line2d_13">
      <g>
       <use xlink:href="#mcf2cfa78ee" x="63.164681" y="131.128085" style="stroke: #000000; stroke-width: 0.6"/>
      </g>
     </g>
    </g>
    <g id="xtick_14">
     <g id="line2d_14">
      <g>
       <use xlink:href="#mcf2cfa78ee" x="72.68612" y="131.128085" style="stroke: #000000; stroke-width: 0.6"/>
      </g>
     </g>
    </g>
    <g id="xtick_15">
     <g id="line2d_15">
      <g>
       <use xlink:href="#mcf2cfa78ee" x="82.20756" y="131.128085" style="stroke: #000000; stroke-width: 0.6"/>
      </g>
     </g>
    </g>
    <g id="xtick_16">
     <g id="line2d_16">
      <g>
       <use xlink:href="#mcf2cfa78ee" x="91.728999" y="131.128085" style="stroke: #000000; stroke-width: 0.6"/>
      </g>
     </g>
    </g>
    <g id="xtick_17">
     <g id="line2d_17">
      <g>
       <use xlink:href="#mcf2cfa78ee" x="110.771877" y="131.128085" style="stroke: #000000; stroke-width: 0.6"/>
      </g>
     </g>
    </g>
    <g id="xtick_18">
     <g id="line2d_18">
      <g>
       <use xlink:href="#mcf2cfa78ee" x="120.293316" y="131.128085" style="stroke: #000000; stroke-width: 0.6"/>
      </g>
     </g>
    </g>
    <g id="xtick_19">
     <g id="line2d_19">
      <g>
       <use xlink:href="#mcf2cfa78ee" x="129.814755" y="131.128085" style="stroke: #000000; stroke-width: 0.6"/>
      </g>
     </g>
    </g>
    <g id="xtick_20">
     <g id="line2d_20">
      <g>
       <use xlink:href="#mcf2cfa78ee" x="139.336194" y="131.128085" style="stroke: #000000; stroke-width: 0.6"/>
      </g>
     </g>
    </g>
    <g id="xtick_21">
     <g id="line2d_21">
      <g>
       <use xlink:href="#mcf2cfa78ee" x="158.379073" y="131.128085" style="stroke: #000000; stroke-width: 0.6"/>
      </g>
     </g>
    </g>
    <g id="xtick_22">
     <g id="line2d_22">
      <g>
       <use xlink:href="#mcf2cfa78ee" x="167.900512" y="131.128085" style="stroke: #000000; stroke-width: 0.6"/>
      </g>
     </g>
    </g>
    <g id="xtick_23">
     <g id="line2d_23">
      <g>
       <use xlink:href="#mcf2cfa78ee" x="177.421951" y="131.128085" style="stroke: #000000; stroke-width: 0.6"/>
      </g>
     </g>
    </g>
    <g id="xtick_24">
     <g id="line2d_24">
      <g>
       <use xlink:href="#mcf2cfa78ee" x="186.94339" y="131.128085" style="stroke: #000000; stroke-width: 0.6"/>
      </g>
     </g>
    </g>
    <g id="xtick_25">
     <g id="line2d_25">
      <g>
       <use xlink:href="#mcf2cfa78ee" x="205.986268" y="131.128085" style="stroke: #000000; stroke-width: 0.6"/>
      </g>
     </g>
    </g>
    <g id="xtick_26">
     <g id="line2d_26">
      <g>
       <use xlink:href="#mcf2cfa78ee" x="215.507708" y="131.128085" style="stroke: #000000; stroke-width: 0.6"/>
      </g>
     </g>
    </g>
    <g id="xtick_27">
     <g id="line2d_27">
      <g>
       <use xlink:href="#mcf2cfa78ee" x="225.029147" y="131.128085" style="stroke: #000000; stroke-width: 0.6"/>
      </g>
     </g>
    </g>
    <g id="xtick_28">
     <g id="line2d_28">
      <g>
       <use xlink:href="#mcf2cfa78ee" x="234.550586" y="131.128085" style="stroke: #000000; stroke-width: 0.6"/>
      </g>
     </g>
    </g>
    <g id="xtick_29">
     <g id="line2d_29">
      <g>
       <use xlink:href="#mcf2cfa78ee" x="253.593464" y="131.128085" style="stroke: #000000; stroke-width: 0.6"/>
      </g>
     </g>
    </g>
    <g id="xtick_30">
     <g id="line2d_30">
      <g>
       <use xlink:href="#mcf2cfa78ee" x="263.114903" y="131.128085" style="stroke: #000000; stroke-width: 0.6"/>
      </g>
     </g>
    </g>
    <g id="xtick_31">
     <g id="line2d_31">
      <g>
       <use xlink:href="#mcf2cfa78ee" x="272.636342" y="131.128085" style="stroke: #000000; stroke-width: 0.6"/>
      </g>
     </g>
    </g>
    <g id="xtick_32">
     <g id="line2d_32">
      <g>
       <use xlink:href="#mcf2cfa78ee" x="282.157782" y="131.128085" style="stroke: #000000; stroke-width: 0.6"/>
      </g>
     </g>
    </g>
    <g id="xtick_33">
     <g id="line2d_33">
      <g>
       <use xlink:href="#mcf2cfa78ee" x="301.20066" y="131.128085" style="stroke: #000000; stroke-width: 0.6"/>
      </g>
     </g>
    </g>
    <g id="xtick_34">
     <g id="line2d_34">
      <g>
       <use xlink:href="#mcf2cfa78ee" x="310.722099" y="131.128085" style="stroke: #000000; stroke-width: 0.6"/>
      </g>
     </g>
    </g>
    <g id="xtick_35">
     <g id="line2d_35">
      <g>
       <use xlink:href="#mcf2cfa78ee" x="320.243538" y="131.128085" style="stroke: #000000; stroke-width: 0.6"/>
      </g>
     </g>
    </g>
    <g id="xtick_36">
     <g id="line2d_36">
      <g>
       <use xlink:href="#mcf2cfa78ee" x="329.764977" y="131.128085" style="stroke: #000000; stroke-width: 0.6"/>
      </g>
     </g>
    </g>
    <g id="xtick_37">
     <g id="line2d_37">
      <g>
       <use xlink:href="#mcf2cfa78ee" x="348.807856" y="131.128085" style="stroke: #000000; stroke-width: 0.6"/>
      </g>
     </g>
    </g>
    <g id="xtick_38">
     <g id="line2d_38">
      <g>
       <use xlink:href="#mcf2cfa78ee" x="358.329295" y="131.128085" style="stroke: #000000; stroke-width: 0.6"/>
      </g>
     </g>
    </g>
    <g id="xtick_39">
     <g id="line2d_39">
      <g>
       <use xlink:href="#mcf2cfa78ee" x="367.850734" y="131.128085" style="stroke: #000000; stroke-width: 0.6"/>
      </g>
     </g>
    </g>
    <g id="xtick_40">
     <g id="line2d_40">
      <g>
       <use xlink:href="#mcf2cfa78ee" x="377.372173" y="131.128085" style="stroke: #000000; stroke-width: 0.6"/>
      </g>
     </g>
    </g>
    <g id="xtick_41">
     <g id="line2d_41">
      <g>
       <use xlink:href="#mcf2cfa78ee" x="396.415051" y="131.128085" style="stroke: #000000; stroke-width: 0.6"/>
      </g>
     </g>
    </g>
    <g id="xtick_42">
     <g id="line2d_42">
      <g>
       <use xlink:href="#mcf2cfa78ee" x="405.93649" y="131.128085" style="stroke: #000000; stroke-width: 0.6"/>
      </g>
     </g>
    </g>
    <g id="xtick_43">
     <g id="line2d_43">
      <g>
       <use xlink:href="#mcf2cfa78ee" x="415.45793" y="131.128085" style="stroke: #000000; stroke-width: 0.6"/>
      </g>
     </g>
    </g>
    <g id="xtick_44">
     <g id="line2d_44">
      <g>
       <use xlink:href="#mcf2cfa78ee" x="424.979369" y="131.128085" style="stroke: #000000; stroke-width: 0.6"/>
      </g>
     </g>
    </g>
   </g>
   <g id="matplotlib.axis_2">
    <g id="ytick_1">
     <g id="line2d_45">
      <defs>
       <path id="mb223ad1b2a" d="M 0 0 
L -3.5 0 
" style="stroke: #000000; stroke-width: 0.8"/>
      </defs>
      <g>
       <use xlink:href="#mb223ad1b2a" x="196.464829" y="321.556868" style="stroke: #000000; stroke-width: 0.8"/>
      </g>
     </g>
     <g id="text_9">
      <!-- −2.0 -->
      <g transform="translate(165.182017 325.356087) scale(0.1 -0.1)">
       <use xlink:href="#DejaVuSans-2212"/>
       <use xlink:href="#DejaVuSans-32" transform="translate(83.789062 0)"/>
       <use xlink:href="#DejaVuSans-2e" transform="translate(147.412109 0)"/>
       <use xlink:href="#DejaVuSans-30" transform="translate(179.199219 0)"/>
      </g>
     </g>
    </g>
    <g id="ytick_2">
     <g id="line2d_46">
      <g>
       <use xlink:href="#mb223ad1b2a" x="196.464829" y="273.949673" style="stroke: #000000; stroke-width: 0.8"/>
      </g>
     </g>
     <g id="text_10">
      <!-- −1.5 -->
      <g transform="translate(165.182017 277.748891) scale(0.1 -0.1)">
       <use xlink:href="#DejaVuSans-2212"/>
       <use xlink:href="#DejaVuSans-31" transform="translate(83.789062 0)"/>
       <use xlink:href="#DejaVuSans-2e" transform="translate(147.412109 0)"/>
       <use xlink:href="#DejaVuSans-35" transform="translate(179.199219 0)"/>
      </g>
     </g>
    </g>
    <g id="ytick_3">
     <g id="line2d_47">
      <g>
       <use xlink:href="#mb223ad1b2a" x="196.464829" y="226.342477" style="stroke: #000000; stroke-width: 0.8"/>
      </g>
     </g>
     <g id="text_11">
      <!-- −1.0 -->
      <g transform="translate(165.182017 230.141696) scale(0.1 -0.1)">
       <use xlink:href="#DejaVuSans-2212"/>
       <use xlink:href="#DejaVuSans-31" transform="translate(83.789062 0)"/>
       <use xlink:href="#DejaVuSans-2e" transform="translate(147.412109 0)"/>
       <use xlink:href="#DejaVuSans-30" transform="translate(179.199219 0)"/>
      </g>
     </g>
    </g>
    <g id="ytick_4">
     <g id="line2d_48">
      <g>
       <use xlink:href="#mb223ad1b2a" x="196.464829" y="178.735281" style="stroke: #000000; stroke-width: 0.8"/>
      </g>
     </g>
     <g id="text_12">
      <!-- −0.5 -->
      <g transform="translate(165.182017 182.5345) scale(0.1 -0.1)">
       <use xlink:href="#DejaVuSans-2212"/>
       <use xlink:href="#DejaVuSans-30" transform="translate(83.789062 0)"/>
       <use xlink:href="#DejaVuSans-2e" transform="translate(147.412109 0)"/>
       <use xlink:href="#DejaVuSans-35" transform="translate(179.199219 0)"/>
      </g>
     </g>
    </g>
    <g id="ytick_5">
     <g id="line2d_49">
      <g>
       <use xlink:href="#mb223ad1b2a" x="196.464829" y="131.128085" style="stroke: #000000; stroke-width: 0.8"/>
      </g>
     </g>
    </g>
    <g id="ytick_6">
     <g id="line2d_50">
      <g>
       <use xlink:href="#mb223ad1b2a" x="196.464829" y="83.52089" style="stroke: #000000; stroke-width: 0.8"/>
      </g>
     </g>
     <g id="text_13">
      <!-- 0.5 -->
      <g transform="translate(173.561704 87.320108) scale(0.1 -0.1)">
       <use xlink:href="#DejaVuSans-30"/>
       <use xlink:href="#DejaVuSans-2e" transform="translate(63.623047 0)"/>
       <use xlink:href="#DejaVuSans-35" transform="translate(95.410156 0)"/>
      </g>
     </g>
    </g>
    <g id="ytick_7">
     <g id="line2d_51">
      <g>
       <use xlink:href="#mb223ad1b2a" x="196.464829" y="35.913694" style="stroke: #000000; stroke-width: 0.8"/>
      </g>
     </g>
     <g id="text_14">
      <!-- 1.0 -->
      <g transform="translate(173.561704 39.712913) scale(0.1 -0.1)">
       <use xlink:href="#DejaVuSans-31"/>
       <use xlink:href="#DejaVuSans-2e" transform="translate(63.623047 0)"/>
       <use xlink:href="#DejaVuSans-30" transform="translate(95.410156 0)"/>
      </g>
     </g>
    </g>
    <g id="ytick_8">
     <g id="line2d_52">
      <defs>
       <path id="m0da5e034ba" d="M 0 0 
L -2 0 
" style="stroke: #000000; stroke-width: 0.6"/>
      </defs>
      <g>
       <use xlink:href="#m0da5e034ba" x="196.464829" y="340.599747" style="stroke: #000000; stroke-width: 0.6"/>
      </g>
     </g>
    </g>
    <g id="ytick_9">
     <g id="line2d_53">
      <g>
       <use xlink:href="#m0da5e034ba" x="196.464829" y="331.078307" style="stroke: #000000; stroke-width: 0.6"/>
      </g>
     </g>
    </g>
    <g id="ytick_10">
     <g id="line2d_54">
      <g>
       <use xlink:href="#m0da5e034ba" x="196.464829" y="312.035429" style="stroke: #000000; stroke-width: 0.6"/>
      </g>
     </g>
    </g>
    <g id="ytick_11">
     <g id="line2d_55">
      <g>
       <use xlink:href="#m0da5e034ba" x="196.464829" y="302.51399" style="stroke: #000000; stroke-width: 0.6"/>
      </g>
     </g>
    </g>
    <g id="ytick_12">
     <g id="line2d_56">
      <g>
       <use xlink:href="#m0da5e034ba" x="196.464829" y="292.992551" style="stroke: #000000; stroke-width: 0.6"/>
      </g>
     </g>
    </g>
    <g id="ytick_13">
     <g id="line2d_57">
      <g>
       <use xlink:href="#m0da5e034ba" x="196.464829" y="283.471112" style="stroke: #000000; stroke-width: 0.6"/>
      </g>
     </g>
    </g>
    <g id="ytick_14">
     <g id="line2d_58">
      <g>
       <use xlink:href="#m0da5e034ba" x="196.464829" y="264.428233" style="stroke: #000000; stroke-width: 0.6"/>
      </g>
     </g>
    </g>
    <g id="ytick_15">
     <g id="line2d_59">
      <g>
       <use xlink:href="#m0da5e034ba" x="196.464829" y="254.906794" style="stroke: #000000; stroke-width: 0.6"/>
      </g>
     </g>
    </g>
    <g id="ytick_16">
     <g id="line2d_60">
      <g>
       <use xlink:href="#m0da5e034ba" x="196.464829" y="245.385355" style="stroke: #000000; stroke-width: 0.6"/>
      </g>
     </g>
    </g>
    <g id="ytick_17">
     <g id="line2d_61">
      <g>
       <use xlink:href="#m0da5e034ba" x="196.464829" y="235.863916" style="stroke: #000000; stroke-width: 0.6"/>
      </g>
     </g>
    </g>
    <g id="ytick_18">
     <g id="line2d_62">
      <g>
       <use xlink:href="#m0da5e034ba" x="196.464829" y="216.821038" style="stroke: #000000; stroke-width: 0.6"/>
      </g>
     </g>
    </g>
    <g id="ytick_19">
     <g id="line2d_63">
      <g>
       <use xlink:href="#m0da5e034ba" x="196.464829" y="207.299599" style="stroke: #000000; stroke-width: 0.6"/>
      </g>
     </g>
    </g>
    <g id="ytick_20">
     <g id="line2d_64">
      <g>
       <use xlink:href="#m0da5e034ba" x="196.464829" y="197.778159" style="stroke: #000000; stroke-width: 0.6"/>
      </g>
     </g>
    </g>
    <g id="ytick_21">
     <g id="line2d_65">
      <g>
       <use xlink:href="#m0da5e034ba" x="196.464829" y="188.25672" style="stroke: #000000; stroke-width: 0.6"/>
      </g>
     </g>
    </g>
    <g id="ytick_22">
     <g id="line2d_66">
      <g>
       <use xlink:href="#m0da5e034ba" x="196.464829" y="169.213842" style="stroke: #000000; stroke-width: 0.6"/>
      </g>
     </g>
    </g>
    <g id="ytick_23">
     <g id="line2d_67">
      <g>
       <use xlink:href="#m0da5e034ba" x="196.464829" y="159.692403" style="stroke: #000000; stroke-width: 0.6"/>
      </g>
     </g>
    </g>
    <g id="ytick_24">
     <g id="line2d_68">
      <g>
       <use xlink:href="#m0da5e034ba" x="196.464829" y="150.170964" style="stroke: #000000; stroke-width: 0.6"/>
      </g>
     </g>
    </g>
    <g id="ytick_25">
     <g id="line2d_69">
      <g>
       <use xlink:href="#m0da5e034ba" x="196.464829" y="140.649525" style="stroke: #000000; stroke-width: 0.6"/>
      </g>
     </g>
    </g>
    <g id="ytick_26">
     <g id="line2d_70">
      <g>
       <use xlink:href="#m0da5e034ba" x="196.464829" y="121.606646" style="stroke: #000000; stroke-width: 0.6"/>
      </g>
     </g>
    </g>
    <g id="ytick_27">
     <g id="line2d_71">
      <g>
       <use xlink:href="#m0da5e034ba" x="196.464829" y="112.085207" style="stroke: #000000; stroke-width: 0.6"/>
      </g>
     </g>
    </g>
    <g id="ytick_28">
     <g id="line2d_72">
      <g>
       <use xlink:href="#m0da5e034ba" x="196.464829" y="102.563768" style="stroke: #000000; stroke-width: 0.6"/>
      </g>
     </g>
    </g>
    <g id="ytick_29">
     <g id="line2d_73">
      <g>
       <use xlink:href="#m0da5e034ba" x="196.464829" y="93.042329" style="stroke: #000000; stroke-width: 0.6"/>
      </g>
     </g>
    </g>
    <g id="ytick_30">
     <g id="line2d_74">
      <g>
       <use xlink:href="#m0da5e034ba" x="196.464829" y="73.999451" style="stroke: #000000; stroke-width: 0.6"/>
      </g>
     </g>
    </g>
    <g id="ytick_31">
     <g id="line2d_75">
      <g>
       <use xlink:href="#m0da5e034ba" x="196.464829" y="64.478011" style="stroke: #000000; stroke-width: 0.6"/>
      </g>
     </g>
    </g>
    <g id="ytick_32">
     <g id="line2d_76">
      <g>
       <use xlink:href="#m0da5e034ba" x="196.464829" y="54.956572" style="stroke: #000000; stroke-width: 0.6"/>
      </g>
     </g>
    </g>
    <g id="ytick_33">
     <g id="line2d_77">
      <g>
       <use xlink:href="#m0da5e034ba" x="196.464829" y="45.435133" style="stroke: #000000; stroke-width: 0.6"/>
      </g>
     </g>
    </g>
    <g id="ytick_34">
     <g id="line2d_78">
      <g>
       <use xlink:href="#m0da5e034ba" x="196.464829" y="26.392255" style="stroke: #000000; stroke-width: 0.6"/>
      </g>
     </g>
    </g>
    <g id="ytick_35">
     <g id="line2d_79">
      <g>
       <use xlink:href="#m0da5e034ba" x="196.464829" y="16.870816" style="stroke: #000000; stroke-width: 0.6"/>
      </g>
     </g>
    </g>
    <g id="ytick_36">
     <g id="line2d_80">
      <g>
       <use xlink:href="#m0da5e034ba" x="196.464829" y="7.349377" style="stroke: #000000; stroke-width: 0.6"/>
      </g>
     </g>
    </g>
   </g>
   <g id="line2d_81">
    <path d="M 196.464829 131.128085 
L 206.655385 131.011333 
L 212.247039 130.694039 
L 216.25965 130.270385 
L 220.358921 129.61528 
L 222.970128 129.057388 
L 225.330369 128.444484 
L 227.765005 127.691107 
L 229.999175 126.879058 
L 232.549988 125.793456 
L 236.618425 123.655053 
L 239.87234 121.51059 
L 241.956429 119.889025 
L 244.655704 117.43476 
L 247.21864 114.638724 
L 249.112861 112.189532 
L 250.437976 110.22266 
L 252.518006 106.552553 
L 254.15101 102.916429 
L 255.095794 100.30904 
L 256.081438 96.883642 
L 256.741351 93.803299 
L 257.473304 87.725056 
L 257.573767 83.797531 
L 257.38949 79.755427 
L 256.905563 75.600558 
L 255.38282 68.438242 
L 254.807696 66.457522 
L 253.301083 62.094087 
L 251.267994 57.328391 
L 249.359707 53.559184 
L 247.488536 50.308569 
L 243.651557 44.594802 
L 239.914728 39.897317 
L 237.760174 37.479441 
L 235.222521 34.854437 
L 231.759831 31.603464 
L 228.509874 28.84887 
L 223.865833 25.335505 
L 219.758283 22.585752 
L 214.475631 19.476047 
L 211.012379 17.669892 
L 207.845531 16.165378 
L 200.470788 13.158971 
L 194.140366 11.08387 
L 189.333835 9.794482 
L 184.523187 8.736734 
L 179.501811 7.869779 
L 173.499892 7.138473 
L 164.854083 6.646154 
L 156.664626 6.771574 
L 151.705238 7.122402 
L 143.766811 8.113196 
L 133.614625 10.155795 
L 124.825945 12.643989 
L 118.429911 14.8911 
L 114.007976 16.668434 
L 108.402547 19.195786 
L 102.288747 22.319867 
L 96.33983 25.751988 
L 92.480247 28.199812 
L 88.604365 30.844777 
L 85.472845 33.126552 
L 81.972185 35.840064 
L 77.162119 39.87011 
L 72.042692 44.5815 
L 66.945897 49.760544 
L 64.110368 52.879612 
L 59.402958 58.486455 
L 53.835192 65.930055 
L 49.912545 71.821195 
L 47.685523 75.454723 
L 43.775429 82.453208 
L 41.095363 87.811014 
L 39.406712 91.479866 
L 35.696236 100.589154 
L 32.437511 110.329375 
L 30.936458 115.690855 
L 28.293633 127.652127 
L 26.96651 136.274511 
L 26.522913 140.145057 
L 26.105415 144.888799 
L 25.688564 153.95029 
L 25.668085 158.766656 
L 26.054708 168.579451 
L 26.315219 171.897588 
L 26.984923 178.151378 
L 28.036231 185.288376 
L 29.680224 193.732186 
L 30.847864 198.677233 
L 34.12024 210.039275 
L 36.946418 218.06963 
L 39.520665 224.477118 
L 41.457259 228.873056 
L 44.054829 234.315653 
L 47.649669 241.159775 
L 52.179866 248.893736 
L 56.93492 256.175661 
L 62.509027 263.850114 
L 64.50735 266.410148 
L 70.059115 273.068452 
L 76.064138 279.615284 
L 80.522903 284.095941 
L 84.67429 288.008743 
L 88.645354 291.538254 
L 93.742746 295.788563 
L 99.370506 300.145852 
L 105.582877 304.582931 
L 113.614592 309.792337 
L 120.439458 313.792026 
L 126.973334 317.282304 
L 130.804876 319.183623 
L 137.852674 322.414772 
L 143.041255 324.582783 
L 153.661715 328.493851 
L 160.114595 330.541035 
L 171.67179 333.618247 
L 180.04161 335.393661 
L 188.635896 336.834979 
L 198.428572 338.018574 
L 209.632914 338.786932 
L 216.561325 338.953846 
L 225.696131 338.816932 
L 233.985587 338.34209 
L 242.687371 337.483773 
L 250.215617 336.44162 
L 257.045805 335.2529 
L 262.053878 334.232386 
L 268.340263 332.770379 
L 276.874908 330.456628 
L 282.652226 328.670218 
L 291.657129 325.519896 
L 302.526964 321.098107 
L 307.16739 318.994608 
L 316.116436 314.553857 
L 325.934823 309.065081 
L 332.215812 305.191217 
L 336.5202 302.362449 
L 341.123998 299.171987 
L 345.908277 295.666461 
L 353.050159 290.048418 
L 361.609261 282.649738 
L 365.769569 278.764384 
L 372.770542 271.749888 
L 382.263438 261.148854 
L 387.40612 254.793114 
L 393.165083 247.069602 
L 397.380602 240.945923 
L 401.502254 234.51001 
L 406.350997 226.267448 
L 412.086294 215.350678 
L 414.938121 209.327999 
L 417.06384 204.519895 
L 420.916182 194.942713 
L 424.323984 185.242068 
L 428.553771 170.697802 
L 430.576599 162.119604 
L 432.825702 150.224163 
L 433.382234 146.622278 
L 434.441093 138.389639 
L 435.131915 131.128085 
L 435.131915 131.128085 
" clip-path="url(#pbb1ed14740)" style="fill: none; stroke: #0000ff; stroke-linecap: square"/>
   </g>
   <g id="patch_4">
    <path d="M 196.464829 345.6 
L 196.464829 -0 
" style="fill: none; stroke: #000000; stroke-width: 0.8; stroke-linejoin: miter; stroke-linecap: square"/>
   </g>
   <g id="patch_5">
    <path d="M 17.478808 131.128085 
L 443.321192 131.128085 
" style="fill: none; stroke: #000000; stroke-width: 0.8; stroke-linejoin: miter; stroke-linecap: square"/>
   </g>
  </g>
 </g>
 <defs>
  <clipPath id="pbb1ed14740">
   <rect x="17.478808" y="0" width="425.842383" height="345.6"/>
  </clipPath>
 </defs>
</svg>
