<?xml version="1.0" encoding="utf-8" standalone="no"?>
<!DOCTYPE svg PUBLIC "-//W3C//DTD SVG 1.1//EN"
  "http://www.w3.org/Graphics/SVG/1.1/DTD/svg11.dtd">
<svg xmlns:xlink="http://www.w3.org/1999/xlink" width="460.8pt" height="345.6pt" viewBox="0 0 460.8 345.6" xmlns="http://www.w3.org/2000/svg" version="1.1">
 <metadata>
  <rdf:RDF xmlns:dc="http://purl.org/dc/elements/1.1/" xmlns:cc="http://creativecommons.org/ns#" xmlns:rdf="http://www.w3.org/1999/02/22-rdf-syntax-ns#">
   <cc:Work>
    <dc:type rdf:resource="http://purl.org/dc/dcmitype/StillImage"/>
    <dc:date>2025-08-02T22:46:04.979438</dc:date>
    <dc:format>image/svg+xml</dc:format>
    <dc:creator>
     <cc:Agent>
      <dc:title>Matplotlib v3.10.3, https://matplotlib.org/</dc:title>
     </cc:Agent>
    </dc:creator>
   </cc:Work>
  </rdf:RDF>
 </metadata>
 <defs>
  <style type="text/css">*{stroke-linejoin: round; stroke-linecap: butt}</style>
 </defs>
 <g id="figure_1">
  <g id="patch_1">
   <path d="M 0 345.6 
L 460.8 345.6 
L 460.8 0 
L 0 0 
z
" style="fill: #ffffff"/>
  </g>
  <g id="axes_1">
   <g id="patch_2">
    <path d="M 23.323698 345.448352 
L 460.8 345.448352 
L 460.8 0 
L 23.323698 0 
z
" style="fill: #ffffff"/>
   </g>
   <g id="matplotlib.axis_1">
    <g id="xtick_1">
     <g id="line2d_1">
      <defs>
       <path id="m391815f4a6" d="M 0 0 
L 0 3.5 
" style="stroke: #000000; stroke-width: 0.8"/>
      </defs>
      <g>
       <use xlink:href="#m391815f4a6" x="31.736704" y="172.818957" style="stroke: #000000; stroke-width: 0.8"/>
      </g>
     </g>
    </g>
    <g id="xtick_2">
     <g id="line2d_2">
      <g>
       <use xlink:href="#m391815f4a6" x="115.866762" y="172.818957" style="stroke: #000000; stroke-width: 0.8"/>
      </g>
     </g>
     <g id="text_1">
      <!-- 2 -->
      <g transform="translate(112.685512 187.417394) scale(0.1 -0.1)">
       <defs>
        <path id="DejaVuSans-32" d="M 1228 531 
L 3431 531 
L 3431 0 
L 469 0 
L 469 531 
Q 828 903 1448 1529 
Q 2069 2156 2228 2338 
Q 2531 2678 2651 2914 
Q 2772 3150 2772 3378 
Q 2772 3750 2511 3984 
Q 2250 4219 1831 4219 
Q 1534 4219 1204 4116 
Q 875 4013 500 3803 
L 500 4441 
Q 881 4594 1212 4672 
Q 1544 4750 1819 4750 
Q 2544 4750 2975 4387 
Q 3406 4025 3406 3419 
Q 3406 3131 3298 2873 
Q 3191 2616 2906 2266 
Q 2828 2175 2409 1742 
Q 1991 1309 1228 531 
z
" transform="scale(0.015625)"/>
       </defs>
       <use xlink:href="#DejaVuSans-32"/>
      </g>
     </g>
    </g>
    <g id="xtick_3">
     <g id="line2d_3">
      <g>
       <use xlink:href="#m391815f4a6" x="199.99682" y="172.818957" style="stroke: #000000; stroke-width: 0.8"/>
      </g>
     </g>
     <g id="text_2">
      <!-- 4 -->
      <g transform="translate(196.81557 187.417394) scale(0.1 -0.1)">
       <defs>
        <path id="DejaVuSans-34" d="M 2419 4116 
L 825 1625 
L 2419 1625 
L 2419 4116 
z
M 2253 4666 
L 3047 4666 
L 3047 1625 
L 3713 1625 
L 3713 1100 
L 3047 1100 
L 3047 0 
L 2419 0 
L 2419 1100 
L 313 1100 
L 313 1709 
L 2253 4666 
z
" transform="scale(0.015625)"/>
       </defs>
       <use xlink:href="#DejaVuSans-34"/>
      </g>
     </g>
    </g>
    <g id="xtick_4">
     <g id="line2d_4">
      <g>
       <use xlink:href="#m391815f4a6" x="284.126878" y="172.818957" style="stroke: #000000; stroke-width: 0.8"/>
      </g>
     </g>
     <g id="text_3">
      <!-- 6 -->
      <g transform="translate(280.945628 187.417394) scale(0.1 -0.1)">
       <defs>
        <path id="DejaVuSans-36" d="M 2113 2584 
Q 1688 2584 1439 2293 
Q 1191 2003 1191 1497 
Q 1191 994 1439 701 
Q 1688 409 2113 409 
Q 2538 409 2786 701 
Q 3034 994 3034 1497 
Q 3034 2003 2786 2293 
Q 2538 2584 2113 2584 
z
M 3366 4563 
L 3366 3988 
Q 3128 4100 2886 4159 
Q 2644 4219 2406 4219 
Q 1781 4219 1451 3797 
Q 1122 3375 1075 2522 
Q 1259 2794 1537 2939 
Q 1816 3084 2150 3084 
Q 2853 3084 3261 2657 
Q 3669 2231 3669 1497 
Q 3669 778 3244 343 
Q 2819 -91 2113 -91 
Q 1303 -91 875 529 
Q 447 1150 447 2328 
Q 447 3434 972 4092 
Q 1497 4750 2381 4750 
Q 2619 4750 2861 4703 
Q 3103 4656 3366 4563 
z
" transform="scale(0.015625)"/>
       </defs>
       <use xlink:href="#DejaVuSans-36"/>
      </g>
     </g>
    </g>
    <g id="xtick_5">
     <g id="line2d_5">
      <g>
       <use xlink:href="#m391815f4a6" x="368.256936" y="172.818957" style="stroke: #000000; stroke-width: 0.8"/>
      </g>
     </g>
     <g id="text_4">
      <!-- 8 -->
      <g transform="translate(365.075686 187.417394) scale(0.1 -0.1)">
       <defs>
        <path id="DejaVuSans-38" d="M 2034 2216 
Q 1584 2216 1326 1975 
Q 1069 1734 1069 1313 
Q 1069 891 1326 650 
Q 1584 409 2034 409 
Q 2484 409 2743 651 
Q 3003 894 3003 1313 
Q 3003 1734 2745 1975 
Q 2488 2216 2034 2216 
z
M 1403 2484 
Q 997 2584 770 2862 
Q 544 3141 544 3541 
Q 544 4100 942 4425 
Q 1341 4750 2034 4750 
Q 2731 4750 3128 4425 
Q 3525 4100 3525 3541 
Q 3525 3141 3298 2862 
Q 3072 2584 2669 2484 
Q 3125 2378 3379 2068 
Q 3634 1759 3634 1313 
Q 3634 634 3220 271 
Q 2806 -91 2034 -91 
Q 1263 -91 848 271 
Q 434 634 434 1313 
Q 434 1759 690 2068 
Q 947 2378 1403 2484 
z
M 1172 3481 
Q 1172 3119 1398 2916 
Q 1625 2713 2034 2713 
Q 2441 2713 2670 2916 
Q 2900 3119 2900 3481 
Q 2900 3844 2670 4047 
Q 2441 4250 2034 4250 
Q 1625 4250 1398 4047 
Q 1172 3844 1172 3481 
z
" transform="scale(0.015625)"/>
       </defs>
       <use xlink:href="#DejaVuSans-38"/>
      </g>
     </g>
    </g>
    <g id="xtick_6">
     <g id="line2d_6">
      <g>
       <use xlink:href="#m391815f4a6" x="452.386994" y="172.818957" style="stroke: #000000; stroke-width: 0.8"/>
      </g>
     </g>
     <g id="text_5">
      <!-- 10 -->
      <g transform="translate(446.024494 187.417394) scale(0.1 -0.1)">
       <defs>
        <path id="DejaVuSans-31" d="M 794 531 
L 1825 531 
L 1825 4091 
L 703 3866 
L 703 4441 
L 1819 4666 
L 2450 4666 
L 2450 531 
L 3481 531 
L 3481 0 
L 794 0 
L 794 531 
z
" transform="scale(0.015625)"/>
        <path id="DejaVuSans-30" d="M 2034 4250 
Q 1547 4250 1301 3770 
Q 1056 3291 1056 2328 
Q 1056 1369 1301 889 
Q 1547 409 2034 409 
Q 2525 409 2770 889 
Q 3016 1369 3016 2328 
Q 3016 3291 2770 3770 
Q 2525 4250 2034 4250 
z
M 2034 4750 
Q 2819 4750 3233 4129 
Q 3647 3509 3647 2328 
Q 3647 1150 3233 529 
Q 2819 -91 2034 -91 
Q 1250 -91 836 529 
Q 422 1150 422 2328 
Q 422 3509 836 4129 
Q 1250 4750 2034 4750 
z
" transform="scale(0.015625)"/>
       </defs>
       <use xlink:href="#DejaVuSans-31"/>
       <use xlink:href="#DejaVuSans-30" transform="translate(63.623047 0)"/>
      </g>
     </g>
    </g>
    <g id="xtick_7">
     <g id="line2d_7">
      <defs>
       <path id="mc2c59ca6f0" d="M 0 0 
L 0 2 
" style="stroke: #000000; stroke-width: 0.6"/>
      </defs>
      <g>
       <use xlink:href="#mc2c59ca6f0" x="52.769219" y="172.818957" style="stroke: #000000; stroke-width: 0.6"/>
      </g>
     </g>
    </g>
    <g id="xtick_8">
     <g id="line2d_8">
      <g>
       <use xlink:href="#mc2c59ca6f0" x="73.801733" y="172.818957" style="stroke: #000000; stroke-width: 0.6"/>
      </g>
     </g>
    </g>
    <g id="xtick_9">
     <g id="line2d_9">
      <g>
       <use xlink:href="#mc2c59ca6f0" x="94.834248" y="172.818957" style="stroke: #000000; stroke-width: 0.6"/>
      </g>
     </g>
    </g>
    <g id="xtick_10">
     <g id="line2d_10">
      <g>
       <use xlink:href="#mc2c59ca6f0" x="136.899277" y="172.818957" style="stroke: #000000; stroke-width: 0.6"/>
      </g>
     </g>
    </g>
    <g id="xtick_11">
     <g id="line2d_11">
      <g>
       <use xlink:href="#mc2c59ca6f0" x="157.931791" y="172.818957" style="stroke: #000000; stroke-width: 0.6"/>
      </g>
     </g>
    </g>
    <g id="xtick_12">
     <g id="line2d_12">
      <g>
       <use xlink:href="#mc2c59ca6f0" x="178.964306" y="172.818957" style="stroke: #000000; stroke-width: 0.6"/>
      </g>
     </g>
    </g>
    <g id="xtick_13">
     <g id="line2d_13">
      <g>
       <use xlink:href="#mc2c59ca6f0" x="221.029335" y="172.818957" style="stroke: #000000; stroke-width: 0.6"/>
      </g>
     </g>
    </g>
    <g id="xtick_14">
     <g id="line2d_14">
      <g>
       <use xlink:href="#mc2c59ca6f0" x="242.061849" y="172.818957" style="stroke: #000000; stroke-width: 0.6"/>
      </g>
     </g>
    </g>
    <g id="xtick_15">
     <g id="line2d_15">
      <g>
       <use xlink:href="#mc2c59ca6f0" x="263.094364" y="172.818957" style="stroke: #000000; stroke-width: 0.6"/>
      </g>
     </g>
    </g>
    <g id="xtick_16">
     <g id="line2d_16">
      <g>
       <use xlink:href="#mc2c59ca6f0" x="305.159393" y="172.818957" style="stroke: #000000; stroke-width: 0.6"/>
      </g>
     </g>
    </g>
    <g id="xtick_17">
     <g id="line2d_17">
      <g>
       <use xlink:href="#mc2c59ca6f0" x="326.191907" y="172.818957" style="stroke: #000000; stroke-width: 0.6"/>
      </g>
     </g>
    </g>
    <g id="xtick_18">
     <g id="line2d_18">
      <g>
       <use xlink:href="#mc2c59ca6f0" x="347.224422" y="172.818957" style="stroke: #000000; stroke-width: 0.6"/>
      </g>
     </g>
    </g>
    <g id="xtick_19">
     <g id="line2d_19">
      <g>
       <use xlink:href="#mc2c59ca6f0" x="389.289451" y="172.818957" style="stroke: #000000; stroke-width: 0.6"/>
      </g>
     </g>
    </g>
    <g id="xtick_20">
     <g id="line2d_20">
      <g>
       <use xlink:href="#mc2c59ca6f0" x="410.321965" y="172.818957" style="stroke: #000000; stroke-width: 0.6"/>
      </g>
     </g>
    </g>
    <g id="xtick_21">
     <g id="line2d_21">
      <g>
       <use xlink:href="#mc2c59ca6f0" x="431.35448" y="172.818957" style="stroke: #000000; stroke-width: 0.6"/>
      </g>
     </g>
    </g>
   </g>
   <g id="matplotlib.axis_2">
    <g id="ytick_1">
     <g id="line2d_22">
      <defs>
       <path id="mba7d53399c" d="M 0 0 
L -3.5 0 
" style="stroke: #000000; stroke-width: 0.8"/>
      </defs>
      <g>
       <use xlink:href="#mba7d53399c" x="31.736704" y="339.061252" style="stroke: #000000; stroke-width: 0.8"/>
      </g>
     </g>
     <g id="text_6">
      <!-- −1.0 -->
      <g transform="translate(0.453892 342.860471) scale(0.1 -0.1)">
       <defs>
        <path id="DejaVuSans-2212" d="M 678 2272 
L 4684 2272 
L 4684 1741 
L 678 1741 
L 678 2272 
z
" transform="scale(0.015625)"/>
        <path id="DejaVuSans-2e" d="M 684 794 
L 1344 794 
L 1344 0 
L 684 0 
L 684 794 
z
" transform="scale(0.015625)"/>
       </defs>
       <use xlink:href="#DejaVuSans-2212"/>
       <use xlink:href="#DejaVuSans-31" transform="translate(83.789062 0)"/>
       <use xlink:href="#DejaVuSans-2e" transform="translate(147.412109 0)"/>
       <use xlink:href="#DejaVuSans-30" transform="translate(179.199219 0)"/>
      </g>
     </g>
    </g>
    <g id="ytick_2">
     <g id="line2d_23">
      <g>
       <use xlink:href="#mba7d53399c" x="31.736704" y="255.940104" style="stroke: #000000; stroke-width: 0.8"/>
      </g>
     </g>
     <g id="text_7">
      <!-- −0.5 -->
      <g transform="translate(0.453892 259.739323) scale(0.1 -0.1)">
       <defs>
        <path id="DejaVuSans-35" d="M 691 4666 
L 3169 4666 
L 3169 4134 
L 1269 4134 
L 1269 2991 
Q 1406 3038 1543 3061 
Q 1681 3084 1819 3084 
Q 2600 3084 3056 2656 
Q 3513 2228 3513 1497 
Q 3513 744 3044 326 
Q 2575 -91 1722 -91 
Q 1428 -91 1123 -41 
Q 819 9 494 109 
L 494 744 
Q 775 591 1075 516 
Q 1375 441 1709 441 
Q 2250 441 2565 725 
Q 2881 1009 2881 1497 
Q 2881 1984 2565 2268 
Q 2250 2553 1709 2553 
Q 1456 2553 1204 2497 
Q 953 2441 691 2322 
L 691 4666 
z
" transform="scale(0.015625)"/>
       </defs>
       <use xlink:href="#DejaVuSans-2212"/>
       <use xlink:href="#DejaVuSans-30" transform="translate(83.789062 0)"/>
       <use xlink:href="#DejaVuSans-2e" transform="translate(147.412109 0)"/>
       <use xlink:href="#DejaVuSans-35" transform="translate(179.199219 0)"/>
      </g>
     </g>
    </g>
    <g id="ytick_3">
     <g id="line2d_24">
      <g>
       <use xlink:href="#mba7d53399c" x="31.736704" y="172.818957" style="stroke: #000000; stroke-width: 0.8"/>
      </g>
     </g>
    </g>
    <g id="ytick_4">
     <g id="line2d_25">
      <g>
       <use xlink:href="#mba7d53399c" x="31.736704" y="89.697809" style="stroke: #000000; stroke-width: 0.8"/>
      </g>
     </g>
     <g id="text_8">
      <!-- 0.5 -->
      <g transform="translate(8.833579 93.497028) scale(0.1 -0.1)">
       <use xlink:href="#DejaVuSans-30"/>
       <use xlink:href="#DejaVuSans-2e" transform="translate(63.623047 0)"/>
       <use xlink:href="#DejaVuSans-35" transform="translate(95.410156 0)"/>
      </g>
     </g>
    </g>
    <g id="ytick_5">
     <g id="line2d_26">
      <g>
       <use xlink:href="#mba7d53399c" x="31.736704" y="6.576662" style="stroke: #000000; stroke-width: 0.8"/>
      </g>
     </g>
     <g id="text_9">
      <!-- 1.0 -->
      <g transform="translate(8.833579 10.37588) scale(0.1 -0.1)">
       <use xlink:href="#DejaVuSans-31"/>
       <use xlink:href="#DejaVuSans-2e" transform="translate(63.623047 0)"/>
       <use xlink:href="#DejaVuSans-30" transform="translate(95.410156 0)"/>
      </g>
     </g>
    </g>
    <g id="ytick_6">
     <g id="line2d_27">
      <defs>
       <path id="m120eeeed69" d="M 0 0 
L -2 0 
" style="stroke: #000000; stroke-width: 0.6"/>
      </defs>
      <g>
       <use xlink:href="#m120eeeed69" x="31.736704" y="322.437022" style="stroke: #000000; stroke-width: 0.6"/>
      </g>
     </g>
    </g>
    <g id="ytick_7">
     <g id="line2d_28">
      <g>
       <use xlink:href="#m120eeeed69" x="31.736704" y="305.812793" style="stroke: #000000; stroke-width: 0.6"/>
      </g>
     </g>
    </g>
    <g id="ytick_8">
     <g id="line2d_29">
      <g>
       <use xlink:href="#m120eeeed69" x="31.736704" y="289.188563" style="stroke: #000000; stroke-width: 0.6"/>
      </g>
     </g>
    </g>
    <g id="ytick_9">
     <g id="line2d_30">
      <g>
       <use xlink:href="#m120eeeed69" x="31.736704" y="272.564334" style="stroke: #000000; stroke-width: 0.6"/>
      </g>
     </g>
    </g>
    <g id="ytick_10">
     <g id="line2d_31">
      <g>
       <use xlink:href="#m120eeeed69" x="31.736704" y="239.315875" style="stroke: #000000; stroke-width: 0.6"/>
      </g>
     </g>
    </g>
    <g id="ytick_11">
     <g id="line2d_32">
      <g>
       <use xlink:href="#m120eeeed69" x="31.736704" y="222.691645" style="stroke: #000000; stroke-width: 0.6"/>
      </g>
     </g>
    </g>
    <g id="ytick_12">
     <g id="line2d_33">
      <g>
       <use xlink:href="#m120eeeed69" x="31.736704" y="206.067416" style="stroke: #000000; stroke-width: 0.6"/>
      </g>
     </g>
    </g>
    <g id="ytick_13">
     <g id="line2d_34">
      <g>
       <use xlink:href="#m120eeeed69" x="31.736704" y="189.443186" style="stroke: #000000; stroke-width: 0.6"/>
      </g>
     </g>
    </g>
    <g id="ytick_14">
     <g id="line2d_35">
      <g>
       <use xlink:href="#m120eeeed69" x="31.736704" y="156.194727" style="stroke: #000000; stroke-width: 0.6"/>
      </g>
     </g>
    </g>
    <g id="ytick_15">
     <g id="line2d_36">
      <g>
       <use xlink:href="#m120eeeed69" x="31.736704" y="139.570498" style="stroke: #000000; stroke-width: 0.6"/>
      </g>
     </g>
    </g>
    <g id="ytick_16">
     <g id="line2d_37">
      <g>
       <use xlink:href="#m120eeeed69" x="31.736704" y="122.946268" style="stroke: #000000; stroke-width: 0.6"/>
      </g>
     </g>
    </g>
    <g id="ytick_17">
     <g id="line2d_38">
      <g>
       <use xlink:href="#m120eeeed69" x="31.736704" y="106.322039" style="stroke: #000000; stroke-width: 0.6"/>
      </g>
     </g>
    </g>
    <g id="ytick_18">
     <g id="line2d_39">
      <g>
       <use xlink:href="#m120eeeed69" x="31.736704" y="73.07358" style="stroke: #000000; stroke-width: 0.6"/>
      </g>
     </g>
    </g>
    <g id="ytick_19">
     <g id="line2d_40">
      <g>
       <use xlink:href="#m120eeeed69" x="31.736704" y="56.44935" style="stroke: #000000; stroke-width: 0.6"/>
      </g>
     </g>
    </g>
    <g id="ytick_20">
     <g id="line2d_41">
      <g>
       <use xlink:href="#m120eeeed69" x="31.736704" y="39.825121" style="stroke: #000000; stroke-width: 0.6"/>
      </g>
     </g>
    </g>
    <g id="ytick_21">
     <g id="line2d_42">
      <g>
       <use xlink:href="#m120eeeed69" x="31.736704" y="23.200891" style="stroke: #000000; stroke-width: 0.6"/>
      </g>
     </g>
    </g>
   </g>
   <g id="line2d_43">
    <defs>
     <path id="m2ad0d95a75" d="M 2.795306 -2.857888 
L 2.594524 -2.632334 
Q 2.410691 -2.423729 1.726206 -1.526728 
Q 1.043025 -0.629726 0.783572 -0.246415 
Q 0.375489 0.346806 -1.168188 2.808344 
Q -1.293351 3 -1.501956 3 
L -2.036506 3 
Q -2.186441 3 -2.491525 2.174707 
Q -2.795306 1.34811 -2.795306 1.022164 
Q -2.795306 0.880052 -2.670143 0.805737 
L -2.169492 0.529335 
Q -2.070404 0.479791 -1.960887 0.479791 
Q -1.869622 0.479791 -1.778357 0.676662 
Q -1.685789 0.872229 -1.586701 1.126467 
Q -1.48631 1.380704 -1.393742 1.473272 
L 0.608866 -1.522816 
Q 1.301173 -2.548892 1.65189 -2.732725 
Q 2.076923 -2.958279 2.753585 -3 
L 2.795306 -2.857888 
z
" style="stroke: #0000ff"/>
    </defs>
    <g clip-path="url(#p0c63c1844a)">
     <use xlink:href="#m2ad0d95a75" x="31.736704" y="172.818957" style="fill: #0000ff; stroke: #0000ff"/>
     <use xlink:href="#m2ad0d95a75" x="46.657674" y="115.079635" style="fill: #0000ff; stroke: #0000ff"/>
     <use xlink:href="#m2ad0d95a75" x="55.379247" y="84.225143" style="fill: #0000ff; stroke: #0000ff"/>
     <use xlink:href="#m2ad0d95a75" x="64.100821" y="57.1655" style="fill: #0000ff; stroke: #0000ff"/>
     <use xlink:href="#m2ad0d95a75" x="72.822395" y="35.059783" style="fill: #0000ff; stroke: #0000ff"/>
     <use xlink:href="#m2ad0d95a75" x="81.543968" y="18.854874" style="fill: #0000ff; stroke: #0000ff"/>
     <use xlink:href="#m2ad0d95a75" x="90.273395" y="9.239364" style="fill: #0000ff; stroke: #0000ff"/>
     <use xlink:href="#m2ad0d95a75" x="94.638109" y="7.049735" style="fill: #0000ff; stroke: #0000ff"/>
     <use xlink:href="#m2ad0d95a75" x="99.002822" y="6.643238" style="fill: #0000ff; stroke: #0000ff"/>
     <use xlink:href="#m2ad0d95a75" x="106.46925" y="10.084713" style="fill: #0000ff; stroke: #0000ff"/>
     <use xlink:href="#m2ad0d95a75" x="113.935679" y="18.639731" style="fill: #0000ff; stroke: #0000ff"/>
     <use xlink:href="#m2ad0d95a75" x="121.540396" y="32.330901" style="fill: #0000ff; stroke: #0000ff"/>
     <use xlink:href="#m2ad0d95a75" x="129.145113" y="50.60117" style="fill: #0000ff; stroke: #0000ff"/>
     <use xlink:href="#m2ad0d95a75" x="136.74983" y="72.855032" style="fill: #0000ff; stroke: #0000ff"/>
     <use xlink:href="#m2ad0d95a75" x="144.354546" y="98.36714" style="fill: #0000ff; stroke: #0000ff"/>
     <use xlink:href="#m2ad0d95a75" x="159.017176" y="153.612728" style="fill: #0000ff; stroke: #0000ff"/>
     <use xlink:href="#m2ad0d95a75" x="173.679805" y="211.168368" style="fill: #0000ff; stroke: #0000ff"/>
     <use xlink:href="#m2ad0d95a75" x="184.243854" y="250.163117" style="fill: #0000ff; stroke: #0000ff"/>
     <use xlink:href="#m2ad0d95a75" x="191.30405" y="273.658851" style="fill: #0000ff; stroke: #0000ff"/>
     <use xlink:href="#m2ad0d95a75" x="198.364246" y="294.32056" style="fill: #0000ff; stroke: #0000ff"/>
     <use xlink:href="#m2ad0d95a75" x="204.992927" y="310.620913" style="fill: #0000ff; stroke: #0000ff"/>
     <use xlink:href="#m2ad0d95a75" x="211.621608" y="323.506441" style="fill: #0000ff; stroke: #0000ff"/>
     <use xlink:href="#m2ad0d95a75" x="218.250289" y="332.657834" style="fill: #0000ff; stroke: #0000ff"/>
     <use xlink:href="#m2ad0d95a75" x="224.87897" y="337.848312" style="fill: #0000ff; stroke: #0000ff"/>
     <use xlink:href="#m2ad0d95a75" x="232.298865" y="338.805114" style="fill: #0000ff; stroke: #0000ff"/>
     <use xlink:href="#m2ad0d95a75" x="239.718759" y="334.610832" style="fill: #0000ff; stroke: #0000ff"/>
     <use xlink:href="#m2ad0d95a75" x="247.138654" y="325.395629" style="fill: #0000ff; stroke: #0000ff"/>
     <use xlink:href="#m2ad0d95a75" x="254.558548" y="311.44548" style="fill: #0000ff; stroke: #0000ff"/>
     <use xlink:href="#m2ad0d95a75" x="260.893316" y="296.110699" style="fill: #0000ff; stroke: #0000ff"/>
     <use xlink:href="#m2ad0d95a75" x="267.228084" y="277.985096" style="fill: #0000ff; stroke: #0000ff"/>
     <use xlink:href="#m2ad0d95a75" x="276.847278" y="246.061467" style="fill: #0000ff; stroke: #0000ff"/>
     <use xlink:href="#m2ad0d95a75" x="286.466472" y="210.324504" style="fill: #0000ff; stroke: #0000ff"/>
     <use xlink:href="#m2ad0d95a75" x="304.233989" y="140.636879" style="fill: #0000ff; stroke: #0000ff"/>
     <use xlink:href="#m2ad0d95a75" x="313.117748" y="107.162632" style="fill: #0000ff; stroke: #0000ff"/>
     <use xlink:href="#m2ad0d95a75" x="322.001507" y="76.605899" style="fill: #0000ff; stroke: #0000ff"/>
     <use xlink:href="#m2ad0d95a75" x="327.518817" y="59.701531" style="fill: #0000ff; stroke: #0000ff"/>
     <use xlink:href="#m2ad0d95a75" x="333.036127" y="44.740371" style="fill: #0000ff; stroke: #0000ff"/>
     <use xlink:href="#m2ad0d95a75" x="342.083811" y="25.071315" style="fill: #0000ff; stroke: #0000ff"/>
     <use xlink:href="#m2ad0d95a75" x="346.607652" y="17.74534" style="fill: #0000ff; stroke: #0000ff"/>
     <use xlink:href="#m2ad0d95a75" x="351.131494" y="12.211174" style="fill: #0000ff; stroke: #0000ff"/>
     <use xlink:href="#m2ad0d95a75" x="355.655335" y="8.532762" style="fill: #0000ff; stroke: #0000ff"/>
     <use xlink:href="#m2ad0d95a75" x="360.179177" y="6.752606" style="fill: #0000ff; stroke: #0000ff"/>
     <use xlink:href="#m2ad0d95a75" x="364.703018" y="6.891275" style="fill: #0000ff; stroke: #0000ff"/>
     <use xlink:href="#m2ad0d95a75" x="369.22686" y="8.947168" style="fill: #0000ff; stroke: #0000ff"/>
     <use xlink:href="#m2ad0d95a75" x="377.082048" y="16.989613" style="fill: #0000ff; stroke: #0000ff"/>
     <use xlink:href="#m2ad0d95a75" x="384.937237" y="30.450291" style="fill: #0000ff; stroke: #0000ff"/>
     <use xlink:href="#m2ad0d95a75" x="394.408242" y="53.20667" style="fill: #0000ff; stroke: #0000ff"/>
     <use xlink:href="#m2ad0d95a75" x="403.879248" y="82.001007" style="fill: #0000ff; stroke: #0000ff"/>
     <use xlink:href="#m2ad0d95a75" x="413.475525" y="115.844623" style="fill: #0000ff; stroke: #0000ff"/>
     <use xlink:href="#m2ad0d95a75" x="423.071802" y="152.640523" style="fill: #0000ff; stroke: #0000ff"/>
     <use xlink:href="#m2ad0d95a75" x="437.729398" y="210.195633" style="fill: #0000ff; stroke: #0000ff"/>
     <use xlink:href="#m2ad0d95a75" x="445.058196" y="237.709323" style="fill: #0000ff; stroke: #0000ff"/>
     <use xlink:href="#m2ad0d95a75" x="452.386994" y="263.258275" style="fill: #0000ff; stroke: #0000ff"/>
    </g>
   </g>
   <g id="patch_3">
    <path d="M 31.736704 345.448352 
L 31.736704 -0 
" style="fill: none; stroke: #000000; stroke-width: 0.8; stroke-linejoin: miter; stroke-linecap: square"/>
   </g>
   <g id="patch_4">
    <path d="M 23.323698 172.818957 
L 460.8 172.818957 
" style="fill: none; stroke: #000000; stroke-width: 0.8; stroke-linejoin: miter; stroke-linecap: square"/>
   </g>
  </g>
 </g>
 <defs>
  <clipPath id="p0c63c1844a">
   <rect x="23.323698" y="0" width="437.476302" height="345.448352"/>
  </clipPath>
 </defs>
</svg>
