<?xml version="1.0" encoding="utf-8" standalone="no"?>
<!DOCTYPE svg PUBLIC "-//W3C//DTD SVG 1.1//EN"
  "http://www.w3.org/Graphics/SVG/1.1/DTD/svg11.dtd">
<svg xmlns:xlink="http://www.w3.org/1999/xlink" width="460.8pt" height="345.6pt" viewBox="0 0 460.8 345.6" xmlns="http://www.w3.org/2000/svg" version="1.1">
 <metadata>
  <rdf:RDF xmlns:dc="http://purl.org/dc/elements/1.1/" xmlns:cc="http://creativecommons.org/ns#" xmlns:rdf="http://www.w3.org/1999/02/22-rdf-syntax-ns#">
   <cc:Work>
    <dc:type rdf:resource="http://purl.org/dc/dcmitype/StillImage"/>
    <dc:date>2025-08-01T22:08:52.326635</dc:date>
    <dc:format>image/svg+xml</dc:format>
    <dc:creator>
     <cc:Agent>
      <dc:title>Matplotlib v3.10.3, https://matplotlib.org/</dc:title>
     </cc:Agent>
    </dc:creator>
   </cc:Work>
  </rdf:RDF>
 </metadata>
 <defs>
  <style type="text/css">*{stroke-linejoin: round; stroke-linecap: butt}</style>
 </defs>
 <g id="figure_1">
  <g id="patch_1">
   <path d="M 0 345.6 
L 460.8 345.6 
L 460.8 0 
L 0 0 
z
" style="fill: #ffffff"/>
  </g>
  <g id="axes_1">
   <g id="patch_2">
    <path d="M 65.286564 345.6 
L 395.513436 345.6 
L 395.513436 0 
L 65.286564 0 
z
" style="fill: #ffffff"/>
   </g>
   <g id="patch_3">
    <path d="M 389.16292 172.770149 
L 388.911111 170.22733 
L 388.157423 167.722558 
L 386.984524 165.41794 
L 385.740152 163.657523 
L 384.223872 161.975526 
L 382.008376 160.047027 
L 379.40797 158.285421 
L 377.460297 157.212651 
L 375.352083 156.233591 
L 371.790391 154.921069 
L 368.17577 153.94082 
L 364.280938 153.207402 
L 360.945619 152.806844 
L 357.452621 152.586283 
L 353.616897 152.556663 
L 349.634317 152.742464 
L 343.907692 153.367376 
L 336.948263 154.656708 
L 330.378673 156.379843 
L 317.593655 161.100372 
L 311.310186 164.086425 
L 296.576713 172.916674 
L 290.129789 177.663744 
L 281.362115 185.116055 
L 277.736254 188.576882 
L 272.757734 193.742787 
L 268.010243 199.176074 
L 264.567257 203.474763 
L 261.281952 207.902511 
L 257.989506 212.711625 
L 254.893483 217.636444 
L 251.121787 224.289039 
L 247.725569 231.078686 
L 246.338182 234.135641 
L 244.240859 239.162294 
L 242.356574 244.216323 
L 240.087941 251.287174 
L 238.498356 257.26492 
L 237.214909 263.202363 
L 236.391751 268.012119 
L 235.771166 272.763306 
L 235.363397 277.260723 
L 235.137501 281.678874 
L 235.122134 287.798693 
L 235.453951 293.700491 
L 236.313156 300.601489 
L 237.771675 307.599352 
L 239.911095 314.524797 
L 241.744763 318.989169 
L 243.80648 323.048302 
L 248.103771 329.40422 
L 251.000192 332.554284 
L 253.791404 334.922158 
L 259.033096 337.860368 
L 263.778833 338.94693 
L 265.649707 338.953846 
L 268.372861 338.491844 
L 270.993694 337.434363 
L 273.383895 335.803827 
L 275.722318 333.334586 
L 277.348752 330.806083 
L 278.665756 327.860688 
L 279.721452 324.173221 
L 279.959649 322.941105 
L 280.428233 318.621438 
L 280.392435 313.918092 
L 280.036305 310.302191 
L 279.393104 306.531968 
L 278.789901 303.897729 
L 277.352717 299.007589 
L 275.461189 293.978678 
L 273.307397 289.246697 
L 270.762059 284.462956 
L 269.628946 282.532675 
L 266.512312 277.691793 
L 263.007468 272.876675 
L 260.282014 269.484075 
L 257.368249 266.132144 
L 252.45414 261.007025 
L 247.112957 256.049106 
L 243.749493 253.200695 
L 237.409435 248.320753 
L 230.202505 243.442594 
L 222.588729 238.951733 
L 218.371901 236.725714 
L 209.419421 232.557739 
L 196.653747 227.804287 
L 188.413085 225.416973 
L 173.674669 222.393713 
L 160.022671 220.975106 
L 147.49758 220.847249 
L 139.820359 221.345242 
L 133.727266 222.069401 
L 127.806034 223.068516 
L 122.895493 224.132295 
L 118.143377 225.379739 
L 113.487725 226.826796 
L 108.092403 228.81089 
L 102.309581 231.353647 
L 96.960053 234.158667 
L 92.766207 236.727114 
L 89.717745 238.842839 
L 86.892545 241.031721 
L 83.962745 243.589644 
L 81.33568 246.206313 
L 78.960643 248.932182 
L 76.915469 251.677813 
L 75.256006 254.328565 
L 73.908811 256.957749 
L 72.98453 259.229793 
L 72.299464 261.456834 
L 71.874473 263.482607 
L 71.654177 265.447198 
L 71.675078 267.965118 
L 72.0503 270.330105 
L 72.401253 271.548536 
L 72.970911 272.969267 
L 73.689219 274.297815 
L 75.554678 276.65227 
L 77.123007 277.994135 
L 78.924893 279.118776 
L 80.977154 280.024106 
L 83.23986 280.679472 
L 86.665264 281.151434 
L 89.788632 281.14652 
L 93.110097 280.761922 
L 96.045963 280.133969 
L 104.196149 277.127452 
L 105.534617 276.465886 
L 112.281079 272.424527 
L 119.603435 266.656664 
L 127.025403 259.165336 
L 133.300948 251.261423 
L 134.764425 249.167243 
L 139.04829 242.367379 
L 142.981338 235.032664 
L 147.028329 225.93979 
L 149.406231 219.513904 
L 151.86243 211.531037 
L 153.448625 205.192792 
L 154.755248 198.722001 
L 155.903219 191.131294 
L 156.432037 186.215294 
L 156.797368 181.269155 
L 157.039036 172.320967 
L 156.929349 167.032749 
L 156.632581 161.759098 
L 156.149974 156.513387 
L 155.483551 151.30889 
L 155.377665 150.59707 
L 153.660339 141.299604 
L 151.370386 132.264429 
L 148.860104 124.457887 
L 145.920852 116.916194 
L 141.761907 108.100886 
L 138.855759 102.843328 
L 135.765932 97.86905 
L 129.263127 89.008937 
L 124.127985 83.234736 
L 117.895047 77.402775 
L 112.475327 73.249783 
L 104.618114 68.616404 
L 99.147783 66.339195 
L 95.48382 65.266357 
L 93.225562 64.798156 
L 89.501467 64.378086 
L 86.030418 64.435483 
L 83.272031 64.853685 
L 81.007583 65.505203 
L 78.953156 66.406623 
L 76.384513 68.126517 
L 74.544627 70.021997 
L 73.132416 72.238518 
L 72.32215 74.233525 
L 71.856837 76.144663 
L 71.63708 78.173585 
L 71.640707 79.848267 
L 71.803041 81.58033 
L 72.126034 83.362529 
L 72.611257 85.18752 
L 73.39038 87.376801 
L 74.396373 89.602768 
L 75.804066 92.14253 
L 77.500557 94.695834 
L 79.359103 97.095047 
L 81.469454 99.476196 
L 84.385489 102.340762 
L 87.664559 105.131139 
L 91.682754 108.087588 
L 95.831898 110.725702 
L 100.328612 113.203286 
L 104.8216 115.348402 
L 109.176337 117.156306 
L 113.74542 118.799757 
L 118.535014 120.27187 
L 123.51114 121.553588 
L 129.30856 122.753899 
L 135.297462 123.686277 
L 139.16949 124.131885 
L 148.680013 124.730085 
L 165.956784 124.110862 
L 175.134271 122.916744 
L 186.404834 120.628027 
L 198.221773 117.222854 
L 202.661997 115.664266 
L 213.621332 111.117161 
L 219.617546 108.175343 
L 225.428646 104.987222 
L 231.591404 101.207894 
L 237.47353 97.17313 
L 239.859788 95.404154 
L 246.212777 90.272772 
L 252.091447 84.888625 
L 253.678095 83.312133 
L 257.658585 79.085582 
L 261.336465 74.775692 
L 264.295068 70.960019 
L 267.010416 67.114769 
L 270.202924 62.042955 
L 272.020661 58.799119 
L 273.659524 55.571246 
L 275.119121 52.369293 
L 276.399611 49.203203 
L 277.951946 44.656204 
L 279.223222 39.807082 
L 279.782263 36.920318 
L 280.175151 34.116511 
L 280.405192 31.404562 
L 280.476177 28.793152 
L 280.425016 26.854252 
L 280.075367 23.316249 
L 279.409555 20.058041 
L 278.460205 17.138424 
L 277.305602 14.654542 
L 275.925336 12.476139 
L 273.943392 10.234402 
L 271.689092 8.506117 
L 267.815973 6.90518 
L 266.320388 6.646154 
L 260.929371 7.067103 
L 257.543255 8.326697 
L 254.184569 10.331877 
L 250.29094 13.6875 
L 245.315681 19.985595 
L 242.203749 25.572732 
L 241.963222 26.079496 
L 239.694497 31.614611 
L 237.826071 37.729257 
L 236.292555 45.064938 
L 235.602889 50.270733 
L 235.197076 55.701309 
L 235.087777 59.78912 
L 235.188045 65.216397 
L 235.568324 70.780392 
L 236.038963 75.011259 
L 236.671523 79.29518 
L 237.729125 84.883571 
L 239.060563 90.521375 
L 240.964267 97.144094 
L 243.24036 103.7688 
L 245.150102 108.62407 
L 247.255814 113.44758 
L 247.854629 114.736648 
L 250.916426 120.864673 
L 254.28476 126.882863 
L 259.070407 134.452395 
L 264.313741 141.735785 
L 269.945242 148.64353 
L 276.952596 156.183264 
L 281.21759 160.290818 
L 287.921801 166.113554 
L 294.863439 171.418227 
L 300.198134 175.043928 
L 306.043227 178.600813 
L 314.82967 183.181416 
L 327.945937 188.400841 
L 335.409771 190.523395 
L 339.916236 191.502309 
L 346.453454 192.50104 
L 352.705681 192.959987 
L 359.419137 192.853678 
L 363.744542 192.410695 
L 367.796577 191.684655 
L 370.742941 190.936325 
L 373.500098 190.037269 
L 375.111588 189.407966 
L 377.26541 188.425509 
L 379.254733 187.346015 
L 381.219494 186.074947 
L 382.978436 184.709032 
L 384.634838 183.14542 
L 386.040466 181.497673 
L 386.937372 180.198351 
L 387.684706 178.86466 
L 388.280886 177.50287 
L 388.724653 176.119321 
L 389.05327 174.450205 
L 389.16292 172.770149 
z
" clip-path="url(#paf12530fc2)" style="fill: #808080; opacity: 0.5"/>
   </g>
   <g id="matplotlib.axis_1">
    <g id="xtick_1">
     <g id="line2d_1">
      <defs>
       <path id="m34a2f9d61b" d="M 0 0 
L 0 3.5 
" style="stroke: #000000; stroke-width: 0.8"/>
      </defs>
      <g>
       <use xlink:href="#m34a2f9d61b" x="99.00891" y="172.770149" style="stroke: #000000; stroke-width: 0.8"/>
      </g>
     </g>
     <g id="text_1">
      <!-- −2 -->
      <g transform="translate(91.637816 187.368586) scale(0.1 -0.1)">
       <defs>
        <path id="DejaVuSans-2212" d="M 678 2272 
L 4684 2272 
L 4684 1741 
L 678 1741 
L 678 2272 
z
" transform="scale(0.015625)"/>
        <path id="DejaVuSans-32" d="M 1228 531 
L 3431 531 
L 3431 0 
L 469 0 
L 469 531 
Q 828 903 1448 1529 
Q 2069 2156 2228 2338 
Q 2531 2678 2651 2914 
Q 2772 3150 2772 3378 
Q 2772 3750 2511 3984 
Q 2250 4219 1831 4219 
Q 1534 4219 1204 4116 
Q 875 4013 500 3803 
L 500 4441 
Q 881 4594 1212 4672 
Q 1544 4750 1819 4750 
Q 2544 4750 2975 4387 
Q 3406 4025 3406 3419 
Q 3406 3131 3298 2873 
Q 3191 2616 2906 2266 
Q 2828 2175 2409 1742 
Q 1991 1309 1228 531 
z
" transform="scale(0.015625)"/>
       </defs>
       <use xlink:href="#DejaVuSans-2212"/>
       <use xlink:href="#DejaVuSans-32" transform="translate(83.789062 0)"/>
      </g>
     </g>
    </g>
    <g id="xtick_2">
     <g id="line2d_2">
      <g>
       <use xlink:href="#m34a2f9d61b" x="157.039712" y="172.770149" style="stroke: #000000; stroke-width: 0.8"/>
      </g>
     </g>
     <g id="text_2">
      <!-- −1 -->
      <g transform="translate(149.668618 187.368586) scale(0.1 -0.1)">
       <defs>
        <path id="DejaVuSans-31" d="M 794 531 
L 1825 531 
L 1825 4091 
L 703 3866 
L 703 4441 
L 1819 4666 
L 2450 4666 
L 2450 531 
L 3481 531 
L 3481 0 
L 794 0 
L 794 531 
z
" transform="scale(0.015625)"/>
       </defs>
       <use xlink:href="#DejaVuSans-2212"/>
       <use xlink:href="#DejaVuSans-31" transform="translate(83.789062 0)"/>
      </g>
     </g>
    </g>
    <g id="xtick_3">
     <g id="line2d_3">
      <g>
       <use xlink:href="#m34a2f9d61b" x="215.070514" y="172.770149" style="stroke: #000000; stroke-width: 0.8"/>
      </g>
     </g>
    </g>
    <g id="xtick_4">
     <g id="line2d_4">
      <g>
       <use xlink:href="#m34a2f9d61b" x="273.101316" y="172.770149" style="stroke: #000000; stroke-width: 0.8"/>
      </g>
     </g>
     <g id="text_3">
      <!-- 1 -->
      <g transform="translate(269.920066 187.368586) scale(0.1 -0.1)">
       <use xlink:href="#DejaVuSans-31"/>
      </g>
     </g>
    </g>
    <g id="xtick_5">
     <g id="line2d_5">
      <g>
       <use xlink:href="#m34a2f9d61b" x="331.132118" y="172.770149" style="stroke: #000000; stroke-width: 0.8"/>
      </g>
     </g>
     <g id="text_4">
      <!-- 2 -->
      <g transform="translate(327.950868 187.368586) scale(0.1 -0.1)">
       <use xlink:href="#DejaVuSans-32"/>
      </g>
     </g>
    </g>
    <g id="xtick_6">
     <g id="line2d_6">
      <g>
       <use xlink:href="#m34a2f9d61b" x="389.16292" y="172.770149" style="stroke: #000000; stroke-width: 0.8"/>
      </g>
     </g>
     <g id="text_5">
      <!-- 3 -->
      <g transform="translate(385.98167 187.368586) scale(0.1 -0.1)">
       <defs>
        <path id="DejaVuSans-33" d="M 2597 2516 
Q 3050 2419 3304 2112 
Q 3559 1806 3559 1356 
Q 3559 666 3084 287 
Q 2609 -91 1734 -91 
Q 1441 -91 1130 -33 
Q 819 25 488 141 
L 488 750 
Q 750 597 1062 519 
Q 1375 441 1716 441 
Q 2309 441 2620 675 
Q 2931 909 2931 1356 
Q 2931 1769 2642 2001 
Q 2353 2234 1838 2234 
L 1294 2234 
L 1294 2753 
L 1863 2753 
Q 2328 2753 2575 2939 
Q 2822 3125 2822 3475 
Q 2822 3834 2567 4026 
Q 2313 4219 1838 4219 
Q 1578 4219 1281 4162 
Q 984 4106 628 3988 
L 628 4550 
Q 988 4650 1302 4700 
Q 1616 4750 1894 4750 
Q 2613 4750 3031 4423 
Q 3450 4097 3450 3541 
Q 3450 3153 3228 2886 
Q 3006 2619 2597 2516 
z
" transform="scale(0.015625)"/>
       </defs>
       <use xlink:href="#DejaVuSans-33"/>
      </g>
     </g>
    </g>
    <g id="xtick_7">
     <g id="line2d_7">
      <defs>
       <path id="mf65a038d12" d="M 0 0 
L 0 2 
" style="stroke: #000000; stroke-width: 0.6"/>
      </defs>
      <g>
       <use xlink:href="#mf65a038d12" x="75.796589" y="172.770149" style="stroke: #000000; stroke-width: 0.6"/>
      </g>
     </g>
    </g>
    <g id="xtick_8">
     <g id="line2d_8">
      <g>
       <use xlink:href="#mf65a038d12" x="87.402749" y="172.770149" style="stroke: #000000; stroke-width: 0.6"/>
      </g>
     </g>
    </g>
    <g id="xtick_9">
     <g id="line2d_9">
      <g>
       <use xlink:href="#mf65a038d12" x="110.61507" y="172.770149" style="stroke: #000000; stroke-width: 0.6"/>
      </g>
     </g>
    </g>
    <g id="xtick_10">
     <g id="line2d_10">
      <g>
       <use xlink:href="#mf65a038d12" x="122.22123" y="172.770149" style="stroke: #000000; stroke-width: 0.6"/>
      </g>
     </g>
    </g>
    <g id="xtick_11">
     <g id="line2d_11">
      <g>
       <use xlink:href="#mf65a038d12" x="133.827391" y="172.770149" style="stroke: #000000; stroke-width: 0.6"/>
      </g>
     </g>
    </g>
    <g id="xtick_12">
     <g id="line2d_12">
      <g>
       <use xlink:href="#mf65a038d12" x="145.433551" y="172.770149" style="stroke: #000000; stroke-width: 0.6"/>
      </g>
     </g>
    </g>
    <g id="xtick_13">
     <g id="line2d_13">
      <g>
       <use xlink:href="#mf65a038d12" x="168.645872" y="172.770149" style="stroke: #000000; stroke-width: 0.6"/>
      </g>
     </g>
    </g>
    <g id="xtick_14">
     <g id="line2d_14">
      <g>
       <use xlink:href="#mf65a038d12" x="180.252032" y="172.770149" style="stroke: #000000; stroke-width: 0.6"/>
      </g>
     </g>
    </g>
    <g id="xtick_15">
     <g id="line2d_15">
      <g>
       <use xlink:href="#mf65a038d12" x="191.858193" y="172.770149" style="stroke: #000000; stroke-width: 0.6"/>
      </g>
     </g>
    </g>
    <g id="xtick_16">
     <g id="line2d_16">
      <g>
       <use xlink:href="#mf65a038d12" x="203.464353" y="172.770149" style="stroke: #000000; stroke-width: 0.6"/>
      </g>
     </g>
    </g>
    <g id="xtick_17">
     <g id="line2d_17">
      <g>
       <use xlink:href="#mf65a038d12" x="226.676674" y="172.770149" style="stroke: #000000; stroke-width: 0.6"/>
      </g>
     </g>
    </g>
    <g id="xtick_18">
     <g id="line2d_18">
      <g>
       <use xlink:href="#mf65a038d12" x="238.282834" y="172.770149" style="stroke: #000000; stroke-width: 0.6"/>
      </g>
     </g>
    </g>
    <g id="xtick_19">
     <g id="line2d_19">
      <g>
       <use xlink:href="#mf65a038d12" x="249.888995" y="172.770149" style="stroke: #000000; stroke-width: 0.6"/>
      </g>
     </g>
    </g>
    <g id="xtick_20">
     <g id="line2d_20">
      <g>
       <use xlink:href="#mf65a038d12" x="261.495155" y="172.770149" style="stroke: #000000; stroke-width: 0.6"/>
      </g>
     </g>
    </g>
    <g id="xtick_21">
     <g id="line2d_21">
      <g>
       <use xlink:href="#mf65a038d12" x="284.707476" y="172.770149" style="stroke: #000000; stroke-width: 0.6"/>
      </g>
     </g>
    </g>
    <g id="xtick_22">
     <g id="line2d_22">
      <g>
       <use xlink:href="#mf65a038d12" x="296.313636" y="172.770149" style="stroke: #000000; stroke-width: 0.6"/>
      </g>
     </g>
    </g>
    <g id="xtick_23">
     <g id="line2d_23">
      <g>
       <use xlink:href="#mf65a038d12" x="307.919797" y="172.770149" style="stroke: #000000; stroke-width: 0.6"/>
      </g>
     </g>
    </g>
    <g id="xtick_24">
     <g id="line2d_24">
      <g>
       <use xlink:href="#mf65a038d12" x="319.525957" y="172.770149" style="stroke: #000000; stroke-width: 0.6"/>
      </g>
     </g>
    </g>
    <g id="xtick_25">
     <g id="line2d_25">
      <g>
       <use xlink:href="#mf65a038d12" x="342.738278" y="172.770149" style="stroke: #000000; stroke-width: 0.6"/>
      </g>
     </g>
    </g>
    <g id="xtick_26">
     <g id="line2d_26">
      <g>
       <use xlink:href="#mf65a038d12" x="354.344438" y="172.770149" style="stroke: #000000; stroke-width: 0.6"/>
      </g>
     </g>
    </g>
    <g id="xtick_27">
     <g id="line2d_27">
      <g>
       <use xlink:href="#mf65a038d12" x="365.950599" y="172.770149" style="stroke: #000000; stroke-width: 0.6"/>
      </g>
     </g>
    </g>
    <g id="xtick_28">
     <g id="line2d_28">
      <g>
       <use xlink:href="#mf65a038d12" x="377.556759" y="172.770149" style="stroke: #000000; stroke-width: 0.6"/>
      </g>
     </g>
    </g>
   </g>
   <g id="matplotlib.axis_2">
    <g id="ytick_1">
     <g id="line2d_29">
      <defs>
       <path id="m7a652a355d" d="M 0 0 
L -3.5 0 
" style="stroke: #000000; stroke-width: 0.8"/>
      </defs>
      <g>
       <use xlink:href="#m7a652a355d" x="215.070514" y="288.831753" style="stroke: #000000; stroke-width: 0.8"/>
      </g>
     </g>
     <g id="text_6">
      <!-- −2 -->
      <g transform="translate(193.328326 292.630971) scale(0.1 -0.1)">
       <use xlink:href="#DejaVuSans-2212"/>
       <use xlink:href="#DejaVuSans-32" transform="translate(83.789062 0)"/>
      </g>
     </g>
    </g>
    <g id="ytick_2">
     <g id="line2d_30">
      <g>
       <use xlink:href="#m7a652a355d" x="215.070514" y="230.800951" style="stroke: #000000; stroke-width: 0.8"/>
      </g>
     </g>
     <g id="text_7">
      <!-- −1 -->
      <g transform="translate(193.328326 234.600169) scale(0.1 -0.1)">
       <use xlink:href="#DejaVuSans-2212"/>
       <use xlink:href="#DejaVuSans-31" transform="translate(83.789062 0)"/>
      </g>
     </g>
    </g>
    <g id="ytick_3">
     <g id="line2d_31">
      <g>
       <use xlink:href="#m7a652a355d" x="215.070514" y="172.770149" style="stroke: #000000; stroke-width: 0.8"/>
      </g>
     </g>
    </g>
    <g id="ytick_4">
     <g id="line2d_32">
      <g>
       <use xlink:href="#m7a652a355d" x="215.070514" y="114.739347" style="stroke: #000000; stroke-width: 0.8"/>
      </g>
     </g>
     <g id="text_8">
      <!-- 1 -->
      <g transform="translate(201.708014 118.538565) scale(0.1 -0.1)">
       <use xlink:href="#DejaVuSans-31"/>
      </g>
     </g>
    </g>
    <g id="ytick_5">
     <g id="line2d_33">
      <g>
       <use xlink:href="#m7a652a355d" x="215.070514" y="56.708545" style="stroke: #000000; stroke-width: 0.8"/>
      </g>
     </g>
     <g id="text_9">
      <!-- 2 -->
      <g transform="translate(201.708014 60.507763) scale(0.1 -0.1)">
       <use xlink:href="#DejaVuSans-32"/>
      </g>
     </g>
    </g>
    <g id="ytick_6">
     <g id="line2d_34">
      <defs>
       <path id="mf6b6fd14e1" d="M 0 0 
L -2 0 
" style="stroke: #000000; stroke-width: 0.6"/>
      </defs>
      <g>
       <use xlink:href="#mf6b6fd14e1" x="215.070514" y="335.256394" style="stroke: #000000; stroke-width: 0.6"/>
      </g>
     </g>
    </g>
    <g id="ytick_7">
     <g id="line2d_35">
      <g>
       <use xlink:href="#mf6b6fd14e1" x="215.070514" y="323.650234" style="stroke: #000000; stroke-width: 0.6"/>
      </g>
     </g>
    </g>
    <g id="ytick_8">
     <g id="line2d_36">
      <g>
       <use xlink:href="#mf6b6fd14e1" x="215.070514" y="312.044073" style="stroke: #000000; stroke-width: 0.6"/>
      </g>
     </g>
    </g>
    <g id="ytick_9">
     <g id="line2d_37">
      <g>
       <use xlink:href="#mf6b6fd14e1" x="215.070514" y="300.437913" style="stroke: #000000; stroke-width: 0.6"/>
      </g>
     </g>
    </g>
    <g id="ytick_10">
     <g id="line2d_38">
      <g>
       <use xlink:href="#mf6b6fd14e1" x="215.070514" y="277.225592" style="stroke: #000000; stroke-width: 0.6"/>
      </g>
     </g>
    </g>
    <g id="ytick_11">
     <g id="line2d_39">
      <g>
       <use xlink:href="#mf6b6fd14e1" x="215.070514" y="265.619432" style="stroke: #000000; stroke-width: 0.6"/>
      </g>
     </g>
    </g>
    <g id="ytick_12">
     <g id="line2d_40">
      <g>
       <use xlink:href="#mf6b6fd14e1" x="215.070514" y="254.013271" style="stroke: #000000; stroke-width: 0.6"/>
      </g>
     </g>
    </g>
    <g id="ytick_13">
     <g id="line2d_41">
      <g>
       <use xlink:href="#mf6b6fd14e1" x="215.070514" y="242.407111" style="stroke: #000000; stroke-width: 0.6"/>
      </g>
     </g>
    </g>
    <g id="ytick_14">
     <g id="line2d_42">
      <g>
       <use xlink:href="#mf6b6fd14e1" x="215.070514" y="219.19479" style="stroke: #000000; stroke-width: 0.6"/>
      </g>
     </g>
    </g>
    <g id="ytick_15">
     <g id="line2d_43">
      <g>
       <use xlink:href="#mf6b6fd14e1" x="215.070514" y="207.58863" style="stroke: #000000; stroke-width: 0.6"/>
      </g>
     </g>
    </g>
    <g id="ytick_16">
     <g id="line2d_44">
      <g>
       <use xlink:href="#mf6b6fd14e1" x="215.070514" y="195.982469" style="stroke: #000000; stroke-width: 0.6"/>
      </g>
     </g>
    </g>
    <g id="ytick_17">
     <g id="line2d_45">
      <g>
       <use xlink:href="#mf6b6fd14e1" x="215.070514" y="184.376309" style="stroke: #000000; stroke-width: 0.6"/>
      </g>
     </g>
    </g>
    <g id="ytick_18">
     <g id="line2d_46">
      <g>
       <use xlink:href="#mf6b6fd14e1" x="215.070514" y="161.163988" style="stroke: #000000; stroke-width: 0.6"/>
      </g>
     </g>
    </g>
    <g id="ytick_19">
     <g id="line2d_47">
      <g>
       <use xlink:href="#mf6b6fd14e1" x="215.070514" y="149.557828" style="stroke: #000000; stroke-width: 0.6"/>
      </g>
     </g>
    </g>
    <g id="ytick_20">
     <g id="line2d_48">
      <g>
       <use xlink:href="#mf6b6fd14e1" x="215.070514" y="137.951667" style="stroke: #000000; stroke-width: 0.6"/>
      </g>
     </g>
    </g>
    <g id="ytick_21">
     <g id="line2d_49">
      <g>
       <use xlink:href="#mf6b6fd14e1" x="215.070514" y="126.345507" style="stroke: #000000; stroke-width: 0.6"/>
      </g>
     </g>
    </g>
    <g id="ytick_22">
     <g id="line2d_50">
      <g>
       <use xlink:href="#mf6b6fd14e1" x="215.070514" y="103.133186" style="stroke: #000000; stroke-width: 0.6"/>
      </g>
     </g>
    </g>
    <g id="ytick_23">
     <g id="line2d_51">
      <g>
       <use xlink:href="#mf6b6fd14e1" x="215.070514" y="91.527026" style="stroke: #000000; stroke-width: 0.6"/>
      </g>
     </g>
    </g>
    <g id="ytick_24">
     <g id="line2d_52">
      <g>
       <use xlink:href="#mf6b6fd14e1" x="215.070514" y="79.920865" style="stroke: #000000; stroke-width: 0.6"/>
      </g>
     </g>
    </g>
    <g id="ytick_25">
     <g id="line2d_53">
      <g>
       <use xlink:href="#mf6b6fd14e1" x="215.070514" y="68.314705" style="stroke: #000000; stroke-width: 0.6"/>
      </g>
     </g>
    </g>
    <g id="ytick_26">
     <g id="line2d_54">
      <g>
       <use xlink:href="#mf6b6fd14e1" x="215.070514" y="45.102384" style="stroke: #000000; stroke-width: 0.6"/>
      </g>
     </g>
    </g>
    <g id="ytick_27">
     <g id="line2d_55">
      <g>
       <use xlink:href="#mf6b6fd14e1" x="215.070514" y="33.496224" style="stroke: #000000; stroke-width: 0.6"/>
      </g>
     </g>
    </g>
    <g id="ytick_28">
     <g id="line2d_56">
      <g>
       <use xlink:href="#mf6b6fd14e1" x="215.070514" y="21.890063" style="stroke: #000000; stroke-width: 0.6"/>
      </g>
     </g>
    </g>
    <g id="ytick_29">
     <g id="line2d_57">
      <g>
       <use xlink:href="#mf6b6fd14e1" x="215.070514" y="10.283903" style="stroke: #000000; stroke-width: 0.6"/>
      </g>
     </g>
    </g>
   </g>
   <g id="line2d_58">
    <path d="M 389.16292 172.770149 
L 388.911111 170.22733 
L 388.157423 167.722558 
L 386.984524 165.41794 
L 385.740152 163.657523 
L 384.223872 161.975526 
L 382.008376 160.047027 
L 379.40797 158.285421 
L 377.460297 157.212651 
L 375.352083 156.233591 
L 371.790391 154.921069 
L 368.17577 153.94082 
L 364.280938 153.207402 
L 360.945619 152.806844 
L 357.452621 152.586283 
L 353.616897 152.556663 
L 349.634317 152.742464 
L 343.907692 153.367376 
L 336.948263 154.656708 
L 330.378673 156.379843 
L 317.593655 161.100372 
L 311.310186 164.086425 
L 296.576713 172.916674 
L 290.129789 177.663744 
L 281.362115 185.116055 
L 277.736254 188.576882 
L 272.757734 193.742787 
L 268.010243 199.176074 
L 264.567257 203.474763 
L 261.281952 207.902511 
L 257.989506 212.711625 
L 254.893483 217.636444 
L 251.121787 224.289039 
L 247.725569 231.078686 
L 246.338182 234.135641 
L 244.240859 239.162294 
L 242.356574 244.216323 
L 240.087941 251.287174 
L 238.498356 257.26492 
L 237.214909 263.202363 
L 236.391751 268.012119 
L 235.771166 272.763306 
L 235.363397 277.260723 
L 235.137501 281.678874 
L 235.122134 287.798693 
L 235.453951 293.700491 
L 236.313156 300.601489 
L 237.771675 307.599352 
L 239.911095 314.524797 
L 241.744763 318.989169 
L 243.80648 323.048302 
L 248.103771 329.40422 
L 251.000192 332.554284 
L 253.791404 334.922158 
L 259.033096 337.860368 
L 263.778833 338.94693 
L 265.649707 338.953846 
L 268.372861 338.491844 
L 270.993694 337.434363 
L 273.383895 335.803827 
L 275.722318 333.334586 
L 277.348752 330.806083 
L 278.665756 327.860688 
L 279.959649 322.941105 
L 280.428233 318.621438 
L 280.392435 313.918092 
L 280.036305 310.302191 
L 279.393104 306.531968 
L 278.789901 303.897729 
L 277.352717 299.007589 
L 275.461189 293.978678 
L 273.307397 289.246697 
L 269.628946 282.532675 
L 266.512312 277.691793 
L 263.007468 272.876675 
L 260.282014 269.484075 
L 257.368249 266.132144 
L 252.45414 261.007025 
L 247.112957 256.049106 
L 243.749493 253.200695 
L 237.409435 248.320753 
L 230.202505 243.442594 
L 222.588729 238.951733 
L 218.371901 236.725714 
L 209.419421 232.557739 
L 196.653747 227.804287 
L 188.413085 225.416973 
L 173.674669 222.393713 
L 160.022671 220.975106 
L 147.49758 220.847249 
L 139.820359 221.345242 
L 133.727266 222.069401 
L 127.806034 223.068516 
L 122.895493 224.132295 
L 118.143377 225.379739 
L 113.487725 226.826796 
L 108.092403 228.81089 
L 102.309581 231.353647 
L 96.960053 234.158667 
L 92.766207 236.727114 
L 89.717745 238.842839 
L 86.892545 241.031721 
L 83.962745 243.589644 
L 81.33568 246.206313 
L 78.960643 248.932182 
L 76.915469 251.677813 
L 75.256006 254.328565 
L 73.908811 256.957749 
L 72.98453 259.229793 
L 72.299464 261.456834 
L 71.874473 263.482607 
L 71.654177 265.447198 
L 71.675078 267.965118 
L 72.0503 270.330105 
L 72.401253 271.548536 
L 72.970911 272.969267 
L 73.689219 274.297815 
L 75.554678 276.65227 
L 77.123007 277.994135 
L 78.924893 279.118776 
L 80.977154 280.024106 
L 83.23986 280.679472 
L 86.665264 281.151434 
L 89.788632 281.14652 
L 93.110097 280.761922 
L 96.045963 280.133969 
L 104.196149 277.127452 
L 105.534617 276.465886 
L 112.281079 272.424527 
L 119.603435 266.656664 
L 127.025403 259.165336 
L 133.300948 251.261423 
L 134.764425 249.167243 
L 139.04829 242.367379 
L 142.981338 235.032664 
L 147.028329 225.93979 
L 149.406231 219.513904 
L 151.86243 211.531037 
L 153.448625 205.192792 
L 154.755248 198.722001 
L 155.903219 191.131294 
L 156.432037 186.215294 
L 156.797368 181.269155 
L 157.039036 172.320967 
L 156.929349 167.032749 
L 156.632581 161.759098 
L 156.149974 156.513387 
L 155.377665 150.59707 
L 153.660339 141.299604 
L 151.370386 132.264429 
L 148.860104 124.457887 
L 145.920852 116.916194 
L 141.761907 108.100886 
L 138.855759 102.843328 
L 135.765932 97.86905 
L 129.263127 89.008937 
L 124.127985 83.234736 
L 117.895047 77.402775 
L 112.475327 73.249783 
L 104.618114 68.616404 
L 99.147783 66.339195 
L 95.48382 65.266357 
L 93.225562 64.798156 
L 89.501467 64.378086 
L 86.030418 64.435483 
L 83.272031 64.853685 
L 81.007583 65.505203 
L 78.953156 66.406623 
L 76.384513 68.126517 
L 74.544627 70.021997 
L 73.132416 72.238518 
L 72.32215 74.233525 
L 71.856837 76.144663 
L 71.63708 78.173585 
L 71.640707 79.848267 
L 71.803041 81.58033 
L 72.126034 83.362529 
L 72.611257 85.18752 
L 73.39038 87.376801 
L 74.396373 89.602768 
L 75.804066 92.14253 
L 77.500557 94.695834 
L 79.359103 97.095047 
L 81.469454 99.476196 
L 84.385489 102.340762 
L 87.664559 105.131139 
L 91.682754 108.087588 
L 95.831898 110.725702 
L 100.328612 113.203286 
L 104.8216 115.348402 
L 109.176337 117.156306 
L 113.74542 118.799757 
L 118.535014 120.27187 
L 123.51114 121.553588 
L 129.30856 122.753899 
L 135.297462 123.686277 
L 139.16949 124.131885 
L 148.680013 124.730085 
L 165.956784 124.110862 
L 175.134271 122.916744 
L 186.404834 120.628027 
L 198.221773 117.222854 
L 202.661997 115.664266 
L 213.621332 111.117161 
L 219.617546 108.175343 
L 225.428646 104.987222 
L 231.591404 101.207894 
L 239.859788 95.404154 
L 246.212777 90.272772 
L 253.678095 83.312133 
L 257.658585 79.085582 
L 261.336465 74.775692 
L 264.295068 70.960019 
L 267.010416 67.114769 
L 270.202924 62.042955 
L 272.020661 58.799119 
L 273.659524 55.571246 
L 275.119121 52.369293 
L 276.399611 49.203203 
L 277.951946 44.656204 
L 279.223222 39.807082 
L 279.782263 36.920318 
L 280.175151 34.116511 
L 280.405192 31.404562 
L 280.425016 26.854252 
L 280.075367 23.316249 
L 279.409555 20.058041 
L 278.460205 17.138424 
L 277.305602 14.654542 
L 275.925336 12.476139 
L 273.943392 10.234402 
L 271.689092 8.506117 
L 267.815973 6.90518 
L 266.320388 6.646154 
L 260.929371 7.067103 
L 257.543255 8.326697 
L 254.184569 10.331877 
L 250.29094 13.6875 
L 245.315681 19.985595 
L 241.963222 26.079496 
L 239.694497 31.614611 
L 237.826071 37.729257 
L 236.292555 45.064938 
L 235.602889 50.270733 
L 235.197076 55.701309 
L 235.087777 59.78912 
L 235.188045 65.216397 
L 235.568324 70.780392 
L 236.038963 75.011259 
L 236.671523 79.29518 
L 237.729125 84.883571 
L 239.060563 90.521375 
L 240.964267 97.144094 
L 243.24036 103.7688 
L 245.150102 108.62407 
L 247.854629 114.736648 
L 250.916426 120.864673 
L 254.28476 126.882863 
L 259.070407 134.452395 
L 264.313741 141.735785 
L 269.945242 148.64353 
L 276.952596 156.183264 
L 281.21759 160.290818 
L 287.921801 166.113554 
L 294.863439 171.418227 
L 300.198134 175.043928 
L 306.043227 178.600813 
L 314.82967 183.181416 
L 327.945937 188.400841 
L 335.409771 190.523395 
L 339.916236 191.502309 
L 346.453454 192.50104 
L 352.705681 192.959987 
L 359.419137 192.853678 
L 363.744542 192.410695 
L 367.796577 191.684655 
L 370.742941 190.936325 
L 375.111588 189.407966 
L 377.26541 188.425509 
L 379.254733 187.346015 
L 381.219494 186.074947 
L 382.978436 184.709032 
L 384.634838 183.14542 
L 386.040466 181.497673 
L 386.937372 180.198351 
L 387.684706 178.86466 
L 388.280886 177.50287 
L 388.724653 176.119321 
L 389.05327 174.450205 
L 389.16292 172.770149 
L 389.16292 172.770149 
" clip-path="url(#paf12530fc2)" style="fill: none; stroke: #0000ff; stroke-linecap: square"/>
   </g>
   <g id="patch_4">
    <path d="M 215.070514 345.6 
L 215.070514 0 
" style="fill: none; stroke: #000000; stroke-width: 0.8; stroke-linejoin: miter; stroke-linecap: square"/>
   </g>
   <g id="patch_5">
    <path d="M 65.286564 172.770149 
L 395.513436 172.770149 
" style="fill: none; stroke: #000000; stroke-width: 0.8; stroke-linejoin: miter; stroke-linecap: square"/>
   </g>
  </g>
 </g>
 <defs>
  <clipPath id="paf12530fc2">
   <rect x="65.286564" y="0" width="330.226873" height="345.6"/>
  </clipPath>
 </defs>
</svg>
