<?xml version="1.0" encoding="utf-8" standalone="no"?>
<!DOCTYPE svg PUBLIC "-//W3C//DTD SVG 1.1//EN"
  "http://www.w3.org/Graphics/SVG/1.1/DTD/svg11.dtd">
<svg xmlns:xlink="http://www.w3.org/1999/xlink" width="460.8pt" height="345.6pt" viewBox="0 0 460.8 345.6" xmlns="http://www.w3.org/2000/svg" version="1.1">
 <metadata>
  <rdf:RDF xmlns:dc="http://purl.org/dc/elements/1.1/" xmlns:cc="http://creativecommons.org/ns#" xmlns:rdf="http://www.w3.org/1999/02/22-rdf-syntax-ns#">
   <cc:Work>
    <dc:type rdf:resource="http://purl.org/dc/dcmitype/StillImage"/>
    <dc:date>2025-08-02T18:54:48.151580</dc:date>
    <dc:format>image/svg+xml</dc:format>
    <dc:creator>
     <cc:Agent>
      <dc:title>Matplotlib v3.10.3, https://matplotlib.org/</dc:title>
     </cc:Agent>
    </dc:creator>
   </cc:Work>
  </rdf:RDF>
 </metadata>
 <defs>
  <style type="text/css">*{stroke-linejoin: round; stroke-linecap: butt}</style>
 </defs>
 <g id="figure_1">
  <g id="patch_1">
   <path d="M 0 345.6 
L 460.8 345.6 
L 460.8 0 
L 0 0 
z
" style="fill: #ffffff"/>
  </g>
  <g id="axes_1">
   <g id="patch_2">
    <path d="M 57.595124 345.6 
L 403.204876 345.6 
L 403.204876 0 
L 57.595124 0 
z
" style="fill: #ffffff"/>
   </g>
   <g id="patch_3">
    <path d="M 396.558534 172.797653 
L 396.516197 174.756295 
L 396.38928 176.712488 
L 396.163057 178.778187 
L 395.842924 180.835535 
L 395.429693 182.881693 
L 394.924407 184.913872 
L 394.04616 187.785263 
L 392.987455 190.614913 
L 392.108375 192.639849 
L 391.133559 194.647395 
L 390.070348 196.623445 
L 389.200628 198.109791 
L 388.282381 199.575306 
L 386.306103 202.439999 
L 384.486543 204.802086 
L 382.547729 207.092197 
L 381.030824 208.749629 
L 379.45613 210.364164 
L 377.815686 211.945843 
L 376.124432 213.482271 
L 372.441533 216.546541 
L 368.592135 219.408117 
L 365.476063 221.514969 
L 362.372013 223.456325 
L 356.555529 226.743219 
L 352.203926 228.958247 
L 347.893683 230.990006 
L 343.647263 232.869034 
L 340.192945 234.332156 
L 337.580913 235.413024 
L 335.749759 236.163567 
L 333.951622 236.898993 
L 332.188845 237.622325 
L 330.463559 238.336642 
L 329.587386 238.70324 
L 327.76851 239.476014 
L 325.999872 240.247812 
L 324.283171 241.022773 
L 322.619769 241.80502 
L 321.580673 242.31285 
L 320.338204 242.943084 
L 319.129882 243.583897 
L 317.955822 244.237193 
L 316.816008 244.904835 
L 315.819568 245.519334 
L 314.850549 246.1482 
L 313.908676 246.792678 
L 312.993596 247.453968 
L 311.798483 248.376605 
L 310.650236 249.33477 
L 309.902018 250.001872 
L 309.173863 250.686985 
L 308.465193 251.390791 
L 307.775383 252.113927 
L 306.902525 253.087554 
L 306.059037 254.096287 
L 305.021534 255.437579 
L 304.025322 256.839692 
L 303.278849 257.969421 
L 302.55273 259.137059 
L 301.711192 260.578319 
L 300.891938 262.074144 
L 300.091196 263.624479 
L 299.305096 265.228946 
L 299.151411 265.551796 
L 298.200177 267.612309 
L 297.256464 269.751298 
L 296.566858 271.363311 
L 295.874294 273.014371 
L 295.175837 274.702886 
L 294.46858 276.427061 
L 293.795287 278.073341 
L 292.916733 280.216186 
L 292.012964 282.400214 
L 291.07942 284.620957 
L 290.111724 286.873593 
L 288.456938 290.586134 
L 286.39017 294.947624 
L 284.348201 298.946832 
L 282.261014 302.725909 
L 278.404719 308.955234 
L 276.660394 311.482956 
L 274.833096 313.95613 
L 272.219455 317.207576 
L 269.325573 320.450181 
L 267.817172 322.003589 
L 266.268663 323.507184 
L 264.460163 325.152224 
L 261.654061 327.481861 
L 258.743087 329.630963 
L 256.294451 331.241332 
L 254.523004 332.299635 
L 252.7229 333.286874 
L 250.895987 334.200829 
L 249.044214 335.03944 
L 246.679378 335.985658 
L 244.282622 336.805908 
L 241.530267 337.580287 
L 239.344276 338.07052 
L 237.144007 338.454332 
L 234.932933 338.730609 
L 232.714574 338.898547 
L 229.803227 338.953846 
L 228.230385 338.905878 
L 226.659291 338.803365 
L 225.09121 338.646455 
L 223.527397 338.435378 
L 221.625245 338.104594 
L 219.73356 337.694207 
L 217.886956 337.214238 
L 216.05464 336.65926 
L 214.288176 336.048646 
L 212.538909 335.369377 
L 210.808572 334.622784 
L 209.098836 333.810331 
L 207.442634 332.950568 
L 205.809263 332.030521 
L 203.864184 330.838365 
L 201.956876 329.563606 
L 200.089454 328.209699 
L 198.263848 326.78029 
L 196.150103 324.98785 
L 194.100465 323.100823 
L 191.645589 320.6343 
L 189.237086 317.978464 
L 186.941729 315.210708 
L 185.584953 313.457482 
L 183.313203 310.311005 
L 181.17299 307.085186 
L 177.975966 301.741801 
L 175.460171 297.04907 
L 172.980758 291.97211 
L 171.735404 289.251669 
L 170.549215 286.56057 
L 168.845066 282.546947 
L 167.699714 279.777276 
L 166.593477 277.075366 
L 165.817375 275.180506 
L 164.678898 272.430353 
L 163.553341 269.781203 
L 162.992999 268.500081 
L 162.431116 267.246293 
L 161.741491 265.755019 
L 161.044375 264.306009 
L 160.336951 262.899856 
L 159.616443 261.536942 
L 158.938164 260.318748 
L 158.244367 259.137446 
L 157.518772 257.970604 
L 156.772854 256.841618 
L 156.004612 255.75 
L 155.212128 254.695106 
L 154.570952 253.891135 
L 153.912825 253.108925 
L 153.236945 252.347977 
L 152.542553 251.607737 
L 151.301055 250.379502 
L 150.41291 249.5681 
L 149.495287 248.782037 
L 148.547327 248.020008 
L 147.568275 247.280624 
L 146.462327 246.496978 
L 145.106339 245.601218 
L 143.695701 244.734458 
L 141.822186 243.668428 
L 139.859181 242.635643 
L 138.430602 241.927437 
L 136.958804 241.228758 
L 135.44446 240.536724 
L 133.888456 239.848426 
L 131.998522 239.036297 
L 130.054208 238.220479 
L 127.334911 237.099513 
L 124.528031 235.951149 
L 120.995307 234.495218 
L 118.530731 233.459788 
L 115.027346 231.942988 
L 111.46721 230.328799 
L 107.93397 228.634319 
L 104.512479 226.886763 
L 99.009455 223.806193 
L 94.766561 221.152495 
L 90.932248 218.496308 
L 87.231137 215.648423 
L 84.722779 213.52666 
L 82.310371 211.3106 
L 81.175284 210.199181 
L 78.95872 207.880924 
L 76.863255 205.476896 
L 74.574754 202.554292 
L 72.567212 199.656588 
L 71.634972 198.17364 
L 70.75243 196.669286 
L 69.745817 194.807973 
L 68.81757 192.918485 
L 67.660686 190.24701 
L 66.66517 187.531346 
L 66.112942 185.76637 
L 65.630331 183.987617 
L 65.218274 182.196917 
L 64.877576 180.396143 
L 64.55237 178.12815 
L 64.34126 175.851125 
L 64.241466 173.330812 
L 64.281957 170.809395 
L 64.4091 168.865334 
L 64.619492 166.926124 
L 64.912666 164.994139 
L 65.287967 163.07173 
L 65.759567 161.103858 
L 66.316318 159.151085 
L 66.86915 157.465743 
L 67.484505 155.79523 
L 68.112023 154.256093 
L 68.791723 152.732271 
L 69.522568 151.224904 
L 70.303443 149.735091 
L 71.940806 146.924056 
L 72.985033 145.304821 
L 74.086594 143.713121 
L 75.243379 142.150172 
L 76.453183 140.617098 
L 78.259909 138.490946 
L 80.162281 136.429818 
L 82.652915 133.958395 
L 85.266242 131.594208 
L 88.304242 129.088921 
L 91.356994 126.791093 
L 94.496209 124.621474 
L 98.513196 122.085803 
L 102.324942 119.889735 
L 109.387313 116.251564 
L 114.344641 113.955548 
L 116.805275 112.874929 
L 119.233318 111.838108 
L 121.495335 110.892399 
L 123.717358 109.976382 
L 126.104119 108.999486 
L 128.798577 107.894471 
L 131.405524 106.809592 
L 133.890496 105.74599 
L 135.412946 105.072732 
L 136.895552 104.395958 
L 138.337479 103.712943 
L 139.738086 103.020988 
L 141.377572 102.167631 
L 142.666866 101.457118 
L 143.91532 100.729833 
L 145.123105 99.983408 
L 146.290568 99.215551 
L 147.219409 98.567474 
L 148.415858 97.677276 
L 149.566459 96.754073 
L 150.672552 95.795388 
L 151.735701 94.798916 
L 152.520709 94.010206 
L 153.282529 93.197297 
L 154.171709 92.183704 
L 155.030332 91.132513 
L 155.860307 90.042635 
L 156.663667 88.913144 
L 157.448188 87.73455 
L 158.152042 86.610182 
L 158.838578 85.450122 
L 159.509731 84.254193 
L 160.16749 83.022352 
L 160.850847 81.680546 
L 161.491993 80.365887 
L 162.126003 79.015576 
L 162.755057 77.630167 
L 163.381351 76.210356 
L 164.11921 74.493371 
L 164.859916 72.73139 
L 165.544338 71.078674 
L 166.236924 69.391447 
L 166.940386 67.671571 
L 167.657392 65.921093 
L 168.473628 63.941707 
L 169.313316 61.930542 
L 170.33454 59.531441 
L 172.237299 55.233889 
L 174.3131 50.838356 
L 176.687309 46.200888 
L 181.262824 38.369304 
L 183.925507 34.409151 
L 186.539935 30.894398 
L 188.526233 28.448344 
L 190.599689 26.084442 
L 192.409123 24.168768 
L 194.278204 22.324805 
L 197.228282 19.67426 
L 198.751682 18.42253 
L 200.306054 17.223051 
L 202.81481 15.445059 
L 205.392988 13.810979 
L 207.157717 12.800008 
L 208.949548 11.859507 
L 210.571164 11.080849 
L 212.21157 10.361417 
L 213.869342 9.70248 
L 215.543005 9.105205 
L 218.044749 8.33696 
L 220.572842 7.708936 
L 222.275819 7.368387 
L 223.986622 7.092268 
L 225.804828 6.870664 
L 227.628022 6.722273 
L 229.454227 6.647387 
L 231.28146 6.646154 
L 234.059492 6.785555 
L 236.828316 7.094842 
L 238.604902 7.383617 
L 240.37296 7.74186 
L 241.910514 8.1115 
L 243.438987 8.533205 
L 246.054601 9.382529 
L 248.633843 10.381739 
L 251.199608 11.540342 
L 253.717058 12.842848 
L 255.451276 13.839319 
L 257.157574 14.901721 
L 258.971354 16.123465 
L 260.748797 17.416834 
L 262.488242 18.778668 
L 264.188184 20.205658 
L 265.737054 21.592414 
L 268.311422 24.090849 
L 270.774364 26.723871 
L 273.643246 30.11887 
L 276.483565 33.865409 
L 279.129907 37.741829 
L 282.463469 43.222798 
L 283.944923 45.894489 
L 285.98101 49.821748 
L 288.047742 54.120724 
L 289.95697 58.366745 
L 290.347027 59.264322 
L 291.274756 61.435478 
L 292.171399 63.575872 
L 293.040942 65.681208 
L 293.88753 67.747501 
L 294.890073 70.19698 
L 296.079468 73.072891 
L 296.667809 74.470181 
L 297.254321 75.839057 
L 297.960573 77.448179 
L 298.526668 78.701872 
L 299.096379 79.927196 
L 299.671304 81.123717 
L 300.253026 82.291101 
L 301.061087 83.837524 
L 301.888639 85.328879 
L 302.600223 86.536743 
L 303.330354 87.706097 
L 304.081132 88.837291 
L 304.854582 89.930831 
L 305.859038 91.249385 
L 306.905744 92.511469 
L 307.726954 93.429121 
L 308.482425 94.222085 
L 309.260562 94.991855 
L 310.062185 95.739273 
L 310.888045 96.465245 
L 312.399254 97.691363 
L 313.27892 98.351484 
L 314.184064 98.994679 
L 315.115071 99.622048 
L 316.072253 100.234736 
L 317.433862 101.056747 
L 318.845948 101.856357 
L 320.532305 102.752482 
L 322.28525 103.628553 
L 323.503358 104.210116 
L 324.75097 104.786639 
L 326.027617 105.35979 
L 327.332724 105.931242 
L 329.64734 106.917252 
L 332.040329 107.911799 
L 334.227126 108.809046 
L 336.467716 109.725599 
L 339.151831 110.830352 
L 341.895154 111.978236 
L 345.639451 113.594857 
L 350.069404 115.612991 
L 357.012763 119.09594 
L 362.354754 122.128583 
L 366.212083 124.562806 
L 369.391643 126.756361 
L 372.419809 129.031708 
L 375.176554 131.28965 
L 377.825747 133.658877 
L 380.285425 136.068849 
L 382.615214 138.57941 
L 384.621052 140.960201 
L 386.435249 143.332122 
L 388.121024 145.772193 
L 389.756971 148.424164 
L 391.232266 151.141767 
L 392.27451 153.320545 
L 393.209449 155.53266 
L 394.056719 157.841144 
L 394.784236 160.177269 
L 395.389526 162.536889 
L 395.870527 164.915728 
L 396.157632 166.776329 
L 396.367961 168.643806 
L 396.510861 170.719266 
L 396.558534 172.797653 
L 368.865184 172.797653 
L 368.809662 171.356592 
L 368.643212 169.918684 
L 368.36618 168.487075 
L 367.97914 167.064889 
L 367.376443 165.389293 
L 366.620927 163.736559 
L 365.889226 162.402449 
L 365.057772 161.089802 
L 364.442794 160.219719 
L 363.783911 159.361354 
L 363.081707 158.51548 
L 362.336807 157.682857 
L 361.549873 156.864226 
L 360.721601 156.060308 
L 359.852726 155.271806 
L 358.944016 154.499401 
L 357.67007 153.494373 
L 356.328552 152.52072 
L 355.000606 151.630739 
L 353.616053 150.7712 
L 352.176824 149.943183 
L 350.684922 149.147698 
L 349.066066 148.349457 
L 347.39403 147.589026 
L 345.671353 146.867315 
L 343.900644 146.185143 
L 341.043311 145.199827 
L 337.878182 144.257834 
L 334.611641 143.432856 
L 331.718784 142.815432 
L 328.769225 142.286608 
L 325.771953 141.846271 
L 322.736032 141.493856 
L 317.762585 141.106951 
L 311.353921 140.932693 
L 304.402607 141.127554 
L 299.232287 141.517642 
L 294.170671 142.094884 
L 290.126955 142.692082 
L 286.202916 143.38567 
L 282.539386 144.133871 
L 279.021583 144.943316 
L 277.460726 145.330906 
L 275.205496 145.921642 
L 273.031862 146.525141 
L 270.943564 147.13614 
L 268.944008 147.749289 
L 266.868703 148.413863 
L 265.66706 148.811245 
L 264.507366 149.203032 
L 263.390237 149.587643 
L 262.31622 149.9635 
L 260.779289 150.510205 
L 259.342781 151.028044 
L 258.007662 151.51169 
L 256.774537 151.955885 
L 255.951473 152.247853 
L 255.181192 152.514893 
L 254.399162 152.776183 
L 253.679811 153.003087 
L 253.022713 153.193293 
L 252.427314 153.344558 
L 251.729916 153.481659 
L 251.138431 153.541148 
L 250.650501 153.518375 
L 250.263392 153.408968 
L 250.090029 153.308701 
L 249.946532 153.179499 
L 249.832987 153.021953 
L 249.74764 152.834664 
L 249.689823 152.617073 
L 249.658839 152.368656 
L 249.653661 152.100906 
L 249.671848 151.803931 
L 249.712713 151.477359 
L 249.775549 151.120847 
L 249.859626 150.734085 
L 249.964196 150.316793 
L 250.088493 149.868726 
L 250.231731 149.389669 
L 250.541842 148.427388 
L 250.908151 147.358914 
L 251.327035 146.179191 
L 251.791746 144.891971 
L 252.227964 143.687686 
L 252.690781 142.403123 
L 253.122102 141.192654 
L 253.568846 139.919767 
L 254.028325 138.585254 
L 254.497844 137.190044 
L 255.003082 135.647331 
L 255.513365 134.039181 
L 256.156062 131.930748 
L 256.795469 129.725379 
L 257.425443 127.427067 
L 258.03995 125.040208 
L 258.649697 122.497682 
L 259.230594 119.872146 
L 259.953841 116.231193 
L 260.600456 112.467372 
L 261.220868 108.100764 
L 261.710249 103.624862 
L 262.139987 97.364039 
L 262.263391 91.834516 
L 262.129548 86.217631 
L 261.688408 80.324317 
L 261.348604 77.414925 
L 260.928007 74.541071 
L 260.51799 72.192795 
L 260.052078 69.878902 
L 259.435143 67.217287 
L 258.742047 64.616112 
L 257.973578 62.082353 
L 257.130849 59.622842 
L 256.434563 57.789682 
L 255.696147 56.007128 
L 254.643857 53.706325 
L 253.520143 51.507879 
L 252.299944 49.372134 
L 251.011147 47.356607 
L 250.237475 46.250471 
L 249.442869 45.187567 
L 248.628097 44.16898 
L 247.793956 43.195753 
L 246.941274 42.268882 
L 246.070907 41.38932 
L 245.18374 40.55797 
L 244.280683 39.775686 
L 243.184057 38.90788 
L 241.531781 37.760441 
L 240.691308 37.246761 
L 239.842198 36.773664 
L 238.985151 36.34153 
L 238.120879 35.950704 
L 237.250103 35.601498 
L 236.373549 35.294194 
L 235.019986 34.904934 
L 233.657245 34.615488 
L 232.569052 34.456959 
L 231.478131 34.362061 
L 229.775672 34.341265 
L 228.075115 34.475345 
L 226.38165 34.763914 
L 224.700434 35.206135 
L 223.396907 35.65845 
L 222.10642 36.203247 
L 221.08942 36.702731 
L 220.083389 37.259722 
L 219.089494 37.873596 
L 218.108881 38.543665 
L 216.885821 39.473334 
L 215.688175 40.490544 
L 214.518111 41.593466 
L 213.377721 42.780122 
L 211.896095 44.502146 
L 210.476263 46.365848 
L 209.27584 48.126892 
L 208.129891 49.989595 
L 207.040987 51.9493 
L 206.011477 54.001119 
L 205.219218 55.734792 
L 204.468703 57.523219 
L 203.76085 59.363476 
L 203.096468 61.252566 
L 202.218976 64.047436 
L 201.434381 66.927533 
L 200.924725 69.061657 
L 200.464708 71.231795 
L 199.957974 73.999585 
L 199.529516 76.810706 
L 199.136475 80.054315 
L 198.843208 83.333169 
L 198.548457 89.951928 
L 198.534861 92.430461 
L 198.759379 99.331909 
L 199.162487 104.418873 
L 199.745504 109.396802 
L 200.343033 113.3758 
L 201.033218 117.236916 
L 201.823444 121.062316 
L 202.244158 122.915398 
L 202.679016 124.725858 
L 203.127323 126.497715 
L 203.585265 128.222667 
L 204.050467 129.898885 
L 204.520518 131.524653 
L 205.036649 133.241046 
L 205.552433 134.893418 
L 206.09434 136.570577 
L 206.628346 138.172223 
L 207.150562 139.696736 
L 207.657096 141.142723 
L 207.908879 141.85163 
L 208.241967 142.781508 
L 208.563347 143.672335 
L 208.871735 144.523882 
L 209.165855 145.335975 
L 209.555487 146.418255 
L 209.910437 147.421037 
L 210.227233 148.344389 
L 210.502482 149.188596 
L 210.724538 149.92495 
L 210.902425 150.589465 
L 211.033394 151.182942 
L 211.114795 151.706355 
L 211.140416 152.02027 
L 211.141597 152.303248 
L 211.104593 152.629696 
L 211.022275 152.90421 
L 210.89313 153.127953 
L 210.715727 153.302182 
L 210.551441 153.400572 
L 210.359117 153.47283 
L 210.138263 153.51957 
L 209.888415 153.541431 
L 209.393625 153.52317 
L 208.811125 153.437804 
L 208.139235 153.288987 
L 207.376552 153.080543 
L 206.531928 152.819673 
L 205.596612 152.508383 
L 204.57008 152.150794 
L 203.452094 151.751136 
L 202.869831 151.540867 
L 201.436198 151.021572 
L 199.885231 150.46278 
L 198.218158 149.871128 
L 196.436696 149.253317 
L 194.289367 148.532368 
L 191.922999 147.771288 
L 189.412983 147.004792 
L 187.455696 146.437232 
L 185.425 145.876828 
L 183.323936 145.327809 
L 181.155785 144.794322 
L 179.054172 144.309396 
L 176.899224 143.845172 
L 172.95373 143.082153 
L 168.870426 142.411523 
L 164.263059 141.801638 
L 157.390787 141.186782 
L 150.383083 140.936272 
L 145.206082 141.008295 
L 140.718523 141.258601 
L 136.871593 141.621031 
L 133.07703 142.121639 
L 130.313863 142.58192 
L 127.596537 143.118946 
L 125.514295 143.590852 
L 123.467673 144.109163 
L 121.46 144.673566 
L 119.494559 145.283623 
L 117.401864 146.000744 
L 115.367398 146.770677 
L 113.395172 147.592372 
L 111.489082 148.464618 
L 110.080299 149.163952 
L 108.713933 149.891305 
L 107.391572 150.645959 
L 106.114759 151.427142 
L 104.104646 152.77681 
L 102.229943 154.192979 
L 100.82157 155.379921 
L 99.508053 156.604868 
L 98.292153 157.865292 
L 97.17643 159.158558 
L 96.398971 160.15897 
L 95.696429 161.153018 
L 95.051957 162.161252 
L 94.466306 163.182467 
L 93.940156 164.215438 
L 93.47412 165.258917 
L 93.068742 166.311638 
L 92.724494 167.37232 
L 92.441777 168.439667 
L 92.231983 169.450332 
L 92.077333 170.464652 
L 91.977988 171.481522 
L 91.93405 172.499831 
L 91.938299 173.295331 
L 91.982426 174.175377 
L 92.067942 175.054298 
L 92.194782 175.931377 
L 92.362847 176.805899 
L 92.572006 177.677151 
L 92.822098 178.544425 
L 93.11293 179.407017 
L 93.444275 180.264228 
L 94.159948 181.82715 
L 95.010376 183.365199 
L 95.912453 184.758369 
L 96.925301 186.123643 
L 98.046667 187.457929 
L 99.274061 188.75824 
L 100.284131 189.729374 
L 101.353492 190.677647 
L 103.00654 192.009607 
L 104.776821 193.287522 
L 106.227109 194.23912 
L 107.742636 195.154853 
L 109.32094 196.033393 
L 110.959465 196.873508 
L 112.861887 197.766995 
L 114.832616 198.609462 
L 116.867687 199.399623 
L 118.963021 200.136359 
L 121.671343 200.983877 
L 124.4595 201.744285 
L 126.78565 202.299017 
L 129.154317 202.794789 
L 133.061578 203.471323 
L 137.046568 203.993853 
L 141.239393 204.375073 
L 145.469919 204.596184 
L 155.150017 204.530852 
L 160.180414 204.202087 
L 165.118939 203.69224 
L 170.525329 202.926638 
L 173.813009 202.356578 
L 176.483403 201.835855 
L 179.082275 201.279634 
L 181.603846 200.693496 
L 184.042699 200.08322 
L 184.993976 199.833668 
L 187.773283 199.067801 
L 190.414466 198.289835 
L 192.910613 197.510805 
L 194.102383 197.124386 
L 195.255714 196.741909 
L 195.741908 196.578253 
L 197.133899 196.10218 
L 198.46097 195.63874 
L 199.722217 195.190861 
L 200.9169 194.761458 
L 202.186732 194.301854 
L 203.370142 193.873706 
L 204.4668 193.481094 
L 205.476636 193.128025 
L 206.54126 192.772626 
L 207.489661 192.481901 
L 208.050005 192.328908 
L 208.561145 192.207911 
L 209.023611 192.120451 
L 209.438014 192.068017 
L 209.818763 192.052185 
L 210.149142 192.077348 
L 210.430109 192.14499 
L 210.662711 192.256526 
L 210.849225 192.414572 
L 210.989071 192.619784 
L 211.083568 192.873368 
L 211.134116 193.176445 
L 211.142473 193.521218 
L 211.120039 193.841091 
L 211.072068 194.194521 
L 210.999418 194.581911 
L 210.90297 195.003625 
L 210.783633 195.459987 
L 210.642339 195.95128 
L 210.480041 196.477744 
L 210.297714 197.039577 
L 210.017637 197.865794 
L 209.704534 198.758762 
L 209.311884 199.855044 
L 208.883975 201.037648 
L 208.410087 202.347174 
L 207.907524 203.747476 
L 207.380843 205.237604 
L 206.834635 206.816314 
L 206.215708 208.656535 
L 205.584842 210.599969 
L 205.05917 212.280859 
L 204.532992 214.028359 
L 204.009718 215.840443 
L 203.492719 217.714902 
L 203.035191 219.454599 
L 202.587834 221.241089 
L 201.732954 224.946408 
L 201.004735 228.506567 
L 200.417589 231.771322 
L 199.895694 235.122112 
L 199.287519 239.963647 
L 198.846729 244.918362 
L 198.566748 250.893777 
L 198.681117 259.657615 
L 199.085614 265.045684 
L 199.606032 269.329511 
L 200.302737 273.529073 
L 201.008636 276.902424 
L 201.847316 280.236226 
L 202.807741 283.464713 
L 203.887738 286.573883 
L 205.084301 289.550167 
L 206.004475 291.57949 
L 206.98012 293.530399 
L 208.06482 295.494079 
L 209.297867 297.502401 
L 210.594046 299.392697 
L 211.949869 301.159467 
L 213.361584 302.797557 
L 214.575861 304.058926 
L 215.823634 305.225335 
L 217.144996 306.327951 
L 218.496501 307.324323 
L 219.875156 308.212282 
L 221.277876 308.989895 
L 222.313165 309.485959 
L 223.358305 309.921974 
L 224.412034 310.297435 
L 225.473073 310.611905 
L 226.96772 310.948904 
L 228.470586 311.164994 
L 229.978072 311.259683 
L 231.486566 311.232756 
L 231.985656 311.197041 
L 233.18724 311.056147 
L 234.384562 310.838003 
L 235.575798 310.542925 
L 236.759134 310.171341 
L 237.648876 309.839376 
L 238.532287 309.46412 
L 239.408601 309.045886 
L 240.277065 308.585019 
L 241.136932 308.081904 
L 241.987467 307.536955 
L 242.827949 306.950625 
L 243.657665 306.323398 
L 244.191052 305.893869 
L 245.166003 305.053311 
L 246.122492 304.155657 
L 247.059378 303.201983 
L 247.975554 302.193427 
L 249.260827 300.641394 
L 250.497546 298.981128 
L 251.682818 297.216751 
L 252.813945 295.352628 
L 253.899491 293.372139 
L 254.924847 291.299459 
L 255.887896 289.139779 
L 256.78677 286.898486 
L 257.431502 285.128143 
L 258.06626 283.223631 
L 258.657039 281.275699 
L 259.203334 279.28745 
L 259.704751 277.262041 
L 260.531082 273.332652 
L 261.194562 269.303446 
L 261.808426 264.027207 
L 262.161286 258.671658 
L 262.187646 257.994002 
L 261.906864 244.320827 
L 261.537983 240.232217 
L 261.148558 236.930015 
L 260.688135 233.68984 
L 260.128384 230.32318 
L 259.505323 227.05033 
L 259.078771 225.014848 
L 258.632913 223.024952 
L 258.170431 221.083272 
L 257.694071 219.192303 
L 257.190959 217.296721 
L 256.679211 215.460072 
L 256.162029 213.684614 
L 255.64266 211.972436 
L 255.228449 210.651602 
L 254.556172 208.581058 
L 253.897736 206.627872 
L 253.260612 204.794988 
L 252.652262 203.084797 
L 252.247694 201.962175 
L 251.863365 200.900993 
L 251.501767 199.901582 
L 251.165365 198.96414 
L 250.919234 198.268037 
L 250.691488 197.610554 
L 250.483284 196.991613 
L 250.295759 196.411085 
L 250.144747 195.918465 
L 249.94033 195.187394 
L 249.788147 194.537008 
L 249.691419 193.966186 
L 249.653235 193.473588 
L 249.672175 193.089459 
L 249.744929 192.768396 
L 249.873534 192.508906 
L 250.059909 192.30936 
L 250.212016 192.211424 
L 250.389483 192.137309 
L 250.741226 192.065444 
L 251.165858 192.05523 
L 251.665017 192.103979 
L 252.240144 192.208862 
L 252.941551 192.380022 
L 253.73273 192.608338 
L 254.614665 192.889866 
L 255.588059 193.220525 
L 256.27828 193.462741 
L 257.008295 193.72317 
L 257.778098 194.000575 
L 258.587632 194.2937 
L 259.372407 194.577983 
L 260.191004 194.873635 
L 261.928929 195.494944 
L 263.602834 196.081374 
L 265.381956 196.688478 
L 267.265645 197.310718 
L 269.249866 197.941558 
L 271.09813 198.505425 
L 273.021225 199.067129 
L 275.016494 199.622513 
L 277.08104 200.167481 
L 280.427874 200.986245 
L 283.411816 201.648399 
L 286.495155 202.26514 
L 290.334676 202.936817 
L 294.287322 203.515867 
L 298.176431 203.973038 
L 302.134922 204.321846 
L 309.846521 204.653369 
L 317.649545 204.494518 
L 320.875942 204.273085 
L 324.07599 203.957167 
L 328.979016 203.274288 
L 331.384774 202.844723 
L 333.75352 202.356251 
L 337.597829 201.413915 
L 339.87435 200.760737 
L 342.09498 200.048554 
L 344.254987 199.278246 
L 346.349749 198.450895 
L 348.310044 197.59736 
L 350.2011 196.692945 
L 352.019088 195.73913 
L 353.760316 194.737556 
L 355.647976 193.539249 
L 357.433555 192.278525 
L 359.103918 190.963558 
L 360.020548 190.175216 
L 360.895846 189.370365 
L 361.729011 188.549727 
L 362.519281 187.714044 
L 363.26593 186.864079 
L 363.968273 186.000616 
L 364.625666 185.124457 
L 365.237504 184.23642 
L 365.834901 183.284385 
L 366.380006 182.320989 
L 366.872256 181.34726 
L 367.311143 180.36424 
L 367.702035 179.356783 
L 368.036924 178.341948 
L 368.315454 177.32087 
L 368.537325 176.294695 
L 368.68068 175.422911 
L 368.783156 174.549005 
L 368.844673 173.673683 
L 368.865184 172.797653 
z
" clip-path="url(#p0076ab85e3)" style="fill: #ffa500; opacity: 0.5"/>
   </g>
   <g id="matplotlib.axis_1">
    <g id="xtick_1">
     <g id="line2d_1">
      <defs>
       <path id="mb4bfd1d89a" d="M 0 0 
L 0 3.5 
" style="stroke: #000000; stroke-width: 0.8"/>
      </defs>
      <g>
       <use xlink:href="#mb4bfd1d89a" x="64.238329" y="172.797653" style="stroke: #000000; stroke-width: 0.8"/>
      </g>
     </g>
     <g id="text_1">
      <!-- −3 -->
      <g transform="translate(56.867236 187.39609) scale(0.1 -0.1)">
       <defs>
        <path id="DejaVuSans-2212" d="M 678 2272 
L 4684 2272 
L 4684 1741 
L 678 1741 
L 678 2272 
z
" transform="scale(0.015625)"/>
        <path id="DejaVuSans-33" d="M 2597 2516 
Q 3050 2419 3304 2112 
Q 3559 1806 3559 1356 
Q 3559 666 3084 287 
Q 2609 -91 1734 -91 
Q 1441 -91 1130 -33 
Q 819 25 488 141 
L 488 750 
Q 750 597 1062 519 
Q 1375 441 1716 441 
Q 2309 441 2620 675 
Q 2931 909 2931 1356 
Q 2931 1769 2642 2001 
Q 2353 2234 1838 2234 
L 1294 2234 
L 1294 2753 
L 1863 2753 
Q 2328 2753 2575 2939 
Q 2822 3125 2822 3475 
Q 2822 3834 2567 4026 
Q 2313 4219 1838 4219 
Q 1578 4219 1281 4162 
Q 984 4106 628 3988 
L 628 4550 
Q 988 4650 1302 4700 
Q 1616 4750 1894 4750 
Q 2613 4750 3031 4423 
Q 3450 4097 3450 3541 
Q 3450 3153 3228 2886 
Q 3006 2619 2597 2516 
z
" transform="scale(0.015625)"/>
       </defs>
       <use xlink:href="#DejaVuSans-2212"/>
       <use xlink:href="#DejaVuSans-33" transform="translate(83.789062 0)"/>
      </g>
     </g>
    </g>
    <g id="xtick_2">
     <g id="line2d_2">
      <g>
       <use xlink:href="#mb4bfd1d89a" x="119.62503" y="172.797653" style="stroke: #000000; stroke-width: 0.8"/>
      </g>
     </g>
     <g id="text_2">
      <!-- −2 -->
      <g transform="translate(112.253936 187.39609) scale(0.1 -0.1)">
       <defs>
        <path id="DejaVuSans-32" d="M 1228 531 
L 3431 531 
L 3431 0 
L 469 0 
L 469 531 
Q 828 903 1448 1529 
Q 2069 2156 2228 2338 
Q 2531 2678 2651 2914 
Q 2772 3150 2772 3378 
Q 2772 3750 2511 3984 
Q 2250 4219 1831 4219 
Q 1534 4219 1204 4116 
Q 875 4013 500 3803 
L 500 4441 
Q 881 4594 1212 4672 
Q 1544 4750 1819 4750 
Q 2544 4750 2975 4387 
Q 3406 4025 3406 3419 
Q 3406 3131 3298 2873 
Q 3191 2616 2906 2266 
Q 2828 2175 2409 1742 
Q 1991 1309 1228 531 
z
" transform="scale(0.015625)"/>
       </defs>
       <use xlink:href="#DejaVuSans-2212"/>
       <use xlink:href="#DejaVuSans-32" transform="translate(83.789062 0)"/>
      </g>
     </g>
    </g>
    <g id="xtick_3">
     <g id="line2d_3">
      <g>
       <use xlink:href="#mb4bfd1d89a" x="175.011731" y="172.797653" style="stroke: #000000; stroke-width: 0.8"/>
      </g>
     </g>
     <g id="text_3">
      <!-- −1 -->
      <g transform="translate(167.640637 187.39609) scale(0.1 -0.1)">
       <defs>
        <path id="DejaVuSans-31" d="M 794 531 
L 1825 531 
L 1825 4091 
L 703 3866 
L 703 4441 
L 1819 4666 
L 2450 4666 
L 2450 531 
L 3481 531 
L 3481 0 
L 794 0 
L 794 531 
z
" transform="scale(0.015625)"/>
       </defs>
       <use xlink:href="#DejaVuSans-2212"/>
       <use xlink:href="#DejaVuSans-31" transform="translate(83.789062 0)"/>
      </g>
     </g>
    </g>
    <g id="xtick_4">
     <g id="line2d_4">
      <g>
       <use xlink:href="#mb4bfd1d89a" x="230.398432" y="172.797653" style="stroke: #000000; stroke-width: 0.8"/>
      </g>
     </g>
    </g>
    <g id="xtick_5">
     <g id="line2d_5">
      <g>
       <use xlink:href="#mb4bfd1d89a" x="285.785133" y="172.797653" style="stroke: #000000; stroke-width: 0.8"/>
      </g>
     </g>
     <g id="text_4">
      <!-- 1 -->
      <g transform="translate(282.603883 187.39609) scale(0.1 -0.1)">
       <use xlink:href="#DejaVuSans-31"/>
      </g>
     </g>
    </g>
    <g id="xtick_6">
     <g id="line2d_6">
      <g>
       <use xlink:href="#mb4bfd1d89a" x="341.171833" y="172.797653" style="stroke: #000000; stroke-width: 0.8"/>
      </g>
     </g>
     <g id="text_5">
      <!-- 2 -->
      <g transform="translate(337.990583 187.39609) scale(0.1 -0.1)">
       <use xlink:href="#DejaVuSans-32"/>
      </g>
     </g>
    </g>
    <g id="xtick_7">
     <g id="line2d_7">
      <g>
       <use xlink:href="#mb4bfd1d89a" x="396.558534" y="172.797653" style="stroke: #000000; stroke-width: 0.8"/>
      </g>
     </g>
     <g id="text_6">
      <!-- 3 -->
      <g transform="translate(393.377284 187.39609) scale(0.1 -0.1)">
       <use xlink:href="#DejaVuSans-33"/>
      </g>
     </g>
    </g>
    <g id="xtick_8">
     <g id="line2d_8">
      <defs>
       <path id="mcb291820c5" d="M 0 0 
L 0 2 
" style="stroke: #000000; stroke-width: 0.6"/>
      </defs>
      <g>
       <use xlink:href="#mcb291820c5" x="75.315669" y="172.797653" style="stroke: #000000; stroke-width: 0.6"/>
      </g>
     </g>
    </g>
    <g id="xtick_9">
     <g id="line2d_9">
      <g>
       <use xlink:href="#mcb291820c5" x="86.39301" y="172.797653" style="stroke: #000000; stroke-width: 0.6"/>
      </g>
     </g>
    </g>
    <g id="xtick_10">
     <g id="line2d_10">
      <g>
       <use xlink:href="#mcb291820c5" x="97.47035" y="172.797653" style="stroke: #000000; stroke-width: 0.6"/>
      </g>
     </g>
    </g>
    <g id="xtick_11">
     <g id="line2d_11">
      <g>
       <use xlink:href="#mcb291820c5" x="108.54769" y="172.797653" style="stroke: #000000; stroke-width: 0.6"/>
      </g>
     </g>
    </g>
    <g id="xtick_12">
     <g id="line2d_12">
      <g>
       <use xlink:href="#mcb291820c5" x="130.70237" y="172.797653" style="stroke: #000000; stroke-width: 0.6"/>
      </g>
     </g>
    </g>
    <g id="xtick_13">
     <g id="line2d_13">
      <g>
       <use xlink:href="#mcb291820c5" x="141.77971" y="172.797653" style="stroke: #000000; stroke-width: 0.6"/>
      </g>
     </g>
    </g>
    <g id="xtick_14">
     <g id="line2d_14">
      <g>
       <use xlink:href="#mcb291820c5" x="152.857051" y="172.797653" style="stroke: #000000; stroke-width: 0.6"/>
      </g>
     </g>
    </g>
    <g id="xtick_15">
     <g id="line2d_15">
      <g>
       <use xlink:href="#mcb291820c5" x="163.934391" y="172.797653" style="stroke: #000000; stroke-width: 0.6"/>
      </g>
     </g>
    </g>
    <g id="xtick_16">
     <g id="line2d_16">
      <g>
       <use xlink:href="#mcb291820c5" x="186.089071" y="172.797653" style="stroke: #000000; stroke-width: 0.6"/>
      </g>
     </g>
    </g>
    <g id="xtick_17">
     <g id="line2d_17">
      <g>
       <use xlink:href="#mcb291820c5" x="197.166411" y="172.797653" style="stroke: #000000; stroke-width: 0.6"/>
      </g>
     </g>
    </g>
    <g id="xtick_18">
     <g id="line2d_18">
      <g>
       <use xlink:href="#mcb291820c5" x="208.243751" y="172.797653" style="stroke: #000000; stroke-width: 0.6"/>
      </g>
     </g>
    </g>
    <g id="xtick_19">
     <g id="line2d_19">
      <g>
       <use xlink:href="#mcb291820c5" x="219.321092" y="172.797653" style="stroke: #000000; stroke-width: 0.6"/>
      </g>
     </g>
    </g>
    <g id="xtick_20">
     <g id="line2d_20">
      <g>
       <use xlink:href="#mcb291820c5" x="241.475772" y="172.797653" style="stroke: #000000; stroke-width: 0.6"/>
      </g>
     </g>
    </g>
    <g id="xtick_21">
     <g id="line2d_21">
      <g>
       <use xlink:href="#mcb291820c5" x="252.553112" y="172.797653" style="stroke: #000000; stroke-width: 0.6"/>
      </g>
     </g>
    </g>
    <g id="xtick_22">
     <g id="line2d_22">
      <g>
       <use xlink:href="#mcb291820c5" x="263.630452" y="172.797653" style="stroke: #000000; stroke-width: 0.6"/>
      </g>
     </g>
    </g>
    <g id="xtick_23">
     <g id="line2d_23">
      <g>
       <use xlink:href="#mcb291820c5" x="274.707792" y="172.797653" style="stroke: #000000; stroke-width: 0.6"/>
      </g>
     </g>
    </g>
    <g id="xtick_24">
     <g id="line2d_24">
      <g>
       <use xlink:href="#mcb291820c5" x="296.862473" y="172.797653" style="stroke: #000000; stroke-width: 0.6"/>
      </g>
     </g>
    </g>
    <g id="xtick_25">
     <g id="line2d_25">
      <g>
       <use xlink:href="#mcb291820c5" x="307.939813" y="172.797653" style="stroke: #000000; stroke-width: 0.6"/>
      </g>
     </g>
    </g>
    <g id="xtick_26">
     <g id="line2d_26">
      <g>
       <use xlink:href="#mcb291820c5" x="319.017153" y="172.797653" style="stroke: #000000; stroke-width: 0.6"/>
      </g>
     </g>
    </g>
    <g id="xtick_27">
     <g id="line2d_27">
      <g>
       <use xlink:href="#mcb291820c5" x="330.094493" y="172.797653" style="stroke: #000000; stroke-width: 0.6"/>
      </g>
     </g>
    </g>
    <g id="xtick_28">
     <g id="line2d_28">
      <g>
       <use xlink:href="#mcb291820c5" x="352.249174" y="172.797653" style="stroke: #000000; stroke-width: 0.6"/>
      </g>
     </g>
    </g>
    <g id="xtick_29">
     <g id="line2d_29">
      <g>
       <use xlink:href="#mcb291820c5" x="363.326514" y="172.797653" style="stroke: #000000; stroke-width: 0.6"/>
      </g>
     </g>
    </g>
    <g id="xtick_30">
     <g id="line2d_30">
      <g>
       <use xlink:href="#mcb291820c5" x="374.403854" y="172.797653" style="stroke: #000000; stroke-width: 0.6"/>
      </g>
     </g>
    </g>
    <g id="xtick_31">
     <g id="line2d_31">
      <g>
       <use xlink:href="#mcb291820c5" x="385.481194" y="172.797653" style="stroke: #000000; stroke-width: 0.6"/>
      </g>
     </g>
    </g>
   </g>
   <g id="matplotlib.axis_2">
    <g id="ytick_1">
     <g id="line2d_32">
      <defs>
       <path id="mc57c0733a5" d="M 0 0 
L -3.5 0 
" style="stroke: #000000; stroke-width: 0.8"/>
      </defs>
      <g>
       <use xlink:href="#mc57c0733a5" x="230.398432" y="338.957755" style="stroke: #000000; stroke-width: 0.8"/>
      </g>
     </g>
     <g id="text_7">
      <!-- −3 -->
      <g transform="translate(208.656244 342.756974) scale(0.1 -0.1)">
       <use xlink:href="#DejaVuSans-2212"/>
       <use xlink:href="#DejaVuSans-33" transform="translate(83.789062 0)"/>
      </g>
     </g>
    </g>
    <g id="ytick_2">
     <g id="line2d_33">
      <g>
       <use xlink:href="#mc57c0733a5" x="230.398432" y="283.571054" style="stroke: #000000; stroke-width: 0.8"/>
      </g>
     </g>
     <g id="text_8">
      <!-- −2 -->
      <g transform="translate(208.656244 287.370273) scale(0.1 -0.1)">
       <use xlink:href="#DejaVuSans-2212"/>
       <use xlink:href="#DejaVuSans-32" transform="translate(83.789062 0)"/>
      </g>
     </g>
    </g>
    <g id="ytick_3">
     <g id="line2d_34">
      <g>
       <use xlink:href="#mc57c0733a5" x="230.398432" y="228.184353" style="stroke: #000000; stroke-width: 0.8"/>
      </g>
     </g>
     <g id="text_9">
      <!-- −1 -->
      <g transform="translate(208.656244 231.983572) scale(0.1 -0.1)">
       <use xlink:href="#DejaVuSans-2212"/>
       <use xlink:href="#DejaVuSans-31" transform="translate(83.789062 0)"/>
      </g>
     </g>
    </g>
    <g id="ytick_4">
     <g id="line2d_35">
      <g>
       <use xlink:href="#mc57c0733a5" x="230.398432" y="172.797653" style="stroke: #000000; stroke-width: 0.8"/>
      </g>
     </g>
    </g>
    <g id="ytick_5">
     <g id="line2d_36">
      <g>
       <use xlink:href="#mc57c0733a5" x="230.398432" y="117.410952" style="stroke: #000000; stroke-width: 0.8"/>
      </g>
     </g>
     <g id="text_10">
      <!-- 1 -->
      <g transform="translate(217.035932 121.210171) scale(0.1 -0.1)">
       <use xlink:href="#DejaVuSans-31"/>
      </g>
     </g>
    </g>
    <g id="ytick_6">
     <g id="line2d_37">
      <g>
       <use xlink:href="#mc57c0733a5" x="230.398432" y="62.024251" style="stroke: #000000; stroke-width: 0.8"/>
      </g>
     </g>
     <g id="text_11">
      <!-- 2 -->
      <g transform="translate(217.035932 65.82347) scale(0.1 -0.1)">
       <use xlink:href="#DejaVuSans-32"/>
      </g>
     </g>
    </g>
    <g id="ytick_7">
     <g id="line2d_38">
      <g>
       <use xlink:href="#mc57c0733a5" x="230.398432" y="6.63755" style="stroke: #000000; stroke-width: 0.8"/>
      </g>
     </g>
     <g id="text_12">
      <!-- 3 -->
      <g transform="translate(217.035932 10.436769) scale(0.1 -0.1)">
       <use xlink:href="#DejaVuSans-33"/>
      </g>
     </g>
    </g>
    <g id="ytick_8">
     <g id="line2d_39">
      <defs>
       <path id="m42b4f6c13f" d="M 0 0 
L -2 0 
" style="stroke: #000000; stroke-width: 0.6"/>
      </defs>
      <g>
       <use xlink:href="#m42b4f6c13f" x="230.398432" y="327.880415" style="stroke: #000000; stroke-width: 0.6"/>
      </g>
     </g>
    </g>
    <g id="ytick_9">
     <g id="line2d_40">
      <g>
       <use xlink:href="#m42b4f6c13f" x="230.398432" y="316.803075" style="stroke: #000000; stroke-width: 0.6"/>
      </g>
     </g>
    </g>
    <g id="ytick_10">
     <g id="line2d_41">
      <g>
       <use xlink:href="#m42b4f6c13f" x="230.398432" y="305.725735" style="stroke: #000000; stroke-width: 0.6"/>
      </g>
     </g>
    </g>
    <g id="ytick_11">
     <g id="line2d_42">
      <g>
       <use xlink:href="#m42b4f6c13f" x="230.398432" y="294.648394" style="stroke: #000000; stroke-width: 0.6"/>
      </g>
     </g>
    </g>
    <g id="ytick_12">
     <g id="line2d_43">
      <g>
       <use xlink:href="#m42b4f6c13f" x="230.398432" y="272.493714" style="stroke: #000000; stroke-width: 0.6"/>
      </g>
     </g>
    </g>
    <g id="ytick_13">
     <g id="line2d_44">
      <g>
       <use xlink:href="#m42b4f6c13f" x="230.398432" y="261.416374" style="stroke: #000000; stroke-width: 0.6"/>
      </g>
     </g>
    </g>
    <g id="ytick_14">
     <g id="line2d_45">
      <g>
       <use xlink:href="#m42b4f6c13f" x="230.398432" y="250.339034" style="stroke: #000000; stroke-width: 0.6"/>
      </g>
     </g>
    </g>
    <g id="ytick_15">
     <g id="line2d_46">
      <g>
       <use xlink:href="#m42b4f6c13f" x="230.398432" y="239.261694" style="stroke: #000000; stroke-width: 0.6"/>
      </g>
     </g>
    </g>
    <g id="ytick_16">
     <g id="line2d_47">
      <g>
       <use xlink:href="#m42b4f6c13f" x="230.398432" y="217.107013" style="stroke: #000000; stroke-width: 0.6"/>
      </g>
     </g>
    </g>
    <g id="ytick_17">
     <g id="line2d_48">
      <g>
       <use xlink:href="#m42b4f6c13f" x="230.398432" y="206.029673" style="stroke: #000000; stroke-width: 0.6"/>
      </g>
     </g>
    </g>
    <g id="ytick_18">
     <g id="line2d_49">
      <g>
       <use xlink:href="#m42b4f6c13f" x="230.398432" y="194.952333" style="stroke: #000000; stroke-width: 0.6"/>
      </g>
     </g>
    </g>
    <g id="ytick_19">
     <g id="line2d_50">
      <g>
       <use xlink:href="#m42b4f6c13f" x="230.398432" y="183.874993" style="stroke: #000000; stroke-width: 0.6"/>
      </g>
     </g>
    </g>
    <g id="ytick_20">
     <g id="line2d_51">
      <g>
       <use xlink:href="#m42b4f6c13f" x="230.398432" y="161.720312" style="stroke: #000000; stroke-width: 0.6"/>
      </g>
     </g>
    </g>
    <g id="ytick_21">
     <g id="line2d_52">
      <g>
       <use xlink:href="#m42b4f6c13f" x="230.398432" y="150.642972" style="stroke: #000000; stroke-width: 0.6"/>
      </g>
     </g>
    </g>
    <g id="ytick_22">
     <g id="line2d_53">
      <g>
       <use xlink:href="#m42b4f6c13f" x="230.398432" y="139.565632" style="stroke: #000000; stroke-width: 0.6"/>
      </g>
     </g>
    </g>
    <g id="ytick_23">
     <g id="line2d_54">
      <g>
       <use xlink:href="#m42b4f6c13f" x="230.398432" y="128.488292" style="stroke: #000000; stroke-width: 0.6"/>
      </g>
     </g>
    </g>
    <g id="ytick_24">
     <g id="line2d_55">
      <g>
       <use xlink:href="#m42b4f6c13f" x="230.398432" y="106.333612" style="stroke: #000000; stroke-width: 0.6"/>
      </g>
     </g>
    </g>
    <g id="ytick_25">
     <g id="line2d_56">
      <g>
       <use xlink:href="#m42b4f6c13f" x="230.398432" y="95.256271" style="stroke: #000000; stroke-width: 0.6"/>
      </g>
     </g>
    </g>
    <g id="ytick_26">
     <g id="line2d_57">
      <g>
       <use xlink:href="#m42b4f6c13f" x="230.398432" y="84.178931" style="stroke: #000000; stroke-width: 0.6"/>
      </g>
     </g>
    </g>
    <g id="ytick_27">
     <g id="line2d_58">
      <g>
       <use xlink:href="#m42b4f6c13f" x="230.398432" y="73.101591" style="stroke: #000000; stroke-width: 0.6"/>
      </g>
     </g>
    </g>
    <g id="ytick_28">
     <g id="line2d_59">
      <g>
       <use xlink:href="#m42b4f6c13f" x="230.398432" y="50.946911" style="stroke: #000000; stroke-width: 0.6"/>
      </g>
     </g>
    </g>
    <g id="ytick_29">
     <g id="line2d_60">
      <g>
       <use xlink:href="#m42b4f6c13f" x="230.398432" y="39.869571" style="stroke: #000000; stroke-width: 0.6"/>
      </g>
     </g>
    </g>
    <g id="ytick_30">
     <g id="line2d_61">
      <g>
       <use xlink:href="#m42b4f6c13f" x="230.398432" y="28.79223" style="stroke: #000000; stroke-width: 0.6"/>
      </g>
     </g>
    </g>
    <g id="ytick_31">
     <g id="line2d_62">
      <g>
       <use xlink:href="#m42b4f6c13f" x="230.398432" y="17.71489" style="stroke: #000000; stroke-width: 0.6"/>
      </g>
     </g>
    </g>
   </g>
   <g id="line2d_63">
    <path d="M 368.865184 172.797653 
L 368.643212 169.918684 
L 367.97914 167.064889 
L 367.376443 165.389293 
L 365.889226 162.402449 
L 364.442794 160.219719 
L 363.081707 158.51548 
L 361.549873 156.864226 
L 359.852726 155.271806 
L 357.67007 153.494373 
L 355.000606 151.630739 
L 352.176824 149.943183 
L 349.066066 148.349457 
L 345.671353 146.867315 
L 341.043311 145.199827 
L 337.878182 144.257834 
L 331.718784 142.815432 
L 325.771953 141.846271 
L 322.736032 141.493856 
L 317.762585 141.106951 
L 311.353921 140.932693 
L 304.402607 141.127554 
L 299.232287 141.517642 
L 294.170671 142.094884 
L 290.126955 142.692082 
L 282.539386 144.133871 
L 275.205496 145.921642 
L 268.944008 147.749289 
L 262.31622 149.9635 
L 253.022713 153.193293 
L 251.729916 153.481659 
L 250.650501 153.518375 
L 250.090029 153.308701 
L 249.832987 153.021953 
L 249.689823 152.617073 
L 249.671848 151.803931 
L 249.964196 150.316793 
L 250.541842 148.427388 
L 256.156062 131.930748 
L 258.03995 125.040208 
L 259.230594 119.872146 
L 260.600456 112.467372 
L 261.220868 108.100764 
L 261.710249 103.624862 
L 262.139987 97.364039 
L 262.263391 91.834516 
L 262.129548 86.217631 
L 261.688408 80.324317 
L 260.928007 74.541071 
L 260.052078 69.878902 
L 258.742047 64.616112 
L 257.130849 59.622842 
L 255.696147 56.007128 
L 253.520143 51.507879 
L 252.299944 49.372134 
L 250.237475 46.250471 
L 248.628097 44.16898 
L 246.941274 42.268882 
L 245.18374 40.55797 
L 243.184057 38.90788 
L 240.691308 37.246761 
L 238.985151 36.34153 
L 237.250103 35.601498 
L 235.019986 34.904934 
L 232.569052 34.456959 
L 231.478131 34.362061 
L 229.775672 34.341265 
L 228.075115 34.475345 
L 226.38165 34.763914 
L 223.396907 35.65845 
L 221.08942 36.702731 
L 219.089494 37.873596 
L 216.885821 39.473334 
L 214.518111 41.593466 
L 213.377721 42.780122 
L 211.896095 44.502146 
L 210.476263 46.365848 
L 208.129891 49.989595 
L 206.011477 54.001119 
L 204.468703 57.523219 
L 203.096468 61.252566 
L 202.218976 64.047436 
L 200.924725 69.061657 
L 199.957974 73.999585 
L 199.136475 80.054315 
L 198.843208 83.333169 
L 198.534861 92.430461 
L 198.759379 99.331909 
L 199.162487 104.418873 
L 199.745504 109.396802 
L 201.033218 117.236916 
L 202.679016 124.725858 
L 204.050467 129.898885 
L 206.09434 136.570577 
L 208.563347 143.672335 
L 210.724538 149.92495 
L 211.114795 151.706355 
L 211.104593 152.629696 
L 210.89313 153.127953 
L 210.551441 153.400572 
L 209.888415 153.541431 
L 208.811125 153.437804 
L 206.531928 152.819673 
L 201.436198 151.021572 
L 194.289367 148.532368 
L 187.455696 146.437232 
L 181.155785 144.794322 
L 176.899224 143.845172 
L 172.95373 143.082153 
L 168.870426 142.411523 
L 164.263059 141.801638 
L 157.390787 141.186782 
L 150.383083 140.936272 
L 145.206082 141.008295 
L 140.718523 141.258601 
L 136.871593 141.621031 
L 130.313863 142.58192 
L 125.514295 143.590852 
L 121.46 144.673566 
L 117.401864 146.000744 
L 113.395172 147.592372 
L 110.080299 149.163952 
L 107.391572 150.645959 
L 104.104646 152.77681 
L 100.82157 155.379921 
L 98.292153 157.865292 
L 96.398971 160.15897 
L 95.051957 162.161252 
L 93.940156 164.215438 
L 93.068742 166.311638 
L 92.441777 168.439667 
L 92.077333 170.464652 
L 91.93405 172.499831 
L 91.982426 174.175377 
L 92.194782 175.931377 
L 92.572006 177.677151 
L 93.11293 179.407017 
L 94.159948 181.82715 
L 95.010376 183.365199 
L 96.925301 186.123643 
L 99.274061 188.75824 
L 101.353492 190.677647 
L 103.00654 192.009607 
L 106.227109 194.23912 
L 109.32094 196.033393 
L 112.861887 197.766995 
L 116.867687 199.399623 
L 121.671343 200.983877 
L 126.78565 202.299017 
L 129.154317 202.794789 
L 133.061578 203.471323 
L 137.046568 203.993853 
L 141.239393 204.375073 
L 145.469919 204.596184 
L 155.150017 204.530852 
L 160.180414 204.202087 
L 165.118939 203.69224 
L 173.813009 202.356578 
L 179.082275 201.279634 
L 184.993976 199.833668 
L 190.414466 198.289835 
L 197.133899 196.10218 
L 208.561145 192.207911 
L 209.818763 192.052185 
L 210.430109 192.14499 
L 210.849225 192.414572 
L 211.083568 192.873368 
L 211.142473 193.521218 
L 210.999418 194.581911 
L 210.480041 196.477744 
L 208.883975 201.037648 
L 206.215708 208.656535 
L 204.532992 214.028359 
L 203.035191 219.454599 
L 201.732954 224.946408 
L 200.417589 231.771322 
L 199.895694 235.122112 
L 199.287519 239.963647 
L 198.846729 244.918362 
L 198.566748 250.893777 
L 198.681117 259.657615 
L 199.085614 265.045684 
L 199.606032 269.329511 
L 200.302737 273.529073 
L 201.008636 276.902424 
L 201.847316 280.236226 
L 202.807741 283.464713 
L 203.887738 286.573883 
L 206.004475 291.57949 
L 208.06482 295.494079 
L 209.297867 297.502401 
L 210.594046 299.392697 
L 211.949869 301.159467 
L 214.575861 304.058926 
L 217.144996 306.327951 
L 219.875156 308.212282 
L 222.313165 309.485959 
L 224.412034 310.297435 
L 226.96772 310.948904 
L 228.470586 311.164994 
L 229.978072 311.259683 
L 231.985656 311.197041 
L 234.384562 310.838003 
L 236.759134 310.171341 
L 238.532287 309.46412 
L 240.277065 308.585019 
L 241.987467 307.536955 
L 244.191052 305.893869 
L 246.122492 304.155657 
L 247.975554 302.193427 
L 250.497546 298.981128 
L 252.813945 295.352628 
L 254.924847 291.299459 
L 256.78677 286.898486 
L 258.06626 283.223631 
L 259.203334 279.28745 
L 259.704751 277.262041 
L 260.531082 273.332652 
L 261.194562 269.303446 
L 261.808426 264.027207 
L 262.187646 257.994002 
L 261.906864 244.320827 
L 261.148558 236.930015 
L 260.128384 230.32318 
L 258.632913 223.024952 
L 257.190959 217.296721 
L 255.228449 210.651602 
L 253.260612 204.794988 
L 249.94033 195.187394 
L 249.653235 193.473588 
L 249.744929 192.768396 
L 250.059909 192.30936 
L 250.389483 192.137309 
L 251.165858 192.05523 
L 252.240144 192.208862 
L 254.614665 192.889866 
L 260.191004 194.873635 
L 267.265645 197.310718 
L 273.021225 199.067129 
L 277.08104 200.167481 
L 283.411816 201.648399 
L 290.334676 202.936817 
L 294.287322 203.515867 
L 298.176431 203.973038 
L 302.134922 204.321846 
L 309.846521 204.653369 
L 317.649545 204.494518 
L 324.07599 203.957167 
L 331.384774 202.844723 
L 333.75352 202.356251 
L 339.87435 200.760737 
L 344.254987 199.278246 
L 348.310044 197.59736 
L 352.019088 195.73913 
L 355.647976 193.539249 
L 359.103918 190.963558 
L 360.895846 189.370365 
L 362.519281 187.714044 
L 363.968273 186.000616 
L 365.237504 184.23642 
L 366.380006 182.320989 
L 367.311143 180.36424 
L 368.036924 178.341948 
L 368.537325 176.294695 
L 368.783156 174.549005 
L 368.865184 172.797653 
L 368.865184 172.797653 
" clip-path="url(#p0076ab85e3)" style="fill: none; stroke: #0000ff; stroke-linecap: square"/>
   </g>
   <g id="patch_4">
    <path d="M 230.398432 345.6 
L 230.398432 0 
" style="fill: none; stroke: #000000; stroke-width: 0.8; stroke-linejoin: miter; stroke-linecap: square"/>
   </g>
   <g id="patch_5">
    <path d="M 57.595124 172.797653 
L 403.204876 172.797653 
" style="fill: none; stroke: #000000; stroke-width: 0.8; stroke-linejoin: miter; stroke-linecap: square"/>
   </g>
  </g>
 </g>
 <defs>
  <clipPath id="p0076ab85e3">
   <rect x="57.595124" y="0" width="345.609751" height="345.6"/>
  </clipPath>
 </defs>
</svg>
