<?xml version="1.0" encoding="utf-8" standalone="no"?>
<!DOCTYPE svg PUBLIC "-//W3C//DTD SVG 1.1//EN"
  "http://www.w3.org/Graphics/SVG/1.1/DTD/svg11.dtd">
<svg xmlns:xlink="http://www.w3.org/1999/xlink" width="460.8pt" height="345.6pt" viewBox="0 0 460.8 345.6" xmlns="http://www.w3.org/2000/svg" version="1.1">
 <metadata>
  <rdf:RDF xmlns:dc="http://purl.org/dc/elements/1.1/" xmlns:cc="http://creativecommons.org/ns#" xmlns:rdf="http://www.w3.org/1999/02/22-rdf-syntax-ns#">
   <cc:Work>
    <dc:type rdf:resource="http://purl.org/dc/dcmitype/StillImage"/>
    <dc:date>2025-08-02T12:14:53.423571</dc:date>
    <dc:format>image/svg+xml</dc:format>
    <dc:creator>
     <cc:Agent>
      <dc:title>Matplotlib v3.10.3, https://matplotlib.org/</dc:title>
     </cc:Agent>
    </dc:creator>
   </cc:Work>
  </rdf:RDF>
 </metadata>
 <defs>
  <style type="text/css">*{stroke-linejoin: round; stroke-linecap: butt}</style>
 </defs>
 <g id="figure_1">
  <g id="patch_1">
   <path d="M 0 345.6 
L 460.8 345.6 
L 460.8 0 
L 0 0 
z
" style="fill: #ffffff"/>
  </g>
  <g id="axes_1">
   <g id="patch_2">
    <path d="M 80.742191 345.6 
L 380.057809 345.6 
L 380.057809 0 
L 80.742191 0 
z
" style="fill: #ffffff"/>
   </g>
   <g id="matplotlib.axis_1">
    <g id="xtick_1">
     <g id="line2d_1">
      <defs>
       <path id="mf1ebe16df8" d="M 0 0 
L 0 3.5 
" style="stroke: #000000; stroke-width: 0.8"/>
      </defs>
      <g>
       <use xlink:href="#mf1ebe16df8" x="118.451246" y="172.774087" style="stroke: #000000; stroke-width: 0.8"/>
      </g>
     </g>
    </g>
    <g id="xtick_2">
     <g id="line2d_2">
      <g>
       <use xlink:href="#mf1ebe16df8" x="182.413869" y="172.774087" style="stroke: #000000; stroke-width: 0.8"/>
      </g>
     </g>
     <g id="text_1">
      <!-- 1 -->
      <g transform="translate(179.232619 187.372524) scale(0.1 -0.1)">
       <defs>
        <path id="DejaVuSans-31" d="M 794 531 
L 1825 531 
L 1825 4091 
L 703 3866 
L 703 4441 
L 1819 4666 
L 2450 4666 
L 2450 531 
L 3481 531 
L 3481 0 
L 794 0 
L 794 531 
z
" transform="scale(0.015625)"/>
       </defs>
       <use xlink:href="#DejaVuSans-31"/>
      </g>
     </g>
    </g>
    <g id="xtick_3">
     <g id="line2d_3">
      <g>
       <use xlink:href="#mf1ebe16df8" x="246.376492" y="172.774087" style="stroke: #000000; stroke-width: 0.8"/>
      </g>
     </g>
     <g id="text_2">
      <!-- 2 -->
      <g transform="translate(243.195242 187.372524) scale(0.1 -0.1)">
       <defs>
        <path id="DejaVuSans-32" d="M 1228 531 
L 3431 531 
L 3431 0 
L 469 0 
L 469 531 
Q 828 903 1448 1529 
Q 2069 2156 2228 2338 
Q 2531 2678 2651 2914 
Q 2772 3150 2772 3378 
Q 2772 3750 2511 3984 
Q 2250 4219 1831 4219 
Q 1534 4219 1204 4116 
Q 875 4013 500 3803 
L 500 4441 
Q 881 4594 1212 4672 
Q 1544 4750 1819 4750 
Q 2544 4750 2975 4387 
Q 3406 4025 3406 3419 
Q 3406 3131 3298 2873 
Q 3191 2616 2906 2266 
Q 2828 2175 2409 1742 
Q 1991 1309 1228 531 
z
" transform="scale(0.015625)"/>
       </defs>
       <use xlink:href="#DejaVuSans-32"/>
      </g>
     </g>
    </g>
    <g id="xtick_4">
     <g id="line2d_4">
      <g>
       <use xlink:href="#mf1ebe16df8" x="310.339116" y="172.774087" style="stroke: #000000; stroke-width: 0.8"/>
      </g>
     </g>
     <g id="text_3">
      <!-- 3 -->
      <g transform="translate(307.157866 187.372524) scale(0.1 -0.1)">
       <defs>
        <path id="DejaVuSans-33" d="M 2597 2516 
Q 3050 2419 3304 2112 
Q 3559 1806 3559 1356 
Q 3559 666 3084 287 
Q 2609 -91 1734 -91 
Q 1441 -91 1130 -33 
Q 819 25 488 141 
L 488 750 
Q 750 597 1062 519 
Q 1375 441 1716 441 
Q 2309 441 2620 675 
Q 2931 909 2931 1356 
Q 2931 1769 2642 2001 
Q 2353 2234 1838 2234 
L 1294 2234 
L 1294 2753 
L 1863 2753 
Q 2328 2753 2575 2939 
Q 2822 3125 2822 3475 
Q 2822 3834 2567 4026 
Q 2313 4219 1838 4219 
Q 1578 4219 1281 4162 
Q 984 4106 628 3988 
L 628 4550 
Q 988 4650 1302 4700 
Q 1616 4750 1894 4750 
Q 2613 4750 3031 4423 
Q 3450 4097 3450 3541 
Q 3450 3153 3228 2886 
Q 3006 2619 2597 2516 
z
" transform="scale(0.015625)"/>
       </defs>
       <use xlink:href="#DejaVuSans-33"/>
      </g>
     </g>
    </g>
    <g id="xtick_5">
     <g id="line2d_5">
      <g>
       <use xlink:href="#mf1ebe16df8" x="374.301739" y="172.774087" style="stroke: #000000; stroke-width: 0.8"/>
      </g>
     </g>
     <g id="text_4">
      <!-- 4 -->
      <g transform="translate(371.120489 187.372524) scale(0.1 -0.1)">
       <defs>
        <path id="DejaVuSans-34" d="M 2419 4116 
L 825 1625 
L 2419 1625 
L 2419 4116 
z
M 2253 4666 
L 3047 4666 
L 3047 1625 
L 3713 1625 
L 3713 1100 
L 3047 1100 
L 3047 0 
L 2419 0 
L 2419 1100 
L 313 1100 
L 313 1709 
L 2253 4666 
z
" transform="scale(0.015625)"/>
       </defs>
       <use xlink:href="#DejaVuSans-34"/>
      </g>
     </g>
    </g>
    <g id="xtick_6">
     <g id="line2d_6">
      <defs>
       <path id="m9ec4a6a650" d="M 0 0 
L 0 2 
" style="stroke: #000000; stroke-width: 0.6"/>
      </defs>
      <g>
       <use xlink:href="#m9ec4a6a650" x="92.866197" y="172.774087" style="stroke: #000000; stroke-width: 0.6"/>
      </g>
     </g>
    </g>
    <g id="xtick_7">
     <g id="line2d_7">
      <g>
       <use xlink:href="#m9ec4a6a650" x="105.658721" y="172.774087" style="stroke: #000000; stroke-width: 0.6"/>
      </g>
     </g>
    </g>
    <g id="xtick_8">
     <g id="line2d_8">
      <g>
       <use xlink:href="#m9ec4a6a650" x="131.24377" y="172.774087" style="stroke: #000000; stroke-width: 0.6"/>
      </g>
     </g>
    </g>
    <g id="xtick_9">
     <g id="line2d_9">
      <g>
       <use xlink:href="#m9ec4a6a650" x="144.036295" y="172.774087" style="stroke: #000000; stroke-width: 0.6"/>
      </g>
     </g>
    </g>
    <g id="xtick_10">
     <g id="line2d_10">
      <g>
       <use xlink:href="#m9ec4a6a650" x="156.82882" y="172.774087" style="stroke: #000000; stroke-width: 0.6"/>
      </g>
     </g>
    </g>
    <g id="xtick_11">
     <g id="line2d_11">
      <g>
       <use xlink:href="#m9ec4a6a650" x="169.621344" y="172.774087" style="stroke: #000000; stroke-width: 0.6"/>
      </g>
     </g>
    </g>
    <g id="xtick_12">
     <g id="line2d_12">
      <g>
       <use xlink:href="#m9ec4a6a650" x="195.206394" y="172.774087" style="stroke: #000000; stroke-width: 0.6"/>
      </g>
     </g>
    </g>
    <g id="xtick_13">
     <g id="line2d_13">
      <g>
       <use xlink:href="#m9ec4a6a650" x="207.998918" y="172.774087" style="stroke: #000000; stroke-width: 0.6"/>
      </g>
     </g>
    </g>
    <g id="xtick_14">
     <g id="line2d_14">
      <g>
       <use xlink:href="#m9ec4a6a650" x="220.791443" y="172.774087" style="stroke: #000000; stroke-width: 0.6"/>
      </g>
     </g>
    </g>
    <g id="xtick_15">
     <g id="line2d_15">
      <g>
       <use xlink:href="#m9ec4a6a650" x="233.583968" y="172.774087" style="stroke: #000000; stroke-width: 0.6"/>
      </g>
     </g>
    </g>
    <g id="xtick_16">
     <g id="line2d_16">
      <g>
       <use xlink:href="#m9ec4a6a650" x="259.169017" y="172.774087" style="stroke: #000000; stroke-width: 0.6"/>
      </g>
     </g>
    </g>
    <g id="xtick_17">
     <g id="line2d_17">
      <g>
       <use xlink:href="#m9ec4a6a650" x="271.961542" y="172.774087" style="stroke: #000000; stroke-width: 0.6"/>
      </g>
     </g>
    </g>
    <g id="xtick_18">
     <g id="line2d_18">
      <g>
       <use xlink:href="#m9ec4a6a650" x="284.754066" y="172.774087" style="stroke: #000000; stroke-width: 0.6"/>
      </g>
     </g>
    </g>
    <g id="xtick_19">
     <g id="line2d_19">
      <g>
       <use xlink:href="#m9ec4a6a650" x="297.546591" y="172.774087" style="stroke: #000000; stroke-width: 0.6"/>
      </g>
     </g>
    </g>
    <g id="xtick_20">
     <g id="line2d_20">
      <g>
       <use xlink:href="#m9ec4a6a650" x="323.13164" y="172.774087" style="stroke: #000000; stroke-width: 0.6"/>
      </g>
     </g>
    </g>
    <g id="xtick_21">
     <g id="line2d_21">
      <g>
       <use xlink:href="#m9ec4a6a650" x="335.924165" y="172.774087" style="stroke: #000000; stroke-width: 0.6"/>
      </g>
     </g>
    </g>
    <g id="xtick_22">
     <g id="line2d_22">
      <g>
       <use xlink:href="#m9ec4a6a650" x="348.71669" y="172.774087" style="stroke: #000000; stroke-width: 0.6"/>
      </g>
     </g>
    </g>
    <g id="xtick_23">
     <g id="line2d_23">
      <g>
       <use xlink:href="#m9ec4a6a650" x="361.509214" y="172.774087" style="stroke: #000000; stroke-width: 0.6"/>
      </g>
     </g>
    </g>
   </g>
   <g id="matplotlib.axis_2">
    <g id="ytick_1">
     <g id="line2d_24">
      <defs>
       <path id="m72abbef223" d="M 0 0 
L -3.5 0 
" style="stroke: #000000; stroke-width: 0.8"/>
      </defs>
      <g>
       <use xlink:href="#m72abbef223" x="118.451246" y="300.699333" style="stroke: #000000; stroke-width: 0.8"/>
      </g>
     </g>
     <g id="text_5">
      <!-- −2 -->
      <g transform="translate(96.709058 304.498552) scale(0.1 -0.1)">
       <defs>
        <path id="DejaVuSans-2212" d="M 678 2272 
L 4684 2272 
L 4684 1741 
L 678 1741 
L 678 2272 
z
" transform="scale(0.015625)"/>
       </defs>
       <use xlink:href="#DejaVuSans-2212"/>
       <use xlink:href="#DejaVuSans-32" transform="translate(83.789062 0)"/>
      </g>
     </g>
    </g>
    <g id="ytick_2">
     <g id="line2d_25">
      <g>
       <use xlink:href="#m72abbef223" x="118.451246" y="236.73671" style="stroke: #000000; stroke-width: 0.8"/>
      </g>
     </g>
     <g id="text_6">
      <!-- −1 -->
      <g transform="translate(96.709058 240.535929) scale(0.1 -0.1)">
       <use xlink:href="#DejaVuSans-2212"/>
       <use xlink:href="#DejaVuSans-31" transform="translate(83.789062 0)"/>
      </g>
     </g>
    </g>
    <g id="ytick_3">
     <g id="line2d_26">
      <g>
       <use xlink:href="#m72abbef223" x="118.451246" y="172.774087" style="stroke: #000000; stroke-width: 0.8"/>
      </g>
     </g>
    </g>
    <g id="ytick_4">
     <g id="line2d_27">
      <g>
       <use xlink:href="#m72abbef223" x="118.451246" y="108.811463" style="stroke: #000000; stroke-width: 0.8"/>
      </g>
     </g>
     <g id="text_7">
      <!-- 1 -->
      <g transform="translate(105.088746 112.610682) scale(0.1 -0.1)">
       <use xlink:href="#DejaVuSans-31"/>
      </g>
     </g>
    </g>
    <g id="ytick_5">
     <g id="line2d_28">
      <g>
       <use xlink:href="#m72abbef223" x="118.451246" y="44.84884" style="stroke: #000000; stroke-width: 0.8"/>
      </g>
     </g>
     <g id="text_8">
      <!-- 2 -->
      <g transform="translate(105.088746 48.648059) scale(0.1 -0.1)">
       <use xlink:href="#DejaVuSans-32"/>
      </g>
     </g>
    </g>
    <g id="ytick_6">
     <g id="line2d_29">
      <defs>
       <path id="m1f6945cd9b" d="M 0 0 
L -2 0 
" style="stroke: #000000; stroke-width: 0.6"/>
      </defs>
      <g>
       <use xlink:href="#m1f6945cd9b" x="118.451246" y="339.076907" style="stroke: #000000; stroke-width: 0.6"/>
      </g>
     </g>
    </g>
    <g id="ytick_7">
     <g id="line2d_30">
      <g>
       <use xlink:href="#m1f6945cd9b" x="118.451246" y="326.284383" style="stroke: #000000; stroke-width: 0.6"/>
      </g>
     </g>
    </g>
    <g id="ytick_8">
     <g id="line2d_31">
      <g>
       <use xlink:href="#m1f6945cd9b" x="118.451246" y="313.491858" style="stroke: #000000; stroke-width: 0.6"/>
      </g>
     </g>
    </g>
    <g id="ytick_9">
     <g id="line2d_32">
      <g>
       <use xlink:href="#m1f6945cd9b" x="118.451246" y="287.906809" style="stroke: #000000; stroke-width: 0.6"/>
      </g>
     </g>
    </g>
    <g id="ytick_10">
     <g id="line2d_33">
      <g>
       <use xlink:href="#m1f6945cd9b" x="118.451246" y="275.114284" style="stroke: #000000; stroke-width: 0.6"/>
      </g>
     </g>
    </g>
    <g id="ytick_11">
     <g id="line2d_34">
      <g>
       <use xlink:href="#m1f6945cd9b" x="118.451246" y="262.321759" style="stroke: #000000; stroke-width: 0.6"/>
      </g>
     </g>
    </g>
    <g id="ytick_12">
     <g id="line2d_35">
      <g>
       <use xlink:href="#m1f6945cd9b" x="118.451246" y="249.529235" style="stroke: #000000; stroke-width: 0.6"/>
      </g>
     </g>
    </g>
    <g id="ytick_13">
     <g id="line2d_36">
      <g>
       <use xlink:href="#m1f6945cd9b" x="118.451246" y="223.944185" style="stroke: #000000; stroke-width: 0.6"/>
      </g>
     </g>
    </g>
    <g id="ytick_14">
     <g id="line2d_37">
      <g>
       <use xlink:href="#m1f6945cd9b" x="118.451246" y="211.151661" style="stroke: #000000; stroke-width: 0.6"/>
      </g>
     </g>
    </g>
    <g id="ytick_15">
     <g id="line2d_38">
      <g>
       <use xlink:href="#m1f6945cd9b" x="118.451246" y="198.359136" style="stroke: #000000; stroke-width: 0.6"/>
      </g>
     </g>
    </g>
    <g id="ytick_16">
     <g id="line2d_39">
      <g>
       <use xlink:href="#m1f6945cd9b" x="118.451246" y="185.566611" style="stroke: #000000; stroke-width: 0.6"/>
      </g>
     </g>
    </g>
    <g id="ytick_17">
     <g id="line2d_40">
      <g>
       <use xlink:href="#m1f6945cd9b" x="118.451246" y="159.981562" style="stroke: #000000; stroke-width: 0.6"/>
      </g>
     </g>
    </g>
    <g id="ytick_18">
     <g id="line2d_41">
      <g>
       <use xlink:href="#m1f6945cd9b" x="118.451246" y="147.189037" style="stroke: #000000; stroke-width: 0.6"/>
      </g>
     </g>
    </g>
    <g id="ytick_19">
     <g id="line2d_42">
      <g>
       <use xlink:href="#m1f6945cd9b" x="118.451246" y="134.396513" style="stroke: #000000; stroke-width: 0.6"/>
      </g>
     </g>
    </g>
    <g id="ytick_20">
     <g id="line2d_43">
      <g>
       <use xlink:href="#m1f6945cd9b" x="118.451246" y="121.603988" style="stroke: #000000; stroke-width: 0.6"/>
      </g>
     </g>
    </g>
    <g id="ytick_21">
     <g id="line2d_44">
      <g>
       <use xlink:href="#m1f6945cd9b" x="118.451246" y="96.018939" style="stroke: #000000; stroke-width: 0.6"/>
      </g>
     </g>
    </g>
    <g id="ytick_22">
     <g id="line2d_45">
      <g>
       <use xlink:href="#m1f6945cd9b" x="118.451246" y="83.226414" style="stroke: #000000; stroke-width: 0.6"/>
      </g>
     </g>
    </g>
    <g id="ytick_23">
     <g id="line2d_46">
      <g>
       <use xlink:href="#m1f6945cd9b" x="118.451246" y="70.433889" style="stroke: #000000; stroke-width: 0.6"/>
      </g>
     </g>
    </g>
    <g id="ytick_24">
     <g id="line2d_47">
      <g>
       <use xlink:href="#m1f6945cd9b" x="118.451246" y="57.641365" style="stroke: #000000; stroke-width: 0.6"/>
      </g>
     </g>
    </g>
    <g id="ytick_25">
     <g id="line2d_48">
      <g>
       <use xlink:href="#m1f6945cd9b" x="118.451246" y="32.056315" style="stroke: #000000; stroke-width: 0.6"/>
      </g>
     </g>
    </g>
    <g id="ytick_26">
     <g id="line2d_49">
      <g>
       <use xlink:href="#m1f6945cd9b" x="118.451246" y="19.263791" style="stroke: #000000; stroke-width: 0.6"/>
      </g>
     </g>
    </g>
    <g id="ytick_27">
     <g id="line2d_50">
      <g>
       <use xlink:href="#m1f6945cd9b" x="118.451246" y="6.471266" style="stroke: #000000; stroke-width: 0.6"/>
      </g>
     </g>
    </g>
   </g>
   <g id="line2d_51">
    <path d="M 374.301739 172.774087 
L 374.235228 168.011254 
L 373.846751 160.324296 
L 373.14204 152.919167 
L 372.115555 145.555996 
L 370.956583 139.165466 
L 369.619781 133.094926 
L 368.215848 127.633419 
L 366.633085 122.226853 
L 365.400364 118.420188 
L 362.539088 110.572414 
L 360.628373 105.913073 
L 358.582543 101.318865 
L 355.722159 95.445502 
L 351.350249 87.436911 
L 349.54907 84.413698 
L 345.392675 77.939927 
L 342.581189 73.904014 
L 339.658169 69.960778 
L 336.474213 65.925885 
L 333.175016 62.000664 
L 326.898971 55.161167 
L 323.333408 51.598803 
L 318.672527 47.254506 
L 311.580505 41.251246 
L 306.360223 37.251422 
L 301.372579 33.730244 
L 296.277398 30.413599 
L 292.57477 28.170367 
L 288.294312 25.742935 
L 281.575134 22.272221 
L 274.404861 18.999641 
L 269.33262 16.939071 
L 260.749217 13.908495 
L 254.416181 12.025502 
L 247.416784 10.280485 
L 237.515564 8.397151 
L 232.1601 7.658379 
L 226.815209 7.114618 
L 222.382534 6.809684 
L 218.311491 6.646154 
L 207.294047 6.765637 
L 201.639296 7.149263 
L 198.114699 7.500866 
L 190.126278 8.624235 
L 179.955251 10.733251 
L 177.42928 11.379734 
L 170.594765 13.385437 
L 160.597666 17.033827 
L 153.585767 20.143487 
L 147.648686 23.16753 
L 142.163711 26.310995 
L 137.440859 29.313399 
L 128.484847 35.865827 
L 124.307049 39.367495 
L 119.510646 43.802422 
L 116.649052 46.690044 
L 111.099613 52.905081 
L 107.674499 57.230329 
L 104.040201 62.338047 
L 100.980606 67.162151 
L 98.834854 70.911434 
L 95.227719 78.1481 
L 92.374716 85.124211 
L 90.431715 90.964249 
L 89.629863 93.800723 
L 88.463263 98.681401 
L 87.63177 103.135149 
L 86.800567 109.816028 
L 86.498261 115.177502 
L 86.528027 120.516831 
L 86.842769 125.273095 
L 87.471133 130.209135 
L 88.233545 134.274238 
L 89.247575 138.389853 
L 90.987402 143.798371 
L 92.763723 148.144068 
L 94.687427 152.03634 
L 96.115685 154.536977 
L 97.513052 156.732641 
L 100.170769 160.359307 
L 101.975315 162.483073 
L 104.796116 165.34795 
L 107.251982 167.447371 
L 108.929533 168.689448 
L 111.259919 170.168998 
L 113.606472 171.371829 
L 116.053575 172.298527 
L 117.664813 172.686205 
L 118.440802 172.77422 
L 117.916814 172.823195 
L 116.571344 173.102488 
L 114.551532 173.776335 
L 112.864563 174.524977 
L 110.967581 175.549292 
L 108.569619 177.112549 
L 106.940987 178.3478 
L 103.836259 181.117515 
L 101.248514 183.890903 
L 98.887306 186.859001 
L 97.663557 188.592028 
L 95.134384 192.698192 
L 93.201922 196.454842 
L 91.842009 199.547858 
L 90.150928 204.162259 
L 88.835584 208.709419 
L 87.865461 213.085476 
L 87.150261 217.552168 
L 86.839817 220.306028 
L 86.559427 224.278813 
L 86.501246 230.484137 
L 86.764055 235.299709 
L 87.157167 239.101108 
L 87.872721 243.832549 
L 88.493213 247.007787 
L 90.464465 254.693267 
L 91.632886 258.331661 
L 93.709358 263.868429 
L 95.366349 267.705579 
L 97.414988 271.948783 
L 99.897359 276.536158 
L 105.14226 284.823008 
L 109.432532 290.5907 
L 112.99451 294.865692 
L 116.188072 298.37425 
L 122.359773 304.437225 
L 124.510291 306.358398 
L 128.691238 309.847413 
L 134.634723 314.309663 
L 142.517051 319.450447 
L 147.173518 322.122078 
L 152.825709 325.038301 
L 156.539497 326.773115 
L 167.207347 331.024727 
L 172.656593 332.808058 
L 184.012822 335.749833 
L 191.524857 337.153802 
L 198.706515 338.112437 
L 204.388518 338.613018 
L 210.131366 338.892191 
L 214.45123 338.953846 
L 226.159346 338.487011 
L 232.190861 337.886106 
L 238.235786 337.036779 
L 242.390466 336.308363 
L 248.832335 334.942769 
L 254.569915 333.48042 
L 262.563044 331.045858 
L 268.980135 328.744714 
L 275.329966 326.15036 
L 281.514374 323.305515 
L 287.430221 320.274405 
L 291.285075 318.127546 
L 296.581082 314.944481 
L 301.774008 311.544844 
L 307.408499 307.520199 
L 312.331808 303.693156 
L 316.060171 300.585975 
L 319.70522 297.359981 
L 325.620791 291.689209 
L 330.168743 286.919964 
L 333.866357 282.745168 
L 338.583748 276.977801 
L 341.395202 273.273452 
L 344.107582 269.484498 
L 346.784372 265.512604 
L 349.351109 261.458134 
L 354.346168 252.736673 
L 358.148525 245.158747 
L 361.008239 238.739584 
L 363.603269 232.194914 
L 366.028201 225.227506 
L 367.613027 220.053381 
L 368.838812 215.583321 
L 369.943048 211.078007 
L 371.629205 202.8454 
L 372.75136 195.717363 
L 373.337642 190.882715 
L 373.898566 184.494478 
L 374.218948 178.087824 
L 374.301739 172.774087 
L 374.301739 172.774087 
" clip-path="url(#pabb299a4b4)" style="fill: none; stroke: #33ff00; stroke-linecap: square"/>
   </g>
   <g id="patch_3">
    <path d="M 118.451246 345.6 
L 118.451246 -0 
" style="fill: none; stroke: #000000; stroke-width: 0.8; stroke-linejoin: miter; stroke-linecap: square"/>
   </g>
   <g id="patch_4">
    <path d="M 80.742191 172.774087 
L 380.057809 172.774087 
" style="fill: none; stroke: #000000; stroke-width: 0.8; stroke-linejoin: miter; stroke-linecap: square"/>
   </g>
  </g>
 </g>
 <defs>
  <clipPath id="pabb299a4b4">
   <rect x="80.742191" y="0" width="299.315617" height="345.6"/>
  </clipPath>
 </defs>
</svg>
