<?xml version="1.0" encoding="utf-8" standalone="no"?>
<!DOCTYPE svg PUBLIC "-//W3C//DTD SVG 1.1//EN"
  "http://www.w3.org/Graphics/SVG/1.1/DTD/svg11.dtd">
<svg xmlns:xlink="http://www.w3.org/1999/xlink" width="460.8pt" height="345.6pt" viewBox="0 0 460.8 345.6" xmlns="http://www.w3.org/2000/svg" version="1.1">
 <metadata>
  <rdf:RDF xmlns:dc="http://purl.org/dc/elements/1.1/" xmlns:cc="http://creativecommons.org/ns#" xmlns:rdf="http://www.w3.org/1999/02/22-rdf-syntax-ns#">
   <cc:Work>
    <dc:type rdf:resource="http://purl.org/dc/dcmitype/StillImage"/>
    <dc:date>2025-08-01T22:09:18.606215</dc:date>
    <dc:format>image/svg+xml</dc:format>
    <dc:creator>
     <cc:Agent>
      <dc:title>Matplotlib v3.10.3, https://matplotlib.org/</dc:title>
     </cc:Agent>
    </dc:creator>
   </cc:Work>
  </rdf:RDF>
 </metadata>
 <defs>
  <style type="text/css">*{stroke-linejoin: round; stroke-linecap: butt}</style>
 </defs>
 <g id="figure_1">
  <g id="patch_1">
   <path d="M 0 345.6 
L 460.8 345.6 
L 460.8 0 
L 0 0 
z
" style="fill: #ffffff"/>
  </g>
  <g id="axes_1">
   <g id="patch_2">
    <path d="M 0 345.6 
L 460.8 345.6 
L 460.8 0 
L 0 0 
z
" style="fill: #ffffff"/>
   </g>
   <g id="matplotlib.axis_1">
    <g id="xtick_1">
     <g id="line2d_1">
      <defs>
       <path id="m29160093b2" d="M 0 0 
L 0 3.5 
" style="stroke: #000000; stroke-width: 0.8"/>
      </defs>
      <g>
       <use xlink:href="#m29160093b2" x="40.50989" y="172.8" style="stroke: #000000; stroke-width: 0.8"/>
      </g>
     </g>
     <g id="text_1">
      <!-- −3 -->
      <g transform="translate(33.138796 187.398437) scale(0.1 -0.1)">
       <defs>
        <path id="DejaVuSans-2212" d="M 678 2272 
L 4684 2272 
L 4684 1741 
L 678 1741 
L 678 2272 
z
" transform="scale(0.015625)"/>
        <path id="DejaVuSans-33" d="M 2597 2516 
Q 3050 2419 3304 2112 
Q 3559 1806 3559 1356 
Q 3559 666 3084 287 
Q 2609 -91 1734 -91 
Q 1441 -91 1130 -33 
Q 819 25 488 141 
L 488 750 
Q 750 597 1062 519 
Q 1375 441 1716 441 
Q 2309 441 2620 675 
Q 2931 909 2931 1356 
Q 2931 1769 2642 2001 
Q 2353 2234 1838 2234 
L 1294 2234 
L 1294 2753 
L 1863 2753 
Q 2328 2753 2575 2939 
Q 2822 3125 2822 3475 
Q 2822 3834 2567 4026 
Q 2313 4219 1838 4219 
Q 1578 4219 1281 4162 
Q 984 4106 628 3988 
L 628 4550 
Q 988 4650 1302 4700 
Q 1616 4750 1894 4750 
Q 2613 4750 3031 4423 
Q 3450 4097 3450 3541 
Q 3450 3153 3228 2886 
Q 3006 2619 2597 2516 
z
" transform="scale(0.015625)"/>
       </defs>
       <use xlink:href="#DejaVuSans-2212"/>
       <use xlink:href="#DejaVuSans-33" transform="translate(83.789062 0)"/>
      </g>
     </g>
    </g>
    <g id="xtick_2">
     <g id="line2d_2">
      <g>
       <use xlink:href="#m29160093b2" x="103.806593" y="172.8" style="stroke: #000000; stroke-width: 0.8"/>
      </g>
     </g>
     <g id="text_2">
      <!-- −2 -->
      <g transform="translate(96.4355 187.398437) scale(0.1 -0.1)">
       <defs>
        <path id="DejaVuSans-32" d="M 1228 531 
L 3431 531 
L 3431 0 
L 469 0 
L 469 531 
Q 828 903 1448 1529 
Q 2069 2156 2228 2338 
Q 2531 2678 2651 2914 
Q 2772 3150 2772 3378 
Q 2772 3750 2511 3984 
Q 2250 4219 1831 4219 
Q 1534 4219 1204 4116 
Q 875 4013 500 3803 
L 500 4441 
Q 881 4594 1212 4672 
Q 1544 4750 1819 4750 
Q 2544 4750 2975 4387 
Q 3406 4025 3406 3419 
Q 3406 3131 3298 2873 
Q 3191 2616 2906 2266 
Q 2828 2175 2409 1742 
Q 1991 1309 1228 531 
z
" transform="scale(0.015625)"/>
       </defs>
       <use xlink:href="#DejaVuSans-2212"/>
       <use xlink:href="#DejaVuSans-32" transform="translate(83.789062 0)"/>
      </g>
     </g>
    </g>
    <g id="xtick_3">
     <g id="line2d_3">
      <g>
       <use xlink:href="#m29160093b2" x="167.103297" y="172.8" style="stroke: #000000; stroke-width: 0.8"/>
      </g>
     </g>
     <g id="text_3">
      <!-- −1 -->
      <g transform="translate(159.732203 187.398437) scale(0.1 -0.1)">
       <defs>
        <path id="DejaVuSans-31" d="M 794 531 
L 1825 531 
L 1825 4091 
L 703 3866 
L 703 4441 
L 1819 4666 
L 2450 4666 
L 2450 531 
L 3481 531 
L 3481 0 
L 794 0 
L 794 531 
z
" transform="scale(0.015625)"/>
       </defs>
       <use xlink:href="#DejaVuSans-2212"/>
       <use xlink:href="#DejaVuSans-31" transform="translate(83.789062 0)"/>
      </g>
     </g>
    </g>
    <g id="xtick_4">
     <g id="line2d_4">
      <g>
       <use xlink:href="#m29160093b2" x="230.4" y="172.8" style="stroke: #000000; stroke-width: 0.8"/>
      </g>
     </g>
    </g>
    <g id="xtick_5">
     <g id="line2d_5">
      <g>
       <use xlink:href="#m29160093b2" x="293.696703" y="172.8" style="stroke: #000000; stroke-width: 0.8"/>
      </g>
     </g>
     <g id="text_4">
      <!-- 1 -->
      <g transform="translate(290.515453 187.398437) scale(0.1 -0.1)">
       <use xlink:href="#DejaVuSans-31"/>
      </g>
     </g>
    </g>
    <g id="xtick_6">
     <g id="line2d_6">
      <g>
       <use xlink:href="#m29160093b2" x="356.993407" y="172.8" style="stroke: #000000; stroke-width: 0.8"/>
      </g>
     </g>
     <g id="text_5">
      <!-- 2 -->
      <g transform="translate(353.812157 187.398437) scale(0.1 -0.1)">
       <use xlink:href="#DejaVuSans-32"/>
      </g>
     </g>
    </g>
    <g id="xtick_7">
     <g id="line2d_7">
      <g>
       <use xlink:href="#m29160093b2" x="420.29011" y="172.8" style="stroke: #000000; stroke-width: 0.8"/>
      </g>
     </g>
     <g id="text_6">
      <!-- 3 -->
      <g transform="translate(417.10886 187.398437) scale(0.1 -0.1)">
       <use xlink:href="#DejaVuSans-33"/>
      </g>
     </g>
    </g>
    <g id="xtick_8">
     <g id="line2d_8">
      <defs>
       <path id="m7bda3c6a96" d="M 0 0 
L 0 2 
" style="stroke: #000000; stroke-width: 0.6"/>
      </defs>
      <g>
       <use xlink:href="#m7bda3c6a96" x="2.531868" y="172.8" style="stroke: #000000; stroke-width: 0.6"/>
      </g>
     </g>
    </g>
    <g id="xtick_9">
     <g id="line2d_9">
      <g>
       <use xlink:href="#m7bda3c6a96" x="15.191209" y="172.8" style="stroke: #000000; stroke-width: 0.6"/>
      </g>
     </g>
    </g>
    <g id="xtick_10">
     <g id="line2d_10">
      <g>
       <use xlink:href="#m7bda3c6a96" x="27.850549" y="172.8" style="stroke: #000000; stroke-width: 0.6"/>
      </g>
     </g>
    </g>
    <g id="xtick_11">
     <g id="line2d_11">
      <g>
       <use xlink:href="#m7bda3c6a96" x="53.169231" y="172.8" style="stroke: #000000; stroke-width: 0.6"/>
      </g>
     </g>
    </g>
    <g id="xtick_12">
     <g id="line2d_12">
      <g>
       <use xlink:href="#m7bda3c6a96" x="65.828571" y="172.8" style="stroke: #000000; stroke-width: 0.6"/>
      </g>
     </g>
    </g>
    <g id="xtick_13">
     <g id="line2d_13">
      <g>
       <use xlink:href="#m7bda3c6a96" x="78.487912" y="172.8" style="stroke: #000000; stroke-width: 0.6"/>
      </g>
     </g>
    </g>
    <g id="xtick_14">
     <g id="line2d_14">
      <g>
       <use xlink:href="#m7bda3c6a96" x="91.147253" y="172.8" style="stroke: #000000; stroke-width: 0.6"/>
      </g>
     </g>
    </g>
    <g id="xtick_15">
     <g id="line2d_15">
      <g>
       <use xlink:href="#m7bda3c6a96" x="116.465934" y="172.8" style="stroke: #000000; stroke-width: 0.6"/>
      </g>
     </g>
    </g>
    <g id="xtick_16">
     <g id="line2d_16">
      <g>
       <use xlink:href="#m7bda3c6a96" x="129.125275" y="172.8" style="stroke: #000000; stroke-width: 0.6"/>
      </g>
     </g>
    </g>
    <g id="xtick_17">
     <g id="line2d_17">
      <g>
       <use xlink:href="#m7bda3c6a96" x="141.784615" y="172.8" style="stroke: #000000; stroke-width: 0.6"/>
      </g>
     </g>
    </g>
    <g id="xtick_18">
     <g id="line2d_18">
      <g>
       <use xlink:href="#m7bda3c6a96" x="154.443956" y="172.8" style="stroke: #000000; stroke-width: 0.6"/>
      </g>
     </g>
    </g>
    <g id="xtick_19">
     <g id="line2d_19">
      <g>
       <use xlink:href="#m7bda3c6a96" x="179.762637" y="172.8" style="stroke: #000000; stroke-width: 0.6"/>
      </g>
     </g>
    </g>
    <g id="xtick_20">
     <g id="line2d_20">
      <g>
       <use xlink:href="#m7bda3c6a96" x="192.421978" y="172.8" style="stroke: #000000; stroke-width: 0.6"/>
      </g>
     </g>
    </g>
    <g id="xtick_21">
     <g id="line2d_21">
      <g>
       <use xlink:href="#m7bda3c6a96" x="205.081319" y="172.8" style="stroke: #000000; stroke-width: 0.6"/>
      </g>
     </g>
    </g>
    <g id="xtick_22">
     <g id="line2d_22">
      <g>
       <use xlink:href="#m7bda3c6a96" x="217.740659" y="172.8" style="stroke: #000000; stroke-width: 0.6"/>
      </g>
     </g>
    </g>
    <g id="xtick_23">
     <g id="line2d_23">
      <g>
       <use xlink:href="#m7bda3c6a96" x="243.059341" y="172.8" style="stroke: #000000; stroke-width: 0.6"/>
      </g>
     </g>
    </g>
    <g id="xtick_24">
     <g id="line2d_24">
      <g>
       <use xlink:href="#m7bda3c6a96" x="255.718681" y="172.8" style="stroke: #000000; stroke-width: 0.6"/>
      </g>
     </g>
    </g>
    <g id="xtick_25">
     <g id="line2d_25">
      <g>
       <use xlink:href="#m7bda3c6a96" x="268.378022" y="172.8" style="stroke: #000000; stroke-width: 0.6"/>
      </g>
     </g>
    </g>
    <g id="xtick_26">
     <g id="line2d_26">
      <g>
       <use xlink:href="#m7bda3c6a96" x="281.037363" y="172.8" style="stroke: #000000; stroke-width: 0.6"/>
      </g>
     </g>
    </g>
    <g id="xtick_27">
     <g id="line2d_27">
      <g>
       <use xlink:href="#m7bda3c6a96" x="306.356044" y="172.8" style="stroke: #000000; stroke-width: 0.6"/>
      </g>
     </g>
    </g>
    <g id="xtick_28">
     <g id="line2d_28">
      <g>
       <use xlink:href="#m7bda3c6a96" x="319.015385" y="172.8" style="stroke: #000000; stroke-width: 0.6"/>
      </g>
     </g>
    </g>
    <g id="xtick_29">
     <g id="line2d_29">
      <g>
       <use xlink:href="#m7bda3c6a96" x="331.674725" y="172.8" style="stroke: #000000; stroke-width: 0.6"/>
      </g>
     </g>
    </g>
    <g id="xtick_30">
     <g id="line2d_30">
      <g>
       <use xlink:href="#m7bda3c6a96" x="344.334066" y="172.8" style="stroke: #000000; stroke-width: 0.6"/>
      </g>
     </g>
    </g>
    <g id="xtick_31">
     <g id="line2d_31">
      <g>
       <use xlink:href="#m7bda3c6a96" x="369.652747" y="172.8" style="stroke: #000000; stroke-width: 0.6"/>
      </g>
     </g>
    </g>
    <g id="xtick_32">
     <g id="line2d_32">
      <g>
       <use xlink:href="#m7bda3c6a96" x="382.312088" y="172.8" style="stroke: #000000; stroke-width: 0.6"/>
      </g>
     </g>
    </g>
    <g id="xtick_33">
     <g id="line2d_33">
      <g>
       <use xlink:href="#m7bda3c6a96" x="394.971429" y="172.8" style="stroke: #000000; stroke-width: 0.6"/>
      </g>
     </g>
    </g>
    <g id="xtick_34">
     <g id="line2d_34">
      <g>
       <use xlink:href="#m7bda3c6a96" x="407.630769" y="172.8" style="stroke: #000000; stroke-width: 0.6"/>
      </g>
     </g>
    </g>
    <g id="xtick_35">
     <g id="line2d_35">
      <g>
       <use xlink:href="#m7bda3c6a96" x="432.949451" y="172.8" style="stroke: #000000; stroke-width: 0.6"/>
      </g>
     </g>
    </g>
    <g id="xtick_36">
     <g id="line2d_36">
      <g>
       <use xlink:href="#m7bda3c6a96" x="445.608791" y="172.8" style="stroke: #000000; stroke-width: 0.6"/>
      </g>
     </g>
    </g>
    <g id="xtick_37">
     <g id="line2d_37">
      <g>
       <use xlink:href="#m7bda3c6a96" x="458.268132" y="172.8" style="stroke: #000000; stroke-width: 0.6"/>
      </g>
     </g>
    </g>
   </g>
   <g id="matplotlib.axis_2">
    <g id="ytick_1">
     <g id="line2d_38">
      <defs>
       <path id="m18672d1333" d="M 0 0 
L -3.5 0 
" style="stroke: #000000; stroke-width: 0.8"/>
      </defs>
      <g>
       <use xlink:href="#m18672d1333" x="230.4" y="305.723077" style="stroke: #000000; stroke-width: 0.8"/>
      </g>
     </g>
     <g id="text_7">
      <!-- −4 -->
      <g transform="translate(208.657812 309.522296) scale(0.1 -0.1)">
       <defs>
        <path id="DejaVuSans-34" d="M 2419 4116 
L 825 1625 
L 2419 1625 
L 2419 4116 
z
M 2253 4666 
L 3047 4666 
L 3047 1625 
L 3713 1625 
L 3713 1100 
L 3047 1100 
L 3047 0 
L 2419 0 
L 2419 1100 
L 313 1100 
L 313 1709 
L 2253 4666 
z
" transform="scale(0.015625)"/>
       </defs>
       <use xlink:href="#DejaVuSans-2212"/>
       <use xlink:href="#DejaVuSans-34" transform="translate(83.789062 0)"/>
      </g>
     </g>
    </g>
    <g id="ytick_2">
     <g id="line2d_39">
      <g>
       <use xlink:href="#m18672d1333" x="230.4" y="239.261538" style="stroke: #000000; stroke-width: 0.8"/>
      </g>
     </g>
     <g id="text_8">
      <!-- −2 -->
      <g transform="translate(208.657812 243.060757) scale(0.1 -0.1)">
       <use xlink:href="#DejaVuSans-2212"/>
       <use xlink:href="#DejaVuSans-32" transform="translate(83.789062 0)"/>
      </g>
     </g>
    </g>
    <g id="ytick_3">
     <g id="line2d_40">
      <g>
       <use xlink:href="#m18672d1333" x="230.4" y="172.8" style="stroke: #000000; stroke-width: 0.8"/>
      </g>
     </g>
    </g>
    <g id="ytick_4">
     <g id="line2d_41">
      <g>
       <use xlink:href="#m18672d1333" x="230.4" y="106.338462" style="stroke: #000000; stroke-width: 0.8"/>
      </g>
     </g>
     <g id="text_9">
      <!-- 2 -->
      <g transform="translate(217.0375 110.13768) scale(0.1 -0.1)">
       <use xlink:href="#DejaVuSans-32"/>
      </g>
     </g>
    </g>
    <g id="ytick_5">
     <g id="line2d_42">
      <g>
       <use xlink:href="#m18672d1333" x="230.4" y="39.876923" style="stroke: #000000; stroke-width: 0.8"/>
      </g>
     </g>
     <g id="text_10">
      <!-- 4 -->
      <g transform="translate(217.0375 43.676142) scale(0.1 -0.1)">
       <use xlink:href="#DejaVuSans-34"/>
      </g>
     </g>
    </g>
    <g id="ytick_6">
     <g id="line2d_43">
      <defs>
       <path id="m38c85af742" d="M 0 0 
L -2 0 
" style="stroke: #000000; stroke-width: 0.6"/>
      </defs>
      <g>
       <use xlink:href="#m38c85af742" x="230.4" y="338.953846" style="stroke: #000000; stroke-width: 0.6"/>
      </g>
     </g>
    </g>
    <g id="ytick_7">
     <g id="line2d_44">
      <g>
       <use xlink:href="#m38c85af742" x="230.4" y="322.338462" style="stroke: #000000; stroke-width: 0.6"/>
      </g>
     </g>
    </g>
    <g id="ytick_8">
     <g id="line2d_45">
      <g>
       <use xlink:href="#m38c85af742" x="230.4" y="289.107692" style="stroke: #000000; stroke-width: 0.6"/>
      </g>
     </g>
    </g>
    <g id="ytick_9">
     <g id="line2d_46">
      <g>
       <use xlink:href="#m38c85af742" x="230.4" y="272.492308" style="stroke: #000000; stroke-width: 0.6"/>
      </g>
     </g>
    </g>
    <g id="ytick_10">
     <g id="line2d_47">
      <g>
       <use xlink:href="#m38c85af742" x="230.4" y="255.876923" style="stroke: #000000; stroke-width: 0.6"/>
      </g>
     </g>
    </g>
    <g id="ytick_11">
     <g id="line2d_48">
      <g>
       <use xlink:href="#m38c85af742" x="230.4" y="222.646154" style="stroke: #000000; stroke-width: 0.6"/>
      </g>
     </g>
    </g>
    <g id="ytick_12">
     <g id="line2d_49">
      <g>
       <use xlink:href="#m38c85af742" x="230.4" y="206.030769" style="stroke: #000000; stroke-width: 0.6"/>
      </g>
     </g>
    </g>
    <g id="ytick_13">
     <g id="line2d_50">
      <g>
       <use xlink:href="#m38c85af742" x="230.4" y="189.415385" style="stroke: #000000; stroke-width: 0.6"/>
      </g>
     </g>
    </g>
    <g id="ytick_14">
     <g id="line2d_51">
      <g>
       <use xlink:href="#m38c85af742" x="230.4" y="156.184615" style="stroke: #000000; stroke-width: 0.6"/>
      </g>
     </g>
    </g>
    <g id="ytick_15">
     <g id="line2d_52">
      <g>
       <use xlink:href="#m38c85af742" x="230.4" y="139.569231" style="stroke: #000000; stroke-width: 0.6"/>
      </g>
     </g>
    </g>
    <g id="ytick_16">
     <g id="line2d_53">
      <g>
       <use xlink:href="#m38c85af742" x="230.4" y="122.953846" style="stroke: #000000; stroke-width: 0.6"/>
      </g>
     </g>
    </g>
    <g id="ytick_17">
     <g id="line2d_54">
      <g>
       <use xlink:href="#m38c85af742" x="230.4" y="89.723077" style="stroke: #000000; stroke-width: 0.6"/>
      </g>
     </g>
    </g>
    <g id="ytick_18">
     <g id="line2d_55">
      <g>
       <use xlink:href="#m38c85af742" x="230.4" y="73.107692" style="stroke: #000000; stroke-width: 0.6"/>
      </g>
     </g>
    </g>
    <g id="ytick_19">
     <g id="line2d_56">
      <g>
       <use xlink:href="#m38c85af742" x="230.4" y="56.492308" style="stroke: #000000; stroke-width: 0.6"/>
      </g>
     </g>
    </g>
    <g id="ytick_20">
     <g id="line2d_57">
      <g>
       <use xlink:href="#m38c85af742" x="230.4" y="23.261538" style="stroke: #000000; stroke-width: 0.6"/>
      </g>
     </g>
    </g>
    <g id="ytick_21">
     <g id="line2d_58">
      <g>
       <use xlink:href="#m38c85af742" x="230.4" y="6.646154" style="stroke: #000000; stroke-width: 0.6"/>
      </g>
     </g>
    </g>
   </g>
   <g id="line2d_59">
    <path d="M 8.861538 165.046154 
L 11.671474 164.859188 
L 13.355708 164.743793 
L 15.556398 164.589097 
L 17.379643 164.457458 
L 20.61942 164.215418 
L 21.265628 164.165853 
L 24.045163 163.947568 
L 26.521593 163.745865 
L 28.529276 163.577111 
L 30.041678 163.446773 
L 34.367793 163.057904 
L 35.148133 162.985116 
L 38.217103 162.690571 
L 40.066813 162.506418 
L 40.288352 162.484016 
L 40.399121 162.472786 
L 40.454505 162.467165 
" clip-path="url(#pf31d41aacf)" style="fill: none; stroke: #0000ff; stroke-linecap: square"/>
   </g>
   <g id="line2d_60">
    <path d="M 40.952967 165.383112 
L 41.076292 165.374091 
L 42.405382 165.275785 
L 43.945419 165.159344 
L 46.10785 164.991095 
L 48.584799 164.791249 
L 50.131973 164.662384 
L 54.060006 164.320441 
L 56.378811 164.108041 
L 57.25257 164.025865 
L 59.319537 163.826611 
L 61.824235 163.575619 
L 65.526105 163.184226 
L 67.192551 162.999565 
L 67.879184 162.921872 
L 72.219609 162.407829 
L 72.994729 162.311658 
L 75.610479 161.976677 
L 77.730848 161.692738 
L 81.187142 161.204338 
L 81.735079 161.123837 
L 84.555842 160.695262 
L 87.359367 160.244424 
L 88.919715 159.98201 
L 90.141566 159.770472 
L 93.5369 159.152998 
L 94.91264 158.889636 
L 97.045664 158.46521 
L 99.416838 157.968993 
L 102.275236 157.333907 
L 103.363516 157.080766 
L 103.626364 157.018644 
L 103.757788 156.987438 
" clip-path="url(#pf31d41aacf)" style="fill: none; stroke: #0000ff; stroke-linecap: square"/>
   </g>
   <g id="line2d_61">
    <path d="M 103.8235 163.303079 
L 103.889211 163.29368 
L 104.24967 163.241863 
L 106.517355 162.90538 
L 109.544142 162.426169 
L 110.269602 162.305836 
L 112.638011 161.89715 
L 116.390685 161.195646 
L 116.997555 161.075454 
L 120.028591 160.444279 
L 122.085224 159.984455 
L 125.656779 159.117849 
L 126.597453 158.873873 
L 128.967691 158.227072 
L 130.581283 157.758539 
L 132.194874 157.265172 
L 134.057879 156.662155 
L 136.747811 155.721885 
L 138.709543 154.978525 
L 139.470246 154.675968 
L 141.41259 153.864146 
L 143.354935 152.991024 
L 144.542198 152.424253 
L 145.729461 151.830303 
L 147.286344 151.007048 
L 148.736629 150.190968 
L 150.521384 149.114969 
L 152.234174 147.999905 
L 153.090568 147.409157 
L 153.946963 146.794547 
L 155.331404 145.746854 
L 156.715846 144.626443 
L 157.45776 143.993518 
L 158.403006 143.151743 
L 159.348251 142.267635 
L 160.293497 141.338038 
L 161.238742 140.359478 
L 162.349844 139.141398 
L 163.03218 138.354231 
L 163.714516 137.535164 
L 164.396853 136.682279 
L 165.079189 135.793504 
L 165.869704 134.71598 
L 166.66022 133.583452 
L 167.029383 133.034565 
L 167.075528 132.965025 
" clip-path="url(#pf31d41aacf)" style="fill: none; stroke: #0000ff; stroke-linecap: square"/>
   </g>
   <g id="line2d_62">
    <path d="M 167.213965 159.451713 
L 168.825686 158.587962 
L 171.106189 157.188129 
L 173.112798 155.744386 
L 175.527723 153.66736 
L 177.220597 151.927207 
L 179.309 149.354632 
L 180.947491 146.906468 
L 182.551026 144.023972 
L 184.137084 140.542738 
L 185.458799 137.000295 
L 186.67164 133.061438 
L 187.868452 128.307448 
L 188.825901 123.673504 
L 189.907679 117.22406 
L 190.902305 109.71852 
L 191.772603 101.389894 
L 192.652544 90.54541 
L 193.385829 78.785083 
L 194.119113 63.294944 
L 194.794918 43.927924 
L 195.386248 20.594595 
L 195.794771 -1 
L 195.794771 -1 
" clip-path="url(#pf31d41aacf)" style="fill: none; stroke: #0000ff; stroke-linecap: square"/>
   </g>
   <g id="line2d_63">
    <path d="M 198.754538 -1 
L 198.755081 346.6 
" clip-path="url(#pf31d41aacf)" style="fill: none; stroke-dasharray: 3.7,1.6; stroke-dashoffset: 0; stroke: #cccccc"/>
   </g>
   <g id="line2d_64">
    <path d="M 201.853481 346.6 
L 202.443241 319.523793 
L 203.121713 297.432275 
L 203.909056 279.090302 
L 204.716309 265.320093 
L 205.627047 253.67517 
L 206.574861 244.444024 
L 207.544543 237.067816 
L 208.645431 230.455504 
L 209.589049 225.864481 
L 210.903383 220.66853 
L 212.236444 216.444804 
L 213.367899 213.47309 
L 214.638615 210.649375 
L 216.056193 207.999501 
L 217.609957 205.565186 
L 219.077377 203.619477 
L 220.37388 202.129321 
L 221.988606 200.517607 
L 223.758399 199.004668 
L 225.672369 197.609028 
L 227.596507 196.409884 
L 230.344615 194.979745 
L 230.344615 194.979745 
" clip-path="url(#pf31d41aacf)" style="fill: none; stroke: #0000ff; stroke-linecap: square"/>
   </g>
   <g id="line2d_65">
    <path d="M 230.843077 150.84959 
L 231.47114 151.126896 
L 232.385616 151.508758 
L 233.300092 151.866393 
L 234.986592 152.468185 
L 236.673091 153.002908 
L 238.102571 153.409472 
L 239.426556 153.751564 
L 240.750541 154.063324 
L 242.225009 154.377711 
L 243.889959 154.694563 
L 245.55491 154.974275 
L 246.302774 155.088623 
L 249.135091 155.463038 
L 252.135735 155.766873 
L 254.544106 155.947745 
L 256.197446 156.041423 
L 257.749838 156.107633 
L 259.567098 156.159044 
L 261.384357 156.182787 
L 262.389511 156.184133 
L 264.677125 156.155907 
L 266.292469 156.109578 
L 269.08904 155.976461 
L 270.919037 155.851743 
L 272.777587 155.693089 
L 275.569676 155.390157 
L 278.162024 155.033188 
L 280.566605 154.629335 
L 282.417066 154.265279 
L 283.671901 153.989301 
L 284.926737 153.687715 
L 286.559392 153.253521 
L 287.892606 152.860463 
L 289.22582 152.429137 
L 290.533036 151.965228 
L 291.840251 151.456335 
L 293.253626 150.84959 
L 293.581973 150.699469 
L 293.66406 150.661369 
" clip-path="url(#pf31d41aacf)" style="fill: none; stroke: #0000ff; stroke-linecap: square"/>
   </g>
   <g id="line2d_66">
    <path d="M 293.746146 106.269115 
L 295.551453 103.553736 
L 297.375665 100.401736 
L 299.222835 96.707436 
L 301.051494 92.442267 
L 302.782724 87.716219 
L 304.472632 82.297668 
L 306.065546 76.274534 
L 307.658461 69.120097 
L 309.072624 61.554283 
L 310.401416 53.103997 
L 311.682202 43.368203 
L 312.921258 32.004431 
L 314.090766 18.94941 
L 315.206949 3.647769 
L 315.502731 -1 
L 315.502731 -1 
" clip-path="url(#pf31d41aacf)" style="fill: none; stroke: #0000ff; stroke-linecap: square"/>
   </g>
   <g id="line2d_67">
    <path d="M 325.406508 -1 
L 325.40665 346.6 
" clip-path="url(#pf31d41aacf)" style="fill: none; stroke-dasharray: 3.7,1.6; stroke-dashoffset: 0; stroke: #cccccc"/>
   </g>
   <g id="line2d_68">
    <path d="M 333.850494 346.6 
L 334.86302 326.954192 
L 336.013845 309.172784 
L 337.13249 295.233022 
L 338.251134 283.724354 
L 339.506459 272.989973 
L 340.777393 263.916084 
L 342.054108 256.204284 
L 343.418377 249.181325 
L 345.010025 242.235219 
L 346.784399 235.725189 
L 348.373651 230.760337 
L 350.268231 225.684728 
L 351.758632 222.214608 
L 353.751291 218.157534 
L 355.85057 214.471801 
L 356.953904 212.736728 
L 356.953904 212.736728 
" clip-path="url(#pf31d41aacf)" style="fill: none; stroke: #0000ff; stroke-linecap: square"/>
   </g>
   <g id="line2d_69">
    <path d="M 357.034619 239.157823 
L 357.196048 238.754238 
L 357.436484 238.160913 
L 358.198147 236.340605 
L 358.95981 234.605623 
L 359.420277 233.595691 
L 359.880745 232.613674 
L 360.341212 231.658464 
L 360.801679 230.729008 
L 361.474444 229.415269 
L 362.147208 228.151463 
L 362.819973 226.934876 
L 363.492738 225.762989 
L 364.155662 224.649683 
L 364.818586 223.575409 
L 365.553132 222.428297 
L 366.287678 221.324236 
L 367.10591 220.142272 
L 367.924142 219.007928 
L 368.742374 217.91848 
L 369.560606 216.871406 
L 370.628809 215.564361 
L 371.697013 214.320787 
L 372.536509 213.385163 
L 373.376004 212.484106 
L 374.736205 211.092955 
L 376.096407 209.780827 
L 377.51487 208.489882 
L 378.609232 207.543903 
L 379.703594 206.638535 
L 380.626089 205.905089 
L 381.548585 205.197394 
L 383.393575 203.854255 
L 385.088127 202.699034 
L 386.604777 201.723386 
L 388.121428 200.79856 
L 389.625016 199.928241 
L 391.057136 199.139388 
L 392.470322 198.396765 
L 393.883508 197.687433 
L 396.069188 196.651146 
L 397.815179 195.872353 
L 399.516798 195.151968 
L 401.218418 194.467036 
L 403.642715 193.547739 
L 404.574139 193.21104 
L 406.31035 192.606272 
L 408.021804 192.037645 
L 409.733257 191.494603 
L 412.812185 190.577107 
L 415.133658 189.931691 
L 416.232284 189.63911 
L 417.819394 189.230202 
L 419.847033 188.730229 
L 419.897783 188.718024 
L 420.106634 188.667956 
L 420.21106 188.643015 
L 420.263272 188.630568 
" clip-path="url(#pf31d41aacf)" style="fill: none; stroke: #0000ff; stroke-linecap: square"/>
   </g>
   <g id="line2d_70">
    <path d="M 420.733187 194.806928 
L 423.302652 193.984465 
L 426.091295 193.145417 
L 426.351984 193.069664 
L 428.513852 192.458196 
L 430.675719 191.875238 
L 432.800712 191.328251 
L 433.407543 191.176559 
L 437.338791 190.239332 
L 437.853583 190.122162 
L 439.840077 189.681369 
L 443.636563 188.886258 
L 445.836511 188.451942 
L 447.09716 188.211249 
L 450.614538 187.569342 
L 451.938462 187.338462 
" clip-path="url(#pf31d41aacf)" style="fill: none; stroke: #0000ff; stroke-linecap: square"/>
   </g>
   <g id="patch_3">
    <path d="M 230.4 345.6 
L 230.4 0 
" style="fill: none; stroke: #000000; stroke-width: 0.8; stroke-linejoin: miter; stroke-linecap: square"/>
   </g>
   <g id="patch_4">
    <path d="M 0 172.8 
L 460.8 172.8 
" style="fill: none; stroke: #000000; stroke-width: 0.8; stroke-linejoin: miter; stroke-linecap: square"/>
   </g>
  </g>
 </g>
 <defs>
  <clipPath id="pf31d41aacf">
   <rect x="0" y="0" width="460.8" height="345.6"/>
  </clipPath>
 </defs>
</svg>
