<?xml version="1.0" encoding="utf-8" standalone="no"?>
<!DOCTYPE svg PUBLIC "-//W3C//DTD SVG 1.1//EN"
  "http://www.w3.org/Graphics/SVG/1.1/DTD/svg11.dtd">
<svg xmlns:xlink="http://www.w3.org/1999/xlink" width="460.8pt" height="345.6pt" viewBox="0 0 460.8 345.6" xmlns="http://www.w3.org/2000/svg" version="1.1">
 <metadata>
  <rdf:RDF xmlns:dc="http://purl.org/dc/elements/1.1/" xmlns:cc="http://creativecommons.org/ns#" xmlns:rdf="http://www.w3.org/1999/02/22-rdf-syntax-ns#">
   <cc:Work>
    <dc:type rdf:resource="http://purl.org/dc/dcmitype/StillImage"/>
    <dc:date>2025-08-04T21:53:55.224209</dc:date>
    <dc:format>image/svg+xml</dc:format>
    <dc:creator>
     <cc:Agent>
      <dc:title>Matplotlib v3.10.3, https://matplotlib.org/</dc:title>
     </cc:Agent>
    </dc:creator>
   </cc:Work>
  </rdf:RDF>
 </metadata>
 <defs>
  <style type="text/css">*{stroke-linejoin: round; stroke-linecap: butt}</style>
 </defs>
 <g id="figure_1">
  <g id="patch_1">
   <path d="M 0 345.6 
L 460.8 345.6 
L 460.8 0 
L 0 0 
z
" style="fill: #ffffff"/>
  </g>
  <g id="axes_1">
   <g id="patch_2">
    <path d="M 3.84882 287.043599 
L 460.8 287.043599 
L 460.8 58.556401 
L 3.84882 58.556401 
z
" style="fill: #ffffff"/>
   </g>
   <g id="matplotlib.axis_1">
    <g id="xtick_1">
     <g id="line2d_1">
      <defs>
       <path id="m0d90a565bb" d="M 0 0 
L 0 3.5 
" style="stroke: #000000; stroke-width: 0.8"/>
      </defs>
      <g>
       <use xlink:href="#m0d90a565bb" x="12.613178" y="172.799884" style="stroke: #000000; stroke-width: 0.8"/>
      </g>
     </g>
     <g id="text_1">
      <!-- −1.0 -->
      <g transform="translate(0.471771 187.398321) scale(0.1 -0.1)">
       <defs>
        <path id="DejaVuSans-2212" d="M 678 2272 
L 4684 2272 
L 4684 1741 
L 678 1741 
L 678 2272 
z
" transform="scale(0.015625)"/>
        <path id="DejaVuSans-31" d="M 794 531 
L 1825 531 
L 1825 4091 
L 703 3866 
L 703 4441 
L 1819 4666 
L 2450 4666 
L 2450 531 
L 3481 531 
L 3481 0 
L 794 0 
L 794 531 
z
" transform="scale(0.015625)"/>
        <path id="DejaVuSans-2e" d="M 684 794 
L 1344 794 
L 1344 0 
L 684 0 
L 684 794 
z
" transform="scale(0.015625)"/>
        <path id="DejaVuSans-30" d="M 2034 4250 
Q 1547 4250 1301 3770 
Q 1056 3291 1056 2328 
Q 1056 1369 1301 889 
Q 1547 409 2034 409 
Q 2525 409 2770 889 
Q 3016 1369 3016 2328 
Q 3016 3291 2770 3770 
Q 2525 4250 2034 4250 
z
M 2034 4750 
Q 2819 4750 3233 4129 
Q 3647 3509 3647 2328 
Q 3647 1150 3233 529 
Q 2819 -91 2034 -91 
Q 1250 -91 836 529 
Q 422 1150 422 2328 
Q 422 3509 836 4129 
Q 1250 4750 2034 4750 
z
" transform="scale(0.015625)"/>
       </defs>
       <use xlink:href="#DejaVuSans-2212"/>
       <use xlink:href="#DejaVuSans-31" transform="translate(83.789062 0)"/>
       <use xlink:href="#DejaVuSans-2e" transform="translate(147.412109 0)"/>
       <use xlink:href="#DejaVuSans-30" transform="translate(179.199219 0)"/>
      </g>
     </g>
    </g>
    <g id="xtick_2">
     <g id="line2d_2">
      <g>
       <use xlink:href="#m0d90a565bb" x="122.463003" y="172.799884" style="stroke: #000000; stroke-width: 0.8"/>
      </g>
     </g>
     <g id="text_2">
      <!-- −0.5 -->
      <g transform="translate(110.321596 187.398321) scale(0.1 -0.1)">
       <defs>
        <path id="DejaVuSans-35" d="M 691 4666 
L 3169 4666 
L 3169 4134 
L 1269 4134 
L 1269 2991 
Q 1406 3038 1543 3061 
Q 1681 3084 1819 3084 
Q 2600 3084 3056 2656 
Q 3513 2228 3513 1497 
Q 3513 744 3044 326 
Q 2575 -91 1722 -91 
Q 1428 -91 1123 -41 
Q 819 9 494 109 
L 494 744 
Q 775 591 1075 516 
Q 1375 441 1709 441 
Q 2250 441 2565 725 
Q 2881 1009 2881 1497 
Q 2881 1984 2565 2268 
Q 2250 2553 1709 2553 
Q 1456 2553 1204 2497 
Q 953 2441 691 2322 
L 691 4666 
z
" transform="scale(0.015625)"/>
       </defs>
       <use xlink:href="#DejaVuSans-2212"/>
       <use xlink:href="#DejaVuSans-30" transform="translate(83.789062 0)"/>
       <use xlink:href="#DejaVuSans-2e" transform="translate(147.412109 0)"/>
       <use xlink:href="#DejaVuSans-35" transform="translate(179.199219 0)"/>
      </g>
     </g>
    </g>
    <g id="xtick_3">
     <g id="line2d_3">
      <g>
       <use xlink:href="#m0d90a565bb" x="232.312827" y="172.799884" style="stroke: #000000; stroke-width: 0.8"/>
      </g>
     </g>
    </g>
    <g id="xtick_4">
     <g id="line2d_4">
      <g>
       <use xlink:href="#m0d90a565bb" x="342.162652" y="172.799884" style="stroke: #000000; stroke-width: 0.8"/>
      </g>
     </g>
     <g id="text_3">
      <!-- 0.5 -->
      <g transform="translate(334.21109 187.398321) scale(0.1 -0.1)">
       <use xlink:href="#DejaVuSans-30"/>
       <use xlink:href="#DejaVuSans-2e" transform="translate(63.623047 0)"/>
       <use xlink:href="#DejaVuSans-35" transform="translate(95.410156 0)"/>
      </g>
     </g>
    </g>
    <g id="xtick_5">
     <g id="line2d_5">
      <g>
       <use xlink:href="#m0d90a565bb" x="452.012477" y="172.799884" style="stroke: #000000; stroke-width: 0.8"/>
      </g>
     </g>
     <g id="text_4">
      <!-- 1.0 -->
      <g transform="translate(444.060915 187.398321) scale(0.1 -0.1)">
       <use xlink:href="#DejaVuSans-31"/>
       <use xlink:href="#DejaVuSans-2e" transform="translate(63.623047 0)"/>
       <use xlink:href="#DejaVuSans-30" transform="translate(95.410156 0)"/>
      </g>
     </g>
    </g>
    <g id="xtick_6">
     <g id="line2d_6">
      <defs>
       <path id="m8a4fa7711b" d="M 0 0 
L 0 2 
" style="stroke: #000000; stroke-width: 0.6"/>
      </defs>
      <g>
       <use xlink:href="#m8a4fa7711b" x="34.583143" y="172.799884" style="stroke: #000000; stroke-width: 0.6"/>
      </g>
     </g>
    </g>
    <g id="xtick_7">
     <g id="line2d_7">
      <g>
       <use xlink:href="#m8a4fa7711b" x="56.553108" y="172.799884" style="stroke: #000000; stroke-width: 0.6"/>
      </g>
     </g>
    </g>
    <g id="xtick_8">
     <g id="line2d_8">
      <g>
       <use xlink:href="#m8a4fa7711b" x="78.523073" y="172.799884" style="stroke: #000000; stroke-width: 0.6"/>
      </g>
     </g>
    </g>
    <g id="xtick_9">
     <g id="line2d_9">
      <g>
       <use xlink:href="#m8a4fa7711b" x="100.493038" y="172.799884" style="stroke: #000000; stroke-width: 0.6"/>
      </g>
     </g>
    </g>
    <g id="xtick_10">
     <g id="line2d_10">
      <g>
       <use xlink:href="#m8a4fa7711b" x="144.432968" y="172.799884" style="stroke: #000000; stroke-width: 0.6"/>
      </g>
     </g>
    </g>
    <g id="xtick_11">
     <g id="line2d_11">
      <g>
       <use xlink:href="#m8a4fa7711b" x="166.402933" y="172.799884" style="stroke: #000000; stroke-width: 0.6"/>
      </g>
     </g>
    </g>
    <g id="xtick_12">
     <g id="line2d_12">
      <g>
       <use xlink:href="#m8a4fa7711b" x="188.372898" y="172.799884" style="stroke: #000000; stroke-width: 0.6"/>
      </g>
     </g>
    </g>
    <g id="xtick_13">
     <g id="line2d_13">
      <g>
       <use xlink:href="#m8a4fa7711b" x="210.342863" y="172.799884" style="stroke: #000000; stroke-width: 0.6"/>
      </g>
     </g>
    </g>
    <g id="xtick_14">
     <g id="line2d_14">
      <g>
       <use xlink:href="#m8a4fa7711b" x="254.282792" y="172.799884" style="stroke: #000000; stroke-width: 0.6"/>
      </g>
     </g>
    </g>
    <g id="xtick_15">
     <g id="line2d_15">
      <g>
       <use xlink:href="#m8a4fa7711b" x="276.252757" y="172.799884" style="stroke: #000000; stroke-width: 0.6"/>
      </g>
     </g>
    </g>
    <g id="xtick_16">
     <g id="line2d_16">
      <g>
       <use xlink:href="#m8a4fa7711b" x="298.222722" y="172.799884" style="stroke: #000000; stroke-width: 0.6"/>
      </g>
     </g>
    </g>
    <g id="xtick_17">
     <g id="line2d_17">
      <g>
       <use xlink:href="#m8a4fa7711b" x="320.192687" y="172.799884" style="stroke: #000000; stroke-width: 0.6"/>
      </g>
     </g>
    </g>
    <g id="xtick_18">
     <g id="line2d_18">
      <g>
       <use xlink:href="#m8a4fa7711b" x="364.132617" y="172.799884" style="stroke: #000000; stroke-width: 0.6"/>
      </g>
     </g>
    </g>
    <g id="xtick_19">
     <g id="line2d_19">
      <g>
       <use xlink:href="#m8a4fa7711b" x="386.102582" y="172.799884" style="stroke: #000000; stroke-width: 0.6"/>
      </g>
     </g>
    </g>
    <g id="xtick_20">
     <g id="line2d_20">
      <g>
       <use xlink:href="#m8a4fa7711b" x="408.072547" y="172.799884" style="stroke: #000000; stroke-width: 0.6"/>
      </g>
     </g>
    </g>
    <g id="xtick_21">
     <g id="line2d_21">
      <g>
       <use xlink:href="#m8a4fa7711b" x="430.042512" y="172.799884" style="stroke: #000000; stroke-width: 0.6"/>
      </g>
     </g>
    </g>
   </g>
   <g id="matplotlib.axis_2">
    <g id="ytick_1">
     <g id="line2d_22">
      <defs>
       <path id="m28bf809814" d="M 0 0 
L -3.5 0 
" style="stroke: #000000; stroke-width: 0.8"/>
      </defs>
      <g>
       <use xlink:href="#m28bf809814" x="232.312827" y="260.679743" style="stroke: #000000; stroke-width: 0.8"/>
      </g>
     </g>
     <g id="text_5">
      <!-- −0.4 -->
      <g transform="translate(201.030015 264.478962) scale(0.1 -0.1)">
       <defs>
        <path id="DejaVuSans-34" d="M 2419 4116 
L 825 1625 
L 2419 1625 
L 2419 4116 
z
M 2253 4666 
L 3047 4666 
L 3047 1625 
L 3713 1625 
L 3713 1100 
L 3047 1100 
L 3047 0 
L 2419 0 
L 2419 1100 
L 313 1100 
L 313 1709 
L 2253 4666 
z
" transform="scale(0.015625)"/>
       </defs>
       <use xlink:href="#DejaVuSans-2212"/>
       <use xlink:href="#DejaVuSans-30" transform="translate(83.789062 0)"/>
       <use xlink:href="#DejaVuSans-2e" transform="translate(147.412109 0)"/>
       <use xlink:href="#DejaVuSans-34" transform="translate(179.199219 0)"/>
      </g>
     </g>
    </g>
    <g id="ytick_2">
     <g id="line2d_23">
      <g>
       <use xlink:href="#m28bf809814" x="232.312827" y="216.739814" style="stroke: #000000; stroke-width: 0.8"/>
      </g>
     </g>
     <g id="text_6">
      <!-- −0.2 -->
      <g transform="translate(201.030015 220.539032) scale(0.1 -0.1)">
       <defs>
        <path id="DejaVuSans-32" d="M 1228 531 
L 3431 531 
L 3431 0 
L 469 0 
L 469 531 
Q 828 903 1448 1529 
Q 2069 2156 2228 2338 
Q 2531 2678 2651 2914 
Q 2772 3150 2772 3378 
Q 2772 3750 2511 3984 
Q 2250 4219 1831 4219 
Q 1534 4219 1204 4116 
Q 875 4013 500 3803 
L 500 4441 
Q 881 4594 1212 4672 
Q 1544 4750 1819 4750 
Q 2544 4750 2975 4387 
Q 3406 4025 3406 3419 
Q 3406 3131 3298 2873 
Q 3191 2616 2906 2266 
Q 2828 2175 2409 1742 
Q 1991 1309 1228 531 
z
" transform="scale(0.015625)"/>
       </defs>
       <use xlink:href="#DejaVuSans-2212"/>
       <use xlink:href="#DejaVuSans-30" transform="translate(83.789062 0)"/>
       <use xlink:href="#DejaVuSans-2e" transform="translate(147.412109 0)"/>
       <use xlink:href="#DejaVuSans-32" transform="translate(179.199219 0)"/>
      </g>
     </g>
    </g>
    <g id="ytick_3">
     <g id="line2d_24">
      <g>
       <use xlink:href="#m28bf809814" x="232.312827" y="172.799884" style="stroke: #000000; stroke-width: 0.8"/>
      </g>
     </g>
    </g>
    <g id="ytick_4">
     <g id="line2d_25">
      <g>
       <use xlink:href="#m28bf809814" x="232.312827" y="128.859954" style="stroke: #000000; stroke-width: 0.8"/>
      </g>
     </g>
     <g id="text_7">
      <!-- 0.2 -->
      <g transform="translate(209.409702 132.659172) scale(0.1 -0.1)">
       <use xlink:href="#DejaVuSans-30"/>
       <use xlink:href="#DejaVuSans-2e" transform="translate(63.623047 0)"/>
       <use xlink:href="#DejaVuSans-32" transform="translate(95.410156 0)"/>
      </g>
     </g>
    </g>
    <g id="ytick_5">
     <g id="line2d_26">
      <g>
       <use xlink:href="#m28bf809814" x="232.312827" y="84.920024" style="stroke: #000000; stroke-width: 0.8"/>
      </g>
     </g>
     <g id="text_8">
      <!-- 0.4 -->
      <g transform="translate(209.409702 88.719242) scale(0.1 -0.1)">
       <use xlink:href="#DejaVuSans-30"/>
       <use xlink:href="#DejaVuSans-2e" transform="translate(63.623047 0)"/>
       <use xlink:href="#DejaVuSans-34" transform="translate(95.410156 0)"/>
      </g>
     </g>
    </g>
    <g id="ytick_6">
     <g id="line2d_27">
      <defs>
       <path id="m9f06baedf2" d="M 0 0 
L -2 0 
" style="stroke: #000000; stroke-width: 0.6"/>
      </defs>
      <g>
       <use xlink:href="#m9f06baedf2" x="232.312827" y="282.649708" style="stroke: #000000; stroke-width: 0.6"/>
      </g>
     </g>
    </g>
    <g id="ytick_7">
     <g id="line2d_28">
      <g>
       <use xlink:href="#m9f06baedf2" x="232.312827" y="271.664726" style="stroke: #000000; stroke-width: 0.6"/>
      </g>
     </g>
    </g>
    <g id="ytick_8">
     <g id="line2d_29">
      <g>
       <use xlink:href="#m9f06baedf2" x="232.312827" y="249.694761" style="stroke: #000000; stroke-width: 0.6"/>
      </g>
     </g>
    </g>
    <g id="ytick_9">
     <g id="line2d_30">
      <g>
       <use xlink:href="#m9f06baedf2" x="232.312827" y="238.709779" style="stroke: #000000; stroke-width: 0.6"/>
      </g>
     </g>
    </g>
    <g id="ytick_10">
     <g id="line2d_31">
      <g>
       <use xlink:href="#m9f06baedf2" x="232.312827" y="227.724796" style="stroke: #000000; stroke-width: 0.6"/>
      </g>
     </g>
    </g>
    <g id="ytick_11">
     <g id="line2d_32">
      <g>
       <use xlink:href="#m9f06baedf2" x="232.312827" y="205.754831" style="stroke: #000000; stroke-width: 0.6"/>
      </g>
     </g>
    </g>
    <g id="ytick_12">
     <g id="line2d_33">
      <g>
       <use xlink:href="#m9f06baedf2" x="232.312827" y="194.769849" style="stroke: #000000; stroke-width: 0.6"/>
      </g>
     </g>
    </g>
    <g id="ytick_13">
     <g id="line2d_34">
      <g>
       <use xlink:href="#m9f06baedf2" x="232.312827" y="183.784866" style="stroke: #000000; stroke-width: 0.6"/>
      </g>
     </g>
    </g>
    <g id="ytick_14">
     <g id="line2d_35">
      <g>
       <use xlink:href="#m9f06baedf2" x="232.312827" y="161.814901" style="stroke: #000000; stroke-width: 0.6"/>
      </g>
     </g>
    </g>
    <g id="ytick_15">
     <g id="line2d_36">
      <g>
       <use xlink:href="#m9f06baedf2" x="232.312827" y="150.829919" style="stroke: #000000; stroke-width: 0.6"/>
      </g>
     </g>
    </g>
    <g id="ytick_16">
     <g id="line2d_37">
      <g>
       <use xlink:href="#m9f06baedf2" x="232.312827" y="139.844936" style="stroke: #000000; stroke-width: 0.6"/>
      </g>
     </g>
    </g>
    <g id="ytick_17">
     <g id="line2d_38">
      <g>
       <use xlink:href="#m9f06baedf2" x="232.312827" y="117.874971" style="stroke: #000000; stroke-width: 0.6"/>
      </g>
     </g>
    </g>
    <g id="ytick_18">
     <g id="line2d_39">
      <g>
       <use xlink:href="#m9f06baedf2" x="232.312827" y="106.889989" style="stroke: #000000; stroke-width: 0.6"/>
      </g>
     </g>
    </g>
    <g id="ytick_19">
     <g id="line2d_40">
      <g>
       <use xlink:href="#m9f06baedf2" x="232.312827" y="95.905006" style="stroke: #000000; stroke-width: 0.6"/>
      </g>
     </g>
    </g>
    <g id="ytick_20">
     <g id="line2d_41">
      <g>
       <use xlink:href="#m9f06baedf2" x="232.312827" y="73.935041" style="stroke: #000000; stroke-width: 0.6"/>
      </g>
     </g>
    </g>
    <g id="ytick_21">
     <g id="line2d_42">
      <g>
       <use xlink:href="#m9f06baedf2" x="232.312827" y="62.950059" style="stroke: #000000; stroke-width: 0.6"/>
      </g>
     </g>
    </g>
   </g>
   <g id="line2d_43">
    <path d="M 452.012477 172.799884 
L 451.910726 168.072902 
L 451.373105 160.965142 
L 450.565076 155.02635 
L 449.276609 148.436299 
L 446.605841 138.761605 
L 443.568259 130.563798 
L 440.888385 124.631286 
L 438.95627 120.857804 
L 435.851324 115.446446 
L 431.857725 109.382394 
L 428.299949 104.628407 
L 422.048254 97.399123 
L 414.120173 89.799285 
L 405.909572 83.338639 
L 400.60564 79.786975 
L 391.798588 74.80367 
L 383.922106 71.197068 
L 376.973691 68.61171 
L 368.531896 66.161959 
L 363.675319 65.077141 
L 358.267657 64.137043 
L 348.141843 63.112905 
L 341.318082 62.953305 
L 334.743419 63.200892 
L 322.571315 64.7112 
L 312.869592 66.927788 
L 304.897286 69.464137 
L 299.774441 71.457772 
L 295.396603 73.402094 
L 288.876818 76.739466 
L 280.859049 81.646978 
L 274.698056 86.107829 
L 270.998762 89.117838 
L 266.000953 93.639416 
L 259.017585 101.009342 
L 257.307431 103.039039 
L 254.424003 106.702127 
L 248.938628 114.694244 
L 246.278 119.198414 
L 242.183203 127.290612 
L 239.719686 133.1461 
L 236.394702 143.132988 
L 235.620049 146.048104 
L 234.215285 152.444295 
L 232.818972 162.266911 
L 232.324138 171.223546 
L 232.312857 172.719659 
L 232.255363 169.247181 
L 232.002171 164.544298 
L 231.542834 159.816267 
L 229.752159 149.219786 
L 229.155228 146.651211 
L 225.433698 134.537369 
L 222.694356 127.848134 
L 221.448619 125.167628 
L 219.287828 120.916002 
L 214.266729 112.475263 
L 212.126789 109.338167 
L 205.407804 100.778054 
L 203.234202 98.348575 
L 195.461132 90.712996 
L 189.965168 86.137079 
L 185.165777 82.60373 
L 180.762609 79.697038 
L 171.373963 74.439821 
L 168.787275 73.195437 
L 157.410227 68.65731 
L 150.107216 66.485343 
L 140.977755 64.521594 
L 134.150989 63.573627 
L 124.490209 62.968766 
L 122.194905 62.950386 
L 115.629441 63.162817 
L 104.650777 64.403811 
L 99.335384 65.412281 
L 90.00543 67.854707 
L 84.709646 69.641422 
L 81.107932 71.031803 
L 74.909721 73.776304 
L 69.878169 76.353944 
L 61.381574 81.49795 
L 55.890009 85.421279 
L 50.353503 89.931288 
L 43.792606 96.132076 
L 38.76301 101.657102 
L 35.239924 106.023251 
L 31.81889 110.746447 
L 28.290177 116.244929 
L 25.943109 120.350917 
L 21.48193 129.558619 
L 19.213265 135.296873 
L 17.329173 140.958684 
L 15.814307 146.474234 
L 14.588588 152.061157 
L 13.268353 160.820211 
L 12.636343 170.544033 
L 12.810898 179.387754 
L 13.382396 185.77699 
L 13.933791 189.782059 
L 15.552961 198.04324 
L 16.621033 202.201609 
L 19.755366 211.763012 
L 21.330154 215.684973 
L 24.821954 223.130885 
L 27.619301 228.222409 
L 33.001925 236.547037 
L 37.34401 242.238642 
L 41.495366 247.037515 
L 46.040215 251.708321 
L 48.493076 254.012161 
L 55.40353 259.805695 
L 59.259472 262.64585 
L 64.228056 265.943188 
L 70.728254 269.704475 
L 80.569266 274.347404 
L 87.585685 276.965889 
L 93.385838 278.731477 
L 100.364529 280.40398 
L 108.163535 281.715031 
L 116.609677 282.493651 
L 123.695118 282.642798 
L 136.901364 281.696705 
L 142.97354 280.717917 
L 148.121361 279.611085 
L 157.041876 277.065341 
L 162.160918 275.225757 
L 168.937397 272.334373 
L 176.21944 268.597741 
L 180.91706 265.805836 
L 183.982921 263.806936 
L 190.43274 259.096458 
L 194.792503 255.476528 
L 198.641077 251.944593 
L 205.357238 244.879907 
L 210.565313 238.412131 
L 215.65759 230.952724 
L 217.81184 227.34879 
L 220.112434 223.114619 
L 222.60037 217.960616 
L 225.579927 210.666545 
L 228.760875 200.508121 
L 230.361079 193.415147 
L 231.191378 188.456332 
L 231.754011 183.866027 
L 232.312827 172.800122 
L 232.341572 175.312697 
L 232.743454 182.517032 
L 234.027402 192.132539 
L 234.941539 196.687471 
L 236.507609 202.866407 
L 238.991476 210.518478 
L 244.344487 222.785786 
L 249.181462 231.293322 
L 252.09197 235.68276 
L 257.672531 243.002472 
L 259.117638 244.706139 
L 268.508802 254.298929 
L 270.416851 255.98356 
L 274.75695 259.537738 
L 283.290878 265.54199 
L 292.974906 271.021824 
L 298.295353 273.510578 
L 309.2271 277.596035 
L 310.985796 278.132631 
L 321.611971 280.710279 
L 326.271008 281.494132 
L 335.071634 282.4206 
L 342.306584 282.649614 
L 350.173544 282.357219 
L 356.728451 281.679733 
L 362.716749 280.709629 
L 372.422786 278.399639 
L 378.31623 276.529835 
L 384.095137 274.331409 
L 389.361779 271.992759 
L 395.878233 268.620656 
L 401.577067 265.195291 
L 406.254931 262.01403 
L 413.746242 256.123192 
L 419.26061 251.048774 
L 421.327787 248.956732 
L 428.027323 241.314425 
L 431.76061 236.354506 
L 433.459608 233.888753 
L 436.831961 228.519772 
L 439.888943 222.965171 
L 442.258522 218.052518 
L 443.985643 214.019571 
L 446.794995 206.252193 
L 447.96715 202.336172 
L 449.789488 194.787341 
L 450.783537 189.18547 
L 451.486216 183.539646 
L 451.914936 177.428092 
L 452.012477 172.799884 
L 452.012477 172.799884 
" clip-path="url(#pcc52981393)" style="fill: none; stroke: #ff0000; stroke-linecap: square"/>
   </g>
   <g id="patch_3">
    <path d="M 232.312827 287.043599 
L 232.312827 58.556401 
" style="fill: none; stroke: #000000; stroke-width: 0.8; stroke-linejoin: miter; stroke-linecap: square"/>
   </g>
   <g id="patch_4">
    <path d="M 3.84882 172.799884 
L 460.8 172.799884 
" style="fill: none; stroke: #000000; stroke-width: 0.8; stroke-linejoin: miter; stroke-linecap: square"/>
   </g>
  </g>
 </g>
 <defs>
  <clipPath id="pcc52981393">
   <rect x="3.84882" y="58.556401" width="456.95118" height="228.487197"/>
  </clipPath>
 </defs>
</svg>
