<?xml version="1.0" encoding="utf-8" standalone="no"?>
<!DOCTYPE svg PUBLIC "-//W3C//DTD SVG 1.1//EN"
  "http://www.w3.org/Graphics/SVG/1.1/DTD/svg11.dtd">
<svg xmlns:xlink="http://www.w3.org/1999/xlink" width="460.8pt" height="345.6pt" viewBox="0 0 460.8 345.6" xmlns="http://www.w3.org/2000/svg" version="1.1">
 <metadata>
  <rdf:RDF xmlns:dc="http://purl.org/dc/elements/1.1/" xmlns:cc="http://creativecommons.org/ns#" xmlns:rdf="http://www.w3.org/1999/02/22-rdf-syntax-ns#">
   <cc:Work>
    <dc:type rdf:resource="http://purl.org/dc/dcmitype/StillImage"/>
    <dc:date>2025-08-08T16:21:29.483061</dc:date>
    <dc:format>image/svg+xml</dc:format>
    <dc:creator>
     <cc:Agent>
      <dc:title>Matplotlib v3.10.3, https://matplotlib.org/</dc:title>
     </cc:Agent>
    </dc:creator>
   </cc:Work>
  </rdf:RDF>
 </metadata>
 <defs>
  <style type="text/css">*{stroke-linejoin: round; stroke-linecap: butt}</style>
 </defs>
 <g id="figure_1">
  <g id="patch_1">
   <path d="M 0 345.6 
L 460.8 345.6 
L 460.8 0 
L 0 0 
z
" style="fill: #ffffff"/>
  </g>
  <g id="axes_1">
   <g id="patch_2">
    <path d="M 9.33054 334.520722 
L 459.416766 334.520722 
L 459.416766 0 
L 9.33054 0 
z
" style="fill: #ffffff"/>
   </g>
   <g id="patch_3">
    <path d="M 450.761262 6.433091 
L 450.695942 13.994156 
L 450.630622 13.994156 
L 450.499982 13.994156 
L 450.238702 13.994156 
L 449.716143 13.994156 
L 448.671023 13.994156 
L 446.950738 13.994156 
L 446.501672 13.994156 
L 446.389405 12.002499 
L 446.277139 12.002499 
L 446.052606 12.002499 
L 445.154474 12.002499 
L 443.358209 12.002499 
L 443.068929 12.002499 
L 442.482499 12.002499 
L 442.189284 12.002499 
L 442.042677 12.002499 
L 441.969373 16.099215 
L 441.896069 16.099215 
L 440.723209 16.099215 
L 436.848986 16.565308 
L 436.189018 16.565308 
L 433.358445 16.565308 
L 433.27007 15.789517 
L 433.181695 15.789517 
L 433.004946 15.789517 
L 432.651447 15.789517 
L 431.944449 15.789517 
L 430.530453 15.789517 
L 429.395977 15.789517 
L 429.048214 15.789517 
L 428.961273 15.789517 
L 428.874333 17.527244 
L 428.700451 17.527244 
L 428.004926 17.527244 
L 426.613875 17.527244 
L 425.519784 17.527244 
L 424.972738 17.527244 
L 424.699216 17.527244 
L 424.562454 17.527244 
L 424.494074 16.745113 
L 424.425693 16.745113 
L 421.761685 16.745113 
L 420.703063 16.745113 
L 420.173752 16.745113 
L 420.107588 18.531003 
L 420.041424 18.531003 
L 419.909096 18.531003 
L 419.644441 18.531003 
L 418.800715 18.531003 
L 416.61133 18.531003 
L 415.99796 18.531003 
L 415.844618 18.531003 
L 415.767946 22.969575 
L 415.691275 22.969575 
L 415.38459 22.969575 
L 414.157851 22.969575 
L 411.931587 22.969575 
L 411.621698 22.969575 
L 411.466754 22.969575 
L 411.389282 22.221843 
L 411.31181 22.221843 
L 410.692033 22.221843 
L 409.45248 22.221843 
L 408.241862 22.221843 
L 407.636553 22.221843 
L 407.333898 22.221843 
L 407.182571 22.221843 
L 407.106907 22.221843 
L 407.031243 20.121229 
L 404.055409 20.121229 
L 402.960023 20.121229 
L 402.686177 20.121229 
L 402.617715 19.324136 
L 402.549254 19.324136 
L 402.41233 19.324136 
L 401.864638 19.324136 
L 400.115656 19.324136 
L 399.195622 19.324136 
L 398.7097 19.324136 
L 398.46674 19.324136 
L 398.345259 19.324136 
L 398.284519 21.242307 
L 398.223779 21.242307 
L 397.251935 21.242307 
L 394.747882 21.242307 
L 392.005259 21.8224 
L 390.879569 21.8224 
L 389.870911 21.8224 
L 389.618746 21.8224 
L 389.492664 21.017188 
L 389.366582 21.017188 
L 388.862253 21.017188 
L 386.844936 21.017188 
L 384.81503 21.608413 
L 383.35304 21.608413 
L 382.010949 21.608413 
L 381.339903 21.608413 
L 381.004381 21.608413 
L 380.836619 21.608413 
L 380.752739 19.348556 
L 380.668858 19.348556 
L 378.451981 19.348556 
L 377.582195 19.348556 
L 376.476932 19.348556 
L 376.407853 22.834123 
L 376.338774 22.834123 
L 376.200616 22.834123 
L 375.9243 22.834123 
L 375.371669 22.834123 
L 372.347642 22.834123 
L 372.203033 22.834123 
L 372.130728 22.834123 
L 372.094576 22.834123 
L 372.058424 20.533599 
L 371.769206 20.533599 
L 371.19077 20.533599 
L 368.484229 20.533599 
L 368.083195 20.533599 
L 367.882678 20.533599 
L 367.782419 20.533599 
L 367.682161 24.121118 
L 366.880093 24.121118 
L 365.275958 24.121118 
L 363.964966 24.121118 
L 363.559703 24.121118 
L 363.357072 24.121118 
L 363.306414 26.294256 
L 363.255756 26.294256 
L 363.15444 26.294256 
L 362.343914 26.294256 
L 360.534493 26.294256 
L 359.629782 26.294256 
L 359.177427 26.294256 
L 359.064338 26.294256 
L 358.951249 25.474113 
L 358.725072 25.474113 
L 357.937205 25.474113 
L 355.240401 25.474113 
L 354.873971 25.474113 
L 354.690755 25.474113 
L 354.599148 25.474113 
L 354.553344 27.721267 
L 354.50754 27.721267 
L 353.774679 27.721267 
L 351.789389 27.721267 
L 350.796744 27.721267 
L 350.300421 27.721267 
L 350.17634 28.462938 
L 350.05226 28.462938 
L 349.804098 28.462938 
L 349.24643 28.462938 
L 347.081083 28.462938 
L 346.227988 28.462938 
L 346.014714 28.462938 
L 345.908077 28.462938 
L 345.80144 27.638905 
L 345.374892 27.638905 
L 343.668702 27.638905 
L 342.565779 27.638905 
L 341.647945 27.638905 
L 341.533216 27.638905 
L 341.418487 28.399507 
L 341.189028 28.399507 
L 340.730111 28.399507 
L 338.894443 28.399507 
L 338.73589 28.399507 
L 337.226523 28.399507 
L 337.132188 28.399507 
L 337.037852 29.180948 
L 336.849181 29.180948 
L 336.471839 29.180948 
L 335.717156 29.180948 
L 333.918389 29.180948 
L 333.182801 29.180948 
L 332.815008 29.180948 
L 332.723059 31.635639 
L 332.631111 31.635639 
L 332.447214 31.635639 
L 330.976039 31.635639 
L 329.672411 31.635639 
L 328.845603 31.635639 
L 328.432199 31.635639 
L 328.328848 32.484672 
L 328.225497 32.484672 
L 328.018795 32.484672 
L 326.365178 32.484672 
L 324.380198 32.484672 
L 324.173141 32.484672 
L 324.069613 32.484672 
L 324.017848 32.484672 
L 323.966084 31.659232 
L 323.55197 31.659232 
L 322.723742 31.659232 
L 320.880983 31.659232 
L 319.830486 31.659232 
L 319.699174 31.659232 
L 319.633518 31.659232 
L 319.567861 29.086518 
L 319.305237 29.086518 
L 318.779989 29.086518 
L 316.346491 29.086518 
L 315.332568 29.086518 
L 315.269198 29.086518 
L 315.205827 33.432907 
L 315.079087 33.432907 
L 314.825606 33.432907 
L 314.318645 33.432907 
L 310.892732 33.432907 
L 310.846857 34.359453 
L 310.800982 34.359453 
L 310.709232 34.359453 
L 310.525732 34.359453 
L 310.158732 34.359453 
L 309.424733 34.359453 
L 306.600274 34.359453 
L 306.522677 34.359453 
L 306.483878 42.52081 
L 306.445079 42.52081 
L 306.289885 42.52081 
L 305.979495 42.52081 
L 305.358716 42.52081 
L 303.673283 42.52081 
L 302.830567 42.52081 
L 302.409209 42.52081 
L 302.19853 42.52081 
L 302.09319 41.786277 
L 301.987851 41.786277 
L 299.853196 41.786277 
L 298.225778 41.786277 
L 297.921771 41.786277 
L 297.769767 41.786277 
L 297.731766 39.170805 
L 297.693765 39.170805 
L 297.617763 39.170805 
L 297.009747 39.170805 
L 294.601167 39.170805 
L 293.390309 39.170805 
L 293.314631 38.359779 
L 293.238952 38.359779 
L 293.087595 38.359779 
L 292.78488 38.359779 
L 292.179451 38.359779 
L 289.344353 38.359779 
L 289.048787 38.359779 
L 288.974895 47.112196 
L 288.901004 47.112196 
L 288.75322 47.112196 
L 288.162087 47.112196 
L 286.979822 47.112196 
L 286.306219 47.112196 
L 285.37432 47.112196 
L 284.908371 47.112196 
L 284.675396 47.112196 
L 284.558909 52.252854 
L 284.442422 52.252854 
L 282.578624 52.252854 
L 280.93576 52.252854 
L 280.291355 52.252854 
L 280.25108 49.637459 
L 280.210805 49.637459 
L 280.130254 49.637459 
L 279.969153 49.637459 
L 279.646951 49.637459 
L 276.345561 49.637459 
L 276.100998 49.637459 
L 275.978717 49.637459 
L 275.917577 49.637459 
L 275.856436 48.94885 
L 275.367312 48.94885 
L 274.389063 48.94885 
L 273.374378 48.94885 
L 272.340269 48.94885 
L 271.823215 48.94885 
L 271.564688 48.94885 
L 271.500056 50.286686 
L 271.435424 50.286686 
L 271.306161 50.286686 
L 267.180342 50.286686 
L 267.119641 47.499145 
L 267.05894 47.499145 
L 266.937538 47.499145 
L 266.694733 47.499145 
L 266.209125 47.499145 
L 265.237907 47.499145 
L 263.047993 47.499145 
L 262.853866 47.499145 
L 262.805334 47.499145 
L 262.781068 48.858875 
L 262.756802 48.858875 
L 262.659739 48.858875 
L 262.271485 48.858875 
L 258.529119 48.858875 
L 258.467545 48.858875 
L 258.436758 48.858875 
L 258.405972 50.268048 
L 258.282825 50.268048 
L 258.036531 50.268048 
L 257.543943 50.268048 
L 256.081125 50.268048 
L 254.329403 50.268048 
L 254.110438 50.268048 
L 254.000956 51.729414 
L 253.891473 51.729414 
L 253.453543 51.729414 
L 252.577682 51.729414 
L 251.646749 51.729414 
L 249.876515 51.729414 
L 249.765876 51.729414 
L 249.655236 57.733137 
L 249.433957 57.733137 
L 248.991399 57.733137 
L 248.106282 57.733137 
L 246.897287 57.733137 
L 245.984629 57.733137 
L 245.5283 57.733137 
L 245.414218 57.733137 
L 245.300136 54.820764 
L 245.071971 54.820764 
L 243.246656 54.820764 
L 241.025121 54.820764 
L 240.951064 54.820764 
L 240.914036 56.457361 
L 240.877007 56.457361 
L 240.728893 56.457361 
L 240.432665 56.457361 
L 239.840208 56.457361 
L 237.856346 56.457361 
L 237.180126 56.457361 
L 236.842016 56.457361 
L 236.672961 56.457361 
L 236.588433 56.457361 
L 236.503906 55.7812 
L 235.151466 55.7812 
L 232.944669 55.7812 
L 232.491396 55.7812 
L 232.264759 55.7812 
L 232.2081 55.7812 
L 232.151441 52.650683 
L 232.038122 52.650683 
L 231.131576 52.650683 
L 229.8692 52.650683 
L 228.832976 52.650683 
L 228.314864 52.650683 
L 228.055808 52.650683 
L 227.92628 52.650683 
L 227.796752 51.867042 
L 225.724304 51.867042 
L 224.933978 51.867042 
L 224.098198 51.867042 
L 223.680307 51.867042 
L 223.471362 51.867042 
L 223.366889 61.17015 
L 223.262417 61.17015 
L 221.590855 61.17015 
L 219.867404 61.17015 
L 219.17934 61.17015 
L 219.093332 61.17015 
L 219.050328 70.87774 
L 219.007324 70.87774 
L 218.835308 70.87774 
L 218.491276 70.87774 
L 216.782401 70.87774 
L 215.700971 70.87774 
L 215.160256 70.87774 
L 214.889898 70.87774 
L 214.754719 70.87774 
L 214.68713 67.804434 
L 214.61954 67.804434 
L 212.069054 67.804434 
L 210.378375 67.804434 
L 207.093984 67.293957 
L 206.479636 67.293957 
L 206.172462 67.293957 
L 206.018875 67.293957 
L 205.980478 67.293957 
L 205.942081 63.994362 
L 205.865288 63.994362 
L 201.802697 63.994362 
L 201.595075 63.994362 
L 201.543169 71.862511 
L 201.491264 71.862511 
L 201.387453 71.862511 
L 200.972208 71.862511 
L 200.141719 71.862511 
L 197.87624 71.862511 
L 197.354672 71.862511 
L 197.224281 71.862511 
L 197.159085 68.513389 
L 197.093889 68.513389 
L 196.833105 68.513389 
L 195.78997 68.513389 
L 194.9501 68.513389 
L 193.057779 68.513389 
L 192.939509 68.513389 
L 192.821239 70.942366 
L 192.584698 70.942366 
L 192.111618 70.942366 
L 191.165457 70.942366 
L 190.387558 70.942366 
L 188.956224 70.942366 
L 188.598391 70.942366 
L 188.508932 70.942366 
L 188.419474 73.495905 
L 188.240557 73.495905 
L 187.52489 73.495905 
L 184.641746 73.495905 
L 183.047752 73.054602 
L 181.916104 73.054602 
L 179.900445 73.054602 
L 179.774467 73.054602 
L 179.648488 75.803259 
L 179.396531 75.803259 
L 178.892616 75.803259 
L 177.884787 75.803259 
L 177.297816 75.803259 
L 175.650942 75.803259 
L 175.418116 75.803259 
L 175.301703 78.704618 
L 175.185289 78.704618 
L 174.719637 78.704618 
L 173.788331 78.704618 
L 171.925719 78.704618 
L 171.435193 78.704618 
L 171.18993 78.704618 
L 171.067298 78.704618 
L 171.005983 78.704618 
L 170.944667 74.976849 
L 169.963615 74.976849 
L 169.054968 74.976849 
L 167.019464 74.976849 
L 166.765026 74.976849 
L 166.637807 74.976849 
L 166.510589 85.019342 
L 166.001713 85.019342 
L 164.983961 85.019342 
L 164.309404 85.019342 
L 162.657585 85.019342 
L 162.24463 85.019342 
L 162.141392 81.257003 
L 162.038153 81.257003 
L 161.831676 81.257003 
L 161.005766 81.257003 
L 158.589558 81.257003 
L 158.001454 81.257003 
L 157.92794 81.257003 
L 157.854427 84.691462 
L 157.707401 84.691462 
L 157.413349 84.691462 
L 156.237139 84.691462 
L 156.000035 84.691462 
L 153.678594 84.691462 
L 149.883598 84.511657 
L 149.46965 84.511657 
L 149.262677 84.511657 
L 149.15919 84.511657 
L 149.107446 104.138382 
L 149.055703 104.138382 
L 148.227808 104.138382 
L 145.392618 104.138382 
L 144.869039 104.138382 
L 142.86266 104.61676 
L 141.16308 104.61676 
L 140.738185 104.61676 
L 140.525737 104.61676 
L 140.419513 104.61676 
L 140.31329 100.882483 
L 139.463499 100.882483 
L 137.998933 100.882483 
L 136.138023 100.882483 
L 132.988894 101.275708 
L 131.967991 101.275708 
L 131.798519 101.275708 
L 131.713783 101.275708 
L 131.629047 97.125676 
L 131.290103 97.125676 
L 130.612215 97.125676 
L 129.256439 97.125676 
L 126.994489 97.400086 
L 124.781614 97.400086 
L 123.189093 97.400086 
L 122.990027 97.400086 
L 122.890495 107.606623 
L 122.790962 107.606623 
L 122.392832 107.606623 
L 121.596571 107.606623 
L 121.032714 107.606623 
L 118.600892 107.606623 
L 118.495673 113.530636 
L 118.390454 113.530636 
L 118.180015 113.530636 
L 117.759139 113.530636 
L 116.917385 113.530636 
L 115.233878 113.530636 
L 114.165668 113.530636 
L 114.068347 114.588146 
L 113.971026 114.588146 
L 113.776384 114.588146 
L 113.3871 114.588146 
L 112.608531 114.588146 
L 111.051393 114.588146 
L 109.988139 114.588146 
L 109.855232 114.588146 
L 109.788779 114.588146 
L 109.722325 121.408805 
L 109.456512 121.408805 
L 108.924885 121.408805 
L 106.085026 121.408805 
L 105.791843 121.408805 
L 105.553885 121.408805 
L 105.434906 121.408805 
L 105.375417 117.020419 
L 105.315928 117.020419 
L 104.840012 117.020419 
L 103.88818 117.020419 
L 101.967781 117.020419 
L 101.487682 117.020419 
L 101.247632 117.020419 
L 101.127607 117.020419 
L 101.007582 118.428577 
L 100.047383 118.428577 
L 98.226376 118.428577 
L 97.013651 118.428577 
L 96.71047 118.428577 
L 96.634675 126.599369 
L 96.558879 126.599369 
L 96.407289 126.599369 
L 95.800927 126.599369 
L 93.773161 126.599369 
L 92.943207 126.599369 
L 92.528229 126.599369 
L 92.320741 126.599369 
L 92.268869 121.741889 
L 92.216997 121.741889 
L 92.113252 121.741889 
L 88.782912 121.741889 
L 88.112142 121.741889 
L 88.004144 121.741889 
L 87.950144 121.741889 
L 87.896145 131.141113 
L 87.680148 131.141113 
L 87.248154 131.141113 
L 86.384167 131.141113 
L 84.682456 131.141113 
L 83.831601 131.141113 
L 83.618887 131.141113 
L 83.51253 141.793566 
L 83.406173 141.793566 
L 82.980745 141.793566 
L 81.07568 141.793566 
L 80.042934 141.793566 
L 79.526561 141.793566 
L 79.268374 141.793566 
L 79.203828 141.793566 
L 79.139281 145.474148 
L 79.010188 145.474148 
L 76.425899 145.474148 
L 74.977279 145.474148 
L 74.860088 145.474148 
L 74.801492 140.573965 
L 74.742897 140.573965 
L 74.508515 140.573965 
L 74.039751 140.573965 
L 73.102223 140.573965 
L 71.233165 140.573965 
L 70.670278 140.573965 
L 70.529557 140.573965 
L 70.459196 140.573965 
L 70.388835 144.766343 
L 70.107392 144.766343 
L 68.981619 144.766343 
L 66.481577 144.766343 
L 66.188538 144.766343 
L 66.115278 144.766343 
L 66.042018 160.531073 
L 65.895498 160.531073 
L 65.309419 160.531073 
L 64.137261 160.531073 
L 62.538733 160.531073 
L 61.739468 160.531073 
L 61.63956 155.666528 
L 61.539652 155.666528 
L 61.339836 155.666528 
L 60.940204 155.666528 
L 58.742705 155.666528 
L 57.711544 155.666528 
L 57.453753 155.666528 
L 57.389306 155.666528 
L 57.324858 176.145663 
L 57.195963 176.145663 
L 56.680382 176.145663 
L 54.089375 176.145663 
L 53.02307 176.145663 
L 52.956426 186.880693 
L 52.889781 186.880693 
L 52.756493 186.880693 
L 52.489917 186.880693 
L 51.956764 186.880693 
L 50.74746 186.880693 
L 49.069007 186.880693 
L 48.649394 186.880693 
L 48.54449 183.695574 
L 48.439587 183.695574 
L 48.22978 183.695574 
L 47.390553 183.695574 
L 47.025726 183.695574 
L 45.282773 183.695574 
L 44.411296 183.695574 
L 44.302362 183.695574 
L 44.193427 199.267267 
L 43.975558 199.267267 
L 43.53982 199.267267 
L 42.396713 199.267267 
L 41.099161 199.267267 
L 40.450384 199.267267 
L 40.125996 199.267267 
L 39.963802 199.267267 
L 39.882705 199.267267 
L 39.801608 197.285415 
L 37.14367 197.285415 
L 35.971595 197.285415 
L 35.678576 197.285415 
L 35.532066 197.285415 
L 35.458812 224.040414 
L 35.385557 224.040414 
L 34.799519 224.040414 
L 33.478278 224.040414 
L 31.697702 224.040414 
L 31.202818 224.040414 
L 31.140957 224.040414 
L 31.079097 228.995043 
L 30.955376 228.995043 
L 30.707933 228.995043 
L 29.718165 228.995043 
L 27.152608 228.995043 
L 26.788875 228.995043 
L 26.697942 238.904302 
L 26.607009 238.904302 
L 26.425142 238.904302 
L 25.697676 238.904302 
L 24.242744 238.904302 
L 22.835103 238.904302 
L 22.391285 238.904302 
L 22.28033 209.176526 
L 22.169376 209.176526 
L 21.947467 209.176526 
L 21.059831 209.176526 
L 19.28456 209.176526 
L 17.986044 209.176526 
L 17.986044 328.087631 
L 18.457523 321.206266 
L 18.929001 314.964698 
L 19.871958 303.990931 
L 20.578187 296.806448 
L 21.284415 290.316566 
L 22.696871 278.960231 
L 24.14681 269.009254 
L 25.596749 260.343794 
L 26.88696 253.473111 
L 29.016551 243.475325 
L 31.12614 234.851101 
L 34.255867 223.803774 
L 34.353261 223.487515 
L 38.419763 211.457944 
L 38.646372 210.846963 
L 42.193562 201.94331 
L 44.738044 196.213091 
L 45.965583 193.614182 
L 47.556053 190.389807 
L 49.806086 186.077433 
L 53.303707 179.879448 
L 55.351038 176.500205 
L 56.285197 175.013034 
L 58.75435 171.233681 
L 60.475883 168.719052 
L 62.710473 165.589375 
L 65.958594 161.28537 
L 67.632296 159.170764 
L 70.138151 156.124225 
L 72.745505 153.09444 
L 73.946285 151.743777 
L 76.923867 148.507199 
L 78.676489 146.672569 
L 80.026755 145.292517 
L 84.171946 141.22477 
L 84.365704 141.040526 
L 88.457244 137.26342 
L 90.782944 135.207466 
L 91.829654 134.302298 
L 94.091874 132.38668 
L 95.333041 131.358427 
L 98.99928 128.409889 
L 100.873164 126.951375 
L 103.460407 124.988287 
L 104.78799 124.002812 
L 106.638827 122.652608 
L 108.838742 121.082263 
L 111.008742 119.568418 
L 113.274014 118.023675 
L 115.442704 116.577347 
L 117.03649 115.533934 
L 121.112256 112.937082 
L 123.309702 111.577553 
L 124.613502 110.783725 
L 127.557476 109.025035 
L 129.458765 107.913217 
L 131.00968 107.01972 
L 132.608519 106.110885 
L 135.48632 104.505396 
L 137.205015 103.564542 
L 139.499444 102.328708 
L 142.008338 101.002879 
L 144.26559 99.831987 
L 146.081704 98.904516 
L 148.754117 97.562611 
L 151.311844 96.302917 
L 152.928882 95.518535 
L 154.195452 94.910487 
L 157.957042 93.136422 
L 158.478772 92.894018 
L 160.506606 91.960076 
L 163.041371 90.810627 
L 166.401455 89.316612 
L 168.864274 88.242275 
L 171.281705 87.204186 
L 173.19881 86.3922 
L 173.936067 86.08253 
L 176.753909 84.911935 
L 178.5392 84.180702 
L 182.034916 82.771547 
L 183.407158 82.226362 
L 186.173519 81.140569 
L 187.707274 80.546049 
L 190.405442 79.512776 
L 192.514248 78.716121 
L 193.46433 78.360267 
L 197.246607 76.962009 
L 199.229504 76.240423 
L 201.195315 75.532624 
L 201.808527 75.313351 
L 205.464984 74.020524 
L 208.141493 73.089706 
L 208.688521 72.901041 
L 211.090283 72.078909 
L 213.141401 71.384681 
L 216.807044 70.161584 
L 218.046454 69.753023 
L 219.608552 69.241605 
L 223.049309 68.128674 
L 223.717463 67.914677 
L 225.826249 67.243711 
L 229.123827 66.207748 
L 230.050833 65.919374 
L 233.809338 64.762697 
L 234.437404 64.571338 
L 238.496867 63.347472 
L 240.413613 62.77726 
L 242.037021 62.29807 
L 244.422068 61.600205 
L 247.169731 60.805123 
L 249.149382 60.238054 
L 250.237812 59.928302 
L 253.525183 59.001338 
L 254.326478 58.777317 
L 256.131022 58.275531 
L 259.734659 57.284553 
L 261.388036 56.834731 
L 264.493957 55.997783 
L 265.900886 55.622064 
L 268.477808 54.939301 
L 270.706229 54.354418 
L 273.065192 53.74077 
L 273.929134 53.517424 
L 275.754828 53.047874 
L 278.493367 52.349646 
L 281.175337 51.672802 
L 282.944307 51.230074 
L 286.447075 50.361936 
L 286.790123 50.277513 
L 290.888146 49.277131 
L 291.262368 49.186516 
L 293.509574 48.644929 
L 297.395315 47.718628 
L 298.338343 47.495738 
L 299.901193 47.127968 
L 303.179115 46.363087 
L 305.994116 45.713105 
L 306.179229 45.670582 
L 308.323815 45.179894 
L 310.497231 44.686239 
L 314.333141 43.82373 
L 316.317348 43.381886 
L 318.056306 42.997029 
L 319.775928 42.618608 
L 321.416197 42.259624 
L 324.711307 41.544213 
L 327.399305 40.966204 
L 329.543099 40.508755 
L 330.821041 40.237538 
L 334.062114 39.554558 
L 335.001225 39.357952 
L 338.731086 38.582727 
L 339.695405 38.383747 
L 342.482036 37.812037 
L 345.173838 37.264364 
L 347.393369 36.816113 
L 348.302768 36.633313 
L 350.612467 36.17126 
L 352.539377 35.7882 
L 353.990431 35.501173 
L 357.707377 34.771484 
L 358.429195 34.630695 
L 362.006254 33.93732 
L 362.906939 33.763854 
L 366.072252 33.157762 
L 367.921302 32.806222 
L 369.668698 32.475689 
L 371.816764 32.071583 
L 375.338718 31.414228 
L 377.064162 31.094515 
L 379.340804 30.674983 
L 381.215215 30.331529 
L 383.153003 29.978298 
L 384.808097 29.678061 
L 387.88171 29.124039 
L 389.336869 28.863329 
L 391.43366 28.489434 
L 393.230929 28.170597 
L 395.703128 27.734483 
L 397.607056 27.400537 
L 401.202336 26.774419 
L 402.941684 26.473594 
L 405.085661 26.10463 
L 407.39949 25.708697 
L 410.364176 25.204778 
L 411.867415 24.950704 
L 413.101157 24.742895 
L 415.9116 24.271895 
L 417.213615 24.054806 
L 421.052512 23.418787 
L 422.978589 23.101934 
L 425.110586 22.752939 
L 427.184313 22.415213 
L 429.383468 22.058904 
L 430.868606 21.819346 
L 432.628865 21.536511 
L 436.591926 20.90406 
L 437.457658 20.76669 
L 438.817607 20.551465 
L 442.649467 19.948719 
L 443.883923 19.755686 
L 447.031327 19.266021 
L 448.064208 19.106103 
L 450.761262 18.69031 
z
" clip-path="url(#p2ab944d6f9)" style="fill: #ff0000; opacity: 0.5"/>
   </g>
   <g id="matplotlib.axis_1">
    <g id="xtick_1">
     <g id="line2d_1">
      <defs>
       <path id="md455b61d21" d="M 0 0 
L 0 3.5 
" style="stroke: #000000; stroke-width: 0.8"/>
      </defs>
      <g>
       <use xlink:href="#md455b61d21" x="13.614577" y="328.087631" style="stroke: #000000; stroke-width: 0.8"/>
      </g>
     </g>
    </g>
    <g id="xtick_2">
     <g id="line2d_2">
      <g>
       <use xlink:href="#md455b61d21" x="101.043914" y="328.087631" style="stroke: #000000; stroke-width: 0.8"/>
      </g>
     </g>
     <g id="text_1">
      <!-- 20 -->
      <g transform="translate(94.681414 342.686069) scale(0.1 -0.1)">
       <defs>
        <path id="DejaVuSans-32" d="M 1228 531 
L 3431 531 
L 3431 0 
L 469 0 
L 469 531 
Q 828 903 1448 1529 
Q 2069 2156 2228 2338 
Q 2531 2678 2651 2914 
Q 2772 3150 2772 3378 
Q 2772 3750 2511 3984 
Q 2250 4219 1831 4219 
Q 1534 4219 1204 4116 
Q 875 4013 500 3803 
L 500 4441 
Q 881 4594 1212 4672 
Q 1544 4750 1819 4750 
Q 2544 4750 2975 4387 
Q 3406 4025 3406 3419 
Q 3406 3131 3298 2873 
Q 3191 2616 2906 2266 
Q 2828 2175 2409 1742 
Q 1991 1309 1228 531 
z
" transform="scale(0.015625)"/>
        <path id="DejaVuSans-30" d="M 2034 4250 
Q 1547 4250 1301 3770 
Q 1056 3291 1056 2328 
Q 1056 1369 1301 889 
Q 1547 409 2034 409 
Q 2525 409 2770 889 
Q 3016 1369 3016 2328 
Q 3016 3291 2770 3770 
Q 2525 4250 2034 4250 
z
M 2034 4750 
Q 2819 4750 3233 4129 
Q 3647 3509 3647 2328 
Q 3647 1150 3233 529 
Q 2819 -91 2034 -91 
Q 1250 -91 836 529 
Q 422 1150 422 2328 
Q 422 3509 836 4129 
Q 1250 4750 2034 4750 
z
" transform="scale(0.015625)"/>
       </defs>
       <use xlink:href="#DejaVuSans-32"/>
       <use xlink:href="#DejaVuSans-30" transform="translate(63.623047 0)"/>
      </g>
     </g>
    </g>
    <g id="xtick_3">
     <g id="line2d_3">
      <g>
       <use xlink:href="#md455b61d21" x="188.473251" y="328.087631" style="stroke: #000000; stroke-width: 0.8"/>
      </g>
     </g>
     <g id="text_2">
      <!-- 40 -->
      <g transform="translate(182.110751 342.686069) scale(0.1 -0.1)">
       <defs>
        <path id="DejaVuSans-34" d="M 2419 4116 
L 825 1625 
L 2419 1625 
L 2419 4116 
z
M 2253 4666 
L 3047 4666 
L 3047 1625 
L 3713 1625 
L 3713 1100 
L 3047 1100 
L 3047 0 
L 2419 0 
L 2419 1100 
L 313 1100 
L 313 1709 
L 2253 4666 
z
" transform="scale(0.015625)"/>
       </defs>
       <use xlink:href="#DejaVuSans-34"/>
       <use xlink:href="#DejaVuSans-30" transform="translate(63.623047 0)"/>
      </g>
     </g>
    </g>
    <g id="xtick_4">
     <g id="line2d_4">
      <g>
       <use xlink:href="#md455b61d21" x="275.902588" y="328.087631" style="stroke: #000000; stroke-width: 0.8"/>
      </g>
     </g>
     <g id="text_3">
      <!-- 60 -->
      <g transform="translate(269.540088 342.686069) scale(0.1 -0.1)">
       <defs>
        <path id="DejaVuSans-36" d="M 2113 2584 
Q 1688 2584 1439 2293 
Q 1191 2003 1191 1497 
Q 1191 994 1439 701 
Q 1688 409 2113 409 
Q 2538 409 2786 701 
Q 3034 994 3034 1497 
Q 3034 2003 2786 2293 
Q 2538 2584 2113 2584 
z
M 3366 4563 
L 3366 3988 
Q 3128 4100 2886 4159 
Q 2644 4219 2406 4219 
Q 1781 4219 1451 3797 
Q 1122 3375 1075 2522 
Q 1259 2794 1537 2939 
Q 1816 3084 2150 3084 
Q 2853 3084 3261 2657 
Q 3669 2231 3669 1497 
Q 3669 778 3244 343 
Q 2819 -91 2113 -91 
Q 1303 -91 875 529 
Q 447 1150 447 2328 
Q 447 3434 972 4092 
Q 1497 4750 2381 4750 
Q 2619 4750 2861 4703 
Q 3103 4656 3366 4563 
z
" transform="scale(0.015625)"/>
       </defs>
       <use xlink:href="#DejaVuSans-36"/>
       <use xlink:href="#DejaVuSans-30" transform="translate(63.623047 0)"/>
      </g>
     </g>
    </g>
    <g id="xtick_5">
     <g id="line2d_5">
      <g>
       <use xlink:href="#md455b61d21" x="363.331925" y="328.087631" style="stroke: #000000; stroke-width: 0.8"/>
      </g>
     </g>
     <g id="text_4">
      <!-- 80 -->
      <g transform="translate(356.969425 342.686069) scale(0.1 -0.1)">
       <defs>
        <path id="DejaVuSans-38" d="M 2034 2216 
Q 1584 2216 1326 1975 
Q 1069 1734 1069 1313 
Q 1069 891 1326 650 
Q 1584 409 2034 409 
Q 2484 409 2743 651 
Q 3003 894 3003 1313 
Q 3003 1734 2745 1975 
Q 2488 2216 2034 2216 
z
M 1403 2484 
Q 997 2584 770 2862 
Q 544 3141 544 3541 
Q 544 4100 942 4425 
Q 1341 4750 2034 4750 
Q 2731 4750 3128 4425 
Q 3525 4100 3525 3541 
Q 3525 3141 3298 2862 
Q 3072 2584 2669 2484 
Q 3125 2378 3379 2068 
Q 3634 1759 3634 1313 
Q 3634 634 3220 271 
Q 2806 -91 2034 -91 
Q 1263 -91 848 271 
Q 434 634 434 1313 
Q 434 1759 690 2068 
Q 947 2378 1403 2484 
z
M 1172 3481 
Q 1172 3119 1398 2916 
Q 1625 2713 2034 2713 
Q 2441 2713 2670 2916 
Q 2900 3119 2900 3481 
Q 2900 3844 2670 4047 
Q 2441 4250 2034 4250 
Q 1625 4250 1398 4047 
Q 1172 3844 1172 3481 
z
" transform="scale(0.015625)"/>
       </defs>
       <use xlink:href="#DejaVuSans-38"/>
       <use xlink:href="#DejaVuSans-30" transform="translate(63.623047 0)"/>
      </g>
     </g>
    </g>
    <g id="xtick_6">
     <g id="line2d_6">
      <g>
       <use xlink:href="#md455b61d21" x="450.761262" y="328.087631" style="stroke: #000000; stroke-width: 0.8"/>
      </g>
     </g>
     <g id="text_5">
      <!-- 100 -->
      <g transform="translate(441.217512 342.686069) scale(0.1 -0.1)">
       <defs>
        <path id="DejaVuSans-31" d="M 794 531 
L 1825 531 
L 1825 4091 
L 703 3866 
L 703 4441 
L 1819 4666 
L 2450 4666 
L 2450 531 
L 3481 531 
L 3481 0 
L 794 0 
L 794 531 
z
" transform="scale(0.015625)"/>
       </defs>
       <use xlink:href="#DejaVuSans-31"/>
       <use xlink:href="#DejaVuSans-30" transform="translate(63.623047 0)"/>
       <use xlink:href="#DejaVuSans-30" transform="translate(127.246094 0)"/>
      </g>
     </g>
    </g>
    <g id="xtick_7">
     <g id="line2d_7">
      <defs>
       <path id="m4dcc3773f0" d="M 0 0 
L 0 2 
" style="stroke: #000000; stroke-width: 0.6"/>
      </defs>
      <g>
       <use xlink:href="#m4dcc3773f0" x="35.471912" y="328.087631" style="stroke: #000000; stroke-width: 0.6"/>
      </g>
     </g>
    </g>
    <g id="xtick_8">
     <g id="line2d_8">
      <g>
       <use xlink:href="#m4dcc3773f0" x="57.329246" y="328.087631" style="stroke: #000000; stroke-width: 0.6"/>
      </g>
     </g>
    </g>
    <g id="xtick_9">
     <g id="line2d_9">
      <g>
       <use xlink:href="#m4dcc3773f0" x="79.18658" y="328.087631" style="stroke: #000000; stroke-width: 0.6"/>
      </g>
     </g>
    </g>
    <g id="xtick_10">
     <g id="line2d_10">
      <g>
       <use xlink:href="#m4dcc3773f0" x="122.901249" y="328.087631" style="stroke: #000000; stroke-width: 0.6"/>
      </g>
     </g>
    </g>
    <g id="xtick_11">
     <g id="line2d_11">
      <g>
       <use xlink:href="#m4dcc3773f0" x="144.758583" y="328.087631" style="stroke: #000000; stroke-width: 0.6"/>
      </g>
     </g>
    </g>
    <g id="xtick_12">
     <g id="line2d_12">
      <g>
       <use xlink:href="#m4dcc3773f0" x="166.615917" y="328.087631" style="stroke: #000000; stroke-width: 0.6"/>
      </g>
     </g>
    </g>
    <g id="xtick_13">
     <g id="line2d_13">
      <g>
       <use xlink:href="#m4dcc3773f0" x="210.330585" y="328.087631" style="stroke: #000000; stroke-width: 0.6"/>
      </g>
     </g>
    </g>
    <g id="xtick_14">
     <g id="line2d_14">
      <g>
       <use xlink:href="#m4dcc3773f0" x="232.18792" y="328.087631" style="stroke: #000000; stroke-width: 0.6"/>
      </g>
     </g>
    </g>
    <g id="xtick_15">
     <g id="line2d_15">
      <g>
       <use xlink:href="#m4dcc3773f0" x="254.045254" y="328.087631" style="stroke: #000000; stroke-width: 0.6"/>
      </g>
     </g>
    </g>
    <g id="xtick_16">
     <g id="line2d_16">
      <g>
       <use xlink:href="#m4dcc3773f0" x="297.759922" y="328.087631" style="stroke: #000000; stroke-width: 0.6"/>
      </g>
     </g>
    </g>
    <g id="xtick_17">
     <g id="line2d_17">
      <g>
       <use xlink:href="#m4dcc3773f0" x="319.617257" y="328.087631" style="stroke: #000000; stroke-width: 0.6"/>
      </g>
     </g>
    </g>
    <g id="xtick_18">
     <g id="line2d_18">
      <g>
       <use xlink:href="#m4dcc3773f0" x="341.474591" y="328.087631" style="stroke: #000000; stroke-width: 0.6"/>
      </g>
     </g>
    </g>
    <g id="xtick_19">
     <g id="line2d_19">
      <g>
       <use xlink:href="#m4dcc3773f0" x="385.189259" y="328.087631" style="stroke: #000000; stroke-width: 0.6"/>
      </g>
     </g>
    </g>
    <g id="xtick_20">
     <g id="line2d_20">
      <g>
       <use xlink:href="#m4dcc3773f0" x="407.046594" y="328.087631" style="stroke: #000000; stroke-width: 0.6"/>
      </g>
     </g>
    </g>
    <g id="xtick_21">
     <g id="line2d_21">
      <g>
       <use xlink:href="#m4dcc3773f0" x="428.903928" y="328.087631" style="stroke: #000000; stroke-width: 0.6"/>
      </g>
     </g>
    </g>
   </g>
   <g id="matplotlib.axis_2">
    <g id="ytick_1">
     <g id="line2d_22">
      <defs>
       <path id="mee3a39dcb1" d="M 0 0 
L -3.5 0 
" style="stroke: #000000; stroke-width: 0.8"/>
      </defs>
      <g>
       <use xlink:href="#mee3a39dcb1" x="13.614577" y="328.087631" style="stroke: #000000; stroke-width: 0.8"/>
      </g>
     </g>
    </g>
    <g id="ytick_2">
     <g id="line2d_23">
      <g>
       <use xlink:href="#mee3a39dcb1" x="13.614577" y="268.632078" style="stroke: #000000; stroke-width: 0.8"/>
      </g>
     </g>
     <g id="text_6">
      <!-- 1 -->
      <g transform="translate(0.252077 272.431297) scale(0.1 -0.1)">
       <use xlink:href="#DejaVuSans-31"/>
      </g>
     </g>
    </g>
    <g id="ytick_3">
     <g id="line2d_24">
      <g>
       <use xlink:href="#mee3a39dcb1" x="13.614577" y="209.176526" style="stroke: #000000; stroke-width: 0.8"/>
      </g>
     </g>
     <g id="text_7">
      <!-- 2 -->
      <g transform="translate(0.252077 212.975744) scale(0.1 -0.1)">
       <use xlink:href="#DejaVuSans-32"/>
      </g>
     </g>
    </g>
    <g id="ytick_4">
     <g id="line2d_25">
      <g>
       <use xlink:href="#mee3a39dcb1" x="13.614577" y="149.720973" style="stroke: #000000; stroke-width: 0.8"/>
      </g>
     </g>
     <g id="text_8">
      <!-- 3 -->
      <g transform="translate(0.252077 153.520192) scale(0.1 -0.1)">
       <defs>
        <path id="DejaVuSans-33" d="M 2597 2516 
Q 3050 2419 3304 2112 
Q 3559 1806 3559 1356 
Q 3559 666 3084 287 
Q 2609 -91 1734 -91 
Q 1441 -91 1130 -33 
Q 819 25 488 141 
L 488 750 
Q 750 597 1062 519 
Q 1375 441 1716 441 
Q 2309 441 2620 675 
Q 2931 909 2931 1356 
Q 2931 1769 2642 2001 
Q 2353 2234 1838 2234 
L 1294 2234 
L 1294 2753 
L 1863 2753 
Q 2328 2753 2575 2939 
Q 2822 3125 2822 3475 
Q 2822 3834 2567 4026 
Q 2313 4219 1838 4219 
Q 1578 4219 1281 4162 
Q 984 4106 628 3988 
L 628 4550 
Q 988 4650 1302 4700 
Q 1616 4750 1894 4750 
Q 2613 4750 3031 4423 
Q 3450 4097 3450 3541 
Q 3450 3153 3228 2886 
Q 3006 2619 2597 2516 
z
" transform="scale(0.015625)"/>
       </defs>
       <use xlink:href="#DejaVuSans-33"/>
      </g>
     </g>
    </g>
    <g id="ytick_5">
     <g id="line2d_26">
      <g>
       <use xlink:href="#mee3a39dcb1" x="13.614577" y="90.26542" style="stroke: #000000; stroke-width: 0.8"/>
      </g>
     </g>
     <g id="text_9">
      <!-- 4 -->
      <g transform="translate(0.252077 94.064639) scale(0.1 -0.1)">
       <use xlink:href="#DejaVuSans-34"/>
      </g>
     </g>
    </g>
    <g id="ytick_6">
     <g id="line2d_27">
      <g>
       <use xlink:href="#mee3a39dcb1" x="13.614577" y="30.809867" style="stroke: #000000; stroke-width: 0.8"/>
      </g>
     </g>
     <g id="text_10">
      <!-- 5 -->
      <g transform="translate(0.252077 34.609086) scale(0.1 -0.1)">
       <defs>
        <path id="DejaVuSans-35" d="M 691 4666 
L 3169 4666 
L 3169 4134 
L 1269 4134 
L 1269 2991 
Q 1406 3038 1543 3061 
Q 1681 3084 1819 3084 
Q 2600 3084 3056 2656 
Q 3513 2228 3513 1497 
Q 3513 744 3044 326 
Q 2575 -91 1722 -91 
Q 1428 -91 1123 -41 
Q 819 9 494 109 
L 494 744 
Q 775 591 1075 516 
Q 1375 441 1709 441 
Q 2250 441 2565 725 
Q 2881 1009 2881 1497 
Q 2881 1984 2565 2268 
Q 2250 2553 1709 2553 
Q 1456 2553 1204 2497 
Q 953 2441 691 2322 
L 691 4666 
z
" transform="scale(0.015625)"/>
       </defs>
       <use xlink:href="#DejaVuSans-35"/>
      </g>
     </g>
    </g>
    <g id="ytick_7">
     <g id="line2d_28">
      <defs>
       <path id="ma14ce91197" d="M 0 0 
L -2 0 
" style="stroke: #000000; stroke-width: 0.6"/>
      </defs>
      <g>
       <use xlink:href="#ma14ce91197" x="13.614577" y="316.196521" style="stroke: #000000; stroke-width: 0.6"/>
      </g>
     </g>
    </g>
    <g id="ytick_8">
     <g id="line2d_29">
      <g>
       <use xlink:href="#ma14ce91197" x="13.614577" y="304.30541" style="stroke: #000000; stroke-width: 0.6"/>
      </g>
     </g>
    </g>
    <g id="ytick_9">
     <g id="line2d_30">
      <g>
       <use xlink:href="#ma14ce91197" x="13.614577" y="292.414299" style="stroke: #000000; stroke-width: 0.6"/>
      </g>
     </g>
    </g>
    <g id="ytick_10">
     <g id="line2d_31">
      <g>
       <use xlink:href="#ma14ce91197" x="13.614577" y="280.523189" style="stroke: #000000; stroke-width: 0.6"/>
      </g>
     </g>
    </g>
    <g id="ytick_11">
     <g id="line2d_32">
      <g>
       <use xlink:href="#ma14ce91197" x="13.614577" y="256.740968" style="stroke: #000000; stroke-width: 0.6"/>
      </g>
     </g>
    </g>
    <g id="ytick_12">
     <g id="line2d_33">
      <g>
       <use xlink:href="#ma14ce91197" x="13.614577" y="244.849857" style="stroke: #000000; stroke-width: 0.6"/>
      </g>
     </g>
    </g>
    <g id="ytick_13">
     <g id="line2d_34">
      <g>
       <use xlink:href="#ma14ce91197" x="13.614577" y="232.958747" style="stroke: #000000; stroke-width: 0.6"/>
      </g>
     </g>
    </g>
    <g id="ytick_14">
     <g id="line2d_35">
      <g>
       <use xlink:href="#ma14ce91197" x="13.614577" y="221.067636" style="stroke: #000000; stroke-width: 0.6"/>
      </g>
     </g>
    </g>
    <g id="ytick_15">
     <g id="line2d_36">
      <g>
       <use xlink:href="#ma14ce91197" x="13.614577" y="197.285415" style="stroke: #000000; stroke-width: 0.6"/>
      </g>
     </g>
    </g>
    <g id="ytick_16">
     <g id="line2d_37">
      <g>
       <use xlink:href="#ma14ce91197" x="13.614577" y="185.394305" style="stroke: #000000; stroke-width: 0.6"/>
      </g>
     </g>
    </g>
    <g id="ytick_17">
     <g id="line2d_38">
      <g>
       <use xlink:href="#ma14ce91197" x="13.614577" y="173.503194" style="stroke: #000000; stroke-width: 0.6"/>
      </g>
     </g>
    </g>
    <g id="ytick_18">
     <g id="line2d_39">
      <g>
       <use xlink:href="#ma14ce91197" x="13.614577" y="161.612083" style="stroke: #000000; stroke-width: 0.6"/>
      </g>
     </g>
    </g>
    <g id="ytick_19">
     <g id="line2d_40">
      <g>
       <use xlink:href="#ma14ce91197" x="13.614577" y="137.829862" style="stroke: #000000; stroke-width: 0.6"/>
      </g>
     </g>
    </g>
    <g id="ytick_20">
     <g id="line2d_41">
      <g>
       <use xlink:href="#ma14ce91197" x="13.614577" y="125.938752" style="stroke: #000000; stroke-width: 0.6"/>
      </g>
     </g>
    </g>
    <g id="ytick_21">
     <g id="line2d_42">
      <g>
       <use xlink:href="#ma14ce91197" x="13.614577" y="114.047641" style="stroke: #000000; stroke-width: 0.6"/>
      </g>
     </g>
    </g>
    <g id="ytick_22">
     <g id="line2d_43">
      <g>
       <use xlink:href="#ma14ce91197" x="13.614577" y="102.156531" style="stroke: #000000; stroke-width: 0.6"/>
      </g>
     </g>
    </g>
    <g id="ytick_23">
     <g id="line2d_44">
      <g>
       <use xlink:href="#ma14ce91197" x="13.614577" y="78.37431" style="stroke: #000000; stroke-width: 0.6"/>
      </g>
     </g>
    </g>
    <g id="ytick_24">
     <g id="line2d_45">
      <g>
       <use xlink:href="#ma14ce91197" x="13.614577" y="66.483199" style="stroke: #000000; stroke-width: 0.6"/>
      </g>
     </g>
    </g>
    <g id="ytick_25">
     <g id="line2d_46">
      <g>
       <use xlink:href="#ma14ce91197" x="13.614577" y="54.592089" style="stroke: #000000; stroke-width: 0.6"/>
      </g>
     </g>
    </g>
    <g id="ytick_26">
     <g id="line2d_47">
      <g>
       <use xlink:href="#ma14ce91197" x="13.614577" y="42.700978" style="stroke: #000000; stroke-width: 0.6"/>
      </g>
     </g>
    </g>
    <g id="ytick_27">
     <g id="line2d_48">
      <g>
       <use xlink:href="#ma14ce91197" x="13.614577" y="18.918757" style="stroke: #000000; stroke-width: 0.6"/>
      </g>
     </g>
    </g>
    <g id="ytick_28">
     <g id="line2d_49">
      <g>
       <use xlink:href="#ma14ce91197" x="13.614577" y="7.027646" style="stroke: #000000; stroke-width: 0.6"/>
      </g>
     </g>
    </g>
   </g>
   <g id="line2d_50">
    <path d="M 17.986044 328.087631 
L 18.929001 314.964698 
L 20.578187 296.806448 
L 21.284415 290.316566 
L 22.696871 278.960231 
L 24.14681 269.009254 
L 25.596749 260.343794 
L 26.88696 253.473111 
L 29.016551 243.475325 
L 31.12614 234.851101 
L 34.353261 223.487515 
L 38.646372 210.846963 
L 42.193562 201.94331 
L 45.965583 193.614182 
L 49.806086 186.077433 
L 53.303707 179.879448 
L 56.285197 175.013034 
L 60.475883 168.719052 
L 62.710473 165.589375 
L 67.632296 159.170764 
L 72.745505 153.09444 
L 76.923867 148.507199 
L 80.026755 145.292517 
L 84.365704 141.040526 
L 90.782944 135.207466 
L 95.333041 131.358427 
L 100.873164 126.951375 
L 106.638827 122.652608 
L 113.274014 118.023675 
L 117.03649 115.533934 
L 124.613502 110.783725 
L 132.608519 106.110885 
L 139.499444 102.328708 
L 148.754117 97.562611 
L 158.478772 92.894018 
L 166.401455 89.316612 
L 176.753909 84.911935 
L 186.173519 81.140569 
L 197.246607 76.962009 
L 208.688521 72.901041 
L 219.608552 69.241605 
L 233.809338 64.762697 
L 247.169731 60.805123 
L 261.388036 56.834731 
L 275.754828 53.047874 
L 291.262368 49.186516 
L 308.323815 45.179894 
L 324.711307 41.544213 
L 342.482036 37.812037 
L 362.906939 33.763854 
L 384.808097 29.678061 
L 407.39949 25.708697 
L 430.868606 21.819346 
L 450.761262 18.69031 
L 450.761262 18.69031 
" clip-path="url(#p2ab944d6f9)" style="fill: none; stroke: #0000ff; stroke-linecap: square"/>
   </g>
   <g id="patch_4">
    <path d="M 13.614577 334.520722 
L 13.614577 0 
" style="fill: none; stroke: #000000; stroke-width: 0.8; stroke-linejoin: miter; stroke-linecap: square"/>
   </g>
   <g id="patch_5">
    <path d="M 9.33054 328.087631 
L 459.416766 328.087631 
" style="fill: none; stroke: #000000; stroke-width: 0.8; stroke-linejoin: miter; stroke-linecap: square"/>
   </g>
  </g>
 </g>
 <defs>
  <clipPath id="p2ab944d6f9">
   <rect x="9.33054" y="0" width="450.086227" height="334.520722"/>
  </clipPath>
 </defs>
</svg>
