<?xml version="1.0" encoding="utf-8" standalone="no"?>
<!DOCTYPE svg PUBLIC "-//W3C//DTD SVG 1.1//EN"
  "http://www.w3.org/Graphics/SVG/1.1/DTD/svg11.dtd">
<svg xmlns:xlink="http://www.w3.org/1999/xlink" width="460.8pt" height="345.6pt" viewBox="0 0 460.8 345.6" xmlns="http://www.w3.org/2000/svg" version="1.1">
 <metadata>
  <rdf:RDF xmlns:dc="http://purl.org/dc/elements/1.1/" xmlns:cc="http://creativecommons.org/ns#" xmlns:rdf="http://www.w3.org/1999/02/22-rdf-syntax-ns#">
   <cc:Work>
    <dc:type rdf:resource="http://purl.org/dc/dcmitype/StillImage"/>
    <dc:date>2025-08-02T12:14:22.112118</dc:date>
    <dc:format>image/svg+xml</dc:format>
    <dc:creator>
     <cc:Agent>
      <dc:title>Matplotlib v3.10.3, https://matplotlib.org/</dc:title>
     </cc:Agent>
    </dc:creator>
   </cc:Work>
  </rdf:RDF>
 </metadata>
 <defs>
  <style type="text/css">*{stroke-linejoin: round; stroke-linecap: butt}</style>
 </defs>
 <g id="figure_1">
  <g id="patch_1">
   <path d="M 0 345.6 
L 460.8 345.6 
L 460.8 0 
L 0 0 
z
" style="fill: #ffffff"/>
  </g>
  <g id="axes_1">
   <g id="patch_2">
    <path d="M 65.249914 345.6 
L 395.550086 345.6 
L 395.550086 0 
L 65.249914 0 
z
" style="fill: #ffffff"/>
   </g>
   <g id="patch_3">
    <path d="M 389.198159 172.816991 
L 389.040999 170.806279 
L 388.570194 168.814333 
L 387.58981 166.466677 
L 386.163632 164.205561 
L 385.668282 163.571079 
L 384.546144 162.311771 
L 383.275095 161.103164 
L 380.297646 158.8627 
L 377.407154 157.213239 
L 375.280155 156.233209 
L 372.996696 155.355445 
L 370.19914 154.485253 
L 367.214152 153.767867 
L 362.048024 152.957775 
L 356.469763 152.600981 
L 353.933725 152.594926 
L 348.602642 152.870489 
L 343.044303 153.544187 
L 334.652283 155.254336 
L 328.370797 157.054147 
L 316.252265 161.755654 
L 309.728826 164.965775 
L 299.180292 171.218947 
L 291.316837 176.807212 
L 282.916646 183.767546 
L 278.096928 188.287002 
L 273.452427 193.057761 
L 267.020844 200.447269 
L 262.834882 205.837504 
L 258.898192 211.415944 
L 255.922432 216.025699 
L 253.126481 220.72906 
L 249.232386 228.035117 
L 246.934025 232.880213 
L 244.603955 238.335591 
L 242.524853 243.826519 
L 240.730452 249.236206 
L 239.18442 254.641809 
L 237.513103 261.800127 
L 236.283089 268.871876 
L 235.68073 273.760774 
L 235.290678 278.569519 
L 235.102714 283.711966 
L 235.157153 288.721578 
L 235.387462 292.848938 
L 235.781147 296.856413 
L 236.379255 301.015398 
L 237.150895 305.010983 
L 239.072774 312.140702 
L 239.511528 313.449441 
L 241.575778 318.667108 
L 243.946157 323.350118 
L 246.576046 327.466618 
L 251.322454 332.922994 
L 253.927847 335.089024 
L 256.706459 336.854485 
L 260.915347 338.541625 
L 266.467362 338.953846 
L 269.490155 338.202987 
L 271.397866 337.292486 
L 273.520334 335.775246 
L 275.417213 333.815092 
L 276.767317 331.914356 
L 277.931922 329.74717 
L 279.355371 325.818235 
L 280.208566 321.444832 
L 280.427023 319.024743 
L 280.492232 316.486481 
L 280.343194 313.062356 
L 279.923854 309.475325 
L 279.085519 305.121744 
L 277.86116 300.604815 
L 276.7626 297.341041 
L 275.467119 294.023416 
L 273.358991 289.387589 
L 270.875063 284.701607 
L 269.607371 282.538656 
L 267.480513 279.174691 
L 265.165326 275.818575 
L 262.664297 272.481155 
L 259.980535 269.173145 
L 258.980536 268.003258 
L 255.946977 264.636471 
L 252.727972 261.327913 
L 249.329228 258.088681 
L 245.757102 254.92954 
L 241.435607 251.40253 
L 236.676107 247.847226 
L 231.700934 244.457603 
L 228.142737 242.218821 
L 222.069369 238.722758 
L 215.776638 235.496842 
L 208.730412 232.322096 
L 201.496123 229.507175 
L 192.527773 226.600523 
L 188.205239 225.419184 
L 168.163335 221.717718 
L 159.50241 221.002637 
L 156.510464 220.87981 
L 141.900082 221.220259 
L 132.494888 222.306749 
L 126.113506 223.463759 
L 117.248301 225.692567 
L 113.035155 227.03203 
L 108.982535 228.510555 
L 107.290944 229.187196 
L 102.526531 231.299744 
L 98.057278 233.592504 
L 93.054184 236.586301 
L 88.535889 239.774762 
L 85.919208 241.889575 
L 83.513424 244.055298 
L 82.497732 245.046469 
L 80.645196 246.997477 
L 78.962581 248.966962 
L 77.451616 250.946839 
L 76.113592 252.928955 
L 74.450301 255.853275 
L 73.169643 258.737759 
L 72.469424 260.824931 
L 72.022692 262.630154 
L 71.735898 264.391529 
L 71.601841 266.929422 
L 71.815131 269.329448 
L 72.61234 272.244941 
L 73.973209 274.830183 
L 74.710386 275.811445 
L 76.646894 277.709488 
L 78.999837 279.232973 
L 81.827825 280.378696 
L 83.7793 280.860804 
L 86.300166 281.193615 
L 88.996243 281.247702 
L 92.305447 280.951387 
L 95.793841 280.259427 
L 101.107023 278.535671 
L 108.364476 274.971436 
L 115.175969 270.376636 
L 116.441946 269.384863 
L 123.995905 262.493241 
L 130.357467 255.22088 
L 133.720161 250.719917 
L 136.933781 245.903846 
L 139.279656 242.012938 
L 142.749004 235.544248 
L 145.906874 228.697331 
L 148.352218 222.525817 
L 151.337937 213.421398 
L 153.235223 206.151397 
L 154.762895 198.700418 
L 155.848824 191.57256 
L 156.587773 184.3544 
L 156.885568 179.488023 
L 157.024038 174.607213 
L 156.981918 168.845427 
L 156.67214 162.422918 
L 156.086991 156.039448 
L 154.963648 148.090204 
L 153.233964 139.477177 
L 151.449514 132.59973 
L 149.349214 125.91671 
L 146.85809 119.230832 
L 144.067914 112.820389 
L 141.455164 107.565546 
L 138.657214 102.554437 
L 136.744423 99.430739 
L 130.207086 90.223327 
L 124.508136 83.672734 
L 116.977049 76.681786 
L 116.227344 76.077857 
L 108.931292 70.998341 
L 102.56689 67.705198 
L 96.026514 65.433571 
L 92.279457 64.678845 
L 88.738868 64.379309 
L 85.128829 64.55802 
L 82.806095 64.986487 
L 80.323125 65.789327 
L 78.110758 66.901855 
L 76.375298 68.147093 
L 74.368114 70.25409 
L 72.883719 72.747336 
L 72.058765 75.125452 
L 71.646638 77.717172 
L 71.631425 80.073447 
L 71.93142 82.533837 
L 72.551141 85.085922 
L 73.388428 87.452003 
L 74.490909 89.860685 
L 75.44604 91.607159 
L 76.787778 93.735589 
L 78.329885 95.865974 
L 80.070999 97.988159 
L 82.009174 100.092067 
L 82.904597 100.990633 
L 84.891221 102.847831 
L 87.03215 104.671542 
L 89.324589 106.454758 
L 91.765381 108.190609 
L 95.120002 110.34456 
L 98.70627 112.395037 
L 103.462321 114.77458 
L 110.098204 117.550059 
L 117.778377 120.096519 
L 125.963599 122.138721 
L 127.336336 122.419621 
L 135.0539 123.693696 
L 143.052681 124.498747 
L 155.756163 124.774985 
L 165.401719 124.202057 
L 170.519668 123.629736 
L 182.146433 121.638368 
L 191.788678 119.245382 
L 206.299116 114.306583 
L 217.932841 109.074947 
L 227.027325 104.087124 
L 229.180943 102.77711 
L 236.618014 97.828188 
L 243.583543 92.516333 
L 250.24997 86.691537 
L 256.136611 80.794525 
L 260.146594 76.263443 
L 263.810687 71.656496 
L 266.966576 67.229379 
L 269.794484 62.784206 
L 272.298606 58.329896 
L 274.489497 53.855481 
L 275.817642 50.756613 
L 276.976464 47.696546 
L 277.966875 44.684368 
L 278.790276 41.729085 
L 279.876932 36.461329 
L 280.393471 31.886582 
L 280.460452 27.296046 
L 280.04951 23.063755 
L 279.58306 20.705213 
L 278.960514 18.501807 
L 278.337395 16.813326 
L 277.272304 14.584228 
L 276.022347 12.606736 
L 273.969621 10.263354 
L 271.106198 8.177186 
L 267.898125 6.93938 
L 266.166883 6.646154 
L 262.698738 6.728758 
L 257.374086 8.433944 
L 253.022142 11.239234 
L 248.973928 15.139881 
L 245.59461 19.594083 
L 242.472852 25.061809 
L 241.968625 26.110252 
L 240.1912 30.31337 
L 238.643186 34.86573 
L 237.241155 40.215556 
L 236.170011 45.922872 
L 235.451267 51.997552 
L 235.18581 56.172802 
L 235.093849 60.462648 
L 235.259477 66.521032 
L 235.772701 72.74145 
L 236.36974 77.353126 
L 237.157665 82.020586 
L 238.301171 87.438085 
L 239.395395 91.783343 
L 240.651732 96.141905 
L 242.452868 101.604079 
L 244.504867 107.051658 
L 248.064205 115.194181 
L 252.070452 123.019301 
L 256.572836 130.648202 
L 259.533432 135.155691 
L 262.658526 139.557836 
L 267.285682 145.511147 
L 272.079279 151.079688 
L 277.115806 156.374872 
L 284.968794 163.669264 
L 292.731191 169.894558 
L 303.569292 177.182004 
L 307.991728 179.730704 
L 319.805332 185.424893 
L 322.730136 186.59297 
L 335.587324 190.609993 
L 340.953728 191.739921 
L 346.169798 192.515408 
L 348.882255 192.78722 
L 354.600035 193.046366 
L 360.007083 192.864452 
L 363.078182 192.554207 
L 366.999172 191.910219 
L 370.654176 191.021072 
L 374.139657 189.859777 
L 377.300049 188.474334 
L 379.980823 186.973353 
L 382.006481 185.569807 
L 383.792468 184.062039 
L 385.129306 182.694775 
L 386.281195 181.268974 
L 387.825009 178.696947 
L 388.796994 176.02259 
L 389.097799 174.42458 
L 389.198159 172.816991 
z
" clip-path="url(#pb66c554e00)" style="fill: #808080; opacity: 0.5"/>
   </g>
   <g id="matplotlib.axis_1">
    <g id="xtick_1">
     <g id="line2d_1">
      <defs>
       <path id="m793ac5dc86" d="M 0 0 
L 0 3.5 
" style="stroke: #000000; stroke-width: 0.8"/>
      </defs>
      <g>
       <use xlink:href="#m793ac5dc86" x="98.993929" y="172.816991" style="stroke: #000000; stroke-width: 0.8"/>
      </g>
     </g>
     <g id="text_1">
      <!-- −2 -->
      <g transform="translate(91.622836 187.415428) scale(0.1 -0.1)">
       <defs>
        <path id="DejaVuSans-2212" d="M 678 2272 
L 4684 2272 
L 4684 1741 
L 678 1741 
L 678 2272 
z
" transform="scale(0.015625)"/>
        <path id="DejaVuSans-32" d="M 1228 531 
L 3431 531 
L 3431 0 
L 469 0 
L 469 531 
Q 828 903 1448 1529 
Q 2069 2156 2228 2338 
Q 2531 2678 2651 2914 
Q 2772 3150 2772 3378 
Q 2772 3750 2511 3984 
Q 2250 4219 1831 4219 
Q 1534 4219 1204 4116 
Q 875 4013 500 3803 
L 500 4441 
Q 881 4594 1212 4672 
Q 1544 4750 1819 4750 
Q 2544 4750 2975 4387 
Q 3406 4025 3406 3419 
Q 3406 3131 3298 2873 
Q 3191 2616 2906 2266 
Q 2828 2175 2409 1742 
Q 1991 1309 1228 531 
z
" transform="scale(0.015625)"/>
       </defs>
       <use xlink:href="#DejaVuSans-2212"/>
       <use xlink:href="#DejaVuSans-32" transform="translate(83.789062 0)"/>
      </g>
     </g>
    </g>
    <g id="xtick_2">
     <g id="line2d_2">
      <g>
       <use xlink:href="#m793ac5dc86" x="157.034775" y="172.816991" style="stroke: #000000; stroke-width: 0.8"/>
      </g>
     </g>
     <g id="text_2">
      <!-- −1 -->
      <g transform="translate(149.663682 187.415428) scale(0.1 -0.1)">
       <defs>
        <path id="DejaVuSans-31" d="M 794 531 
L 1825 531 
L 1825 4091 
L 703 3866 
L 703 4441 
L 1819 4666 
L 2450 4666 
L 2450 531 
L 3481 531 
L 3481 0 
L 794 0 
L 794 531 
z
" transform="scale(0.015625)"/>
       </defs>
       <use xlink:href="#DejaVuSans-2212"/>
       <use xlink:href="#DejaVuSans-31" transform="translate(83.789062 0)"/>
      </g>
     </g>
    </g>
    <g id="xtick_3">
     <g id="line2d_3">
      <g>
       <use xlink:href="#m793ac5dc86" x="215.075621" y="172.816991" style="stroke: #000000; stroke-width: 0.8"/>
      </g>
     </g>
    </g>
    <g id="xtick_4">
     <g id="line2d_4">
      <g>
       <use xlink:href="#m793ac5dc86" x="273.116467" y="172.816991" style="stroke: #000000; stroke-width: 0.8"/>
      </g>
     </g>
     <g id="text_3">
      <!-- 1 -->
      <g transform="translate(269.935217 187.415428) scale(0.1 -0.1)">
       <use xlink:href="#DejaVuSans-31"/>
      </g>
     </g>
    </g>
    <g id="xtick_5">
     <g id="line2d_5">
      <g>
       <use xlink:href="#m793ac5dc86" x="331.157313" y="172.816991" style="stroke: #000000; stroke-width: 0.8"/>
      </g>
     </g>
     <g id="text_4">
      <!-- 2 -->
      <g transform="translate(327.976063 187.415428) scale(0.1 -0.1)">
       <use xlink:href="#DejaVuSans-32"/>
      </g>
     </g>
    </g>
    <g id="xtick_6">
     <g id="line2d_6">
      <g>
       <use xlink:href="#m793ac5dc86" x="389.198159" y="172.816991" style="stroke: #000000; stroke-width: 0.8"/>
      </g>
     </g>
     <g id="text_5">
      <!-- 3 -->
      <g transform="translate(386.016909 187.415428) scale(0.1 -0.1)">
       <defs>
        <path id="DejaVuSans-33" d="M 2597 2516 
Q 3050 2419 3304 2112 
Q 3559 1806 3559 1356 
Q 3559 666 3084 287 
Q 2609 -91 1734 -91 
Q 1441 -91 1130 -33 
Q 819 25 488 141 
L 488 750 
Q 750 597 1062 519 
Q 1375 441 1716 441 
Q 2309 441 2620 675 
Q 2931 909 2931 1356 
Q 2931 1769 2642 2001 
Q 2353 2234 1838 2234 
L 1294 2234 
L 1294 2753 
L 1863 2753 
Q 2328 2753 2575 2939 
Q 2822 3125 2822 3475 
Q 2822 3834 2567 4026 
Q 2313 4219 1838 4219 
Q 1578 4219 1281 4162 
Q 984 4106 628 3988 
L 628 4550 
Q 988 4650 1302 4700 
Q 1616 4750 1894 4750 
Q 2613 4750 3031 4423 
Q 3450 4097 3450 3541 
Q 3450 3153 3228 2886 
Q 3006 2619 2597 2516 
z
" transform="scale(0.015625)"/>
       </defs>
       <use xlink:href="#DejaVuSans-33"/>
      </g>
     </g>
    </g>
    <g id="xtick_7">
     <g id="line2d_7">
      <defs>
       <path id="mba7ee770ca" d="M 0 0 
L 0 2 
" style="stroke: #000000; stroke-width: 0.6"/>
      </defs>
      <g>
       <use xlink:href="#mba7ee770ca" x="75.777591" y="172.816991" style="stroke: #000000; stroke-width: 0.6"/>
      </g>
     </g>
    </g>
    <g id="xtick_8">
     <g id="line2d_8">
      <g>
       <use xlink:href="#mba7ee770ca" x="87.38576" y="172.816991" style="stroke: #000000; stroke-width: 0.6"/>
      </g>
     </g>
    </g>
    <g id="xtick_9">
     <g id="line2d_9">
      <g>
       <use xlink:href="#mba7ee770ca" x="110.602099" y="172.816991" style="stroke: #000000; stroke-width: 0.6"/>
      </g>
     </g>
    </g>
    <g id="xtick_10">
     <g id="line2d_10">
      <g>
       <use xlink:href="#mba7ee770ca" x="122.210268" y="172.816991" style="stroke: #000000; stroke-width: 0.6"/>
      </g>
     </g>
    </g>
    <g id="xtick_11">
     <g id="line2d_11">
      <g>
       <use xlink:href="#mba7ee770ca" x="133.818437" y="172.816991" style="stroke: #000000; stroke-width: 0.6"/>
      </g>
     </g>
    </g>
    <g id="xtick_12">
     <g id="line2d_12">
      <g>
       <use xlink:href="#mba7ee770ca" x="145.426606" y="172.816991" style="stroke: #000000; stroke-width: 0.6"/>
      </g>
     </g>
    </g>
    <g id="xtick_13">
     <g id="line2d_13">
      <g>
       <use xlink:href="#mba7ee770ca" x="168.642945" y="172.816991" style="stroke: #000000; stroke-width: 0.6"/>
      </g>
     </g>
    </g>
    <g id="xtick_14">
     <g id="line2d_14">
      <g>
       <use xlink:href="#mba7ee770ca" x="180.251114" y="172.816991" style="stroke: #000000; stroke-width: 0.6"/>
      </g>
     </g>
    </g>
    <g id="xtick_15">
     <g id="line2d_15">
      <g>
       <use xlink:href="#mba7ee770ca" x="191.859283" y="172.816991" style="stroke: #000000; stroke-width: 0.6"/>
      </g>
     </g>
    </g>
    <g id="xtick_16">
     <g id="line2d_16">
      <g>
       <use xlink:href="#mba7ee770ca" x="203.467452" y="172.816991" style="stroke: #000000; stroke-width: 0.6"/>
      </g>
     </g>
    </g>
    <g id="xtick_17">
     <g id="line2d_17">
      <g>
       <use xlink:href="#mba7ee770ca" x="226.683791" y="172.816991" style="stroke: #000000; stroke-width: 0.6"/>
      </g>
     </g>
    </g>
    <g id="xtick_18">
     <g id="line2d_18">
      <g>
       <use xlink:href="#mba7ee770ca" x="238.29196" y="172.816991" style="stroke: #000000; stroke-width: 0.6"/>
      </g>
     </g>
    </g>
    <g id="xtick_19">
     <g id="line2d_19">
      <g>
       <use xlink:href="#mba7ee770ca" x="249.900129" y="172.816991" style="stroke: #000000; stroke-width: 0.6"/>
      </g>
     </g>
    </g>
    <g id="xtick_20">
     <g id="line2d_20">
      <g>
       <use xlink:href="#mba7ee770ca" x="261.508298" y="172.816991" style="stroke: #000000; stroke-width: 0.6"/>
      </g>
     </g>
    </g>
    <g id="xtick_21">
     <g id="line2d_21">
      <g>
       <use xlink:href="#mba7ee770ca" x="284.724637" y="172.816991" style="stroke: #000000; stroke-width: 0.6"/>
      </g>
     </g>
    </g>
    <g id="xtick_22">
     <g id="line2d_22">
      <g>
       <use xlink:href="#mba7ee770ca" x="296.332806" y="172.816991" style="stroke: #000000; stroke-width: 0.6"/>
      </g>
     </g>
    </g>
    <g id="xtick_23">
     <g id="line2d_23">
      <g>
       <use xlink:href="#mba7ee770ca" x="307.940975" y="172.816991" style="stroke: #000000; stroke-width: 0.6"/>
      </g>
     </g>
    </g>
    <g id="xtick_24">
     <g id="line2d_24">
      <g>
       <use xlink:href="#mba7ee770ca" x="319.549144" y="172.816991" style="stroke: #000000; stroke-width: 0.6"/>
      </g>
     </g>
    </g>
    <g id="xtick_25">
     <g id="line2d_25">
      <g>
       <use xlink:href="#mba7ee770ca" x="342.765482" y="172.816991" style="stroke: #000000; stroke-width: 0.6"/>
      </g>
     </g>
    </g>
    <g id="xtick_26">
     <g id="line2d_26">
      <g>
       <use xlink:href="#mba7ee770ca" x="354.373652" y="172.816991" style="stroke: #000000; stroke-width: 0.6"/>
      </g>
     </g>
    </g>
    <g id="xtick_27">
     <g id="line2d_27">
      <g>
       <use xlink:href="#mba7ee770ca" x="365.981821" y="172.816991" style="stroke: #000000; stroke-width: 0.6"/>
      </g>
     </g>
    </g>
    <g id="xtick_28">
     <g id="line2d_28">
      <g>
       <use xlink:href="#mba7ee770ca" x="377.58999" y="172.816991" style="stroke: #000000; stroke-width: 0.6"/>
      </g>
     </g>
    </g>
   </g>
   <g id="matplotlib.axis_2">
    <g id="ytick_1">
     <g id="line2d_29">
      <defs>
       <path id="m194f878ed0" d="M 0 0 
L -3.5 0 
" style="stroke: #000000; stroke-width: 0.8"/>
      </defs>
      <g>
       <use xlink:href="#m194f878ed0" x="215.075621" y="288.898683" style="stroke: #000000; stroke-width: 0.8"/>
      </g>
     </g>
     <g id="text_6">
      <!-- −2 -->
      <g transform="translate(193.333434 292.697901) scale(0.1 -0.1)">
       <use xlink:href="#DejaVuSans-2212"/>
       <use xlink:href="#DejaVuSans-32" transform="translate(83.789062 0)"/>
      </g>
     </g>
    </g>
    <g id="ytick_2">
     <g id="line2d_30">
      <g>
       <use xlink:href="#m194f878ed0" x="215.075621" y="230.857837" style="stroke: #000000; stroke-width: 0.8"/>
      </g>
     </g>
     <g id="text_7">
      <!-- −1 -->
      <g transform="translate(193.333434 234.657055) scale(0.1 -0.1)">
       <use xlink:href="#DejaVuSans-2212"/>
       <use xlink:href="#DejaVuSans-31" transform="translate(83.789062 0)"/>
      </g>
     </g>
    </g>
    <g id="ytick_3">
     <g id="line2d_31">
      <g>
       <use xlink:href="#m194f878ed0" x="215.075621" y="172.816991" style="stroke: #000000; stroke-width: 0.8"/>
      </g>
     </g>
    </g>
    <g id="ytick_4">
     <g id="line2d_32">
      <g>
       <use xlink:href="#m194f878ed0" x="215.075621" y="114.776145" style="stroke: #000000; stroke-width: 0.8"/>
      </g>
     </g>
     <g id="text_8">
      <!-- 1 -->
      <g transform="translate(201.713121 118.575363) scale(0.1 -0.1)">
       <use xlink:href="#DejaVuSans-31"/>
      </g>
     </g>
    </g>
    <g id="ytick_5">
     <g id="line2d_33">
      <g>
       <use xlink:href="#m194f878ed0" x="215.075621" y="56.735299" style="stroke: #000000; stroke-width: 0.8"/>
      </g>
     </g>
     <g id="text_9">
      <!-- 2 -->
      <g transform="translate(201.713121 60.534517) scale(0.1 -0.1)">
       <use xlink:href="#DejaVuSans-32"/>
      </g>
     </g>
    </g>
    <g id="ytick_6">
     <g id="line2d_34">
      <defs>
       <path id="m7c70ead762" d="M 0 0 
L -2 0 
" style="stroke: #000000; stroke-width: 0.6"/>
      </defs>
      <g>
       <use xlink:href="#m7c70ead762" x="215.075621" y="335.331359" style="stroke: #000000; stroke-width: 0.6"/>
      </g>
     </g>
    </g>
    <g id="ytick_7">
     <g id="line2d_35">
      <g>
       <use xlink:href="#m7c70ead762" x="215.075621" y="323.72319" style="stroke: #000000; stroke-width: 0.6"/>
      </g>
     </g>
    </g>
    <g id="ytick_8">
     <g id="line2d_36">
      <g>
       <use xlink:href="#m7c70ead762" x="215.075621" y="312.115021" style="stroke: #000000; stroke-width: 0.6"/>
      </g>
     </g>
    </g>
    <g id="ytick_9">
     <g id="line2d_37">
      <g>
       <use xlink:href="#m7c70ead762" x="215.075621" y="300.506852" style="stroke: #000000; stroke-width: 0.6"/>
      </g>
     </g>
    </g>
    <g id="ytick_10">
     <g id="line2d_38">
      <g>
       <use xlink:href="#m7c70ead762" x="215.075621" y="277.290513" style="stroke: #000000; stroke-width: 0.6"/>
      </g>
     </g>
    </g>
    <g id="ytick_11">
     <g id="line2d_39">
      <g>
       <use xlink:href="#m7c70ead762" x="215.075621" y="265.682344" style="stroke: #000000; stroke-width: 0.6"/>
      </g>
     </g>
    </g>
    <g id="ytick_12">
     <g id="line2d_40">
      <g>
       <use xlink:href="#m7c70ead762" x="215.075621" y="254.074175" style="stroke: #000000; stroke-width: 0.6"/>
      </g>
     </g>
    </g>
    <g id="ytick_13">
     <g id="line2d_41">
      <g>
       <use xlink:href="#m7c70ead762" x="215.075621" y="242.466006" style="stroke: #000000; stroke-width: 0.6"/>
      </g>
     </g>
    </g>
    <g id="ytick_14">
     <g id="line2d_42">
      <g>
       <use xlink:href="#m7c70ead762" x="215.075621" y="219.249667" style="stroke: #000000; stroke-width: 0.6"/>
      </g>
     </g>
    </g>
    <g id="ytick_15">
     <g id="line2d_43">
      <g>
       <use xlink:href="#m7c70ead762" x="215.075621" y="207.641498" style="stroke: #000000; stroke-width: 0.6"/>
      </g>
     </g>
    </g>
    <g id="ytick_16">
     <g id="line2d_44">
      <g>
       <use xlink:href="#m7c70ead762" x="215.075621" y="196.033329" style="stroke: #000000; stroke-width: 0.6"/>
      </g>
     </g>
    </g>
    <g id="ytick_17">
     <g id="line2d_45">
      <g>
       <use xlink:href="#m7c70ead762" x="215.075621" y="184.42516" style="stroke: #000000; stroke-width: 0.6"/>
      </g>
     </g>
    </g>
    <g id="ytick_18">
     <g id="line2d_46">
      <g>
       <use xlink:href="#m7c70ead762" x="215.075621" y="161.208821" style="stroke: #000000; stroke-width: 0.6"/>
      </g>
     </g>
    </g>
    <g id="ytick_19">
     <g id="line2d_47">
      <g>
       <use xlink:href="#m7c70ead762" x="215.075621" y="149.600652" style="stroke: #000000; stroke-width: 0.6"/>
      </g>
     </g>
    </g>
    <g id="ytick_20">
     <g id="line2d_48">
      <g>
       <use xlink:href="#m7c70ead762" x="215.075621" y="137.992483" style="stroke: #000000; stroke-width: 0.6"/>
      </g>
     </g>
    </g>
    <g id="ytick_21">
     <g id="line2d_49">
      <g>
       <use xlink:href="#m7c70ead762" x="215.075621" y="126.384314" style="stroke: #000000; stroke-width: 0.6"/>
      </g>
     </g>
    </g>
    <g id="ytick_22">
     <g id="line2d_50">
      <g>
       <use xlink:href="#m7c70ead762" x="215.075621" y="103.167975" style="stroke: #000000; stroke-width: 0.6"/>
      </g>
     </g>
    </g>
    <g id="ytick_23">
     <g id="line2d_51">
      <g>
       <use xlink:href="#m7c70ead762" x="215.075621" y="91.559806" style="stroke: #000000; stroke-width: 0.6"/>
      </g>
     </g>
    </g>
    <g id="ytick_24">
     <g id="line2d_52">
      <g>
       <use xlink:href="#m7c70ead762" x="215.075621" y="79.951637" style="stroke: #000000; stroke-width: 0.6"/>
      </g>
     </g>
    </g>
    <g id="ytick_25">
     <g id="line2d_53">
      <g>
       <use xlink:href="#m7c70ead762" x="215.075621" y="68.343468" style="stroke: #000000; stroke-width: 0.6"/>
      </g>
     </g>
    </g>
    <g id="ytick_26">
     <g id="line2d_54">
      <g>
       <use xlink:href="#m7c70ead762" x="215.075621" y="45.12713" style="stroke: #000000; stroke-width: 0.6"/>
      </g>
     </g>
    </g>
    <g id="ytick_27">
     <g id="line2d_55">
      <g>
       <use xlink:href="#m7c70ead762" x="215.075621" y="33.51896" style="stroke: #000000; stroke-width: 0.6"/>
      </g>
     </g>
    </g>
    <g id="ytick_28">
     <g id="line2d_56">
      <g>
       <use xlink:href="#m7c70ead762" x="215.075621" y="21.910791" style="stroke: #000000; stroke-width: 0.6"/>
      </g>
     </g>
    </g>
    <g id="ytick_29">
     <g id="line2d_57">
      <g>
       <use xlink:href="#m7c70ead762" x="215.075621" y="10.302622" style="stroke: #000000; stroke-width: 0.6"/>
      </g>
     </g>
    </g>
   </g>
   <g id="line2d_58">
    <path d="M 389.198159 172.816991 
L 389.040999 170.806279 
L 388.570194 168.814333 
L 387.58981 166.466677 
L 385.668282 163.571079 
L 384.546144 162.311771 
L 383.275095 161.103164 
L 380.297646 158.8627 
L 377.407154 157.213239 
L 375.280155 156.233209 
L 372.996696 155.355445 
L 370.19914 154.485253 
L 367.214152 153.767867 
L 362.048024 152.957775 
L 356.469763 152.600981 
L 353.933725 152.594926 
L 348.602642 152.870489 
L 343.044303 153.544187 
L 334.652283 155.254336 
L 328.370797 157.054147 
L 316.252265 161.755654 
L 309.728826 164.965775 
L 299.180292 171.218947 
L 291.316837 176.807212 
L 282.916646 183.767546 
L 278.096928 188.287002 
L 273.452427 193.057761 
L 267.020844 200.447269 
L 262.834882 205.837504 
L 258.898192 211.415944 
L 255.922432 216.025699 
L 253.126481 220.72906 
L 249.232386 228.035117 
L 246.934025 232.880213 
L 244.603955 238.335591 
L 242.524853 243.826519 
L 240.730452 249.236206 
L 239.18442 254.641809 
L 237.513103 261.800127 
L 236.283089 268.871876 
L 235.68073 273.760774 
L 235.290678 278.569519 
L 235.102714 283.711966 
L 235.157153 288.721578 
L 235.387462 292.848938 
L 235.781147 296.856413 
L 236.379255 301.015398 
L 237.150895 305.010983 
L 239.511528 313.449441 
L 241.575778 318.667108 
L 243.946157 323.350118 
L 246.576046 327.466618 
L 251.322454 332.922994 
L 253.927847 335.089024 
L 256.706459 336.854485 
L 260.915347 338.541625 
L 266.467362 338.953846 
L 269.490155 338.202987 
L 271.397866 337.292486 
L 273.520334 335.775246 
L 275.417213 333.815092 
L 276.767317 331.914356 
L 277.931922 329.74717 
L 279.355371 325.818235 
L 280.208566 321.444832 
L 280.427023 319.024743 
L 280.492232 316.486481 
L 280.343194 313.062356 
L 279.923854 309.475325 
L 279.085519 305.121744 
L 277.86116 300.604815 
L 276.7626 297.341041 
L 275.467119 294.023416 
L 273.358991 289.387589 
L 269.607371 282.538656 
L 267.480513 279.174691 
L 265.165326 275.818575 
L 262.664297 272.481155 
L 258.980536 268.003258 
L 255.946977 264.636471 
L 252.727972 261.327913 
L 249.329228 258.088681 
L 245.757102 254.92954 
L 241.435607 251.40253 
L 236.676107 247.847226 
L 231.700934 244.457603 
L 228.142737 242.218821 
L 222.069369 238.722758 
L 215.776638 235.496842 
L 208.730412 232.322096 
L 201.496123 229.507175 
L 192.527773 226.600523 
L 188.205239 225.419184 
L 168.163335 221.717718 
L 159.50241 221.002637 
L 156.510464 220.87981 
L 141.900082 221.220259 
L 132.494888 222.306749 
L 126.113506 223.463759 
L 117.248301 225.692567 
L 113.035155 227.03203 
L 107.290944 229.187196 
L 102.526531 231.299744 
L 98.057278 233.592504 
L 93.054184 236.586301 
L 88.535889 239.774762 
L 85.919208 241.889575 
L 82.497732 245.046469 
L 80.645196 246.997477 
L 78.962581 248.966962 
L 77.451616 250.946839 
L 76.113592 252.928955 
L 74.450301 255.853275 
L 73.169643 258.737759 
L 72.469424 260.824931 
L 72.022692 262.630154 
L 71.735898 264.391529 
L 71.601841 266.929422 
L 71.815131 269.329448 
L 72.61234 272.244941 
L 73.973209 274.830183 
L 74.710386 275.811445 
L 76.646894 277.709488 
L 78.999837 279.232973 
L 81.827825 280.378696 
L 83.7793 280.860804 
L 86.300166 281.193615 
L 88.996243 281.247702 
L 92.305447 280.951387 
L 95.793841 280.259427 
L 101.107023 278.535671 
L 108.364476 274.971436 
L 115.175969 270.376636 
L 116.441946 269.384863 
L 123.995905 262.493241 
L 130.357467 255.22088 
L 133.720161 250.719917 
L 136.933781 245.903846 
L 139.279656 242.012938 
L 142.749004 235.544248 
L 145.906874 228.697331 
L 148.352218 222.525817 
L 151.337937 213.421398 
L 153.235223 206.151397 
L 154.762895 198.700418 
L 155.848824 191.57256 
L 156.587773 184.3544 
L 156.885568 179.488023 
L 157.024038 174.607213 
L 156.981918 168.845427 
L 156.67214 162.422918 
L 156.086991 156.039448 
L 154.963648 148.090204 
L 153.233964 139.477177 
L 151.449514 132.59973 
L 149.349214 125.91671 
L 146.85809 119.230832 
L 144.067914 112.820389 
L 141.455164 107.565546 
L 138.657214 102.554437 
L 136.744423 99.430739 
L 130.207086 90.223327 
L 124.508136 83.672734 
L 116.227344 76.077857 
L 108.931292 70.998341 
L 102.56689 67.705198 
L 96.026514 65.433571 
L 92.279457 64.678845 
L 88.738868 64.379309 
L 85.128829 64.55802 
L 82.806095 64.986487 
L 80.323125 65.789327 
L 78.110758 66.901855 
L 76.375298 68.147093 
L 74.368114 70.25409 
L 72.883719 72.747336 
L 72.058765 75.125452 
L 71.646638 77.717172 
L 71.631425 80.073447 
L 71.93142 82.533837 
L 72.551141 85.085922 
L 73.388428 87.452003 
L 74.490909 89.860685 
L 75.44604 91.607159 
L 76.787778 93.735589 
L 78.329885 95.865974 
L 80.070999 97.988159 
L 82.904597 100.990633 
L 84.891221 102.847831 
L 87.03215 104.671542 
L 89.324589 106.454758 
L 91.765381 108.190609 
L 95.120002 110.34456 
L 98.70627 112.395037 
L 103.462321 114.77458 
L 110.098204 117.550059 
L 117.778377 120.096519 
L 127.336336 122.419621 
L 135.0539 123.693696 
L 143.052681 124.498747 
L 155.756163 124.774985 
L 165.401719 124.202057 
L 170.519668 123.629736 
L 182.146433 121.638368 
L 191.788678 119.245382 
L 206.299116 114.306583 
L 217.932841 109.074947 
L 227.027325 104.087124 
L 229.180943 102.77711 
L 236.618014 97.828188 
L 243.583543 92.516333 
L 250.24997 86.691537 
L 256.136611 80.794525 
L 260.146594 76.263443 
L 263.810687 71.656496 
L 266.966576 67.229379 
L 269.794484 62.784206 
L 272.298606 58.329896 
L 274.489497 53.855481 
L 275.817642 50.756613 
L 276.976464 47.696546 
L 277.966875 44.684368 
L 278.790276 41.729085 
L 279.876932 36.461329 
L 280.393471 31.886582 
L 280.460452 27.296046 
L 280.04951 23.063755 
L 279.58306 20.705213 
L 278.960514 18.501807 
L 278.337395 16.813326 
L 277.272304 14.584228 
L 276.022347 12.606736 
L 273.969621 10.263354 
L 271.106198 8.177186 
L 267.898125 6.93938 
L 266.166883 6.646154 
L 262.698738 6.728758 
L 257.374086 8.433944 
L 253.022142 11.239234 
L 248.973928 15.139881 
L 245.59461 19.594083 
L 241.968625 26.110252 
L 240.1912 30.31337 
L 238.643186 34.86573 
L 237.241155 40.215556 
L 236.170011 45.922872 
L 235.451267 51.997552 
L 235.18581 56.172802 
L 235.093849 60.462648 
L 235.259477 66.521032 
L 235.772701 72.74145 
L 236.36974 77.353126 
L 237.157665 82.020586 
L 238.301171 87.438085 
L 239.395395 91.783343 
L 240.651732 96.141905 
L 242.452868 101.604079 
L 244.504867 107.051658 
L 248.064205 115.194181 
L 252.070452 123.019301 
L 256.572836 130.648202 
L 259.533432 135.155691 
L 262.658526 139.557836 
L 267.285682 145.511147 
L 272.079279 151.079688 
L 277.115806 156.374872 
L 284.968794 163.669264 
L 292.731191 169.894558 
L 303.569292 177.182004 
L 307.991728 179.730704 
L 319.805332 185.424893 
L 322.730136 186.59297 
L 335.587324 190.609993 
L 340.953728 191.739921 
L 346.169798 192.515408 
L 348.882255 192.78722 
L 354.600035 193.046366 
L 360.007083 192.864452 
L 363.078182 192.554207 
L 366.999172 191.910219 
L 370.654176 191.021072 
L 374.139657 189.859777 
L 377.300049 188.474334 
L 379.980823 186.973353 
L 382.006481 185.569807 
L 383.792468 184.062039 
L 385.129306 182.694775 
L 386.281195 181.268974 
L 387.825009 178.696947 
L 388.796994 176.02259 
L 389.097799 174.42458 
L 389.198159 172.816991 
L 389.198159 172.816991 
" clip-path="url(#pb66c554e00)" style="fill: none; stroke: #0000ff; stroke-linecap: square"/>
   </g>
   <g id="patch_4">
    <path d="M 215.075621 345.6 
L 215.075621 0 
" style="fill: none; stroke: #000000; stroke-width: 0.8; stroke-linejoin: miter; stroke-linecap: square"/>
   </g>
   <g id="patch_5">
    <path d="M 65.249914 172.816991 
L 395.550086 172.816991 
" style="fill: none; stroke: #000000; stroke-width: 0.8; stroke-linejoin: miter; stroke-linecap: square"/>
   </g>
  </g>
 </g>
 <defs>
  <clipPath id="pb66c554e00">
   <rect x="65.249914" y="0" width="330.300171" height="345.6"/>
  </clipPath>
 </defs>
</svg>
