<?xml version="1.0" encoding="utf-8" standalone="no"?>
<!DOCTYPE svg PUBLIC "-//W3C//DTD SVG 1.1//EN"
  "http://www.w3.org/Graphics/SVG/1.1/DTD/svg11.dtd">
<svg xmlns:xlink="http://www.w3.org/1999/xlink" width="460.8pt" height="345.6pt" viewBox="0 0 460.8 345.6" xmlns="http://www.w3.org/2000/svg" version="1.1">
 <metadata>
  <rdf:RDF xmlns:dc="http://purl.org/dc/elements/1.1/" xmlns:cc="http://creativecommons.org/ns#" xmlns:rdf="http://www.w3.org/1999/02/22-rdf-syntax-ns#">
   <cc:Work>
    <dc:type rdf:resource="http://purl.org/dc/dcmitype/StillImage"/>
    <dc:date>2025-08-01T20:13:31.723695</dc:date>
    <dc:format>image/svg+xml</dc:format>
    <dc:creator>
     <cc:Agent>
      <dc:title>Matplotlib v3.10.3, https://matplotlib.org/</dc:title>
     </cc:Agent>
    </dc:creator>
   </cc:Work>
  </rdf:RDF>
 </metadata>
 <defs>
  <style type="text/css">*{stroke-linejoin: round; stroke-linecap: butt}</style>
 </defs>
 <g id="figure_1">
  <g id="patch_1">
   <path d="M 0 345.6 
L 460.8 345.6 
L 460.8 0 
L 0 0 
z
" style="fill: #ffffff"/>
  </g>
  <g id="axes_1">
   <g id="patch_2">
    <path d="M 65.29227 345.6 
L 395.50773 345.6 
L 395.50773 0 
L 65.29227 0 
z
" style="fill: #ffffff"/>
   </g>
   <g id="patch_3">
    <path d="M 389.157433 172.768912 
L 388.964135 170.539974 
L 388.337413 168.203287 
L 387.280288 165.92581 
L 385.824446 163.769628 
L 383.965591 161.728042 
L 382.576801 160.500336 
L 381.032179 159.337038 
L 378.827825 157.949415 
L 376.381383 156.692461 
L 372.797944 155.255578 
L 369.857332 154.358901 
L 366.713058 153.630295 
L 361.025874 152.814953 
L 355.852305 152.548469 
L 350.376798 152.692137 
L 345.790749 153.117235 
L 341.058051 153.827118 
L 336.500686 154.758766 
L 326.515146 157.616597 
L 315.011583 162.273404 
L 306.246609 166.823335 
L 302.806193 168.85735 
L 291.061515 176.941949 
L 283.037718 183.596367 
L 277.217375 189.093413 
L 272.888281 193.602386 
L 268.733997 198.314711 
L 262.504109 206.218126 
L 259.287338 210.77106 
L 256.246675 215.435353 
L 252.852257 221.141935 
L 249.733769 226.964699 
L 247.036695 232.58082 
L 244.605609 238.257717 
L 242.834474 242.888256 
L 241.2444 247.53215 
L 239.762613 252.441139 
L 238.486126 257.337194 
L 237.450926 262.027833 
L 236.606013 266.680325 
L 235.984763 271.002989 
L 235.528582 275.270326 
L 235.141275 281.788675 
L 235.138664 288.109134 
L 235.355429 292.357508 
L 235.744842 296.480789 
L 235.951263 298.119969 
L 237.15311 304.946581 
L 238.822087 311.274687 
L 240.160286 315.160902 
L 241.667391 318.79074 
L 243.192523 321.898276 
L 247.213959 328.249783 
L 252.215529 333.63982 
L 254.743384 335.577376 
L 257.798864 337.317318 
L 263.703589 338.925914 
L 265.370202 338.953846 
L 268.602871 338.411122 
L 272.401928 336.551687 
L 274.85108 334.371471 
L 277.138074 331.179722 
L 278.731911 327.674247 
L 279.837098 323.612988 
L 280.252043 320.879979 
L 280.446036 318.292917 
L 280.467404 315.576251 
L 280.30507 312.675276 
L 279.95134 309.66041 
L 279.451894 306.790676 
L 278.78296 303.843023 
L 277.33012 298.91679 
L 275.41644 293.850478 
L 273.098481 288.806587 
L 271.422838 285.621193 
L 269.573959 282.423622 
L 267.552924 279.223359 
L 265.361331 276.029836 
L 263.700525 273.768515 
L 261.342664 270.756314 
L 258.836047 267.772625 
L 253.388839 261.921792 
L 249.889565 258.54068 
L 245.600946 254.730795 
L 241.071482 251.052732 
L 235.065625 246.648948 
L 228.730624 242.512288 
L 226.86329 241.382893 
L 221.694185 238.453266 
L 216.368964 235.718204 
L 209.636704 232.640028 
L 202.727199 229.890309 
L 197.58274 228.09663 
L 178.163608 223.141265 
L 177.830556 223.080322 
L 164.707193 221.306486 
L 156.375338 220.814791 
L 146.455282 220.883933 
L 136.820949 221.660825 
L 129.930563 222.672819 
L 123.691614 223.943073 
L 117.478249 225.571805 
L 111.563107 227.495445 
L 107.434742 229.078664 
L 103.493243 230.797235 
L 98.993851 233.039144 
L 93.570108 236.211968 
L 88.699164 239.612561 
L 87.582912 240.482969 
L 85.36219 242.337069 
L 83.301883 244.227641 
L 81.404652 246.14711 
L 79.672753 248.087785 
L 77.928039 250.281633 
L 76.395902 252.48127 
L 74.584596 255.599282 
L 73.207698 258.673991 
L 72.582776 260.507421 
L 72.117013 262.305741 
L 71.813127 264.032626 
L 71.6605 265.711965 
L 71.743995 268.448576 
L 72.144125 270.609498 
L 72.837251 272.616915 
L 73.75415 274.358618 
L 74.915596 275.932242 
L 76.842372 277.757053 
L 78.247514 278.715745 
L 79.799569 279.527037 
L 81.970037 280.334289 
L 84.348519 280.880392 
L 88.260803 281.185249 
L 92.538291 280.846359 
L 97.289021 279.787698 
L 104.297048 277.078037 
L 104.660895 276.902011 
L 111.469282 272.975973 
L 120.677831 265.687782 
L 127.903232 258.165504 
L 133.177037 251.448345 
L 135.137276 248.632416 
L 138.639294 243.08375 
L 141.911028 237.174903 
L 144.19211 232.531848 
L 147.631626 224.43514 
L 150.5906 215.92005 
L 151.9955 211.092458 
L 153.710749 204.071249 
L 155.082747 196.89378 
L 155.989538 190.538991 
L 156.621222 184.116524 
L 157.037231 174.986797 
L 157.049342 171.626435 
L 156.804882 164.157362 
L 156.187913 156.731954 
L 155.193362 149.323806 
L 153.833475 142.03626 
L 152.495184 136.337345 
L 150.939258 130.756951 
L 148.357618 123.02997 
L 146.131545 117.381984 
L 142.858053 110.23165 
L 139.245484 103.490822 
L 137.420067 100.440429 
L 131.316842 91.585589 
L 126.947572 86.274041 
L 122.420045 81.506314 
L 118.170168 77.62759 
L 112.37603 73.176034 
L 106.592321 69.627562 
L 102.712324 67.733221 
L 95.417277 65.253609 
L 93.320788 64.819206 
L 88.364397 64.353085 
L 83.888795 64.739145 
L 80.525697 65.702803 
L 78.179854 66.862842 
L 76.288058 68.234045 
L 74.696176 69.866925 
L 73.609689 71.415179 
L 72.753148 73.118716 
L 72.3748 74.142396 
L 71.846377 76.339999 
L 71.642567 78.691185 
L 71.797493 81.385666 
L 72.351022 84.206776 
L 72.974746 86.229722 
L 73.795749 88.290208 
L 75.096315 90.895993 
L 76.704615 93.525394 
L 78.613829 96.152004 
L 80.825305 98.763874 
L 83.807854 101.791553 
L 87.194267 104.742609 
L 88.376632 105.677673 
L 92.639428 108.721021 
L 97.342697 111.591839 
L 101.929689 113.997438 
L 106.836927 116.212072 
L 113.912018 118.852572 
L 120.170757 120.718604 
L 125.800701 122.063484 
L 131.633772 123.152186 
L 138.230642 124.03605 
L 145.010065 124.582923 
L 154.335345 124.767577 
L 157.864597 124.671568 
L 174.945662 122.952259 
L 185.818573 120.775672 
L 198.911327 116.998091 
L 205.925829 114.424324 
L 209.623102 112.903607 
L 215.487232 110.246257 
L 221.195775 107.35238 
L 226.722589 104.238456 
L 232.053749 100.916402 
L 236.646347 97.778101 
L 241.054697 94.49812 
L 244.69211 91.571939 
L 248.177535 88.559331 
L 253.058635 83.946609 
L 257.572014 79.194827 
L 260.318126 76.026271 
L 262.89609 72.821517 
L 265.824944 68.853564 
L 268.490639 64.863523 
L 270.561732 61.442227 
L 272.435333 58.029669 
L 274.27931 54.27322 
L 275.879377 50.55755 
L 277.333106 46.612153 
L 278.505861 42.752201 
L 279.284196 39.55388 
L 279.865147 36.442941 
L 280.313114 32.768937 
L 280.470448 28.028583 
L 280.12624 23.652832 
L 279.633155 20.963777 
L 278.490333 17.217429 
L 276.916619 13.977542 
L 276.677621 13.587683 
L 274.904364 11.225514 
L 272.862971 9.325549 
L 269.207871 7.325132 
L 266.209629 6.646154 
L 260.360704 7.240429 
L 259.597583 7.487434 
L 254.572582 10.076684 
L 249.134472 14.945208 
L 246.060025 18.888311 
L 242.536384 24.917358 
L 241.237066 27.718795 
L 238.86391 34.1293 
L 237.444784 39.310062 
L 236.338565 44.83867 
L 235.663462 49.778615 
L 235.243446 54.942208 
L 235.092961 60.290724 
L 235.163557 64.422408 
L 235.396064 68.63543 
L 236.163199 75.89567 
L 237.410213 83.306684 
L 237.859652 85.463111 
L 239.533529 92.271877 
L 241.605968 99.110438 
L 243.560601 104.607738 
L 245.767978 110.079174 
L 248.320015 115.706518 
L 250.790516 120.617769 
L 253.458606 125.459073 
L 256.303574 130.193355 
L 259.330649 134.830526 
L 263.21397 140.277562 
L 267.335032 145.541797 
L 271.192591 150.060451 
L 275.211977 154.403399 
L 279.627073 158.794435 
L 285.013379 163.673939 
L 290.574062 168.219534 
L 299.185283 174.381406 
L 308.044565 179.720791 
L 320.573709 185.698902 
L 329.15237 188.783256 
L 335.652543 190.579515 
L 343.855237 192.162712 
L 347.991408 192.657807 
L 354.788454 192.994126 
L 361.146181 192.7116 
L 362.360367 192.584108 
L 365.920718 192.057793 
L 369.272157 191.331402 
L 371.844535 190.598035 
L 374.261164 189.746123 
L 376.515337 188.783003 
L 378.600791 187.716374 
L 380.772589 186.379284 
L 382.707994 184.929721 
L 384.262369 183.519268 
L 385.937882 181.622876 
L 387.269747 179.630553 
L 388.246509 177.577085 
L 388.872541 175.472718 
L 389.157433 172.768912 
z
" clip-path="url(#p2959489070)" style="fill: #808080; opacity: 0.5"/>
   </g>
   <g id="matplotlib.axis_1">
    <g id="xtick_1">
     <g id="line2d_1">
      <defs>
       <path id="m17d180252b" d="M 0 0 
L 0 3.5 
" style="stroke: #000000; stroke-width: 0.8"/>
      </defs>
      <g>
       <use xlink:href="#m17d180252b" x="99.027787" y="172.768912" style="stroke: #000000; stroke-width: 0.8"/>
      </g>
     </g>
     <g id="text_1">
      <!-- −2 -->
      <g transform="translate(91.656693 187.367349) scale(0.1 -0.1)">
       <defs>
        <path id="DejaVuSans-2212" d="M 678 2272 
L 4684 2272 
L 4684 1741 
L 678 1741 
L 678 2272 
z
" transform="scale(0.015625)"/>
        <path id="DejaVuSans-32" d="M 1228 531 
L 3431 531 
L 3431 0 
L 469 0 
L 469 531 
Q 828 903 1448 1529 
Q 2069 2156 2228 2338 
Q 2531 2678 2651 2914 
Q 2772 3150 2772 3378 
Q 2772 3750 2511 3984 
Q 2250 4219 1831 4219 
Q 1534 4219 1204 4116 
Q 875 4013 500 3803 
L 500 4441 
Q 881 4594 1212 4672 
Q 1544 4750 1819 4750 
Q 2544 4750 2975 4387 
Q 3406 4025 3406 3419 
Q 3406 3131 3298 2873 
Q 3191 2616 2906 2266 
Q 2828 2175 2409 1742 
Q 1991 1309 1228 531 
z
" transform="scale(0.015625)"/>
       </defs>
       <use xlink:href="#DejaVuSans-2212"/>
       <use xlink:href="#DejaVuSans-32" transform="translate(83.789062 0)"/>
      </g>
     </g>
    </g>
    <g id="xtick_2">
     <g id="line2d_2">
      <g>
       <use xlink:href="#m17d180252b" x="157.053716" y="172.768912" style="stroke: #000000; stroke-width: 0.8"/>
      </g>
     </g>
     <g id="text_2">
      <!-- −1 -->
      <g transform="translate(149.682622 187.367349) scale(0.1 -0.1)">
       <defs>
        <path id="DejaVuSans-31" d="M 794 531 
L 1825 531 
L 1825 4091 
L 703 3866 
L 703 4441 
L 1819 4666 
L 2450 4666 
L 2450 531 
L 3481 531 
L 3481 0 
L 794 0 
L 794 531 
z
" transform="scale(0.015625)"/>
       </defs>
       <use xlink:href="#DejaVuSans-2212"/>
       <use xlink:href="#DejaVuSans-31" transform="translate(83.789062 0)"/>
      </g>
     </g>
    </g>
    <g id="xtick_3">
     <g id="line2d_3">
      <g>
       <use xlink:href="#m17d180252b" x="215.079645" y="172.768912" style="stroke: #000000; stroke-width: 0.8"/>
      </g>
     </g>
    </g>
    <g id="xtick_4">
     <g id="line2d_4">
      <g>
       <use xlink:href="#m17d180252b" x="273.105575" y="172.768912" style="stroke: #000000; stroke-width: 0.8"/>
      </g>
     </g>
     <g id="text_3">
      <!-- 1 -->
      <g transform="translate(269.924325 187.367349) scale(0.1 -0.1)">
       <use xlink:href="#DejaVuSans-31"/>
      </g>
     </g>
    </g>
    <g id="xtick_5">
     <g id="line2d_5">
      <g>
       <use xlink:href="#m17d180252b" x="331.131504" y="172.768912" style="stroke: #000000; stroke-width: 0.8"/>
      </g>
     </g>
     <g id="text_4">
      <!-- 2 -->
      <g transform="translate(327.950254 187.367349) scale(0.1 -0.1)">
       <use xlink:href="#DejaVuSans-32"/>
      </g>
     </g>
    </g>
    <g id="xtick_6">
     <g id="line2d_6">
      <g>
       <use xlink:href="#m17d180252b" x="389.157433" y="172.768912" style="stroke: #000000; stroke-width: 0.8"/>
      </g>
     </g>
     <g id="text_5">
      <!-- 3 -->
      <g transform="translate(385.976183 187.367349) scale(0.1 -0.1)">
       <defs>
        <path id="DejaVuSans-33" d="M 2597 2516 
Q 3050 2419 3304 2112 
Q 3559 1806 3559 1356 
Q 3559 666 3084 287 
Q 2609 -91 1734 -91 
Q 1441 -91 1130 -33 
Q 819 25 488 141 
L 488 750 
Q 750 597 1062 519 
Q 1375 441 1716 441 
Q 2309 441 2620 675 
Q 2931 909 2931 1356 
Q 2931 1769 2642 2001 
Q 2353 2234 1838 2234 
L 1294 2234 
L 1294 2753 
L 1863 2753 
Q 2328 2753 2575 2939 
Q 2822 3125 2822 3475 
Q 2822 3834 2567 4026 
Q 2313 4219 1838 4219 
Q 1578 4219 1281 4162 
Q 984 4106 628 3988 
L 628 4550 
Q 988 4650 1302 4700 
Q 1616 4750 1894 4750 
Q 2613 4750 3031 4423 
Q 3450 4097 3450 3541 
Q 3450 3153 3228 2886 
Q 3006 2619 2597 2516 
z
" transform="scale(0.015625)"/>
       </defs>
       <use xlink:href="#DejaVuSans-33"/>
      </g>
     </g>
    </g>
    <g id="xtick_7">
     <g id="line2d_7">
      <defs>
       <path id="m5eebb8e578" d="M 0 0 
L 0 2 
" style="stroke: #000000; stroke-width: 0.6"/>
      </defs>
      <g>
       <use xlink:href="#m5eebb8e578" x="75.817415" y="172.768912" style="stroke: #000000; stroke-width: 0.6"/>
      </g>
     </g>
    </g>
    <g id="xtick_8">
     <g id="line2d_8">
      <g>
       <use xlink:href="#m5eebb8e578" x="87.422601" y="172.768912" style="stroke: #000000; stroke-width: 0.6"/>
      </g>
     </g>
    </g>
    <g id="xtick_9">
     <g id="line2d_9">
      <g>
       <use xlink:href="#m5eebb8e578" x="110.632973" y="172.768912" style="stroke: #000000; stroke-width: 0.6"/>
      </g>
     </g>
    </g>
    <g id="xtick_10">
     <g id="line2d_10">
      <g>
       <use xlink:href="#m5eebb8e578" x="122.238158" y="172.768912" style="stroke: #000000; stroke-width: 0.6"/>
      </g>
     </g>
    </g>
    <g id="xtick_11">
     <g id="line2d_11">
      <g>
       <use xlink:href="#m5eebb8e578" x="133.843344" y="172.768912" style="stroke: #000000; stroke-width: 0.6"/>
      </g>
     </g>
    </g>
    <g id="xtick_12">
     <g id="line2d_12">
      <g>
       <use xlink:href="#m5eebb8e578" x="145.44853" y="172.768912" style="stroke: #000000; stroke-width: 0.6"/>
      </g>
     </g>
    </g>
    <g id="xtick_13">
     <g id="line2d_13">
      <g>
       <use xlink:href="#m5eebb8e578" x="168.658902" y="172.768912" style="stroke: #000000; stroke-width: 0.6"/>
      </g>
     </g>
    </g>
    <g id="xtick_14">
     <g id="line2d_14">
      <g>
       <use xlink:href="#m5eebb8e578" x="180.264088" y="172.768912" style="stroke: #000000; stroke-width: 0.6"/>
      </g>
     </g>
    </g>
    <g id="xtick_15">
     <g id="line2d_15">
      <g>
       <use xlink:href="#m5eebb8e578" x="191.869274" y="172.768912" style="stroke: #000000; stroke-width: 0.6"/>
      </g>
     </g>
    </g>
    <g id="xtick_16">
     <g id="line2d_16">
      <g>
       <use xlink:href="#m5eebb8e578" x="203.474459" y="172.768912" style="stroke: #000000; stroke-width: 0.6"/>
      </g>
     </g>
    </g>
    <g id="xtick_17">
     <g id="line2d_17">
      <g>
       <use xlink:href="#m5eebb8e578" x="226.684831" y="172.768912" style="stroke: #000000; stroke-width: 0.6"/>
      </g>
     </g>
    </g>
    <g id="xtick_18">
     <g id="line2d_18">
      <g>
       <use xlink:href="#m5eebb8e578" x="238.290017" y="172.768912" style="stroke: #000000; stroke-width: 0.6"/>
      </g>
     </g>
    </g>
    <g id="xtick_19">
     <g id="line2d_19">
      <g>
       <use xlink:href="#m5eebb8e578" x="249.895203" y="172.768912" style="stroke: #000000; stroke-width: 0.6"/>
      </g>
     </g>
    </g>
    <g id="xtick_20">
     <g id="line2d_20">
      <g>
       <use xlink:href="#m5eebb8e578" x="261.500389" y="172.768912" style="stroke: #000000; stroke-width: 0.6"/>
      </g>
     </g>
    </g>
    <g id="xtick_21">
     <g id="line2d_21">
      <g>
       <use xlink:href="#m5eebb8e578" x="284.71076" y="172.768912" style="stroke: #000000; stroke-width: 0.6"/>
      </g>
     </g>
    </g>
    <g id="xtick_22">
     <g id="line2d_22">
      <g>
       <use xlink:href="#m5eebb8e578" x="296.315946" y="172.768912" style="stroke: #000000; stroke-width: 0.6"/>
      </g>
     </g>
    </g>
    <g id="xtick_23">
     <g id="line2d_23">
      <g>
       <use xlink:href="#m5eebb8e578" x="307.921132" y="172.768912" style="stroke: #000000; stroke-width: 0.6"/>
      </g>
     </g>
    </g>
    <g id="xtick_24">
     <g id="line2d_24">
      <g>
       <use xlink:href="#m5eebb8e578" x="319.526318" y="172.768912" style="stroke: #000000; stroke-width: 0.6"/>
      </g>
     </g>
    </g>
    <g id="xtick_25">
     <g id="line2d_25">
      <g>
       <use xlink:href="#m5eebb8e578" x="342.73669" y="172.768912" style="stroke: #000000; stroke-width: 0.6"/>
      </g>
     </g>
    </g>
    <g id="xtick_26">
     <g id="line2d_26">
      <g>
       <use xlink:href="#m5eebb8e578" x="354.341875" y="172.768912" style="stroke: #000000; stroke-width: 0.6"/>
      </g>
     </g>
    </g>
    <g id="xtick_27">
     <g id="line2d_27">
      <g>
       <use xlink:href="#m5eebb8e578" x="365.947061" y="172.768912" style="stroke: #000000; stroke-width: 0.6"/>
      </g>
     </g>
    </g>
    <g id="xtick_28">
     <g id="line2d_28">
      <g>
       <use xlink:href="#m5eebb8e578" x="377.552247" y="172.768912" style="stroke: #000000; stroke-width: 0.6"/>
      </g>
     </g>
    </g>
   </g>
   <g id="matplotlib.axis_2">
    <g id="ytick_1">
     <g id="line2d_29">
      <defs>
       <path id="m96bda0131d" d="M 0 0 
L -3.5 0 
" style="stroke: #000000; stroke-width: 0.8"/>
      </defs>
      <g>
       <use xlink:href="#m96bda0131d" x="215.079645" y="288.82077" style="stroke: #000000; stroke-width: 0.8"/>
      </g>
     </g>
     <g id="text_6">
      <!-- −2 -->
      <g transform="translate(193.337458 292.619989) scale(0.1 -0.1)">
       <use xlink:href="#DejaVuSans-2212"/>
       <use xlink:href="#DejaVuSans-32" transform="translate(83.789062 0)"/>
      </g>
     </g>
    </g>
    <g id="ytick_2">
     <g id="line2d_30">
      <g>
       <use xlink:href="#m96bda0131d" x="215.079645" y="230.794841" style="stroke: #000000; stroke-width: 0.8"/>
      </g>
     </g>
     <g id="text_7">
      <!-- −1 -->
      <g transform="translate(193.337458 234.59406) scale(0.1 -0.1)">
       <use xlink:href="#DejaVuSans-2212"/>
       <use xlink:href="#DejaVuSans-31" transform="translate(83.789062 0)"/>
      </g>
     </g>
    </g>
    <g id="ytick_3">
     <g id="line2d_31">
      <g>
       <use xlink:href="#m96bda0131d" x="215.079645" y="172.768912" style="stroke: #000000; stroke-width: 0.8"/>
      </g>
     </g>
    </g>
    <g id="ytick_4">
     <g id="line2d_32">
      <g>
       <use xlink:href="#m96bda0131d" x="215.079645" y="114.742983" style="stroke: #000000; stroke-width: 0.8"/>
      </g>
     </g>
     <g id="text_8">
      <!-- 1 -->
      <g transform="translate(201.717145 118.542201) scale(0.1 -0.1)">
       <use xlink:href="#DejaVuSans-31"/>
      </g>
     </g>
    </g>
    <g id="ytick_5">
     <g id="line2d_33">
      <g>
       <use xlink:href="#m96bda0131d" x="215.079645" y="56.717053" style="stroke: #000000; stroke-width: 0.8"/>
      </g>
     </g>
     <g id="text_9">
      <!-- 2 -->
      <g transform="translate(201.717145 60.516272) scale(0.1 -0.1)">
       <use xlink:href="#DejaVuSans-32"/>
      </g>
     </g>
    </g>
    <g id="ytick_6">
     <g id="line2d_34">
      <defs>
       <path id="mcaa52fa605" d="M 0 0 
L -2 0 
" style="stroke: #000000; stroke-width: 0.6"/>
      </defs>
      <g>
       <use xlink:href="#mcaa52fa605" x="215.079645" y="335.241514" style="stroke: #000000; stroke-width: 0.6"/>
      </g>
     </g>
    </g>
    <g id="ytick_7">
     <g id="line2d_35">
      <g>
       <use xlink:href="#mcaa52fa605" x="215.079645" y="323.636328" style="stroke: #000000; stroke-width: 0.6"/>
      </g>
     </g>
    </g>
    <g id="ytick_8">
     <g id="line2d_36">
      <g>
       <use xlink:href="#mcaa52fa605" x="215.079645" y="312.031142" style="stroke: #000000; stroke-width: 0.6"/>
      </g>
     </g>
    </g>
    <g id="ytick_9">
     <g id="line2d_37">
      <g>
       <use xlink:href="#mcaa52fa605" x="215.079645" y="300.425956" style="stroke: #000000; stroke-width: 0.6"/>
      </g>
     </g>
    </g>
    <g id="ytick_10">
     <g id="line2d_38">
      <g>
       <use xlink:href="#mcaa52fa605" x="215.079645" y="277.215585" style="stroke: #000000; stroke-width: 0.6"/>
      </g>
     </g>
    </g>
    <g id="ytick_11">
     <g id="line2d_39">
      <g>
       <use xlink:href="#mcaa52fa605" x="215.079645" y="265.610399" style="stroke: #000000; stroke-width: 0.6"/>
      </g>
     </g>
    </g>
    <g id="ytick_12">
     <g id="line2d_40">
      <g>
       <use xlink:href="#mcaa52fa605" x="215.079645" y="254.005213" style="stroke: #000000; stroke-width: 0.6"/>
      </g>
     </g>
    </g>
    <g id="ytick_13">
     <g id="line2d_41">
      <g>
       <use xlink:href="#mcaa52fa605" x="215.079645" y="242.400027" style="stroke: #000000; stroke-width: 0.6"/>
      </g>
     </g>
    </g>
    <g id="ytick_14">
     <g id="line2d_42">
      <g>
       <use xlink:href="#mcaa52fa605" x="215.079645" y="219.189655" style="stroke: #000000; stroke-width: 0.6"/>
      </g>
     </g>
    </g>
    <g id="ytick_15">
     <g id="line2d_43">
      <g>
       <use xlink:href="#mcaa52fa605" x="215.079645" y="207.58447" style="stroke: #000000; stroke-width: 0.6"/>
      </g>
     </g>
    </g>
    <g id="ytick_16">
     <g id="line2d_44">
      <g>
       <use xlink:href="#mcaa52fa605" x="215.079645" y="195.979284" style="stroke: #000000; stroke-width: 0.6"/>
      </g>
     </g>
    </g>
    <g id="ytick_17">
     <g id="line2d_45">
      <g>
       <use xlink:href="#mcaa52fa605" x="215.079645" y="184.374098" style="stroke: #000000; stroke-width: 0.6"/>
      </g>
     </g>
    </g>
    <g id="ytick_18">
     <g id="line2d_46">
      <g>
       <use xlink:href="#mcaa52fa605" x="215.079645" y="161.163726" style="stroke: #000000; stroke-width: 0.6"/>
      </g>
     </g>
    </g>
    <g id="ytick_19">
     <g id="line2d_47">
      <g>
       <use xlink:href="#mcaa52fa605" x="215.079645" y="149.55854" style="stroke: #000000; stroke-width: 0.6"/>
      </g>
     </g>
    </g>
    <g id="ytick_20">
     <g id="line2d_48">
      <g>
       <use xlink:href="#mcaa52fa605" x="215.079645" y="137.953354" style="stroke: #000000; stroke-width: 0.6"/>
      </g>
     </g>
    </g>
    <g id="ytick_21">
     <g id="line2d_49">
      <g>
       <use xlink:href="#mcaa52fa605" x="215.079645" y="126.348169" style="stroke: #000000; stroke-width: 0.6"/>
      </g>
     </g>
    </g>
    <g id="ytick_22">
     <g id="line2d_50">
      <g>
       <use xlink:href="#mcaa52fa605" x="215.079645" y="103.137797" style="stroke: #000000; stroke-width: 0.6"/>
      </g>
     </g>
    </g>
    <g id="ytick_23">
     <g id="line2d_51">
      <g>
       <use xlink:href="#mcaa52fa605" x="215.079645" y="91.532611" style="stroke: #000000; stroke-width: 0.6"/>
      </g>
     </g>
    </g>
    <g id="ytick_24">
     <g id="line2d_52">
      <g>
       <use xlink:href="#mcaa52fa605" x="215.079645" y="79.927425" style="stroke: #000000; stroke-width: 0.6"/>
      </g>
     </g>
    </g>
    <g id="ytick_25">
     <g id="line2d_53">
      <g>
       <use xlink:href="#mcaa52fa605" x="215.079645" y="68.322239" style="stroke: #000000; stroke-width: 0.6"/>
      </g>
     </g>
    </g>
    <g id="ytick_26">
     <g id="line2d_54">
      <g>
       <use xlink:href="#mcaa52fa605" x="215.079645" y="45.111868" style="stroke: #000000; stroke-width: 0.6"/>
      </g>
     </g>
    </g>
    <g id="ytick_27">
     <g id="line2d_55">
      <g>
       <use xlink:href="#mcaa52fa605" x="215.079645" y="33.506682" style="stroke: #000000; stroke-width: 0.6"/>
      </g>
     </g>
    </g>
    <g id="ytick_28">
     <g id="line2d_56">
      <g>
       <use xlink:href="#mcaa52fa605" x="215.079645" y="21.901496" style="stroke: #000000; stroke-width: 0.6"/>
      </g>
     </g>
    </g>
    <g id="ytick_29">
     <g id="line2d_57">
      <g>
       <use xlink:href="#mcaa52fa605" x="215.079645" y="10.29631" style="stroke: #000000; stroke-width: 0.6"/>
      </g>
     </g>
    </g>
   </g>
   <g id="line2d_58">
    <path d="M 389.157433 172.768912 
L 388.964135 170.539974 
L 388.337413 168.203287 
L 387.280288 165.92581 
L 385.824446 163.769628 
L 383.965591 161.728042 
L 382.576801 160.500336 
L 381.032179 159.337038 
L 378.827825 157.949415 
L 376.381383 156.692461 
L 372.797944 155.255578 
L 369.857332 154.358901 
L 366.713058 153.630295 
L 361.025874 152.814953 
L 355.852305 152.548469 
L 350.376798 152.692137 
L 345.790749 153.117235 
L 341.058051 153.827118 
L 336.500686 154.758766 
L 326.515146 157.616597 
L 315.011583 162.273404 
L 306.246609 166.823335 
L 302.806193 168.85735 
L 291.061515 176.941949 
L 283.037718 183.596367 
L 277.217375 189.093413 
L 272.888281 193.602386 
L 268.733997 198.314711 
L 262.504109 206.218126 
L 259.287338 210.77106 
L 256.246675 215.435353 
L 252.852257 221.141935 
L 249.733769 226.964699 
L 247.036695 232.58082 
L 244.605609 238.257717 
L 242.834474 242.888256 
L 241.2444 247.53215 
L 239.762613 252.441139 
L 238.486126 257.337194 
L 237.450926 262.027833 
L 236.606013 266.680325 
L 235.984763 271.002989 
L 235.528582 275.270326 
L 235.141275 281.788675 
L 235.138664 288.109134 
L 235.355429 292.357508 
L 235.951263 298.119969 
L 237.15311 304.946581 
L 238.822087 311.274687 
L 240.160286 315.160902 
L 241.667391 318.79074 
L 243.192523 321.898276 
L 247.213959 328.249783 
L 252.215529 333.63982 
L 254.743384 335.577376 
L 257.798864 337.317318 
L 263.703589 338.925914 
L 265.370202 338.953846 
L 268.602871 338.411122 
L 272.401928 336.551687 
L 274.85108 334.371471 
L 277.138074 331.179722 
L 278.731911 327.674247 
L 279.837098 323.612988 
L 280.252043 320.879979 
L 280.446036 318.292917 
L 280.467404 315.576251 
L 280.30507 312.675276 
L 279.95134 309.66041 
L 279.451894 306.790676 
L 278.78296 303.843023 
L 277.33012 298.91679 
L 275.41644 293.850478 
L 273.098481 288.806587 
L 271.422838 285.621193 
L 269.573959 282.423622 
L 267.552924 279.223359 
L 263.700525 273.768515 
L 261.342664 270.756314 
L 258.836047 267.772625 
L 253.388839 261.921792 
L 249.889565 258.54068 
L 245.600946 254.730795 
L 241.071482 251.052732 
L 235.065625 246.648948 
L 226.86329 241.382893 
L 221.694185 238.453266 
L 216.368964 235.718204 
L 209.636704 232.640028 
L 202.727199 229.890309 
L 197.58274 228.09663 
L 177.830556 223.080322 
L 164.707193 221.306486 
L 156.375338 220.814791 
L 146.455282 220.883933 
L 136.820949 221.660825 
L 129.930563 222.672819 
L 123.691614 223.943073 
L 117.478249 225.571805 
L 111.563107 227.495445 
L 107.434742 229.078664 
L 103.493243 230.797235 
L 98.993851 233.039144 
L 93.570108 236.211968 
L 87.582912 240.482969 
L 85.36219 242.337069 
L 83.301883 244.227641 
L 81.404652 246.14711 
L 79.672753 248.087785 
L 77.928039 250.281633 
L 76.395902 252.48127 
L 74.584596 255.599282 
L 73.207698 258.673991 
L 72.582776 260.507421 
L 72.117013 262.305741 
L 71.813127 264.032626 
L 71.6605 265.711965 
L 71.743995 268.448576 
L 72.144125 270.609498 
L 72.837251 272.616915 
L 73.75415 274.358618 
L 74.915596 275.932242 
L 76.842372 277.757053 
L 78.247514 278.715745 
L 79.799569 279.527037 
L 81.970037 280.334289 
L 84.348519 280.880392 
L 88.260803 281.185249 
L 92.538291 280.846359 
L 97.289021 279.787698 
L 104.660895 276.902011 
L 111.469282 272.975973 
L 120.677831 265.687782 
L 127.903232 258.165504 
L 133.177037 251.448345 
L 135.137276 248.632416 
L 138.639294 243.08375 
L 141.911028 237.174903 
L 144.19211 232.531848 
L 147.631626 224.43514 
L 150.5906 215.92005 
L 151.9955 211.092458 
L 153.710749 204.071249 
L 155.082747 196.89378 
L 155.989538 190.538991 
L 156.621222 184.116524 
L 157.037231 174.986797 
L 157.049342 171.626435 
L 156.804882 164.157362 
L 156.187913 156.731954 
L 155.193362 149.323806 
L 153.833475 142.03626 
L 152.495184 136.337345 
L 150.939258 130.756951 
L 148.357618 123.02997 
L 146.131545 117.381984 
L 142.858053 110.23165 
L 139.245484 103.490822 
L 137.420067 100.440429 
L 131.316842 91.585589 
L 126.947572 86.274041 
L 122.420045 81.506314 
L 118.170168 77.62759 
L 112.37603 73.176034 
L 106.592321 69.627562 
L 102.712324 67.733221 
L 95.417277 65.253609 
L 93.320788 64.819206 
L 88.364397 64.353085 
L 83.888795 64.739145 
L 80.525697 65.702803 
L 78.179854 66.862842 
L 76.288058 68.234045 
L 74.696176 69.866925 
L 73.609689 71.415179 
L 72.753148 73.118716 
L 72.3748 74.142396 
L 71.846377 76.339999 
L 71.642567 78.691185 
L 71.797493 81.385666 
L 72.351022 84.206776 
L 72.974746 86.229722 
L 73.795749 88.290208 
L 75.096315 90.895993 
L 76.704615 93.525394 
L 78.613829 96.152004 
L 80.825305 98.763874 
L 83.807854 101.791553 
L 88.376632 105.677673 
L 92.639428 108.721021 
L 97.342697 111.591839 
L 101.929689 113.997438 
L 106.836927 116.212072 
L 113.912018 118.852572 
L 120.170757 120.718604 
L 125.800701 122.063484 
L 131.633772 123.152186 
L 138.230642 124.03605 
L 145.010065 124.582923 
L 154.335345 124.767577 
L 157.864597 124.671568 
L 174.945662 122.952259 
L 185.818573 120.775672 
L 198.911327 116.998091 
L 205.925829 114.424324 
L 209.623102 112.903607 
L 215.487232 110.246257 
L 221.195775 107.35238 
L 226.722589 104.238456 
L 232.053749 100.916402 
L 236.646347 97.778101 
L 241.054697 94.49812 
L 244.69211 91.571939 
L 248.177535 88.559331 
L 253.058635 83.946609 
L 257.572014 79.194827 
L 260.318126 76.026271 
L 262.89609 72.821517 
L 265.824944 68.853564 
L 268.490639 64.863523 
L 270.561732 61.442227 
L 272.435333 58.029669 
L 274.27931 54.27322 
L 275.879377 50.55755 
L 277.333106 46.612153 
L 278.505861 42.752201 
L 279.284196 39.55388 
L 279.865147 36.442941 
L 280.313114 32.768937 
L 280.470448 28.028583 
L 280.12624 23.652832 
L 279.633155 20.963777 
L 278.490333 17.217429 
L 276.677621 13.587683 
L 274.904364 11.225514 
L 272.862971 9.325549 
L 269.207871 7.325132 
L 266.209629 6.646154 
L 260.360704 7.240429 
L 259.597583 7.487434 
L 254.572582 10.076684 
L 249.134472 14.945208 
L 246.060025 18.888311 
L 242.536384 24.917358 
L 241.237066 27.718795 
L 238.86391 34.1293 
L 237.444784 39.310062 
L 236.338565 44.83867 
L 235.663462 49.778615 
L 235.243446 54.942208 
L 235.092961 60.290724 
L 235.163557 64.422408 
L 235.396064 68.63543 
L 236.163199 75.89567 
L 237.859652 85.463111 
L 239.533529 92.271877 
L 241.605968 99.110438 
L 243.560601 104.607738 
L 245.767978 110.079174 
L 248.320015 115.706518 
L 250.790516 120.617769 
L 253.458606 125.459073 
L 256.303574 130.193355 
L 259.330649 134.830526 
L 263.21397 140.277562 
L 267.335032 145.541797 
L 271.192591 150.060451 
L 275.211977 154.403399 
L 279.627073 158.794435 
L 285.013379 163.673939 
L 290.574062 168.219534 
L 299.185283 174.381406 
L 308.044565 179.720791 
L 320.573709 185.698902 
L 329.15237 188.783256 
L 335.652543 190.579515 
L 343.855237 192.162712 
L 347.991408 192.657807 
L 354.788454 192.994126 
L 362.360367 192.584108 
L 365.920718 192.057793 
L 369.272157 191.331402 
L 371.844535 190.598035 
L 374.261164 189.746123 
L 376.515337 188.783003 
L 378.600791 187.716374 
L 380.772589 186.379284 
L 382.707994 184.929721 
L 384.262369 183.519268 
L 385.937882 181.622876 
L 387.269747 179.630553 
L 388.246509 177.577085 
L 388.872541 175.472718 
L 389.157433 172.768912 
L 389.157433 172.768912 
" clip-path="url(#p2959489070)" style="fill: none; stroke: #0000ff; stroke-linecap: square"/>
   </g>
   <g id="patch_4">
    <path d="M 215.079645 345.6 
L 215.079645 0 
" style="fill: none; stroke: #000000; stroke-width: 0.8; stroke-linejoin: miter; stroke-linecap: square"/>
   </g>
   <g id="patch_5">
    <path d="M 65.29227 172.768912 
L 395.50773 172.768912 
" style="fill: none; stroke: #000000; stroke-width: 0.8; stroke-linejoin: miter; stroke-linecap: square"/>
   </g>
  </g>
 </g>
 <defs>
  <clipPath id="p2959489070">
   <rect x="65.29227" y="0" width="330.215461" height="345.6"/>
  </clipPath>
 </defs>
</svg>
