<?xml version="1.0" encoding="utf-8" standalone="no"?>
<!DOCTYPE svg PUBLIC "-//W3C//DTD SVG 1.1//EN"
  "http://www.w3.org/Graphics/SVG/1.1/DTD/svg11.dtd">
<svg xmlns:xlink="http://www.w3.org/1999/xlink" width="460.8pt" height="345.6pt" viewBox="0 0 460.8 345.6" xmlns="http://www.w3.org/2000/svg" version="1.1">
 <metadata>
  <rdf:RDF xmlns:dc="http://purl.org/dc/elements/1.1/" xmlns:cc="http://creativecommons.org/ns#" xmlns:rdf="http://www.w3.org/1999/02/22-rdf-syntax-ns#">
   <cc:Work>
    <dc:type rdf:resource="http://purl.org/dc/dcmitype/StillImage"/>
    <dc:date>2025-08-02T12:14:52.808037</dc:date>
    <dc:format>image/svg+xml</dc:format>
    <dc:creator>
     <cc:Agent>
      <dc:title>Matplotlib v3.10.3, https://matplotlib.org/</dc:title>
     </cc:Agent>
    </dc:creator>
   </cc:Work>
  </rdf:RDF>
 </metadata>
 <defs>
  <style type="text/css">*{stroke-linejoin: round; stroke-linecap: butt}</style>
 </defs>
 <g id="figure_1">
  <g id="patch_1">
   <path d="M 0 345.6 
L 460.8 345.6 
L 460.8 0 
L 0 0 
z
" style="fill: #ffffff"/>
  </g>
  <g id="axes_1">
   <g id="patch_2">
    <path d="M 65.885033 345.6 
L 394.914967 345.6 
L 394.914967 0 
L 65.885033 0 
z
" style="fill: #ffffff"/>
   </g>
   <g id="matplotlib.axis_1">
    <g id="xtick_1">
     <g id="line2d_1">
      <defs>
       <path id="m0d37caae33" d="M 0 0 
L 0 3.5 
" style="stroke: #000000; stroke-width: 0.8"/>
      </defs>
      <g>
       <use xlink:href="#m0d37caae33" x="147.31562" y="172.793626" style="stroke: #000000; stroke-width: 0.8"/>
      </g>
     </g>
     <g id="text_1">
      <!-- −0.5 -->
      <g transform="translate(135.174214 187.392064) scale(0.1 -0.1)">
       <defs>
        <path id="DejaVuSans-2212" d="M 678 2272 
L 4684 2272 
L 4684 1741 
L 678 1741 
L 678 2272 
z
" transform="scale(0.015625)"/>
        <path id="DejaVuSans-30" d="M 2034 4250 
Q 1547 4250 1301 3770 
Q 1056 3291 1056 2328 
Q 1056 1369 1301 889 
Q 1547 409 2034 409 
Q 2525 409 2770 889 
Q 3016 1369 3016 2328 
Q 3016 3291 2770 3770 
Q 2525 4250 2034 4250 
z
M 2034 4750 
Q 2819 4750 3233 4129 
Q 3647 3509 3647 2328 
Q 3647 1150 3233 529 
Q 2819 -91 2034 -91 
Q 1250 -91 836 529 
Q 422 1150 422 2328 
Q 422 3509 836 4129 
Q 1250 4750 2034 4750 
z
" transform="scale(0.015625)"/>
        <path id="DejaVuSans-2e" d="M 684 794 
L 1344 794 
L 1344 0 
L 684 0 
L 684 794 
z
" transform="scale(0.015625)"/>
        <path id="DejaVuSans-35" d="M 691 4666 
L 3169 4666 
L 3169 4134 
L 1269 4134 
L 1269 2991 
Q 1406 3038 1543 3061 
Q 1681 3084 1819 3084 
Q 2600 3084 3056 2656 
Q 3513 2228 3513 1497 
Q 3513 744 3044 326 
Q 2575 -91 1722 -91 
Q 1428 -91 1123 -41 
Q 819 9 494 109 
L 494 744 
Q 775 591 1075 516 
Q 1375 441 1709 441 
Q 2250 441 2565 725 
Q 2881 1009 2881 1497 
Q 2881 1984 2565 2268 
Q 2250 2553 1709 2553 
Q 1456 2553 1204 2497 
Q 953 2441 691 2322 
L 691 4666 
z
" transform="scale(0.015625)"/>
       </defs>
       <use xlink:href="#DejaVuSans-2212"/>
       <use xlink:href="#DejaVuSans-30" transform="translate(83.789062 0)"/>
       <use xlink:href="#DejaVuSans-2e" transform="translate(147.412109 0)"/>
       <use xlink:href="#DejaVuSans-35" transform="translate(179.199219 0)"/>
      </g>
     </g>
    </g>
    <g id="xtick_2">
     <g id="line2d_2">
      <g>
       <use xlink:href="#m0d37caae33" x="230.396047" y="172.793626" style="stroke: #000000; stroke-width: 0.8"/>
      </g>
     </g>
    </g>
    <g id="xtick_3">
     <g id="line2d_3">
      <g>
       <use xlink:href="#m0d37caae33" x="313.476474" y="172.793626" style="stroke: #000000; stroke-width: 0.8"/>
      </g>
     </g>
     <g id="text_2">
      <!-- 0.5 -->
      <g transform="translate(305.524911 187.392064) scale(0.1 -0.1)">
       <use xlink:href="#DejaVuSans-30"/>
       <use xlink:href="#DejaVuSans-2e" transform="translate(63.623047 0)"/>
       <use xlink:href="#DejaVuSans-35" transform="translate(95.410156 0)"/>
      </g>
     </g>
    </g>
    <g id="xtick_4">
     <g id="line2d_4">
      <defs>
       <path id="mb52cd5b4cd" d="M 0 0 
L 0 2 
" style="stroke: #000000; stroke-width: 0.6"/>
      </defs>
      <g>
       <use xlink:href="#mb52cd5b4cd" x="80.851278" y="172.793626" style="stroke: #000000; stroke-width: 0.6"/>
      </g>
     </g>
    </g>
    <g id="xtick_5">
     <g id="line2d_5">
      <g>
       <use xlink:href="#mb52cd5b4cd" x="97.467364" y="172.793626" style="stroke: #000000; stroke-width: 0.6"/>
      </g>
     </g>
    </g>
    <g id="xtick_6">
     <g id="line2d_6">
      <g>
       <use xlink:href="#mb52cd5b4cd" x="114.083449" y="172.793626" style="stroke: #000000; stroke-width: 0.6"/>
      </g>
     </g>
    </g>
    <g id="xtick_7">
     <g id="line2d_7">
      <g>
       <use xlink:href="#mb52cd5b4cd" x="130.699535" y="172.793626" style="stroke: #000000; stroke-width: 0.6"/>
      </g>
     </g>
    </g>
    <g id="xtick_8">
     <g id="line2d_8">
      <g>
       <use xlink:href="#mb52cd5b4cd" x="163.931705" y="172.793626" style="stroke: #000000; stroke-width: 0.6"/>
      </g>
     </g>
    </g>
    <g id="xtick_9">
     <g id="line2d_9">
      <g>
       <use xlink:href="#mb52cd5b4cd" x="180.547791" y="172.793626" style="stroke: #000000; stroke-width: 0.6"/>
      </g>
     </g>
    </g>
    <g id="xtick_10">
     <g id="line2d_10">
      <g>
       <use xlink:href="#mb52cd5b4cd" x="197.163876" y="172.793626" style="stroke: #000000; stroke-width: 0.6"/>
      </g>
     </g>
    </g>
    <g id="xtick_11">
     <g id="line2d_11">
      <g>
       <use xlink:href="#mb52cd5b4cd" x="213.779962" y="172.793626" style="stroke: #000000; stroke-width: 0.6"/>
      </g>
     </g>
    </g>
    <g id="xtick_12">
     <g id="line2d_12">
      <g>
       <use xlink:href="#mb52cd5b4cd" x="247.012132" y="172.793626" style="stroke: #000000; stroke-width: 0.6"/>
      </g>
     </g>
    </g>
    <g id="xtick_13">
     <g id="line2d_13">
      <g>
       <use xlink:href="#mb52cd5b4cd" x="263.628218" y="172.793626" style="stroke: #000000; stroke-width: 0.6"/>
      </g>
     </g>
    </g>
    <g id="xtick_14">
     <g id="line2d_14">
      <g>
       <use xlink:href="#mb52cd5b4cd" x="280.244303" y="172.793626" style="stroke: #000000; stroke-width: 0.6"/>
      </g>
     </g>
    </g>
    <g id="xtick_15">
     <g id="line2d_15">
      <g>
       <use xlink:href="#mb52cd5b4cd" x="296.860389" y="172.793626" style="stroke: #000000; stroke-width: 0.6"/>
      </g>
     </g>
    </g>
    <g id="xtick_16">
     <g id="line2d_16">
      <g>
       <use xlink:href="#mb52cd5b4cd" x="330.092559" y="172.793626" style="stroke: #000000; stroke-width: 0.6"/>
      </g>
     </g>
    </g>
    <g id="xtick_17">
     <g id="line2d_17">
      <g>
       <use xlink:href="#mb52cd5b4cd" x="346.708645" y="172.793626" style="stroke: #000000; stroke-width: 0.6"/>
      </g>
     </g>
    </g>
    <g id="xtick_18">
     <g id="line2d_18">
      <g>
       <use xlink:href="#mb52cd5b4cd" x="363.32473" y="172.793626" style="stroke: #000000; stroke-width: 0.6"/>
      </g>
     </g>
    </g>
    <g id="xtick_19">
     <g id="line2d_19">
      <g>
       <use xlink:href="#mb52cd5b4cd" x="379.940816" y="172.793626" style="stroke: #000000; stroke-width: 0.6"/>
      </g>
     </g>
    </g>
   </g>
   <g id="matplotlib.axis_2">
    <g id="ytick_1">
     <g id="line2d_20">
      <defs>
       <path id="mda6ccc25dc" d="M 0 0 
L -3.5 0 
" style="stroke: #000000; stroke-width: 0.8"/>
      </defs>
      <g>
       <use xlink:href="#mda6ccc25dc" x="230.396047" y="338.95448" style="stroke: #000000; stroke-width: 0.8"/>
      </g>
     </g>
     <g id="text_3">
      <!-- −1.0 -->
      <g transform="translate(199.113234 342.753699) scale(0.1 -0.1)">
       <defs>
        <path id="DejaVuSans-31" d="M 794 531 
L 1825 531 
L 1825 4091 
L 703 3866 
L 703 4441 
L 1819 4666 
L 2450 4666 
L 2450 531 
L 3481 531 
L 3481 0 
L 794 0 
L 794 531 
z
" transform="scale(0.015625)"/>
       </defs>
       <use xlink:href="#DejaVuSans-2212"/>
       <use xlink:href="#DejaVuSans-31" transform="translate(83.789062 0)"/>
       <use xlink:href="#DejaVuSans-2e" transform="translate(147.412109 0)"/>
       <use xlink:href="#DejaVuSans-30" transform="translate(179.199219 0)"/>
      </g>
     </g>
    </g>
    <g id="ytick_2">
     <g id="line2d_21">
      <g>
       <use xlink:href="#mda6ccc25dc" x="230.396047" y="255.874053" style="stroke: #000000; stroke-width: 0.8"/>
      </g>
     </g>
     <g id="text_4">
      <!-- −0.5 -->
      <g transform="translate(199.113234 259.673272) scale(0.1 -0.1)">
       <use xlink:href="#DejaVuSans-2212"/>
       <use xlink:href="#DejaVuSans-30" transform="translate(83.789062 0)"/>
       <use xlink:href="#DejaVuSans-2e" transform="translate(147.412109 0)"/>
       <use xlink:href="#DejaVuSans-35" transform="translate(179.199219 0)"/>
      </g>
     </g>
    </g>
    <g id="ytick_3">
     <g id="line2d_22">
      <g>
       <use xlink:href="#mda6ccc25dc" x="230.396047" y="172.793626" style="stroke: #000000; stroke-width: 0.8"/>
      </g>
     </g>
    </g>
    <g id="ytick_4">
     <g id="line2d_23">
      <g>
       <use xlink:href="#mda6ccc25dc" x="230.396047" y="89.713199" style="stroke: #000000; stroke-width: 0.8"/>
      </g>
     </g>
     <g id="text_5">
      <!-- 0.5 -->
      <g transform="translate(207.492922 93.512418) scale(0.1 -0.1)">
       <use xlink:href="#DejaVuSans-30"/>
       <use xlink:href="#DejaVuSans-2e" transform="translate(63.623047 0)"/>
       <use xlink:href="#DejaVuSans-35" transform="translate(95.410156 0)"/>
      </g>
     </g>
    </g>
    <g id="ytick_5">
     <g id="line2d_24">
      <g>
       <use xlink:href="#mda6ccc25dc" x="230.396047" y="6.632772" style="stroke: #000000; stroke-width: 0.8"/>
      </g>
     </g>
     <g id="text_6">
      <!-- 1.0 -->
      <g transform="translate(207.492922 10.431991) scale(0.1 -0.1)">
       <use xlink:href="#DejaVuSans-31"/>
       <use xlink:href="#DejaVuSans-2e" transform="translate(63.623047 0)"/>
       <use xlink:href="#DejaVuSans-30" transform="translate(95.410156 0)"/>
      </g>
     </g>
    </g>
    <g id="ytick_6">
     <g id="line2d_25">
      <defs>
       <path id="mdd37a9e158" d="M 0 0 
L -2 0 
" style="stroke: #000000; stroke-width: 0.6"/>
      </defs>
      <g>
       <use xlink:href="#mdd37a9e158" x="230.396047" y="322.338395" style="stroke: #000000; stroke-width: 0.6"/>
      </g>
     </g>
    </g>
    <g id="ytick_7">
     <g id="line2d_26">
      <g>
       <use xlink:href="#mdd37a9e158" x="230.396047" y="305.722309" style="stroke: #000000; stroke-width: 0.6"/>
      </g>
     </g>
    </g>
    <g id="ytick_8">
     <g id="line2d_27">
      <g>
       <use xlink:href="#mdd37a9e158" x="230.396047" y="289.106224" style="stroke: #000000; stroke-width: 0.6"/>
      </g>
     </g>
    </g>
    <g id="ytick_9">
     <g id="line2d_28">
      <g>
       <use xlink:href="#mdd37a9e158" x="230.396047" y="272.490138" style="stroke: #000000; stroke-width: 0.6"/>
      </g>
     </g>
    </g>
    <g id="ytick_10">
     <g id="line2d_29">
      <g>
       <use xlink:href="#mdd37a9e158" x="230.396047" y="239.257968" style="stroke: #000000; stroke-width: 0.6"/>
      </g>
     </g>
    </g>
    <g id="ytick_11">
     <g id="line2d_30">
      <g>
       <use xlink:href="#mdd37a9e158" x="230.396047" y="222.641882" style="stroke: #000000; stroke-width: 0.6"/>
      </g>
     </g>
    </g>
    <g id="ytick_12">
     <g id="line2d_31">
      <g>
       <use xlink:href="#mdd37a9e158" x="230.396047" y="206.025797" style="stroke: #000000; stroke-width: 0.6"/>
      </g>
     </g>
    </g>
    <g id="ytick_13">
     <g id="line2d_32">
      <g>
       <use xlink:href="#mdd37a9e158" x="230.396047" y="189.409711" style="stroke: #000000; stroke-width: 0.6"/>
      </g>
     </g>
    </g>
    <g id="ytick_14">
     <g id="line2d_33">
      <g>
       <use xlink:href="#mdd37a9e158" x="230.396047" y="156.177541" style="stroke: #000000; stroke-width: 0.6"/>
      </g>
     </g>
    </g>
    <g id="ytick_15">
     <g id="line2d_34">
      <g>
       <use xlink:href="#mdd37a9e158" x="230.396047" y="139.561455" style="stroke: #000000; stroke-width: 0.6"/>
      </g>
     </g>
    </g>
    <g id="ytick_16">
     <g id="line2d_35">
      <g>
       <use xlink:href="#mdd37a9e158" x="230.396047" y="122.94537" style="stroke: #000000; stroke-width: 0.6"/>
      </g>
     </g>
    </g>
    <g id="ytick_17">
     <g id="line2d_36">
      <g>
       <use xlink:href="#mdd37a9e158" x="230.396047" y="106.329284" style="stroke: #000000; stroke-width: 0.6"/>
      </g>
     </g>
    </g>
    <g id="ytick_18">
     <g id="line2d_37">
      <g>
       <use xlink:href="#mdd37a9e158" x="230.396047" y="73.097114" style="stroke: #000000; stroke-width: 0.6"/>
      </g>
     </g>
    </g>
    <g id="ytick_19">
     <g id="line2d_38">
      <g>
       <use xlink:href="#mdd37a9e158" x="230.396047" y="56.481028" style="stroke: #000000; stroke-width: 0.6"/>
      </g>
     </g>
    </g>
    <g id="ytick_20">
     <g id="line2d_39">
      <g>
       <use xlink:href="#mdd37a9e158" x="230.396047" y="39.864943" style="stroke: #000000; stroke-width: 0.6"/>
      </g>
     </g>
    </g>
    <g id="ytick_21">
     <g id="line2d_40">
      <g>
       <use xlink:href="#mdd37a9e158" x="230.396047" y="23.248857" style="stroke: #000000; stroke-width: 0.6"/>
      </g>
     </g>
    </g>
   </g>
   <g id="line2d_41">
    <path d="M 230.396047 172.793626 
L 233.344188 172.71482 
L 239.741257 172.345507 
L 246.500444 171.771522 
L 256.672792 170.635658 
L 264.609349 169.553388 
L 273.356587 168.178256 
L 282.700576 166.506984 
L 287.547916 165.558916 
L 297.492234 163.439921 
L 319.667552 157.833069 
L 326.746391 155.763569 
L 333.679927 153.588323 
L 347.033817 148.9237 
L 354.553138 145.965355 
L 360.860308 143.249455 
L 366.643548 140.520471 
L 371.845158 137.807907 
L 376.473337 135.105045 
L 380.453158 132.446876 
L 383.674574 129.905201 
L 386.105054 127.513342 
L 387.574823 125.551019 
L 388.326576 123.979697 
L 388.587468 122.544958 
L 388.533558 121.882756 
L 388.356983 121.25933 
L 388.058164 120.676104 
L 387.426781 119.921286 
L 386.553707 119.253508 
L 385.442106 118.676111 
L 384.095891 118.19213 
L 381.313301 117.595776 
L 377.906131 117.282296 
L 373.906505 117.259433 
L 369.351671 117.531821 
L 365.179393 117.983241 
L 360.679761 118.638147 
L 355.880941 119.493991 
L 346.725841 121.492586 
L 338.184911 123.713799 
L 333.762149 124.980647 
L 324.692245 127.801741 
L 310.551489 132.742899 
L 295.702637 138.584454 
L 288.455323 141.668847 
L 281.411826 144.812758 
L 269.681507 150.376356 
L 259.080699 155.777717 
L 252.775533 159.175441 
L 245.176416 163.480181 
L 237.37291 168.191845 
L 231.722488 171.869395 
L 230.397011 172.792925 
L 231.52215 171.943273 
L 236.146488 168.231536 
L 241.598423 163.579782 
L 248.849651 157.036455 
L 255.403198 150.809973 
L 263.132677 143.10005 
L 268.550157 137.458385 
L 274.096005 131.472557 
L 281.875307 122.693752 
L 289.573558 113.519512 
L 295.510238 106.063883 
L 301.191676 98.561611 
L 309.056709 87.429425 
L 313.714911 80.291459 
L 317.054485 74.826253 
L 321.409675 67.062332 
L 323.843247 62.239761 
L 325.803468 57.925645 
L 327.325004 54.113593 
L 328.490634 50.641482 
L 329.294697 47.535715 
L 329.560145 46.127819 
L 329.822868 42.90038 
L 329.64686 41.159767 
L 329.193511 39.76131 
L 328.864291 39.193399 
L 328.180295 38.456056 
L 327.319584 37.960602 
L 326.286648 37.709822 
L 325.086603 37.705596 
L 323.725159 37.948887 
L 322.208593 38.439726 
L 320.54371 39.17721 
L 318.737817 40.159499 
L 315.362293 42.385829 
L 311.641994 45.292888 
L 307.70089 48.778556 
L 303.51413 52.859484 
L 299.127031 57.496065 
L 294.585976 62.642436 
L 288.179608 70.451574 
L 281.692081 78.975015 
L 276.484787 86.251773 
L 271.360996 93.791241 
L 259.658702 112.49175 
L 251.831148 126.285103 
L 247.193214 135.036178 
L 242.251148 144.937137 
L 238.583295 152.762235 
L 235.604802 159.508046 
L 232.789031 166.341324 
L 230.410719 172.748982 
L 230.39611 172.79343 
L 231.150921 170.253181 
L 232.560548 164.959198 
L 234.453506 156.921859 
L 236.432734 147.297748 
L 238.119552 137.873578 
L 239.237 130.811468 
L 240.292793 123.321 
L 241.259919 115.477803 
L 242.113819 107.361686 
L 243.552673 87.767892 
L 243.88048 79.610754 
L 244.035229 71.545255 
L 244.031085 65.336292 
L 243.914559 59.26992 
L 243.68506 53.382915 
L 243.343213 47.711032 
L 242.890837 42.288777 
L 242.330915 37.149188 
L 241.667552 32.323623 
L 240.905922 27.841557 
L 240.156371 24.190257 
L 239.412974 21.122528 
L 238.617784 18.323123 
L 237.775249 15.803215 
L 236.890129 13.572866 
L 235.967464 11.640987 
L 235.012539 10.015299 
L 234.03085 8.702301 
L 233.028069 7.707245 
L 231.865253 6.965124 
L 230.691319 6.646154 
L 229.515151 6.751998 
L 228.34565 7.282104 
L 227.680595 7.777235 
L 226.372446 9.180859 
L 225.104374 11.127203 
L 223.888933 13.602903 
L 222.759316 16.529436 
L 221.722225 19.859367 
L 221.232852 21.688668 
L 220.317868 25.66144 
L 219.494464 30.031852 
L 218.373582 37.874735 
L 217.833258 43.011166 
L 217.399095 48.421066 
L 217.07385 54.072048 
L 216.859155 59.930331 
L 216.755482 65.960955 
L 216.762131 72.127996 
L 217.097664 84.724182 
L 218.347494 103.76356 
L 219.940813 118.931745 
L 221.355563 129.464525 
L 223.050266 140.099867 
L 224.906459 150.096513 
L 226.790112 158.936155 
L 228.527752 166.121685 
L 230.314457 172.535442 
L 230.394938 172.790202 
L 229.59233 170.509652 
L 227.527467 165.146444 
L 224.210908 157.25094 
L 221.262163 150.697233 
L 218.069537 143.963427 
L 213.439005 134.726411 
L 208.136269 124.777104 
L 202.236465 114.368362 
L 195.835962 103.761107 
L 189.188745 93.426036 
L 180.231296 80.523052 
L 175.108899 73.659616 
L 167.484606 64.150952 
L 162.5277 58.447534 
L 160.109471 55.81258 
L 156.801698 52.377488 
L 153.612967 49.267171 
L 150.56328 46.499126 
L 147.672116 44.088642 
L 145.507296 42.441969 
L 143.462714 41.03319 
L 141.547001 39.866782 
L 139.768383 38.94627 
L 138.000127 38.227741 
L 136.412282 37.804597 
L 135.01346 37.677505 
L 133.81149 37.845798 
L 132.813368 38.307491 
L 132.025213 39.059294 
L 131.452221 40.096646 
L 131.098631 41.413738 
L 130.971465 42.802305 
L 131.019151 44.39756 
L 131.242627 46.193252 
L 131.642189 48.18248 
L 132.364781 50.851368 
L 133.34526 53.78059 
L 134.580235 56.954244 
L 137.453478 63.27942 
L 140.697728 69.50299 
L 144.530442 76.155438 
L 148.902328 83.147132 
L 151.272618 86.741328 
L 155.17922 92.42621 
L 159.324811 98.187328 
L 168.189874 109.760953 
L 173.08514 115.792219 
L 183.653846 128.094488 
L 188.944478 133.925625 
L 197.669412 143.110275 
L 204.417115 149.862353 
L 210.568859 155.75533 
L 218.471365 162.945257 
L 224.510221 168.119215 
L 229.399452 172.042794 
L 230.385675 172.786118 
L 228.916571 171.76519 
L 223.402036 168.181093 
L 216.972118 164.27575 
L 209.003779 159.721069 
L 200.038008 154.900042 
L 190.673439 150.161454 
L 180.45696 145.306173 
L 172.710992 141.832244 
L 164.712815 138.428315 
L 148.305816 132.02999 
L 139.063105 128.784371 
L 125.513405 124.537835 
L 116.87731 122.188888 
L 109.61306 120.46589 
L 104.628512 119.43957 
L 99.907883 118.605087 
L 95.479765 117.966367 
L 91.371149 117.525798 
L 85.622178 117.23541 
L 83.094385 117.273286 
L 80.811008 117.431606 
L 78.780932 117.708495 
L 77.012128 118.101566 
L 75.511624 118.60793 
L 74.28547 119.224227 
L 73.497937 119.800496 
L 72.895369 120.443966 
L 72.479499 121.152243 
L 72.251612 121.922768 
L 72.212532 122.752828 
L 72.362627 123.639571 
L 72.701802 124.580011 
L 73.816398 126.438463 
L 75.381884 128.265373 
L 77.461322 130.201607 
L 80.041626 132.230606 
L 81.514556 133.274617 
L 84.442221 135.181748 
L 87.733978 137.130434 
L 91.372459 139.108462 
L 97.983582 142.358726 
L 100.743757 143.612943 
L 106.585304 146.107827 
L 112.813422 148.566602 
L 119.37506 150.968724 
L 125.93875 153.204648 
L 132.706461 155.355257 
L 148.501725 159.839808 
L 158.935478 162.434888 
L 174.289285 165.768001 
L 184.065802 167.599361 
L 194.545074 169.310168 
L 205.154396 170.764638 
L 216.512187 171.977686 
L 224.858548 172.590146 
L 230.36774 172.793552 
L 228.22504 172.843382 
L 222.664678 173.130184 
L 215.54372 173.697483 
L 207.855964 174.499808 
L 197.052528 175.907405 
L 189.009439 177.147884 
L 180.427949 178.643043 
L 175.973752 179.48767 
L 166.88841 181.355483 
L 153.941272 184.360071 
L 140.930465 187.808994 
L 129.119405 191.353301 
L 117.832806 195.167284 
L 109.327728 198.373386 
L 101.456657 201.658752 
L 94.336293 204.973918 
L 88.071565 208.266296 
L 82.850165 211.418333 
L 79.911181 213.452501 
L 77.427112 215.414803 
L 75.426953 217.275457 
L 73.911151 219.022001 
L 73.330957 219.853804 
L 72.776837 220.845173 
L 72.40824 221.787239 
L 72.225787 222.676949 
L 72.229652 223.511364 
L 72.419559 224.287671 
L 72.794788 225.003193 
L 73.354175 225.655397 
L 74.096116 226.241908 
L 75.715621 227.060926 
L 77.815652 227.685897 
L 80.381408 228.109335 
L 83.395118 228.325249 
L 87.850011 228.292956 
L 92.949291 227.911703 
L 97.797288 227.305658 
L 103.040803 226.444365 
L 108.638597 225.332707 
L 114.546953 223.978144 
L 124.180307 221.431468 
L 134.268586 218.378141 
L 144.628765 214.880554 
L 155.075085 211.013793 
L 165.066682 207.012252 
L 173.967166 203.203545 
L 186.662597 197.369779 
L 194.528509 193.509737 
L 203.994205 188.59627 
L 212.197551 184.07394 
L 219.775453 179.637769 
L 225.772498 175.899361 
L 230.390385 172.797729 
L 228.89104 173.937003 
L 224.335207 177.613499 
L 218.907359 182.258508 
L 211.808262 188.675379 
L 205.452483 194.71549 
L 198.543382 201.58542 
L 193.236969 207.077682 
L 187.793407 212.912936 
L 182.281318 219.039582 
L 176.768998 225.401555 
L 168.699996 235.186868 
L 161.003165 245.136257 
L 153.86561 255.042407 
L 150.563411 259.908798 
L 147.466469 264.679687 
L 144.59349 269.327026 
L 140.024418 277.321469 
L 136.678294 283.915163 
L 134.16508 289.655422 
L 132.426608 294.534092 
L 131.808274 296.724318 
L 131.352891 298.769877 
L 131.072758 300.625136 
L 130.96779 302.283033 
L 131.037264 303.737145 
L 131.279827 304.981713 
L 131.693509 306.011672 
L 132.275734 306.822669 
L 133.023343 307.411086 
L 134.00848 307.79243 
L 135.220978 307.90936 
L 136.621985 307.741529 
L 138.203987 307.288494 
L 139.958748 306.55105 
L 141.877362 305.531236 
L 143.950305 304.232335 
L 146.167488 302.658869 
L 150.056501 299.526588 
L 151.640143 298.135452 
L 154.932288 295.058506 
L 158.371293 291.604988 
L 164.111853 285.360072 
L 166.320517 282.810876 
L 170.806542 277.399541 
L 175.349145 271.61414 
L 179.90682 265.510075 
L 184.733388 258.722945 
L 196.130036 241.353316 
L 201.461182 232.540026 
L 206.455992 223.840968 
L 212.9702 211.765675 
L 218.566816 200.596485 
L 222.066231 193.138223 
L 225.867416 184.476567 
L 229.114242 176.365996 
L 230.394742 172.797629 
L 229.872571 174.527296 
L 228.390482 180.001097 
L 226.51158 187.886231 
L 224.801292 196.019989 
L 223.221672 204.500796 
L 221.67557 213.976233 
L 220.238974 224.269274 
L 218.845792 236.515503 
L 218.201964 243.517914 
L 217.063794 261.673174 
L 216.799532 270.713733 
L 216.755143 279.583062 
L 216.857155 285.581805 
L 217.068962 291.410555 
L 217.390118 297.034911 
L 218.18312 306.043873 
L 218.597761 309.522681 
L 219.76797 317.107752 
L 220.687701 321.627791 
L 221.708703 325.679754 
L 222.990128 329.710404 
L 224.556576 333.423404 
L 225.3801 334.935584 
L 226.225734 336.211853 
L 227.089768 337.248328 
L 227.968401 338.041857 
L 228.857759 338.590024 
L 229.593571 338.855557 
L 230.331777 338.953846 
L 231.070174 338.88469 
L 231.806561 338.64823 
L 232.53874 338.244953 
L 233.264531 337.675686 
L 233.981771 336.941598 
L 234.688329 336.044197 
L 235.551313 334.699078 
L 236.390457 333.107158 
L 237.201913 331.273518 
L 237.981979 329.204006 
L 238.907205 326.296726 
L 239.771416 323.045997 
L 240.568618 319.467981 
L 241.727209 312.870596 
L 242.490257 307.099328 
L 242.817401 304.050237 
L 243.358762 297.657628 
L 243.926398 285.897909 
L 244.02582 280.750333 
L 243.9826 270.163445 
L 243.20218 251.737465 
L 242.508458 242.557724 
L 241.037523 228.201395 
L 239.695269 217.914014 
L 238.03138 207.187366 
L 236.106565 196.607306 
L 234.254581 187.770231 
L 232.264893 179.467704 
L 230.479861 173.058949 
L 230.398593 172.801425 
L 231.376148 175.557241 
L 233.746067 181.631395 
L 236.52647 188.211095 
L 240.69807 197.393046 
L 244.283189 204.801122 
L 248.463504 212.995707 
L 253.248705 221.88587 
L 258.494829 231.114843 
L 264.134336 240.501402 
L 270.087856 249.863286 
L 274.678948 256.721534 
L 279.510958 263.61131 
L 284.385823 270.224829 
L 289.25429 276.488665 
L 296.363686 284.999517 
L 300.859454 289.96336 
L 305.279024 294.491653 
L 309.559002 298.49885 
L 313.546751 301.834717 
L 317.193153 304.465124 
L 320.161719 306.216654 
L 322.524593 307.265684 
L 324.586329 307.818129 
L 325.498308 307.907521 
L 326.328122 307.872505 
L 327.073769 307.713486 
L 327.843146 307.367061 
L 328.489909 306.850191 
L 329.011611 306.164774 
L 329.406132 305.313141 
L 329.671686 304.298044 
L 329.806827 303.122649 
L 329.810464 301.790525 
L 329.43845 298.765885 
L 328.547633 295.137666 
L 327.072102 290.798405 
L 325.049783 285.942705 
L 322.498591 280.626403 
L 319.295526 274.646337 
L 315.408139 268.024088 
L 311.009916 261.091773 
L 308.636729 257.536955 
L 303.581364 250.306066 
L 296.887664 241.3068 
L 285.164661 226.750374 
L 279.114053 219.724051 
L 268.742399 208.332744 
L 260.380188 199.696341 
L 251.974826 191.484128 
L 245.464684 185.449276 
L 239.208231 179.93705 
L 233.270321 175.015165 
L 230.397581 172.794742 
L 231.748036 173.73528 
L 235.626391 176.289221 
L 242.502243 180.529881 
L 249.03118 184.321477 
L 257.967556 189.220253 
L 265.145396 192.945028 
L 272.933606 196.795349 
L 281.233788 200.693141 
L 289.355956 204.309985 
L 297.737776 207.84158 
L 316.057239 214.842961 
L 325.182203 217.945178 
L 338.223894 221.884282 
L 346.178016 223.961788 
L 349.998586 224.858761 
L 355.28866 225.977687 
L 360.293212 226.885797 
L 364.978812 227.578263 
L 371.635058 228.225032 
L 375.880262 228.353554 
L 379.564544 228.195087 
L 382.654166 227.755543 
L 384.911056 227.123718 
L 386.48262 226.37775 
L 387.623576 225.468039 
L 388.326422 224.402776 
L 388.511891 223.81463 
L 388.57898 222.825565 
L 388.374067 221.755043 
L 387.897402 220.608234 
L 387.150193 219.390551 
L 386.082918 218.048762 
L 384.726279 216.642383 
L 383.084973 215.178223 
L 381.1648 213.663235 
L 378.972649 212.104477 
L 376.51647 210.509073 
L 370.848971 207.236924 
L 364.675131 204.108326 
L 357.757773 200.971847 
L 352.878492 198.938903 
L 347.748252 196.9332 
L 342.396286 194.965877 
L 336.85318 193.047418 
L 330.758504 191.063631 
L 324.52198 189.157527 
L 311.787808 185.616048 
L 303.025298 183.429412 
L 294.338731 181.449836 
L 285.835318 179.687059 
L 274.761725 177.647108 
L 264.382723 176.000732 
L 255.044976 174.750066 
L 246.966412 173.861025 
L 238.22358 173.136522 
L 231.242863 172.805728 
L 230.396047 172.793626 
L 230.396047 172.793626 
" clip-path="url(#p8d9cbfdf6f)" style="fill: none; stroke: #0000ff; stroke-linecap: square"/>
   </g>
   <g id="patch_3">
    <path d="M 230.396047 345.6 
L 230.396047 0 
" style="fill: none; stroke: #000000; stroke-width: 0.8; stroke-linejoin: miter; stroke-linecap: square"/>
   </g>
   <g id="patch_4">
    <path d="M 65.885033 172.793626 
L 394.914967 172.793626 
" style="fill: none; stroke: #000000; stroke-width: 0.8; stroke-linejoin: miter; stroke-linecap: square"/>
   </g>
  </g>
 </g>
 <defs>
  <clipPath id="p8d9cbfdf6f">
   <rect x="65.885033" y="0" width="329.029934" height="345.6"/>
  </clipPath>
 </defs>
</svg>
