<?xml version="1.0" encoding="utf-8" standalone="no"?>
<!DOCTYPE svg PUBLIC "-//W3C//DTD SVG 1.1//EN"
  "http://www.w3.org/Graphics/SVG/1.1/DTD/svg11.dtd">
<svg xmlns:xlink="http://www.w3.org/1999/xlink" width="460.8pt" height="345.6pt" viewBox="0 0 460.8 345.6" xmlns="http://www.w3.org/2000/svg" version="1.1">
 <metadata>
  <rdf:RDF xmlns:dc="http://purl.org/dc/elements/1.1/" xmlns:cc="http://creativecommons.org/ns#" xmlns:rdf="http://www.w3.org/1999/02/22-rdf-syntax-ns#">
   <cc:Work>
    <dc:type rdf:resource="http://purl.org/dc/dcmitype/StillImage"/>
    <dc:date>2025-08-04T20:47:46.976788</dc:date>
    <dc:format>image/svg+xml</dc:format>
    <dc:creator>
     <cc:Agent>
      <dc:title>Matplotlib v3.10.3, https://matplotlib.org/</dc:title>
     </cc:Agent>
    </dc:creator>
   </cc:Work>
  </rdf:RDF>
 </metadata>
 <defs>
  <style type="text/css">*{stroke-linejoin: round; stroke-linecap: butt}</style>
 </defs>
 <g id="figure_1">
  <g id="patch_1">
   <path d="M 0 345.6 
L 460.8 345.6 
L 460.8 0 
L 0 0 
z
" style="fill: #ffffff"/>
  </g>
  <g id="axes_1">
   <g id="patch_2">
    <path d="M 29.78 334.520722 
L 460.8 334.520722 
L 460.8 0 
L 29.78 0 
z
" style="fill: #ffffff"/>
   </g>
   <g id="matplotlib.axis_1">
    <g id="xtick_1">
     <g id="line2d_1">
      <defs>
       <path id="m2fdb4538dd" d="M 0 0 
L 0 3.5 
" style="stroke: #000000; stroke-width: 0.8"/>
      </defs>
      <g>
       <use xlink:href="#m2fdb4538dd" x="84.439692" y="328.087631" style="stroke: #000000; stroke-width: 0.8"/>
      </g>
     </g>
     <g id="text_1">
      <!-- 2 -->
      <g transform="translate(81.258442 342.686069) scale(0.1 -0.1)">
       <defs>
        <path id="DejaVuSans-32" d="M 1228 531 
L 3431 531 
L 3431 0 
L 469 0 
L 469 531 
Q 828 903 1448 1529 
Q 2069 2156 2228 2338 
Q 2531 2678 2651 2914 
Q 2772 3150 2772 3378 
Q 2772 3750 2511 3984 
Q 2250 4219 1831 4219 
Q 1534 4219 1204 4116 
Q 875 4013 500 3803 
L 500 4441 
Q 881 4594 1212 4672 
Q 1544 4750 1819 4750 
Q 2544 4750 2975 4387 
Q 3406 4025 3406 3419 
Q 3406 3131 3298 2873 
Q 3191 2616 2906 2266 
Q 2828 2175 2409 1742 
Q 1991 1309 1228 531 
z
" transform="scale(0.015625)"/>
       </defs>
       <use xlink:href="#DejaVuSans-32"/>
      </g>
     </g>
    </g>
    <g id="xtick_2">
     <g id="line2d_2">
      <g>
       <use xlink:href="#m2fdb4538dd" x="176.354154" y="328.087631" style="stroke: #000000; stroke-width: 0.8"/>
      </g>
     </g>
     <g id="text_2">
      <!-- 4 -->
      <g transform="translate(173.172904 342.686069) scale(0.1 -0.1)">
       <defs>
        <path id="DejaVuSans-34" d="M 2419 4116 
L 825 1625 
L 2419 1625 
L 2419 4116 
z
M 2253 4666 
L 3047 4666 
L 3047 1625 
L 3713 1625 
L 3713 1100 
L 3047 1100 
L 3047 0 
L 2419 0 
L 2419 1100 
L 313 1100 
L 313 1709 
L 2253 4666 
z
" transform="scale(0.015625)"/>
       </defs>
       <use xlink:href="#DejaVuSans-34"/>
      </g>
     </g>
    </g>
    <g id="xtick_3">
     <g id="line2d_3">
      <g>
       <use xlink:href="#m2fdb4538dd" x="268.268615" y="328.087631" style="stroke: #000000; stroke-width: 0.8"/>
      </g>
     </g>
     <g id="text_3">
      <!-- 6 -->
      <g transform="translate(265.087365 342.686069) scale(0.1 -0.1)">
       <defs>
        <path id="DejaVuSans-36" d="M 2113 2584 
Q 1688 2584 1439 2293 
Q 1191 2003 1191 1497 
Q 1191 994 1439 701 
Q 1688 409 2113 409 
Q 2538 409 2786 701 
Q 3034 994 3034 1497 
Q 3034 2003 2786 2293 
Q 2538 2584 2113 2584 
z
M 3366 4563 
L 3366 3988 
Q 3128 4100 2886 4159 
Q 2644 4219 2406 4219 
Q 1781 4219 1451 3797 
Q 1122 3375 1075 2522 
Q 1259 2794 1537 2939 
Q 1816 3084 2150 3084 
Q 2853 3084 3261 2657 
Q 3669 2231 3669 1497 
Q 3669 778 3244 343 
Q 2819 -91 2113 -91 
Q 1303 -91 875 529 
Q 447 1150 447 2328 
Q 447 3434 972 4092 
Q 1497 4750 2381 4750 
Q 2619 4750 2861 4703 
Q 3103 4656 3366 4563 
z
" transform="scale(0.015625)"/>
       </defs>
       <use xlink:href="#DejaVuSans-36"/>
      </g>
     </g>
    </g>
    <g id="xtick_4">
     <g id="line2d_4">
      <g>
       <use xlink:href="#m2fdb4538dd" x="360.183077" y="328.087631" style="stroke: #000000; stroke-width: 0.8"/>
      </g>
     </g>
     <g id="text_4">
      <!-- 8 -->
      <g transform="translate(357.001827 342.686069) scale(0.1 -0.1)">
       <defs>
        <path id="DejaVuSans-38" d="M 2034 2216 
Q 1584 2216 1326 1975 
Q 1069 1734 1069 1313 
Q 1069 891 1326 650 
Q 1584 409 2034 409 
Q 2484 409 2743 651 
Q 3003 894 3003 1313 
Q 3003 1734 2745 1975 
Q 2488 2216 2034 2216 
z
M 1403 2484 
Q 997 2584 770 2862 
Q 544 3141 544 3541 
Q 544 4100 942 4425 
Q 1341 4750 2034 4750 
Q 2731 4750 3128 4425 
Q 3525 4100 3525 3541 
Q 3525 3141 3298 2862 
Q 3072 2584 2669 2484 
Q 3125 2378 3379 2068 
Q 3634 1759 3634 1313 
Q 3634 634 3220 271 
Q 2806 -91 2034 -91 
Q 1263 -91 848 271 
Q 434 634 434 1313 
Q 434 1759 690 2068 
Q 947 2378 1403 2484 
z
M 1172 3481 
Q 1172 3119 1398 2916 
Q 1625 2713 2034 2713 
Q 2441 2713 2670 2916 
Q 2900 3119 2900 3481 
Q 2900 3844 2670 4047 
Q 2441 4250 2034 4250 
Q 1625 4250 1398 4047 
Q 1172 3844 1172 3481 
z
" transform="scale(0.015625)"/>
       </defs>
       <use xlink:href="#DejaVuSans-38"/>
      </g>
     </g>
    </g>
    <g id="xtick_5">
     <g id="line2d_5">
      <g>
       <use xlink:href="#m2fdb4538dd" x="452.097539" y="328.087631" style="stroke: #000000; stroke-width: 0.8"/>
      </g>
     </g>
     <g id="text_5">
      <!-- 10 -->
      <g transform="translate(445.735039 342.686069) scale(0.1 -0.1)">
       <defs>
        <path id="DejaVuSans-31" d="M 794 531 
L 1825 531 
L 1825 4091 
L 703 3866 
L 703 4441 
L 1819 4666 
L 2450 4666 
L 2450 531 
L 3481 531 
L 3481 0 
L 794 0 
L 794 531 
z
" transform="scale(0.015625)"/>
        <path id="DejaVuSans-30" d="M 2034 4250 
Q 1547 4250 1301 3770 
Q 1056 3291 1056 2328 
Q 1056 1369 1301 889 
Q 1547 409 2034 409 
Q 2525 409 2770 889 
Q 3016 1369 3016 2328 
Q 3016 3291 2770 3770 
Q 2525 4250 2034 4250 
z
M 2034 4750 
Q 2819 4750 3233 4129 
Q 3647 3509 3647 2328 
Q 3647 1150 3233 529 
Q 2819 -91 2034 -91 
Q 1250 -91 836 529 
Q 422 1150 422 2328 
Q 422 3509 836 4129 
Q 1250 4750 2034 4750 
z
" transform="scale(0.015625)"/>
       </defs>
       <use xlink:href="#DejaVuSans-31"/>
       <use xlink:href="#DejaVuSans-30" transform="translate(63.623047 0)"/>
      </g>
     </g>
    </g>
    <g id="xtick_6">
     <g id="line2d_6">
      <defs>
       <path id="m754f8f0acd" d="M 0 0 
L 0 2 
" style="stroke: #000000; stroke-width: 0.6"/>
      </defs>
      <g>
       <use xlink:href="#m754f8f0acd" x="38.482461" y="328.087631" style="stroke: #000000; stroke-width: 0.6"/>
      </g>
     </g>
    </g>
    <g id="xtick_7">
     <g id="line2d_7">
      <g>
       <use xlink:href="#m754f8f0acd" x="61.461077" y="328.087631" style="stroke: #000000; stroke-width: 0.6"/>
      </g>
     </g>
    </g>
    <g id="xtick_8">
     <g id="line2d_8">
      <g>
       <use xlink:href="#m754f8f0acd" x="107.418307" y="328.087631" style="stroke: #000000; stroke-width: 0.6"/>
      </g>
     </g>
    </g>
    <g id="xtick_9">
     <g id="line2d_9">
      <g>
       <use xlink:href="#m754f8f0acd" x="130.396923" y="328.087631" style="stroke: #000000; stroke-width: 0.6"/>
      </g>
     </g>
    </g>
    <g id="xtick_10">
     <g id="line2d_10">
      <g>
       <use xlink:href="#m754f8f0acd" x="153.375538" y="328.087631" style="stroke: #000000; stroke-width: 0.6"/>
      </g>
     </g>
    </g>
    <g id="xtick_11">
     <g id="line2d_11">
      <g>
       <use xlink:href="#m754f8f0acd" x="199.332769" y="328.087631" style="stroke: #000000; stroke-width: 0.6"/>
      </g>
     </g>
    </g>
    <g id="xtick_12">
     <g id="line2d_12">
      <g>
       <use xlink:href="#m754f8f0acd" x="222.311385" y="328.087631" style="stroke: #000000; stroke-width: 0.6"/>
      </g>
     </g>
    </g>
    <g id="xtick_13">
     <g id="line2d_13">
      <g>
       <use xlink:href="#m754f8f0acd" x="245.29" y="328.087631" style="stroke: #000000; stroke-width: 0.6"/>
      </g>
     </g>
    </g>
    <g id="xtick_14">
     <g id="line2d_14">
      <g>
       <use xlink:href="#m754f8f0acd" x="291.247231" y="328.087631" style="stroke: #000000; stroke-width: 0.6"/>
      </g>
     </g>
    </g>
    <g id="xtick_15">
     <g id="line2d_15">
      <g>
       <use xlink:href="#m754f8f0acd" x="314.225846" y="328.087631" style="stroke: #000000; stroke-width: 0.6"/>
      </g>
     </g>
    </g>
    <g id="xtick_16">
     <g id="line2d_16">
      <g>
       <use xlink:href="#m754f8f0acd" x="337.204462" y="328.087631" style="stroke: #000000; stroke-width: 0.6"/>
      </g>
     </g>
    </g>
    <g id="xtick_17">
     <g id="line2d_17">
      <g>
       <use xlink:href="#m754f8f0acd" x="383.161693" y="328.087631" style="stroke: #000000; stroke-width: 0.6"/>
      </g>
     </g>
    </g>
    <g id="xtick_18">
     <g id="line2d_18">
      <g>
       <use xlink:href="#m754f8f0acd" x="406.140308" y="328.087631" style="stroke: #000000; stroke-width: 0.6"/>
      </g>
     </g>
    </g>
    <g id="xtick_19">
     <g id="line2d_19">
      <g>
       <use xlink:href="#m754f8f0acd" x="429.118923" y="328.087631" style="stroke: #000000; stroke-width: 0.6"/>
      </g>
     </g>
    </g>
   </g>
   <g id="matplotlib.axis_2">
    <g id="ytick_1">
     <g id="line2d_20">
      <defs>
       <path id="m4ff331b30d" d="M 0 0 
L -3.5 0 
" style="stroke: #000000; stroke-width: 0.8"/>
      </defs>
      <g>
       <use xlink:href="#m4ff331b30d" x="19.78" y="328.087631" style="stroke: #000000; stroke-width: 0.8"/>
      </g>
     </g>
     <g id="text_6">
      <!-- 0 -->
      <g transform="translate(6.4175 331.88685) scale(0.1 -0.1)">
       <use xlink:href="#DejaVuSans-30"/>
      </g>
     </g>
    </g>
    <g id="ytick_2">
     <g id="line2d_21">
      <g>
       <use xlink:href="#m4ff331b30d" x="19.78" y="263.756723" style="stroke: #000000; stroke-width: 0.8"/>
      </g>
     </g>
     <g id="text_7">
      <!-- 2 -->
      <g transform="translate(6.4175 267.555942) scale(0.1 -0.1)">
       <use xlink:href="#DejaVuSans-32"/>
      </g>
     </g>
    </g>
    <g id="ytick_3">
     <g id="line2d_22">
      <g>
       <use xlink:href="#m4ff331b30d" x="19.78" y="199.425815" style="stroke: #000000; stroke-width: 0.8"/>
      </g>
     </g>
     <g id="text_8">
      <!-- 4 -->
      <g transform="translate(6.4175 203.225034) scale(0.1 -0.1)">
       <use xlink:href="#DejaVuSans-34"/>
      </g>
     </g>
    </g>
    <g id="ytick_4">
     <g id="line2d_23">
      <g>
       <use xlink:href="#m4ff331b30d" x="19.78" y="135.094907" style="stroke: #000000; stroke-width: 0.8"/>
      </g>
     </g>
     <g id="text_9">
      <!-- 6 -->
      <g transform="translate(6.4175 138.894126) scale(0.1 -0.1)">
       <use xlink:href="#DejaVuSans-36"/>
      </g>
     </g>
    </g>
    <g id="ytick_5">
     <g id="line2d_24">
      <g>
       <use xlink:href="#m4ff331b30d" x="19.78" y="70.763999" style="stroke: #000000; stroke-width: 0.8"/>
      </g>
     </g>
     <g id="text_10">
      <!-- 8 -->
      <g transform="translate(6.4175 74.563218) scale(0.1 -0.1)">
       <use xlink:href="#DejaVuSans-38"/>
      </g>
     </g>
    </g>
    <g id="ytick_6">
     <g id="line2d_25">
      <g>
       <use xlink:href="#m4ff331b30d" x="19.78" y="6.433091" style="stroke: #000000; stroke-width: 0.8"/>
      </g>
     </g>
     <g id="text_11">
      <!-- 10 -->
      <g transform="translate(0.055 10.23231) scale(0.1 -0.1)">
       <use xlink:href="#DejaVuSans-31"/>
       <use xlink:href="#DejaVuSans-30" transform="translate(63.623047 0)"/>
      </g>
     </g>
    </g>
    <g id="ytick_7">
     <g id="line2d_26">
      <defs>
       <path id="mb9e81eb6a7" d="M 0 0 
L -2 0 
" style="stroke: #000000; stroke-width: 0.6"/>
      </defs>
      <g>
       <use xlink:href="#mb9e81eb6a7" x="19.78" y="312.004904" style="stroke: #000000; stroke-width: 0.6"/>
      </g>
     </g>
    </g>
    <g id="ytick_8">
     <g id="line2d_27">
      <g>
       <use xlink:href="#mb9e81eb6a7" x="19.78" y="295.922177" style="stroke: #000000; stroke-width: 0.6"/>
      </g>
     </g>
    </g>
    <g id="ytick_9">
     <g id="line2d_28">
      <g>
       <use xlink:href="#mb9e81eb6a7" x="19.78" y="279.83945" style="stroke: #000000; stroke-width: 0.6"/>
      </g>
     </g>
    </g>
    <g id="ytick_10">
     <g id="line2d_29">
      <g>
       <use xlink:href="#mb9e81eb6a7" x="19.78" y="247.673996" style="stroke: #000000; stroke-width: 0.6"/>
      </g>
     </g>
    </g>
    <g id="ytick_11">
     <g id="line2d_30">
      <g>
       <use xlink:href="#mb9e81eb6a7" x="19.78" y="231.591269" style="stroke: #000000; stroke-width: 0.6"/>
      </g>
     </g>
    </g>
    <g id="ytick_12">
     <g id="line2d_31">
      <g>
       <use xlink:href="#mb9e81eb6a7" x="19.78" y="215.508542" style="stroke: #000000; stroke-width: 0.6"/>
      </g>
     </g>
    </g>
    <g id="ytick_13">
     <g id="line2d_32">
      <g>
       <use xlink:href="#mb9e81eb6a7" x="19.78" y="183.343088" style="stroke: #000000; stroke-width: 0.6"/>
      </g>
     </g>
    </g>
    <g id="ytick_14">
     <g id="line2d_33">
      <g>
       <use xlink:href="#mb9e81eb6a7" x="19.78" y="167.260361" style="stroke: #000000; stroke-width: 0.6"/>
      </g>
     </g>
    </g>
    <g id="ytick_15">
     <g id="line2d_34">
      <g>
       <use xlink:href="#mb9e81eb6a7" x="19.78" y="151.177634" style="stroke: #000000; stroke-width: 0.6"/>
      </g>
     </g>
    </g>
    <g id="ytick_16">
     <g id="line2d_35">
      <g>
       <use xlink:href="#mb9e81eb6a7" x="19.78" y="119.01218" style="stroke: #000000; stroke-width: 0.6"/>
      </g>
     </g>
    </g>
    <g id="ytick_17">
     <g id="line2d_36">
      <g>
       <use xlink:href="#mb9e81eb6a7" x="19.78" y="102.929453" style="stroke: #000000; stroke-width: 0.6"/>
      </g>
     </g>
    </g>
    <g id="ytick_18">
     <g id="line2d_37">
      <g>
       <use xlink:href="#mb9e81eb6a7" x="19.78" y="86.846726" style="stroke: #000000; stroke-width: 0.6"/>
      </g>
     </g>
    </g>
    <g id="ytick_19">
     <g id="line2d_38">
      <g>
       <use xlink:href="#mb9e81eb6a7" x="19.78" y="54.681272" style="stroke: #000000; stroke-width: 0.6"/>
      </g>
     </g>
    </g>
    <g id="ytick_20">
     <g id="line2d_39">
      <g>
       <use xlink:href="#mb9e81eb6a7" x="19.78" y="38.598545" style="stroke: #000000; stroke-width: 0.6"/>
      </g>
     </g>
    </g>
    <g id="ytick_21">
     <g id="line2d_40">
      <g>
       <use xlink:href="#mb9e81eb6a7" x="19.78" y="22.515818" style="stroke: #000000; stroke-width: 0.6"/>
      </g>
     </g>
    </g>
   </g>
   <g id="line2d_41">
    <path d="M 38.068846 328.087631 
L 38.275654 328.087631 
L 38.379057 328.087631 
L 38.430759 328.087631 
L 38.45661 328.087631 
" clip-path="url(#p685ab508d0)" style="fill: none; stroke: #0000ff; stroke-linecap: square"/>
   </g>
   <g id="line2d_42">
    <path d="M 38.896076 295.922177 
L 41.416132 295.922177 
L 43.403912 295.922177 
L 44.3117 295.922177 
L 46.048786 295.922177 
L 49.074801 295.922177 
L 50.816111 295.922177 
L 53.577131 295.922177 
L 55.187378 295.922177 
L 57.353688 295.922177 
L 59.26293 295.922177 
L 60.582147 295.922177 
L 63.932406 295.922177 
L 66.03761 295.922177 
L 68.131816 295.922177 
L 70.079036 295.922177 
L 72.502014 295.922177 
L 73.711933 295.922177 
L 75.709163 295.922177 
L 77.782599 295.922177 
L 79.21576 295.922177 
L 81.696386 295.922177 
L 84.026077 295.922177 
L 84.232885 295.922177 
L 84.336288 295.922177 
L 84.38799 295.922177 
" clip-path="url(#p685ab508d0)" style="fill: none; stroke: #0000ff; stroke-linecap: square"/>
   </g>
   <g id="line2d_43">
    <path d="M 84.853307 263.756723 
L 85.057261 263.756723 
L 86.187074 263.756723 
L 89.128997 263.756723 
L 90.734447 263.756723 
L 91.94616 263.756723 
L 94.084801 263.756723 
L 95.807211 263.756723 
L 99.739241 263.756723 
L 101.077527 263.756723 
L 103.074445 263.756723 
L 104.221051 263.756723 
L 106.930965 263.756723 
L 109.338717 263.756723 
L 111.451755 263.756723 
L 112.76879 263.756723 
L 114.706613 263.756723 
L 117.949475 263.756723 
L 119.803076 263.756723 
L 121.647383 263.756723 
L 122.882305 263.756723 
L 125.450379 263.756723 
L 127.245007 263.756723 
L 129.983308 263.756723 
L 130.025107 263.756723 
L 130.221464 263.756723 
L 130.319643 263.756723 
L 130.368733 263.756723 
" clip-path="url(#p685ab508d0)" style="fill: none; stroke: #0000ff; stroke-linecap: square"/>
   </g>
   <g id="line2d_44">
    <path d="M 130.810538 231.591269 
L 131.82898 231.591269 
L 133.115594 231.591269 
L 136.914318 231.591269 
L 137.545813 231.591269 
L 139.588725 231.591269 
L 141.782475 231.591269 
L 144.593404 231.591269 
L 147.549392 231.591269 
L 148.89128 231.591269 
L 149.800706 231.591269 
L 152.381553 231.591269 
L 154.234376 231.591269 
L 155.986546 231.591269 
L 158.092569 231.591269 
L 161.784526 231.591269 
L 162.79197 231.591269 
L 165.81456 231.591269 
L 167.977313 231.591269 
L 169.749478 231.591269 
L 171.841591 231.591269 
L 173.939474 231.591269 
L 175.457509 231.591269 
L 175.940539 231.591269 
L 176.147346 231.591269 
L 176.25075 231.591269 
L 176.302452 231.591269 
" clip-path="url(#p685ab508d0)" style="fill: none; stroke: #0000ff; stroke-linecap: square"/>
   </g>
   <g id="line2d_45">
    <path d="M 176.767769 199.425815 
L 177.409779 199.425815 
L 179.958237 199.425815 
L 181.581528 199.425815 
L 183.318262 199.425815 
L 185.921011 199.425815 
L 188.380938 199.425815 
L 191.039883 199.425815 
L 192.492635 199.425815 
L 194.034697 199.425815 
L 196.298717 199.425815 
L 198.929447 199.425815 
L 199.983269 199.425815 
L 203.458611 199.425815 
L 204.779212 199.425815 
L 206.914141 199.425815 
L 209.498162 199.425815 
L 211.991819 199.425815 
L 212.945182 199.425815 
L 214.541226 199.425815 
L 216.435954 199.425815 
L 219.376302 199.425815 
L 221.89777 199.425815 
" clip-path="url(#p685ab508d0)" style="fill: none; stroke: #0000ff; stroke-linecap: square"/>
   </g>
   <g id="line2d_46">
    <path d="M 222.326977 167.260361 
L 222.353511 167.260361 
L 222.406581 167.260361 
L 222.512721 167.260361 
L 222.725 167.260361 
L 223.878594 167.260361 
L 224.578897 167.260361 
L 227.501346 167.260361 
L 228.758136 167.260361 
L 231.99679 167.260361 
L 234.205442 167.260361 
L 235.602486 167.260361 
L 237.81238 167.260361 
L 239.218929 167.260361 
L 242.84178 167.260361 
L 244.085533 167.260361 
L 246.251336 167.260361 
L 247.596556 167.260361 
L 250.53204 167.260361 
L 252.410976 167.260361 
L 255.085953 167.260361 
L 256.298089 167.260361 
L 258.264158 167.260361 
L 259.938703 167.260361 
L 262.044145 167.260361 
L 265.785106 167.260361 
L 266.111758 167.260361 
L 267.855 167.260361 
L 268.061808 167.260361 
L 268.165212 167.260361 
L 268.216914 167.260361 
" clip-path="url(#p685ab508d0)" style="fill: none; stroke: #0000ff; stroke-linecap: square"/>
   </g>
   <g id="line2d_47">
    <path d="M 268.68223 135.094907 
L 269.21757 135.094907 
L 271.624831 135.094907 
L 274.064753 135.094907 
L 275.576592 135.094907 
L 276.780224 135.094907 
L 279.600506 135.094907 
L 282.543116 135.094907 
L 283.650206 135.094907 
L 286.267178 135.094907 
L 287.41998 135.094907 
L 289.91692 135.094907 
L 291.846935 135.094907 
L 293.649688 135.094907 
L 295.447641 135.094907 
L 298.228703 135.094907 
L 300.248244 135.094907 
L 302.52717 135.094907 
L 304.596528 135.094907 
L 305.767845 135.094907 
L 307.69718 135.094907 
L 309.872806 135.094907 
L 312.723708 135.094907 
L 313.812231 135.094907 
L 314.019039 135.094907 
L 314.122442 135.094907 
L 314.174144 135.094907 
" clip-path="url(#p685ab508d0)" style="fill: none; stroke: #0000ff; stroke-linecap: square"/>
   </g>
   <g id="line2d_48">
    <path d="M 314.639461 102.929453 
L 315.762462 102.929453 
L 316.655424 102.929453 
L 318.263919 102.929453 
L 321.850601 102.929453 
L 322.946928 102.929453 
L 325.326097 102.929453 
L 326.845255 102.929453 
L 329.845614 102.929453 
L 332.545941 102.929453 
L 334.1031 102.929453 
L 335.1381 102.929453 
L 336.969249 102.929453 
L 339.142339 102.929453 
L 341.536932 102.929453 
L 343.740968 102.929453 
L 345.545226 102.929453 
L 348.200765 102.929453 
L 350.289406 102.929453 
L 351.622303 102.929453 
L 355.284381 102.929453 
L 355.762601 102.929453 
L 358.691457 102.929453 
L 359.769462 102.929453 
L 359.97627 102.929453 
L 360.079673 102.929453 
L 360.131375 102.929453 
" clip-path="url(#p685ab508d0)" style="fill: none; stroke: #0000ff; stroke-linecap: square"/>
   </g>
   <g id="line2d_49">
    <path d="M 360.596692 70.763999 
L 361.002038 70.763999 
L 362.49192 70.763999 
L 365.135103 70.763999 
L 366.65748 70.763999 
L 368.500277 70.763999 
L 371.503962 70.763999 
L 373.672174 70.763999 
L 375.166502 70.763999 
L 376.422158 70.763999 
L 378.707426 70.763999 
L 381.943874 70.763999 
L 382.842255 70.763999 
L 385.024315 70.763999 
L 387.243987 70.763999 
L 389.184261 70.763999 
L 392.054752 70.763999 
L 394.153138 70.763999 
L 395.56674 70.763999 
L 398.617202 70.763999 
L 399.233615 70.763999 
L 402.843673 70.763999 
L 403.852941 70.763999 
L 405.726693 70.763999 
L 406.044512 70.763999 
L 406.108188 70.763999 
" clip-path="url(#p685ab508d0)" style="fill: none; stroke: #0000ff; stroke-linecap: square"/>
   </g>
   <g id="line2d_50">
    <path d="M 406.171864 38.598545 
L 406.299217 38.598545 
L 406.553923 38.598545 
L 408.840357 38.598545 
L 411.096866 38.598545 
L 413.095387 38.598545 
L 415.586471 38.598545 
L 417.801262 38.598545 
L 419.327825 38.598545 
L 421.329851 38.598545 
L 422.376696 38.598545 
L 424.684608 38.598545 
L 427.260909 38.598545 
L 429.064404 38.598545 
L 431.071325 38.598545 
L 432.761563 38.598545 
L 435.258461 38.598545 
L 437.869024 38.598545 
L 440.328403 38.598545 
L 442.237051 38.598545 
L 443.409541 38.598545 
L 446.459268 38.598545 
L 448.889536 38.598545 
L 449.967244 38.598545 
L 451.683924 38.598545 
L 451.890731 38.598545 
L 451.994135 38.598545 
L 452.045837 38.598545 
L 452.071688 38.598545 
" clip-path="url(#p685ab508d0)" style="fill: none; stroke: #0000ff; stroke-linecap: square"/>
   </g>
   <g id="line2d_51">
    <path d="M 452.511154 6.433091 
" clip-path="url(#p685ab508d0)" style="fill: none; stroke: #0000ff; stroke-linecap: square"/>
   </g>
   <g id="patch_3">
    <path d="M 19.78 334.520722 
L 19.78 0 
" style="fill: none; stroke: #000000; stroke-width: 0.8; stroke-linejoin: miter; stroke-linecap: square"/>
   </g>
   <g id="patch_4">
    <path d="M 29.78 328.087631 
L 460.8 328.087631 
" style="fill: none; stroke: #000000; stroke-width: 0.8; stroke-linejoin: miter; stroke-linecap: square"/>
   </g>
  </g>
 </g>
 <defs>
  <clipPath id="p685ab508d0">
   <rect x="29.78" y="0" width="431.02" height="334.520722"/>
  </clipPath>
 </defs>
</svg>
