<?xml version="1.0" encoding="utf-8" standalone="no"?>
<!DOCTYPE svg PUBLIC "-//W3C//DTD SVG 1.1//EN"
  "http://www.w3.org/Graphics/SVG/1.1/DTD/svg11.dtd">
<svg xmlns:xlink="http://www.w3.org/1999/xlink" width="460.8pt" height="345.6pt" viewBox="0 0 460.8 345.6" xmlns="http://www.w3.org/2000/svg" version="1.1">
 <metadata>
  <rdf:RDF xmlns:dc="http://purl.org/dc/elements/1.1/" xmlns:cc="http://creativecommons.org/ns#" xmlns:rdf="http://www.w3.org/1999/02/22-rdf-syntax-ns#">
   <cc:Work>
    <dc:type rdf:resource="http://purl.org/dc/dcmitype/StillImage"/>
    <dc:date>2025-08-03T19:01:25.237225</dc:date>
    <dc:format>image/svg+xml</dc:format>
    <dc:creator>
     <cc:Agent>
      <dc:title>Matplotlib v3.10.3, https://matplotlib.org/</dc:title>
     </cc:Agent>
    </dc:creator>
   </cc:Work>
  </rdf:RDF>
 </metadata>
 <defs>
  <style type="text/css">*{stroke-linejoin: round; stroke-linecap: butt}</style>
 </defs>
 <g id="figure_1">
  <g id="patch_1">
   <path d="M 0 345.6 
L 460.8 345.6 
L 460.8 0 
L 0 0 
z
" style="fill: #ffffff"/>
  </g>
  <g id="axes_1">
   <g id="patch_2">
    <path d="M 48.661527 345.6 
L 412.138473 345.6 
L 412.138473 0 
L 48.661527 0 
z
" style="fill: #ffffff"/>
   </g>
   <g id="matplotlib.axis_1">
    <g id="xtick_1">
     <g id="line2d_1">
      <defs>
       <path id="md151e09a3d" d="M 0 0 
L 0 3.5 
" style="stroke: #000000; stroke-width: 0.8"/>
      </defs>
      <g>
       <use xlink:href="#md151e09a3d" x="70.329277" y="159.962641" style="stroke: #000000; stroke-width: 0.8"/>
      </g>
     </g>
     <g id="text_1">
      <!-- −2 -->
      <g transform="translate(62.958183 174.561078) scale(0.1 -0.1)">
       <defs>
        <path id="DejaVuSans-2212" d="M 678 2272 
L 4684 2272 
L 4684 1741 
L 678 1741 
L 678 2272 
z
" transform="scale(0.015625)"/>
        <path id="DejaVuSans-32" d="M 1228 531 
L 3431 531 
L 3431 0 
L 469 0 
L 469 531 
Q 828 903 1448 1529 
Q 2069 2156 2228 2338 
Q 2531 2678 2651 2914 
Q 2772 3150 2772 3378 
Q 2772 3750 2511 3984 
Q 2250 4219 1831 4219 
Q 1534 4219 1204 4116 
Q 875 4013 500 3803 
L 500 4441 
Q 881 4594 1212 4672 
Q 1544 4750 1819 4750 
Q 2544 4750 2975 4387 
Q 3406 4025 3406 3419 
Q 3406 3131 3298 2873 
Q 3191 2616 2906 2266 
Q 2828 2175 2409 1742 
Q 1991 1309 1228 531 
z
" transform="scale(0.015625)"/>
       </defs>
       <use xlink:href="#DejaVuSans-2212"/>
       <use xlink:href="#DejaVuSans-32" transform="translate(83.789062 0)"/>
      </g>
     </g>
    </g>
    <g id="xtick_2">
     <g id="line2d_2">
      <g>
       <use xlink:href="#md151e09a3d" x="144.983954" y="159.962641" style="stroke: #000000; stroke-width: 0.8"/>
      </g>
     </g>
     <g id="text_2">
      <!-- −1 -->
      <g transform="translate(137.61286 174.561078) scale(0.1 -0.1)">
       <defs>
        <path id="DejaVuSans-31" d="M 794 531 
L 1825 531 
L 1825 4091 
L 703 3866 
L 703 4441 
L 1819 4666 
L 2450 4666 
L 2450 531 
L 3481 531 
L 3481 0 
L 794 0 
L 794 531 
z
" transform="scale(0.015625)"/>
       </defs>
       <use xlink:href="#DejaVuSans-2212"/>
       <use xlink:href="#DejaVuSans-31" transform="translate(83.789062 0)"/>
      </g>
     </g>
    </g>
    <g id="xtick_3">
     <g id="line2d_3">
      <g>
       <use xlink:href="#md151e09a3d" x="219.63863" y="159.962641" style="stroke: #000000; stroke-width: 0.8"/>
      </g>
     </g>
    </g>
    <g id="xtick_4">
     <g id="line2d_4">
      <g>
       <use xlink:href="#md151e09a3d" x="294.293307" y="159.962641" style="stroke: #000000; stroke-width: 0.8"/>
      </g>
     </g>
     <g id="text_3">
      <!-- 1 -->
      <g transform="translate(291.112057 174.561078) scale(0.1 -0.1)">
       <use xlink:href="#DejaVuSans-31"/>
      </g>
     </g>
    </g>
    <g id="xtick_5">
     <g id="line2d_5">
      <g>
       <use xlink:href="#md151e09a3d" x="368.947983" y="159.962641" style="stroke: #000000; stroke-width: 0.8"/>
      </g>
     </g>
     <g id="text_4">
      <!-- 2 -->
      <g transform="translate(365.766733 174.561078) scale(0.1 -0.1)">
       <use xlink:href="#DejaVuSans-32"/>
      </g>
     </g>
    </g>
    <g id="xtick_6">
     <g id="line2d_6">
      <defs>
       <path id="m8e60cb41aa" d="M 0 0 
L 0 2 
" style="stroke: #000000; stroke-width: 0.6"/>
      </defs>
      <g>
       <use xlink:href="#m8e60cb41aa" x="55.398342" y="159.962641" style="stroke: #000000; stroke-width: 0.6"/>
      </g>
     </g>
    </g>
    <g id="xtick_7">
     <g id="line2d_7">
      <g>
       <use xlink:href="#m8e60cb41aa" x="85.260212" y="159.962641" style="stroke: #000000; stroke-width: 0.6"/>
      </g>
     </g>
    </g>
    <g id="xtick_8">
     <g id="line2d_8">
      <g>
       <use xlink:href="#m8e60cb41aa" x="100.191148" y="159.962641" style="stroke: #000000; stroke-width: 0.6"/>
      </g>
     </g>
    </g>
    <g id="xtick_9">
     <g id="line2d_9">
      <g>
       <use xlink:href="#m8e60cb41aa" x="115.122083" y="159.962641" style="stroke: #000000; stroke-width: 0.6"/>
      </g>
     </g>
    </g>
    <g id="xtick_10">
     <g id="line2d_10">
      <g>
       <use xlink:href="#m8e60cb41aa" x="130.053018" y="159.962641" style="stroke: #000000; stroke-width: 0.6"/>
      </g>
     </g>
    </g>
    <g id="xtick_11">
     <g id="line2d_11">
      <g>
       <use xlink:href="#m8e60cb41aa" x="159.914889" y="159.962641" style="stroke: #000000; stroke-width: 0.6"/>
      </g>
     </g>
    </g>
    <g id="xtick_12">
     <g id="line2d_12">
      <g>
       <use xlink:href="#m8e60cb41aa" x="174.845824" y="159.962641" style="stroke: #000000; stroke-width: 0.6"/>
      </g>
     </g>
    </g>
    <g id="xtick_13">
     <g id="line2d_13">
      <g>
       <use xlink:href="#m8e60cb41aa" x="189.776759" y="159.962641" style="stroke: #000000; stroke-width: 0.6"/>
      </g>
     </g>
    </g>
    <g id="xtick_14">
     <g id="line2d_14">
      <g>
       <use xlink:href="#m8e60cb41aa" x="204.707695" y="159.962641" style="stroke: #000000; stroke-width: 0.6"/>
      </g>
     </g>
    </g>
    <g id="xtick_15">
     <g id="line2d_15">
      <g>
       <use xlink:href="#m8e60cb41aa" x="234.569565" y="159.962641" style="stroke: #000000; stroke-width: 0.6"/>
      </g>
     </g>
    </g>
    <g id="xtick_16">
     <g id="line2d_16">
      <g>
       <use xlink:href="#m8e60cb41aa" x="249.500501" y="159.962641" style="stroke: #000000; stroke-width: 0.6"/>
      </g>
     </g>
    </g>
    <g id="xtick_17">
     <g id="line2d_17">
      <g>
       <use xlink:href="#m8e60cb41aa" x="264.431436" y="159.962641" style="stroke: #000000; stroke-width: 0.6"/>
      </g>
     </g>
    </g>
    <g id="xtick_18">
     <g id="line2d_18">
      <g>
       <use xlink:href="#m8e60cb41aa" x="279.362371" y="159.962641" style="stroke: #000000; stroke-width: 0.6"/>
      </g>
     </g>
    </g>
    <g id="xtick_19">
     <g id="line2d_19">
      <g>
       <use xlink:href="#m8e60cb41aa" x="309.224242" y="159.962641" style="stroke: #000000; stroke-width: 0.6"/>
      </g>
     </g>
    </g>
    <g id="xtick_20">
     <g id="line2d_20">
      <g>
       <use xlink:href="#m8e60cb41aa" x="324.155177" y="159.962641" style="stroke: #000000; stroke-width: 0.6"/>
      </g>
     </g>
    </g>
    <g id="xtick_21">
     <g id="line2d_21">
      <g>
       <use xlink:href="#m8e60cb41aa" x="339.086112" y="159.962641" style="stroke: #000000; stroke-width: 0.6"/>
      </g>
     </g>
    </g>
    <g id="xtick_22">
     <g id="line2d_22">
      <g>
       <use xlink:href="#m8e60cb41aa" x="354.017048" y="159.962641" style="stroke: #000000; stroke-width: 0.6"/>
      </g>
     </g>
    </g>
    <g id="xtick_23">
     <g id="line2d_23">
      <g>
       <use xlink:href="#m8e60cb41aa" x="383.878918" y="159.962641" style="stroke: #000000; stroke-width: 0.6"/>
      </g>
     </g>
    </g>
    <g id="xtick_24">
     <g id="line2d_24">
      <g>
       <use xlink:href="#m8e60cb41aa" x="398.809854" y="159.962641" style="stroke: #000000; stroke-width: 0.6"/>
      </g>
     </g>
    </g>
   </g>
   <g id="matplotlib.axis_2">
    <g id="ytick_1">
     <g id="line2d_25">
      <defs>
       <path id="m84c3f1f865" d="M 0 0 
L -3.5 0 
" style="stroke: #000000; stroke-width: 0.8"/>
      </defs>
      <g>
       <use xlink:href="#m84c3f1f865" x="219.63863" y="309.271994" style="stroke: #000000; stroke-width: 0.8"/>
      </g>
     </g>
     <g id="text_5">
      <!-- −2 -->
      <g transform="translate(197.896443 313.071213) scale(0.1 -0.1)">
       <use xlink:href="#DejaVuSans-2212"/>
       <use xlink:href="#DejaVuSans-32" transform="translate(83.789062 0)"/>
      </g>
     </g>
    </g>
    <g id="ytick_2">
     <g id="line2d_26">
      <g>
       <use xlink:href="#m84c3f1f865" x="219.63863" y="234.617317" style="stroke: #000000; stroke-width: 0.8"/>
      </g>
     </g>
     <g id="text_6">
      <!-- −1 -->
      <g transform="translate(197.896443 238.416536) scale(0.1 -0.1)">
       <use xlink:href="#DejaVuSans-2212"/>
       <use xlink:href="#DejaVuSans-31" transform="translate(83.789062 0)"/>
      </g>
     </g>
    </g>
    <g id="ytick_3">
     <g id="line2d_27">
      <g>
       <use xlink:href="#m84c3f1f865" x="219.63863" y="159.962641" style="stroke: #000000; stroke-width: 0.8"/>
      </g>
     </g>
    </g>
    <g id="ytick_4">
     <g id="line2d_28">
      <g>
       <use xlink:href="#m84c3f1f865" x="219.63863" y="85.307965" style="stroke: #000000; stroke-width: 0.8"/>
      </g>
     </g>
     <g id="text_7">
      <!-- 1 -->
      <g transform="translate(206.27613 89.107183) scale(0.1 -0.1)">
       <use xlink:href="#DejaVuSans-31"/>
      </g>
     </g>
    </g>
    <g id="ytick_5">
     <g id="line2d_29">
      <g>
       <use xlink:href="#m84c3f1f865" x="219.63863" y="10.653288" style="stroke: #000000; stroke-width: 0.8"/>
      </g>
     </g>
     <g id="text_8">
      <!-- 2 -->
      <g transform="translate(206.27613 14.452507) scale(0.1 -0.1)">
       <use xlink:href="#DejaVuSans-32"/>
      </g>
     </g>
    </g>
    <g id="ytick_6">
     <g id="line2d_30">
      <defs>
       <path id="mefa190e0ca" d="M 0 0 
L -2 0 
" style="stroke: #000000; stroke-width: 0.6"/>
      </defs>
      <g>
       <use xlink:href="#mefa190e0ca" x="219.63863" y="339.133865" style="stroke: #000000; stroke-width: 0.6"/>
      </g>
     </g>
    </g>
    <g id="ytick_7">
     <g id="line2d_31">
      <g>
       <use xlink:href="#mefa190e0ca" x="219.63863" y="324.202929" style="stroke: #000000; stroke-width: 0.6"/>
      </g>
     </g>
    </g>
    <g id="ytick_8">
     <g id="line2d_32">
      <g>
       <use xlink:href="#mefa190e0ca" x="219.63863" y="294.341059" style="stroke: #000000; stroke-width: 0.6"/>
      </g>
     </g>
    </g>
    <g id="ytick_9">
     <g id="line2d_33">
      <g>
       <use xlink:href="#mefa190e0ca" x="219.63863" y="279.410123" style="stroke: #000000; stroke-width: 0.6"/>
      </g>
     </g>
    </g>
    <g id="ytick_10">
     <g id="line2d_34">
      <g>
       <use xlink:href="#mefa190e0ca" x="219.63863" y="264.479188" style="stroke: #000000; stroke-width: 0.6"/>
      </g>
     </g>
    </g>
    <g id="ytick_11">
     <g id="line2d_35">
      <g>
       <use xlink:href="#mefa190e0ca" x="219.63863" y="249.548253" style="stroke: #000000; stroke-width: 0.6"/>
      </g>
     </g>
    </g>
    <g id="ytick_12">
     <g id="line2d_36">
      <g>
       <use xlink:href="#mefa190e0ca" x="219.63863" y="219.686382" style="stroke: #000000; stroke-width: 0.6"/>
      </g>
     </g>
    </g>
    <g id="ytick_13">
     <g id="line2d_37">
      <g>
       <use xlink:href="#mefa190e0ca" x="219.63863" y="204.755447" style="stroke: #000000; stroke-width: 0.6"/>
      </g>
     </g>
    </g>
    <g id="ytick_14">
     <g id="line2d_38">
      <g>
       <use xlink:href="#mefa190e0ca" x="219.63863" y="189.824512" style="stroke: #000000; stroke-width: 0.6"/>
      </g>
     </g>
    </g>
    <g id="ytick_15">
     <g id="line2d_39">
      <g>
       <use xlink:href="#mefa190e0ca" x="219.63863" y="174.893576" style="stroke: #000000; stroke-width: 0.6"/>
      </g>
     </g>
    </g>
    <g id="ytick_16">
     <g id="line2d_40">
      <g>
       <use xlink:href="#mefa190e0ca" x="219.63863" y="145.031706" style="stroke: #000000; stroke-width: 0.6"/>
      </g>
     </g>
    </g>
    <g id="ytick_17">
     <g id="line2d_41">
      <g>
       <use xlink:href="#mefa190e0ca" x="219.63863" y="130.10077" style="stroke: #000000; stroke-width: 0.6"/>
      </g>
     </g>
    </g>
    <g id="ytick_18">
     <g id="line2d_42">
      <g>
       <use xlink:href="#mefa190e0ca" x="219.63863" y="115.169835" style="stroke: #000000; stroke-width: 0.6"/>
      </g>
     </g>
    </g>
    <g id="ytick_19">
     <g id="line2d_43">
      <g>
       <use xlink:href="#mefa190e0ca" x="219.63863" y="100.2389" style="stroke: #000000; stroke-width: 0.6"/>
      </g>
     </g>
    </g>
    <g id="ytick_20">
     <g id="line2d_44">
      <g>
       <use xlink:href="#mefa190e0ca" x="219.63863" y="70.377029" style="stroke: #000000; stroke-width: 0.6"/>
      </g>
     </g>
    </g>
    <g id="ytick_21">
     <g id="line2d_45">
      <g>
       <use xlink:href="#mefa190e0ca" x="219.63863" y="55.446094" style="stroke: #000000; stroke-width: 0.6"/>
      </g>
     </g>
    </g>
    <g id="ytick_22">
     <g id="line2d_46">
      <g>
       <use xlink:href="#mefa190e0ca" x="219.63863" y="40.515159" style="stroke: #000000; stroke-width: 0.6"/>
      </g>
     </g>
    </g>
    <g id="ytick_23">
     <g id="line2d_47">
      <g>
       <use xlink:href="#mefa190e0ca" x="219.63863" y="25.584223" style="stroke: #000000; stroke-width: 0.6"/>
      </g>
     </g>
    </g>
   </g>
   <g id="line2d_48">
    <path d="M 219.63863 159.962641 
L 219.63863 159.962641 
L 219.63863 159.962641 
L 219.63863 159.962641 
L 219.63863 159.962641 
L 219.63863 159.962641 
L 219.63863 159.962641 
L 219.63863 159.962641 
L 219.63863 159.962641 
L 219.63863 159.962641 
L 219.63863 159.962641 
L 219.63863 159.962641 
L 219.63863 159.962641 
L 219.63863 159.962641 
L 219.63863 159.962641 
L 219.63863 159.962641 
L 219.63863 159.962641 
L 219.63863 159.962641 
L 219.63863 159.962641 
L 219.63863 159.962641 
" clip-path="url(#pe60312ee8d)" style="fill: none; stroke: #0000ff; stroke-linecap: square"/>
   </g>
   <g id="line2d_49">
    <path d="M 198.078517 112.92138 
L 198.034681 112.941495 
L 197.947065 112.98185 
L 197.561632 113.161734 
L 194.950165 114.485192 
L 194.600113 114.676976 
L 191.947981 116.248265 
L 188.005531 119.010647 
L 186.881177 119.904334 
L 184.731322 121.763183 
L 181.547461 124.937199 
L 179.347219 127.492332 
L 178.644665 128.383953 
L 176.715135 131.061217 
L 174.777105 134.1719 
L 173.244709 137.042719 
L 171.853837 140.10484 
L 170.620438 143.381461 
L 170.068966 145.111137 
L 169.400531 147.558927 
L 168.757322 150.538669 
L 168.497695 152.068119 
L 168.452895 152.364007 
L 168.431137 152.512047 
L 168.420418 152.586091 
" clip-path="url(#pe60312ee8d)" style="fill: none; stroke: #0000ff; stroke-linecap: square"/>
   </g>
   <g id="line2d_50">
    <path d="M 138.314429 149.328359 
L 137.999538 152.103106 
L 137.763307 155.151696 
L 137.672559 162.839601 
L 137.703621 163.618853 
L 138.071045 168.53251 
L 138.671477 173.040627 
L 139.58972 177.820009 
L 141.848824 185.952248 
L 142.025428 186.474987 
L 144.818378 193.557931 
L 147.7184 199.38591 
L 148.288586 200.408715 
L 150.403154 203.930385 
L 154.361151 209.617091 
L 155.973657 211.668394 
L 161.883092 218.195033 
L 165.314712 221.40876 
L 165.53007 221.598486 
L 165.83325 221.863325 
L 165.985326 221.995186 
" clip-path="url(#pe60312ee8d)" style="fill: none; stroke: #0000ff; stroke-linecap: square"/>
   </g>
   <g id="line2d_51">
    <path d="M 152.128005 238.404916 
L 152.901287 239.063855 
L 156.082781 241.642069 
L 160.775067 245.085822 
L 161.56386 245.625912 
L 166.571783 248.815242 
L 173.8878 252.794406 
L 178.072943 254.74222 
L 183.320808 256.874409 
L 191.123988 259.450279 
L 195.507251 260.603346 
L 204.989778 262.414025 
L 206.078705 262.563827 
L 217.209351 263.427483 
L 217.797254 263.439616 
L 227.648967 263.145534 
L 232.574932 262.644319 
L 236.795487 262.023981 
L 246.234316 259.980362 
L 247.845971 259.537843 
L 248.723219 259.285154 
L 248.900856 259.232964 
" clip-path="url(#pe60312ee8d)" style="fill: none; stroke: #0000ff; stroke-linecap: square"/>
   </g>
   <g id="line2d_52">
    <path d="M 253.817145 275.150957 
L 254.22906 275.027932 
L 255.051558 274.777464 
L 259.874306 273.177523 
L 271.179865 268.498443 
L 271.606519 268.294805 
L 277.83908 265.077943 
L 285.33 260.566632 
L 291.161483 256.507971 
L 299.141068 250.050829 
L 301.016937 248.359984 
L 308.053601 241.321796 
L 310.794009 238.239176 
L 317.169363 230.135822 
L 322.099218 222.718892 
L 323.789567 219.871752 
L 328.160365 211.533487 
L 331.44999 203.948307 
L 331.648568 203.440139 
L 334.076349 196.575858 
L 334.609056 194.867086 
L 334.808991 194.201611 
L 334.907515 193.868442 
L 334.956415 193.701752 
" clip-path="url(#pe60312ee8d)" style="fill: none; stroke: #0000ff; stroke-linecap: square"/>
   </g>
   <g id="line2d_53">
    <path d="M 348.497801 195.85016 
L 350.58938 187.24819 
L 351.955172 179.582341 
L 352.713943 173.511108 
L 353.292656 165.366473 
L 353.38305 162.205413 
L 353.012638 149.765872 
L 352.326613 143.036355 
L 351.525965 137.639315 
L 348.894856 125.532595 
L 346.911251 118.80101 
L 345.054581 113.449854 
L 340.893233 103.483253 
L 337.09299 95.954256 
L 334.302255 91.079746 
L 331.745762 86.992847 
L 328.519825 82.261384 
L 324.025151 76.320223 
L 321.492718 73.254252 
L 320.989567 72.666664 
L 320.736719 72.373964 
L 320.609978 72.227888 
" clip-path="url(#pe60312ee8d)" style="fill: none; stroke: #0000ff; stroke-linecap: square"/>
   </g>
   <g id="line2d_54">
    <path d="M 328.047775 63.261008 
L 322.520933 57.400561 
L 321.681666 56.565507 
L 311.992113 47.826194 
L 306.086188 43.212617 
L 301.445048 39.914907 
L 292.181293 34.100373 
L 282.021588 28.767691 
L 274.340827 25.383972 
L 265.236699 22.033077 
L 261.025758 20.711594 
L 251.139575 18.147836 
L 248.063443 17.499388 
L 239.637185 16.074468 
L 231.001167 15.136396 
L 221.703609 14.706026 
L 206.942477 15.247209 
L 205.214998 15.409165 
L 200.16541 16.002431 
L 199.333191 16.117455 
L 198.917335 16.176771 
L 198.709472 16.20688 
" clip-path="url(#pe60312ee8d)" style="fill: none; stroke: #0000ff; stroke-linecap: square"/>
   </g>
   <g id="line2d_55">
    <path d="M 195.276294 6.646154 
L 194.227993 6.81641 
L 182.746585 9.169917 
L 171.119045 12.499702 
L 168.018879 13.556118 
L 158.296615 17.356099 
L 145.977131 23.3118 
L 144.612239 24.056389 
L 130.588098 32.803405 
L 126.178163 36.008578 
L 116.453722 43.978403 
L 113.307355 46.855928 
L 104.339431 56.01283 
L 97.815658 63.740855 
L 96.50421 65.424907 
L 89.103673 75.938278 
L 84.440649 83.66733 
L 79.159874 93.893074 
L 78.944166 94.353676 
L 78.465542 95.389985 
L 78.229091 95.909452 
" clip-path="url(#pe60312ee8d)" style="fill: none; stroke: #0000ff; stroke-linecap: square"/>
   </g>
   <g id="line2d_56">
    <path d="M 70.095255 92.556162 
L 69.971595 92.831178 
L 69.411233 94.094714 
L 64.336602 107.159852 
L 61.668716 115.777114 
L 59.084522 126.358579 
L 58.204042 130.881234 
L 56.87596 139.586976 
L 55.905493 150.047282 
L 55.651468 156.081244 
L 55.769723 167.299932 
L 56.321042 175.266886 
L 58.194086 188.988728 
L 59.697247 196.371547 
L 62.812334 208.049723 
L 64.390669 212.924186 
L 70.501122 228.262409 
L 73.57873 234.617583 
L 76.374324 239.851271 
L 80.98021 247.602228 
L 81.489362 248.402645 
L 81.745672 248.801747 
L 81.874259 249.001019 
" clip-path="url(#pe60312ee8d)" style="fill: none; stroke: #0000ff; stroke-linecap: square"/>
   </g>
   <g id="line2d_57">
    <path d="M 76.494558 255.141174 
L 77.993095 257.357307 
L 82.54449 263.665945 
L 90.726408 273.676394 
L 94.949269 278.291597 
L 102.230072 285.519039 
L 111.518917 293.601356 
L 117.823076 298.464524 
L 126.764256 304.612319 
L 131.977589 307.829881 
L 144.726254 314.679526 
L 151.758319 317.891239 
L 156.768611 319.951826 
L 170.319564 324.634461 
L 182.295809 327.756241 
L 194.365023 329.993295 
L 203.763449 331.126765 
L 205.484299 331.277654 
L 215.127191 331.802175 
L 218.41117 331.857004 
L 219.405282 331.861228 
L 219.902343 331.861184 
L 220.150873 331.860623 
" clip-path="url(#pe60312ee8d)" style="fill: none; stroke: #0000ff; stroke-linecap: square"/>
   </g>
   <g id="line2d_58">
    <path d="M 222.501316 338.953846 
L 233.305562 338.45427 
L 237.547031 338.078715 
L 246.360181 336.97113 
L 258.628357 334.679119 
L 268.607934 332.148743 
L 277.342426 329.42154 
L 291.007954 324.134703 
L 298.05443 320.888117 
L 304.891003 317.373185 
L 321.996971 306.825899 
L 325.780475 304.115182 
L 335.398098 296.512237 
L 341.219374 291.355826 
L 353.113228 279.254629 
L 353.581629 278.728459 
L 360.82616 270.017754 
L 369.579306 257.757529 
L 370.142362 256.888764 
L 370.422003 256.453164 
L 370.561351 256.235061 
" clip-path="url(#pe60312ee8d)" style="fill: none; stroke: #0000ff; stroke-linecap: square"/>
   </g>
   <g id="line2d_59">
    <path d="M 377.32271 257.684975 
L 377.535524 257.340743 
L 379.955957 253.302228 
L 386.90087 240.19522 
L 389.414319 234.729875 
L 394.855993 220.895387 
L 396.961575 214.464908 
L 401.281026 197.645049 
L 401.731227 195.405693 
L 403.473253 184.837431 
L 404.695491 172.919576 
L 405.148532 159.962641 
" clip-path="url(#pe60312ee8d)" style="fill: none; stroke: #0000ff; stroke-linecap: square"/>
   </g>
   <g id="patch_3">
    <path d="M 219.63863 345.6 
L 219.63863 0 
" style="fill: none; stroke: #000000; stroke-width: 0.8; stroke-linejoin: miter; stroke-linecap: square"/>
   </g>
   <g id="patch_4">
    <path d="M 48.661527 159.962641 
L 412.138473 159.962641 
" style="fill: none; stroke: #000000; stroke-width: 0.8; stroke-linejoin: miter; stroke-linecap: square"/>
   </g>
  </g>
 </g>
 <defs>
  <clipPath id="pe60312ee8d">
   <rect x="48.661527" y="0" width="363.476947" height="345.6"/>
  </clipPath>
 </defs>
</svg>
