<?xml version="1.0" encoding="utf-8" standalone="no"?>
<!DOCTYPE svg PUBLIC "-//W3C//DTD SVG 1.1//EN"
  "http://www.w3.org/Graphics/SVG/1.1/DTD/svg11.dtd">
<svg xmlns:xlink="http://www.w3.org/1999/xlink" width="460.8pt" height="345.6pt" viewBox="0 0 460.8 345.6" xmlns="http://www.w3.org/2000/svg" version="1.1">
 <metadata>
  <rdf:RDF xmlns:dc="http://purl.org/dc/elements/1.1/" xmlns:cc="http://creativecommons.org/ns#" xmlns:rdf="http://www.w3.org/1999/02/22-rdf-syntax-ns#">
   <cc:Work>
    <dc:type rdf:resource="http://purl.org/dc/dcmitype/StillImage"/>
    <dc:date>2025-08-01T22:09:26.201723</dc:date>
    <dc:format>image/svg+xml</dc:format>
    <dc:creator>
     <cc:Agent>
      <dc:title>Matplotlib v3.10.3, https://matplotlib.org/</dc:title>
     </cc:Agent>
    </dc:creator>
   </cc:Work>
  </rdf:RDF>
 </metadata>
 <defs>
  <style type="text/css">*{stroke-linejoin: round; stroke-linecap: butt}</style>
 </defs>
 <g id="figure_1">
  <g id="patch_1">
   <path d="M 0 345.6 
L 460.8 345.6 
L 460.8 0 
L 0 0 
z
" style="fill: #ffffff"/>
  </g>
  <g id="axes_1">
   <g id="patch_2">
    <path d="M 3.829171 287.042987 
L 460.8 287.042987 
L 460.8 58.557013 
L 3.829171 58.557013 
z
" style="fill: #ffffff"/>
   </g>
   <g id="matplotlib.axis_1">
    <g id="xtick_1">
     <g id="line2d_1">
      <defs>
       <path id="m2be772c815" d="M 0 0 
L 0 3.5 
" style="stroke: #000000; stroke-width: 0.8"/>
      </defs>
      <g>
       <use xlink:href="#m2be772c815" x="12.614328" y="172.799629" style="stroke: #000000; stroke-width: 0.8"/>
      </g>
     </g>
     <g id="text_1">
      <!-- −1.0 -->
      <g transform="translate(0.472922 187.398067) scale(0.1 -0.1)">
       <defs>
        <path id="DejaVuSans-2212" d="M 678 2272 
L 4684 2272 
L 4684 1741 
L 678 1741 
L 678 2272 
z
" transform="scale(0.015625)"/>
        <path id="DejaVuSans-31" d="M 794 531 
L 1825 531 
L 1825 4091 
L 703 3866 
L 703 4441 
L 1819 4666 
L 2450 4666 
L 2450 531 
L 3481 531 
L 3481 0 
L 794 0 
L 794 531 
z
" transform="scale(0.015625)"/>
        <path id="DejaVuSans-2e" d="M 684 794 
L 1344 794 
L 1344 0 
L 684 0 
L 684 794 
z
" transform="scale(0.015625)"/>
        <path id="DejaVuSans-30" d="M 2034 4250 
Q 1547 4250 1301 3770 
Q 1056 3291 1056 2328 
Q 1056 1369 1301 889 
Q 1547 409 2034 409 
Q 2525 409 2770 889 
Q 3016 1369 3016 2328 
Q 3016 3291 2770 3770 
Q 2525 4250 2034 4250 
z
M 2034 4750 
Q 2819 4750 3233 4129 
Q 3647 3509 3647 2328 
Q 3647 1150 3233 529 
Q 2819 -91 2034 -91 
Q 1250 -91 836 529 
Q 422 1150 422 2328 
Q 422 3509 836 4129 
Q 1250 4750 2034 4750 
z
" transform="scale(0.015625)"/>
       </defs>
       <use xlink:href="#DejaVuSans-2212"/>
       <use xlink:href="#DejaVuSans-31" transform="translate(83.789062 0)"/>
       <use xlink:href="#DejaVuSans-2e" transform="translate(147.412109 0)"/>
       <use xlink:href="#DejaVuSans-30" transform="translate(179.199219 0)"/>
      </g>
     </g>
    </g>
    <g id="xtick_2">
     <g id="line2d_2">
      <g>
       <use xlink:href="#m2be772c815" x="122.463771" y="172.799629" style="stroke: #000000; stroke-width: 0.8"/>
      </g>
     </g>
     <g id="text_2">
      <!-- −0.5 -->
      <g transform="translate(110.322364 187.398067) scale(0.1 -0.1)">
       <defs>
        <path id="DejaVuSans-35" d="M 691 4666 
L 3169 4666 
L 3169 4134 
L 1269 4134 
L 1269 2991 
Q 1406 3038 1543 3061 
Q 1681 3084 1819 3084 
Q 2600 3084 3056 2656 
Q 3513 2228 3513 1497 
Q 3513 744 3044 326 
Q 2575 -91 1722 -91 
Q 1428 -91 1123 -41 
Q 819 9 494 109 
L 494 744 
Q 775 591 1075 516 
Q 1375 441 1709 441 
Q 2250 441 2565 725 
Q 2881 1009 2881 1497 
Q 2881 1984 2565 2268 
Q 2250 2553 1709 2553 
Q 1456 2553 1204 2497 
Q 953 2441 691 2322 
L 691 4666 
z
" transform="scale(0.015625)"/>
       </defs>
       <use xlink:href="#DejaVuSans-2212"/>
       <use xlink:href="#DejaVuSans-30" transform="translate(83.789062 0)"/>
       <use xlink:href="#DejaVuSans-2e" transform="translate(147.412109 0)"/>
       <use xlink:href="#DejaVuSans-35" transform="translate(179.199219 0)"/>
      </g>
     </g>
    </g>
    <g id="xtick_3">
     <g id="line2d_3">
      <g>
       <use xlink:href="#m2be772c815" x="232.313214" y="172.799629" style="stroke: #000000; stroke-width: 0.8"/>
      </g>
     </g>
    </g>
    <g id="xtick_4">
     <g id="line2d_4">
      <g>
       <use xlink:href="#m2be772c815" x="342.162657" y="172.799629" style="stroke: #000000; stroke-width: 0.8"/>
      </g>
     </g>
     <g id="text_3">
      <!-- 0.5 -->
      <g transform="translate(334.211094 187.398067) scale(0.1 -0.1)">
       <use xlink:href="#DejaVuSans-30"/>
       <use xlink:href="#DejaVuSans-2e" transform="translate(63.623047 0)"/>
       <use xlink:href="#DejaVuSans-35" transform="translate(95.410156 0)"/>
      </g>
     </g>
    </g>
    <g id="xtick_5">
     <g id="line2d_5">
      <g>
       <use xlink:href="#m2be772c815" x="452.012099" y="172.799629" style="stroke: #000000; stroke-width: 0.8"/>
      </g>
     </g>
     <g id="text_4">
      <!-- 1.0 -->
      <g transform="translate(444.060537 187.398067) scale(0.1 -0.1)">
       <use xlink:href="#DejaVuSans-31"/>
       <use xlink:href="#DejaVuSans-2e" transform="translate(63.623047 0)"/>
       <use xlink:href="#DejaVuSans-30" transform="translate(95.410156 0)"/>
      </g>
     </g>
    </g>
    <g id="xtick_6">
     <g id="line2d_6">
      <defs>
       <path id="m3f27258a8a" d="M 0 0 
L 0 2 
" style="stroke: #000000; stroke-width: 0.6"/>
      </defs>
      <g>
       <use xlink:href="#m3f27258a8a" x="34.584216" y="172.799629" style="stroke: #000000; stroke-width: 0.6"/>
      </g>
     </g>
    </g>
    <g id="xtick_7">
     <g id="line2d_7">
      <g>
       <use xlink:href="#m3f27258a8a" x="56.554105" y="172.799629" style="stroke: #000000; stroke-width: 0.6"/>
      </g>
     </g>
    </g>
    <g id="xtick_8">
     <g id="line2d_8">
      <g>
       <use xlink:href="#m3f27258a8a" x="78.523994" y="172.799629" style="stroke: #000000; stroke-width: 0.6"/>
      </g>
     </g>
    </g>
    <g id="xtick_9">
     <g id="line2d_9">
      <g>
       <use xlink:href="#m3f27258a8a" x="100.493882" y="172.799629" style="stroke: #000000; stroke-width: 0.6"/>
      </g>
     </g>
    </g>
    <g id="xtick_10">
     <g id="line2d_10">
      <g>
       <use xlink:href="#m3f27258a8a" x="144.433659" y="172.799629" style="stroke: #000000; stroke-width: 0.6"/>
      </g>
     </g>
    </g>
    <g id="xtick_11">
     <g id="line2d_11">
      <g>
       <use xlink:href="#m3f27258a8a" x="166.403548" y="172.799629" style="stroke: #000000; stroke-width: 0.6"/>
      </g>
     </g>
    </g>
    <g id="xtick_12">
     <g id="line2d_12">
      <g>
       <use xlink:href="#m3f27258a8a" x="188.373436" y="172.799629" style="stroke: #000000; stroke-width: 0.6"/>
      </g>
     </g>
    </g>
    <g id="xtick_13">
     <g id="line2d_13">
      <g>
       <use xlink:href="#m3f27258a8a" x="210.343325" y="172.799629" style="stroke: #000000; stroke-width: 0.6"/>
      </g>
     </g>
    </g>
    <g id="xtick_14">
     <g id="line2d_14">
      <g>
       <use xlink:href="#m3f27258a8a" x="254.283102" y="172.799629" style="stroke: #000000; stroke-width: 0.6"/>
      </g>
     </g>
    </g>
    <g id="xtick_15">
     <g id="line2d_15">
      <g>
       <use xlink:href="#m3f27258a8a" x="276.252991" y="172.799629" style="stroke: #000000; stroke-width: 0.6"/>
      </g>
     </g>
    </g>
    <g id="xtick_16">
     <g id="line2d_16">
      <g>
       <use xlink:href="#m3f27258a8a" x="298.222879" y="172.799629" style="stroke: #000000; stroke-width: 0.6"/>
      </g>
     </g>
    </g>
    <g id="xtick_17">
     <g id="line2d_17">
      <g>
       <use xlink:href="#m3f27258a8a" x="320.192768" y="172.799629" style="stroke: #000000; stroke-width: 0.6"/>
      </g>
     </g>
    </g>
    <g id="xtick_18">
     <g id="line2d_18">
      <g>
       <use xlink:href="#m3f27258a8a" x="364.132545" y="172.799629" style="stroke: #000000; stroke-width: 0.6"/>
      </g>
     </g>
    </g>
    <g id="xtick_19">
     <g id="line2d_19">
      <g>
       <use xlink:href="#m3f27258a8a" x="386.102434" y="172.799629" style="stroke: #000000; stroke-width: 0.6"/>
      </g>
     </g>
    </g>
    <g id="xtick_20">
     <g id="line2d_20">
      <g>
       <use xlink:href="#m3f27258a8a" x="408.072322" y="172.799629" style="stroke: #000000; stroke-width: 0.6"/>
      </g>
     </g>
    </g>
    <g id="xtick_21">
     <g id="line2d_21">
      <g>
       <use xlink:href="#m3f27258a8a" x="430.042211" y="172.799629" style="stroke: #000000; stroke-width: 0.6"/>
      </g>
     </g>
    </g>
   </g>
   <g id="matplotlib.axis_2">
    <g id="ytick_1">
     <g id="line2d_22">
      <defs>
       <path id="m1cb667ee7c" d="M 0 0 
L -3.5 0 
" style="stroke: #000000; stroke-width: 0.8"/>
      </defs>
      <g>
       <use xlink:href="#m1cb667ee7c" x="232.313214" y="260.679184" style="stroke: #000000; stroke-width: 0.8"/>
      </g>
     </g>
     <g id="text_5">
      <!-- −0.4 -->
      <g transform="translate(201.030401 264.478402) scale(0.1 -0.1)">
       <defs>
        <path id="DejaVuSans-34" d="M 2419 4116 
L 825 1625 
L 2419 1625 
L 2419 4116 
z
M 2253 4666 
L 3047 4666 
L 3047 1625 
L 3713 1625 
L 3713 1100 
L 3047 1100 
L 3047 0 
L 2419 0 
L 2419 1100 
L 313 1100 
L 313 1709 
L 2253 4666 
z
" transform="scale(0.015625)"/>
       </defs>
       <use xlink:href="#DejaVuSans-2212"/>
       <use xlink:href="#DejaVuSans-30" transform="translate(83.789062 0)"/>
       <use xlink:href="#DejaVuSans-2e" transform="translate(147.412109 0)"/>
       <use xlink:href="#DejaVuSans-34" transform="translate(179.199219 0)"/>
      </g>
     </g>
    </g>
    <g id="ytick_2">
     <g id="line2d_23">
      <g>
       <use xlink:href="#m1cb667ee7c" x="232.313214" y="216.739406" style="stroke: #000000; stroke-width: 0.8"/>
      </g>
     </g>
     <g id="text_6">
      <!-- −0.2 -->
      <g transform="translate(201.030401 220.538625) scale(0.1 -0.1)">
       <defs>
        <path id="DejaVuSans-32" d="M 1228 531 
L 3431 531 
L 3431 0 
L 469 0 
L 469 531 
Q 828 903 1448 1529 
Q 2069 2156 2228 2338 
Q 2531 2678 2651 2914 
Q 2772 3150 2772 3378 
Q 2772 3750 2511 3984 
Q 2250 4219 1831 4219 
Q 1534 4219 1204 4116 
Q 875 4013 500 3803 
L 500 4441 
Q 881 4594 1212 4672 
Q 1544 4750 1819 4750 
Q 2544 4750 2975 4387 
Q 3406 4025 3406 3419 
Q 3406 3131 3298 2873 
Q 3191 2616 2906 2266 
Q 2828 2175 2409 1742 
Q 1991 1309 1228 531 
z
" transform="scale(0.015625)"/>
       </defs>
       <use xlink:href="#DejaVuSans-2212"/>
       <use xlink:href="#DejaVuSans-30" transform="translate(83.789062 0)"/>
       <use xlink:href="#DejaVuSans-2e" transform="translate(147.412109 0)"/>
       <use xlink:href="#DejaVuSans-32" transform="translate(179.199219 0)"/>
      </g>
     </g>
    </g>
    <g id="ytick_3">
     <g id="line2d_24">
      <g>
       <use xlink:href="#m1cb667ee7c" x="232.313214" y="172.799629" style="stroke: #000000; stroke-width: 0.8"/>
      </g>
     </g>
    </g>
    <g id="ytick_4">
     <g id="line2d_25">
      <g>
       <use xlink:href="#m1cb667ee7c" x="232.313214" y="128.859852" style="stroke: #000000; stroke-width: 0.8"/>
      </g>
     </g>
     <g id="text_7">
      <!-- 0.2 -->
      <g transform="translate(209.410089 132.659071) scale(0.1 -0.1)">
       <use xlink:href="#DejaVuSans-30"/>
       <use xlink:href="#DejaVuSans-2e" transform="translate(63.623047 0)"/>
       <use xlink:href="#DejaVuSans-32" transform="translate(95.410156 0)"/>
      </g>
     </g>
    </g>
    <g id="ytick_5">
     <g id="line2d_26">
      <g>
       <use xlink:href="#m1cb667ee7c" x="232.313214" y="84.920075" style="stroke: #000000; stroke-width: 0.8"/>
      </g>
     </g>
     <g id="text_8">
      <!-- 0.4 -->
      <g transform="translate(209.410089 88.719294) scale(0.1 -0.1)">
       <use xlink:href="#DejaVuSans-30"/>
       <use xlink:href="#DejaVuSans-2e" transform="translate(63.623047 0)"/>
       <use xlink:href="#DejaVuSans-34" transform="translate(95.410156 0)"/>
      </g>
     </g>
    </g>
    <g id="ytick_6">
     <g id="line2d_27">
      <defs>
       <path id="m50278cff54" d="M 0 0 
L -2 0 
" style="stroke: #000000; stroke-width: 0.6"/>
      </defs>
      <g>
       <use xlink:href="#m50278cff54" x="232.313214" y="282.649072" style="stroke: #000000; stroke-width: 0.6"/>
      </g>
     </g>
    </g>
    <g id="ytick_7">
     <g id="line2d_28">
      <g>
       <use xlink:href="#m50278cff54" x="232.313214" y="271.664128" style="stroke: #000000; stroke-width: 0.6"/>
      </g>
     </g>
    </g>
    <g id="ytick_8">
     <g id="line2d_29">
      <g>
       <use xlink:href="#m50278cff54" x="232.313214" y="249.694239" style="stroke: #000000; stroke-width: 0.6"/>
      </g>
     </g>
    </g>
    <g id="ytick_9">
     <g id="line2d_30">
      <g>
       <use xlink:href="#m50278cff54" x="232.313214" y="238.709295" style="stroke: #000000; stroke-width: 0.6"/>
      </g>
     </g>
    </g>
    <g id="ytick_10">
     <g id="line2d_31">
      <g>
       <use xlink:href="#m50278cff54" x="232.313214" y="227.724351" style="stroke: #000000; stroke-width: 0.6"/>
      </g>
     </g>
    </g>
    <g id="ytick_11">
     <g id="line2d_32">
      <g>
       <use xlink:href="#m50278cff54" x="232.313214" y="205.754462" style="stroke: #000000; stroke-width: 0.6"/>
      </g>
     </g>
    </g>
    <g id="ytick_12">
     <g id="line2d_33">
      <g>
       <use xlink:href="#m50278cff54" x="232.313214" y="194.769518" style="stroke: #000000; stroke-width: 0.6"/>
      </g>
     </g>
    </g>
    <g id="ytick_13">
     <g id="line2d_34">
      <g>
       <use xlink:href="#m50278cff54" x="232.313214" y="183.784574" style="stroke: #000000; stroke-width: 0.6"/>
      </g>
     </g>
    </g>
    <g id="ytick_14">
     <g id="line2d_35">
      <g>
       <use xlink:href="#m50278cff54" x="232.313214" y="161.814685" style="stroke: #000000; stroke-width: 0.6"/>
      </g>
     </g>
    </g>
    <g id="ytick_15">
     <g id="line2d_36">
      <g>
       <use xlink:href="#m50278cff54" x="232.313214" y="150.829741" style="stroke: #000000; stroke-width: 0.6"/>
      </g>
     </g>
    </g>
    <g id="ytick_16">
     <g id="line2d_37">
      <g>
       <use xlink:href="#m50278cff54" x="232.313214" y="139.844796" style="stroke: #000000; stroke-width: 0.6"/>
      </g>
     </g>
    </g>
    <g id="ytick_17">
     <g id="line2d_38">
      <g>
       <use xlink:href="#m50278cff54" x="232.313214" y="117.874908" style="stroke: #000000; stroke-width: 0.6"/>
      </g>
     </g>
    </g>
    <g id="ytick_18">
     <g id="line2d_39">
      <g>
       <use xlink:href="#m50278cff54" x="232.313214" y="106.889964" style="stroke: #000000; stroke-width: 0.6"/>
      </g>
     </g>
    </g>
    <g id="ytick_19">
     <g id="line2d_40">
      <g>
       <use xlink:href="#m50278cff54" x="232.313214" y="95.905019" style="stroke: #000000; stroke-width: 0.6"/>
      </g>
     </g>
    </g>
    <g id="ytick_20">
     <g id="line2d_41">
      <g>
       <use xlink:href="#m50278cff54" x="232.313214" y="73.935131" style="stroke: #000000; stroke-width: 0.6"/>
      </g>
     </g>
    </g>
    <g id="ytick_21">
     <g id="line2d_42">
      <g>
       <use xlink:href="#m50278cff54" x="232.313214" y="62.950186" style="stroke: #000000; stroke-width: 0.6"/>
      </g>
     </g>
    </g>
   </g>
   <g id="line2d_43">
    <path d="M 452.012099 172.799629 
L 451.859931 167.01966 
L 451.421791 161.426783 
L 450.698687 155.863568 
L 449.608181 149.944445 
L 448.588809 145.589813 
L 447.113365 140.361243 
L 445.167459 134.63013 
L 442.694276 128.524426 
L 439.820425 122.501912 
L 434.374835 113.101938 
L 432.602152 110.449026 
L 427.990774 104.239916 
L 421.411743 96.730697 
L 416.804991 92.205448 
L 411.651182 87.721754 
L 405.401338 82.978867 
L 399.813826 79.294321 
L 396.150941 77.132679 
L 385.938187 72.049428 
L 382.329146 70.55701 
L 376.518997 68.461036 
L 369.242364 66.340296 
L 363.785219 65.099281 
L 354.298372 63.622596 
L 351.330918 63.333456 
L 340.870617 62.957785 
L 336.707195 63.085737 
L 325.543951 64.214553 
L 323.170606 64.604425 
L 312.680899 66.980321 
L 307.883711 68.435584 
L 299.49512 71.575218 
L 296.833201 72.738945 
L 285.734203 78.551395 
L 281.148324 81.453303 
L 274.892258 85.957281 
L 269.851443 90.107498 
L 266.766872 92.909856 
L 262.76027 96.890729 
L 255.937223 104.740282 
L 250.959587 111.571366 
L 248.633657 115.186901 
L 244.838312 121.859743 
L 243.188713 125.144005 
L 239.975483 132.492289 
L 238.058088 137.740552 
L 235.487042 146.584874 
L 233.645825 155.740986 
L 232.951448 160.975414 
L 232.322275 171.388741 
L 232.313194 172.73432 
L 232.263257 169.487103 
L 232.019337 164.769813 
L 231.50147 159.469953 
L 229.889227 149.850304 
L 228.063376 142.540359 
L 227.072759 139.275612 
L 225.050416 133.520115 
L 221.864096 126.039866 
L 217.820432 118.265171 
L 212.483594 109.844633 
L 207.96687 103.835 
L 203.301821 98.421476 
L 198.291498 93.31972 
L 191.702537 87.518369 
L 186.010064 83.196232 
L 177.377454 77.660849 
L 169.647272 73.599743 
L 161.176691 69.99783 
L 153.708735 67.487463 
L 145.612882 65.417048 
L 139.409132 64.26505 
L 132.088058 63.372607 
L 122.879778 62.950974 
L 111.699602 63.47885 
L 107.325399 63.998297 
L 99.561694 65.364091 
L 90.734498 67.632365 
L 86.70911 68.931904 
L 78.444365 72.155742 
L 75.929693 73.29345 
L 65.872109 78.649303 
L 58.700888 83.35023 
L 55.205462 85.947916 
L 52.510851 88.103177 
L 45.324963 94.591545 
L 38.121178 102.420462 
L 33.969117 107.71817 
L 30.01619 113.467135 
L 26.415197 119.493236 
L 25.121141 121.894692 
L 22.434747 127.40035 
L 19.329942 134.980145 
L 17.608713 140.053377 
L 14.900144 150.506887 
L 14.170872 154.372797 
L 12.798967 166.433243 
L 12.617072 173.576079 
L 12.84461 179.908762 
L 13.436925 186.217787 
L 13.869989 189.361351 
L 15.676535 198.555916 
L 18.293533 207.6631 
L 20.997424 214.88859 
L 24.248641 222.000122 
L 27.863502 228.635901 
L 33.662169 237.461641 
L 35.378426 239.755158 
L 39.701152 245.030156 
L 43.269198 248.925313 
L 50.013631 255.370068 
L 54.798011 259.334276 
L 63.414741 265.428524 
L 69.268305 268.909683 
L 75.70603 272.200906 
L 79.769812 274.012899 
L 87.751187 277.020245 
L 92.217183 278.402868 
L 100.679954 280.467477 
L 106.938798 281.54647 
L 115.562363 282.432064 
L 119.641657 282.612815 
L 124.979289 282.620266 
L 133.6445 282.078591 
L 143.5251 280.611134 
L 148.739166 279.460324 
L 153.666877 278.124205 
L 160.331032 275.915926 
L 164.44041 274.312495 
L 172.976202 270.346512 
L 181.255248 265.592206 
L 185.09796 263.042958 
L 191.068061 258.59212 
L 195.278324 255.04889 
L 198.730429 251.858449 
L 206.541652 243.49482 
L 210.085086 239.052216 
L 213.602951 234.122953 
L 216.645694 229.33869 
L 221.458665 220.411717 
L 222.570243 218.027875 
L 225.406017 211.137523 
L 228.841305 200.198905 
L 229.906187 195.669419 
L 231.114656 188.982499 
L 232.07183 180.077914 
L 232.313214 172.80468 
L 232.327375 174.563459 
L 233.077259 185.733158 
L 234.45544 194.387952 
L 235.198282 197.810081 
L 236.875746 204.129593 
L 238.48238 209.094263 
L 242.151331 218.237882 
L 244.557077 223.198547 
L 249.39527 231.630847 
L 251.298663 234.529968 
L 256.477839 241.538353 
L 263.588245 249.56526 
L 268.972654 254.714974 
L 275.484174 260.097282 
L 284.370795 266.218047 
L 291.113914 270.066921 
L 298.607168 273.645152 
L 308.376891 277.324374 
L 314.566194 279.12618 
L 323.875788 281.116251 
L 329.207422 281.882451 
L 335.995884 282.475839 
L 342.263423 282.649026 
L 350.830038 282.3066 
L 353.189417 282.094234 
L 362.598367 280.731468 
L 370.318386 278.979453 
L 376.632532 277.100769 
L 382.852702 274.835017 
L 389.859794 271.753574 
L 392.946758 270.205354 
L 398.290534 267.227175 
L 403.46023 263.95613 
L 406.271161 262.001646 
L 410.788282 258.575055 
L 420.162423 250.149074 
L 424.571104 245.433974 
L 430.541756 238.037922 
L 436.275329 229.453887 
L 438.753849 225.116372 
L 440.209573 222.334488 
L 443.533277 215.118625 
L 445.571598 209.860267 
L 447.655456 203.429179 
L 449.316228 196.986657 
L 450.583934 190.455411 
L 451.458634 183.812778 
L 451.930003 177.045773 
L 452.012099 172.799629 
L 452.012099 172.799629 
" clip-path="url(#p208503b9c0)" style="fill: none; stroke: #ff0000; stroke-linecap: square"/>
   </g>
   <g id="patch_3">
    <path d="M 232.313214 287.042987 
L 232.313214 58.557013 
" style="fill: none; stroke: #000000; stroke-width: 0.8; stroke-linejoin: miter; stroke-linecap: square"/>
   </g>
   <g id="patch_4">
    <path d="M 3.829171 172.799629 
L 460.8 172.799629 
" style="fill: none; stroke: #000000; stroke-width: 0.8; stroke-linejoin: miter; stroke-linecap: square"/>
   </g>
  </g>
 </g>
 <defs>
  <clipPath id="p208503b9c0">
   <rect x="3.829171" y="58.557013" width="456.970829" height="228.485974"/>
  </clipPath>
 </defs>
</svg>
