<?xml version="1.0" encoding="utf-8" standalone="no"?>
<!DOCTYPE svg PUBLIC "-//W3C//DTD SVG 1.1//EN"
  "http://www.w3.org/Graphics/SVG/1.1/DTD/svg11.dtd">
<svg xmlns:xlink="http://www.w3.org/1999/xlink" width="460.8pt" height="345.6pt" viewBox="0 0 460.8 345.6" xmlns="http://www.w3.org/2000/svg" version="1.1">
 <metadata>
  <rdf:RDF xmlns:dc="http://purl.org/dc/elements/1.1/" xmlns:cc="http://creativecommons.org/ns#" xmlns:rdf="http://www.w3.org/1999/02/22-rdf-syntax-ns#">
   <cc:Work>
    <dc:type rdf:resource="http://purl.org/dc/dcmitype/StillImage"/>
    <dc:date>2025-08-02T22:45:52.022073</dc:date>
    <dc:format>image/svg+xml</dc:format>
    <dc:creator>
     <cc:Agent>
      <dc:title>Matplotlib v3.10.3, https://matplotlib.org/</dc:title>
     </cc:Agent>
    </dc:creator>
   </cc:Work>
  </rdf:RDF>
 </metadata>
 <defs>
  <style type="text/css">*{stroke-linejoin: round; stroke-linecap: butt}</style>
 </defs>
 <g id="figure_1">
  <g id="patch_1">
   <path d="M 0 345.6 
L 460.8 345.6 
L 460.8 0 
L 0 0 
z
" style="fill: #ffffff"/>
  </g>
  <g id="axes_1">
   <g id="patch_2">
    <path d="M 65.281685 345.6 
L 395.518315 345.6 
L 395.518315 0 
L 65.281685 0 
z
" style="fill: #ffffff"/>
   </g>
   <g id="patch_3">
    <path d="M 389.167611 172.757787 
L 389.059589 171.090207 
L 388.735845 169.433323 
L 388.060654 167.46636 
L 387.07664 165.548893 
L 385.717098 163.610527 
L 384.602681 162.343832 
L 383.338225 161.1277 
L 380.370591 158.872049 
L 378.307107 157.64199 
L 374.658765 155.932553 
L 370.54784 154.53408 
L 367.234844 153.721547 
L 363.266766 153.051453 
L 359.043783 152.649815 
L 353.460826 152.547241 
L 346.75195 152.993683 
L 339.709008 154.065909 
L 338.299749 154.350525 
L 329.741075 156.56104 
L 320.97855 159.663945 
L 305.236388 167.394908 
L 299.492152 170.944425 
L 293.245905 175.286623 
L 287.637397 179.649204 
L 282.18684 184.35188 
L 277.226727 189.073286 
L 272.458515 194.060566 
L 269.231125 197.718086 
L 263.697477 204.605399 
L 258.379826 212.111664 
L 253.548216 219.910512 
L 249.334722 227.743983 
L 246.247801 234.334872 
L 243.527879 240.999592 
L 241.954622 245.372683 
L 240.543099 249.75189 
L 239.290599 254.141467 
L 237.65473 261.006959 
L 236.424554 267.797113 
L 235.84237 272.137827 
L 235.427126 276.41962 
L 235.146088 281.455724 
L 235.09585 286.374487 
L 235.289511 291.473255 
L 235.729443 296.398397 
L 236.319087 300.616845 
L 237.086845 304.669218 
L 237.455182 306.297316 
L 238.534799 310.350305 
L 239.790557 314.178823 
L 241.339271 318.069476 
L 243.061665 321.663507 
L 245.881197 326.398645 
L 251.04684 332.587649 
L 255.149677 335.853631 
L 256.985663 336.92344 
L 263.653204 338.928241 
L 265.493659 338.953846 
L 269.692196 338.034515 
L 273.158086 335.983623 
L 275.464324 333.656896 
L 277.015552 331.395529 
L 278.308899 328.773821 
L 279.51738 325.060107 
L 280.033517 322.502149 
L 280.356554 319.771179 
L 280.477829 316.30853 
L 280.300613 312.639398 
L 279.935952 309.566622 
L 278.993094 304.706565 
L 278.266643 301.933242 
L 277.391559 299.106247 
L 276.366502 296.233149 
L 275.19052 293.321594 
L 273.292746 289.201839 
L 271.098803 285.043113 
L 268.431958 280.585395 
L 265.764727 276.601827 
L 262.835271 272.640648 
L 259.980618 269.111832 
L 256.922361 265.628403 
L 251.846138 260.400264 
L 246.325539 255.352152 
L 241.620788 251.482372 
L 236.237781 247.469965 
L 230.581195 243.670863 
L 228.434451 242.330488 
L 220.020071 237.56287 
L 211.206173 233.320073 
L 207.676925 231.817689 
L 198.510125 228.402248 
L 189.132975 225.593567 
L 185.082087 224.584479 
L 171.183682 222.024888 
L 166.51297 221.473346 
L 152.675741 220.750121 
L 139.764339 221.339106 
L 133.109245 222.148318 
L 126.66284 223.285094 
L 122.001044 224.33875 
L 117.486323 225.558532 
L 115.44063 226.179929 
L 111.143879 227.634577 
L 107.024899 229.234416 
L 101.08906 231.940579 
L 95.630539 234.92254 
L 92.192672 237.095983 
L 89.094349 239.293531 
L 86.234813 241.565999 
L 82.392559 245.09853 
L 79.123095 248.719631 
L 77.298195 251.115149 
L 75.726683 253.512496 
L 74.003763 256.737933 
L 73.006658 259.153673 
L 72.037603 262.573635 
L 71.632389 265.838758 
L 71.690693 268.148349 
L 72.050472 270.325918 
L 72.811447 272.608269 
L 73.934789 274.671521 
L 74.757439 275.771465 
L 76.497192 277.498413 
L 78.579689 278.920948 
L 80.680637 279.903732 
L 83.012183 280.617277 
L 85.859469 281.07909 
L 89.057781 281.170303 
L 93.428276 280.695942 
L 98.08858 279.539106 
L 102.841952 277.73879 
L 105.171472 276.639217 
L 114.662902 270.700498 
L 117.629923 268.348799 
L 122.921975 263.517695 
L 127.363794 258.768072 
L 131.647508 253.494077 
L 137.27038 245.309341 
L 139.360652 241.816176 
L 143.545181 233.862736 
L 147.25407 225.359951 
L 149.703973 218.620608 
L 151.686614 212.153497 
L 153.561763 204.676969 
L 154.697389 199.033862 
L 155.614035 193.308905 
L 156.603318 184.160412 
L 157.024265 174.923373 
L 156.974891 168.351059 
L 156.636501 161.796013 
L 156.442238 159.422498 
L 155.710139 152.906176 
L 154.694928 146.468088 
L 153.248401 139.460267 
L 151.474442 132.612588 
L 149.705203 126.898652 
L 147.71654 121.345423 
L 145.871541 116.786951 
L 143.233922 111.00941 
L 139.917098 104.678145 
L 136.335325 98.730099 
L 129.779482 89.630716 
L 124.362425 83.464388 
L 121.249319 80.378723 
L 113.044914 73.6347 
L 107.344562 70.028718 
L 102.188765 67.493839 
L 96.460028 65.501078 
L 93.171499 64.774587 
L 90.032529 64.395037 
L 87.103926 64.352079 
L 84.367825 64.628474 
L 80.500395 65.682107 
L 79.441594 66.145762 
L 76.893477 67.702571 
L 74.808612 69.683162 
L 73.34292 71.820782 
L 72.476593 73.756366 
L 71.905168 75.859718 
L 71.649677 77.897972 
L 71.65341 80.088538 
L 71.929359 82.375496 
L 72.4166 84.512512 
L 73.131967 86.702767 
L 74.695883 90.175927 
L 76.813684 93.700889 
L 78.76409 96.350571 
L 81.021892 98.983649 
L 82.924418 100.945629 
L 84.996942 102.879008 
L 89.114291 106.237009 
L 93.746206 109.433359 
L 96.793562 111.273321 
L 100.015422 113.029008 
L 102.250056 114.144886 
L 109.093223 117.110922 
L 116.483889 119.658077 
L 120.116473 120.692336 
L 125.819964 122.054827 
L 131.731753 123.154341 
L 138.79414 124.080654 
L 146.061784 124.620738 
L 149.422429 124.734748 
L 159.849879 124.561404 
L 169.580325 123.697426 
L 179.486747 122.12805 
L 192.248365 119.063063 
L 200.134629 116.557638 
L 209.533513 112.921 
L 218.608216 108.681622 
L 223.54241 106.047457 
L 231.713288 101.116081 
L 237.970876 96.798572 
L 243.876813 92.22295 
L 248.505712 88.24055 
L 252.855885 84.124255 
L 256.151171 80.723073 
L 259.25048 77.261293 
L 259.946471 76.444232 
L 262.585524 73.195696 
L 265.048348 69.918515 
L 267.33198 66.62284 
L 269.434031 63.318945 
L 271.695436 59.392742 
L 273.69545 55.487152 
L 275.070135 52.474137 
L 276.286119 49.492855 
L 277.344119 46.551231 
L 278.245129 43.657452 
L 278.990568 40.819625 
L 279.604581 37.926561 
L 280.053767 35.112095 
L 280.404376 31.449853 
L 280.438842 27.074493 
L 280.036054 23.029401 
L 279.911797 22.299588 
L 279.37231 19.892898 
L 278.666034 17.657997 
L 277.801738 15.604436 
L 276.788763 13.741179 
L 274.567893 10.835457 
L 271.542985 8.400427 
L 268.264529 7.002338 
L 266.452796 6.646154 
L 262.720551 6.690421 
L 256.757625 8.712577 
L 254.483625 10.1076 
L 252.281652 11.810137 
L 248.282641 15.90564 
L 244.354161 21.530765 
L 241.167963 27.841416 
L 239.805156 31.296333 
L 238.592643 34.971295 
L 237.04504 41.041662 
L 235.923375 47.559789 
L 235.488077 51.459423 
L 235.208823 55.478164 
L 235.106375 58.489098 
L 235.226736 65.987456 
L 235.884922 73.741097 
L 236.495163 78.17541 
L 237.28127 82.658812 
L 238.451908 88.060372 
L 239.87586 93.496007 
L 241.193471 97.844393 
L 242.671263 102.191996 
L 244.470879 106.938313 
L 246.458257 111.658901 
L 249.108601 117.316777 
L 252.021643 122.896181 
L 253.892701 126.198387 
L 256.510699 130.513028 
L 259.280153 134.745857 
L 264.657466 142.166465 
L 269.584355 148.209799 
L 274.798533 153.961176 
L 280.412367 159.525641 
L 287.444364 165.707897 
L 294.637862 171.242092 
L 302.023597 176.186012 
L 309.578917 180.538007 
L 314.900408 183.200993 
L 328.84871 188.677162 
L 333.018186 189.897642 
L 343.952343 192.166812 
L 351.129287 192.880223 
L 355.383596 192.984461 
L 359.457367 192.839425 
L 365.312231 192.156864 
L 369.443112 191.280574 
L 373.23726 190.121756 
L 376.406436 188.828394 
L 379.107569 187.422926 
L 381.508762 185.858191 
L 383.519502 184.225143 
L 385.234993 182.480165 
L 386.097272 181.416361 
L 387.127557 179.881623 
L 387.950285 178.301307 
L 388.563047 176.685663 
L 388.964047 175.045058 
L 389.167611 172.757787 
z
" clip-path="url(#pdb913c49ee)" style="fill: #808080; opacity: 0.5"/>
   </g>
   <g id="matplotlib.axis_1">
    <g id="xtick_1">
     <g id="line2d_1">
      <defs>
       <path id="m5ba564681e" d="M 0 0 
L 0 3.5 
" style="stroke: #000000; stroke-width: 0.8"/>
      </defs>
      <g>
       <use xlink:href="#m5ba564681e" x="99.008073" y="172.757787" style="stroke: #000000; stroke-width: 0.8"/>
      </g>
     </g>
     <g id="text_1">
      <!-- −2 -->
      <g transform="translate(91.636979 187.356225) scale(0.1 -0.1)">
       <defs>
        <path id="DejaVuSans-2212" d="M 678 2272 
L 4684 2272 
L 4684 1741 
L 678 1741 
L 678 2272 
z
" transform="scale(0.015625)"/>
        <path id="DejaVuSans-32" d="M 1228 531 
L 3431 531 
L 3431 0 
L 469 0 
L 469 531 
Q 828 903 1448 1529 
Q 2069 2156 2228 2338 
Q 2531 2678 2651 2914 
Q 2772 3150 2772 3378 
Q 2772 3750 2511 3984 
Q 2250 4219 1831 4219 
Q 1534 4219 1204 4116 
Q 875 4013 500 3803 
L 500 4441 
Q 881 4594 1212 4672 
Q 1544 4750 1819 4750 
Q 2544 4750 2975 4387 
Q 3406 4025 3406 3419 
Q 3406 3131 3298 2873 
Q 3191 2616 2906 2266 
Q 2828 2175 2409 1742 
Q 1991 1309 1228 531 
z
" transform="scale(0.015625)"/>
       </defs>
       <use xlink:href="#DejaVuSans-2212"/>
       <use xlink:href="#DejaVuSans-32" transform="translate(83.789062 0)"/>
      </g>
     </g>
    </g>
    <g id="xtick_2">
     <g id="line2d_2">
      <g>
       <use xlink:href="#m5ba564681e" x="157.03998" y="172.757787" style="stroke: #000000; stroke-width: 0.8"/>
      </g>
     </g>
     <g id="text_2">
      <!-- −1 -->
      <g transform="translate(149.668887 187.356225) scale(0.1 -0.1)">
       <defs>
        <path id="DejaVuSans-31" d="M 794 531 
L 1825 531 
L 1825 4091 
L 703 3866 
L 703 4441 
L 1819 4666 
L 2450 4666 
L 2450 531 
L 3481 531 
L 3481 0 
L 794 0 
L 794 531 
z
" transform="scale(0.015625)"/>
       </defs>
       <use xlink:href="#DejaVuSans-2212"/>
       <use xlink:href="#DejaVuSans-31" transform="translate(83.789062 0)"/>
      </g>
     </g>
    </g>
    <g id="xtick_3">
     <g id="line2d_3">
      <g>
       <use xlink:href="#m5ba564681e" x="215.071888" y="172.757787" style="stroke: #000000; stroke-width: 0.8"/>
      </g>
     </g>
    </g>
    <g id="xtick_4">
     <g id="line2d_4">
      <g>
       <use xlink:href="#m5ba564681e" x="273.103796" y="172.757787" style="stroke: #000000; stroke-width: 0.8"/>
      </g>
     </g>
     <g id="text_3">
      <!-- 1 -->
      <g transform="translate(269.922546 187.356225) scale(0.1 -0.1)">
       <use xlink:href="#DejaVuSans-31"/>
      </g>
     </g>
    </g>
    <g id="xtick_5">
     <g id="line2d_5">
      <g>
       <use xlink:href="#m5ba564681e" x="331.135703" y="172.757787" style="stroke: #000000; stroke-width: 0.8"/>
      </g>
     </g>
     <g id="text_4">
      <!-- 2 -->
      <g transform="translate(327.954453 187.356225) scale(0.1 -0.1)">
       <use xlink:href="#DejaVuSans-32"/>
      </g>
     </g>
    </g>
    <g id="xtick_6">
     <g id="line2d_6">
      <g>
       <use xlink:href="#m5ba564681e" x="389.167611" y="172.757787" style="stroke: #000000; stroke-width: 0.8"/>
      </g>
     </g>
     <g id="text_5">
      <!-- 3 -->
      <g transform="translate(385.986361 187.356225) scale(0.1 -0.1)">
       <defs>
        <path id="DejaVuSans-33" d="M 2597 2516 
Q 3050 2419 3304 2112 
Q 3559 1806 3559 1356 
Q 3559 666 3084 287 
Q 2609 -91 1734 -91 
Q 1441 -91 1130 -33 
Q 819 25 488 141 
L 488 750 
Q 750 597 1062 519 
Q 1375 441 1716 441 
Q 2309 441 2620 675 
Q 2931 909 2931 1356 
Q 2931 1769 2642 2001 
Q 2353 2234 1838 2234 
L 1294 2234 
L 1294 2753 
L 1863 2753 
Q 2328 2753 2575 2939 
Q 2822 3125 2822 3475 
Q 2822 3834 2567 4026 
Q 2313 4219 1838 4219 
Q 1578 4219 1281 4162 
Q 984 4106 628 3988 
L 628 4550 
Q 988 4650 1302 4700 
Q 1616 4750 1894 4750 
Q 2613 4750 3031 4423 
Q 3450 4097 3450 3541 
Q 3450 3153 3228 2886 
Q 3006 2619 2597 2516 
z
" transform="scale(0.015625)"/>
       </defs>
       <use xlink:href="#DejaVuSans-33"/>
      </g>
     </g>
    </g>
    <g id="xtick_7">
     <g id="line2d_7">
      <defs>
       <path id="m6a53786813" d="M 0 0 
L 0 2 
" style="stroke: #000000; stroke-width: 0.6"/>
      </defs>
      <g>
       <use xlink:href="#m6a53786813" x="75.79531" y="172.757787" style="stroke: #000000; stroke-width: 0.6"/>
      </g>
     </g>
    </g>
    <g id="xtick_8">
     <g id="line2d_8">
      <g>
       <use xlink:href="#m6a53786813" x="87.401691" y="172.757787" style="stroke: #000000; stroke-width: 0.6"/>
      </g>
     </g>
    </g>
    <g id="xtick_9">
     <g id="line2d_9">
      <g>
       <use xlink:href="#m6a53786813" x="110.614454" y="172.757787" style="stroke: #000000; stroke-width: 0.6"/>
      </g>
     </g>
    </g>
    <g id="xtick_10">
     <g id="line2d_10">
      <g>
       <use xlink:href="#m6a53786813" x="122.220836" y="172.757787" style="stroke: #000000; stroke-width: 0.6"/>
      </g>
     </g>
    </g>
    <g id="xtick_11">
     <g id="line2d_11">
      <g>
       <use xlink:href="#m6a53786813" x="133.827217" y="172.757787" style="stroke: #000000; stroke-width: 0.6"/>
      </g>
     </g>
    </g>
    <g id="xtick_12">
     <g id="line2d_12">
      <g>
       <use xlink:href="#m6a53786813" x="145.433599" y="172.757787" style="stroke: #000000; stroke-width: 0.6"/>
      </g>
     </g>
    </g>
    <g id="xtick_13">
     <g id="line2d_13">
      <g>
       <use xlink:href="#m6a53786813" x="168.646362" y="172.757787" style="stroke: #000000; stroke-width: 0.6"/>
      </g>
     </g>
    </g>
    <g id="xtick_14">
     <g id="line2d_14">
      <g>
       <use xlink:href="#m6a53786813" x="180.252743" y="172.757787" style="stroke: #000000; stroke-width: 0.6"/>
      </g>
     </g>
    </g>
    <g id="xtick_15">
     <g id="line2d_15">
      <g>
       <use xlink:href="#m6a53786813" x="191.859125" y="172.757787" style="stroke: #000000; stroke-width: 0.6"/>
      </g>
     </g>
    </g>
    <g id="xtick_16">
     <g id="line2d_16">
      <g>
       <use xlink:href="#m6a53786813" x="203.465506" y="172.757787" style="stroke: #000000; stroke-width: 0.6"/>
      </g>
     </g>
    </g>
    <g id="xtick_17">
     <g id="line2d_17">
      <g>
       <use xlink:href="#m6a53786813" x="226.67827" y="172.757787" style="stroke: #000000; stroke-width: 0.6"/>
      </g>
     </g>
    </g>
    <g id="xtick_18">
     <g id="line2d_18">
      <g>
       <use xlink:href="#m6a53786813" x="238.284651" y="172.757787" style="stroke: #000000; stroke-width: 0.6"/>
      </g>
     </g>
    </g>
    <g id="xtick_19">
     <g id="line2d_19">
      <g>
       <use xlink:href="#m6a53786813" x="249.891033" y="172.757787" style="stroke: #000000; stroke-width: 0.6"/>
      </g>
     </g>
    </g>
    <g id="xtick_20">
     <g id="line2d_20">
      <g>
       <use xlink:href="#m6a53786813" x="261.497414" y="172.757787" style="stroke: #000000; stroke-width: 0.6"/>
      </g>
     </g>
    </g>
    <g id="xtick_21">
     <g id="line2d_21">
      <g>
       <use xlink:href="#m6a53786813" x="284.710177" y="172.757787" style="stroke: #000000; stroke-width: 0.6"/>
      </g>
     </g>
    </g>
    <g id="xtick_22">
     <g id="line2d_22">
      <g>
       <use xlink:href="#m6a53786813" x="296.316559" y="172.757787" style="stroke: #000000; stroke-width: 0.6"/>
      </g>
     </g>
    </g>
    <g id="xtick_23">
     <g id="line2d_23">
      <g>
       <use xlink:href="#m6a53786813" x="307.92294" y="172.757787" style="stroke: #000000; stroke-width: 0.6"/>
      </g>
     </g>
    </g>
    <g id="xtick_24">
     <g id="line2d_24">
      <g>
       <use xlink:href="#m6a53786813" x="319.529322" y="172.757787" style="stroke: #000000; stroke-width: 0.6"/>
      </g>
     </g>
    </g>
    <g id="xtick_25">
     <g id="line2d_25">
      <g>
       <use xlink:href="#m6a53786813" x="342.742085" y="172.757787" style="stroke: #000000; stroke-width: 0.6"/>
      </g>
     </g>
    </g>
    <g id="xtick_26">
     <g id="line2d_26">
      <g>
       <use xlink:href="#m6a53786813" x="354.348466" y="172.757787" style="stroke: #000000; stroke-width: 0.6"/>
      </g>
     </g>
    </g>
    <g id="xtick_27">
     <g id="line2d_27">
      <g>
       <use xlink:href="#m6a53786813" x="365.954848" y="172.757787" style="stroke: #000000; stroke-width: 0.6"/>
      </g>
     </g>
    </g>
    <g id="xtick_28">
     <g id="line2d_28">
      <g>
       <use xlink:href="#m6a53786813" x="377.561229" y="172.757787" style="stroke: #000000; stroke-width: 0.6"/>
      </g>
     </g>
    </g>
   </g>
   <g id="matplotlib.axis_2">
    <g id="ytick_1">
     <g id="line2d_29">
      <defs>
       <path id="mb5ea1a44a4" d="M 0 0 
L -3.5 0 
" style="stroke: #000000; stroke-width: 0.8"/>
      </defs>
      <g>
       <use xlink:href="#mb5ea1a44a4" x="215.071888" y="288.821603" style="stroke: #000000; stroke-width: 0.8"/>
      </g>
     </g>
     <g id="text_6">
      <!-- −2 -->
      <g transform="translate(193.329701 292.620821) scale(0.1 -0.1)">
       <use xlink:href="#DejaVuSans-2212"/>
       <use xlink:href="#DejaVuSans-32" transform="translate(83.789062 0)"/>
      </g>
     </g>
    </g>
    <g id="ytick_2">
     <g id="line2d_30">
      <g>
       <use xlink:href="#mb5ea1a44a4" x="215.071888" y="230.789695" style="stroke: #000000; stroke-width: 0.8"/>
      </g>
     </g>
     <g id="text_7">
      <!-- −1 -->
      <g transform="translate(193.329701 234.588914) scale(0.1 -0.1)">
       <use xlink:href="#DejaVuSans-2212"/>
       <use xlink:href="#DejaVuSans-31" transform="translate(83.789062 0)"/>
      </g>
     </g>
    </g>
    <g id="ytick_3">
     <g id="line2d_31">
      <g>
       <use xlink:href="#mb5ea1a44a4" x="215.071888" y="172.757787" style="stroke: #000000; stroke-width: 0.8"/>
      </g>
     </g>
    </g>
    <g id="ytick_4">
     <g id="line2d_32">
      <g>
       <use xlink:href="#mb5ea1a44a4" x="215.071888" y="114.72588" style="stroke: #000000; stroke-width: 0.8"/>
      </g>
     </g>
     <g id="text_8">
      <!-- 1 -->
      <g transform="translate(201.709388 118.525099) scale(0.1 -0.1)">
       <use xlink:href="#DejaVuSans-31"/>
      </g>
     </g>
    </g>
    <g id="ytick_5">
     <g id="line2d_33">
      <g>
       <use xlink:href="#mb5ea1a44a4" x="215.071888" y="56.693972" style="stroke: #000000; stroke-width: 0.8"/>
      </g>
     </g>
     <g id="text_9">
      <!-- 2 -->
      <g transform="translate(201.709388 60.493191) scale(0.1 -0.1)">
       <use xlink:href="#DejaVuSans-32"/>
      </g>
     </g>
    </g>
    <g id="ytick_6">
     <g id="line2d_34">
      <defs>
       <path id="m8b1972d6ad" d="M 0 0 
L -2 0 
" style="stroke: #000000; stroke-width: 0.6"/>
      </defs>
      <g>
       <use xlink:href="#m8b1972d6ad" x="215.071888" y="335.247129" style="stroke: #000000; stroke-width: 0.6"/>
      </g>
     </g>
    </g>
    <g id="ytick_7">
     <g id="line2d_35">
      <g>
       <use xlink:href="#m8b1972d6ad" x="215.071888" y="323.640747" style="stroke: #000000; stroke-width: 0.6"/>
      </g>
     </g>
    </g>
    <g id="ytick_8">
     <g id="line2d_36">
      <g>
       <use xlink:href="#m8b1972d6ad" x="215.071888" y="312.034366" style="stroke: #000000; stroke-width: 0.6"/>
      </g>
     </g>
    </g>
    <g id="ytick_9">
     <g id="line2d_37">
      <g>
       <use xlink:href="#m8b1972d6ad" x="215.071888" y="300.427984" style="stroke: #000000; stroke-width: 0.6"/>
      </g>
     </g>
    </g>
    <g id="ytick_10">
     <g id="line2d_38">
      <g>
       <use xlink:href="#m8b1972d6ad" x="215.071888" y="277.215221" style="stroke: #000000; stroke-width: 0.6"/>
      </g>
     </g>
    </g>
    <g id="ytick_11">
     <g id="line2d_39">
      <g>
       <use xlink:href="#m8b1972d6ad" x="215.071888" y="265.60884" style="stroke: #000000; stroke-width: 0.6"/>
      </g>
     </g>
    </g>
    <g id="ytick_12">
     <g id="line2d_40">
      <g>
       <use xlink:href="#m8b1972d6ad" x="215.071888" y="254.002458" style="stroke: #000000; stroke-width: 0.6"/>
      </g>
     </g>
    </g>
    <g id="ytick_13">
     <g id="line2d_41">
      <g>
       <use xlink:href="#m8b1972d6ad" x="215.071888" y="242.396076" style="stroke: #000000; stroke-width: 0.6"/>
      </g>
     </g>
    </g>
    <g id="ytick_14">
     <g id="line2d_42">
      <g>
       <use xlink:href="#m8b1972d6ad" x="215.071888" y="219.183313" style="stroke: #000000; stroke-width: 0.6"/>
      </g>
     </g>
    </g>
    <g id="ytick_15">
     <g id="line2d_43">
      <g>
       <use xlink:href="#m8b1972d6ad" x="215.071888" y="207.576932" style="stroke: #000000; stroke-width: 0.6"/>
      </g>
     </g>
    </g>
    <g id="ytick_16">
     <g id="line2d_44">
      <g>
       <use xlink:href="#m8b1972d6ad" x="215.071888" y="195.97055" style="stroke: #000000; stroke-width: 0.6"/>
      </g>
     </g>
    </g>
    <g id="ytick_17">
     <g id="line2d_45">
      <g>
       <use xlink:href="#m8b1972d6ad" x="215.071888" y="184.364169" style="stroke: #000000; stroke-width: 0.6"/>
      </g>
     </g>
    </g>
    <g id="ytick_18">
     <g id="line2d_46">
      <g>
       <use xlink:href="#m8b1972d6ad" x="215.071888" y="161.151406" style="stroke: #000000; stroke-width: 0.6"/>
      </g>
     </g>
    </g>
    <g id="ytick_19">
     <g id="line2d_47">
      <g>
       <use xlink:href="#m8b1972d6ad" x="215.071888" y="149.545024" style="stroke: #000000; stroke-width: 0.6"/>
      </g>
     </g>
    </g>
    <g id="ytick_20">
     <g id="line2d_48">
      <g>
       <use xlink:href="#m8b1972d6ad" x="215.071888" y="137.938643" style="stroke: #000000; stroke-width: 0.6"/>
      </g>
     </g>
    </g>
    <g id="ytick_21">
     <g id="line2d_49">
      <g>
       <use xlink:href="#m8b1972d6ad" x="215.071888" y="126.332261" style="stroke: #000000; stroke-width: 0.6"/>
      </g>
     </g>
    </g>
    <g id="ytick_22">
     <g id="line2d_50">
      <g>
       <use xlink:href="#m8b1972d6ad" x="215.071888" y="103.119498" style="stroke: #000000; stroke-width: 0.6"/>
      </g>
     </g>
    </g>
    <g id="ytick_23">
     <g id="line2d_51">
      <g>
       <use xlink:href="#m8b1972d6ad" x="215.071888" y="91.513117" style="stroke: #000000; stroke-width: 0.6"/>
      </g>
     </g>
    </g>
    <g id="ytick_24">
     <g id="line2d_52">
      <g>
       <use xlink:href="#m8b1972d6ad" x="215.071888" y="79.906735" style="stroke: #000000; stroke-width: 0.6"/>
      </g>
     </g>
    </g>
    <g id="ytick_25">
     <g id="line2d_53">
      <g>
       <use xlink:href="#m8b1972d6ad" x="215.071888" y="68.300354" style="stroke: #000000; stroke-width: 0.6"/>
      </g>
     </g>
    </g>
    <g id="ytick_26">
     <g id="line2d_54">
      <g>
       <use xlink:href="#m8b1972d6ad" x="215.071888" y="45.087591" style="stroke: #000000; stroke-width: 0.6"/>
      </g>
     </g>
    </g>
    <g id="ytick_27">
     <g id="line2d_55">
      <g>
       <use xlink:href="#m8b1972d6ad" x="215.071888" y="33.481209" style="stroke: #000000; stroke-width: 0.6"/>
      </g>
     </g>
    </g>
    <g id="ytick_28">
     <g id="line2d_56">
      <g>
       <use xlink:href="#m8b1972d6ad" x="215.071888" y="21.874828" style="stroke: #000000; stroke-width: 0.6"/>
      </g>
     </g>
    </g>
    <g id="ytick_29">
     <g id="line2d_57">
      <g>
       <use xlink:href="#m8b1972d6ad" x="215.071888" y="10.268446" style="stroke: #000000; stroke-width: 0.6"/>
      </g>
     </g>
    </g>
   </g>
   <g id="line2d_58">
    <path d="M 389.167611 172.757787 
L 389.059589 171.090207 
L 388.735845 169.433323 
L 388.060654 167.46636 
L 387.07664 165.548893 
L 385.717098 163.610527 
L 384.602681 162.343832 
L 383.338225 161.1277 
L 380.370591 158.872049 
L 378.307107 157.64199 
L 374.658765 155.932553 
L 370.54784 154.53408 
L 367.234844 153.721547 
L 363.266766 153.051453 
L 359.043783 152.649815 
L 353.460826 152.547241 
L 346.75195 152.993683 
L 338.299749 154.350525 
L 329.741075 156.56104 
L 320.97855 159.663945 
L 305.236388 167.394908 
L 299.492152 170.944425 
L 293.245905 175.286623 
L 287.637397 179.649204 
L 282.18684 184.35188 
L 277.226727 189.073286 
L 272.458515 194.060566 
L 269.231125 197.718086 
L 263.697477 204.605399 
L 258.379826 212.111664 
L 253.548216 219.910512 
L 249.334722 227.743983 
L 246.247801 234.334872 
L 243.527879 240.999592 
L 241.954622 245.372683 
L 240.543099 249.75189 
L 239.290599 254.141467 
L 237.65473 261.006959 
L 236.424554 267.797113 
L 235.84237 272.137827 
L 235.427126 276.41962 
L 235.146088 281.455724 
L 235.09585 286.374487 
L 235.289511 291.473255 
L 235.729443 296.398397 
L 236.319087 300.616845 
L 237.455182 306.297316 
L 238.534799 310.350305 
L 239.790557 314.178823 
L 241.339271 318.069476 
L 243.061665 321.663507 
L 245.881197 326.398645 
L 251.04684 332.587649 
L 255.149677 335.853631 
L 256.985663 336.92344 
L 263.653204 338.928241 
L 265.493659 338.953846 
L 269.692196 338.034515 
L 273.158086 335.983623 
L 275.464324 333.656896 
L 277.015552 331.395529 
L 278.308899 328.773821 
L 279.51738 325.060107 
L 280.033517 322.502149 
L 280.356554 319.771179 
L 280.477829 316.30853 
L 280.300613 312.639398 
L 279.935952 309.566622 
L 278.993094 304.706565 
L 278.266643 301.933242 
L 277.391559 299.106247 
L 276.366502 296.233149 
L 275.19052 293.321594 
L 273.292746 289.201839 
L 271.098803 285.043113 
L 268.431958 280.585395 
L 265.764727 276.601827 
L 262.835271 272.640648 
L 259.980618 269.111832 
L 256.922361 265.628403 
L 251.846138 260.400264 
L 246.325539 255.352152 
L 241.620788 251.482372 
L 236.237781 247.469965 
L 228.434451 242.330488 
L 220.020071 237.56287 
L 211.206173 233.320073 
L 207.676925 231.817689 
L 198.510125 228.402248 
L 189.132975 225.593567 
L 185.082087 224.584479 
L 171.183682 222.024888 
L 166.51297 221.473346 
L 152.675741 220.750121 
L 139.764339 221.339106 
L 133.109245 222.148318 
L 126.66284 223.285094 
L 122.001044 224.33875 
L 115.44063 226.179929 
L 111.143879 227.634577 
L 107.024899 229.234416 
L 101.08906 231.940579 
L 95.630539 234.92254 
L 92.192672 237.095983 
L 89.094349 239.293531 
L 86.234813 241.565999 
L 82.392559 245.09853 
L 79.123095 248.719631 
L 77.298195 251.115149 
L 75.726683 253.512496 
L 74.003763 256.737933 
L 73.006658 259.153673 
L 72.037603 262.573635 
L 71.632389 265.838758 
L 71.690693 268.148349 
L 72.050472 270.325918 
L 72.811447 272.608269 
L 73.934789 274.671521 
L 74.757439 275.771465 
L 76.497192 277.498413 
L 78.579689 278.920948 
L 80.680637 279.903732 
L 83.012183 280.617277 
L 85.859469 281.07909 
L 89.057781 281.170303 
L 93.428276 280.695942 
L 98.08858 279.539106 
L 102.841952 277.73879 
L 105.171472 276.639217 
L 114.662902 270.700498 
L 117.629923 268.348799 
L 122.921975 263.517695 
L 127.363794 258.768072 
L 131.647508 253.494077 
L 137.27038 245.309341 
L 139.360652 241.816176 
L 143.545181 233.862736 
L 147.25407 225.359951 
L 149.703973 218.620608 
L 151.686614 212.153497 
L 153.561763 204.676969 
L 154.697389 199.033862 
L 155.614035 193.308905 
L 156.603318 184.160412 
L 157.024265 174.923373 
L 156.974891 168.351059 
L 156.442238 159.422498 
L 155.710139 152.906176 
L 154.694928 146.468088 
L 153.248401 139.460267 
L 151.474442 132.612588 
L 149.705203 126.898652 
L 147.71654 121.345423 
L 145.871541 116.786951 
L 143.233922 111.00941 
L 139.917098 104.678145 
L 136.335325 98.730099 
L 129.779482 89.630716 
L 124.362425 83.464388 
L 121.249319 80.378723 
L 113.044914 73.6347 
L 107.344562 70.028718 
L 102.188765 67.493839 
L 96.460028 65.501078 
L 93.171499 64.774587 
L 90.032529 64.395037 
L 87.103926 64.352079 
L 84.367825 64.628474 
L 80.500395 65.682107 
L 79.441594 66.145762 
L 76.893477 67.702571 
L 74.808612 69.683162 
L 73.34292 71.820782 
L 72.476593 73.756366 
L 71.905168 75.859718 
L 71.649677 77.897972 
L 71.65341 80.088538 
L 71.929359 82.375496 
L 72.4166 84.512512 
L 73.131967 86.702767 
L 74.695883 90.175927 
L 76.813684 93.700889 
L 78.76409 96.350571 
L 81.021892 98.983649 
L 82.924418 100.945629 
L 84.996942 102.879008 
L 89.114291 106.237009 
L 93.746206 109.433359 
L 96.793562 111.273321 
L 102.250056 114.144886 
L 109.093223 117.110922 
L 116.483889 119.658077 
L 120.116473 120.692336 
L 125.819964 122.054827 
L 131.731753 123.154341 
L 138.79414 124.080654 
L 146.061784 124.620738 
L 149.422429 124.734748 
L 159.849879 124.561404 
L 169.580325 123.697426 
L 179.486747 122.12805 
L 192.248365 119.063063 
L 200.134629 116.557638 
L 209.533513 112.921 
L 218.608216 108.681622 
L 223.54241 106.047457 
L 231.713288 101.116081 
L 237.970876 96.798572 
L 243.876813 92.22295 
L 248.505712 88.24055 
L 252.855885 84.124255 
L 256.151171 80.723073 
L 259.946471 76.444232 
L 262.585524 73.195696 
L 265.048348 69.918515 
L 267.33198 66.62284 
L 269.434031 63.318945 
L 271.695436 59.392742 
L 273.69545 55.487152 
L 275.070135 52.474137 
L 276.286119 49.492855 
L 277.344119 46.551231 
L 278.245129 43.657452 
L 278.990568 40.819625 
L 279.604581 37.926561 
L 280.053767 35.112095 
L 280.404376 31.449853 
L 280.438842 27.074493 
L 279.911797 22.299588 
L 279.37231 19.892898 
L 278.666034 17.657997 
L 277.801738 15.604436 
L 276.788763 13.741179 
L 274.567893 10.835457 
L 271.542985 8.400427 
L 268.264529 7.002338 
L 266.452796 6.646154 
L 262.720551 6.690421 
L 256.757625 8.712577 
L 254.483625 10.1076 
L 252.281652 11.810137 
L 248.282641 15.90564 
L 244.354161 21.530765 
L 241.167963 27.841416 
L 239.805156 31.296333 
L 238.592643 34.971295 
L 237.04504 41.041662 
L 235.923375 47.559789 
L 235.488077 51.459423 
L 235.106375 58.489098 
L 235.226736 65.987456 
L 235.884922 73.741097 
L 236.495163 78.17541 
L 237.28127 82.658812 
L 238.451908 88.060372 
L 239.87586 93.496007 
L 241.193471 97.844393 
L 242.671263 102.191996 
L 244.470879 106.938313 
L 246.458257 111.658901 
L 249.108601 117.316777 
L 252.021643 122.896181 
L 253.892701 126.198387 
L 256.510699 130.513028 
L 259.280153 134.745857 
L 264.657466 142.166465 
L 269.584355 148.209799 
L 274.798533 153.961176 
L 280.412367 159.525641 
L 287.444364 165.707897 
L 294.637862 171.242092 
L 302.023597 176.186012 
L 309.578917 180.538007 
L 314.900408 183.200993 
L 328.84871 188.677162 
L 333.018186 189.897642 
L 343.952343 192.166812 
L 351.129287 192.880223 
L 355.383596 192.984461 
L 359.457367 192.839425 
L 365.312231 192.156864 
L 369.443112 191.280574 
L 373.23726 190.121756 
L 376.406436 188.828394 
L 379.107569 187.422926 
L 381.508762 185.858191 
L 383.519502 184.225143 
L 385.234993 182.480165 
L 386.097272 181.416361 
L 387.127557 179.881623 
L 387.950285 178.301307 
L 388.563047 176.685663 
L 388.964047 175.045058 
L 389.167611 172.757787 
L 389.167611 172.757787 
" clip-path="url(#pdb913c49ee)" style="fill: none; stroke: #0000ff; stroke-linecap: square"/>
   </g>
   <g id="patch_4">
    <path d="M 215.071888 345.6 
L 215.071888 0 
" style="fill: none; stroke: #000000; stroke-width: 0.8; stroke-linejoin: miter; stroke-linecap: square"/>
   </g>
   <g id="patch_5">
    <path d="M 65.281685 172.757787 
L 395.518315 172.757787 
" style="fill: none; stroke: #000000; stroke-width: 0.8; stroke-linejoin: miter; stroke-linecap: square"/>
   </g>
  </g>
 </g>
 <defs>
  <clipPath id="pdb913c49ee">
   <rect x="65.281685" y="0" width="330.23663" height="345.6"/>
  </clipPath>
 </defs>
</svg>
