<?xml version="1.0" encoding="utf-8" standalone="no"?>
<!DOCTYPE svg PUBLIC "-//W3C//DTD SVG 1.1//EN"
  "http://www.w3.org/Graphics/SVG/1.1/DTD/svg11.dtd">
<svg xmlns:xlink="http://www.w3.org/1999/xlink" width="460.8pt" height="345.6pt" viewBox="0 0 460.8 345.6" xmlns="http://www.w3.org/2000/svg" version="1.1">
 <metadata>
  <rdf:RDF xmlns:dc="http://purl.org/dc/elements/1.1/" xmlns:cc="http://creativecommons.org/ns#" xmlns:rdf="http://www.w3.org/1999/02/22-rdf-syntax-ns#">
   <cc:Work>
    <dc:type rdf:resource="http://purl.org/dc/dcmitype/StillImage"/>
    <dc:date>2025-08-07T23:34:36.494104</dc:date>
    <dc:format>image/svg+xml</dc:format>
    <dc:creator>
     <cc:Agent>
      <dc:title>Matplotlib v3.10.3, https://matplotlib.org/</dc:title>
     </cc:Agent>
    </dc:creator>
   </cc:Work>
  </rdf:RDF>
 </metadata>
 <defs>
  <style type="text/css">*{stroke-linejoin: round; stroke-linecap: butt}</style>
 </defs>
 <g id="figure_1">
  <g id="patch_1">
   <path d="M 0 345.6 
L 460.8 345.6 
L 460.8 0 
L 0 0 
z
" style="fill: #ffffff"/>
  </g>
  <g id="axes_1">
   <g id="patch_2">
    <path d="M 29.78 334.520722 
L 460.8 334.520722 
L 460.8 0 
L 29.78 0 
z
" style="fill: #ffffff"/>
   </g>
   <g id="matplotlib.axis_1">
    <g id="xtick_1">
     <g id="line2d_1">
      <defs>
       <path id="mf6a165eb9a" d="M 0 0 
L 0 3.5 
" style="stroke: #000000; stroke-width: 0.8"/>
      </defs>
      <g>
       <use xlink:href="#mf6a165eb9a" x="84.439692" y="328.087631" style="stroke: #000000; stroke-width: 0.8"/>
      </g>
     </g>
     <g id="text_1">
      <!-- 2 -->
      <g transform="translate(81.258442 342.686069) scale(0.1 -0.1)">
       <defs>
        <path id="DejaVuSans-32" d="M 1228 531 
L 3431 531 
L 3431 0 
L 469 0 
L 469 531 
Q 828 903 1448 1529 
Q 2069 2156 2228 2338 
Q 2531 2678 2651 2914 
Q 2772 3150 2772 3378 
Q 2772 3750 2511 3984 
Q 2250 4219 1831 4219 
Q 1534 4219 1204 4116 
Q 875 4013 500 3803 
L 500 4441 
Q 881 4594 1212 4672 
Q 1544 4750 1819 4750 
Q 2544 4750 2975 4387 
Q 3406 4025 3406 3419 
Q 3406 3131 3298 2873 
Q 3191 2616 2906 2266 
Q 2828 2175 2409 1742 
Q 1991 1309 1228 531 
z
" transform="scale(0.015625)"/>
       </defs>
       <use xlink:href="#DejaVuSans-32"/>
      </g>
     </g>
    </g>
    <g id="xtick_2">
     <g id="line2d_2">
      <g>
       <use xlink:href="#mf6a165eb9a" x="176.354154" y="328.087631" style="stroke: #000000; stroke-width: 0.8"/>
      </g>
     </g>
     <g id="text_2">
      <!-- 4 -->
      <g transform="translate(173.172904 342.686069) scale(0.1 -0.1)">
       <defs>
        <path id="DejaVuSans-34" d="M 2419 4116 
L 825 1625 
L 2419 1625 
L 2419 4116 
z
M 2253 4666 
L 3047 4666 
L 3047 1625 
L 3713 1625 
L 3713 1100 
L 3047 1100 
L 3047 0 
L 2419 0 
L 2419 1100 
L 313 1100 
L 313 1709 
L 2253 4666 
z
" transform="scale(0.015625)"/>
       </defs>
       <use xlink:href="#DejaVuSans-34"/>
      </g>
     </g>
    </g>
    <g id="xtick_3">
     <g id="line2d_3">
      <g>
       <use xlink:href="#mf6a165eb9a" x="268.268615" y="328.087631" style="stroke: #000000; stroke-width: 0.8"/>
      </g>
     </g>
     <g id="text_3">
      <!-- 6 -->
      <g transform="translate(265.087365 342.686069) scale(0.1 -0.1)">
       <defs>
        <path id="DejaVuSans-36" d="M 2113 2584 
Q 1688 2584 1439 2293 
Q 1191 2003 1191 1497 
Q 1191 994 1439 701 
Q 1688 409 2113 409 
Q 2538 409 2786 701 
Q 3034 994 3034 1497 
Q 3034 2003 2786 2293 
Q 2538 2584 2113 2584 
z
M 3366 4563 
L 3366 3988 
Q 3128 4100 2886 4159 
Q 2644 4219 2406 4219 
Q 1781 4219 1451 3797 
Q 1122 3375 1075 2522 
Q 1259 2794 1537 2939 
Q 1816 3084 2150 3084 
Q 2853 3084 3261 2657 
Q 3669 2231 3669 1497 
Q 3669 778 3244 343 
Q 2819 -91 2113 -91 
Q 1303 -91 875 529 
Q 447 1150 447 2328 
Q 447 3434 972 4092 
Q 1497 4750 2381 4750 
Q 2619 4750 2861 4703 
Q 3103 4656 3366 4563 
z
" transform="scale(0.015625)"/>
       </defs>
       <use xlink:href="#DejaVuSans-36"/>
      </g>
     </g>
    </g>
    <g id="xtick_4">
     <g id="line2d_4">
      <g>
       <use xlink:href="#mf6a165eb9a" x="360.183077" y="328.087631" style="stroke: #000000; stroke-width: 0.8"/>
      </g>
     </g>
     <g id="text_4">
      <!-- 8 -->
      <g transform="translate(357.001827 342.686069) scale(0.1 -0.1)">
       <defs>
        <path id="DejaVuSans-38" d="M 2034 2216 
Q 1584 2216 1326 1975 
Q 1069 1734 1069 1313 
Q 1069 891 1326 650 
Q 1584 409 2034 409 
Q 2484 409 2743 651 
Q 3003 894 3003 1313 
Q 3003 1734 2745 1975 
Q 2488 2216 2034 2216 
z
M 1403 2484 
Q 997 2584 770 2862 
Q 544 3141 544 3541 
Q 544 4100 942 4425 
Q 1341 4750 2034 4750 
Q 2731 4750 3128 4425 
Q 3525 4100 3525 3541 
Q 3525 3141 3298 2862 
Q 3072 2584 2669 2484 
Q 3125 2378 3379 2068 
Q 3634 1759 3634 1313 
Q 3634 634 3220 271 
Q 2806 -91 2034 -91 
Q 1263 -91 848 271 
Q 434 634 434 1313 
Q 434 1759 690 2068 
Q 947 2378 1403 2484 
z
M 1172 3481 
Q 1172 3119 1398 2916 
Q 1625 2713 2034 2713 
Q 2441 2713 2670 2916 
Q 2900 3119 2900 3481 
Q 2900 3844 2670 4047 
Q 2441 4250 2034 4250 
Q 1625 4250 1398 4047 
Q 1172 3844 1172 3481 
z
" transform="scale(0.015625)"/>
       </defs>
       <use xlink:href="#DejaVuSans-38"/>
      </g>
     </g>
    </g>
    <g id="xtick_5">
     <g id="line2d_5">
      <g>
       <use xlink:href="#mf6a165eb9a" x="452.097539" y="328.087631" style="stroke: #000000; stroke-width: 0.8"/>
      </g>
     </g>
     <g id="text_5">
      <!-- 10 -->
      <g transform="translate(445.735039 342.686069) scale(0.1 -0.1)">
       <defs>
        <path id="DejaVuSans-31" d="M 794 531 
L 1825 531 
L 1825 4091 
L 703 3866 
L 703 4441 
L 1819 4666 
L 2450 4666 
L 2450 531 
L 3481 531 
L 3481 0 
L 794 0 
L 794 531 
z
" transform="scale(0.015625)"/>
        <path id="DejaVuSans-30" d="M 2034 4250 
Q 1547 4250 1301 3770 
Q 1056 3291 1056 2328 
Q 1056 1369 1301 889 
Q 1547 409 2034 409 
Q 2525 409 2770 889 
Q 3016 1369 3016 2328 
Q 3016 3291 2770 3770 
Q 2525 4250 2034 4250 
z
M 2034 4750 
Q 2819 4750 3233 4129 
Q 3647 3509 3647 2328 
Q 3647 1150 3233 529 
Q 2819 -91 2034 -91 
Q 1250 -91 836 529 
Q 422 1150 422 2328 
Q 422 3509 836 4129 
Q 1250 4750 2034 4750 
z
" transform="scale(0.015625)"/>
       </defs>
       <use xlink:href="#DejaVuSans-31"/>
       <use xlink:href="#DejaVuSans-30" transform="translate(63.623047 0)"/>
      </g>
     </g>
    </g>
    <g id="xtick_6">
     <g id="line2d_6">
      <defs>
       <path id="m04ea95c176" d="M 0 0 
L 0 2 
" style="stroke: #000000; stroke-width: 0.6"/>
      </defs>
      <g>
       <use xlink:href="#m04ea95c176" x="38.482461" y="328.087631" style="stroke: #000000; stroke-width: 0.6"/>
      </g>
     </g>
    </g>
    <g id="xtick_7">
     <g id="line2d_7">
      <g>
       <use xlink:href="#m04ea95c176" x="61.461077" y="328.087631" style="stroke: #000000; stroke-width: 0.6"/>
      </g>
     </g>
    </g>
    <g id="xtick_8">
     <g id="line2d_8">
      <g>
       <use xlink:href="#m04ea95c176" x="107.418307" y="328.087631" style="stroke: #000000; stroke-width: 0.6"/>
      </g>
     </g>
    </g>
    <g id="xtick_9">
     <g id="line2d_9">
      <g>
       <use xlink:href="#m04ea95c176" x="130.396923" y="328.087631" style="stroke: #000000; stroke-width: 0.6"/>
      </g>
     </g>
    </g>
    <g id="xtick_10">
     <g id="line2d_10">
      <g>
       <use xlink:href="#m04ea95c176" x="153.375538" y="328.087631" style="stroke: #000000; stroke-width: 0.6"/>
      </g>
     </g>
    </g>
    <g id="xtick_11">
     <g id="line2d_11">
      <g>
       <use xlink:href="#m04ea95c176" x="199.332769" y="328.087631" style="stroke: #000000; stroke-width: 0.6"/>
      </g>
     </g>
    </g>
    <g id="xtick_12">
     <g id="line2d_12">
      <g>
       <use xlink:href="#m04ea95c176" x="222.311385" y="328.087631" style="stroke: #000000; stroke-width: 0.6"/>
      </g>
     </g>
    </g>
    <g id="xtick_13">
     <g id="line2d_13">
      <g>
       <use xlink:href="#m04ea95c176" x="245.29" y="328.087631" style="stroke: #000000; stroke-width: 0.6"/>
      </g>
     </g>
    </g>
    <g id="xtick_14">
     <g id="line2d_14">
      <g>
       <use xlink:href="#m04ea95c176" x="291.247231" y="328.087631" style="stroke: #000000; stroke-width: 0.6"/>
      </g>
     </g>
    </g>
    <g id="xtick_15">
     <g id="line2d_15">
      <g>
       <use xlink:href="#m04ea95c176" x="314.225846" y="328.087631" style="stroke: #000000; stroke-width: 0.6"/>
      </g>
     </g>
    </g>
    <g id="xtick_16">
     <g id="line2d_16">
      <g>
       <use xlink:href="#m04ea95c176" x="337.204462" y="328.087631" style="stroke: #000000; stroke-width: 0.6"/>
      </g>
     </g>
    </g>
    <g id="xtick_17">
     <g id="line2d_17">
      <g>
       <use xlink:href="#m04ea95c176" x="383.161693" y="328.087631" style="stroke: #000000; stroke-width: 0.6"/>
      </g>
     </g>
    </g>
    <g id="xtick_18">
     <g id="line2d_18">
      <g>
       <use xlink:href="#m04ea95c176" x="406.140308" y="328.087631" style="stroke: #000000; stroke-width: 0.6"/>
      </g>
     </g>
    </g>
    <g id="xtick_19">
     <g id="line2d_19">
      <g>
       <use xlink:href="#m04ea95c176" x="429.118923" y="328.087631" style="stroke: #000000; stroke-width: 0.6"/>
      </g>
     </g>
    </g>
   </g>
   <g id="matplotlib.axis_2">
    <g id="ytick_1">
     <g id="line2d_20">
      <defs>
       <path id="m027618a766" d="M 0 0 
L -3.5 0 
" style="stroke: #000000; stroke-width: 0.8"/>
      </defs>
      <g>
       <use xlink:href="#m027618a766" x="19.78" y="328.087631" style="stroke: #000000; stroke-width: 0.8"/>
      </g>
     </g>
     <g id="text_6">
      <!-- 0 -->
      <g transform="translate(6.4175 331.88685) scale(0.1 -0.1)">
       <use xlink:href="#DejaVuSans-30"/>
      </g>
     </g>
    </g>
    <g id="ytick_2">
     <g id="line2d_21">
      <g>
       <use xlink:href="#m027618a766" x="19.78" y="263.756723" style="stroke: #000000; stroke-width: 0.8"/>
      </g>
     </g>
     <g id="text_7">
      <!-- 2 -->
      <g transform="translate(6.4175 267.555942) scale(0.1 -0.1)">
       <use xlink:href="#DejaVuSans-32"/>
      </g>
     </g>
    </g>
    <g id="ytick_3">
     <g id="line2d_22">
      <g>
       <use xlink:href="#m027618a766" x="19.78" y="199.425815" style="stroke: #000000; stroke-width: 0.8"/>
      </g>
     </g>
     <g id="text_8">
      <!-- 4 -->
      <g transform="translate(6.4175 203.225034) scale(0.1 -0.1)">
       <use xlink:href="#DejaVuSans-34"/>
      </g>
     </g>
    </g>
    <g id="ytick_4">
     <g id="line2d_23">
      <g>
       <use xlink:href="#m027618a766" x="19.78" y="135.094907" style="stroke: #000000; stroke-width: 0.8"/>
      </g>
     </g>
     <g id="text_9">
      <!-- 6 -->
      <g transform="translate(6.4175 138.894126) scale(0.1 -0.1)">
       <use xlink:href="#DejaVuSans-36"/>
      </g>
     </g>
    </g>
    <g id="ytick_5">
     <g id="line2d_24">
      <g>
       <use xlink:href="#m027618a766" x="19.78" y="70.763999" style="stroke: #000000; stroke-width: 0.8"/>
      </g>
     </g>
     <g id="text_10">
      <!-- 8 -->
      <g transform="translate(6.4175 74.563218) scale(0.1 -0.1)">
       <use xlink:href="#DejaVuSans-38"/>
      </g>
     </g>
    </g>
    <g id="ytick_6">
     <g id="line2d_25">
      <g>
       <use xlink:href="#m027618a766" x="19.78" y="6.433091" style="stroke: #000000; stroke-width: 0.8"/>
      </g>
     </g>
     <g id="text_11">
      <!-- 10 -->
      <g transform="translate(0.055 10.23231) scale(0.1 -0.1)">
       <use xlink:href="#DejaVuSans-31"/>
       <use xlink:href="#DejaVuSans-30" transform="translate(63.623047 0)"/>
      </g>
     </g>
    </g>
    <g id="ytick_7">
     <g id="line2d_26">
      <defs>
       <path id="m87ad124503" d="M 0 0 
L -2 0 
" style="stroke: #000000; stroke-width: 0.6"/>
      </defs>
      <g>
       <use xlink:href="#m87ad124503" x="19.78" y="312.004904" style="stroke: #000000; stroke-width: 0.6"/>
      </g>
     </g>
    </g>
    <g id="ytick_8">
     <g id="line2d_27">
      <g>
       <use xlink:href="#m87ad124503" x="19.78" y="295.922177" style="stroke: #000000; stroke-width: 0.6"/>
      </g>
     </g>
    </g>
    <g id="ytick_9">
     <g id="line2d_28">
      <g>
       <use xlink:href="#m87ad124503" x="19.78" y="279.83945" style="stroke: #000000; stroke-width: 0.6"/>
      </g>
     </g>
    </g>
    <g id="ytick_10">
     <g id="line2d_29">
      <g>
       <use xlink:href="#m87ad124503" x="19.78" y="247.673996" style="stroke: #000000; stroke-width: 0.6"/>
      </g>
     </g>
    </g>
    <g id="ytick_11">
     <g id="line2d_30">
      <g>
       <use xlink:href="#m87ad124503" x="19.78" y="231.591269" style="stroke: #000000; stroke-width: 0.6"/>
      </g>
     </g>
    </g>
    <g id="ytick_12">
     <g id="line2d_31">
      <g>
       <use xlink:href="#m87ad124503" x="19.78" y="215.508542" style="stroke: #000000; stroke-width: 0.6"/>
      </g>
     </g>
    </g>
    <g id="ytick_13">
     <g id="line2d_32">
      <g>
       <use xlink:href="#m87ad124503" x="19.78" y="183.343088" style="stroke: #000000; stroke-width: 0.6"/>
      </g>
     </g>
    </g>
    <g id="ytick_14">
     <g id="line2d_33">
      <g>
       <use xlink:href="#m87ad124503" x="19.78" y="167.260361" style="stroke: #000000; stroke-width: 0.6"/>
      </g>
     </g>
    </g>
    <g id="ytick_15">
     <g id="line2d_34">
      <g>
       <use xlink:href="#m87ad124503" x="19.78" y="151.177634" style="stroke: #000000; stroke-width: 0.6"/>
      </g>
     </g>
    </g>
    <g id="ytick_16">
     <g id="line2d_35">
      <g>
       <use xlink:href="#m87ad124503" x="19.78" y="119.01218" style="stroke: #000000; stroke-width: 0.6"/>
      </g>
     </g>
    </g>
    <g id="ytick_17">
     <g id="line2d_36">
      <g>
       <use xlink:href="#m87ad124503" x="19.78" y="102.929453" style="stroke: #000000; stroke-width: 0.6"/>
      </g>
     </g>
    </g>
    <g id="ytick_18">
     <g id="line2d_37">
      <g>
       <use xlink:href="#m87ad124503" x="19.78" y="86.846726" style="stroke: #000000; stroke-width: 0.6"/>
      </g>
     </g>
    </g>
    <g id="ytick_19">
     <g id="line2d_38">
      <g>
       <use xlink:href="#m87ad124503" x="19.78" y="54.681272" style="stroke: #000000; stroke-width: 0.6"/>
      </g>
     </g>
    </g>
    <g id="ytick_20">
     <g id="line2d_39">
      <g>
       <use xlink:href="#m87ad124503" x="19.78" y="38.598545" style="stroke: #000000; stroke-width: 0.6"/>
      </g>
     </g>
    </g>
    <g id="ytick_21">
     <g id="line2d_40">
      <g>
       <use xlink:href="#m87ad124503" x="19.78" y="22.515818" style="stroke: #000000; stroke-width: 0.6"/>
      </g>
     </g>
    </g>
   </g>
   <g id="line2d_41">
    <path d="M 38.068846 328.087631 
L 38.275654 328.087631 
L 38.379057 328.087631 
L 38.430759 328.087631 
L 38.45661 328.087631 
" clip-path="url(#p3033113d1d)" style="fill: none; stroke: #0000ff; stroke-linecap: square"/>
   </g>
   <g id="line2d_42">
    <path d="M 38.896076 295.922177 
L 39.639383 295.922177 
L 43.621445 295.922177 
L 45.713502 295.922177 
L 45.77296 295.922177 
L 48.607588 295.922177 
L 50.992416 295.922177 
L 53.707955 295.922177 
L 54.131819 295.922177 
L 56.985072 295.922177 
L 59.943274 295.922177 
L 62.054466 295.922177 
L 64.04261 295.922177 
L 65.782358 295.922177 
L 68.555913 295.922177 
L 69.428129 295.922177 
L 72.293215 295.922177 
L 73.23611 295.922177 
L 76.292764 295.922177 
L 77.119279 295.922177 
L 79.164639 295.922177 
L 82.107236 295.922177 
L 83.215377 295.922177 
L 84.026077 295.922177 
L 84.232885 295.922177 
L 84.336288 295.922177 
L 84.38799 295.922177 
" clip-path="url(#p3033113d1d)" style="fill: none; stroke: #0000ff; stroke-linecap: square"/>
   </g>
   <g id="line2d_43">
    <path d="M 84.853307 263.756723 
L 86.416984 263.756723 
L 87.897119 263.756723 
L 91.330409 263.756723 
L 91.633526 263.756723 
L 94.750905 263.756723 
L 97.1063 263.756723 
L 99.174316 263.756723 
L 101.3971 263.756723 
L 103.439234 263.756723 
L 104.464509 263.756723 
L 106.90149 263.756723 
L 109.800528 263.756723 
L 111.49055 263.756723 
L 113.356988 263.756723 
L 115.024728 263.756723 
L 117.55599 263.756723 
L 118.511013 263.756723 
L 121.435141 263.756723 
L 123.920184 263.756723 
L 125.374446 263.756723 
L 127.906013 263.756723 
L 129.983308 263.756723 
L 130.214737 263.756723 
L 130.330452 263.756723 
" clip-path="url(#p3033113d1d)" style="fill: none; stroke: #0000ff; stroke-linecap: square"/>
   </g>
   <g id="line2d_44">
    <path d="M 130.417238 231.591269 
L 130.446167 231.591269 
L 130.810538 231.591269 
L 131.836813 231.591269 
L 134.125756 231.591269 
L 136.836276 231.591269 
L 137.842838 231.591269 
L 139.643937 231.591269 
L 142.294888 231.591269 
L 145.162865 231.591269 
L 147.422519 231.591269 
L 148.416235 231.591269 
L 151.654494 231.591269 
L 152.20371 231.591269 
L 155.493535 231.591269 
L 156.275399 231.591269 
L 159.754632 231.591269 
L 161.140498 231.591269 
L 162.629025 231.591269 
L 165.779078 231.591269 
L 167.473362 231.591269 
L 168.425582 231.591269 
L 170.979991 231.591269 
L 172.801264 231.591269 
L 175.521925 231.591269 
L 175.940539 231.591269 
L 176.147346 231.591269 
L 176.25075 231.591269 
L 176.302452 231.591269 
" clip-path="url(#p3033113d1d)" style="fill: none; stroke: #0000ff; stroke-linecap: square"/>
   </g>
   <g id="line2d_45">
    <path d="M 176.767769 199.425815 
L 178.587102 199.425815 
L 180.854091 199.425815 
L 182.094695 199.425815 
L 183.299254 199.425815 
L 185.651945 199.425815 
L 187.319254 199.425815 
L 189.710904 199.425815 
L 191.880132 199.425815 
L 193.942698 199.425815 
L 195.721344 199.425815 
L 198.76889 199.425815 
L 199.604187 199.425815 
L 203.585835 199.425815 
L 205.220366 199.425815 
L 206.263165 199.425815 
L 209.122232 199.425815 
L 210.046566 199.425815 
L 213.623939 199.425815 
L 215.05995 199.425815 
L 216.232339 199.425815 
L 219.730966 199.425815 
L 220.388609 199.425815 
L 221.89777 199.425815 
L 222.104577 199.425815 
L 222.207981 199.425815 
L 222.259683 199.425815 
" clip-path="url(#p3033113d1d)" style="fill: none; stroke: #0000ff; stroke-linecap: square"/>
   </g>
   <g id="line2d_46">
    <path d="M 222.725 167.260361 
L 224.032606 167.260361 
L 226.215921 167.260361 
L 227.831194 167.260361 
L 229.199731 167.260361 
L 230.761548 167.260361 
L 233.169205 167.260361 
L 235.397476 167.260361 
L 237.03977 167.260361 
L 240.091918 167.260361 
L 241.352042 167.260361 
L 244.276765 167.260361 
L 246.240957 167.260361 
L 248.837492 167.260361 
L 250.195501 167.260361 
L 253.27767 167.260361 
L 254.963003 167.260361 
L 256.452334 167.260361 
L 259.765321 167.260361 
L 261.66951 167.260361 
L 262.218724 167.260361 
L 264.003791 167.260361 
L 267.185445 167.260361 
L 267.855 167.260361 
L 268.061808 167.260361 
L 268.165212 167.260361 
L 268.216914 167.260361 
" clip-path="url(#p3033113d1d)" style="fill: none; stroke: #0000ff; stroke-linecap: square"/>
   </g>
   <g id="line2d_47">
    <path d="M 268.68223 135.094907 
L 269.707314 135.094907 
L 271.74563 135.094907 
L 272.510549 135.094907 
L 275.011469 135.094907 
L 276.7535 135.094907 
L 279.577311 135.094907 
L 282.106586 135.094907 
L 283.542564 135.094907 
L 284.889109 135.094907 
L 287.892962 135.094907 
L 289.714492 135.094907 
L 292.71708 135.094907 
L 294.221882 135.094907 
L 295.434805 135.094907 
L 297.513637 135.094907 
L 301.28246 135.094907 
L 301.426962 135.094907 
L 304.189131 135.094907 
L 306.577148 135.094907 
L 309.680461 135.094907 
L 310.682922 135.094907 
L 313.713104 135.094907 
L 313.812231 135.094907 
L 314.019039 135.094907 
L 314.122442 135.094907 
L 314.174144 135.094907 
" clip-path="url(#p3033113d1d)" style="fill: none; stroke: #0000ff; stroke-linecap: square"/>
   </g>
   <g id="line2d_48">
    <path d="M 314.639461 102.929453 
L 315.788629 102.929453 
L 317.857537 102.929453 
L 318.433955 102.929453 
L 320.692841 102.929453 
L 322.592355 102.929453 
L 325.966088 102.929453 
L 327.002565 102.929453 
L 329.124874 102.929453 
L 331.413531 102.929453 
L 334.292802 102.929453 
L 334.682621 102.929453 
L 337.340097 102.929453 
L 340.598782 102.929453 
L 341.107538 102.929453 
L 344.107056 102.929453 
L 346.819574 102.929453 
L 348.422303 102.929453 
L 349.888037 102.929453 
L 352.358713 102.929453 
L 353.581178 102.929453 
L 355.723546 102.929453 
L 358.067528 102.929453 
L 359.769462 102.929453 
L 359.97627 102.929453 
L 360.079673 102.929453 
L 360.131375 102.929453 
" clip-path="url(#p3033113d1d)" style="fill: none; stroke: #0000ff; stroke-linecap: square"/>
   </g>
   <g id="line2d_49">
    <path d="M 360.596692 70.763999 
L 361.087905 70.763999 
L 363.260738 70.763999 
L 363.920486 70.763999 
L 366.365918 70.763999 
L 369.686876 70.763999 
L 370.999206 70.763999 
L 373.816859 70.763999 
L 374.175156 70.763999 
L 377.654127 70.763999 
L 379.443375 70.763999 
L 380.6284 70.763999 
L 384.383144 70.763999 
L 386.127471 70.763999 
L 387.05405 70.763999 
L 390.524673 70.763999 
L 391.642863 70.763999 
L 394.56869 70.763999 
L 395.121133 70.763999 
L 397.119303 70.763999 
L 399.221949 70.763999 
L 402.047196 70.763999 
L 403.919661 70.763999 
L 405.726693 70.763999 
L 405.935965 70.763999 
L 406.040602 70.763999 
L 406.09292 70.763999 
L 406.119079 70.763999 
" clip-path="url(#p3033113d1d)" style="fill: none; stroke: #0000ff; stroke-linecap: square"/>
   </g>
   <g id="line2d_50">
    <path d="M 406.553923 38.598545 
L 407.778934 38.598545 
L 410.738492 38.598545 
L 411.839881 38.598545 
L 414.216486 38.598545 
L 416.155105 38.598545 
L 419.775584 38.598545 
L 420.301847 38.598545 
L 423.373927 38.598545 
L 424.16507 38.598545 
L 427.685778 38.598545 
L 430.183926 38.598545 
L 431.075869 38.598545 
L 433.593808 38.598545 
L 435.735289 38.598545 
L 438.005343 38.598545 
L 438.703333 38.598545 
L 441.54316 38.598545 
L 443.762078 38.598545 
L 446.03474 38.598545 
L 448.866207 38.598545 
L 449.4083 38.598545 
L 451.683924 38.598545 
L 451.890731 38.598545 
L 451.994135 38.598545 
L 452.045837 38.598545 
L 452.071688 38.598545 
" clip-path="url(#p3033113d1d)" style="fill: none; stroke: #0000ff; stroke-linecap: square"/>
   </g>
   <g id="line2d_51">
    <path d="M 452.511154 6.433091 
" clip-path="url(#p3033113d1d)" style="fill: none; stroke: #0000ff; stroke-linecap: square"/>
   </g>
   <g id="patch_3">
    <path d="M 19.78 334.520722 
L 19.78 0 
" style="fill: none; stroke: #000000; stroke-width: 0.8; stroke-linejoin: miter; stroke-linecap: square"/>
   </g>
   <g id="patch_4">
    <path d="M 29.78 328.087631 
L 460.8 328.087631 
" style="fill: none; stroke: #000000; stroke-width: 0.8; stroke-linejoin: miter; stroke-linecap: square"/>
   </g>
  </g>
 </g>
 <defs>
  <clipPath id="p3033113d1d">
   <rect x="29.78" y="0" width="431.02" height="334.520722"/>
  </clipPath>
 </defs>
</svg>
