<?xml version="1.0" encoding="utf-8" standalone="no"?>
<!DOCTYPE svg PUBLIC "-//W3C//DTD SVG 1.1//EN"
  "http://www.w3.org/Graphics/SVG/1.1/DTD/svg11.dtd">
<svg xmlns:xlink="http://www.w3.org/1999/xlink" width="576pt" height="144pt" viewBox="0 0 576 144" xmlns="http://www.w3.org/2000/svg" version="1.1">
 <metadata>
  <rdf:RDF xmlns:dc="http://purl.org/dc/elements/1.1/" xmlns:cc="http://creativecommons.org/ns#" xmlns:rdf="http://www.w3.org/1999/02/22-rdf-syntax-ns#">
   <cc:Work>
    <dc:type rdf:resource="http://purl.org/dc/dcmitype/StillImage"/>
    <dc:date>2025-08-02T18:54:33.539980</dc:date>
    <dc:format>image/svg+xml</dc:format>
    <dc:creator>
     <cc:Agent>
      <dc:title>Matplotlib v3.10.3, https://matplotlib.org/</dc:title>
     </cc:Agent>
    </dc:creator>
   </cc:Work>
  </rdf:RDF>
 </metadata>
 <defs>
  <style type="text/css">*{stroke-linejoin: round; stroke-linecap: butt}</style>
 </defs>
 <g id="figure_1">
  <g id="patch_1">
   <path d="M 0 144 
L 576 144 
L 576 0 
L 0 0 
z
" style="fill: #ffffff"/>
  </g>
  <g id="axes_1">
   <g id="patch_2">
    <path d="M 0 140.122008 
L 576 140.122008 
L 576 1.718065 
L 0 1.718065 
z
" style="fill: #ffffff"/>
   </g>
   <g id="matplotlib.axis_1">
    <g id="xtick_1">
     <g id="line2d_1">
      <defs>
       <path id="mc13a6903fe" d="M 0 0 
L 0 3.5 
" style="stroke: #000000; stroke-width: 0.8"/>
      </defs>
      <g>
       <use xlink:href="#mc13a6903fe" x="11.076923" y="70.919993" style="stroke: #000000; stroke-width: 0.8"/>
      </g>
     </g>
     <g id="text_1">
      <!-- −3 -->
      <g transform="translate(3.705829 85.518431) scale(0.1 -0.1)">
       <defs>
        <path id="DejaVuSans-2212" d="M 678 2272 
L 4684 2272 
L 4684 1741 
L 678 1741 
L 678 2272 
z
" transform="scale(0.015625)"/>
        <path id="DejaVuSans-33" d="M 2597 2516 
Q 3050 2419 3304 2112 
Q 3559 1806 3559 1356 
Q 3559 666 3084 287 
Q 2609 -91 1734 -91 
Q 1441 -91 1130 -33 
Q 819 25 488 141 
L 488 750 
Q 750 597 1062 519 
Q 1375 441 1716 441 
Q 2309 441 2620 675 
Q 2931 909 2931 1356 
Q 2931 1769 2642 2001 
Q 2353 2234 1838 2234 
L 1294 2234 
L 1294 2753 
L 1863 2753 
Q 2328 2753 2575 2939 
Q 2822 3125 2822 3475 
Q 2822 3834 2567 4026 
Q 2313 4219 1838 4219 
Q 1578 4219 1281 4162 
Q 984 4106 628 3988 
L 628 4550 
Q 988 4650 1302 4700 
Q 1616 4750 1894 4750 
Q 2613 4750 3031 4423 
Q 3450 4097 3450 3541 
Q 3450 3153 3228 2886 
Q 3006 2619 2597 2516 
z
" transform="scale(0.015625)"/>
       </defs>
       <use xlink:href="#DejaVuSans-2212"/>
       <use xlink:href="#DejaVuSans-33" transform="translate(83.789062 0)"/>
      </g>
     </g>
    </g>
    <g id="xtick_2">
     <g id="line2d_2">
      <g>
       <use xlink:href="#mc13a6903fe" x="103.384615" y="70.919993" style="stroke: #000000; stroke-width: 0.8"/>
      </g>
     </g>
     <g id="text_2">
      <!-- −2 -->
      <g transform="translate(96.013522 85.518431) scale(0.1 -0.1)">
       <defs>
        <path id="DejaVuSans-32" d="M 1228 531 
L 3431 531 
L 3431 0 
L 469 0 
L 469 531 
Q 828 903 1448 1529 
Q 2069 2156 2228 2338 
Q 2531 2678 2651 2914 
Q 2772 3150 2772 3378 
Q 2772 3750 2511 3984 
Q 2250 4219 1831 4219 
Q 1534 4219 1204 4116 
Q 875 4013 500 3803 
L 500 4441 
Q 881 4594 1212 4672 
Q 1544 4750 1819 4750 
Q 2544 4750 2975 4387 
Q 3406 4025 3406 3419 
Q 3406 3131 3298 2873 
Q 3191 2616 2906 2266 
Q 2828 2175 2409 1742 
Q 1991 1309 1228 531 
z
" transform="scale(0.015625)"/>
       </defs>
       <use xlink:href="#DejaVuSans-2212"/>
       <use xlink:href="#DejaVuSans-32" transform="translate(83.789062 0)"/>
      </g>
     </g>
    </g>
    <g id="xtick_3">
     <g id="line2d_3">
      <g>
       <use xlink:href="#mc13a6903fe" x="195.692308" y="70.919993" style="stroke: #000000; stroke-width: 0.8"/>
      </g>
     </g>
     <g id="text_3">
      <!-- −1 -->
      <g transform="translate(188.321214 85.518431) scale(0.1 -0.1)">
       <defs>
        <path id="DejaVuSans-31" d="M 794 531 
L 1825 531 
L 1825 4091 
L 703 3866 
L 703 4441 
L 1819 4666 
L 2450 4666 
L 2450 531 
L 3481 531 
L 3481 0 
L 794 0 
L 794 531 
z
" transform="scale(0.015625)"/>
       </defs>
       <use xlink:href="#DejaVuSans-2212"/>
       <use xlink:href="#DejaVuSans-31" transform="translate(83.789062 0)"/>
      </g>
     </g>
    </g>
    <g id="xtick_4">
     <g id="line2d_4">
      <g>
       <use xlink:href="#mc13a6903fe" x="288" y="70.919993" style="stroke: #000000; stroke-width: 0.8"/>
      </g>
     </g>
    </g>
    <g id="xtick_5">
     <g id="line2d_5">
      <g>
       <use xlink:href="#mc13a6903fe" x="380.307692" y="70.919993" style="stroke: #000000; stroke-width: 0.8"/>
      </g>
     </g>
     <g id="text_4">
      <!-- 1 -->
      <g transform="translate(377.126442 85.518431) scale(0.1 -0.1)">
       <use xlink:href="#DejaVuSans-31"/>
      </g>
     </g>
    </g>
    <g id="xtick_6">
     <g id="line2d_6">
      <g>
       <use xlink:href="#mc13a6903fe" x="472.615385" y="70.919993" style="stroke: #000000; stroke-width: 0.8"/>
      </g>
     </g>
     <g id="text_5">
      <!-- 2 -->
      <g transform="translate(469.434135 85.518431) scale(0.1 -0.1)">
       <use xlink:href="#DejaVuSans-32"/>
      </g>
     </g>
    </g>
    <g id="xtick_7">
     <g id="line2d_7">
      <g>
       <use xlink:href="#mc13a6903fe" x="564.923077" y="70.919993" style="stroke: #000000; stroke-width: 0.8"/>
      </g>
     </g>
     <g id="text_6">
      <!-- 3 -->
      <g transform="translate(561.741827 85.518431) scale(0.1 -0.1)">
       <use xlink:href="#DejaVuSans-33"/>
      </g>
     </g>
    </g>
    <g id="xtick_8">
     <g id="line2d_8">
      <defs>
       <path id="m594c7bcfc1" d="M 0 0 
L 0 2 
" style="stroke: #000000; stroke-width: 0.6"/>
      </defs>
      <g>
       <use xlink:href="#m594c7bcfc1" x="29.538462" y="70.919993" style="stroke: #000000; stroke-width: 0.6"/>
      </g>
     </g>
    </g>
    <g id="xtick_9">
     <g id="line2d_9">
      <g>
       <use xlink:href="#m594c7bcfc1" x="48" y="70.919993" style="stroke: #000000; stroke-width: 0.6"/>
      </g>
     </g>
    </g>
    <g id="xtick_10">
     <g id="line2d_10">
      <g>
       <use xlink:href="#m594c7bcfc1" x="66.461538" y="70.919993" style="stroke: #000000; stroke-width: 0.6"/>
      </g>
     </g>
    </g>
    <g id="xtick_11">
     <g id="line2d_11">
      <g>
       <use xlink:href="#m594c7bcfc1" x="84.923077" y="70.919993" style="stroke: #000000; stroke-width: 0.6"/>
      </g>
     </g>
    </g>
    <g id="xtick_12">
     <g id="line2d_12">
      <g>
       <use xlink:href="#m594c7bcfc1" x="121.846154" y="70.919993" style="stroke: #000000; stroke-width: 0.6"/>
      </g>
     </g>
    </g>
    <g id="xtick_13">
     <g id="line2d_13">
      <g>
       <use xlink:href="#m594c7bcfc1" x="140.307692" y="70.919993" style="stroke: #000000; stroke-width: 0.6"/>
      </g>
     </g>
    </g>
    <g id="xtick_14">
     <g id="line2d_14">
      <g>
       <use xlink:href="#m594c7bcfc1" x="158.769231" y="70.919993" style="stroke: #000000; stroke-width: 0.6"/>
      </g>
     </g>
    </g>
    <g id="xtick_15">
     <g id="line2d_15">
      <g>
       <use xlink:href="#m594c7bcfc1" x="177.230769" y="70.919993" style="stroke: #000000; stroke-width: 0.6"/>
      </g>
     </g>
    </g>
    <g id="xtick_16">
     <g id="line2d_16">
      <g>
       <use xlink:href="#m594c7bcfc1" x="214.153846" y="70.919993" style="stroke: #000000; stroke-width: 0.6"/>
      </g>
     </g>
    </g>
    <g id="xtick_17">
     <g id="line2d_17">
      <g>
       <use xlink:href="#m594c7bcfc1" x="232.615385" y="70.919993" style="stroke: #000000; stroke-width: 0.6"/>
      </g>
     </g>
    </g>
    <g id="xtick_18">
     <g id="line2d_18">
      <g>
       <use xlink:href="#m594c7bcfc1" x="251.076923" y="70.919993" style="stroke: #000000; stroke-width: 0.6"/>
      </g>
     </g>
    </g>
    <g id="xtick_19">
     <g id="line2d_19">
      <g>
       <use xlink:href="#m594c7bcfc1" x="269.538462" y="70.919993" style="stroke: #000000; stroke-width: 0.6"/>
      </g>
     </g>
    </g>
    <g id="xtick_20">
     <g id="line2d_20">
      <g>
       <use xlink:href="#m594c7bcfc1" x="306.461538" y="70.919993" style="stroke: #000000; stroke-width: 0.6"/>
      </g>
     </g>
    </g>
    <g id="xtick_21">
     <g id="line2d_21">
      <g>
       <use xlink:href="#m594c7bcfc1" x="324.923077" y="70.919993" style="stroke: #000000; stroke-width: 0.6"/>
      </g>
     </g>
    </g>
    <g id="xtick_22">
     <g id="line2d_22">
      <g>
       <use xlink:href="#m594c7bcfc1" x="343.384615" y="70.919993" style="stroke: #000000; stroke-width: 0.6"/>
      </g>
     </g>
    </g>
    <g id="xtick_23">
     <g id="line2d_23">
      <g>
       <use xlink:href="#m594c7bcfc1" x="361.846154" y="70.919993" style="stroke: #000000; stroke-width: 0.6"/>
      </g>
     </g>
    </g>
    <g id="xtick_24">
     <g id="line2d_24">
      <g>
       <use xlink:href="#m594c7bcfc1" x="398.769231" y="70.919993" style="stroke: #000000; stroke-width: 0.6"/>
      </g>
     </g>
    </g>
    <g id="xtick_25">
     <g id="line2d_25">
      <g>
       <use xlink:href="#m594c7bcfc1" x="417.230769" y="70.919993" style="stroke: #000000; stroke-width: 0.6"/>
      </g>
     </g>
    </g>
    <g id="xtick_26">
     <g id="line2d_26">
      <g>
       <use xlink:href="#m594c7bcfc1" x="435.692308" y="70.919993" style="stroke: #000000; stroke-width: 0.6"/>
      </g>
     </g>
    </g>
    <g id="xtick_27">
     <g id="line2d_27">
      <g>
       <use xlink:href="#m594c7bcfc1" x="454.153846" y="70.919993" style="stroke: #000000; stroke-width: 0.6"/>
      </g>
     </g>
    </g>
    <g id="xtick_28">
     <g id="line2d_28">
      <g>
       <use xlink:href="#m594c7bcfc1" x="491.076923" y="70.919993" style="stroke: #000000; stroke-width: 0.6"/>
      </g>
     </g>
    </g>
    <g id="xtick_29">
     <g id="line2d_29">
      <g>
       <use xlink:href="#m594c7bcfc1" x="509.538462" y="70.919993" style="stroke: #000000; stroke-width: 0.6"/>
      </g>
     </g>
    </g>
    <g id="xtick_30">
     <g id="line2d_30">
      <g>
       <use xlink:href="#m594c7bcfc1" x="528" y="70.919993" style="stroke: #000000; stroke-width: 0.6"/>
      </g>
     </g>
    </g>
    <g id="xtick_31">
     <g id="line2d_31">
      <g>
       <use xlink:href="#m594c7bcfc1" x="546.461538" y="70.919993" style="stroke: #000000; stroke-width: 0.6"/>
      </g>
     </g>
    </g>
   </g>
   <g id="matplotlib.axis_2">
    <g id="ytick_1">
     <g id="line2d_32">
      <defs>
       <path id="mcce7f2386d" d="M 0 0 
L -3.5 0 
" style="stroke: #000000; stroke-width: 0.8"/>
      </defs>
      <g>
       <use xlink:href="#mcce7f2386d" x="288" y="137.460397" style="stroke: #000000; stroke-width: 0.8"/>
      </g>
     </g>
     <g id="text_7">
      <!-- −1.0 -->
      <g transform="translate(256.717187 141.259615) scale(0.1 -0.1)">
       <defs>
        <path id="DejaVuSans-2e" d="M 684 794 
L 1344 794 
L 1344 0 
L 684 0 
L 684 794 
z
" transform="scale(0.015625)"/>
        <path id="DejaVuSans-30" d="M 2034 4250 
Q 1547 4250 1301 3770 
Q 1056 3291 1056 2328 
Q 1056 1369 1301 889 
Q 1547 409 2034 409 
Q 2525 409 2770 889 
Q 3016 1369 3016 2328 
Q 3016 3291 2770 3770 
Q 2525 4250 2034 4250 
z
M 2034 4750 
Q 2819 4750 3233 4129 
Q 3647 3509 3647 2328 
Q 3647 1150 3233 529 
Q 2819 -91 2034 -91 
Q 1250 -91 836 529 
Q 422 1150 422 2328 
Q 422 3509 836 4129 
Q 1250 4750 2034 4750 
z
" transform="scale(0.015625)"/>
       </defs>
       <use xlink:href="#DejaVuSans-2212"/>
       <use xlink:href="#DejaVuSans-31" transform="translate(83.789062 0)"/>
       <use xlink:href="#DejaVuSans-2e" transform="translate(147.412109 0)"/>
       <use xlink:href="#DejaVuSans-30" transform="translate(179.199219 0)"/>
      </g>
     </g>
    </g>
    <g id="ytick_2">
     <g id="line2d_33">
      <g>
       <use xlink:href="#mcce7f2386d" x="288" y="104.190195" style="stroke: #000000; stroke-width: 0.8"/>
      </g>
     </g>
     <g id="text_8">
      <!-- −0.5 -->
      <g transform="translate(256.717187 107.989414) scale(0.1 -0.1)">
       <defs>
        <path id="DejaVuSans-35" d="M 691 4666 
L 3169 4666 
L 3169 4134 
L 1269 4134 
L 1269 2991 
Q 1406 3038 1543 3061 
Q 1681 3084 1819 3084 
Q 2600 3084 3056 2656 
Q 3513 2228 3513 1497 
Q 3513 744 3044 326 
Q 2575 -91 1722 -91 
Q 1428 -91 1123 -41 
Q 819 9 494 109 
L 494 744 
Q 775 591 1075 516 
Q 1375 441 1709 441 
Q 2250 441 2565 725 
Q 2881 1009 2881 1497 
Q 2881 1984 2565 2268 
Q 2250 2553 1709 2553 
Q 1456 2553 1204 2497 
Q 953 2441 691 2322 
L 691 4666 
z
" transform="scale(0.015625)"/>
       </defs>
       <use xlink:href="#DejaVuSans-2212"/>
       <use xlink:href="#DejaVuSans-30" transform="translate(83.789062 0)"/>
       <use xlink:href="#DejaVuSans-2e" transform="translate(147.412109 0)"/>
       <use xlink:href="#DejaVuSans-35" transform="translate(179.199219 0)"/>
      </g>
     </g>
    </g>
    <g id="ytick_3">
     <g id="line2d_34">
      <g>
       <use xlink:href="#mcce7f2386d" x="288" y="70.919993" style="stroke: #000000; stroke-width: 0.8"/>
      </g>
     </g>
    </g>
    <g id="ytick_4">
     <g id="line2d_35">
      <g>
       <use xlink:href="#mcce7f2386d" x="288" y="37.649791" style="stroke: #000000; stroke-width: 0.8"/>
      </g>
     </g>
     <g id="text_9">
      <!-- 0.5 -->
      <g transform="translate(265.096875 41.44901) scale(0.1 -0.1)">
       <use xlink:href="#DejaVuSans-30"/>
       <use xlink:href="#DejaVuSans-2e" transform="translate(63.623047 0)"/>
       <use xlink:href="#DejaVuSans-35" transform="translate(95.410156 0)"/>
      </g>
     </g>
    </g>
    <g id="ytick_5">
     <g id="line2d_36">
      <g>
       <use xlink:href="#mcce7f2386d" x="288" y="4.37959" style="stroke: #000000; stroke-width: 0.8"/>
      </g>
     </g>
     <g id="text_10">
      <!-- 1.0 -->
      <g transform="translate(265.096875 8.178808) scale(0.1 -0.1)">
       <use xlink:href="#DejaVuSans-31"/>
       <use xlink:href="#DejaVuSans-2e" transform="translate(63.623047 0)"/>
       <use xlink:href="#DejaVuSans-30" transform="translate(95.410156 0)"/>
      </g>
     </g>
    </g>
    <g id="ytick_6">
     <g id="line2d_37">
      <defs>
       <path id="m79725cb3cc" d="M 0 0 
L -2 0 
" style="stroke: #000000; stroke-width: 0.6"/>
      </defs>
      <g>
       <use xlink:href="#m79725cb3cc" x="288" y="130.806356" style="stroke: #000000; stroke-width: 0.6"/>
      </g>
     </g>
    </g>
    <g id="ytick_7">
     <g id="line2d_38">
      <g>
       <use xlink:href="#m79725cb3cc" x="288" y="124.152316" style="stroke: #000000; stroke-width: 0.6"/>
      </g>
     </g>
    </g>
    <g id="ytick_8">
     <g id="line2d_39">
      <g>
       <use xlink:href="#m79725cb3cc" x="288" y="117.498276" style="stroke: #000000; stroke-width: 0.6"/>
      </g>
     </g>
    </g>
    <g id="ytick_9">
     <g id="line2d_40">
      <g>
       <use xlink:href="#m79725cb3cc" x="288" y="110.844235" style="stroke: #000000; stroke-width: 0.6"/>
      </g>
     </g>
    </g>
    <g id="ytick_10">
     <g id="line2d_41">
      <g>
       <use xlink:href="#m79725cb3cc" x="288" y="97.536155" style="stroke: #000000; stroke-width: 0.6"/>
      </g>
     </g>
    </g>
    <g id="ytick_11">
     <g id="line2d_42">
      <g>
       <use xlink:href="#m79725cb3cc" x="288" y="90.882114" style="stroke: #000000; stroke-width: 0.6"/>
      </g>
     </g>
    </g>
    <g id="ytick_12">
     <g id="line2d_43">
      <g>
       <use xlink:href="#m79725cb3cc" x="288" y="84.228074" style="stroke: #000000; stroke-width: 0.6"/>
      </g>
     </g>
    </g>
    <g id="ytick_13">
     <g id="line2d_44">
      <g>
       <use xlink:href="#m79725cb3cc" x="288" y="77.574034" style="stroke: #000000; stroke-width: 0.6"/>
      </g>
     </g>
    </g>
    <g id="ytick_14">
     <g id="line2d_45">
      <g>
       <use xlink:href="#m79725cb3cc" x="288" y="64.265953" style="stroke: #000000; stroke-width: 0.6"/>
      </g>
     </g>
    </g>
    <g id="ytick_15">
     <g id="line2d_46">
      <g>
       <use xlink:href="#m79725cb3cc" x="288" y="57.611912" style="stroke: #000000; stroke-width: 0.6"/>
      </g>
     </g>
    </g>
    <g id="ytick_16">
     <g id="line2d_47">
      <g>
       <use xlink:href="#m79725cb3cc" x="288" y="50.957872" style="stroke: #000000; stroke-width: 0.6"/>
      </g>
     </g>
    </g>
    <g id="ytick_17">
     <g id="line2d_48">
      <g>
       <use xlink:href="#m79725cb3cc" x="288" y="44.303832" style="stroke: #000000; stroke-width: 0.6"/>
      </g>
     </g>
    </g>
    <g id="ytick_18">
     <g id="line2d_49">
      <g>
       <use xlink:href="#m79725cb3cc" x="288" y="30.995751" style="stroke: #000000; stroke-width: 0.6"/>
      </g>
     </g>
    </g>
    <g id="ytick_19">
     <g id="line2d_50">
      <g>
       <use xlink:href="#m79725cb3cc" x="288" y="24.341711" style="stroke: #000000; stroke-width: 0.6"/>
      </g>
     </g>
    </g>
    <g id="ytick_20">
     <g id="line2d_51">
      <g>
       <use xlink:href="#m79725cb3cc" x="288" y="17.68767" style="stroke: #000000; stroke-width: 0.6"/>
      </g>
     </g>
    </g>
    <g id="ytick_21">
     <g id="line2d_52">
      <g>
       <use xlink:href="#m79725cb3cc" x="288" y="11.03363" style="stroke: #000000; stroke-width: 0.6"/>
      </g>
     </g>
    </g>
   </g>
   <g id="line2d_53">
    <path d="M 11.076923 43.497463 
L 13.462911 34.498851 
L 15.720948 26.839115 
L 17.414476 21.727798 
L 18.959294 17.586236 
L 20.522884 13.933506 
L 22.086474 10.849119 
L 23.549381 8.495504 
L 25.012288 6.667804 
L 26.490615 5.361559 
L 27.229778 4.912992 
L 28.424351 4.475698 
L 29.33517 4.37968 
L 30.245988 4.487073 
L 31.156807 4.795409 
L 32.07571 5.306996 
L 33.096305 6.106724 
L 34.210507 7.251232 
L 35.324708 8.670501 
L 36.996011 11.292731 
L 38.545148 14.222839 
L 40.094285 17.599574 
L 42.130577 22.656776 
L 44.460401 29.199872 
L 47.186502 37.700479 
L 50.003581 47.204658 
L 54.061438 61.656768 
L 60.3261 84.12157 
L 63.192084 93.856471 
L 66.733377 104.977288 
L 69.258958 112.122293 
L 71.250953 117.219266 
L 73.242948 121.796827 
L 75.189317 125.736273 
L 76.9972 128.902115 
L 78.156293 130.674993 
L 79.990508 133.063046 
L 81.641908 134.771083 
L 82.790517 135.711229 
L 83.986801 136.474644 
L 85.183086 137.019162 
L 86.37937 137.346791 
L 87.624569 137.460394 
L 89.078272 137.304678 
L 90.531976 136.845488 
L 91.858031 136.169333 
L 93.184086 135.255432 
L 94.510141 134.112045 
L 95.836196 132.748114 
L 97.899556 130.209942 
L 100.137664 126.924243 
L 102.503014 122.906156 
L 104.961372 118.204653 
L 107.417919 113.046133 
L 110.818473 105.28815 
L 115.119455 94.737354 
L 124.008017 71.894323 
L 128.110446 61.549442 
L 132.414762 51.214029 
L 135.329473 44.63421 
L 138.245167 38.460149 
L 141.124449 32.810511 
L 144.444911 26.894023 
L 146.920946 22.922469 
L 149.084079 19.770605 
L 151.247212 16.919739 
L 153.188344 14.619275 
L 155.71433 11.990335 
L 157.504135 10.37523 
L 160.108651 8.386081 
L 161.920179 7.249934 
L 163.885254 6.24101 
L 165.821772 5.467947 
L 167.789075 4.900005 
L 169.787164 4.53903 
L 172.049778 4.381248 
L 174.265737 4.471877 
L 176.481696 4.79097 
L 178.940309 5.39475 
L 181.738178 6.376433 
L 184.711706 7.731009 
L 188.020974 9.572207 
L 190.533948 11.175949 
L 194.975397 14.374392 
L 199.312956 17.855986 
L 205.077729 22.864081 
L 216.759822 33.588983 
L 224.523026 40.613658 
L 230.064788 45.380969 
L 235.693787 49.919587 
L 241.398566 54.143699 
L 246.203751 57.373169 
L 251.098132 60.330967 
L 255.128545 62.504436 
L 257.723431 63.775279 
L 260.824499 65.160015 
L 265.736758 67.051503 
L 270.512601 68.532364 
L 275.584962 69.716394 
L 279.865798 70.403297 
L 284.379586 70.817634 
L 287.240873 70.915493 
L 290.785726 70.859391 
L 294.735797 70.565681 
L 298.621247 70.03905 
L 302.617585 69.251535 
L 305.653258 68.486879 
L 309.778525 67.217943 
L 314.093721 65.608466 
L 318.114524 63.851263 
L 320.528721 62.678103 
L 324.211433 60.720338 
L 329.821515 57.357017 
L 334.509985 54.208055 
L 339.60429 50.460824 
L 345.692446 45.583528 
L 350.004464 41.905268 
L 359.777842 33.09342 
L 371.940147 21.956272 
L 377.027804 17.571992 
L 381.683698 13.873751 
L 385.543425 11.124164 
L 389.092273 8.916475 
L 391.583066 7.583402 
L 394.363198 6.335712 
L 396.569945 5.544708 
L 398.776692 4.946272 
L 401.470917 4.498116 
L 403.604049 4.379773 
L 406.068538 4.52114 
L 407.72349 4.792224 
L 410.278483 5.502692 
L 412.22463 6.291394 
L 414.290703 7.371926 
L 416.233885 8.623537 
L 418.515072 10.391482 
L 421.197509 12.891935 
L 423.579546 15.500137 
L 425.730507 18.170856 
L 428.014036 21.333246 
L 430.400561 24.994382 
L 433.249721 29.830854 
L 436.297528 35.542594 
L 439.161501 41.384587 
L 442.47434 48.661636 
L 446.560589 58.290331 
L 450.183358 67.289255 
L 464.386158 103.38929 
L 468.297075 112.421336 
L 470.826655 117.776587 
L 472.722644 121.479606 
L 475.519904 126.375815 
L 477.316217 129.119241 
L 479.112531 131.516386 
L 481.184692 133.817361 
L 482.582708 135.070736 
L 483.870426 136.001287 
L 485.03127 136.649522 
L 486.192114 137.111626 
L 487.352958 137.382891 
L 488.590334 137.457195 
L 489.247287 137.405045 
L 490.187446 137.218435 
L 491.127606 136.898687 
L 492.067765 136.4446 
L 493.801665 135.251911 
L 495.389146 133.753936 
L 496.798727 132.098586 
L 498.646246 129.469054 
L 500.615347 126.101537 
L 502.235224 122.905851 
L 504.431732 117.984169 
L 506.754277 112.086778 
L 508.532233 107.128774 
L 511.411317 98.379332 
L 514.833707 87.030207 
L 518.829572 72.910346 
L 526.170214 46.601966 
L 528.965473 37.206282 
L 532.10857 27.534338 
L 534.276604 21.592919 
L 536.676519 15.865778 
L 538.116467 12.91479 
L 539.762054 10.031796 
L 541.008365 8.218008 
L 542.403929 6.585514 
L 543.700502 5.461675 
L 544.898084 4.77119 
L 546.051414 4.42978 
L 547.160491 4.406571 
L 548.126917 4.633436 
L 548.950691 5.009934 
L 550.186351 5.892042 
L 551.010125 6.691802 
L 552.211782 8.160964 
L 553.413439 9.985977 
L 554.852772 12.6325 
L 556.41751 16.063782 
L 558.044951 20.22017 
L 559.672391 24.94224 
L 561.334973 30.307513 
L 564.026051 40.016673 
L 564.923077 43.497463 
L 564.923077 43.497463 
" clip-path="url(#p020691567c)" style="fill: none; stroke: #0000ff; stroke-linecap: square"/>
   </g>
   <g id="patch_3">
    <path d="M 288 140.122008 
L 288 1.718065 
" style="fill: none; stroke: #000000; stroke-width: 0.8; stroke-linejoin: miter; stroke-linecap: square"/>
   </g>
   <g id="patch_4">
    <path d="M 0 70.919993 
L 576 70.919993 
" style="fill: none; stroke: #000000; stroke-width: 0.8; stroke-linejoin: miter; stroke-linecap: square"/>
   </g>
  </g>
 </g>
 <defs>
  <clipPath id="p020691567c">
   <rect x="0" y="1.718065" width="576" height="138.403942"/>
  </clipPath>
 </defs>
</svg>
