<?xml version="1.0" encoding="utf-8" standalone="no"?>
<!DOCTYPE svg PUBLIC "-//W3C//DTD SVG 1.1//EN"
  "http://www.w3.org/Graphics/SVG/1.1/DTD/svg11.dtd">
<svg xmlns:xlink="http://www.w3.org/1999/xlink" width="460.8pt" height="345.6pt" viewBox="0 0 460.8 345.6" xmlns="http://www.w3.org/2000/svg" version="1.1">
 <metadata>
  <rdf:RDF xmlns:dc="http://purl.org/dc/elements/1.1/" xmlns:cc="http://creativecommons.org/ns#" xmlns:rdf="http://www.w3.org/1999/02/22-rdf-syntax-ns#">
   <cc:Work>
    <dc:type rdf:resource="http://purl.org/dc/dcmitype/StillImage"/>
    <dc:date>2025-08-04T20:47:54.261433</dc:date>
    <dc:format>image/svg+xml</dc:format>
    <dc:creator>
     <cc:Agent>
      <dc:title>Matplotlib v3.10.3, https://matplotlib.org/</dc:title>
     </cc:Agent>
    </dc:creator>
   </cc:Work>
  </rdf:RDF>
 </metadata>
 <defs>
  <style type="text/css">*{stroke-linejoin: round; stroke-linecap: butt}</style>
 </defs>
 <g id="figure_1">
  <g id="patch_1">
   <path d="M 0 345.6 
L 460.8 345.6 
L 460.8 0 
L 0 0 
z
" style="fill: #ffffff"/>
  </g>
  <g id="axes_1">
   <g id="patch_2">
    <path d="M 65.87258 345.6 
L 394.92742 345.6 
L 394.92742 0 
L 65.87258 0 
z
" style="fill: #ffffff"/>
   </g>
   <g id="matplotlib.axis_1">
    <g id="xtick_1">
     <g id="line2d_1">
      <defs>
       <path id="m74fd37c99f" d="M 0 0 
L 0 3.5 
" style="stroke: #000000; stroke-width: 0.8"/>
      </defs>
      <g>
       <use xlink:href="#m74fd37c99f" x="147.31546" y="172.802171" style="stroke: #000000; stroke-width: 0.8"/>
      </g>
     </g>
     <g id="text_1">
      <!-- −0.5 -->
      <g transform="translate(135.174054 187.400608) scale(0.1 -0.1)">
       <defs>
        <path id="DejaVuSans-2212" d="M 678 2272 
L 4684 2272 
L 4684 1741 
L 678 1741 
L 678 2272 
z
" transform="scale(0.015625)"/>
        <path id="DejaVuSans-30" d="M 2034 4250 
Q 1547 4250 1301 3770 
Q 1056 3291 1056 2328 
Q 1056 1369 1301 889 
Q 1547 409 2034 409 
Q 2525 409 2770 889 
Q 3016 1369 3016 2328 
Q 3016 3291 2770 3770 
Q 2525 4250 2034 4250 
z
M 2034 4750 
Q 2819 4750 3233 4129 
Q 3647 3509 3647 2328 
Q 3647 1150 3233 529 
Q 2819 -91 2034 -91 
Q 1250 -91 836 529 
Q 422 1150 422 2328 
Q 422 3509 836 4129 
Q 1250 4750 2034 4750 
z
" transform="scale(0.015625)"/>
        <path id="DejaVuSans-2e" d="M 684 794 
L 1344 794 
L 1344 0 
L 684 0 
L 684 794 
z
" transform="scale(0.015625)"/>
        <path id="DejaVuSans-35" d="M 691 4666 
L 3169 4666 
L 3169 4134 
L 1269 4134 
L 1269 2991 
Q 1406 3038 1543 3061 
Q 1681 3084 1819 3084 
Q 2600 3084 3056 2656 
Q 3513 2228 3513 1497 
Q 3513 744 3044 326 
Q 2575 -91 1722 -91 
Q 1428 -91 1123 -41 
Q 819 9 494 109 
L 494 744 
Q 775 591 1075 516 
Q 1375 441 1709 441 
Q 2250 441 2565 725 
Q 2881 1009 2881 1497 
Q 2881 1984 2565 2268 
Q 2250 2553 1709 2553 
Q 1456 2553 1204 2497 
Q 953 2441 691 2322 
L 691 4666 
z
" transform="scale(0.015625)"/>
       </defs>
       <use xlink:href="#DejaVuSans-2212"/>
       <use xlink:href="#DejaVuSans-30" transform="translate(83.789062 0)"/>
       <use xlink:href="#DejaVuSans-2e" transform="translate(147.412109 0)"/>
       <use xlink:href="#DejaVuSans-35" transform="translate(179.199219 0)"/>
      </g>
     </g>
    </g>
    <g id="xtick_2">
     <g id="line2d_2">
      <g>
       <use xlink:href="#m74fd37c99f" x="230.399994" y="172.802171" style="stroke: #000000; stroke-width: 0.8"/>
      </g>
     </g>
    </g>
    <g id="xtick_3">
     <g id="line2d_3">
      <g>
       <use xlink:href="#m74fd37c99f" x="313.484528" y="172.802171" style="stroke: #000000; stroke-width: 0.8"/>
      </g>
     </g>
     <g id="text_2">
      <!-- 0.5 -->
      <g transform="translate(305.532965 187.400608) scale(0.1 -0.1)">
       <use xlink:href="#DejaVuSans-30"/>
       <use xlink:href="#DejaVuSans-2e" transform="translate(63.623047 0)"/>
       <use xlink:href="#DejaVuSans-35" transform="translate(95.410156 0)"/>
      </g>
     </g>
    </g>
    <g id="xtick_4">
     <g id="line2d_4">
      <defs>
       <path id="mf0cde6550f" d="M 0 0 
L 0 2 
" style="stroke: #000000; stroke-width: 0.6"/>
      </defs>
      <g>
       <use xlink:href="#mf0cde6550f" x="80.847833" y="172.802171" style="stroke: #000000; stroke-width: 0.6"/>
      </g>
     </g>
    </g>
    <g id="xtick_5">
     <g id="line2d_5">
      <g>
       <use xlink:href="#mf0cde6550f" x="97.46474" y="172.802171" style="stroke: #000000; stroke-width: 0.6"/>
      </g>
     </g>
    </g>
    <g id="xtick_6">
     <g id="line2d_6">
      <g>
       <use xlink:href="#mf0cde6550f" x="114.081646" y="172.802171" style="stroke: #000000; stroke-width: 0.6"/>
      </g>
     </g>
    </g>
    <g id="xtick_7">
     <g id="line2d_7">
      <g>
       <use xlink:href="#mf0cde6550f" x="130.698553" y="172.802171" style="stroke: #000000; stroke-width: 0.6"/>
      </g>
     </g>
    </g>
    <g id="xtick_8">
     <g id="line2d_8">
      <g>
       <use xlink:href="#mf0cde6550f" x="163.932367" y="172.802171" style="stroke: #000000; stroke-width: 0.6"/>
      </g>
     </g>
    </g>
    <g id="xtick_9">
     <g id="line2d_9">
      <g>
       <use xlink:href="#mf0cde6550f" x="180.549274" y="172.802171" style="stroke: #000000; stroke-width: 0.6"/>
      </g>
     </g>
    </g>
    <g id="xtick_10">
     <g id="line2d_10">
      <g>
       <use xlink:href="#mf0cde6550f" x="197.16618" y="172.802171" style="stroke: #000000; stroke-width: 0.6"/>
      </g>
     </g>
    </g>
    <g id="xtick_11">
     <g id="line2d_11">
      <g>
       <use xlink:href="#mf0cde6550f" x="213.783087" y="172.802171" style="stroke: #000000; stroke-width: 0.6"/>
      </g>
     </g>
    </g>
    <g id="xtick_12">
     <g id="line2d_12">
      <g>
       <use xlink:href="#mf0cde6550f" x="247.016901" y="172.802171" style="stroke: #000000; stroke-width: 0.6"/>
      </g>
     </g>
    </g>
    <g id="xtick_13">
     <g id="line2d_13">
      <g>
       <use xlink:href="#mf0cde6550f" x="263.633807" y="172.802171" style="stroke: #000000; stroke-width: 0.6"/>
      </g>
     </g>
    </g>
    <g id="xtick_14">
     <g id="line2d_14">
      <g>
       <use xlink:href="#mf0cde6550f" x="280.250714" y="172.802171" style="stroke: #000000; stroke-width: 0.6"/>
      </g>
     </g>
    </g>
    <g id="xtick_15">
     <g id="line2d_15">
      <g>
       <use xlink:href="#mf0cde6550f" x="296.867621" y="172.802171" style="stroke: #000000; stroke-width: 0.6"/>
      </g>
     </g>
    </g>
    <g id="xtick_16">
     <g id="line2d_16">
      <g>
       <use xlink:href="#mf0cde6550f" x="330.101434" y="172.802171" style="stroke: #000000; stroke-width: 0.6"/>
      </g>
     </g>
    </g>
    <g id="xtick_17">
     <g id="line2d_17">
      <g>
       <use xlink:href="#mf0cde6550f" x="346.718341" y="172.802171" style="stroke: #000000; stroke-width: 0.6"/>
      </g>
     </g>
    </g>
    <g id="xtick_18">
     <g id="line2d_18">
      <g>
       <use xlink:href="#mf0cde6550f" x="363.335248" y="172.802171" style="stroke: #000000; stroke-width: 0.6"/>
      </g>
     </g>
    </g>
    <g id="xtick_19">
     <g id="line2d_19">
      <g>
       <use xlink:href="#mf0cde6550f" x="379.952155" y="172.802171" style="stroke: #000000; stroke-width: 0.6"/>
      </g>
     </g>
    </g>
   </g>
   <g id="matplotlib.axis_2">
    <g id="ytick_1">
     <g id="line2d_20">
      <defs>
       <path id="m6b2e0c71ae" d="M 0 0 
L -3.5 0 
" style="stroke: #000000; stroke-width: 0.8"/>
      </defs>
      <g>
       <use xlink:href="#m6b2e0c71ae" x="230.399994" y="338.971239" style="stroke: #000000; stroke-width: 0.8"/>
      </g>
     </g>
     <g id="text_3">
      <!-- −1.0 -->
      <g transform="translate(199.117181 342.770457) scale(0.1 -0.1)">
       <defs>
        <path id="DejaVuSans-31" d="M 794 531 
L 1825 531 
L 1825 4091 
L 703 3866 
L 703 4441 
L 1819 4666 
L 2450 4666 
L 2450 531 
L 3481 531 
L 3481 0 
L 794 0 
L 794 531 
z
" transform="scale(0.015625)"/>
       </defs>
       <use xlink:href="#DejaVuSans-2212"/>
       <use xlink:href="#DejaVuSans-31" transform="translate(83.789062 0)"/>
       <use xlink:href="#DejaVuSans-2e" transform="translate(147.412109 0)"/>
       <use xlink:href="#DejaVuSans-30" transform="translate(179.199219 0)"/>
      </g>
     </g>
    </g>
    <g id="ytick_2">
     <g id="line2d_21">
      <g>
       <use xlink:href="#m6b2e0c71ae" x="230.399994" y="255.886705" style="stroke: #000000; stroke-width: 0.8"/>
      </g>
     </g>
     <g id="text_4">
      <!-- −0.5 -->
      <g transform="translate(199.117181 259.685924) scale(0.1 -0.1)">
       <use xlink:href="#DejaVuSans-2212"/>
       <use xlink:href="#DejaVuSans-30" transform="translate(83.789062 0)"/>
       <use xlink:href="#DejaVuSans-2e" transform="translate(147.412109 0)"/>
       <use xlink:href="#DejaVuSans-35" transform="translate(179.199219 0)"/>
      </g>
     </g>
    </g>
    <g id="ytick_3">
     <g id="line2d_22">
      <g>
       <use xlink:href="#m6b2e0c71ae" x="230.399994" y="172.802171" style="stroke: #000000; stroke-width: 0.8"/>
      </g>
     </g>
    </g>
    <g id="ytick_4">
     <g id="line2d_23">
      <g>
       <use xlink:href="#m6b2e0c71ae" x="230.399994" y="89.717637" style="stroke: #000000; stroke-width: 0.8"/>
      </g>
     </g>
     <g id="text_5">
      <!-- 0.5 -->
      <g transform="translate(207.496869 93.516856) scale(0.1 -0.1)">
       <use xlink:href="#DejaVuSans-30"/>
       <use xlink:href="#DejaVuSans-2e" transform="translate(63.623047 0)"/>
       <use xlink:href="#DejaVuSans-35" transform="translate(95.410156 0)"/>
      </g>
     </g>
    </g>
    <g id="ytick_5">
     <g id="line2d_24">
      <g>
       <use xlink:href="#m6b2e0c71ae" x="230.399994" y="6.633103" style="stroke: #000000; stroke-width: 0.8"/>
      </g>
     </g>
     <g id="text_6">
      <!-- 1.0 -->
      <g transform="translate(207.496869 10.432322) scale(0.1 -0.1)">
       <use xlink:href="#DejaVuSans-31"/>
       <use xlink:href="#DejaVuSans-2e" transform="translate(63.623047 0)"/>
       <use xlink:href="#DejaVuSans-30" transform="translate(95.410156 0)"/>
      </g>
     </g>
    </g>
    <g id="ytick_6">
     <g id="line2d_25">
      <defs>
       <path id="mfaf16f06b6" d="M 0 0 
L -2 0 
" style="stroke: #000000; stroke-width: 0.6"/>
      </defs>
      <g>
       <use xlink:href="#mfaf16f06b6" x="230.399994" y="322.354332" style="stroke: #000000; stroke-width: 0.6"/>
      </g>
     </g>
    </g>
    <g id="ytick_7">
     <g id="line2d_26">
      <g>
       <use xlink:href="#mfaf16f06b6" x="230.399994" y="305.737425" style="stroke: #000000; stroke-width: 0.6"/>
      </g>
     </g>
    </g>
    <g id="ytick_8">
     <g id="line2d_27">
      <g>
       <use xlink:href="#mfaf16f06b6" x="230.399994" y="289.120518" style="stroke: #000000; stroke-width: 0.6"/>
      </g>
     </g>
    </g>
    <g id="ytick_9">
     <g id="line2d_28">
      <g>
       <use xlink:href="#mfaf16f06b6" x="230.399994" y="272.503612" style="stroke: #000000; stroke-width: 0.6"/>
      </g>
     </g>
    </g>
    <g id="ytick_10">
     <g id="line2d_29">
      <g>
       <use xlink:href="#mfaf16f06b6" x="230.399994" y="239.269798" style="stroke: #000000; stroke-width: 0.6"/>
      </g>
     </g>
    </g>
    <g id="ytick_11">
     <g id="line2d_30">
      <g>
       <use xlink:href="#mfaf16f06b6" x="230.399994" y="222.652891" style="stroke: #000000; stroke-width: 0.6"/>
      </g>
     </g>
    </g>
    <g id="ytick_12">
     <g id="line2d_31">
      <g>
       <use xlink:href="#mfaf16f06b6" x="230.399994" y="206.035984" style="stroke: #000000; stroke-width: 0.6"/>
      </g>
     </g>
    </g>
    <g id="ytick_13">
     <g id="line2d_32">
      <g>
       <use xlink:href="#mfaf16f06b6" x="230.399994" y="189.419078" style="stroke: #000000; stroke-width: 0.6"/>
      </g>
     </g>
    </g>
    <g id="ytick_14">
     <g id="line2d_33">
      <g>
       <use xlink:href="#mfaf16f06b6" x="230.399994" y="156.185264" style="stroke: #000000; stroke-width: 0.6"/>
      </g>
     </g>
    </g>
    <g id="ytick_15">
     <g id="line2d_34">
      <g>
       <use xlink:href="#mfaf16f06b6" x="230.399994" y="139.568357" style="stroke: #000000; stroke-width: 0.6"/>
      </g>
     </g>
    </g>
    <g id="ytick_16">
     <g id="line2d_35">
      <g>
       <use xlink:href="#mfaf16f06b6" x="230.399994" y="122.951451" style="stroke: #000000; stroke-width: 0.6"/>
      </g>
     </g>
    </g>
    <g id="ytick_17">
     <g id="line2d_36">
      <g>
       <use xlink:href="#mfaf16f06b6" x="230.399994" y="106.334544" style="stroke: #000000; stroke-width: 0.6"/>
      </g>
     </g>
    </g>
    <g id="ytick_18">
     <g id="line2d_37">
      <g>
       <use xlink:href="#mfaf16f06b6" x="230.399994" y="73.10073" style="stroke: #000000; stroke-width: 0.6"/>
      </g>
     </g>
    </g>
    <g id="ytick_19">
     <g id="line2d_38">
      <g>
       <use xlink:href="#mfaf16f06b6" x="230.399994" y="56.483824" style="stroke: #000000; stroke-width: 0.6"/>
      </g>
     </g>
    </g>
    <g id="ytick_20">
     <g id="line2d_39">
      <g>
       <use xlink:href="#mfaf16f06b6" x="230.399994" y="39.866917" style="stroke: #000000; stroke-width: 0.6"/>
      </g>
     </g>
    </g>
    <g id="ytick_21">
     <g id="line2d_40">
      <g>
       <use xlink:href="#mfaf16f06b6" x="230.399994" y="23.25001" style="stroke: #000000; stroke-width: 0.6"/>
      </g>
     </g>
    </g>
   </g>
   <g id="line2d_41">
    <path d="M 230.399994 172.802171 
L 233.854956 172.702137 
L 239.142925 172.396968 
L 246.600857 171.770773 
L 256.477762 170.669278 
L 265.086754 169.492391 
L 274.320881 168.024704 
L 284.194302 166.230225 
L 292.686819 164.502917 
L 301.38477 162.555576 
L 318.962679 158.041398 
L 332.17183 154.085137 
L 338.849408 151.872786 
L 345.289581 149.583665 
L 351.441116 147.234296 
L 361.236486 143.091337 
L 368.528183 139.582593 
L 374.826972 136.118443 
L 377.571151 134.423485 
L 380.02997 132.76429 
L 382.193549 131.149126 
L 384.018935 129.61706 
L 385.545684 128.142791 
L 386.63064 126.907983 
L 387.480341 125.727888 
L 388.092533 124.607257 
L 388.465705 123.55069 
L 388.599089 122.562612 
L 388.49266 121.647254 
L 388.147135 120.808632 
L 387.563966 120.050528 
L 386.980064 119.54299 
L 386.268105 119.082908 
L 385.216501 118.583007 
L 383.975442 118.159244 
L 382.548388 117.813559 
L 379.152472 117.363045 
L 375.065586 117.242318 
L 370.579506 117.439624 
L 365.824915 117.909869 
L 360.623433 118.654867 
L 355.018986 119.670791 
L 346.928469 121.452131 
L 341.570517 122.804768 
L 336.037937 124.328182 
L 330.363129 126.012851 
L 321.276008 128.946348 
L 312.049926 132.199245 
L 293.695043 139.433514 
L 283.471212 143.888599 
L 272.895162 148.820718 
L 263.139584 153.675957 
L 254.401071 158.295911 
L 244.808347 163.706 
L 237.244305 168.283556 
L 231.53327 172.01002 
L 230.426408 172.782866 
L 232.373531 171.293032 
L 237.431978 167.169904 
L 244.102572 161.37525 
L 250.348382 155.650294 
L 257.448308 148.821028 
L 265.142501 141.043092 
L 271.198514 134.640175 
L 277.36929 127.84848 
L 284.388186 119.76926 
L 291.291704 111.412547 
L 296.723438 104.508786 
L 301.922455 97.581974 
L 305.565578 92.508875 
L 309.02358 87.494459 
L 312.274042 82.569146 
L 315.296237 77.76318 
L 317.86139 73.468253 
L 320.203525 69.322781 
L 322.310745 65.349092 
L 324.172652 61.568817 
L 326.676761 55.831368 
L 327.94985 52.370593 
L 328.898495 49.228951 
L 329.529046 46.369781 
L 329.817539 43.838147 
L 329.747478 41.720387 
L 329.322621 40.033657 
L 328.97903 39.356494 
L 328.522858 38.764086 
L 327.9721 38.298992 
L 327.328339 37.962488 
L 326.593342 37.755603 
L 325.769047 37.679108 
L 324.857566 37.73352 
L 323.861171 37.919096 
L 321.567631 38.707493 
L 318.888416 40.078145 
L 315.898678 42.010789 
L 312.627597 44.491695 
L 308.307673 48.227453 
L 305.610707 50.781015 
L 299.942343 56.619265 
L 293.994866 63.348227 
L 287.873773 70.851846 
L 283.59664 76.422604 
L 279.828015 81.548405 
L 272.384193 92.268776 
L 260.544743 111.013982 
L 252.588403 124.915242 
L 247.151837 135.132397 
L 242.669269 144.089666 
L 238.216817 153.588263 
L 234.783417 161.464864 
L 232.015059 168.351202 
L 230.401616 172.797198 
L 230.928652 171.050662 
L 232.538642 165.070264 
L 234.493441 156.767269 
L 236.066552 149.212366 
L 237.692104 140.419359 
L 239.275976 130.586486 
L 240.70154 120.184715 
L 241.940734 109.177983 
L 242.775502 99.853235 
L 243.417507 90.385966 
L 243.889844 79.454506 
L 244.051814 68.690178 
L 243.888901 58.282393 
L 243.397005 48.414969 
L 242.729079 40.626636 
L 241.85903 33.581271 
L 240.78929 27.208441 
L 239.537214 21.58618 
L 238.123884 16.783418 
L 237.3431 14.65478 
L 236.529755 12.76496 
L 235.687619 11.120091 
L 234.820616 9.72551 
L 234.016457 8.681262 
L 233.198292 7.849268 
L 232.369282 7.231749 
L 231.532636 6.830354 
L 230.691598 6.646154 
L 229.849428 6.679641 
L 229.009394 6.930726 
L 228.174753 7.398739 
L 227.382745 8.049845 
L 226.601481 8.897535 
L 225.833732 9.939731 
L 225.08222 11.173875 
L 223.638447 14.205445 
L 222.290426 17.962543 
L 221.37895 21.137577 
L 220.054807 26.981935 
L 219.182018 31.974863 
L 218.791672 34.638361 
L 218.107973 40.273606 
L 217.55889 46.283155 
L 217.200035 51.679618 
L 216.944901 57.285027 
L 216.74834 68.995493 
L 216.864443 77.778897 
L 217.189876 86.693572 
L 218.41561 104.49912 
L 220.218005 121.132429 
L 221.88459 132.958641 
L 223.920117 144.953194 
L 225.817639 154.508444 
L 227.816703 163.280566 
L 229.678318 170.378702 
L 230.39992 172.801942 
L 229.940506 171.471951 
L 227.63193 165.405876 
L 224.586148 158.112007 
L 221.069961 150.281976 
L 216.713775 141.199687 
L 213.603222 135.045234 
L 210.200464 128.578831 
L 206.525627 121.871879 
L 202.60293 114.997738 
L 183.865782 85.621662 
L 179.716409 79.8182 
L 175.547139 74.234152 
L 171.388983 68.914694 
L 167.273662 63.902484 
L 163.240447 59.245334 
L 160.027209 55.726991 
L 156.902444 52.481362 
L 153.883326 49.524979 
L 150.986733 46.872694 
L 146.532632 43.205802 
L 143.806772 41.261502 
L 141.298715 39.730314 
L 138.922692 38.577002 
L 136.735906 37.872156 
L 135.763709 37.713202 
L 134.875479 37.683252 
L 134.073406 37.782007 
L 133.359519 38.008922 
L 132.735684 38.363198 
L 132.197351 38.850798 
L 131.754717 39.466657 
L 131.409169 40.209187 
L 131.161899 41.076558 
L 131.0139 42.066697 
L 131.01867 44.405821 
L 131.172396 45.749511 
L 131.607647 48.039868 
L 132.282942 50.584991 
L 133.196649 53.371916 
L 134.34591 56.386644 
L 135.904802 60.008862 
L 137.745512 63.874992 
L 139.858616 67.961647 
L 142.232836 72.244385 
L 144.855085 76.697877 
L 147.710531 81.296076 
L 150.782666 86.012383 
L 157.129959 95.173133 
L 163.316389 103.516746 
L 169.854678 111.84247 
L 176.625666 120.021369 
L 187.440056 132.292833 
L 191.344013 136.50852 
L 196.606156 142.023417 
L 204.154169 149.609674 
L 211.09874 156.255997 
L 218.315953 162.813307 
L 224.489285 168.107107 
L 229.84026 172.384297 
L 230.379336 172.787083 
L 228.448097 171.454259 
L 223.068478 167.978424 
L 216.780905 164.169248 
L 210.319228 160.460443 
L 202.770698 156.344756 
L 194.257919 151.947901 
L 184.925614 147.397391 
L 172.313028 141.665031 
L 160.624907 136.766702 
L 148.679657 132.173423 
L 141.425345 129.594775 
L 134.240317 127.206601 
L 127.187015 125.033526 
L 120.327241 123.097201 
L 114.569751 121.621109 
L 109.042893 120.348021 
L 103.784031 119.286168 
L 95.861819 118.021459 
L 90.366961 117.450526 
L 85.508296 117.240359 
L 81.340443 117.387871 
L 79.530685 117.593493 
L 77.339742 118.019949 
L 75.52484 118.606842 
L 74.331426 119.199767 
L 73.399054 119.892084 
L 72.73142 120.679983 
L 72.331303 121.559305 
L 72.200558 122.525562 
L 72.340104 123.573968 
L 72.74992 124.69946 
L 73.429039 125.896732 
L 74.396341 127.185155 
L 75.63838 128.536351 
L 77.15112 129.944095 
L 80.704083 132.717508 
L 84.833749 135.431775 
L 89.699967 138.227501 
L 95.250372 141.069335 
L 102.536554 144.408513 
L 111.795185 148.185358 
L 116.735044 150.031636 
L 123.31763 152.338424 
L 130.133099 154.56295 
L 144.23741 158.705811 
L 153.808026 161.202034 
L 161.80944 163.109861 
L 169.705362 164.839745 
L 177.414015 166.385772 
L 189.301495 168.495185 
L 197.725474 169.784449 
L 206.557552 170.942944 
L 217.044316 172.032863 
L 224.842644 172.597596 
L 230.399518 172.802171 
L 228.223937 172.852099 
L 221.940463 173.187702 
L 215.418483 173.717968 
L 208.994647 174.378823 
L 200.288732 175.462681 
L 189.215215 177.123256 
L 175.692904 179.551612 
L 168.58716 181.000522 
L 159.707385 182.980375 
L 150.722441 185.180975 
L 132.903036 190.180853 
L 124.276899 192.943184 
L 116.005625 195.838779 
L 110.521132 197.912818 
L 105.294004 200.022878 
L 100.356658 202.155934 
L 93.09769 205.60123 
L 88.22546 208.188525 
L 83.938208 210.728839 
L 80.274386 213.195101 
L 77.359816 215.479924 
L 75.150996 217.570651 
L 74.273097 218.568167 
L 73.190148 220.085546 
L 72.501906 221.502826 
L 72.211085 222.81029 
L 72.318351 223.99873 
L 72.822324 225.059514 
L 73.719596 225.984659 
L 75.004757 226.766898 
L 76.670429 227.399745 
L 78.500107 227.839331 
L 80.626215 228.148099 
L 83.039308 228.323111 
L 87.710437 228.309996 
L 92.025144 228.013547 
L 96.779365 227.460395 
L 101.935529 226.652332 
L 108.938375 225.278916 
L 118.022884 223.115152 
L 122.780419 221.835843 
L 130.498641 219.572505 
L 138.419811 217.029185 
L 146.458647 214.237751 
L 154.529412 211.234418 
L 169.235055 205.267629 
L 176.836167 201.937378 
L 184.161326 198.567749 
L 194.476542 193.546545 
L 204.358288 188.411774 
L 212.409536 183.964303 
L 219.555157 179.781764 
L 225.464527 176.108697 
L 230.39112 172.808596 
L 228.653239 174.133824 
L 223.711253 178.1463 
L 217.991745 183.077525 
L 210.886801 189.546402 
L 204.226261 195.924028 
L 197.010032 203.165408 
L 189.914227 210.627263 
L 182.652694 218.632226 
L 166.249441 238.295986 
L 158.804506 248.122162 
L 151.958148 257.840937 
L 147.527333 264.596562 
L 143.540303 271.108019 
L 140.043772 277.298309 
L 137.077351 283.093064 
L 135.503096 286.491427 
L 134.156194 289.690024 
L 133.041788 292.673128 
L 131.720418 297.088212 
L 131.13959 300.087838 
L 130.967134 302.632495 
L 131.200585 304.699235 
L 131.46782 305.547205 
L 131.97318 306.474296 
L 132.648779 307.176147 
L 133.491056 307.649438 
L 134.49587 307.891641 
L 135.658523 307.901035 
L 136.973788 307.676721 
L 138.435931 307.218624 
L 140.038742 306.527507 
L 141.929468 305.515767 
L 143.968946 304.234674 
L 146.147596 302.688537 
L 150.096625 299.506897 
L 153.530732 296.412279 
L 157.14342 292.879183 
L 159.007705 290.956021 
L 165.488477 283.795224 
L 170.905514 277.291683 
L 173.649203 273.829442 
L 177.503303 268.781183 
L 181.354371 263.524523 
L 189.330078 251.963691 
L 196.974607 240.00338 
L 204.007082 228.178108 
L 210.377325 216.695732 
L 215.982543 205.874084 
L 220.703287 196.11067 
L 224.819575 186.952775 
L 227.772016 179.847356 
L 230.099578 173.681726 
L 230.389554 172.833993 
L 229.851807 174.621014 
L 228.57498 179.306383 
L 226.910838 186.148721 
L 225.380543 193.181801 
L 223.767613 201.479895 
L 222.440779 209.149274 
L 220.932742 219.113577 
L 220.229522 224.381469 
L 219.178114 233.348809 
L 218.282499 242.621819 
L 217.137544 260.041557 
L 216.84254 268.742755 
L 216.748359 277.308339 
L 216.815308 283.666352 
L 217.003398 289.849186 
L 217.312506 295.816567 
L 218.066434 304.934669 
L 218.84827 311.372768 
L 219.799033 317.274314 
L 220.907134 322.575072 
L 222.155016 327.205996 
L 223.524823 331.119614 
L 224.249294 332.794588 
L 225.308477 334.825229 
L 226.405305 336.46071 
L 227.531704 337.692684 
L 228.679354 338.514864 
L 229.370003 338.808176 
L 230.063367 338.953846 
L 230.757618 338.951608 
L 231.450926 338.801467 
L 232.141465 338.503695 
L 232.827415 338.058832 
L 233.506971 337.467685 
L 234.8026 335.904786 
L 236.018765 333.873136 
L 237.182446 331.34799 
L 238.2829 328.345631 
L 239.574593 323.871513 
L 240.955903 317.517992 
L 241.561617 313.988687 
L 242.301678 308.726635 
L 242.91729 303.083806 
L 243.40301 297.101725 
L 243.755026 290.824345 
L 244.006559 282.479227 
L 244.037918 273.829305 
L 243.853522 264.976846 
L 243.462464 256.02618 
L 242.040918 237.438524 
L 241.164516 229.255069 
L 240.174912 221.359773 
L 238.535186 210.235503 
L 237.261415 202.743619 
L 235.168512 191.976456 
L 232.871286 181.867563 
L 231.045378 174.958361 
L 230.400161 172.802688 
L 231.045347 174.650564 
L 233.179281 180.226524 
L 235.865992 186.687266 
L 238.186699 191.949359 
L 241.684146 199.470387 
L 245.37941 206.993651 
L 249.566908 215.090553 
L 254.208504 223.614619 
L 260.160211 233.944276 
L 273.518421 255.020527 
L 280.957807 265.613836 
L 284.713856 270.662308 
L 288.464184 275.500617 
L 292.918157 280.977358 
L 299.433054 288.431916 
L 303.606466 292.828355 
L 307.464254 296.595237 
L 310.990941 299.753105 
L 314.295355 302.419787 
L 317.348065 304.575906 
L 318.771264 305.457645 
L 320.559058 306.42863 
L 322.208448 307.159379 
L 323.712333 307.648101 
L 325.06409 307.893908 
L 326.257609 307.896815 
L 327.287322 307.65773 
L 328.148234 307.178447 
L 328.83595 306.461633 
L 329.357866 305.482292 
L 329.689889 304.261028 
L 329.829395 302.80347 
L 329.624354 299.832715 
L 329.048997 296.963778 
L 327.952592 293.241903 
L 326.173832 288.534552 
L 323.827701 283.311269 
L 320.937111 277.634748 
L 317.646737 271.767766 
L 315.891553 268.818352 
L 312.083391 262.739861 
L 307.910533 256.472565 
L 303.415867 250.078134 
L 299.444287 244.678228 
L 295.310207 239.268785 
L 286.681157 228.562864 
L 280.487756 221.296818 
L 274.263983 214.303301 
L 265.203736 204.624736 
L 259.402831 198.721905 
L 251.292951 190.843222 
L 244.204762 184.320537 
L 238.012883 178.924505 
L 232.436755 174.360933 
L 230.4151 172.813195 
L 232.144659 174.010336 
L 236.817659 177.052225 
L 242.205171 180.358643 
L 248.258053 183.888963 
L 255.418848 187.860669 
L 265.32434 193.042347 
L 274.78733 197.690745 
L 287.303635 203.421327 
L 293.848999 206.235599 
L 311.398643 213.165508 
L 320.227771 216.301949 
L 328.943282 219.151753 
L 335.623552 221.157204 
L 342.111414 222.941807 
L 348.354578 224.49022 
L 357.488467 226.405646 
L 363.503718 227.388361 
L 368.991454 228.03357 
L 373.894189 228.338428 
L 376.109745 228.363541 
L 380.499567 228.111617 
L 382.927512 227.710643 
L 384.938669 227.128991 
L 385.783893 226.772328 
L 386.67294 226.275984 
L 387.36619 225.74409 
L 387.906598 225.156884 
L 388.292877 224.516168 
L 388.524048 223.823856 
L 388.599442 223.081966 
L 388.518705 222.292615 
L 388.281795 221.45801 
L 387.888986 220.580445 
L 387.329235 219.644886 
L 385.730529 217.65782 
L 383.503197 215.534084 
L 380.664264 213.295879 
L 376.722195 210.641113 
L 371.45107 207.567624 
L 368.497173 206.005837 
L 363.776338 203.686428 
L 358.655158 201.366138 
L 353.170712 199.062814 
L 342.833662 195.128477 
L 338.165793 193.497859 
L 328.491193 190.363438 
L 308.351185 184.742314 
L 294.612249 181.516811 
L 281.319581 178.827921 
L 268.508649 176.631669 
L 257.09822 175.013426 
L 247.416474 173.913551 
L 239.741634 173.25002 
L 232.886305 172.863171 
L 230.399994 172.802171 
L 230.399994 172.802171 
" clip-path="url(#pfcdf82fd56)" style="fill: none; stroke: #0000ff; stroke-linecap: square"/>
   </g>
   <g id="patch_3">
    <path d="M 230.399994 345.6 
L 230.399994 -0 
" style="fill: none; stroke: #000000; stroke-width: 0.8; stroke-linejoin: miter; stroke-linecap: square"/>
   </g>
   <g id="patch_4">
    <path d="M 65.87258 172.802171 
L 394.92742 172.802171 
" style="fill: none; stroke: #000000; stroke-width: 0.8; stroke-linejoin: miter; stroke-linecap: square"/>
   </g>
  </g>
 </g>
 <defs>
  <clipPath id="pfcdf82fd56">
   <rect x="65.87258" y="0" width="329.05484" height="345.6"/>
  </clipPath>
 </defs>
</svg>
