<?xml version="1.0" encoding="utf-8" standalone="no"?>
<!DOCTYPE svg PUBLIC "-//W3C//DTD SVG 1.1//EN"
  "http://www.w3.org/Graphics/SVG/1.1/DTD/svg11.dtd">
<svg xmlns:xlink="http://www.w3.org/1999/xlink" width="460.8pt" height="345.6pt" viewBox="0 0 460.8 345.6" xmlns="http://www.w3.org/2000/svg" version="1.1">
 <metadata>
  <rdf:RDF xmlns:dc="http://purl.org/dc/elements/1.1/" xmlns:cc="http://creativecommons.org/ns#" xmlns:rdf="http://www.w3.org/1999/02/22-rdf-syntax-ns#">
   <cc:Work>
    <dc:type rdf:resource="http://purl.org/dc/dcmitype/StillImage"/>
    <dc:date>2025-08-04T20:47:33.894191</dc:date>
    <dc:format>image/svg+xml</dc:format>
    <dc:creator>
     <cc:Agent>
      <dc:title>Matplotlib v3.10.3, https://matplotlib.org/</dc:title>
     </cc:Agent>
    </dc:creator>
   </cc:Work>
  </rdf:RDF>
 </metadata>
 <defs>
  <style type="text/css">*{stroke-linejoin: round; stroke-linecap: butt}</style>
 </defs>
 <g id="figure_1">
  <g id="patch_1">
   <path d="M 0 345.6 
L 460.8 345.6 
L 460.8 0 
L 0 0 
z
" style="fill: #ffffff"/>
  </g>
  <g id="axes_1">
   <g id="patch_2">
    <path d="M 3.826531 345.6 
L 460.8 345.6 
L 460.8 0 
L 3.826531 0 
z
" style="fill: #ffffff"/>
   </g>
   <g id="matplotlib.axis_1">
    <g id="xtick_1">
     <g id="line2d_1">
      <defs>
       <path id="mbb9aa9aff3" d="M 0 0 
L 0 3.5 
" style="stroke: #000000; stroke-width: 0.8"/>
      </defs>
      <g>
       <use xlink:href="#mbb9aa9aff3" x="12.614482" y="172.799982" style="stroke: #000000; stroke-width: 0.8"/>
      </g>
     </g>
     <g id="text_1">
      <!-- −1.0 -->
      <g transform="translate(0.473076 187.39842) scale(0.1 -0.1)">
       <defs>
        <path id="DejaVuSans-2212" d="M 678 2272 
L 4684 2272 
L 4684 1741 
L 678 1741 
L 678 2272 
z
" transform="scale(0.015625)"/>
        <path id="DejaVuSans-31" d="M 794 531 
L 1825 531 
L 1825 4091 
L 703 3866 
L 703 4441 
L 1819 4666 
L 2450 4666 
L 2450 531 
L 3481 531 
L 3481 0 
L 794 0 
L 794 531 
z
" transform="scale(0.015625)"/>
        <path id="DejaVuSans-2e" d="M 684 794 
L 1344 794 
L 1344 0 
L 684 0 
L 684 794 
z
" transform="scale(0.015625)"/>
        <path id="DejaVuSans-30" d="M 2034 4250 
Q 1547 4250 1301 3770 
Q 1056 3291 1056 2328 
Q 1056 1369 1301 889 
Q 1547 409 2034 409 
Q 2525 409 2770 889 
Q 3016 1369 3016 2328 
Q 3016 3291 2770 3770 
Q 2525 4250 2034 4250 
z
M 2034 4750 
Q 2819 4750 3233 4129 
Q 3647 3509 3647 2328 
Q 3647 1150 3233 529 
Q 2819 -91 2034 -91 
Q 1250 -91 836 529 
Q 422 1150 422 2328 
Q 422 3509 836 4129 
Q 1250 4750 2034 4750 
z
" transform="scale(0.015625)"/>
       </defs>
       <use xlink:href="#DejaVuSans-2212"/>
       <use xlink:href="#DejaVuSans-31" transform="translate(83.789062 0)"/>
       <use xlink:href="#DejaVuSans-2e" transform="translate(147.412109 0)"/>
       <use xlink:href="#DejaVuSans-30" transform="translate(179.199219 0)"/>
      </g>
     </g>
    </g>
    <g id="xtick_2">
     <g id="line2d_2">
      <g>
       <use xlink:href="#mbb9aa9aff3" x="122.463874" y="172.799982" style="stroke: #000000; stroke-width: 0.8"/>
      </g>
     </g>
     <g id="text_2">
      <!-- −0.5 -->
      <g transform="translate(110.322468 187.39842) scale(0.1 -0.1)">
       <defs>
        <path id="DejaVuSans-35" d="M 691 4666 
L 3169 4666 
L 3169 4134 
L 1269 4134 
L 1269 2991 
Q 1406 3038 1543 3061 
Q 1681 3084 1819 3084 
Q 2600 3084 3056 2656 
Q 3513 2228 3513 1497 
Q 3513 744 3044 326 
Q 2575 -91 1722 -91 
Q 1428 -91 1123 -41 
Q 819 9 494 109 
L 494 744 
Q 775 591 1075 516 
Q 1375 441 1709 441 
Q 2250 441 2565 725 
Q 2881 1009 2881 1497 
Q 2881 1984 2565 2268 
Q 2250 2553 1709 2553 
Q 1456 2553 1204 2497 
Q 953 2441 691 2322 
L 691 4666 
z
" transform="scale(0.015625)"/>
       </defs>
       <use xlink:href="#DejaVuSans-2212"/>
       <use xlink:href="#DejaVuSans-30" transform="translate(83.789062 0)"/>
       <use xlink:href="#DejaVuSans-2e" transform="translate(147.412109 0)"/>
       <use xlink:href="#DejaVuSans-35" transform="translate(179.199219 0)"/>
      </g>
     </g>
    </g>
    <g id="xtick_3">
     <g id="line2d_3">
      <g>
       <use xlink:href="#mbb9aa9aff3" x="232.313266" y="172.799982" style="stroke: #000000; stroke-width: 0.8"/>
      </g>
     </g>
    </g>
    <g id="xtick_4">
     <g id="line2d_4">
      <g>
       <use xlink:href="#mbb9aa9aff3" x="342.162657" y="172.799982" style="stroke: #000000; stroke-width: 0.8"/>
      </g>
     </g>
     <g id="text_3">
      <!-- 0.5 -->
      <g transform="translate(334.211095 187.39842) scale(0.1 -0.1)">
       <use xlink:href="#DejaVuSans-30"/>
       <use xlink:href="#DejaVuSans-2e" transform="translate(63.623047 0)"/>
       <use xlink:href="#DejaVuSans-35" transform="translate(95.410156 0)"/>
      </g>
     </g>
    </g>
    <g id="xtick_5">
     <g id="line2d_5">
      <g>
       <use xlink:href="#mbb9aa9aff3" x="452.012049" y="172.799982" style="stroke: #000000; stroke-width: 0.8"/>
      </g>
     </g>
     <g id="text_4">
      <!-- 1.0 -->
      <g transform="translate(444.060486 187.39842) scale(0.1 -0.1)">
       <use xlink:href="#DejaVuSans-31"/>
       <use xlink:href="#DejaVuSans-2e" transform="translate(63.623047 0)"/>
       <use xlink:href="#DejaVuSans-30" transform="translate(95.410156 0)"/>
      </g>
     </g>
    </g>
    <g id="xtick_6">
     <g id="line2d_6">
      <defs>
       <path id="m86f7759cf6" d="M 0 0 
L 0 2 
" style="stroke: #000000; stroke-width: 0.6"/>
      </defs>
      <g>
       <use xlink:href="#m86f7759cf6" x="34.584361" y="172.799982" style="stroke: #000000; stroke-width: 0.6"/>
      </g>
     </g>
    </g>
    <g id="xtick_7">
     <g id="line2d_7">
      <g>
       <use xlink:href="#m86f7759cf6" x="56.554239" y="172.799982" style="stroke: #000000; stroke-width: 0.6"/>
      </g>
     </g>
    </g>
    <g id="xtick_8">
     <g id="line2d_8">
      <g>
       <use xlink:href="#m86f7759cf6" x="78.524117" y="172.799982" style="stroke: #000000; stroke-width: 0.6"/>
      </g>
     </g>
    </g>
    <g id="xtick_9">
     <g id="line2d_9">
      <g>
       <use xlink:href="#m86f7759cf6" x="100.493996" y="172.799982" style="stroke: #000000; stroke-width: 0.6"/>
      </g>
     </g>
    </g>
    <g id="xtick_10">
     <g id="line2d_10">
      <g>
       <use xlink:href="#m86f7759cf6" x="144.433752" y="172.799982" style="stroke: #000000; stroke-width: 0.6"/>
      </g>
     </g>
    </g>
    <g id="xtick_11">
     <g id="line2d_11">
      <g>
       <use xlink:href="#m86f7759cf6" x="166.403631" y="172.799982" style="stroke: #000000; stroke-width: 0.6"/>
      </g>
     </g>
    </g>
    <g id="xtick_12">
     <g id="line2d_12">
      <g>
       <use xlink:href="#m86f7759cf6" x="188.373509" y="172.799982" style="stroke: #000000; stroke-width: 0.6"/>
      </g>
     </g>
    </g>
    <g id="xtick_13">
     <g id="line2d_13">
      <g>
       <use xlink:href="#m86f7759cf6" x="210.343387" y="172.799982" style="stroke: #000000; stroke-width: 0.6"/>
      </g>
     </g>
    </g>
    <g id="xtick_14">
     <g id="line2d_14">
      <g>
       <use xlink:href="#m86f7759cf6" x="254.283144" y="172.799982" style="stroke: #000000; stroke-width: 0.6"/>
      </g>
     </g>
    </g>
    <g id="xtick_15">
     <g id="line2d_15">
      <g>
       <use xlink:href="#m86f7759cf6" x="276.253022" y="172.799982" style="stroke: #000000; stroke-width: 0.6"/>
      </g>
     </g>
    </g>
    <g id="xtick_16">
     <g id="line2d_16">
      <g>
       <use xlink:href="#m86f7759cf6" x="298.2229" y="172.799982" style="stroke: #000000; stroke-width: 0.6"/>
      </g>
     </g>
    </g>
    <g id="xtick_17">
     <g id="line2d_17">
      <g>
       <use xlink:href="#m86f7759cf6" x="320.192779" y="172.799982" style="stroke: #000000; stroke-width: 0.6"/>
      </g>
     </g>
    </g>
    <g id="xtick_18">
     <g id="line2d_18">
      <g>
       <use xlink:href="#m86f7759cf6" x="364.132535" y="172.799982" style="stroke: #000000; stroke-width: 0.6"/>
      </g>
     </g>
    </g>
    <g id="xtick_19">
     <g id="line2d_19">
      <g>
       <use xlink:href="#m86f7759cf6" x="386.102414" y="172.799982" style="stroke: #000000; stroke-width: 0.6"/>
      </g>
     </g>
    </g>
    <g id="xtick_20">
     <g id="line2d_20">
      <g>
       <use xlink:href="#m86f7759cf6" x="408.072292" y="172.799982" style="stroke: #000000; stroke-width: 0.6"/>
      </g>
     </g>
    </g>
    <g id="xtick_21">
     <g id="line2d_21">
      <g>
       <use xlink:href="#m86f7759cf6" x="430.04217" y="172.799982" style="stroke: #000000; stroke-width: 0.6"/>
      </g>
     </g>
    </g>
   </g>
   <g id="matplotlib.axis_2">
    <g id="ytick_1">
     <g id="line2d_22">
      <defs>
       <path id="mddbfa0f8fc" d="M 0 0 
L -3.5 0 
" style="stroke: #000000; stroke-width: 0.8"/>
      </defs>
      <g>
       <use xlink:href="#mddbfa0f8fc" x="232.313266" y="338.953967" style="stroke: #000000; stroke-width: 0.8"/>
      </g>
     </g>
     <g id="text_5">
      <!-- −1.0 -->
      <g transform="translate(201.030453 342.753186) scale(0.1 -0.1)">
       <use xlink:href="#DejaVuSans-2212"/>
       <use xlink:href="#DejaVuSans-31" transform="translate(83.789062 0)"/>
       <use xlink:href="#DejaVuSans-2e" transform="translate(147.412109 0)"/>
       <use xlink:href="#DejaVuSans-30" transform="translate(179.199219 0)"/>
      </g>
     </g>
    </g>
    <g id="ytick_2">
     <g id="line2d_23">
      <g>
       <use xlink:href="#mddbfa0f8fc" x="232.313266" y="255.876975" style="stroke: #000000; stroke-width: 0.8"/>
      </g>
     </g>
     <g id="text_6">
      <!-- −0.5 -->
      <g transform="translate(201.030453 259.676193) scale(0.1 -0.1)">
       <use xlink:href="#DejaVuSans-2212"/>
       <use xlink:href="#DejaVuSans-30" transform="translate(83.789062 0)"/>
       <use xlink:href="#DejaVuSans-2e" transform="translate(147.412109 0)"/>
       <use xlink:href="#DejaVuSans-35" transform="translate(179.199219 0)"/>
      </g>
     </g>
    </g>
    <g id="ytick_3">
     <g id="line2d_24">
      <g>
       <use xlink:href="#mddbfa0f8fc" x="232.313266" y="172.799982" style="stroke: #000000; stroke-width: 0.8"/>
      </g>
     </g>
    </g>
    <g id="ytick_4">
     <g id="line2d_25">
      <g>
       <use xlink:href="#mddbfa0f8fc" x="232.313266" y="89.722989" style="stroke: #000000; stroke-width: 0.8"/>
      </g>
     </g>
     <g id="text_7">
      <!-- 0.5 -->
      <g transform="translate(209.410141 93.522208) scale(0.1 -0.1)">
       <use xlink:href="#DejaVuSans-30"/>
       <use xlink:href="#DejaVuSans-2e" transform="translate(63.623047 0)"/>
       <use xlink:href="#DejaVuSans-35" transform="translate(95.410156 0)"/>
      </g>
     </g>
    </g>
    <g id="ytick_5">
     <g id="line2d_26">
      <g>
       <use xlink:href="#mddbfa0f8fc" x="232.313266" y="6.645997" style="stroke: #000000; stroke-width: 0.8"/>
      </g>
     </g>
     <g id="text_8">
      <!-- 1.0 -->
      <g transform="translate(209.410141 10.445215) scale(0.1 -0.1)">
       <use xlink:href="#DejaVuSans-31"/>
       <use xlink:href="#DejaVuSans-2e" transform="translate(63.623047 0)"/>
       <use xlink:href="#DejaVuSans-30" transform="translate(95.410156 0)"/>
      </g>
     </g>
    </g>
    <g id="ytick_6">
     <g id="line2d_27">
      <defs>
       <path id="mb8db7aefc8" d="M 0 0 
L -2 0 
" style="stroke: #000000; stroke-width: 0.6"/>
      </defs>
      <g>
       <use xlink:href="#mb8db7aefc8" x="232.313266" y="322.338569" style="stroke: #000000; stroke-width: 0.6"/>
      </g>
     </g>
    </g>
    <g id="ytick_7">
     <g id="line2d_28">
      <g>
       <use xlink:href="#mb8db7aefc8" x="232.313266" y="305.72317" style="stroke: #000000; stroke-width: 0.6"/>
      </g>
     </g>
    </g>
    <g id="ytick_8">
     <g id="line2d_29">
      <g>
       <use xlink:href="#mb8db7aefc8" x="232.313266" y="289.107772" style="stroke: #000000; stroke-width: 0.6"/>
      </g>
     </g>
    </g>
    <g id="ytick_9">
     <g id="line2d_30">
      <g>
       <use xlink:href="#mb8db7aefc8" x="232.313266" y="272.492373" style="stroke: #000000; stroke-width: 0.6"/>
      </g>
     </g>
    </g>
    <g id="ytick_10">
     <g id="line2d_31">
      <g>
       <use xlink:href="#mb8db7aefc8" x="232.313266" y="239.261576" style="stroke: #000000; stroke-width: 0.6"/>
      </g>
     </g>
    </g>
    <g id="ytick_11">
     <g id="line2d_32">
      <g>
       <use xlink:href="#mb8db7aefc8" x="232.313266" y="222.646178" style="stroke: #000000; stroke-width: 0.6"/>
      </g>
     </g>
    </g>
    <g id="ytick_12">
     <g id="line2d_33">
      <g>
       <use xlink:href="#mb8db7aefc8" x="232.313266" y="206.030779" style="stroke: #000000; stroke-width: 0.6"/>
      </g>
     </g>
    </g>
    <g id="ytick_13">
     <g id="line2d_34">
      <g>
       <use xlink:href="#mb8db7aefc8" x="232.313266" y="189.415381" style="stroke: #000000; stroke-width: 0.6"/>
      </g>
     </g>
    </g>
    <g id="ytick_14">
     <g id="line2d_35">
      <g>
       <use xlink:href="#mb8db7aefc8" x="232.313266" y="156.184583" style="stroke: #000000; stroke-width: 0.6"/>
      </g>
     </g>
    </g>
    <g id="ytick_15">
     <g id="line2d_36">
      <g>
       <use xlink:href="#mb8db7aefc8" x="232.313266" y="139.569185" style="stroke: #000000; stroke-width: 0.6"/>
      </g>
     </g>
    </g>
    <g id="ytick_16">
     <g id="line2d_37">
      <g>
       <use xlink:href="#mb8db7aefc8" x="232.313266" y="122.953786" style="stroke: #000000; stroke-width: 0.6"/>
      </g>
     </g>
    </g>
    <g id="ytick_17">
     <g id="line2d_38">
      <g>
       <use xlink:href="#mb8db7aefc8" x="232.313266" y="106.338388" style="stroke: #000000; stroke-width: 0.6"/>
      </g>
     </g>
    </g>
    <g id="ytick_18">
     <g id="line2d_39">
      <g>
       <use xlink:href="#mb8db7aefc8" x="232.313266" y="73.107591" style="stroke: #000000; stroke-width: 0.6"/>
      </g>
     </g>
    </g>
    <g id="ytick_19">
     <g id="line2d_40">
      <g>
       <use xlink:href="#mb8db7aefc8" x="232.313266" y="56.492192" style="stroke: #000000; stroke-width: 0.6"/>
      </g>
     </g>
    </g>
    <g id="ytick_20">
     <g id="line2d_41">
      <g>
       <use xlink:href="#mb8db7aefc8" x="232.313266" y="39.876794" style="stroke: #000000; stroke-width: 0.6"/>
      </g>
     </g>
    </g>
    <g id="ytick_21">
     <g id="line2d_42">
      <g>
       <use xlink:href="#mb8db7aefc8" x="232.313266" y="23.261395" style="stroke: #000000; stroke-width: 0.6"/>
      </g>
     </g>
    </g>
   </g>
   <g id="line2d_43">
    <path d="M 12.614482 312.61374 
L 55.921155 330.240924 
L 64.609689 333.337276 
L 71.586838 335.512481 
L 75.603352 336.591019 
L 81.086119 337.798097 
L 85.530638 338.498834 
L 89.845017 338.88551 
L 93.497172 338.942273 
L 95.997374 338.815067 
L 99.539745 338.369627 
L 102.274214 337.785072 
L 105.296836 336.86097 
L 107.573158 335.949579 
L 109.966487 334.769274 
L 112.073969 333.522968 
L 114.812599 331.58344 
L 117.661116 329.139578 
L 120.073879 326.690182 
L 121.88949 324.594513 
L 123.705102 322.263612 
L 126.176883 318.679855 
L 128.346515 315.109048 
L 130.256999 311.605971 
L 132.685399 306.625184 
L 134.886531 301.554849 
L 137.376177 295.122913 
L 139.772607 288.168753 
L 141.912482 281.270672 
L 143.919856 274.162655 
L 145.927231 266.394144 
L 148.303873 256.283084 
L 150.477202 246.112582 
L 152.693548 234.775559 
L 154.980992 222.000436 
L 157.208436 208.469928 
L 159.657408 192.32193 
L 162.117032 174.762618 
L 164.83305 153.873279 
L 167.868882 128.877222 
L 172.358905 89.832033 
L 176.597371 53.42277 
L 178.896469 35.617782 
L 180.624359 24.063932 
L 181.749142 17.736481 
L 182.884504 12.561154 
L 183.73867 9.61957 
L 184.379295 8.027122 
L 185.019919 7.018133 
L 185.447002 6.696301 
L 185.721089 6.646729 
L 186.132218 6.813807 
L 186.543347 7.284271 
L 186.954476 8.073724 
L 187.502648 9.649881 
L 188.033385 11.778689 
L 188.820774 16.103843 
L 189.626557 22.076785 
L 190.450736 29.923274 
L 191.412278 41.446944 
L 192.375822 55.698029 
L 193.432156 74.554761 
L 194.718672 102.134862 
L 196.032563 135.299584 
L 197.744622 184.794192 
L 201.570391 299.059022 
L 202.525901 320.299378 
L 203.173814 330.808588 
L 203.713743 336.500056 
L 204.059465 338.447751 
L 204.336043 338.953846 
L 204.474332 338.835278 
L 204.681766 338.172189 
L 204.958344 336.345285 
L 205.304066 332.472201 
L 205.788078 323.920531 
L 206.310455 310.394722 
L 206.924997 288.611395 
L 207.693174 252.636453 
L 208.641787 196.580719 
L 211.348062 28.309108 
L 211.841973 12.382303 
L 212.171246 7.290227 
L 212.335883 6.646266 
L 212.418202 6.831866 
L 212.582838 8.258918 
L 212.829794 13.143799 
L 213.161427 25.104788 
L 213.58482 49.561855 
L 214.17757 100.198695 
L 214.939677 185.944086 
L 216.044978 306.817717 
L 216.49738 333.945845 
L 216.755896 338.934468 
L 216.820525 338.796142 
L 216.949783 336.754361 
L 217.143669 329.125748 
L 217.466814 303.968599 
L 217.913526 245.194975 
L 219.445928 10.112074 
L 219.622744 6.737987 
L 219.740621 9.814014 
L 219.956945 27.107111 
L 220.281432 80.391076 
L 221.471217 336.916472 
L 221.579379 338.76716 
L 221.687541 333.548724 
L 221.903866 301.424929 
L 222.228353 206.827115 
L 222.769164 30.512496 
L 222.985488 6.652383 
L 223.093651 12.557598 
L 223.33114 69.206141 
L 224.107103 338.560008 
L 224.150212 335.294652 
L 224.279539 305.721228 
L 224.538193 175.710485 
L 224.892199 11.423606 
L 224.969923 7.088007 
L 225.125371 47.881977 
L 225.669439 338.404012 
L 225.824887 279.479075 
L 226.213507 7.662976 
L 226.291231 16.958265 
L 226.446679 131.701586 
L 226.679851 332.903843 
L 226.757575 332.714792 
L 226.913023 198.873163 
L 227.134209 6.652903 
L 227.199947 31.5408 
L 227.462899 333.463342 
L 227.528638 328.035795 
L 227.79159 7.59222 
L 227.857328 36.616031 
L 228.054542 333.856907 
L 228.12028 313.533506 
L 228.317495 6.648037 
L 228.448971 222.672437 
L 228.514709 332.389777 
L 228.580447 295.886462 
L 228.711923 12.076227 
L 228.777661 66.666802 
L 228.909137 337.413441 
L 229.040614 20.583636 
L 229.106352 77.999462 
L 229.20379 338.873033 
L 229.235491 300.253284 
L 229.330593 9.014702 
L 229.362294 37.785028 
L 229.457396 338.819982 
L 229.489097 285.746434 
L 229.584199 19.290634 
L 229.615899 134.591588 
L 229.679301 336.89184 
L 229.711001 237.04193 
L 229.774403 8.284041 
L 229.806104 117.998258 
L 229.869505 327.917142 
L 229.901206 176.574348 
L 229.932906 18.529514 
L 229.964607 65.058523 
L 230.028008 330.578233 
L 230.059709 156.140429 
L 230.09141 7.169602 
L 230.12311 136.704224 
L 230.154811 330.699755 
L 230.186512 232.906606 
L 230.301055 288.818479 
L 230.415597 247.441195 
L 230.53014 67.314607 
L 230.759226 172.631121 
L 230.873768 333.595231 
L 230.988311 278.343324 
L 231.102854 65.144458 
L 231.217397 81.351704 
L 231.33194 50.589416 
L 231.446482 313.014728 
L 231.675568 28.143928 
L 231.790111 30.906825 
L 231.904653 99.265374 
L 232.019196 78.930218 
L 232.133739 7.791157 
L 232.248282 248.457062 
L 232.362825 219.676098 
L 232.477367 96.4814 
L 232.820996 295.632949 
L 232.935538 17.925986 
L 233.050081 127.206462 
L 233.164624 101.106774 
L 233.279167 14.604344 
L 233.39371 46.630446 
L 233.508252 7.021233 
L 233.622795 331.237388 
L 233.737338 227.736609 
L 233.851881 337.025429 
L 233.960758 8.882817 
L 234.015197 219.134043 
L 234.069636 263.423216 
L 234.124075 18.191536 
L 234.178514 338.904382 
L 234.232952 10.760789 
L 234.287391 334.294583 
L 234.34183 7.20917 
L 234.396269 334.624949 
L 234.450708 44.030456 
L 234.505146 221.579933 
L 234.559585 239.716546 
L 234.614024 15.549948 
L 234.668463 309.409759 
L 234.722902 184.238504 
L 234.777341 18.170398 
L 234.831779 283.738113 
L 234.886218 261.734078 
L 234.940657 17.674168 
L 234.995096 133.336796 
L 235.049535 336.247089 
L 235.103973 203.41109 
L 235.158412 11.801789 
L 235.212851 112.59137 
L 235.26729 314.858887 
L 235.321729 288.49937 
L 235.430606 10.278651 
L 235.539484 314.129531 
L 235.593923 312.115215 
L 235.749562 24.504097 
L 235.905201 338.179259 
L 236.060841 27.369258 
L 236.13866 44.421882 
L 236.294299 335.355742 
L 236.372119 282.510616 
L 236.527758 13.730822 
L 236.605578 40.731841 
L 236.839037 337.069772 
L 237.150315 8.115492 
L 237.228135 63.422749 
L 237.461594 333.270398 
L 237.539413 327.521614 
L 237.928511 8.377652 
L 238.084151 112.546651 
L 238.36636 336.643334 
L 238.46043 326.574458 
L 238.74264 110.180517 
L 238.93078 10.39634 
L 239.02485 11.912798 
L 239.21299 104.177678 
L 239.589269 328.889081 
L 239.683339 338.848972 
L 239.777409 325.101037 
L 240.059619 187.277142 
L 240.435898 16.391221 
L 240.529968 6.74506 
L 240.624038 12.582387 
L 240.812178 63.555546 
L 241.555322 335.314493 
L 241.639128 338.952682 
L 241.681031 337.962272 
L 241.806741 324.522628 
L 242.05816 260.193602 
L 242.880122 17.947617 
L 243.08232 6.677317 
L 243.163199 9.083282 
L 243.324957 24.582793 
L 243.608034 78.732989 
L 244.697509 321.577261 
L 244.939548 337.731946 
L 245.000057 338.83169 
L 245.060567 338.794361 
L 245.181587 335.443683 
L 245.423626 316.899629 
L 245.825067 259.902357 
L 247.179985 39.600649 
L 247.57849 12.01647 
L 247.817593 6.736415 
L 247.897294 6.775458 
L 248.056696 9.396787 
L 248.336682 21.499924 
L 248.758724 54.437155 
L 249.421933 127.680917 
L 250.668707 266.23793 
L 251.322799 313.422741 
L 251.715254 330.099035 
L 252.10771 338.065882 
L 252.238528 338.876346 
L 252.369347 338.811931 
L 252.500165 337.906638 
L 252.761802 333.723135 
L 253.154257 322.129285 
L 253.677531 298.576638 
L 254.525343 247.48278 
L 257.013191 88.794483 
L 257.893479 49.501788 
L 258.597709 27.348362 
L 259.21391 14.721994 
L 259.668205 9.254528 
L 259.974744 7.295188 
L 260.179104 6.721662 
L 260.383464 6.707541 
L 260.587823 7.228894 
L 260.894363 8.961016 
L 261.303082 12.911789 
L 261.813981 20.201983 
L 262.529239 34.095224 
L 263.498026 58.106296 
L 264.894532 99.048714 
L 268.600316 210.471817 
L 270.120469 248.368001 
L 271.399098 274.967386 
L 272.518431 294.140263 
L 273.629101 309.447315 
L 274.581105 319.762218 
L 275.522531 327.580924 
L 276.298239 332.369225 
L 277.073947 335.775615 
L 277.726981 337.650738 
L 278.289807 338.591027 
L 278.665025 338.89148 
L 279.040243 338.944573 
L 279.41546 338.761887 
L 279.790678 338.354789 
L 280.353505 337.347624 
L 280.95278 335.788509 
L 281.810032 332.767499 
L 282.701199 328.752358 
L 283.838704 322.521144 
L 284.991905 315.154174 
L 286.837026 301.685363 
L 289.214944 282.288406 
L 294.588324 235.39845 
L 298.831155 199.477985 
L 301.854397 175.735968 
L 304.239982 158.344317 
L 306.550701 142.696283 
L 309.166423 126.417898 
L 311.783606 111.624817 
L 314.102243 99.717921 
L 316.512087 88.47311 
L 318.961065 78.153809 
L 321.211776 69.58828 
L 323.912974 60.381264 
L 326.03077 53.918332 
L 328.53124 47.071522 
L 331.112561 40.818784 
L 333.505418 35.696141 
L 335.539339 31.80761 
L 337.786352 27.967823 
L 340.032837 24.568222 
L 342.487271 21.311765 
L 344.197922 19.301544 
L 346.829349 16.588884 
L 349.368062 14.36909 
L 351.341476 12.888044 
L 353.959091 11.222776 
L 357.147128 9.608922 
L 360.332597 8.397834 
L 362.629154 7.745344 
L 366.336446 7.035244 
L 369.609154 6.717743 
L 373.787049 6.672517 
L 376.752215 6.851549 
L 380.672078 7.3175 
L 385.523781 8.198967 
L 391.70396 9.712795 
L 396.654698 11.172422 
L 403.133862 13.332443 
L 410.416137 16.005554 
L 420.877485 20.132172 
L 437.393988 26.947667 
L 452.012049 32.986224 
L 452.012049 32.986224 
" clip-path="url(#p776a88fb44)" style="fill: none; stroke: #0000ff; stroke-linecap: square"/>
   </g>
   <g id="patch_3">
    <path d="M 232.313266 345.6 
L 232.313266 0 
" style="fill: none; stroke: #000000; stroke-width: 0.8; stroke-linejoin: miter; stroke-linecap: square"/>
   </g>
   <g id="patch_4">
    <path d="M 3.826531 172.799982 
L 460.8 172.799982 
" style="fill: none; stroke: #000000; stroke-width: 0.8; stroke-linejoin: miter; stroke-linecap: square"/>
   </g>
  </g>
 </g>
 <defs>
  <clipPath id="p776a88fb44">
   <rect x="3.826531" y="0" width="456.973469" height="345.6"/>
  </clipPath>
 </defs>
</svg>
