<?xml version="1.0" encoding="utf-8" standalone="no"?>
<!DOCTYPE svg PUBLIC "-//W3C//DTD SVG 1.1//EN"
  "http://www.w3.org/Graphics/SVG/1.1/DTD/svg11.dtd">
<svg xmlns:xlink="http://www.w3.org/1999/xlink" width="460.8pt" height="345.6pt" viewBox="0 0 460.8 345.6" xmlns="http://www.w3.org/2000/svg" version="1.1">
 <metadata>
  <rdf:RDF xmlns:dc="http://purl.org/dc/elements/1.1/" xmlns:cc="http://creativecommons.org/ns#" xmlns:rdf="http://www.w3.org/1999/02/22-rdf-syntax-ns#">
   <cc:Work>
    <dc:type rdf:resource="http://purl.org/dc/dcmitype/StillImage"/>
    <dc:date>2025-08-04T20:47:55.570925</dc:date>
    <dc:format>image/svg+xml</dc:format>
    <dc:creator>
     <cc:Agent>
      <dc:title>Matplotlib v3.10.3, https://matplotlib.org/</dc:title>
     </cc:Agent>
    </dc:creator>
   </cc:Work>
  </rdf:RDF>
 </metadata>
 <defs>
  <style type="text/css">*{stroke-linejoin: round; stroke-linecap: butt}</style>
 </defs>
 <g id="figure_1">
  <g id="patch_1">
   <path d="M 0 345.6 
L 460.8 345.6 
L 460.8 0 
L 0 0 
z
" style="fill: #ffffff"/>
  </g>
  <g id="axes_1">
   <g id="patch_2">
    <path d="M 17.467432 345.6 
L 443.332568 345.6 
L 443.332568 0 
L 17.467432 0 
z
" style="fill: #ffffff"/>
   </g>
   <g id="patch_3">
    <path d="M 196.465702 131.154902 
L 196.465702 131.154902 
L 196.465702 131.154902 
L 196.465702 131.154902 
L 196.465702 131.154902 
L 196.465702 131.154902 
L 196.465702 131.154902 
L 196.465702 131.154902 
L 196.465702 131.154902 
L 196.465702 131.154902 
L 196.465702 131.154902 
L 196.465702 131.154902 
L 196.465702 131.154902 
L 196.465702 131.154902 
L 196.465702 131.154902 
L 196.465702 131.154902 
L 196.465702 131.154902 
L 196.465702 131.154902 
L 196.465702 131.154902 
L 196.465702 131.154902 
L 196.465702 131.154902 
L 196.465702 131.154902 
L 196.465702 131.154902 
L 196.465702 131.154902 
L 196.465702 131.154902 
L 196.465702 131.154902 
L 196.465702 131.154902 
L 196.465702 131.154902 
L 196.465702 131.154902 
L 196.465702 131.154902 
L 196.465702 131.154902 
L 196.465702 131.154902 
L 196.465702 131.154902 
L 196.465702 131.154902 
L 196.465702 131.154902 
L 196.465702 131.154902 
L 196.465702 131.154902 
L 196.465702 131.154902 
L 196.465702 131.154902 
L 196.465702 131.154902 
L 196.465702 131.154902 
L 196.465702 131.154902 
L 196.465702 131.154902 
L 196.465702 131.154902 
L 196.465702 131.154902 
L 196.465702 131.154902 
L 196.465702 131.154902 
L 196.465702 131.154902 
L 196.465702 131.154902 
L 196.465702 131.154902 
L 196.465702 131.154902 
L 196.465702 131.154902 
L 196.465702 131.154902 
L 196.465702 131.154902 
L 196.465702 131.154902 
L 196.465702 131.154902 
L 196.465702 131.154902 
L 196.465702 131.154902 
L 196.465702 131.154902 
L 196.465702 131.154902 
L 196.465702 131.154902 
L 196.465702 131.154902 
L 196.465702 131.154902 
L 196.465702 131.154902 
L 196.465702 131.154902 
L 196.465702 131.154902 
L 196.465702 131.154902 
L 196.465702 131.154902 
L 196.465702 131.154902 
L 196.465702 131.154902 
L 196.465702 131.154902 
L 196.465702 131.154902 
L 196.465702 131.154902 
L 196.465702 131.154902 
L 196.465702 131.154902 
L 196.465702 131.154902 
L 196.465702 131.154902 
L 196.465702 131.154902 
L 196.465702 131.154902 
L 196.465702 131.154902 
L 196.465702 131.154902 
L 196.465702 131.154902 
L 196.465702 131.154902 
L 196.465702 131.154902 
L 196.465702 131.154902 
L 196.465702 131.154902 
L 196.465702 131.154902 
L 196.465702 131.154902 
L 196.465702 131.154902 
L 196.465702 131.154902 
L 196.465702 131.154902 
L 196.465702 131.154902 
L 196.465702 131.154902 
L 196.465702 131.154902 
L 196.465702 131.154902 
L 196.465702 131.154902 
L 196.465702 131.154902 
L 196.465702 131.154902 
L 196.465702 131.154902 
L 196.465702 131.154902 
L 196.465702 131.154902 
L 196.465702 131.154902 
L 196.465702 131.154902 
L 196.465702 131.154902 
L 196.465702 131.154902 
L 196.465702 131.154902 
L 196.465702 131.154902 
L 196.465702 131.154902 
L 196.465702 131.154902 
L 196.465702 131.154902 
L 196.465702 131.154902 
L 196.465702 131.154902 
L 196.465702 131.154902 
L 196.465702 131.154902 
L 196.465702 131.154902 
L 196.465702 131.154902 
L 196.465702 131.154902 
L 196.465702 131.154902 
L 196.465702 131.154902 
L 196.465702 131.154902 
L 196.465702 131.154902 
L 196.465702 131.154902 
L 196.465702 131.154902 
L 196.465702 131.154902 
L 196.465702 131.154902 
L 196.465702 131.154902 
L 196.465702 131.154902 
L 196.465702 131.154902 
L 196.465702 131.154902 
L 196.465702 131.154902 
L 196.465702 131.154902 
L 196.465702 131.154902 
L 196.465702 131.154902 
L 196.465702 131.154902 
L 196.465702 131.154902 
L 196.465702 131.154902 
L 196.465702 131.154902 
L 196.465702 131.154902 
L 196.465702 131.154902 
L 196.465702 131.154902 
L 196.465702 131.154902 
L 196.465702 131.154902 
L 196.465702 131.154902 
L 196.465702 131.154902 
L 196.465702 131.154902 
L 196.465702 131.154902 
L 196.465702 131.154902 
L 196.465702 131.154902 
L 196.465702 131.154902 
L 196.465702 131.154902 
L 196.465702 131.154902 
L 196.465702 131.154902 
L 196.465702 131.154902 
L 196.465702 131.154902 
L 196.465702 131.154902 
L 196.465702 131.154902 
L 196.465702 131.154902 
L 196.465702 131.154902 
L 196.465702 131.154902 
L 196.465702 131.154902 
L 196.465702 131.154902 
L 196.465702 131.154902 
L 196.465702 131.154902 
L 196.465702 131.154902 
L 196.465702 131.154902 
L 196.465702 131.154902 
L 196.465702 131.154902 
L 196.465702 131.154902 
L 196.465702 131.154902 
L 196.465702 131.154902 
L 196.465702 131.154902 
L 196.465702 131.154902 
L 196.465702 131.154902 
L 196.465702 131.154902 
L 196.465702 131.154902 
L 196.465702 131.154902 
L 196.465702 131.154902 
L 196.465702 131.154902 
L 196.465702 131.154902 
L 196.465702 131.154902 
L 196.465702 131.154902 
L 196.465702 131.154902 
L 196.465702 131.154902 
L 196.465702 131.154902 
L 196.465702 131.154902 
L 196.465702 131.154902 
L 196.465702 131.154902 
L 196.465702 131.154902 
L 196.465702 131.154902 
L 196.465702 131.154902 
L 196.465702 131.154902 
L 196.465702 131.154902 
L 196.465702 131.154902 
L 196.465702 131.154902 
L 196.465702 131.154902 
L 196.465702 131.154902 
L 196.465702 131.154902 
L 196.465702 131.154902 
L 196.465702 131.154902 
L 196.465702 131.154902 
L 196.465702 131.154902 
L 199.273445 131.15246 
L 200.436446 131.147997 
L 201.328841 131.142216 
L 202.081156 131.135371 
L 202.743949 131.127607 
L 203.343149 131.119021 
L 204.40701 131.099661 
L 205.344233 131.0777 
L 206.191484 131.053418 
L 207.695592 130.99866 
L 209.020417 130.936551 
L 210.217788 130.867879 
L 211.318485 130.793221 
L 212.342554 130.713026 
L 213.730877 130.586443 
L 215.014335 130.449672 
L 216.213205 130.30343 
L 217.341893 130.148302 
L 219.428892 129.813286 
L 221.334825 129.44779 
L 222.708209 129.146003 
L 224.008571 128.828402 
L 225.768572 128.345672 
L 227.418064 127.833902 
L 228.972702 127.294798 
L 230.444402 126.729837 
L 231.990126 126.074885 
L 233.455299 125.391307 
L 235.931292 124.083204 
L 238.203281 122.692718 
L 239.994898 121.44942 
L 242.337636 119.59706 
L 244.010751 118.09106 
L 245.564728 116.530985 
L 246.565778 115.431045 
L 248.124615 113.544332 
L 249.549076 111.598598 
L 250.992443 109.354293 
L 251.983181 107.611131 
L 253.797525 103.814583 
L 254.401084 102.306446 
L 255.678211 98.440911 
L 256.314314 95.941457 
L 257.014712 92.186584 
L 257.366856 89.207285 
L 257.576407 85.010938 
L 257.54367 82.360294 
L 257.371475 79.521766 
L 257.048493 76.596174 
L 256.719345 74.453311 
L 256.089443 71.282058 
L 254.928862 66.869184 
L 254.408523 65.216974 
L 253.689028 63.145167 
L 252.355878 59.77362 
L 251.214008 57.230849 
L 249.689581 54.191403 
L 246.75446 49.146176 
L 244.965735 46.45147 
L 243.53413 44.455138 
L 240.514663 40.625093 
L 239.943191 39.950357 
L 235.858422 35.511687 
L 234.399606 34.069695 
L 230.987229 30.944876 
L 229.818528 29.946971 
L 224.86458 26.073606 
L 222.805639 24.61661 
L 218.54742 21.853765 
L 217.973938 21.505733 
L 214.74245 19.643737 
L 209.769387 17.084487 
L 205.37847 15.106231 
L 202.225909 13.836033 
L 198.145157 12.366438 
L 196.065257 11.689735 
L 192.642001 10.677799 
L 189.004019 9.736221 
L 184.892146 8.831446 
L 179.532004 7.895881 
L 173.771903 7.186197 
L 170.147463 6.891768 
L 168.167593 6.779577 
L 162.971568 6.646154 
L 158.360528 6.72056 
L 156.156375 6.81956 
L 150.738569 7.236283 
L 144.40978 8.034676 
L 140.935737 8.616101 
L 136.198063 9.573889 
L 134.80673 9.891599 
L 128.086672 11.662443 
L 125.567235 12.428814 
L 120.557076 14.122971 
L 115.53819 16.05314 
L 110.538175 18.216682 
L 109.523408 18.686009 
L 103.595189 21.6395 
L 99.145848 24.103535 
L 94.998881 26.602332 
L 90.426453 29.597401 
L 87.570161 31.603577 
L 84.557924 33.838529 
L 78.491823 38.738851 
L 77.725609 39.398331 
L 73.173764 43.519536 
L 70.540336 46.073287 
L 65.474353 51.374929 
L 63.479842 53.61648 
L 58.64901 59.456701 
L 56.067501 62.845339 
L 53.111583 66.989105 
L 49.473201 72.535904 
L 47.017418 76.606359 
L 44.921758 80.3249 
L 43.848571 82.328192 
L 40.606424 88.860547 
L 38.667958 93.180214 
L 36.919032 97.411925 
L 35.568007 100.945382 
L 33.571238 106.702933 
L 31.386659 114.009126 
L 30.736732 116.465475 
L 29.335555 122.403473 
L 28.223672 128.03225 
L 27.463117 132.660101 
L 26.908152 136.716984 
L 26.042132 145.718226 
L 25.849142 149.012774 
L 25.657146 155.937432 
L 25.672105 159.616041 
L 25.877052 165.758899 
L 26.176739 170.346844 
L 26.766413 176.419349 
L 27.344633 180.911103 
L 28.673059 188.894477 
L 30.316603 196.56244 
L 30.909031 198.973379 
L 32.553868 205.00911 
L 34.024943 209.793788 
L 36.710294 217.489623 
L 38.900579 223.042595 
L 39.677327 224.8892 
L 44.169812 234.588359 
L 45.072718 236.369384 
L 49.656392 244.735178 
L 50.93117 246.888344 
L 56.393354 255.422977 
L 58.747348 258.802822 
L 62.942248 264.451651 
L 64.636087 266.61034 
L 68.038423 270.755849 
L 73.715333 277.166326 
L 76.043576 279.63136 
L 81.057855 284.65078 
L 85.159242 288.48752 
L 89.206659 292.058013 
L 97.169144 298.517785 
L 99.569955 300.330542 
L 106.728958 305.397562 
L 111.123148 308.272723 
L 115.83164 311.168825 
L 124.333868 315.946539 
L 126.833236 317.246508 
L 131.126575 319.374189 
L 141.5 323.992467 
L 145.745087 325.679904 
L 151.832113 327.904417 
L 158.547469 330.101468 
L 164.525149 331.838409 
L 170.31329 333.330099 
L 176.227226 334.666105 
L 182.513548 335.882759 
L 188.750008 336.886976 
L 193.088568 337.468463 
L 200.447409 338.238313 
L 207.853277 338.741691 
L 212.842265 338.928909 
L 222.14855 338.953846 
L 224.558362 338.891714 
L 236.511631 338.166765 
L 239.96289 337.828101 
L 250.393919 336.449514 
L 254.929843 335.682129 
L 261.419699 334.404802 
L 264.723104 333.672619 
L 275.585243 330.867364 
L 280.893512 329.269726 
L 286.966923 327.253935 
L 292.154839 325.369328 
L 298.819316 322.72172 
L 305.038883 320.013187 
L 315.013885 315.166729 
L 321.111176 311.883135 
L 325.263688 309.499876 
L 329.368396 307.022103 
L 337.569908 301.688952 
L 345.001831 296.3851 
L 345.624575 295.919075 
L 351.399104 291.429533 
L 360.538816 283.657892 
L 365.203581 279.345486 
L 371.887972 272.710516 
L 376.63396 267.640199 
L 381.058521 262.614173 
L 384.903079 257.988786 
L 388.523605 253.391069 
L 392.914582 247.464782 
L 395.118959 244.329787 
L 400.324841 236.444068 
L 406.064109 226.825987 
L 408.842756 221.748244 
L 410.856776 217.865079 
L 414.759488 209.771021 
L 417.300266 204.019988 
L 420.098456 197.138701 
L 421.776432 192.677886 
L 424.924607 183.438173 
L 426.646967 177.760787 
L 428.940849 169.234486 
L 430.942822 160.472171 
L 432.869757 150.046773 
L 433.231598 147.733905 
L 434.047272 141.842031 
L 435.142854 131.154902 
z
" clip-path="url(#pee1457a8e4)" style="fill: #808080; opacity: 0.5"/>
   </g>
   <g id="matplotlib.axis_1">
    <g id="xtick_1">
     <g id="line2d_1">
      <defs>
       <path id="mb6a3933e0f" d="M 0 0 
L 0 3.5 
" style="stroke: #000000; stroke-width: 0.8"/>
      </defs>
      <g>
       <use xlink:href="#mb6a3933e0f" x="53.638091" y="131.154902" style="stroke: #000000; stroke-width: 0.8"/>
      </g>
     </g>
     <g id="text_1">
      <!-- −1.5 -->
      <g transform="translate(41.496684 145.753339) scale(0.1 -0.1)">
       <defs>
        <path id="DejaVuSans-2212" d="M 678 2272 
L 4684 2272 
L 4684 1741 
L 678 1741 
L 678 2272 
z
" transform="scale(0.015625)"/>
        <path id="DejaVuSans-31" d="M 794 531 
L 1825 531 
L 1825 4091 
L 703 3866 
L 703 4441 
L 1819 4666 
L 2450 4666 
L 2450 531 
L 3481 531 
L 3481 0 
L 794 0 
L 794 531 
z
" transform="scale(0.015625)"/>
        <path id="DejaVuSans-2e" d="M 684 794 
L 1344 794 
L 1344 0 
L 684 0 
L 684 794 
z
" transform="scale(0.015625)"/>
        <path id="DejaVuSans-35" d="M 691 4666 
L 3169 4666 
L 3169 4134 
L 1269 4134 
L 1269 2991 
Q 1406 3038 1543 3061 
Q 1681 3084 1819 3084 
Q 2600 3084 3056 2656 
Q 3513 2228 3513 1497 
Q 3513 744 3044 326 
Q 2575 -91 1722 -91 
Q 1428 -91 1123 -41 
Q 819 9 494 109 
L 494 744 
Q 775 591 1075 516 
Q 1375 441 1709 441 
Q 2250 441 2565 725 
Q 2881 1009 2881 1497 
Q 2881 1984 2565 2268 
Q 2250 2553 1709 2553 
Q 1456 2553 1204 2497 
Q 953 2441 691 2322 
L 691 4666 
z
" transform="scale(0.015625)"/>
       </defs>
       <use xlink:href="#DejaVuSans-2212"/>
       <use xlink:href="#DejaVuSans-31" transform="translate(83.789062 0)"/>
       <use xlink:href="#DejaVuSans-2e" transform="translate(147.412109 0)"/>
       <use xlink:href="#DejaVuSans-35" transform="translate(179.199219 0)"/>
      </g>
     </g>
    </g>
    <g id="xtick_2">
     <g id="line2d_2">
      <g>
       <use xlink:href="#mb6a3933e0f" x="101.247294" y="131.154902" style="stroke: #000000; stroke-width: 0.8"/>
      </g>
     </g>
     <g id="text_2">
      <!-- −1.0 -->
      <g transform="translate(89.105888 145.753339) scale(0.1 -0.1)">
       <defs>
        <path id="DejaVuSans-30" d="M 2034 4250 
Q 1547 4250 1301 3770 
Q 1056 3291 1056 2328 
Q 1056 1369 1301 889 
Q 1547 409 2034 409 
Q 2525 409 2770 889 
Q 3016 1369 3016 2328 
Q 3016 3291 2770 3770 
Q 2525 4250 2034 4250 
z
M 2034 4750 
Q 2819 4750 3233 4129 
Q 3647 3509 3647 2328 
Q 3647 1150 3233 529 
Q 2819 -91 2034 -91 
Q 1250 -91 836 529 
Q 422 1150 422 2328 
Q 422 3509 836 4129 
Q 1250 4750 2034 4750 
z
" transform="scale(0.015625)"/>
       </defs>
       <use xlink:href="#DejaVuSans-2212"/>
       <use xlink:href="#DejaVuSans-31" transform="translate(83.789062 0)"/>
       <use xlink:href="#DejaVuSans-2e" transform="translate(147.412109 0)"/>
       <use xlink:href="#DejaVuSans-30" transform="translate(179.199219 0)"/>
      </g>
     </g>
    </g>
    <g id="xtick_3">
     <g id="line2d_3">
      <g>
       <use xlink:href="#mb6a3933e0f" x="148.856498" y="131.154902" style="stroke: #000000; stroke-width: 0.8"/>
      </g>
     </g>
     <g id="text_3">
      <!-- −0.5 -->
      <g transform="translate(136.715092 145.753339) scale(0.1 -0.1)">
       <use xlink:href="#DejaVuSans-2212"/>
       <use xlink:href="#DejaVuSans-30" transform="translate(83.789062 0)"/>
       <use xlink:href="#DejaVuSans-2e" transform="translate(147.412109 0)"/>
       <use xlink:href="#DejaVuSans-35" transform="translate(179.199219 0)"/>
      </g>
     </g>
    </g>
    <g id="xtick_4">
     <g id="line2d_4">
      <g>
       <use xlink:href="#mb6a3933e0f" x="196.465702" y="131.154902" style="stroke: #000000; stroke-width: 0.8"/>
      </g>
     </g>
    </g>
    <g id="xtick_5">
     <g id="line2d_5">
      <g>
       <use xlink:href="#mb6a3933e0f" x="244.074905" y="131.154902" style="stroke: #000000; stroke-width: 0.8"/>
      </g>
     </g>
     <g id="text_4">
      <!-- 0.5 -->
      <g transform="translate(236.123343 145.753339) scale(0.1 -0.1)">
       <use xlink:href="#DejaVuSans-30"/>
       <use xlink:href="#DejaVuSans-2e" transform="translate(63.623047 0)"/>
       <use xlink:href="#DejaVuSans-35" transform="translate(95.410156 0)"/>
      </g>
     </g>
    </g>
    <g id="xtick_6">
     <g id="line2d_6">
      <g>
       <use xlink:href="#mb6a3933e0f" x="291.684109" y="131.154902" style="stroke: #000000; stroke-width: 0.8"/>
      </g>
     </g>
     <g id="text_5">
      <!-- 1.0 -->
      <g transform="translate(283.732546 145.753339) scale(0.1 -0.1)">
       <use xlink:href="#DejaVuSans-31"/>
       <use xlink:href="#DejaVuSans-2e" transform="translate(63.623047 0)"/>
       <use xlink:href="#DejaVuSans-30" transform="translate(95.410156 0)"/>
      </g>
     </g>
    </g>
    <g id="xtick_7">
     <g id="line2d_7">
      <g>
       <use xlink:href="#mb6a3933e0f" x="339.293313" y="131.154902" style="stroke: #000000; stroke-width: 0.8"/>
      </g>
     </g>
     <g id="text_6">
      <!-- 1.5 -->
      <g transform="translate(331.34175 145.753339) scale(0.1 -0.1)">
       <use xlink:href="#DejaVuSans-31"/>
       <use xlink:href="#DejaVuSans-2e" transform="translate(63.623047 0)"/>
       <use xlink:href="#DejaVuSans-35" transform="translate(95.410156 0)"/>
      </g>
     </g>
    </g>
    <g id="xtick_8">
     <g id="line2d_8">
      <g>
       <use xlink:href="#mb6a3933e0f" x="386.902516" y="131.154902" style="stroke: #000000; stroke-width: 0.8"/>
      </g>
     </g>
     <g id="text_7">
      <!-- 2.0 -->
      <g transform="translate(378.950954 145.753339) scale(0.1 -0.1)">
       <defs>
        <path id="DejaVuSans-32" d="M 1228 531 
L 3431 531 
L 3431 0 
L 469 0 
L 469 531 
Q 828 903 1448 1529 
Q 2069 2156 2228 2338 
Q 2531 2678 2651 2914 
Q 2772 3150 2772 3378 
Q 2772 3750 2511 3984 
Q 2250 4219 1831 4219 
Q 1534 4219 1204 4116 
Q 875 4013 500 3803 
L 500 4441 
Q 881 4594 1212 4672 
Q 1544 4750 1819 4750 
Q 2544 4750 2975 4387 
Q 3406 4025 3406 3419 
Q 3406 3131 3298 2873 
Q 3191 2616 2906 2266 
Q 2828 2175 2409 1742 
Q 1991 1309 1228 531 
z
" transform="scale(0.015625)"/>
       </defs>
       <use xlink:href="#DejaVuSans-32"/>
       <use xlink:href="#DejaVuSans-2e" transform="translate(63.623047 0)"/>
       <use xlink:href="#DejaVuSans-30" transform="translate(95.410156 0)"/>
      </g>
     </g>
    </g>
    <g id="xtick_9">
     <g id="line2d_9">
      <g>
       <use xlink:href="#mb6a3933e0f" x="434.51172" y="131.154902" style="stroke: #000000; stroke-width: 0.8"/>
      </g>
     </g>
     <g id="text_8">
      <!-- 2.5 -->
      <g transform="translate(426.560157 145.753339) scale(0.1 -0.1)">
       <use xlink:href="#DejaVuSans-32"/>
       <use xlink:href="#DejaVuSans-2e" transform="translate(63.623047 0)"/>
       <use xlink:href="#DejaVuSans-35" transform="translate(95.410156 0)"/>
      </g>
     </g>
    </g>
    <g id="xtick_10">
     <g id="line2d_10">
      <defs>
       <path id="m34274a67cd" d="M 0 0 
L 0 2 
" style="stroke: #000000; stroke-width: 0.6"/>
      </defs>
      <g>
       <use xlink:href="#m34274a67cd" x="25.072568" y="131.154902" style="stroke: #000000; stroke-width: 0.6"/>
      </g>
     </g>
    </g>
    <g id="xtick_11">
     <g id="line2d_11">
      <g>
       <use xlink:href="#m34274a67cd" x="34.594409" y="131.154902" style="stroke: #000000; stroke-width: 0.6"/>
      </g>
     </g>
    </g>
    <g id="xtick_12">
     <g id="line2d_12">
      <g>
       <use xlink:href="#m34274a67cd" x="44.11625" y="131.154902" style="stroke: #000000; stroke-width: 0.6"/>
      </g>
     </g>
    </g>
    <g id="xtick_13">
     <g id="line2d_13">
      <g>
       <use xlink:href="#m34274a67cd" x="63.159931" y="131.154902" style="stroke: #000000; stroke-width: 0.6"/>
      </g>
     </g>
    </g>
    <g id="xtick_14">
     <g id="line2d_14">
      <g>
       <use xlink:href="#m34274a67cd" x="72.681772" y="131.154902" style="stroke: #000000; stroke-width: 0.6"/>
      </g>
     </g>
    </g>
    <g id="xtick_15">
     <g id="line2d_15">
      <g>
       <use xlink:href="#m34274a67cd" x="82.203613" y="131.154902" style="stroke: #000000; stroke-width: 0.6"/>
      </g>
     </g>
    </g>
    <g id="xtick_16">
     <g id="line2d_16">
      <g>
       <use xlink:href="#m34274a67cd" x="91.725454" y="131.154902" style="stroke: #000000; stroke-width: 0.6"/>
      </g>
     </g>
    </g>
    <g id="xtick_17">
     <g id="line2d_17">
      <g>
       <use xlink:href="#m34274a67cd" x="110.769135" y="131.154902" style="stroke: #000000; stroke-width: 0.6"/>
      </g>
     </g>
    </g>
    <g id="xtick_18">
     <g id="line2d_18">
      <g>
       <use xlink:href="#m34274a67cd" x="120.290976" y="131.154902" style="stroke: #000000; stroke-width: 0.6"/>
      </g>
     </g>
    </g>
    <g id="xtick_19">
     <g id="line2d_19">
      <g>
       <use xlink:href="#m34274a67cd" x="129.812816" y="131.154902" style="stroke: #000000; stroke-width: 0.6"/>
      </g>
     </g>
    </g>
    <g id="xtick_20">
     <g id="line2d_20">
      <g>
       <use xlink:href="#m34274a67cd" x="139.334657" y="131.154902" style="stroke: #000000; stroke-width: 0.6"/>
      </g>
     </g>
    </g>
    <g id="xtick_21">
     <g id="line2d_21">
      <g>
       <use xlink:href="#m34274a67cd" x="158.378339" y="131.154902" style="stroke: #000000; stroke-width: 0.6"/>
      </g>
     </g>
    </g>
    <g id="xtick_22">
     <g id="line2d_22">
      <g>
       <use xlink:href="#m34274a67cd" x="167.900179" y="131.154902" style="stroke: #000000; stroke-width: 0.6"/>
      </g>
     </g>
    </g>
    <g id="xtick_23">
     <g id="line2d_23">
      <g>
       <use xlink:href="#m34274a67cd" x="177.42202" y="131.154902" style="stroke: #000000; stroke-width: 0.6"/>
      </g>
     </g>
    </g>
    <g id="xtick_24">
     <g id="line2d_24">
      <g>
       <use xlink:href="#m34274a67cd" x="186.943861" y="131.154902" style="stroke: #000000; stroke-width: 0.6"/>
      </g>
     </g>
    </g>
    <g id="xtick_25">
     <g id="line2d_25">
      <g>
       <use xlink:href="#m34274a67cd" x="205.987542" y="131.154902" style="stroke: #000000; stroke-width: 0.6"/>
      </g>
     </g>
    </g>
    <g id="xtick_26">
     <g id="line2d_26">
      <g>
       <use xlink:href="#m34274a67cd" x="215.509383" y="131.154902" style="stroke: #000000; stroke-width: 0.6"/>
      </g>
     </g>
    </g>
    <g id="xtick_27">
     <g id="line2d_27">
      <g>
       <use xlink:href="#m34274a67cd" x="225.031224" y="131.154902" style="stroke: #000000; stroke-width: 0.6"/>
      </g>
     </g>
    </g>
    <g id="xtick_28">
     <g id="line2d_28">
      <g>
       <use xlink:href="#m34274a67cd" x="234.553065" y="131.154902" style="stroke: #000000; stroke-width: 0.6"/>
      </g>
     </g>
    </g>
    <g id="xtick_29">
     <g id="line2d_29">
      <g>
       <use xlink:href="#m34274a67cd" x="253.596746" y="131.154902" style="stroke: #000000; stroke-width: 0.6"/>
      </g>
     </g>
    </g>
    <g id="xtick_30">
     <g id="line2d_30">
      <g>
       <use xlink:href="#m34274a67cd" x="263.118587" y="131.154902" style="stroke: #000000; stroke-width: 0.6"/>
      </g>
     </g>
    </g>
    <g id="xtick_31">
     <g id="line2d_31">
      <g>
       <use xlink:href="#m34274a67cd" x="272.640427" y="131.154902" style="stroke: #000000; stroke-width: 0.6"/>
      </g>
     </g>
    </g>
    <g id="xtick_32">
     <g id="line2d_32">
      <g>
       <use xlink:href="#m34274a67cd" x="282.162268" y="131.154902" style="stroke: #000000; stroke-width: 0.6"/>
      </g>
     </g>
    </g>
    <g id="xtick_33">
     <g id="line2d_33">
      <g>
       <use xlink:href="#m34274a67cd" x="301.20595" y="131.154902" style="stroke: #000000; stroke-width: 0.6"/>
      </g>
     </g>
    </g>
    <g id="xtick_34">
     <g id="line2d_34">
      <g>
       <use xlink:href="#m34274a67cd" x="310.72779" y="131.154902" style="stroke: #000000; stroke-width: 0.6"/>
      </g>
     </g>
    </g>
    <g id="xtick_35">
     <g id="line2d_35">
      <g>
       <use xlink:href="#m34274a67cd" x="320.249631" y="131.154902" style="stroke: #000000; stroke-width: 0.6"/>
      </g>
     </g>
    </g>
    <g id="xtick_36">
     <g id="line2d_36">
      <g>
       <use xlink:href="#m34274a67cd" x="329.771472" y="131.154902" style="stroke: #000000; stroke-width: 0.6"/>
      </g>
     </g>
    </g>
    <g id="xtick_37">
     <g id="line2d_37">
      <g>
       <use xlink:href="#m34274a67cd" x="348.815153" y="131.154902" style="stroke: #000000; stroke-width: 0.6"/>
      </g>
     </g>
    </g>
    <g id="xtick_38">
     <g id="line2d_38">
      <g>
       <use xlink:href="#m34274a67cd" x="358.336994" y="131.154902" style="stroke: #000000; stroke-width: 0.6"/>
      </g>
     </g>
    </g>
    <g id="xtick_39">
     <g id="line2d_39">
      <g>
       <use xlink:href="#m34274a67cd" x="367.858835" y="131.154902" style="stroke: #000000; stroke-width: 0.6"/>
      </g>
     </g>
    </g>
    <g id="xtick_40">
     <g id="line2d_40">
      <g>
       <use xlink:href="#m34274a67cd" x="377.380676" y="131.154902" style="stroke: #000000; stroke-width: 0.6"/>
      </g>
     </g>
    </g>
    <g id="xtick_41">
     <g id="line2d_41">
      <g>
       <use xlink:href="#m34274a67cd" x="396.424357" y="131.154902" style="stroke: #000000; stroke-width: 0.6"/>
      </g>
     </g>
    </g>
    <g id="xtick_42">
     <g id="line2d_42">
      <g>
       <use xlink:href="#m34274a67cd" x="405.946198" y="131.154902" style="stroke: #000000; stroke-width: 0.6"/>
      </g>
     </g>
    </g>
    <g id="xtick_43">
     <g id="line2d_43">
      <g>
       <use xlink:href="#m34274a67cd" x="415.468038" y="131.154902" style="stroke: #000000; stroke-width: 0.6"/>
      </g>
     </g>
    </g>
    <g id="xtick_44">
     <g id="line2d_44">
      <g>
       <use xlink:href="#m34274a67cd" x="424.989879" y="131.154902" style="stroke: #000000; stroke-width: 0.6"/>
      </g>
     </g>
    </g>
   </g>
   <g id="matplotlib.axis_2">
    <g id="ytick_1">
     <g id="line2d_45">
      <defs>
       <path id="maf8752f26e" d="M 0 0 
L -3.5 0 
" style="stroke: #000000; stroke-width: 0.8"/>
      </defs>
      <g>
       <use xlink:href="#maf8752f26e" x="196.465702" y="321.591716" style="stroke: #000000; stroke-width: 0.8"/>
      </g>
     </g>
     <g id="text_9">
      <!-- −2.0 -->
      <g transform="translate(165.182889 325.390935) scale(0.1 -0.1)">
       <use xlink:href="#DejaVuSans-2212"/>
       <use xlink:href="#DejaVuSans-32" transform="translate(83.789062 0)"/>
       <use xlink:href="#DejaVuSans-2e" transform="translate(147.412109 0)"/>
       <use xlink:href="#DejaVuSans-30" transform="translate(179.199219 0)"/>
      </g>
     </g>
    </g>
    <g id="ytick_2">
     <g id="line2d_46">
      <g>
       <use xlink:href="#maf8752f26e" x="196.465702" y="273.982513" style="stroke: #000000; stroke-width: 0.8"/>
      </g>
     </g>
     <g id="text_10">
      <!-- −1.5 -->
      <g transform="translate(165.182889 277.781731) scale(0.1 -0.1)">
       <use xlink:href="#DejaVuSans-2212"/>
       <use xlink:href="#DejaVuSans-31" transform="translate(83.789062 0)"/>
       <use xlink:href="#DejaVuSans-2e" transform="translate(147.412109 0)"/>
       <use xlink:href="#DejaVuSans-35" transform="translate(179.199219 0)"/>
      </g>
     </g>
    </g>
    <g id="ytick_3">
     <g id="line2d_47">
      <g>
       <use xlink:href="#maf8752f26e" x="196.465702" y="226.373309" style="stroke: #000000; stroke-width: 0.8"/>
      </g>
     </g>
     <g id="text_11">
      <!-- −1.0 -->
      <g transform="translate(165.182889 230.172528) scale(0.1 -0.1)">
       <use xlink:href="#DejaVuSans-2212"/>
       <use xlink:href="#DejaVuSans-31" transform="translate(83.789062 0)"/>
       <use xlink:href="#DejaVuSans-2e" transform="translate(147.412109 0)"/>
       <use xlink:href="#DejaVuSans-30" transform="translate(179.199219 0)"/>
      </g>
     </g>
    </g>
    <g id="ytick_4">
     <g id="line2d_48">
      <g>
       <use xlink:href="#maf8752f26e" x="196.465702" y="178.764105" style="stroke: #000000; stroke-width: 0.8"/>
      </g>
     </g>
     <g id="text_12">
      <!-- −0.5 -->
      <g transform="translate(165.182889 182.563324) scale(0.1 -0.1)">
       <use xlink:href="#DejaVuSans-2212"/>
       <use xlink:href="#DejaVuSans-30" transform="translate(83.789062 0)"/>
       <use xlink:href="#DejaVuSans-2e" transform="translate(147.412109 0)"/>
       <use xlink:href="#DejaVuSans-35" transform="translate(179.199219 0)"/>
      </g>
     </g>
    </g>
    <g id="ytick_5">
     <g id="line2d_49">
      <g>
       <use xlink:href="#maf8752f26e" x="196.465702" y="131.154902" style="stroke: #000000; stroke-width: 0.8"/>
      </g>
     </g>
    </g>
    <g id="ytick_6">
     <g id="line2d_50">
      <g>
       <use xlink:href="#maf8752f26e" x="196.465702" y="83.545698" style="stroke: #000000; stroke-width: 0.8"/>
      </g>
     </g>
     <g id="text_13">
      <!-- 0.5 -->
      <g transform="translate(173.562577 87.344917) scale(0.1 -0.1)">
       <use xlink:href="#DejaVuSans-30"/>
       <use xlink:href="#DejaVuSans-2e" transform="translate(63.623047 0)"/>
       <use xlink:href="#DejaVuSans-35" transform="translate(95.410156 0)"/>
      </g>
     </g>
    </g>
    <g id="ytick_7">
     <g id="line2d_51">
      <g>
       <use xlink:href="#maf8752f26e" x="196.465702" y="35.936494" style="stroke: #000000; stroke-width: 0.8"/>
      </g>
     </g>
     <g id="text_14">
      <!-- 1.0 -->
      <g transform="translate(173.562577 39.735713) scale(0.1 -0.1)">
       <use xlink:href="#DejaVuSans-31"/>
       <use xlink:href="#DejaVuSans-2e" transform="translate(63.623047 0)"/>
       <use xlink:href="#DejaVuSans-30" transform="translate(95.410156 0)"/>
      </g>
     </g>
    </g>
    <g id="ytick_8">
     <g id="line2d_52">
      <defs>
       <path id="m9a7f1d562c" d="M 0 0 
L -2 0 
" style="stroke: #000000; stroke-width: 0.6"/>
      </defs>
      <g>
       <use xlink:href="#m9a7f1d562c" x="196.465702" y="340.635398" style="stroke: #000000; stroke-width: 0.6"/>
      </g>
     </g>
    </g>
    <g id="ytick_9">
     <g id="line2d_53">
      <g>
       <use xlink:href="#m9a7f1d562c" x="196.465702" y="331.113557" style="stroke: #000000; stroke-width: 0.6"/>
      </g>
     </g>
    </g>
    <g id="ytick_10">
     <g id="line2d_54">
      <g>
       <use xlink:href="#m9a7f1d562c" x="196.465702" y="312.069876" style="stroke: #000000; stroke-width: 0.6"/>
      </g>
     </g>
    </g>
    <g id="ytick_11">
     <g id="line2d_55">
      <g>
       <use xlink:href="#m9a7f1d562c" x="196.465702" y="302.548035" style="stroke: #000000; stroke-width: 0.6"/>
      </g>
     </g>
    </g>
    <g id="ytick_12">
     <g id="line2d_56">
      <g>
       <use xlink:href="#m9a7f1d562c" x="196.465702" y="293.026194" style="stroke: #000000; stroke-width: 0.6"/>
      </g>
     </g>
    </g>
    <g id="ytick_13">
     <g id="line2d_57">
      <g>
       <use xlink:href="#m9a7f1d562c" x="196.465702" y="283.504353" style="stroke: #000000; stroke-width: 0.6"/>
      </g>
     </g>
    </g>
    <g id="ytick_14">
     <g id="line2d_58">
      <g>
       <use xlink:href="#m9a7f1d562c" x="196.465702" y="264.460672" style="stroke: #000000; stroke-width: 0.6"/>
      </g>
     </g>
    </g>
    <g id="ytick_15">
     <g id="line2d_59">
      <g>
       <use xlink:href="#m9a7f1d562c" x="196.465702" y="254.938831" style="stroke: #000000; stroke-width: 0.6"/>
      </g>
     </g>
    </g>
    <g id="ytick_16">
     <g id="line2d_60">
      <g>
       <use xlink:href="#m9a7f1d562c" x="196.465702" y="245.416991" style="stroke: #000000; stroke-width: 0.6"/>
      </g>
     </g>
    </g>
    <g id="ytick_17">
     <g id="line2d_61">
      <g>
       <use xlink:href="#m9a7f1d562c" x="196.465702" y="235.89515" style="stroke: #000000; stroke-width: 0.6"/>
      </g>
     </g>
    </g>
    <g id="ytick_18">
     <g id="line2d_62">
      <g>
       <use xlink:href="#m9a7f1d562c" x="196.465702" y="216.851468" style="stroke: #000000; stroke-width: 0.6"/>
      </g>
     </g>
    </g>
    <g id="ytick_19">
     <g id="line2d_63">
      <g>
       <use xlink:href="#m9a7f1d562c" x="196.465702" y="207.329628" style="stroke: #000000; stroke-width: 0.6"/>
      </g>
     </g>
    </g>
    <g id="ytick_20">
     <g id="line2d_64">
      <g>
       <use xlink:href="#m9a7f1d562c" x="196.465702" y="197.807787" style="stroke: #000000; stroke-width: 0.6"/>
      </g>
     </g>
    </g>
    <g id="ytick_21">
     <g id="line2d_65">
      <g>
       <use xlink:href="#m9a7f1d562c" x="196.465702" y="188.285946" style="stroke: #000000; stroke-width: 0.6"/>
      </g>
     </g>
    </g>
    <g id="ytick_22">
     <g id="line2d_66">
      <g>
       <use xlink:href="#m9a7f1d562c" x="196.465702" y="169.242265" style="stroke: #000000; stroke-width: 0.6"/>
      </g>
     </g>
    </g>
    <g id="ytick_23">
     <g id="line2d_67">
      <g>
       <use xlink:href="#m9a7f1d562c" x="196.465702" y="159.720424" style="stroke: #000000; stroke-width: 0.6"/>
      </g>
     </g>
    </g>
    <g id="ytick_24">
     <g id="line2d_68">
      <g>
       <use xlink:href="#m9a7f1d562c" x="196.465702" y="150.198583" style="stroke: #000000; stroke-width: 0.6"/>
      </g>
     </g>
    </g>
    <g id="ytick_25">
     <g id="line2d_69">
      <g>
       <use xlink:href="#m9a7f1d562c" x="196.465702" y="140.676742" style="stroke: #000000; stroke-width: 0.6"/>
      </g>
     </g>
    </g>
    <g id="ytick_26">
     <g id="line2d_70">
      <g>
       <use xlink:href="#m9a7f1d562c" x="196.465702" y="121.633061" style="stroke: #000000; stroke-width: 0.6"/>
      </g>
     </g>
    </g>
    <g id="ytick_27">
     <g id="line2d_71">
      <g>
       <use xlink:href="#m9a7f1d562c" x="196.465702" y="112.11122" style="stroke: #000000; stroke-width: 0.6"/>
      </g>
     </g>
    </g>
    <g id="ytick_28">
     <g id="line2d_72">
      <g>
       <use xlink:href="#m9a7f1d562c" x="196.465702" y="102.58938" style="stroke: #000000; stroke-width: 0.6"/>
      </g>
     </g>
    </g>
    <g id="ytick_29">
     <g id="line2d_73">
      <g>
       <use xlink:href="#m9a7f1d562c" x="196.465702" y="93.067539" style="stroke: #000000; stroke-width: 0.6"/>
      </g>
     </g>
    </g>
    <g id="ytick_30">
     <g id="line2d_74">
      <g>
       <use xlink:href="#m9a7f1d562c" x="196.465702" y="74.023857" style="stroke: #000000; stroke-width: 0.6"/>
      </g>
     </g>
    </g>
    <g id="ytick_31">
     <g id="line2d_75">
      <g>
       <use xlink:href="#m9a7f1d562c" x="196.465702" y="64.502017" style="stroke: #000000; stroke-width: 0.6"/>
      </g>
     </g>
    </g>
    <g id="ytick_32">
     <g id="line2d_76">
      <g>
       <use xlink:href="#m9a7f1d562c" x="196.465702" y="54.980176" style="stroke: #000000; stroke-width: 0.6"/>
      </g>
     </g>
    </g>
    <g id="ytick_33">
     <g id="line2d_77">
      <g>
       <use xlink:href="#m9a7f1d562c" x="196.465702" y="45.458335" style="stroke: #000000; stroke-width: 0.6"/>
      </g>
     </g>
    </g>
    <g id="ytick_34">
     <g id="line2d_78">
      <g>
       <use xlink:href="#m9a7f1d562c" x="196.465702" y="26.414654" style="stroke: #000000; stroke-width: 0.6"/>
      </g>
     </g>
    </g>
    <g id="ytick_35">
     <g id="line2d_79">
      <g>
       <use xlink:href="#m9a7f1d562c" x="196.465702" y="16.892813" style="stroke: #000000; stroke-width: 0.6"/>
      </g>
     </g>
    </g>
    <g id="ytick_36">
     <g id="line2d_80">
      <g>
       <use xlink:href="#m9a7f1d562c" x="196.465702" y="7.370972" style="stroke: #000000; stroke-width: 0.6"/>
      </g>
     </g>
    </g>
   </g>
   <g id="line2d_81">
    <path d="M 196.465702 131.154902 
L 206.191484 131.053418 
L 211.318485 130.793221 
L 216.213205 130.30343 
L 219.428892 129.813286 
L 224.008571 128.828402 
L 227.418064 127.833902 
L 230.444402 126.729837 
L 233.455299 125.391307 
L 235.931292 124.083204 
L 238.203281 122.692718 
L 239.994898 121.44942 
L 242.337636 119.59706 
L 244.010751 118.09106 
L 246.565778 115.431045 
L 248.124615 113.544332 
L 249.549076 111.598598 
L 251.983181 107.611131 
L 254.401084 102.306446 
L 255.678211 98.440911 
L 256.314314 95.941457 
L 257.014712 92.186584 
L 257.366856 89.207285 
L 257.576407 85.010938 
L 257.54367 82.360294 
L 257.371475 79.521766 
L 256.719345 74.453311 
L 256.089443 71.282058 
L 254.408523 65.216974 
L 253.689028 63.145167 
L 252.355878 59.77362 
L 251.214008 57.230849 
L 249.689581 54.191403 
L 246.75446 49.146176 
L 243.53413 44.455138 
L 239.943191 39.950357 
L 234.399606 34.069695 
L 229.818528 29.946971 
L 224.86458 26.073606 
L 222.805639 24.61661 
L 217.973938 21.505733 
L 214.74245 19.643737 
L 209.769387 17.084487 
L 205.37847 15.106231 
L 202.225909 13.836033 
L 196.065257 11.689735 
L 192.642001 10.677799 
L 189.004019 9.736221 
L 184.892146 8.831446 
L 179.532004 7.895881 
L 173.771903 7.186197 
L 168.167593 6.779577 
L 162.971568 6.646154 
L 156.156375 6.81956 
L 150.738569 7.236283 
L 144.40978 8.034676 
L 140.935737 8.616101 
L 134.80673 9.891599 
L 125.567235 12.428814 
L 120.557076 14.122971 
L 115.53819 16.05314 
L 109.523408 18.686009 
L 103.595189 21.6395 
L 99.145848 24.103535 
L 94.998881 26.602332 
L 90.426453 29.597401 
L 84.557924 33.838529 
L 77.725609 39.398331 
L 73.173764 43.519536 
L 70.540336 46.073287 
L 63.479842 53.61648 
L 58.64901 59.456701 
L 56.067501 62.845339 
L 53.111583 66.989105 
L 49.473201 72.535904 
L 47.017418 76.606359 
L 43.848571 82.328192 
L 40.606424 88.860547 
L 38.667958 93.180214 
L 35.568007 100.945382 
L 33.571238 106.702933 
L 30.736732 116.465475 
L 29.335555 122.403473 
L 28.223672 128.03225 
L 26.908152 136.716984 
L 26.042132 145.718226 
L 25.849142 149.012774 
L 25.657146 155.937432 
L 25.672105 159.616041 
L 25.877052 165.758899 
L 26.176739 170.346844 
L 26.766413 176.419349 
L 27.344633 180.911103 
L 28.673059 188.894477 
L 30.909031 198.973379 
L 32.553868 205.00911 
L 34.024943 209.793788 
L 36.710294 217.489623 
L 39.677327 224.8892 
L 45.072718 236.369384 
L 50.93117 246.888344 
L 56.393354 255.422977 
L 58.747348 258.802822 
L 64.636087 266.61034 
L 68.038423 270.755849 
L 76.043576 279.63136 
L 81.057855 284.65078 
L 85.159242 288.48752 
L 89.206659 292.058013 
L 99.569955 300.330542 
L 106.728958 305.397562 
L 111.123148 308.272723 
L 115.83164 311.168825 
L 126.833236 317.246508 
L 131.126575 319.374189 
L 141.5 323.992467 
L 145.745087 325.679904 
L 151.832113 327.904417 
L 158.547469 330.101468 
L 164.525149 331.838409 
L 170.31329 333.330099 
L 176.227226 334.666105 
L 182.513548 335.882759 
L 188.750008 336.886976 
L 193.088568 337.468463 
L 200.447409 338.238313 
L 207.853277 338.741691 
L 212.842265 338.928909 
L 224.558362 338.891714 
L 236.511631 338.166765 
L 239.96289 337.828101 
L 250.393919 336.449514 
L 254.929843 335.682129 
L 264.723104 333.672619 
L 275.585243 330.867364 
L 280.893512 329.269726 
L 286.966923 327.253935 
L 292.154839 325.369328 
L 298.819316 322.72172 
L 305.038883 320.013187 
L 315.013885 315.166729 
L 321.111176 311.883135 
L 329.368396 307.022103 
L 337.569908 301.688952 
L 345.624575 295.919075 
L 351.399104 291.429533 
L 360.538816 283.657892 
L 365.203581 279.345486 
L 371.887972 272.710516 
L 376.63396 267.640199 
L 381.058521 262.614173 
L 384.903079 257.988786 
L 388.523605 253.391069 
L 395.118959 244.329787 
L 400.324841 236.444068 
L 406.064109 226.825987 
L 410.856776 217.865079 
L 414.759488 209.771021 
L 417.300266 204.019988 
L 420.098456 197.138701 
L 421.776432 192.677886 
L 424.924607 183.438173 
L 426.646967 177.760787 
L 428.940849 169.234486 
L 430.942822 160.472171 
L 433.231598 147.733905 
L 434.047272 141.842031 
L 435.142854 131.154902 
L 435.142854 131.154902 
" clip-path="url(#pee1457a8e4)" style="fill: none; stroke: #0000ff; stroke-linecap: square"/>
   </g>
   <g id="patch_4">
    <path d="M 196.465702 345.6 
L 196.465702 0 
" style="fill: none; stroke: #000000; stroke-width: 0.8; stroke-linejoin: miter; stroke-linecap: square"/>
   </g>
   <g id="patch_5">
    <path d="M 17.467432 131.154902 
L 443.332568 131.154902 
" style="fill: none; stroke: #000000; stroke-width: 0.8; stroke-linejoin: miter; stroke-linecap: square"/>
   </g>
  </g>
 </g>
 <defs>
  <clipPath id="pee1457a8e4">
   <rect x="17.467432" y="0" width="425.865136" height="345.6"/>
  </clipPath>
 </defs>
</svg>
