<?xml version="1.0" encoding="utf-8" standalone="no"?>
<!DOCTYPE svg PUBLIC "-//W3C//DTD SVG 1.1//EN"
  "http://www.w3.org/Graphics/SVG/1.1/DTD/svg11.dtd">
<svg xmlns:xlink="http://www.w3.org/1999/xlink" width="460.8pt" height="345.6pt" viewBox="0 0 460.8 345.6" xmlns="http://www.w3.org/2000/svg" version="1.1">
 <metadata>
  <rdf:RDF xmlns:dc="http://purl.org/dc/elements/1.1/" xmlns:cc="http://creativecommons.org/ns#" xmlns:rdf="http://www.w3.org/1999/02/22-rdf-syntax-ns#">
   <cc:Work>
    <dc:type rdf:resource="http://purl.org/dc/dcmitype/StillImage"/>
    <dc:date>2025-08-07T23:34:15.325573</dc:date>
    <dc:format>image/svg+xml</dc:format>
    <dc:creator>
     <cc:Agent>
      <dc:title>Matplotlib v3.10.3, https://matplotlib.org/</dc:title>
     </cc:Agent>
    </dc:creator>
   </cc:Work>
  </rdf:RDF>
 </metadata>
 <defs>
  <style type="text/css">*{stroke-linejoin: round; stroke-linecap: butt}</style>
 </defs>
 <g id="figure_1">
  <g id="patch_1">
   <path d="M 0 345.6 
L 460.8 345.6 
L 460.8 0 
L 0 0 
z
" style="fill: #ffffff"/>
  </g>
  <g id="axes_1">
   <g id="patch_2">
    <path d="M 14.813839 268.437076 
L 460.8 268.437076 
L 460.8 77.162924 
L 14.813839 77.162924 
z
" style="fill: #ffffff"/>
   </g>
   <g id="matplotlib.axis_1">
    <g id="xtick_1">
     <g id="line2d_1">
      <defs>
       <path id="mc7362073a5" d="M 0 0 
L 0 3.5 
" style="stroke: #000000; stroke-width: 0.8"/>
      </defs>
      <g>
       <use xlink:href="#mc7362073a5" x="23.390496" y="264.758727" style="stroke: #000000; stroke-width: 0.8"/>
      </g>
     </g>
    </g>
    <g id="xtick_2">
     <g id="line2d_2">
      <g>
       <use xlink:href="#mc7362073a5" x="130.598708" y="264.758727" style="stroke: #000000; stroke-width: 0.8"/>
      </g>
     </g>
     <g id="text_1">
      <!-- 0.5 -->
      <g transform="translate(122.647145 279.357165) scale(0.1 -0.1)">
       <defs>
        <path id="DejaVuSans-30" d="M 2034 4250 
Q 1547 4250 1301 3770 
Q 1056 3291 1056 2328 
Q 1056 1369 1301 889 
Q 1547 409 2034 409 
Q 2525 409 2770 889 
Q 3016 1369 3016 2328 
Q 3016 3291 2770 3770 
Q 2525 4250 2034 4250 
z
M 2034 4750 
Q 2819 4750 3233 4129 
Q 3647 3509 3647 2328 
Q 3647 1150 3233 529 
Q 2819 -91 2034 -91 
Q 1250 -91 836 529 
Q 422 1150 422 2328 
Q 422 3509 836 4129 
Q 1250 4750 2034 4750 
z
" transform="scale(0.015625)"/>
        <path id="DejaVuSans-2e" d="M 684 794 
L 1344 794 
L 1344 0 
L 684 0 
L 684 794 
z
" transform="scale(0.015625)"/>
        <path id="DejaVuSans-35" d="M 691 4666 
L 3169 4666 
L 3169 4134 
L 1269 4134 
L 1269 2991 
Q 1406 3038 1543 3061 
Q 1681 3084 1819 3084 
Q 2600 3084 3056 2656 
Q 3513 2228 3513 1497 
Q 3513 744 3044 326 
Q 2575 -91 1722 -91 
Q 1428 -91 1123 -41 
Q 819 9 494 109 
L 494 744 
Q 775 591 1075 516 
Q 1375 441 1709 441 
Q 2250 441 2565 725 
Q 2881 1009 2881 1497 
Q 2881 1984 2565 2268 
Q 2250 2553 1709 2553 
Q 1456 2553 1204 2497 
Q 953 2441 691 2322 
L 691 4666 
z
" transform="scale(0.015625)"/>
       </defs>
       <use xlink:href="#DejaVuSans-30"/>
       <use xlink:href="#DejaVuSans-2e" transform="translate(63.623047 0)"/>
       <use xlink:href="#DejaVuSans-35" transform="translate(95.410156 0)"/>
      </g>
     </g>
    </g>
    <g id="xtick_3">
     <g id="line2d_3">
      <g>
       <use xlink:href="#mc7362073a5" x="237.806919" y="264.758727" style="stroke: #000000; stroke-width: 0.8"/>
      </g>
     </g>
     <g id="text_2">
      <!-- 1.0 -->
      <g transform="translate(229.855357 279.357165) scale(0.1 -0.1)">
       <defs>
        <path id="DejaVuSans-31" d="M 794 531 
L 1825 531 
L 1825 4091 
L 703 3866 
L 703 4441 
L 1819 4666 
L 2450 4666 
L 2450 531 
L 3481 531 
L 3481 0 
L 794 0 
L 794 531 
z
" transform="scale(0.015625)"/>
       </defs>
       <use xlink:href="#DejaVuSans-31"/>
       <use xlink:href="#DejaVuSans-2e" transform="translate(63.623047 0)"/>
       <use xlink:href="#DejaVuSans-30" transform="translate(95.410156 0)"/>
      </g>
     </g>
    </g>
    <g id="xtick_4">
     <g id="line2d_4">
      <g>
       <use xlink:href="#mc7362073a5" x="345.015131" y="264.758727" style="stroke: #000000; stroke-width: 0.8"/>
      </g>
     </g>
     <g id="text_3">
      <!-- 1.5 -->
      <g transform="translate(337.063569 279.357165) scale(0.1 -0.1)">
       <use xlink:href="#DejaVuSans-31"/>
       <use xlink:href="#DejaVuSans-2e" transform="translate(63.623047 0)"/>
       <use xlink:href="#DejaVuSans-35" transform="translate(95.410156 0)"/>
      </g>
     </g>
    </g>
    <g id="xtick_5">
     <g id="line2d_5">
      <g>
       <use xlink:href="#mc7362073a5" x="452.223343" y="264.758727" style="stroke: #000000; stroke-width: 0.8"/>
      </g>
     </g>
     <g id="text_4">
      <!-- 2.0 -->
      <g transform="translate(444.271781 279.357165) scale(0.1 -0.1)">
       <defs>
        <path id="DejaVuSans-32" d="M 1228 531 
L 3431 531 
L 3431 0 
L 469 0 
L 469 531 
Q 828 903 1448 1529 
Q 2069 2156 2228 2338 
Q 2531 2678 2651 2914 
Q 2772 3150 2772 3378 
Q 2772 3750 2511 3984 
Q 2250 4219 1831 4219 
Q 1534 4219 1204 4116 
Q 875 4013 500 3803 
L 500 4441 
Q 881 4594 1212 4672 
Q 1544 4750 1819 4750 
Q 2544 4750 2975 4387 
Q 3406 4025 3406 3419 
Q 3406 3131 3298 2873 
Q 3191 2616 2906 2266 
Q 2828 2175 2409 1742 
Q 1991 1309 1228 531 
z
" transform="scale(0.015625)"/>
       </defs>
       <use xlink:href="#DejaVuSans-32"/>
       <use xlink:href="#DejaVuSans-2e" transform="translate(63.623047 0)"/>
       <use xlink:href="#DejaVuSans-30" transform="translate(95.410156 0)"/>
      </g>
     </g>
    </g>
    <g id="xtick_6">
     <g id="line2d_6">
      <defs>
       <path id="m9536c46d00" d="M 0 0 
L 0 2 
" style="stroke: #000000; stroke-width: 0.6"/>
      </defs>
      <g>
       <use xlink:href="#m9536c46d00" x="44.832138" y="264.758727" style="stroke: #000000; stroke-width: 0.6"/>
      </g>
     </g>
    </g>
    <g id="xtick_7">
     <g id="line2d_7">
      <g>
       <use xlink:href="#m9536c46d00" x="66.27378" y="264.758727" style="stroke: #000000; stroke-width: 0.6"/>
      </g>
     </g>
    </g>
    <g id="xtick_8">
     <g id="line2d_8">
      <g>
       <use xlink:href="#m9536c46d00" x="87.715423" y="264.758727" style="stroke: #000000; stroke-width: 0.6"/>
      </g>
     </g>
    </g>
    <g id="xtick_9">
     <g id="line2d_9">
      <g>
       <use xlink:href="#m9536c46d00" x="109.157065" y="264.758727" style="stroke: #000000; stroke-width: 0.6"/>
      </g>
     </g>
    </g>
    <g id="xtick_10">
     <g id="line2d_10">
      <g>
       <use xlink:href="#m9536c46d00" x="152.04035" y="264.758727" style="stroke: #000000; stroke-width: 0.6"/>
      </g>
     </g>
    </g>
    <g id="xtick_11">
     <g id="line2d_11">
      <g>
       <use xlink:href="#m9536c46d00" x="173.481992" y="264.758727" style="stroke: #000000; stroke-width: 0.6"/>
      </g>
     </g>
    </g>
    <g id="xtick_12">
     <g id="line2d_12">
      <g>
       <use xlink:href="#m9536c46d00" x="194.923635" y="264.758727" style="stroke: #000000; stroke-width: 0.6"/>
      </g>
     </g>
    </g>
    <g id="xtick_13">
     <g id="line2d_13">
      <g>
       <use xlink:href="#m9536c46d00" x="216.365277" y="264.758727" style="stroke: #000000; stroke-width: 0.6"/>
      </g>
     </g>
    </g>
    <g id="xtick_14">
     <g id="line2d_14">
      <g>
       <use xlink:href="#m9536c46d00" x="259.248562" y="264.758727" style="stroke: #000000; stroke-width: 0.6"/>
      </g>
     </g>
    </g>
    <g id="xtick_15">
     <g id="line2d_15">
      <g>
       <use xlink:href="#m9536c46d00" x="280.690204" y="264.758727" style="stroke: #000000; stroke-width: 0.6"/>
      </g>
     </g>
    </g>
    <g id="xtick_16">
     <g id="line2d_16">
      <g>
       <use xlink:href="#m9536c46d00" x="302.131846" y="264.758727" style="stroke: #000000; stroke-width: 0.6"/>
      </g>
     </g>
    </g>
    <g id="xtick_17">
     <g id="line2d_17">
      <g>
       <use xlink:href="#m9536c46d00" x="323.573489" y="264.758727" style="stroke: #000000; stroke-width: 0.6"/>
      </g>
     </g>
    </g>
    <g id="xtick_18">
     <g id="line2d_18">
      <g>
       <use xlink:href="#m9536c46d00" x="366.456774" y="264.758727" style="stroke: #000000; stroke-width: 0.6"/>
      </g>
     </g>
    </g>
    <g id="xtick_19">
     <g id="line2d_19">
      <g>
       <use xlink:href="#m9536c46d00" x="387.898416" y="264.758727" style="stroke: #000000; stroke-width: 0.6"/>
      </g>
     </g>
    </g>
    <g id="xtick_20">
     <g id="line2d_20">
      <g>
       <use xlink:href="#m9536c46d00" x="409.340058" y="264.758727" style="stroke: #000000; stroke-width: 0.6"/>
      </g>
     </g>
    </g>
    <g id="xtick_21">
     <g id="line2d_21">
      <g>
       <use xlink:href="#m9536c46d00" x="430.781701" y="264.758727" style="stroke: #000000; stroke-width: 0.6"/>
      </g>
     </g>
    </g>
   </g>
   <g id="matplotlib.axis_2">
    <g id="ytick_1">
     <g id="line2d_22">
      <defs>
       <path id="m76eb5c0b54" d="M 0 0 
L -3.5 0 
" style="stroke: #000000; stroke-width: 0.8"/>
      </defs>
      <g>
       <use xlink:href="#m76eb5c0b54" x="23.390496" y="264.758727" style="stroke: #000000; stroke-width: 0.8"/>
      </g>
     </g>
    </g>
    <g id="ytick_2">
     <g id="line2d_23">
      <g>
       <use xlink:href="#m76eb5c0b54" x="23.390496" y="230.4521" style="stroke: #000000; stroke-width: 0.8"/>
      </g>
     </g>
     <g id="text_5">
      <!-- 0.2 -->
      <g transform="translate(0.487371 234.251318) scale(0.1 -0.1)">
       <use xlink:href="#DejaVuSans-30"/>
       <use xlink:href="#DejaVuSans-2e" transform="translate(63.623047 0)"/>
       <use xlink:href="#DejaVuSans-32" transform="translate(95.410156 0)"/>
      </g>
     </g>
    </g>
    <g id="ytick_3">
     <g id="line2d_24">
      <g>
       <use xlink:href="#m76eb5c0b54" x="23.390496" y="196.145472" style="stroke: #000000; stroke-width: 0.8"/>
      </g>
     </g>
     <g id="text_6">
      <!-- 0.4 -->
      <g transform="translate(0.487371 199.94469) scale(0.1 -0.1)">
       <defs>
        <path id="DejaVuSans-34" d="M 2419 4116 
L 825 1625 
L 2419 1625 
L 2419 4116 
z
M 2253 4666 
L 3047 4666 
L 3047 1625 
L 3713 1625 
L 3713 1100 
L 3047 1100 
L 3047 0 
L 2419 0 
L 2419 1100 
L 313 1100 
L 313 1709 
L 2253 4666 
z
" transform="scale(0.015625)"/>
       </defs>
       <use xlink:href="#DejaVuSans-30"/>
       <use xlink:href="#DejaVuSans-2e" transform="translate(63.623047 0)"/>
       <use xlink:href="#DejaVuSans-34" transform="translate(95.410156 0)"/>
      </g>
     </g>
    </g>
    <g id="ytick_4">
     <g id="line2d_25">
      <g>
       <use xlink:href="#m76eb5c0b54" x="23.390496" y="161.838844" style="stroke: #000000; stroke-width: 0.8"/>
      </g>
     </g>
     <g id="text_7">
      <!-- 0.6 -->
      <g transform="translate(0.487371 165.638063) scale(0.1 -0.1)">
       <defs>
        <path id="DejaVuSans-36" d="M 2113 2584 
Q 1688 2584 1439 2293 
Q 1191 2003 1191 1497 
Q 1191 994 1439 701 
Q 1688 409 2113 409 
Q 2538 409 2786 701 
Q 3034 994 3034 1497 
Q 3034 2003 2786 2293 
Q 2538 2584 2113 2584 
z
M 3366 4563 
L 3366 3988 
Q 3128 4100 2886 4159 
Q 2644 4219 2406 4219 
Q 1781 4219 1451 3797 
Q 1122 3375 1075 2522 
Q 1259 2794 1537 2939 
Q 1816 3084 2150 3084 
Q 2853 3084 3261 2657 
Q 3669 2231 3669 1497 
Q 3669 778 3244 343 
Q 2819 -91 2113 -91 
Q 1303 -91 875 529 
Q 447 1150 447 2328 
Q 447 3434 972 4092 
Q 1497 4750 2381 4750 
Q 2619 4750 2861 4703 
Q 3103 4656 3366 4563 
z
" transform="scale(0.015625)"/>
       </defs>
       <use xlink:href="#DejaVuSans-30"/>
       <use xlink:href="#DejaVuSans-2e" transform="translate(63.623047 0)"/>
       <use xlink:href="#DejaVuSans-36" transform="translate(95.410156 0)"/>
      </g>
     </g>
    </g>
    <g id="ytick_5">
     <g id="line2d_26">
      <g>
       <use xlink:href="#m76eb5c0b54" x="23.390496" y="127.532216" style="stroke: #000000; stroke-width: 0.8"/>
      </g>
     </g>
     <g id="text_8">
      <!-- 0.8 -->
      <g transform="translate(0.487371 131.331435) scale(0.1 -0.1)">
       <defs>
        <path id="DejaVuSans-38" d="M 2034 2216 
Q 1584 2216 1326 1975 
Q 1069 1734 1069 1313 
Q 1069 891 1326 650 
Q 1584 409 2034 409 
Q 2484 409 2743 651 
Q 3003 894 3003 1313 
Q 3003 1734 2745 1975 
Q 2488 2216 2034 2216 
z
M 1403 2484 
Q 997 2584 770 2862 
Q 544 3141 544 3541 
Q 544 4100 942 4425 
Q 1341 4750 2034 4750 
Q 2731 4750 3128 4425 
Q 3525 4100 3525 3541 
Q 3525 3141 3298 2862 
Q 3072 2584 2669 2484 
Q 3125 2378 3379 2068 
Q 3634 1759 3634 1313 
Q 3634 634 3220 271 
Q 2806 -91 2034 -91 
Q 1263 -91 848 271 
Q 434 634 434 1313 
Q 434 1759 690 2068 
Q 947 2378 1403 2484 
z
M 1172 3481 
Q 1172 3119 1398 2916 
Q 1625 2713 2034 2713 
Q 2441 2713 2670 2916 
Q 2900 3119 2900 3481 
Q 2900 3844 2670 4047 
Q 2441 4250 2034 4250 
Q 1625 4250 1398 4047 
Q 1172 3844 1172 3481 
z
" transform="scale(0.015625)"/>
       </defs>
       <use xlink:href="#DejaVuSans-30"/>
       <use xlink:href="#DejaVuSans-2e" transform="translate(63.623047 0)"/>
       <use xlink:href="#DejaVuSans-38" transform="translate(95.410156 0)"/>
      </g>
     </g>
    </g>
    <g id="ytick_6">
     <g id="line2d_27">
      <g>
       <use xlink:href="#m76eb5c0b54" x="23.390496" y="93.225588" style="stroke: #000000; stroke-width: 0.8"/>
      </g>
     </g>
     <g id="text_9">
      <!-- 1.0 -->
      <g transform="translate(0.487371 97.024807) scale(0.1 -0.1)">
       <use xlink:href="#DejaVuSans-31"/>
       <use xlink:href="#DejaVuSans-2e" transform="translate(63.623047 0)"/>
       <use xlink:href="#DejaVuSans-30" transform="translate(95.410156 0)"/>
      </g>
     </g>
    </g>
    <g id="ytick_7">
     <g id="line2d_28">
      <defs>
       <path id="m28ae1bee6b" d="M 0 0 
L -2 0 
" style="stroke: #000000; stroke-width: 0.6"/>
      </defs>
      <g>
       <use xlink:href="#m28ae1bee6b" x="23.390496" y="256.18207" style="stroke: #000000; stroke-width: 0.6"/>
      </g>
     </g>
    </g>
    <g id="ytick_8">
     <g id="line2d_29">
      <g>
       <use xlink:href="#m28ae1bee6b" x="23.390496" y="247.605413" style="stroke: #000000; stroke-width: 0.6"/>
      </g>
     </g>
    </g>
    <g id="ytick_9">
     <g id="line2d_30">
      <g>
       <use xlink:href="#m28ae1bee6b" x="23.390496" y="239.028756" style="stroke: #000000; stroke-width: 0.6"/>
      </g>
     </g>
    </g>
    <g id="ytick_10">
     <g id="line2d_31">
      <g>
       <use xlink:href="#m28ae1bee6b" x="23.390496" y="221.875443" style="stroke: #000000; stroke-width: 0.6"/>
      </g>
     </g>
    </g>
    <g id="ytick_11">
     <g id="line2d_32">
      <g>
       <use xlink:href="#m28ae1bee6b" x="23.390496" y="213.298786" style="stroke: #000000; stroke-width: 0.6"/>
      </g>
     </g>
    </g>
    <g id="ytick_12">
     <g id="line2d_33">
      <g>
       <use xlink:href="#m28ae1bee6b" x="23.390496" y="204.722129" style="stroke: #000000; stroke-width: 0.6"/>
      </g>
     </g>
    </g>
    <g id="ytick_13">
     <g id="line2d_34">
      <g>
       <use xlink:href="#m28ae1bee6b" x="23.390496" y="187.568815" style="stroke: #000000; stroke-width: 0.6"/>
      </g>
     </g>
    </g>
    <g id="ytick_14">
     <g id="line2d_35">
      <g>
       <use xlink:href="#m28ae1bee6b" x="23.390496" y="178.992158" style="stroke: #000000; stroke-width: 0.6"/>
      </g>
     </g>
    </g>
    <g id="ytick_15">
     <g id="line2d_36">
      <g>
       <use xlink:href="#m28ae1bee6b" x="23.390496" y="170.415501" style="stroke: #000000; stroke-width: 0.6"/>
      </g>
     </g>
    </g>
    <g id="ytick_16">
     <g id="line2d_37">
      <g>
       <use xlink:href="#m28ae1bee6b" x="23.390496" y="153.262187" style="stroke: #000000; stroke-width: 0.6"/>
      </g>
     </g>
    </g>
    <g id="ytick_17">
     <g id="line2d_38">
      <g>
       <use xlink:href="#m28ae1bee6b" x="23.390496" y="144.68553" style="stroke: #000000; stroke-width: 0.6"/>
      </g>
     </g>
    </g>
    <g id="ytick_18">
     <g id="line2d_39">
      <g>
       <use xlink:href="#m28ae1bee6b" x="23.390496" y="136.108873" style="stroke: #000000; stroke-width: 0.6"/>
      </g>
     </g>
    </g>
    <g id="ytick_19">
     <g id="line2d_40">
      <g>
       <use xlink:href="#m28ae1bee6b" x="23.390496" y="118.955559" style="stroke: #000000; stroke-width: 0.6"/>
      </g>
     </g>
    </g>
    <g id="ytick_20">
     <g id="line2d_41">
      <g>
       <use xlink:href="#m28ae1bee6b" x="23.390496" y="110.378902" style="stroke: #000000; stroke-width: 0.6"/>
      </g>
     </g>
    </g>
    <g id="ytick_21">
     <g id="line2d_42">
      <g>
       <use xlink:href="#m28ae1bee6b" x="23.390496" y="101.802245" style="stroke: #000000; stroke-width: 0.6"/>
      </g>
     </g>
    </g>
    <g id="ytick_22">
     <g id="line2d_43">
      <g>
       <use xlink:href="#m28ae1bee6b" x="23.390496" y="84.648931" style="stroke: #000000; stroke-width: 0.6"/>
      </g>
     </g>
    </g>
   </g>
   <g id="line2d_44">
    <path d="M 23.390496 264.758727 
L 40.039879 231.660131 
L 49.162814 213.953425 
L 57.118193 198.951921 
L 65.389302 183.92281 
L 70.396269 175.158547 
L 77.791324 162.740156 
L 83.130065 154.203451 
L 88.378652 146.190714 
L 94.063054 137.964491 
L 99.871111 130.071489 
L 103.039747 125.992609 
L 106.955111 121.180862 
L 111.170339 116.289268 
L 115.124364 111.978577 
L 119.296842 107.726525 
L 123.720522 103.556155 
L 126.474914 101.136845 
L 131.585607 97.011297 
L 134.375226 94.959525 
L 138.161717 92.401148 
L 141.078956 90.608017 
L 145.147425 88.365235 
L 148.714519 86.644966 
L 153.477201 84.703791 
L 156.316007 83.738394 
L 160.233274 82.638437 
L 164.542867 81.735015 
L 167.696557 81.274127 
L 170.835069 80.980488 
L 174.617091 80.841273 
L 177.698933 80.897745 
L 180.927573 81.116876 
L 185.498696 81.699633 
L 188.888966 82.332035 
L 193.068587 83.338149 
L 196.79372 84.438199 
L 199.794442 85.458593 
L 203.852054 87.021513 
L 209.574173 89.565726 
L 214.367708 91.984819 
L 219.673911 94.946532 
L 226.240722 98.990492 
L 231.554278 102.540193 
L 238.484946 107.500372 
L 244.968266 112.435187 
L 254.447512 120.071979 
L 263.891504 128.062097 
L 275.956749 138.628388 
L 310.833984 169.461117 
L 320.663563 177.784313 
L 328.555452 184.247083 
L 338.115436 191.766892 
L 343.638692 195.941048 
L 350.724073 201.099673 
L 359.131731 206.920991 
L 366.632572 211.829334 
L 372.208096 215.299789 
L 379.822527 219.791612 
L 386.502994 223.496614 
L 390.983533 225.858662 
L 400.279159 230.448567 
L 405.923508 233.034797 
L 414.555062 236.704893 
L 422.26456 239.701551 
L 429.959178 242.439188 
L 438.64622 245.241115 
L 447.289618 247.742741 
L 452.223343 249.050032 
L 452.223343 249.050032 
" clip-path="url(#p00856d6a0d)" style="fill: none; stroke: #0000cc; stroke-linecap: square"/>
   </g>
   <g id="line2d_45">
    <path d="M 23.390496 264.758727 
L 37.353907 237.067777 
L 42.366705 227.396205 
L 49.070366 214.851458 
L 55.191534 203.894121 
L 60.842743 194.288223 
L 65.942175 186.101545 
L 71.517487 177.730752 
L 74.174186 173.97044 
L 78.072365 168.734325 
L 82.441177 163.279827 
L 85.842164 159.34727 
L 89.940825 154.983424 
L 93.785471 151.271006 
L 97.62709 147.935822 
L 100.118774 145.974512 
L 104.427312 142.959801 
L 108.439546 140.581829 
L 111.641739 138.979843 
L 115.604404 137.357797 
L 119.627675 136.113208 
L 123.571915 135.278865 
L 127.487477 134.819155 
L 131.270118 134.713682 
L 134.537578 134.881933 
L 138.018411 135.316418 
L 142.143707 136.158483 
L 144.764231 136.869889 
L 148.827696 138.23078 
L 151.965234 139.485387 
L 156.433425 141.558977 
L 161.410734 144.23538 
L 165.026681 146.400699 
L 170.507332 149.999699 
L 173.910642 152.406534 
L 180.574671 157.445086 
L 187.720395 163.237412 
L 194.693663 169.174107 
L 205.113209 178.354133 
L 224.784507 195.768147 
L 233.563479 203.23288 
L 243.09437 210.942627 
L 250.36151 216.484239 
L 256.351265 220.806339 
L 263.160422 225.432694 
L 267.916457 228.476503 
L 274.557761 232.463699 
L 281.36309 236.229834 
L 287.274075 239.240814 
L 293.695241 242.243219 
L 299.329934 244.654327 
L 306.166466 247.310346 
L 313.094473 249.715701 
L 318.830997 251.502098 
L 324.889226 253.199615 
L 332.214289 255.011384 
L 337.066949 256.0774 
L 344.545172 257.528928 
L 353.898039 259.051266 
L 361.855045 260.122041 
L 369.447193 260.977301 
L 379.475776 261.894362 
L 389.082678 262.583093 
L 402.982614 263.319702 
L 414.603749 263.754275 
L 433.137924 264.207203 
L 452.223343 264.471013 
L 452.223343 264.471013 
" clip-path="url(#p00856d6a0d)" style="fill: none; stroke: #3ccc00; stroke-linecap: square"/>
   </g>
   <g id="line2d_46">
    <path d="M 23.390496 264.758727 
L 35.806143 240.175952 
L 41.739559 228.858071 
L 46.561664 220.011879 
L 50.600046 212.906183 
L 55.593511 204.566878 
L 60.375192 197.105643 
L 63.751289 192.177365 
L 67.31843 187.297312 
L 71.116524 182.490011 
L 74.677996 178.361947 
L 77.186025 175.682186 
L 80.650207 172.296631 
L 83.394366 169.878759 
L 86.650257 167.316026 
L 89.323744 165.461309 
L 91.36369 164.197645 
L 95.214552 162.168498 
L 97.644215 161.126199 
L 100.382928 160.169437 
L 102.9091 159.489048 
L 105.117014 159.050616 
L 108.142435 158.681694 
L 109.927759 158.587088 
L 113.787882 158.685501 
L 116.620227 159.012425 
L 119.412119 159.53682 
L 121.842368 160.150124 
L 125.78288 161.439176 
L 128.970151 162.73293 
L 132.934392 164.631976 
L 136.69937 166.7086 
L 140.783993 169.23237 
L 143.634738 171.143791 
L 149.634446 175.514195 
L 156.135863 180.682593 
L 165.083693 188.302743 
L 194.185479 213.846652 
L 202.212178 220.373531 
L 208.687423 225.324899 
L 212.699164 228.234393 
L 220.271751 233.372505 
L 225.835385 236.841011 
L 230.218464 239.387286 
L 235.851485 242.418815 
L 240.179677 244.566284 
L 246.065153 247.239146 
L 250.837453 249.204196 
L 256.961544 251.473012 
L 263.446996 253.584183 
L 268.867341 255.134971 
L 272.52409 256.078921 
L 278.772623 257.515552 
L 285.820427 258.8929 
L 294.467376 260.274649 
L 302.800676 261.332471 
L 312.37793 262.274529 
L 323.323217 263.065721 
L 333.348416 263.584741 
L 348.55504 264.102944 
L 363.769621 264.404194 
L 387.518328 264.631436 
L 425.80321 264.738 
L 452.223343 264.753458 
L 452.223343 264.753458 
" clip-path="url(#p00856d6a0d)" style="fill: none; stroke: #cc0077; stroke-linecap: square"/>
   </g>
   <g id="line2d_47">
    <path d="M 23.390496 264.758727 
L 33.630366 244.464972 
L 39.111013 233.986519 
L 44.744558 223.711829 
L 48.890278 216.564315 
L 52.854186 210.118189 
L 56.862045 204.032999 
L 60.599324 198.786413 
L 63.681165 194.79138 
L 67.484391 190.29536 
L 70.548263 187.03508 
L 74.340434 183.459627 
L 78.158525 180.383042 
L 81.287702 178.256666 
L 84.383579 176.503256 
L 87.563233 175.062643 
L 90.850775 173.951733 
L 93.902497 173.258031 
L 96.079877 172.957057 
L 97.952804 172.824346 
L 99.920279 172.807713 
L 103.248007 173.056991 
L 106.529541 173.62985 
L 110.119172 174.607143 
L 112.871986 175.589507 
L 117.103108 177.463313 
L 120.146307 179.061147 
L 124.560951 181.710764 
L 128.628196 184.456978 
L 132.88449 187.595704 
L 138.176188 191.802599 
L 143.457811 196.252639 
L 152.612608 204.307272 
L 164.719841 215.038844 
L 172.239985 221.448594 
L 178.763444 226.71977 
L 184.975439 231.427128 
L 190.070758 235.032598 
L 194.664952 238.072972 
L 200.15505 241.435844 
L 204.909574 244.107661 
L 209.921751 246.684191 
L 215.225165 249.148093 
L 221.154086 251.595615 
L 225.866694 253.321633 
L 231.329792 255.094718 
L 235.768967 256.367448 
L 243.444017 258.244883 
L 249.378195 259.445245 
L 256.329096 260.609176 
L 263.480412 261.572236 
L 271.016133 262.371681 
L 278.895822 263.014259 
L 289.083169 263.615811 
L 298.609649 264.002584 
L 311.525944 264.338412 
L 331.820583 264.601814 
L 362.706078 264.728447 
L 447.410625 264.758591 
L 452.223343 264.758631 
L 452.223343 264.758631 
" clip-path="url(#p00856d6a0d)" style="fill: none; stroke: #00b3cc; stroke-linecap: square"/>
   </g>
   <g id="line2d_48">
    <path d="M 23.390496 264.758727 
L 32.727744 246.260462 
L 37.702843 236.764683 
L 42.440951 228.132359 
L 47.396975 219.662727 
L 51.255949 213.540909 
L 55.26332 207.680768 
L 58.802394 202.964216 
L 62.180585 198.88961 
L 65.150946 195.667125 
L 67.779281 193.105029 
L 70.576965 190.681963 
L 73.402368 188.556702 
L 75.690461 187.073616 
L 78.066074 185.758828 
L 80.975816 184.458546 
L 84.331418 183.376749 
L 86.765111 182.866129 
L 89.219756 182.578259 
L 91.682386 182.512041 
L 94.034105 182.649941 
L 97.00889 183.094197 
L 99.823026 183.778141 
L 102.937429 184.815528 
L 106.523885 186.347882 
L 109.44835 187.841971 
L 112.804924 189.800561 
L 116.30527 192.089287 
L 119.956396 194.707661 
L 124.851035 198.520689 
L 130.217382 203.000131 
L 139.926316 211.542036 
L 152.341403 222.485889 
L 159.61077 228.54838 
L 165.310196 233.007587 
L 169.384339 236.008071 
L 174.935865 239.822089 
L 179.393703 242.644421 
L 182.804639 244.656184 
L 187.194304 247.056243 
L 190.425429 248.688309 
L 196.802164 251.583442 
L 202.497101 253.819884 
L 208.593851 255.874885 
L 214.313213 257.51097 
L 219.419885 258.756193 
L 225.125626 259.932592 
L 233.162428 261.256382 
L 238.397572 261.940147 
L 247.607563 262.865598 
L 256.575083 263.498421 
L 267.515616 264.011003 
L 279.161163 264.342803 
L 297.438047 264.603267 
L 324.183236 264.726672 
L 399.687745 264.758573 
L 452.223343 264.758726 
L 452.223343 264.758726 
" clip-path="url(#p00856d6a0d)" style="fill: none; stroke: #ccaa00; stroke-linecap: square"/>
   </g>
   <g id="patch_3">
    <path d="M 23.390496 268.437076 
L 23.390496 77.162924 
" style="fill: none; stroke: #000000; stroke-width: 0.8; stroke-linejoin: miter; stroke-linecap: square"/>
   </g>
   <g id="patch_4">
    <path d="M 14.813839 264.758727 
L 460.8 264.758727 
" style="fill: none; stroke: #000000; stroke-width: 0.8; stroke-linejoin: miter; stroke-linecap: square"/>
   </g>
  </g>
 </g>
 <defs>
  <clipPath id="p00856d6a0d">
   <rect x="14.813839" y="77.162924" width="445.986161" height="191.274153"/>
  </clipPath>
 </defs>
</svg>
