<?xml version="1.0" encoding="utf-8" standalone="no"?>
<!DOCTYPE svg PUBLIC "-//W3C//DTD SVG 1.1//EN"
  "http://www.w3.org/Graphics/SVG/1.1/DTD/svg11.dtd">
<svg xmlns:xlink="http://www.w3.org/1999/xlink" width="460.8pt" height="345.6pt" viewBox="0 0 460.8 345.6" xmlns="http://www.w3.org/2000/svg" version="1.1">
 <metadata>
  <rdf:RDF xmlns:dc="http://purl.org/dc/elements/1.1/" xmlns:cc="http://creativecommons.org/ns#" xmlns:rdf="http://www.w3.org/1999/02/22-rdf-syntax-ns#">
   <cc:Work>
    <dc:type rdf:resource="http://purl.org/dc/dcmitype/StillImage"/>
    <dc:date>2025-08-01T22:09:26.565918</dc:date>
    <dc:format>image/svg+xml</dc:format>
    <dc:creator>
     <cc:Agent>
      <dc:title>Matplotlib v3.10.3, https://matplotlib.org/</dc:title>
     </cc:Agent>
    </dc:creator>
   </cc:Work>
  </rdf:RDF>
 </metadata>
 <defs>
  <style type="text/css">*{stroke-linejoin: round; stroke-linecap: butt}</style>
 </defs>
 <g id="figure_1">
  <g id="patch_1">
   <path d="M 0 345.6 
L 460.8 345.6 
L 460.8 0 
L 0 0 
z
" style="fill: #ffffff"/>
  </g>
  <g id="axes_1">
   <g id="patch_2">
    <path d="M 80.726535 345.6 
L 380.073465 345.6 
L 380.073465 0 
L 80.726535 0 
z
" style="fill: #ffffff"/>
   </g>
   <g id="matplotlib.axis_1">
    <g id="xtick_1">
     <g id="line2d_1">
      <defs>
       <path id="me4ff97d900" d="M 0 0 
L 0 3.5 
" style="stroke: #000000; stroke-width: 0.8"/>
      </defs>
      <g>
       <use xlink:href="#me4ff97d900" x="118.463841" y="172.788093" style="stroke: #000000; stroke-width: 0.8"/>
      </g>
     </g>
    </g>
    <g id="xtick_2">
     <g id="line2d_2">
      <g>
       <use xlink:href="#me4ff97d900" x="182.427079" y="172.788093" style="stroke: #000000; stroke-width: 0.8"/>
      </g>
     </g>
     <g id="text_1">
      <!-- 1 -->
      <g transform="translate(179.245829 187.38653) scale(0.1 -0.1)">
       <defs>
        <path id="DejaVuSans-31" d="M 794 531 
L 1825 531 
L 1825 4091 
L 703 3866 
L 703 4441 
L 1819 4666 
L 2450 4666 
L 2450 531 
L 3481 531 
L 3481 0 
L 794 0 
L 794 531 
z
" transform="scale(0.015625)"/>
       </defs>
       <use xlink:href="#DejaVuSans-31"/>
      </g>
     </g>
    </g>
    <g id="xtick_3">
     <g id="line2d_3">
      <g>
       <use xlink:href="#me4ff97d900" x="246.390317" y="172.788093" style="stroke: #000000; stroke-width: 0.8"/>
      </g>
     </g>
     <g id="text_2">
      <!-- 2 -->
      <g transform="translate(243.209067 187.38653) scale(0.1 -0.1)">
       <defs>
        <path id="DejaVuSans-32" d="M 1228 531 
L 3431 531 
L 3431 0 
L 469 0 
L 469 531 
Q 828 903 1448 1529 
Q 2069 2156 2228 2338 
Q 2531 2678 2651 2914 
Q 2772 3150 2772 3378 
Q 2772 3750 2511 3984 
Q 2250 4219 1831 4219 
Q 1534 4219 1204 4116 
Q 875 4013 500 3803 
L 500 4441 
Q 881 4594 1212 4672 
Q 1544 4750 1819 4750 
Q 2544 4750 2975 4387 
Q 3406 4025 3406 3419 
Q 3406 3131 3298 2873 
Q 3191 2616 2906 2266 
Q 2828 2175 2409 1742 
Q 1991 1309 1228 531 
z
" transform="scale(0.015625)"/>
       </defs>
       <use xlink:href="#DejaVuSans-32"/>
      </g>
     </g>
    </g>
    <g id="xtick_4">
     <g id="line2d_4">
      <g>
       <use xlink:href="#me4ff97d900" x="310.353555" y="172.788093" style="stroke: #000000; stroke-width: 0.8"/>
      </g>
     </g>
     <g id="text_3">
      <!-- 3 -->
      <g transform="translate(307.172305 187.38653) scale(0.1 -0.1)">
       <defs>
        <path id="DejaVuSans-33" d="M 2597 2516 
Q 3050 2419 3304 2112 
Q 3559 1806 3559 1356 
Q 3559 666 3084 287 
Q 2609 -91 1734 -91 
Q 1441 -91 1130 -33 
Q 819 25 488 141 
L 488 750 
Q 750 597 1062 519 
Q 1375 441 1716 441 
Q 2309 441 2620 675 
Q 2931 909 2931 1356 
Q 2931 1769 2642 2001 
Q 2353 2234 1838 2234 
L 1294 2234 
L 1294 2753 
L 1863 2753 
Q 2328 2753 2575 2939 
Q 2822 3125 2822 3475 
Q 2822 3834 2567 4026 
Q 2313 4219 1838 4219 
Q 1578 4219 1281 4162 
Q 984 4106 628 3988 
L 628 4550 
Q 988 4650 1302 4700 
Q 1616 4750 1894 4750 
Q 2613 4750 3031 4423 
Q 3450 4097 3450 3541 
Q 3450 3153 3228 2886 
Q 3006 2619 2597 2516 
z
" transform="scale(0.015625)"/>
       </defs>
       <use xlink:href="#DejaVuSans-33"/>
      </g>
     </g>
    </g>
    <g id="xtick_5">
     <g id="line2d_5">
      <g>
       <use xlink:href="#me4ff97d900" x="374.316793" y="172.788093" style="stroke: #000000; stroke-width: 0.8"/>
      </g>
     </g>
     <g id="text_4">
      <!-- 4 -->
      <g transform="translate(371.135543 187.38653) scale(0.1 -0.1)">
       <defs>
        <path id="DejaVuSans-34" d="M 2419 4116 
L 825 1625 
L 2419 1625 
L 2419 4116 
z
M 2253 4666 
L 3047 4666 
L 3047 1625 
L 3713 1625 
L 3713 1100 
L 3047 1100 
L 3047 0 
L 2419 0 
L 2419 1100 
L 313 1100 
L 313 1709 
L 2253 4666 
z
" transform="scale(0.015625)"/>
       </defs>
       <use xlink:href="#DejaVuSans-34"/>
      </g>
     </g>
    </g>
    <g id="xtick_6">
     <g id="line2d_6">
      <defs>
       <path id="m255095ae7f" d="M 0 0 
L 0 2 
" style="stroke: #000000; stroke-width: 0.6"/>
      </defs>
      <g>
       <use xlink:href="#m255095ae7f" x="92.878546" y="172.788093" style="stroke: #000000; stroke-width: 0.6"/>
      </g>
     </g>
    </g>
    <g id="xtick_7">
     <g id="line2d_7">
      <g>
       <use xlink:href="#m255095ae7f" x="105.671193" y="172.788093" style="stroke: #000000; stroke-width: 0.6"/>
      </g>
     </g>
    </g>
    <g id="xtick_8">
     <g id="line2d_8">
      <g>
       <use xlink:href="#m255095ae7f" x="131.256488" y="172.788093" style="stroke: #000000; stroke-width: 0.6"/>
      </g>
     </g>
    </g>
    <g id="xtick_9">
     <g id="line2d_9">
      <g>
       <use xlink:href="#m255095ae7f" x="144.049136" y="172.788093" style="stroke: #000000; stroke-width: 0.6"/>
      </g>
     </g>
    </g>
    <g id="xtick_10">
     <g id="line2d_10">
      <g>
       <use xlink:href="#m255095ae7f" x="156.841784" y="172.788093" style="stroke: #000000; stroke-width: 0.6"/>
      </g>
     </g>
    </g>
    <g id="xtick_11">
     <g id="line2d_11">
      <g>
       <use xlink:href="#m255095ae7f" x="169.634431" y="172.788093" style="stroke: #000000; stroke-width: 0.6"/>
      </g>
     </g>
    </g>
    <g id="xtick_12">
     <g id="line2d_12">
      <g>
       <use xlink:href="#m255095ae7f" x="195.219727" y="172.788093" style="stroke: #000000; stroke-width: 0.6"/>
      </g>
     </g>
    </g>
    <g id="xtick_13">
     <g id="line2d_13">
      <g>
       <use xlink:href="#m255095ae7f" x="208.012374" y="172.788093" style="stroke: #000000; stroke-width: 0.6"/>
      </g>
     </g>
    </g>
    <g id="xtick_14">
     <g id="line2d_14">
      <g>
       <use xlink:href="#m255095ae7f" x="220.805022" y="172.788093" style="stroke: #000000; stroke-width: 0.6"/>
      </g>
     </g>
    </g>
    <g id="xtick_15">
     <g id="line2d_15">
      <g>
       <use xlink:href="#m255095ae7f" x="233.59767" y="172.788093" style="stroke: #000000; stroke-width: 0.6"/>
      </g>
     </g>
    </g>
    <g id="xtick_16">
     <g id="line2d_16">
      <g>
       <use xlink:href="#m255095ae7f" x="259.182965" y="172.788093" style="stroke: #000000; stroke-width: 0.6"/>
      </g>
     </g>
    </g>
    <g id="xtick_17">
     <g id="line2d_17">
      <g>
       <use xlink:href="#m255095ae7f" x="271.975612" y="172.788093" style="stroke: #000000; stroke-width: 0.6"/>
      </g>
     </g>
    </g>
    <g id="xtick_18">
     <g id="line2d_18">
      <g>
       <use xlink:href="#m255095ae7f" x="284.76826" y="172.788093" style="stroke: #000000; stroke-width: 0.6"/>
      </g>
     </g>
    </g>
    <g id="xtick_19">
     <g id="line2d_19">
      <g>
       <use xlink:href="#m255095ae7f" x="297.560908" y="172.788093" style="stroke: #000000; stroke-width: 0.6"/>
      </g>
     </g>
    </g>
    <g id="xtick_20">
     <g id="line2d_20">
      <g>
       <use xlink:href="#m255095ae7f" x="323.146203" y="172.788093" style="stroke: #000000; stroke-width: 0.6"/>
      </g>
     </g>
    </g>
    <g id="xtick_21">
     <g id="line2d_21">
      <g>
       <use xlink:href="#m255095ae7f" x="335.938851" y="172.788093" style="stroke: #000000; stroke-width: 0.6"/>
      </g>
     </g>
    </g>
    <g id="xtick_22">
     <g id="line2d_22">
      <g>
       <use xlink:href="#m255095ae7f" x="348.731498" y="172.788093" style="stroke: #000000; stroke-width: 0.6"/>
      </g>
     </g>
    </g>
    <g id="xtick_23">
     <g id="line2d_23">
      <g>
       <use xlink:href="#m255095ae7f" x="361.524146" y="172.788093" style="stroke: #000000; stroke-width: 0.6"/>
      </g>
     </g>
    </g>
   </g>
   <g id="matplotlib.axis_2">
    <g id="ytick_1">
     <g id="line2d_24">
      <defs>
       <path id="m885c8b6649" d="M 0 0 
L -3.5 0 
" style="stroke: #000000; stroke-width: 0.8"/>
      </defs>
      <g>
       <use xlink:href="#m885c8b6649" x="118.463841" y="300.714569" style="stroke: #000000; stroke-width: 0.8"/>
      </g>
     </g>
     <g id="text_5">
      <!-- −2 -->
      <g transform="translate(96.721653 304.513788) scale(0.1 -0.1)">
       <defs>
        <path id="DejaVuSans-2212" d="M 678 2272 
L 4684 2272 
L 4684 1741 
L 678 1741 
L 678 2272 
z
" transform="scale(0.015625)"/>
       </defs>
       <use xlink:href="#DejaVuSans-2212"/>
       <use xlink:href="#DejaVuSans-32" transform="translate(83.789062 0)"/>
      </g>
     </g>
    </g>
    <g id="ytick_2">
     <g id="line2d_25">
      <g>
       <use xlink:href="#m885c8b6649" x="118.463841" y="236.751331" style="stroke: #000000; stroke-width: 0.8"/>
      </g>
     </g>
     <g id="text_6">
      <!-- −1 -->
      <g transform="translate(96.721653 240.55055) scale(0.1 -0.1)">
       <use xlink:href="#DejaVuSans-2212"/>
       <use xlink:href="#DejaVuSans-31" transform="translate(83.789062 0)"/>
      </g>
     </g>
    </g>
    <g id="ytick_3">
     <g id="line2d_26">
      <g>
       <use xlink:href="#m885c8b6649" x="118.463841" y="172.788093" style="stroke: #000000; stroke-width: 0.8"/>
      </g>
     </g>
    </g>
    <g id="ytick_4">
     <g id="line2d_27">
      <g>
       <use xlink:href="#m885c8b6649" x="118.463841" y="108.824855" style="stroke: #000000; stroke-width: 0.8"/>
      </g>
     </g>
     <g id="text_7">
      <!-- 1 -->
      <g transform="translate(105.101341 112.624074) scale(0.1 -0.1)">
       <use xlink:href="#DejaVuSans-31"/>
      </g>
     </g>
    </g>
    <g id="ytick_5">
     <g id="line2d_28">
      <g>
       <use xlink:href="#m885c8b6649" x="118.463841" y="44.861617" style="stroke: #000000; stroke-width: 0.8"/>
      </g>
     </g>
     <g id="text_8">
      <!-- 2 -->
      <g transform="translate(105.101341 48.660835) scale(0.1 -0.1)">
       <use xlink:href="#DejaVuSans-32"/>
      </g>
     </g>
    </g>
    <g id="ytick_6">
     <g id="line2d_29">
      <defs>
       <path id="mbc5190d021" d="M 0 0 
L -2 0 
" style="stroke: #000000; stroke-width: 0.6"/>
      </defs>
      <g>
       <use xlink:href="#mbc5190d021" x="118.463841" y="339.092512" style="stroke: #000000; stroke-width: 0.6"/>
      </g>
     </g>
    </g>
    <g id="ytick_7">
     <g id="line2d_30">
      <g>
       <use xlink:href="#mbc5190d021" x="118.463841" y="326.299865" style="stroke: #000000; stroke-width: 0.6"/>
      </g>
     </g>
    </g>
    <g id="ytick_8">
     <g id="line2d_31">
      <g>
       <use xlink:href="#mbc5190d021" x="118.463841" y="313.507217" style="stroke: #000000; stroke-width: 0.6"/>
      </g>
     </g>
    </g>
    <g id="ytick_9">
     <g id="line2d_32">
      <g>
       <use xlink:href="#mbc5190d021" x="118.463841" y="287.921922" style="stroke: #000000; stroke-width: 0.6"/>
      </g>
     </g>
    </g>
    <g id="ytick_10">
     <g id="line2d_33">
      <g>
       <use xlink:href="#mbc5190d021" x="118.463841" y="275.129274" style="stroke: #000000; stroke-width: 0.6"/>
      </g>
     </g>
    </g>
    <g id="ytick_11">
     <g id="line2d_34">
      <g>
       <use xlink:href="#mbc5190d021" x="118.463841" y="262.336626" style="stroke: #000000; stroke-width: 0.6"/>
      </g>
     </g>
    </g>
    <g id="ytick_12">
     <g id="line2d_35">
      <g>
       <use xlink:href="#mbc5190d021" x="118.463841" y="249.543979" style="stroke: #000000; stroke-width: 0.6"/>
      </g>
     </g>
    </g>
    <g id="ytick_13">
     <g id="line2d_36">
      <g>
       <use xlink:href="#mbc5190d021" x="118.463841" y="223.958684" style="stroke: #000000; stroke-width: 0.6"/>
      </g>
     </g>
    </g>
    <g id="ytick_14">
     <g id="line2d_37">
      <g>
       <use xlink:href="#mbc5190d021" x="118.463841" y="211.166036" style="stroke: #000000; stroke-width: 0.6"/>
      </g>
     </g>
    </g>
    <g id="ytick_15">
     <g id="line2d_38">
      <g>
       <use xlink:href="#mbc5190d021" x="118.463841" y="198.373388" style="stroke: #000000; stroke-width: 0.6"/>
      </g>
     </g>
    </g>
    <g id="ytick_16">
     <g id="line2d_39">
      <g>
       <use xlink:href="#mbc5190d021" x="118.463841" y="185.580741" style="stroke: #000000; stroke-width: 0.6"/>
      </g>
     </g>
    </g>
    <g id="ytick_17">
     <g id="line2d_40">
      <g>
       <use xlink:href="#mbc5190d021" x="118.463841" y="159.995445" style="stroke: #000000; stroke-width: 0.6"/>
      </g>
     </g>
    </g>
    <g id="ytick_18">
     <g id="line2d_41">
      <g>
       <use xlink:href="#mbc5190d021" x="118.463841" y="147.202798" style="stroke: #000000; stroke-width: 0.6"/>
      </g>
     </g>
    </g>
    <g id="ytick_19">
     <g id="line2d_42">
      <g>
       <use xlink:href="#mbc5190d021" x="118.463841" y="134.41015" style="stroke: #000000; stroke-width: 0.6"/>
      </g>
     </g>
    </g>
    <g id="ytick_20">
     <g id="line2d_43">
      <g>
       <use xlink:href="#mbc5190d021" x="118.463841" y="121.617502" style="stroke: #000000; stroke-width: 0.6"/>
      </g>
     </g>
    </g>
    <g id="ytick_21">
     <g id="line2d_44">
      <g>
       <use xlink:href="#mbc5190d021" x="118.463841" y="96.032207" style="stroke: #000000; stroke-width: 0.6"/>
      </g>
     </g>
    </g>
    <g id="ytick_22">
     <g id="line2d_45">
      <g>
       <use xlink:href="#mbc5190d021" x="118.463841" y="83.23956" style="stroke: #000000; stroke-width: 0.6"/>
      </g>
     </g>
    </g>
    <g id="ytick_23">
     <g id="line2d_46">
      <g>
       <use xlink:href="#mbc5190d021" x="118.463841" y="70.446912" style="stroke: #000000; stroke-width: 0.6"/>
      </g>
     </g>
    </g>
    <g id="ytick_24">
     <g id="line2d_47">
      <g>
       <use xlink:href="#mbc5190d021" x="118.463841" y="57.654264" style="stroke: #000000; stroke-width: 0.6"/>
      </g>
     </g>
    </g>
    <g id="ytick_25">
     <g id="line2d_48">
      <g>
       <use xlink:href="#mbc5190d021" x="118.463841" y="32.068969" style="stroke: #000000; stroke-width: 0.6"/>
      </g>
     </g>
    </g>
    <g id="ytick_26">
     <g id="line2d_49">
      <g>
       <use xlink:href="#mbc5190d021" x="118.463841" y="19.276321" style="stroke: #000000; stroke-width: 0.6"/>
      </g>
     </g>
    </g>
    <g id="ytick_27">
     <g id="line2d_50">
      <g>
       <use xlink:href="#mbc5190d021" x="118.463841" y="6.483674" style="stroke: #000000; stroke-width: 0.6"/>
      </g>
     </g>
    </g>
   </g>
   <g id="line2d_51">
    <path d="M 374.316793 172.788093 
L 374.255092 168.20065 
L 374.070048 163.616894 
L 373.724043 158.580882 
L 372.919463 151.001478 
L 371.828292 143.762285 
L 370.490635 136.870689 
L 368.871534 130.046763 
L 367.717099 125.817744 
L 366.226028 120.902236 
L 364.588621 116.039179 
L 362.884683 111.434309 
L 360.729831 106.129184 
L 358.400215 100.907992 
L 354.403731 92.904802 
L 351.652118 87.945507 
L 348.008245 81.926612 
L 343.836223 75.666358 
L 340.365884 70.886941 
L 337.111723 66.7082 
L 333.734492 62.64503 
L 330.122868 58.575117 
L 326.389825 54.636965 
L 322.360539 50.662779 
L 315.980381 44.89406 
L 312.392779 41.905384 
L 307.559481 38.142819 
L 301.791547 34.018173 
L 296.003894 30.246949 
L 290.089857 26.744614 
L 282.267827 22.617089 
L 277.54592 20.38638 
L 272.774226 18.321441 
L 267.966717 16.426211 
L 260.716981 13.906169 
L 255.768863 12.411636 
L 250.799198 11.089326 
L 244.160738 9.595964 
L 238.724633 8.601123 
L 231.04969 7.540423 
L 221.929316 6.797678 
L 217.823972 6.646154 
L 210.997818 6.646169 
L 202.895048 7.058428 
L 193.192819 8.153176 
L 186.258806 9.349711 
L 182.172614 10.222166 
L 172.37776 12.841815 
L 169.263863 13.837731 
L 160.901769 16.927424 
L 155.870176 19.095957 
L 147.190179 23.436594 
L 142.188849 26.316135 
L 134.648205 31.25064 
L 127.982226 36.293796 
L 120.937153 42.457825 
L 116.39683 46.98013 
L 113.166959 50.512785 
L 109.943556 54.346562 
L 106.117152 59.37681 
L 102.724993 64.377592 
L 99.63279 69.511688 
L 97.827028 72.83711 
L 95.329724 77.963373 
L 93.304366 82.73122 
L 92.2543 85.50136 
L 90.990267 89.210028 
L 89.536655 94.213243 
L 88.187993 100.106472 
L 87.636342 103.19631 
L 86.817702 109.773872 
L 86.634512 112.270999 
L 86.50441 119.335311 
L 86.817249 124.880311 
L 87.424817 129.849832 
L 88.026905 133.238098 
L 89.429838 139.005547 
L 90.683927 142.935081 
L 91.887818 146.095779 
L 93.023228 148.698315 
L 95.410059 153.32938 
L 97.176066 156.218329 
L 99.956124 160.087938 
L 102.43994 162.991723 
L 104.50395 165.076904 
L 106.979369 167.235098 
L 109.991217 169.40452 
L 112.49831 170.847777 
L 114.774381 171.867888 
L 116.708959 172.49228 
L 118.346016 172.78303 
L 118.463841 172.788093 
L 117.777728 172.859635 
L 116.391074 173.169059 
L 114.307207 173.89407 
L 112.090297 174.940932 
L 110.632187 175.771567 
L 107.845941 177.66722 
L 106.010502 179.143714 
L 104.112958 180.873383 
L 102.047748 183.012738 
L 99.683003 185.837046 
L 97.068189 189.523633 
L 94.732805 193.464906 
L 92.380348 198.312722 
L 90.864085 202.136166 
L 90.040932 204.555419 
L 89.209514 207.355072 
L 87.935139 212.801867 
L 87.195773 217.315109 
L 86.723861 221.813877 
L 86.483803 228.701493 
L 86.604638 232.773025 
L 87.415787 240.940571 
L 88.399295 246.517516 
L 89.332881 250.571771 
L 91.311098 257.353458 
L 92.410899 260.503717 
L 94.693602 266.184615 
L 97.144443 271.405301 
L 100.780769 278.045009 
L 102.84538 281.386357 
L 106.194958 286.307599 
L 110.313508 291.686915 
L 112.47829 294.271855 
L 115.892734 298.063218 
L 120.268387 302.4818 
L 126.037015 307.673316 
L 128.640604 309.812165 
L 133.894063 313.789139 
L 140.218028 318.042333 
L 145.341576 321.109375 
L 148.711706 322.958611 
L 155.33712 326.2361 
L 160.895363 328.646154 
L 167.234929 331.045342 
L 175.202723 333.568503 
L 182.736644 335.481983 
L 189.927715 336.90346 
L 195.234745 337.708821 
L 205.679789 338.710332 
L 212.261969 338.953846 
L 221.220037 338.812798 
L 228.596192 338.290681 
L 234.590754 337.596092 
L 240.923366 336.597178 
L 247.252648 335.323112 
L 251.608713 334.283512 
L 258.538644 332.350114 
L 267.885918 329.180277 
L 273.207784 327.074788 
L 279.841307 324.129174 
L 283.706381 322.241265 
L 289.214363 319.321405 
L 295.755189 315.48349 
L 301.888194 311.491999 
L 308.439089 306.770171 
L 313.728784 302.578076 
L 318.861696 298.152092 
L 321.855046 295.393083 
L 325.543165 291.797196 
L 331.136156 285.886175 
L 336.336542 279.824108 
L 340.761937 274.161458 
L 344.951803 268.294699 
L 349.910697 260.57831 
L 352.601665 255.963429 
L 355.14914 251.256698 
L 357.761354 246.021561 
L 361.059388 238.668077 
L 363.495556 232.537633 
L 365.694359 226.307172 
L 367.591266 220.194847 
L 369.099226 214.641004 
L 370.965076 206.429484 
L 372.223473 199.425751 
L 373.013339 193.833159 
L 373.617681 188.214898 
L 374.012563 182.970844 
L 374.245591 177.716031 
L 374.316793 172.788093 
L 374.316793 172.788093 
" clip-path="url(#pf6ef508511)" style="fill: none; stroke: #33ff00; stroke-linecap: square"/>
   </g>
   <g id="patch_3">
    <path d="M 118.463841 345.6 
L 118.463841 0 
" style="fill: none; stroke: #000000; stroke-width: 0.8; stroke-linejoin: miter; stroke-linecap: square"/>
   </g>
   <g id="patch_4">
    <path d="M 80.726535 172.788093 
L 380.073465 172.788093 
" style="fill: none; stroke: #000000; stroke-width: 0.8; stroke-linejoin: miter; stroke-linecap: square"/>
   </g>
  </g>
 </g>
 <defs>
  <clipPath id="pf6ef508511">
   <rect x="80.726535" y="0" width="299.34693" height="345.6"/>
  </clipPath>
 </defs>
</svg>
