<?xml version="1.0" encoding="utf-8" standalone="no"?>
<!DOCTYPE svg PUBLIC "-//W3C//DTD SVG 1.1//EN"
  "http://www.w3.org/Graphics/SVG/1.1/DTD/svg11.dtd">
<svg xmlns:xlink="http://www.w3.org/1999/xlink" width="460.8pt" height="345.6pt" viewBox="0 0 460.8 345.6" xmlns="http://www.w3.org/2000/svg" version="1.1">
 <metadata>
  <rdf:RDF xmlns:dc="http://purl.org/dc/elements/1.1/" xmlns:cc="http://creativecommons.org/ns#" xmlns:rdf="http://www.w3.org/1999/02/22-rdf-syntax-ns#">
   <cc:Work>
    <dc:type rdf:resource="http://purl.org/dc/dcmitype/StillImage"/>
    <dc:date>2025-08-04T21:53:57.258234</dc:date>
    <dc:format>image/svg+xml</dc:format>
    <dc:creator>
     <cc:Agent>
      <dc:title>Matplotlib v3.10.3, https://matplotlib.org/</dc:title>
     </cc:Agent>
    </dc:creator>
   </cc:Work>
  </rdf:RDF>
 </metadata>
 <defs>
  <style type="text/css">*{stroke-linejoin: round; stroke-linecap: butt}</style>
 </defs>
 <g id="figure_1">
  <g id="patch_1">
   <path d="M 0 345.6 
L 460.8 345.6 
L 460.8 0 
L 0 0 
z
" style="fill: #ffffff"/>
  </g>
  <g id="axes_1">
   <g id="patch_2">
    <path d="M 48.772103 345.6 
L 412.027897 345.6 
L 412.027897 0 
L 48.772103 0 
z
" style="fill: #ffffff"/>
   </g>
   <g id="matplotlib.axis_1">
    <g id="xtick_1">
     <g id="line2d_1">
      <defs>
       <path id="ma4bc465628" d="M 0 0 
L 0 3.5 
" style="stroke: #000000; stroke-width: 0.8"/>
      </defs>
      <g>
       <use xlink:href="#ma4bc465628" x="70.469199" y="160.094281" style="stroke: #000000; stroke-width: 0.8"/>
      </g>
     </g>
     <g id="text_1">
      <!-- −2 -->
      <g transform="translate(63.098105 174.692719) scale(0.1 -0.1)">
       <defs>
        <path id="DejaVuSans-2212" d="M 678 2272 
L 4684 2272 
L 4684 1741 
L 678 1741 
L 678 2272 
z
" transform="scale(0.015625)"/>
        <path id="DejaVuSans-32" d="M 1228 531 
L 3431 531 
L 3431 0 
L 469 0 
L 469 531 
Q 828 903 1448 1529 
Q 2069 2156 2228 2338 
Q 2531 2678 2651 2914 
Q 2772 3150 2772 3378 
Q 2772 3750 2511 3984 
Q 2250 4219 1831 4219 
Q 1534 4219 1204 4116 
Q 875 4013 500 3803 
L 500 4441 
Q 881 4594 1212 4672 
Q 1544 4750 1819 4750 
Q 2544 4750 2975 4387 
Q 3406 4025 3406 3419 
Q 3406 3131 3298 2873 
Q 3191 2616 2906 2266 
Q 2828 2175 2409 1742 
Q 1991 1309 1228 531 
z
" transform="scale(0.015625)"/>
       </defs>
       <use xlink:href="#DejaVuSans-2212"/>
       <use xlink:href="#DejaVuSans-32" transform="translate(83.789062 0)"/>
      </g>
     </g>
    </g>
    <g id="xtick_2">
     <g id="line2d_2">
      <g>
       <use xlink:href="#ma4bc465628" x="145.06897" y="160.094281" style="stroke: #000000; stroke-width: 0.8"/>
      </g>
     </g>
     <g id="text_2">
      <!-- −1 -->
      <g transform="translate(137.697876 174.692719) scale(0.1 -0.1)">
       <defs>
        <path id="DejaVuSans-31" d="M 794 531 
L 1825 531 
L 1825 4091 
L 703 3866 
L 703 4441 
L 1819 4666 
L 2450 4666 
L 2450 531 
L 3481 531 
L 3481 0 
L 794 0 
L 794 531 
z
" transform="scale(0.015625)"/>
       </defs>
       <use xlink:href="#DejaVuSans-2212"/>
       <use xlink:href="#DejaVuSans-31" transform="translate(83.789062 0)"/>
      </g>
     </g>
    </g>
    <g id="xtick_3">
     <g id="line2d_3">
      <g>
       <use xlink:href="#ma4bc465628" x="219.668741" y="160.094281" style="stroke: #000000; stroke-width: 0.8"/>
      </g>
     </g>
    </g>
    <g id="xtick_4">
     <g id="line2d_4">
      <g>
       <use xlink:href="#ma4bc465628" x="294.268512" y="160.094281" style="stroke: #000000; stroke-width: 0.8"/>
      </g>
     </g>
     <g id="text_3">
      <!-- 1 -->
      <g transform="translate(291.087262 174.692719) scale(0.1 -0.1)">
       <use xlink:href="#DejaVuSans-31"/>
      </g>
     </g>
    </g>
    <g id="xtick_5">
     <g id="line2d_5">
      <g>
       <use xlink:href="#ma4bc465628" x="368.868283" y="160.094281" style="stroke: #000000; stroke-width: 0.8"/>
      </g>
     </g>
     <g id="text_4">
      <!-- 2 -->
      <g transform="translate(365.687033 174.692719) scale(0.1 -0.1)">
       <use xlink:href="#DejaVuSans-32"/>
      </g>
     </g>
    </g>
    <g id="xtick_6">
     <g id="line2d_6">
      <defs>
       <path id="m928dfcd369" d="M 0 0 
L 0 2 
" style="stroke: #000000; stroke-width: 0.6"/>
      </defs>
      <g>
       <use xlink:href="#m928dfcd369" x="55.549244" y="160.094281" style="stroke: #000000; stroke-width: 0.6"/>
      </g>
     </g>
    </g>
    <g id="xtick_7">
     <g id="line2d_7">
      <g>
       <use xlink:href="#m928dfcd369" x="85.389153" y="160.094281" style="stroke: #000000; stroke-width: 0.6"/>
      </g>
     </g>
    </g>
    <g id="xtick_8">
     <g id="line2d_8">
      <g>
       <use xlink:href="#m928dfcd369" x="100.309107" y="160.094281" style="stroke: #000000; stroke-width: 0.6"/>
      </g>
     </g>
    </g>
    <g id="xtick_9">
     <g id="line2d_9">
      <g>
       <use xlink:href="#m928dfcd369" x="115.229061" y="160.094281" style="stroke: #000000; stroke-width: 0.6"/>
      </g>
     </g>
    </g>
    <g id="xtick_10">
     <g id="line2d_10">
      <g>
       <use xlink:href="#m928dfcd369" x="130.149016" y="160.094281" style="stroke: #000000; stroke-width: 0.6"/>
      </g>
     </g>
    </g>
    <g id="xtick_11">
     <g id="line2d_11">
      <g>
       <use xlink:href="#m928dfcd369" x="159.988924" y="160.094281" style="stroke: #000000; stroke-width: 0.6"/>
      </g>
     </g>
    </g>
    <g id="xtick_12">
     <g id="line2d_12">
      <g>
       <use xlink:href="#m928dfcd369" x="174.908878" y="160.094281" style="stroke: #000000; stroke-width: 0.6"/>
      </g>
     </g>
    </g>
    <g id="xtick_13">
     <g id="line2d_13">
      <g>
       <use xlink:href="#m928dfcd369" x="189.828833" y="160.094281" style="stroke: #000000; stroke-width: 0.6"/>
      </g>
     </g>
    </g>
    <g id="xtick_14">
     <g id="line2d_14">
      <g>
       <use xlink:href="#m928dfcd369" x="204.748787" y="160.094281" style="stroke: #000000; stroke-width: 0.6"/>
      </g>
     </g>
    </g>
    <g id="xtick_15">
     <g id="line2d_15">
      <g>
       <use xlink:href="#m928dfcd369" x="234.588695" y="160.094281" style="stroke: #000000; stroke-width: 0.6"/>
      </g>
     </g>
    </g>
    <g id="xtick_16">
     <g id="line2d_16">
      <g>
       <use xlink:href="#m928dfcd369" x="249.508649" y="160.094281" style="stroke: #000000; stroke-width: 0.6"/>
      </g>
     </g>
    </g>
    <g id="xtick_17">
     <g id="line2d_17">
      <g>
       <use xlink:href="#m928dfcd369" x="264.428604" y="160.094281" style="stroke: #000000; stroke-width: 0.6"/>
      </g>
     </g>
    </g>
    <g id="xtick_18">
     <g id="line2d_18">
      <g>
       <use xlink:href="#m928dfcd369" x="279.348558" y="160.094281" style="stroke: #000000; stroke-width: 0.6"/>
      </g>
     </g>
    </g>
    <g id="xtick_19">
     <g id="line2d_19">
      <g>
       <use xlink:href="#m928dfcd369" x="309.188466" y="160.094281" style="stroke: #000000; stroke-width: 0.6"/>
      </g>
     </g>
    </g>
    <g id="xtick_20">
     <g id="line2d_20">
      <g>
       <use xlink:href="#m928dfcd369" x="324.108421" y="160.094281" style="stroke: #000000; stroke-width: 0.6"/>
      </g>
     </g>
    </g>
    <g id="xtick_21">
     <g id="line2d_21">
      <g>
       <use xlink:href="#m928dfcd369" x="339.028375" y="160.094281" style="stroke: #000000; stroke-width: 0.6"/>
      </g>
     </g>
    </g>
    <g id="xtick_22">
     <g id="line2d_22">
      <g>
       <use xlink:href="#m928dfcd369" x="353.948329" y="160.094281" style="stroke: #000000; stroke-width: 0.6"/>
      </g>
     </g>
    </g>
    <g id="xtick_23">
     <g id="line2d_23">
      <g>
       <use xlink:href="#m928dfcd369" x="383.788238" y="160.094281" style="stroke: #000000; stroke-width: 0.6"/>
      </g>
     </g>
    </g>
    <g id="xtick_24">
     <g id="line2d_24">
      <g>
       <use xlink:href="#m928dfcd369" x="398.708192" y="160.094281" style="stroke: #000000; stroke-width: 0.6"/>
      </g>
     </g>
    </g>
   </g>
   <g id="matplotlib.axis_2">
    <g id="ytick_1">
     <g id="line2d_25">
      <defs>
       <path id="mcc9dfdd80a" d="M 0 0 
L -3.5 0 
" style="stroke: #000000; stroke-width: 0.8"/>
      </defs>
      <g>
       <use xlink:href="#mcc9dfdd80a" x="219.668741" y="309.293824" style="stroke: #000000; stroke-width: 0.8"/>
      </g>
     </g>
     <g id="text_5">
      <!-- −2 -->
      <g transform="translate(197.926553 313.093042) scale(0.1 -0.1)">
       <use xlink:href="#DejaVuSans-2212"/>
       <use xlink:href="#DejaVuSans-32" transform="translate(83.789062 0)"/>
      </g>
     </g>
    </g>
    <g id="ytick_2">
     <g id="line2d_26">
      <g>
       <use xlink:href="#mcc9dfdd80a" x="219.668741" y="234.694052" style="stroke: #000000; stroke-width: 0.8"/>
      </g>
     </g>
     <g id="text_6">
      <!-- −1 -->
      <g transform="translate(197.926553 238.493271) scale(0.1 -0.1)">
       <use xlink:href="#DejaVuSans-2212"/>
       <use xlink:href="#DejaVuSans-31" transform="translate(83.789062 0)"/>
      </g>
     </g>
    </g>
    <g id="ytick_3">
     <g id="line2d_27">
      <g>
       <use xlink:href="#mcc9dfdd80a" x="219.668741" y="160.094281" style="stroke: #000000; stroke-width: 0.8"/>
      </g>
     </g>
    </g>
    <g id="ytick_4">
     <g id="line2d_28">
      <g>
       <use xlink:href="#mcc9dfdd80a" x="219.668741" y="85.49451" style="stroke: #000000; stroke-width: 0.8"/>
      </g>
     </g>
     <g id="text_7">
      <!-- 1 -->
      <g transform="translate(206.306241 89.293729) scale(0.1 -0.1)">
       <use xlink:href="#DejaVuSans-31"/>
      </g>
     </g>
    </g>
    <g id="ytick_5">
     <g id="line2d_29">
      <g>
       <use xlink:href="#mcc9dfdd80a" x="219.668741" y="10.894739" style="stroke: #000000; stroke-width: 0.8"/>
      </g>
     </g>
     <g id="text_8">
      <!-- 2 -->
      <g transform="translate(206.306241 14.693958) scale(0.1 -0.1)">
       <use xlink:href="#DejaVuSans-32"/>
      </g>
     </g>
    </g>
    <g id="ytick_6">
     <g id="line2d_30">
      <defs>
       <path id="m318e7e892d" d="M 0 0 
L -2 0 
" style="stroke: #000000; stroke-width: 0.6"/>
      </defs>
      <g>
       <use xlink:href="#m318e7e892d" x="219.668741" y="339.133732" style="stroke: #000000; stroke-width: 0.6"/>
      </g>
     </g>
    </g>
    <g id="ytick_7">
     <g id="line2d_31">
      <g>
       <use xlink:href="#m318e7e892d" x="219.668741" y="324.213778" style="stroke: #000000; stroke-width: 0.6"/>
      </g>
     </g>
    </g>
    <g id="ytick_8">
     <g id="line2d_32">
      <g>
       <use xlink:href="#m318e7e892d" x="219.668741" y="294.373869" style="stroke: #000000; stroke-width: 0.6"/>
      </g>
     </g>
    </g>
    <g id="ytick_9">
     <g id="line2d_33">
      <g>
       <use xlink:href="#m318e7e892d" x="219.668741" y="279.453915" style="stroke: #000000; stroke-width: 0.6"/>
      </g>
     </g>
    </g>
    <g id="ytick_10">
     <g id="line2d_34">
      <g>
       <use xlink:href="#m318e7e892d" x="219.668741" y="264.533961" style="stroke: #000000; stroke-width: 0.6"/>
      </g>
     </g>
    </g>
    <g id="ytick_11">
     <g id="line2d_35">
      <g>
       <use xlink:href="#m318e7e892d" x="219.668741" y="249.614007" style="stroke: #000000; stroke-width: 0.6"/>
      </g>
     </g>
    </g>
    <g id="ytick_12">
     <g id="line2d_36">
      <g>
       <use xlink:href="#m318e7e892d" x="219.668741" y="219.774098" style="stroke: #000000; stroke-width: 0.6"/>
      </g>
     </g>
    </g>
    <g id="ytick_13">
     <g id="line2d_37">
      <g>
       <use xlink:href="#m318e7e892d" x="219.668741" y="204.854144" style="stroke: #000000; stroke-width: 0.6"/>
      </g>
     </g>
    </g>
    <g id="ytick_14">
     <g id="line2d_38">
      <g>
       <use xlink:href="#m318e7e892d" x="219.668741" y="189.93419" style="stroke: #000000; stroke-width: 0.6"/>
      </g>
     </g>
    </g>
    <g id="ytick_15">
     <g id="line2d_39">
      <g>
       <use xlink:href="#m318e7e892d" x="219.668741" y="175.014236" style="stroke: #000000; stroke-width: 0.6"/>
      </g>
     </g>
    </g>
    <g id="ytick_16">
     <g id="line2d_40">
      <g>
       <use xlink:href="#m318e7e892d" x="219.668741" y="145.174327" style="stroke: #000000; stroke-width: 0.6"/>
      </g>
     </g>
    </g>
    <g id="ytick_17">
     <g id="line2d_41">
      <g>
       <use xlink:href="#m318e7e892d" x="219.668741" y="130.254373" style="stroke: #000000; stroke-width: 0.6"/>
      </g>
     </g>
    </g>
    <g id="ytick_18">
     <g id="line2d_42">
      <g>
       <use xlink:href="#m318e7e892d" x="219.668741" y="115.334419" style="stroke: #000000; stroke-width: 0.6"/>
      </g>
     </g>
    </g>
    <g id="ytick_19">
     <g id="line2d_43">
      <g>
       <use xlink:href="#m318e7e892d" x="219.668741" y="100.414464" style="stroke: #000000; stroke-width: 0.6"/>
      </g>
     </g>
    </g>
    <g id="ytick_20">
     <g id="line2d_44">
      <g>
       <use xlink:href="#m318e7e892d" x="219.668741" y="70.574556" style="stroke: #000000; stroke-width: 0.6"/>
      </g>
     </g>
    </g>
    <g id="ytick_21">
     <g id="line2d_45">
      <g>
       <use xlink:href="#m318e7e892d" x="219.668741" y="55.654602" style="stroke: #000000; stroke-width: 0.6"/>
      </g>
     </g>
    </g>
    <g id="ytick_22">
     <g id="line2d_46">
      <g>
       <use xlink:href="#m318e7e892d" x="219.668741" y="40.734647" style="stroke: #000000; stroke-width: 0.6"/>
      </g>
     </g>
    </g>
    <g id="ytick_23">
     <g id="line2d_47">
      <g>
       <use xlink:href="#m318e7e892d" x="219.668741" y="25.814693" style="stroke: #000000; stroke-width: 0.6"/>
      </g>
     </g>
    </g>
   </g>
   <g id="line2d_48">
    <path d="M 219.668741 160.094281 
L 219.668741 160.094281 
L 219.668741 160.094281 
L 219.668741 160.094281 
L 219.668741 160.094281 
L 219.668741 160.094281 
L 219.668741 160.094281 
L 219.668741 160.094281 
L 219.668741 160.094281 
L 219.668741 160.094281 
L 219.668741 160.094281 
L 219.668741 160.094281 
L 219.668741 160.094281 
L 219.668741 160.094281 
L 219.668741 160.094281 
L 219.668741 160.094281 
L 219.668741 160.094281 
L 219.668741 160.094281 
L 219.668741 160.094281 
L 219.668741 160.094281 
L 219.668741 160.094281 
L 219.668741 160.094281 
L 219.668741 160.094281 
" clip-path="url(#pc876e826e4)" style="fill: none; stroke: #0000ff; stroke-linecap: square"/>
   </g>
   <g id="line2d_49">
    <path d="M 197.60798 113.327794 
L 197.177065 113.533504 
L 192.394815 116.163489 
L 191.08975 117.001095 
L 188.938263 118.507995 
L 185.200448 121.549265 
L 183.445863 123.193271 
L 181.977024 124.694903 
L 179.152178 127.966574 
L 177.910177 129.598317 
L 176.179709 132.121337 
L 175.15366 133.784795 
L 173.356389 137.095423 
L 172.24833 139.476664 
L 170.552511 143.927108 
L 170.224736 144.95916 
L 169.502556 147.558915 
L 168.565418 152.205566 
L 168.515897 152.533323 
L 168.491925 152.697319 
" clip-path="url(#pc876e826e4)" style="fill: none; stroke: #0000ff; stroke-linecap: square"/>
   </g>
   <g id="line2d_50">
    <path d="M 138.527458 148.565399 
L 138.518246 148.630422 
L 138.40435 149.46782 
L 138.280699 150.460512 
L 137.945783 153.915207 
L 137.714521 160.667625 
L 137.957437 166.425604 
L 138.605163 172.157413 
L 139.394837 176.614668 
L 140.58515 181.602619 
L 141.63438 185.143459 
L 143.383391 190.050385 
L 144.649251 193.09275 
L 146.788623 197.581762 
L 148.052378 199.942988 
L 151.401699 205.442201 
L 154.826563 210.217278 
L 158.355996 214.477828 
L 161.279446 217.605264 
L 163.433922 219.71364 
L 165.384776 221.49521 
L 165.740775 221.808115 
L 165.919451 221.963795 
L 166.008958 222.041441 
" clip-path="url(#pc876e826e4)" style="fill: none; stroke: #0000ff; stroke-linecap: square"/>
   </g>
   <g id="line2d_51">
    <path d="M 152.98048 239.137319 
L 156.113625 241.677816 
L 160.941141 245.218866 
L 163.582062 246.981624 
L 169.977655 250.79115 
L 175.184505 253.455294 
L 177.236316 254.405549 
L 185.991739 257.874573 
L 190.451299 259.29845 
L 194.562014 260.41765 
L 201.650622 261.929802 
L 210.861409 263.135811 
L 216.742099 263.470104 
L 222.80444 263.463974 
L 226.397866 263.292367 
L 233.159818 262.627772 
L 239.946009 261.504135 
L 242.277472 261.009945 
L 247.855336 259.59625 
L 248.669261 259.36208 
L 248.872441 259.302496 
" clip-path="url(#pc876e826e4)" style="fill: none; stroke: #0000ff; stroke-linecap: square"/>
   </g>
   <g id="line2d_52">
    <path d="M 253.808928 275.201795 
L 254.279982 275.061033 
L 255.055624 274.824663 
L 261.337504 272.695375 
L 268.326016 269.856577 
L 274.688135 266.809596 
L 279.323216 264.289462 
L 287.457099 259.190349 
L 292.671596 255.414139 
L 298.734851 250.448265 
L 302.421537 247.08432 
L 309.078995 240.226039 
L 313.382829 235.147341 
L 317.302062 229.972939 
L 319.532471 226.746569 
L 323.635944 220.1452 
L 327.05288 213.796597 
L 330.951385 205.16606 
L 332.233424 201.861304 
L 334.554611 194.973056 
L 334.564349 194.940964 
L 334.761564 194.28396 
L 334.858763 193.955037 
L 334.90701 193.790473 
" clip-path="url(#pc876e826e4)" style="fill: none; stroke: #0000ff; stroke-linecap: square"/>
   </g>
   <g id="line2d_53">
    <path d="M 348.433142 195.955406 
L 349.268157 192.809453 
L 351.028509 184.810725 
L 352.650762 173.587736 
L 353.29208 163.425119 
L 353.298862 163.140927 
L 352.992097 150.545785 
L 352.580892 145.929142 
L 350.631533 133.354082 
L 348.716675 125.267254 
L 347.502832 121.046409 
L 345.907513 116.161793 
L 342.685223 107.81392 
L 337.327491 96.669447 
L 336.608285 95.352994 
L 332.720661 88.781208 
L 325.248127 78.12304 
L 321.447919 73.449662 
L 321.305707 73.282886 
L 320.837783 72.738021 
L 320.602724 72.466534 
" clip-path="url(#pc876e826e4)" style="fill: none; stroke: #0000ff; stroke-linecap: square"/>
   </g>
   <g id="line2d_54">
    <path d="M 329.030319 64.633487 
L 327.998155 63.463768 
L 322.701478 57.834939 
L 321.36904 56.509692 
L 312.304838 48.329924 
L 302.772736 41.071409 
L 296.876591 37.164765 
L 289.075216 32.597382 
L 286.077871 31.010798 
L 280.150567 28.129639 
L 267.541864 23.050923 
L 261.114893 20.972268 
L 249.817531 18.095096 
L 244.008522 16.984907 
L 234.603468 15.700126 
L 226.378558 15.084984 
L 215.117529 15.001192 
L 214.523996 15.021025 
L 200.209842 16.239948 
L 199.16192 16.385589 
L 198.638364 16.461272 
" clip-path="url(#pc876e826e4)" style="fill: none; stroke: #0000ff; stroke-linecap: square"/>
   </g>
   <g id="line2d_55">
    <path d="M 196.915596 6.646154 
L 196.636041 6.687866 
L 195.324323 6.890552 
L 191.00717 7.639213 
L 182.975356 9.370597 
L 170.903232 12.83275 
L 161.91897 16.118598 
L 153.719382 19.685181 
L 149.348647 21.822383 
L 138.180842 28.095207 
L 131.461622 32.487316 
L 123.178409 38.62968 
L 122.930469 38.827055 
L 112.159763 48.26471 
L 107.308105 53.140456 
L 98.844461 62.803343 
L 95.823397 66.67927 
L 91.9409 72.062287 
L 85.613876 82.034518 
L 79.077751 94.533569 
L 78.931468 94.848183 
L 78.592542 95.584285 
L 78.424523 95.952998 
" clip-path="url(#pc876e826e4)" style="fill: none; stroke: #0000ff; stroke-linecap: square"/>
   </g>
   <g id="line2d_56">
    <path d="M 70.247697 92.709988 
L 69.55183 94.274797 
L 67.252666 99.789792 
L 64.262359 107.977605 
L 62.543466 113.415171 
L 59.70514 124.332042 
L 57.513185 136.159636 
L 57.119317 138.99982 
L 55.944201 152.247849 
L 55.757792 159.392751 
L 55.903986 167.05103 
L 56.597123 176.675568 
L 58.06657 187.517443 
L 59.281562 193.906175 
L 61.999246 204.900773 
L 65.091025 214.619699 
L 67.889091 221.983127 
L 75.001485 237.15709 
L 78.442644 243.295729 
L 81.112299 247.669413 
L 81.621076 248.469242 
L 81.877197 248.86805 
L 82.00569 249.067175 
" clip-path="url(#pc876e826e4)" style="fill: none; stroke: #0000ff; stroke-linecap: square"/>
   </g>
   <g id="line2d_57">
    <path d="M 76.629945 255.202815 
L 78.427686 257.85263 
L 81.243062 261.800042 
L 89.702157 272.408204 
L 93.06177 276.182202 
L 99.262793 282.601987 
L 106.158697 289.017515 
L 121.083135 300.759162 
L 124.021267 302.77326 
L 132.862893 308.318689 
L 141.876524 313.2416 
L 156.44952 319.809842 
L 165.129669 322.97835 
L 170.713835 324.742839 
L 179.736428 327.160558 
L 190.101989 329.302843 
L 197.132526 330.38183 
L 214.170751 331.778592 
L 216.342639 331.834397 
L 218.442184 331.862223 
L 219.435565 331.866444 
L 219.93226 331.8664 
L 220.180607 331.86584 
" clip-path="url(#pc876e826e4)" style="fill: none; stroke: #0000ff; stroke-linecap: square"/>
   </g>
   <g id="line2d_58">
    <path d="M 222.529322 338.953846 
L 229.460735 338.708513 
L 241.410402 337.650546 
L 253.394584 335.76868 
L 259.526249 334.479791 
L 267.138803 332.563177 
L 279.962742 328.509127 
L 289.747594 324.678245 
L 303.847289 317.932486 
L 311.696998 313.488306 
L 314.728903 311.628081 
L 324.837933 304.795241 
L 337.726232 294.486824 
L 341.081517 291.463474 
L 351.509622 280.99469 
L 355.217947 276.821911 
L 361.395236 269.238807 
L 369.499142 257.817245 
L 369.623605 257.626151 
L 370.154323 256.805276 
L 370.417998 256.393754 
L 370.549414 256.187723 
" clip-path="url(#pc876e826e4)" style="fill: none; stroke: #0000ff; stroke-linecap: square"/>
   </g>
   <g id="line2d_59">
    <path d="M 377.236851 257.744745 
L 381.473838 250.551083 
L 387.690751 238.4009 
L 391.122719 230.570205 
L 394.92319 220.502894 
L 396.432723 215.931697 
L 400.196817 202.200528 
L 401.609969 195.600786 
L 404.05616 179.188838 
L 404.951602 165.889431 
L 405.042208 160.094281 
" clip-path="url(#pc876e826e4)" style="fill: none; stroke: #0000ff; stroke-linecap: square"/>
   </g>
   <g id="patch_3">
    <path d="M 219.668741 345.6 
L 219.668741 -0 
" style="fill: none; stroke: #000000; stroke-width: 0.8; stroke-linejoin: miter; stroke-linecap: square"/>
   </g>
   <g id="patch_4">
    <path d="M 48.772103 160.094281 
L 412.027897 160.094281 
" style="fill: none; stroke: #000000; stroke-width: 0.8; stroke-linejoin: miter; stroke-linecap: square"/>
   </g>
  </g>
 </g>
 <defs>
  <clipPath id="pc876e826e4">
   <rect x="48.772103" y="0" width="363.255794" height="345.6"/>
  </clipPath>
 </defs>
</svg>
