<?xml version="1.0" encoding="utf-8" standalone="no"?>
<!DOCTYPE svg PUBLIC "-//W3C//DTD SVG 1.1//EN"
  "http://www.w3.org/Graphics/SVG/1.1/DTD/svg11.dtd">
<svg xmlns:xlink="http://www.w3.org/1999/xlink" width="460.8pt" height="345.6pt" viewBox="0 0 460.8 345.6" xmlns="http://www.w3.org/2000/svg" version="1.1">
 <metadata>
  <rdf:RDF xmlns:dc="http://purl.org/dc/elements/1.1/" xmlns:cc="http://creativecommons.org/ns#" xmlns:rdf="http://www.w3.org/1999/02/22-rdf-syntax-ns#">
   <cc:Work>
    <dc:type rdf:resource="http://purl.org/dc/dcmitype/StillImage"/>
    <dc:date>2025-11-12T17:30:05.695384</dc:date>
    <dc:format>image/svg+xml</dc:format>
    <dc:creator>
     <cc:Agent>
      <dc:title>Matplotlib v3.10.7, https://matplotlib.org/</dc:title>
     </cc:Agent>
    </dc:creator>
   </cc:Work>
  </rdf:RDF>
 </metadata>
 <defs>
  <style type="text/css">*{stroke-linejoin: round; stroke-linecap: butt}</style>
 </defs>
 <g id="figure_1">
  <g id="patch_1">
   <path d="M 0 345.6 
L 460.8 345.6 
L 460.8 0 
L 0 0 
z
" style="fill: #ffffff"/>
  </g>
  <g id="axes_1">
   <g id="patch_2">
    <path d="M 0 345.6 
L 460.8 345.6 
L 460.8 0 
L 0 0 
z
" style="fill: #ffffff"/>
   </g>
   <g id="PathCollection_1">
    <defs>
     <path id="C0_0_79b08cd696" d="M 0 2.738613 
C 0.726289 2.738613 1.422928 2.450055 1.936492 1.936492 
C 2.450055 1.422928 2.738613 0.726289 2.738613 -0 
C 2.738613 -0.726289 2.450055 -1.422928 1.936492 -1.936492 
C 1.422928 -2.450055 0.726289 -2.738613 0 -2.738613 
C -0.726289 -2.738613 -1.422928 -2.450055 -1.936492 -1.936492 
C -2.450055 -1.422928 -2.738613 -0.726289 -2.738613 0 
C -2.738613 0.726289 -2.450055 1.422928 -1.936492 1.936492 
C -1.422928 2.450055 -0.726289 2.738613 0 2.738613 
z
"/>
    </defs>
    <g clip-path="url(#pe7b53bb2cf)">
     <use xlink:href="#C0_0_79b08cd696" x="8.861538" y="245.945179" style="fill: #33991a"/>
    </g>
    <g clip-path="url(#pe7b53bb2cf)">
     <use xlink:href="#C0_0_79b08cd696" x="12.584874" y="288.187409" style="fill: #33991a"/>
    </g>
    <g clip-path="url(#pe7b53bb2cf)">
     <use xlink:href="#C0_0_79b08cd696" x="16.308209" y="318.538554" style="fill: #33991a"/>
    </g>
    <g clip-path="url(#pe7b53bb2cf)">
     <use xlink:href="#C0_0_79b08cd696" x="20.031545" y="335.386095" style="fill: #33991a"/>
    </g>
    <g clip-path="url(#pe7b53bb2cf)">
     <use xlink:href="#C0_0_79b08cd696" x="23.75488" y="338.45457" style="fill: #33991a"/>
    </g>
    <g clip-path="url(#pe7b53bb2cf)">
     <use xlink:href="#C0_0_79b08cd696" x="27.478216" y="328.648199" style="fill: #33991a"/>
    </g>
    <g clip-path="url(#pe7b53bb2cf)">
     <use xlink:href="#C0_0_79b08cd696" x="31.201551" y="307.810863" style="fill: #33991a"/>
    </g>
    <g clip-path="url(#pe7b53bb2cf)">
     <use xlink:href="#C0_0_79b08cd696" x="34.924887" y="278.440994" style="fill: #33991a"/>
    </g>
    <g clip-path="url(#pe7b53bb2cf)">
     <use xlink:href="#C0_0_79b08cd696" x="38.648222" y="243.395911" style="fill: #33991a"/>
    </g>
    <g clip-path="url(#pe7b53bb2cf)">
     <use xlink:href="#C0_0_79b08cd696" x="42.371558" y="205.614294" style="fill: #33991a"/>
    </g>
    <g clip-path="url(#pe7b53bb2cf)">
     <use xlink:href="#C0_0_79b08cd696" x="46.094893" y="167.877994" style="fill: #33991a"/>
    </g>
    <g clip-path="url(#pe7b53bb2cf)">
     <use xlink:href="#C0_0_79b08cd696" x="49.818229" y="132.626445" style="fill: #33991a"/>
    </g>
    <g clip-path="url(#pe7b53bb2cf)">
     <use xlink:href="#C0_0_79b08cd696" x="53.541564" y="101.829503" style="fill: #33991a"/>
    </g>
    <g clip-path="url(#pe7b53bb2cf)">
     <use xlink:href="#C0_0_79b08cd696" x="57.2649" y="76.918141" style="fill: #33991a"/>
    </g>
    <g clip-path="url(#pe7b53bb2cf)">
     <use xlink:href="#C0_0_79b08cd696" x="60.988235" y="58.767556" style="fill: #33991a"/>
    </g>
    <g clip-path="url(#pe7b53bb2cf)">
     <use xlink:href="#C0_0_79b08cd696" x="64.711571" y="47.723909" style="fill: #33991a"/>
    </g>
    <g clip-path="url(#pe7b53bb2cf)">
     <use xlink:href="#C0_0_79b08cd696" x="68.434906" y="43.664146" style="fill: #33991a"/>
    </g>
    <g clip-path="url(#pe7b53bb2cf)">
     <use xlink:href="#C0_0_79b08cd696" x="72.158242" y="46.077899" style="fill: #33991a"/>
    </g>
    <g clip-path="url(#pe7b53bb2cf)">
     <use xlink:href="#C0_0_79b08cd696" x="75.881577" y="54.161024" style="fill: #33991a"/>
    </g>
    <g clip-path="url(#pe7b53bb2cf)">
     <use xlink:href="#C0_0_79b08cd696" x="79.604913" y="66.911687" style="fill: #33991a"/>
    </g>
    <g clip-path="url(#pe7b53bb2cf)">
     <use xlink:href="#C0_0_79b08cd696" x="83.328248" y="83.221688" style="fill: #33991a"/>
    </g>
    <g clip-path="url(#pe7b53bb2cf)">
     <use xlink:href="#C0_0_79b08cd696" x="87.051584" y="101.957636" style="fill: #33991a"/>
    </g>
    <g clip-path="url(#pe7b53bb2cf)">
     <use xlink:href="#C0_0_79b08cd696" x="90.774919" y="122.028548" style="fill: #33991a"/>
    </g>
    <g clip-path="url(#pe7b53bb2cf)">
     <use xlink:href="#C0_0_79b08cd696" x="94.498255" y="142.438152" style="fill: #33991a"/>
    </g>
    <g clip-path="url(#pe7b53bb2cf)">
     <use xlink:href="#C0_0_79b08cd696" x="98.22159" y="162.32168" style="fill: #33991a"/>
    </g>
    <g clip-path="url(#pe7b53bb2cf)">
     <use xlink:href="#C0_0_79b08cd696" x="101.944926" y="180.96801" style="fill: #33991a"/>
    </g>
    <g clip-path="url(#pe7b53bb2cf)">
     <use xlink:href="#C0_0_79b08cd696" x="105.668261" y="197.828872" style="fill: #33991a"/>
    </g>
    <g clip-path="url(#pe7b53bb2cf)">
     <use xlink:href="#C0_0_79b08cd696" x="109.391597" y="212.51727" style="fill: #33991a"/>
    </g>
    <g clip-path="url(#pe7b53bb2cf)">
     <use xlink:href="#C0_0_79b08cd696" x="113.114932" y="224.797522" style="fill: #33991a"/>
    </g>
    <g clip-path="url(#pe7b53bb2cf)">
     <use xlink:href="#C0_0_79b08cd696" x="116.838268" y="234.569271" style="fill: #33991a"/>
    </g>
    <g clip-path="url(#pe7b53bb2cf)">
     <use xlink:href="#C0_0_79b08cd696" x="120.561603" y="241.847704" style="fill: #33991a"/>
    </g>
    <g clip-path="url(#pe7b53bb2cf)">
     <use xlink:href="#C0_0_79b08cd696" x="124.284939" y="246.741894" style="fill: #33991a"/>
    </g>
    <g clip-path="url(#pe7b53bb2cf)">
     <use xlink:href="#C0_0_79b08cd696" x="128.008274" y="249.432877" style="fill: #33991a"/>
    </g>
    <g clip-path="url(#pe7b53bb2cf)">
     <use xlink:href="#C0_0_79b08cd696" x="131.73161" y="250.152701" style="fill: #33991a"/>
    </g>
    <g clip-path="url(#pe7b53bb2cf)">
     <use xlink:href="#C0_0_79b08cd696" x="135.454945" y="249.165334" style="fill: #33991a"/>
    </g>
    <g clip-path="url(#pe7b53bb2cf)">
     <use xlink:href="#C0_0_79b08cd696" x="139.178281" y="246.750023" style="fill: #33991a"/>
    </g>
    <g clip-path="url(#pe7b53bb2cf)">
     <use xlink:href="#C0_0_79b08cd696" x="142.901616" y="243.187394" style="fill: #33991a"/>
    </g>
    <g clip-path="url(#pe7b53bb2cf)">
     <use xlink:href="#C0_0_79b08cd696" x="146.624952" y="238.748374" style="fill: #33991a"/>
    </g>
    <g clip-path="url(#pe7b53bb2cf)">
     <use xlink:href="#C0_0_79b08cd696" x="150.348287" y="233.685838" style="fill: #33991a"/>
    </g>
    <g clip-path="url(#pe7b53bb2cf)">
     <use xlink:href="#C0_0_79b08cd696" x="154.071622" y="228.228776" style="fill: #33991a"/>
    </g>
    <g clip-path="url(#pe7b53bb2cf)">
     <use xlink:href="#C0_0_79b08cd696" x="157.794958" y="222.578669" style="fill: #33991a"/>
    </g>
    <g clip-path="url(#pe7b53bb2cf)">
     <use xlink:href="#C0_0_79b08cd696" x="161.518293" y="216.907737" style="fill: #33991a"/>
    </g>
    <g clip-path="url(#pe7b53bb2cf)">
     <use xlink:href="#C0_0_79b08cd696" x="165.241629" y="211.358721" style="fill: #33991a"/>
    </g>
    <g clip-path="url(#pe7b53bb2cf)">
     <use xlink:href="#C0_0_79b08cd696" x="168.964964" y="206.045832" style="fill: #33991a"/>
    </g>
    <g clip-path="url(#pe7b53bb2cf)">
     <use xlink:href="#C0_0_79b08cd696" x="172.6883" y="201.056572" style="fill: #33991a"/>
    </g>
    <g clip-path="url(#pe7b53bb2cf)">
     <use xlink:href="#C0_0_79b08cd696" x="176.411635" y="196.454132" style="fill: #33991a"/>
    </g>
    <g clip-path="url(#pe7b53bb2cf)">
     <use xlink:href="#C0_0_79b08cd696" x="180.134971" y="192.280133" style="fill: #33991a"/>
    </g>
    <g clip-path="url(#pe7b53bb2cf)">
     <use xlink:href="#C0_0_79b08cd696" x="183.858306" y="188.557505" style="fill: #33991a"/>
    </g>
    <g clip-path="url(#pe7b53bb2cf)">
     <use xlink:href="#C0_0_79b08cd696" x="187.581642" y="185.293361" style="fill: #33991a"/>
    </g>
    <g clip-path="url(#pe7b53bb2cf)">
     <use xlink:href="#C0_0_79b08cd696" x="191.304977" y="182.481734" style="fill: #33991a"/>
    </g>
    <g clip-path="url(#pe7b53bb2cf)">
     <use xlink:href="#C0_0_79b08cd696" x="195.028313" y="180.106102" style="fill: #33991a"/>
    </g>
    <g clip-path="url(#pe7b53bb2cf)">
     <use xlink:href="#C0_0_79b08cd696" x="198.751648" y="178.141647" style="fill: #33991a"/>
    </g>
    <g clip-path="url(#pe7b53bb2cf)">
     <use xlink:href="#C0_0_79b08cd696" x="202.474984" y="176.557217" style="fill: #33991a"/>
    </g>
    <g clip-path="url(#pe7b53bb2cf)">
     <use xlink:href="#C0_0_79b08cd696" x="206.198319" y="175.316984" style="fill: #33991a"/>
    </g>
    <g clip-path="url(#pe7b53bb2cf)">
     <use xlink:href="#C0_0_79b08cd696" x="209.921655" y="174.381797" style="fill: #33991a"/>
    </g>
    <g clip-path="url(#pe7b53bb2cf)">
     <use xlink:href="#C0_0_79b08cd696" x="213.64499" y="173.710258" style="fill: #33991a"/>
    </g>
    <g clip-path="url(#pe7b53bb2cf)">
     <use xlink:href="#C0_0_79b08cd696" x="217.368326" y="173.259539" style="fill: #33991a"/>
    </g>
    <g clip-path="url(#pe7b53bb2cf)">
     <use xlink:href="#C0_0_79b08cd696" x="221.091661" y="172.985973" style="fill: #33991a"/>
    </g>
    <g clip-path="url(#pe7b53bb2cf)">
     <use xlink:href="#C0_0_79b08cd696" x="224.814997" y="172.845453" style="fill: #33991a"/>
    </g>
    <g clip-path="url(#pe7b53bb2cf)">
     <use xlink:href="#C0_0_79b08cd696" x="228.538332" y="172.793678" style="fill: #33991a"/>
    </g>
    <g clip-path="url(#pe7b53bb2cf)">
     <use xlink:href="#C0_0_79b08cd696" x="232.261668" y="172.786281" style="fill: #33991a"/>
    </g>
    <g clip-path="url(#pe7b53bb2cf)">
     <use xlink:href="#C0_0_79b08cd696" x="235.985003" y="172.778884" style="fill: #33991a"/>
    </g>
    <g clip-path="url(#pe7b53bb2cf)">
     <use xlink:href="#C0_0_79b08cd696" x="239.708339" y="172.727109" style="fill: #33991a"/>
    </g>
    <g clip-path="url(#pe7b53bb2cf)">
     <use xlink:href="#C0_0_79b08cd696" x="243.431674" y="172.586589" style="fill: #33991a"/>
    </g>
    <g clip-path="url(#pe7b53bb2cf)">
     <use xlink:href="#C0_0_79b08cd696" x="247.15501" y="172.313023" style="fill: #33991a"/>
    </g>
    <g clip-path="url(#pe7b53bb2cf)">
     <use xlink:href="#C0_0_79b08cd696" x="250.878345" y="171.862304" style="fill: #33991a"/>
    </g>
    <g clip-path="url(#pe7b53bb2cf)">
     <use xlink:href="#C0_0_79b08cd696" x="254.601681" y="171.190765" style="fill: #33991a"/>
    </g>
    <g clip-path="url(#pe7b53bb2cf)">
     <use xlink:href="#C0_0_79b08cd696" x="258.325016" y="170.255578" style="fill: #33991a"/>
    </g>
    <g clip-path="url(#pe7b53bb2cf)">
     <use xlink:href="#C0_0_79b08cd696" x="262.048352" y="169.015345" style="fill: #33991a"/>
    </g>
    <g clip-path="url(#pe7b53bb2cf)">
     <use xlink:href="#C0_0_79b08cd696" x="265.771687" y="167.430915" style="fill: #33991a"/>
    </g>
    <g clip-path="url(#pe7b53bb2cf)">
     <use xlink:href="#C0_0_79b08cd696" x="269.495023" y="165.46646" style="fill: #33991a"/>
    </g>
    <g clip-path="url(#pe7b53bb2cf)">
     <use xlink:href="#C0_0_79b08cd696" x="273.218358" y="163.090828" style="fill: #33991a"/>
    </g>
    <g clip-path="url(#pe7b53bb2cf)">
     <use xlink:href="#C0_0_79b08cd696" x="276.941694" y="160.279201" style="fill: #33991a"/>
    </g>
    <g clip-path="url(#pe7b53bb2cf)">
     <use xlink:href="#C0_0_79b08cd696" x="280.665029" y="157.015057" style="fill: #33991a"/>
    </g>
    <g clip-path="url(#pe7b53bb2cf)">
     <use xlink:href="#C0_0_79b08cd696" x="284.388365" y="153.292429" style="fill: #33991a"/>
    </g>
    <g clip-path="url(#pe7b53bb2cf)">
     <use xlink:href="#C0_0_79b08cd696" x="288.1117" y="149.11843" style="fill: #33991a"/>
    </g>
    <g clip-path="url(#pe7b53bb2cf)">
     <use xlink:href="#C0_0_79b08cd696" x="291.835036" y="144.51599" style="fill: #33991a"/>
    </g>
    <g clip-path="url(#pe7b53bb2cf)">
     <use xlink:href="#C0_0_79b08cd696" x="295.558371" y="139.52673" style="fill: #33991a"/>
    </g>
    <g clip-path="url(#pe7b53bb2cf)">
     <use xlink:href="#C0_0_79b08cd696" x="299.281707" y="134.213841" style="fill: #33991a"/>
    </g>
    <g clip-path="url(#pe7b53bb2cf)">
     <use xlink:href="#C0_0_79b08cd696" x="303.005042" y="128.664825" style="fill: #33991a"/>
    </g>
    <g clip-path="url(#pe7b53bb2cf)">
     <use xlink:href="#C0_0_79b08cd696" x="306.728378" y="122.993893" style="fill: #33991a"/>
    </g>
    <g clip-path="url(#pe7b53bb2cf)">
     <use xlink:href="#C0_0_79b08cd696" x="310.451713" y="117.343786" style="fill: #33991a"/>
    </g>
    <g clip-path="url(#pe7b53bb2cf)">
     <use xlink:href="#C0_0_79b08cd696" x="314.175048" y="111.886724" style="fill: #33991a"/>
    </g>
    <g clip-path="url(#pe7b53bb2cf)">
     <use xlink:href="#C0_0_79b08cd696" x="317.898384" y="106.824188" style="fill: #33991a"/>
    </g>
    <g clip-path="url(#pe7b53bb2cf)">
     <use xlink:href="#C0_0_79b08cd696" x="321.621719" y="102.385168" style="fill: #33991a"/>
    </g>
    <g clip-path="url(#pe7b53bb2cf)">
     <use xlink:href="#C0_0_79b08cd696" x="325.345055" y="98.822539" style="fill: #33991a"/>
    </g>
    <g clip-path="url(#pe7b53bb2cf)">
     <use xlink:href="#C0_0_79b08cd696" x="329.06839" y="96.407228" style="fill: #33991a"/>
    </g>
    <g clip-path="url(#pe7b53bb2cf)">
     <use xlink:href="#C0_0_79b08cd696" x="332.791726" y="95.419861" style="fill: #33991a"/>
    </g>
    <g clip-path="url(#pe7b53bb2cf)">
     <use xlink:href="#C0_0_79b08cd696" x="336.515061" y="96.139684" style="fill: #33991a"/>
    </g>
    <g clip-path="url(#pe7b53bb2cf)">
     <use xlink:href="#C0_0_79b08cd696" x="340.238397" y="98.830668" style="fill: #33991a"/>
    </g>
    <g clip-path="url(#pe7b53bb2cf)">
     <use xlink:href="#C0_0_79b08cd696" x="343.961732" y="103.724858" style="fill: #33991a"/>
    </g>
    <g clip-path="url(#pe7b53bb2cf)">
     <use xlink:href="#C0_0_79b08cd696" x="347.685068" y="111.003291" style="fill: #33991a"/>
    </g>
    <g clip-path="url(#pe7b53bb2cf)">
     <use xlink:href="#C0_0_79b08cd696" x="351.408403" y="120.77504" style="fill: #33991a"/>
    </g>
    <g clip-path="url(#pe7b53bb2cf)">
     <use xlink:href="#C0_0_79b08cd696" x="355.131739" y="133.055292" style="fill: #33991a"/>
    </g>
    <g clip-path="url(#pe7b53bb2cf)">
     <use xlink:href="#C0_0_79b08cd696" x="358.855074" y="147.74369" style="fill: #33991a"/>
    </g>
    <g clip-path="url(#pe7b53bb2cf)">
     <use xlink:href="#C0_0_79b08cd696" x="362.57841" y="164.604552" style="fill: #33991a"/>
    </g>
    <g clip-path="url(#pe7b53bb2cf)">
     <use xlink:href="#C0_0_79b08cd696" x="366.301745" y="183.250881" style="fill: #33991a"/>
    </g>
    <g clip-path="url(#pe7b53bb2cf)">
     <use xlink:href="#C0_0_79b08cd696" x="370.025081" y="203.134409" style="fill: #33991a"/>
    </g>
    <g clip-path="url(#pe7b53bb2cf)">
     <use xlink:href="#C0_0_79b08cd696" x="373.748416" y="223.544014" style="fill: #33991a"/>
    </g>
    <g clip-path="url(#pe7b53bb2cf)">
     <use xlink:href="#C0_0_79b08cd696" x="377.471752" y="243.614926" style="fill: #33991a"/>
    </g>
    <g clip-path="url(#pe7b53bb2cf)">
     <use xlink:href="#C0_0_79b08cd696" x="381.195087" y="262.350874" style="fill: #33991a"/>
    </g>
    <g clip-path="url(#pe7b53bb2cf)">
     <use xlink:href="#C0_0_79b08cd696" x="384.918423" y="278.660875" style="fill: #33991a"/>
    </g>
    <g clip-path="url(#pe7b53bb2cf)">
     <use xlink:href="#C0_0_79b08cd696" x="388.641758" y="291.411538" style="fill: #33991a"/>
    </g>
    <g clip-path="url(#pe7b53bb2cf)">
     <use xlink:href="#C0_0_79b08cd696" x="392.365094" y="299.494662" style="fill: #33991a"/>
    </g>
    <g clip-path="url(#pe7b53bb2cf)">
     <use xlink:href="#C0_0_79b08cd696" x="396.088429" y="301.908416" style="fill: #33991a"/>
    </g>
    <g clip-path="url(#pe7b53bb2cf)">
     <use xlink:href="#C0_0_79b08cd696" x="399.811765" y="297.848653" style="fill: #33991a"/>
    </g>
    <g clip-path="url(#pe7b53bb2cf)">
     <use xlink:href="#C0_0_79b08cd696" x="403.5351" y="286.805005" style="fill: #33991a"/>
    </g>
    <g clip-path="url(#pe7b53bb2cf)">
     <use xlink:href="#C0_0_79b08cd696" x="407.258436" y="268.65442" style="fill: #33991a"/>
    </g>
    <g clip-path="url(#pe7b53bb2cf)">
     <use xlink:href="#C0_0_79b08cd696" x="410.981771" y="243.743059" style="fill: #33991a"/>
    </g>
    <g clip-path="url(#pe7b53bb2cf)">
     <use xlink:href="#C0_0_79b08cd696" x="414.705107" y="212.946117" style="fill: #33991a"/>
    </g>
    <g clip-path="url(#pe7b53bb2cf)">
     <use xlink:href="#C0_0_79b08cd696" x="418.428442" y="177.694568" style="fill: #33991a"/>
    </g>
    <g clip-path="url(#pe7b53bb2cf)">
     <use xlink:href="#C0_0_79b08cd696" x="422.151778" y="139.958268" style="fill: #33991a"/>
    </g>
    <g clip-path="url(#pe7b53bb2cf)">
     <use xlink:href="#C0_0_79b08cd696" x="425.875113" y="102.176651" style="fill: #33991a"/>
    </g>
    <g clip-path="url(#pe7b53bb2cf)">
     <use xlink:href="#C0_0_79b08cd696" x="429.598449" y="67.131567" style="fill: #33991a"/>
    </g>
    <g clip-path="url(#pe7b53bb2cf)">
     <use xlink:href="#C0_0_79b08cd696" x="433.321784" y="37.761698" style="fill: #33991a"/>
    </g>
    <g clip-path="url(#pe7b53bb2cf)">
     <use xlink:href="#C0_0_79b08cd696" x="437.04512" y="16.924363" style="fill: #33991a"/>
    </g>
    <g clip-path="url(#pe7b53bb2cf)">
     <use xlink:href="#C0_0_79b08cd696" x="440.768455" y="7.117992" style="fill: #33991a"/>
    </g>
    <g clip-path="url(#pe7b53bb2cf)">
     <use xlink:href="#C0_0_79b08cd696" x="444.491791" y="10.186466" style="fill: #33991a"/>
    </g>
    <g clip-path="url(#pe7b53bb2cf)">
     <use xlink:href="#C0_0_79b08cd696" x="448.215126" y="27.034008" style="fill: #33991a"/>
    </g>
    <g clip-path="url(#pe7b53bb2cf)">
     <use xlink:href="#C0_0_79b08cd696" x="451.938462" y="57.385153" style="fill: #33991a"/>
    </g>
   </g>
   <g id="matplotlib.axis_1">
    <g id="xtick_1">
     <g id="line2d_1">
      <defs>
       <path id="m1fd378796d" d="M 0 0 
L 0 3.5 
" style="stroke: #000000; stroke-width: 0.8"/>
      </defs>
      <g>
       <use xlink:href="#m1fd378796d" x="8.861538" y="172.786281" style="stroke: #000000; stroke-width: 0.8"/>
      </g>
     </g>
     <g id="text_1">
      <!-- −3 -->
      <g transform="translate(1.490445 187.384718) scale(0.1 -0.1)">
       <defs>
        <path id="DejaVuSans-2212" d="M 678 2272 
L 4684 2272 
L 4684 1741 
L 678 1741 
L 678 2272 
z
" transform="scale(0.015625)"/>
        <path id="DejaVuSans-33" d="M 2597 2516 
Q 3050 2419 3304 2112 
Q 3559 1806 3559 1356 
Q 3559 666 3084 287 
Q 2609 -91 1734 -91 
Q 1441 -91 1130 -33 
Q 819 25 488 141 
L 488 750 
Q 750 597 1062 519 
Q 1375 441 1716 441 
Q 2309 441 2620 675 
Q 2931 909 2931 1356 
Q 2931 1769 2642 2001 
Q 2353 2234 1838 2234 
L 1294 2234 
L 1294 2753 
L 1863 2753 
Q 2328 2753 2575 2939 
Q 2822 3125 2822 3475 
Q 2822 3834 2567 4026 
Q 2313 4219 1838 4219 
Q 1578 4219 1281 4162 
Q 984 4106 628 3988 
L 628 4550 
Q 988 4650 1302 4700 
Q 1616 4750 1894 4750 
Q 2613 4750 3031 4423 
Q 3450 4097 3450 3541 
Q 3450 3153 3228 2886 
Q 3006 2619 2597 2516 
z
" transform="scale(0.015625)"/>
       </defs>
       <use xlink:href="#DejaVuSans-2212"/>
       <use xlink:href="#DejaVuSans-33" transform="translate(83.789062 0)"/>
      </g>
     </g>
    </g>
    <g id="xtick_2">
     <g id="line2d_2">
      <g>
       <use xlink:href="#m1fd378796d" x="83.328248" y="172.786281" style="stroke: #000000; stroke-width: 0.8"/>
      </g>
     </g>
     <g id="text_2">
      <!-- −2 -->
      <g transform="translate(75.957154 187.384718) scale(0.1 -0.1)">
       <defs>
        <path id="DejaVuSans-32" d="M 1228 531 
L 3431 531 
L 3431 0 
L 469 0 
L 469 531 
Q 828 903 1448 1529 
Q 2069 2156 2228 2338 
Q 2531 2678 2651 2914 
Q 2772 3150 2772 3378 
Q 2772 3750 2511 3984 
Q 2250 4219 1831 4219 
Q 1534 4219 1204 4116 
Q 875 4013 500 3803 
L 500 4441 
Q 881 4594 1212 4672 
Q 1544 4750 1819 4750 
Q 2544 4750 2975 4387 
Q 3406 4025 3406 3419 
Q 3406 3131 3298 2873 
Q 3191 2616 2906 2266 
Q 2828 2175 2409 1742 
Q 1991 1309 1228 531 
z
" transform="scale(0.015625)"/>
       </defs>
       <use xlink:href="#DejaVuSans-2212"/>
       <use xlink:href="#DejaVuSans-32" transform="translate(83.789062 0)"/>
      </g>
     </g>
    </g>
    <g id="xtick_3">
     <g id="line2d_3">
      <g>
       <use xlink:href="#m1fd378796d" x="157.794958" y="172.786281" style="stroke: #000000; stroke-width: 0.8"/>
      </g>
     </g>
     <g id="text_3">
      <!-- −1 -->
      <g transform="translate(150.423864 187.384718) scale(0.1 -0.1)">
       <defs>
        <path id="DejaVuSans-31" d="M 794 531 
L 1825 531 
L 1825 4091 
L 703 3866 
L 703 4441 
L 1819 4666 
L 2450 4666 
L 2450 531 
L 3481 531 
L 3481 0 
L 794 0 
L 794 531 
z
" transform="scale(0.015625)"/>
       </defs>
       <use xlink:href="#DejaVuSans-2212"/>
       <use xlink:href="#DejaVuSans-31" transform="translate(83.789062 0)"/>
      </g>
     </g>
    </g>
    <g id="xtick_4">
     <g id="line2d_4">
      <g>
       <use xlink:href="#m1fd378796d" x="232.261668" y="172.786281" style="stroke: #000000; stroke-width: 0.8"/>
      </g>
     </g>
    </g>
    <g id="xtick_5">
     <g id="line2d_5">
      <g>
       <use xlink:href="#m1fd378796d" x="306.728378" y="172.786281" style="stroke: #000000; stroke-width: 0.8"/>
      </g>
     </g>
     <g id="text_4">
      <!-- 1 -->
      <g transform="translate(303.547128 187.384718) scale(0.1 -0.1)">
       <use xlink:href="#DejaVuSans-31"/>
      </g>
     </g>
    </g>
    <g id="xtick_6">
     <g id="line2d_6">
      <g>
       <use xlink:href="#m1fd378796d" x="381.195087" y="172.786281" style="stroke: #000000; stroke-width: 0.8"/>
      </g>
     </g>
     <g id="text_5">
      <!-- 2 -->
      <g transform="translate(378.013837 187.384718) scale(0.1 -0.1)">
       <use xlink:href="#DejaVuSans-32"/>
      </g>
     </g>
    </g>
    <g id="xtick_7">
     <g id="line2d_7">
      <g>
       <use xlink:href="#m1fd378796d" x="455.661797" y="172.786281" style="stroke: #000000; stroke-width: 0.8"/>
      </g>
     </g>
     <g id="text_6">
      <!-- 3 -->
      <g transform="translate(452.480547 187.384718) scale(0.1 -0.1)">
       <use xlink:href="#DejaVuSans-33"/>
      </g>
     </g>
    </g>
    <g id="xtick_8">
     <g id="line2d_8">
      <defs>
       <path id="mfb4960abe1" d="M 0 0 
L 0 2 
" style="stroke: #000000; stroke-width: 0.6"/>
      </defs>
      <g>
       <use xlink:href="#mfb4960abe1" x="23.75488" y="172.786281" style="stroke: #000000; stroke-width: 0.6"/>
      </g>
     </g>
    </g>
    <g id="xtick_9">
     <g id="line2d_9">
      <g>
       <use xlink:href="#mfb4960abe1" x="38.648222" y="172.786281" style="stroke: #000000; stroke-width: 0.6"/>
      </g>
     </g>
    </g>
    <g id="xtick_10">
     <g id="line2d_10">
      <g>
       <use xlink:href="#mfb4960abe1" x="53.541564" y="172.786281" style="stroke: #000000; stroke-width: 0.6"/>
      </g>
     </g>
    </g>
    <g id="xtick_11">
     <g id="line2d_11">
      <g>
       <use xlink:href="#mfb4960abe1" x="68.434906" y="172.786281" style="stroke: #000000; stroke-width: 0.6"/>
      </g>
     </g>
    </g>
    <g id="xtick_12">
     <g id="line2d_12">
      <g>
       <use xlink:href="#mfb4960abe1" x="98.22159" y="172.786281" style="stroke: #000000; stroke-width: 0.6"/>
      </g>
     </g>
    </g>
    <g id="xtick_13">
     <g id="line2d_13">
      <g>
       <use xlink:href="#mfb4960abe1" x="113.114932" y="172.786281" style="stroke: #000000; stroke-width: 0.6"/>
      </g>
     </g>
    </g>
    <g id="xtick_14">
     <g id="line2d_14">
      <g>
       <use xlink:href="#mfb4960abe1" x="128.008274" y="172.786281" style="stroke: #000000; stroke-width: 0.6"/>
      </g>
     </g>
    </g>
    <g id="xtick_15">
     <g id="line2d_15">
      <g>
       <use xlink:href="#mfb4960abe1" x="142.901616" y="172.786281" style="stroke: #000000; stroke-width: 0.6"/>
      </g>
     </g>
    </g>
    <g id="xtick_16">
     <g id="line2d_16">
      <g>
       <use xlink:href="#mfb4960abe1" x="172.6883" y="172.786281" style="stroke: #000000; stroke-width: 0.6"/>
      </g>
     </g>
    </g>
    <g id="xtick_17">
     <g id="line2d_17">
      <g>
       <use xlink:href="#mfb4960abe1" x="187.581642" y="172.786281" style="stroke: #000000; stroke-width: 0.6"/>
      </g>
     </g>
    </g>
    <g id="xtick_18">
     <g id="line2d_18">
      <g>
       <use xlink:href="#mfb4960abe1" x="202.474984" y="172.786281" style="stroke: #000000; stroke-width: 0.6"/>
      </g>
     </g>
    </g>
    <g id="xtick_19">
     <g id="line2d_19">
      <g>
       <use xlink:href="#mfb4960abe1" x="217.368326" y="172.786281" style="stroke: #000000; stroke-width: 0.6"/>
      </g>
     </g>
    </g>
    <g id="xtick_20">
     <g id="line2d_20">
      <g>
       <use xlink:href="#mfb4960abe1" x="247.15501" y="172.786281" style="stroke: #000000; stroke-width: 0.6"/>
      </g>
     </g>
    </g>
    <g id="xtick_21">
     <g id="line2d_21">
      <g>
       <use xlink:href="#mfb4960abe1" x="262.048352" y="172.786281" style="stroke: #000000; stroke-width: 0.6"/>
      </g>
     </g>
    </g>
    <g id="xtick_22">
     <g id="line2d_22">
      <g>
       <use xlink:href="#mfb4960abe1" x="276.941694" y="172.786281" style="stroke: #000000; stroke-width: 0.6"/>
      </g>
     </g>
    </g>
    <g id="xtick_23">
     <g id="line2d_23">
      <g>
       <use xlink:href="#mfb4960abe1" x="291.835036" y="172.786281" style="stroke: #000000; stroke-width: 0.6"/>
      </g>
     </g>
    </g>
    <g id="xtick_24">
     <g id="line2d_24">
      <g>
       <use xlink:href="#mfb4960abe1" x="321.621719" y="172.786281" style="stroke: #000000; stroke-width: 0.6"/>
      </g>
     </g>
    </g>
    <g id="xtick_25">
     <g id="line2d_25">
      <g>
       <use xlink:href="#mfb4960abe1" x="336.515061" y="172.786281" style="stroke: #000000; stroke-width: 0.6"/>
      </g>
     </g>
    </g>
    <g id="xtick_26">
     <g id="line2d_26">
      <g>
       <use xlink:href="#mfb4960abe1" x="351.408403" y="172.786281" style="stroke: #000000; stroke-width: 0.6"/>
      </g>
     </g>
    </g>
    <g id="xtick_27">
     <g id="line2d_27">
      <g>
       <use xlink:href="#mfb4960abe1" x="366.301745" y="172.786281" style="stroke: #000000; stroke-width: 0.6"/>
      </g>
     </g>
    </g>
    <g id="xtick_28">
     <g id="line2d_28">
      <g>
       <use xlink:href="#mfb4960abe1" x="396.088429" y="172.786281" style="stroke: #000000; stroke-width: 0.6"/>
      </g>
     </g>
    </g>
    <g id="xtick_29">
     <g id="line2d_29">
      <g>
       <use xlink:href="#mfb4960abe1" x="410.981771" y="172.786281" style="stroke: #000000; stroke-width: 0.6"/>
      </g>
     </g>
    </g>
    <g id="xtick_30">
     <g id="line2d_30">
      <g>
       <use xlink:href="#mfb4960abe1" x="425.875113" y="172.786281" style="stroke: #000000; stroke-width: 0.6"/>
      </g>
     </g>
    </g>
    <g id="xtick_31">
     <g id="line2d_31">
      <g>
       <use xlink:href="#mfb4960abe1" x="440.768455" y="172.786281" style="stroke: #000000; stroke-width: 0.6"/>
      </g>
     </g>
    </g>
   </g>
   <g id="matplotlib.axis_2">
    <g id="ytick_1">
     <g id="line2d_32">
      <defs>
       <path id="m45c7d16547" d="M 0 0 
L -3.5 0 
" style="stroke: #000000; stroke-width: 0.8"/>
      </defs>
      <g>
       <use xlink:href="#m45c7d16547" x="232.261668" y="291.132341" style="stroke: #000000; stroke-width: 0.8"/>
      </g>
     </g>
     <g id="text_7">
      <!-- −2 -->
      <g transform="translate(210.51948 294.931559) scale(0.1 -0.1)">
       <use xlink:href="#DejaVuSans-2212"/>
       <use xlink:href="#DejaVuSans-32" transform="translate(83.789062 0)"/>
      </g>
     </g>
    </g>
    <g id="ytick_2">
     <g id="line2d_33">
      <g>
       <use xlink:href="#m45c7d16547" x="232.261668" y="231.959311" style="stroke: #000000; stroke-width: 0.8"/>
      </g>
     </g>
     <g id="text_8">
      <!-- −1 -->
      <g transform="translate(210.51948 235.75853) scale(0.1 -0.1)">
       <use xlink:href="#DejaVuSans-2212"/>
       <use xlink:href="#DejaVuSans-31" transform="translate(83.789062 0)"/>
      </g>
     </g>
    </g>
    <g id="ytick_3">
     <g id="line2d_34">
      <g>
       <use xlink:href="#m45c7d16547" x="232.261668" y="172.786281" style="stroke: #000000; stroke-width: 0.8"/>
      </g>
     </g>
    </g>
    <g id="ytick_4">
     <g id="line2d_35">
      <g>
       <use xlink:href="#m45c7d16547" x="232.261668" y="113.613251" style="stroke: #000000; stroke-width: 0.8"/>
      </g>
     </g>
     <g id="text_9">
      <!-- 1 -->
      <g transform="translate(218.899168 117.41247) scale(0.1 -0.1)">
       <use xlink:href="#DejaVuSans-31"/>
      </g>
     </g>
    </g>
    <g id="ytick_5">
     <g id="line2d_36">
      <g>
       <use xlink:href="#m45c7d16547" x="232.261668" y="54.440221" style="stroke: #000000; stroke-width: 0.8"/>
      </g>
     </g>
     <g id="text_10">
      <!-- 2 -->
      <g transform="translate(218.899168 58.23944) scale(0.1 -0.1)">
       <use xlink:href="#DejaVuSans-32"/>
      </g>
     </g>
    </g>
    <g id="ytick_6">
     <g id="line2d_37">
      <defs>
       <path id="mdbba4302fc" d="M 0 0 
L -2 0 
" style="stroke: #000000; stroke-width: 0.6"/>
      </defs>
      <g>
       <use xlink:href="#mdbba4302fc" x="232.261668" y="338.470765" style="stroke: #000000; stroke-width: 0.6"/>
      </g>
     </g>
    </g>
    <g id="ytick_7">
     <g id="line2d_38">
      <g>
       <use xlink:href="#mdbba4302fc" x="232.261668" y="326.636159" style="stroke: #000000; stroke-width: 0.6"/>
      </g>
     </g>
    </g>
    <g id="ytick_8">
     <g id="line2d_39">
      <g>
       <use xlink:href="#mdbba4302fc" x="232.261668" y="314.801553" style="stroke: #000000; stroke-width: 0.6"/>
      </g>
     </g>
    </g>
    <g id="ytick_9">
     <g id="line2d_40">
      <g>
       <use xlink:href="#mdbba4302fc" x="232.261668" y="302.966947" style="stroke: #000000; stroke-width: 0.6"/>
      </g>
     </g>
    </g>
    <g id="ytick_10">
     <g id="line2d_41">
      <g>
       <use xlink:href="#mdbba4302fc" x="232.261668" y="279.297735" style="stroke: #000000; stroke-width: 0.6"/>
      </g>
     </g>
    </g>
    <g id="ytick_11">
     <g id="line2d_42">
      <g>
       <use xlink:href="#mdbba4302fc" x="232.261668" y="267.463129" style="stroke: #000000; stroke-width: 0.6"/>
      </g>
     </g>
    </g>
    <g id="ytick_12">
     <g id="line2d_43">
      <g>
       <use xlink:href="#mdbba4302fc" x="232.261668" y="255.628523" style="stroke: #000000; stroke-width: 0.6"/>
      </g>
     </g>
    </g>
    <g id="ytick_13">
     <g id="line2d_44">
      <g>
       <use xlink:href="#mdbba4302fc" x="232.261668" y="243.793917" style="stroke: #000000; stroke-width: 0.6"/>
      </g>
     </g>
    </g>
    <g id="ytick_14">
     <g id="line2d_45">
      <g>
       <use xlink:href="#mdbba4302fc" x="232.261668" y="220.124705" style="stroke: #000000; stroke-width: 0.6"/>
      </g>
     </g>
    </g>
    <g id="ytick_15">
     <g id="line2d_46">
      <g>
       <use xlink:href="#mdbba4302fc" x="232.261668" y="208.290099" style="stroke: #000000; stroke-width: 0.6"/>
      </g>
     </g>
    </g>
    <g id="ytick_16">
     <g id="line2d_47">
      <g>
       <use xlink:href="#mdbba4302fc" x="232.261668" y="196.455493" style="stroke: #000000; stroke-width: 0.6"/>
      </g>
     </g>
    </g>
    <g id="ytick_17">
     <g id="line2d_48">
      <g>
       <use xlink:href="#mdbba4302fc" x="232.261668" y="184.620887" style="stroke: #000000; stroke-width: 0.6"/>
      </g>
     </g>
    </g>
    <g id="ytick_18">
     <g id="line2d_49">
      <g>
       <use xlink:href="#mdbba4302fc" x="232.261668" y="160.951675" style="stroke: #000000; stroke-width: 0.6"/>
      </g>
     </g>
    </g>
    <g id="ytick_19">
     <g id="line2d_50">
      <g>
       <use xlink:href="#mdbba4302fc" x="232.261668" y="149.117069" style="stroke: #000000; stroke-width: 0.6"/>
      </g>
     </g>
    </g>
    <g id="ytick_20">
     <g id="line2d_51">
      <g>
       <use xlink:href="#mdbba4302fc" x="232.261668" y="137.282463" style="stroke: #000000; stroke-width: 0.6"/>
      </g>
     </g>
    </g>
    <g id="ytick_21">
     <g id="line2d_52">
      <g>
       <use xlink:href="#mdbba4302fc" x="232.261668" y="125.447857" style="stroke: #000000; stroke-width: 0.6"/>
      </g>
     </g>
    </g>
    <g id="ytick_22">
     <g id="line2d_53">
      <g>
       <use xlink:href="#mdbba4302fc" x="232.261668" y="101.778645" style="stroke: #000000; stroke-width: 0.6"/>
      </g>
     </g>
    </g>
    <g id="ytick_23">
     <g id="line2d_54">
      <g>
       <use xlink:href="#mdbba4302fc" x="232.261668" y="89.944039" style="stroke: #000000; stroke-width: 0.6"/>
      </g>
     </g>
    </g>
    <g id="ytick_24">
     <g id="line2d_55">
      <g>
       <use xlink:href="#mdbba4302fc" x="232.261668" y="78.109433" style="stroke: #000000; stroke-width: 0.6"/>
      </g>
     </g>
    </g>
    <g id="ytick_25">
     <g id="line2d_56">
      <g>
       <use xlink:href="#mdbba4302fc" x="232.261668" y="66.274827" style="stroke: #000000; stroke-width: 0.6"/>
      </g>
     </g>
    </g>
    <g id="ytick_26">
     <g id="line2d_57">
      <g>
       <use xlink:href="#mdbba4302fc" x="232.261668" y="42.605615" style="stroke: #000000; stroke-width: 0.6"/>
      </g>
     </g>
    </g>
    <g id="ytick_27">
     <g id="line2d_58">
      <g>
       <use xlink:href="#mdbba4302fc" x="232.261668" y="30.771009" style="stroke: #000000; stroke-width: 0.6"/>
      </g>
     </g>
    </g>
    <g id="ytick_28">
     <g id="line2d_59">
      <g>
       <use xlink:href="#mdbba4302fc" x="232.261668" y="18.936403" style="stroke: #000000; stroke-width: 0.6"/>
      </g>
     </g>
    </g>
    <g id="ytick_29">
     <g id="line2d_60">
      <g>
       <use xlink:href="#mdbba4302fc" x="232.261668" y="7.101797" style="stroke: #000000; stroke-width: 0.6"/>
      </g>
     </g>
    </g>
   </g>
   <g id="line2d_61">
    <path d="M 11.021875 271.389263 
L 12.762075 289.950221 
L 14.04195 301.717435 
L 15.416984 312.520058 
L 16.788472 321.468955 
L 17.816201 326.998237 
L 18.976854 332.003707 
L 19.822784 334.805969 
L 20.668713 336.882653 
L 21.440449 338.148636 
L 22.063799 338.740658 
L 22.687148 338.953846 
L 23.102714 338.888215 
L 23.51828 338.658272 
L 24.141629 338.008949 
L 24.868507 336.799496 
L 25.80244 334.551636 
L 26.736373 331.550171 
L 27.785566 327.315421 
L 28.83287 322.222783 
L 30.229275 314.18466 
L 31.884982 302.97774 
L 33.695973 288.905803 
L 35.901836 269.674812 
L 38.424067 245.612141 
L 42.283853 206.514098 
L 47.148178 157.559706 
L 50.013062 130.889731 
L 52.272143 111.729509 
L 54.270044 96.45774 
L 56.287197 82.831845 
L 58.126393 72.097165 
L 59.482316 65.26216 
L 61.059003 58.4911 
L 62.397564 53.749613 
L 63.462577 50.636038 
L 64.521756 48.115239 
L 65.503198 46.288546 
L 66.406905 45.032983 
L 67.310612 44.17855 
L 68.214319 43.717721 
L 68.950693 43.627902 
L 69.804256 43.837048 
L 70.572421 44.305055 
L 71.340587 45.030642 
L 72.108752 46.006607 
L 72.876917 47.225509 
L 73.941319 49.299914 
L 75.338895 52.667053 
L 76.338419 55.495934 
L 78.218005 61.685775 
L 80.184087 69.243687 
L 82.220635 78.065366 
L 84.862722 90.71295 
L 87.88877 106.391289 
L 93.823787 138.756617 
L 98.439603 163.453666 
L 101.695447 179.769195 
L 104.521898 192.853922 
L 107.055138 203.56936 
L 109.297073 212.173463 
L 111.316809 219.176599 
L 113.194153 225.031687 
L 115.043988 230.174625 
L 116.96834 234.865176 
L 118.502922 238.126749 
L 120.037504 240.970687 
L 121.694914 243.582583 
L 123.151898 245.495155 
L 124.594819 247.046989 
L 125.835403 248.117704 
L 127.141822 248.991742 
L 128.514076 249.640742 
L 129.985375 250.044256 
L 131.509074 250.160364 
L 132.986127 249.996984 
L 134.391617 249.605304 
L 135.725546 249.034516 
L 137.427779 248.045499 
L 139.385598 246.579253 
L 141.439353 244.705757 
L 143.926368 242.042009 
L 146.472418 238.944127 
L 149.946217 234.255385 
L 154.760124 227.193035 
L 167.039875 208.757359 
L 171.254512 202.935048 
L 175.37883 197.689294 
L 179.210218 193.275311 
L 183.131875 189.247836 
L 187.177417 185.625638 
L 189.340822 183.909362 
L 192.071233 181.957916 
L 195.560626 179.80073 
L 198.439545 178.291257 
L 201.771637 176.829015 
L 205.144469 175.635324 
L 207.944209 174.842973 
L 212.287532 173.927233 
L 216.209673 173.378754 
L 220.423176 173.024009 
L 225.071233 172.839553 
L 245.178272 172.477523 
L 250.075404 171.97669 
L 254.439313 171.225241 
L 257.308986 170.539325 
L 261.527162 169.208803 
L 265.061774 167.761289 
L 268.297639 166.141664 
L 270.53849 164.843345 
L 273.948888 162.574197 
L 277.245334 160.030106 
L 280.741508 156.943203 
L 283.603859 154.114761 
L 287.49553 149.839581 
L 291.329883 145.164216 
L 295.100863 140.158714 
L 299.220274 134.303691 
L 305.034276 125.580747 
L 312.354665 114.518545 
L 315.845734 109.553195 
L 319.425643 104.913996 
L 322.361245 101.5994 
L 324.167657 99.838178 
L 325.974069 98.326353 
L 327.844962 97.057129 
L 329.462863 96.230069 
L 331.072502 95.680363 
L 332.682141 95.425882 
L 333.891429 95.442571 
L 335.100717 95.647916 
L 336.247989 96.025426 
L 337.395262 96.588699 
L 338.385694 97.229884 
L 339.880025 98.479207 
L 341.374356 100.080887 
L 343.201314 102.53662 
L 344.625219 104.843155 
L 346.049123 107.502974 
L 347.688511 111.011165 
L 349.280678 114.882594 
L 350.872846 119.214285 
L 353.205908 126.393929 
L 355.391817 134.005023 
L 357.576519 142.440306 
L 359.841748 152.013553 
L 362.164622 162.634171 
L 365.318743 178.182748 
L 369.633531 201.00511 
L 378.823833 250.628915 
L 381.523119 263.901639 
L 383.543512 272.992208 
L 385.75605 281.879915 
L 387.573074 288.181924 
L 389.14296 292.794901 
L 390.349441 295.761824 
L 391.353973 297.820933 
L 392.358505 299.485095 
L 393.441826 300.814977 
L 394.525147 301.642062 
L 395.184363 301.890686 
L 395.843579 301.941094 
L 396.783489 301.661509 
L 397.723398 300.960031 
L 398.663307 299.828182 
L 399.603216 298.257497 
L 400.46195 296.432 
L 401.320683 294.230299 
L 402.703728 289.889174 
L 404.142738 284.324646 
L 405.581748 277.695848 
L 407.082205 269.670589 
L 408.783518 259.229489 
L 410.610306 246.511232 
L 412.409372 232.563556 
L 414.771993 212.347021 
L 417.420938 187.569249 
L 420.53609 156.49063 
L 427.515732 86.224747 
L 429.629526 66.858837 
L 431.563571 50.736731 
L 433.368252 37.443464 
L 434.941513 27.493978 
L 436.353724 20.029942 
L 437.412883 15.427039 
L 438.53673 11.543154 
L 439.307525 9.505387 
L 440.068048 8.01584 
L 440.808031 7.081134 
L 441.301353 6.747402 
L 441.794675 6.646154 
L 442.223774 6.746854 
L 442.652873 7.022925 
L 443.296521 7.76532 
L 443.94017 8.900934 
L 444.798368 11.025721 
L 445.584813 13.600023 
L 446.656851 18.139816 
L 447.615194 23.273204 
L 448.765205 30.858073 
L 450.155569 41.807403 
L 450.58759 45.481857 
L 450.58759 45.481857 
" clip-path="url(#pe7b53bb2cf)" style="fill: none; stroke: #0000ff; stroke-linecap: square"/>
   </g>
   <g id="patch_3">
    <path d="M 232.261668 345.6 
L 232.261668 0 
" style="fill: none; stroke: #000000; stroke-width: 0.8; stroke-linejoin: miter; stroke-linecap: square"/>
   </g>
   <g id="patch_4">
    <path d="M 0 172.786281 
L 460.8 172.786281 
" style="fill: none; stroke: #000000; stroke-width: 0.8; stroke-linejoin: miter; stroke-linecap: square"/>
   </g>
  </g>
 </g>
 <defs>
  <clipPath id="pe7b53bb2cf">
   <rect x="0" y="0" width="460.8" height="345.6"/>
  </clipPath>
 </defs>
</svg>
