<?xml version="1.0" encoding="utf-8" standalone="no"?>
<!DOCTYPE svg PUBLIC "-//W3C//DTD SVG 1.1//EN"
  "http://www.w3.org/Graphics/SVG/1.1/DTD/svg11.dtd">
<svg xmlns:xlink="http://www.w3.org/1999/xlink" width="460.8pt" height="345.6pt" viewBox="0 0 460.8 345.6" xmlns="http://www.w3.org/2000/svg" version="1.1">
 <metadata>
  <rdf:RDF xmlns:dc="http://purl.org/dc/elements/1.1/" xmlns:cc="http://creativecommons.org/ns#" xmlns:rdf="http://www.w3.org/1999/02/22-rdf-syntax-ns#">
   <cc:Work>
    <dc:type rdf:resource="http://purl.org/dc/dcmitype/StillImage"/>
    <dc:date>2025-08-07T23:34:13.207067</dc:date>
    <dc:format>image/svg+xml</dc:format>
    <dc:creator>
     <cc:Agent>
      <dc:title>Matplotlib v3.10.3, https://matplotlib.org/</dc:title>
     </cc:Agent>
    </dc:creator>
   </cc:Work>
  </rdf:RDF>
 </metadata>
 <defs>
  <style type="text/css">*{stroke-linejoin: round; stroke-linecap: butt}</style>
 </defs>
 <g id="figure_1">
  <g id="patch_1">
   <path d="M 0 345.6 
L 460.8 345.6 
L 460.8 0 
L 0 0 
z
" style="fill: #ffffff"/>
  </g>
  <g id="axes_1">
   <g id="patch_2">
    <path d="M 57.601483 345.6 
L 403.198517 345.6 
L 403.198517 0 
L 57.601483 0 
z
" style="fill: #ffffff"/>
   </g>
   <g id="matplotlib.axis_1">
    <g id="xtick_1">
     <g id="line2d_1">
      <defs>
       <path id="m21e3655a58" d="M 0 0 
L 0 3.5 
" style="stroke: #000000; stroke-width: 0.8"/>
      </defs>
      <g>
       <use xlink:href="#m21e3655a58" x="64.24713" y="172.799011" style="stroke: #000000; stroke-width: 0.8"/>
      </g>
     </g>
     <g id="text_1">
      <!-- −1.0 -->
      <g transform="translate(52.105724 187.397449) scale(0.1 -0.1)">
       <defs>
        <path id="DejaVuSans-2212" d="M 678 2272 
L 4684 2272 
L 4684 1741 
L 678 1741 
L 678 2272 
z
" transform="scale(0.015625)"/>
        <path id="DejaVuSans-31" d="M 794 531 
L 1825 531 
L 1825 4091 
L 703 3866 
L 703 4441 
L 1819 4666 
L 2450 4666 
L 2450 531 
L 3481 531 
L 3481 0 
L 794 0 
L 794 531 
z
" transform="scale(0.015625)"/>
        <path id="DejaVuSans-2e" d="M 684 794 
L 1344 794 
L 1344 0 
L 684 0 
L 684 794 
z
" transform="scale(0.015625)"/>
        <path id="DejaVuSans-30" d="M 2034 4250 
Q 1547 4250 1301 3770 
Q 1056 3291 1056 2328 
Q 1056 1369 1301 889 
Q 1547 409 2034 409 
Q 2525 409 2770 889 
Q 3016 1369 3016 2328 
Q 3016 3291 2770 3770 
Q 2525 4250 2034 4250 
z
M 2034 4750 
Q 2819 4750 3233 4129 
Q 3647 3509 3647 2328 
Q 3647 1150 3233 529 
Q 2819 -91 2034 -91 
Q 1250 -91 836 529 
Q 422 1150 422 2328 
Q 422 3509 836 4129 
Q 1250 4750 2034 4750 
z
" transform="scale(0.015625)"/>
       </defs>
       <use xlink:href="#DejaVuSans-2212"/>
       <use xlink:href="#DejaVuSans-31" transform="translate(83.789062 0)"/>
       <use xlink:href="#DejaVuSans-2e" transform="translate(147.412109 0)"/>
       <use xlink:href="#DejaVuSans-30" transform="translate(179.199219 0)"/>
      </g>
     </g>
    </g>
    <g id="xtick_2">
     <g id="line2d_2">
      <g>
       <use xlink:href="#m21e3655a58" x="147.325183" y="172.799011" style="stroke: #000000; stroke-width: 0.8"/>
      </g>
     </g>
     <g id="text_2">
      <!-- −0.5 -->
      <g transform="translate(135.183777 187.397449) scale(0.1 -0.1)">
       <defs>
        <path id="DejaVuSans-35" d="M 691 4666 
L 3169 4666 
L 3169 4134 
L 1269 4134 
L 1269 2991 
Q 1406 3038 1543 3061 
Q 1681 3084 1819 3084 
Q 2600 3084 3056 2656 
Q 3513 2228 3513 1497 
Q 3513 744 3044 326 
Q 2575 -91 1722 -91 
Q 1428 -91 1123 -41 
Q 819 9 494 109 
L 494 744 
Q 775 591 1075 516 
Q 1375 441 1709 441 
Q 2250 441 2565 725 
Q 2881 1009 2881 1497 
Q 2881 1984 2565 2268 
Q 2250 2553 1709 2553 
Q 1456 2553 1204 2497 
Q 953 2441 691 2322 
L 691 4666 
z
" transform="scale(0.015625)"/>
       </defs>
       <use xlink:href="#DejaVuSans-2212"/>
       <use xlink:href="#DejaVuSans-30" transform="translate(83.789062 0)"/>
       <use xlink:href="#DejaVuSans-2e" transform="translate(147.412109 0)"/>
       <use xlink:href="#DejaVuSans-35" transform="translate(179.199219 0)"/>
      </g>
     </g>
    </g>
    <g id="xtick_3">
     <g id="line2d_3">
      <g>
       <use xlink:href="#m21e3655a58" x="230.403236" y="172.799011" style="stroke: #000000; stroke-width: 0.8"/>
      </g>
     </g>
    </g>
    <g id="xtick_4">
     <g id="line2d_4">
      <g>
       <use xlink:href="#m21e3655a58" x="313.481289" y="172.799011" style="stroke: #000000; stroke-width: 0.8"/>
      </g>
     </g>
     <g id="text_3">
      <!-- 0.5 -->
      <g transform="translate(305.529727 187.397449) scale(0.1 -0.1)">
       <use xlink:href="#DejaVuSans-30"/>
       <use xlink:href="#DejaVuSans-2e" transform="translate(63.623047 0)"/>
       <use xlink:href="#DejaVuSans-35" transform="translate(95.410156 0)"/>
      </g>
     </g>
    </g>
    <g id="xtick_5">
     <g id="line2d_5">
      <g>
       <use xlink:href="#m21e3655a58" x="396.559342" y="172.799011" style="stroke: #000000; stroke-width: 0.8"/>
      </g>
     </g>
     <g id="text_4">
      <!-- 1.0 -->
      <g transform="translate(388.60778 187.397449) scale(0.1 -0.1)">
       <use xlink:href="#DejaVuSans-31"/>
       <use xlink:href="#DejaVuSans-2e" transform="translate(63.623047 0)"/>
       <use xlink:href="#DejaVuSans-30" transform="translate(95.410156 0)"/>
      </g>
     </g>
    </g>
    <g id="xtick_6">
     <g id="line2d_6">
      <defs>
       <path id="m5b2025a746" d="M 0 0 
L 0 2 
" style="stroke: #000000; stroke-width: 0.6"/>
      </defs>
      <g>
       <use xlink:href="#m5b2025a746" x="80.862741" y="172.799011" style="stroke: #000000; stroke-width: 0.6"/>
      </g>
     </g>
    </g>
    <g id="xtick_7">
     <g id="line2d_7">
      <g>
       <use xlink:href="#m5b2025a746" x="97.478351" y="172.799011" style="stroke: #000000; stroke-width: 0.6"/>
      </g>
     </g>
    </g>
    <g id="xtick_8">
     <g id="line2d_8">
      <g>
       <use xlink:href="#m5b2025a746" x="114.093962" y="172.799011" style="stroke: #000000; stroke-width: 0.6"/>
      </g>
     </g>
    </g>
    <g id="xtick_9">
     <g id="line2d_9">
      <g>
       <use xlink:href="#m5b2025a746" x="130.709573" y="172.799011" style="stroke: #000000; stroke-width: 0.6"/>
      </g>
     </g>
    </g>
    <g id="xtick_10">
     <g id="line2d_10">
      <g>
       <use xlink:href="#m5b2025a746" x="163.940794" y="172.799011" style="stroke: #000000; stroke-width: 0.6"/>
      </g>
     </g>
    </g>
    <g id="xtick_11">
     <g id="line2d_11">
      <g>
       <use xlink:href="#m5b2025a746" x="180.556404" y="172.799011" style="stroke: #000000; stroke-width: 0.6"/>
      </g>
     </g>
    </g>
    <g id="xtick_12">
     <g id="line2d_12">
      <g>
       <use xlink:href="#m5b2025a746" x="197.172015" y="172.799011" style="stroke: #000000; stroke-width: 0.6"/>
      </g>
     </g>
    </g>
    <g id="xtick_13">
     <g id="line2d_13">
      <g>
       <use xlink:href="#m5b2025a746" x="213.787626" y="172.799011" style="stroke: #000000; stroke-width: 0.6"/>
      </g>
     </g>
    </g>
    <g id="xtick_14">
     <g id="line2d_14">
      <g>
       <use xlink:href="#m5b2025a746" x="247.018847" y="172.799011" style="stroke: #000000; stroke-width: 0.6"/>
      </g>
     </g>
    </g>
    <g id="xtick_15">
     <g id="line2d_15">
      <g>
       <use xlink:href="#m5b2025a746" x="263.634457" y="172.799011" style="stroke: #000000; stroke-width: 0.6"/>
      </g>
     </g>
    </g>
    <g id="xtick_16">
     <g id="line2d_16">
      <g>
       <use xlink:href="#m5b2025a746" x="280.250068" y="172.799011" style="stroke: #000000; stroke-width: 0.6"/>
      </g>
     </g>
    </g>
    <g id="xtick_17">
     <g id="line2d_17">
      <g>
       <use xlink:href="#m5b2025a746" x="296.865679" y="172.799011" style="stroke: #000000; stroke-width: 0.6"/>
      </g>
     </g>
    </g>
    <g id="xtick_18">
     <g id="line2d_18">
      <g>
       <use xlink:href="#m5b2025a746" x="330.0969" y="172.799011" style="stroke: #000000; stroke-width: 0.6"/>
      </g>
     </g>
    </g>
    <g id="xtick_19">
     <g id="line2d_19">
      <g>
       <use xlink:href="#m5b2025a746" x="346.712511" y="172.799011" style="stroke: #000000; stroke-width: 0.6"/>
      </g>
     </g>
    </g>
    <g id="xtick_20">
     <g id="line2d_20">
      <g>
       <use xlink:href="#m5b2025a746" x="363.328121" y="172.799011" style="stroke: #000000; stroke-width: 0.6"/>
      </g>
     </g>
    </g>
    <g id="xtick_21">
     <g id="line2d_21">
      <g>
       <use xlink:href="#m5b2025a746" x="379.943732" y="172.799011" style="stroke: #000000; stroke-width: 0.6"/>
      </g>
     </g>
    </g>
   </g>
   <g id="matplotlib.axis_2">
    <g id="ytick_1">
     <g id="line2d_22">
      <defs>
       <path id="me8cbe2bea3" d="M 0 0 
L -3.5 0 
" style="stroke: #000000; stroke-width: 0.8"/>
      </defs>
      <g>
       <use xlink:href="#me8cbe2bea3" x="230.403236" y="338.955118" style="stroke: #000000; stroke-width: 0.8"/>
      </g>
     </g>
     <g id="text_5">
      <!-- −1.0 -->
      <g transform="translate(199.120424 342.754336) scale(0.1 -0.1)">
       <use xlink:href="#DejaVuSans-2212"/>
       <use xlink:href="#DejaVuSans-31" transform="translate(83.789062 0)"/>
       <use xlink:href="#DejaVuSans-2e" transform="translate(147.412109 0)"/>
       <use xlink:href="#DejaVuSans-30" transform="translate(179.199219 0)"/>
      </g>
     </g>
    </g>
    <g id="ytick_2">
     <g id="line2d_23">
      <g>
       <use xlink:href="#me8cbe2bea3" x="230.403236" y="255.877065" style="stroke: #000000; stroke-width: 0.8"/>
      </g>
     </g>
     <g id="text_6">
      <!-- −0.5 -->
      <g transform="translate(199.120424 259.676283) scale(0.1 -0.1)">
       <use xlink:href="#DejaVuSans-2212"/>
       <use xlink:href="#DejaVuSans-30" transform="translate(83.789062 0)"/>
       <use xlink:href="#DejaVuSans-2e" transform="translate(147.412109 0)"/>
       <use xlink:href="#DejaVuSans-35" transform="translate(179.199219 0)"/>
      </g>
     </g>
    </g>
    <g id="ytick_3">
     <g id="line2d_24">
      <g>
       <use xlink:href="#me8cbe2bea3" x="230.403236" y="172.799011" style="stroke: #000000; stroke-width: 0.8"/>
      </g>
     </g>
    </g>
    <g id="ytick_4">
     <g id="line2d_25">
      <g>
       <use xlink:href="#me8cbe2bea3" x="230.403236" y="89.720958" style="stroke: #000000; stroke-width: 0.8"/>
      </g>
     </g>
     <g id="text_7">
      <!-- 0.5 -->
      <g transform="translate(207.500111 93.520177) scale(0.1 -0.1)">
       <use xlink:href="#DejaVuSans-30"/>
       <use xlink:href="#DejaVuSans-2e" transform="translate(63.623047 0)"/>
       <use xlink:href="#DejaVuSans-35" transform="translate(95.410156 0)"/>
      </g>
     </g>
    </g>
    <g id="ytick_5">
     <g id="line2d_26">
      <g>
       <use xlink:href="#me8cbe2bea3" x="230.403236" y="6.642905" style="stroke: #000000; stroke-width: 0.8"/>
      </g>
     </g>
     <g id="text_8">
      <!-- 1.0 -->
      <g transform="translate(207.500111 10.442124) scale(0.1 -0.1)">
       <use xlink:href="#DejaVuSans-31"/>
       <use xlink:href="#DejaVuSans-2e" transform="translate(63.623047 0)"/>
       <use xlink:href="#DejaVuSans-30" transform="translate(95.410156 0)"/>
      </g>
     </g>
    </g>
    <g id="ytick_6">
     <g id="line2d_27">
      <defs>
       <path id="m981120adb1" d="M 0 0 
L -2 0 
" style="stroke: #000000; stroke-width: 0.6"/>
      </defs>
      <g>
       <use xlink:href="#m981120adb1" x="230.403236" y="322.339507" style="stroke: #000000; stroke-width: 0.6"/>
      </g>
     </g>
    </g>
    <g id="ytick_7">
     <g id="line2d_28">
      <g>
       <use xlink:href="#m981120adb1" x="230.403236" y="305.723896" style="stroke: #000000; stroke-width: 0.6"/>
      </g>
     </g>
    </g>
    <g id="ytick_8">
     <g id="line2d_29">
      <g>
       <use xlink:href="#m981120adb1" x="230.403236" y="289.108286" style="stroke: #000000; stroke-width: 0.6"/>
      </g>
     </g>
    </g>
    <g id="ytick_9">
     <g id="line2d_30">
      <g>
       <use xlink:href="#m981120adb1" x="230.403236" y="272.492675" style="stroke: #000000; stroke-width: 0.6"/>
      </g>
     </g>
    </g>
    <g id="ytick_10">
     <g id="line2d_31">
      <g>
       <use xlink:href="#m981120adb1" x="230.403236" y="239.261454" style="stroke: #000000; stroke-width: 0.6"/>
      </g>
     </g>
    </g>
    <g id="ytick_11">
     <g id="line2d_32">
      <g>
       <use xlink:href="#m981120adb1" x="230.403236" y="222.645843" style="stroke: #000000; stroke-width: 0.6"/>
      </g>
     </g>
    </g>
    <g id="ytick_12">
     <g id="line2d_33">
      <g>
       <use xlink:href="#m981120adb1" x="230.403236" y="206.030233" style="stroke: #000000; stroke-width: 0.6"/>
      </g>
     </g>
    </g>
    <g id="ytick_13">
     <g id="line2d_34">
      <g>
       <use xlink:href="#m981120adb1" x="230.403236" y="189.414622" style="stroke: #000000; stroke-width: 0.6"/>
      </g>
     </g>
    </g>
    <g id="ytick_14">
     <g id="line2d_35">
      <g>
       <use xlink:href="#m981120adb1" x="230.403236" y="156.183401" style="stroke: #000000; stroke-width: 0.6"/>
      </g>
     </g>
    </g>
    <g id="ytick_15">
     <g id="line2d_36">
      <g>
       <use xlink:href="#m981120adb1" x="230.403236" y="139.56779" style="stroke: #000000; stroke-width: 0.6"/>
      </g>
     </g>
    </g>
    <g id="ytick_16">
     <g id="line2d_37">
      <g>
       <use xlink:href="#m981120adb1" x="230.403236" y="122.95218" style="stroke: #000000; stroke-width: 0.6"/>
      </g>
     </g>
    </g>
    <g id="ytick_17">
     <g id="line2d_38">
      <g>
       <use xlink:href="#m981120adb1" x="230.403236" y="106.336569" style="stroke: #000000; stroke-width: 0.6"/>
      </g>
     </g>
    </g>
    <g id="ytick_18">
     <g id="line2d_39">
      <g>
       <use xlink:href="#m981120adb1" x="230.403236" y="73.105348" style="stroke: #000000; stroke-width: 0.6"/>
      </g>
     </g>
    </g>
    <g id="ytick_19">
     <g id="line2d_40">
      <g>
       <use xlink:href="#m981120adb1" x="230.403236" y="56.489737" style="stroke: #000000; stroke-width: 0.6"/>
      </g>
     </g>
    </g>
    <g id="ytick_20">
     <g id="line2d_41">
      <g>
       <use xlink:href="#m981120adb1" x="230.403236" y="39.874127" style="stroke: #000000; stroke-width: 0.6"/>
      </g>
     </g>
    </g>
    <g id="ytick_21">
     <g id="line2d_42">
      <g>
       <use xlink:href="#m981120adb1" x="230.403236" y="23.258516" style="stroke: #000000; stroke-width: 0.6"/>
      </g>
     </g>
    </g>
   </g>
   <g id="line2d_43">
    <path d="M 230.403236 172.799011 
L 243.699938 146.290897 
L 254.172185 125.750033 
L 265.212498 104.725377 
L 274.104318 88.474058 
L 281.951365 74.789672 
L 291.679187 58.885235 
L 294.719113 54.194656 
L 299.122505 47.665811 
L 305.250946 39.151917 
L 312.621708 29.904673 
L 316.614868 25.401315 
L 323.346658 18.714558 
L 329.668444 13.592012 
L 332.868165 11.475161 
L 335.146786 10.179073 
L 342.22467 7.381255 
L 346.276588 6.70498 
L 347.525428 6.646154 
L 351.344544 6.938389 
L 355.345324 8.072051 
L 359.816761 10.465534 
L 361.991418 12.108976 
L 364.37872 14.312576 
L 369.243986 20.259709 
L 371.380616 23.573323 
L 372.730298 25.916454 
L 376.085295 32.68349 
L 379.575662 41.397675 
L 382.940975 51.839407 
L 386.074891 63.954172 
L 388.470935 75.364957 
L 389.931118 83.582117 
L 391.773466 95.896421 
L 392.64523 102.783551 
L 394.005026 115.646323 
L 395.188654 130.553808 
L 395.991099 145.433048 
L 396.405088 158.496338 
L 396.545455 177.095036 
L 396.315211 190.780128 
L 396.004856 199.834504 
L 395.149487 215.63083 
L 394.606268 223.004058 
L 393.71684 232.957124 
L 392.756795 241.868605 
L 391.0554 254.812207 
L 389.643483 263.72666 
L 387.969977 272.809481 
L 385.924349 282.290865 
L 383.165564 292.976001 
L 381.126017 299.671949 
L 378.949482 305.906755 
L 375.98982 313.127319 
L 371.594225 321.667243 
L 368.038059 327.009513 
L 365.31999 330.293873 
L 362.491574 333.063089 
L 361.197817 334.127514 
L 356.996554 336.788474 
L 354.266803 337.920229 
L 349.959794 338.850469 
L 348.12294 338.953846 
L 342.515867 338.289134 
L 337.861547 336.719818 
L 335.121536 335.405589 
L 332.289486 333.765194 
L 326.583633 329.655783 
L 321.639985 325.302141 
L 315.936979 319.459044 
L 312.033932 314.999117 
L 306.0755 307.536844 
L 301.22678 300.933932 
L 294.745199 291.442989 
L 285.138543 276.15932 
L 279.716312 266.981415 
L 271.229536 251.948409 
L 260.928418 232.810284 
L 255.557784 222.528241 
L 240.631884 193.217506 
L 213.980755 140.114871 
L 203.160966 119.051773 
L 198.794278 110.735563 
L 188.616417 91.911467 
L 182.551507 81.150256 
L 178.394753 74.008907 
L 172.949469 64.979556 
L 165.990261 54.04723 
L 159.052127 43.924083 
L 152.038929 34.596313 
L 147.747286 29.393064 
L 140.552379 21.638271 
L 133.613276 15.454672 
L 130.708087 13.28811 
L 127.939803 11.476071 
L 122.411001 8.654758 
L 118.24935 7.298926 
L 114.194267 6.681993 
L 112.346043 6.650685 
L 106.120031 7.823168 
L 103.167724 9.141624 
L 99.956348 11.204968 
L 98.408997 12.453383 
L 95.11673 15.713549 
L 92.058024 19.556279 
L 89.576386 23.324376 
L 86.736458 28.449596 
L 83.365519 35.845023 
L 80.521788 43.413142 
L 77.093667 54.57979 
L 75.363335 61.287291 
L 73.686966 68.657126 
L 71.259199 81.309931 
L 68.983744 96.264128 
L 67.953506 104.558063 
L 66.922982 114.356672 
L 66.214386 122.417453 
L 65.168334 138.048296 
L 64.49509 154.677986 
L 64.314526 163.338821 
L 64.24758 172.025538 
L 64.348062 184.3731 
L 64.761432 198.844334 
L 65.151137 207.228304 
L 65.649649 215.521611 
L 66.291525 224.128719 
L 67.051687 232.571568 
L 68.054088 241.906305 
L 70.017497 256.60028 
L 71.565083 266.038773 
L 72.967479 273.46501 
L 75.157874 283.457169 
L 76.828463 290.042622 
L 79.600913 299.427253 
L 82.279742 307.021428 
L 85.826389 315.302126 
L 89.313068 321.836573 
L 93.495224 327.951448 
L 96.973665 331.828007 
L 99.975096 334.407131 
L 101.563934 335.51188 
L 104.230027 336.991828 
L 109.813162 338.71746 
L 112.194241 338.9426 
L 115.646022 338.779383 
L 119.426233 337.986902 
L 123.007793 336.692793 
L 127.982445 334.095982 
L 130.47817 332.469993 
L 138.067965 326.329215 
L 142.256487 322.239733 
L 145.057231 319.252773 
L 147.877154 316.053543 
L 156.168891 305.626005 
L 160.600213 299.488074 
L 163.511496 295.262159 
L 167.845368 288.70828 
L 171.806635 282.462733 
L 178.103769 272.081282 
L 183.034861 263.60444 
L 187.94835 254.890279 
L 194.743316 242.456979 
L 204.649559 223.683898 
L 215.169747 203.137674 
L 230.403236 172.799011 
L 230.403236 172.799011 
" clip-path="url(#p2963049334)" style="fill: none; stroke: #008000; stroke-linecap: square"/>
   </g>
   <g id="patch_3">
    <path d="M 230.403236 345.6 
L 230.403236 -0 
" style="fill: none; stroke: #000000; stroke-width: 0.8; stroke-linejoin: miter; stroke-linecap: square"/>
   </g>
   <g id="patch_4">
    <path d="M 57.601483 172.799011 
L 403.198517 172.799011 
" style="fill: none; stroke: #000000; stroke-width: 0.8; stroke-linejoin: miter; stroke-linecap: square"/>
   </g>
  </g>
 </g>
 <defs>
  <clipPath id="p2963049334">
   <rect x="57.601483" y="0" width="345.597033" height="345.6"/>
  </clipPath>
 </defs>
</svg>
