<?xml version="1.0" encoding="utf-8" standalone="no"?>
<!DOCTYPE svg PUBLIC "-//W3C//DTD SVG 1.1//EN"
  "http://www.w3.org/Graphics/SVG/1.1/DTD/svg11.dtd">
<svg xmlns:xlink="http://www.w3.org/1999/xlink" width="460.8pt" height="345.6pt" viewBox="0 0 460.8 345.6" xmlns="http://www.w3.org/2000/svg" version="1.1">
 <metadata>
  <rdf:RDF xmlns:dc="http://purl.org/dc/elements/1.1/" xmlns:cc="http://creativecommons.org/ns#" xmlns:rdf="http://www.w3.org/1999/02/22-rdf-syntax-ns#">
   <cc:Work>
    <dc:type rdf:resource="http://purl.org/dc/dcmitype/StillImage"/>
    <dc:date>2025-08-02T16:00:41.123761</dc:date>
    <dc:format>image/svg+xml</dc:format>
    <dc:creator>
     <cc:Agent>
      <dc:title>Matplotlib v3.10.3, https://matplotlib.org/</dc:title>
     </cc:Agent>
    </dc:creator>
   </cc:Work>
  </rdf:RDF>
 </metadata>
 <defs>
  <style type="text/css">*{stroke-linejoin: round; stroke-linecap: butt}</style>
 </defs>
 <g id="figure_1">
  <g id="patch_1">
   <path d="M 0 345.6 
L 460.8 345.6 
L 460.8 0 
L 0 0 
z
" style="fill: #ffffff"/>
  </g>
  <g id="axes_1">
   <g id="patch_2">
    <path d="M 0 345.6 
L 460.8 345.6 
L 460.8 0 
L 0 0 
z
" style="fill: #ffffff"/>
   </g>
   <g id="PathCollection_1">
    <defs>
     <path id="C0_0_dfbcc059bb" d="M 0 2.738613 
C 0.726289 2.738613 1.422928 2.450055 1.936492 1.936492 
C 2.450055 1.422928 2.738613 0.726289 2.738613 -0 
C 2.738613 -0.726289 2.450055 -1.422928 1.936492 -1.936492 
C 1.422928 -2.450055 0.726289 -2.738613 0 -2.738613 
C -0.726289 -2.738613 -1.422928 -2.450055 -1.936492 -1.936492 
C -2.450055 -1.422928 -2.738613 -0.726289 -2.738613 0 
C -2.738613 0.726289 -2.450055 1.422928 -1.936492 1.936492 
C -1.422928 2.450055 -0.726289 2.738613 0 2.738613 
z
"/>
    </defs>
    <g clip-path="url(#pa20bf8c0a1)">
     <use xlink:href="#C0_0_dfbcc059bb" x="8.861538" y="245.94539" style="fill: #33991a"/>
    </g>
    <g clip-path="url(#pa20bf8c0a1)">
     <use xlink:href="#C0_0_dfbcc059bb" x="12.584874" y="288.188192" style="fill: #33991a"/>
    </g>
    <g clip-path="url(#pa20bf8c0a1)">
     <use xlink:href="#C0_0_dfbcc059bb" x="16.308209" y="318.539749" style="fill: #33991a"/>
    </g>
    <g clip-path="url(#pa20bf8c0a1)">
     <use xlink:href="#C0_0_dfbcc059bb" x="20.031545" y="335.387519" style="fill: #33991a"/>
    </g>
    <g clip-path="url(#pa20bf8c0a1)">
     <use xlink:href="#C0_0_dfbcc059bb" x="23.75488" y="338.456035" style="fill: #33991a"/>
    </g>
    <g clip-path="url(#pa20bf8c0a1)">
     <use xlink:href="#C0_0_dfbcc059bb" x="27.478216" y="328.649531" style="fill: #33991a"/>
    </g>
    <g clip-path="url(#pa20bf8c0a1)">
     <use xlink:href="#C0_0_dfbcc059bb" x="31.201551" y="307.811913" style="fill: #33991a"/>
    </g>
    <g clip-path="url(#pa20bf8c0a1)">
     <use xlink:href="#C0_0_dfbcc059bb" x="34.924887" y="278.441646" style="fill: #33991a"/>
    </g>
    <g clip-path="url(#pa20bf8c0a1)">
     <use xlink:href="#C0_0_dfbcc059bb" x="38.648222" y="243.396087" style="fill: #33991a"/>
    </g>
    <g clip-path="url(#pa20bf8c0a1)">
     <use xlink:href="#C0_0_dfbcc059bb" x="42.371558" y="205.613958" style="fill: #33991a"/>
    </g>
    <g clip-path="url(#pa20bf8c0a1)">
     <use xlink:href="#C0_0_dfbcc059bb" x="46.094893" y="167.877146" style="fill: #33991a"/>
    </g>
    <g clip-path="url(#pa20bf8c0a1)">
     <use xlink:href="#C0_0_dfbcc059bb" x="49.818229" y="132.62512" style="fill: #33991a"/>
    </g>
    <g clip-path="url(#pa20bf8c0a1)">
     <use xlink:href="#C0_0_dfbcc059bb" x="53.541564" y="101.82776" style="fill: #33991a"/>
    </g>
    <g clip-path="url(#pa20bf8c0a1)">
     <use xlink:href="#C0_0_dfbcc059bb" x="57.2649" y="76.91606" style="fill: #33991a"/>
    </g>
    <g clip-path="url(#pa20bf8c0a1)">
     <use xlink:href="#C0_0_dfbcc059bb" x="60.988235" y="58.765229" style="fill: #33991a"/>
    </g>
    <g clip-path="url(#pa20bf8c0a1)">
     <use xlink:href="#C0_0_dfbcc059bb" x="64.711571" y="47.721432" style="fill: #33991a"/>
    </g>
    <g clip-path="url(#pa20bf8c0a1)">
     <use xlink:href="#C0_0_dfbcc059bb" x="68.434906" y="43.661614" style="fill: #33991a"/>
    </g>
    <g clip-path="url(#pa20bf8c0a1)">
     <use xlink:href="#C0_0_dfbcc059bb" x="72.158242" y="46.0754" style="fill: #33991a"/>
    </g>
    <g clip-path="url(#pa20bf8c0a1)">
     <use xlink:href="#C0_0_dfbcc059bb" x="75.881577" y="54.158634" style="fill: #33991a"/>
    </g>
    <g clip-path="url(#pa20bf8c0a1)">
     <use xlink:href="#C0_0_dfbcc059bb" x="79.604913" y="66.90947" style="fill: #33991a"/>
    </g>
    <g clip-path="url(#pa20bf8c0a1)">
     <use xlink:href="#C0_0_dfbcc059bb" x="83.328248" y="83.219692" style="fill: #33991a"/>
    </g>
    <g clip-path="url(#pa20bf8c0a1)">
     <use xlink:href="#C0_0_dfbcc059bb" x="87.051584" y="101.955895" style="fill: #33991a"/>
    </g>
    <g clip-path="url(#pa20bf8c0a1)">
     <use xlink:href="#C0_0_dfbcc059bb" x="90.774919" y="122.027078" style="fill: #33991a"/>
    </g>
    <g clip-path="url(#pa20bf8c0a1)">
     <use xlink:href="#C0_0_dfbcc059bb" x="94.498255" y="142.43696" style="fill: #33991a"/>
    </g>
    <g clip-path="url(#pa20bf8c0a1)">
     <use xlink:href="#C0_0_dfbcc059bb" x="98.22159" y="162.320757" style="fill: #33991a"/>
    </g>
    <g clip-path="url(#pa20bf8c0a1)">
     <use xlink:href="#C0_0_dfbcc059bb" x="101.944926" y="180.96734" style="fill: #33991a"/>
    </g>
    <g clip-path="url(#pa20bf8c0a1)">
     <use xlink:href="#C0_0_dfbcc059bb" x="105.668261" y="197.82843" style="fill: #33991a"/>
    </g>
    <g clip-path="url(#pa20bf8c0a1)">
     <use xlink:href="#C0_0_dfbcc059bb" x="109.391597" y="212.517028" style="fill: #33991a"/>
    </g>
    <g clip-path="url(#pa20bf8c0a1)">
     <use xlink:href="#C0_0_dfbcc059bb" x="113.114932" y="224.797446" style="fill: #33991a"/>
    </g>
    <g clip-path="url(#pa20bf8c0a1)">
     <use xlink:href="#C0_0_dfbcc059bb" x="116.838268" y="234.569327" style="fill: #33991a"/>
    </g>
    <g clip-path="url(#pa20bf8c0a1)">
     <use xlink:href="#C0_0_dfbcc059bb" x="120.561603" y="241.847859" style="fill: #33991a"/>
    </g>
    <g clip-path="url(#pa20bf8c0a1)">
     <use xlink:href="#C0_0_dfbcc059bb" x="124.284939" y="246.742115" style="fill: #33991a"/>
    </g>
    <g clip-path="url(#pa20bf8c0a1)">
     <use xlink:href="#C0_0_dfbcc059bb" x="128.008274" y="249.433135" style="fill: #33991a"/>
    </g>
    <g clip-path="url(#pa20bf8c0a1)">
     <use xlink:href="#C0_0_dfbcc059bb" x="131.73161" y="250.152969" style="fill: #33991a"/>
    </g>
    <g clip-path="url(#pa20bf8c0a1)">
     <use xlink:href="#C0_0_dfbcc059bb" x="135.454945" y="249.165588" style="fill: #33991a"/>
    </g>
    <g clip-path="url(#pa20bf8c0a1)">
     <use xlink:href="#C0_0_dfbcc059bb" x="139.178281" y="246.750244" style="fill: #33991a"/>
    </g>
    <g clip-path="url(#pa20bf8c0a1)">
     <use xlink:href="#C0_0_dfbcc059bb" x="142.901616" y="243.187568" style="fill: #33991a"/>
    </g>
    <g clip-path="url(#pa20bf8c0a1)">
     <use xlink:href="#C0_0_dfbcc059bb" x="146.624952" y="238.748487" style="fill: #33991a"/>
    </g>
    <g clip-path="url(#pa20bf8c0a1)">
     <use xlink:href="#C0_0_dfbcc059bb" x="150.348287" y="233.685882" style="fill: #33991a"/>
    </g>
    <g clip-path="url(#pa20bf8c0a1)">
     <use xlink:href="#C0_0_dfbcc059bb" x="154.071622" y="228.228747" style="fill: #33991a"/>
    </g>
    <g clip-path="url(#pa20bf8c0a1)">
     <use xlink:href="#C0_0_dfbcc059bb" x="157.794958" y="222.578562" style="fill: #33991a"/>
    </g>
    <g clip-path="url(#pa20bf8c0a1)">
     <use xlink:href="#C0_0_dfbcc059bb" x="161.518293" y="216.907554" style="fill: #33991a"/>
    </g>
    <g clip-path="url(#pa20bf8c0a1)">
     <use xlink:href="#C0_0_dfbcc059bb" x="165.241629" y="211.358463" style="fill: #33991a"/>
    </g>
    <g clip-path="url(#pa20bf8c0a1)">
     <use xlink:href="#C0_0_dfbcc059bb" x="168.964964" y="206.045502" style="fill: #33991a"/>
    </g>
    <g clip-path="url(#pa20bf8c0a1)">
     <use xlink:href="#C0_0_dfbcc059bb" x="172.6883" y="201.056174" style="fill: #33991a"/>
    </g>
    <g clip-path="url(#pa20bf8c0a1)">
     <use xlink:href="#C0_0_dfbcc059bb" x="176.411635" y="196.453672" style="fill: #33991a"/>
    </g>
    <g clip-path="url(#pa20bf8c0a1)">
     <use xlink:href="#C0_0_dfbcc059bb" x="180.134971" y="192.279616" style="fill: #33991a"/>
    </g>
    <g clip-path="url(#pa20bf8c0a1)">
     <use xlink:href="#C0_0_dfbcc059bb" x="183.858306" y="188.556937" style="fill: #33991a"/>
    </g>
    <g clip-path="url(#pa20bf8c0a1)">
     <use xlink:href="#C0_0_dfbcc059bb" x="187.581642" y="185.292749" style="fill: #33991a"/>
    </g>
    <g clip-path="url(#pa20bf8c0a1)">
     <use xlink:href="#C0_0_dfbcc059bb" x="191.304977" y="182.481084" style="fill: #33991a"/>
    </g>
    <g clip-path="url(#pa20bf8c0a1)">
     <use xlink:href="#C0_0_dfbcc059bb" x="195.028313" y="180.10542" style="fill: #33991a"/>
    </g>
    <g clip-path="url(#pa20bf8c0a1)">
     <use xlink:href="#C0_0_dfbcc059bb" x="198.751648" y="178.140938" style="fill: #33991a"/>
    </g>
    <g clip-path="url(#pa20bf8c0a1)">
     <use xlink:href="#C0_0_dfbcc059bb" x="202.474984" y="176.556487" style="fill: #33991a"/>
    </g>
    <g clip-path="url(#pa20bf8c0a1)">
     <use xlink:href="#C0_0_dfbcc059bb" x="206.198319" y="175.316237" style="fill: #33991a"/>
    </g>
    <g clip-path="url(#pa20bf8c0a1)">
     <use xlink:href="#C0_0_dfbcc059bb" x="209.921655" y="174.381037" style="fill: #33991a"/>
    </g>
    <g clip-path="url(#pa20bf8c0a1)">
     <use xlink:href="#C0_0_dfbcc059bb" x="213.64499" y="173.709489" style="fill: #33991a"/>
    </g>
    <g clip-path="url(#pa20bf8c0a1)">
     <use xlink:href="#C0_0_dfbcc059bb" x="217.368326" y="173.258764" style="fill: #33991a"/>
    </g>
    <g clip-path="url(#pa20bf8c0a1)">
     <use xlink:href="#C0_0_dfbcc059bb" x="221.091661" y="172.985194" style="fill: #33991a"/>
    </g>
    <g clip-path="url(#pa20bf8c0a1)">
     <use xlink:href="#C0_0_dfbcc059bb" x="224.814997" y="172.844673" style="fill: #33991a"/>
    </g>
    <g clip-path="url(#pa20bf8c0a1)">
     <use xlink:href="#C0_0_dfbcc059bb" x="228.538332" y="172.792896" style="fill: #33991a"/>
    </g>
    <g clip-path="url(#pa20bf8c0a1)">
     <use xlink:href="#C0_0_dfbcc059bb" x="232.261668" y="172.7855" style="fill: #33991a"/>
    </g>
    <g clip-path="url(#pa20bf8c0a1)">
     <use xlink:href="#C0_0_dfbcc059bb" x="235.985003" y="172.778103" style="fill: #33991a"/>
    </g>
    <g clip-path="url(#pa20bf8c0a1)">
     <use xlink:href="#C0_0_dfbcc059bb" x="239.708339" y="172.726327" style="fill: #33991a"/>
    </g>
    <g clip-path="url(#pa20bf8c0a1)">
     <use xlink:href="#C0_0_dfbcc059bb" x="243.431674" y="172.585805" style="fill: #33991a"/>
    </g>
    <g clip-path="url(#pa20bf8c0a1)">
     <use xlink:href="#C0_0_dfbcc059bb" x="247.15501" y="172.312235" style="fill: #33991a"/>
    </g>
    <g clip-path="url(#pa20bf8c0a1)">
     <use xlink:href="#C0_0_dfbcc059bb" x="250.878345" y="171.86151" style="fill: #33991a"/>
    </g>
    <g clip-path="url(#pa20bf8c0a1)">
     <use xlink:href="#C0_0_dfbcc059bb" x="254.601681" y="171.189962" style="fill: #33991a"/>
    </g>
    <g clip-path="url(#pa20bf8c0a1)">
     <use xlink:href="#C0_0_dfbcc059bb" x="258.325016" y="170.254762" style="fill: #33991a"/>
    </g>
    <g clip-path="url(#pa20bf8c0a1)">
     <use xlink:href="#C0_0_dfbcc059bb" x="262.048352" y="169.014512" style="fill: #33991a"/>
    </g>
    <g clip-path="url(#pa20bf8c0a1)">
     <use xlink:href="#C0_0_dfbcc059bb" x="265.771687" y="167.430061" style="fill: #33991a"/>
    </g>
    <g clip-path="url(#pa20bf8c0a1)">
     <use xlink:href="#C0_0_dfbcc059bb" x="269.495023" y="165.465579" style="fill: #33991a"/>
    </g>
    <g clip-path="url(#pa20bf8c0a1)">
     <use xlink:href="#C0_0_dfbcc059bb" x="273.218358" y="163.089915" style="fill: #33991a"/>
    </g>
    <g clip-path="url(#pa20bf8c0a1)">
     <use xlink:href="#C0_0_dfbcc059bb" x="276.941694" y="160.27825" style="fill: #33991a"/>
    </g>
    <g clip-path="url(#pa20bf8c0a1)">
     <use xlink:href="#C0_0_dfbcc059bb" x="280.665029" y="157.014062" style="fill: #33991a"/>
    </g>
    <g clip-path="url(#pa20bf8c0a1)">
     <use xlink:href="#C0_0_dfbcc059bb" x="284.388365" y="153.291384" style="fill: #33991a"/>
    </g>
    <g clip-path="url(#pa20bf8c0a1)">
     <use xlink:href="#C0_0_dfbcc059bb" x="288.1117" y="149.117327" style="fill: #33991a"/>
    </g>
    <g clip-path="url(#pa20bf8c0a1)">
     <use xlink:href="#C0_0_dfbcc059bb" x="291.835036" y="144.514825" style="fill: #33991a"/>
    </g>
    <g clip-path="url(#pa20bf8c0a1)">
     <use xlink:href="#C0_0_dfbcc059bb" x="295.558371" y="139.525498" style="fill: #33991a"/>
    </g>
    <g clip-path="url(#pa20bf8c0a1)">
     <use xlink:href="#C0_0_dfbcc059bb" x="299.281707" y="134.212537" style="fill: #33991a"/>
    </g>
    <g clip-path="url(#pa20bf8c0a1)">
     <use xlink:href="#C0_0_dfbcc059bb" x="303.005042" y="128.663445" style="fill: #33991a"/>
    </g>
    <g clip-path="url(#pa20bf8c0a1)">
     <use xlink:href="#C0_0_dfbcc059bb" x="306.728378" y="122.992437" style="fill: #33991a"/>
    </g>
    <g clip-path="url(#pa20bf8c0a1)">
     <use xlink:href="#C0_0_dfbcc059bb" x="310.451713" y="117.342253" style="fill: #33991a"/>
    </g>
    <g clip-path="url(#pa20bf8c0a1)">
     <use xlink:href="#C0_0_dfbcc059bb" x="314.175048" y="111.885117" style="fill: #33991a"/>
    </g>
    <g clip-path="url(#pa20bf8c0a1)">
     <use xlink:href="#C0_0_dfbcc059bb" x="317.898384" y="106.822512" style="fill: #33991a"/>
    </g>
    <g clip-path="url(#pa20bf8c0a1)">
     <use xlink:href="#C0_0_dfbcc059bb" x="321.621719" y="102.383432" style="fill: #33991a"/>
    </g>
    <g clip-path="url(#pa20bf8c0a1)">
     <use xlink:href="#C0_0_dfbcc059bb" x="325.345055" y="98.820755" style="fill: #33991a"/>
    </g>
    <g clip-path="url(#pa20bf8c0a1)">
     <use xlink:href="#C0_0_dfbcc059bb" x="329.06839" y="96.405411" style="fill: #33991a"/>
    </g>
    <g clip-path="url(#pa20bf8c0a1)">
     <use xlink:href="#C0_0_dfbcc059bb" x="332.791726" y="95.418031" style="fill: #33991a"/>
    </g>
    <g clip-path="url(#pa20bf8c0a1)">
     <use xlink:href="#C0_0_dfbcc059bb" x="336.515061" y="96.137864" style="fill: #33991a"/>
    </g>
    <g clip-path="url(#pa20bf8c0a1)">
     <use xlink:href="#C0_0_dfbcc059bb" x="340.238397" y="98.828884" style="fill: #33991a"/>
    </g>
    <g clip-path="url(#pa20bf8c0a1)">
     <use xlink:href="#C0_0_dfbcc059bb" x="343.961732" y="103.723141" style="fill: #33991a"/>
    </g>
    <g clip-path="url(#pa20bf8c0a1)">
     <use xlink:href="#C0_0_dfbcc059bb" x="347.685068" y="111.001672" style="fill: #33991a"/>
    </g>
    <g clip-path="url(#pa20bf8c0a1)">
     <use xlink:href="#C0_0_dfbcc059bb" x="351.408403" y="120.773553" style="fill: #33991a"/>
    </g>
    <g clip-path="url(#pa20bf8c0a1)">
     <use xlink:href="#C0_0_dfbcc059bb" x="355.131739" y="133.053972" style="fill: #33991a"/>
    </g>
    <g clip-path="url(#pa20bf8c0a1)">
     <use xlink:href="#C0_0_dfbcc059bb" x="358.855074" y="147.74257" style="fill: #33991a"/>
    </g>
    <g clip-path="url(#pa20bf8c0a1)">
     <use xlink:href="#C0_0_dfbcc059bb" x="362.57841" y="164.603659" style="fill: #33991a"/>
    </g>
    <g clip-path="url(#pa20bf8c0a1)">
     <use xlink:href="#C0_0_dfbcc059bb" x="366.301745" y="183.250242" style="fill: #33991a"/>
    </g>
    <g clip-path="url(#pa20bf8c0a1)">
     <use xlink:href="#C0_0_dfbcc059bb" x="370.025081" y="203.13404" style="fill: #33991a"/>
    </g>
    <g clip-path="url(#pa20bf8c0a1)">
     <use xlink:href="#C0_0_dfbcc059bb" x="373.748416" y="223.543921" style="fill: #33991a"/>
    </g>
    <g clip-path="url(#pa20bf8c0a1)">
     <use xlink:href="#C0_0_dfbcc059bb" x="377.471752" y="243.615105" style="fill: #33991a"/>
    </g>
    <g clip-path="url(#pa20bf8c0a1)">
     <use xlink:href="#C0_0_dfbcc059bb" x="381.195087" y="262.351307" style="fill: #33991a"/>
    </g>
    <g clip-path="url(#pa20bf8c0a1)">
     <use xlink:href="#C0_0_dfbcc059bb" x="384.918423" y="278.661529" style="fill: #33991a"/>
    </g>
    <g clip-path="url(#pa20bf8c0a1)">
     <use xlink:href="#C0_0_dfbcc059bb" x="388.641758" y="291.412365" style="fill: #33991a"/>
    </g>
    <g clip-path="url(#pa20bf8c0a1)">
     <use xlink:href="#C0_0_dfbcc059bb" x="392.365094" y="299.495599" style="fill: #33991a"/>
    </g>
    <g clip-path="url(#pa20bf8c0a1)">
     <use xlink:href="#C0_0_dfbcc059bb" x="396.088429" y="301.909385" style="fill: #33991a"/>
    </g>
    <g clip-path="url(#pa20bf8c0a1)">
     <use xlink:href="#C0_0_dfbcc059bb" x="399.811765" y="297.849568" style="fill: #33991a"/>
    </g>
    <g clip-path="url(#pa20bf8c0a1)">
     <use xlink:href="#C0_0_dfbcc059bb" x="403.5351" y="286.80577" style="fill: #33991a"/>
    </g>
    <g clip-path="url(#pa20bf8c0a1)">
     <use xlink:href="#C0_0_dfbcc059bb" x="407.258436" y="268.654939" style="fill: #33991a"/>
    </g>
    <g clip-path="url(#pa20bf8c0a1)">
     <use xlink:href="#C0_0_dfbcc059bb" x="410.981771" y="243.74324" style="fill: #33991a"/>
    </g>
    <g clip-path="url(#pa20bf8c0a1)">
     <use xlink:href="#C0_0_dfbcc059bb" x="414.705107" y="212.94588" style="fill: #33991a"/>
    </g>
    <g clip-path="url(#pa20bf8c0a1)">
     <use xlink:href="#C0_0_dfbcc059bb" x="418.428442" y="177.693853" style="fill: #33991a"/>
    </g>
    <g clip-path="url(#pa20bf8c0a1)">
     <use xlink:href="#C0_0_dfbcc059bb" x="422.151778" y="139.957041" style="fill: #33991a"/>
    </g>
    <g clip-path="url(#pa20bf8c0a1)">
     <use xlink:href="#C0_0_dfbcc059bb" x="425.875113" y="102.174912" style="fill: #33991a"/>
    </g>
    <g clip-path="url(#pa20bf8c0a1)">
     <use xlink:href="#C0_0_dfbcc059bb" x="429.598449" y="67.129354" style="fill: #33991a"/>
    </g>
    <g clip-path="url(#pa20bf8c0a1)">
     <use xlink:href="#C0_0_dfbcc059bb" x="433.321784" y="37.759086" style="fill: #33991a"/>
    </g>
    <g clip-path="url(#pa20bf8c0a1)">
     <use xlink:href="#C0_0_dfbcc059bb" x="437.04512" y="16.921469" style="fill: #33991a"/>
    </g>
    <g clip-path="url(#pa20bf8c0a1)">
     <use xlink:href="#C0_0_dfbcc059bb" x="440.768455" y="7.114964" style="fill: #33991a"/>
    </g>
    <g clip-path="url(#pa20bf8c0a1)">
     <use xlink:href="#C0_0_dfbcc059bb" x="444.491791" y="10.18348" style="fill: #33991a"/>
    </g>
    <g clip-path="url(#pa20bf8c0a1)">
     <use xlink:href="#C0_0_dfbcc059bb" x="448.215126" y="27.03125" style="fill: #33991a"/>
    </g>
    <g clip-path="url(#pa20bf8c0a1)">
     <use xlink:href="#C0_0_dfbcc059bb" x="451.938462" y="57.382807" style="fill: #33991a"/>
    </g>
   </g>
   <g id="matplotlib.axis_1">
    <g id="xtick_1">
     <g id="line2d_1">
      <defs>
       <path id="m475becde93" d="M 0 0 
L 0 3.5 
" style="stroke: #000000; stroke-width: 0.8"/>
      </defs>
      <g>
       <use xlink:href="#m475becde93" x="8.861538" y="172.7855" style="stroke: #000000; stroke-width: 0.8"/>
      </g>
     </g>
     <g id="text_1">
      <!-- −3 -->
      <g transform="translate(1.490445 187.383937) scale(0.1 -0.1)">
       <defs>
        <path id="DejaVuSans-2212" d="M 678 2272 
L 4684 2272 
L 4684 1741 
L 678 1741 
L 678 2272 
z
" transform="scale(0.015625)"/>
        <path id="DejaVuSans-33" d="M 2597 2516 
Q 3050 2419 3304 2112 
Q 3559 1806 3559 1356 
Q 3559 666 3084 287 
Q 2609 -91 1734 -91 
Q 1441 -91 1130 -33 
Q 819 25 488 141 
L 488 750 
Q 750 597 1062 519 
Q 1375 441 1716 441 
Q 2309 441 2620 675 
Q 2931 909 2931 1356 
Q 2931 1769 2642 2001 
Q 2353 2234 1838 2234 
L 1294 2234 
L 1294 2753 
L 1863 2753 
Q 2328 2753 2575 2939 
Q 2822 3125 2822 3475 
Q 2822 3834 2567 4026 
Q 2313 4219 1838 4219 
Q 1578 4219 1281 4162 
Q 984 4106 628 3988 
L 628 4550 
Q 988 4650 1302 4700 
Q 1616 4750 1894 4750 
Q 2613 4750 3031 4423 
Q 3450 4097 3450 3541 
Q 3450 3153 3228 2886 
Q 3006 2619 2597 2516 
z
" transform="scale(0.015625)"/>
       </defs>
       <use xlink:href="#DejaVuSans-2212"/>
       <use xlink:href="#DejaVuSans-33" transform="translate(83.789062 0)"/>
      </g>
     </g>
    </g>
    <g id="xtick_2">
     <g id="line2d_2">
      <g>
       <use xlink:href="#m475becde93" x="83.328248" y="172.7855" style="stroke: #000000; stroke-width: 0.8"/>
      </g>
     </g>
     <g id="text_2">
      <!-- −2 -->
      <g transform="translate(75.957154 187.383937) scale(0.1 -0.1)">
       <defs>
        <path id="DejaVuSans-32" d="M 1228 531 
L 3431 531 
L 3431 0 
L 469 0 
L 469 531 
Q 828 903 1448 1529 
Q 2069 2156 2228 2338 
Q 2531 2678 2651 2914 
Q 2772 3150 2772 3378 
Q 2772 3750 2511 3984 
Q 2250 4219 1831 4219 
Q 1534 4219 1204 4116 
Q 875 4013 500 3803 
L 500 4441 
Q 881 4594 1212 4672 
Q 1544 4750 1819 4750 
Q 2544 4750 2975 4387 
Q 3406 4025 3406 3419 
Q 3406 3131 3298 2873 
Q 3191 2616 2906 2266 
Q 2828 2175 2409 1742 
Q 1991 1309 1228 531 
z
" transform="scale(0.015625)"/>
       </defs>
       <use xlink:href="#DejaVuSans-2212"/>
       <use xlink:href="#DejaVuSans-32" transform="translate(83.789062 0)"/>
      </g>
     </g>
    </g>
    <g id="xtick_3">
     <g id="line2d_3">
      <g>
       <use xlink:href="#m475becde93" x="157.794958" y="172.7855" style="stroke: #000000; stroke-width: 0.8"/>
      </g>
     </g>
     <g id="text_3">
      <!-- −1 -->
      <g transform="translate(150.423864 187.383937) scale(0.1 -0.1)">
       <defs>
        <path id="DejaVuSans-31" d="M 794 531 
L 1825 531 
L 1825 4091 
L 703 3866 
L 703 4441 
L 1819 4666 
L 2450 4666 
L 2450 531 
L 3481 531 
L 3481 0 
L 794 0 
L 794 531 
z
" transform="scale(0.015625)"/>
       </defs>
       <use xlink:href="#DejaVuSans-2212"/>
       <use xlink:href="#DejaVuSans-31" transform="translate(83.789062 0)"/>
      </g>
     </g>
    </g>
    <g id="xtick_4">
     <g id="line2d_4">
      <g>
       <use xlink:href="#m475becde93" x="232.261668" y="172.7855" style="stroke: #000000; stroke-width: 0.8"/>
      </g>
     </g>
    </g>
    <g id="xtick_5">
     <g id="line2d_5">
      <g>
       <use xlink:href="#m475becde93" x="306.728378" y="172.7855" style="stroke: #000000; stroke-width: 0.8"/>
      </g>
     </g>
     <g id="text_4">
      <!-- 1 -->
      <g transform="translate(303.547128 187.383937) scale(0.1 -0.1)">
       <use xlink:href="#DejaVuSans-31"/>
      </g>
     </g>
    </g>
    <g id="xtick_6">
     <g id="line2d_6">
      <g>
       <use xlink:href="#m475becde93" x="381.195087" y="172.7855" style="stroke: #000000; stroke-width: 0.8"/>
      </g>
     </g>
     <g id="text_5">
      <!-- 2 -->
      <g transform="translate(378.013837 187.383937) scale(0.1 -0.1)">
       <use xlink:href="#DejaVuSans-32"/>
      </g>
     </g>
    </g>
    <g id="xtick_7">
     <g id="line2d_7">
      <g>
       <use xlink:href="#m475becde93" x="455.661797" y="172.7855" style="stroke: #000000; stroke-width: 0.8"/>
      </g>
     </g>
     <g id="text_6">
      <!-- 3 -->
      <g transform="translate(452.480547 187.383937) scale(0.1 -0.1)">
       <use xlink:href="#DejaVuSans-33"/>
      </g>
     </g>
    </g>
    <g id="xtick_8">
     <g id="line2d_8">
      <defs>
       <path id="m2ef54ce915" d="M 0 0 
L 0 2 
" style="stroke: #000000; stroke-width: 0.6"/>
      </defs>
      <g>
       <use xlink:href="#m2ef54ce915" x="23.75488" y="172.7855" style="stroke: #000000; stroke-width: 0.6"/>
      </g>
     </g>
    </g>
    <g id="xtick_9">
     <g id="line2d_9">
      <g>
       <use xlink:href="#m2ef54ce915" x="38.648222" y="172.7855" style="stroke: #000000; stroke-width: 0.6"/>
      </g>
     </g>
    </g>
    <g id="xtick_10">
     <g id="line2d_10">
      <g>
       <use xlink:href="#m2ef54ce915" x="53.541564" y="172.7855" style="stroke: #000000; stroke-width: 0.6"/>
      </g>
     </g>
    </g>
    <g id="xtick_11">
     <g id="line2d_11">
      <g>
       <use xlink:href="#m2ef54ce915" x="68.434906" y="172.7855" style="stroke: #000000; stroke-width: 0.6"/>
      </g>
     </g>
    </g>
    <g id="xtick_12">
     <g id="line2d_12">
      <g>
       <use xlink:href="#m2ef54ce915" x="98.22159" y="172.7855" style="stroke: #000000; stroke-width: 0.6"/>
      </g>
     </g>
    </g>
    <g id="xtick_13">
     <g id="line2d_13">
      <g>
       <use xlink:href="#m2ef54ce915" x="113.114932" y="172.7855" style="stroke: #000000; stroke-width: 0.6"/>
      </g>
     </g>
    </g>
    <g id="xtick_14">
     <g id="line2d_14">
      <g>
       <use xlink:href="#m2ef54ce915" x="128.008274" y="172.7855" style="stroke: #000000; stroke-width: 0.6"/>
      </g>
     </g>
    </g>
    <g id="xtick_15">
     <g id="line2d_15">
      <g>
       <use xlink:href="#m2ef54ce915" x="142.901616" y="172.7855" style="stroke: #000000; stroke-width: 0.6"/>
      </g>
     </g>
    </g>
    <g id="xtick_16">
     <g id="line2d_16">
      <g>
       <use xlink:href="#m2ef54ce915" x="172.6883" y="172.7855" style="stroke: #000000; stroke-width: 0.6"/>
      </g>
     </g>
    </g>
    <g id="xtick_17">
     <g id="line2d_17">
      <g>
       <use xlink:href="#m2ef54ce915" x="187.581642" y="172.7855" style="stroke: #000000; stroke-width: 0.6"/>
      </g>
     </g>
    </g>
    <g id="xtick_18">
     <g id="line2d_18">
      <g>
       <use xlink:href="#m2ef54ce915" x="202.474984" y="172.7855" style="stroke: #000000; stroke-width: 0.6"/>
      </g>
     </g>
    </g>
    <g id="xtick_19">
     <g id="line2d_19">
      <g>
       <use xlink:href="#m2ef54ce915" x="217.368326" y="172.7855" style="stroke: #000000; stroke-width: 0.6"/>
      </g>
     </g>
    </g>
    <g id="xtick_20">
     <g id="line2d_20">
      <g>
       <use xlink:href="#m2ef54ce915" x="247.15501" y="172.7855" style="stroke: #000000; stroke-width: 0.6"/>
      </g>
     </g>
    </g>
    <g id="xtick_21">
     <g id="line2d_21">
      <g>
       <use xlink:href="#m2ef54ce915" x="262.048352" y="172.7855" style="stroke: #000000; stroke-width: 0.6"/>
      </g>
     </g>
    </g>
    <g id="xtick_22">
     <g id="line2d_22">
      <g>
       <use xlink:href="#m2ef54ce915" x="276.941694" y="172.7855" style="stroke: #000000; stroke-width: 0.6"/>
      </g>
     </g>
    </g>
    <g id="xtick_23">
     <g id="line2d_23">
      <g>
       <use xlink:href="#m2ef54ce915" x="291.835036" y="172.7855" style="stroke: #000000; stroke-width: 0.6"/>
      </g>
     </g>
    </g>
    <g id="xtick_24">
     <g id="line2d_24">
      <g>
       <use xlink:href="#m2ef54ce915" x="321.621719" y="172.7855" style="stroke: #000000; stroke-width: 0.6"/>
      </g>
     </g>
    </g>
    <g id="xtick_25">
     <g id="line2d_25">
      <g>
       <use xlink:href="#m2ef54ce915" x="336.515061" y="172.7855" style="stroke: #000000; stroke-width: 0.6"/>
      </g>
     </g>
    </g>
    <g id="xtick_26">
     <g id="line2d_26">
      <g>
       <use xlink:href="#m2ef54ce915" x="351.408403" y="172.7855" style="stroke: #000000; stroke-width: 0.6"/>
      </g>
     </g>
    </g>
    <g id="xtick_27">
     <g id="line2d_27">
      <g>
       <use xlink:href="#m2ef54ce915" x="366.301745" y="172.7855" style="stroke: #000000; stroke-width: 0.6"/>
      </g>
     </g>
    </g>
    <g id="xtick_28">
     <g id="line2d_28">
      <g>
       <use xlink:href="#m2ef54ce915" x="396.088429" y="172.7855" style="stroke: #000000; stroke-width: 0.6"/>
      </g>
     </g>
    </g>
    <g id="xtick_29">
     <g id="line2d_29">
      <g>
       <use xlink:href="#m2ef54ce915" x="410.981771" y="172.7855" style="stroke: #000000; stroke-width: 0.6"/>
      </g>
     </g>
    </g>
    <g id="xtick_30">
     <g id="line2d_30">
      <g>
       <use xlink:href="#m2ef54ce915" x="425.875113" y="172.7855" style="stroke: #000000; stroke-width: 0.6"/>
      </g>
     </g>
    </g>
    <g id="xtick_31">
     <g id="line2d_31">
      <g>
       <use xlink:href="#m2ef54ce915" x="440.768455" y="172.7855" style="stroke: #000000; stroke-width: 0.6"/>
      </g>
     </g>
    </g>
   </g>
   <g id="matplotlib.axis_2">
    <g id="ytick_1">
     <g id="line2d_32">
      <defs>
       <path id="me2af8693e8" d="M 0 0 
L -3.5 0 
" style="stroke: #000000; stroke-width: 0.8"/>
      </defs>
      <g>
       <use xlink:href="#me2af8693e8" x="232.261668" y="291.133164" style="stroke: #000000; stroke-width: 0.8"/>
      </g>
     </g>
     <g id="text_7">
      <!-- −2 -->
      <g transform="translate(210.51948 294.932383) scale(0.1 -0.1)">
       <use xlink:href="#DejaVuSans-2212"/>
       <use xlink:href="#DejaVuSans-32" transform="translate(83.789062 0)"/>
      </g>
     </g>
    </g>
    <g id="ytick_2">
     <g id="line2d_33">
      <g>
       <use xlink:href="#me2af8693e8" x="232.261668" y="231.959332" style="stroke: #000000; stroke-width: 0.8"/>
      </g>
     </g>
     <g id="text_8">
      <!-- −1 -->
      <g transform="translate(210.51948 235.758551) scale(0.1 -0.1)">
       <use xlink:href="#DejaVuSans-2212"/>
       <use xlink:href="#DejaVuSans-31" transform="translate(83.789062 0)"/>
      </g>
     </g>
    </g>
    <g id="ytick_3">
     <g id="line2d_34">
      <g>
       <use xlink:href="#me2af8693e8" x="232.261668" y="172.7855" style="stroke: #000000; stroke-width: 0.8"/>
      </g>
     </g>
    </g>
    <g id="ytick_4">
     <g id="line2d_35">
      <g>
       <use xlink:href="#me2af8693e8" x="232.261668" y="113.611667" style="stroke: #000000; stroke-width: 0.8"/>
      </g>
     </g>
     <g id="text_9">
      <!-- 1 -->
      <g transform="translate(218.899168 117.410886) scale(0.1 -0.1)">
       <use xlink:href="#DejaVuSans-31"/>
      </g>
     </g>
    </g>
    <g id="ytick_5">
     <g id="line2d_36">
      <g>
       <use xlink:href="#me2af8693e8" x="232.261668" y="54.437835" style="stroke: #000000; stroke-width: 0.8"/>
      </g>
     </g>
     <g id="text_10">
      <!-- 2 -->
      <g transform="translate(218.899168 58.237054) scale(0.1 -0.1)">
       <use xlink:href="#DejaVuSans-32"/>
      </g>
     </g>
    </g>
    <g id="ytick_6">
     <g id="line2d_37">
      <defs>
       <path id="m915c92c36b" d="M 0 0 
L -2 0 
" style="stroke: #000000; stroke-width: 0.6"/>
      </defs>
      <g>
       <use xlink:href="#m915c92c36b" x="232.261668" y="338.47223" style="stroke: #000000; stroke-width: 0.6"/>
      </g>
     </g>
    </g>
    <g id="ytick_7">
     <g id="line2d_38">
      <g>
       <use xlink:href="#m915c92c36b" x="232.261668" y="326.637463" style="stroke: #000000; stroke-width: 0.6"/>
      </g>
     </g>
    </g>
    <g id="ytick_8">
     <g id="line2d_39">
      <g>
       <use xlink:href="#m915c92c36b" x="232.261668" y="314.802697" style="stroke: #000000; stroke-width: 0.6"/>
      </g>
     </g>
    </g>
    <g id="ytick_9">
     <g id="line2d_40">
      <g>
       <use xlink:href="#m915c92c36b" x="232.261668" y="302.96793" style="stroke: #000000; stroke-width: 0.6"/>
      </g>
     </g>
    </g>
    <g id="ytick_10">
     <g id="line2d_41">
      <g>
       <use xlink:href="#m915c92c36b" x="232.261668" y="279.298398" style="stroke: #000000; stroke-width: 0.6"/>
      </g>
     </g>
    </g>
    <g id="ytick_11">
     <g id="line2d_42">
      <g>
       <use xlink:href="#m915c92c36b" x="232.261668" y="267.463631" style="stroke: #000000; stroke-width: 0.6"/>
      </g>
     </g>
    </g>
    <g id="ytick_12">
     <g id="line2d_43">
      <g>
       <use xlink:href="#m915c92c36b" x="232.261668" y="255.628865" style="stroke: #000000; stroke-width: 0.6"/>
      </g>
     </g>
    </g>
    <g id="ytick_13">
     <g id="line2d_44">
      <g>
       <use xlink:href="#m915c92c36b" x="232.261668" y="243.794098" style="stroke: #000000; stroke-width: 0.6"/>
      </g>
     </g>
    </g>
    <g id="ytick_14">
     <g id="line2d_45">
      <g>
       <use xlink:href="#m915c92c36b" x="232.261668" y="220.124565" style="stroke: #000000; stroke-width: 0.6"/>
      </g>
     </g>
    </g>
    <g id="ytick_15">
     <g id="line2d_46">
      <g>
       <use xlink:href="#m915c92c36b" x="232.261668" y="208.289799" style="stroke: #000000; stroke-width: 0.6"/>
      </g>
     </g>
    </g>
    <g id="ytick_16">
     <g id="line2d_47">
      <g>
       <use xlink:href="#m915c92c36b" x="232.261668" y="196.455033" style="stroke: #000000; stroke-width: 0.6"/>
      </g>
     </g>
    </g>
    <g id="ytick_17">
     <g id="line2d_48">
      <g>
       <use xlink:href="#m915c92c36b" x="232.261668" y="184.620266" style="stroke: #000000; stroke-width: 0.6"/>
      </g>
     </g>
    </g>
    <g id="ytick_18">
     <g id="line2d_49">
      <g>
       <use xlink:href="#m915c92c36b" x="232.261668" y="160.950733" style="stroke: #000000; stroke-width: 0.6"/>
      </g>
     </g>
    </g>
    <g id="ytick_19">
     <g id="line2d_50">
      <g>
       <use xlink:href="#m915c92c36b" x="232.261668" y="149.115967" style="stroke: #000000; stroke-width: 0.6"/>
      </g>
     </g>
    </g>
    <g id="ytick_20">
     <g id="line2d_51">
      <g>
       <use xlink:href="#m915c92c36b" x="232.261668" y="137.2812" style="stroke: #000000; stroke-width: 0.6"/>
      </g>
     </g>
    </g>
    <g id="ytick_21">
     <g id="line2d_52">
      <g>
       <use xlink:href="#m915c92c36b" x="232.261668" y="125.446434" style="stroke: #000000; stroke-width: 0.6"/>
      </g>
     </g>
    </g>
    <g id="ytick_22">
     <g id="line2d_53">
      <g>
       <use xlink:href="#m915c92c36b" x="232.261668" y="101.776901" style="stroke: #000000; stroke-width: 0.6"/>
      </g>
     </g>
    </g>
    <g id="ytick_23">
     <g id="line2d_54">
      <g>
       <use xlink:href="#m915c92c36b" x="232.261668" y="89.942135" style="stroke: #000000; stroke-width: 0.6"/>
      </g>
     </g>
    </g>
    <g id="ytick_24">
     <g id="line2d_55">
      <g>
       <use xlink:href="#m915c92c36b" x="232.261668" y="78.107368" style="stroke: #000000; stroke-width: 0.6"/>
      </g>
     </g>
    </g>
    <g id="ytick_25">
     <g id="line2d_56">
      <g>
       <use xlink:href="#m915c92c36b" x="232.261668" y="66.272602" style="stroke: #000000; stroke-width: 0.6"/>
      </g>
     </g>
    </g>
    <g id="ytick_26">
     <g id="line2d_57">
      <g>
       <use xlink:href="#m915c92c36b" x="232.261668" y="42.603069" style="stroke: #000000; stroke-width: 0.6"/>
      </g>
     </g>
    </g>
    <g id="ytick_27">
     <g id="line2d_58">
      <g>
       <use xlink:href="#m915c92c36b" x="232.261668" y="30.768302" style="stroke: #000000; stroke-width: 0.6"/>
      </g>
     </g>
    </g>
    <g id="ytick_28">
     <g id="line2d_59">
      <g>
       <use xlink:href="#m915c92c36b" x="232.261668" y="18.933536" style="stroke: #000000; stroke-width: 0.6"/>
      </g>
     </g>
    </g>
    <g id="ytick_29">
     <g id="line2d_60">
      <g>
       <use xlink:href="#m915c92c36b" x="232.261668" y="7.09877" style="stroke: #000000; stroke-width: 0.6"/>
      </g>
     </g>
    </g>
   </g>
   <g id="line2d_61">
    <path d="M 9.424902 252.695943 
L 12.016998 282.325205 
L 13.654479 298.333111 
L 15.132859 310.441619 
L 16.458096 319.477783 
L 17.76163 326.73163 
L 18.834615 331.463346 
L 19.693004 334.424389 
L 20.39358 336.288336 
L 21.207726 337.830834 
L 21.75049 338.492256 
L 22.293254 338.864371 
L 22.65996 338.953846 
L 23.026665 338.914028 
L 23.39337 338.746031 
L 24.126781 338.030078 
L 24.860192 336.817479 
L 25.672753 334.910908 
L 26.564463 332.15931 
L 27.472786 328.672397 
L 28.628956 323.28077 
L 29.949943 315.902256 
L 31.325893 306.953583 
L 33.043071 294.178582 
L 34.78254 279.687531 
L 36.918933 260.190654 
L 40.425273 225.528784 
L 48.037846 149.036169 
L 50.781794 124.161352 
L 53.165056 104.694186 
L 55.031532 91.092442 
L 56.818291 79.55979 
L 58.420411 70.534327 
L 60.125272 62.344621 
L 61.684175 56.159077 
L 63.002474 51.907328 
L 63.801138 49.765551 
L 64.866024 47.416516 
L 65.930909 45.641326 
L 67.002199 44.423005 
L 67.541046 44.02143 
L 68.079893 43.759113 
L 68.61874 43.634453 
L 69.154463 43.645064 
L 69.690186 43.787426 
L 70.22591 44.059094 
L 71.200337 44.876756 
L 72.077745 45.959954 
L 73.151803 47.716613 
L 74.207575 49.883938 
L 75.468827 53.013112 
L 76.730079 56.69261 
L 78.501013 62.706916 
L 80.486537 70.492139 
L 82.786069 80.667016 
L 85.069298 91.746757 
L 88.417325 109.218013 
L 100.603249 174.428446 
L 103.609572 188.752685 
L 105.850734 198.601403 
L 107.939518 207.06487 
L 110.290551 215.70826 
L 112.614155 223.290761 
L 114.230704 227.990187 
L 116.460597 233.692789 
L 118.300626 237.72096 
L 120.271964 241.369065 
L 121.796184 243.72716 
L 123.383161 245.766721 
L 124.807159 247.247503 
L 126.005421 248.246206 
L 127.25263 249.054482 
L 128.548784 249.653947 
L 130.004999 250.047932 
L 131.621276 250.157535 
L 132.429414 250.089618 
L 133.525059 249.873433 
L 135.155061 249.301748 
L 137.053479 248.287073 
L 138.993659 246.899332 
L 141.105058 245.032439 
L 143.517129 242.507183 
L 146.015802 239.523855 
L 148.244102 236.609562 
L 151.180163 232.493323 
L 157.147787 223.566627 
L 165.259475 211.332354 
L 169.265055 205.630397 
L 173.731701 199.725257 
L 177.726608 194.929068 
L 180.61086 191.778365 
L 183.271138 189.113578 
L 186.001225 186.622416 
L 189.443103 183.831345 
L 192.331501 181.783512 
L 195.771129 179.681587 
L 199.320171 177.875268 
L 202.191391 176.664585 
L 205.972844 175.38226 
L 210.096541 174.343923 
L 214.567468 173.578924 
L 219.216534 173.103569 
L 223.121932 172.894902 
L 231.03249 172.785766 
L 238.325033 172.753556 
L 245.11582 172.481194 
L 247.767041 172.251484 
L 252.994327 171.509725 
L 255.789429 170.922279 
L 257.530655 170.478503 
L 261.311942 169.285915 
L 264.732466 167.909061 
L 267.128603 166.759891 
L 270.788855 164.688069 
L 274.045717 162.503529 
L 276.57461 160.575362 
L 280.045774 157.588718 
L 283.107991 154.623086 
L 286.606508 150.85796 
L 290.676577 145.990589 
L 294.596967 140.847697 
L 298.299855 135.640496 
L 302.266447 129.777905 
L 313.128366 113.388504 
L 317.267138 107.643506 
L 320.140704 104.058711 
L 323.05055 100.898138 
L 324.807423 99.270836 
L 326.564296 97.889913 
L 328.458654 96.710668 
L 330.628504 95.801648 
L 332.555994 95.432808 
L 334.319032 95.49132 
L 336.073802 95.954514 
L 337.826515 96.848139 
L 339.615235 98.23077 
L 341.433747 100.150247 
L 342.995331 102.230008 
L 344.542411 104.697701 
L 346.089491 107.581927 
L 347.764756 111.184471 
L 349.849691 116.37619 
L 351.930732 122.346101 
L 353.453521 127.21211 
L 355.21913 133.371784 
L 357.347653 141.517847 
L 360.017809 152.790089 
L 362.423509 163.863392 
L 365.117407 177.155773 
L 369.107502 198.155125 
L 379.069724 251.881976 
L 381.810945 265.246723 
L 383.896874 274.492885 
L 385.982803 282.719367 
L 387.491995 287.922677 
L 389.135382 292.775474 
L 390.646234 296.411015 
L 391.595293 298.258433 
L 392.544353 299.749036 
L 393.493413 300.866879 
L 394.442472 301.598086 
L 395.085308 301.866839 
L 395.728144 301.947753 
L 396.37098 301.836626 
L 397.013815 301.529926 
L 397.641117 301.039463 
L 398.582068 299.944158 
L 399.52302 298.40977 
L 400.416576 296.53875 
L 401.607985 293.410262 
L 402.645083 290.094054 
L 403.907575 285.307925 
L 405.170067 279.700563 
L 406.71081 271.762259 
L 408.444051 261.424165 
L 410.146696 249.881532 
L 412.202939 234.23145 
L 414.3693 215.931369 
L 416.947117 192.136618 
L 420.58806 155.960203 
L 427.348825 87.814276 
L 430.051527 63.193239 
L 431.952077 47.717711 
L 433.610415 35.804253 
L 435.199262 26.021033 
L 436.69732 18.436963 
L 437.866807 13.728136 
L 438.669344 11.152557 
L 439.672516 8.721765 
L 440.274419 7.700354 
L 441.015802 6.909185 
L 441.470108 6.683591 
L 441.884465 6.649671 
L 442.298822 6.77946 
L 442.920358 7.280618 
L 443.541894 8.148893 
L 444.16343 9.383547 
L 444.877988 11.255512 
L 445.77859 14.327566 
L 446.679193 18.244773 
L 447.661148 23.543251 
L 448.765095 30.854572 
L 450.031675 40.77012 
L 451.720449 55.440505 
L 451.720449 55.440505 
" clip-path="url(#pa20bf8c0a1)" style="fill: none; stroke: #0000ff; stroke-linecap: square"/>
   </g>
   <g id="patch_3">
    <path d="M 232.261668 345.6 
L 232.261668 0 
" style="fill: none; stroke: #000000; stroke-width: 0.8; stroke-linejoin: miter; stroke-linecap: square"/>
   </g>
   <g id="patch_4">
    <path d="M 0 172.7855 
L 460.8 172.7855 
" style="fill: none; stroke: #000000; stroke-width: 0.8; stroke-linejoin: miter; stroke-linecap: square"/>
   </g>
  </g>
 </g>
 <defs>
  <clipPath id="pa20bf8c0a1">
   <rect x="0" y="0" width="460.8" height="345.6"/>
  </clipPath>
 </defs>
</svg>
