<?xml version="1.0" encoding="utf-8" standalone="no"?>
<!DOCTYPE svg PUBLIC "-//W3C//DTD SVG 1.1//EN"
  "http://www.w3.org/Graphics/SVG/1.1/DTD/svg11.dtd">
<svg xmlns:xlink="http://www.w3.org/1999/xlink" width="460.8pt" height="345.6pt" viewBox="0 0 460.8 345.6" xmlns="http://www.w3.org/2000/svg" version="1.1">
 <metadata>
  <rdf:RDF xmlns:dc="http://purl.org/dc/elements/1.1/" xmlns:cc="http://creativecommons.org/ns#" xmlns:rdf="http://www.w3.org/1999/02/22-rdf-syntax-ns#">
   <cc:Work>
    <dc:type rdf:resource="http://purl.org/dc/dcmitype/StillImage"/>
    <dc:date>2025-08-02T12:14:21.080452</dc:date>
    <dc:format>image/svg+xml</dc:format>
    <dc:creator>
     <cc:Agent>
      <dc:title>Matplotlib v3.10.3, https://matplotlib.org/</dc:title>
     </cc:Agent>
    </dc:creator>
   </cc:Work>
  </rdf:RDF>
 </metadata>
 <defs>
  <style type="text/css">*{stroke-linejoin: round; stroke-linecap: butt}</style>
 </defs>
 <g id="figure_1">
  <g id="patch_1">
   <path d="M 0 345.6 
L 460.8 345.6 
L 460.8 0 
L 0 0 
z
" style="fill: #ffffff"/>
  </g>
  <g id="axes_1">
   <g id="patch_2">
    <path d="M 57.596004 345.6 
L 403.203996 345.6 
L 403.203996 0 
L 57.596004 0 
z
" style="fill: #ffffff"/>
   </g>
   <g id="matplotlib.axis_1">
    <g id="xtick_1">
     <g id="line2d_1">
      <defs>
       <path id="m800a687d75" d="M 0 0 
L 0 3.5 
" style="stroke: #000000; stroke-width: 0.8"/>
      </defs>
      <g>
       <use xlink:href="#m800a687d75" x="64.239088" y="172.797498" style="stroke: #000000; stroke-width: 0.8"/>
      </g>
     </g>
     <g id="text_1">
      <!-- −1.0 -->
      <g transform="translate(52.097682 187.395936) scale(0.1 -0.1)">
       <defs>
        <path id="DejaVuSans-2212" d="M 678 2272 
L 4684 2272 
L 4684 1741 
L 678 1741 
L 678 2272 
z
" transform="scale(0.015625)"/>
        <path id="DejaVuSans-31" d="M 794 531 
L 1825 531 
L 1825 4091 
L 703 3866 
L 703 4441 
L 1819 4666 
L 2450 4666 
L 2450 531 
L 3481 531 
L 3481 0 
L 794 0 
L 794 531 
z
" transform="scale(0.015625)"/>
        <path id="DejaVuSans-2e" d="M 684 794 
L 1344 794 
L 1344 0 
L 684 0 
L 684 794 
z
" transform="scale(0.015625)"/>
        <path id="DejaVuSans-30" d="M 2034 4250 
Q 1547 4250 1301 3770 
Q 1056 3291 1056 2328 
Q 1056 1369 1301 889 
Q 1547 409 2034 409 
Q 2525 409 2770 889 
Q 3016 1369 3016 2328 
Q 3016 3291 2770 3770 
Q 2525 4250 2034 4250 
z
M 2034 4750 
Q 2819 4750 3233 4129 
Q 3647 3509 3647 2328 
Q 3647 1150 3233 529 
Q 2819 -91 2034 -91 
Q 1250 -91 836 529 
Q 422 1150 422 2328 
Q 422 3509 836 4129 
Q 1250 4750 2034 4750 
z
" transform="scale(0.015625)"/>
       </defs>
       <use xlink:href="#DejaVuSans-2212"/>
       <use xlink:href="#DejaVuSans-31" transform="translate(83.789062 0)"/>
       <use xlink:href="#DejaVuSans-2e" transform="translate(147.412109 0)"/>
       <use xlink:href="#DejaVuSans-30" transform="translate(179.199219 0)"/>
      </g>
     </g>
    </g>
    <g id="xtick_2">
     <g id="line2d_2">
      <g>
       <use xlink:href="#m800a687d75" x="147.318749" y="172.797498" style="stroke: #000000; stroke-width: 0.8"/>
      </g>
     </g>
     <g id="text_2">
      <!-- −0.5 -->
      <g transform="translate(135.177343 187.395936) scale(0.1 -0.1)">
       <defs>
        <path id="DejaVuSans-35" d="M 691 4666 
L 3169 4666 
L 3169 4134 
L 1269 4134 
L 1269 2991 
Q 1406 3038 1543 3061 
Q 1681 3084 1819 3084 
Q 2600 3084 3056 2656 
Q 3513 2228 3513 1497 
Q 3513 744 3044 326 
Q 2575 -91 1722 -91 
Q 1428 -91 1123 -41 
Q 819 9 494 109 
L 494 744 
Q 775 591 1075 516 
Q 1375 441 1709 441 
Q 2250 441 2565 725 
Q 2881 1009 2881 1497 
Q 2881 1984 2565 2268 
Q 2250 2553 1709 2553 
Q 1456 2553 1204 2497 
Q 953 2441 691 2322 
L 691 4666 
z
" transform="scale(0.015625)"/>
       </defs>
       <use xlink:href="#DejaVuSans-2212"/>
       <use xlink:href="#DejaVuSans-30" transform="translate(83.789062 0)"/>
       <use xlink:href="#DejaVuSans-2e" transform="translate(147.412109 0)"/>
       <use xlink:href="#DejaVuSans-35" transform="translate(179.199219 0)"/>
      </g>
     </g>
    </g>
    <g id="xtick_3">
     <g id="line2d_3">
      <g>
       <use xlink:href="#m800a687d75" x="230.398411" y="172.797498" style="stroke: #000000; stroke-width: 0.8"/>
      </g>
     </g>
    </g>
    <g id="xtick_4">
     <g id="line2d_4">
      <g>
       <use xlink:href="#m800a687d75" x="313.478072" y="172.797498" style="stroke: #000000; stroke-width: 0.8"/>
      </g>
     </g>
     <g id="text_3">
      <!-- 0.5 -->
      <g transform="translate(305.526509 187.395936) scale(0.1 -0.1)">
       <use xlink:href="#DejaVuSans-30"/>
       <use xlink:href="#DejaVuSans-2e" transform="translate(63.623047 0)"/>
       <use xlink:href="#DejaVuSans-35" transform="translate(95.410156 0)"/>
      </g>
     </g>
    </g>
    <g id="xtick_5">
     <g id="line2d_5">
      <g>
       <use xlink:href="#m800a687d75" x="396.557733" y="172.797498" style="stroke: #000000; stroke-width: 0.8"/>
      </g>
     </g>
     <g id="text_4">
      <!-- 1.0 -->
      <g transform="translate(388.606171 187.395936) scale(0.1 -0.1)">
       <use xlink:href="#DejaVuSans-31"/>
       <use xlink:href="#DejaVuSans-2e" transform="translate(63.623047 0)"/>
       <use xlink:href="#DejaVuSans-30" transform="translate(95.410156 0)"/>
      </g>
     </g>
    </g>
    <g id="xtick_6">
     <g id="line2d_6">
      <defs>
       <path id="m7dbfffe565" d="M 0 0 
L 0 2 
" style="stroke: #000000; stroke-width: 0.6"/>
      </defs>
      <g>
       <use xlink:href="#m7dbfffe565" x="80.85502" y="172.797498" style="stroke: #000000; stroke-width: 0.6"/>
      </g>
     </g>
    </g>
    <g id="xtick_7">
     <g id="line2d_7">
      <g>
       <use xlink:href="#m7dbfffe565" x="97.470952" y="172.797498" style="stroke: #000000; stroke-width: 0.6"/>
      </g>
     </g>
    </g>
    <g id="xtick_8">
     <g id="line2d_8">
      <g>
       <use xlink:href="#m7dbfffe565" x="114.086885" y="172.797498" style="stroke: #000000; stroke-width: 0.6"/>
      </g>
     </g>
    </g>
    <g id="xtick_9">
     <g id="line2d_9">
      <g>
       <use xlink:href="#m7dbfffe565" x="130.702817" y="172.797498" style="stroke: #000000; stroke-width: 0.6"/>
      </g>
     </g>
    </g>
    <g id="xtick_10">
     <g id="line2d_10">
      <g>
       <use xlink:href="#m7dbfffe565" x="163.934682" y="172.797498" style="stroke: #000000; stroke-width: 0.6"/>
      </g>
     </g>
    </g>
    <g id="xtick_11">
     <g id="line2d_11">
      <g>
       <use xlink:href="#m7dbfffe565" x="180.550614" y="172.797498" style="stroke: #000000; stroke-width: 0.6"/>
      </g>
     </g>
    </g>
    <g id="xtick_12">
     <g id="line2d_12">
      <g>
       <use xlink:href="#m7dbfffe565" x="197.166546" y="172.797498" style="stroke: #000000; stroke-width: 0.6"/>
      </g>
     </g>
    </g>
    <g id="xtick_13">
     <g id="line2d_13">
      <g>
       <use xlink:href="#m7dbfffe565" x="213.782478" y="172.797498" style="stroke: #000000; stroke-width: 0.6"/>
      </g>
     </g>
    </g>
    <g id="xtick_14">
     <g id="line2d_14">
      <g>
       <use xlink:href="#m7dbfffe565" x="247.014343" y="172.797498" style="stroke: #000000; stroke-width: 0.6"/>
      </g>
     </g>
    </g>
    <g id="xtick_15">
     <g id="line2d_15">
      <g>
       <use xlink:href="#m7dbfffe565" x="263.630275" y="172.797498" style="stroke: #000000; stroke-width: 0.6"/>
      </g>
     </g>
    </g>
    <g id="xtick_16">
     <g id="line2d_16">
      <g>
       <use xlink:href="#m7dbfffe565" x="280.246207" y="172.797498" style="stroke: #000000; stroke-width: 0.6"/>
      </g>
     </g>
    </g>
    <g id="xtick_17">
     <g id="line2d_17">
      <g>
       <use xlink:href="#m7dbfffe565" x="296.86214" y="172.797498" style="stroke: #000000; stroke-width: 0.6"/>
      </g>
     </g>
    </g>
    <g id="xtick_18">
     <g id="line2d_18">
      <g>
       <use xlink:href="#m7dbfffe565" x="330.094004" y="172.797498" style="stroke: #000000; stroke-width: 0.6"/>
      </g>
     </g>
    </g>
    <g id="xtick_19">
     <g id="line2d_19">
      <g>
       <use xlink:href="#m7dbfffe565" x="346.709937" y="172.797498" style="stroke: #000000; stroke-width: 0.6"/>
      </g>
     </g>
    </g>
    <g id="xtick_20">
     <g id="line2d_20">
      <g>
       <use xlink:href="#m7dbfffe565" x="363.325869" y="172.797498" style="stroke: #000000; stroke-width: 0.6"/>
      </g>
     </g>
    </g>
    <g id="xtick_21">
     <g id="line2d_21">
      <g>
       <use xlink:href="#m7dbfffe565" x="379.941801" y="172.797498" style="stroke: #000000; stroke-width: 0.6"/>
      </g>
     </g>
    </g>
   </g>
   <g id="matplotlib.axis_2">
    <g id="ytick_1">
     <g id="line2d_22">
      <defs>
       <path id="m6ae69bc9c6" d="M 0 0 
L -3.5 0 
" style="stroke: #000000; stroke-width: 0.8"/>
      </defs>
      <g>
       <use xlink:href="#m6ae69bc9c6" x="230.398411" y="338.956821" style="stroke: #000000; stroke-width: 0.8"/>
      </g>
     </g>
     <g id="text_5">
      <!-- −1.0 -->
      <g transform="translate(199.115598 342.75604) scale(0.1 -0.1)">
       <use xlink:href="#DejaVuSans-2212"/>
       <use xlink:href="#DejaVuSans-31" transform="translate(83.789062 0)"/>
       <use xlink:href="#DejaVuSans-2e" transform="translate(147.412109 0)"/>
       <use xlink:href="#DejaVuSans-30" transform="translate(179.199219 0)"/>
      </g>
     </g>
    </g>
    <g id="ytick_2">
     <g id="line2d_23">
      <g>
       <use xlink:href="#m6ae69bc9c6" x="230.398411" y="255.87716" style="stroke: #000000; stroke-width: 0.8"/>
      </g>
     </g>
     <g id="text_6">
      <!-- −0.5 -->
      <g transform="translate(199.115598 259.676378) scale(0.1 -0.1)">
       <use xlink:href="#DejaVuSans-2212"/>
       <use xlink:href="#DejaVuSans-30" transform="translate(83.789062 0)"/>
       <use xlink:href="#DejaVuSans-2e" transform="translate(147.412109 0)"/>
       <use xlink:href="#DejaVuSans-35" transform="translate(179.199219 0)"/>
      </g>
     </g>
    </g>
    <g id="ytick_3">
     <g id="line2d_24">
      <g>
       <use xlink:href="#m6ae69bc9c6" x="230.398411" y="172.797498" style="stroke: #000000; stroke-width: 0.8"/>
      </g>
     </g>
    </g>
    <g id="ytick_4">
     <g id="line2d_25">
      <g>
       <use xlink:href="#m6ae69bc9c6" x="230.398411" y="89.717837" style="stroke: #000000; stroke-width: 0.8"/>
      </g>
     </g>
     <g id="text_7">
      <!-- 0.5 -->
      <g transform="translate(207.495286 93.517056) scale(0.1 -0.1)">
       <use xlink:href="#DejaVuSans-30"/>
       <use xlink:href="#DejaVuSans-2e" transform="translate(63.623047 0)"/>
       <use xlink:href="#DejaVuSans-35" transform="translate(95.410156 0)"/>
      </g>
     </g>
    </g>
    <g id="ytick_5">
     <g id="line2d_26">
      <g>
       <use xlink:href="#m6ae69bc9c6" x="230.398411" y="6.638176" style="stroke: #000000; stroke-width: 0.8"/>
      </g>
     </g>
     <g id="text_8">
      <!-- 1.0 -->
      <g transform="translate(207.495286 10.437394) scale(0.1 -0.1)">
       <use xlink:href="#DejaVuSans-31"/>
       <use xlink:href="#DejaVuSans-2e" transform="translate(63.623047 0)"/>
       <use xlink:href="#DejaVuSans-30" transform="translate(95.410156 0)"/>
      </g>
     </g>
    </g>
    <g id="ytick_6">
     <g id="line2d_27">
      <defs>
       <path id="mbe2f59a0fc" d="M 0 0 
L -2 0 
" style="stroke: #000000; stroke-width: 0.6"/>
      </defs>
      <g>
       <use xlink:href="#mbe2f59a0fc" x="230.398411" y="322.340889" style="stroke: #000000; stroke-width: 0.6"/>
      </g>
     </g>
    </g>
    <g id="ytick_7">
     <g id="line2d_28">
      <g>
       <use xlink:href="#mbe2f59a0fc" x="230.398411" y="305.724956" style="stroke: #000000; stroke-width: 0.6"/>
      </g>
     </g>
    </g>
    <g id="ytick_8">
     <g id="line2d_29">
      <g>
       <use xlink:href="#mbe2f59a0fc" x="230.398411" y="289.109024" style="stroke: #000000; stroke-width: 0.6"/>
      </g>
     </g>
    </g>
    <g id="ytick_9">
     <g id="line2d_30">
      <g>
       <use xlink:href="#mbe2f59a0fc" x="230.398411" y="272.493092" style="stroke: #000000; stroke-width: 0.6"/>
      </g>
     </g>
    </g>
    <g id="ytick_10">
     <g id="line2d_31">
      <g>
       <use xlink:href="#mbe2f59a0fc" x="230.398411" y="239.261227" style="stroke: #000000; stroke-width: 0.6"/>
      </g>
     </g>
    </g>
    <g id="ytick_11">
     <g id="line2d_32">
      <g>
       <use xlink:href="#mbe2f59a0fc" x="230.398411" y="222.645295" style="stroke: #000000; stroke-width: 0.6"/>
      </g>
     </g>
    </g>
    <g id="ytick_12">
     <g id="line2d_33">
      <g>
       <use xlink:href="#mbe2f59a0fc" x="230.398411" y="206.029363" style="stroke: #000000; stroke-width: 0.6"/>
      </g>
     </g>
    </g>
    <g id="ytick_13">
     <g id="line2d_34">
      <g>
       <use xlink:href="#mbe2f59a0fc" x="230.398411" y="189.413431" style="stroke: #000000; stroke-width: 0.6"/>
      </g>
     </g>
    </g>
    <g id="ytick_14">
     <g id="line2d_35">
      <g>
       <use xlink:href="#mbe2f59a0fc" x="230.398411" y="156.181566" style="stroke: #000000; stroke-width: 0.6"/>
      </g>
     </g>
    </g>
    <g id="ytick_15">
     <g id="line2d_36">
      <g>
       <use xlink:href="#mbe2f59a0fc" x="230.398411" y="139.565634" style="stroke: #000000; stroke-width: 0.6"/>
      </g>
     </g>
    </g>
    <g id="ytick_16">
     <g id="line2d_37">
      <g>
       <use xlink:href="#mbe2f59a0fc" x="230.398411" y="122.949701" style="stroke: #000000; stroke-width: 0.6"/>
      </g>
     </g>
    </g>
    <g id="ytick_17">
     <g id="line2d_38">
      <g>
       <use xlink:href="#mbe2f59a0fc" x="230.398411" y="106.333769" style="stroke: #000000; stroke-width: 0.6"/>
      </g>
     </g>
    </g>
    <g id="ytick_18">
     <g id="line2d_39">
      <g>
       <use xlink:href="#mbe2f59a0fc" x="230.398411" y="73.101905" style="stroke: #000000; stroke-width: 0.6"/>
      </g>
     </g>
    </g>
    <g id="ytick_19">
     <g id="line2d_40">
      <g>
       <use xlink:href="#mbe2f59a0fc" x="230.398411" y="56.485972" style="stroke: #000000; stroke-width: 0.6"/>
      </g>
     </g>
    </g>
    <g id="ytick_20">
     <g id="line2d_41">
      <g>
       <use xlink:href="#mbe2f59a0fc" x="230.398411" y="39.87004" style="stroke: #000000; stroke-width: 0.6"/>
      </g>
     </g>
    </g>
    <g id="ytick_21">
     <g id="line2d_42">
      <g>
       <use xlink:href="#mbe2f59a0fc" x="230.398411" y="23.254108" style="stroke: #000000; stroke-width: 0.6"/>
      </g>
     </g>
    </g>
   </g>
   <g id="line2d_43">
    <path d="M 230.398411 172.797498 
L 245.961994 141.807178 
L 257.582634 119.161601 
L 264.848261 105.394919 
L 274.65318 87.484984 
L 285.022617 69.621289 
L 289.512886 62.303841 
L 296.253431 51.873815 
L 300.96363 45.026239 
L 307.145243 36.658015 
L 310.238044 32.759665 
L 313.126004 29.307269 
L 318.747833 23.147133 
L 326.301249 16.164916 
L 328.085739 14.754305 
L 334.016458 10.793098 
L 337.536402 9.01369 
L 340.471274 7.885711 
L 344.402413 6.922729 
L 348.465072 6.646154 
L 351.260252 6.919618 
L 355.136517 7.98665 
L 359.792489 10.445966 
L 362.233758 12.310376 
L 363.868457 13.802326 
L 368.862582 19.714747 
L 371.597455 23.935353 
L 373.152185 26.690691 
L 377.256635 35.399974 
L 378.987816 39.794946 
L 380.666457 44.538357 
L 384.378654 57.067167 
L 386.953544 67.88864 
L 388.914249 77.748361 
L 389.879395 83.278035 
L 391.076117 90.935784 
L 392.111676 98.480015 
L 393.040229 106.220918 
L 393.823355 113.745287 
L 395.393842 133.807882 
L 395.907282 143.53673 
L 396.465457 161.729974 
L 396.557689 172.553843 
L 396.45137 184.678564 
L 395.906379 202.078378 
L 395.200025 214.846762 
L 394.177224 228.045196 
L 393.155726 238.329939 
L 391.540295 251.398586 
L 389.581398 264.079651 
L 386.765999 278.56806 
L 383.840775 290.54365 
L 382.704184 294.565476 
L 380.756184 300.788545 
L 378.443593 307.233203 
L 374.996912 315.264001 
L 373.450012 318.344741 
L 369.956153 324.283596 
L 365.954081 329.583775 
L 361.575237 333.829302 
L 356.293457 337.123287 
L 353.896257 338.041136 
L 350.867771 338.73789 
L 345.2523 338.792893 
L 343.126426 338.43148 
L 339.862535 337.503077 
L 336.041494 335.880601 
L 330.053651 332.282174 
L 328.333959 331.029199 
L 321.765575 325.425569 
L 318.68525 322.38359 
L 313.021641 316.166246 
L 309.346498 311.732392 
L 302.458143 302.658886 
L 297.073451 294.940712 
L 293.537579 289.603682 
L 289.492988 283.259349 
L 281.832851 270.613821 
L 274.56853 257.959251 
L 268.617258 247.185707 
L 257.470579 226.218348 
L 248.00651 207.815402 
L 230.721148 173.442972 
L 211.852507 135.937458 
L 203.828137 120.34077 
L 190.09346 94.595061 
L 183.946233 83.597515 
L 177.024618 71.707065 
L 168.016816 57.160764 
L 160.843204 46.461848 
L 154.064886 37.19409 
L 147.427637 29.025174 
L 140.746571 21.832527 
L 136.295064 17.683393 
L 130.065732 12.845144 
L 123.881382 9.294684 
L 118.089136 7.257835 
L 113.870314 6.660378 
L 109.919293 6.858563 
L 108.339488 7.160705 
L 102.974654 9.237856 
L 99.655457 11.423947 
L 96.770884 13.956897 
L 93.993337 17.014803 
L 91.68586 20.067145 
L 88.924618 24.402573 
L 86.84779 28.211663 
L 83.713988 34.984357 
L 80.861076 42.411368 
L 78.546695 49.507007 
L 76.739242 55.854769 
L 74.345032 65.611457 
L 72.3643 75.169233 
L 70.253072 87.406447 
L 69.114162 95.23423 
L 67.343276 110.056237 
L 66.678225 116.898601 
L 65.654836 129.877766 
L 65.048465 140.196364 
L 64.64692 149.585403 
L 64.355031 160.393813 
L 64.242311 174.867423 
L 64.342831 184.531527 
L 64.82293 200.53355 
L 65.253429 209.237324 
L 66.175014 222.788675 
L 67.278326 234.909761 
L 68.995878 249.484064 
L 70.108018 257.247639 
L 71.603268 266.298434 
L 73.106455 274.191804 
L 74.568901 280.971181 
L 76.676568 289.505707 
L 79.402483 298.836423 
L 82.33647 307.189797 
L 84.043976 311.387512 
L 85.885781 315.442936 
L 88.319826 320.1345 
L 90.783978 324.197599 
L 94.343008 329.000872 
L 97.994596 332.788736 
L 103.233867 336.497337 
L 106.973369 338.063804 
L 110.003879 338.748895 
L 113.25808 338.953846 
L 117.680004 338.429399 
L 120.694081 337.586214 
L 122.577912 336.873378 
L 129.863014 332.886904 
L 131.199615 331.958734 
L 136.109719 328.072358 
L 138.821114 325.623853 
L 144.725873 319.610507 
L 148.350177 315.492463 
L 154.143406 308.298671 
L 160.079755 300.219994 
L 164.94325 293.122463 
L 169.246673 286.516935 
L 177.025977 273.885655 
L 182.623805 264.312027 
L 195.077076 241.82561 
L 202.876088 227.08179 
L 215.927383 201.629584 
L 230.398411 172.797498 
L 230.398411 172.797498 
" clip-path="url(#p6ee840d401)" style="fill: none; stroke: #0066ff; stroke-linecap: square"/>
   </g>
   <g id="patch_3">
    <path d="M 230.398411 345.6 
L 230.398411 0 
" style="fill: none; stroke: #000000; stroke-width: 0.8; stroke-linejoin: miter; stroke-linecap: square"/>
   </g>
   <g id="patch_4">
    <path d="M 57.596004 172.797498 
L 403.203996 172.797498 
" style="fill: none; stroke: #000000; stroke-width: 0.8; stroke-linejoin: miter; stroke-linecap: square"/>
   </g>
  </g>
 </g>
 <defs>
  <clipPath id="p6ee840d401">
   <rect x="57.596004" y="0" width="345.607992" height="345.6"/>
  </clipPath>
 </defs>
</svg>
