<?xml version="1.0" encoding="utf-8" standalone="no"?>
<!DOCTYPE svg PUBLIC "-//W3C//DTD SVG 1.1//EN"
  "http://www.w3.org/Graphics/SVG/1.1/DTD/svg11.dtd">
<svg xmlns:xlink="http://www.w3.org/1999/xlink" width="460.8pt" height="345.6pt" viewBox="0 0 460.8 345.6" xmlns="http://www.w3.org/2000/svg" version="1.1">
 <metadata>
  <rdf:RDF xmlns:dc="http://purl.org/dc/elements/1.1/" xmlns:cc="http://creativecommons.org/ns#" xmlns:rdf="http://www.w3.org/1999/02/22-rdf-syntax-ns#">
   <cc:Work>
    <dc:type rdf:resource="http://purl.org/dc/dcmitype/StillImage"/>
    <dc:date>2025-08-02T12:14:45.475878</dc:date>
    <dc:format>image/svg+xml</dc:format>
    <dc:creator>
     <cc:Agent>
      <dc:title>Matplotlib v3.10.3, https://matplotlib.org/</dc:title>
     </cc:Agent>
    </dc:creator>
   </cc:Work>
  </rdf:RDF>
 </metadata>
 <defs>
  <style type="text/css">*{stroke-linejoin: round; stroke-linecap: butt}</style>
 </defs>
 <g id="figure_1">
  <g id="patch_1">
   <path d="M 0 345.6 
L 460.8 345.6 
L 460.8 0 
L 0 0 
z
" style="fill: #ffffff"/>
  </g>
  <g id="axes_1">
   <g id="patch_2">
    <path d="M 29.78 334.520722 
L 460.8 334.520722 
L 460.8 0 
L 29.78 0 
z
" style="fill: #ffffff"/>
   </g>
   <g id="matplotlib.axis_1">
    <g id="xtick_1">
     <g id="line2d_1">
      <defs>
       <path id="m97bb88bd0b" d="M 0 0 
L 0 3.5 
" style="stroke: #000000; stroke-width: 0.8"/>
      </defs>
      <g>
       <use xlink:href="#m97bb88bd0b" x="84.439692" y="328.087631" style="stroke: #000000; stroke-width: 0.8"/>
      </g>
     </g>
     <g id="text_1">
      <!-- 2 -->
      <g transform="translate(81.258442 342.686069) scale(0.1 -0.1)">
       <defs>
        <path id="DejaVuSans-32" d="M 1228 531 
L 3431 531 
L 3431 0 
L 469 0 
L 469 531 
Q 828 903 1448 1529 
Q 2069 2156 2228 2338 
Q 2531 2678 2651 2914 
Q 2772 3150 2772 3378 
Q 2772 3750 2511 3984 
Q 2250 4219 1831 4219 
Q 1534 4219 1204 4116 
Q 875 4013 500 3803 
L 500 4441 
Q 881 4594 1212 4672 
Q 1544 4750 1819 4750 
Q 2544 4750 2975 4387 
Q 3406 4025 3406 3419 
Q 3406 3131 3298 2873 
Q 3191 2616 2906 2266 
Q 2828 2175 2409 1742 
Q 1991 1309 1228 531 
z
" transform="scale(0.015625)"/>
       </defs>
       <use xlink:href="#DejaVuSans-32"/>
      </g>
     </g>
    </g>
    <g id="xtick_2">
     <g id="line2d_2">
      <g>
       <use xlink:href="#m97bb88bd0b" x="176.354154" y="328.087631" style="stroke: #000000; stroke-width: 0.8"/>
      </g>
     </g>
     <g id="text_2">
      <!-- 4 -->
      <g transform="translate(173.172904 342.686069) scale(0.1 -0.1)">
       <defs>
        <path id="DejaVuSans-34" d="M 2419 4116 
L 825 1625 
L 2419 1625 
L 2419 4116 
z
M 2253 4666 
L 3047 4666 
L 3047 1625 
L 3713 1625 
L 3713 1100 
L 3047 1100 
L 3047 0 
L 2419 0 
L 2419 1100 
L 313 1100 
L 313 1709 
L 2253 4666 
z
" transform="scale(0.015625)"/>
       </defs>
       <use xlink:href="#DejaVuSans-34"/>
      </g>
     </g>
    </g>
    <g id="xtick_3">
     <g id="line2d_3">
      <g>
       <use xlink:href="#m97bb88bd0b" x="268.268615" y="328.087631" style="stroke: #000000; stroke-width: 0.8"/>
      </g>
     </g>
     <g id="text_3">
      <!-- 6 -->
      <g transform="translate(265.087365 342.686069) scale(0.1 -0.1)">
       <defs>
        <path id="DejaVuSans-36" d="M 2113 2584 
Q 1688 2584 1439 2293 
Q 1191 2003 1191 1497 
Q 1191 994 1439 701 
Q 1688 409 2113 409 
Q 2538 409 2786 701 
Q 3034 994 3034 1497 
Q 3034 2003 2786 2293 
Q 2538 2584 2113 2584 
z
M 3366 4563 
L 3366 3988 
Q 3128 4100 2886 4159 
Q 2644 4219 2406 4219 
Q 1781 4219 1451 3797 
Q 1122 3375 1075 2522 
Q 1259 2794 1537 2939 
Q 1816 3084 2150 3084 
Q 2853 3084 3261 2657 
Q 3669 2231 3669 1497 
Q 3669 778 3244 343 
Q 2819 -91 2113 -91 
Q 1303 -91 875 529 
Q 447 1150 447 2328 
Q 447 3434 972 4092 
Q 1497 4750 2381 4750 
Q 2619 4750 2861 4703 
Q 3103 4656 3366 4563 
z
" transform="scale(0.015625)"/>
       </defs>
       <use xlink:href="#DejaVuSans-36"/>
      </g>
     </g>
    </g>
    <g id="xtick_4">
     <g id="line2d_4">
      <g>
       <use xlink:href="#m97bb88bd0b" x="360.183077" y="328.087631" style="stroke: #000000; stroke-width: 0.8"/>
      </g>
     </g>
     <g id="text_4">
      <!-- 8 -->
      <g transform="translate(357.001827 342.686069) scale(0.1 -0.1)">
       <defs>
        <path id="DejaVuSans-38" d="M 2034 2216 
Q 1584 2216 1326 1975 
Q 1069 1734 1069 1313 
Q 1069 891 1326 650 
Q 1584 409 2034 409 
Q 2484 409 2743 651 
Q 3003 894 3003 1313 
Q 3003 1734 2745 1975 
Q 2488 2216 2034 2216 
z
M 1403 2484 
Q 997 2584 770 2862 
Q 544 3141 544 3541 
Q 544 4100 942 4425 
Q 1341 4750 2034 4750 
Q 2731 4750 3128 4425 
Q 3525 4100 3525 3541 
Q 3525 3141 3298 2862 
Q 3072 2584 2669 2484 
Q 3125 2378 3379 2068 
Q 3634 1759 3634 1313 
Q 3634 634 3220 271 
Q 2806 -91 2034 -91 
Q 1263 -91 848 271 
Q 434 634 434 1313 
Q 434 1759 690 2068 
Q 947 2378 1403 2484 
z
M 1172 3481 
Q 1172 3119 1398 2916 
Q 1625 2713 2034 2713 
Q 2441 2713 2670 2916 
Q 2900 3119 2900 3481 
Q 2900 3844 2670 4047 
Q 2441 4250 2034 4250 
Q 1625 4250 1398 4047 
Q 1172 3844 1172 3481 
z
" transform="scale(0.015625)"/>
       </defs>
       <use xlink:href="#DejaVuSans-38"/>
      </g>
     </g>
    </g>
    <g id="xtick_5">
     <g id="line2d_5">
      <g>
       <use xlink:href="#m97bb88bd0b" x="452.097539" y="328.087631" style="stroke: #000000; stroke-width: 0.8"/>
      </g>
     </g>
     <g id="text_5">
      <!-- 10 -->
      <g transform="translate(445.735039 342.686069) scale(0.1 -0.1)">
       <defs>
        <path id="DejaVuSans-31" d="M 794 531 
L 1825 531 
L 1825 4091 
L 703 3866 
L 703 4441 
L 1819 4666 
L 2450 4666 
L 2450 531 
L 3481 531 
L 3481 0 
L 794 0 
L 794 531 
z
" transform="scale(0.015625)"/>
        <path id="DejaVuSans-30" d="M 2034 4250 
Q 1547 4250 1301 3770 
Q 1056 3291 1056 2328 
Q 1056 1369 1301 889 
Q 1547 409 2034 409 
Q 2525 409 2770 889 
Q 3016 1369 3016 2328 
Q 3016 3291 2770 3770 
Q 2525 4250 2034 4250 
z
M 2034 4750 
Q 2819 4750 3233 4129 
Q 3647 3509 3647 2328 
Q 3647 1150 3233 529 
Q 2819 -91 2034 -91 
Q 1250 -91 836 529 
Q 422 1150 422 2328 
Q 422 3509 836 4129 
Q 1250 4750 2034 4750 
z
" transform="scale(0.015625)"/>
       </defs>
       <use xlink:href="#DejaVuSans-31"/>
       <use xlink:href="#DejaVuSans-30" transform="translate(63.623047 0)"/>
      </g>
     </g>
    </g>
    <g id="xtick_6">
     <g id="line2d_6">
      <defs>
       <path id="m0d39e552c3" d="M 0 0 
L 0 2 
" style="stroke: #000000; stroke-width: 0.6"/>
      </defs>
      <g>
       <use xlink:href="#m0d39e552c3" x="38.482461" y="328.087631" style="stroke: #000000; stroke-width: 0.6"/>
      </g>
     </g>
    </g>
    <g id="xtick_7">
     <g id="line2d_7">
      <g>
       <use xlink:href="#m0d39e552c3" x="61.461077" y="328.087631" style="stroke: #000000; stroke-width: 0.6"/>
      </g>
     </g>
    </g>
    <g id="xtick_8">
     <g id="line2d_8">
      <g>
       <use xlink:href="#m0d39e552c3" x="107.418307" y="328.087631" style="stroke: #000000; stroke-width: 0.6"/>
      </g>
     </g>
    </g>
    <g id="xtick_9">
     <g id="line2d_9">
      <g>
       <use xlink:href="#m0d39e552c3" x="130.396923" y="328.087631" style="stroke: #000000; stroke-width: 0.6"/>
      </g>
     </g>
    </g>
    <g id="xtick_10">
     <g id="line2d_10">
      <g>
       <use xlink:href="#m0d39e552c3" x="153.375538" y="328.087631" style="stroke: #000000; stroke-width: 0.6"/>
      </g>
     </g>
    </g>
    <g id="xtick_11">
     <g id="line2d_11">
      <g>
       <use xlink:href="#m0d39e552c3" x="199.332769" y="328.087631" style="stroke: #000000; stroke-width: 0.6"/>
      </g>
     </g>
    </g>
    <g id="xtick_12">
     <g id="line2d_12">
      <g>
       <use xlink:href="#m0d39e552c3" x="222.311385" y="328.087631" style="stroke: #000000; stroke-width: 0.6"/>
      </g>
     </g>
    </g>
    <g id="xtick_13">
     <g id="line2d_13">
      <g>
       <use xlink:href="#m0d39e552c3" x="245.29" y="328.087631" style="stroke: #000000; stroke-width: 0.6"/>
      </g>
     </g>
    </g>
    <g id="xtick_14">
     <g id="line2d_14">
      <g>
       <use xlink:href="#m0d39e552c3" x="291.247231" y="328.087631" style="stroke: #000000; stroke-width: 0.6"/>
      </g>
     </g>
    </g>
    <g id="xtick_15">
     <g id="line2d_15">
      <g>
       <use xlink:href="#m0d39e552c3" x="314.225846" y="328.087631" style="stroke: #000000; stroke-width: 0.6"/>
      </g>
     </g>
    </g>
    <g id="xtick_16">
     <g id="line2d_16">
      <g>
       <use xlink:href="#m0d39e552c3" x="337.204462" y="328.087631" style="stroke: #000000; stroke-width: 0.6"/>
      </g>
     </g>
    </g>
    <g id="xtick_17">
     <g id="line2d_17">
      <g>
       <use xlink:href="#m0d39e552c3" x="383.161693" y="328.087631" style="stroke: #000000; stroke-width: 0.6"/>
      </g>
     </g>
    </g>
    <g id="xtick_18">
     <g id="line2d_18">
      <g>
       <use xlink:href="#m0d39e552c3" x="406.140308" y="328.087631" style="stroke: #000000; stroke-width: 0.6"/>
      </g>
     </g>
    </g>
    <g id="xtick_19">
     <g id="line2d_19">
      <g>
       <use xlink:href="#m0d39e552c3" x="429.118923" y="328.087631" style="stroke: #000000; stroke-width: 0.6"/>
      </g>
     </g>
    </g>
   </g>
   <g id="matplotlib.axis_2">
    <g id="ytick_1">
     <g id="line2d_20">
      <defs>
       <path id="m51e63e667d" d="M 0 0 
L -3.5 0 
" style="stroke: #000000; stroke-width: 0.8"/>
      </defs>
      <g>
       <use xlink:href="#m51e63e667d" x="19.78" y="328.087631" style="stroke: #000000; stroke-width: 0.8"/>
      </g>
     </g>
     <g id="text_6">
      <!-- 0 -->
      <g transform="translate(6.4175 331.88685) scale(0.1 -0.1)">
       <use xlink:href="#DejaVuSans-30"/>
      </g>
     </g>
    </g>
    <g id="ytick_2">
     <g id="line2d_21">
      <g>
       <use xlink:href="#m51e63e667d" x="19.78" y="263.756723" style="stroke: #000000; stroke-width: 0.8"/>
      </g>
     </g>
     <g id="text_7">
      <!-- 2 -->
      <g transform="translate(6.4175 267.555942) scale(0.1 -0.1)">
       <use xlink:href="#DejaVuSans-32"/>
      </g>
     </g>
    </g>
    <g id="ytick_3">
     <g id="line2d_22">
      <g>
       <use xlink:href="#m51e63e667d" x="19.78" y="199.425815" style="stroke: #000000; stroke-width: 0.8"/>
      </g>
     </g>
     <g id="text_8">
      <!-- 4 -->
      <g transform="translate(6.4175 203.225034) scale(0.1 -0.1)">
       <use xlink:href="#DejaVuSans-34"/>
      </g>
     </g>
    </g>
    <g id="ytick_4">
     <g id="line2d_23">
      <g>
       <use xlink:href="#m51e63e667d" x="19.78" y="135.094907" style="stroke: #000000; stroke-width: 0.8"/>
      </g>
     </g>
     <g id="text_9">
      <!-- 6 -->
      <g transform="translate(6.4175 138.894126) scale(0.1 -0.1)">
       <use xlink:href="#DejaVuSans-36"/>
      </g>
     </g>
    </g>
    <g id="ytick_5">
     <g id="line2d_24">
      <g>
       <use xlink:href="#m51e63e667d" x="19.78" y="70.763999" style="stroke: #000000; stroke-width: 0.8"/>
      </g>
     </g>
     <g id="text_10">
      <!-- 8 -->
      <g transform="translate(6.4175 74.563218) scale(0.1 -0.1)">
       <use xlink:href="#DejaVuSans-38"/>
      </g>
     </g>
    </g>
    <g id="ytick_6">
     <g id="line2d_25">
      <g>
       <use xlink:href="#m51e63e667d" x="19.78" y="6.433091" style="stroke: #000000; stroke-width: 0.8"/>
      </g>
     </g>
     <g id="text_11">
      <!-- 10 -->
      <g transform="translate(0.055 10.23231) scale(0.1 -0.1)">
       <use xlink:href="#DejaVuSans-31"/>
       <use xlink:href="#DejaVuSans-30" transform="translate(63.623047 0)"/>
      </g>
     </g>
    </g>
    <g id="ytick_7">
     <g id="line2d_26">
      <defs>
       <path id="mac659b55ce" d="M 0 0 
L -2 0 
" style="stroke: #000000; stroke-width: 0.6"/>
      </defs>
      <g>
       <use xlink:href="#mac659b55ce" x="19.78" y="312.004904" style="stroke: #000000; stroke-width: 0.6"/>
      </g>
     </g>
    </g>
    <g id="ytick_8">
     <g id="line2d_27">
      <g>
       <use xlink:href="#mac659b55ce" x="19.78" y="295.922177" style="stroke: #000000; stroke-width: 0.6"/>
      </g>
     </g>
    </g>
    <g id="ytick_9">
     <g id="line2d_28">
      <g>
       <use xlink:href="#mac659b55ce" x="19.78" y="279.83945" style="stroke: #000000; stroke-width: 0.6"/>
      </g>
     </g>
    </g>
    <g id="ytick_10">
     <g id="line2d_29">
      <g>
       <use xlink:href="#mac659b55ce" x="19.78" y="247.673996" style="stroke: #000000; stroke-width: 0.6"/>
      </g>
     </g>
    </g>
    <g id="ytick_11">
     <g id="line2d_30">
      <g>
       <use xlink:href="#mac659b55ce" x="19.78" y="231.591269" style="stroke: #000000; stroke-width: 0.6"/>
      </g>
     </g>
    </g>
    <g id="ytick_12">
     <g id="line2d_31">
      <g>
       <use xlink:href="#mac659b55ce" x="19.78" y="215.508542" style="stroke: #000000; stroke-width: 0.6"/>
      </g>
     </g>
    </g>
    <g id="ytick_13">
     <g id="line2d_32">
      <g>
       <use xlink:href="#mac659b55ce" x="19.78" y="183.343088" style="stroke: #000000; stroke-width: 0.6"/>
      </g>
     </g>
    </g>
    <g id="ytick_14">
     <g id="line2d_33">
      <g>
       <use xlink:href="#mac659b55ce" x="19.78" y="167.260361" style="stroke: #000000; stroke-width: 0.6"/>
      </g>
     </g>
    </g>
    <g id="ytick_15">
     <g id="line2d_34">
      <g>
       <use xlink:href="#mac659b55ce" x="19.78" y="151.177634" style="stroke: #000000; stroke-width: 0.6"/>
      </g>
     </g>
    </g>
    <g id="ytick_16">
     <g id="line2d_35">
      <g>
       <use xlink:href="#mac659b55ce" x="19.78" y="119.01218" style="stroke: #000000; stroke-width: 0.6"/>
      </g>
     </g>
    </g>
    <g id="ytick_17">
     <g id="line2d_36">
      <g>
       <use xlink:href="#mac659b55ce" x="19.78" y="102.929453" style="stroke: #000000; stroke-width: 0.6"/>
      </g>
     </g>
    </g>
    <g id="ytick_18">
     <g id="line2d_37">
      <g>
       <use xlink:href="#mac659b55ce" x="19.78" y="86.846726" style="stroke: #000000; stroke-width: 0.6"/>
      </g>
     </g>
    </g>
    <g id="ytick_19">
     <g id="line2d_38">
      <g>
       <use xlink:href="#mac659b55ce" x="19.78" y="54.681272" style="stroke: #000000; stroke-width: 0.6"/>
      </g>
     </g>
    </g>
    <g id="ytick_20">
     <g id="line2d_39">
      <g>
       <use xlink:href="#mac659b55ce" x="19.78" y="38.598545" style="stroke: #000000; stroke-width: 0.6"/>
      </g>
     </g>
    </g>
    <g id="ytick_21">
     <g id="line2d_40">
      <g>
       <use xlink:href="#mac659b55ce" x="19.78" y="22.515818" style="stroke: #000000; stroke-width: 0.6"/>
      </g>
     </g>
    </g>
   </g>
   <g id="line2d_41">
    <path d="M 38.068846 328.087631 
L 38.275654 328.087631 
L 38.379057 328.087631 
L 38.430759 328.087631 
L 38.45661 328.087631 
" clip-path="url(#p05b95d0f8f)" style="fill: none; stroke: #0000ff; stroke-linecap: square"/>
   </g>
   <g id="line2d_42">
    <path d="M 38.896076 295.922177 
L 40.745465 295.922177 
L 41.857662 295.922177 
L 43.976059 295.922177 
L 46.520588 295.922177 
L 49.314201 295.922177 
L 49.930975 295.922177 
L 52.625514 295.922177 
L 54.201294 295.922177 
L 56.31826 295.922177 
L 58.859373 295.922177 
L 60.790987 295.922177 
L 62.89912 295.922177 
L 66.194264 295.922177 
L 68.212194 295.922177 
L 69.237901 295.922177 
L 71.835097 295.922177 
L 74.300691 295.922177 
L 76.839218 295.922177 
L 77.023053 295.922177 
L 79.09363 295.922177 
L 83.169211 295.922177 
L 83.539897 295.922177 
L 84.026077 295.922177 
L 84.232885 295.922177 
L 84.336288 295.922177 
L 84.38799 295.922177 
" clip-path="url(#p05b95d0f8f)" style="fill: none; stroke: #0000ff; stroke-linecap: square"/>
   </g>
   <g id="line2d_43">
    <path d="M 84.853307 263.756723 
L 85.517419 263.756723 
L 89.38107 263.756723 
L 90.665833 263.756723 
L 92.051447 263.756723 
L 94.752592 263.756723 
L 96.231471 263.756723 
L 98.232199 263.756723 
L 101.46811 263.756723 
L 103.435918 263.756723 
L 104.354729 263.756723 
L 106.109443 263.756723 
L 110.138368 263.756723 
L 111.275232 263.756723 
L 112.946336 263.756723 
L 115.563303 263.756723 
L 118.086349 263.756723 
L 119.910391 263.756723 
L 122.037802 263.756723 
L 123.583408 263.756723 
L 126.456694 263.756723 
L 128.16266 263.756723 
L 129.801462 263.756723 
L 129.983308 263.756723 
L 130.190115 263.756723 
L 130.293519 263.756723 
L 130.345221 263.756723 
" clip-path="url(#p05b95d0f8f)" style="fill: none; stroke: #0000ff; stroke-linecap: square"/>
   </g>
   <g id="line2d_44">
    <path d="M 130.810538 231.591269 
L 131.21999 231.591269 
L 134.061957 231.591269 
L 135.605838 231.591269 
L 137.352917 231.591269 
L 139.301664 231.591269 
L 142.594672 231.591269 
L 144.134525 231.591269 
L 147.258657 231.591269 
L 148.043792 231.591269 
L 151.250894 231.591269 
L 152.551458 231.591269 
L 154.218036 231.591269 
L 157.496832 231.591269 
L 158.177907 231.591269 
L 161.577586 231.591269 
L 163.235002 231.591269 
L 164.724942 231.591269 
L 167.397025 231.591269 
L 168.520096 231.591269 
L 170.675777 231.591269 
L 173.674788 231.591269 
L 175.940539 231.591269 
" clip-path="url(#p05b95d0f8f)" style="fill: none; stroke: #0000ff; stroke-linecap: square"/>
   </g>
   <g id="line2d_45">
    <path d="M 176.377357 199.425815 
L 176.403384 199.425815 
L 176.455439 199.425815 
L 176.559549 199.425815 
L 176.767769 199.425815 
L 178.025277 199.425815 
L 178.843311 199.425815 
L 181.213094 199.425815 
L 184.778921 199.425815 
L 186.630508 199.425815 
L 188.608882 199.425815 
L 190.615211 199.425815 
L 191.814873 199.425815 
L 194.896151 199.425815 
L 196.09178 199.425815 
L 198.70144 199.425815 
L 199.740664 199.425815 
L 201.77243 199.425815 
L 204.801043 199.425815 
L 206.595467 199.425815 
L 209.880841 199.425815 
L 211.280688 199.425815 
L 212.913301 199.425815 
L 215.799351 199.425815 
L 217.948571 199.425815 
L 220.307312 199.425815 
L 220.395981 199.425815 
L 221.89777 199.425815 
L 222.104577 199.425815 
L 222.207981 199.425815 
L 222.259683 199.425815 
" clip-path="url(#p05b95d0f8f)" style="fill: none; stroke: #0000ff; stroke-linecap: square"/>
   </g>
   <g id="line2d_46">
    <path d="M 222.725 167.260361 
L 224.362002 167.260361 
L 225.200289 167.260361 
L 228.644903 167.260361 
L 230.699002 167.260361 
L 230.942118 167.260361 
L 233.406465 167.260361 
L 236.602627 167.260361 
L 237.865786 167.260361 
L 240.025441 167.260361 
L 241.667124 167.260361 
L 244.09176 167.260361 
L 245.973877 167.260361 
L 249.221854 167.260361 
L 250.644975 167.260361 
L 252.05696 167.260361 
L 253.88642 167.260361 
L 257.247246 167.260361 
L 258.84566 167.260361 
L 261.35798 167.260361 
L 262.332593 167.260361 
L 265.81056 167.260361 
L 267.855 167.260361 
L 267.928336 167.260361 
L 268.11681 167.260361 
L 268.211047 167.260361 
" clip-path="url(#p05b95d0f8f)" style="fill: none; stroke: #0000ff; stroke-linecap: square"/>
   </g>
   <g id="line2d_47">
    <path d="M 268.305283 135.094907 
L 268.68223 135.094907 
L 270.147904 135.094907 
L 271.23263 135.094907 
L 272.468789 135.094907 
L 274.659152 135.094907 
L 276.527857 135.094907 
L 279.119892 135.094907 
L 281.604148 135.094907 
L 283.762567 135.094907 
L 286.179487 135.094907 
L 288.143807 135.094907 
L 289.533224 135.094907 
L 291.911199 135.094907 
L 294.96785 135.094907 
L 295.461594 135.094907 
L 298.85086 135.094907 
L 299.914221 135.094907 
L 302.567926 135.094907 
L 304.504854 135.094907 
L 307.098554 135.094907 
L 308.939494 135.094907 
L 310.146139 135.094907 
L 312.584947 135.094907 
L 313.812231 135.094907 
" clip-path="url(#p05b95d0f8f)" style="fill: none; stroke: #0000ff; stroke-linecap: square"/>
   </g>
   <g id="line2d_48">
    <path d="M 314.275556 102.929453 
L 314.327037 102.929453 
L 314.429998 102.929453 
L 314.63592 102.929453 
L 314.639461 102.929453 
L 317.108452 102.929453 
L 318.880305 102.929453 
L 321.584972 102.929453 
L 322.45811 102.929453 
L 325.931945 102.929453 
L 327.263818 102.929453 
L 330.102559 102.929453 
L 332.473923 102.929453 
L 333.735669 102.929453 
L 335.50243 102.929453 
L 338.437798 102.929453 
L 340.044629 102.929453 
L 342.489793 102.929453 
L 343.079829 102.929453 
L 345.683759 102.929453 
L 348.274681 102.929453 
L 349.641219 102.929453 
L 352.690175 102.929453 
L 353.585234 102.929453 
L 355.706592 102.929453 
L 357.571033 102.929453 
L 359.769462 102.929453 
L 359.97627 102.929453 
L 360.079673 102.929453 
L 360.131375 102.929453 
" clip-path="url(#p05b95d0f8f)" style="fill: none; stroke: #0000ff; stroke-linecap: square"/>
   </g>
   <g id="line2d_49">
    <path d="M 360.596692 70.763999 
L 360.95746 70.763999 
L 363.136827 70.763999 
L 364.029963 70.763999 
L 366.376548 70.763999 
L 368.609794 70.763999 
L 371.050858 70.763999 
L 372.469041 70.763999 
L 375.789055 70.763999 
L 377.497706 70.763999 
L 379.694943 70.763999 
L 380.450095 70.763999 
L 383.713597 70.763999 
L 385.641447 70.763999 
L 387.951288 70.763999 
L 390.699346 70.763999 
L 392.593984 70.763999 
L 394.118836 70.763999 
L 395.24427 70.763999 
L 398.923543 70.763999 
L 401.043289 70.763999 
L 402.464027 70.763999 
L 405.07244 70.763999 
L 405.581097 70.763999 
L 405.726693 70.763999 
L 405.9335 70.763999 
L 406.036904 70.763999 
L 406.088606 70.763999 
" clip-path="url(#p05b95d0f8f)" style="fill: none; stroke: #0000ff; stroke-linecap: square"/>
   </g>
   <g id="line2d_50">
    <path d="M 406.553923 38.598545 
L 408.513944 38.598545 
L 410.361063 38.598545 
L 411.750855 38.598545 
L 414.403773 38.598545 
L 417.496351 38.598545 
L 419.431619 38.598545 
L 421.552359 38.598545 
L 423.388772 38.598545 
L 425.689203 38.598545 
L 426.546532 38.598545 
L 428.296624 38.598545 
L 431.485475 38.598545 
L 433.592536 38.598545 
L 435.37311 38.598545 
L 438.450622 38.598545 
L 439.395356 38.598545 
L 441.878611 38.598545 
L 444.109979 38.598545 
L 446.747478 38.598545 
L 447.376053 38.598545 
L 449.856858 38.598545 
L 451.683924 38.598545 
L 451.890731 38.598545 
L 451.994135 38.598545 
L 452.045837 38.598545 
L 452.071688 38.598545 
" clip-path="url(#p05b95d0f8f)" style="fill: none; stroke: #0000ff; stroke-linecap: square"/>
   </g>
   <g id="line2d_51">
    <path d="M 452.511154 6.433091 
" clip-path="url(#p05b95d0f8f)" style="fill: none; stroke: #0000ff; stroke-linecap: square"/>
   </g>
   <g id="patch_3">
    <path d="M 19.78 334.520722 
L 19.78 0 
" style="fill: none; stroke: #000000; stroke-width: 0.8; stroke-linejoin: miter; stroke-linecap: square"/>
   </g>
   <g id="patch_4">
    <path d="M 29.78 328.087631 
L 460.8 328.087631 
" style="fill: none; stroke: #000000; stroke-width: 0.8; stroke-linejoin: miter; stroke-linecap: square"/>
   </g>
  </g>
 </g>
 <defs>
  <clipPath id="p05b95d0f8f">
   <rect x="29.78" y="0" width="431.02" height="334.520722"/>
  </clipPath>
 </defs>
</svg>
