<?xml version="1.0" encoding="utf-8" standalone="no"?>
<!DOCTYPE svg PUBLIC "-//W3C//DTD SVG 1.1//EN"
  "http://www.w3.org/Graphics/SVG/1.1/DTD/svg11.dtd">
<svg xmlns:xlink="http://www.w3.org/1999/xlink" width="460.8pt" height="345.6pt" viewBox="0 0 460.8 345.6" xmlns="http://www.w3.org/2000/svg" version="1.1">
 <metadata>
  <rdf:RDF xmlns:dc="http://purl.org/dc/elements/1.1/" xmlns:cc="http://creativecommons.org/ns#" xmlns:rdf="http://www.w3.org/1999/02/22-rdf-syntax-ns#">
   <cc:Work>
    <dc:type rdf:resource="http://purl.org/dc/dcmitype/StillImage"/>
    <dc:date>2025-08-07T23:34:45.260618</dc:date>
    <dc:format>image/svg+xml</dc:format>
    <dc:creator>
     <cc:Agent>
      <dc:title>Matplotlib v3.10.3, https://matplotlib.org/</dc:title>
     </cc:Agent>
    </dc:creator>
   </cc:Work>
  </rdf:RDF>
 </metadata>
 <defs>
  <style type="text/css">*{stroke-linejoin: round; stroke-linecap: butt}</style>
 </defs>
 <g id="figure_1">
  <g id="patch_1">
   <path d="M 0 345.6 
L 460.8 345.6 
L 460.8 0 
L 0 0 
z
" style="fill: #ffffff"/>
  </g>
  <g id="axes_1">
   <g id="patch_2">
    <path d="M 80.740444 345.6 
L 380.059556 345.6 
L 380.059556 0 
L 80.740444 0 
z
" style="fill: #ffffff"/>
   </g>
   <g id="matplotlib.axis_1">
    <g id="xtick_1">
     <g id="line2d_1">
      <defs>
       <path id="mf81c8d77fe" d="M 0 0 
L 0 3.5 
" style="stroke: #000000; stroke-width: 0.8"/>
      </defs>
      <g>
       <use xlink:href="#mf81c8d77fe" x="118.473161" y="172.791379" style="stroke: #000000; stroke-width: 0.8"/>
      </g>
     </g>
    </g>
    <g id="xtick_2">
     <g id="line2d_2">
      <g>
       <use xlink:href="#mf81c8d77fe" x="182.430726" y="172.791379" style="stroke: #000000; stroke-width: 0.8"/>
      </g>
     </g>
     <g id="text_1">
      <!-- 1 -->
      <g transform="translate(179.249476 187.389816) scale(0.1 -0.1)">
       <defs>
        <path id="DejaVuSans-31" d="M 794 531 
L 1825 531 
L 1825 4091 
L 703 3866 
L 703 4441 
L 1819 4666 
L 2450 4666 
L 2450 531 
L 3481 531 
L 3481 0 
L 794 0 
L 794 531 
z
" transform="scale(0.015625)"/>
       </defs>
       <use xlink:href="#DejaVuSans-31"/>
      </g>
     </g>
    </g>
    <g id="xtick_3">
     <g id="line2d_3">
      <g>
       <use xlink:href="#mf81c8d77fe" x="246.38829" y="172.791379" style="stroke: #000000; stroke-width: 0.8"/>
      </g>
     </g>
     <g id="text_2">
      <!-- 2 -->
      <g transform="translate(243.20704 187.389816) scale(0.1 -0.1)">
       <defs>
        <path id="DejaVuSans-32" d="M 1228 531 
L 3431 531 
L 3431 0 
L 469 0 
L 469 531 
Q 828 903 1448 1529 
Q 2069 2156 2228 2338 
Q 2531 2678 2651 2914 
Q 2772 3150 2772 3378 
Q 2772 3750 2511 3984 
Q 2250 4219 1831 4219 
Q 1534 4219 1204 4116 
Q 875 4013 500 3803 
L 500 4441 
Q 881 4594 1212 4672 
Q 1544 4750 1819 4750 
Q 2544 4750 2975 4387 
Q 3406 4025 3406 3419 
Q 3406 3131 3298 2873 
Q 3191 2616 2906 2266 
Q 2828 2175 2409 1742 
Q 1991 1309 1228 531 
z
" transform="scale(0.015625)"/>
       </defs>
       <use xlink:href="#DejaVuSans-32"/>
      </g>
     </g>
    </g>
    <g id="xtick_4">
     <g id="line2d_4">
      <g>
       <use xlink:href="#mf81c8d77fe" x="310.345855" y="172.791379" style="stroke: #000000; stroke-width: 0.8"/>
      </g>
     </g>
     <g id="text_3">
      <!-- 3 -->
      <g transform="translate(307.164605 187.389816) scale(0.1 -0.1)">
       <defs>
        <path id="DejaVuSans-33" d="M 2597 2516 
Q 3050 2419 3304 2112 
Q 3559 1806 3559 1356 
Q 3559 666 3084 287 
Q 2609 -91 1734 -91 
Q 1441 -91 1130 -33 
Q 819 25 488 141 
L 488 750 
Q 750 597 1062 519 
Q 1375 441 1716 441 
Q 2309 441 2620 675 
Q 2931 909 2931 1356 
Q 2931 1769 2642 2001 
Q 2353 2234 1838 2234 
L 1294 2234 
L 1294 2753 
L 1863 2753 
Q 2328 2753 2575 2939 
Q 2822 3125 2822 3475 
Q 2822 3834 2567 4026 
Q 2313 4219 1838 4219 
Q 1578 4219 1281 4162 
Q 984 4106 628 3988 
L 628 4550 
Q 988 4650 1302 4700 
Q 1616 4750 1894 4750 
Q 2613 4750 3031 4423 
Q 3450 4097 3450 3541 
Q 3450 3153 3228 2886 
Q 3006 2619 2597 2516 
z
" transform="scale(0.015625)"/>
       </defs>
       <use xlink:href="#DejaVuSans-33"/>
      </g>
     </g>
    </g>
    <g id="xtick_5">
     <g id="line2d_5">
      <g>
       <use xlink:href="#mf81c8d77fe" x="374.30342" y="172.791379" style="stroke: #000000; stroke-width: 0.8"/>
      </g>
     </g>
     <g id="text_4">
      <!-- 4 -->
      <g transform="translate(371.12217 187.389816) scale(0.1 -0.1)">
       <defs>
        <path id="DejaVuSans-34" d="M 2419 4116 
L 825 1625 
L 2419 1625 
L 2419 4116 
z
M 2253 4666 
L 3047 4666 
L 3047 1625 
L 3713 1625 
L 3713 1100 
L 3047 1100 
L 3047 0 
L 2419 0 
L 2419 1100 
L 313 1100 
L 313 1709 
L 2253 4666 
z
" transform="scale(0.015625)"/>
       </defs>
       <use xlink:href="#DejaVuSans-34"/>
      </g>
     </g>
    </g>
    <g id="xtick_6">
     <g id="line2d_6">
      <defs>
       <path id="m595bb8b4f0" d="M 0 0 
L 0 2 
" style="stroke: #000000; stroke-width: 0.6"/>
      </defs>
      <g>
       <use xlink:href="#m595bb8b4f0" x="92.890135" y="172.791379" style="stroke: #000000; stroke-width: 0.6"/>
      </g>
     </g>
    </g>
    <g id="xtick_7">
     <g id="line2d_7">
      <g>
       <use xlink:href="#m595bb8b4f0" x="105.681648" y="172.791379" style="stroke: #000000; stroke-width: 0.6"/>
      </g>
     </g>
    </g>
    <g id="xtick_8">
     <g id="line2d_8">
      <g>
       <use xlink:href="#m595bb8b4f0" x="131.264674" y="172.791379" style="stroke: #000000; stroke-width: 0.6"/>
      </g>
     </g>
    </g>
    <g id="xtick_9">
     <g id="line2d_9">
      <g>
       <use xlink:href="#m595bb8b4f0" x="144.056187" y="172.791379" style="stroke: #000000; stroke-width: 0.6"/>
      </g>
     </g>
    </g>
    <g id="xtick_10">
     <g id="line2d_10">
      <g>
       <use xlink:href="#m595bb8b4f0" x="156.8477" y="172.791379" style="stroke: #000000; stroke-width: 0.6"/>
      </g>
     </g>
    </g>
    <g id="xtick_11">
     <g id="line2d_11">
      <g>
       <use xlink:href="#m595bb8b4f0" x="169.639213" y="172.791379" style="stroke: #000000; stroke-width: 0.6"/>
      </g>
     </g>
    </g>
    <g id="xtick_12">
     <g id="line2d_12">
      <g>
       <use xlink:href="#m595bb8b4f0" x="195.222239" y="172.791379" style="stroke: #000000; stroke-width: 0.6"/>
      </g>
     </g>
    </g>
    <g id="xtick_13">
     <g id="line2d_13">
      <g>
       <use xlink:href="#m595bb8b4f0" x="208.013752" y="172.791379" style="stroke: #000000; stroke-width: 0.6"/>
      </g>
     </g>
    </g>
    <g id="xtick_14">
     <g id="line2d_14">
      <g>
       <use xlink:href="#m595bb8b4f0" x="220.805265" y="172.791379" style="stroke: #000000; stroke-width: 0.6"/>
      </g>
     </g>
    </g>
    <g id="xtick_15">
     <g id="line2d_15">
      <g>
       <use xlink:href="#m595bb8b4f0" x="233.596777" y="172.791379" style="stroke: #000000; stroke-width: 0.6"/>
      </g>
     </g>
    </g>
    <g id="xtick_16">
     <g id="line2d_16">
      <g>
       <use xlink:href="#m595bb8b4f0" x="259.179803" y="172.791379" style="stroke: #000000; stroke-width: 0.6"/>
      </g>
     </g>
    </g>
    <g id="xtick_17">
     <g id="line2d_17">
      <g>
       <use xlink:href="#m595bb8b4f0" x="271.971316" y="172.791379" style="stroke: #000000; stroke-width: 0.6"/>
      </g>
     </g>
    </g>
    <g id="xtick_18">
     <g id="line2d_18">
      <g>
       <use xlink:href="#m595bb8b4f0" x="284.762829" y="172.791379" style="stroke: #000000; stroke-width: 0.6"/>
      </g>
     </g>
    </g>
    <g id="xtick_19">
     <g id="line2d_19">
      <g>
       <use xlink:href="#m595bb8b4f0" x="297.554342" y="172.791379" style="stroke: #000000; stroke-width: 0.6"/>
      </g>
     </g>
    </g>
    <g id="xtick_20">
     <g id="line2d_20">
      <g>
       <use xlink:href="#m595bb8b4f0" x="323.137368" y="172.791379" style="stroke: #000000; stroke-width: 0.6"/>
      </g>
     </g>
    </g>
    <g id="xtick_21">
     <g id="line2d_21">
      <g>
       <use xlink:href="#m595bb8b4f0" x="335.928881" y="172.791379" style="stroke: #000000; stroke-width: 0.6"/>
      </g>
     </g>
    </g>
    <g id="xtick_22">
     <g id="line2d_22">
      <g>
       <use xlink:href="#m595bb8b4f0" x="348.720394" y="172.791379" style="stroke: #000000; stroke-width: 0.6"/>
      </g>
     </g>
    </g>
    <g id="xtick_23">
     <g id="line2d_23">
      <g>
       <use xlink:href="#m595bb8b4f0" x="361.511907" y="172.791379" style="stroke: #000000; stroke-width: 0.6"/>
      </g>
     </g>
    </g>
   </g>
   <g id="matplotlib.axis_2">
    <g id="ytick_1">
     <g id="line2d_24">
      <defs>
       <path id="mee094a4746" d="M 0 0 
L -3.5 0 
" style="stroke: #000000; stroke-width: 0.8"/>
      </defs>
      <g>
       <use xlink:href="#mee094a4746" x="118.473161" y="300.706508" style="stroke: #000000; stroke-width: 0.8"/>
      </g>
     </g>
     <g id="text_5">
      <!-- −2 -->
      <g transform="translate(96.730974 304.505726) scale(0.1 -0.1)">
       <defs>
        <path id="DejaVuSans-2212" d="M 678 2272 
L 4684 2272 
L 4684 1741 
L 678 1741 
L 678 2272 
z
" transform="scale(0.015625)"/>
       </defs>
       <use xlink:href="#DejaVuSans-2212"/>
       <use xlink:href="#DejaVuSans-32" transform="translate(83.789062 0)"/>
      </g>
     </g>
    </g>
    <g id="ytick_2">
     <g id="line2d_25">
      <g>
       <use xlink:href="#mee094a4746" x="118.473161" y="236.748943" style="stroke: #000000; stroke-width: 0.8"/>
      </g>
     </g>
     <g id="text_6">
      <!-- −1 -->
      <g transform="translate(96.730974 240.548162) scale(0.1 -0.1)">
       <use xlink:href="#DejaVuSans-2212"/>
       <use xlink:href="#DejaVuSans-31" transform="translate(83.789062 0)"/>
      </g>
     </g>
    </g>
    <g id="ytick_3">
     <g id="line2d_26">
      <g>
       <use xlink:href="#mee094a4746" x="118.473161" y="172.791379" style="stroke: #000000; stroke-width: 0.8"/>
      </g>
     </g>
    </g>
    <g id="ytick_4">
     <g id="line2d_27">
      <g>
       <use xlink:href="#mee094a4746" x="118.473161" y="108.833814" style="stroke: #000000; stroke-width: 0.8"/>
      </g>
     </g>
     <g id="text_7">
      <!-- 1 -->
      <g transform="translate(105.110661 112.633033) scale(0.1 -0.1)">
       <use xlink:href="#DejaVuSans-31"/>
      </g>
     </g>
    </g>
    <g id="ytick_5">
     <g id="line2d_28">
      <g>
       <use xlink:href="#mee094a4746" x="118.473161" y="44.876249" style="stroke: #000000; stroke-width: 0.8"/>
      </g>
     </g>
     <g id="text_8">
      <!-- 2 -->
      <g transform="translate(105.110661 48.675468) scale(0.1 -0.1)">
       <use xlink:href="#DejaVuSans-32"/>
      </g>
     </g>
    </g>
    <g id="ytick_6">
     <g id="line2d_29">
      <defs>
       <path id="m64fbf22c61" d="M 0 0 
L -2 0 
" style="stroke: #000000; stroke-width: 0.6"/>
      </defs>
      <g>
       <use xlink:href="#m64fbf22c61" x="118.473161" y="339.081046" style="stroke: #000000; stroke-width: 0.6"/>
      </g>
     </g>
    </g>
    <g id="ytick_7">
     <g id="line2d_30">
      <g>
       <use xlink:href="#m64fbf22c61" x="118.473161" y="326.289534" style="stroke: #000000; stroke-width: 0.6"/>
      </g>
     </g>
    </g>
    <g id="ytick_8">
     <g id="line2d_31">
      <g>
       <use xlink:href="#m64fbf22c61" x="118.473161" y="313.498021" style="stroke: #000000; stroke-width: 0.6"/>
      </g>
     </g>
    </g>
    <g id="ytick_9">
     <g id="line2d_32">
      <g>
       <use xlink:href="#m64fbf22c61" x="118.473161" y="287.914995" style="stroke: #000000; stroke-width: 0.6"/>
      </g>
     </g>
    </g>
    <g id="ytick_10">
     <g id="line2d_33">
      <g>
       <use xlink:href="#m64fbf22c61" x="118.473161" y="275.123482" style="stroke: #000000; stroke-width: 0.6"/>
      </g>
     </g>
    </g>
    <g id="ytick_11">
     <g id="line2d_34">
      <g>
       <use xlink:href="#m64fbf22c61" x="118.473161" y="262.331969" style="stroke: #000000; stroke-width: 0.6"/>
      </g>
     </g>
    </g>
    <g id="ytick_12">
     <g id="line2d_35">
      <g>
       <use xlink:href="#m64fbf22c61" x="118.473161" y="249.540456" style="stroke: #000000; stroke-width: 0.6"/>
      </g>
     </g>
    </g>
    <g id="ytick_13">
     <g id="line2d_36">
      <g>
       <use xlink:href="#m64fbf22c61" x="118.473161" y="223.95743" style="stroke: #000000; stroke-width: 0.6"/>
      </g>
     </g>
    </g>
    <g id="ytick_14">
     <g id="line2d_37">
      <g>
       <use xlink:href="#m64fbf22c61" x="118.473161" y="211.165917" style="stroke: #000000; stroke-width: 0.6"/>
      </g>
     </g>
    </g>
    <g id="ytick_15">
     <g id="line2d_38">
      <g>
       <use xlink:href="#m64fbf22c61" x="118.473161" y="198.374404" style="stroke: #000000; stroke-width: 0.6"/>
      </g>
     </g>
    </g>
    <g id="ytick_16">
     <g id="line2d_39">
      <g>
       <use xlink:href="#m64fbf22c61" x="118.473161" y="185.582891" style="stroke: #000000; stroke-width: 0.6"/>
      </g>
     </g>
    </g>
    <g id="ytick_17">
     <g id="line2d_40">
      <g>
       <use xlink:href="#m64fbf22c61" x="118.473161" y="159.999866" style="stroke: #000000; stroke-width: 0.6"/>
      </g>
     </g>
    </g>
    <g id="ytick_18">
     <g id="line2d_41">
      <g>
       <use xlink:href="#m64fbf22c61" x="118.473161" y="147.208353" style="stroke: #000000; stroke-width: 0.6"/>
      </g>
     </g>
    </g>
    <g id="ytick_19">
     <g id="line2d_42">
      <g>
       <use xlink:href="#m64fbf22c61" x="118.473161" y="134.41684" style="stroke: #000000; stroke-width: 0.6"/>
      </g>
     </g>
    </g>
    <g id="ytick_20">
     <g id="line2d_43">
      <g>
       <use xlink:href="#m64fbf22c61" x="118.473161" y="121.625327" style="stroke: #000000; stroke-width: 0.6"/>
      </g>
     </g>
    </g>
    <g id="ytick_21">
     <g id="line2d_44">
      <g>
       <use xlink:href="#m64fbf22c61" x="118.473161" y="96.042301" style="stroke: #000000; stroke-width: 0.6"/>
      </g>
     </g>
    </g>
    <g id="ytick_22">
     <g id="line2d_45">
      <g>
       <use xlink:href="#m64fbf22c61" x="118.473161" y="83.250788" style="stroke: #000000; stroke-width: 0.6"/>
      </g>
     </g>
    </g>
    <g id="ytick_23">
     <g id="line2d_46">
      <g>
       <use xlink:href="#m64fbf22c61" x="118.473161" y="70.459275" style="stroke: #000000; stroke-width: 0.6"/>
      </g>
     </g>
    </g>
    <g id="ytick_24">
     <g id="line2d_47">
      <g>
       <use xlink:href="#m64fbf22c61" x="118.473161" y="57.667762" style="stroke: #000000; stroke-width: 0.6"/>
      </g>
     </g>
    </g>
    <g id="ytick_25">
     <g id="line2d_48">
      <g>
       <use xlink:href="#m64fbf22c61" x="118.473161" y="32.084737" style="stroke: #000000; stroke-width: 0.6"/>
      </g>
     </g>
    </g>
    <g id="ytick_26">
     <g id="line2d_49">
      <g>
       <use xlink:href="#m64fbf22c61" x="118.473161" y="19.293224" style="stroke: #000000; stroke-width: 0.6"/>
      </g>
     </g>
    </g>
    <g id="ytick_27">
     <g id="line2d_50">
      <g>
       <use xlink:href="#m64fbf22c61" x="118.473161" y="6.501711" style="stroke: #000000; stroke-width: 0.6"/>
      </g>
     </g>
    </g>
   </g>
   <g id="line2d_51">
    <path d="M 374.30342 172.791379 
L 374.133977 165.190845 
L 373.773125 159.352791 
L 373.281909 154.153725 
L 372.631916 148.974076 
L 371.719994 143.222775 
L 370.612734 137.509799 
L 368.46034 128.545517 
L 366.460144 121.687864 
L 364.17654 114.930084 
L 361.740248 108.59188 
L 358.904999 102.035652 
L 354.956395 93.983075 
L 351.085642 87.001708 
L 348.35778 82.508825 
L 345.463744 78.06421 
L 342.436775 73.722696 
L 336.888392 66.456414 
L 329.540917 57.967555 
L 325.329804 53.587657 
L 318.783421 47.375766 
L 314.272676 43.471238 
L 309.639549 39.747353 
L 306.468912 37.354153 
L 300.522951 33.181352 
L 293.603909 28.804093 
L 288.805861 26.048182 
L 283.936378 23.470628 
L 277.559267 20.411391 
L 271.684786 17.894662 
L 266.516573 15.90865 
L 257.882719 13.046504 
L 249.497582 10.790316 
L 244.373137 9.657108 
L 238.970507 8.659808 
L 233.018221 7.792388 
L 225.23916 7.020464 
L 218.324692 6.676563 
L 211.896541 6.646154 
L 204.753351 6.942081 
L 194.850517 7.937119 
L 187.826393 9.066681 
L 184.243203 9.782778 
L 177.944951 11.278253 
L 171.267255 13.206589 
L 163.591746 15.884731 
L 157.470764 18.39929 
L 149.162169 22.400093 
L 143.517302 25.542923 
L 136.821403 29.771393 
L 127.32691 36.850822 
L 121.010585 42.411946 
L 115.730789 47.71014 
L 110.718005 53.420679 
L 107.183634 57.943519 
L 103.374053 63.404165 
L 99.734641 69.363853 
L 98.214407 72.133141 
L 95.421234 77.799117 
L 93.999597 81.057989 
L 92.698488 84.341847 
L 90.847249 89.709885 
L 90.054093 92.368658 
L 88.723469 97.62074 
L 87.358621 105.130918 
L 86.79386 110.205339 
L 86.5425 114.528906 
L 86.500199 118.397649 
L 86.681887 123.01778 
L 87.246473 128.553064 
L 88.104584 133.567697 
L 89.472739 139.119527 
L 90.300608 141.786942 
L 91.536013 145.196658 
L 93.180963 149.017166 
L 95.596307 153.638247 
L 97.458408 156.634103 
L 99.557409 159.566787 
L 101.921338 162.415282 
L 105.075994 165.601795 
L 107.500822 167.641282 
L 109.459743 169.05341 
L 111.907485 170.535316 
L 113.723935 171.431778 
L 115.713088 172.201774 
L 117.398232 172.650532 
L 118.471608 172.791371 
L 118.061593 172.824528 
L 116.49183 173.147098 
L 114.8373 173.69113 
L 112.488894 174.74136 
L 110.477641 175.875273 
L 108.314596 177.330046 
L 106.133322 179.05061 
L 104.462018 180.55156 
L 101.742188 183.368463 
L 99.617012 185.93862 
L 97.440917 188.974929 
L 95.195022 192.6481 
L 92.996522 196.961863 
L 91.551787 200.346019 
L 90.569052 203.004473 
L 89.654023 205.845914 
L 88.836506 208.816077 
L 87.949799 212.788089 
L 87.099883 218.156476 
L 86.921687 219.738515 
L 86.591597 224.128385 
L 86.49658 227.567928 
L 86.658397 233.49787 
L 86.963182 237.19799 
L 87.539432 241.684759 
L 89.134998 249.723333 
L 90.21988 253.792951 
L 91.782443 258.706648 
L 93.462298 263.208162 
L 95.213063 267.324781 
L 98.21975 273.459693 
L 101.926252 279.907811 
L 105.308284 285.036484 
L 111.778437 293.433479 
L 114.285982 296.301528 
L 119.564553 301.784126 
L 123.937335 305.843151 
L 130.042249 310.900555 
L 135.465503 314.882885 
L 138.943745 317.214299 
L 145.832387 321.37295 
L 148.812216 322.998268 
L 158.0697 327.445103 
L 166.296403 330.700155 
L 175.164989 333.545595 
L 181.227215 335.12206 
L 188.099831 336.566794 
L 194.375972 337.580567 
L 201.860524 338.420957 
L 208.715842 338.847951 
L 213.301303 338.953846 
L 221.960112 338.765511 
L 230.083374 338.129571 
L 238.542291 336.993416 
L 245.624532 335.665855 
L 253.577024 333.757875 
L 256.599316 332.914463 
L 264.1288 330.521795 
L 272.472628 327.366827 
L 280.69837 323.709153 
L 285.976271 321.058525 
L 290.108893 318.807844 
L 298.345415 313.832422 
L 302.517567 311.045774 
L 306.615284 308.12078 
L 313.690212 302.595119 
L 317.810866 299.07338 
L 322.647486 294.623353 
L 328.992306 288.204344 
L 331.992964 284.909809 
L 335.131585 281.263921 
L 338.170041 277.519954 
L 343.519006 270.341299 
L 348.41393 262.984574 
L 351.12874 258.507451 
L 355.556387 250.443387 
L 358.555764 244.305028 
L 361.989723 236.375353 
L 364.917639 228.560059 
L 366.616649 223.394804 
L 367.962526 218.847979 
L 369.181932 214.261433 
L 370.85735 206.896521 
L 371.710684 202.412788 
L 372.443879 197.90544 
L 373.26199 191.609294 
L 373.845244 185.284143 
L 374.101185 181.094461 
L 374.30342 172.791379 
L 374.30342 172.791379 
" clip-path="url(#pd111e7e20e)" style="fill: none; stroke: #33ff00; stroke-linecap: square"/>
   </g>
   <g id="patch_3">
    <path d="M 118.473161 345.6 
L 118.473161 -0 
" style="fill: none; stroke: #000000; stroke-width: 0.8; stroke-linejoin: miter; stroke-linecap: square"/>
   </g>
   <g id="patch_4">
    <path d="M 80.740444 172.791379 
L 380.059556 172.791379 
" style="fill: none; stroke: #000000; stroke-width: 0.8; stroke-linejoin: miter; stroke-linecap: square"/>
   </g>
  </g>
 </g>
 <defs>
  <clipPath id="pd111e7e20e">
   <rect x="80.740444" y="0" width="299.319113" height="345.6"/>
  </clipPath>
 </defs>
</svg>
