<?xml version="1.0" encoding="utf-8" standalone="no"?>
<!DOCTYPE svg PUBLIC "-//W3C//DTD SVG 1.1//EN"
  "http://www.w3.org/Graphics/SVG/1.1/DTD/svg11.dtd">
<svg xmlns:xlink="http://www.w3.org/1999/xlink" width="460.8pt" height="345.6pt" viewBox="0 0 460.8 345.6" xmlns="http://www.w3.org/2000/svg" version="1.1">
 <metadata>
  <rdf:RDF xmlns:dc="http://purl.org/dc/elements/1.1/" xmlns:cc="http://creativecommons.org/ns#" xmlns:rdf="http://www.w3.org/1999/02/22-rdf-syntax-ns#">
   <cc:Work>
    <dc:type rdf:resource="http://purl.org/dc/dcmitype/StillImage"/>
    <dc:date>2025-08-07T23:34:24.607292</dc:date>
    <dc:format>image/svg+xml</dc:format>
    <dc:creator>
     <cc:Agent>
      <dc:title>Matplotlib v3.10.3, https://matplotlib.org/</dc:title>
     </cc:Agent>
    </dc:creator>
   </cc:Work>
  </rdf:RDF>
 </metadata>
 <defs>
  <style type="text/css">*{stroke-linejoin: round; stroke-linecap: butt}</style>
 </defs>
 <g id="figure_1">
  <g id="patch_1">
   <path d="M 0 345.6 
L 460.8 345.6 
L 460.8 0 
L 0 0 
z
" style="fill: #ffffff"/>
  </g>
  <g id="axes_1">
   <g id="patch_2">
    <path d="M 0 345.6 
L 460.8 345.6 
L 460.8 0 
L 0 0 
z
" style="fill: #ffffff"/>
   </g>
   <g id="PathCollection_1">
    <defs>
     <path id="C0_0_de78c3fb7a" d="M 0 2.236068 
C 0.593012 2.236068 1.161816 2.000462 1.581139 1.581139 
C 2.000462 1.161816 2.236068 0.593012 2.236068 -0 
C 2.236068 -0.593012 2.000462 -1.161816 1.581139 -1.581139 
C 1.161816 -2.000462 0.593012 -2.236068 0 -2.236068 
C -0.593012 -2.236068 -1.161816 -2.000462 -1.581139 -1.581139 
C -2.000462 -1.161816 -2.236068 -0.593012 -2.236068 0 
C -2.236068 0.593012 -2.000462 1.161816 -1.581139 1.581139 
C -1.161816 2.000462 -0.593012 2.236068 0 2.236068 
z
"/>
    </defs>
    <g clip-path="url(#pc74340f05e)">
     <use xlink:href="#C0_0_de78c3fb7a" x="125.460729" y="338.953846" style="fill: #ff0000"/>
    </g>
    <g clip-path="url(#pc74340f05e)">
     <use xlink:href="#C0_0_de78c3fb7a" x="242.059919" y="255.876923" style="fill: #ff0000"/>
    </g>
    <g clip-path="url(#pc74340f05e)">
     <use xlink:href="#C0_0_de78c3fb7a" x="242.059919" y="297.415385" style="fill: #ff0000"/>
    </g>
    <g clip-path="url(#pc74340f05e)">
     <use xlink:href="#C0_0_de78c3fb7a" x="358.659109" y="172.8" style="fill: #ff0000"/>
    </g>
   </g>
   <g id="matplotlib.axis_1"/>
   <g id="matplotlib.axis_2"/>
   <g id="line2d_1">
    <path d="M 8.861538 297.415385 
L 15.226697 301.826772 
L 21.980732 306.236946 
L 28.392565 310.165749 
L 35.252469 314.090937 
L 42.20262 317.774506 
L 50.051765 321.579627 
L 56.198468 324.29659 
L 61.74659 326.550725 
L 69.069931 329.238108 
L 74.625111 331.058057 
L 81.759739 333.118832 
L 88.152427 334.701092 
L 94.570972 336.038512 
L 101.557693 337.208163 
L 108.37598 338.062028 
L 115.611591 338.657461 
L 122.200227 338.921365 
L 126.484575 338.950643 
L 134.323004 338.71388 
L 140.432452 338.268984 
L 145.952749 337.67084 
L 153.464347 336.557842 
L 157.709534 335.776339 
L 165.0536 334.164311 
L 170.526457 332.748698 
L 178.098862 330.488197 
L 183.949509 328.501724 
L 190.613253 325.984388 
L 197.32273 323.175628 
L 204.920979 319.662648 
L 209.076954 317.591918 
L 216.991038 313.356838 
L 224.069958 309.244406 
L 230.832143 305.03001 
L 237.283622 300.748795 
L 245.030491 295.271891 
L 251.385668 290.505067 
L 257.75883 285.476904 
L 265.570719 278.975078 
L 272.237792 273.131141 
L 279.503173 266.45349 
L 288.040004 258.195075 
L 295.681688 250.424877 
L 303.147182 242.489245 
L 310.850364 233.943947 
L 317.745152 225.987899 
L 325.462119 216.738605 
L 331.727761 208.961142 
L 340.678162 197.435015 
L 348.867513 186.460094 
L 357.77709 174.054501 
L 365.44145 162.994618 
L 372.995205 151.74312 
L 382.585532 136.955746 
L 392.792464 120.600238 
L 400.580661 107.692287 
L 409.20678 92.962974 
L 417.042117 79.189861 
L 424.300627 66.095967 
L 433.652944 48.750331 
L 443.493872 29.921385 
L 451.938462 13.292308 
L 451.938462 13.292308 
" clip-path="url(#pc74340f05e)" style="fill: none; stroke: #0000ff; stroke-linecap: square"/>
   </g>
   <g id="line2d_2">
    <path d="M 125.460729 338.953846 
L 358.659109 172.8 
" clip-path="url(#pc74340f05e)" style="fill: none; stroke: #008000; stroke-linecap: square"/>
   </g>
   <g id="line2d_3">
    <path d="M 242.059919 255.876923 
L 242.059919 297.415385 
" clip-path="url(#pc74340f05e)" style="fill: none; stroke: #800080; stroke-linecap: square"/>
   </g>
   <g id="text_1">
    <!-- A -->
    <g style="fill: #ff0000" transform="translate(110.380497 325.097837) scale(0.1 -0.1)">
     <defs>
      <path id="DejaVuSans-41" d="M 2188 4044 
L 1331 1722 
L 3047 1722 
L 2188 4044 
z
M 1831 4666 
L 2547 4666 
L 4325 0 
L 3669 0 
L 3244 1197 
L 1141 1197 
L 716 0 
L 50 0 
L 1831 4666 
z
" transform="scale(0.015625)"/>
     </defs>
     <use xlink:href="#DejaVuSans-41"/>
    </g>
   </g>
   <g id="text_2">
    <!-- B -->
    <g style="fill: #ff0000" transform="translate(357.560624 158.94399) scale(0.1 -0.1)">
     <defs>
      <path id="DejaVuSans-42" d="M 1259 2228 
L 1259 519 
L 2272 519 
Q 2781 519 3026 730 
Q 3272 941 3272 1375 
Q 3272 1813 3026 2020 
Q 2781 2228 2272 2228 
L 1259 2228 
z
M 1259 4147 
L 1259 2741 
L 2194 2741 
Q 2656 2741 2882 2914 
Q 3109 3088 3109 3444 
Q 3109 3797 2882 3972 
Q 2656 4147 2194 4147 
L 1259 4147 
z
M 628 4666 
L 2241 4666 
Q 2963 4666 3353 4366 
Q 3744 4066 3744 3513 
Q 3744 3084 3544 2831 
Q 3344 2578 2956 2516 
Q 3422 2416 3680 2098 
Q 3938 1781 3938 1306 
Q 3938 681 3513 340 
Q 3088 0 2303 0 
L 628 0 
L 628 4666 
z
" transform="scale(0.015625)"/>
     </defs>
     <use xlink:href="#DejaVuSans-42"/>
    </g>
   </g>
   <g id="text_3">
    <!-- C -->
    <g style="fill: #ff0000" transform="translate(233.904545 247.005529) scale(0.1 -0.1)">
     <defs>
      <path id="DejaVuSans-43" d="M 4122 4306 
L 4122 3641 
Q 3803 3938 3442 4084 
Q 3081 4231 2675 4231 
Q 1875 4231 1450 3742 
Q 1025 3253 1025 2328 
Q 1025 1406 1450 917 
Q 1875 428 2675 428 
Q 3081 428 3442 575 
Q 3803 722 4122 1019 
L 4122 359 
Q 3791 134 3420 21 
Q 3050 -91 2638 -91 
Q 1578 -91 968 557 
Q 359 1206 359 2328 
Q 359 3453 968 4101 
Q 1578 4750 2638 4750 
Q 3056 4750 3426 4639 
Q 3797 4528 4122 4306 
z
" transform="scale(0.015625)"/>
     </defs>
     <use xlink:href="#DejaVuSans-43"/>
    </g>
   </g>
   <g id="text_4">
    <!-- D -->
    <g style="fill: #ff0000" transform="translate(245.20587 311.805529) scale(0.1 -0.1)">
     <defs>
      <path id="DejaVuSans-44" d="M 1259 4147 
L 1259 519 
L 2022 519 
Q 2988 519 3436 956 
Q 3884 1394 3884 2338 
Q 3884 3275 3436 3711 
Q 2988 4147 2022 4147 
L 1259 4147 
z
M 628 4666 
L 1925 4666 
Q 3281 4666 3915 4102 
Q 4550 3538 4550 2338 
Q 4550 1131 3912 565 
Q 3275 0 1925 0 
L 628 0 
L 628 4666 
z
" transform="scale(0.015625)"/>
     </defs>
     <use xlink:href="#DejaVuSans-44"/>
    </g>
   </g>
  </g>
 </g>
 <defs>
  <clipPath id="pc74340f05e">
   <rect x="0" y="0" width="460.8" height="345.6"/>
  </clipPath>
 </defs>
</svg>
