<?xml version="1.0" encoding="utf-8" standalone="no"?>
<!DOCTYPE svg PUBLIC "-//W3C//DTD SVG 1.1//EN"
  "http://www.w3.org/Graphics/SVG/1.1/DTD/svg11.dtd">
<svg xmlns:xlink="http://www.w3.org/1999/xlink" width="460.8pt" height="345.6pt" viewBox="0 0 460.8 345.6" xmlns="http://www.w3.org/2000/svg" version="1.1">
 <metadata>
  <rdf:RDF xmlns:dc="http://purl.org/dc/elements/1.1/" xmlns:cc="http://creativecommons.org/ns#" xmlns:rdf="http://www.w3.org/1999/02/22-rdf-syntax-ns#">
   <cc:Work>
    <dc:type rdf:resource="http://purl.org/dc/dcmitype/StillImage"/>
    <dc:date>2025-08-02T18:54:18.789729</dc:date>
    <dc:format>image/svg+xml</dc:format>
    <dc:creator>
     <cc:Agent>
      <dc:title>Matplotlib v3.10.3, https://matplotlib.org/</dc:title>
     </cc:Agent>
    </dc:creator>
   </cc:Work>
  </rdf:RDF>
 </metadata>
 <defs>
  <style type="text/css">*{stroke-linejoin: round; stroke-linecap: butt}</style>
 </defs>
 <g id="figure_1">
  <g id="patch_1">
   <path d="M 0 345.6 
L 460.8 345.6 
L 460.8 0 
L 0 0 
z
" style="fill: #ffffff"/>
  </g>
  <g id="axes_1">
   <g id="patch_2">
    <path d="M 3.826531 345.6 
L 460.8 345.6 
L 460.8 0 
L 3.826531 0 
z
" style="fill: #ffffff"/>
   </g>
   <g id="matplotlib.axis_1">
    <g id="xtick_1">
     <g id="line2d_1">
      <defs>
       <path id="mb8267d366d" d="M 0 0 
L 0 3.5 
" style="stroke: #000000; stroke-width: 0.8"/>
      </defs>
      <g>
       <use xlink:href="#mb8267d366d" x="12.614482" y="172.800086" style="stroke: #000000; stroke-width: 0.8"/>
      </g>
     </g>
     <g id="text_1">
      <!-- −1.0 -->
      <g transform="translate(0.473076 187.398523) scale(0.1 -0.1)">
       <defs>
        <path id="DejaVuSans-2212" d="M 678 2272 
L 4684 2272 
L 4684 1741 
L 678 1741 
L 678 2272 
z
" transform="scale(0.015625)"/>
        <path id="DejaVuSans-31" d="M 794 531 
L 1825 531 
L 1825 4091 
L 703 3866 
L 703 4441 
L 1819 4666 
L 2450 4666 
L 2450 531 
L 3481 531 
L 3481 0 
L 794 0 
L 794 531 
z
" transform="scale(0.015625)"/>
        <path id="DejaVuSans-2e" d="M 684 794 
L 1344 794 
L 1344 0 
L 684 0 
L 684 794 
z
" transform="scale(0.015625)"/>
        <path id="DejaVuSans-30" d="M 2034 4250 
Q 1547 4250 1301 3770 
Q 1056 3291 1056 2328 
Q 1056 1369 1301 889 
Q 1547 409 2034 409 
Q 2525 409 2770 889 
Q 3016 1369 3016 2328 
Q 3016 3291 2770 3770 
Q 2525 4250 2034 4250 
z
M 2034 4750 
Q 2819 4750 3233 4129 
Q 3647 3509 3647 2328 
Q 3647 1150 3233 529 
Q 2819 -91 2034 -91 
Q 1250 -91 836 529 
Q 422 1150 422 2328 
Q 422 3509 836 4129 
Q 1250 4750 2034 4750 
z
" transform="scale(0.015625)"/>
       </defs>
       <use xlink:href="#DejaVuSans-2212"/>
       <use xlink:href="#DejaVuSans-31" transform="translate(83.789062 0)"/>
       <use xlink:href="#DejaVuSans-2e" transform="translate(147.412109 0)"/>
       <use xlink:href="#DejaVuSans-30" transform="translate(179.199219 0)"/>
      </g>
     </g>
    </g>
    <g id="xtick_2">
     <g id="line2d_2">
      <g>
       <use xlink:href="#mb8267d366d" x="122.463874" y="172.800086" style="stroke: #000000; stroke-width: 0.8"/>
      </g>
     </g>
     <g id="text_2">
      <!-- −0.5 -->
      <g transform="translate(110.322468 187.398523) scale(0.1 -0.1)">
       <defs>
        <path id="DejaVuSans-35" d="M 691 4666 
L 3169 4666 
L 3169 4134 
L 1269 4134 
L 1269 2991 
Q 1406 3038 1543 3061 
Q 1681 3084 1819 3084 
Q 2600 3084 3056 2656 
Q 3513 2228 3513 1497 
Q 3513 744 3044 326 
Q 2575 -91 1722 -91 
Q 1428 -91 1123 -41 
Q 819 9 494 109 
L 494 744 
Q 775 591 1075 516 
Q 1375 441 1709 441 
Q 2250 441 2565 725 
Q 2881 1009 2881 1497 
Q 2881 1984 2565 2268 
Q 2250 2553 1709 2553 
Q 1456 2553 1204 2497 
Q 953 2441 691 2322 
L 691 4666 
z
" transform="scale(0.015625)"/>
       </defs>
       <use xlink:href="#DejaVuSans-2212"/>
       <use xlink:href="#DejaVuSans-30" transform="translate(83.789062 0)"/>
       <use xlink:href="#DejaVuSans-2e" transform="translate(147.412109 0)"/>
       <use xlink:href="#DejaVuSans-35" transform="translate(179.199219 0)"/>
      </g>
     </g>
    </g>
    <g id="xtick_3">
     <g id="line2d_3">
      <g>
       <use xlink:href="#mb8267d366d" x="232.313266" y="172.800086" style="stroke: #000000; stroke-width: 0.8"/>
      </g>
     </g>
    </g>
    <g id="xtick_4">
     <g id="line2d_4">
      <g>
       <use xlink:href="#mb8267d366d" x="342.162657" y="172.800086" style="stroke: #000000; stroke-width: 0.8"/>
      </g>
     </g>
     <g id="text_3">
      <!-- 0.5 -->
      <g transform="translate(334.211095 187.398523) scale(0.1 -0.1)">
       <use xlink:href="#DejaVuSans-30"/>
       <use xlink:href="#DejaVuSans-2e" transform="translate(63.623047 0)"/>
       <use xlink:href="#DejaVuSans-35" transform="translate(95.410156 0)"/>
      </g>
     </g>
    </g>
    <g id="xtick_5">
     <g id="line2d_5">
      <g>
       <use xlink:href="#mb8267d366d" x="452.012049" y="172.800086" style="stroke: #000000; stroke-width: 0.8"/>
      </g>
     </g>
     <g id="text_4">
      <!-- 1.0 -->
      <g transform="translate(444.060486 187.398523) scale(0.1 -0.1)">
       <use xlink:href="#DejaVuSans-31"/>
       <use xlink:href="#DejaVuSans-2e" transform="translate(63.623047 0)"/>
       <use xlink:href="#DejaVuSans-30" transform="translate(95.410156 0)"/>
      </g>
     </g>
    </g>
    <g id="xtick_6">
     <g id="line2d_6">
      <defs>
       <path id="m512068f78f" d="M 0 0 
L 0 2 
" style="stroke: #000000; stroke-width: 0.6"/>
      </defs>
      <g>
       <use xlink:href="#m512068f78f" x="34.584361" y="172.800086" style="stroke: #000000; stroke-width: 0.6"/>
      </g>
     </g>
    </g>
    <g id="xtick_7">
     <g id="line2d_7">
      <g>
       <use xlink:href="#m512068f78f" x="56.554239" y="172.800086" style="stroke: #000000; stroke-width: 0.6"/>
      </g>
     </g>
    </g>
    <g id="xtick_8">
     <g id="line2d_8">
      <g>
       <use xlink:href="#m512068f78f" x="78.524117" y="172.800086" style="stroke: #000000; stroke-width: 0.6"/>
      </g>
     </g>
    </g>
    <g id="xtick_9">
     <g id="line2d_9">
      <g>
       <use xlink:href="#m512068f78f" x="100.493996" y="172.800086" style="stroke: #000000; stroke-width: 0.6"/>
      </g>
     </g>
    </g>
    <g id="xtick_10">
     <g id="line2d_10">
      <g>
       <use xlink:href="#m512068f78f" x="144.433752" y="172.800086" style="stroke: #000000; stroke-width: 0.6"/>
      </g>
     </g>
    </g>
    <g id="xtick_11">
     <g id="line2d_11">
      <g>
       <use xlink:href="#m512068f78f" x="166.403631" y="172.800086" style="stroke: #000000; stroke-width: 0.6"/>
      </g>
     </g>
    </g>
    <g id="xtick_12">
     <g id="line2d_12">
      <g>
       <use xlink:href="#m512068f78f" x="188.373509" y="172.800086" style="stroke: #000000; stroke-width: 0.6"/>
      </g>
     </g>
    </g>
    <g id="xtick_13">
     <g id="line2d_13">
      <g>
       <use xlink:href="#m512068f78f" x="210.343387" y="172.800086" style="stroke: #000000; stroke-width: 0.6"/>
      </g>
     </g>
    </g>
    <g id="xtick_14">
     <g id="line2d_14">
      <g>
       <use xlink:href="#m512068f78f" x="254.283144" y="172.800086" style="stroke: #000000; stroke-width: 0.6"/>
      </g>
     </g>
    </g>
    <g id="xtick_15">
     <g id="line2d_15">
      <g>
       <use xlink:href="#m512068f78f" x="276.253022" y="172.800086" style="stroke: #000000; stroke-width: 0.6"/>
      </g>
     </g>
    </g>
    <g id="xtick_16">
     <g id="line2d_16">
      <g>
       <use xlink:href="#m512068f78f" x="298.2229" y="172.800086" style="stroke: #000000; stroke-width: 0.6"/>
      </g>
     </g>
    </g>
    <g id="xtick_17">
     <g id="line2d_17">
      <g>
       <use xlink:href="#m512068f78f" x="320.192779" y="172.800086" style="stroke: #000000; stroke-width: 0.6"/>
      </g>
     </g>
    </g>
    <g id="xtick_18">
     <g id="line2d_18">
      <g>
       <use xlink:href="#m512068f78f" x="364.132535" y="172.800086" style="stroke: #000000; stroke-width: 0.6"/>
      </g>
     </g>
    </g>
    <g id="xtick_19">
     <g id="line2d_19">
      <g>
       <use xlink:href="#m512068f78f" x="386.102414" y="172.800086" style="stroke: #000000; stroke-width: 0.6"/>
      </g>
     </g>
    </g>
    <g id="xtick_20">
     <g id="line2d_20">
      <g>
       <use xlink:href="#m512068f78f" x="408.072292" y="172.800086" style="stroke: #000000; stroke-width: 0.6"/>
      </g>
     </g>
    </g>
    <g id="xtick_21">
     <g id="line2d_21">
      <g>
       <use xlink:href="#m512068f78f" x="430.04217" y="172.800086" style="stroke: #000000; stroke-width: 0.6"/>
      </g>
     </g>
    </g>
   </g>
   <g id="matplotlib.axis_2">
    <g id="ytick_1">
     <g id="line2d_22">
      <defs>
       <path id="m4c090941b0" d="M 0 0 
L -3.5 0 
" style="stroke: #000000; stroke-width: 0.8"/>
      </defs>
      <g>
       <use xlink:href="#m4c090941b0" x="232.313266" y="338.954119" style="stroke: #000000; stroke-width: 0.8"/>
      </g>
     </g>
     <g id="text_5">
      <!-- −1.0 -->
      <g transform="translate(201.030453 342.753338) scale(0.1 -0.1)">
       <use xlink:href="#DejaVuSans-2212"/>
       <use xlink:href="#DejaVuSans-31" transform="translate(83.789062 0)"/>
       <use xlink:href="#DejaVuSans-2e" transform="translate(147.412109 0)"/>
       <use xlink:href="#DejaVuSans-30" transform="translate(179.199219 0)"/>
      </g>
     </g>
    </g>
    <g id="ytick_2">
     <g id="line2d_23">
      <g>
       <use xlink:href="#m4c090941b0" x="232.313266" y="255.877103" style="stroke: #000000; stroke-width: 0.8"/>
      </g>
     </g>
     <g id="text_6">
      <!-- −0.5 -->
      <g transform="translate(201.030453 259.676321) scale(0.1 -0.1)">
       <use xlink:href="#DejaVuSans-2212"/>
       <use xlink:href="#DejaVuSans-30" transform="translate(83.789062 0)"/>
       <use xlink:href="#DejaVuSans-2e" transform="translate(147.412109 0)"/>
       <use xlink:href="#DejaVuSans-35" transform="translate(179.199219 0)"/>
      </g>
     </g>
    </g>
    <g id="ytick_3">
     <g id="line2d_24">
      <g>
       <use xlink:href="#m4c090941b0" x="232.313266" y="172.800086" style="stroke: #000000; stroke-width: 0.8"/>
      </g>
     </g>
    </g>
    <g id="ytick_4">
     <g id="line2d_25">
      <g>
       <use xlink:href="#m4c090941b0" x="232.313266" y="89.723069" style="stroke: #000000; stroke-width: 0.8"/>
      </g>
     </g>
     <g id="text_7">
      <!-- 0.5 -->
      <g transform="translate(209.410141 93.522288) scale(0.1 -0.1)">
       <use xlink:href="#DejaVuSans-30"/>
       <use xlink:href="#DejaVuSans-2e" transform="translate(63.623047 0)"/>
       <use xlink:href="#DejaVuSans-35" transform="translate(95.410156 0)"/>
      </g>
     </g>
    </g>
    <g id="ytick_5">
     <g id="line2d_26">
      <g>
       <use xlink:href="#m4c090941b0" x="232.313266" y="6.646052" style="stroke: #000000; stroke-width: 0.8"/>
      </g>
     </g>
     <g id="text_8">
      <!-- 1.0 -->
      <g transform="translate(209.410141 10.445271) scale(0.1 -0.1)">
       <use xlink:href="#DejaVuSans-31"/>
       <use xlink:href="#DejaVuSans-2e" transform="translate(63.623047 0)"/>
       <use xlink:href="#DejaVuSans-30" transform="translate(95.410156 0)"/>
      </g>
     </g>
    </g>
    <g id="ytick_6">
     <g id="line2d_27">
      <defs>
       <path id="m0aee4fa4fd" d="M 0 0 
L -2 0 
" style="stroke: #000000; stroke-width: 0.6"/>
      </defs>
      <g>
       <use xlink:href="#m0aee4fa4fd" x="232.313266" y="322.338716" style="stroke: #000000; stroke-width: 0.6"/>
      </g>
     </g>
    </g>
    <g id="ytick_7">
     <g id="line2d_28">
      <g>
       <use xlink:href="#m0aee4fa4fd" x="232.313266" y="305.723313" style="stroke: #000000; stroke-width: 0.6"/>
      </g>
     </g>
    </g>
    <g id="ytick_8">
     <g id="line2d_29">
      <g>
       <use xlink:href="#m0aee4fa4fd" x="232.313266" y="289.107909" style="stroke: #000000; stroke-width: 0.6"/>
      </g>
     </g>
    </g>
    <g id="ytick_9">
     <g id="line2d_30">
      <g>
       <use xlink:href="#m0aee4fa4fd" x="232.313266" y="272.492506" style="stroke: #000000; stroke-width: 0.6"/>
      </g>
     </g>
    </g>
    <g id="ytick_10">
     <g id="line2d_31">
      <g>
       <use xlink:href="#m0aee4fa4fd" x="232.313266" y="239.261699" style="stroke: #000000; stroke-width: 0.6"/>
      </g>
     </g>
    </g>
    <g id="ytick_11">
     <g id="line2d_32">
      <g>
       <use xlink:href="#m0aee4fa4fd" x="232.313266" y="222.646296" style="stroke: #000000; stroke-width: 0.6"/>
      </g>
     </g>
    </g>
    <g id="ytick_12">
     <g id="line2d_33">
      <g>
       <use xlink:href="#m0aee4fa4fd" x="232.313266" y="206.030893" style="stroke: #000000; stroke-width: 0.6"/>
      </g>
     </g>
    </g>
    <g id="ytick_13">
     <g id="line2d_34">
      <g>
       <use xlink:href="#m0aee4fa4fd" x="232.313266" y="189.415489" style="stroke: #000000; stroke-width: 0.6"/>
      </g>
     </g>
    </g>
    <g id="ytick_14">
     <g id="line2d_35">
      <g>
       <use xlink:href="#m0aee4fa4fd" x="232.313266" y="156.184682" style="stroke: #000000; stroke-width: 0.6"/>
      </g>
     </g>
    </g>
    <g id="ytick_15">
     <g id="line2d_36">
      <g>
       <use xlink:href="#m0aee4fa4fd" x="232.313266" y="139.569279" style="stroke: #000000; stroke-width: 0.6"/>
      </g>
     </g>
    </g>
    <g id="ytick_16">
     <g id="line2d_37">
      <g>
       <use xlink:href="#m0aee4fa4fd" x="232.313266" y="122.953876" style="stroke: #000000; stroke-width: 0.6"/>
      </g>
     </g>
    </g>
    <g id="ytick_17">
     <g id="line2d_38">
      <g>
       <use xlink:href="#m0aee4fa4fd" x="232.313266" y="106.338472" style="stroke: #000000; stroke-width: 0.6"/>
      </g>
     </g>
    </g>
    <g id="ytick_18">
     <g id="line2d_39">
      <g>
       <use xlink:href="#m0aee4fa4fd" x="232.313266" y="73.107666" style="stroke: #000000; stroke-width: 0.6"/>
      </g>
     </g>
    </g>
    <g id="ytick_19">
     <g id="line2d_40">
      <g>
       <use xlink:href="#m0aee4fa4fd" x="232.313266" y="56.492262" style="stroke: #000000; stroke-width: 0.6"/>
      </g>
     </g>
    </g>
    <g id="ytick_20">
     <g id="line2d_41">
      <g>
       <use xlink:href="#m0aee4fa4fd" x="232.313266" y="39.876859" style="stroke: #000000; stroke-width: 0.6"/>
      </g>
     </g>
    </g>
    <g id="ytick_21">
     <g id="line2d_42">
      <g>
       <use xlink:href="#m0aee4fa4fd" x="232.313266" y="23.261456" style="stroke: #000000; stroke-width: 0.6"/>
      </g>
     </g>
    </g>
   </g>
   <g id="line2d_43">
    <path d="M 12.614482 312.613884 
L 55.280656 330.0002 
L 63.639195 333.00999 
L 69.647224 334.942714 
L 74.186222 336.227433 
L 78.520342 337.275649 
L 84.388989 338.345966 
L 87.879193 338.748991 
L 91.780723 338.949489 
L 95.364384 338.861212 
L 98.896515 338.475578 
L 101.768087 337.910551 
L 105.061471 336.944388 
L 107.720574 335.883829 
L 110.385175 334.537855 
L 113.267189 332.724562 
L 115.754059 330.826431 
L 117.902524 328.91098 
L 120.817308 325.859572 
L 123.211058 322.92231 
L 125.370631 319.903426 
L 127.646669 316.306736 
L 130.104954 311.897858 
L 132.200795 307.668883 
L 134.24334 303.094057 
L 136.995987 296.155756 
L 139.101221 290.196583 
L 141.394524 283.002931 
L 143.586971 275.38604 
L 145.830626 266.78391 
L 148.002125 257.624125 
L 150.238874 247.272834 
L 152.749573 234.476029 
L 155.548063 218.659353 
L 158.216665 201.98419 
L 161.17415 181.651024 
L 163.945833 160.862588 
L 166.969852 136.439009 
L 171.154094 100.431089 
L 176.537267 53.914987 
L 178.776144 36.49026 
L 180.275952 26.231493 
L 181.731447 17.82744 
L 182.833552 12.763999 
L 183.660131 9.852456 
L 184.405471 7.974156 
L 184.964476 7.081098 
L 185.498079 6.67762 
L 185.845346 6.666212 
L 186.192613 6.863593 
L 186.696334 7.539988 
L 187.165694 8.608545 
L 187.791508 10.732769 
L 188.417322 13.708144 
L 189.043135 17.59097 
L 189.850656 24.031571 
L 190.658177 32.188523 
L 191.667578 44.954126 
L 192.783497 62.570292 
L 193.986752 85.827053 
L 195.221522 114.257873 
L 196.672553 153.087485 
L 198.186384 198.372059 
L 201.275279 291.43451 
L 202.331353 316.471191 
L 203.065107 329.30695 
L 203.615422 335.694825 
L 203.982299 338.136287 
L 204.257457 338.909389 
L 204.440896 338.887434 
L 204.624334 338.415342 
L 204.899492 336.826754 
L 205.266369 332.983087 
L 205.691515 325.92704 
L 206.187518 313.988159 
L 206.78388 294.175919 
L 207.487493 263.181735 
L 208.383001 212.938338 
L 209.862058 114.138762 
L 211.007384 44.014265 
L 211.635012 17.946978 
L 212.011588 9.151165 
L 212.262639 6.768356 
L 212.388165 6.724129 
L 212.51369 7.485476 
L 212.764741 11.53011 
L 213.141318 24.199718 
L 213.517894 45.01574 
L 214.019996 85.026764 
L 214.805233 169.823751 
L 216.05914 307.964239 
L 216.463641 332.678547 
L 216.665892 338.180286 
L 216.767017 338.951857 
L 216.868142 338.321238 
L 217.070393 332.663594 
L 217.373769 312.798596 
L 217.77827 265.628412 
L 218.385021 161.899342 
L 219.186352 30.480449 
L 219.482056 8.677685 
L 219.61348 6.681475 
L 219.646336 7.00258 
L 219.77776 11.703478 
L 219.94204 25.429555 
L 220.267077 77.408574 
L 220.835892 220.685806 
L 221.323447 323.88152 
L 221.567224 338.905176 
L 221.648483 336.268244 
L 221.811002 318.70695 
L 222.054779 263.13975 
L 222.92511 8.77482 
L 223.001665 6.731915 
L 223.07822 10.936151 
L 223.23133 38.425759 
L 223.537551 156.562518 
L 223.996881 332.207132 
L 224.073436 338.817795 
L 224.149991 335.319983 
L 224.303102 297.280396 
L 224.915542 8.437268 
L 224.992097 8.863987 
L 225.14332 56.62259 
L 225.672601 338.17091 
L 225.823824 280.183629 
L 226.201882 9.306959 
L 226.277494 12.716102 
L 226.428717 113.607126 
L 226.731163 338.314049 
L 226.882386 235.520169 
L 227.109221 9.781319 
L 227.184832 21.623645 
L 227.478715 337.956819 
L 227.545762 316.203174 
L 227.813953 8.151734 
L 227.948049 183.414187 
L 228.082144 338.308266 
L 228.216239 137.045126 
L 228.350335 23.960804 
L 228.551478 332.331165 
L 228.752621 22.536497 
L 228.886716 332.203911 
L 228.953764 263.467301 
L 229.087859 32.989523 
L 229.221955 326.857031 
L 229.35605 24.289824 
L 229.490145 282.177949 
L 229.557193 19.5151 
L 229.598384 58.633947 
L 229.680767 335.503298 
L 229.721958 179.447641 
L 229.763149 11.461574 
L 229.80434 108.448742 
L 229.845532 318.06586 
L 229.886723 261.951148 
L 229.927914 33.244841 
L 229.969105 89.371725 
L 230.010296 324.478263 
L 230.051488 214.541145 
L 230.092679 6.689631 
L 230.13387 218.117351 
L 230.175061 305.330091 
L 230.216252 25.107158 
L 230.257444 181.516945 
L 230.298635 303.376185 
L 230.339826 9.915033 
L 230.422208 182.957804 
L 230.4634 76.824765 
L 230.545782 10.207202 
L 230.586973 338.870334 
L 230.628164 6.646154 
L 230.710547 21.05447 
L 230.751738 276.874634 
L 230.792929 171.707613 
L 230.83412 45.157826 
L 230.925147 327.133603 
L 230.974983 292.215596 
L 231.024819 299.63422 
L 231.074655 337.662071 
L 231.174327 14.573458 
L 231.273999 41.506967 
L 231.37367 334.734195 
L 231.423506 331.320126 
L 231.473342 51.565592 
L 231.523178 338.834506 
L 231.573014 338.263489 
L 231.62285 41.477357 
L 231.672686 88.092645 
L 231.772357 42.538394 
L 231.822193 331.962546 
L 231.872029 338.897205 
L 231.971701 293.555148 
L 232.021537 43.728363 
L 232.071373 119.279067 
L 232.121209 235.228321 
L 232.270716 9.326573 
L 232.320552 338.406511 
L 232.370388 54.154336 
L 232.420224 258.418287 
L 232.47006 165.840079 
L 232.567622 140.690372 
L 232.665184 43.819348 
L 232.762747 333.136629 
L 232.860309 254.302281 
L 232.957871 6.755234 
L 233.055434 64.092259 
L 233.152996 300.64089 
L 233.250558 16.634935 
L 233.348121 334.130006 
L 233.445683 288.47777 
L 233.640808 31.960949 
L 233.835932 210.313206 
L 233.933495 253.748452 
L 234.128619 7.06764 
L 234.226182 9.392046 
L 234.323744 68.468435 
L 234.518869 305.150928 
L 234.616431 21.67844 
L 234.713993 238.606857 
L 234.909118 141.671629 
L 235.104243 202.170179 
L 235.201805 70.855482 
L 235.299367 333.637591 
L 235.39693 32.041194 
L 235.592054 315.468566 
L 235.714738 9.532231 
L 235.77608 77.168379 
L 235.898764 338.939643 
L 236.082791 8.859747 
L 236.144133 53.497827 
L 236.328159 333.500623 
L 236.573527 12.531507 
L 236.818895 338.589422 
L 236.880237 310.986823 
L 237.125605 7.478211 
L 237.186947 25.001289 
L 237.493657 338.953846 
L 237.554999 318.7636 
L 237.950988 14.091068 
L 238.346977 332.318702 
L 238.445975 331.324681 
L 238.643969 197.000675 
L 238.940961 8.818084 
L 239.039958 15.396183 
L 239.237953 121.961232 
L 239.633942 336.681319 
L 239.732939 334.393907 
L 239.930934 261.951244 
L 240.42592 18.342642 
L 240.524918 6.86191 
L 240.623915 12.565189 
L 240.872328 87.971295 
L 241.46999 323.743963 
L 241.619406 338.778412 
L 241.694114 337.281362 
L 241.843529 317.875343 
L 242.14236 231.446145 
L 242.814731 27.019868 
L 243.038854 6.978391 
L 243.113562 7.156821 
L 243.249794 15.709678 
L 243.522258 59.461674 
L 244.816463 331.889818 
L 245.020812 338.945671 
L 245.088928 338.394534 
L 245.22516 333.217679 
L 245.502187 307.939237 
L 245.901018 246.700843 
L 247.067904 51.565431 
L 247.492226 15.977484 
L 247.704388 8.207811 
L 247.810468 6.775699 
L 247.916549 6.914715 
L 248.12871 11.63851 
L 248.446952 28.589576 
L 248.871274 65.499189 
L 249.819399 175.55027 
L 250.717346 270.536614 
L 251.315977 313.054467 
L 251.771224 331.75858 
L 252.095632 337.945984 
L 252.257836 338.921241 
L 252.338938 338.903365 
L 252.501142 337.896954 
L 252.744449 334.094037 
L 253.068857 325.148058 
L 253.55547 304.768987 
L 254.285388 263.048928 
L 257.421994 68.986307 
L 258.206089 38.635915 
L 258.833365 21.789441 
L 259.341373 12.868899 
L 259.809625 8.183045 
L 260.160814 6.749906 
L 260.277877 6.646504 
L 260.39494 6.722911 
L 260.629066 7.396926 
L 260.980255 9.641049 
L 261.448507 14.735557 
L 262.033823 24.052789 
L 262.854665 41.591342 
L 263.920838 69.928113 
L 265.792538 127.034587 
L 268.349511 203.621482 
L 269.905914 243.419774 
L 271.219018 271.524286 
L 272.46711 293.344699 
L 273.507186 307.943035 
L 274.57814 319.734087 
L 275.523105 327.585151 
L 276.349949 332.63826 
L 277.058673 335.721348 
L 277.767397 337.738706 
L 278.23988 338.531923 
L 278.643787 338.88134 
L 279.047695 338.943353 
L 279.451603 338.732415 
L 279.85551 338.262682 
L 280.379861 337.289462 
L 281.078995 335.400183 
L 281.952912 332.180749 
L 283.092064 326.741162 
L 284.228559 320.138047 
L 285.389355 312.40927 
L 287.246629 298.477305 
L 289.586329 279.125521 
L 300.331195 187.472316 
L 303.387959 164.413622 
L 306.164676 145.227571 
L 308.656968 129.469873 
L 311.337703 114.042045 
L 313.946315 100.48458 
L 316.498148 88.535046 
L 318.684941 79.263947 
L 320.683064 71.524833 
L 322.921784 63.629775 
L 325.138709 56.563443 
L 327.414106 50.030026 
L 330.088082 43.206238 
L 332.330042 38.135345 
L 334.751134 33.266172 
L 336.96149 29.324305 
L 339.473323 25.376025 
L 341.248974 22.897732 
L 343.205921 20.442466 
L 345.200496 18.215805 
L 347.708491 15.778167 
L 350.809795 13.267209 
L 353.542071 11.466563 
L 356.192184 10.047784 
L 359.179844 8.793104 
L 362.476619 7.783421 
L 365.833741 7.108609 
L 368.144979 6.826715 
L 370.82013 6.665749 
L 372.729052 6.649211 
L 377.502851 6.921709 
L 381.665369 7.472551 
L 384.796597 8.047885 
L 388.256686 8.820485 
L 391.788758 9.736185 
L 398.433445 11.740388 
L 405.206136 14.070722 
L 413.799388 17.311232 
L 425.142871 21.872684 
L 452.012049 32.986287 
L 452.012049 32.986287 
" clip-path="url(#pa9d155d044)" style="fill: none; stroke: #0000ff; stroke-linecap: square"/>
   </g>
   <g id="patch_3">
    <path d="M 232.313266 345.6 
L 232.313266 0 
" style="fill: none; stroke: #000000; stroke-width: 0.8; stroke-linejoin: miter; stroke-linecap: square"/>
   </g>
   <g id="patch_4">
    <path d="M 3.826531 172.800086 
L 460.8 172.800086 
" style="fill: none; stroke: #000000; stroke-width: 0.8; stroke-linejoin: miter; stroke-linecap: square"/>
   </g>
  </g>
 </g>
 <defs>
  <clipPath id="pa9d155d044">
   <rect x="3.826531" y="0" width="456.973469" height="345.6"/>
  </clipPath>
 </defs>
</svg>
