<?xml version="1.0" encoding="utf-8" standalone="no"?>
<!DOCTYPE svg PUBLIC "-//W3C//DTD SVG 1.1//EN"
  "http://www.w3.org/Graphics/SVG/1.1/DTD/svg11.dtd">
<svg xmlns:xlink="http://www.w3.org/1999/xlink" width="460.8pt" height="345.6pt" viewBox="0 0 460.8 345.6" xmlns="http://www.w3.org/2000/svg" version="1.1">
 <metadata>
  <rdf:RDF xmlns:dc="http://purl.org/dc/elements/1.1/" xmlns:cc="http://creativecommons.org/ns#" xmlns:rdf="http://www.w3.org/1999/02/22-rdf-syntax-ns#">
   <cc:Work>
    <dc:type rdf:resource="http://purl.org/dc/dcmitype/StillImage"/>
    <dc:date>2025-08-08T16:21:45.362144</dc:date>
    <dc:format>image/svg+xml</dc:format>
    <dc:creator>
     <cc:Agent>
      <dc:title>Matplotlib v3.10.3, https://matplotlib.org/</dc:title>
     </cc:Agent>
    </dc:creator>
   </cc:Work>
  </rdf:RDF>
 </metadata>
 <defs>
  <style type="text/css">*{stroke-linejoin: round; stroke-linecap: butt}</style>
 </defs>
 <g id="figure_1">
  <g id="patch_1">
   <path d="M 0 345.6 
L 460.8 345.6 
L 460.8 0 
L 0 0 
z
" style="fill: #ffffff"/>
  </g>
  <g id="axes_1">
   <g id="patch_2">
    <path d="M 48.786782 345.6 
L 412.013218 345.6 
L 412.013218 0 
L 48.786782 0 
z
" style="fill: #ffffff"/>
   </g>
   <g id="matplotlib.axis_1">
    <g id="xtick_1">
     <g id="line2d_1">
      <defs>
       <path id="ma0f3875bc4" d="M 0 0 
L 0 3.5 
" style="stroke: #000000; stroke-width: 0.8"/>
      </defs>
      <g>
       <use xlink:href="#ma0f3875bc4" x="70.478615" y="160.086266" style="stroke: #000000; stroke-width: 0.8"/>
      </g>
     </g>
     <g id="text_1">
      <!-- −2 -->
      <g transform="translate(63.107521 174.684704) scale(0.1 -0.1)">
       <defs>
        <path id="DejaVuSans-2212" d="M 678 2272 
L 4684 2272 
L 4684 1741 
L 678 1741 
L 678 2272 
z
" transform="scale(0.015625)"/>
        <path id="DejaVuSans-32" d="M 1228 531 
L 3431 531 
L 3431 0 
L 469 0 
L 469 531 
Q 828 903 1448 1529 
Q 2069 2156 2228 2338 
Q 2531 2678 2651 2914 
Q 2772 3150 2772 3378 
Q 2772 3750 2511 3984 
Q 2250 4219 1831 4219 
Q 1534 4219 1204 4116 
Q 875 4013 500 3803 
L 500 4441 
Q 881 4594 1212 4672 
Q 1544 4750 1819 4750 
Q 2544 4750 2975 4387 
Q 3406 4025 3406 3419 
Q 3406 3131 3298 2873 
Q 3191 2616 2906 2266 
Q 2828 2175 2409 1742 
Q 1991 1309 1228 531 
z
" transform="scale(0.015625)"/>
       </defs>
       <use xlink:href="#DejaVuSans-2212"/>
       <use xlink:href="#DejaVuSans-32" transform="translate(83.789062 0)"/>
      </g>
     </g>
    </g>
    <g id="xtick_2">
     <g id="line2d_2">
      <g>
       <use xlink:href="#ma0f3875bc4" x="145.073139" y="160.086266" style="stroke: #000000; stroke-width: 0.8"/>
      </g>
     </g>
     <g id="text_2">
      <!-- −1 -->
      <g transform="translate(137.702046 174.684704) scale(0.1 -0.1)">
       <defs>
        <path id="DejaVuSans-31" d="M 794 531 
L 1825 531 
L 1825 4091 
L 703 3866 
L 703 4441 
L 1819 4666 
L 2450 4666 
L 2450 531 
L 3481 531 
L 3481 0 
L 794 0 
L 794 531 
z
" transform="scale(0.015625)"/>
       </defs>
       <use xlink:href="#DejaVuSans-2212"/>
       <use xlink:href="#DejaVuSans-31" transform="translate(83.789062 0)"/>
      </g>
     </g>
    </g>
    <g id="xtick_3">
     <g id="line2d_3">
      <g>
       <use xlink:href="#ma0f3875bc4" x="219.667664" y="160.086266" style="stroke: #000000; stroke-width: 0.8"/>
      </g>
     </g>
    </g>
    <g id="xtick_4">
     <g id="line2d_4">
      <g>
       <use xlink:href="#ma0f3875bc4" x="294.262189" y="160.086266" style="stroke: #000000; stroke-width: 0.8"/>
      </g>
     </g>
     <g id="text_3">
      <!-- 1 -->
      <g transform="translate(291.080939 174.684704) scale(0.1 -0.1)">
       <use xlink:href="#DejaVuSans-31"/>
      </g>
     </g>
    </g>
    <g id="xtick_5">
     <g id="line2d_5">
      <g>
       <use xlink:href="#ma0f3875bc4" x="368.856713" y="160.086266" style="stroke: #000000; stroke-width: 0.8"/>
      </g>
     </g>
     <g id="text_4">
      <!-- 2 -->
      <g transform="translate(365.675463 174.684704) scale(0.1 -0.1)">
       <use xlink:href="#DejaVuSans-32"/>
      </g>
     </g>
    </g>
    <g id="xtick_6">
     <g id="line2d_6">
      <defs>
       <path id="m02a64ded65" d="M 0 0 
L 0 2 
" style="stroke: #000000; stroke-width: 0.6"/>
      </defs>
      <g>
       <use xlink:href="#m02a64ded65" x="55.55971" y="160.086266" style="stroke: #000000; stroke-width: 0.6"/>
      </g>
     </g>
    </g>
    <g id="xtick_7">
     <g id="line2d_7">
      <g>
       <use xlink:href="#m02a64ded65" x="85.39752" y="160.086266" style="stroke: #000000; stroke-width: 0.6"/>
      </g>
     </g>
    </g>
    <g id="xtick_8">
     <g id="line2d_8">
      <g>
       <use xlink:href="#m02a64ded65" x="100.316424" y="160.086266" style="stroke: #000000; stroke-width: 0.6"/>
      </g>
     </g>
    </g>
    <g id="xtick_9">
     <g id="line2d_9">
      <g>
       <use xlink:href="#m02a64ded65" x="115.235329" y="160.086266" style="stroke: #000000; stroke-width: 0.6"/>
      </g>
     </g>
    </g>
    <g id="xtick_10">
     <g id="line2d_10">
      <g>
       <use xlink:href="#m02a64ded65" x="130.154234" y="160.086266" style="stroke: #000000; stroke-width: 0.6"/>
      </g>
     </g>
    </g>
    <g id="xtick_11">
     <g id="line2d_11">
      <g>
       <use xlink:href="#m02a64ded65" x="159.992044" y="160.086266" style="stroke: #000000; stroke-width: 0.6"/>
      </g>
     </g>
    </g>
    <g id="xtick_12">
     <g id="line2d_12">
      <g>
       <use xlink:href="#m02a64ded65" x="174.910949" y="160.086266" style="stroke: #000000; stroke-width: 0.6"/>
      </g>
     </g>
    </g>
    <g id="xtick_13">
     <g id="line2d_13">
      <g>
       <use xlink:href="#m02a64ded65" x="189.829854" y="160.086266" style="stroke: #000000; stroke-width: 0.6"/>
      </g>
     </g>
    </g>
    <g id="xtick_14">
     <g id="line2d_14">
      <g>
       <use xlink:href="#m02a64ded65" x="204.748759" y="160.086266" style="stroke: #000000; stroke-width: 0.6"/>
      </g>
     </g>
    </g>
    <g id="xtick_15">
     <g id="line2d_15">
      <g>
       <use xlink:href="#m02a64ded65" x="234.586569" y="160.086266" style="stroke: #000000; stroke-width: 0.6"/>
      </g>
     </g>
    </g>
    <g id="xtick_16">
     <g id="line2d_16">
      <g>
       <use xlink:href="#m02a64ded65" x="249.505474" y="160.086266" style="stroke: #000000; stroke-width: 0.6"/>
      </g>
     </g>
    </g>
    <g id="xtick_17">
     <g id="line2d_17">
      <g>
       <use xlink:href="#m02a64ded65" x="264.424379" y="160.086266" style="stroke: #000000; stroke-width: 0.6"/>
      </g>
     </g>
    </g>
    <g id="xtick_18">
     <g id="line2d_18">
      <g>
       <use xlink:href="#m02a64ded65" x="279.343284" y="160.086266" style="stroke: #000000; stroke-width: 0.6"/>
      </g>
     </g>
    </g>
    <g id="xtick_19">
     <g id="line2d_19">
      <g>
       <use xlink:href="#m02a64ded65" x="309.181094" y="160.086266" style="stroke: #000000; stroke-width: 0.6"/>
      </g>
     </g>
    </g>
    <g id="xtick_20">
     <g id="line2d_20">
      <g>
       <use xlink:href="#m02a64ded65" x="324.099999" y="160.086266" style="stroke: #000000; stroke-width: 0.6"/>
      </g>
     </g>
    </g>
    <g id="xtick_21">
     <g id="line2d_21">
      <g>
       <use xlink:href="#m02a64ded65" x="339.018904" y="160.086266" style="stroke: #000000; stroke-width: 0.6"/>
      </g>
     </g>
    </g>
    <g id="xtick_22">
     <g id="line2d_22">
      <g>
       <use xlink:href="#m02a64ded65" x="353.937809" y="160.086266" style="stroke: #000000; stroke-width: 0.6"/>
      </g>
     </g>
    </g>
    <g id="xtick_23">
     <g id="line2d_23">
      <g>
       <use xlink:href="#m02a64ded65" x="383.775618" y="160.086266" style="stroke: #000000; stroke-width: 0.6"/>
      </g>
     </g>
    </g>
    <g id="xtick_24">
     <g id="line2d_24">
      <g>
       <use xlink:href="#m02a64ded65" x="398.694523" y="160.086266" style="stroke: #000000; stroke-width: 0.6"/>
      </g>
     </g>
    </g>
   </g>
   <g id="matplotlib.axis_2">
    <g id="ytick_1">
     <g id="line2d_25">
      <defs>
       <path id="mb2d2d40932" d="M 0 0 
L -3.5 0 
" style="stroke: #000000; stroke-width: 0.8"/>
      </defs>
      <g>
       <use xlink:href="#mb2d2d40932" x="219.667664" y="309.275316" style="stroke: #000000; stroke-width: 0.8"/>
      </g>
     </g>
     <g id="text_5">
      <!-- −2 -->
      <g transform="translate(197.925477 313.074534) scale(0.1 -0.1)">
       <use xlink:href="#DejaVuSans-2212"/>
       <use xlink:href="#DejaVuSans-32" transform="translate(83.789062 0)"/>
      </g>
     </g>
    </g>
    <g id="ytick_2">
     <g id="line2d_26">
      <g>
       <use xlink:href="#mb2d2d40932" x="219.667664" y="234.680791" style="stroke: #000000; stroke-width: 0.8"/>
      </g>
     </g>
     <g id="text_6">
      <!-- −1 -->
      <g transform="translate(197.925477 238.48001) scale(0.1 -0.1)">
       <use xlink:href="#DejaVuSans-2212"/>
       <use xlink:href="#DejaVuSans-31" transform="translate(83.789062 0)"/>
      </g>
     </g>
    </g>
    <g id="ytick_3">
     <g id="line2d_27">
      <g>
       <use xlink:href="#mb2d2d40932" x="219.667664" y="160.086266" style="stroke: #000000; stroke-width: 0.8"/>
      </g>
     </g>
    </g>
    <g id="ytick_4">
     <g id="line2d_28">
      <g>
       <use xlink:href="#mb2d2d40932" x="219.667664" y="85.491741" style="stroke: #000000; stroke-width: 0.8"/>
      </g>
     </g>
     <g id="text_7">
      <!-- 1 -->
      <g transform="translate(206.305164 89.29096) scale(0.1 -0.1)">
       <use xlink:href="#DejaVuSans-31"/>
      </g>
     </g>
    </g>
    <g id="ytick_5">
     <g id="line2d_29">
      <g>
       <use xlink:href="#mb2d2d40932" x="219.667664" y="10.897217" style="stroke: #000000; stroke-width: 0.8"/>
      </g>
     </g>
     <g id="text_8">
      <!-- 2 -->
      <g transform="translate(206.305164 14.696435) scale(0.1 -0.1)">
       <use xlink:href="#DejaVuSans-32"/>
      </g>
     </g>
    </g>
    <g id="ytick_6">
     <g id="line2d_30">
      <defs>
       <path id="md3c599b753" d="M 0 0 
L -2 0 
" style="stroke: #000000; stroke-width: 0.6"/>
      </defs>
      <g>
       <use xlink:href="#md3c599b753" x="219.667664" y="339.113125" style="stroke: #000000; stroke-width: 0.6"/>
      </g>
     </g>
    </g>
    <g id="ytick_7">
     <g id="line2d_31">
      <g>
       <use xlink:href="#md3c599b753" x="219.667664" y="324.194221" style="stroke: #000000; stroke-width: 0.6"/>
      </g>
     </g>
    </g>
    <g id="ytick_8">
     <g id="line2d_32">
      <g>
       <use xlink:href="#md3c599b753" x="219.667664" y="294.356411" style="stroke: #000000; stroke-width: 0.6"/>
      </g>
     </g>
    </g>
    <g id="ytick_9">
     <g id="line2d_33">
      <g>
       <use xlink:href="#md3c599b753" x="219.667664" y="279.437506" style="stroke: #000000; stroke-width: 0.6"/>
      </g>
     </g>
    </g>
    <g id="ytick_10">
     <g id="line2d_34">
      <g>
       <use xlink:href="#md3c599b753" x="219.667664" y="264.518601" style="stroke: #000000; stroke-width: 0.6"/>
      </g>
     </g>
    </g>
    <g id="ytick_11">
     <g id="line2d_35">
      <g>
       <use xlink:href="#md3c599b753" x="219.667664" y="249.599696" style="stroke: #000000; stroke-width: 0.6"/>
      </g>
     </g>
    </g>
    <g id="ytick_12">
     <g id="line2d_36">
      <g>
       <use xlink:href="#md3c599b753" x="219.667664" y="219.761886" style="stroke: #000000; stroke-width: 0.6"/>
      </g>
     </g>
    </g>
    <g id="ytick_13">
     <g id="line2d_37">
      <g>
       <use xlink:href="#md3c599b753" x="219.667664" y="204.842981" style="stroke: #000000; stroke-width: 0.6"/>
      </g>
     </g>
    </g>
    <g id="ytick_14">
     <g id="line2d_38">
      <g>
       <use xlink:href="#md3c599b753" x="219.667664" y="189.924076" style="stroke: #000000; stroke-width: 0.6"/>
      </g>
     </g>
    </g>
    <g id="ytick_15">
     <g id="line2d_39">
      <g>
       <use xlink:href="#md3c599b753" x="219.667664" y="175.005171" style="stroke: #000000; stroke-width: 0.6"/>
      </g>
     </g>
    </g>
    <g id="ytick_16">
     <g id="line2d_40">
      <g>
       <use xlink:href="#md3c599b753" x="219.667664" y="145.167361" style="stroke: #000000; stroke-width: 0.6"/>
      </g>
     </g>
    </g>
    <g id="ytick_17">
     <g id="line2d_41">
      <g>
       <use xlink:href="#md3c599b753" x="219.667664" y="130.248456" style="stroke: #000000; stroke-width: 0.6"/>
      </g>
     </g>
    </g>
    <g id="ytick_18">
     <g id="line2d_42">
      <g>
       <use xlink:href="#md3c599b753" x="219.667664" y="115.329551" style="stroke: #000000; stroke-width: 0.6"/>
      </g>
     </g>
    </g>
    <g id="ytick_19">
     <g id="line2d_43">
      <g>
       <use xlink:href="#md3c599b753" x="219.667664" y="100.410646" style="stroke: #000000; stroke-width: 0.6"/>
      </g>
     </g>
    </g>
    <g id="ytick_20">
     <g id="line2d_44">
      <g>
       <use xlink:href="#md3c599b753" x="219.667664" y="70.572836" style="stroke: #000000; stroke-width: 0.6"/>
      </g>
     </g>
    </g>
    <g id="ytick_21">
     <g id="line2d_45">
      <g>
       <use xlink:href="#md3c599b753" x="219.667664" y="55.653932" style="stroke: #000000; stroke-width: 0.6"/>
      </g>
     </g>
    </g>
    <g id="ytick_22">
     <g id="line2d_46">
      <g>
       <use xlink:href="#md3c599b753" x="219.667664" y="40.735027" style="stroke: #000000; stroke-width: 0.6"/>
      </g>
     </g>
    </g>
    <g id="ytick_23">
     <g id="line2d_47">
      <g>
       <use xlink:href="#md3c599b753" x="219.667664" y="25.816122" style="stroke: #000000; stroke-width: 0.6"/>
      </g>
     </g>
    </g>
   </g>
   <g id="line2d_48">
    <path d="M 219.667664 160.086266 
L 219.667664 160.086266 
L 219.667664 160.086266 
L 219.667664 160.086266 
L 219.667664 160.086266 
L 219.667664 160.086266 
L 219.667664 160.086266 
L 219.667664 160.086266 
L 219.667664 160.086266 
L 219.667664 160.086266 
L 219.667664 160.086266 
L 219.667664 160.086266 
L 219.667664 160.086266 
L 219.667664 160.086266 
L 219.667664 160.086266 
L 219.667664 160.086266 
L 219.667664 160.086266 
L 219.667664 160.086266 
L 219.667664 160.086266 
L 219.667664 160.086266 
L 219.667664 160.086266 
L 219.667664 160.086266 
L 219.667664 160.086266 
" clip-path="url(#pe9b4171961)" style="fill: none; stroke: #0000ff; stroke-linecap: square"/>
   </g>
   <g id="line2d_49">
    <path d="M 197.608454 113.323068 
L 195.34547 114.459122 
L 193.047233 115.760675 
L 190.848546 117.157676 
L 188.457966 118.86297 
L 186.62846 120.31421 
L 183.405911 123.228557 
L 181.882204 124.792295 
L 178.978835 128.182903 
L 177.251543 130.518072 
L 176.546536 131.556041 
L 175.27212 133.582661 
L 173.251263 137.306383 
L 171.641587 140.931598 
L 170.505753 144.070276 
L 170.220993 144.972294 
L 169.240992 148.660147 
L 168.567935 152.198105 
L 168.497537 152.668483 
L 168.484694 152.75762 
" clip-path="url(#pe9b4171961)" style="fill: none; stroke: #0000ff; stroke-linecap: square"/>
   </g>
   <g id="line2d_50">
    <path d="M 138.524468 148.611951 
L 138.48499 148.894684 
L 138.408988 149.460553 
L 138.33174 150.068998 
L 137.862195 155.213556 
L 137.720231 159.381768 
L 137.791086 163.565359 
L 138.638318 172.338747 
L 138.864931 173.753619 
L 139.902939 178.886981 
L 142.062644 186.417599 
L 142.333057 187.201514 
L 144.443361 192.600607 
L 146.190037 196.37561 
L 149.338885 202.154555 
L 151.654638 205.803948 
L 153.535281 208.484469 
L 158.829454 214.991551 
L 161.087532 217.39461 
L 164.026429 220.252129 
L 165.387517 221.482876 
L 165.795267 221.840966 
L 166.000029 222.018997 
L 166.051312 222.063398 
" clip-path="url(#pe9b4171961)" style="fill: none; stroke: #0000ff; stroke-linecap: square"/>
   </g>
   <g id="line2d_51">
    <path d="M 152.205772 238.460464 
L 152.984093 239.123745 
L 159.820709 244.418725 
L 163.113249 246.661204 
L 168.280483 249.82466 
L 172.072649 251.892237 
L 181.57361 256.224005 
L 186.348044 257.981233 
L 188.87292 258.80458 
L 197.297353 261.0476 
L 202.964797 262.13839 
L 209.258937 262.971057 
L 212.853455 263.271479 
L 223.061362 263.440533 
L 224.826075 263.367496 
L 231.328308 262.836697 
L 235.409399 262.291058 
L 244.601916 260.445146 
L 247.852277 259.581237 
L 248.4272 259.416578 
L 248.714303 259.333001 
L 248.857763 259.290902 
" clip-path="url(#pe9b4171961)" style="fill: none; stroke: #0000ff; stroke-linecap: square"/>
   </g>
   <g id="line2d_52">
    <path d="M 255.052058 274.808579 
L 255.779773 274.581594 
L 262.4634 272.254843 
L 266.1114 270.794188 
L 273.524801 267.383393 
L 279.293164 264.288302 
L 285.239613 260.652582 
L 293.715784 254.585686 
L 296.080357 252.684133 
L 300.700667 248.669092 
L 306.85523 242.61864 
L 312.843447 235.793187 
L 317.081721 230.255818 
L 319.919809 226.13755 
L 324.799308 218.056965 
L 326.736346 214.396135 
L 331.485521 203.790172 
L 332.794589 200.280339 
L 334.545454 194.962588 
L 334.745228 194.297649 
L 334.843673 193.964749 
L 334.892534 193.798192 
" clip-path="url(#pe9b4171961)" style="fill: none; stroke: #0000ff; stroke-linecap: square"/>
   </g>
   <g id="line2d_53">
    <path d="M 348.423009 195.944869 
L 348.580212 195.375544 
L 349.678274 191.086583 
L 351.055126 184.603872 
L 352.851326 171.306356 
L 353.026928 168.979246 
L 353.3141 161.638162 
L 352.784263 148.09671 
L 352.541273 145.650815 
L 350.774655 134.110599 
L 349.328366 127.653556 
L 347.700019 121.726204 
L 344.066671 111.212292 
L 341.853175 105.915434 
L 337.277138 96.589889 
L 334.560916 91.797769 
L 330.433504 85.288493 
L 327.270783 80.806086 
L 321.439685 73.447741 
L 320.850516 72.76039 
L 320.492523 72.347301 
" clip-path="url(#pe9b4171961)" style="fill: none; stroke: #0000ff; stroke-linecap: square"/>
   </g>
   <g id="line2d_54">
    <path d="M 328.971718 64.575125 
L 328.776177 64.351807 
L 327.98946 63.462549 
L 326.137583 61.425683 
L 319.47983 54.695158 
L 312.958966 48.881558 
L 303.492288 41.582314 
L 301.839006 40.429989 
L 295.207601 36.136792 
L 283.663119 29.800673 
L 274.197672 25.564029 
L 267.887137 23.175212 
L 259.554391 20.519783 
L 252.959722 18.801472 
L 242.603519 16.755527 
L 237.735265 16.060866 
L 226.974409 15.116043 
L 218.137384 14.94009 
L 211.922917 15.138782 
L 200.210134 16.242049 
L 199.903501 16.28386 
L 199.148788 16.389607 
L 198.771642 16.443966 
" clip-path="url(#pe9b4171961)" style="fill: none; stroke: #0000ff; stroke-linecap: square"/>
   </g>
   <g id="line2d_55">
    <path d="M 196.934852 6.646154 
L 195.324958 6.893311 
L 189.439426 7.945205 
L 187.078236 8.433446 
L 175.169827 11.490872 
L 164.600228 15.075142 
L 161.365994 16.344957 
L 150.048335 21.472422 
L 138.276006 28.040642 
L 130.655967 33.052544 
L 128.583181 34.530439 
L 117.219219 43.617537 
L 115.596971 45.064792 
L 103.824723 56.930744 
L 100.763733 60.4745 
L 97.479142 64.532021 
L 92.226861 71.658382 
L 83.703279 85.424798 
L 82.73741 87.211343 
L 79.086562 94.530165 
L 78.709792 95.344263 
L 78.523174 95.752126 
L 78.430307 95.956259 
" clip-path="url(#pe9b4171961)" style="fill: none; stroke: #0000ff; stroke-linecap: square"/>
   </g>
   <g id="line2d_56">
    <path d="M 69.56131 94.271411 
L 69.179353 95.149522 
L 64.23284 108.090804 
L 62.046334 115.152661 
L 59.326471 126.112536 
L 57.870066 133.91281 
L 57.315711 137.606141 
L 55.873892 154.160648 
L 55.771905 158.785149 
L 56.29241 173.202623 
L 57.1511 181.343715 
L 57.873943 186.283681 
L 60.152252 197.747198 
L 62.190763 205.523457 
L 64.576903 213.099174 
L 70.748707 228.545429 
L 72.575859 232.387811 
L 77.821534 242.203183 
L 81.120966 247.655239 
L 81.629708 248.455011 
L 81.885811 248.853791 
L 82.014294 249.052903 
" clip-path="url(#pe9b4171961)" style="fill: none; stroke: #0000ff; stroke-linecap: square"/>
   </g>
   <g id="line2d_57">
    <path d="M 76.638928 255.188111 
L 78.496646 257.92452 
L 83.967969 265.381912 
L 86.973385 269.145006 
L 93.736844 276.889558 
L 100.565648 283.845266 
L 108.50575 291.023691 
L 118.942654 299.212298 
L 129.397058 306.212232 
L 136.620631 310.435096 
L 144.315092 314.435125 
L 152.899842 318.338085 
L 163.801268 322.507096 
L 174.236671 325.729271 
L 179.480996 327.079116 
L 192.678122 329.712753 
L 201.016061 330.830806 
L 214.405056 331.765867 
L 218.441193 331.842128 
L 219.680052 331.846506 
" clip-path="url(#pe9b4171961)" style="fill: none; stroke: #0000ff; stroke-linecap: square"/>
   </g>
   <g id="line2d_58">
    <path d="M 220.570436 338.953846 
L 220.748409 338.952859 
L 221.10435 338.950355 
L 222.528044 338.933252 
L 234.494712 338.340536 
L 235.746029 338.232028 
L 254.468603 335.538028 
L 259.692986 334.420427 
L 274.679947 330.286369 
L 282.40578 327.592549 
L 290.995815 324.118949 
L 298.59123 320.602611 
L 310.113974 314.403767 
L 322.105357 306.718272 
L 330.478674 300.497612 
L 332.33232 299.01467 
L 339.064527 293.27341 
L 348.773446 283.884987 
L 353.711514 278.52052 
L 364.728907 264.736454 
L 367.715317 260.467134 
L 369.487528 257.802358 
L 370.05013 256.934292 
L 370.329546 256.499043 
L 370.468781 256.281116 
" clip-path="url(#pe9b4171961)" style="fill: none; stroke: #0000ff; stroke-linecap: square"/>
   </g>
   <g id="line2d_59">
    <path d="M 377.224693 257.729862 
L 377.521368 257.249517 
L 384.008223 245.822314 
L 388.615132 236.344001 
L 394.097786 222.796885 
L 396.6183 215.285557 
L 398.925842 207.256116 
L 402.772686 188.914033 
L 403.130225 186.543361 
L 404.509794 173.938203 
L 405.028095 160.086266 
" clip-path="url(#pe9b4171961)" style="fill: none; stroke: #0000ff; stroke-linecap: square"/>
   </g>
   <g id="patch_3">
    <path d="M 219.667664 345.6 
L 219.667664 -0 
" style="fill: none; stroke: #000000; stroke-width: 0.8; stroke-linejoin: miter; stroke-linecap: square"/>
   </g>
   <g id="patch_4">
    <path d="M 48.786782 160.086266 
L 412.013218 160.086266 
" style="fill: none; stroke: #000000; stroke-width: 0.8; stroke-linejoin: miter; stroke-linecap: square"/>
   </g>
  </g>
 </g>
 <defs>
  <clipPath id="pe9b4171961">
   <rect x="48.786782" y="0" width="363.226437" height="345.6"/>
  </clipPath>
 </defs>
</svg>
