<?xml version="1.0" encoding="utf-8" standalone="no"?>
<!DOCTYPE svg PUBLIC "-//W3C//DTD SVG 1.1//EN"
  "http://www.w3.org/Graphics/SVG/1.1/DTD/svg11.dtd">
<svg xmlns:xlink="http://www.w3.org/1999/xlink" width="460.8pt" height="345.6pt" viewBox="0 0 460.8 345.6" xmlns="http://www.w3.org/2000/svg" version="1.1">
 <metadata>
  <rdf:RDF xmlns:dc="http://purl.org/dc/elements/1.1/" xmlns:cc="http://creativecommons.org/ns#" xmlns:rdf="http://www.w3.org/1999/02/22-rdf-syntax-ns#">
   <cc:Work>
    <dc:type rdf:resource="http://purl.org/dc/dcmitype/StillImage"/>
    <dc:date>2025-08-04T20:47:07.396924</dc:date>
    <dc:format>image/svg+xml</dc:format>
    <dc:creator>
     <cc:Agent>
      <dc:title>Matplotlib v3.10.3, https://matplotlib.org/</dc:title>
     </cc:Agent>
    </dc:creator>
   </cc:Work>
  </rdf:RDF>
 </metadata>
 <defs>
  <style type="text/css">*{stroke-linejoin: round; stroke-linecap: butt}</style>
 </defs>
 <g id="figure_1">
  <g id="patch_1">
   <path d="M 0 345.6 
L 460.8 345.6 
L 460.8 0 
L 0 0 
z
" style="fill: #ffffff"/>
  </g>
  <g id="axes_1">
   <g id="patch_2">
    <path d="M 0 345.6 
L 460.8 345.6 
L 460.8 0 
L 0 0 
z
" style="fill: #ffffff"/>
   </g>
   <g id="PathCollection_1">
    <defs>
     <path id="C0_0_7d85a95539" d="M 0 2.738613 
C 0.726289 2.738613 1.422928 2.450055 1.936492 1.936492 
C 2.450055 1.422928 2.738613 0.726289 2.738613 -0 
C 2.738613 -0.726289 2.450055 -1.422928 1.936492 -1.936492 
C 1.422928 -2.450055 0.726289 -2.738613 0 -2.738613 
C -0.726289 -2.738613 -1.422928 -2.450055 -1.936492 -1.936492 
C -2.450055 -1.422928 -2.738613 -0.726289 -2.738613 0 
C -2.738613 0.726289 -2.450055 1.422928 -1.936492 1.936492 
C -1.422928 2.450055 -0.726289 2.738613 0 2.738613 
z
"/>
    </defs>
    <g clip-path="url(#pa4a4e47edb)">
     <use xlink:href="#C0_0_7d85a95539" x="8.861538" y="245.945172" style="fill: #33991a"/>
    </g>
    <g clip-path="url(#pa4a4e47edb)">
     <use xlink:href="#C0_0_7d85a95539" x="12.584874" y="288.187829" style="fill: #33991a"/>
    </g>
    <g clip-path="url(#pa4a4e47edb)">
     <use xlink:href="#C0_0_7d85a95539" x="16.308209" y="318.539281" style="fill: #33991a"/>
    </g>
    <g clip-path="url(#pa4a4e47edb)">
     <use xlink:href="#C0_0_7d85a95539" x="20.031545" y="335.386993" style="fill: #33991a"/>
    </g>
    <g clip-path="url(#pa4a4e47edb)">
     <use xlink:href="#C0_0_7d85a95539" x="23.75488" y="338.455499" style="fill: #33991a"/>
    </g>
    <g clip-path="url(#pa4a4e47edb)">
     <use xlink:href="#C0_0_7d85a95539" x="27.478216" y="328.649028" style="fill: #33991a"/>
    </g>
    <g clip-path="url(#pa4a4e47edb)">
     <use xlink:href="#C0_0_7d85a95539" x="31.201551" y="307.811482" style="fill: #33991a"/>
    </g>
    <g clip-path="url(#pa4a4e47edb)">
     <use xlink:href="#C0_0_7d85a95539" x="34.924887" y="278.441316" style="fill: #33991a"/>
    </g>
    <g clip-path="url(#pa4a4e47edb)">
     <use xlink:href="#C0_0_7d85a95539" x="38.648222" y="243.395878" style="fill: #33991a"/>
    </g>
    <g clip-path="url(#pa4a4e47edb)">
     <use xlink:href="#C0_0_7d85a95539" x="42.371558" y="205.613879" style="fill: #33991a"/>
    </g>
    <g clip-path="url(#pa4a4e47edb)">
     <use xlink:href="#C0_0_7d85a95539" x="46.094893" y="167.877197" style="fill: #33991a"/>
    </g>
    <g clip-path="url(#pa4a4e47edb)">
     <use xlink:href="#C0_0_7d85a95539" x="49.818229" y="132.625292" style="fill: #33991a"/>
    </g>
    <g clip-path="url(#pa4a4e47edb)">
     <use xlink:href="#C0_0_7d85a95539" x="53.541564" y="101.828038" style="fill: #33991a"/>
    </g>
    <g clip-path="url(#pa4a4e47edb)">
     <use xlink:href="#C0_0_7d85a95539" x="57.2649" y="76.916424" style="fill: #33991a"/>
    </g>
    <g clip-path="url(#pa4a4e47edb)">
     <use xlink:href="#C0_0_7d85a95539" x="60.988235" y="58.765656" style="fill: #33991a"/>
    </g>
    <g clip-path="url(#pa4a4e47edb)">
     <use xlink:href="#C0_0_7d85a95539" x="64.711571" y="47.721896" style="fill: #33991a"/>
    </g>
    <g clip-path="url(#pa4a4e47edb)">
     <use xlink:href="#C0_0_7d85a95539" x="68.434906" y="43.662093" style="fill: #33991a"/>
    </g>
    <g clip-path="url(#pa4a4e47edb)">
     <use xlink:href="#C0_0_7d85a95539" x="72.158242" y="46.075871" style="fill: #33991a"/>
    </g>
    <g clip-path="url(#pa4a4e47edb)">
     <use xlink:href="#C0_0_7d85a95539" x="75.881577" y="54.159077" style="fill: #33991a"/>
    </g>
    <g clip-path="url(#pa4a4e47edb)">
     <use xlink:href="#C0_0_7d85a95539" x="79.604913" y="66.909869" style="fill: #33991a"/>
    </g>
    <g clip-path="url(#pa4a4e47edb)">
     <use xlink:href="#C0_0_7d85a95539" x="83.328248" y="83.220034" style="fill: #33991a"/>
    </g>
    <g clip-path="url(#pa4a4e47edb)">
     <use xlink:href="#C0_0_7d85a95539" x="87.051584" y="101.956173" style="fill: #33991a"/>
    </g>
    <g clip-path="url(#pa4a4e47edb)">
     <use xlink:href="#C0_0_7d85a95539" x="90.774919" y="122.027287" style="fill: #33991a"/>
    </g>
    <g clip-path="url(#pa4a4e47edb)">
     <use xlink:href="#C0_0_7d85a95539" x="94.498255" y="142.437098" style="fill: #33991a"/>
    </g>
    <g clip-path="url(#pa4a4e47edb)">
     <use xlink:href="#C0_0_7d85a95539" x="98.22159" y="162.320827" style="fill: #33991a"/>
    </g>
    <g clip-path="url(#pa4a4e47edb)">
     <use xlink:href="#C0_0_7d85a95539" x="101.944926" y="180.967346" style="fill: #33991a"/>
    </g>
    <g clip-path="url(#pa4a4e47edb)">
     <use xlink:href="#C0_0_7d85a95539" x="105.668261" y="197.828378" style="fill: #33991a"/>
    </g>
    <g clip-path="url(#pa4a4e47edb)">
     <use xlink:href="#C0_0_7d85a95539" x="109.391597" y="212.516925" style="fill: #33991a"/>
    </g>
    <g clip-path="url(#pa4a4e47edb)">
     <use xlink:href="#C0_0_7d85a95539" x="113.114932" y="224.797301" style="fill: #33991a"/>
    </g>
    <g clip-path="url(#pa4a4e47edb)">
     <use xlink:href="#C0_0_7d85a95539" x="116.838268" y="234.569149" style="fill: #33991a"/>
    </g>
    <g clip-path="url(#pa4a4e47edb)">
     <use xlink:href="#C0_0_7d85a95539" x="120.561603" y="241.847655" style="fill: #33991a"/>
    </g>
    <g clip-path="url(#pa4a4e47edb)">
     <use xlink:href="#C0_0_7d85a95539" x="124.284939" y="246.741895" style="fill: #33991a"/>
    </g>
    <g clip-path="url(#pa4a4e47edb)">
     <use xlink:href="#C0_0_7d85a95539" x="128.008274" y="249.432906" style="fill: #33991a"/>
    </g>
    <g clip-path="url(#pa4a4e47edb)">
     <use xlink:href="#C0_0_7d85a95539" x="131.73161" y="250.152737" style="fill: #33991a"/>
    </g>
    <g clip-path="url(#pa4a4e47edb)">
     <use xlink:href="#C0_0_7d85a95539" x="135.454945" y="249.165359" style="fill: #33991a"/>
    </g>
    <g clip-path="url(#pa4a4e47edb)">
     <use xlink:href="#C0_0_7d85a95539" x="139.178281" y="246.750024" style="fill: #33991a"/>
    </g>
    <g clip-path="url(#pa4a4e47edb)">
     <use xlink:href="#C0_0_7d85a95539" x="142.901616" y="243.187359" style="fill: #33991a"/>
    </g>
    <g clip-path="url(#pa4a4e47edb)">
     <use xlink:href="#C0_0_7d85a95539" x="146.624952" y="238.748294" style="fill: #33991a"/>
    </g>
    <g clip-path="url(#pa4a4e47edb)">
     <use xlink:href="#C0_0_7d85a95539" x="150.348287" y="233.685707" style="fill: #33991a"/>
    </g>
    <g clip-path="url(#pa4a4e47edb)">
     <use xlink:href="#C0_0_7d85a95539" x="154.071622" y="228.22859" style="fill: #33991a"/>
    </g>
    <g clip-path="url(#pa4a4e47edb)">
     <use xlink:href="#C0_0_7d85a95539" x="157.794958" y="222.578425" style="fill: #33991a"/>
    </g>
    <g clip-path="url(#pa4a4e47edb)">
     <use xlink:href="#C0_0_7d85a95539" x="161.518293" y="216.907436" style="fill: #33991a"/>
    </g>
    <g clip-path="url(#pa4a4e47edb)">
     <use xlink:href="#C0_0_7d85a95539" x="165.241629" y="211.358364" style="fill: #33991a"/>
    </g>
    <g clip-path="url(#pa4a4e47edb)">
     <use xlink:href="#C0_0_7d85a95539" x="168.964964" y="206.045421" style="fill: #33991a"/>
    </g>
    <g clip-path="url(#pa4a4e47edb)">
     <use xlink:href="#C0_0_7d85a95539" x="172.6883" y="201.056111" style="fill: #33991a"/>
    </g>
    <g clip-path="url(#pa4a4e47edb)">
     <use xlink:href="#C0_0_7d85a95539" x="176.411635" y="196.453625" style="fill: #33991a"/>
    </g>
    <g clip-path="url(#pa4a4e47edb)">
     <use xlink:href="#C0_0_7d85a95539" x="180.134971" y="192.279583" style="fill: #33991a"/>
    </g>
    <g clip-path="url(#pa4a4e47edb)">
     <use xlink:href="#C0_0_7d85a95539" x="183.858306" y="188.556917" style="fill: #33991a"/>
    </g>
    <g clip-path="url(#pa4a4e47edb)">
     <use xlink:href="#C0_0_7d85a95539" x="187.581642" y="185.292741" style="fill: #33991a"/>
    </g>
    <g clip-path="url(#pa4a4e47edb)">
     <use xlink:href="#C0_0_7d85a95539" x="191.304977" y="182.481085" style="fill: #33991a"/>
    </g>
    <g clip-path="url(#pa4a4e47edb)">
     <use xlink:href="#C0_0_7d85a95539" x="195.028313" y="180.105429" style="fill: #33991a"/>
    </g>
    <g clip-path="url(#pa4a4e47edb)">
     <use xlink:href="#C0_0_7d85a95539" x="198.751648" y="178.140954" style="fill: #33991a"/>
    </g>
    <g clip-path="url(#pa4a4e47edb)">
     <use xlink:href="#C0_0_7d85a95539" x="202.474984" y="176.556508" style="fill: #33991a"/>
    </g>
    <g clip-path="url(#pa4a4e47edb)">
     <use xlink:href="#C0_0_7d85a95539" x="206.198319" y="175.316263" style="fill: #33991a"/>
    </g>
    <g clip-path="url(#pa4a4e47edb)">
     <use xlink:href="#C0_0_7d85a95539" x="209.921655" y="174.381066" style="fill: #33991a"/>
    </g>
    <g clip-path="url(#pa4a4e47edb)">
     <use xlink:href="#C0_0_7d85a95539" x="213.64499" y="173.70952" style="fill: #33991a"/>
    </g>
    <g clip-path="url(#pa4a4e47edb)">
     <use xlink:href="#C0_0_7d85a95539" x="217.368326" y="173.258797" style="fill: #33991a"/>
    </g>
    <g clip-path="url(#pa4a4e47edb)">
     <use xlink:href="#C0_0_7d85a95539" x="221.091661" y="172.985228" style="fill: #33991a"/>
    </g>
    <g clip-path="url(#pa4a4e47edb)">
     <use xlink:href="#C0_0_7d85a95539" x="224.814997" y="172.844706" style="fill: #33991a"/>
    </g>
    <g clip-path="url(#pa4a4e47edb)">
     <use xlink:href="#C0_0_7d85a95539" x="228.538332" y="172.792931" style="fill: #33991a"/>
    </g>
    <g clip-path="url(#pa4a4e47edb)">
     <use xlink:href="#C0_0_7d85a95539" x="232.261668" y="172.785534" style="fill: #33991a"/>
    </g>
    <g clip-path="url(#pa4a4e47edb)">
     <use xlink:href="#C0_0_7d85a95539" x="235.985003" y="172.778137" style="fill: #33991a"/>
    </g>
    <g clip-path="url(#pa4a4e47edb)">
     <use xlink:href="#C0_0_7d85a95539" x="239.708339" y="172.726361" style="fill: #33991a"/>
    </g>
    <g clip-path="url(#pa4a4e47edb)">
     <use xlink:href="#C0_0_7d85a95539" x="243.431674" y="172.58584" style="fill: #33991a"/>
    </g>
    <g clip-path="url(#pa4a4e47edb)">
     <use xlink:href="#C0_0_7d85a95539" x="247.15501" y="172.312271" style="fill: #33991a"/>
    </g>
    <g clip-path="url(#pa4a4e47edb)">
     <use xlink:href="#C0_0_7d85a95539" x="250.878345" y="171.861548" style="fill: #33991a"/>
    </g>
    <g clip-path="url(#pa4a4e47edb)">
     <use xlink:href="#C0_0_7d85a95539" x="254.601681" y="171.190002" style="fill: #33991a"/>
    </g>
    <g clip-path="url(#pa4a4e47edb)">
     <use xlink:href="#C0_0_7d85a95539" x="258.325016" y="170.254805" style="fill: #33991a"/>
    </g>
    <g clip-path="url(#pa4a4e47edb)">
     <use xlink:href="#C0_0_7d85a95539" x="262.048352" y="169.014559" style="fill: #33991a"/>
    </g>
    <g clip-path="url(#pa4a4e47edb)">
     <use xlink:href="#C0_0_7d85a95539" x="265.771687" y="167.430114" style="fill: #33991a"/>
    </g>
    <g clip-path="url(#pa4a4e47edb)">
     <use xlink:href="#C0_0_7d85a95539" x="269.495023" y="165.465639" style="fill: #33991a"/>
    </g>
    <g clip-path="url(#pa4a4e47edb)">
     <use xlink:href="#C0_0_7d85a95539" x="273.218358" y="163.089983" style="fill: #33991a"/>
    </g>
    <g clip-path="url(#pa4a4e47edb)">
     <use xlink:href="#C0_0_7d85a95539" x="276.941694" y="160.278327" style="fill: #33991a"/>
    </g>
    <g clip-path="url(#pa4a4e47edb)">
     <use xlink:href="#C0_0_7d85a95539" x="280.665029" y="157.01415" style="fill: #33991a"/>
    </g>
    <g clip-path="url(#pa4a4e47edb)">
     <use xlink:href="#C0_0_7d85a95539" x="284.388365" y="153.291485" style="fill: #33991a"/>
    </g>
    <g clip-path="url(#pa4a4e47edb)">
     <use xlink:href="#C0_0_7d85a95539" x="288.1117" y="149.117443" style="fill: #33991a"/>
    </g>
    <g clip-path="url(#pa4a4e47edb)">
     <use xlink:href="#C0_0_7d85a95539" x="291.835036" y="144.514957" style="fill: #33991a"/>
    </g>
    <g clip-path="url(#pa4a4e47edb)">
     <use xlink:href="#C0_0_7d85a95539" x="295.558371" y="139.525646" style="fill: #33991a"/>
    </g>
    <g clip-path="url(#pa4a4e47edb)">
     <use xlink:href="#C0_0_7d85a95539" x="299.281707" y="134.212704" style="fill: #33991a"/>
    </g>
    <g clip-path="url(#pa4a4e47edb)">
     <use xlink:href="#C0_0_7d85a95539" x="303.005042" y="128.663631" style="fill: #33991a"/>
    </g>
    <g clip-path="url(#pa4a4e47edb)">
     <use xlink:href="#C0_0_7d85a95539" x="306.728378" y="122.992642" style="fill: #33991a"/>
    </g>
    <g clip-path="url(#pa4a4e47edb)">
     <use xlink:href="#C0_0_7d85a95539" x="310.451713" y="117.342478" style="fill: #33991a"/>
    </g>
    <g clip-path="url(#pa4a4e47edb)">
     <use xlink:href="#C0_0_7d85a95539" x="314.175048" y="111.885361" style="fill: #33991a"/>
    </g>
    <g clip-path="url(#pa4a4e47edb)">
     <use xlink:href="#C0_0_7d85a95539" x="317.898384" y="106.822774" style="fill: #33991a"/>
    </g>
    <g clip-path="url(#pa4a4e47edb)">
     <use xlink:href="#C0_0_7d85a95539" x="321.621719" y="102.383708" style="fill: #33991a"/>
    </g>
    <g clip-path="url(#pa4a4e47edb)">
     <use xlink:href="#C0_0_7d85a95539" x="325.345055" y="98.821044" style="fill: #33991a"/>
    </g>
    <g clip-path="url(#pa4a4e47edb)">
     <use xlink:href="#C0_0_7d85a95539" x="329.06839" y="96.405709" style="fill: #33991a"/>
    </g>
    <g clip-path="url(#pa4a4e47edb)">
     <use xlink:href="#C0_0_7d85a95539" x="332.791726" y="95.418331" style="fill: #33991a"/>
    </g>
    <g clip-path="url(#pa4a4e47edb)">
     <use xlink:href="#C0_0_7d85a95539" x="336.515061" y="96.138162" style="fill: #33991a"/>
    </g>
    <g clip-path="url(#pa4a4e47edb)">
     <use xlink:href="#C0_0_7d85a95539" x="340.238397" y="98.829173" style="fill: #33991a"/>
    </g>
    <g clip-path="url(#pa4a4e47edb)">
     <use xlink:href="#C0_0_7d85a95539" x="343.961732" y="103.723412" style="fill: #33991a"/>
    </g>
    <g clip-path="url(#pa4a4e47edb)">
     <use xlink:href="#C0_0_7d85a95539" x="347.685068" y="111.001919" style="fill: #33991a"/>
    </g>
    <g clip-path="url(#pa4a4e47edb)">
     <use xlink:href="#C0_0_7d85a95539" x="351.408403" y="120.773767" style="fill: #33991a"/>
    </g>
    <g clip-path="url(#pa4a4e47edb)">
     <use xlink:href="#C0_0_7d85a95539" x="355.131739" y="133.054143" style="fill: #33991a"/>
    </g>
    <g clip-path="url(#pa4a4e47edb)">
     <use xlink:href="#C0_0_7d85a95539" x="358.855074" y="147.74269" style="fill: #33991a"/>
    </g>
    <g clip-path="url(#pa4a4e47edb)">
     <use xlink:href="#C0_0_7d85a95539" x="362.57841" y="164.603722" style="fill: #33991a"/>
    </g>
    <g clip-path="url(#pa4a4e47edb)">
     <use xlink:href="#C0_0_7d85a95539" x="366.301745" y="183.25024" style="fill: #33991a"/>
    </g>
    <g clip-path="url(#pa4a4e47edb)">
     <use xlink:href="#C0_0_7d85a95539" x="370.025081" y="203.133969" style="fill: #33991a"/>
    </g>
    <g clip-path="url(#pa4a4e47edb)">
     <use xlink:href="#C0_0_7d85a95539" x="373.748416" y="223.54378" style="fill: #33991a"/>
    </g>
    <g clip-path="url(#pa4a4e47edb)">
     <use xlink:href="#C0_0_7d85a95539" x="377.471752" y="243.614895" style="fill: #33991a"/>
    </g>
    <g clip-path="url(#pa4a4e47edb)">
     <use xlink:href="#C0_0_7d85a95539" x="381.195087" y="262.351033" style="fill: #33991a"/>
    </g>
    <g clip-path="url(#pa4a4e47edb)">
     <use xlink:href="#C0_0_7d85a95539" x="384.918423" y="278.661199" style="fill: #33991a"/>
    </g>
    <g clip-path="url(#pa4a4e47edb)">
     <use xlink:href="#C0_0_7d85a95539" x="388.641758" y="291.411991" style="fill: #33991a"/>
    </g>
    <g clip-path="url(#pa4a4e47edb)">
     <use xlink:href="#C0_0_7d85a95539" x="392.365094" y="299.495197" style="fill: #33991a"/>
    </g>
    <g clip-path="url(#pa4a4e47edb)">
     <use xlink:href="#C0_0_7d85a95539" x="396.088429" y="301.908975" style="fill: #33991a"/>
    </g>
    <g clip-path="url(#pa4a4e47edb)">
     <use xlink:href="#C0_0_7d85a95539" x="399.811765" y="297.849171" style="fill: #33991a"/>
    </g>
    <g clip-path="url(#pa4a4e47edb)">
     <use xlink:href="#C0_0_7d85a95539" x="403.5351" y="286.805412" style="fill: #33991a"/>
    </g>
    <g clip-path="url(#pa4a4e47edb)">
     <use xlink:href="#C0_0_7d85a95539" x="407.258436" y="268.654643" style="fill: #33991a"/>
    </g>
    <g clip-path="url(#pa4a4e47edb)">
     <use xlink:href="#C0_0_7d85a95539" x="410.981771" y="243.743029" style="fill: #33991a"/>
    </g>
    <g clip-path="url(#pa4a4e47edb)">
     <use xlink:href="#C0_0_7d85a95539" x="414.705107" y="212.945776" style="fill: #33991a"/>
    </g>
    <g clip-path="url(#pa4a4e47edb)">
     <use xlink:href="#C0_0_7d85a95539" x="418.428442" y="177.69387" style="fill: #33991a"/>
    </g>
    <g clip-path="url(#pa4a4e47edb)">
     <use xlink:href="#C0_0_7d85a95539" x="422.151778" y="139.957189" style="fill: #33991a"/>
    </g>
    <g clip-path="url(#pa4a4e47edb)">
     <use xlink:href="#C0_0_7d85a95539" x="425.875113" y="102.17519" style="fill: #33991a"/>
    </g>
    <g clip-path="url(#pa4a4e47edb)">
     <use xlink:href="#C0_0_7d85a95539" x="429.598449" y="67.129752" style="fill: #33991a"/>
    </g>
    <g clip-path="url(#pa4a4e47edb)">
     <use xlink:href="#C0_0_7d85a95539" x="433.321784" y="37.759586" style="fill: #33991a"/>
    </g>
    <g clip-path="url(#pa4a4e47edb)">
     <use xlink:href="#C0_0_7d85a95539" x="437.04512" y="16.922039" style="fill: #33991a"/>
    </g>
    <g clip-path="url(#pa4a4e47edb)">
     <use xlink:href="#C0_0_7d85a95539" x="440.768455" y="7.115569" style="fill: #33991a"/>
    </g>
    <g clip-path="url(#pa4a4e47edb)">
     <use xlink:href="#C0_0_7d85a95539" x="444.491791" y="10.184074" style="fill: #33991a"/>
    </g>
    <g clip-path="url(#pa4a4e47edb)">
     <use xlink:href="#C0_0_7d85a95539" x="448.215126" y="27.031786" style="fill: #33991a"/>
    </g>
    <g clip-path="url(#pa4a4e47edb)">
     <use xlink:href="#C0_0_7d85a95539" x="451.938462" y="57.383239" style="fill: #33991a"/>
    </g>
   </g>
   <g id="matplotlib.axis_1">
    <g id="xtick_1">
     <g id="line2d_1">
      <defs>
       <path id="mccb0c15a34" d="M 0 0 
L 0 3.5 
" style="stroke: #000000; stroke-width: 0.8"/>
      </defs>
      <g>
       <use xlink:href="#mccb0c15a34" x="8.861538" y="172.785534" style="stroke: #000000; stroke-width: 0.8"/>
      </g>
     </g>
     <g id="text_1">
      <!-- −3 -->
      <g transform="translate(1.490445 187.383971) scale(0.1 -0.1)">
       <defs>
        <path id="DejaVuSans-2212" d="M 678 2272 
L 4684 2272 
L 4684 1741 
L 678 1741 
L 678 2272 
z
" transform="scale(0.015625)"/>
        <path id="DejaVuSans-33" d="M 2597 2516 
Q 3050 2419 3304 2112 
Q 3559 1806 3559 1356 
Q 3559 666 3084 287 
Q 2609 -91 1734 -91 
Q 1441 -91 1130 -33 
Q 819 25 488 141 
L 488 750 
Q 750 597 1062 519 
Q 1375 441 1716 441 
Q 2309 441 2620 675 
Q 2931 909 2931 1356 
Q 2931 1769 2642 2001 
Q 2353 2234 1838 2234 
L 1294 2234 
L 1294 2753 
L 1863 2753 
Q 2328 2753 2575 2939 
Q 2822 3125 2822 3475 
Q 2822 3834 2567 4026 
Q 2313 4219 1838 4219 
Q 1578 4219 1281 4162 
Q 984 4106 628 3988 
L 628 4550 
Q 988 4650 1302 4700 
Q 1616 4750 1894 4750 
Q 2613 4750 3031 4423 
Q 3450 4097 3450 3541 
Q 3450 3153 3228 2886 
Q 3006 2619 2597 2516 
z
" transform="scale(0.015625)"/>
       </defs>
       <use xlink:href="#DejaVuSans-2212"/>
       <use xlink:href="#DejaVuSans-33" transform="translate(83.789062 0)"/>
      </g>
     </g>
    </g>
    <g id="xtick_2">
     <g id="line2d_2">
      <g>
       <use xlink:href="#mccb0c15a34" x="83.328248" y="172.785534" style="stroke: #000000; stroke-width: 0.8"/>
      </g>
     </g>
     <g id="text_2">
      <!-- −2 -->
      <g transform="translate(75.957154 187.383971) scale(0.1 -0.1)">
       <defs>
        <path id="DejaVuSans-32" d="M 1228 531 
L 3431 531 
L 3431 0 
L 469 0 
L 469 531 
Q 828 903 1448 1529 
Q 2069 2156 2228 2338 
Q 2531 2678 2651 2914 
Q 2772 3150 2772 3378 
Q 2772 3750 2511 3984 
Q 2250 4219 1831 4219 
Q 1534 4219 1204 4116 
Q 875 4013 500 3803 
L 500 4441 
Q 881 4594 1212 4672 
Q 1544 4750 1819 4750 
Q 2544 4750 2975 4387 
Q 3406 4025 3406 3419 
Q 3406 3131 3298 2873 
Q 3191 2616 2906 2266 
Q 2828 2175 2409 1742 
Q 1991 1309 1228 531 
z
" transform="scale(0.015625)"/>
       </defs>
       <use xlink:href="#DejaVuSans-2212"/>
       <use xlink:href="#DejaVuSans-32" transform="translate(83.789062 0)"/>
      </g>
     </g>
    </g>
    <g id="xtick_3">
     <g id="line2d_3">
      <g>
       <use xlink:href="#mccb0c15a34" x="157.794958" y="172.785534" style="stroke: #000000; stroke-width: 0.8"/>
      </g>
     </g>
     <g id="text_3">
      <!-- −1 -->
      <g transform="translate(150.423864 187.383971) scale(0.1 -0.1)">
       <defs>
        <path id="DejaVuSans-31" d="M 794 531 
L 1825 531 
L 1825 4091 
L 703 3866 
L 703 4441 
L 1819 4666 
L 2450 4666 
L 2450 531 
L 3481 531 
L 3481 0 
L 794 0 
L 794 531 
z
" transform="scale(0.015625)"/>
       </defs>
       <use xlink:href="#DejaVuSans-2212"/>
       <use xlink:href="#DejaVuSans-31" transform="translate(83.789062 0)"/>
      </g>
     </g>
    </g>
    <g id="xtick_4">
     <g id="line2d_4">
      <g>
       <use xlink:href="#mccb0c15a34" x="232.261668" y="172.785534" style="stroke: #000000; stroke-width: 0.8"/>
      </g>
     </g>
    </g>
    <g id="xtick_5">
     <g id="line2d_5">
      <g>
       <use xlink:href="#mccb0c15a34" x="306.728378" y="172.785534" style="stroke: #000000; stroke-width: 0.8"/>
      </g>
     </g>
     <g id="text_4">
      <!-- 1 -->
      <g transform="translate(303.547128 187.383971) scale(0.1 -0.1)">
       <use xlink:href="#DejaVuSans-31"/>
      </g>
     </g>
    </g>
    <g id="xtick_6">
     <g id="line2d_6">
      <g>
       <use xlink:href="#mccb0c15a34" x="381.195087" y="172.785534" style="stroke: #000000; stroke-width: 0.8"/>
      </g>
     </g>
     <g id="text_5">
      <!-- 2 -->
      <g transform="translate(378.013837 187.383971) scale(0.1 -0.1)">
       <use xlink:href="#DejaVuSans-32"/>
      </g>
     </g>
    </g>
    <g id="xtick_7">
     <g id="line2d_7">
      <g>
       <use xlink:href="#mccb0c15a34" x="455.661797" y="172.785534" style="stroke: #000000; stroke-width: 0.8"/>
      </g>
     </g>
     <g id="text_6">
      <!-- 3 -->
      <g transform="translate(452.480547 187.383971) scale(0.1 -0.1)">
       <use xlink:href="#DejaVuSans-33"/>
      </g>
     </g>
    </g>
    <g id="xtick_8">
     <g id="line2d_8">
      <defs>
       <path id="mcf7631947b" d="M 0 0 
L 0 2 
" style="stroke: #000000; stroke-width: 0.6"/>
      </defs>
      <g>
       <use xlink:href="#mcf7631947b" x="23.75488" y="172.785534" style="stroke: #000000; stroke-width: 0.6"/>
      </g>
     </g>
    </g>
    <g id="xtick_9">
     <g id="line2d_9">
      <g>
       <use xlink:href="#mcf7631947b" x="38.648222" y="172.785534" style="stroke: #000000; stroke-width: 0.6"/>
      </g>
     </g>
    </g>
    <g id="xtick_10">
     <g id="line2d_10">
      <g>
       <use xlink:href="#mcf7631947b" x="53.541564" y="172.785534" style="stroke: #000000; stroke-width: 0.6"/>
      </g>
     </g>
    </g>
    <g id="xtick_11">
     <g id="line2d_11">
      <g>
       <use xlink:href="#mcf7631947b" x="68.434906" y="172.785534" style="stroke: #000000; stroke-width: 0.6"/>
      </g>
     </g>
    </g>
    <g id="xtick_12">
     <g id="line2d_12">
      <g>
       <use xlink:href="#mcf7631947b" x="98.22159" y="172.785534" style="stroke: #000000; stroke-width: 0.6"/>
      </g>
     </g>
    </g>
    <g id="xtick_13">
     <g id="line2d_13">
      <g>
       <use xlink:href="#mcf7631947b" x="113.114932" y="172.785534" style="stroke: #000000; stroke-width: 0.6"/>
      </g>
     </g>
    </g>
    <g id="xtick_14">
     <g id="line2d_14">
      <g>
       <use xlink:href="#mcf7631947b" x="128.008274" y="172.785534" style="stroke: #000000; stroke-width: 0.6"/>
      </g>
     </g>
    </g>
    <g id="xtick_15">
     <g id="line2d_15">
      <g>
       <use xlink:href="#mcf7631947b" x="142.901616" y="172.785534" style="stroke: #000000; stroke-width: 0.6"/>
      </g>
     </g>
    </g>
    <g id="xtick_16">
     <g id="line2d_16">
      <g>
       <use xlink:href="#mcf7631947b" x="172.6883" y="172.785534" style="stroke: #000000; stroke-width: 0.6"/>
      </g>
     </g>
    </g>
    <g id="xtick_17">
     <g id="line2d_17">
      <g>
       <use xlink:href="#mcf7631947b" x="187.581642" y="172.785534" style="stroke: #000000; stroke-width: 0.6"/>
      </g>
     </g>
    </g>
    <g id="xtick_18">
     <g id="line2d_18">
      <g>
       <use xlink:href="#mcf7631947b" x="202.474984" y="172.785534" style="stroke: #000000; stroke-width: 0.6"/>
      </g>
     </g>
    </g>
    <g id="xtick_19">
     <g id="line2d_19">
      <g>
       <use xlink:href="#mcf7631947b" x="217.368326" y="172.785534" style="stroke: #000000; stroke-width: 0.6"/>
      </g>
     </g>
    </g>
    <g id="xtick_20">
     <g id="line2d_20">
      <g>
       <use xlink:href="#mcf7631947b" x="247.15501" y="172.785534" style="stroke: #000000; stroke-width: 0.6"/>
      </g>
     </g>
    </g>
    <g id="xtick_21">
     <g id="line2d_21">
      <g>
       <use xlink:href="#mcf7631947b" x="262.048352" y="172.785534" style="stroke: #000000; stroke-width: 0.6"/>
      </g>
     </g>
    </g>
    <g id="xtick_22">
     <g id="line2d_22">
      <g>
       <use xlink:href="#mcf7631947b" x="276.941694" y="172.785534" style="stroke: #000000; stroke-width: 0.6"/>
      </g>
     </g>
    </g>
    <g id="xtick_23">
     <g id="line2d_23">
      <g>
       <use xlink:href="#mcf7631947b" x="291.835036" y="172.785534" style="stroke: #000000; stroke-width: 0.6"/>
      </g>
     </g>
    </g>
    <g id="xtick_24">
     <g id="line2d_24">
      <g>
       <use xlink:href="#mcf7631947b" x="321.621719" y="172.785534" style="stroke: #000000; stroke-width: 0.6"/>
      </g>
     </g>
    </g>
    <g id="xtick_25">
     <g id="line2d_25">
      <g>
       <use xlink:href="#mcf7631947b" x="336.515061" y="172.785534" style="stroke: #000000; stroke-width: 0.6"/>
      </g>
     </g>
    </g>
    <g id="xtick_26">
     <g id="line2d_26">
      <g>
       <use xlink:href="#mcf7631947b" x="351.408403" y="172.785534" style="stroke: #000000; stroke-width: 0.6"/>
      </g>
     </g>
    </g>
    <g id="xtick_27">
     <g id="line2d_27">
      <g>
       <use xlink:href="#mcf7631947b" x="366.301745" y="172.785534" style="stroke: #000000; stroke-width: 0.6"/>
      </g>
     </g>
    </g>
    <g id="xtick_28">
     <g id="line2d_28">
      <g>
       <use xlink:href="#mcf7631947b" x="396.088429" y="172.785534" style="stroke: #000000; stroke-width: 0.6"/>
      </g>
     </g>
    </g>
    <g id="xtick_29">
     <g id="line2d_29">
      <g>
       <use xlink:href="#mcf7631947b" x="410.981771" y="172.785534" style="stroke: #000000; stroke-width: 0.6"/>
      </g>
     </g>
    </g>
    <g id="xtick_30">
     <g id="line2d_30">
      <g>
       <use xlink:href="#mcf7631947b" x="425.875113" y="172.785534" style="stroke: #000000; stroke-width: 0.6"/>
      </g>
     </g>
    </g>
    <g id="xtick_31">
     <g id="line2d_31">
      <g>
       <use xlink:href="#mcf7631947b" x="440.768455" y="172.785534" style="stroke: #000000; stroke-width: 0.6"/>
      </g>
     </g>
    </g>
   </g>
   <g id="matplotlib.axis_2">
    <g id="ytick_1">
     <g id="line2d_32">
      <defs>
       <path id="ma70e339e60" d="M 0 0 
L -3.5 0 
" style="stroke: #000000; stroke-width: 0.8"/>
      </defs>
      <g>
       <use xlink:href="#ma70e339e60" x="232.261668" y="291.132791" style="stroke: #000000; stroke-width: 0.8"/>
      </g>
     </g>
     <g id="text_7">
      <!-- −2 -->
      <g transform="translate(210.51948 294.932009) scale(0.1 -0.1)">
       <use xlink:href="#DejaVuSans-2212"/>
       <use xlink:href="#DejaVuSans-32" transform="translate(83.789062 0)"/>
      </g>
     </g>
    </g>
    <g id="ytick_2">
     <g id="line2d_33">
      <g>
       <use xlink:href="#ma70e339e60" x="232.261668" y="231.959162" style="stroke: #000000; stroke-width: 0.8"/>
      </g>
     </g>
     <g id="text_8">
      <!-- −1 -->
      <g transform="translate(210.51948 235.758381) scale(0.1 -0.1)">
       <use xlink:href="#DejaVuSans-2212"/>
       <use xlink:href="#DejaVuSans-31" transform="translate(83.789062 0)"/>
      </g>
     </g>
    </g>
    <g id="ytick_3">
     <g id="line2d_34">
      <g>
       <use xlink:href="#ma70e339e60" x="232.261668" y="172.785534" style="stroke: #000000; stroke-width: 0.8"/>
      </g>
     </g>
    </g>
    <g id="ytick_4">
     <g id="line2d_35">
      <g>
       <use xlink:href="#ma70e339e60" x="232.261668" y="113.611905" style="stroke: #000000; stroke-width: 0.8"/>
      </g>
     </g>
     <g id="text_9">
      <!-- 1 -->
      <g transform="translate(218.899168 117.411124) scale(0.1 -0.1)">
       <use xlink:href="#DejaVuSans-31"/>
      </g>
     </g>
    </g>
    <g id="ytick_5">
     <g id="line2d_36">
      <g>
       <use xlink:href="#ma70e339e60" x="232.261668" y="54.438277" style="stroke: #000000; stroke-width: 0.8"/>
      </g>
     </g>
     <g id="text_10">
      <!-- 2 -->
      <g transform="translate(218.899168 58.237496) scale(0.1 -0.1)">
       <use xlink:href="#DejaVuSans-32"/>
      </g>
     </g>
    </g>
    <g id="ytick_6">
     <g id="line2d_37">
      <defs>
       <path id="m89edda9d41" d="M 0 0 
L -2 0 
" style="stroke: #000000; stroke-width: 0.6"/>
      </defs>
      <g>
       <use xlink:href="#m89edda9d41" x="232.261668" y="338.471693" style="stroke: #000000; stroke-width: 0.6"/>
      </g>
     </g>
    </g>
    <g id="ytick_7">
     <g id="line2d_38">
      <g>
       <use xlink:href="#m89edda9d41" x="232.261668" y="326.636968" style="stroke: #000000; stroke-width: 0.6"/>
      </g>
     </g>
    </g>
    <g id="ytick_8">
     <g id="line2d_39">
      <g>
       <use xlink:href="#m89edda9d41" x="232.261668" y="314.802242" style="stroke: #000000; stroke-width: 0.6"/>
      </g>
     </g>
    </g>
    <g id="ytick_9">
     <g id="line2d_40">
      <g>
       <use xlink:href="#m89edda9d41" x="232.261668" y="302.967516" style="stroke: #000000; stroke-width: 0.6"/>
      </g>
     </g>
    </g>
    <g id="ytick_10">
     <g id="line2d_41">
      <g>
       <use xlink:href="#m89edda9d41" x="232.261668" y="279.298065" style="stroke: #000000; stroke-width: 0.6"/>
      </g>
     </g>
    </g>
    <g id="ytick_11">
     <g id="line2d_42">
      <g>
       <use xlink:href="#m89edda9d41" x="232.261668" y="267.463339" style="stroke: #000000; stroke-width: 0.6"/>
      </g>
     </g>
    </g>
    <g id="ytick_12">
     <g id="line2d_43">
      <g>
       <use xlink:href="#m89edda9d41" x="232.261668" y="255.628614" style="stroke: #000000; stroke-width: 0.6"/>
      </g>
     </g>
    </g>
    <g id="ytick_13">
     <g id="line2d_44">
      <g>
       <use xlink:href="#m89edda9d41" x="232.261668" y="243.793888" style="stroke: #000000; stroke-width: 0.6"/>
      </g>
     </g>
    </g>
    <g id="ytick_14">
     <g id="line2d_45">
      <g>
       <use xlink:href="#m89edda9d41" x="232.261668" y="220.124437" style="stroke: #000000; stroke-width: 0.6"/>
      </g>
     </g>
    </g>
    <g id="ytick_15">
     <g id="line2d_46">
      <g>
       <use xlink:href="#m89edda9d41" x="232.261668" y="208.289711" style="stroke: #000000; stroke-width: 0.6"/>
      </g>
     </g>
    </g>
    <g id="ytick_16">
     <g id="line2d_47">
      <g>
       <use xlink:href="#m89edda9d41" x="232.261668" y="196.454985" style="stroke: #000000; stroke-width: 0.6"/>
      </g>
     </g>
    </g>
    <g id="ytick_17">
     <g id="line2d_48">
      <g>
       <use xlink:href="#m89edda9d41" x="232.261668" y="184.62026" style="stroke: #000000; stroke-width: 0.6"/>
      </g>
     </g>
    </g>
    <g id="ytick_18">
     <g id="line2d_49">
      <g>
       <use xlink:href="#m89edda9d41" x="232.261668" y="160.950808" style="stroke: #000000; stroke-width: 0.6"/>
      </g>
     </g>
    </g>
    <g id="ytick_19">
     <g id="line2d_50">
      <g>
       <use xlink:href="#m89edda9d41" x="232.261668" y="149.116082" style="stroke: #000000; stroke-width: 0.6"/>
      </g>
     </g>
    </g>
    <g id="ytick_20">
     <g id="line2d_51">
      <g>
       <use xlink:href="#m89edda9d41" x="232.261668" y="137.281357" style="stroke: #000000; stroke-width: 0.6"/>
      </g>
     </g>
    </g>
    <g id="ytick_21">
     <g id="line2d_52">
      <g>
       <use xlink:href="#m89edda9d41" x="232.261668" y="125.446631" style="stroke: #000000; stroke-width: 0.6"/>
      </g>
     </g>
    </g>
    <g id="ytick_22">
     <g id="line2d_53">
      <g>
       <use xlink:href="#m89edda9d41" x="232.261668" y="101.77718" style="stroke: #000000; stroke-width: 0.6"/>
      </g>
     </g>
    </g>
    <g id="ytick_23">
     <g id="line2d_54">
      <g>
       <use xlink:href="#m89edda9d41" x="232.261668" y="89.942454" style="stroke: #000000; stroke-width: 0.6"/>
      </g>
     </g>
    </g>
    <g id="ytick_24">
     <g id="line2d_55">
      <g>
       <use xlink:href="#m89edda9d41" x="232.261668" y="78.107728" style="stroke: #000000; stroke-width: 0.6"/>
      </g>
     </g>
    </g>
    <g id="ytick_25">
     <g id="line2d_56">
      <g>
       <use xlink:href="#m89edda9d41" x="232.261668" y="66.273003" style="stroke: #000000; stroke-width: 0.6"/>
      </g>
     </g>
    </g>
    <g id="ytick_26">
     <g id="line2d_57">
      <g>
       <use xlink:href="#m89edda9d41" x="232.261668" y="42.603551" style="stroke: #000000; stroke-width: 0.6"/>
      </g>
     </g>
    </g>
    <g id="ytick_27">
     <g id="line2d_58">
      <g>
       <use xlink:href="#m89edda9d41" x="232.261668" y="30.768826" style="stroke: #000000; stroke-width: 0.6"/>
      </g>
     </g>
    </g>
    <g id="ytick_28">
     <g id="line2d_59">
      <g>
       <use xlink:href="#m89edda9d41" x="232.261668" y="18.9341" style="stroke: #000000; stroke-width: 0.6"/>
      </g>
     </g>
    </g>
    <g id="ytick_29">
     <g id="line2d_60">
      <g>
       <use xlink:href="#m89edda9d41" x="232.261668" y="7.099374" style="stroke: #000000; stroke-width: 0.6"/>
      </g>
     </g>
    </g>
   </g>
   <g id="line2d_61">
    <path d="M 9.313285 251.360663 
L 11.877182 280.835301 
L 13.248718 294.623465 
L 14.726916 307.333012 
L 16.205113 317.881767 
L 17.332779 324.525015 
L 18.573459 330.415767 
L 19.665466 334.340404 
L 20.484471 336.493075 
L 21.303476 337.968159 
L 21.849479 338.58105 
L 22.395483 338.901839 
L 22.941486 338.934209 
L 23.39738 338.742953 
L 23.878202 338.32852 
L 24.599436 337.304103 
L 25.32067 335.808028 
L 26.041904 333.853617 
L 27.00355 330.557794 
L 28.185366 325.471197 
L 29.367182 319.310281 
L 30.949347 309.522927 
L 32.576898 297.808697 
L 34.475708 282.3437 
L 36.833931 260.995587 
L 39.187314 238.026772 
L 48.999601 140.055143 
L 51.524652 117.859964 
L 53.771443 100.107885 
L 55.555358 87.556451 
L 57.165846 77.494325 
L 58.81762 68.495174 
L 60.202042 62.011076 
L 61.513276 56.776287 
L 62.629671 53.019456 
L 63.820243 49.718772 
L 64.713172 47.718674 
L 65.710791 45.962215 
L 66.708411 44.701656 
L 67.706031 43.926873 
L 68.70365 43.627727 
L 69.45324 43.708845 
L 70.27345 44.089843 
L 71.09366 44.767708 
L 71.91387 45.733669 
L 73.097455 47.617129 
L 74.187578 49.839431 
L 75.514341 53.137007 
L 76.841103 57.041909 
L 78.501748 62.710018 
L 80.162393 69.15304 
L 81.937389 76.78304 
L 84.41515 88.488408 
L 86.88141 101.062724 
L 89.854317 116.996439 
L 98.195748 162.186358 
L 101.982293 181.146212 
L 104.508817 192.795454 
L 106.752177 202.341553 
L 109.087559 211.405491 
L 111.516478 219.829251 
L 113.845843 226.914382 
L 115.744708 231.960194 
L 117.615419 236.29179 
L 119.240882 239.54593 
L 121.116748 242.7249 
L 122.678046 244.911756 
L 124.550065 247.003871 
L 126.121302 248.330886 
L 127.391756 249.130173 
L 128.821654 249.749628 
L 129.616325 249.970639 
L 130.639349 250.130696 
L 131.662372 250.155778 
L 132.655173 250.05634 
L 134.494222 249.568137 
L 136.186719 248.794517 
L 138.098249 247.58111 
L 140.476726 245.623805 
L 142.62339 243.487143 
L 144.239584 241.679483 
L 147.857439 237.129804 
L 150.94516 232.831887 
L 154.293402 227.895605 
L 167.007877 208.802718 
L 171.921829 202.053338 
L 175.350598 197.72302 
L 179.236953 193.24561 
L 182.641158 189.72349 
L 185.739579 186.850466 
L 189.324838 183.920851 
L 192.395933 181.740827 
L 195.603315 179.775926 
L 198.634419 178.196835 
L 201.010095 177.13675 
L 203.47949 176.189589 
L 207.811154 174.876105 
L 209.826681 174.401464 
L 213.200797 173.777186 
L 217.829481 173.216195 
L 223.813301 172.871941 
L 230.615457 172.786173 
L 240.019957 172.718618 
L 246.530053 172.369366 
L 251.223483 171.809247 
L 253.992295 171.316832 
L 257.741066 170.420612 
L 260.670626 169.511569 
L 263.517169 168.432688 
L 266.948106 166.852062 
L 270.010878 165.161669 
L 273.078466 163.18699 
L 276.336693 160.765655 
L 278.728075 158.769326 
L 281.308679 156.403364 
L 284.923092 152.719422 
L 288.292801 148.903233 
L 292.036592 144.2543 
L 295.834541 139.141752 
L 300.426035 132.52758 
L 307.487297 121.834084 
L 313.24575 113.218747 
L 317.538263 107.289033 
L 320.718117 103.390417 
L 323.11695 100.832778 
L 325.728899 98.514277 
L 327.348846 97.360812 
L 328.968793 96.452986 
L 331.037231 95.687801 
L 332.723471 95.421908 
L 334.303438 95.489357 
L 335.457933 95.744479 
L 336.748464 96.246339 
L 338.07385 97.010712 
L 339.607348 98.223884 
L 341.114405 99.774866 
L 342.386907 101.371605 
L 343.695133 103.29552 
L 345.039083 105.578107 
L 346.440443 108.295291 
L 347.899213 111.495758 
L 349.877461 116.450893 
L 351.818974 122.005677 
L 353.896926 128.707282 
L 356.246145 137.206153 
L 358.862643 147.774866 
L 361.57651 159.872366 
L 364.359628 173.331628 
L 368.011887 192.268916 
L 380.730231 260.121435 
L 383.262586 271.779654 
L 385.262143 280.00469 
L 387.091082 286.606529 
L 388.636285 291.39641 
L 390.208837 295.443732 
L 391.180712 297.493921 
L 392.573147 299.788104 
L 393.386845 300.759972 
L 394.200544 301.44875 
L 395.014242 301.845876 
L 395.891018 301.937514 
L 396.502897 301.789319 
L 397.114777 301.463397 
L 398.032596 300.636153 
L 398.764379 299.681025 
L 399.616065 298.233468 
L 400.467751 296.418895 
L 401.745279 293.002637 
L 403.103766 288.450185 
L 404.23142 283.947109 
L 405.734958 276.928451 
L 407.195854 269.017258 
L 408.601988 260.409763 
L 410.435531 247.792839 
L 412.608775 230.936502 
L 415.070743 209.653168 
L 417.753962 184.327802 
L 420.594968 155.889903 
L 427.181781 89.4152 
L 429.906607 64.443159 
L 431.905727 48.073815 
L 433.677049 35.360929 
L 435.252717 25.722552 
L 436.562871 19.048851 
L 437.545486 14.911726 
L 438.65692 11.188818 
L 439.407062 9.278193 
L 440.166389 7.859579 
L 440.925716 6.977961 
L 441.30538 6.743208 
L 441.685044 6.646154 
L 442.380893 6.825177 
L 443.013265 7.387692 
L 443.774593 8.568872 
L 444.442307 10.056999 
L 445.332592 12.70458 
L 446.222877 16.151548 
L 447.173818 20.776074 
L 448.306725 27.644332 
L 449.645109 37.606834 
L 450.133814 41.622971 
L 450.133814 41.622971 
" clip-path="url(#pa4a4e47edb)" style="fill: none; stroke: #0000ff; stroke-linecap: square"/>
   </g>
   <g id="patch_3">
    <path d="M 232.261668 345.6 
L 232.261668 0 
" style="fill: none; stroke: #000000; stroke-width: 0.8; stroke-linejoin: miter; stroke-linecap: square"/>
   </g>
   <g id="patch_4">
    <path d="M 0 172.785534 
L 460.8 172.785534 
" style="fill: none; stroke: #000000; stroke-width: 0.8; stroke-linejoin: miter; stroke-linecap: square"/>
   </g>
  </g>
 </g>
 <defs>
  <clipPath id="pa4a4e47edb">
   <rect x="0" y="0" width="460.8" height="345.6"/>
  </clipPath>
 </defs>
</svg>
