<?xml version="1.0" encoding="utf-8" standalone="no"?>
<!DOCTYPE svg PUBLIC "-//W3C//DTD SVG 1.1//EN"
  "http://www.w3.org/Graphics/SVG/1.1/DTD/svg11.dtd">
<svg xmlns:xlink="http://www.w3.org/1999/xlink" width="460.8pt" height="345.6pt" viewBox="0 0 460.8 345.6" xmlns="http://www.w3.org/2000/svg" version="1.1">
 <metadata>
  <rdf:RDF xmlns:dc="http://purl.org/dc/elements/1.1/" xmlns:cc="http://creativecommons.org/ns#" xmlns:rdf="http://www.w3.org/1999/02/22-rdf-syntax-ns#">
   <cc:Work>
    <dc:type rdf:resource="http://purl.org/dc/dcmitype/StillImage"/>
    <dc:date>2025-08-03T20:17:37.569749</dc:date>
    <dc:format>image/svg+xml</dc:format>
    <dc:creator>
     <cc:Agent>
      <dc:title>Matplotlib v3.10.3, https://matplotlib.org/</dc:title>
     </cc:Agent>
    </dc:creator>
   </cc:Work>
  </rdf:RDF>
 </metadata>
 <defs>
  <style type="text/css">*{stroke-linejoin: round; stroke-linecap: butt}</style>
 </defs>
 <g id="figure_1">
  <g id="patch_1">
   <path d="M 0 345.6 
L 460.8 345.6 
L 460.8 0 
L 0 0 
z
" style="fill: #ffffff"/>
  </g>
  <g id="axes_1">
   <g id="patch_2">
    <path d="M 57.594631 345.6 
L 403.205369 345.6 
L 403.205369 0 
L 57.594631 0 
z
" style="fill: #ffffff"/>
   </g>
   <g id="matplotlib.axis_1">
    <g id="xtick_1">
     <g id="line2d_1">
      <defs>
       <path id="ma3e60f5748" d="M 0 0 
L 0 3.5 
" style="stroke: #000000; stroke-width: 0.8"/>
      </defs>
      <g>
       <use xlink:href="#ma3e60f5748" x="64.238157" y="172.79177" style="stroke: #000000; stroke-width: 0.8"/>
      </g>
     </g>
     <g id="text_1">
      <!-- −1.0 -->
      <g transform="translate(52.096751 187.390207) scale(0.1 -0.1)">
       <defs>
        <path id="DejaVuSans-2212" d="M 678 2272 
L 4684 2272 
L 4684 1741 
L 678 1741 
L 678 2272 
z
" transform="scale(0.015625)"/>
        <path id="DejaVuSans-31" d="M 794 531 
L 1825 531 
L 1825 4091 
L 703 3866 
L 703 4441 
L 1819 4666 
L 2450 4666 
L 2450 531 
L 3481 531 
L 3481 0 
L 794 0 
L 794 531 
z
" transform="scale(0.015625)"/>
        <path id="DejaVuSans-2e" d="M 684 794 
L 1344 794 
L 1344 0 
L 684 0 
L 684 794 
z
" transform="scale(0.015625)"/>
        <path id="DejaVuSans-30" d="M 2034 4250 
Q 1547 4250 1301 3770 
Q 1056 3291 1056 2328 
Q 1056 1369 1301 889 
Q 1547 409 2034 409 
Q 2525 409 2770 889 
Q 3016 1369 3016 2328 
Q 3016 3291 2770 3770 
Q 2525 4250 2034 4250 
z
M 2034 4750 
Q 2819 4750 3233 4129 
Q 3647 3509 3647 2328 
Q 3647 1150 3233 529 
Q 2819 -91 2034 -91 
Q 1250 -91 836 529 
Q 422 1150 422 2328 
Q 422 3509 836 4129 
Q 1250 4750 2034 4750 
z
" transform="scale(0.015625)"/>
       </defs>
       <use xlink:href="#DejaVuSans-2212"/>
       <use xlink:href="#DejaVuSans-31" transform="translate(83.789062 0)"/>
       <use xlink:href="#DejaVuSans-2e" transform="translate(147.412109 0)"/>
       <use xlink:href="#DejaVuSans-30" transform="translate(179.199219 0)"/>
      </g>
     </g>
    </g>
    <g id="xtick_2">
     <g id="line2d_2">
      <g>
       <use xlink:href="#ma3e60f5748" x="147.31988" y="172.79177" style="stroke: #000000; stroke-width: 0.8"/>
      </g>
     </g>
     <g id="text_2">
      <!-- −0.5 -->
      <g transform="translate(135.178474 187.390207) scale(0.1 -0.1)">
       <defs>
        <path id="DejaVuSans-35" d="M 691 4666 
L 3169 4666 
L 3169 4134 
L 1269 4134 
L 1269 2991 
Q 1406 3038 1543 3061 
Q 1681 3084 1819 3084 
Q 2600 3084 3056 2656 
Q 3513 2228 3513 1497 
Q 3513 744 3044 326 
Q 2575 -91 1722 -91 
Q 1428 -91 1123 -41 
Q 819 9 494 109 
L 494 744 
Q 775 591 1075 516 
Q 1375 441 1709 441 
Q 2250 441 2565 725 
Q 2881 1009 2881 1497 
Q 2881 1984 2565 2268 
Q 2250 2553 1709 2553 
Q 1456 2553 1204 2497 
Q 953 2441 691 2322 
L 691 4666 
z
" transform="scale(0.015625)"/>
       </defs>
       <use xlink:href="#DejaVuSans-2212"/>
       <use xlink:href="#DejaVuSans-30" transform="translate(83.789062 0)"/>
       <use xlink:href="#DejaVuSans-2e" transform="translate(147.412109 0)"/>
       <use xlink:href="#DejaVuSans-35" transform="translate(179.199219 0)"/>
      </g>
     </g>
    </g>
    <g id="xtick_3">
     <g id="line2d_3">
      <g>
       <use xlink:href="#ma3e60f5748" x="230.401604" y="172.79177" style="stroke: #000000; stroke-width: 0.8"/>
      </g>
     </g>
    </g>
    <g id="xtick_4">
     <g id="line2d_4">
      <g>
       <use xlink:href="#ma3e60f5748" x="313.483327" y="172.79177" style="stroke: #000000; stroke-width: 0.8"/>
      </g>
     </g>
     <g id="text_3">
      <!-- 0.5 -->
      <g transform="translate(305.531765 187.390207) scale(0.1 -0.1)">
       <use xlink:href="#DejaVuSans-30"/>
       <use xlink:href="#DejaVuSans-2e" transform="translate(63.623047 0)"/>
       <use xlink:href="#DejaVuSans-35" transform="translate(95.410156 0)"/>
      </g>
     </g>
    </g>
    <g id="xtick_5">
     <g id="line2d_5">
      <g>
       <use xlink:href="#ma3e60f5748" x="396.565051" y="172.79177" style="stroke: #000000; stroke-width: 0.8"/>
      </g>
     </g>
     <g id="text_4">
      <!-- 1.0 -->
      <g transform="translate(388.613488 187.390207) scale(0.1 -0.1)">
       <use xlink:href="#DejaVuSans-31"/>
       <use xlink:href="#DejaVuSans-2e" transform="translate(63.623047 0)"/>
       <use xlink:href="#DejaVuSans-30" transform="translate(95.410156 0)"/>
      </g>
     </g>
    </g>
    <g id="xtick_6">
     <g id="line2d_6">
      <defs>
       <path id="me875a84468" d="M 0 0 
L 0 2 
" style="stroke: #000000; stroke-width: 0.6"/>
      </defs>
      <g>
       <use xlink:href="#me875a84468" x="80.854502" y="172.79177" style="stroke: #000000; stroke-width: 0.6"/>
      </g>
     </g>
    </g>
    <g id="xtick_7">
     <g id="line2d_7">
      <g>
       <use xlink:href="#me875a84468" x="97.470846" y="172.79177" style="stroke: #000000; stroke-width: 0.6"/>
      </g>
     </g>
    </g>
    <g id="xtick_8">
     <g id="line2d_8">
      <g>
       <use xlink:href="#me875a84468" x="114.087191" y="172.79177" style="stroke: #000000; stroke-width: 0.6"/>
      </g>
     </g>
    </g>
    <g id="xtick_9">
     <g id="line2d_9">
      <g>
       <use xlink:href="#me875a84468" x="130.703536" y="172.79177" style="stroke: #000000; stroke-width: 0.6"/>
      </g>
     </g>
    </g>
    <g id="xtick_10">
     <g id="line2d_10">
      <g>
       <use xlink:href="#me875a84468" x="163.936225" y="172.79177" style="stroke: #000000; stroke-width: 0.6"/>
      </g>
     </g>
    </g>
    <g id="xtick_11">
     <g id="line2d_11">
      <g>
       <use xlink:href="#me875a84468" x="180.55257" y="172.79177" style="stroke: #000000; stroke-width: 0.6"/>
      </g>
     </g>
    </g>
    <g id="xtick_12">
     <g id="line2d_12">
      <g>
       <use xlink:href="#me875a84468" x="197.168914" y="172.79177" style="stroke: #000000; stroke-width: 0.6"/>
      </g>
     </g>
    </g>
    <g id="xtick_13">
     <g id="line2d_13">
      <g>
       <use xlink:href="#me875a84468" x="213.785259" y="172.79177" style="stroke: #000000; stroke-width: 0.6"/>
      </g>
     </g>
    </g>
    <g id="xtick_14">
     <g id="line2d_14">
      <g>
       <use xlink:href="#me875a84468" x="247.017948" y="172.79177" style="stroke: #000000; stroke-width: 0.6"/>
      </g>
     </g>
    </g>
    <g id="xtick_15">
     <g id="line2d_15">
      <g>
       <use xlink:href="#me875a84468" x="263.634293" y="172.79177" style="stroke: #000000; stroke-width: 0.6"/>
      </g>
     </g>
    </g>
    <g id="xtick_16">
     <g id="line2d_16">
      <g>
       <use xlink:href="#me875a84468" x="280.250638" y="172.79177" style="stroke: #000000; stroke-width: 0.6"/>
      </g>
     </g>
    </g>
    <g id="xtick_17">
     <g id="line2d_17">
      <g>
       <use xlink:href="#me875a84468" x="296.866982" y="172.79177" style="stroke: #000000; stroke-width: 0.6"/>
      </g>
     </g>
    </g>
    <g id="xtick_18">
     <g id="line2d_18">
      <g>
       <use xlink:href="#me875a84468" x="330.099672" y="172.79177" style="stroke: #000000; stroke-width: 0.6"/>
      </g>
     </g>
    </g>
    <g id="xtick_19">
     <g id="line2d_19">
      <g>
       <use xlink:href="#me875a84468" x="346.716016" y="172.79177" style="stroke: #000000; stroke-width: 0.6"/>
      </g>
     </g>
    </g>
    <g id="xtick_20">
     <g id="line2d_20">
      <g>
       <use xlink:href="#me875a84468" x="363.332361" y="172.79177" style="stroke: #000000; stroke-width: 0.6"/>
      </g>
     </g>
    </g>
    <g id="xtick_21">
     <g id="line2d_21">
      <g>
       <use xlink:href="#me875a84468" x="379.948706" y="172.79177" style="stroke: #000000; stroke-width: 0.6"/>
      </g>
     </g>
    </g>
   </g>
   <g id="matplotlib.axis_2">
    <g id="ytick_1">
     <g id="line2d_22">
      <defs>
       <path id="m5b25613167" d="M 0 0 
L -3.5 0 
" style="stroke: #000000; stroke-width: 0.8"/>
      </defs>
      <g>
       <use xlink:href="#m5b25613167" x="230.401604" y="338.955217" style="stroke: #000000; stroke-width: 0.8"/>
      </g>
     </g>
     <g id="text_5">
      <!-- −1.0 -->
      <g transform="translate(199.118791 342.754435) scale(0.1 -0.1)">
       <use xlink:href="#DejaVuSans-2212"/>
       <use xlink:href="#DejaVuSans-31" transform="translate(83.789062 0)"/>
       <use xlink:href="#DejaVuSans-2e" transform="translate(147.412109 0)"/>
       <use xlink:href="#DejaVuSans-30" transform="translate(179.199219 0)"/>
      </g>
     </g>
    </g>
    <g id="ytick_2">
     <g id="line2d_23">
      <g>
       <use xlink:href="#m5b25613167" x="230.401604" y="255.873493" style="stroke: #000000; stroke-width: 0.8"/>
      </g>
     </g>
     <g id="text_6">
      <!-- −0.5 -->
      <g transform="translate(199.118791 259.672712) scale(0.1 -0.1)">
       <use xlink:href="#DejaVuSans-2212"/>
       <use xlink:href="#DejaVuSans-30" transform="translate(83.789062 0)"/>
       <use xlink:href="#DejaVuSans-2e" transform="translate(147.412109 0)"/>
       <use xlink:href="#DejaVuSans-35" transform="translate(179.199219 0)"/>
      </g>
     </g>
    </g>
    <g id="ytick_3">
     <g id="line2d_24">
      <g>
       <use xlink:href="#m5b25613167" x="230.401604" y="172.79177" style="stroke: #000000; stroke-width: 0.8"/>
      </g>
     </g>
    </g>
    <g id="ytick_4">
     <g id="line2d_25">
      <g>
       <use xlink:href="#m5b25613167" x="230.401604" y="89.710046" style="stroke: #000000; stroke-width: 0.8"/>
      </g>
     </g>
     <g id="text_7">
      <!-- 0.5 -->
      <g transform="translate(207.498479 93.509265) scale(0.1 -0.1)">
       <use xlink:href="#DejaVuSans-30"/>
       <use xlink:href="#DejaVuSans-2e" transform="translate(63.623047 0)"/>
       <use xlink:href="#DejaVuSans-35" transform="translate(95.410156 0)"/>
      </g>
     </g>
    </g>
    <g id="ytick_5">
     <g id="line2d_26">
      <g>
       <use xlink:href="#m5b25613167" x="230.401604" y="6.628323" style="stroke: #000000; stroke-width: 0.8"/>
      </g>
     </g>
     <g id="text_8">
      <!-- 1.0 -->
      <g transform="translate(207.498479 10.427542) scale(0.1 -0.1)">
       <use xlink:href="#DejaVuSans-31"/>
       <use xlink:href="#DejaVuSans-2e" transform="translate(63.623047 0)"/>
       <use xlink:href="#DejaVuSans-30" transform="translate(95.410156 0)"/>
      </g>
     </g>
    </g>
    <g id="ytick_6">
     <g id="line2d_27">
      <defs>
       <path id="m2dae1d47a3" d="M 0 0 
L -2 0 
" style="stroke: #000000; stroke-width: 0.6"/>
      </defs>
      <g>
       <use xlink:href="#m2dae1d47a3" x="230.401604" y="322.338872" style="stroke: #000000; stroke-width: 0.6"/>
      </g>
     </g>
    </g>
    <g id="ytick_7">
     <g id="line2d_28">
      <g>
       <use xlink:href="#m2dae1d47a3" x="230.401604" y="305.722527" style="stroke: #000000; stroke-width: 0.6"/>
      </g>
     </g>
    </g>
    <g id="ytick_8">
     <g id="line2d_29">
      <g>
       <use xlink:href="#m2dae1d47a3" x="230.401604" y="289.106183" style="stroke: #000000; stroke-width: 0.6"/>
      </g>
     </g>
    </g>
    <g id="ytick_9">
     <g id="line2d_30">
      <g>
       <use xlink:href="#m2dae1d47a3" x="230.401604" y="272.489838" style="stroke: #000000; stroke-width: 0.6"/>
      </g>
     </g>
    </g>
    <g id="ytick_10">
     <g id="line2d_31">
      <g>
       <use xlink:href="#m2dae1d47a3" x="230.401604" y="239.257148" style="stroke: #000000; stroke-width: 0.6"/>
      </g>
     </g>
    </g>
    <g id="ytick_11">
     <g id="line2d_32">
      <g>
       <use xlink:href="#m2dae1d47a3" x="230.401604" y="222.640804" style="stroke: #000000; stroke-width: 0.6"/>
      </g>
     </g>
    </g>
    <g id="ytick_12">
     <g id="line2d_33">
      <g>
       <use xlink:href="#m2dae1d47a3" x="230.401604" y="206.024459" style="stroke: #000000; stroke-width: 0.6"/>
      </g>
     </g>
    </g>
    <g id="ytick_13">
     <g id="line2d_34">
      <g>
       <use xlink:href="#m2dae1d47a3" x="230.401604" y="189.408114" style="stroke: #000000; stroke-width: 0.6"/>
      </g>
     </g>
    </g>
    <g id="ytick_14">
     <g id="line2d_35">
      <g>
       <use xlink:href="#m2dae1d47a3" x="230.401604" y="156.175425" style="stroke: #000000; stroke-width: 0.6"/>
      </g>
     </g>
    </g>
    <g id="ytick_15">
     <g id="line2d_36">
      <g>
       <use xlink:href="#m2dae1d47a3" x="230.401604" y="139.55908" style="stroke: #000000; stroke-width: 0.6"/>
      </g>
     </g>
    </g>
    <g id="ytick_16">
     <g id="line2d_37">
      <g>
       <use xlink:href="#m2dae1d47a3" x="230.401604" y="122.942736" style="stroke: #000000; stroke-width: 0.6"/>
      </g>
     </g>
    </g>
    <g id="ytick_17">
     <g id="line2d_38">
      <g>
       <use xlink:href="#m2dae1d47a3" x="230.401604" y="106.326391" style="stroke: #000000; stroke-width: 0.6"/>
      </g>
     </g>
    </g>
    <g id="ytick_18">
     <g id="line2d_39">
      <g>
       <use xlink:href="#m2dae1d47a3" x="230.401604" y="73.093702" style="stroke: #000000; stroke-width: 0.6"/>
      </g>
     </g>
    </g>
    <g id="ytick_19">
     <g id="line2d_40">
      <g>
       <use xlink:href="#m2dae1d47a3" x="230.401604" y="56.477357" style="stroke: #000000; stroke-width: 0.6"/>
      </g>
     </g>
    </g>
    <g id="ytick_20">
     <g id="line2d_41">
      <g>
       <use xlink:href="#m2dae1d47a3" x="230.401604" y="39.861012" style="stroke: #000000; stroke-width: 0.6"/>
      </g>
     </g>
    </g>
    <g id="ytick_21">
     <g id="line2d_42">
      <g>
       <use xlink:href="#m2dae1d47a3" x="230.401604" y="23.244668" style="stroke: #000000; stroke-width: 0.6"/>
      </g>
     </g>
    </g>
   </g>
   <g id="line2d_43">
    <path d="M 230.401604 172.79177 
L 248.619389 136.575848 
L 260.238138 114.08858 
L 270.434448 95.084507 
L 276.829093 83.634991 
L 281.37526 75.759921 
L 287.496223 65.555034 
L 294.382567 54.696168 
L 302.751046 42.529256 
L 307.697653 35.94442 
L 310.926377 31.917011 
L 316.566979 25.441656 
L 319.183394 22.698622 
L 322.103664 19.846594 
L 328.229916 14.639192 
L 334.373029 10.586051 
L 335.785004 9.836051 
L 340.776277 7.780029 
L 345.427318 6.772131 
L 347.033105 6.646154 
L 350.994936 6.865669 
L 356.807362 8.700215 
L 360.265866 10.760523 
L 361.301246 11.533539 
L 365.715726 15.72368 
L 369.709081 20.920967 
L 372.440236 25.373687 
L 375.104016 30.531995 
L 377.632621 36.288627 
L 378.848135 39.395139 
L 381.125639 45.896646 
L 382.588156 50.603772 
L 384.885533 59.001766 
L 386.655318 66.484027 
L 388.991858 78.127183 
L 389.901602 83.360534 
L 391.124316 91.208932 
L 392.195981 99.075829 
L 393.458087 110.022985 
L 394.583253 122.228784 
L 395.568242 136.663008 
L 396.022251 146.039752 
L 396.413477 158.613327 
L 396.559009 169.957919 
L 396.532359 179.38233 
L 396.248501 193.256148 
L 395.903637 202.296018 
L 395.433454 211.246542 
L 394.88025 219.51764 
L 393.900353 231.118476 
L 392.660123 242.731601 
L 390.858181 256.173791 
L 389.174997 266.439122 
L 387.083048 277.133747 
L 384.565033 287.835643 
L 382.3991 295.614071 
L 380.997062 300.079647 
L 377.496353 309.628729 
L 375.448453 314.319569 
L 373.274274 318.686722 
L 370.364439 323.665371 
L 366.238187 329.260837 
L 363.220078 332.412994 
L 361.681097 333.747365 
L 357.062996 336.757301 
L 351.674446 338.600191 
L 346.349471 338.89832 
L 342.287867 338.232009 
L 340.35695 337.668092 
L 334.499478 335.067546 
L 332.415478 333.842112 
L 328.368901 331.049537 
L 322.40429 326.017512 
L 317.232043 320.855428 
L 310.924437 313.664177 
L 308.854503 311.107684 
L 305.478281 306.744623 
L 299.943747 299.109397 
L 295.593927 292.722292 
L 291.522272 286.462916 
L 284.348695 274.841306 
L 276.589408 261.526937 
L 266.022212 242.376794 
L 252.040614 215.701243 
L 240.491687 192.934696 
L 210.509346 133.293373 
L 200.253197 113.495742 
L 191.53598 97.216734 
L 182.240177 80.603671 
L 173.832528 66.411881 
L 167.694579 56.651105 
L 161.486643 47.374942 
L 155.675714 39.305471 
L 152.479583 35.146298 
L 147.022387 28.547514 
L 140.909015 21.983638 
L 133.850148 15.633329 
L 129.530745 12.476204 
L 127.484866 11.192148 
L 122.681713 8.754879 
L 116.368166 6.908621 
L 114.48115 6.687239 
L 111.407118 6.683129 
L 105.490249 8.043176 
L 104.018266 8.689354 
L 99.186832 11.783876 
L 97.223386 13.508179 
L 95.15161 15.651742 
L 92.268714 19.239647 
L 88.454989 25.210532 
L 85.72665 30.474314 
L 82.563756 37.810055 
L 80.104409 44.605235 
L 77.468699 53.187914 
L 74.412409 65.301015 
L 71.723108 78.61515 
L 70.43511 86.23362 
L 68.893898 96.863889 
L 67.500056 108.553211 
L 66.425902 119.74965 
L 65.60342 130.627569 
L 64.875955 143.813851 
L 64.578306 151.582049 
L 64.291624 164.364581 
L 64.260408 178.229485 
L 64.400029 187.442851 
L 64.775484 199.409691 
L 65.666774 215.902467 
L 66.054051 221.253173 
L 66.808472 230.117485 
L 68.160174 242.875278 
L 70.350311 258.812401 
L 71.933487 268.125241 
L 74.133717 279.035436 
L 77.232007 291.548417 
L 80.653481 302.58839 
L 82.63669 307.959402 
L 84.425841 312.265582 
L 87.49652 318.625891 
L 89.061559 321.424824 
L 93.25374 327.653286 
L 94.813048 329.548097 
L 97.488673 332.325305 
L 100.639702 334.895384 
L 105.688625 337.617549 
L 108.771659 338.52853 
L 113.145143 338.953846 
L 115.396117 338.809067 
L 118.443211 338.250084 
L 123.826018 336.324534 
L 129.984042 332.803959 
L 133.843842 329.955242 
L 138.625481 325.806296 
L 141.129364 323.379663 
L 145.981277 318.218289 
L 150.561535 312.831181 
L 153.823905 308.713212 
L 163.149827 295.786533 
L 168.285764 288.016623 
L 174.943006 277.348787 
L 184.16187 261.618335 
L 193.323141 245.078856 
L 201.73134 229.272308 
L 216.353984 200.786429 
L 230.401604 172.79177 
L 230.401604 172.79177 
" clip-path="url(#p7edb61cd69)" style="fill: none; stroke: #008000; stroke-linecap: square"/>
   </g>
   <g id="patch_3">
    <path d="M 230.401604 345.6 
L 230.401604 0 
" style="fill: none; stroke: #000000; stroke-width: 0.8; stroke-linejoin: miter; stroke-linecap: square"/>
   </g>
   <g id="patch_4">
    <path d="M 57.594631 172.79177 
L 403.205369 172.79177 
" style="fill: none; stroke: #000000; stroke-width: 0.8; stroke-linejoin: miter; stroke-linecap: square"/>
   </g>
  </g>
 </g>
 <defs>
  <clipPath id="p7edb61cd69">
   <rect x="57.594631" y="0" width="345.610738" height="345.6"/>
  </clipPath>
 </defs>
</svg>
