<?xml version="1.0" encoding="utf-8" standalone="no"?>
<!DOCTYPE svg PUBLIC "-//W3C//DTD SVG 1.1//EN"
  "http://www.w3.org/Graphics/SVG/1.1/DTD/svg11.dtd">
<svg xmlns:xlink="http://www.w3.org/1999/xlink" width="460.8pt" height="345.6pt" viewBox="0 0 460.8 345.6" xmlns="http://www.w3.org/2000/svg" version="1.1">
 <metadata>
  <rdf:RDF xmlns:dc="http://purl.org/dc/elements/1.1/" xmlns:cc="http://creativecommons.org/ns#" xmlns:rdf="http://www.w3.org/1999/02/22-rdf-syntax-ns#">
   <cc:Work>
    <dc:type rdf:resource="http://purl.org/dc/dcmitype/StillImage"/>
    <dc:date>2025-08-08T16:21:33.544459</dc:date>
    <dc:format>image/svg+xml</dc:format>
    <dc:creator>
     <cc:Agent>
      <dc:title>Matplotlib v3.10.3, https://matplotlib.org/</dc:title>
     </cc:Agent>
    </dc:creator>
   </cc:Work>
  </rdf:RDF>
 </metadata>
 <defs>
  <style type="text/css">*{stroke-linejoin: round; stroke-linecap: butt}</style>
 </defs>
 <g id="figure_1">
  <g id="patch_1">
   <path d="M 0 345.6 
L 460.8 345.6 
L 460.8 0 
L 0 0 
z
" style="fill: #ffffff"/>
  </g>
  <g id="axes_1">
   <g id="patch_2">
    <path d="M 0 345.6 
L 460.8 345.6 
L 460.8 0 
L 0 0 
z
" style="fill: #ffffff"/>
   </g>
   <g id="matplotlib.axis_1">
    <g id="xtick_1">
     <g id="line2d_1">
      <defs>
       <path id="m35a243f7eb" d="M 0 0 
L 0 3.5 
" style="stroke: #000000; stroke-width: 0.8"/>
      </defs>
      <g>
       <use xlink:href="#m35a243f7eb" x="36.553846" y="172.799987" style="stroke: #000000; stroke-width: 0.8"/>
      </g>
     </g>
     <g id="text_1">
      <!-- −7 -->
      <g transform="translate(29.182752 187.398424) scale(0.1 -0.1)">
       <defs>
        <path id="DejaVuSans-2212" d="M 678 2272 
L 4684 2272 
L 4684 1741 
L 678 1741 
L 678 2272 
z
" transform="scale(0.015625)"/>
        <path id="DejaVuSans-37" d="M 525 4666 
L 3525 4666 
L 3525 4397 
L 1831 0 
L 1172 0 
L 2766 4134 
L 525 4134 
L 525 4666 
z
" transform="scale(0.015625)"/>
       </defs>
       <use xlink:href="#DejaVuSans-2212"/>
       <use xlink:href="#DejaVuSans-37" transform="translate(83.789062 0)"/>
      </g>
     </g>
    </g>
    <g id="xtick_2">
     <g id="line2d_2">
      <g>
       <use xlink:href="#m35a243f7eb" x="147.323077" y="172.799987" style="stroke: #000000; stroke-width: 0.8"/>
      </g>
     </g>
     <g id="text_2">
      <!-- −3 -->
      <g transform="translate(139.951983 187.398424) scale(0.1 -0.1)">
       <defs>
        <path id="DejaVuSans-33" d="M 2597 2516 
Q 3050 2419 3304 2112 
Q 3559 1806 3559 1356 
Q 3559 666 3084 287 
Q 2609 -91 1734 -91 
Q 1441 -91 1130 -33 
Q 819 25 488 141 
L 488 750 
Q 750 597 1062 519 
Q 1375 441 1716 441 
Q 2309 441 2620 675 
Q 2931 909 2931 1356 
Q 2931 1769 2642 2001 
Q 2353 2234 1838 2234 
L 1294 2234 
L 1294 2753 
L 1863 2753 
Q 2328 2753 2575 2939 
Q 2822 3125 2822 3475 
Q 2822 3834 2567 4026 
Q 2313 4219 1838 4219 
Q 1578 4219 1281 4162 
Q 984 4106 628 3988 
L 628 4550 
Q 988 4650 1302 4700 
Q 1616 4750 1894 4750 
Q 2613 4750 3031 4423 
Q 3450 4097 3450 3541 
Q 3450 3153 3228 2886 
Q 3006 2619 2597 2516 
z
" transform="scale(0.015625)"/>
       </defs>
       <use xlink:href="#DejaVuSans-2212"/>
       <use xlink:href="#DejaVuSans-33" transform="translate(83.789062 0)"/>
      </g>
     </g>
    </g>
    <g id="xtick_3">
     <g id="line2d_3">
      <g>
       <use xlink:href="#m35a243f7eb" x="230.4" y="172.799987" style="stroke: #000000; stroke-width: 0.8"/>
      </g>
     </g>
    </g>
    <g id="xtick_4">
     <g id="line2d_4">
      <g>
       <use xlink:href="#m35a243f7eb" x="313.476923" y="172.799987" style="stroke: #000000; stroke-width: 0.8"/>
      </g>
     </g>
     <g id="text_3">
      <!-- 3 -->
      <g transform="translate(310.295673 187.398424) scale(0.1 -0.1)">
       <use xlink:href="#DejaVuSans-33"/>
      </g>
     </g>
    </g>
    <g id="xtick_5">
     <g id="line2d_5">
      <g>
       <use xlink:href="#m35a243f7eb" x="424.246154" y="172.799987" style="stroke: #000000; stroke-width: 0.8"/>
      </g>
     </g>
     <g id="text_4">
      <!-- 7 -->
      <g transform="translate(421.064904 187.398424) scale(0.1 -0.1)">
       <use xlink:href="#DejaVuSans-37"/>
      </g>
     </g>
    </g>
   </g>
   <g id="matplotlib.axis_2">
    <g id="ytick_1">
     <g id="line2d_6">
      <defs>
       <path id="mcc54dfd86b" d="M 0 0 
L -3.5 0 
" style="stroke: #000000; stroke-width: 0.8"/>
      </defs>
      <g>
       <use xlink:href="#mcc54dfd86b" x="230.4" y="255.876948" style="stroke: #000000; stroke-width: 0.8"/>
      </g>
     </g>
     <g id="text_5">
      <!-- −0.5 -->
      <g transform="translate(199.117188 259.676167) scale(0.1 -0.1)">
       <defs>
        <path id="DejaVuSans-30" d="M 2034 4250 
Q 1547 4250 1301 3770 
Q 1056 3291 1056 2328 
Q 1056 1369 1301 889 
Q 1547 409 2034 409 
Q 2525 409 2770 889 
Q 3016 1369 3016 2328 
Q 3016 3291 2770 3770 
Q 2525 4250 2034 4250 
z
M 2034 4750 
Q 2819 4750 3233 4129 
Q 3647 3509 3647 2328 
Q 3647 1150 3233 529 
Q 2819 -91 2034 -91 
Q 1250 -91 836 529 
Q 422 1150 422 2328 
Q 422 3509 836 4129 
Q 1250 4750 2034 4750 
z
" transform="scale(0.015625)"/>
        <path id="DejaVuSans-2e" d="M 684 794 
L 1344 794 
L 1344 0 
L 684 0 
L 684 794 
z
" transform="scale(0.015625)"/>
        <path id="DejaVuSans-35" d="M 691 4666 
L 3169 4666 
L 3169 4134 
L 1269 4134 
L 1269 2991 
Q 1406 3038 1543 3061 
Q 1681 3084 1819 3084 
Q 2600 3084 3056 2656 
Q 3513 2228 3513 1497 
Q 3513 744 3044 326 
Q 2575 -91 1722 -91 
Q 1428 -91 1123 -41 
Q 819 9 494 109 
L 494 744 
Q 775 591 1075 516 
Q 1375 441 1709 441 
Q 2250 441 2565 725 
Q 2881 1009 2881 1497 
Q 2881 1984 2565 2268 
Q 2250 2553 1709 2553 
Q 1456 2553 1204 2497 
Q 953 2441 691 2322 
L 691 4666 
z
" transform="scale(0.015625)"/>
       </defs>
       <use xlink:href="#DejaVuSans-2212"/>
       <use xlink:href="#DejaVuSans-30" transform="translate(83.789062 0)"/>
       <use xlink:href="#DejaVuSans-2e" transform="translate(147.412109 0)"/>
       <use xlink:href="#DejaVuSans-35" transform="translate(179.199219 0)"/>
      </g>
     </g>
    </g>
    <g id="ytick_2">
     <g id="line2d_7">
      <g>
       <use xlink:href="#mcc54dfd86b" x="230.4" y="172.799987" style="stroke: #000000; stroke-width: 0.8"/>
      </g>
     </g>
    </g>
    <g id="ytick_3">
     <g id="line2d_8">
      <g>
       <use xlink:href="#mcc54dfd86b" x="230.4" y="89.723025" style="stroke: #000000; stroke-width: 0.8"/>
      </g>
     </g>
     <g id="text_6">
      <!-- 0.5 -->
      <g transform="translate(207.496875 93.522243) scale(0.1 -0.1)">
       <use xlink:href="#DejaVuSans-30"/>
       <use xlink:href="#DejaVuSans-2e" transform="translate(63.623047 0)"/>
       <use xlink:href="#DejaVuSans-35" transform="translate(95.410156 0)"/>
      </g>
     </g>
    </g>
   </g>
   <g id="line2d_9">
    <path d="M 8.861538 172.799987 
L 12.257598 110.357676 
L 14.368375 75.620062 
L 15.72578 56.098235 
L 17.195045 38.093207 
L 17.985608 29.922607 
L 19.24027 19.336253 
L 20.228328 13.17553 
L 21.216385 9.018312 
L 21.710414 7.708325 
L 22.204442 6.916778 
L 22.698471 6.646154 
L 23.1925 6.897304 
L 23.864473 8.074762 
L 24.415661 9.755363 
L 24.966849 12.073268 
L 25.518037 15.019416 
L 26.487754 21.691128 
L 27.324811 28.922816 
L 28.580397 42.177623 
L 30.065284 61.243292 
L 32.008775 90.873461 
L 34.033701 125.940861 
L 41.435523 260.185388 
L 43.394912 289.190388 
L 44.776694 306.275092 
L 45.704688 315.934298 
L 46.731332 324.76984 
L 47.757976 331.546234 
L 48.78462 336.171662 
L 49.297942 337.657013 
L 49.811264 338.583449 
L 50.193839 338.908468 
L 50.776426 338.80243 
L 51.359013 337.971522 
L 51.941601 336.419373 
L 52.524188 334.152762 
L 53.185215 330.728395 
L 53.846241 326.416308 
L 55.168295 315.230778 
L 56.428534 301.586682 
L 57.688772 285.314629 
L 59.174367 263.212691 
L 61.110673 230.663936 
L 62.771763 200.462203 
L 67.80251 107.568115 
L 69.994703 71.961449 
L 71.656675 48.997353 
L 72.984336 33.771193 
L 74.081029 23.555145 
L 74.946754 17.113558 
L 75.818807 12.142022 
L 76.697188 8.722784 
L 77.136379 7.622147 
L 77.57557 6.931479 
L 78.014761 6.652493 
L 78.453951 6.785881 
L 78.893142 7.331313 
L 79.396542 8.461498 
L 79.899941 10.127514 
L 80.716822 13.956601 
L 81.533704 19.148882 
L 82.350585 25.659797 
L 83.167466 33.433469 
L 84.336637 46.621701 
L 85.490336 61.80933 
L 87.144191 86.820155 
L 88.644656 112.147995 
L 90.668173 148.938386 
L 95.849211 244.121286 
L 97.780832 275.038348 
L 99.046042 292.721822 
L 100.610973 311.147082 
L 101.543299 320.088408 
L 102.481131 327.421569 
L 103.418964 333.006123 
L 104.356796 336.778913 
L 104.825712 337.971748 
L 105.294629 338.697273 
L 105.735943 338.951377 
L 106.177258 338.789099 
L 106.618573 338.210847 
L 107.059887 337.218068 
L 107.480939 335.886733 
L 108.323042 332.111833 
L 109.128452 327.14152 
L 109.897167 321.195966 
L 111.050241 310.179352 
L 112.668127 290.814719 
L 114.276588 267.631465 
L 116.554461 229.61708 
L 118.428344 195.394956 
L 123.208532 107.197201 
L 125.535851 69.632409 
L 127.274341 46.111134 
L 128.643404 31.006182 
L 129.709916 21.588977 
L 130.775068 14.390383 
L 131.306964 11.655289 
L 131.838861 9.506765 
L 132.370757 7.952632 
L 132.902654 6.998547 
L 133.43455 6.647983 
L 133.966447 6.902215 
L 134.498344 7.760319 
L 134.979695 9.054836 
L 135.447216 10.779532 
L 136.382258 15.589806 
L 137.317301 22.167409 
L 138.252343 30.438396 
L 139.550702 44.553847 
L 140.84162 61.342572 
L 142.221857 81.922324 
L 144.045495 112.432804 
L 146.600957 159.203567 
L 151.083184 241.546358 
L 152.543191 265.545505 
L 154.120675 288.60424 
L 155.462738 305.335325 
L 156.68503 317.9139 
L 157.787549 326.875928 
L 158.797713 332.976766 
L 159.715521 336.699499 
L 160.174425 337.896903 
L 160.875987 338.861976 
L 161.57755 338.775678 
L 162.279113 337.638557 
L 162.980676 335.457812 
L 163.584446 332.755864 
L 164.188215 329.303755 
L 165.416181 320.039232 
L 166.644147 307.921881 
L 167.460688 298.398504 
L 168.972769 277.987091 
L 170.363849 256.466376 
L 171.960962 229.229236 
L 174.66568 179.390034 
L 178.530973 108.275572 
L 180.188619 80.788957 
L 182.143663 52.608437 
L 183.589774 35.485744 
L 184.553847 26.09477 
L 185.517921 18.456926 
L 186.295017 13.639351 
L 187.290026 9.279645 
L 187.787531 7.877861 
L 188.285035 7.001294 
L 188.778042 6.653517 
L 189.271048 6.825335 
L 189.764054 7.516209 
L 190.257061 8.72398 
L 190.750067 10.44487 
L 191.73608 15.402893 
L 192.67902 21.985777 
L 193.578887 29.877058 
L 194.513302 39.64504 
L 195.966748 57.763913 
L 197.025532 72.958891 
L 198.586325 97.913677 
L 200.147117 125.210207 
L 207.126489 252.647414 
L 209.291504 285.680709 
L 210.66939 303.285339 
L 211.94189 316.725803 
L 212.790222 324.037419 
L 213.638555 329.949326 
L 214.062721 332.36277 
L 214.715666 335.354229 
L 215.36861 337.454165 
L 216.021554 338.651058 
L 216.674498 338.938346 
L 217.294114 338.368332 
L 217.91373 336.98056 
L 218.644402 334.302883 
L 219.375074 330.516138 
L 220.334814 323.901745 
L 221.294553 315.497864 
L 222.254293 305.40402 
L 223.214033 293.739755 
L 225.001558 268.315333 
L 226.920768 236.692333 
L 229.277038 193.910119 
L 233.83492 109.679482 
L 235.992065 74.321539 
L 237.487859 53.135749 
L 238.799024 37.37396 
L 240.110189 24.603041 
L 240.984299 17.892885 
L 242.138914 11.371267 
L 242.716222 9.142472 
L 243.29353 7.615417 
L 243.967442 6.729112 
L 244.58852 6.771374 
L 245.209598 7.637539 
L 245.830675 9.32331 
L 246.451753 11.820321 
L 247.427511 17.350594 
L 248.40327 24.783748 
L 249.379028 34.028793 
L 250.781415 50.257717 
L 252.061299 67.782347 
L 253.627474 92.192647 
L 255.465833 124.021415 
L 262.641785 254.798751 
L 264.08481 277.254163 
L 265.527834 296.916486 
L 266.614867 309.561785 
L 267.7019 320.129871 
L 268.750471 328.20518 
L 269.654943 333.409682 
L 270.559415 336.924667 
L 271.011651 338.03633 
L 271.463887 338.71316 
L 271.916123 338.953377 
L 272.368359 338.756347 
L 272.974041 337.808583 
L 273.713066 335.598095 
L 274.452092 332.243952 
L 275.191117 327.769718 
L 275.930142 322.206823 
L 277.370475 308.390896 
L 278.436792 295.811291 
L 280.058094 273.308211 
L 281.723049 246.678334 
L 284.280469 201.01509 
L 289.612896 102.885793 
L 291.76559 68.514885 
L 293.366996 46.860466 
L 294.858374 30.409006 
L 295.766242 22.360081 
L 296.797335 15.156379 
L 297.849186 10.028233 
L 298.385491 8.301348 
L 298.921795 7.183204 
L 299.4581 6.67794 
L 299.994405 6.787425 
L 300.53071 7.511255 
L 301.067015 8.846751 
L 302.017503 12.699684 
L 302.431687 14.963808 
L 303.0619 19.075347 
L 304.322325 29.629732 
L 305.489504 42.015037 
L 306.563434 55.439289 
L 308.211554 79.347912 
L 310.133958 111.286244 
L 312.567709 155.692069 
L 317.010657 237.639459 
L 318.837953 267.73744 
L 320.736237 294.68359 
L 322.063158 310.239821 
L 323.283239 321.807433 
L 324.335083 329.49897 
L 325.351035 334.81313 
L 325.841064 336.61107 
L 326.331093 337.902886 
L 326.821122 338.684587 
L 327.19114 338.935298 
L 327.561158 338.893308 
L 327.931175 338.558691 
L 328.301193 337.932036 
L 329.041228 335.807543 
L 329.781264 332.534792 
L 330.871045 325.675378 
L 332.250027 313.667801 
L 333.62901 298.219698 
L 335.232724 276.431233 
L 336.848322 251.024409 
L 338.46392 222.997144 
L 346.229806 82.56467 
L 347.932584 57.459491 
L 349.452562 38.649065 
L 350.834295 24.989599 
L 351.935246 16.687112 
L 352.755414 12.077159 
L 353.575582 8.857642 
L 353.985666 7.778478 
L 354.395749 7.056414 
L 354.805833 6.693011 
L 355.39377 6.799124 
L 355.981707 7.643467 
L 356.541235 9.129202 
L 357.100763 11.274188 
L 357.66029 14.069783 
L 358.219818 17.504729 
L 358.899876 22.520214 
L 360.239224 34.979138 
L 361.557806 50.348903 
L 363.166906 72.771069 
L 365.066525 103.455134 
L 367.841517 153.615903 
L 372.039962 231.422032 
L 374.024284 264.646315 
L 375.769434 290.086033 
L 376.853144 303.63359 
L 378.018943 315.997085 
L 379.02261 324.64449 
L 380.026276 331.325413 
L 381.029942 335.953331 
L 381.907137 338.269138 
L 382.420235 338.865567 
L 382.933333 338.899476 
L 383.446431 338.370748 
L 383.959529 337.281174 
L 384.472627 335.634446 
L 384.985725 333.436142 
L 386.011921 327.416432 
L 387.029608 319.379138 
L 388.186379 307.880509 
L 389.728742 288.97548 
L 391.038426 270.11111 
L 393.029989 237.468 
L 395.234248 197.58103 
L 399.968097 110.040046 
L 402.015072 76.318704 
L 403.887839 49.96408 
L 405.063405 36.177502 
L 406.301534 24.284763 
L 407.539663 15.317323 
L 408.338771 11.168104 
L 409.137879 8.346348 
L 409.797491 7.034052 
L 410.457103 6.649549 
L 411.116715 7.194991 
L 411.776327 8.667325 
L 412.385589 10.84369 
L 412.994852 13.793475 
L 413.673747 17.974098 
L 414.352642 23.072663 
L 415.710432 35.897442 
L 416.831733 48.948338 
L 417.953035 64.000671 
L 419.523834 87.983552 
L 422.00502 131.009251 
L 428.232952 245.413322 
L 429.900347 272.219202 
L 431.474439 294.285341 
L 432.981119 311.795565 
L 434.420386 324.74504 
L 435.706152 332.903207 
L 436.272285 335.424742 
L 436.876382 337.375617 
L 437.480479 338.553829 
L 438.084575 338.953846 
L 438.688672 338.573791 
L 439.091207 337.888197 
L 439.493741 336.85839 
L 440.29881 333.775437 
L 441.108745 329.319874 
L 441.91868 323.543788 
L 443.133582 312.513229 
L 444.269899 299.793116 
L 445.692847 280.920962 
L 447.65681 250.370796 
L 449.681496 214.87949 
L 451.938462 172.799987 
L 451.938462 172.799987 
" clip-path="url(#pb7b9fc9489)" style="fill: none; stroke: #0000ff; stroke-linecap: square"/>
   </g>
   <g id="patch_3">
    <path d="M 230.4 345.6 
L 230.4 -0 
" style="fill: none; stroke: #000000; stroke-width: 0.8; stroke-linejoin: miter; stroke-linecap: square"/>
   </g>
   <g id="patch_4">
    <path d="M 0 172.799987 
L 460.8 172.799987 
" style="fill: none; stroke: #000000; stroke-width: 0.8; stroke-linejoin: miter; stroke-linecap: square"/>
   </g>
  </g>
 </g>
 <defs>
  <clipPath id="pb7b9fc9489">
   <rect x="0" y="0" width="460.8" height="345.6"/>
  </clipPath>
 </defs>
</svg>
