<?xml version="1.0" encoding="utf-8" standalone="no"?>
<!DOCTYPE svg PUBLIC "-//W3C//DTD SVG 1.1//EN"
  "http://www.w3.org/Graphics/SVG/1.1/DTD/svg11.dtd">
<svg xmlns:xlink="http://www.w3.org/1999/xlink" width="460.8pt" height="345.6pt" viewBox="0 0 460.8 345.6" xmlns="http://www.w3.org/2000/svg" version="1.1">
 <metadata>
  <rdf:RDF xmlns:dc="http://purl.org/dc/elements/1.1/" xmlns:cc="http://creativecommons.org/ns#" xmlns:rdf="http://www.w3.org/1999/02/22-rdf-syntax-ns#">
   <cc:Work>
    <dc:type rdf:resource="http://purl.org/dc/dcmitype/StillImage"/>
    <dc:date>2025-08-07T23:34:11.662967</dc:date>
    <dc:format>image/svg+xml</dc:format>
    <dc:creator>
     <cc:Agent>
      <dc:title>Matplotlib v3.10.3, https://matplotlib.org/</dc:title>
     </cc:Agent>
    </dc:creator>
   </cc:Work>
  </rdf:RDF>
 </metadata>
 <defs>
  <style type="text/css">*{stroke-linejoin: round; stroke-linecap: butt}</style>
 </defs>
 <g id="figure_1">
  <g id="patch_1">
   <path d="M 0 345.6 
L 460.8 345.6 
L 460.8 0 
L 0 0 
z
" style="fill: #ffffff"/>
  </g>
  <g id="axes_1">
   <g id="patch_2">
    <path d="M 57.615557 345.6 
L 403.184443 345.6 
L 403.184443 0 
L 57.615557 0 
z
" style="fill: #ffffff"/>
   </g>
   <g id="matplotlib.axis_1">
    <g id="xtick_1">
     <g id="line2d_1">
      <defs>
       <path id="m4f2bcf872d" d="M 0 0 
L 0 3.5 
" style="stroke: #000000; stroke-width: 0.8"/>
      </defs>
      <g>
       <use xlink:href="#m4f2bcf872d" x="64.261096" y="172.799701" style="stroke: #000000; stroke-width: 0.8"/>
      </g>
     </g>
     <g id="text_1">
      <!-- −1.0 -->
      <g transform="translate(52.11969 187.398139) scale(0.1 -0.1)">
       <defs>
        <path id="DejaVuSans-2212" d="M 678 2272 
L 4684 2272 
L 4684 1741 
L 678 1741 
L 678 2272 
z
" transform="scale(0.015625)"/>
        <path id="DejaVuSans-31" d="M 794 531 
L 1825 531 
L 1825 4091 
L 703 3866 
L 703 4441 
L 1819 4666 
L 2450 4666 
L 2450 531 
L 3481 531 
L 3481 0 
L 794 0 
L 794 531 
z
" transform="scale(0.015625)"/>
        <path id="DejaVuSans-2e" d="M 684 794 
L 1344 794 
L 1344 0 
L 684 0 
L 684 794 
z
" transform="scale(0.015625)"/>
        <path id="DejaVuSans-30" d="M 2034 4250 
Q 1547 4250 1301 3770 
Q 1056 3291 1056 2328 
Q 1056 1369 1301 889 
Q 1547 409 2034 409 
Q 2525 409 2770 889 
Q 3016 1369 3016 2328 
Q 3016 3291 2770 3770 
Q 2525 4250 2034 4250 
z
M 2034 4750 
Q 2819 4750 3233 4129 
Q 3647 3509 3647 2328 
Q 3647 1150 3233 529 
Q 2819 -91 2034 -91 
Q 1250 -91 836 529 
Q 422 1150 422 2328 
Q 422 3509 836 4129 
Q 1250 4750 2034 4750 
z
" transform="scale(0.015625)"/>
       </defs>
       <use xlink:href="#DejaVuSans-2212"/>
       <use xlink:href="#DejaVuSans-31" transform="translate(83.789062 0)"/>
       <use xlink:href="#DejaVuSans-2e" transform="translate(147.412109 0)"/>
       <use xlink:href="#DejaVuSans-30" transform="translate(179.199219 0)"/>
      </g>
     </g>
    </g>
    <g id="xtick_2">
     <g id="line2d_2">
      <g>
       <use xlink:href="#m4f2bcf872d" x="147.338225" y="172.799701" style="stroke: #000000; stroke-width: 0.8"/>
      </g>
     </g>
     <g id="text_2">
      <!-- −0.5 -->
      <g transform="translate(135.196819 187.398139) scale(0.1 -0.1)">
       <defs>
        <path id="DejaVuSans-35" d="M 691 4666 
L 3169 4666 
L 3169 4134 
L 1269 4134 
L 1269 2991 
Q 1406 3038 1543 3061 
Q 1681 3084 1819 3084 
Q 2600 3084 3056 2656 
Q 3513 2228 3513 1497 
Q 3513 744 3044 326 
Q 2575 -91 1722 -91 
Q 1428 -91 1123 -41 
Q 819 9 494 109 
L 494 744 
Q 775 591 1075 516 
Q 1375 441 1709 441 
Q 2250 441 2565 725 
Q 2881 1009 2881 1497 
Q 2881 1984 2565 2268 
Q 2250 2553 1709 2553 
Q 1456 2553 1204 2497 
Q 953 2441 691 2322 
L 691 4666 
z
" transform="scale(0.015625)"/>
       </defs>
       <use xlink:href="#DejaVuSans-2212"/>
       <use xlink:href="#DejaVuSans-30" transform="translate(83.789062 0)"/>
       <use xlink:href="#DejaVuSans-2e" transform="translate(147.412109 0)"/>
       <use xlink:href="#DejaVuSans-35" transform="translate(179.199219 0)"/>
      </g>
     </g>
    </g>
    <g id="xtick_3">
     <g id="line2d_3">
      <g>
       <use xlink:href="#m4f2bcf872d" x="230.415354" y="172.799701" style="stroke: #000000; stroke-width: 0.8"/>
      </g>
     </g>
    </g>
    <g id="xtick_4">
     <g id="line2d_4">
      <g>
       <use xlink:href="#m4f2bcf872d" x="313.492483" y="172.799701" style="stroke: #000000; stroke-width: 0.8"/>
      </g>
     </g>
     <g id="text_3">
      <!-- 0.5 -->
      <g transform="translate(305.540921 187.398139) scale(0.1 -0.1)">
       <use xlink:href="#DejaVuSans-30"/>
       <use xlink:href="#DejaVuSans-2e" transform="translate(63.623047 0)"/>
       <use xlink:href="#DejaVuSans-35" transform="translate(95.410156 0)"/>
      </g>
     </g>
    </g>
    <g id="xtick_5">
     <g id="line2d_5">
      <g>
       <use xlink:href="#m4f2bcf872d" x="396.569612" y="172.799701" style="stroke: #000000; stroke-width: 0.8"/>
      </g>
     </g>
     <g id="text_4">
      <!-- 1.0 -->
      <g transform="translate(388.61805 187.398139) scale(0.1 -0.1)">
       <use xlink:href="#DejaVuSans-31"/>
       <use xlink:href="#DejaVuSans-2e" transform="translate(63.623047 0)"/>
       <use xlink:href="#DejaVuSans-30" transform="translate(95.410156 0)"/>
      </g>
     </g>
    </g>
    <g id="xtick_6">
     <g id="line2d_6">
      <defs>
       <path id="ma11aca6395" d="M 0 0 
L 0 2 
" style="stroke: #000000; stroke-width: 0.6"/>
      </defs>
      <g>
       <use xlink:href="#ma11aca6395" x="80.876522" y="172.799701" style="stroke: #000000; stroke-width: 0.6"/>
      </g>
     </g>
    </g>
    <g id="xtick_7">
     <g id="line2d_7">
      <g>
       <use xlink:href="#ma11aca6395" x="97.491948" y="172.799701" style="stroke: #000000; stroke-width: 0.6"/>
      </g>
     </g>
    </g>
    <g id="xtick_8">
     <g id="line2d_8">
      <g>
       <use xlink:href="#ma11aca6395" x="114.107374" y="172.799701" style="stroke: #000000; stroke-width: 0.6"/>
      </g>
     </g>
    </g>
    <g id="xtick_9">
     <g id="line2d_9">
      <g>
       <use xlink:href="#ma11aca6395" x="130.7228" y="172.799701" style="stroke: #000000; stroke-width: 0.6"/>
      </g>
     </g>
    </g>
    <g id="xtick_10">
     <g id="line2d_10">
      <g>
       <use xlink:href="#ma11aca6395" x="163.953651" y="172.799701" style="stroke: #000000; stroke-width: 0.6"/>
      </g>
     </g>
    </g>
    <g id="xtick_11">
     <g id="line2d_11">
      <g>
       <use xlink:href="#ma11aca6395" x="180.569077" y="172.799701" style="stroke: #000000; stroke-width: 0.6"/>
      </g>
     </g>
    </g>
    <g id="xtick_12">
     <g id="line2d_12">
      <g>
       <use xlink:href="#ma11aca6395" x="197.184503" y="172.799701" style="stroke: #000000; stroke-width: 0.6"/>
      </g>
     </g>
    </g>
    <g id="xtick_13">
     <g id="line2d_13">
      <g>
       <use xlink:href="#ma11aca6395" x="213.799928" y="172.799701" style="stroke: #000000; stroke-width: 0.6"/>
      </g>
     </g>
    </g>
    <g id="xtick_14">
     <g id="line2d_14">
      <g>
       <use xlink:href="#ma11aca6395" x="247.03078" y="172.799701" style="stroke: #000000; stroke-width: 0.6"/>
      </g>
     </g>
    </g>
    <g id="xtick_15">
     <g id="line2d_15">
      <g>
       <use xlink:href="#ma11aca6395" x="263.646206" y="172.799701" style="stroke: #000000; stroke-width: 0.6"/>
      </g>
     </g>
    </g>
    <g id="xtick_16">
     <g id="line2d_16">
      <g>
       <use xlink:href="#ma11aca6395" x="280.261632" y="172.799701" style="stroke: #000000; stroke-width: 0.6"/>
      </g>
     </g>
    </g>
    <g id="xtick_17">
     <g id="line2d_17">
      <g>
       <use xlink:href="#ma11aca6395" x="296.877057" y="172.799701" style="stroke: #000000; stroke-width: 0.6"/>
      </g>
     </g>
    </g>
    <g id="xtick_18">
     <g id="line2d_18">
      <g>
       <use xlink:href="#ma11aca6395" x="330.107909" y="172.799701" style="stroke: #000000; stroke-width: 0.6"/>
      </g>
     </g>
    </g>
    <g id="xtick_19">
     <g id="line2d_19">
      <g>
       <use xlink:href="#ma11aca6395" x="346.723335" y="172.799701" style="stroke: #000000; stroke-width: 0.6"/>
      </g>
     </g>
    </g>
    <g id="xtick_20">
     <g id="line2d_20">
      <g>
       <use xlink:href="#ma11aca6395" x="363.338761" y="172.799701" style="stroke: #000000; stroke-width: 0.6"/>
      </g>
     </g>
    </g>
    <g id="xtick_21">
     <g id="line2d_21">
      <g>
       <use xlink:href="#ma11aca6395" x="379.954186" y="172.799701" style="stroke: #000000; stroke-width: 0.6"/>
      </g>
     </g>
    </g>
   </g>
   <g id="matplotlib.axis_2">
    <g id="ytick_1">
     <g id="line2d_22">
      <defs>
       <path id="m62b43f6a0c" d="M 0 0 
L -3.5 0 
" style="stroke: #000000; stroke-width: 0.8"/>
      </defs>
      <g>
       <use xlink:href="#m62b43f6a0c" x="230.415354" y="338.953959" style="stroke: #000000; stroke-width: 0.8"/>
      </g>
     </g>
     <g id="text_5">
      <!-- −1.0 -->
      <g transform="translate(199.132542 342.753178) scale(0.1 -0.1)">
       <use xlink:href="#DejaVuSans-2212"/>
       <use xlink:href="#DejaVuSans-31" transform="translate(83.789062 0)"/>
       <use xlink:href="#DejaVuSans-2e" transform="translate(147.412109 0)"/>
       <use xlink:href="#DejaVuSans-30" transform="translate(179.199219 0)"/>
      </g>
     </g>
    </g>
    <g id="ytick_2">
     <g id="line2d_23">
      <g>
       <use xlink:href="#m62b43f6a0c" x="230.415354" y="255.87683" style="stroke: #000000; stroke-width: 0.8"/>
      </g>
     </g>
     <g id="text_6">
      <!-- −0.5 -->
      <g transform="translate(199.132542 259.676049) scale(0.1 -0.1)">
       <use xlink:href="#DejaVuSans-2212"/>
       <use xlink:href="#DejaVuSans-30" transform="translate(83.789062 0)"/>
       <use xlink:href="#DejaVuSans-2e" transform="translate(147.412109 0)"/>
       <use xlink:href="#DejaVuSans-35" transform="translate(179.199219 0)"/>
      </g>
     </g>
    </g>
    <g id="ytick_3">
     <g id="line2d_24">
      <g>
       <use xlink:href="#m62b43f6a0c" x="230.415354" y="172.799701" style="stroke: #000000; stroke-width: 0.8"/>
      </g>
     </g>
    </g>
    <g id="ytick_4">
     <g id="line2d_25">
      <g>
       <use xlink:href="#m62b43f6a0c" x="230.415354" y="89.722572" style="stroke: #000000; stroke-width: 0.8"/>
      </g>
     </g>
     <g id="text_7">
      <!-- 0.5 -->
      <g transform="translate(207.512229 93.521791) scale(0.1 -0.1)">
       <use xlink:href="#DejaVuSans-30"/>
       <use xlink:href="#DejaVuSans-2e" transform="translate(63.623047 0)"/>
       <use xlink:href="#DejaVuSans-35" transform="translate(95.410156 0)"/>
      </g>
     </g>
    </g>
    <g id="ytick_5">
     <g id="line2d_26">
      <g>
       <use xlink:href="#m62b43f6a0c" x="230.415354" y="6.645443" style="stroke: #000000; stroke-width: 0.8"/>
      </g>
     </g>
     <g id="text_8">
      <!-- 1.0 -->
      <g transform="translate(207.512229 10.444662) scale(0.1 -0.1)">
       <use xlink:href="#DejaVuSans-31"/>
       <use xlink:href="#DejaVuSans-2e" transform="translate(63.623047 0)"/>
       <use xlink:href="#DejaVuSans-30" transform="translate(95.410156 0)"/>
      </g>
     </g>
    </g>
    <g id="ytick_6">
     <g id="line2d_27">
      <defs>
       <path id="maff41f7353" d="M 0 0 
L -2 0 
" style="stroke: #000000; stroke-width: 0.6"/>
      </defs>
      <g>
       <use xlink:href="#maff41f7353" x="230.415354" y="322.338533" style="stroke: #000000; stroke-width: 0.6"/>
      </g>
     </g>
    </g>
    <g id="ytick_7">
     <g id="line2d_28">
      <g>
       <use xlink:href="#maff41f7353" x="230.415354" y="305.723107" style="stroke: #000000; stroke-width: 0.6"/>
      </g>
     </g>
    </g>
    <g id="ytick_8">
     <g id="line2d_29">
      <g>
       <use xlink:href="#maff41f7353" x="230.415354" y="289.107682" style="stroke: #000000; stroke-width: 0.6"/>
      </g>
     </g>
    </g>
    <g id="ytick_9">
     <g id="line2d_30">
      <g>
       <use xlink:href="#maff41f7353" x="230.415354" y="272.492256" style="stroke: #000000; stroke-width: 0.6"/>
      </g>
     </g>
    </g>
    <g id="ytick_10">
     <g id="line2d_31">
      <g>
       <use xlink:href="#maff41f7353" x="230.415354" y="239.261404" style="stroke: #000000; stroke-width: 0.6"/>
      </g>
     </g>
    </g>
    <g id="ytick_11">
     <g id="line2d_32">
      <g>
       <use xlink:href="#maff41f7353" x="230.415354" y="222.645978" style="stroke: #000000; stroke-width: 0.6"/>
      </g>
     </g>
    </g>
    <g id="ytick_12">
     <g id="line2d_33">
      <g>
       <use xlink:href="#maff41f7353" x="230.415354" y="206.030553" style="stroke: #000000; stroke-width: 0.6"/>
      </g>
     </g>
    </g>
    <g id="ytick_13">
     <g id="line2d_34">
      <g>
       <use xlink:href="#maff41f7353" x="230.415354" y="189.415127" style="stroke: #000000; stroke-width: 0.6"/>
      </g>
     </g>
    </g>
    <g id="ytick_14">
     <g id="line2d_35">
      <g>
       <use xlink:href="#maff41f7353" x="230.415354" y="156.184275" style="stroke: #000000; stroke-width: 0.6"/>
      </g>
     </g>
    </g>
    <g id="ytick_15">
     <g id="line2d_36">
      <g>
       <use xlink:href="#maff41f7353" x="230.415354" y="139.56885" style="stroke: #000000; stroke-width: 0.6"/>
      </g>
     </g>
    </g>
    <g id="ytick_16">
     <g id="line2d_37">
      <g>
       <use xlink:href="#maff41f7353" x="230.415354" y="122.953424" style="stroke: #000000; stroke-width: 0.6"/>
      </g>
     </g>
    </g>
    <g id="ytick_17">
     <g id="line2d_38">
      <g>
       <use xlink:href="#maff41f7353" x="230.415354" y="106.337998" style="stroke: #000000; stroke-width: 0.6"/>
      </g>
     </g>
    </g>
    <g id="ytick_18">
     <g id="line2d_39">
      <g>
       <use xlink:href="#maff41f7353" x="230.415354" y="73.107146" style="stroke: #000000; stroke-width: 0.6"/>
      </g>
     </g>
    </g>
    <g id="ytick_19">
     <g id="line2d_40">
      <g>
       <use xlink:href="#maff41f7353" x="230.415354" y="56.491721" style="stroke: #000000; stroke-width: 0.6"/>
      </g>
     </g>
    </g>
    <g id="ytick_20">
     <g id="line2d_41">
      <g>
       <use xlink:href="#maff41f7353" x="230.415354" y="39.876295" style="stroke: #000000; stroke-width: 0.6"/>
      </g>
     </g>
    </g>
    <g id="ytick_21">
     <g id="line2d_42">
      <g>
       <use xlink:href="#maff41f7353" x="230.415354" y="23.260869" style="stroke: #000000; stroke-width: 0.6"/>
      </g>
     </g>
    </g>
   </g>
   <g id="line2d_43">
    <path d="M 230.415354 172.799701 
L 244.835987 144.067265 
L 259.461402 115.602135 
L 269.918264 96.059233 
L 279.503777 79.005307 
L 288.082054 64.635397 
L 291.543108 59.118424 
L 296.695877 51.242512 
L 304.395361 40.315294 
L 309.271879 33.980278 
L 315.715569 26.396963 
L 320.988932 20.933223 
L 325.976227 16.450723 
L 328.398756 14.534451 
L 331.321819 12.465772 
L 337.006958 9.265865 
L 341.236469 7.65894 
L 343.188793 7.160251 
L 348.07583 6.646154 
L 352.656969 7.212446 
L 355.524413 8.142262 
L 359.9471 10.549894 
L 360.883628 11.224634 
L 365.65398 15.664013 
L 367.220247 17.521124 
L 371.901473 24.43786 
L 373.951622 28.198756 
L 376.089776 32.672294 
L 379.549923 41.299341 
L 381.14073 45.941284 
L 382.551477 50.476808 
L 386.205645 64.478753 
L 388.221836 74.018353 
L 389.620862 81.680086 
L 391.341229 92.695517 
L 393.590182 111.274464 
L 394.684001 123.444343 
L 395.352694 132.948417 
L 395.990409 145.173517 
L 396.353163 155.865253 
L 396.51664 164.411859 
L 396.538887 179.188875 
L 396.246868 193.461802 
L 395.247494 214.304726 
L 394.340331 226.324513 
L 393.118497 238.777524 
L 392.136314 247.016563 
L 390.223004 260.292104 
L 388.684836 269.153021 
L 386.088502 281.629388 
L 384.659758 287.489953 
L 381.553511 298.374092 
L 378.572006 306.929964 
L 375.35737 314.526999 
L 371.513747 321.819203 
L 370.207818 323.916472 
L 368.227164 326.76973 
L 364.28968 331.385188 
L 360.393732 334.735296 
L 357.54182 336.51273 
L 354.283297 337.917157 
L 348.935517 338.928124 
L 347.972598 338.953846 
L 340.631737 337.753989 
L 336.375567 336.034943 
L 331.257356 333.090986 
L 327.614799 330.464344 
L 322.758304 326.336204 
L 317.123753 320.730182 
L 312.297275 315.296982 
L 308.020587 310.040168 
L 300.723736 300.206794 
L 293.52245 289.555957 
L 284.267888 274.690724 
L 279.011055 265.741278 
L 270.217274 250.085836 
L 265.142287 240.71966 
L 259.352535 229.789605 
L 249.99994 211.695827 
L 238.149093 188.250414 
L 210.812826 133.868444 
L 207.332661 127.081974 
L 199.098911 111.289359 
L 191.717094 97.531637 
L 183.973507 83.618104 
L 176.771413 71.257299 
L 171.741887 63.012773 
L 166.967053 55.519501 
L 160.148871 45.451989 
L 153.733779 36.745749 
L 147.963242 29.632107 
L 144.317665 25.525808 
L 140.909796 21.982055 
L 133.03788 14.997006 
L 130.820512 13.360166 
L 127.546321 11.233958 
L 120.672362 8.001705 
L 119.804318 7.722032 
L 115.531067 6.805226 
L 109.478832 6.940326 
L 108.544282 7.125867 
L 104.509165 8.485729 
L 99.250258 11.766599 
L 96.881786 13.875479 
L 92.926212 18.400271 
L 91.250172 20.737824 
L 88.009453 26.064871 
L 86.095593 29.769237 
L 81.39094 40.994953 
L 78.429629 49.972974 
L 77.485019 53.223369 
L 75.837125 59.424488 
L 74.295157 65.936321 
L 71.626606 79.292891 
L 70.504029 85.954757 
L 68.712765 98.439762 
L 67.958172 104.639955 
L 66.434248 119.930429 
L 65.170188 138.275226 
L 64.649381 150.14774 
L 64.360798 161.296323 
L 64.261113 172.946825 
L 64.447111 188.502123 
L 64.783347 199.04378 
L 65.392424 211.248885 
L 66.59716 227.54689 
L 68.069787 241.921397 
L 69.598888 253.669114 
L 71.722816 266.844285 
L 73.060837 273.858865 
L 75.258697 283.819552 
L 77.044594 290.787844 
L 81.199722 304.074707 
L 83.770888 310.69295 
L 85.926827 315.481702 
L 89.864226 322.719878 
L 92.868185 327.122618 
L 95.487849 330.279426 
L 98.007711 332.779032 
L 101.722434 335.603039 
L 104.572036 337.142154 
L 107.688207 338.26214 
L 111.583249 338.910014 
L 118.326363 338.282544 
L 126.359922 335.046237 
L 132.478238 331.030019 
L 134.944911 329.073735 
L 142.121636 322.391069 
L 146.932575 317.160003 
L 152.327515 310.65306 
L 161.232171 298.60116 
L 167.667191 289.002825 
L 171.978423 282.20669 
L 177.749695 272.699723 
L 186.422535 257.645249 
L 195.756599 240.59239 
L 201.854274 229.071614 
L 217.547218 198.458674 
L 230.415354 172.799701 
L 230.415354 172.799701 
" clip-path="url(#p6f108ceb49)" style="fill: none; stroke: #0066ff; stroke-linecap: square"/>
   </g>
   <g id="patch_3">
    <path d="M 230.415354 345.6 
L 230.415354 0 
" style="fill: none; stroke: #000000; stroke-width: 0.8; stroke-linejoin: miter; stroke-linecap: square"/>
   </g>
   <g id="patch_4">
    <path d="M 57.615557 172.799701 
L 403.184443 172.799701 
" style="fill: none; stroke: #000000; stroke-width: 0.8; stroke-linejoin: miter; stroke-linecap: square"/>
   </g>
  </g>
 </g>
 <defs>
  <clipPath id="p6f108ceb49">
   <rect x="57.615557" y="0" width="345.568886" height="345.6"/>
  </clipPath>
 </defs>
</svg>
