<?xml version="1.0" encoding="utf-8" standalone="no"?>
<!DOCTYPE svg PUBLIC "-//W3C//DTD SVG 1.1//EN"
  "http://www.w3.org/Graphics/SVG/1.1/DTD/svg11.dtd">
<svg xmlns:xlink="http://www.w3.org/1999/xlink" width="460.8pt" height="345.6pt" viewBox="0 0 460.8 345.6" xmlns="http://www.w3.org/2000/svg" version="1.1">
 <metadata>
  <rdf:RDF xmlns:dc="http://purl.org/dc/elements/1.1/" xmlns:cc="http://creativecommons.org/ns#" xmlns:rdf="http://www.w3.org/1999/02/22-rdf-syntax-ns#">
   <cc:Work>
    <dc:type rdf:resource="http://purl.org/dc/dcmitype/StillImage"/>
    <dc:date>2025-08-02T22:46:07.790455</dc:date>
    <dc:format>image/svg+xml</dc:format>
    <dc:creator>
     <cc:Agent>
      <dc:title>Matplotlib v3.10.3, https://matplotlib.org/</dc:title>
     </cc:Agent>
    </dc:creator>
   </cc:Work>
  </rdf:RDF>
 </metadata>
 <defs>
  <style type="text/css">*{stroke-linejoin: round; stroke-linecap: butt}</style>
 </defs>
 <g id="figure_1">
  <g id="patch_1">
   <path d="M 0 345.6 
L 460.8 345.6 
L 460.8 0 
L 0 0 
z
" style="fill: #ffffff"/>
  </g>
  <g id="axes_1">
   <g id="patch_2">
    <path d="M 42.1 150.317792 
L 225 150.317792 
L 225 12.434187 
L 42.1 12.434187 
z
" style="fill: #ffffff"/>
   </g>
   <g id="patch_3">
    <path d="M 45.617308 81.376165 
L 45.617308 81.376165 
L 46.930184 84.484422 
L 47.143542 84.989087 
L 47.893165 86.760337 
L 48.722942 88.716424 
L 50.127476 92.01182 
L 50.874784 93.754807 
L 52.174177 96.76372 
L 52.691975 97.953867 
L 53.189393 99.091837 
L 54.707512 102.528807 
L 55.248428 103.73891 
L 56.459254 106.416751 
L 57.468945 108.614148 
L 57.673013 109.054051 
L 58.678665 111.199959 
L 59.820623 113.589898 
L 60.496611 114.979624 
L 61.922523 117.845835 
L 62.59347 119.162204 
L 63.242798 120.415493 
L 64.547719 122.869951 
L 65.135096 123.945646 
L 65.636462 124.849013 
L 67.25609 127.670525 
L 68.066838 129.025277 
L 68.868014 130.324768 
L 69.051917 130.617434 
L 70.035845 132.146855 
L 70.894364 133.430153 
L 71.905745 134.879034 
L 73.419148 136.91608 
L 74.246 137.960813 
L 74.546563 138.328386 
L 75.967537 139.976559 
L 76.531917 140.589504 
L 77.287278 141.37215 
L 78.006523 142.076775 
L 79.450769 143.370176 
L 80.095208 143.894252 
L 80.945907 144.535272 
L 82.136321 145.334219 
L 83.15726 145.92733 
L 83.623862 146.169852 
L 84.486195 146.570626 
L 85.549571 146.979603 
L 86.11569 147.158747 
L 87.186873 147.424032 
L 88.413518 147.609004 
L 88.956627 147.650291 
L 89.451408 147.666184 
L 90.752128 147.609168 
L 91.628844 147.490037 
L 92.737296 147.246597 
L 93.00068 147.173547 
L 93.784256 146.921798 
L 94.567833 146.618683 
L 94.731057 146.549099 
L 96.06765 145.896145 
L 96.926605 145.398778 
L 97.585579 144.976313 
L 98.704099 144.178671 
L 99.357245 143.666435 
L 100.713371 142.494902 
L 101.673724 141.578335 
L 101.937533 141.314099 
L 102.878367 140.328557 
L 103.979893 139.090134 
L 105.081179 137.762637 
L 106.052294 136.519563 
L 107.036335 135.192245 
L 107.818475 134.089737 
L 108.146887 133.614485 
L 108.816649 132.623042 
L 109.858478 131.022728 
L 111.436108 128.469214 
L 111.668735 128.079834 
L 112.346685 126.926757 
L 113.386605 125.106337 
L 114.549429 122.999408 
L 115.530456 121.165867 
L 116.599816 119.111634 
L 116.765952 118.787469 
L 118.360593 115.61064 
L 119.052609 114.196829 
L 119.470118 113.334086 
L 120.962707 110.193006 
L 121.990375 107.982157 
L 122.736772 106.353762 
L 123.087636 105.582081 
L 123.848754 103.89519 
L 125.452645 100.287442 
L 126.103921 98.80408 
L 127.138932 96.42763 
L 128.028469 94.368631 
L 128.346023 93.630307 
L 129.322769 91.349863 
L 130.740509 88.018958 
L 131.248505 86.820854 
L 131.978222 85.096786 
L 132.803995 83.142783 
L 133.555128 81.364021 
L 135.144762 77.601195 
L 136.174815 75.168699 
L 136.806012 73.682052 
L 137.543431 71.950234 
L 138.483964 69.751057 
L 139.656364 67.028387 
L 140.61448 64.821825 
L 140.875251 64.224513 
L 141.537235 62.715004 
L 142.866397 59.716511 
L 143.606926 58.066686 
L 144.664859 55.738304 
L 145.254032 54.457271 
L 146.328455 52.15227 
L 147.558453 49.566563 
L 147.714375 49.243067 
L 148.636122 47.351398 
L 150.108952 44.406171 
L 151.215162 42.260941 
L 151.412349 41.884864 
L 152.851709 39.200248 
L 153.462427 38.094462 
L 154.071774 37.011693 
L 154.924052 35.532635 
L 155.947087 33.813487 
L 157.172204 31.838545 
L 157.561569 31.230568 
L 159.011617 29.052655 
L 159.801151 27.925484 
L 160.472233 27.000821 
L 161.353081 25.834646 
L 162.114148 24.871305 
L 162.921309 23.895279 
L 163.696351 23.003064 
L 164.471394 22.155604 
L 165.189906 21.4105 
L 166.108602 20.515427 
L 166.263195 20.371228 
L 167.139042 19.589534 
L 168.014888 18.868334 
L 168.334246 18.620556 
L 169.365133 17.876632 
L 170.179685 17.34969 
L 170.668017 17.059754 
L 171.531028 16.595281 
L 172.39404 16.192389 
L 173.238132 15.858267 
L 173.834122 15.658224 
L 174.684402 15.424423 
L 175.886888 15.197708 
L 176.375432 15.14047 
L 177.420535 15.085795 
L 178.201224 15.10525 
L 178.632188 15.138077 
L 179.468487 15.24657 
L 180.304786 15.414095 
L 180.681761 15.508874 
L 182.048768 15.952635 
L 182.855901 16.287988 
L 183.438099 16.5635 
L 184.310683 17.028897 
L 184.85952 17.353689 
L 185.710978 17.906234 
L 186.562436 18.517508 
L 186.935874 18.80399 
L 188.154851 19.816359 
L 188.413942 20.046648 
L 189.673235 21.240418 
L 190.901213 22.521727 
L 191.488082 23.174243 
L 192.251333 24.061104 
L 193.151598 25.161894 
L 194.339948 26.703782 
L 194.607231 27.064258 
L 196.070048 29.123951 
L 196.955632 30.440596 
L 197.958846 31.993648 
L 198.944592 33.581455 
L 199.530453 34.553354 
L 200.065341 35.458617 
L 201.449057 37.877431 
L 202.237126 39.302918 
L 202.802098 40.345449 
L 203.748253 42.128593 
L 204.94441 44.446815 
L 205.462264 45.471616 
L 206.623283 47.813329 
L 207.112705 48.818005 
L 208.019071 50.704627 
L 209.176344 53.159996 
L 209.854523 54.621561 
L 211.133699 57.420413 
L 211.738041 58.76048 
L 212.577418 60.63907 
L 213.189474 62.020753 
L 214.401799 64.784186 
L 215.090809 66.368954 
L 216.317219 69.211655 
L 217.177805 71.220679 
L 217.84111 72.775805 
L 218.436294 74.175355 
L 219.854692 77.522606 
L 220.418637 78.856679 
L 221.482692 81.376165 
L 221.482692 81.376165 
z
" clip-path="url(#pb490513759)" style="fill: #808080; opacity: 0.5"/>
   </g>
   <g id="matplotlib.axis_1">
    <g id="xtick_1">
     <g id="line2d_1">
      <defs>
       <path id="mc28107a0b8" d="M 0 0 
L 0 3.5 
" style="stroke: #000000; stroke-width: 0.8"/>
      </defs>
      <g>
       <use xlink:href="#mc28107a0b8" x="49.580464" y="150.317792" style="stroke: #000000; stroke-width: 0.8"/>
      </g>
     </g>
     <g id="text_1">
      <!-- −3 -->
      <g transform="translate(42.20937 164.91623) scale(0.1 -0.1)">
       <defs>
        <path id="DejaVuSans-2212" d="M 678 2272 
L 4684 2272 
L 4684 1741 
L 678 1741 
L 678 2272 
z
" transform="scale(0.015625)"/>
        <path id="DejaVuSans-33" d="M 2597 2516 
Q 3050 2419 3304 2112 
Q 3559 1806 3559 1356 
Q 3559 666 3084 287 
Q 2609 -91 1734 -91 
Q 1441 -91 1130 -33 
Q 819 25 488 141 
L 488 750 
Q 750 597 1062 519 
Q 1375 441 1716 441 
Q 2309 441 2620 675 
Q 2931 909 2931 1356 
Q 2931 1769 2642 2001 
Q 2353 2234 1838 2234 
L 1294 2234 
L 1294 2753 
L 1863 2753 
Q 2328 2753 2575 2939 
Q 2822 3125 2822 3475 
Q 2822 3834 2567 4026 
Q 2313 4219 1838 4219 
Q 1578 4219 1281 4162 
Q 984 4106 628 3988 
L 628 4550 
Q 988 4650 1302 4700 
Q 1616 4750 1894 4750 
Q 2613 4750 3031 4423 
Q 3450 4097 3450 3541 
Q 3450 3153 3228 2886 
Q 3006 2619 2597 2516 
z
" transform="scale(0.015625)"/>
       </defs>
       <use xlink:href="#DejaVuSans-2212"/>
       <use xlink:href="#DejaVuSans-33" transform="translate(83.789062 0)"/>
      </g>
     </g>
    </g>
    <g id="xtick_2">
     <g id="line2d_2">
      <g>
       <use xlink:href="#mc28107a0b8" x="77.570309" y="150.317792" style="stroke: #000000; stroke-width: 0.8"/>
      </g>
     </g>
     <g id="text_2">
      <!-- −2 -->
      <g transform="translate(70.199216 164.91623) scale(0.1 -0.1)">
       <defs>
        <path id="DejaVuSans-32" d="M 1228 531 
L 3431 531 
L 3431 0 
L 469 0 
L 469 531 
Q 828 903 1448 1529 
Q 2069 2156 2228 2338 
Q 2531 2678 2651 2914 
Q 2772 3150 2772 3378 
Q 2772 3750 2511 3984 
Q 2250 4219 1831 4219 
Q 1534 4219 1204 4116 
Q 875 4013 500 3803 
L 500 4441 
Q 881 4594 1212 4672 
Q 1544 4750 1819 4750 
Q 2544 4750 2975 4387 
Q 3406 4025 3406 3419 
Q 3406 3131 3298 2873 
Q 3191 2616 2906 2266 
Q 2828 2175 2409 1742 
Q 1991 1309 1228 531 
z
" transform="scale(0.015625)"/>
       </defs>
       <use xlink:href="#DejaVuSans-2212"/>
       <use xlink:href="#DejaVuSans-32" transform="translate(83.789062 0)"/>
      </g>
     </g>
    </g>
    <g id="xtick_3">
     <g id="line2d_3">
      <g>
       <use xlink:href="#mc28107a0b8" x="105.560155" y="150.317792" style="stroke: #000000; stroke-width: 0.8"/>
      </g>
     </g>
     <g id="text_3">
      <!-- −1 -->
      <g transform="translate(98.189061 164.91623) scale(0.1 -0.1)">
       <defs>
        <path id="DejaVuSans-31" d="M 794 531 
L 1825 531 
L 1825 4091 
L 703 3866 
L 703 4441 
L 1819 4666 
L 2450 4666 
L 2450 531 
L 3481 531 
L 3481 0 
L 794 0 
L 794 531 
z
" transform="scale(0.015625)"/>
       </defs>
       <use xlink:href="#DejaVuSans-2212"/>
       <use xlink:href="#DejaVuSans-31" transform="translate(83.789062 0)"/>
      </g>
     </g>
    </g>
    <g id="xtick_4">
     <g id="line2d_4">
      <g>
       <use xlink:href="#mc28107a0b8" x="133.55" y="150.317792" style="stroke: #000000; stroke-width: 0.8"/>
      </g>
     </g>
     <g id="text_4">
      <!-- 0 -->
      <g transform="translate(130.36875 164.91623) scale(0.1 -0.1)">
       <defs>
        <path id="DejaVuSans-30" d="M 2034 4250 
Q 1547 4250 1301 3770 
Q 1056 3291 1056 2328 
Q 1056 1369 1301 889 
Q 1547 409 2034 409 
Q 2525 409 2770 889 
Q 3016 1369 3016 2328 
Q 3016 3291 2770 3770 
Q 2525 4250 2034 4250 
z
M 2034 4750 
Q 2819 4750 3233 4129 
Q 3647 3509 3647 2328 
Q 3647 1150 3233 529 
Q 2819 -91 2034 -91 
Q 1250 -91 836 529 
Q 422 1150 422 2328 
Q 422 3509 836 4129 
Q 1250 4750 2034 4750 
z
" transform="scale(0.015625)"/>
       </defs>
       <use xlink:href="#DejaVuSans-30"/>
      </g>
     </g>
    </g>
    <g id="xtick_5">
     <g id="line2d_5">
      <g>
       <use xlink:href="#mc28107a0b8" x="161.539845" y="150.317792" style="stroke: #000000; stroke-width: 0.8"/>
      </g>
     </g>
     <g id="text_5">
      <!-- 1 -->
      <g transform="translate(158.358595 164.91623) scale(0.1 -0.1)">
       <use xlink:href="#DejaVuSans-31"/>
      </g>
     </g>
    </g>
    <g id="xtick_6">
     <g id="line2d_6">
      <g>
       <use xlink:href="#mc28107a0b8" x="189.529691" y="150.317792" style="stroke: #000000; stroke-width: 0.8"/>
      </g>
     </g>
     <g id="text_6">
      <!-- 2 -->
      <g transform="translate(186.348441 164.91623) scale(0.1 -0.1)">
       <use xlink:href="#DejaVuSans-32"/>
      </g>
     </g>
    </g>
    <g id="xtick_7">
     <g id="line2d_7">
      <g>
       <use xlink:href="#mc28107a0b8" x="217.519536" y="150.317792" style="stroke: #000000; stroke-width: 0.8"/>
      </g>
     </g>
     <g id="text_7">
      <!-- 3 -->
      <g transform="translate(214.338286 164.91623) scale(0.1 -0.1)">
       <use xlink:href="#DejaVuSans-33"/>
      </g>
     </g>
    </g>
    <g id="xtick_8">
     <g id="line2d_8">
      <defs>
       <path id="maeeddbe4f9" d="M 0 0 
L 0 2 
" style="stroke: #000000; stroke-width: 0.6"/>
      </defs>
      <g>
       <use xlink:href="#maeeddbe4f9" x="43.982495" y="150.317792" style="stroke: #000000; stroke-width: 0.6"/>
      </g>
     </g>
    </g>
    <g id="xtick_9">
     <g id="line2d_9">
      <g>
       <use xlink:href="#maeeddbe4f9" x="55.178433" y="150.317792" style="stroke: #000000; stroke-width: 0.6"/>
      </g>
     </g>
    </g>
    <g id="xtick_10">
     <g id="line2d_10">
      <g>
       <use xlink:href="#maeeddbe4f9" x="60.776402" y="150.317792" style="stroke: #000000; stroke-width: 0.6"/>
      </g>
     </g>
    </g>
    <g id="xtick_11">
     <g id="line2d_11">
      <g>
       <use xlink:href="#maeeddbe4f9" x="66.374371" y="150.317792" style="stroke: #000000; stroke-width: 0.6"/>
      </g>
     </g>
    </g>
    <g id="xtick_12">
     <g id="line2d_12">
      <g>
       <use xlink:href="#maeeddbe4f9" x="71.97234" y="150.317792" style="stroke: #000000; stroke-width: 0.6"/>
      </g>
     </g>
    </g>
    <g id="xtick_13">
     <g id="line2d_13">
      <g>
       <use xlink:href="#maeeddbe4f9" x="83.168278" y="150.317792" style="stroke: #000000; stroke-width: 0.6"/>
      </g>
     </g>
    </g>
    <g id="xtick_14">
     <g id="line2d_14">
      <g>
       <use xlink:href="#maeeddbe4f9" x="88.766248" y="150.317792" style="stroke: #000000; stroke-width: 0.6"/>
      </g>
     </g>
    </g>
    <g id="xtick_15">
     <g id="line2d_15">
      <g>
       <use xlink:href="#maeeddbe4f9" x="94.364217" y="150.317792" style="stroke: #000000; stroke-width: 0.6"/>
      </g>
     </g>
    </g>
    <g id="xtick_16">
     <g id="line2d_16">
      <g>
       <use xlink:href="#maeeddbe4f9" x="99.962186" y="150.317792" style="stroke: #000000; stroke-width: 0.6"/>
      </g>
     </g>
    </g>
    <g id="xtick_17">
     <g id="line2d_17">
      <g>
       <use xlink:href="#maeeddbe4f9" x="111.158124" y="150.317792" style="stroke: #000000; stroke-width: 0.6"/>
      </g>
     </g>
    </g>
    <g id="xtick_18">
     <g id="line2d_18">
      <g>
       <use xlink:href="#maeeddbe4f9" x="116.756093" y="150.317792" style="stroke: #000000; stroke-width: 0.6"/>
      </g>
     </g>
    </g>
    <g id="xtick_19">
     <g id="line2d_19">
      <g>
       <use xlink:href="#maeeddbe4f9" x="122.354062" y="150.317792" style="stroke: #000000; stroke-width: 0.6"/>
      </g>
     </g>
    </g>
    <g id="xtick_20">
     <g id="line2d_20">
      <g>
       <use xlink:href="#maeeddbe4f9" x="127.952031" y="150.317792" style="stroke: #000000; stroke-width: 0.6"/>
      </g>
     </g>
    </g>
    <g id="xtick_21">
     <g id="line2d_21">
      <g>
       <use xlink:href="#maeeddbe4f9" x="139.147969" y="150.317792" style="stroke: #000000; stroke-width: 0.6"/>
      </g>
     </g>
    </g>
    <g id="xtick_22">
     <g id="line2d_22">
      <g>
       <use xlink:href="#maeeddbe4f9" x="144.745938" y="150.317792" style="stroke: #000000; stroke-width: 0.6"/>
      </g>
     </g>
    </g>
    <g id="xtick_23">
     <g id="line2d_23">
      <g>
       <use xlink:href="#maeeddbe4f9" x="150.343907" y="150.317792" style="stroke: #000000; stroke-width: 0.6"/>
      </g>
     </g>
    </g>
    <g id="xtick_24">
     <g id="line2d_24">
      <g>
       <use xlink:href="#maeeddbe4f9" x="155.941876" y="150.317792" style="stroke: #000000; stroke-width: 0.6"/>
      </g>
     </g>
    </g>
    <g id="xtick_25">
     <g id="line2d_25">
      <g>
       <use xlink:href="#maeeddbe4f9" x="167.137814" y="150.317792" style="stroke: #000000; stroke-width: 0.6"/>
      </g>
     </g>
    </g>
    <g id="xtick_26">
     <g id="line2d_26">
      <g>
       <use xlink:href="#maeeddbe4f9" x="172.735783" y="150.317792" style="stroke: #000000; stroke-width: 0.6"/>
      </g>
     </g>
    </g>
    <g id="xtick_27">
     <g id="line2d_27">
      <g>
       <use xlink:href="#maeeddbe4f9" x="178.333752" y="150.317792" style="stroke: #000000; stroke-width: 0.6"/>
      </g>
     </g>
    </g>
    <g id="xtick_28">
     <g id="line2d_28">
      <g>
       <use xlink:href="#maeeddbe4f9" x="183.931722" y="150.317792" style="stroke: #000000; stroke-width: 0.6"/>
      </g>
     </g>
    </g>
    <g id="xtick_29">
     <g id="line2d_29">
      <g>
       <use xlink:href="#maeeddbe4f9" x="195.12766" y="150.317792" style="stroke: #000000; stroke-width: 0.6"/>
      </g>
     </g>
    </g>
    <g id="xtick_30">
     <g id="line2d_30">
      <g>
       <use xlink:href="#maeeddbe4f9" x="200.725629" y="150.317792" style="stroke: #000000; stroke-width: 0.6"/>
      </g>
     </g>
    </g>
    <g id="xtick_31">
     <g id="line2d_31">
      <g>
       <use xlink:href="#maeeddbe4f9" x="206.323598" y="150.317792" style="stroke: #000000; stroke-width: 0.6"/>
      </g>
     </g>
    </g>
    <g id="xtick_32">
     <g id="line2d_32">
      <g>
       <use xlink:href="#maeeddbe4f9" x="211.921567" y="150.317792" style="stroke: #000000; stroke-width: 0.6"/>
      </g>
     </g>
    </g>
    <g id="xtick_33">
     <g id="line2d_33">
      <g>
       <use xlink:href="#maeeddbe4f9" x="223.117505" y="150.317792" style="stroke: #000000; stroke-width: 0.6"/>
      </g>
     </g>
    </g>
   </g>
   <g id="matplotlib.axis_2">
    <g id="ytick_1">
     <g id="line2d_34">
      <defs>
       <path id="m8d307cf076" d="M 0 0 
L -3.5 0 
" style="stroke: #000000; stroke-width: 0.8"/>
      </defs>
      <g>
       <use xlink:href="#m8d307cf076" x="42.1" y="147.666924" style="stroke: #000000; stroke-width: 0.8"/>
      </g>
     </g>
     <g id="text_8">
      <!-- −1.0 -->
      <g transform="translate(10.817188 151.466143) scale(0.1 -0.1)">
       <defs>
        <path id="DejaVuSans-2e" d="M 684 794 
L 1344 794 
L 1344 0 
L 684 0 
L 684 794 
z
" transform="scale(0.015625)"/>
       </defs>
       <use xlink:href="#DejaVuSans-2212"/>
       <use xlink:href="#DejaVuSans-31" transform="translate(83.789062 0)"/>
       <use xlink:href="#DejaVuSans-2e" transform="translate(147.412109 0)"/>
       <use xlink:href="#DejaVuSans-30" transform="translate(179.199219 0)"/>
      </g>
     </g>
    </g>
    <g id="ytick_2">
     <g id="line2d_35">
      <g>
       <use xlink:href="#m8d307cf076" x="42.1" y="114.521545" style="stroke: #000000; stroke-width: 0.8"/>
      </g>
     </g>
     <g id="text_9">
      <!-- −0.5 -->
      <g transform="translate(10.817188 118.320764) scale(0.1 -0.1)">
       <defs>
        <path id="DejaVuSans-35" d="M 691 4666 
L 3169 4666 
L 3169 4134 
L 1269 4134 
L 1269 2991 
Q 1406 3038 1543 3061 
Q 1681 3084 1819 3084 
Q 2600 3084 3056 2656 
Q 3513 2228 3513 1497 
Q 3513 744 3044 326 
Q 2575 -91 1722 -91 
Q 1428 -91 1123 -41 
Q 819 9 494 109 
L 494 744 
Q 775 591 1075 516 
Q 1375 441 1709 441 
Q 2250 441 2565 725 
Q 2881 1009 2881 1497 
Q 2881 1984 2565 2268 
Q 2250 2553 1709 2553 
Q 1456 2553 1204 2497 
Q 953 2441 691 2322 
L 691 4666 
z
" transform="scale(0.015625)"/>
       </defs>
       <use xlink:href="#DejaVuSans-2212"/>
       <use xlink:href="#DejaVuSans-30" transform="translate(83.789062 0)"/>
       <use xlink:href="#DejaVuSans-2e" transform="translate(147.412109 0)"/>
       <use xlink:href="#DejaVuSans-35" transform="translate(179.199219 0)"/>
      </g>
     </g>
    </g>
    <g id="ytick_3">
     <g id="line2d_36">
      <g>
       <use xlink:href="#m8d307cf076" x="42.1" y="81.376165" style="stroke: #000000; stroke-width: 0.8"/>
      </g>
     </g>
     <g id="text_10">
      <!-- 0.0 -->
      <g transform="translate(19.196875 85.175384) scale(0.1 -0.1)">
       <use xlink:href="#DejaVuSans-30"/>
       <use xlink:href="#DejaVuSans-2e" transform="translate(63.623047 0)"/>
       <use xlink:href="#DejaVuSans-30" transform="translate(95.410156 0)"/>
      </g>
     </g>
    </g>
    <g id="ytick_4">
     <g id="line2d_37">
      <g>
       <use xlink:href="#m8d307cf076" x="42.1" y="48.230786" style="stroke: #000000; stroke-width: 0.8"/>
      </g>
     </g>
     <g id="text_11">
      <!-- 0.5 -->
      <g transform="translate(19.196875 52.030005) scale(0.1 -0.1)">
       <use xlink:href="#DejaVuSans-30"/>
       <use xlink:href="#DejaVuSans-2e" transform="translate(63.623047 0)"/>
       <use xlink:href="#DejaVuSans-35" transform="translate(95.410156 0)"/>
      </g>
     </g>
    </g>
    <g id="ytick_5">
     <g id="line2d_38">
      <g>
       <use xlink:href="#m8d307cf076" x="42.1" y="15.085406" style="stroke: #000000; stroke-width: 0.8"/>
      </g>
     </g>
     <g id="text_12">
      <!-- 1.0 -->
      <g transform="translate(19.196875 18.884625) scale(0.1 -0.1)">
       <use xlink:href="#DejaVuSans-31"/>
       <use xlink:href="#DejaVuSans-2e" transform="translate(63.623047 0)"/>
       <use xlink:href="#DejaVuSans-30" transform="translate(95.410156 0)"/>
      </g>
     </g>
    </g>
    <g id="ytick_6">
     <g id="line2d_39">
      <defs>
       <path id="m1f98dc7f31" d="M 0 0 
L -2 0 
" style="stroke: #000000; stroke-width: 0.6"/>
      </defs>
      <g>
       <use xlink:href="#m1f98dc7f31" x="42.1" y="141.037848" style="stroke: #000000; stroke-width: 0.6"/>
      </g>
     </g>
    </g>
    <g id="ytick_7">
     <g id="line2d_40">
      <g>
       <use xlink:href="#m1f98dc7f31" x="42.1" y="134.408772" style="stroke: #000000; stroke-width: 0.6"/>
      </g>
     </g>
    </g>
    <g id="ytick_8">
     <g id="line2d_41">
      <g>
       <use xlink:href="#m1f98dc7f31" x="42.1" y="127.779697" style="stroke: #000000; stroke-width: 0.6"/>
      </g>
     </g>
    </g>
    <g id="ytick_9">
     <g id="line2d_42">
      <g>
       <use xlink:href="#m1f98dc7f31" x="42.1" y="121.150621" style="stroke: #000000; stroke-width: 0.6"/>
      </g>
     </g>
    </g>
    <g id="ytick_10">
     <g id="line2d_43">
      <g>
       <use xlink:href="#m1f98dc7f31" x="42.1" y="107.892469" style="stroke: #000000; stroke-width: 0.6"/>
      </g>
     </g>
    </g>
    <g id="ytick_11">
     <g id="line2d_44">
      <g>
       <use xlink:href="#m1f98dc7f31" x="42.1" y="101.263393" style="stroke: #000000; stroke-width: 0.6"/>
      </g>
     </g>
    </g>
    <g id="ytick_12">
     <g id="line2d_45">
      <g>
       <use xlink:href="#m1f98dc7f31" x="42.1" y="94.634317" style="stroke: #000000; stroke-width: 0.6"/>
      </g>
     </g>
    </g>
    <g id="ytick_13">
     <g id="line2d_46">
      <g>
       <use xlink:href="#m1f98dc7f31" x="42.1" y="88.005241" style="stroke: #000000; stroke-width: 0.6"/>
      </g>
     </g>
    </g>
    <g id="ytick_14">
     <g id="line2d_47">
      <g>
       <use xlink:href="#m1f98dc7f31" x="42.1" y="74.747089" style="stroke: #000000; stroke-width: 0.6"/>
      </g>
     </g>
    </g>
    <g id="ytick_15">
     <g id="line2d_48">
      <g>
       <use xlink:href="#m1f98dc7f31" x="42.1" y="68.118013" style="stroke: #000000; stroke-width: 0.6"/>
      </g>
     </g>
    </g>
    <g id="ytick_16">
     <g id="line2d_49">
      <g>
       <use xlink:href="#m1f98dc7f31" x="42.1" y="61.488938" style="stroke: #000000; stroke-width: 0.6"/>
      </g>
     </g>
    </g>
    <g id="ytick_17">
     <g id="line2d_50">
      <g>
       <use xlink:href="#m1f98dc7f31" x="42.1" y="54.859862" style="stroke: #000000; stroke-width: 0.6"/>
      </g>
     </g>
    </g>
    <g id="ytick_18">
     <g id="line2d_51">
      <g>
       <use xlink:href="#m1f98dc7f31" x="42.1" y="41.60171" style="stroke: #000000; stroke-width: 0.6"/>
      </g>
     </g>
    </g>
    <g id="ytick_19">
     <g id="line2d_52">
      <g>
       <use xlink:href="#m1f98dc7f31" x="42.1" y="34.972634" style="stroke: #000000; stroke-width: 0.6"/>
      </g>
     </g>
    </g>
    <g id="ytick_20">
     <g id="line2d_53">
      <g>
       <use xlink:href="#m1f98dc7f31" x="42.1" y="28.343558" style="stroke: #000000; stroke-width: 0.6"/>
      </g>
     </g>
    </g>
    <g id="ytick_21">
     <g id="line2d_54">
      <g>
       <use xlink:href="#m1f98dc7f31" x="42.1" y="21.714482" style="stroke: #000000; stroke-width: 0.6"/>
      </g>
     </g>
    </g>
   </g>
   <g id="line2d_55">
    <path d="M 45.617308 81.376165 
L 53.189393 99.091837 
L 57.673013 109.054051 
L 60.496611 114.979624 
L 63.242798 120.415493 
L 65.636462 124.849013 
L 69.051917 130.617434 
L 71.905745 134.879034 
L 74.546563 138.328386 
L 77.287278 141.37215 
L 79.450769 143.370176 
L 80.945907 144.535272 
L 83.15726 145.92733 
L 84.486195 146.570626 
L 86.11569 147.158747 
L 87.186873 147.424032 
L 89.451408 147.666184 
L 91.628844 147.490037 
L 93.784256 146.921798 
L 94.731057 146.549099 
L 96.926605 145.398778 
L 98.704099 144.178671 
L 100.713371 142.494902 
L 102.878367 140.328557 
L 105.081179 137.762637 
L 107.818475 134.089737 
L 109.858478 131.022728 
L 113.386605 125.106337 
L 116.765952 118.787469 
L 120.962707 110.193006 
L 125.452645 100.287442 
L 131.248505 86.820854 
L 141.537235 62.715004 
L 146.328455 52.15227 
L 150.108952 44.406171 
L 153.462427 38.094462 
L 155.947087 33.813487 
L 159.011617 29.052655 
L 161.353081 25.834646 
L 163.696351 23.003064 
L 166.108602 20.515427 
L 168.014888 18.868334 
L 169.365133 17.876632 
L 171.531028 16.595281 
L 173.238132 15.858267 
L 174.684402 15.424423 
L 176.375432 15.14047 
L 178.201224 15.10525 
L 179.468487 15.24657 
L 180.681761 15.508874 
L 182.855901 16.287988 
L 184.85952 17.353689 
L 186.935874 18.80399 
L 188.413942 20.046648 
L 190.901213 22.521727 
L 193.151598 25.161894 
L 196.070048 29.123951 
L 198.944592 33.581455 
L 201.449057 37.877431 
L 203.748253 42.128593 
L 207.112705 48.818005 
L 211.133699 57.420413 
L 215.090809 66.368954 
L 221.482692 81.376165 
L 221.482692 81.376165 
" clip-path="url(#pb490513759)" style="fill: none; stroke: #0000ff; stroke-linecap: square"/>
   </g>
   <g id="patch_4">
    <path d="M 42.1 150.317792 
L 42.1 12.434187 
" style="fill: none; stroke: #000000; stroke-width: 0.8; stroke-linejoin: miter; stroke-linecap: square"/>
   </g>
   <g id="patch_5">
    <path d="M 225 150.317792 
L 225 12.434187 
" style="fill: none; stroke: #000000; stroke-width: 0.8; stroke-linejoin: miter; stroke-linecap: square"/>
   </g>
   <g id="patch_6">
    <path d="M 42.1 150.317792 
L 225 150.317792 
" style="fill: none; stroke: #000000; stroke-width: 0.8; stroke-linejoin: miter; stroke-linecap: square"/>
   </g>
   <g id="patch_7">
    <path d="M 42.1 12.434187 
L 225 12.434187 
" style="fill: none; stroke: #000000; stroke-width: 0.8; stroke-linejoin: miter; stroke-linecap: square"/>
   </g>
  </g>
  <g id="axes_2">
   <g id="patch_8">
    <path d="M 267.1 150.317792 
L 450 150.317792 
L 450 12.434187 
L 267.1 12.434187 
z
" style="fill: #ffffff"/>
   </g>
   <g id="patch_9">
    <path d="M 270.617308 147.666184 
L 270.617308 81.380863 
L 271.59164 83.688146 
L 272.229188 85.196561 
L 273.012198 87.046346 
L 274.421011 90.362395 
L 274.663587 90.931306 
L 275.83174 93.660155 
L 277.128968 96.665265 
L 277.600717 97.7503 
L 278.675868 100.205309 
L 279.317534 101.657492 
L 280.521647 104.353217 
L 281.125987 105.69048 
L 282.270354 108.191143 
L 283.267282 110.333249 
L 284.068457 112.028247 
L 284.481025 112.891386 
L 285.978574 115.965539 
L 286.95144 117.910131 
L 287.116584 118.235907 
L 288.187021 120.315935 
L 288.995228 121.848846 
L 290.053858 123.805493 
L 291.291654 126.01614 
L 291.917475 127.100874 
L 292.694507 128.415834 
L 293.861192 130.32182 
L 294.345419 131.08811 
L 295.279703 132.524375 
L 295.940581 133.50602 
L 296.750813 134.669804 
L 297.798282 136.108035 
L 298.531285 137.069024 
L 299.541093 138.330236 
L 300.233357 139.152123 
L 301.059171 140.086303 
L 301.884985 140.969385 
L 302.088586 141.179164 
L 303.283612 142.346309 
L 304.533391 143.448031 
L 304.919304 143.76332 
L 305.96069 144.554792 
L 307.017917 145.268853 
L 307.37132 145.487266 
L 308.375966 146.052237 
L 309.135412 146.424062 
L 309.894858 146.748006 
L 310.727998 147.048025 
L 311.172918 147.184429 
L 312.125357 147.420498 
L 313.085721 147.581112 
L 314.101345 147.666184 
L 315.172475 147.661357 
L 315.539458 147.637377 
L 316.474062 147.52488 
L 317.137817 147.400193 
L 317.844356 147.226679 
L 318.550895 147.011211 
L 319.476546 146.665667 
L 319.996307 146.440314 
L 320.592608 146.154148 
L 321.5469 145.635072 
L 322.362234 145.132393 
L 323.177569 144.575621 
L 323.598017 144.267522 
L 324.49001 143.566985 
L 325.158309 143.000706 
L 326.441997 141.814738 
L 327.531697 140.708149 
L 327.737688 140.488808 
L 329.120755 138.933801 
L 329.864408 138.039362 
L 330.763253 136.904942 
L 331.284974 136.220147 
L 332.664681 134.318019 
L 333.277273 133.431959 
L 333.904473 132.498942 
L 335.157988 130.557798 
L 335.724541 129.647857 
L 336.981396 127.559181 
L 337.510631 126.651579 
L 338.935783 124.127999 
L 339.628114 122.861656 
L 340.091272 122.000277 
L 340.893169 120.482754 
L 341.789067 118.749442 
L 343.403922 115.529689 
L 344.00539 114.300831 
L 345.262775 111.68344 
L 345.705844 110.746298 
L 346.673991 108.673275 
L 347.90243 105.996232 
L 348.818688 103.968349 
L 349.362336 102.753553 
L 349.942244 101.448858 
L 351.270549 98.428846 
L 351.894078 96.997544 
L 353.117736 94.166794 
L 353.550744 93.158961 
L 354.831519 90.162362 
L 355.29494 89.073246 
L 356.394272 86.481751 
L 357.568799 83.704405 
L 358.445047 81.629449 
L 359.12204 80.026055 
L 360.248182 77.361113 
L 360.900808 75.819417 
L 361.918302 73.422136 
L 362.409731 72.267869 
L 363.740513 69.157249 
L 364.691399 66.951128 
L 364.989544 66.262722 
L 365.767535 64.474639 
L 367.171656 61.281493 
L 368.01599 59.38521 
L 368.499355 58.308523 
L 369.995916 55.020002 
L 370.72341 53.448059 
L 370.985463 52.886391 
L 371.99361 50.749313 
L 373.0144 48.625933 
L 373.806177 47.008785 
L 375.318344 43.997785 
L 375.90787 42.853012 
L 376.982166 40.811189 
L 377.382532 40.065374 
L 378.086004 38.775491 
L 379.414207 36.414119 
L 380.424356 34.685705 
L 380.732138 34.171061 
L 382.227387 31.753194 
L 382.721717 30.984661 
L 384.17509 28.817032 
L 384.286906 28.656062 
L 385.582148 26.853413 
L 386.279259 25.931299 
L 387.292867 24.652046 
L 388.278649 23.479249 
L 389.267008 22.375482 
L 389.534224 22.089642 
L 390.376324 21.224319 
L 391.218425 20.413443 
L 391.855229 19.836856 
L 393.001976 18.879069 
L 393.553551 18.455651 
L 394.218938 17.977398 
L 394.939678 17.499792 
L 395.660419 17.06454 
L 395.874356 16.94354 
L 396.624398 16.549104 
L 398.037513 15.932641 
L 398.46771 15.778026 
L 399.664905 15.429419 
L 400.955567 15.188743 
L 401.309842 15.14728 
L 402.563815 15.085795 
L 402.964453 15.094195 
L 403.949463 15.172579 
L 405.04947 15.35701 
L 405.426621 15.443736 
L 406.461881 15.743271 
L 407.199409 16.011457 
L 407.936937 16.325027 
L 408.609365 16.650288 
L 409.074508 16.897154 
L 409.79737 17.316113 
L 410.520232 17.777799 
L 410.743893 17.929258 
L 411.504465 18.474557 
L 412.265036 19.0663 
L 412.55887 19.307256 
L 413.74275 20.34711 
L 415.057275 21.629539 
L 415.310168 21.891462 
L 416.059181 22.69563 
L 416.808194 23.541821 
L 417.020554 23.789296 
L 417.828197 24.760642 
L 418.63584 25.779126 
L 419.413571 26.80365 
L 419.711955 27.207947 
L 420.569863 28.404509 
L 421.999653 30.508703 
L 422.31727 30.99435 
L 423.496824 32.854211 
L 424.802768 35.01373 
L 425.672537 36.508275 
L 426.08036 37.224057 
L 426.933686 38.7519 
L 427.680276 40.121182 
L 428.387306 41.444987 
L 429.500783 43.581131 
L 431.016547 46.5845 
L 431.285148 47.127611 
L 432.362302 49.336791 
L 433.622285 51.980924 
L 434.294784 53.416919 
L 434.827613 54.566178 
L 435.675348 56.414516 
L 437.021789 59.396576 
L 437.707059 60.934263 
L 438.798286 63.407796 
L 439.535574 65.094736 
L 439.958338 66.067208 
L 441.618043 69.91665 
L 441.633369 69.952404 
L 442.906531 72.933595 
L 443.465409 74.248129 
L 444.749853 77.27918 
L 445.473656 78.991435 
L 446.482692 81.380863 
L 446.482692 147.666184 
z
" clip-path="url(#p252f5a1f8e)" style="fill: #808080"/>
   </g>
   <g id="matplotlib.axis_3">
    <g id="xtick_34">
     <g id="line2d_56">
      <g>
       <use xlink:href="#mc28107a0b8" x="274.580464" y="150.317792" style="stroke: #000000; stroke-width: 0.8"/>
      </g>
     </g>
     <g id="text_13">
      <!-- −3 -->
      <g transform="translate(267.20937 164.91623) scale(0.1 -0.1)">
       <use xlink:href="#DejaVuSans-2212"/>
       <use xlink:href="#DejaVuSans-33" transform="translate(83.789062 0)"/>
      </g>
     </g>
    </g>
    <g id="xtick_35">
     <g id="line2d_57">
      <g>
       <use xlink:href="#mc28107a0b8" x="302.570309" y="150.317792" style="stroke: #000000; stroke-width: 0.8"/>
      </g>
     </g>
     <g id="text_14">
      <!-- −2 -->
      <g transform="translate(295.199216 164.91623) scale(0.1 -0.1)">
       <use xlink:href="#DejaVuSans-2212"/>
       <use xlink:href="#DejaVuSans-32" transform="translate(83.789062 0)"/>
      </g>
     </g>
    </g>
    <g id="xtick_36">
     <g id="line2d_58">
      <g>
       <use xlink:href="#mc28107a0b8" x="330.560155" y="150.317792" style="stroke: #000000; stroke-width: 0.8"/>
      </g>
     </g>
     <g id="text_15">
      <!-- −1 -->
      <g transform="translate(323.189061 164.91623) scale(0.1 -0.1)">
       <use xlink:href="#DejaVuSans-2212"/>
       <use xlink:href="#DejaVuSans-31" transform="translate(83.789062 0)"/>
      </g>
     </g>
    </g>
    <g id="xtick_37">
     <g id="line2d_59">
      <g>
       <use xlink:href="#mc28107a0b8" x="358.55" y="150.317792" style="stroke: #000000; stroke-width: 0.8"/>
      </g>
     </g>
     <g id="text_16">
      <!-- 0 -->
      <g transform="translate(355.36875 164.91623) scale(0.1 -0.1)">
       <use xlink:href="#DejaVuSans-30"/>
      </g>
     </g>
    </g>
    <g id="xtick_38">
     <g id="line2d_60">
      <g>
       <use xlink:href="#mc28107a0b8" x="386.539845" y="150.317792" style="stroke: #000000; stroke-width: 0.8"/>
      </g>
     </g>
     <g id="text_17">
      <!-- 1 -->
      <g transform="translate(383.358595 164.91623) scale(0.1 -0.1)">
       <use xlink:href="#DejaVuSans-31"/>
      </g>
     </g>
    </g>
    <g id="xtick_39">
     <g id="line2d_61">
      <g>
       <use xlink:href="#mc28107a0b8" x="414.529691" y="150.317792" style="stroke: #000000; stroke-width: 0.8"/>
      </g>
     </g>
     <g id="text_18">
      <!-- 2 -->
      <g transform="translate(411.348441 164.91623) scale(0.1 -0.1)">
       <use xlink:href="#DejaVuSans-32"/>
      </g>
     </g>
    </g>
    <g id="xtick_40">
     <g id="line2d_62">
      <g>
       <use xlink:href="#mc28107a0b8" x="442.519536" y="150.317792" style="stroke: #000000; stroke-width: 0.8"/>
      </g>
     </g>
     <g id="text_19">
      <!-- 3 -->
      <g transform="translate(439.338286 164.91623) scale(0.1 -0.1)">
       <use xlink:href="#DejaVuSans-33"/>
      </g>
     </g>
    </g>
    <g id="xtick_41">
     <g id="line2d_63">
      <g>
       <use xlink:href="#maeeddbe4f9" x="268.982495" y="150.317792" style="stroke: #000000; stroke-width: 0.6"/>
      </g>
     </g>
    </g>
    <g id="xtick_42">
     <g id="line2d_64">
      <g>
       <use xlink:href="#maeeddbe4f9" x="280.178433" y="150.317792" style="stroke: #000000; stroke-width: 0.6"/>
      </g>
     </g>
    </g>
    <g id="xtick_43">
     <g id="line2d_65">
      <g>
       <use xlink:href="#maeeddbe4f9" x="285.776402" y="150.317792" style="stroke: #000000; stroke-width: 0.6"/>
      </g>
     </g>
    </g>
    <g id="xtick_44">
     <g id="line2d_66">
      <g>
       <use xlink:href="#maeeddbe4f9" x="291.374371" y="150.317792" style="stroke: #000000; stroke-width: 0.6"/>
      </g>
     </g>
    </g>
    <g id="xtick_45">
     <g id="line2d_67">
      <g>
       <use xlink:href="#maeeddbe4f9" x="296.97234" y="150.317792" style="stroke: #000000; stroke-width: 0.6"/>
      </g>
     </g>
    </g>
    <g id="xtick_46">
     <g id="line2d_68">
      <g>
       <use xlink:href="#maeeddbe4f9" x="308.168278" y="150.317792" style="stroke: #000000; stroke-width: 0.6"/>
      </g>
     </g>
    </g>
    <g id="xtick_47">
     <g id="line2d_69">
      <g>
       <use xlink:href="#maeeddbe4f9" x="313.766248" y="150.317792" style="stroke: #000000; stroke-width: 0.6"/>
      </g>
     </g>
    </g>
    <g id="xtick_48">
     <g id="line2d_70">
      <g>
       <use xlink:href="#maeeddbe4f9" x="319.364217" y="150.317792" style="stroke: #000000; stroke-width: 0.6"/>
      </g>
     </g>
    </g>
    <g id="xtick_49">
     <g id="line2d_71">
      <g>
       <use xlink:href="#maeeddbe4f9" x="324.962186" y="150.317792" style="stroke: #000000; stroke-width: 0.6"/>
      </g>
     </g>
    </g>
    <g id="xtick_50">
     <g id="line2d_72">
      <g>
       <use xlink:href="#maeeddbe4f9" x="336.158124" y="150.317792" style="stroke: #000000; stroke-width: 0.6"/>
      </g>
     </g>
    </g>
    <g id="xtick_51">
     <g id="line2d_73">
      <g>
       <use xlink:href="#maeeddbe4f9" x="341.756093" y="150.317792" style="stroke: #000000; stroke-width: 0.6"/>
      </g>
     </g>
    </g>
    <g id="xtick_52">
     <g id="line2d_74">
      <g>
       <use xlink:href="#maeeddbe4f9" x="347.354062" y="150.317792" style="stroke: #000000; stroke-width: 0.6"/>
      </g>
     </g>
    </g>
    <g id="xtick_53">
     <g id="line2d_75">
      <g>
       <use xlink:href="#maeeddbe4f9" x="352.952031" y="150.317792" style="stroke: #000000; stroke-width: 0.6"/>
      </g>
     </g>
    </g>
    <g id="xtick_54">
     <g id="line2d_76">
      <g>
       <use xlink:href="#maeeddbe4f9" x="364.147969" y="150.317792" style="stroke: #000000; stroke-width: 0.6"/>
      </g>
     </g>
    </g>
    <g id="xtick_55">
     <g id="line2d_77">
      <g>
       <use xlink:href="#maeeddbe4f9" x="369.745938" y="150.317792" style="stroke: #000000; stroke-width: 0.6"/>
      </g>
     </g>
    </g>
    <g id="xtick_56">
     <g id="line2d_78">
      <g>
       <use xlink:href="#maeeddbe4f9" x="375.343907" y="150.317792" style="stroke: #000000; stroke-width: 0.6"/>
      </g>
     </g>
    </g>
    <g id="xtick_57">
     <g id="line2d_79">
      <g>
       <use xlink:href="#maeeddbe4f9" x="380.941876" y="150.317792" style="stroke: #000000; stroke-width: 0.6"/>
      </g>
     </g>
    </g>
    <g id="xtick_58">
     <g id="line2d_80">
      <g>
       <use xlink:href="#maeeddbe4f9" x="392.137814" y="150.317792" style="stroke: #000000; stroke-width: 0.6"/>
      </g>
     </g>
    </g>
    <g id="xtick_59">
     <g id="line2d_81">
      <g>
       <use xlink:href="#maeeddbe4f9" x="397.735783" y="150.317792" style="stroke: #000000; stroke-width: 0.6"/>
      </g>
     </g>
    </g>
    <g id="xtick_60">
     <g id="line2d_82">
      <g>
       <use xlink:href="#maeeddbe4f9" x="403.333752" y="150.317792" style="stroke: #000000; stroke-width: 0.6"/>
      </g>
     </g>
    </g>
    <g id="xtick_61">
     <g id="line2d_83">
      <g>
       <use xlink:href="#maeeddbe4f9" x="408.931722" y="150.317792" style="stroke: #000000; stroke-width: 0.6"/>
      </g>
     </g>
    </g>
    <g id="xtick_62">
     <g id="line2d_84">
      <g>
       <use xlink:href="#maeeddbe4f9" x="420.12766" y="150.317792" style="stroke: #000000; stroke-width: 0.6"/>
      </g>
     </g>
    </g>
    <g id="xtick_63">
     <g id="line2d_85">
      <g>
       <use xlink:href="#maeeddbe4f9" x="425.725629" y="150.317792" style="stroke: #000000; stroke-width: 0.6"/>
      </g>
     </g>
    </g>
    <g id="xtick_64">
     <g id="line2d_86">
      <g>
       <use xlink:href="#maeeddbe4f9" x="431.323598" y="150.317792" style="stroke: #000000; stroke-width: 0.6"/>
      </g>
     </g>
    </g>
    <g id="xtick_65">
     <g id="line2d_87">
      <g>
       <use xlink:href="#maeeddbe4f9" x="436.921567" y="150.317792" style="stroke: #000000; stroke-width: 0.6"/>
      </g>
     </g>
    </g>
    <g id="xtick_66">
     <g id="line2d_88">
      <g>
       <use xlink:href="#maeeddbe4f9" x="448.117505" y="150.317792" style="stroke: #000000; stroke-width: 0.6"/>
      </g>
     </g>
    </g>
   </g>
   <g id="matplotlib.axis_4">
    <g id="ytick_22">
     <g id="line2d_89">
      <g>
       <use xlink:href="#m8d307cf076" x="267.1" y="147.676027" style="stroke: #000000; stroke-width: 0.8"/>
      </g>
     </g>
     <g id="text_20">
      <!-- −1.0 -->
      <g transform="translate(235.817188 151.475245) scale(0.1 -0.1)">
       <use xlink:href="#DejaVuSans-2212"/>
       <use xlink:href="#DejaVuSans-31" transform="translate(83.789062 0)"/>
       <use xlink:href="#DejaVuSans-2e" transform="translate(147.412109 0)"/>
       <use xlink:href="#DejaVuSans-30" transform="translate(179.199219 0)"/>
      </g>
     </g>
    </g>
    <g id="ytick_23">
     <g id="line2d_90">
      <g>
       <use xlink:href="#m8d307cf076" x="267.1" y="114.528445" style="stroke: #000000; stroke-width: 0.8"/>
      </g>
     </g>
     <g id="text_21">
      <!-- −0.5 -->
      <g transform="translate(235.817188 118.327663) scale(0.1 -0.1)">
       <use xlink:href="#DejaVuSans-2212"/>
       <use xlink:href="#DejaVuSans-30" transform="translate(83.789062 0)"/>
       <use xlink:href="#DejaVuSans-2e" transform="translate(147.412109 0)"/>
       <use xlink:href="#DejaVuSans-35" transform="translate(179.199219 0)"/>
      </g>
     </g>
    </g>
    <g id="ytick_24">
     <g id="line2d_91">
      <g>
       <use xlink:href="#m8d307cf076" x="267.1" y="81.380863" style="stroke: #000000; stroke-width: 0.8"/>
      </g>
     </g>
     <g id="text_22">
      <!-- 0.0 -->
      <g transform="translate(244.196875 85.180082) scale(0.1 -0.1)">
       <use xlink:href="#DejaVuSans-30"/>
       <use xlink:href="#DejaVuSans-2e" transform="translate(63.623047 0)"/>
       <use xlink:href="#DejaVuSans-30" transform="translate(95.410156 0)"/>
      </g>
     </g>
    </g>
    <g id="ytick_25">
     <g id="line2d_92">
      <g>
       <use xlink:href="#m8d307cf076" x="267.1" y="48.233281" style="stroke: #000000; stroke-width: 0.8"/>
      </g>
     </g>
     <g id="text_23">
      <!-- 0.5 -->
      <g transform="translate(244.196875 52.0325) scale(0.1 -0.1)">
       <use xlink:href="#DejaVuSans-30"/>
       <use xlink:href="#DejaVuSans-2e" transform="translate(63.623047 0)"/>
       <use xlink:href="#DejaVuSans-35" transform="translate(95.410156 0)"/>
      </g>
     </g>
    </g>
    <g id="ytick_26">
     <g id="line2d_93">
      <g>
       <use xlink:href="#m8d307cf076" x="267.1" y="15.085699" style="stroke: #000000; stroke-width: 0.8"/>
      </g>
     </g>
     <g id="text_24">
      <!-- 1.0 -->
      <g transform="translate(244.196875 18.884918) scale(0.1 -0.1)">
       <use xlink:href="#DejaVuSans-31"/>
       <use xlink:href="#DejaVuSans-2e" transform="translate(63.623047 0)"/>
       <use xlink:href="#DejaVuSans-30" transform="translate(95.410156 0)"/>
      </g>
     </g>
    </g>
    <g id="ytick_27">
     <g id="line2d_94">
      <g>
       <use xlink:href="#m1f98dc7f31" x="267.1" y="141.04651" style="stroke: #000000; stroke-width: 0.6"/>
      </g>
     </g>
    </g>
    <g id="ytick_28">
     <g id="line2d_95">
      <g>
       <use xlink:href="#m1f98dc7f31" x="267.1" y="134.416994" style="stroke: #000000; stroke-width: 0.6"/>
      </g>
     </g>
    </g>
    <g id="ytick_29">
     <g id="line2d_96">
      <g>
       <use xlink:href="#m1f98dc7f31" x="267.1" y="127.787477" style="stroke: #000000; stroke-width: 0.6"/>
      </g>
     </g>
    </g>
    <g id="ytick_30">
     <g id="line2d_97">
      <g>
       <use xlink:href="#m1f98dc7f31" x="267.1" y="121.157961" style="stroke: #000000; stroke-width: 0.6"/>
      </g>
     </g>
    </g>
    <g id="ytick_31">
     <g id="line2d_98">
      <g>
       <use xlink:href="#m1f98dc7f31" x="267.1" y="107.898928" style="stroke: #000000; stroke-width: 0.6"/>
      </g>
     </g>
    </g>
    <g id="ytick_32">
     <g id="line2d_99">
      <g>
       <use xlink:href="#m1f98dc7f31" x="267.1" y="101.269412" style="stroke: #000000; stroke-width: 0.6"/>
      </g>
     </g>
    </g>
    <g id="ytick_33">
     <g id="line2d_100">
      <g>
       <use xlink:href="#m1f98dc7f31" x="267.1" y="94.639896" style="stroke: #000000; stroke-width: 0.6"/>
      </g>
     </g>
    </g>
    <g id="ytick_34">
     <g id="line2d_101">
      <g>
       <use xlink:href="#m1f98dc7f31" x="267.1" y="88.010379" style="stroke: #000000; stroke-width: 0.6"/>
      </g>
     </g>
    </g>
    <g id="ytick_35">
     <g id="line2d_102">
      <g>
       <use xlink:href="#m1f98dc7f31" x="267.1" y="74.751347" style="stroke: #000000; stroke-width: 0.6"/>
      </g>
     </g>
    </g>
    <g id="ytick_36">
     <g id="line2d_103">
      <g>
       <use xlink:href="#m1f98dc7f31" x="267.1" y="68.12183" style="stroke: #000000; stroke-width: 0.6"/>
      </g>
     </g>
    </g>
    <g id="ytick_37">
     <g id="line2d_104">
      <g>
       <use xlink:href="#m1f98dc7f31" x="267.1" y="61.492314" style="stroke: #000000; stroke-width: 0.6"/>
      </g>
     </g>
    </g>
    <g id="ytick_38">
     <g id="line2d_105">
      <g>
       <use xlink:href="#m1f98dc7f31" x="267.1" y="54.862797" style="stroke: #000000; stroke-width: 0.6"/>
      </g>
     </g>
    </g>
    <g id="ytick_39">
     <g id="line2d_106">
      <g>
       <use xlink:href="#m1f98dc7f31" x="267.1" y="41.603765" style="stroke: #000000; stroke-width: 0.6"/>
      </g>
     </g>
    </g>
    <g id="ytick_40">
     <g id="line2d_107">
      <g>
       <use xlink:href="#m1f98dc7f31" x="267.1" y="34.974248" style="stroke: #000000; stroke-width: 0.6"/>
      </g>
     </g>
    </g>
    <g id="ytick_41">
     <g id="line2d_108">
      <g>
       <use xlink:href="#m1f98dc7f31" x="267.1" y="28.344732" style="stroke: #000000; stroke-width: 0.6"/>
      </g>
     </g>
    </g>
    <g id="ytick_42">
     <g id="line2d_109">
      <g>
       <use xlink:href="#m1f98dc7f31" x="267.1" y="21.715216" style="stroke: #000000; stroke-width: 0.6"/>
      </g>
     </g>
    </g>
   </g>
   <g id="line2d_110">
    <path d="M 270.617308 81.380863 
L 278.675868 100.205309 
L 283.267282 110.333249 
L 287.116584 118.235907 
L 290.053858 123.805493 
L 292.694507 128.415834 
L 295.279703 132.524375 
L 297.798282 136.108035 
L 300.233357 139.152123 
L 302.088586 141.179164 
L 304.533391 143.448031 
L 305.96069 144.554792 
L 308.375966 146.052237 
L 309.894858 146.748006 
L 311.172918 147.184429 
L 313.085721 147.581112 
L 315.172475 147.661357 
L 316.474062 147.52488 
L 317.844356 147.226679 
L 319.476546 146.665667 
L 320.592608 146.154148 
L 322.362234 145.132393 
L 324.49001 143.566985 
L 326.441997 141.814738 
L 327.737688 140.488808 
L 329.864408 138.039362 
L 331.284974 136.220147 
L 333.904473 132.498942 
L 336.981396 127.559181 
L 339.628114 122.861656 
L 341.789067 118.749442 
L 345.705844 110.746298 
L 349.942244 101.448858 
L 355.29494 89.073246 
L 367.171656 61.281493 
L 370.985463 52.886391 
L 373.806177 47.008785 
L 377.382532 40.065374 
L 380.424356 34.685705 
L 382.721717 30.984661 
L 385.582148 26.853413 
L 387.292867 24.652046 
L 389.534224 22.089642 
L 391.855229 19.836856 
L 394.218938 17.977398 
L 395.874356 16.94354 
L 396.624398 16.549104 
L 398.46771 15.778026 
L 399.664905 15.429419 
L 401.309842 15.14728 
L 402.964453 15.094195 
L 405.04947 15.35701 
L 406.461881 15.743271 
L 407.936937 16.325027 
L 409.79737 17.316113 
L 411.504465 18.474557 
L 413.74275 20.34711 
L 416.059181 22.69563 
L 417.828197 24.760642 
L 419.711955 27.207947 
L 422.31727 30.99435 
L 424.802768 35.01373 
L 427.680276 40.121182 
L 431.016547 46.5845 
L 434.294784 53.416919 
L 437.707059 60.934263 
L 443.465409 74.248129 
L 446.482692 81.380863 
L 446.482692 81.380863 
" clip-path="url(#p252f5a1f8e)" style="fill: none; stroke: #0000ff; stroke-linecap: square"/>
   </g>
   <g id="patch_10">
    <path d="M 267.1 150.317792 
L 267.1 12.434187 
" style="fill: none; stroke: #000000; stroke-width: 0.8; stroke-linejoin: miter; stroke-linecap: square"/>
   </g>
   <g id="patch_11">
    <path d="M 450 150.317792 
L 450 12.434187 
" style="fill: none; stroke: #000000; stroke-width: 0.8; stroke-linejoin: miter; stroke-linecap: square"/>
   </g>
   <g id="patch_12">
    <path d="M 267.1 150.317792 
L 450 150.317792 
" style="fill: none; stroke: #000000; stroke-width: 0.8; stroke-linejoin: miter; stroke-linecap: square"/>
   </g>
   <g id="patch_13">
    <path d="M 267.1 12.434187 
L 450 12.434187 
" style="fill: none; stroke: #000000; stroke-width: 0.8; stroke-linejoin: miter; stroke-linecap: square"/>
   </g>
  </g>
  <g id="axes_3">
   <g id="patch_14">
    <path d="M 42.1 317.72 
L 225 317.72 
L 225 179.836395 
L 42.1 179.836395 
z
" style="fill: #ffffff"/>
   </g>
   <g id="patch_15">
    <path d="M 45.617308 182.488002 
L 45.617308 248.77707 
L 46.409547 250.653254 
L 47.159545 252.428041 
L 48.382203 255.315132 
L 48.927786 256.599734 
L 50.354283 259.943207 
L 50.743813 260.851524 
L 51.364299 262.29349 
L 52.318423 264.497603 
L 53.508908 267.22182 
L 54.083743 268.525588 
L 55.118911 270.852054 
L 56.42764 273.749718 
L 57.052165 275.113628 
L 57.983649 277.123344 
L 59.122735 279.538082 
L 59.690609 280.723132 
L 60.983548 283.371446 
L 61.343063 284.094958 
L 62.233245 285.8611 
L 63.64748 288.589142 
L 64.088425 289.419258 
L 64.854638 290.837609 
L 66.076778 293.034281 
L 67.172335 294.931841 
L 67.905197 296.161903 
L 68.850347 297.700199 
L 69.040718 298.003348 
L 70.161547 299.741538 
L 70.837236 300.750095 
L 72.392004 302.95484 
L 72.695203 303.365522 
L 73.872833 304.899437 
L 74.524011 305.705142 
L 75.746939 307.134678 
L 76.136408 307.566684 
L 77.345502 308.834955 
L 78.247395 309.708148 
L 79.597678 310.89695 
L 80.153373 311.344352 
L 81.085182 312.039142 
L 81.769835 312.505004 
L 82.643065 313.043818 
L 83.75695 313.640284 
L 84.565778 314.009075 
L 85.409255 314.335642 
L 86.272966 314.608351 
L 86.950006 314.778308 
L 88.00222 314.965773 
L 89.085801 315.061073 
L 89.857272 315.068392 
L 90.732943 315.015681 
L 91.362901 314.937662 
L 92.317128 314.755673 
L 93.003062 314.577467 
L 94.291158 314.136146 
L 94.940056 313.861332 
L 96.12141 313.271328 
L 96.498082 313.058998 
L 97.666786 312.326288 
L 98.28442 311.894237 
L 99.167535 311.223144 
L 100.505616 310.08811 
L 101.508017 309.145879 
L 102.588291 308.043812 
L 103.176147 307.4069 
L 104.117961 306.332707 
L 104.57769 305.784616 
L 105.936223 304.075678 
L 106.431191 303.42045 
L 107.448865 302.019825 
L 108.628046 300.309027 
L 109.496048 298.991089 
L 110.534325 297.351301 
L 110.956538 296.66524 
L 111.481819 295.796508 
L 112.576484 293.933256 
L 113.606759 292.116463 
L 114.963851 289.634166 
L 115.33975 288.929359 
L 116.212302 287.265638 
L 116.883287 285.960728 
L 118.459981 282.811674 
L 119.040345 281.624814 
L 119.899573 279.841894 
L 120.916861 277.693283 
L 122.041522 275.273558 
L 122.163747 275.007943 
L 123.489269 272.096297 
L 124.188474 270.538937 
L 125.52595 267.522937 
L 125.598339 267.358416 
L 127.197284 263.69475 
L 127.563168 262.849123 
L 128.532378 260.597855 
L 129.734866 257.785334 
L 130.047605 257.05093 
L 131.657822 253.255318 
L 132.327196 251.672383 
L 133.219982 249.558706 
L 134.356036 246.868223 
L 134.453329 246.63789 
L 135.371227 244.466502 
L 136.988305 240.653843 
L 137.874332 238.575503 
L 138.415593 237.310773 
L 139.463195 234.875502 
L 139.873842 233.926032 
L 140.632829 232.179718 
L 142.040395 228.974386 
L 142.628093 227.650426 
L 143.543486 225.607002 
L 144.823625 222.791403 
L 145.406875 221.526243 
L 146.088239 220.063287 
L 147.687411 216.698039 
L 148.122764 215.799573 
L 148.640364 214.741766 
L 149.869287 212.277522 
L 151.154119 209.776468 
L 151.599114 208.929134 
L 152.128274 207.934665 
L 153.071652 206.198179 
L 154.570496 203.539481 
L 155.43797 202.059503 
L 156.097433 200.964356 
L 156.799571 199.827526 
L 158.011553 197.938075 
L 159.037519 196.412969 
L 159.333392 195.986132 
L 160.557757 194.283052 
L 161.65881 192.840444 
L 162.290027 192.052312 
L 162.875158 191.347478 
L 164.053059 190.005025 
L 164.632173 189.38303 
L 165.666108 188.33592 
L 167.092673 187.026838 
L 167.681068 186.533434 
L 168.320907 186.028116 
L 169.563261 185.140818 
L 170.632042 184.477733 
L 170.741803 184.414928 
L 171.482104 184.01723 
L 172.222404 183.664832 
L 172.648889 183.482479 
L 173.79283 183.068331 
L 174.401774 182.892591 
L 175.681455 182.624981 
L 176.797817 182.504424 
L 177.158371 182.488002 
L 178.254843 182.505654 
L 179.135554 182.59348 
L 180.132302 182.771909 
L 180.847967 182.951658 
L 181.798779 183.257007 
L 182.167361 183.395731 
L 182.978693 183.741003 
L 183.790026 184.140915 
L 184.314324 184.428254 
L 185.181999 184.953329 
L 185.917484 185.446455 
L 187.019568 186.267112 
L 187.784323 186.893613 
L 188.393641 187.425866 
L 189.460233 188.427387 
L 190.261006 189.236977 
L 191.017861 190.046972 
L 191.774716 190.899906 
L 192.486586 191.740775 
L 193.40705 192.882647 
L 194.099507 193.781576 
L 194.666399 194.542581 
L 195.523413 195.735185 
L 196.521985 197.187418 
L 197.898909 199.297179 
L 198.722955 200.617407 
L 199.495309 201.892736 
L 200.616026 203.806503 
L 201.139563 204.725403 
L 202.374898 206.954133 
L 203.257706 208.597014 
L 203.480814 209.018604 
L 205.123271 212.198205 
L 205.696735 213.338593 
L 206.114669 214.179094 
L 207.72174 217.481228 
L 207.929828 217.916574 
L 209.517311 221.292167 
L 209.68231 221.648277 
L 210.786019 224.054002 
L 211.924895 226.57663 
L 212.439543 227.728891 
L 213.133992 229.294922 
L 214.741545 232.964442 
L 215.415778 234.519721 
L 215.79753 235.404049 
L 217.225879 238.733547 
L 218.055134 240.679108 
L 218.609729 241.984342 
L 220.126511 245.566185 
L 220.538493 246.541141 
L 221.482692 248.77707 
L 221.482692 182.488002 
z
" clip-path="url(#p3dd7966d08)" style="fill: #808080; opacity: 0.5"/>
   </g>
   <g id="matplotlib.axis_5">
    <g id="xtick_67">
     <g id="line2d_111">
      <g>
       <use xlink:href="#mc28107a0b8" x="49.580464" y="317.72" style="stroke: #000000; stroke-width: 0.8"/>
      </g>
     </g>
     <g id="text_25">
      <!-- −3 -->
      <g transform="translate(42.20937 332.318438) scale(0.1 -0.1)">
       <use xlink:href="#DejaVuSans-2212"/>
       <use xlink:href="#DejaVuSans-33" transform="translate(83.789062 0)"/>
      </g>
     </g>
    </g>
    <g id="xtick_68">
     <g id="line2d_112">
      <g>
       <use xlink:href="#mc28107a0b8" x="77.570309" y="317.72" style="stroke: #000000; stroke-width: 0.8"/>
      </g>
     </g>
     <g id="text_26">
      <!-- −2 -->
      <g transform="translate(70.199216 332.318438) scale(0.1 -0.1)">
       <use xlink:href="#DejaVuSans-2212"/>
       <use xlink:href="#DejaVuSans-32" transform="translate(83.789062 0)"/>
      </g>
     </g>
    </g>
    <g id="xtick_69">
     <g id="line2d_113">
      <g>
       <use xlink:href="#mc28107a0b8" x="105.560155" y="317.72" style="stroke: #000000; stroke-width: 0.8"/>
      </g>
     </g>
     <g id="text_27">
      <!-- −1 -->
      <g transform="translate(98.189061 332.318438) scale(0.1 -0.1)">
       <use xlink:href="#DejaVuSans-2212"/>
       <use xlink:href="#DejaVuSans-31" transform="translate(83.789062 0)"/>
      </g>
     </g>
    </g>
    <g id="xtick_70">
     <g id="line2d_114">
      <g>
       <use xlink:href="#mc28107a0b8" x="133.55" y="317.72" style="stroke: #000000; stroke-width: 0.8"/>
      </g>
     </g>
     <g id="text_28">
      <!-- 0 -->
      <g transform="translate(130.36875 332.318438) scale(0.1 -0.1)">
       <use xlink:href="#DejaVuSans-30"/>
      </g>
     </g>
    </g>
    <g id="xtick_71">
     <g id="line2d_115">
      <g>
       <use xlink:href="#mc28107a0b8" x="161.539845" y="317.72" style="stroke: #000000; stroke-width: 0.8"/>
      </g>
     </g>
     <g id="text_29">
      <!-- 1 -->
      <g transform="translate(158.358595 332.318438) scale(0.1 -0.1)">
       <use xlink:href="#DejaVuSans-31"/>
      </g>
     </g>
    </g>
    <g id="xtick_72">
     <g id="line2d_116">
      <g>
       <use xlink:href="#mc28107a0b8" x="189.529691" y="317.72" style="stroke: #000000; stroke-width: 0.8"/>
      </g>
     </g>
     <g id="text_30">
      <!-- 2 -->
      <g transform="translate(186.348441 332.318438) scale(0.1 -0.1)">
       <use xlink:href="#DejaVuSans-32"/>
      </g>
     </g>
    </g>
    <g id="xtick_73">
     <g id="line2d_117">
      <g>
       <use xlink:href="#mc28107a0b8" x="217.519536" y="317.72" style="stroke: #000000; stroke-width: 0.8"/>
      </g>
     </g>
     <g id="text_31">
      <!-- 3 -->
      <g transform="translate(214.338286 332.318438) scale(0.1 -0.1)">
       <use xlink:href="#DejaVuSans-33"/>
      </g>
     </g>
    </g>
    <g id="xtick_74">
     <g id="line2d_118">
      <g>
       <use xlink:href="#maeeddbe4f9" x="43.982495" y="317.72" style="stroke: #000000; stroke-width: 0.6"/>
      </g>
     </g>
    </g>
    <g id="xtick_75">
     <g id="line2d_119">
      <g>
       <use xlink:href="#maeeddbe4f9" x="55.178433" y="317.72" style="stroke: #000000; stroke-width: 0.6"/>
      </g>
     </g>
    </g>
    <g id="xtick_76">
     <g id="line2d_120">
      <g>
       <use xlink:href="#maeeddbe4f9" x="60.776402" y="317.72" style="stroke: #000000; stroke-width: 0.6"/>
      </g>
     </g>
    </g>
    <g id="xtick_77">
     <g id="line2d_121">
      <g>
       <use xlink:href="#maeeddbe4f9" x="66.374371" y="317.72" style="stroke: #000000; stroke-width: 0.6"/>
      </g>
     </g>
    </g>
    <g id="xtick_78">
     <g id="line2d_122">
      <g>
       <use xlink:href="#maeeddbe4f9" x="71.97234" y="317.72" style="stroke: #000000; stroke-width: 0.6"/>
      </g>
     </g>
    </g>
    <g id="xtick_79">
     <g id="line2d_123">
      <g>
       <use xlink:href="#maeeddbe4f9" x="83.168278" y="317.72" style="stroke: #000000; stroke-width: 0.6"/>
      </g>
     </g>
    </g>
    <g id="xtick_80">
     <g id="line2d_124">
      <g>
       <use xlink:href="#maeeddbe4f9" x="88.766248" y="317.72" style="stroke: #000000; stroke-width: 0.6"/>
      </g>
     </g>
    </g>
    <g id="xtick_81">
     <g id="line2d_125">
      <g>
       <use xlink:href="#maeeddbe4f9" x="94.364217" y="317.72" style="stroke: #000000; stroke-width: 0.6"/>
      </g>
     </g>
    </g>
    <g id="xtick_82">
     <g id="line2d_126">
      <g>
       <use xlink:href="#maeeddbe4f9" x="99.962186" y="317.72" style="stroke: #000000; stroke-width: 0.6"/>
      </g>
     </g>
    </g>
    <g id="xtick_83">
     <g id="line2d_127">
      <g>
       <use xlink:href="#maeeddbe4f9" x="111.158124" y="317.72" style="stroke: #000000; stroke-width: 0.6"/>
      </g>
     </g>
    </g>
    <g id="xtick_84">
     <g id="line2d_128">
      <g>
       <use xlink:href="#maeeddbe4f9" x="116.756093" y="317.72" style="stroke: #000000; stroke-width: 0.6"/>
      </g>
     </g>
    </g>
    <g id="xtick_85">
     <g id="line2d_129">
      <g>
       <use xlink:href="#maeeddbe4f9" x="122.354062" y="317.72" style="stroke: #000000; stroke-width: 0.6"/>
      </g>
     </g>
    </g>
    <g id="xtick_86">
     <g id="line2d_130">
      <g>
       <use xlink:href="#maeeddbe4f9" x="127.952031" y="317.72" style="stroke: #000000; stroke-width: 0.6"/>
      </g>
     </g>
    </g>
    <g id="xtick_87">
     <g id="line2d_131">
      <g>
       <use xlink:href="#maeeddbe4f9" x="139.147969" y="317.72" style="stroke: #000000; stroke-width: 0.6"/>
      </g>
     </g>
    </g>
    <g id="xtick_88">
     <g id="line2d_132">
      <g>
       <use xlink:href="#maeeddbe4f9" x="144.745938" y="317.72" style="stroke: #000000; stroke-width: 0.6"/>
      </g>
     </g>
    </g>
    <g id="xtick_89">
     <g id="line2d_133">
      <g>
       <use xlink:href="#maeeddbe4f9" x="150.343907" y="317.72" style="stroke: #000000; stroke-width: 0.6"/>
      </g>
     </g>
    </g>
    <g id="xtick_90">
     <g id="line2d_134">
      <g>
       <use xlink:href="#maeeddbe4f9" x="155.941876" y="317.72" style="stroke: #000000; stroke-width: 0.6"/>
      </g>
     </g>
    </g>
    <g id="xtick_91">
     <g id="line2d_135">
      <g>
       <use xlink:href="#maeeddbe4f9" x="167.137814" y="317.72" style="stroke: #000000; stroke-width: 0.6"/>
      </g>
     </g>
    </g>
    <g id="xtick_92">
     <g id="line2d_136">
      <g>
       <use xlink:href="#maeeddbe4f9" x="172.735783" y="317.72" style="stroke: #000000; stroke-width: 0.6"/>
      </g>
     </g>
    </g>
    <g id="xtick_93">
     <g id="line2d_137">
      <g>
       <use xlink:href="#maeeddbe4f9" x="178.333752" y="317.72" style="stroke: #000000; stroke-width: 0.6"/>
      </g>
     </g>
    </g>
    <g id="xtick_94">
     <g id="line2d_138">
      <g>
       <use xlink:href="#maeeddbe4f9" x="183.931722" y="317.72" style="stroke: #000000; stroke-width: 0.6"/>
      </g>
     </g>
    </g>
    <g id="xtick_95">
     <g id="line2d_139">
      <g>
       <use xlink:href="#maeeddbe4f9" x="195.12766" y="317.72" style="stroke: #000000; stroke-width: 0.6"/>
      </g>
     </g>
    </g>
    <g id="xtick_96">
     <g id="line2d_140">
      <g>
       <use xlink:href="#maeeddbe4f9" x="200.725629" y="317.72" style="stroke: #000000; stroke-width: 0.6"/>
      </g>
     </g>
    </g>
    <g id="xtick_97">
     <g id="line2d_141">
      <g>
       <use xlink:href="#maeeddbe4f9" x="206.323598" y="317.72" style="stroke: #000000; stroke-width: 0.6"/>
      </g>
     </g>
    </g>
    <g id="xtick_98">
     <g id="line2d_142">
      <g>
       <use xlink:href="#maeeddbe4f9" x="211.921567" y="317.72" style="stroke: #000000; stroke-width: 0.6"/>
      </g>
     </g>
    </g>
    <g id="xtick_99">
     <g id="line2d_143">
      <g>
       <use xlink:href="#maeeddbe4f9" x="223.117505" y="317.72" style="stroke: #000000; stroke-width: 0.6"/>
      </g>
     </g>
    </g>
   </g>
   <g id="matplotlib.axis_6">
    <g id="ytick_43">
     <g id="line2d_144">
      <g>
       <use xlink:href="#m8d307cf076" x="42.1" y="315.07156" style="stroke: #000000; stroke-width: 0.8"/>
      </g>
     </g>
     <g id="text_32">
      <!-- −1.0 -->
      <g transform="translate(10.817188 318.870779) scale(0.1 -0.1)">
       <use xlink:href="#DejaVuSans-2212"/>
       <use xlink:href="#DejaVuSans-31" transform="translate(83.789062 0)"/>
       <use xlink:href="#DejaVuSans-2e" transform="translate(147.412109 0)"/>
       <use xlink:href="#DejaVuSans-30" transform="translate(179.199219 0)"/>
      </g>
     </g>
    </g>
    <g id="ytick_44">
     <g id="line2d_145">
      <g>
       <use xlink:href="#m8d307cf076" x="42.1" y="281.924315" style="stroke: #000000; stroke-width: 0.8"/>
      </g>
     </g>
     <g id="text_33">
      <!-- −0.5 -->
      <g transform="translate(10.817188 285.723534) scale(0.1 -0.1)">
       <use xlink:href="#DejaVuSans-2212"/>
       <use xlink:href="#DejaVuSans-30" transform="translate(83.789062 0)"/>
       <use xlink:href="#DejaVuSans-2e" transform="translate(147.412109 0)"/>
       <use xlink:href="#DejaVuSans-35" transform="translate(179.199219 0)"/>
      </g>
     </g>
    </g>
    <g id="ytick_45">
     <g id="line2d_146">
      <g>
       <use xlink:href="#m8d307cf076" x="42.1" y="248.77707" style="stroke: #000000; stroke-width: 0.8"/>
      </g>
     </g>
     <g id="text_34">
      <!-- 0.0 -->
      <g transform="translate(19.196875 252.576289) scale(0.1 -0.1)">
       <use xlink:href="#DejaVuSans-30"/>
       <use xlink:href="#DejaVuSans-2e" transform="translate(63.623047 0)"/>
       <use xlink:href="#DejaVuSans-30" transform="translate(95.410156 0)"/>
      </g>
     </g>
    </g>
    <g id="ytick_46">
     <g id="line2d_147">
      <g>
       <use xlink:href="#m8d307cf076" x="42.1" y="215.629825" style="stroke: #000000; stroke-width: 0.8"/>
      </g>
     </g>
     <g id="text_35">
      <!-- 0.5 -->
      <g transform="translate(19.196875 219.429044) scale(0.1 -0.1)">
       <use xlink:href="#DejaVuSans-30"/>
       <use xlink:href="#DejaVuSans-2e" transform="translate(63.623047 0)"/>
       <use xlink:href="#DejaVuSans-35" transform="translate(95.410156 0)"/>
      </g>
     </g>
    </g>
    <g id="ytick_47">
     <g id="line2d_148">
      <g>
       <use xlink:href="#m8d307cf076" x="42.1" y="182.482581" style="stroke: #000000; stroke-width: 0.8"/>
      </g>
     </g>
     <g id="text_36">
      <!-- 1.0 -->
      <g transform="translate(19.196875 186.281799) scale(0.1 -0.1)">
       <use xlink:href="#DejaVuSans-31"/>
       <use xlink:href="#DejaVuSans-2e" transform="translate(63.623047 0)"/>
       <use xlink:href="#DejaVuSans-30" transform="translate(95.410156 0)"/>
      </g>
     </g>
    </g>
    <g id="ytick_48">
     <g id="line2d_149">
      <g>
       <use xlink:href="#m1f98dc7f31" x="42.1" y="308.442111" style="stroke: #000000; stroke-width: 0.6"/>
      </g>
     </g>
    </g>
    <g id="ytick_49">
     <g id="line2d_150">
      <g>
       <use xlink:href="#m1f98dc7f31" x="42.1" y="301.812662" style="stroke: #000000; stroke-width: 0.6"/>
      </g>
     </g>
    </g>
    <g id="ytick_50">
     <g id="line2d_151">
      <g>
       <use xlink:href="#m1f98dc7f31" x="42.1" y="295.183213" style="stroke: #000000; stroke-width: 0.6"/>
      </g>
     </g>
    </g>
    <g id="ytick_51">
     <g id="line2d_152">
      <g>
       <use xlink:href="#m1f98dc7f31" x="42.1" y="288.553764" style="stroke: #000000; stroke-width: 0.6"/>
      </g>
     </g>
    </g>
    <g id="ytick_52">
     <g id="line2d_153">
      <g>
       <use xlink:href="#m1f98dc7f31" x="42.1" y="275.294866" style="stroke: #000000; stroke-width: 0.6"/>
      </g>
     </g>
    </g>
    <g id="ytick_53">
     <g id="line2d_154">
      <g>
       <use xlink:href="#m1f98dc7f31" x="42.1" y="268.665417" style="stroke: #000000; stroke-width: 0.6"/>
      </g>
     </g>
    </g>
    <g id="ytick_54">
     <g id="line2d_155">
      <g>
       <use xlink:href="#m1f98dc7f31" x="42.1" y="262.035968" style="stroke: #000000; stroke-width: 0.6"/>
      </g>
     </g>
    </g>
    <g id="ytick_55">
     <g id="line2d_156">
      <g>
       <use xlink:href="#m1f98dc7f31" x="42.1" y="255.406519" style="stroke: #000000; stroke-width: 0.6"/>
      </g>
     </g>
    </g>
    <g id="ytick_56">
     <g id="line2d_157">
      <g>
       <use xlink:href="#m1f98dc7f31" x="42.1" y="242.147621" style="stroke: #000000; stroke-width: 0.6"/>
      </g>
     </g>
    </g>
    <g id="ytick_57">
     <g id="line2d_158">
      <g>
       <use xlink:href="#m1f98dc7f31" x="42.1" y="235.518172" style="stroke: #000000; stroke-width: 0.6"/>
      </g>
     </g>
    </g>
    <g id="ytick_58">
     <g id="line2d_159">
      <g>
       <use xlink:href="#m1f98dc7f31" x="42.1" y="228.888723" style="stroke: #000000; stroke-width: 0.6"/>
      </g>
     </g>
    </g>
    <g id="ytick_59">
     <g id="line2d_160">
      <g>
       <use xlink:href="#m1f98dc7f31" x="42.1" y="222.259274" style="stroke: #000000; stroke-width: 0.6"/>
      </g>
     </g>
    </g>
    <g id="ytick_60">
     <g id="line2d_161">
      <g>
       <use xlink:href="#m1f98dc7f31" x="42.1" y="209.000376" style="stroke: #000000; stroke-width: 0.6"/>
      </g>
     </g>
    </g>
    <g id="ytick_61">
     <g id="line2d_162">
      <g>
       <use xlink:href="#m1f98dc7f31" x="42.1" y="202.370928" style="stroke: #000000; stroke-width: 0.6"/>
      </g>
     </g>
    </g>
    <g id="ytick_62">
     <g id="line2d_163">
      <g>
       <use xlink:href="#m1f98dc7f31" x="42.1" y="195.741479" style="stroke: #000000; stroke-width: 0.6"/>
      </g>
     </g>
    </g>
    <g id="ytick_63">
     <g id="line2d_164">
      <g>
       <use xlink:href="#m1f98dc7f31" x="42.1" y="189.11203" style="stroke: #000000; stroke-width: 0.6"/>
      </g>
     </g>
    </g>
   </g>
   <g id="line2d_165">
    <path d="M 45.617308 248.77707 
L 53.508908 267.22182 
L 57.983649 277.123344 
L 61.343063 284.094958 
L 64.854638 290.837609 
L 67.905197 296.161903 
L 70.837236 300.750095 
L 73.872833 304.899437 
L 76.136408 307.566684 
L 78.247395 309.708148 
L 80.153373 311.344352 
L 81.769835 312.505004 
L 83.75695 313.640284 
L 85.409255 314.335642 
L 86.950006 314.778308 
L 89.085801 315.061073 
L 90.732943 315.015681 
L 92.317128 314.755673 
L 94.291158 314.136146 
L 96.12141 313.271328 
L 97.666786 312.326288 
L 99.167535 311.223144 
L 101.508017 309.145879 
L 104.117961 306.332707 
L 106.431191 303.42045 
L 108.628046 300.309027 
L 111.481819 295.796508 
L 113.606759 292.116463 
L 116.883287 285.960728 
L 120.916861 277.693283 
L 125.598339 267.358416 
L 132.327196 251.672383 
L 140.632829 232.179718 
L 145.406875 221.526243 
L 148.640364 214.741766 
L 152.128274 207.934665 
L 155.43797 202.059503 
L 158.011553 197.938075 
L 160.557757 194.283052 
L 162.875158 191.347478 
L 164.632173 189.38303 
L 167.092673 187.026838 
L 168.320907 186.028116 
L 170.741803 184.414928 
L 172.648889 183.482479 
L 174.401774 182.892591 
L 176.797817 182.504424 
L 178.254843 182.505654 
L 180.132302 182.771909 
L 182.167361 183.395731 
L 184.314324 184.428254 
L 185.917484 185.446455 
L 188.393641 187.425866 
L 190.261006 189.236977 
L 192.486586 191.740775 
L 194.666399 194.542581 
L 196.521985 197.187418 
L 199.495309 201.892736 
L 202.374898 206.954133 
L 205.696735 213.338593 
L 207.929828 217.916574 
L 212.439543 227.728891 
L 217.225879 238.733547 
L 221.482692 248.77707 
L 221.482692 248.77707 
" clip-path="url(#p3dd7966d08)" style="fill: none; stroke: #0000ff; stroke-linecap: square"/>
   </g>
   <g id="patch_16">
    <path d="M 42.1 317.72 
L 42.1 179.836395 
" style="fill: none; stroke: #000000; stroke-width: 0.8; stroke-linejoin: miter; stroke-linecap: square"/>
   </g>
   <g id="patch_17">
    <path d="M 225 317.72 
L 225 179.836395 
" style="fill: none; stroke: #000000; stroke-width: 0.8; stroke-linejoin: miter; stroke-linecap: square"/>
   </g>
   <g id="patch_18">
    <path d="M 42.1 317.72 
L 225 317.72 
" style="fill: none; stroke: #000000; stroke-width: 0.8; stroke-linejoin: miter; stroke-linecap: square"/>
   </g>
   <g id="patch_19">
    <path d="M 42.1 179.836395 
L 225 179.836395 
" style="fill: none; stroke: #000000; stroke-width: 0.8; stroke-linejoin: miter; stroke-linecap: square"/>
   </g>
  </g>
  <g id="axes_4">
   <g id="patch_20">
    <path d="M 267.1 317.72 
L 450 317.72 
L 450 179.836395 
L 267.1 179.836395 
z
" style="fill: #ffffff"/>
   </g>
   <g id="patch_21">
    <path d="M 446.482692 299.133237 
L 445.479046 298.467554 
L 444.52889 297.83735 
L 444.243748 297.648225 
L 442.790464 296.684314 
L 442.215562 296.303002 
L 440.832244 295.385497 
L 440.223459 294.981711 
L 439.487793 294.49377 
L 438.787411 294.029232 
L 438.063126 293.548839 
L 436.884238 292.766925 
L 435.44446 291.811972 
L 434.839454 291.410693 
L 434.113934 290.929481 
L 433.377375 290.440948 
L 432.138813 289.619454 
L 431.23296 289.018634 
L 430.898692 288.796926 
L 430.038446 288.226355 
L 428.47696 287.190677 
L 428.224463 287.023205 
L 426.733569 286.034348 
L 426.563048 285.921247 
L 425.438197 285.175174 
L 424.453483 284.522049 
L 423.136024 283.648225 
L 422.450305 283.193412 
L 421.886459 282.819433 
L 420.446583 281.864414 
L 420.181977 281.688911 
L 418.985439 280.89529 
L 417.923244 280.190774 
L 416.927655 279.530435 
L 416.276329 279.098434 
L 415.59489 278.64646 
L 414.567595 277.965092 
L 413.946403 277.553078 
L 413.308291 277.12984 
L 412.301076 276.461791 
L 411.445945 275.894613 
L 410.076467 274.986287 
L 409.539818 274.630347 
L 408.657423 274.045085 
L 407.346369 273.17551 
L 407.047007 272.976954 
L 405.930524 272.236431 
L 405.246689 271.782867 
L 404.499637 271.287374 
L 403.408768 270.56384 
L 402.382643 269.883248 
L 401.273016 269.147272 
L 400.452129 268.602807 
L 399.351874 267.873047 
L 398.861406 267.547737 
L 397.77523 266.827315 
L 397.395367 266.575366 
L 396.503874 265.98407 
L 394.824143 264.869965 
L 393.941788 264.28473 
L 393.318044 263.871023 
L 392.6853 263.451346 
L 391.860325 262.90417 
L 390.552753 262.036904 
L 389.96583 261.647619 
L 389.46915 261.318189 
L 387.799163 260.210546 
L 386.915422 259.624392 
L 386.041458 259.044723 
L 385.58209 258.740041 
L 384.934326 258.310402 
L 383.615689 257.435797 
L 382.797066 256.892834 
L 381.585268 256.089091 
L 381.277135 255.884718 
L 380.530598 255.389566 
L 379.302919 254.57529 
L 378.491175 254.036889 
L 377.809286 253.584617 
L 376.233597 252.539519 
L 375.70525 252.189085 
L 375.101683 251.788761 
L 373.73877 250.884789 
L 373.561912 250.767485 
L 372.049991 249.764682 
L 371.494531 249.396265 
L 370.157509 248.509467 
L 369.493219 248.068866 
L 368.752039 247.577268 
L 367.805004 246.949134 
L 366.67655 246.200671 
L 366.378308 246.002857 
L 365.220065 245.234636 
L 364.168965 244.537479 
L 363.063115 243.804008 
L 362.380015 243.350932 
L 362.036717 243.123235 
L 360.747598 242.268208 
L 360.28191 241.959334 
L 358.845473 241.006596 
L 357.994113 240.44192 
L 356.841549 239.677465 
L 356.254525 239.288113 
L 355.660409 238.894057 
L 354.509924 238.130982 
L 353.643049 237.556014 
L 352.842808 237.025243 
L 352.18537 236.589188 
L 351.151894 235.90372 
L 350.590935 235.531656 
L 348.931153 234.430782 
L 348.630438 234.231328 
L 347.402874 233.417129 
L 346.514125 232.827653 
L 345.602538 232.22303 
L 345.090058 231.883121 
L 344.251628 231.32702 
L 343.477978 230.813886 
L 342.300139 230.032667 
L 341.005387 229.173904 
L 340.724523 228.987617 
L 339.109079 227.91615 
L 339.01303 227.852445 
L 337.361161 226.756819 
L 336.954019 226.486776 
L 335.916378 225.798546 
L 334.950486 225.157904 
L 333.868991 224.440587 
L 333.157774 223.968862 
L 332.257873 223.37199 
L 331.500015 222.86933 
L 330.488428 222.19838 
L 330.058311 221.913099 
L 328.624662 220.962211 
L 328.462435 220.854612 
L 327.381312 220.137541 
L 326.34332 219.449078 
L 325.7311 219.043015 
L 324.448053 218.192015 
L 323.278672 217.416406 
L 322.641587 216.99385 
L 321.652136 216.337583 
L 321.370421 216.150731 
L 320.319926 215.453976 
L 319.663476 215.018576 
L 318.431508 214.201455 
L 317.058415 213.290732 
L 316.25417 212.757305 
L 316.095485 212.652055 
L 314.843265 211.821502 
L 313.871163 211.176741 
L 313.04719 210.630229 
L 312.017844 209.947501 
L 310.95366 209.241666 
L 310.323881 208.823956 
L 309.076774 207.996794 
L 308.566101 207.658083 
L 307.408994 206.890615 
L 306.753534 206.455872 
L 306.318769 206.167508 
L 304.686469 205.084861 
L 303.836367 204.521019 
L 303.680507 204.417643 
L 302.231417 203.456513 
L 301.376166 202.889256 
L 300.367139 202.220004 
L 299.701524 201.778526 
L 298.837821 201.205662 
L 297.611796 200.392483 
L 296.712754 199.796181 
L 296.174689 199.439301 
L 295.037598 198.68511 
L 294.24331 198.158287 
L 293.393828 197.594856 
L 292.86655 197.245131 
L 291.738106 196.496674 
L 290.696976 195.80613 
L 290.133576 195.432447 
L 289.20614 194.817312 
L 288.236634 194.174273 
L 287.025587 193.371028 
L 286.871745 193.268991 
L 285.586604 192.416603 
L 284.67505 191.812001 
L 283.829313 191.251054 
L 283.074668 190.750525 
L 282.261266 190.211024 
L 281.08296 189.429496 
L 280.500983 189.043491 
L 279.478838 188.365539 
L 278.826305 187.932738 
L 278.117563 187.462654 
L 276.430774 186.343867 
L 275.644143 185.822123 
L 275.019907 185.40809 
L 274.200977 184.864923 
L 272.878742 183.987931 
L 272.192327 183.532657 
L 271.16697 182.852574 
L 270.617308 182.488002 
L 270.617308 259.375285 
L 271.092131 260.32004 
L 272.257657 262.637373 
L 273.075494 264.260283 
L 274.188122 266.461208 
L 275.46969 268.982231 
L 276.283275 270.572547 
L 276.92716 271.824511 
L 278.090643 274.069619 
L 278.289506 274.45092 
L 279.558762 276.865861 
L 280.584614 278.791642 
L 280.787523 279.169544 
L 281.997594 281.400936 
L 282.909176 283.054947 
L 283.59225 284.27798 
L 284.43937 285.774053 
L 285.763279 288.063238 
L 286.531894 289.363139 
L 287.280928 290.608178 
L 288.459255 292.521177 
L 289.192474 293.682116 
L 290.242852 295.304012 
L 290.998923 296.440281 
L 291.616426 297.348276 
L 292.443093 298.534823 
L 293.567058 300.093109 
L 294.107754 300.819503 
L 295.541495 302.670075 
L 295.902142 303.11788 
L 296.820886 304.225671 
L 298.147911 305.740155 
L 299.239859 306.908353 
L 300.064427 307.742657 
L 300.544936 308.209527 
L 301.476288 309.073345 
L 302.277059 309.772094 
L 302.940175 310.319529 
L 303.821947 311.003137 
L 304.563195 311.538189 
L 305.304442 312.036661 
L 305.623675 312.239979 
L 306.672158 312.859237 
L 308.06902 313.567538 
L 308.90532 313.927116 
L 309.40257 314.117849 
L 310.583869 314.501592 
L 311.197121 314.662129 
L 311.860324 314.805871 
L 313.250398 315.006111 
L 313.706243 315.04192 
L 314.425394 315.068392 
L 315.144546 315.0581 
L 315.997861 314.998208 
L 316.955524 314.869435 
L 317.300635 314.807096 
L 318.235764 314.59586 
L 319.084788 314.350686 
L 320.044951 314.012488 
L 320.883336 313.664592 
L 322.193419 313.023577 
L 323.118399 312.500124 
L 323.739129 312.116282 
L 324.112105 311.873158 
L 325.548884 310.849876 
L 326.317352 310.246722 
L 326.868258 309.790703 
L 327.882892 308.899855 
L 329.006698 307.837255 
L 330.061833 306.768453 
L 330.958992 305.806639 
L 331.904545 304.741335 
L 332.847228 303.627731 
L 333.09917 303.321555 
L 334.295464 301.819584 
L 335.34847 300.433267 
L 336.318281 299.105034 
L 336.639224 298.654894 
L 337.99307 296.699923 
L 338.600997 295.793382 
L 339.661097 294.171723 
L 340.097926 293.488841 
L 341.362316 291.466027 
L 342.429415 289.707728 
L 342.91498 288.892896 
L 344.255912 286.59728 
L 344.554388 286.077613 
L 345.570508 284.286078 
L 346.493054 282.631028 
L 347.937413 279.989796 
L 348.246958 279.416363 
L 348.971779 278.064162 
L 350.152673 275.834697 
L 351.476434 273.300874 
L 351.764315 272.74552 
L 352.401902 271.510591 
L 353.891576 268.60185 
L 354.353472 267.694258 
L 355.274283 265.878414 
L 356.416664 263.616073 
L 356.978351 262.500899 
L 357.868884 260.730431 
L 358.775848 258.925899 
L 359.865778 256.758124 
L 360.518793 255.461024 
L 361.273643 253.964348 
L 362.529844 251.482877 
L 362.997746 250.562391 
L 364.228739 248.153131 
L 365.617711 245.460977 
L 365.852616 245.008883 
L 366.56291 243.648146 
L 368.168939 240.610105 
L 368.63687 239.736125 
L 369.838513 237.517476 
L 370.217641 236.825642 
L 371.761137 234.053103 
L 372.185431 233.304094 
L 373.065533 231.769738 
L 374.445698 229.419108 
L 374.676968 229.032192 
L 375.880976 227.051932 
L 376.906535 225.412196 
L 377.736552 224.118385 
L 378.788532 222.523274 
L 379.418482 221.59286 
L 380.636326 219.848815 
L 380.846674 219.555067 
L 381.566521 218.566932 
L 382.400221 217.456283 
L 383.233921 216.382821 
L 383.725669 215.767475 
L 384.719176 214.565517 
L 385.084129 214.138092 
L 386.179899 212.901242 
L 387.053435 211.966169 
L 388.302438 210.709601 
L 388.729367 210.302186 
L 390.031902 209.130124 
L 390.695616 208.574584 
L 391.70895 207.781603 
L 392.566378 207.163399 
L 393.890821 206.304956 
L 394.191751 206.126407 
L 395.121703 205.613632 
L 396.39108 205.00958 
L 397.25404 204.662697 
L 397.966557 204.41547 
L 398.413687 204.278503 
L 399.794439 203.944425 
L 400.45432 203.832355 
L 401.372279 203.727806 
L 402.520437 203.681289 
L 403.038656 203.690985 
L 404.055592 203.765483 
L 404.797539 203.866156 
L 405.478305 203.99284 
L 406.547249 204.257831 
L 407.557115 204.582023 
L 408.175379 204.81573 
L 409.350662 205.333283 
L 410.202478 205.767999 
L 411.516418 206.53575 
L 411.990498 206.841438 
L 412.5502 207.221727 
L 413.460599 207.884772 
L 414.279602 208.527817 
L 415.098606 209.214394 
L 415.402175 209.479819 
L 416.81982 210.796513 
L 417.669577 211.645712 
L 418.439297 212.452917 
L 419.365768 213.471508 
L 420.154345 214.378158 
L 421.013307 215.406344 
L 422.091967 216.756036 
L 422.387559 217.137036 
L 423.88066 219.132647 
L 424.750248 220.348032 
L 425.2861 221.115803 
L 426.543859 222.972501 
L 426.93392 223.563416 
L 428.245306 225.6004 
L 429.227916 227.175525 
L 430.096067 228.600252 
L 430.403108 229.111298 
L 431.419119 230.827987 
L 432.645018 232.949169 
L 432.904345 233.404518 
L 434.406994 236.085645 
L 434.833639 236.859466 
L 435.907985 238.830813 
L 436.71541 240.332458 
L 437.546593 241.894827 
L 438.433577 243.579052 
L 439.687694 245.987063 
L 440.2961 247.165236 
L 441.151696 248.831724 
L 442.103048 250.696217 
L 442.699629 251.87067 
L 443.607442 253.66419 
L 444.628711 255.688944 
L 445.859223 258.134813 
L 446.482692 259.375285 
z
" clip-path="url(#p18932697e9)" style="fill: #0000ff; opacity: 0.2"/>
   </g>
   <g id="matplotlib.axis_7">
    <g id="xtick_100">
     <g id="line2d_166">
      <g>
       <use xlink:href="#mc28107a0b8" x="274.580464" y="317.72" style="stroke: #000000; stroke-width: 0.8"/>
      </g>
     </g>
     <g id="text_37">
      <!-- −3 -->
      <g transform="translate(267.20937 332.318438) scale(0.1 -0.1)">
       <use xlink:href="#DejaVuSans-2212"/>
       <use xlink:href="#DejaVuSans-33" transform="translate(83.789062 0)"/>
      </g>
     </g>
    </g>
    <g id="xtick_101">
     <g id="line2d_167">
      <g>
       <use xlink:href="#mc28107a0b8" x="302.570309" y="317.72" style="stroke: #000000; stroke-width: 0.8"/>
      </g>
     </g>
     <g id="text_38">
      <!-- −2 -->
      <g transform="translate(295.199216 332.318438) scale(0.1 -0.1)">
       <use xlink:href="#DejaVuSans-2212"/>
       <use xlink:href="#DejaVuSans-32" transform="translate(83.789062 0)"/>
      </g>
     </g>
    </g>
    <g id="xtick_102">
     <g id="line2d_168">
      <g>
       <use xlink:href="#mc28107a0b8" x="330.560155" y="317.72" style="stroke: #000000; stroke-width: 0.8"/>
      </g>
     </g>
     <g id="text_39">
      <!-- −1 -->
      <g transform="translate(323.189061 332.318438) scale(0.1 -0.1)">
       <use xlink:href="#DejaVuSans-2212"/>
       <use xlink:href="#DejaVuSans-31" transform="translate(83.789062 0)"/>
      </g>
     </g>
    </g>
    <g id="xtick_103">
     <g id="line2d_169">
      <g>
       <use xlink:href="#mc28107a0b8" x="358.55" y="317.72" style="stroke: #000000; stroke-width: 0.8"/>
      </g>
     </g>
     <g id="text_40">
      <!-- 0 -->
      <g transform="translate(355.36875 332.318438) scale(0.1 -0.1)">
       <use xlink:href="#DejaVuSans-30"/>
      </g>
     </g>
    </g>
    <g id="xtick_104">
     <g id="line2d_170">
      <g>
       <use xlink:href="#mc28107a0b8" x="386.539845" y="317.72" style="stroke: #000000; stroke-width: 0.8"/>
      </g>
     </g>
     <g id="text_41">
      <!-- 1 -->
      <g transform="translate(383.358595 332.318438) scale(0.1 -0.1)">
       <use xlink:href="#DejaVuSans-31"/>
      </g>
     </g>
    </g>
    <g id="xtick_105">
     <g id="line2d_171">
      <g>
       <use xlink:href="#mc28107a0b8" x="414.529691" y="317.72" style="stroke: #000000; stroke-width: 0.8"/>
      </g>
     </g>
     <g id="text_42">
      <!-- 2 -->
      <g transform="translate(411.348441 332.318438) scale(0.1 -0.1)">
       <use xlink:href="#DejaVuSans-32"/>
      </g>
     </g>
    </g>
    <g id="xtick_106">
     <g id="line2d_172">
      <g>
       <use xlink:href="#mc28107a0b8" x="442.519536" y="317.72" style="stroke: #000000; stroke-width: 0.8"/>
      </g>
     </g>
     <g id="text_43">
      <!-- 3 -->
      <g transform="translate(439.338286 332.318438) scale(0.1 -0.1)">
       <use xlink:href="#DejaVuSans-33"/>
      </g>
     </g>
    </g>
    <g id="xtick_107">
     <g id="line2d_173">
      <g>
       <use xlink:href="#maeeddbe4f9" x="268.982495" y="317.72" style="stroke: #000000; stroke-width: 0.6"/>
      </g>
     </g>
    </g>
    <g id="xtick_108">
     <g id="line2d_174">
      <g>
       <use xlink:href="#maeeddbe4f9" x="280.178433" y="317.72" style="stroke: #000000; stroke-width: 0.6"/>
      </g>
     </g>
    </g>
    <g id="xtick_109">
     <g id="line2d_175">
      <g>
       <use xlink:href="#maeeddbe4f9" x="285.776402" y="317.72" style="stroke: #000000; stroke-width: 0.6"/>
      </g>
     </g>
    </g>
    <g id="xtick_110">
     <g id="line2d_176">
      <g>
       <use xlink:href="#maeeddbe4f9" x="291.374371" y="317.72" style="stroke: #000000; stroke-width: 0.6"/>
      </g>
     </g>
    </g>
    <g id="xtick_111">
     <g id="line2d_177">
      <g>
       <use xlink:href="#maeeddbe4f9" x="296.97234" y="317.72" style="stroke: #000000; stroke-width: 0.6"/>
      </g>
     </g>
    </g>
    <g id="xtick_112">
     <g id="line2d_178">
      <g>
       <use xlink:href="#maeeddbe4f9" x="308.168278" y="317.72" style="stroke: #000000; stroke-width: 0.6"/>
      </g>
     </g>
    </g>
    <g id="xtick_113">
     <g id="line2d_179">
      <g>
       <use xlink:href="#maeeddbe4f9" x="313.766248" y="317.72" style="stroke: #000000; stroke-width: 0.6"/>
      </g>
     </g>
    </g>
    <g id="xtick_114">
     <g id="line2d_180">
      <g>
       <use xlink:href="#maeeddbe4f9" x="319.364217" y="317.72" style="stroke: #000000; stroke-width: 0.6"/>
      </g>
     </g>
    </g>
    <g id="xtick_115">
     <g id="line2d_181">
      <g>
       <use xlink:href="#maeeddbe4f9" x="324.962186" y="317.72" style="stroke: #000000; stroke-width: 0.6"/>
      </g>
     </g>
    </g>
    <g id="xtick_116">
     <g id="line2d_182">
      <g>
       <use xlink:href="#maeeddbe4f9" x="336.158124" y="317.72" style="stroke: #000000; stroke-width: 0.6"/>
      </g>
     </g>
    </g>
    <g id="xtick_117">
     <g id="line2d_183">
      <g>
       <use xlink:href="#maeeddbe4f9" x="341.756093" y="317.72" style="stroke: #000000; stroke-width: 0.6"/>
      </g>
     </g>
    </g>
    <g id="xtick_118">
     <g id="line2d_184">
      <g>
       <use xlink:href="#maeeddbe4f9" x="347.354062" y="317.72" style="stroke: #000000; stroke-width: 0.6"/>
      </g>
     </g>
    </g>
    <g id="xtick_119">
     <g id="line2d_185">
      <g>
       <use xlink:href="#maeeddbe4f9" x="352.952031" y="317.72" style="stroke: #000000; stroke-width: 0.6"/>
      </g>
     </g>
    </g>
    <g id="xtick_120">
     <g id="line2d_186">
      <g>
       <use xlink:href="#maeeddbe4f9" x="364.147969" y="317.72" style="stroke: #000000; stroke-width: 0.6"/>
      </g>
     </g>
    </g>
    <g id="xtick_121">
     <g id="line2d_187">
      <g>
       <use xlink:href="#maeeddbe4f9" x="369.745938" y="317.72" style="stroke: #000000; stroke-width: 0.6"/>
      </g>
     </g>
    </g>
    <g id="xtick_122">
     <g id="line2d_188">
      <g>
       <use xlink:href="#maeeddbe4f9" x="375.343907" y="317.72" style="stroke: #000000; stroke-width: 0.6"/>
      </g>
     </g>
    </g>
    <g id="xtick_123">
     <g id="line2d_189">
      <g>
       <use xlink:href="#maeeddbe4f9" x="380.941876" y="317.72" style="stroke: #000000; stroke-width: 0.6"/>
      </g>
     </g>
    </g>
    <g id="xtick_124">
     <g id="line2d_190">
      <g>
       <use xlink:href="#maeeddbe4f9" x="392.137814" y="317.72" style="stroke: #000000; stroke-width: 0.6"/>
      </g>
     </g>
    </g>
    <g id="xtick_125">
     <g id="line2d_191">
      <g>
       <use xlink:href="#maeeddbe4f9" x="397.735783" y="317.72" style="stroke: #000000; stroke-width: 0.6"/>
      </g>
     </g>
    </g>
    <g id="xtick_126">
     <g id="line2d_192">
      <g>
       <use xlink:href="#maeeddbe4f9" x="403.333752" y="317.72" style="stroke: #000000; stroke-width: 0.6"/>
      </g>
     </g>
    </g>
    <g id="xtick_127">
     <g id="line2d_193">
      <g>
       <use xlink:href="#maeeddbe4f9" x="408.931722" y="317.72" style="stroke: #000000; stroke-width: 0.6"/>
      </g>
     </g>
    </g>
    <g id="xtick_128">
     <g id="line2d_194">
      <g>
       <use xlink:href="#maeeddbe4f9" x="420.12766" y="317.72" style="stroke: #000000; stroke-width: 0.6"/>
      </g>
     </g>
    </g>
    <g id="xtick_129">
     <g id="line2d_195">
      <g>
       <use xlink:href="#maeeddbe4f9" x="425.725629" y="317.72" style="stroke: #000000; stroke-width: 0.6"/>
      </g>
     </g>
    </g>
    <g id="xtick_130">
     <g id="line2d_196">
      <g>
       <use xlink:href="#maeeddbe4f9" x="431.323598" y="317.72" style="stroke: #000000; stroke-width: 0.6"/>
      </g>
     </g>
    </g>
    <g id="xtick_131">
     <g id="line2d_197">
      <g>
       <use xlink:href="#maeeddbe4f9" x="436.921567" y="317.72" style="stroke: #000000; stroke-width: 0.6"/>
      </g>
     </g>
    </g>
    <g id="xtick_132">
     <g id="line2d_198">
      <g>
       <use xlink:href="#maeeddbe4f9" x="448.117505" y="317.72" style="stroke: #000000; stroke-width: 0.6"/>
      </g>
     </g>
    </g>
   </g>
   <g id="matplotlib.axis_8">
    <g id="ytick_64">
     <g id="line2d_199">
      <g>
       <use xlink:href="#m8d307cf076" x="267.1" y="315.069282" style="stroke: #000000; stroke-width: 0.8"/>
      </g>
     </g>
     <g id="text_44">
      <!-- −1.0 -->
      <g transform="translate(235.817188 318.868501) scale(0.1 -0.1)">
       <use xlink:href="#DejaVuSans-2212"/>
       <use xlink:href="#DejaVuSans-31" transform="translate(83.789062 0)"/>
       <use xlink:href="#DejaVuSans-2e" transform="translate(147.412109 0)"/>
       <use xlink:href="#DejaVuSans-30" transform="translate(179.199219 0)"/>
      </g>
     </g>
    </g>
    <g id="ytick_65">
     <g id="line2d_200">
      <g>
       <use xlink:href="#m8d307cf076" x="267.1" y="287.222284" style="stroke: #000000; stroke-width: 0.8"/>
      </g>
     </g>
     <g id="text_45">
      <!-- −0.5 -->
      <g transform="translate(235.817188 291.021503) scale(0.1 -0.1)">
       <use xlink:href="#DejaVuSans-2212"/>
       <use xlink:href="#DejaVuSans-30" transform="translate(83.789062 0)"/>
       <use xlink:href="#DejaVuSans-2e" transform="translate(147.412109 0)"/>
       <use xlink:href="#DejaVuSans-35" transform="translate(179.199219 0)"/>
      </g>
     </g>
    </g>
    <g id="ytick_66">
     <g id="line2d_201">
      <g>
       <use xlink:href="#m8d307cf076" x="267.1" y="259.375285" style="stroke: #000000; stroke-width: 0.8"/>
      </g>
     </g>
     <g id="text_46">
      <!-- 0.0 -->
      <g transform="translate(244.196875 263.174504) scale(0.1 -0.1)">
       <use xlink:href="#DejaVuSans-30"/>
       <use xlink:href="#DejaVuSans-2e" transform="translate(63.623047 0)"/>
       <use xlink:href="#DejaVuSans-30" transform="translate(95.410156 0)"/>
      </g>
     </g>
    </g>
    <g id="ytick_67">
     <g id="line2d_202">
      <g>
       <use xlink:href="#m8d307cf076" x="267.1" y="231.528287" style="stroke: #000000; stroke-width: 0.8"/>
      </g>
     </g>
     <g id="text_47">
      <!-- 0.5 -->
      <g transform="translate(244.196875 235.327506) scale(0.1 -0.1)">
       <use xlink:href="#DejaVuSans-30"/>
       <use xlink:href="#DejaVuSans-2e" transform="translate(63.623047 0)"/>
       <use xlink:href="#DejaVuSans-35" transform="translate(95.410156 0)"/>
      </g>
     </g>
    </g>
    <g id="ytick_68">
     <g id="line2d_203">
      <g>
       <use xlink:href="#m8d307cf076" x="267.1" y="203.681288" style="stroke: #000000; stroke-width: 0.8"/>
      </g>
     </g>
     <g id="text_48">
      <!-- 1.0 -->
      <g transform="translate(244.196875 207.480507) scale(0.1 -0.1)">
       <use xlink:href="#DejaVuSans-31"/>
       <use xlink:href="#DejaVuSans-2e" transform="translate(63.623047 0)"/>
       <use xlink:href="#DejaVuSans-30" transform="translate(95.410156 0)"/>
      </g>
     </g>
    </g>
    <g id="ytick_69">
     <g id="line2d_204">
      <g>
       <use xlink:href="#m1f98dc7f31" x="267.1" y="309.499883" style="stroke: #000000; stroke-width: 0.6"/>
      </g>
     </g>
    </g>
    <g id="ytick_70">
     <g id="line2d_205">
      <g>
       <use xlink:href="#m1f98dc7f31" x="267.1" y="303.930483" style="stroke: #000000; stroke-width: 0.6"/>
      </g>
     </g>
    </g>
    <g id="ytick_71">
     <g id="line2d_206">
      <g>
       <use xlink:href="#m1f98dc7f31" x="267.1" y="298.361083" style="stroke: #000000; stroke-width: 0.6"/>
      </g>
     </g>
    </g>
    <g id="ytick_72">
     <g id="line2d_207">
      <g>
       <use xlink:href="#m1f98dc7f31" x="267.1" y="292.791684" style="stroke: #000000; stroke-width: 0.6"/>
      </g>
     </g>
    </g>
    <g id="ytick_73">
     <g id="line2d_208">
      <g>
       <use xlink:href="#m1f98dc7f31" x="267.1" y="281.652884" style="stroke: #000000; stroke-width: 0.6"/>
      </g>
     </g>
    </g>
    <g id="ytick_74">
     <g id="line2d_209">
      <g>
       <use xlink:href="#m1f98dc7f31" x="267.1" y="276.083485" style="stroke: #000000; stroke-width: 0.6"/>
      </g>
     </g>
    </g>
    <g id="ytick_75">
     <g id="line2d_210">
      <g>
       <use xlink:href="#m1f98dc7f31" x="267.1" y="270.514085" style="stroke: #000000; stroke-width: 0.6"/>
      </g>
     </g>
    </g>
    <g id="ytick_76">
     <g id="line2d_211">
      <g>
       <use xlink:href="#m1f98dc7f31" x="267.1" y="264.944685" style="stroke: #000000; stroke-width: 0.6"/>
      </g>
     </g>
    </g>
    <g id="ytick_77">
     <g id="line2d_212">
      <g>
       <use xlink:href="#m1f98dc7f31" x="267.1" y="253.805886" style="stroke: #000000; stroke-width: 0.6"/>
      </g>
     </g>
    </g>
    <g id="ytick_78">
     <g id="line2d_213">
      <g>
       <use xlink:href="#m1f98dc7f31" x="267.1" y="248.236486" style="stroke: #000000; stroke-width: 0.6"/>
      </g>
     </g>
    </g>
    <g id="ytick_79">
     <g id="line2d_214">
      <g>
       <use xlink:href="#m1f98dc7f31" x="267.1" y="242.667086" style="stroke: #000000; stroke-width: 0.6"/>
      </g>
     </g>
    </g>
    <g id="ytick_80">
     <g id="line2d_215">
      <g>
       <use xlink:href="#m1f98dc7f31" x="267.1" y="237.097687" style="stroke: #000000; stroke-width: 0.6"/>
      </g>
     </g>
    </g>
    <g id="ytick_81">
     <g id="line2d_216">
      <g>
       <use xlink:href="#m1f98dc7f31" x="267.1" y="225.958887" style="stroke: #000000; stroke-width: 0.6"/>
      </g>
     </g>
    </g>
    <g id="ytick_82">
     <g id="line2d_217">
      <g>
       <use xlink:href="#m1f98dc7f31" x="267.1" y="220.389488" style="stroke: #000000; stroke-width: 0.6"/>
      </g>
     </g>
    </g>
    <g id="ytick_83">
     <g id="line2d_218">
      <g>
       <use xlink:href="#m1f98dc7f31" x="267.1" y="214.820088" style="stroke: #000000; stroke-width: 0.6"/>
      </g>
     </g>
    </g>
    <g id="ytick_84">
     <g id="line2d_219">
      <g>
       <use xlink:href="#m1f98dc7f31" x="267.1" y="209.250688" style="stroke: #000000; stroke-width: 0.6"/>
      </g>
     </g>
    </g>
    <g id="ytick_85">
     <g id="line2d_220">
      <g>
       <use xlink:href="#m1f98dc7f31" x="267.1" y="198.111889" style="stroke: #000000; stroke-width: 0.6"/>
      </g>
     </g>
    </g>
    <g id="ytick_86">
     <g id="line2d_221">
      <g>
       <use xlink:href="#m1f98dc7f31" x="267.1" y="192.542489" style="stroke: #000000; stroke-width: 0.6"/>
      </g>
     </g>
    </g>
    <g id="ytick_87">
     <g id="line2d_222">
      <g>
       <use xlink:href="#m1f98dc7f31" x="267.1" y="186.973089" style="stroke: #000000; stroke-width: 0.6"/>
      </g>
     </g>
    </g>
    <g id="ytick_88">
     <g id="line2d_223">
      <g>
       <use xlink:href="#m1f98dc7f31" x="267.1" y="181.40369" style="stroke: #000000; stroke-width: 0.6"/>
      </g>
     </g>
    </g>
   </g>
   <g id="line2d_224">
    <path d="M 270.617308 259.375285 
L 278.289506 274.45092 
L 282.909176 283.054947 
L 286.531894 289.363139 
L 289.192474 293.682116 
L 292.443093 298.534823 
L 295.541495 302.670075 
L 298.147911 305.740155 
L 300.544936 308.209527 
L 302.940175 310.319529 
L 305.304442 312.036661 
L 306.672158 312.859237 
L 308.90532 313.927116 
L 310.583869 314.501592 
L 311.860324 314.805871 
L 314.425394 315.068392 
L 315.997861 314.998208 
L 318.235764 314.59586 
L 320.044951 314.012488 
L 322.193419 313.023577 
L 324.112105 311.873158 
L 326.868258 309.790703 
L 329.006698 307.837255 
L 330.958992 305.806639 
L 333.09917 303.321555 
L 336.318281 299.105034 
L 338.600997 295.793382 
L 341.362316 291.466027 
L 344.554388 286.077613 
L 348.971779 278.064162 
L 354.353472 267.694258 
L 368.63687 239.736125 
L 373.065533 231.769738 
L 376.906535 225.412196 
L 379.418482 221.59286 
L 382.400221 217.456283 
L 385.084129 214.138092 
L 387.053435 211.966169 
L 388.729367 210.302186 
L 390.695616 208.574584 
L 392.566378 207.163399 
L 395.121703 205.613632 
L 397.25404 204.662697 
L 398.413687 204.278503 
L 400.45432 203.832355 
L 402.520437 203.681289 
L 404.055592 203.765483 
L 405.478305 203.99284 
L 407.557115 204.582023 
L 409.350662 205.333283 
L 411.516418 206.53575 
L 413.460599 207.884772 
L 415.402175 209.479819 
L 417.669577 211.645712 
L 420.154345 214.378158 
L 422.387559 217.137036 
L 425.2861 221.115803 
L 428.245306 225.6004 
L 431.419119 230.827987 
L 434.833639 236.859466 
L 439.687694 245.987063 
L 446.482692 259.375285 
L 446.482692 259.375285 
" clip-path="url(#p18932697e9)" style="fill: none; stroke: #0000ff; stroke-linecap: square"/>
   </g>
   <g id="patch_22">
    <path d="M 267.1 317.72 
L 267.1 179.836395 
" style="fill: none; stroke: #000000; stroke-width: 0.8; stroke-linejoin: miter; stroke-linecap: square"/>
   </g>
   <g id="patch_23">
    <path d="M 450 317.72 
L 450 179.836395 
" style="fill: none; stroke: #000000; stroke-width: 0.8; stroke-linejoin: miter; stroke-linecap: square"/>
   </g>
   <g id="patch_24">
    <path d="M 267.1 317.72 
L 450 317.72 
" style="fill: none; stroke: #000000; stroke-width: 0.8; stroke-linejoin: miter; stroke-linecap: square"/>
   </g>
   <g id="patch_25">
    <path d="M 267.1 179.836395 
L 450 179.836395 
" style="fill: none; stroke: #000000; stroke-width: 0.8; stroke-linejoin: miter; stroke-linecap: square"/>
   </g>
  </g>
 </g>
 <defs>
  <clipPath id="pb490513759">
   <rect x="42.1" y="12.434187" width="182.9" height="137.883605"/>
  </clipPath>
  <clipPath id="p252f5a1f8e">
   <rect x="267.1" y="12.434187" width="182.9" height="137.883605"/>
  </clipPath>
  <clipPath id="p3dd7966d08">
   <rect x="42.1" y="179.836395" width="182.9" height="137.883605"/>
  </clipPath>
  <clipPath id="p18932697e9">
   <rect x="267.1" y="179.836395" width="182.9" height="137.883605"/>
  </clipPath>
 </defs>
</svg>
