<?xml version="1.0" encoding="utf-8" standalone="no"?>
<!DOCTYPE svg PUBLIC "-//W3C//DTD SVG 1.1//EN"
  "http://www.w3.org/Graphics/SVG/1.1/DTD/svg11.dtd">
<svg xmlns:xlink="http://www.w3.org/1999/xlink" width="460.8pt" height="345.6pt" viewBox="0 0 460.8 345.6" xmlns="http://www.w3.org/2000/svg" version="1.1">
 <metadata>
  <rdf:RDF xmlns:dc="http://purl.org/dc/elements/1.1/" xmlns:cc="http://creativecommons.org/ns#" xmlns:rdf="http://www.w3.org/1999/02/22-rdf-syntax-ns#">
   <cc:Work>
    <dc:type rdf:resource="http://purl.org/dc/dcmitype/StillImage"/>
    <dc:date>2025-08-02T18:54:37.150254</dc:date>
    <dc:format>image/svg+xml</dc:format>
    <dc:creator>
     <cc:Agent>
      <dc:title>Matplotlib v3.10.3, https://matplotlib.org/</dc:title>
     </cc:Agent>
    </dc:creator>
   </cc:Work>
  </rdf:RDF>
 </metadata>
 <defs>
  <style type="text/css">*{stroke-linejoin: round; stroke-linecap: butt}</style>
 </defs>
 <g id="figure_1">
  <g id="patch_1">
   <path d="M 0 345.6 
L 460.8 345.6 
L 460.8 0 
L 0 0 
z
" style="fill: #ffffff"/>
  </g>
  <g id="axes_1">
   <g id="patch_2">
    <path d="M 0 345.6 
L 460.8 345.6 
L 460.8 0 
L 0 0 
z
" style="fill: #ffffff"/>
   </g>
   <g id="matplotlib.axis_1">
    <g id="xtick_1">
     <g id="line2d_1">
      <defs>
       <path id="m156ec8d3ad" d="M 0 0 
L 0 3.5 
" style="stroke: #000000; stroke-width: 0.8"/>
      </defs>
      <g>
       <use xlink:href="#m156ec8d3ad" x="40.50989" y="172.8" style="stroke: #000000; stroke-width: 0.8"/>
      </g>
     </g>
     <g id="text_1">
      <!-- −3 -->
      <g transform="translate(33.138796 187.398437) scale(0.1 -0.1)">
       <defs>
        <path id="DejaVuSans-2212" d="M 678 2272 
L 4684 2272 
L 4684 1741 
L 678 1741 
L 678 2272 
z
" transform="scale(0.015625)"/>
        <path id="DejaVuSans-33" d="M 2597 2516 
Q 3050 2419 3304 2112 
Q 3559 1806 3559 1356 
Q 3559 666 3084 287 
Q 2609 -91 1734 -91 
Q 1441 -91 1130 -33 
Q 819 25 488 141 
L 488 750 
Q 750 597 1062 519 
Q 1375 441 1716 441 
Q 2309 441 2620 675 
Q 2931 909 2931 1356 
Q 2931 1769 2642 2001 
Q 2353 2234 1838 2234 
L 1294 2234 
L 1294 2753 
L 1863 2753 
Q 2328 2753 2575 2939 
Q 2822 3125 2822 3475 
Q 2822 3834 2567 4026 
Q 2313 4219 1838 4219 
Q 1578 4219 1281 4162 
Q 984 4106 628 3988 
L 628 4550 
Q 988 4650 1302 4700 
Q 1616 4750 1894 4750 
Q 2613 4750 3031 4423 
Q 3450 4097 3450 3541 
Q 3450 3153 3228 2886 
Q 3006 2619 2597 2516 
z
" transform="scale(0.015625)"/>
       </defs>
       <use xlink:href="#DejaVuSans-2212"/>
       <use xlink:href="#DejaVuSans-33" transform="translate(83.789062 0)"/>
      </g>
     </g>
    </g>
    <g id="xtick_2">
     <g id="line2d_2">
      <g>
       <use xlink:href="#m156ec8d3ad" x="103.806593" y="172.8" style="stroke: #000000; stroke-width: 0.8"/>
      </g>
     </g>
     <g id="text_2">
      <!-- −2 -->
      <g transform="translate(96.4355 187.398437) scale(0.1 -0.1)">
       <defs>
        <path id="DejaVuSans-32" d="M 1228 531 
L 3431 531 
L 3431 0 
L 469 0 
L 469 531 
Q 828 903 1448 1529 
Q 2069 2156 2228 2338 
Q 2531 2678 2651 2914 
Q 2772 3150 2772 3378 
Q 2772 3750 2511 3984 
Q 2250 4219 1831 4219 
Q 1534 4219 1204 4116 
Q 875 4013 500 3803 
L 500 4441 
Q 881 4594 1212 4672 
Q 1544 4750 1819 4750 
Q 2544 4750 2975 4387 
Q 3406 4025 3406 3419 
Q 3406 3131 3298 2873 
Q 3191 2616 2906 2266 
Q 2828 2175 2409 1742 
Q 1991 1309 1228 531 
z
" transform="scale(0.015625)"/>
       </defs>
       <use xlink:href="#DejaVuSans-2212"/>
       <use xlink:href="#DejaVuSans-32" transform="translate(83.789062 0)"/>
      </g>
     </g>
    </g>
    <g id="xtick_3">
     <g id="line2d_3">
      <g>
       <use xlink:href="#m156ec8d3ad" x="167.103297" y="172.8" style="stroke: #000000; stroke-width: 0.8"/>
      </g>
     </g>
     <g id="text_3">
      <!-- −1 -->
      <g transform="translate(159.732203 187.398437) scale(0.1 -0.1)">
       <defs>
        <path id="DejaVuSans-31" d="M 794 531 
L 1825 531 
L 1825 4091 
L 703 3866 
L 703 4441 
L 1819 4666 
L 2450 4666 
L 2450 531 
L 3481 531 
L 3481 0 
L 794 0 
L 794 531 
z
" transform="scale(0.015625)"/>
       </defs>
       <use xlink:href="#DejaVuSans-2212"/>
       <use xlink:href="#DejaVuSans-31" transform="translate(83.789062 0)"/>
      </g>
     </g>
    </g>
    <g id="xtick_4">
     <g id="line2d_4">
      <g>
       <use xlink:href="#m156ec8d3ad" x="230.4" y="172.8" style="stroke: #000000; stroke-width: 0.8"/>
      </g>
     </g>
    </g>
    <g id="xtick_5">
     <g id="line2d_5">
      <g>
       <use xlink:href="#m156ec8d3ad" x="293.696703" y="172.8" style="stroke: #000000; stroke-width: 0.8"/>
      </g>
     </g>
     <g id="text_4">
      <!-- 1 -->
      <g transform="translate(290.515453 187.398437) scale(0.1 -0.1)">
       <use xlink:href="#DejaVuSans-31"/>
      </g>
     </g>
    </g>
    <g id="xtick_6">
     <g id="line2d_6">
      <g>
       <use xlink:href="#m156ec8d3ad" x="356.993407" y="172.8" style="stroke: #000000; stroke-width: 0.8"/>
      </g>
     </g>
     <g id="text_5">
      <!-- 2 -->
      <g transform="translate(353.812157 187.398437) scale(0.1 -0.1)">
       <use xlink:href="#DejaVuSans-32"/>
      </g>
     </g>
    </g>
    <g id="xtick_7">
     <g id="line2d_7">
      <g>
       <use xlink:href="#m156ec8d3ad" x="420.29011" y="172.8" style="stroke: #000000; stroke-width: 0.8"/>
      </g>
     </g>
     <g id="text_6">
      <!-- 3 -->
      <g transform="translate(417.10886 187.398437) scale(0.1 -0.1)">
       <use xlink:href="#DejaVuSans-33"/>
      </g>
     </g>
    </g>
    <g id="xtick_8">
     <g id="line2d_8">
      <defs>
       <path id="md677249e89" d="M 0 0 
L 0 2 
" style="stroke: #000000; stroke-width: 0.6"/>
      </defs>
      <g>
       <use xlink:href="#md677249e89" x="2.531868" y="172.8" style="stroke: #000000; stroke-width: 0.6"/>
      </g>
     </g>
    </g>
    <g id="xtick_9">
     <g id="line2d_9">
      <g>
       <use xlink:href="#md677249e89" x="15.191209" y="172.8" style="stroke: #000000; stroke-width: 0.6"/>
      </g>
     </g>
    </g>
    <g id="xtick_10">
     <g id="line2d_10">
      <g>
       <use xlink:href="#md677249e89" x="27.850549" y="172.8" style="stroke: #000000; stroke-width: 0.6"/>
      </g>
     </g>
    </g>
    <g id="xtick_11">
     <g id="line2d_11">
      <g>
       <use xlink:href="#md677249e89" x="53.169231" y="172.8" style="stroke: #000000; stroke-width: 0.6"/>
      </g>
     </g>
    </g>
    <g id="xtick_12">
     <g id="line2d_12">
      <g>
       <use xlink:href="#md677249e89" x="65.828571" y="172.8" style="stroke: #000000; stroke-width: 0.6"/>
      </g>
     </g>
    </g>
    <g id="xtick_13">
     <g id="line2d_13">
      <g>
       <use xlink:href="#md677249e89" x="78.487912" y="172.8" style="stroke: #000000; stroke-width: 0.6"/>
      </g>
     </g>
    </g>
    <g id="xtick_14">
     <g id="line2d_14">
      <g>
       <use xlink:href="#md677249e89" x="91.147253" y="172.8" style="stroke: #000000; stroke-width: 0.6"/>
      </g>
     </g>
    </g>
    <g id="xtick_15">
     <g id="line2d_15">
      <g>
       <use xlink:href="#md677249e89" x="116.465934" y="172.8" style="stroke: #000000; stroke-width: 0.6"/>
      </g>
     </g>
    </g>
    <g id="xtick_16">
     <g id="line2d_16">
      <g>
       <use xlink:href="#md677249e89" x="129.125275" y="172.8" style="stroke: #000000; stroke-width: 0.6"/>
      </g>
     </g>
    </g>
    <g id="xtick_17">
     <g id="line2d_17">
      <g>
       <use xlink:href="#md677249e89" x="141.784615" y="172.8" style="stroke: #000000; stroke-width: 0.6"/>
      </g>
     </g>
    </g>
    <g id="xtick_18">
     <g id="line2d_18">
      <g>
       <use xlink:href="#md677249e89" x="154.443956" y="172.8" style="stroke: #000000; stroke-width: 0.6"/>
      </g>
     </g>
    </g>
    <g id="xtick_19">
     <g id="line2d_19">
      <g>
       <use xlink:href="#md677249e89" x="179.762637" y="172.8" style="stroke: #000000; stroke-width: 0.6"/>
      </g>
     </g>
    </g>
    <g id="xtick_20">
     <g id="line2d_20">
      <g>
       <use xlink:href="#md677249e89" x="192.421978" y="172.8" style="stroke: #000000; stroke-width: 0.6"/>
      </g>
     </g>
    </g>
    <g id="xtick_21">
     <g id="line2d_21">
      <g>
       <use xlink:href="#md677249e89" x="205.081319" y="172.8" style="stroke: #000000; stroke-width: 0.6"/>
      </g>
     </g>
    </g>
    <g id="xtick_22">
     <g id="line2d_22">
      <g>
       <use xlink:href="#md677249e89" x="217.740659" y="172.8" style="stroke: #000000; stroke-width: 0.6"/>
      </g>
     </g>
    </g>
    <g id="xtick_23">
     <g id="line2d_23">
      <g>
       <use xlink:href="#md677249e89" x="243.059341" y="172.8" style="stroke: #000000; stroke-width: 0.6"/>
      </g>
     </g>
    </g>
    <g id="xtick_24">
     <g id="line2d_24">
      <g>
       <use xlink:href="#md677249e89" x="255.718681" y="172.8" style="stroke: #000000; stroke-width: 0.6"/>
      </g>
     </g>
    </g>
    <g id="xtick_25">
     <g id="line2d_25">
      <g>
       <use xlink:href="#md677249e89" x="268.378022" y="172.8" style="stroke: #000000; stroke-width: 0.6"/>
      </g>
     </g>
    </g>
    <g id="xtick_26">
     <g id="line2d_26">
      <g>
       <use xlink:href="#md677249e89" x="281.037363" y="172.8" style="stroke: #000000; stroke-width: 0.6"/>
      </g>
     </g>
    </g>
    <g id="xtick_27">
     <g id="line2d_27">
      <g>
       <use xlink:href="#md677249e89" x="306.356044" y="172.8" style="stroke: #000000; stroke-width: 0.6"/>
      </g>
     </g>
    </g>
    <g id="xtick_28">
     <g id="line2d_28">
      <g>
       <use xlink:href="#md677249e89" x="319.015385" y="172.8" style="stroke: #000000; stroke-width: 0.6"/>
      </g>
     </g>
    </g>
    <g id="xtick_29">
     <g id="line2d_29">
      <g>
       <use xlink:href="#md677249e89" x="331.674725" y="172.8" style="stroke: #000000; stroke-width: 0.6"/>
      </g>
     </g>
    </g>
    <g id="xtick_30">
     <g id="line2d_30">
      <g>
       <use xlink:href="#md677249e89" x="344.334066" y="172.8" style="stroke: #000000; stroke-width: 0.6"/>
      </g>
     </g>
    </g>
    <g id="xtick_31">
     <g id="line2d_31">
      <g>
       <use xlink:href="#md677249e89" x="369.652747" y="172.8" style="stroke: #000000; stroke-width: 0.6"/>
      </g>
     </g>
    </g>
    <g id="xtick_32">
     <g id="line2d_32">
      <g>
       <use xlink:href="#md677249e89" x="382.312088" y="172.8" style="stroke: #000000; stroke-width: 0.6"/>
      </g>
     </g>
    </g>
    <g id="xtick_33">
     <g id="line2d_33">
      <g>
       <use xlink:href="#md677249e89" x="394.971429" y="172.8" style="stroke: #000000; stroke-width: 0.6"/>
      </g>
     </g>
    </g>
    <g id="xtick_34">
     <g id="line2d_34">
      <g>
       <use xlink:href="#md677249e89" x="407.630769" y="172.8" style="stroke: #000000; stroke-width: 0.6"/>
      </g>
     </g>
    </g>
    <g id="xtick_35">
     <g id="line2d_35">
      <g>
       <use xlink:href="#md677249e89" x="432.949451" y="172.8" style="stroke: #000000; stroke-width: 0.6"/>
      </g>
     </g>
    </g>
    <g id="xtick_36">
     <g id="line2d_36">
      <g>
       <use xlink:href="#md677249e89" x="445.608791" y="172.8" style="stroke: #000000; stroke-width: 0.6"/>
      </g>
     </g>
    </g>
    <g id="xtick_37">
     <g id="line2d_37">
      <g>
       <use xlink:href="#md677249e89" x="458.268132" y="172.8" style="stroke: #000000; stroke-width: 0.6"/>
      </g>
     </g>
    </g>
   </g>
   <g id="matplotlib.axis_2">
    <g id="ytick_1">
     <g id="line2d_38">
      <defs>
       <path id="mb96f5b5fb8" d="M 0 0 
L -3.5 0 
" style="stroke: #000000; stroke-width: 0.8"/>
      </defs>
      <g>
       <use xlink:href="#mb96f5b5fb8" x="230.4" y="305.723077" style="stroke: #000000; stroke-width: 0.8"/>
      </g>
     </g>
     <g id="text_7">
      <!-- −4 -->
      <g transform="translate(208.657812 309.522296) scale(0.1 -0.1)">
       <defs>
        <path id="DejaVuSans-34" d="M 2419 4116 
L 825 1625 
L 2419 1625 
L 2419 4116 
z
M 2253 4666 
L 3047 4666 
L 3047 1625 
L 3713 1625 
L 3713 1100 
L 3047 1100 
L 3047 0 
L 2419 0 
L 2419 1100 
L 313 1100 
L 313 1709 
L 2253 4666 
z
" transform="scale(0.015625)"/>
       </defs>
       <use xlink:href="#DejaVuSans-2212"/>
       <use xlink:href="#DejaVuSans-34" transform="translate(83.789062 0)"/>
      </g>
     </g>
    </g>
    <g id="ytick_2">
     <g id="line2d_39">
      <g>
       <use xlink:href="#mb96f5b5fb8" x="230.4" y="239.261538" style="stroke: #000000; stroke-width: 0.8"/>
      </g>
     </g>
     <g id="text_8">
      <!-- −2 -->
      <g transform="translate(208.657812 243.060757) scale(0.1 -0.1)">
       <use xlink:href="#DejaVuSans-2212"/>
       <use xlink:href="#DejaVuSans-32" transform="translate(83.789062 0)"/>
      </g>
     </g>
    </g>
    <g id="ytick_3">
     <g id="line2d_40">
      <g>
       <use xlink:href="#mb96f5b5fb8" x="230.4" y="172.8" style="stroke: #000000; stroke-width: 0.8"/>
      </g>
     </g>
    </g>
    <g id="ytick_4">
     <g id="line2d_41">
      <g>
       <use xlink:href="#mb96f5b5fb8" x="230.4" y="106.338462" style="stroke: #000000; stroke-width: 0.8"/>
      </g>
     </g>
     <g id="text_9">
      <!-- 2 -->
      <g transform="translate(217.0375 110.13768) scale(0.1 -0.1)">
       <use xlink:href="#DejaVuSans-32"/>
      </g>
     </g>
    </g>
    <g id="ytick_5">
     <g id="line2d_42">
      <g>
       <use xlink:href="#mb96f5b5fb8" x="230.4" y="39.876923" style="stroke: #000000; stroke-width: 0.8"/>
      </g>
     </g>
     <g id="text_10">
      <!-- 4 -->
      <g transform="translate(217.0375 43.676142) scale(0.1 -0.1)">
       <use xlink:href="#DejaVuSans-34"/>
      </g>
     </g>
    </g>
    <g id="ytick_6">
     <g id="line2d_43">
      <defs>
       <path id="m93093aac93" d="M 0 0 
L -2 0 
" style="stroke: #000000; stroke-width: 0.6"/>
      </defs>
      <g>
       <use xlink:href="#m93093aac93" x="230.4" y="338.953846" style="stroke: #000000; stroke-width: 0.6"/>
      </g>
     </g>
    </g>
    <g id="ytick_7">
     <g id="line2d_44">
      <g>
       <use xlink:href="#m93093aac93" x="230.4" y="322.338462" style="stroke: #000000; stroke-width: 0.6"/>
      </g>
     </g>
    </g>
    <g id="ytick_8">
     <g id="line2d_45">
      <g>
       <use xlink:href="#m93093aac93" x="230.4" y="289.107692" style="stroke: #000000; stroke-width: 0.6"/>
      </g>
     </g>
    </g>
    <g id="ytick_9">
     <g id="line2d_46">
      <g>
       <use xlink:href="#m93093aac93" x="230.4" y="272.492308" style="stroke: #000000; stroke-width: 0.6"/>
      </g>
     </g>
    </g>
    <g id="ytick_10">
     <g id="line2d_47">
      <g>
       <use xlink:href="#m93093aac93" x="230.4" y="255.876923" style="stroke: #000000; stroke-width: 0.6"/>
      </g>
     </g>
    </g>
    <g id="ytick_11">
     <g id="line2d_48">
      <g>
       <use xlink:href="#m93093aac93" x="230.4" y="222.646154" style="stroke: #000000; stroke-width: 0.6"/>
      </g>
     </g>
    </g>
    <g id="ytick_12">
     <g id="line2d_49">
      <g>
       <use xlink:href="#m93093aac93" x="230.4" y="206.030769" style="stroke: #000000; stroke-width: 0.6"/>
      </g>
     </g>
    </g>
    <g id="ytick_13">
     <g id="line2d_50">
      <g>
       <use xlink:href="#m93093aac93" x="230.4" y="189.415385" style="stroke: #000000; stroke-width: 0.6"/>
      </g>
     </g>
    </g>
    <g id="ytick_14">
     <g id="line2d_51">
      <g>
       <use xlink:href="#m93093aac93" x="230.4" y="156.184615" style="stroke: #000000; stroke-width: 0.6"/>
      </g>
     </g>
    </g>
    <g id="ytick_15">
     <g id="line2d_52">
      <g>
       <use xlink:href="#m93093aac93" x="230.4" y="139.569231" style="stroke: #000000; stroke-width: 0.6"/>
      </g>
     </g>
    </g>
    <g id="ytick_16">
     <g id="line2d_53">
      <g>
       <use xlink:href="#m93093aac93" x="230.4" y="122.953846" style="stroke: #000000; stroke-width: 0.6"/>
      </g>
     </g>
    </g>
    <g id="ytick_17">
     <g id="line2d_54">
      <g>
       <use xlink:href="#m93093aac93" x="230.4" y="89.723077" style="stroke: #000000; stroke-width: 0.6"/>
      </g>
     </g>
    </g>
    <g id="ytick_18">
     <g id="line2d_55">
      <g>
       <use xlink:href="#m93093aac93" x="230.4" y="73.107692" style="stroke: #000000; stroke-width: 0.6"/>
      </g>
     </g>
    </g>
    <g id="ytick_19">
     <g id="line2d_56">
      <g>
       <use xlink:href="#m93093aac93" x="230.4" y="56.492308" style="stroke: #000000; stroke-width: 0.6"/>
      </g>
     </g>
    </g>
    <g id="ytick_20">
     <g id="line2d_57">
      <g>
       <use xlink:href="#m93093aac93" x="230.4" y="23.261538" style="stroke: #000000; stroke-width: 0.6"/>
      </g>
     </g>
    </g>
    <g id="ytick_21">
     <g id="line2d_58">
      <g>
       <use xlink:href="#m93093aac93" x="230.4" y="6.646154" style="stroke: #000000; stroke-width: 0.6"/>
      </g>
     </g>
    </g>
   </g>
   <g id="line2d_59">
    <path d="M 8.861538 165.046154 
L 10.382317 164.945813 
L 13.519972 164.732401 
L 16.623334 164.512454 
L 17.019133 164.483742 
L 18.976482 164.339487 
L 22.372355 164.079939 
L 23.83327 163.964505 
L 25.630743 163.819229 
L 28.809898 163.553139 
L 31.287111 163.337305 
L 32.581458 163.221435 
L 35.423946 162.959188 
L 38.841919 162.628937 
L 40.066813 162.506418 
L 40.331423 162.479652 
L 40.463728 162.466228 
" clip-path="url(#p002dc9fc6d)" style="fill: none; stroke: #0000ff; stroke-linecap: square"/>
   </g>
   <g id="line2d_60">
    <path d="M 40.52988 165.413933 
L 40.596033 165.409127 
L 40.952967 165.383112 
L 42.918074 165.237326 
L 45.394622 165.047215 
L 46.925041 164.926021 
L 48.799725 164.773537 
L 51.275885 164.565035 
L 53.740956 164.349036 
L 55.828893 164.159152 
L 58.208695 163.934556 
L 59.904158 163.768982 
L 63.004948 163.453509 
L 65.485834 163.188621 
L 66.156328 163.11503 
L 68.340904 162.869089 
L 70.858247 162.573449 
L 74.20344 162.158903 
L 76.507147 161.858 
L 78.958759 161.522963 
L 79.804865 161.40361 
L 81.903319 161.098944 
L 83.546833 160.85135 
L 87.119227 160.284062 
L 88.773725 160.006925 
L 91.972472 159.443084 
L 93.000349 159.253594 
L 96.575937 158.560409 
L 97.92561 158.284156 
L 99.344352 157.984561 
L 102.921989 157.184251 
L 103.363516 157.080766 
L 103.677272 157.006568 
L 103.755711 156.987932 
" clip-path="url(#p002dc9fc6d)" style="fill: none; stroke: #0000ff; stroke-linecap: square"/>
   </g>
   <g id="line2d_61">
    <path d="M 103.834149 163.301557 
L 103.991027 163.279089 
L 104.24967 163.241863 
L 106.14843 162.961387 
L 109.87208 162.372046 
L 111.965815 162.015678 
L 114.253735 161.603624 
L 116.031551 161.265851 
L 118.75946 160.715012 
L 119.302764 160.600286 
L 121.375269 160.14624 
L 123.447774 159.664517 
L 123.817351 159.575525 
L 125.654384 159.118462 
L 127.491417 158.635457 
L 128.065393 158.478895 
L 129.879875 157.96515 
L 131.694358 157.420976 
L 132.63012 157.127597 
L 134.739653 156.431938 
L 136.849185 155.684718 
L 137.83151 155.31763 
L 139.244771 154.766516 
L 140.658032 154.186457 
L 141.432801 153.855388 
L 143.611614 152.870704 
L 144.947717 152.224533 
L 146.283819 151.543138 
L 148.121068 150.54342 
L 149.958317 149.463452 
L 150.873516 148.892617 
L 151.788716 148.298191 
L 153.468869 147.140685 
L 154.392233 146.465096 
L 155.315596 145.759214 
L 156.465241 144.834969 
L 157.614887 143.8564 
L 158.64417 142.93032 
L 159.673453 141.953118 
L 160.567737 141.059337 
L 161.46202 140.120772 
L 162.356304 139.134089 
L 163.250588 138.095618 
L 163.818665 137.40722 
L 164.386743 136.695173 
L 164.95482 135.958274 
L 165.522898 135.195239 
L 166.091559 134.403867 
L 166.66022 133.583452 
L 166.968643 133.125782 
L 167.04086 133.01729 
L 167.076968 132.962852 
" clip-path="url(#p002dc9fc6d)" style="fill: none; stroke: #0000ff; stroke-linecap: square"/>
   </g>
   <g id="line2d_62">
    <path d="M 167.257508 159.429576 
L 169.788036 158.024906 
L 172.391366 156.289411 
L 174.247087 154.820938 
L 175.850281 153.35602 
L 177.826397 151.234728 
L 179.343024 149.308057 
L 180.859652 147.049254 
L 182.383818 144.351252 
L 183.858565 141.2083 
L 185.258604 137.581854 
L 186.467164 133.780426 
L 187.44705 130.096896 
L 188.59025 124.895479 
L 189.68425 118.682779 
L 190.614935 112.076207 
L 191.497668 104.237555 
L 192.284494 95.441153 
L 193.136889 83.122577 
L 193.856616 69.374066 
L 194.553977 51.548791 
L 195.164169 30.260278 
L 195.77436 0.238116 
L 195.79463 -1 
L 195.79463 -1 
" clip-path="url(#p002dc9fc6d)" style="fill: none; stroke: #0000ff; stroke-linecap: square"/>
   </g>
   <g id="line2d_63">
    <path d="M 198.772678 -1 
L 198.773611 346.6 
" clip-path="url(#p002dc9fc6d)" style="fill: none; stroke-dasharray: 3.7,1.6; stroke-dashoffset: 0; stroke: #cccccc"/>
   </g>
   <g id="line2d_64">
    <path d="M 201.85326 346.6 
L 202.489277 317.770906 
L 203.16379 296.286222 
L 203.913249 279.007626 
L 204.720201 265.262735 
L 205.54974 254.542093 
L 206.48297 245.239506 
L 207.416201 237.948791 
L 208.400535 231.795041 
L 209.566416 225.96514 
L 210.759048 221.182916 
L 211.752908 217.875323 
L 213.239972 213.785396 
L 214.697515 210.529642 
L 216.173988 207.799236 
L 217.320294 205.98708 
L 218.848702 203.903227 
L 220.824797 201.654119 
L 222.443058 200.105987 
L 224.847282 198.183313 
L 226.846991 196.855288 
L 228.901884 195.693405 
L 230.382302 194.962111 
L 230.382302 194.962111 
" clip-path="url(#p002dc9fc6d)" style="fill: none; stroke: #0000ff; stroke-linecap: square"/>
   </g>
   <g id="line2d_65">
    <path d="M 230.457024 150.672709 
L 230.556653 150.718839 
L 230.843077 150.84959 
L 231.773882 151.256113 
L 232.704687 151.636199 
L 234.566297 152.324824 
L 235.845067 152.748229 
L 237.399455 153.214547 
L 238.953844 153.63304 
L 240.980761 154.114619 
L 241.685201 154.266448 
L 243.879278 154.692652 
L 245.266879 154.928408 
L 246.65448 155.140082 
L 248.471415 155.383293 
L 250.288351 155.590571 
L 251.872889 155.743829 
L 252.919563 155.831674 
L 255.723012 156.017015 
L 258.4857 156.131811 
L 260.814039 156.178295 
L 261.886217 156.184506 
L 265.138922 156.144909 
L 266.197636 156.112908 
L 267.838495 156.044406 
L 269.479355 155.952411 
L 272.309253 155.736196 
L 273.364354 155.636033 
L 275.14022 155.442041 
L 277.764909 155.092925 
L 279.470147 154.822707 
L 281.175385 154.514951 
L 282.156389 154.319571 
L 284.330816 153.834257 
L 285.518018 153.536147 
L 286.705219 153.212282 
L 288.133466 152.78548 
L 289.561713 152.313975 
L 290.565692 151.953083 
L 291.909659 151.427963 
L 293.253626 150.84959 
L 293.475165 150.7487 
L 293.585934 150.697636 
L 293.641319 150.671947 
" clip-path="url(#p002dc9fc6d)" style="fill: none; stroke: #0000ff; stroke-linecap: square"/>
   </g>
   <g id="line2d_66">
    <path d="M 294.13978 105.707885 
L 296.161339 102.549231 
L 298.305377 98.611807 
L 300.335503 94.192636 
L 302.150795 89.528505 
L 303.705343 84.868469 
L 305.322598 79.208237 
L 306.69211 73.611311 
L 308.035702 67.226187 
L 309.362243 59.835 
L 310.77114 50.472527 
L 312.002297 40.637719 
L 313.21743 28.939225 
L 314.333929 15.882697 
L 315.326372 1.806812 
L 315.502705 -1 
L 315.502705 -1 
" clip-path="url(#p002dc9fc6d)" style="fill: none; stroke: #0000ff; stroke-linecap: square"/>
   </g>
   <g id="line2d_67">
    <path d="M 325.398329 -1 
L 325.398542 346.6 
" clip-path="url(#p002dc9fc6d)" style="fill: none; stroke-dasharray: 3.7,1.6; stroke-dashoffset: 0; stroke: #cccccc"/>
   </g>
   <g id="line2d_68">
    <path d="M 333.850587 346.6 
L 334.753291 328.877925 
L 335.833455 311.70081 
L 337.011816 296.607362 
L 338.189367 284.307149 
L 339.379255 273.989532 
L 340.580162 265.224001 
L 342.095071 255.976539 
L 343.543637 248.589972 
L 345.147456 241.688598 
L 346.760878 235.804311 
L 348.21508 231.224128 
L 349.729576 227.045805 
L 351.454395 222.890008 
L 353.325071 218.975442 
L 355.168076 215.61144 
L 356.94782 212.745953 
L 356.94782 212.745953 
" clip-path="url(#p002dc9fc6d)" style="fill: none; stroke: #0000ff; stroke-linecap: square"/>
   </g>
   <g id="line2d_69">
    <path d="M 357.436484 238.160913 
L 358.039374 236.712819 
L 358.642265 235.318963 
L 359.120822 234.249234 
L 359.59938 233.210473 
L 360.329165 231.683122 
L 361.05895 230.220546 
L 361.788735 228.81882 
L 362.51852 227.474333 
L 363.3412 226.023177 
L 364.163879 224.636132 
L 364.70588 223.755382 
L 365.24788 222.899631 
L 366.331881 221.259118 
L 367.002835 220.288486 
L 367.67379 219.350111 
L 368.344744 218.442466 
L 369.015699 217.564118 
L 369.86766 216.488926 
L 370.719621 215.456236 
L 371.571582 214.463667 
L 372.423543 213.50901 
L 373.188064 212.682919 
L 373.952586 211.884323 
L 375.091361 210.742996 
L 376.230136 209.655847 
L 377.024094 208.928001 
L 377.818051 208.223593 
L 379.405967 206.880886 
L 381.10741 205.532712 
L 382.677506 204.364527 
L 383.709742 203.633234 
L 384.741978 202.929247 
L 386.591572 201.731655 
L 388.441166 200.609723 
L 388.782764 200.410252 
L 390.143309 199.638379 
L 391.503853 198.900908 
L 393.652791 197.801054 
L 395.103864 197.100081 
L 396.554938 196.430277 
L 398.195211 195.708259 
L 399.666033 195.090517 
L 401.136855 194.499094 
L 402.26142 194.063687 
L 404.777915 193.138541 
L 406.465154 192.553742 
L 408.152392 191.995328 
L 410.54642 191.245091 
L 412.788669 190.583842 
L 413.626381 190.346415 
L 416.726421 189.510087 
L 417.624966 189.279446 
L 419.847033 188.730229 
L 420.068571 188.677062 
L 420.179341 188.650584 
L 420.234725 188.637371 
" clip-path="url(#p002dc9fc6d)" style="fill: none; stroke: #0000ff; stroke-linecap: square"/>
   </g>
   <g id="line2d_70">
    <path d="M 420.733187 194.806928 
L 421.127315 194.677529 
L 423.013485 194.074582 
L 425.713807 193.255902 
L 426.966475 192.892848 
L 429.790347 192.110656 
L 431.326209 191.705134 
L 434.034956 191.021759 
L 436.190807 190.505134 
L 437.895618 190.112649 
L 440.828813 189.468476 
L 441.928904 189.236497 
L 446.179938 188.385794 
L 446.419078 188.339991 
L 449.527805 187.763153 
L 451.938462 187.338462 
" clip-path="url(#p002dc9fc6d)" style="fill: none; stroke: #0000ff; stroke-linecap: square"/>
   </g>
   <g id="patch_3">
    <path d="M 230.4 345.6 
L 230.4 0 
" style="fill: none; stroke: #000000; stroke-width: 0.8; stroke-linejoin: miter; stroke-linecap: square"/>
   </g>
   <g id="patch_4">
    <path d="M 0 172.8 
L 460.8 172.8 
" style="fill: none; stroke: #000000; stroke-width: 0.8; stroke-linejoin: miter; stroke-linecap: square"/>
   </g>
  </g>
 </g>
 <defs>
  <clipPath id="p002dc9fc6d">
   <rect x="0" y="0" width="460.8" height="345.6"/>
  </clipPath>
 </defs>
</svg>
