<?xml version="1.0" encoding="utf-8" standalone="no"?>
<!DOCTYPE svg PUBLIC "-//W3C//DTD SVG 1.1//EN"
  "http://www.w3.org/Graphics/SVG/1.1/DTD/svg11.dtd">
<svg xmlns:xlink="http://www.w3.org/1999/xlink" width="460.8pt" height="345.6pt" viewBox="0 0 460.8 345.6" xmlns="http://www.w3.org/2000/svg" version="1.1">
 <metadata>
  <rdf:RDF xmlns:dc="http://purl.org/dc/elements/1.1/" xmlns:cc="http://creativecommons.org/ns#" xmlns:rdf="http://www.w3.org/1999/02/22-rdf-syntax-ns#">
   <cc:Work>
    <dc:type rdf:resource="http://purl.org/dc/dcmitype/StillImage"/>
    <dc:date>2025-08-01T20:13:46.295644</dc:date>
    <dc:format>image/svg+xml</dc:format>
    <dc:creator>
     <cc:Agent>
      <dc:title>Matplotlib v3.10.3, https://matplotlib.org/</dc:title>
     </cc:Agent>
    </dc:creator>
   </cc:Work>
  </rdf:RDF>
 </metadata>
 <defs>
  <style type="text/css">*{stroke-linejoin: round; stroke-linecap: butt}</style>
 </defs>
 <g id="figure_1">
  <g id="patch_1">
   <path d="M 0 345.6 
L 460.8 345.6 
L 460.8 0 
L 0 0 
z
" style="fill: #ffffff"/>
  </g>
  <g id="axes_1">
   <g id="patch_2">
    <path d="M 42.1 150.327209 
L 225 150.327209 
L 225 12.448663 
L 42.1 12.448663 
z
" style="fill: #ffffff"/>
   </g>
   <g id="patch_3">
    <path d="M 45.617308 81.391448 
L 45.617308 81.391448 
L 46.128217 82.601429 
L 47.2038 85.146921 
L 47.837822 86.645049 
L 49.476391 90.502458 
L 49.703255 91.034365 
L 51.166248 94.447767 
L 51.714955 95.719292 
L 52.514607 97.562342 
L 53.377172 99.535555 
L 54.495858 102.068737 
L 55.00777 103.217152 
L 55.843124 105.075319 
L 57.338072 108.346968 
L 57.981751 109.732502 
L 59.158801 112.226847 
L 59.718901 113.394905 
L 61.049626 116.117818 
L 61.334876 116.691484 
L 62.016828 118.047989 
L 63.331554 120.601076 
L 64.341987 122.504756 
L 65.372124 124.390394 
L 65.730451 125.032778 
L 67.263525 127.699126 
L 67.401229 127.931942 
L 68.69284 130.060064 
L 69.330627 131.072973 
L 70.75111 133.235476 
L 71.184313 133.868654 
L 71.767613 134.701334 
L 72.574889 135.815478 
L 73.382164 136.884352 
L 74.048497 137.731876 
L 75.118505 139.025845 
L 75.509397 139.477647 
L 76.586741 140.663967 
L 77.570523 141.670608 
L 78.627838 142.669442 
L 78.869364 142.885391 
L 80.251229 144.032412 
L 81.296137 144.798521 
L 81.796737 145.134309 
L 82.93446 145.821474 
L 83.260862 145.999012 
L 84.246625 146.481767 
L 85.225575 146.881294 
L 86.176248 147.192619 
L 87.149455 147.432699 
L 87.690899 147.531719 
L 88.42627 147.626567 
L 89.161641 147.675698 
L 90.021302 147.675129 
L 90.298161 147.661635 
L 91.388892 147.545402 
L 92.741099 147.261886 
L 93.158828 147.143185 
L 93.895626 146.898139 
L 94.676748 146.588789 
L 95.45787 146.228665 
L 95.852547 146.027485 
L 97.280346 145.192663 
L 97.923654 144.762141 
L 98.396219 144.424545 
L 99.570867 143.507769 
L 100.767312 142.461545 
L 101.022992 142.22343 
L 102.419497 140.833825 
L 102.976699 140.237881 
L 103.576135 139.570735 
L 104.700679 138.247433 
L 106.071937 136.509864 
L 106.896882 135.400548 
L 107.563006 134.47052 
L 108.256181 133.470814 
L 109.114651 132.188514 
L 109.913395 130.952492 
L 110.761373 129.596141 
L 112.105086 127.35677 
L 112.580531 126.538773 
L 113.494521 124.929881 
L 114.437195 123.221887 
L 115.095429 122.001011 
L 116.647756 119.034096 
L 116.947029 118.448505 
L 117.991297 116.372439 
L 119.045274 114.227711 
L 119.876239 112.503816 
L 120.704214 110.758847 
L 121.727554 108.566807 
L 122.820465 106.185707 
L 123.647303 104.358983 
L 123.869555 103.864479 
L 125.52768 100.132619 
L 126.09603 98.837664 
L 126.704034 97.444408 
L 128.122874 94.164786 
L 128.898871 92.356661 
L 129.994244 89.790348 
L 130.148967 89.426725 
L 131.716975 85.729723 
L 131.886569 85.328836 
L 132.995365 82.704971 
L 134.024856 80.266841 
L 135.276898 77.304016 
L 135.902965 75.825192 
L 136.6263 74.12013 
L 137.826067 71.303263 
L 138.814099 68.997206 
L 139.014832 68.53049 
L 139.928963 66.413813 
L 140.738196 64.553285 
L 141.837465 62.048768 
L 142.644345 60.229183 
L 143.79772 57.659128 
L 144.856089 55.336122 
L 145.068554 54.874167 
L 146.209041 52.421222 
L 147.32646 50.064508 
L 147.883551 48.907982 
L 148.966059 46.697886 
L 149.654764 45.318598 
L 150.361078 43.926732 
L 151.476767 41.777098 
L 152.6807 39.528138 
L 153.060421 38.834685 
L 154.12168 36.938532 
L 155.359371 34.808049 
L 156.256941 33.319768 
L 157.35595 31.564942 
L 158.234391 30.217411 
L 158.640746 29.611033 
L 159.49023 28.378803 
L 160.383134 27.136241 
L 161.755002 25.335156 
L 162.123448 24.874198 
L 162.923128 23.907526 
L 164.315673 22.336618 
L 165.240269 21.374102 
L 166.214498 20.430788 
L 166.842973 19.861374 
L 167.973543 18.915323 
L 168.109664 18.808264 
L 169.438605 17.841187 
L 169.849365 17.571161 
L 171.23361 16.7627 
L 171.644699 16.552963 
L 172.413196 16.19842 
L 173.181693 15.89302 
L 173.542776 15.766563 
L 174.315644 15.532621 
L 175.303388 15.306748 
L 176.500466 15.143321 
L 177.406443 15.100173 
L 178.257068 15.122874 
L 179.504729 15.266866 
L 179.593257 15.282079 
L 180.986727 15.608556 
L 182.086639 15.981425 
L 182.982247 16.359665 
L 183.46656 16.591968 
L 184.525928 17.167622 
L 185.358365 17.68455 
L 186.192345 18.258939 
L 187.130012 18.971642 
L 188.266617 19.929385 
L 188.898726 20.50598 
L 189.398714 20.984066 
L 190.255992 21.848562 
L 191.71396 23.446609 
L 191.970946 23.744711 
L 193.206606 25.245465 
L 194.202579 26.534887 
L 194.702458 27.208331 
L 195.96513 28.985874 
L 196.526508 29.810629 
L 197.912865 31.93558 
L 198.459808 32.80758 
L 199.617521 34.714114 
L 200.091217 35.517409 
L 201.378772 37.766563 
L 201.987064 38.861554 
L 203.167807 41.043882 
L 204.211737 43.033264 
L 204.718324 44.018052 
L 205.222788 45.010876 
L 206.086538 46.738065 
L 207.026224 48.654521 
L 207.898059 50.465637 
L 209.112584 53.038266 
L 210.236402 55.46641 
L 210.639969 56.348769 
L 211.855485 59.03708 
L 212.3142 60.062833 
L 213.800685 63.424768 
L 214.320864 64.613695 
L 215.170155 66.567111 
L 215.784285 67.98825 
L 217.111849 71.081465 
L 217.848578 72.808491 
L 219.03049 75.591023 
L 219.948228 77.759007 
L 220.913644 80.043795 
L 221.482692 81.391448 
L 221.482692 81.391448 
z
" clip-path="url(#pe84d9f3203)" style="fill: #808080; opacity: 0.5"/>
   </g>
   <g id="matplotlib.axis_1">
    <g id="xtick_1">
     <g id="line2d_1">
      <defs>
       <path id="m696f202f0c" d="M 0 0 
L 0 3.5 
" style="stroke: #000000; stroke-width: 0.8"/>
      </defs>
      <g>
       <use xlink:href="#m696f202f0c" x="49.580464" y="150.327209" style="stroke: #000000; stroke-width: 0.8"/>
      </g>
     </g>
     <g id="text_1">
      <!-- −3 -->
      <g transform="translate(42.20937 164.925646) scale(0.1 -0.1)">
       <defs>
        <path id="DejaVuSans-2212" d="M 678 2272 
L 4684 2272 
L 4684 1741 
L 678 1741 
L 678 2272 
z
" transform="scale(0.015625)"/>
        <path id="DejaVuSans-33" d="M 2597 2516 
Q 3050 2419 3304 2112 
Q 3559 1806 3559 1356 
Q 3559 666 3084 287 
Q 2609 -91 1734 -91 
Q 1441 -91 1130 -33 
Q 819 25 488 141 
L 488 750 
Q 750 597 1062 519 
Q 1375 441 1716 441 
Q 2309 441 2620 675 
Q 2931 909 2931 1356 
Q 2931 1769 2642 2001 
Q 2353 2234 1838 2234 
L 1294 2234 
L 1294 2753 
L 1863 2753 
Q 2328 2753 2575 2939 
Q 2822 3125 2822 3475 
Q 2822 3834 2567 4026 
Q 2313 4219 1838 4219 
Q 1578 4219 1281 4162 
Q 984 4106 628 3988 
L 628 4550 
Q 988 4650 1302 4700 
Q 1616 4750 1894 4750 
Q 2613 4750 3031 4423 
Q 3450 4097 3450 3541 
Q 3450 3153 3228 2886 
Q 3006 2619 2597 2516 
z
" transform="scale(0.015625)"/>
       </defs>
       <use xlink:href="#DejaVuSans-2212"/>
       <use xlink:href="#DejaVuSans-33" transform="translate(83.789062 0)"/>
      </g>
     </g>
    </g>
    <g id="xtick_2">
     <g id="line2d_2">
      <g>
       <use xlink:href="#m696f202f0c" x="77.570309" y="150.327209" style="stroke: #000000; stroke-width: 0.8"/>
      </g>
     </g>
     <g id="text_2">
      <!-- −2 -->
      <g transform="translate(70.199216 164.925646) scale(0.1 -0.1)">
       <defs>
        <path id="DejaVuSans-32" d="M 1228 531 
L 3431 531 
L 3431 0 
L 469 0 
L 469 531 
Q 828 903 1448 1529 
Q 2069 2156 2228 2338 
Q 2531 2678 2651 2914 
Q 2772 3150 2772 3378 
Q 2772 3750 2511 3984 
Q 2250 4219 1831 4219 
Q 1534 4219 1204 4116 
Q 875 4013 500 3803 
L 500 4441 
Q 881 4594 1212 4672 
Q 1544 4750 1819 4750 
Q 2544 4750 2975 4387 
Q 3406 4025 3406 3419 
Q 3406 3131 3298 2873 
Q 3191 2616 2906 2266 
Q 2828 2175 2409 1742 
Q 1991 1309 1228 531 
z
" transform="scale(0.015625)"/>
       </defs>
       <use xlink:href="#DejaVuSans-2212"/>
       <use xlink:href="#DejaVuSans-32" transform="translate(83.789062 0)"/>
      </g>
     </g>
    </g>
    <g id="xtick_3">
     <g id="line2d_3">
      <g>
       <use xlink:href="#m696f202f0c" x="105.560155" y="150.327209" style="stroke: #000000; stroke-width: 0.8"/>
      </g>
     </g>
     <g id="text_3">
      <!-- −1 -->
      <g transform="translate(98.189061 164.925646) scale(0.1 -0.1)">
       <defs>
        <path id="DejaVuSans-31" d="M 794 531 
L 1825 531 
L 1825 4091 
L 703 3866 
L 703 4441 
L 1819 4666 
L 2450 4666 
L 2450 531 
L 3481 531 
L 3481 0 
L 794 0 
L 794 531 
z
" transform="scale(0.015625)"/>
       </defs>
       <use xlink:href="#DejaVuSans-2212"/>
       <use xlink:href="#DejaVuSans-31" transform="translate(83.789062 0)"/>
      </g>
     </g>
    </g>
    <g id="xtick_4">
     <g id="line2d_4">
      <g>
       <use xlink:href="#m696f202f0c" x="133.55" y="150.327209" style="stroke: #000000; stroke-width: 0.8"/>
      </g>
     </g>
     <g id="text_4">
      <!-- 0 -->
      <g transform="translate(130.36875 164.925646) scale(0.1 -0.1)">
       <defs>
        <path id="DejaVuSans-30" d="M 2034 4250 
Q 1547 4250 1301 3770 
Q 1056 3291 1056 2328 
Q 1056 1369 1301 889 
Q 1547 409 2034 409 
Q 2525 409 2770 889 
Q 3016 1369 3016 2328 
Q 3016 3291 2770 3770 
Q 2525 4250 2034 4250 
z
M 2034 4750 
Q 2819 4750 3233 4129 
Q 3647 3509 3647 2328 
Q 3647 1150 3233 529 
Q 2819 -91 2034 -91 
Q 1250 -91 836 529 
Q 422 1150 422 2328 
Q 422 3509 836 4129 
Q 1250 4750 2034 4750 
z
" transform="scale(0.015625)"/>
       </defs>
       <use xlink:href="#DejaVuSans-30"/>
      </g>
     </g>
    </g>
    <g id="xtick_5">
     <g id="line2d_5">
      <g>
       <use xlink:href="#m696f202f0c" x="161.539845" y="150.327209" style="stroke: #000000; stroke-width: 0.8"/>
      </g>
     </g>
     <g id="text_5">
      <!-- 1 -->
      <g transform="translate(158.358595 164.925646) scale(0.1 -0.1)">
       <use xlink:href="#DejaVuSans-31"/>
      </g>
     </g>
    </g>
    <g id="xtick_6">
     <g id="line2d_6">
      <g>
       <use xlink:href="#m696f202f0c" x="189.529691" y="150.327209" style="stroke: #000000; stroke-width: 0.8"/>
      </g>
     </g>
     <g id="text_6">
      <!-- 2 -->
      <g transform="translate(186.348441 164.925646) scale(0.1 -0.1)">
       <use xlink:href="#DejaVuSans-32"/>
      </g>
     </g>
    </g>
    <g id="xtick_7">
     <g id="line2d_7">
      <g>
       <use xlink:href="#m696f202f0c" x="217.519536" y="150.327209" style="stroke: #000000; stroke-width: 0.8"/>
      </g>
     </g>
     <g id="text_7">
      <!-- 3 -->
      <g transform="translate(214.338286 164.925646) scale(0.1 -0.1)">
       <use xlink:href="#DejaVuSans-33"/>
      </g>
     </g>
    </g>
    <g id="xtick_8">
     <g id="line2d_8">
      <defs>
       <path id="m819f4e87ec" d="M 0 0 
L 0 2 
" style="stroke: #000000; stroke-width: 0.6"/>
      </defs>
      <g>
       <use xlink:href="#m819f4e87ec" x="43.982495" y="150.327209" style="stroke: #000000; stroke-width: 0.6"/>
      </g>
     </g>
    </g>
    <g id="xtick_9">
     <g id="line2d_9">
      <g>
       <use xlink:href="#m819f4e87ec" x="55.178433" y="150.327209" style="stroke: #000000; stroke-width: 0.6"/>
      </g>
     </g>
    </g>
    <g id="xtick_10">
     <g id="line2d_10">
      <g>
       <use xlink:href="#m819f4e87ec" x="60.776402" y="150.327209" style="stroke: #000000; stroke-width: 0.6"/>
      </g>
     </g>
    </g>
    <g id="xtick_11">
     <g id="line2d_11">
      <g>
       <use xlink:href="#m819f4e87ec" x="66.374371" y="150.327209" style="stroke: #000000; stroke-width: 0.6"/>
      </g>
     </g>
    </g>
    <g id="xtick_12">
     <g id="line2d_12">
      <g>
       <use xlink:href="#m819f4e87ec" x="71.97234" y="150.327209" style="stroke: #000000; stroke-width: 0.6"/>
      </g>
     </g>
    </g>
    <g id="xtick_13">
     <g id="line2d_13">
      <g>
       <use xlink:href="#m819f4e87ec" x="83.168278" y="150.327209" style="stroke: #000000; stroke-width: 0.6"/>
      </g>
     </g>
    </g>
    <g id="xtick_14">
     <g id="line2d_14">
      <g>
       <use xlink:href="#m819f4e87ec" x="88.766248" y="150.327209" style="stroke: #000000; stroke-width: 0.6"/>
      </g>
     </g>
    </g>
    <g id="xtick_15">
     <g id="line2d_15">
      <g>
       <use xlink:href="#m819f4e87ec" x="94.364217" y="150.327209" style="stroke: #000000; stroke-width: 0.6"/>
      </g>
     </g>
    </g>
    <g id="xtick_16">
     <g id="line2d_16">
      <g>
       <use xlink:href="#m819f4e87ec" x="99.962186" y="150.327209" style="stroke: #000000; stroke-width: 0.6"/>
      </g>
     </g>
    </g>
    <g id="xtick_17">
     <g id="line2d_17">
      <g>
       <use xlink:href="#m819f4e87ec" x="111.158124" y="150.327209" style="stroke: #000000; stroke-width: 0.6"/>
      </g>
     </g>
    </g>
    <g id="xtick_18">
     <g id="line2d_18">
      <g>
       <use xlink:href="#m819f4e87ec" x="116.756093" y="150.327209" style="stroke: #000000; stroke-width: 0.6"/>
      </g>
     </g>
    </g>
    <g id="xtick_19">
     <g id="line2d_19">
      <g>
       <use xlink:href="#m819f4e87ec" x="122.354062" y="150.327209" style="stroke: #000000; stroke-width: 0.6"/>
      </g>
     </g>
    </g>
    <g id="xtick_20">
     <g id="line2d_20">
      <g>
       <use xlink:href="#m819f4e87ec" x="127.952031" y="150.327209" style="stroke: #000000; stroke-width: 0.6"/>
      </g>
     </g>
    </g>
    <g id="xtick_21">
     <g id="line2d_21">
      <g>
       <use xlink:href="#m819f4e87ec" x="139.147969" y="150.327209" style="stroke: #000000; stroke-width: 0.6"/>
      </g>
     </g>
    </g>
    <g id="xtick_22">
     <g id="line2d_22">
      <g>
       <use xlink:href="#m819f4e87ec" x="144.745938" y="150.327209" style="stroke: #000000; stroke-width: 0.6"/>
      </g>
     </g>
    </g>
    <g id="xtick_23">
     <g id="line2d_23">
      <g>
       <use xlink:href="#m819f4e87ec" x="150.343907" y="150.327209" style="stroke: #000000; stroke-width: 0.6"/>
      </g>
     </g>
    </g>
    <g id="xtick_24">
     <g id="line2d_24">
      <g>
       <use xlink:href="#m819f4e87ec" x="155.941876" y="150.327209" style="stroke: #000000; stroke-width: 0.6"/>
      </g>
     </g>
    </g>
    <g id="xtick_25">
     <g id="line2d_25">
      <g>
       <use xlink:href="#m819f4e87ec" x="167.137814" y="150.327209" style="stroke: #000000; stroke-width: 0.6"/>
      </g>
     </g>
    </g>
    <g id="xtick_26">
     <g id="line2d_26">
      <g>
       <use xlink:href="#m819f4e87ec" x="172.735783" y="150.327209" style="stroke: #000000; stroke-width: 0.6"/>
      </g>
     </g>
    </g>
    <g id="xtick_27">
     <g id="line2d_27">
      <g>
       <use xlink:href="#m819f4e87ec" x="178.333752" y="150.327209" style="stroke: #000000; stroke-width: 0.6"/>
      </g>
     </g>
    </g>
    <g id="xtick_28">
     <g id="line2d_28">
      <g>
       <use xlink:href="#m819f4e87ec" x="183.931722" y="150.327209" style="stroke: #000000; stroke-width: 0.6"/>
      </g>
     </g>
    </g>
    <g id="xtick_29">
     <g id="line2d_29">
      <g>
       <use xlink:href="#m819f4e87ec" x="195.12766" y="150.327209" style="stroke: #000000; stroke-width: 0.6"/>
      </g>
     </g>
    </g>
    <g id="xtick_30">
     <g id="line2d_30">
      <g>
       <use xlink:href="#m819f4e87ec" x="200.725629" y="150.327209" style="stroke: #000000; stroke-width: 0.6"/>
      </g>
     </g>
    </g>
    <g id="xtick_31">
     <g id="line2d_31">
      <g>
       <use xlink:href="#m819f4e87ec" x="206.323598" y="150.327209" style="stroke: #000000; stroke-width: 0.6"/>
      </g>
     </g>
    </g>
    <g id="xtick_32">
     <g id="line2d_32">
      <g>
       <use xlink:href="#m819f4e87ec" x="211.921567" y="150.327209" style="stroke: #000000; stroke-width: 0.6"/>
      </g>
     </g>
    </g>
    <g id="xtick_33">
     <g id="line2d_33">
      <g>
       <use xlink:href="#m819f4e87ec" x="223.117505" y="150.327209" style="stroke: #000000; stroke-width: 0.6"/>
      </g>
     </g>
    </g>
   </g>
   <g id="matplotlib.axis_2">
    <g id="ytick_1">
     <g id="line2d_34">
      <defs>
       <path id="m2bb9666e4e" d="M 0 0 
L -3.5 0 
" style="stroke: #000000; stroke-width: 0.8"/>
      </defs>
      <g>
       <use xlink:href="#m2bb9666e4e" x="42.1" y="147.683233" style="stroke: #000000; stroke-width: 0.8"/>
      </g>
     </g>
     <g id="text_8">
      <!-- −1.0 -->
      <g transform="translate(10.817188 151.482452) scale(0.1 -0.1)">
       <defs>
        <path id="DejaVuSans-2e" d="M 684 794 
L 1344 794 
L 1344 0 
L 684 0 
L 684 794 
z
" transform="scale(0.015625)"/>
       </defs>
       <use xlink:href="#DejaVuSans-2212"/>
       <use xlink:href="#DejaVuSans-31" transform="translate(83.789062 0)"/>
       <use xlink:href="#DejaVuSans-2e" transform="translate(147.412109 0)"/>
       <use xlink:href="#DejaVuSans-30" transform="translate(179.199219 0)"/>
      </g>
     </g>
    </g>
    <g id="ytick_2">
     <g id="line2d_35">
      <g>
       <use xlink:href="#m2bb9666e4e" x="42.1" y="114.53734" style="stroke: #000000; stroke-width: 0.8"/>
      </g>
     </g>
     <g id="text_9">
      <!-- −0.5 -->
      <g transform="translate(10.817188 118.336559) scale(0.1 -0.1)">
       <defs>
        <path id="DejaVuSans-35" d="M 691 4666 
L 3169 4666 
L 3169 4134 
L 1269 4134 
L 1269 2991 
Q 1406 3038 1543 3061 
Q 1681 3084 1819 3084 
Q 2600 3084 3056 2656 
Q 3513 2228 3513 1497 
Q 3513 744 3044 326 
Q 2575 -91 1722 -91 
Q 1428 -91 1123 -41 
Q 819 9 494 109 
L 494 744 
Q 775 591 1075 516 
Q 1375 441 1709 441 
Q 2250 441 2565 725 
Q 2881 1009 2881 1497 
Q 2881 1984 2565 2268 
Q 2250 2553 1709 2553 
Q 1456 2553 1204 2497 
Q 953 2441 691 2322 
L 691 4666 
z
" transform="scale(0.015625)"/>
       </defs>
       <use xlink:href="#DejaVuSans-2212"/>
       <use xlink:href="#DejaVuSans-30" transform="translate(83.789062 0)"/>
       <use xlink:href="#DejaVuSans-2e" transform="translate(147.412109 0)"/>
       <use xlink:href="#DejaVuSans-35" transform="translate(179.199219 0)"/>
      </g>
     </g>
    </g>
    <g id="ytick_3">
     <g id="line2d_36">
      <g>
       <use xlink:href="#m2bb9666e4e" x="42.1" y="81.391448" style="stroke: #000000; stroke-width: 0.8"/>
      </g>
     </g>
     <g id="text_10">
      <!-- 0.0 -->
      <g transform="translate(19.196875 85.190666) scale(0.1 -0.1)">
       <use xlink:href="#DejaVuSans-30"/>
       <use xlink:href="#DejaVuSans-2e" transform="translate(63.623047 0)"/>
       <use xlink:href="#DejaVuSans-30" transform="translate(95.410156 0)"/>
      </g>
     </g>
    </g>
    <g id="ytick_4">
     <g id="line2d_37">
      <g>
       <use xlink:href="#m2bb9666e4e" x="42.1" y="48.245555" style="stroke: #000000; stroke-width: 0.8"/>
      </g>
     </g>
     <g id="text_11">
      <!-- 0.5 -->
      <g transform="translate(19.196875 52.044774) scale(0.1 -0.1)">
       <use xlink:href="#DejaVuSans-30"/>
       <use xlink:href="#DejaVuSans-2e" transform="translate(63.623047 0)"/>
       <use xlink:href="#DejaVuSans-35" transform="translate(95.410156 0)"/>
      </g>
     </g>
    </g>
    <g id="ytick_5">
     <g id="line2d_38">
      <g>
       <use xlink:href="#m2bb9666e4e" x="42.1" y="15.099662" style="stroke: #000000; stroke-width: 0.8"/>
      </g>
     </g>
     <g id="text_12">
      <!-- 1.0 -->
      <g transform="translate(19.196875 18.898881) scale(0.1 -0.1)">
       <use xlink:href="#DejaVuSans-31"/>
       <use xlink:href="#DejaVuSans-2e" transform="translate(63.623047 0)"/>
       <use xlink:href="#DejaVuSans-30" transform="translate(95.410156 0)"/>
      </g>
     </g>
    </g>
    <g id="ytick_6">
     <g id="line2d_39">
      <defs>
       <path id="meeebc345f3" d="M 0 0 
L -2 0 
" style="stroke: #000000; stroke-width: 0.6"/>
      </defs>
      <g>
       <use xlink:href="#meeebc345f3" x="42.1" y="141.054054" style="stroke: #000000; stroke-width: 0.6"/>
      </g>
     </g>
    </g>
    <g id="ytick_7">
     <g id="line2d_40">
      <g>
       <use xlink:href="#meeebc345f3" x="42.1" y="134.424876" style="stroke: #000000; stroke-width: 0.6"/>
      </g>
     </g>
    </g>
    <g id="ytick_8">
     <g id="line2d_41">
      <g>
       <use xlink:href="#meeebc345f3" x="42.1" y="127.795697" style="stroke: #000000; stroke-width: 0.6"/>
      </g>
     </g>
    </g>
    <g id="ytick_9">
     <g id="line2d_42">
      <g>
       <use xlink:href="#meeebc345f3" x="42.1" y="121.166519" style="stroke: #000000; stroke-width: 0.6"/>
      </g>
     </g>
    </g>
    <g id="ytick_10">
     <g id="line2d_43">
      <g>
       <use xlink:href="#meeebc345f3" x="42.1" y="107.908162" style="stroke: #000000; stroke-width: 0.6"/>
      </g>
     </g>
    </g>
    <g id="ytick_11">
     <g id="line2d_44">
      <g>
       <use xlink:href="#meeebc345f3" x="42.1" y="101.278983" style="stroke: #000000; stroke-width: 0.6"/>
      </g>
     </g>
    </g>
    <g id="ytick_12">
     <g id="line2d_45">
      <g>
       <use xlink:href="#meeebc345f3" x="42.1" y="94.649805" style="stroke: #000000; stroke-width: 0.6"/>
      </g>
     </g>
    </g>
    <g id="ytick_13">
     <g id="line2d_46">
      <g>
       <use xlink:href="#meeebc345f3" x="42.1" y="88.020626" style="stroke: #000000; stroke-width: 0.6"/>
      </g>
     </g>
    </g>
    <g id="ytick_14">
     <g id="line2d_47">
      <g>
       <use xlink:href="#meeebc345f3" x="42.1" y="74.762269" style="stroke: #000000; stroke-width: 0.6"/>
      </g>
     </g>
    </g>
    <g id="ytick_15">
     <g id="line2d_48">
      <g>
       <use xlink:href="#meeebc345f3" x="42.1" y="68.133091" style="stroke: #000000; stroke-width: 0.6"/>
      </g>
     </g>
    </g>
    <g id="ytick_16">
     <g id="line2d_49">
      <g>
       <use xlink:href="#meeebc345f3" x="42.1" y="61.503912" style="stroke: #000000; stroke-width: 0.6"/>
      </g>
     </g>
    </g>
    <g id="ytick_17">
     <g id="line2d_50">
      <g>
       <use xlink:href="#meeebc345f3" x="42.1" y="54.874734" style="stroke: #000000; stroke-width: 0.6"/>
      </g>
     </g>
    </g>
    <g id="ytick_18">
     <g id="line2d_51">
      <g>
       <use xlink:href="#meeebc345f3" x="42.1" y="41.616377" style="stroke: #000000; stroke-width: 0.6"/>
      </g>
     </g>
    </g>
    <g id="ytick_19">
     <g id="line2d_52">
      <g>
       <use xlink:href="#meeebc345f3" x="42.1" y="34.987198" style="stroke: #000000; stroke-width: 0.6"/>
      </g>
     </g>
    </g>
    <g id="ytick_20">
     <g id="line2d_53">
      <g>
       <use xlink:href="#meeebc345f3" x="42.1" y="28.358019" style="stroke: #000000; stroke-width: 0.6"/>
      </g>
     </g>
    </g>
    <g id="ytick_21">
     <g id="line2d_54">
      <g>
       <use xlink:href="#meeebc345f3" x="42.1" y="21.728841" style="stroke: #000000; stroke-width: 0.6"/>
      </g>
     </g>
    </g>
   </g>
   <g id="line2d_55">
    <path d="M 45.617308 81.391448 
L 53.377172 99.535555 
L 57.981751 109.732502 
L 62.016828 118.047989 
L 65.730451 125.032778 
L 69.330627 131.072973 
L 72.574889 135.815478 
L 75.118505 139.025845 
L 76.586741 140.663967 
L 78.869364 142.885391 
L 81.296137 144.798521 
L 83.260862 145.999012 
L 85.225575 146.881294 
L 87.149455 147.432699 
L 88.42627 147.626567 
L 90.298161 147.661635 
L 91.388892 147.545402 
L 93.158828 147.143185 
L 94.676748 146.588789 
L 95.852547 146.027485 
L 98.396219 144.424545 
L 100.767312 142.461545 
L 102.419497 140.833825 
L 104.700679 138.247433 
L 107.563006 134.47052 
L 109.913395 130.952492 
L 112.580531 126.538773 
L 115.095429 122.001011 
L 119.045274 114.227711 
L 122.820465 106.185707 
L 126.704034 97.444408 
L 134.024856 80.266841 
L 141.837465 62.048768 
L 146.209041 52.421222 
L 149.654764 45.318598 
L 153.060421 38.834685 
L 156.256941 33.319768 
L 158.640746 29.611033 
L 160.383134 27.136241 
L 162.923128 23.907526 
L 165.240269 21.374102 
L 166.842973 19.861374 
L 168.109664 18.808264 
L 169.849365 17.571161 
L 172.413196 16.19842 
L 174.315644 15.532621 
L 176.500466 15.143321 
L 178.257068 15.122874 
L 179.593257 15.282079 
L 180.986727 15.608556 
L 182.982247 16.359665 
L 184.525928 17.167622 
L 186.192345 18.258939 
L 188.266617 19.929385 
L 190.255992 21.848562 
L 193.206606 25.245465 
L 195.96513 28.985874 
L 198.459808 32.80758 
L 201.378772 37.766563 
L 204.211737 43.033264 
L 207.026224 48.654521 
L 210.639969 56.348769 
L 215.784285 67.98825 
L 221.482692 81.391448 
L 221.482692 81.391448 
" clip-path="url(#pe84d9f3203)" style="fill: none; stroke: #0000ff; stroke-linecap: square"/>
   </g>
   <g id="patch_4">
    <path d="M 42.1 150.327209 
L 42.1 12.448663 
" style="fill: none; stroke: #000000; stroke-width: 0.8; stroke-linejoin: miter; stroke-linecap: square"/>
   </g>
   <g id="patch_5">
    <path d="M 225 150.327209 
L 225 12.448663 
" style="fill: none; stroke: #000000; stroke-width: 0.8; stroke-linejoin: miter; stroke-linecap: square"/>
   </g>
   <g id="patch_6">
    <path d="M 42.1 150.327209 
L 225 150.327209 
" style="fill: none; stroke: #000000; stroke-width: 0.8; stroke-linejoin: miter; stroke-linecap: square"/>
   </g>
   <g id="patch_7">
    <path d="M 42.1 12.448663 
L 225 12.448663 
" style="fill: none; stroke: #000000; stroke-width: 0.8; stroke-linejoin: miter; stroke-linecap: square"/>
   </g>
  </g>
  <g id="axes_2">
   <g id="patch_8">
    <path d="M 267.1 150.327209 
L 450 150.327209 
L 450 12.448663 
L 267.1 12.448663 
z
" style="fill: #ffffff"/>
   </g>
   <g id="patch_9">
    <path d="M 270.617308 147.675698 
L 270.617308 81.380546 
L 271.144453 82.629077 
L 272.762764 86.457338 
L 273.619207 88.477277 
L 274.539691 90.640796 
L 275.059099 91.857351 
L 276.238951 94.606731 
L 276.605062 95.455321 
L 277.774222 98.148425 
L 278.772318 100.424525 
L 279.728046 102.581353 
L 280.031051 103.260114 
L 281.409645 106.314751 
L 282.473274 108.63055 
L 282.904314 109.55802 
L 284.045772 111.981244 
L 285.139562 114.255584 
L 285.56551 115.127873 
L 286.689223 117.391075 
L 287.711628 119.399908 
L 288.304698 120.542102 
L 288.852939 121.582334 
L 290.313753 124.277722 
L 290.529704 124.666441 
L 291.467509 126.324332 
L 292.695182 128.418132 
L 293.706721 130.075501 
L 294.191406 130.847235 
L 295.303473 132.561481 
L 296.450567 134.245054 
L 296.693633 134.590493 
L 297.831435 136.153732 
L 299.233546 137.955371 
L 299.66167 138.477401 
L 300.412096 139.360127 
L 301.165411 140.204336 
L 302.381368 141.476866 
L 303.580376 142.620626 
L 304.309368 143.26123 
L 305.434534 144.167438 
L 306.127381 144.675076 
L 306.619775 145.012287 
L 307.34602 145.473681 
L 308.765104 146.250461 
L 309.097602 146.408422 
L 309.956695 146.77402 
L 310.815788 147.078017 
L 310.984409 147.130428 
L 311.754773 147.339491 
L 312.525137 147.498592 
L 313.311443 147.609337 
L 314.360353 147.675698 
L 314.95489 147.671977 
L 315.95395 147.598374 
L 316.626199 147.50136 
L 317.17154 147.394639 
L 318.258419 147.10725 
L 319.559485 146.632963 
L 320.232116 146.33241 
L 321.151476 145.86098 
L 322.098228 145.30281 
L 323.171153 144.581896 
L 323.354323 144.449511 
L 324.100248 143.882562 
L 324.846173 143.271226 
L 325.5241 142.677482 
L 326.268736 141.983888 
L 327.389105 140.859667 
L 327.990291 140.21701 
L 329.23383 138.801903 
L 330.127863 137.714327 
L 330.841179 136.805316 
L 331.19329 136.343297 
L 332.60449 134.40508 
L 333.516865 133.079923 
L 334.432952 131.694114 
L 334.811097 131.106276 
L 335.732133 129.63674 
L 336.85847 127.76879 
L 337.488381 126.691182 
L 338.269631 125.322855 
L 339.341215 123.39056 
L 340.813644 120.635628 
L 341.229381 119.837779 
L 342.12548 118.08944 
L 343.409913 115.51829 
L 343.694783 114.938111 
L 345.250536 111.709864 
L 345.829248 110.484569 
L 346.934194 108.110978 
L 347.690367 106.462373 
L 348.027427 105.721546 
L 349.425558 102.612104 
L 350.256189 100.739201 
L 351.29217 98.379575 
L 351.94503 96.880408 
L 352.488258 95.626526 
L 354.030376 92.03935 
L 354.393713 91.189065 
L 355.414513 88.791795 
L 356.648259 85.881581 
L 356.818419 85.479386 
L 358.527794 81.433143 
L 358.992946 80.331421 
L 360.221629 77.423449 
L 360.602546 76.523204 
L 361.53922 74.313676 
L 362.957 70.985121 
L 363.237889 70.328567 
L 364.324511 67.799754 
L 365.423548 65.262879 
L 366.203489 63.47741 
L 367.074946 61.498946 
L 368.200813 58.971702 
L 368.954375 57.300178 
L 369.601993 55.877553 
L 370.45039 54.034654 
L 371.242054 52.337613 
L 371.936741 50.867551 
L 373.461204 47.708679 
L 374.375473 45.861521 
L 374.686256 45.242157 
L 375.614178 43.419696 
L 376.757407 41.231936 
L 377.16694 40.464332 
L 378.603968 37.841215 
L 379.081767 36.994138 
L 380.011542 35.383056 
L 380.981137 33.757058 
L 381.547297 32.83392 
L 383.147943 30.33269 
L 383.758987 29.421439 
L 384.999146 27.648564 
L 385.189698 27.385422 
L 386.463586 25.691125 
L 387.463678 24.44163 
L 387.852349 23.97556 
L 389.095534 22.559563 
L 390.204643 21.394126 
L 390.566987 21.033704 
L 391.310405 20.325955 
L 392.129479 19.596064 
L 392.948553 18.919077 
L 393.455529 18.526811 
L 394.604763 17.714145 
L 395.041646 17.433293 
L 396.313817 16.704438 
L 397.406238 16.185123 
L 398.231653 15.858559 
L 399.006894 15.603729 
L 399.750825 15.406629 
L 400.679738 15.225957 
L 401.221508 15.154212 
L 401.884543 15.100173 
L 403.193111 15.102663 
L 404.084609 15.187321 
L 405.383995 15.43093 
L 406.017528 15.601282 
L 406.320534 15.694676 
L 407.505476 16.133707 
L 408.625265 16.656067 
L 409.623958 17.209352 
L 410.63143 17.850266 
L 411.259514 18.291533 
L 411.679 18.603955 
L 412.86894 19.566671 
L 413.584421 20.199423 
L 414.546478 21.113174 
L 415.341503 21.922056 
L 416.558278 23.25269 
L 417.330001 24.153714 
L 417.994659 24.964628 
L 419.036124 26.299058 
L 420.178954 27.851039 
L 421.259699 29.40084 
L 422.178208 30.778999 
L 422.990389 32.04306 
L 423.334329 32.590943 
L 424.803387 35.012992 
L 425.6536 36.47353 
L 426.585419 38.12179 
L 426.642528 38.224385 
L 427.719478 40.192278 
L 428.680858 42.00059 
L 430.059863 44.674987 
L 430.901622 46.351673 
L 431.11773 46.787308 
L 431.966043 48.517039 
L 433.128379 50.935762 
L 434.047018 52.88472 
L 435.396831 55.803523 
L 435.47441 55.97315 
L 436.514693 58.26608 
L 437.570447 60.625736 
L 438.188411 62.020826 
L 439.414798 64.816752 
L 440.513383 67.348468 
L 441.478766 69.591188 
L 441.883863 70.536619 
L 442.966556 73.074048 
L 443.857811 75.172314 
L 444.634982 77.007204 
L 445.651051 79.410995 
L 446.482692 81.380546 
L 446.482692 147.675698 
z
" clip-path="url(#pbb9780d23c)" style="fill: #808080"/>
   </g>
   <g id="matplotlib.axis_3">
    <g id="xtick_34">
     <g id="line2d_56">
      <g>
       <use xlink:href="#m696f202f0c" x="274.580464" y="150.327209" style="stroke: #000000; stroke-width: 0.8"/>
      </g>
     </g>
     <g id="text_13">
      <!-- −3 -->
      <g transform="translate(267.20937 164.925646) scale(0.1 -0.1)">
       <use xlink:href="#DejaVuSans-2212"/>
       <use xlink:href="#DejaVuSans-33" transform="translate(83.789062 0)"/>
      </g>
     </g>
    </g>
    <g id="xtick_35">
     <g id="line2d_57">
      <g>
       <use xlink:href="#m696f202f0c" x="302.570309" y="150.327209" style="stroke: #000000; stroke-width: 0.8"/>
      </g>
     </g>
     <g id="text_14">
      <!-- −2 -->
      <g transform="translate(295.199216 164.925646) scale(0.1 -0.1)">
       <use xlink:href="#DejaVuSans-2212"/>
       <use xlink:href="#DejaVuSans-32" transform="translate(83.789062 0)"/>
      </g>
     </g>
    </g>
    <g id="xtick_36">
     <g id="line2d_58">
      <g>
       <use xlink:href="#m696f202f0c" x="330.560155" y="150.327209" style="stroke: #000000; stroke-width: 0.8"/>
      </g>
     </g>
     <g id="text_15">
      <!-- −1 -->
      <g transform="translate(323.189061 164.925646) scale(0.1 -0.1)">
       <use xlink:href="#DejaVuSans-2212"/>
       <use xlink:href="#DejaVuSans-31" transform="translate(83.789062 0)"/>
      </g>
     </g>
    </g>
    <g id="xtick_37">
     <g id="line2d_59">
      <g>
       <use xlink:href="#m696f202f0c" x="358.55" y="150.327209" style="stroke: #000000; stroke-width: 0.8"/>
      </g>
     </g>
     <g id="text_16">
      <!-- 0 -->
      <g transform="translate(355.36875 164.925646) scale(0.1 -0.1)">
       <use xlink:href="#DejaVuSans-30"/>
      </g>
     </g>
    </g>
    <g id="xtick_38">
     <g id="line2d_60">
      <g>
       <use xlink:href="#m696f202f0c" x="386.539845" y="150.327209" style="stroke: #000000; stroke-width: 0.8"/>
      </g>
     </g>
     <g id="text_17">
      <!-- 1 -->
      <g transform="translate(383.358595 164.925646) scale(0.1 -0.1)">
       <use xlink:href="#DejaVuSans-31"/>
      </g>
     </g>
    </g>
    <g id="xtick_39">
     <g id="line2d_61">
      <g>
       <use xlink:href="#m696f202f0c" x="414.529691" y="150.327209" style="stroke: #000000; stroke-width: 0.8"/>
      </g>
     </g>
     <g id="text_18">
      <!-- 2 -->
      <g transform="translate(411.348441 164.925646) scale(0.1 -0.1)">
       <use xlink:href="#DejaVuSans-32"/>
      </g>
     </g>
    </g>
    <g id="xtick_40">
     <g id="line2d_62">
      <g>
       <use xlink:href="#m696f202f0c" x="442.519536" y="150.327209" style="stroke: #000000; stroke-width: 0.8"/>
      </g>
     </g>
     <g id="text_19">
      <!-- 3 -->
      <g transform="translate(439.338286 164.925646) scale(0.1 -0.1)">
       <use xlink:href="#DejaVuSans-33"/>
      </g>
     </g>
    </g>
    <g id="xtick_41">
     <g id="line2d_63">
      <g>
       <use xlink:href="#m819f4e87ec" x="268.982495" y="150.327209" style="stroke: #000000; stroke-width: 0.6"/>
      </g>
     </g>
    </g>
    <g id="xtick_42">
     <g id="line2d_64">
      <g>
       <use xlink:href="#m819f4e87ec" x="280.178433" y="150.327209" style="stroke: #000000; stroke-width: 0.6"/>
      </g>
     </g>
    </g>
    <g id="xtick_43">
     <g id="line2d_65">
      <g>
       <use xlink:href="#m819f4e87ec" x="285.776402" y="150.327209" style="stroke: #000000; stroke-width: 0.6"/>
      </g>
     </g>
    </g>
    <g id="xtick_44">
     <g id="line2d_66">
      <g>
       <use xlink:href="#m819f4e87ec" x="291.374371" y="150.327209" style="stroke: #000000; stroke-width: 0.6"/>
      </g>
     </g>
    </g>
    <g id="xtick_45">
     <g id="line2d_67">
      <g>
       <use xlink:href="#m819f4e87ec" x="296.97234" y="150.327209" style="stroke: #000000; stroke-width: 0.6"/>
      </g>
     </g>
    </g>
    <g id="xtick_46">
     <g id="line2d_68">
      <g>
       <use xlink:href="#m819f4e87ec" x="308.168278" y="150.327209" style="stroke: #000000; stroke-width: 0.6"/>
      </g>
     </g>
    </g>
    <g id="xtick_47">
     <g id="line2d_69">
      <g>
       <use xlink:href="#m819f4e87ec" x="313.766248" y="150.327209" style="stroke: #000000; stroke-width: 0.6"/>
      </g>
     </g>
    </g>
    <g id="xtick_48">
     <g id="line2d_70">
      <g>
       <use xlink:href="#m819f4e87ec" x="319.364217" y="150.327209" style="stroke: #000000; stroke-width: 0.6"/>
      </g>
     </g>
    </g>
    <g id="xtick_49">
     <g id="line2d_71">
      <g>
       <use xlink:href="#m819f4e87ec" x="324.962186" y="150.327209" style="stroke: #000000; stroke-width: 0.6"/>
      </g>
     </g>
    </g>
    <g id="xtick_50">
     <g id="line2d_72">
      <g>
       <use xlink:href="#m819f4e87ec" x="336.158124" y="150.327209" style="stroke: #000000; stroke-width: 0.6"/>
      </g>
     </g>
    </g>
    <g id="xtick_51">
     <g id="line2d_73">
      <g>
       <use xlink:href="#m819f4e87ec" x="341.756093" y="150.327209" style="stroke: #000000; stroke-width: 0.6"/>
      </g>
     </g>
    </g>
    <g id="xtick_52">
     <g id="line2d_74">
      <g>
       <use xlink:href="#m819f4e87ec" x="347.354062" y="150.327209" style="stroke: #000000; stroke-width: 0.6"/>
      </g>
     </g>
    </g>
    <g id="xtick_53">
     <g id="line2d_75">
      <g>
       <use xlink:href="#m819f4e87ec" x="352.952031" y="150.327209" style="stroke: #000000; stroke-width: 0.6"/>
      </g>
     </g>
    </g>
    <g id="xtick_54">
     <g id="line2d_76">
      <g>
       <use xlink:href="#m819f4e87ec" x="364.147969" y="150.327209" style="stroke: #000000; stroke-width: 0.6"/>
      </g>
     </g>
    </g>
    <g id="xtick_55">
     <g id="line2d_77">
      <g>
       <use xlink:href="#m819f4e87ec" x="369.745938" y="150.327209" style="stroke: #000000; stroke-width: 0.6"/>
      </g>
     </g>
    </g>
    <g id="xtick_56">
     <g id="line2d_78">
      <g>
       <use xlink:href="#m819f4e87ec" x="375.343907" y="150.327209" style="stroke: #000000; stroke-width: 0.6"/>
      </g>
     </g>
    </g>
    <g id="xtick_57">
     <g id="line2d_79">
      <g>
       <use xlink:href="#m819f4e87ec" x="380.941876" y="150.327209" style="stroke: #000000; stroke-width: 0.6"/>
      </g>
     </g>
    </g>
    <g id="xtick_58">
     <g id="line2d_80">
      <g>
       <use xlink:href="#m819f4e87ec" x="392.137814" y="150.327209" style="stroke: #000000; stroke-width: 0.6"/>
      </g>
     </g>
    </g>
    <g id="xtick_59">
     <g id="line2d_81">
      <g>
       <use xlink:href="#m819f4e87ec" x="397.735783" y="150.327209" style="stroke: #000000; stroke-width: 0.6"/>
      </g>
     </g>
    </g>
    <g id="xtick_60">
     <g id="line2d_82">
      <g>
       <use xlink:href="#m819f4e87ec" x="403.333752" y="150.327209" style="stroke: #000000; stroke-width: 0.6"/>
      </g>
     </g>
    </g>
    <g id="xtick_61">
     <g id="line2d_83">
      <g>
       <use xlink:href="#m819f4e87ec" x="408.931722" y="150.327209" style="stroke: #000000; stroke-width: 0.6"/>
      </g>
     </g>
    </g>
    <g id="xtick_62">
     <g id="line2d_84">
      <g>
       <use xlink:href="#m819f4e87ec" x="420.12766" y="150.327209" style="stroke: #000000; stroke-width: 0.6"/>
      </g>
     </g>
    </g>
    <g id="xtick_63">
     <g id="line2d_85">
      <g>
       <use xlink:href="#m819f4e87ec" x="425.725629" y="150.327209" style="stroke: #000000; stroke-width: 0.6"/>
      </g>
     </g>
    </g>
    <g id="xtick_64">
     <g id="line2d_86">
      <g>
       <use xlink:href="#m819f4e87ec" x="431.323598" y="150.327209" style="stroke: #000000; stroke-width: 0.6"/>
      </g>
     </g>
    </g>
    <g id="xtick_65">
     <g id="line2d_87">
      <g>
       <use xlink:href="#m819f4e87ec" x="436.921567" y="150.327209" style="stroke: #000000; stroke-width: 0.6"/>
      </g>
     </g>
    </g>
    <g id="xtick_66">
     <g id="line2d_88">
      <g>
       <use xlink:href="#m819f4e87ec" x="448.117505" y="150.327209" style="stroke: #000000; stroke-width: 0.6"/>
      </g>
     </g>
    </g>
   </g>
   <g id="matplotlib.axis_4">
    <g id="ytick_22">
     <g id="line2d_89">
      <g>
       <use xlink:href="#m2bb9666e4e" x="267.1" y="147.677808" style="stroke: #000000; stroke-width: 0.8"/>
      </g>
     </g>
     <g id="text_20">
      <!-- −1.0 -->
      <g transform="translate(235.817188 151.477027) scale(0.1 -0.1)">
       <use xlink:href="#DejaVuSans-2212"/>
       <use xlink:href="#DejaVuSans-31" transform="translate(83.789062 0)"/>
       <use xlink:href="#DejaVuSans-2e" transform="translate(147.412109 0)"/>
       <use xlink:href="#DejaVuSans-30" transform="translate(179.199219 0)"/>
      </g>
     </g>
    </g>
    <g id="ytick_23">
     <g id="line2d_90">
      <g>
       <use xlink:href="#m2bb9666e4e" x="267.1" y="114.529177" style="stroke: #000000; stroke-width: 0.8"/>
      </g>
     </g>
     <g id="text_21">
      <!-- −0.5 -->
      <g transform="translate(235.817188 118.328396) scale(0.1 -0.1)">
       <use xlink:href="#DejaVuSans-2212"/>
       <use xlink:href="#DejaVuSans-30" transform="translate(83.789062 0)"/>
       <use xlink:href="#DejaVuSans-2e" transform="translate(147.412109 0)"/>
       <use xlink:href="#DejaVuSans-35" transform="translate(179.199219 0)"/>
      </g>
     </g>
    </g>
    <g id="ytick_24">
     <g id="line2d_91">
      <g>
       <use xlink:href="#m2bb9666e4e" x="267.1" y="81.380546" style="stroke: #000000; stroke-width: 0.8"/>
      </g>
     </g>
     <g id="text_22">
      <!-- 0.0 -->
      <g transform="translate(244.196875 85.179765) scale(0.1 -0.1)">
       <use xlink:href="#DejaVuSans-30"/>
       <use xlink:href="#DejaVuSans-2e" transform="translate(63.623047 0)"/>
       <use xlink:href="#DejaVuSans-30" transform="translate(95.410156 0)"/>
      </g>
     </g>
    </g>
    <g id="ytick_25">
     <g id="line2d_92">
      <g>
       <use xlink:href="#m2bb9666e4e" x="267.1" y="48.231915" style="stroke: #000000; stroke-width: 0.8"/>
      </g>
     </g>
     <g id="text_23">
      <!-- 0.5 -->
      <g transform="translate(244.196875 52.031134) scale(0.1 -0.1)">
       <use xlink:href="#DejaVuSans-30"/>
       <use xlink:href="#DejaVuSans-2e" transform="translate(63.623047 0)"/>
       <use xlink:href="#DejaVuSans-35" transform="translate(95.410156 0)"/>
      </g>
     </g>
    </g>
    <g id="ytick_26">
     <g id="line2d_93">
      <g>
       <use xlink:href="#m2bb9666e4e" x="267.1" y="15.083284" style="stroke: #000000; stroke-width: 0.8"/>
      </g>
     </g>
     <g id="text_24">
      <!-- 1.0 -->
      <g transform="translate(244.196875 18.882503) scale(0.1 -0.1)">
       <use xlink:href="#DejaVuSans-31"/>
       <use xlink:href="#DejaVuSans-2e" transform="translate(63.623047 0)"/>
       <use xlink:href="#DejaVuSans-30" transform="translate(95.410156 0)"/>
      </g>
     </g>
    </g>
    <g id="ytick_27">
     <g id="line2d_94">
      <g>
       <use xlink:href="#meeebc345f3" x="267.1" y="141.048082" style="stroke: #000000; stroke-width: 0.6"/>
      </g>
     </g>
    </g>
    <g id="ytick_28">
     <g id="line2d_95">
      <g>
       <use xlink:href="#meeebc345f3" x="267.1" y="134.418356" style="stroke: #000000; stroke-width: 0.6"/>
      </g>
     </g>
    </g>
    <g id="ytick_29">
     <g id="line2d_96">
      <g>
       <use xlink:href="#meeebc345f3" x="267.1" y="127.788629" style="stroke: #000000; stroke-width: 0.6"/>
      </g>
     </g>
    </g>
    <g id="ytick_30">
     <g id="line2d_97">
      <g>
       <use xlink:href="#meeebc345f3" x="267.1" y="121.158903" style="stroke: #000000; stroke-width: 0.6"/>
      </g>
     </g>
    </g>
    <g id="ytick_31">
     <g id="line2d_98">
      <g>
       <use xlink:href="#meeebc345f3" x="267.1" y="107.899451" style="stroke: #000000; stroke-width: 0.6"/>
      </g>
     </g>
    </g>
    <g id="ytick_32">
     <g id="line2d_99">
      <g>
       <use xlink:href="#meeebc345f3" x="267.1" y="101.269725" style="stroke: #000000; stroke-width: 0.6"/>
      </g>
     </g>
    </g>
    <g id="ytick_33">
     <g id="line2d_100">
      <g>
       <use xlink:href="#meeebc345f3" x="267.1" y="94.639998" style="stroke: #000000; stroke-width: 0.6"/>
      </g>
     </g>
    </g>
    <g id="ytick_34">
     <g id="line2d_101">
      <g>
       <use xlink:href="#meeebc345f3" x="267.1" y="88.010272" style="stroke: #000000; stroke-width: 0.6"/>
      </g>
     </g>
    </g>
    <g id="ytick_35">
     <g id="line2d_102">
      <g>
       <use xlink:href="#meeebc345f3" x="267.1" y="74.75082" style="stroke: #000000; stroke-width: 0.6"/>
      </g>
     </g>
    </g>
    <g id="ytick_36">
     <g id="line2d_103">
      <g>
       <use xlink:href="#meeebc345f3" x="267.1" y="68.121094" style="stroke: #000000; stroke-width: 0.6"/>
      </g>
     </g>
    </g>
    <g id="ytick_37">
     <g id="line2d_104">
      <g>
       <use xlink:href="#meeebc345f3" x="267.1" y="61.491368" style="stroke: #000000; stroke-width: 0.6"/>
      </g>
     </g>
    </g>
    <g id="ytick_38">
     <g id="line2d_105">
      <g>
       <use xlink:href="#meeebc345f3" x="267.1" y="54.861641" style="stroke: #000000; stroke-width: 0.6"/>
      </g>
     </g>
    </g>
    <g id="ytick_39">
     <g id="line2d_106">
      <g>
       <use xlink:href="#meeebc345f3" x="267.1" y="41.602189" style="stroke: #000000; stroke-width: 0.6"/>
      </g>
     </g>
    </g>
    <g id="ytick_40">
     <g id="line2d_107">
      <g>
       <use xlink:href="#meeebc345f3" x="267.1" y="34.972463" style="stroke: #000000; stroke-width: 0.6"/>
      </g>
     </g>
    </g>
    <g id="ytick_41">
     <g id="line2d_108">
      <g>
       <use xlink:href="#meeebc345f3" x="267.1" y="28.342737" style="stroke: #000000; stroke-width: 0.6"/>
      </g>
     </g>
    </g>
    <g id="ytick_42">
     <g id="line2d_109">
      <g>
       <use xlink:href="#meeebc345f3" x="267.1" y="21.71301" style="stroke: #000000; stroke-width: 0.6"/>
      </g>
     </g>
    </g>
   </g>
   <g id="line2d_110">
    <path d="M 270.617308 81.380546 
L 278.772318 100.424525 
L 282.904314 109.55802 
L 286.689223 117.391075 
L 290.313753 124.277722 
L 292.695182 128.418132 
L 295.303473 132.561481 
L 297.831435 136.153732 
L 300.412096 139.360127 
L 302.381368 141.476866 
L 304.309368 143.26123 
L 306.619775 145.012287 
L 308.765104 146.250461 
L 309.956695 146.77402 
L 311.754773 147.339491 
L 313.311443 147.609337 
L 314.95489 147.671977 
L 316.626199 147.50136 
L 318.258419 147.10725 
L 320.232116 146.33241 
L 322.098228 145.30281 
L 324.100248 143.882562 
L 326.268736 141.983888 
L 327.990291 140.21701 
L 330.841179 136.805316 
L 332.60449 134.40508 
L 334.811097 131.106276 
L 337.488381 126.691182 
L 339.341215 123.39056 
L 342.12548 118.08944 
L 345.829248 110.484569 
L 350.256189 100.739201 
L 355.414513 88.791795 
L 367.074946 61.498946 
L 371.242054 52.337613 
L 374.686256 45.242157 
L 377.16694 40.464332 
L 380.011542 35.383056 
L 383.147943 30.33269 
L 385.189698 27.385422 
L 387.852349 23.97556 
L 390.566987 21.033704 
L 392.948553 18.919077 
L 395.041646 17.433293 
L 397.406238 16.185123 
L 399.006894 15.603729 
L 400.679738 15.225957 
L 401.884543 15.100173 
L 404.084609 15.187321 
L 406.320534 15.694676 
L 408.625265 16.656067 
L 410.63143 17.850266 
L 411.679 18.603955 
L 413.584421 20.199423 
L 415.341503 21.922056 
L 417.994659 24.964628 
L 420.178954 27.851039 
L 422.990389 32.04306 
L 425.6536 36.47353 
L 428.680858 42.00059 
L 431.966043 48.517039 
L 435.47441 55.97315 
L 440.513383 67.348468 
L 446.482692 81.380546 
L 446.482692 81.380546 
" clip-path="url(#pbb9780d23c)" style="fill: none; stroke: #0000ff; stroke-linecap: square"/>
   </g>
   <g id="patch_10">
    <path d="M 267.1 150.327209 
L 267.1 12.448663 
" style="fill: none; stroke: #000000; stroke-width: 0.8; stroke-linejoin: miter; stroke-linecap: square"/>
   </g>
   <g id="patch_11">
    <path d="M 450 150.327209 
L 450 12.448663 
" style="fill: none; stroke: #000000; stroke-width: 0.8; stroke-linejoin: miter; stroke-linecap: square"/>
   </g>
   <g id="patch_12">
    <path d="M 267.1 150.327209 
L 450 150.327209 
" style="fill: none; stroke: #000000; stroke-width: 0.8; stroke-linejoin: miter; stroke-linecap: square"/>
   </g>
   <g id="patch_13">
    <path d="M 267.1 12.448663 
L 450 12.448663 
" style="fill: none; stroke: #000000; stroke-width: 0.8; stroke-linejoin: miter; stroke-linecap: square"/>
   </g>
  </g>
  <g id="axes_3">
   <g id="patch_14">
    <path d="M 42.1 317.72 
L 225 317.72 
L 225 179.841454 
L 42.1 179.841454 
z
" style="fill: #ffffff"/>
   </g>
   <g id="patch_15">
    <path d="M 45.617308 182.492965 
L 45.617308 248.782595 
L 46.405847 250.649895 
L 47.197388 252.52281 
L 48.379251 255.313267 
L 49.258093 257.380998 
L 50.161645 259.498008 
L 51.033768 261.530818 
L 51.901152 263.54031 
L 53.114013 266.325988 
L 53.805954 267.900803 
L 54.215888 268.82834 
L 55.497651 271.69987 
L 56.488104 273.886177 
L 56.730727 274.417051 
L 57.73883 276.601763 
L 58.670299 278.588388 
L 59.581703 280.500287 
L 60.386937 282.161552 
L 61.272167 283.955929 
L 62.634611 286.648267 
L 63.636256 288.570763 
L 63.946239 289.155515 
L 64.731014 290.613616 
L 65.968313 292.845273 
L 66.668177 294.069737 
L 67.851234 296.07481 
L 68.377137 296.939207 
L 69.092271 298.087299 
L 70.54467 300.319185 
L 71.177572 301.2487 
L 71.98227 302.391727 
L 73.22796 304.073447 
L 74.052064 305.126029 
L 74.944888 306.211238 
L 75.930478 307.34131 
L 76.65322 308.123938 
L 77.261728 308.752209 
L 78.68887 310.114017 
L 79.375499 310.712616 
L 80.043286 311.259046 
L 81.048083 312.014138 
L 82.139564 312.742018 
L 82.98714 313.240216 
L 83.442214 313.483347 
L 84.815069 314.112957 
L 85.388097 314.329347 
L 86.492983 314.668959 
L 86.767682 314.737477 
L 88.067843 314.975495 
L 88.548354 315.027338 
L 89.268929 315.06849 
L 89.989503 315.065712 
L 91.090697 314.976615 
L 91.274516 314.951759 
L 92.279804 314.765375 
L 93.081988 314.55558 
L 93.819163 314.31515 
L 94.556339 314.029266 
L 94.983758 313.842767 
L 96.18057 313.239993 
L 96.822239 312.868216 
L 97.333497 312.547879 
L 98.653655 311.622604 
L 99.891457 310.628047 
L 100.040334 310.500238 
L 101.173709 309.470278 
L 101.950396 308.7069 
L 103.258432 307.317313 
L 103.885143 306.606043 
L 105.177986 305.047599 
L 105.845837 304.195311 
L 106.158657 303.785223 
L 107.299007 302.232512 
L 108.521821 300.469027 
L 109.610075 298.81654 
L 110.176683 297.926059 
L 111.396697 295.94081 
L 112.02743 294.879086 
L 112.807854 293.533048 
L 114.093708 291.239893 
L 114.18654 291.070813 
L 115.154781 289.279921 
L 116.548004 286.618503 
L 116.892924 285.944884 
L 117.840301 284.06595 
L 118.98062 281.750949 
L 120.002584 279.629619 
L 120.690326 278.178725 
L 121.756002 275.89579 
L 122.293586 274.729031 
L 123.430608 272.230272 
L 124.107431 270.724227 
L 124.754527 269.272322 
L 126.443746 265.432551 
L 127.111329 263.897566 
L 128.066594 261.686375 
L 128.286338 261.175503 
L 129.256108 258.912244 
L 130.145665 256.825427 
L 131.693262 253.176797 
L 132.21391 251.945738 
L 133.474586 248.961203 
L 134.410637 246.744616 
L 135.173281 244.940233 
L 136.19978 242.516326 
L 136.48393 241.846705 
L 137.46745 239.534917 
L 138.754316 236.52779 
L 139.71241 234.305401 
L 140.187587 233.209315 
L 141.284396 230.696975 
L 141.70977 229.72988 
L 142.963206 226.906595 
L 143.552174 225.594788 
L 144.324444 223.890362 
L 145.348431 221.659819 
L 146.526679 219.138348 
L 147.356126 217.394556 
L 147.852559 216.363965 
L 149.40866 213.201071 
L 150.292979 211.452008 
L 150.530586 210.988333 
L 151.883115 208.401815 
L 152.842625 206.623705 
L 153.155477 206.054556 
L 154.313506 203.994833 
L 154.857855 203.052904 
L 155.679414 201.664159 
L 156.538529 200.255368 
L 157.397643 198.892292 
L 157.964059 198.019243 
L 158.440499 197.300961 
L 159.751696 195.40182 
L 160.132992 194.871354 
L 160.923169 193.804004 
L 161.713346 192.780467 
L 161.907609 192.535638 
L 162.686053 191.581863 
L 163.464498 190.672328 
L 163.833449 190.256903 
L 165.102262 188.906318 
L 165.553492 188.455526 
L 166.609699 187.46184 
L 167.577321 186.628094 
L 168.494038 185.906712 
L 169.167944 185.419371 
L 170.342552 184.657902 
L 170.954876 184.305644 
L 171.696993 183.920094 
L 172.418125 183.589123 
L 173.139258 183.301425 
L 174.153439 182.970396 
L 175.06419 182.746745 
L 175.153545 182.728565 
L 175.973721 182.593163 
L 176.793897 182.51459 
L 177.412578 182.492965 
L 178.046818 182.504414 
L 178.854385 182.56824 
L 179.838874 182.720591 
L 180.934598 182.986235 
L 181.553855 183.180989 
L 182.773649 183.658423 
L 183.618068 184.061433 
L 184.019666 184.273793 
L 185.180478 184.962119 
L 185.922588 185.459761 
L 186.866115 186.156693 
L 187.707281 186.838039 
L 188.884164 187.885054 
L 189.403553 188.381483 
L 190.812445 189.832304 
L 191.805634 190.945021 
L 191.896941 191.050993 
L 193.168548 192.590182 
L 194.212083 193.940083 
L 194.693136 194.58815 
L 195.555949 195.790493 
L 196.533877 197.214063 
L 197.41308 198.547703 
L 198.314511 199.966506 
L 199.03762 201.141308 
L 200.415526 203.467273 
L 201.589367 205.535607 
L 201.809385 205.931858 
L 202.99543 208.112905 
L 203.85194 209.733592 
L 204.939648 211.844254 
L 205.286178 212.528552 
L 206.771933 215.524171 
L 207.570275 217.173054 
L 208.541728 219.214029 
L 209.000813 220.191086 
L 209.671803 221.632899 
L 210.601941 223.657192 
L 211.96168 226.665737 
L 212.557736 228.001441 
L 213.804625 230.825357 
L 214.326914 232.019134 
L 215.164751 233.946163 
L 216.333179 236.655367 
L 216.998361 238.207453 
L 217.811601 240.113028 
L 218.987587 242.881107 
L 219.692149 244.544831 
L 220.48703 246.425003 
L 221.482692 248.782595 
L 221.482692 182.492965 
z
" clip-path="url(#p242be3b2ca)" style="fill: #808080; opacity: 0.5"/>
   </g>
   <g id="matplotlib.axis_5">
    <g id="xtick_67">
     <g id="line2d_111">
      <g>
       <use xlink:href="#m696f202f0c" x="49.580464" y="317.72" style="stroke: #000000; stroke-width: 0.8"/>
      </g>
     </g>
     <g id="text_25">
      <!-- −3 -->
      <g transform="translate(42.20937 332.318438) scale(0.1 -0.1)">
       <use xlink:href="#DejaVuSans-2212"/>
       <use xlink:href="#DejaVuSans-33" transform="translate(83.789062 0)"/>
      </g>
     </g>
    </g>
    <g id="xtick_68">
     <g id="line2d_112">
      <g>
       <use xlink:href="#m696f202f0c" x="77.570309" y="317.72" style="stroke: #000000; stroke-width: 0.8"/>
      </g>
     </g>
     <g id="text_26">
      <!-- −2 -->
      <g transform="translate(70.199216 332.318438) scale(0.1 -0.1)">
       <use xlink:href="#DejaVuSans-2212"/>
       <use xlink:href="#DejaVuSans-32" transform="translate(83.789062 0)"/>
      </g>
     </g>
    </g>
    <g id="xtick_69">
     <g id="line2d_113">
      <g>
       <use xlink:href="#m696f202f0c" x="105.560155" y="317.72" style="stroke: #000000; stroke-width: 0.8"/>
      </g>
     </g>
     <g id="text_27">
      <!-- −1 -->
      <g transform="translate(98.189061 332.318438) scale(0.1 -0.1)">
       <use xlink:href="#DejaVuSans-2212"/>
       <use xlink:href="#DejaVuSans-31" transform="translate(83.789062 0)"/>
      </g>
     </g>
    </g>
    <g id="xtick_70">
     <g id="line2d_114">
      <g>
       <use xlink:href="#m696f202f0c" x="133.55" y="317.72" style="stroke: #000000; stroke-width: 0.8"/>
      </g>
     </g>
     <g id="text_28">
      <!-- 0 -->
      <g transform="translate(130.36875 332.318438) scale(0.1 -0.1)">
       <use xlink:href="#DejaVuSans-30"/>
      </g>
     </g>
    </g>
    <g id="xtick_71">
     <g id="line2d_115">
      <g>
       <use xlink:href="#m696f202f0c" x="161.539845" y="317.72" style="stroke: #000000; stroke-width: 0.8"/>
      </g>
     </g>
     <g id="text_29">
      <!-- 1 -->
      <g transform="translate(158.358595 332.318438) scale(0.1 -0.1)">
       <use xlink:href="#DejaVuSans-31"/>
      </g>
     </g>
    </g>
    <g id="xtick_72">
     <g id="line2d_116">
      <g>
       <use xlink:href="#m696f202f0c" x="189.529691" y="317.72" style="stroke: #000000; stroke-width: 0.8"/>
      </g>
     </g>
     <g id="text_30">
      <!-- 2 -->
      <g transform="translate(186.348441 332.318438) scale(0.1 -0.1)">
       <use xlink:href="#DejaVuSans-32"/>
      </g>
     </g>
    </g>
    <g id="xtick_73">
     <g id="line2d_117">
      <g>
       <use xlink:href="#m696f202f0c" x="217.519536" y="317.72" style="stroke: #000000; stroke-width: 0.8"/>
      </g>
     </g>
     <g id="text_31">
      <!-- 3 -->
      <g transform="translate(214.338286 332.318438) scale(0.1 -0.1)">
       <use xlink:href="#DejaVuSans-33"/>
      </g>
     </g>
    </g>
    <g id="xtick_74">
     <g id="line2d_118">
      <g>
       <use xlink:href="#m819f4e87ec" x="43.982495" y="317.72" style="stroke: #000000; stroke-width: 0.6"/>
      </g>
     </g>
    </g>
    <g id="xtick_75">
     <g id="line2d_119">
      <g>
       <use xlink:href="#m819f4e87ec" x="55.178433" y="317.72" style="stroke: #000000; stroke-width: 0.6"/>
      </g>
     </g>
    </g>
    <g id="xtick_76">
     <g id="line2d_120">
      <g>
       <use xlink:href="#m819f4e87ec" x="60.776402" y="317.72" style="stroke: #000000; stroke-width: 0.6"/>
      </g>
     </g>
    </g>
    <g id="xtick_77">
     <g id="line2d_121">
      <g>
       <use xlink:href="#m819f4e87ec" x="66.374371" y="317.72" style="stroke: #000000; stroke-width: 0.6"/>
      </g>
     </g>
    </g>
    <g id="xtick_78">
     <g id="line2d_122">
      <g>
       <use xlink:href="#m819f4e87ec" x="71.97234" y="317.72" style="stroke: #000000; stroke-width: 0.6"/>
      </g>
     </g>
    </g>
    <g id="xtick_79">
     <g id="line2d_123">
      <g>
       <use xlink:href="#m819f4e87ec" x="83.168278" y="317.72" style="stroke: #000000; stroke-width: 0.6"/>
      </g>
     </g>
    </g>
    <g id="xtick_80">
     <g id="line2d_124">
      <g>
       <use xlink:href="#m819f4e87ec" x="88.766248" y="317.72" style="stroke: #000000; stroke-width: 0.6"/>
      </g>
     </g>
    </g>
    <g id="xtick_81">
     <g id="line2d_125">
      <g>
       <use xlink:href="#m819f4e87ec" x="94.364217" y="317.72" style="stroke: #000000; stroke-width: 0.6"/>
      </g>
     </g>
    </g>
    <g id="xtick_82">
     <g id="line2d_126">
      <g>
       <use xlink:href="#m819f4e87ec" x="99.962186" y="317.72" style="stroke: #000000; stroke-width: 0.6"/>
      </g>
     </g>
    </g>
    <g id="xtick_83">
     <g id="line2d_127">
      <g>
       <use xlink:href="#m819f4e87ec" x="111.158124" y="317.72" style="stroke: #000000; stroke-width: 0.6"/>
      </g>
     </g>
    </g>
    <g id="xtick_84">
     <g id="line2d_128">
      <g>
       <use xlink:href="#m819f4e87ec" x="116.756093" y="317.72" style="stroke: #000000; stroke-width: 0.6"/>
      </g>
     </g>
    </g>
    <g id="xtick_85">
     <g id="line2d_129">
      <g>
       <use xlink:href="#m819f4e87ec" x="122.354062" y="317.72" style="stroke: #000000; stroke-width: 0.6"/>
      </g>
     </g>
    </g>
    <g id="xtick_86">
     <g id="line2d_130">
      <g>
       <use xlink:href="#m819f4e87ec" x="127.952031" y="317.72" style="stroke: #000000; stroke-width: 0.6"/>
      </g>
     </g>
    </g>
    <g id="xtick_87">
     <g id="line2d_131">
      <g>
       <use xlink:href="#m819f4e87ec" x="139.147969" y="317.72" style="stroke: #000000; stroke-width: 0.6"/>
      </g>
     </g>
    </g>
    <g id="xtick_88">
     <g id="line2d_132">
      <g>
       <use xlink:href="#m819f4e87ec" x="144.745938" y="317.72" style="stroke: #000000; stroke-width: 0.6"/>
      </g>
     </g>
    </g>
    <g id="xtick_89">
     <g id="line2d_133">
      <g>
       <use xlink:href="#m819f4e87ec" x="150.343907" y="317.72" style="stroke: #000000; stroke-width: 0.6"/>
      </g>
     </g>
    </g>
    <g id="xtick_90">
     <g id="line2d_134">
      <g>
       <use xlink:href="#m819f4e87ec" x="155.941876" y="317.72" style="stroke: #000000; stroke-width: 0.6"/>
      </g>
     </g>
    </g>
    <g id="xtick_91">
     <g id="line2d_135">
      <g>
       <use xlink:href="#m819f4e87ec" x="167.137814" y="317.72" style="stroke: #000000; stroke-width: 0.6"/>
      </g>
     </g>
    </g>
    <g id="xtick_92">
     <g id="line2d_136">
      <g>
       <use xlink:href="#m819f4e87ec" x="172.735783" y="317.72" style="stroke: #000000; stroke-width: 0.6"/>
      </g>
     </g>
    </g>
    <g id="xtick_93">
     <g id="line2d_137">
      <g>
       <use xlink:href="#m819f4e87ec" x="178.333752" y="317.72" style="stroke: #000000; stroke-width: 0.6"/>
      </g>
     </g>
    </g>
    <g id="xtick_94">
     <g id="line2d_138">
      <g>
       <use xlink:href="#m819f4e87ec" x="183.931722" y="317.72" style="stroke: #000000; stroke-width: 0.6"/>
      </g>
     </g>
    </g>
    <g id="xtick_95">
     <g id="line2d_139">
      <g>
       <use xlink:href="#m819f4e87ec" x="195.12766" y="317.72" style="stroke: #000000; stroke-width: 0.6"/>
      </g>
     </g>
    </g>
    <g id="xtick_96">
     <g id="line2d_140">
      <g>
       <use xlink:href="#m819f4e87ec" x="200.725629" y="317.72" style="stroke: #000000; stroke-width: 0.6"/>
      </g>
     </g>
    </g>
    <g id="xtick_97">
     <g id="line2d_141">
      <g>
       <use xlink:href="#m819f4e87ec" x="206.323598" y="317.72" style="stroke: #000000; stroke-width: 0.6"/>
      </g>
     </g>
    </g>
    <g id="xtick_98">
     <g id="line2d_142">
      <g>
       <use xlink:href="#m819f4e87ec" x="211.921567" y="317.72" style="stroke: #000000; stroke-width: 0.6"/>
      </g>
     </g>
    </g>
    <g id="xtick_99">
     <g id="line2d_143">
      <g>
       <use xlink:href="#m819f4e87ec" x="223.117505" y="317.72" style="stroke: #000000; stroke-width: 0.6"/>
      </g>
     </g>
    </g>
   </g>
   <g id="matplotlib.axis_6">
    <g id="ytick_43">
     <g id="line2d_144">
      <g>
       <use xlink:href="#m2bb9666e4e" x="42.1" y="315.07268" style="stroke: #000000; stroke-width: 0.8"/>
      </g>
     </g>
     <g id="text_32">
      <!-- −1.0 -->
      <g transform="translate(10.817188 318.871899) scale(0.1 -0.1)">
       <use xlink:href="#DejaVuSans-2212"/>
       <use xlink:href="#DejaVuSans-31" transform="translate(83.789062 0)"/>
       <use xlink:href="#DejaVuSans-2e" transform="translate(147.412109 0)"/>
       <use xlink:href="#DejaVuSans-30" transform="translate(179.199219 0)"/>
      </g>
     </g>
    </g>
    <g id="ytick_44">
     <g id="line2d_145">
      <g>
       <use xlink:href="#m2bb9666e4e" x="42.1" y="281.927637" style="stroke: #000000; stroke-width: 0.8"/>
      </g>
     </g>
     <g id="text_33">
      <!-- −0.5 -->
      <g transform="translate(10.817188 285.726856) scale(0.1 -0.1)">
       <use xlink:href="#DejaVuSans-2212"/>
       <use xlink:href="#DejaVuSans-30" transform="translate(83.789062 0)"/>
       <use xlink:href="#DejaVuSans-2e" transform="translate(147.412109 0)"/>
       <use xlink:href="#DejaVuSans-35" transform="translate(179.199219 0)"/>
      </g>
     </g>
    </g>
    <g id="ytick_45">
     <g id="line2d_146">
      <g>
       <use xlink:href="#m2bb9666e4e" x="42.1" y="248.782595" style="stroke: #000000; stroke-width: 0.8"/>
      </g>
     </g>
     <g id="text_34">
      <!-- 0.0 -->
      <g transform="translate(19.196875 252.581813) scale(0.1 -0.1)">
       <use xlink:href="#DejaVuSans-30"/>
       <use xlink:href="#DejaVuSans-2e" transform="translate(63.623047 0)"/>
       <use xlink:href="#DejaVuSans-30" transform="translate(95.410156 0)"/>
      </g>
     </g>
    </g>
    <g id="ytick_46">
     <g id="line2d_147">
      <g>
       <use xlink:href="#m2bb9666e4e" x="42.1" y="215.637552" style="stroke: #000000; stroke-width: 0.8"/>
      </g>
     </g>
     <g id="text_35">
      <!-- 0.5 -->
      <g transform="translate(19.196875 219.436771) scale(0.1 -0.1)">
       <use xlink:href="#DejaVuSans-30"/>
       <use xlink:href="#DejaVuSans-2e" transform="translate(63.623047 0)"/>
       <use xlink:href="#DejaVuSans-35" transform="translate(95.410156 0)"/>
      </g>
     </g>
    </g>
    <g id="ytick_47">
     <g id="line2d_148">
      <g>
       <use xlink:href="#m2bb9666e4e" x="42.1" y="182.492509" style="stroke: #000000; stroke-width: 0.8"/>
      </g>
     </g>
     <g id="text_36">
      <!-- 1.0 -->
      <g transform="translate(19.196875 186.291728) scale(0.1 -0.1)">
       <use xlink:href="#DejaVuSans-31"/>
       <use xlink:href="#DejaVuSans-2e" transform="translate(63.623047 0)"/>
       <use xlink:href="#DejaVuSans-30" transform="translate(95.410156 0)"/>
      </g>
     </g>
    </g>
    <g id="ytick_48">
     <g id="line2d_149">
      <g>
       <use xlink:href="#meeebc345f3" x="42.1" y="308.443672" style="stroke: #000000; stroke-width: 0.6"/>
      </g>
     </g>
    </g>
    <g id="ytick_49">
     <g id="line2d_150">
      <g>
       <use xlink:href="#meeebc345f3" x="42.1" y="301.814663" style="stroke: #000000; stroke-width: 0.6"/>
      </g>
     </g>
    </g>
    <g id="ytick_50">
     <g id="line2d_151">
      <g>
       <use xlink:href="#meeebc345f3" x="42.1" y="295.185654" style="stroke: #000000; stroke-width: 0.6"/>
      </g>
     </g>
    </g>
    <g id="ytick_51">
     <g id="line2d_152">
      <g>
       <use xlink:href="#meeebc345f3" x="42.1" y="288.556646" style="stroke: #000000; stroke-width: 0.6"/>
      </g>
     </g>
    </g>
    <g id="ytick_52">
     <g id="line2d_153">
      <g>
       <use xlink:href="#meeebc345f3" x="42.1" y="275.298629" style="stroke: #000000; stroke-width: 0.6"/>
      </g>
     </g>
    </g>
    <g id="ytick_53">
     <g id="line2d_154">
      <g>
       <use xlink:href="#meeebc345f3" x="42.1" y="268.66962" style="stroke: #000000; stroke-width: 0.6"/>
      </g>
     </g>
    </g>
    <g id="ytick_54">
     <g id="line2d_155">
      <g>
       <use xlink:href="#meeebc345f3" x="42.1" y="262.040612" style="stroke: #000000; stroke-width: 0.6"/>
      </g>
     </g>
    </g>
    <g id="ytick_55">
     <g id="line2d_156">
      <g>
       <use xlink:href="#meeebc345f3" x="42.1" y="255.411603" style="stroke: #000000; stroke-width: 0.6"/>
      </g>
     </g>
    </g>
    <g id="ytick_56">
     <g id="line2d_157">
      <g>
       <use xlink:href="#meeebc345f3" x="42.1" y="242.153586" style="stroke: #000000; stroke-width: 0.6"/>
      </g>
     </g>
    </g>
    <g id="ytick_57">
     <g id="line2d_158">
      <g>
       <use xlink:href="#meeebc345f3" x="42.1" y="235.524578" style="stroke: #000000; stroke-width: 0.6"/>
      </g>
     </g>
    </g>
    <g id="ytick_58">
     <g id="line2d_159">
      <g>
       <use xlink:href="#meeebc345f3" x="42.1" y="228.895569" style="stroke: #000000; stroke-width: 0.6"/>
      </g>
     </g>
    </g>
    <g id="ytick_59">
     <g id="line2d_160">
      <g>
       <use xlink:href="#meeebc345f3" x="42.1" y="222.266561" style="stroke: #000000; stroke-width: 0.6"/>
      </g>
     </g>
    </g>
    <g id="ytick_60">
     <g id="line2d_161">
      <g>
       <use xlink:href="#meeebc345f3" x="42.1" y="209.008543" style="stroke: #000000; stroke-width: 0.6"/>
      </g>
     </g>
    </g>
    <g id="ytick_61">
     <g id="line2d_162">
      <g>
       <use xlink:href="#meeebc345f3" x="42.1" y="202.379535" style="stroke: #000000; stroke-width: 0.6"/>
      </g>
     </g>
    </g>
    <g id="ytick_62">
     <g id="line2d_163">
      <g>
       <use xlink:href="#meeebc345f3" x="42.1" y="195.750526" style="stroke: #000000; stroke-width: 0.6"/>
      </g>
     </g>
    </g>
    <g id="ytick_63">
     <g id="line2d_164">
      <g>
       <use xlink:href="#meeebc345f3" x="42.1" y="189.121518" style="stroke: #000000; stroke-width: 0.6"/>
      </g>
     </g>
    </g>
   </g>
   <g id="line2d_165">
    <path d="M 45.617308 248.782595 
L 53.805954 267.900803 
L 57.73883 276.601763 
L 61.272167 283.955929 
L 64.731014 290.613616 
L 67.851234 296.07481 
L 70.54467 300.319185 
L 73.22796 304.073447 
L 74.944888 306.211238 
L 77.261728 308.752209 
L 80.043286 311.259046 
L 82.139564 312.742018 
L 83.442214 313.483347 
L 85.388097 314.329347 
L 86.767682 314.737477 
L 88.548354 315.027338 
L 89.989503 315.065712 
L 91.274516 314.951759 
L 93.081988 314.55558 
L 94.983758 313.842767 
L 97.333497 312.547879 
L 99.891457 310.628047 
L 101.173709 309.470278 
L 103.258432 307.317313 
L 105.177986 305.047599 
L 107.299007 302.232512 
L 110.176683 297.926059 
L 112.807854 293.533048 
L 115.154781 289.279921 
L 118.98062 281.750949 
L 122.293586 274.729031 
L 127.111329 263.897566 
L 134.410637 246.744616 
L 141.70977 229.72988 
L 146.526679 219.138348 
L 150.292979 211.452008 
L 153.155477 206.054556 
L 156.538529 200.255368 
L 158.440499 197.300961 
L 160.923169 193.804004 
L 163.464498 190.672328 
L 165.553492 188.455526 
L 167.577321 186.628094 
L 169.167944 185.419371 
L 170.954876 184.305644 
L 172.418125 183.589123 
L 174.153439 182.970396 
L 175.973721 182.593163 
L 178.046818 182.504414 
L 179.838874 182.720591 
L 181.553855 183.180989 
L 183.618068 184.061433 
L 185.180478 184.962119 
L 186.866115 186.156693 
L 188.884164 187.885054 
L 190.812445 189.832304 
L 193.168548 192.590182 
L 195.555949 195.790493 
L 198.314511 199.966506 
L 200.415526 203.467273 
L 203.85194 209.733592 
L 207.570275 217.173054 
L 210.601941 223.657192 
L 215.164751 233.946163 
L 221.482692 248.782595 
L 221.482692 248.782595 
" clip-path="url(#p242be3b2ca)" style="fill: none; stroke: #0000ff; stroke-linecap: square"/>
   </g>
   <g id="patch_16">
    <path d="M 42.1 317.72 
L 42.1 179.841454 
" style="fill: none; stroke: #000000; stroke-width: 0.8; stroke-linejoin: miter; stroke-linecap: square"/>
   </g>
   <g id="patch_17">
    <path d="M 225 317.72 
L 225 179.841454 
" style="fill: none; stroke: #000000; stroke-width: 0.8; stroke-linejoin: miter; stroke-linecap: square"/>
   </g>
   <g id="patch_18">
    <path d="M 42.1 317.72 
L 225 317.72 
" style="fill: none; stroke: #000000; stroke-width: 0.8; stroke-linejoin: miter; stroke-linecap: square"/>
   </g>
   <g id="patch_19">
    <path d="M 42.1 179.841454 
L 225 179.841454 
" style="fill: none; stroke: #000000; stroke-width: 0.8; stroke-linejoin: miter; stroke-linecap: square"/>
   </g>
  </g>
  <g id="axes_4">
   <g id="patch_20">
    <path d="M 267.1 317.72 
L 450 317.72 
L 450 179.841454 
L 267.1 179.841454 
z
" style="fill: #ffffff"/>
   </g>
   <g id="patch_21">
    <path d="M 446.482692 299.133691 
L 445.784137 298.670381 
L 444.975499 298.134061 
L 443.491513 297.149825 
L 443.074034 296.872936 
L 442.477963 296.477599 
L 441.20151 295.631006 
L 440.136036 294.924342 
L 439.474911 294.485859 
L 438.596283 293.903119 
L 437.633753 293.264732 
L 436.540668 292.539756 
L 436.138047 292.272722 
L 435.240549 291.677466 
L 433.786203 290.712888 
L 433.116629 290.2688 
L 432.774326 290.041772 
L 431.601014 289.263586 
L 430.164615 288.31091 
L 429.412603 287.812147 
L 428.931366 287.492972 
L 427.980471 286.862302 
L 426.772176 286.060914 
L 425.827858 285.434605 
L 425.06957 284.93168 
L 424.410572 284.494607 
L 423.650671 283.990611 
L 422.548566 283.259652 
L 421.424931 282.514414 
L 420.979944 282.219281 
L 420.090745 281.629531 
L 418.927166 280.857799 
L 418.474935 280.557862 
L 417.093635 279.641731 
L 416.632902 279.336155 
L 415.570522 278.631544 
L 414.331529 277.809796 
L 414.141872 277.684007 
L 412.496777 276.592917 
L 411.745438 276.0946 
L 410.810483 275.474502 
L 410.165523 275.046739 
L 409.26472 274.449292 
L 408.81027 274.147883 
L 407.615989 273.355789 
L 406.824356 272.830748 
L 405.732865 272.106829 
L 405.157892 271.725484 
L 403.714766 270.768347 
L 403.545248 270.655916 
L 402.071891 269.678729 
L 401.757751 269.47038 
L 400.164967 268.413983 
L 399.70087 268.106176 
L 398.47557 267.29351 
L 397.893831 266.907678 
L 396.853766 266.217867 
L 395.894931 265.58193 
L 395.051725 265.022683 
L 394.453149 264.625685 
L 393.756003 264.16331 
L 392.867993 263.574348 
L 391.769358 262.845691 
L 390.674783 262.119726 
L 390.258818 261.843842 
L 389.425482 261.291142 
L 388.527742 260.695726 
L 387.082539 259.737211 
L 386.117689 259.097286 
L 385.1182 258.434385 
L 384.819713 258.236418 
L 383.836126 257.584064 
L 382.457661 256.669814 
L 382.065988 256.41004 
L 381.508889 256.040551 
L 380.477249 255.356327 
L 379.416972 254.65311 
L 378.115192 253.78972 
L 377.870458 253.627403 
L 376.738253 252.87648 
L 375.521855 252.069718 
L 374.610391 251.4652 
L 374.422048 251.340284 
L 373.195479 250.526776 
L 372.292138 249.927645 
L 371.679128 249.521073 
L 370.051524 248.441584 
L 369.716324 248.219266 
L 368.565869 247.45624 
L 367.922819 247.029744 
L 366.504901 246.089326 
L 366.034426 245.777289 
L 365.018728 245.103638 
L 364.569679 244.805812 
L 362.971527 243.745856 
L 362.881023 243.68583 
L 361.452938 242.738668 
L 361.183194 242.559764 
L 359.78962 241.635492 
L 359.211515 241.25207 
L 358.388269 240.706062 
L 357.567677 240.161813 
L 356.199293 239.254248 
L 355.894356 239.052002 
L 354.958659 238.431411 
L 353.39394 237.393629 
L 352.714862 236.943239 
L 351.638399 236.229286 
L 351.447726 236.102825 
L 349.810935 235.017242 
L 349.270309 234.658678 
L 348.422449 234.096344 
L 347.363786 233.394198 
L 346.961878 233.127637 
L 345.505867 232.161954 
L 344.907317 231.764973 
L 344.375501 231.412252 
L 342.793869 230.363252 
L 342.545418 230.19847 
L 340.98296 229.162187 
L 340.874061 229.089961 
L 339.618049 228.256925 
L 338.595229 227.578552 
L 337.416988 226.797097 
L 336.498966 226.188229 
L 336.183488 225.978992 
L 334.996869 225.19198 
L 334.212284 224.671613 
L 333.388909 224.125519 
L 332.818339 223.747095 
L 332.017176 223.215732 
L 330.339324 222.102916 
L 329.582183 221.600751 
L 329.296778 221.411459 
L 328.409753 220.82315 
L 326.764884 219.732209 
L 326.662275 219.664155 
L 325.764596 219.06878 
L 324.354464 218.133526 
L 323.290284 217.42772 
L 322.734786 217.059293 
L 322.202339 216.706153 
L 320.969191 215.888282 
L 320.469453 215.556836 
L 319.603476 214.982487 
L 318.597751 214.315451 
L 317.304252 213.457552 
L 316.776836 213.10775 
L 315.612089 212.335244 
L 315.194309 212.058157 
L 313.823929 211.149267 
L 312.742082 210.431744 
L 311.814343 209.816432 
L 311.522053 209.622574 
L 310.108669 208.685163 
L 309.870659 208.527306 
L 308.531295 207.638988 
L 307.595397 207.018264 
L 306.643685 206.387052 
L 305.645928 205.725301 
L 304.983247 205.285785 
L 304.552614 205.000172 
L 302.882353 203.892391 
L 302.828746 203.856837 
L 301.473939 202.958276 
L 300.86001 202.551095 
L 299.587132 201.706873 
L 298.712495 201.12678 
L 297.634704 200.411947 
L 297.178387 200.1093 
L 295.881779 199.24934 
L 295.117865 198.742682 
L 294.740971 198.492711 
L 293.883255 197.923841 
L 292.96207 197.312875 
L 291.542177 196.371148 
L 290.629855 195.76606 
L 290.110675 195.42172 
L 288.989018 194.677794 
L 288.31238 194.229021 
L 287.032312 193.380031 
L 286.418276 192.972778 
L 285.719612 192.509397 
L 285.199053 192.164142 
L 283.608679 191.109345 
L 283.258645 190.877189 
L 281.666698 189.821348 
L 281.345955 189.608619 
L 280.336298 188.938975 
L 279.494445 188.380626 
L 278.687127 187.845181 
L 277.439238 187.017533 
L 277.242862 186.887289 
L 276.233305 186.217712 
L 275.122626 185.481066 
L 274.269936 184.91553 
L 273.202185 184.207356 
L 272.517383 183.753168 
L 271.909009 183.349671 
L 270.617308 182.492965 
L 270.617308 259.377276 
L 271.690698 261.512494 
L 272.723476 263.563999 
L 273.651227 265.4021 
L 274.46599 267.010953 
L 275.143714 268.344335 
L 275.670233 269.376641 
L 276.84881 271.674022 
L 278.037316 273.968668 
L 278.877687 275.575539 
L 279.807205 277.335802 
L 280.504365 278.643147 
L 281.327431 280.17115 
L 281.935251 281.288087 
L 282.693454 282.666827 
L 283.641567 284.36674 
L 284.816225 286.43286 
L 285.882416 288.267042 
L 286.78445 289.786196 
L 287.674432 291.25411 
L 288.636207 292.804165 
L 289.382793 293.980293 
L 290.126405 295.127266 
L 291.131707 296.637618 
L 291.413971 297.053129 
L 292.452239 298.548237 
L 293.837859 300.459233 
L 294.62234 301.496824 
L 295.459047 302.567011 
L 295.872563 303.081725 
L 297.296884 304.78092 
L 298.047492 305.629356 
L 298.544275 306.172632 
L 299.308849 306.979899 
L 300.073423 307.751649 
L 300.649831 308.309635 
L 301.834224 309.390797 
L 302.664909 310.095767 
L 303.452025 310.722555 
L 304.495426 311.490761 
L 304.832997 311.723845 
L 305.7055 312.290932 
L 306.852914 312.958354 
L 308.004149 313.537517 
L 308.344088 313.691054 
L 309.055694 313.986494 
L 309.7673 314.24664 
L 310.687249 314.53037 
L 311.399376 314.70911 
L 312.257043 314.876829 
L 312.664326 314.938235 
L 313.760906 315.045062 
L 314.71683 315.06849 
L 315.677934 315.026564 
L 316.186967 314.977776 
L 317.175507 314.83052 
L 318.549622 314.510994 
L 318.922165 314.401434 
L 319.812729 314.100068 
L 320.529249 313.81737 
L 321.245769 313.498997 
L 322.274425 312.979986 
L 322.861324 312.651382 
L 323.625972 312.188143 
L 324.834532 311.375748 
L 324.977076 311.273508 
L 325.717473 310.720866 
L 326.457871 310.1323 
L 327.300209 309.419537 
L 328.056885 308.740602 
L 329.290843 307.556271 
L 330.26995 306.549806 
L 330.52216 306.28115 
L 331.208336 305.531018 
L 332.420427 304.138472 
L 333.12924 303.285067 
L 334.248407 301.880495 
L 335.229018 300.593886 
L 335.709897 299.944365 
L 336.880379 298.313745 
L 337.543556 297.35946 
L 338.335857 296.191464 
L 339.323952 294.693612 
L 340.32897 293.124972 
L 341.594601 291.08793 
L 341.93184 290.53403 
L 343.003933 288.743508 
L 344.388715 286.367388 
L 344.831953 285.592606 
L 345.800065 283.877753 
L 346.531669 282.562282 
L 347.90191 280.056597 
L 348.554423 278.845594 
L 349.304745 277.440029 
L 350.525108 275.126676 
L 350.600094 274.983508 
L 352.228729 271.848164 
L 352.923532 270.497106 
L 353.589467 269.19574 
L 354.447284 267.511315 
L 355.454278 265.524332 
L 356.253708 263.941122 
L 357.452273 261.560881 
L 358.093454 260.285632 
L 358.643007 259.192219 
L 359.477459 257.532233 
L 360.927904 254.651612 
L 361.419711 253.677363 
L 362.481395 251.58061 
L 363.222492 250.123464 
L 364.288706 248.03871 
L 365.429776 245.825895 
L 365.911377 244.898498 
L 367.332255 242.188394 
L 368.108607 240.725889 
L 368.998335 239.067518 
L 369.167298 238.754854 
L 370.113581 237.017979 
L 371.775662 234.030335 
L 372.10536 233.447982 
L 372.769061 232.286666 
L 374.290915 229.682343 
L 374.789564 228.847737 
L 375.766131 227.24153 
L 376.330267 226.33137 
L 377.843372 223.957465 
L 378.476543 222.99441 
L 379.692733 221.197218 
L 380.586301 219.922518 
L 381.140836 219.151596 
L 381.562872 218.575441 
L 382.414643 217.441006 
L 383.802632 215.676062 
L 384.590594 214.721646 
L 385.524122 213.63677 
L 386.596413 212.453488 
L 387.645613 211.362325 
L 387.758111 211.249307 
L 389.217088 209.854639 
L 390.295576 208.909966 
L 390.852027 208.451772 
L 391.393439 208.025278 
L 392.69448 207.079242 
L 393.290054 206.683759 
L 394.663477 205.862974 
L 395.462732 205.444507 
L 396.416819 205.002576 
L 396.864107 204.817116 
L 397.687791 204.512074 
L 398.340357 204.304122 
L 399.157015 204.086063 
L 399.973673 203.915069 
L 400.358034 203.850922 
L 401.633021 203.713163 
L 402.302118 203.687063 
L 402.787609 203.688047 
L 403.622947 203.728951 
L 404.451462 203.818478 
L 405.279976 203.95668 
L 406.257397 204.18214 
L 406.505155 204.249994 
L 407.748552 204.65564 
L 408.165322 204.815814 
L 409.402018 205.362157 
L 410.508024 205.940108 
L 411.230398 206.362689 
L 412.023754 206.867468 
L 412.774599 207.38406 
L 413.94366 208.262718 
L 414.40135 208.63109 
L 415.188921 209.296672 
L 415.976492 210.001901 
L 416.490248 210.483046 
L 417.736373 211.718172 
L 418.104319 212.101047 
L 419.176987 213.263613 
L 419.716437 213.873975 
L 420.683046 215.009771 
L 421.581942 216.113509 
L 422.564256 217.370653 
L 423.813898 219.044477 
L 424.71288 220.298522 
L 425.471148 221.387671 
L 425.88005 221.986624 
L 426.663765 223.156793 
L 427.649304 224.668497 
L 429.222048 227.169234 
L 429.27391 227.253473 
L 430.5461 229.353693 
L 431.665997 231.253967 
L 432.129218 232.053309 
L 432.920853 233.436573 
L 434.44201 236.151841 
L 435.374783 237.851283 
L 435.782834 238.60235 
L 436.838099 240.56477 
L 437.3445 241.516163 
L 438.511896 243.731147 
L 439.678998 245.972776 
L 440.056361 246.702743 
L 441.122709 248.777494 
L 441.759151 250.023317 
L 442.648006 251.771184 
L 443.485869 253.425835 
L 445.090549 256.608448 
L 445.605337 257.631873 
L 446.482692 259.377276 
z
" clip-path="url(#pec4d85c84f)" style="fill: #0000ff; opacity: 0.2"/>
   </g>
   <g id="matplotlib.axis_7">
    <g id="xtick_100">
     <g id="line2d_166">
      <g>
       <use xlink:href="#m696f202f0c" x="274.580464" y="317.72" style="stroke: #000000; stroke-width: 0.8"/>
      </g>
     </g>
     <g id="text_37">
      <!-- −3 -->
      <g transform="translate(267.20937 332.318438) scale(0.1 -0.1)">
       <use xlink:href="#DejaVuSans-2212"/>
       <use xlink:href="#DejaVuSans-33" transform="translate(83.789062 0)"/>
      </g>
     </g>
    </g>
    <g id="xtick_101">
     <g id="line2d_167">
      <g>
       <use xlink:href="#m696f202f0c" x="302.570309" y="317.72" style="stroke: #000000; stroke-width: 0.8"/>
      </g>
     </g>
     <g id="text_38">
      <!-- −2 -->
      <g transform="translate(295.199216 332.318438) scale(0.1 -0.1)">
       <use xlink:href="#DejaVuSans-2212"/>
       <use xlink:href="#DejaVuSans-32" transform="translate(83.789062 0)"/>
      </g>
     </g>
    </g>
    <g id="xtick_102">
     <g id="line2d_168">
      <g>
       <use xlink:href="#m696f202f0c" x="330.560155" y="317.72" style="stroke: #000000; stroke-width: 0.8"/>
      </g>
     </g>
     <g id="text_39">
      <!-- −1 -->
      <g transform="translate(323.189061 332.318438) scale(0.1 -0.1)">
       <use xlink:href="#DejaVuSans-2212"/>
       <use xlink:href="#DejaVuSans-31" transform="translate(83.789062 0)"/>
      </g>
     </g>
    </g>
    <g id="xtick_103">
     <g id="line2d_169">
      <g>
       <use xlink:href="#m696f202f0c" x="358.55" y="317.72" style="stroke: #000000; stroke-width: 0.8"/>
      </g>
     </g>
     <g id="text_40">
      <!-- 0 -->
      <g transform="translate(355.36875 332.318438) scale(0.1 -0.1)">
       <use xlink:href="#DejaVuSans-30"/>
      </g>
     </g>
    </g>
    <g id="xtick_104">
     <g id="line2d_170">
      <g>
       <use xlink:href="#m696f202f0c" x="386.539845" y="317.72" style="stroke: #000000; stroke-width: 0.8"/>
      </g>
     </g>
     <g id="text_41">
      <!-- 1 -->
      <g transform="translate(383.358595 332.318438) scale(0.1 -0.1)">
       <use xlink:href="#DejaVuSans-31"/>
      </g>
     </g>
    </g>
    <g id="xtick_105">
     <g id="line2d_171">
      <g>
       <use xlink:href="#m696f202f0c" x="414.529691" y="317.72" style="stroke: #000000; stroke-width: 0.8"/>
      </g>
     </g>
     <g id="text_42">
      <!-- 2 -->
      <g transform="translate(411.348441 332.318438) scale(0.1 -0.1)">
       <use xlink:href="#DejaVuSans-32"/>
      </g>
     </g>
    </g>
    <g id="xtick_106">
     <g id="line2d_172">
      <g>
       <use xlink:href="#m696f202f0c" x="442.519536" y="317.72" style="stroke: #000000; stroke-width: 0.8"/>
      </g>
     </g>
     <g id="text_43">
      <!-- 3 -->
      <g transform="translate(439.338286 332.318438) scale(0.1 -0.1)">
       <use xlink:href="#DejaVuSans-33"/>
      </g>
     </g>
    </g>
    <g id="xtick_107">
     <g id="line2d_173">
      <g>
       <use xlink:href="#m819f4e87ec" x="268.982495" y="317.72" style="stroke: #000000; stroke-width: 0.6"/>
      </g>
     </g>
    </g>
    <g id="xtick_108">
     <g id="line2d_174">
      <g>
       <use xlink:href="#m819f4e87ec" x="280.178433" y="317.72" style="stroke: #000000; stroke-width: 0.6"/>
      </g>
     </g>
    </g>
    <g id="xtick_109">
     <g id="line2d_175">
      <g>
       <use xlink:href="#m819f4e87ec" x="285.776402" y="317.72" style="stroke: #000000; stroke-width: 0.6"/>
      </g>
     </g>
    </g>
    <g id="xtick_110">
     <g id="line2d_176">
      <g>
       <use xlink:href="#m819f4e87ec" x="291.374371" y="317.72" style="stroke: #000000; stroke-width: 0.6"/>
      </g>
     </g>
    </g>
    <g id="xtick_111">
     <g id="line2d_177">
      <g>
       <use xlink:href="#m819f4e87ec" x="296.97234" y="317.72" style="stroke: #000000; stroke-width: 0.6"/>
      </g>
     </g>
    </g>
    <g id="xtick_112">
     <g id="line2d_178">
      <g>
       <use xlink:href="#m819f4e87ec" x="308.168278" y="317.72" style="stroke: #000000; stroke-width: 0.6"/>
      </g>
     </g>
    </g>
    <g id="xtick_113">
     <g id="line2d_179">
      <g>
       <use xlink:href="#m819f4e87ec" x="313.766248" y="317.72" style="stroke: #000000; stroke-width: 0.6"/>
      </g>
     </g>
    </g>
    <g id="xtick_114">
     <g id="line2d_180">
      <g>
       <use xlink:href="#m819f4e87ec" x="319.364217" y="317.72" style="stroke: #000000; stroke-width: 0.6"/>
      </g>
     </g>
    </g>
    <g id="xtick_115">
     <g id="line2d_181">
      <g>
       <use xlink:href="#m819f4e87ec" x="324.962186" y="317.72" style="stroke: #000000; stroke-width: 0.6"/>
      </g>
     </g>
    </g>
    <g id="xtick_116">
     <g id="line2d_182">
      <g>
       <use xlink:href="#m819f4e87ec" x="336.158124" y="317.72" style="stroke: #000000; stroke-width: 0.6"/>
      </g>
     </g>
    </g>
    <g id="xtick_117">
     <g id="line2d_183">
      <g>
       <use xlink:href="#m819f4e87ec" x="341.756093" y="317.72" style="stroke: #000000; stroke-width: 0.6"/>
      </g>
     </g>
    </g>
    <g id="xtick_118">
     <g id="line2d_184">
      <g>
       <use xlink:href="#m819f4e87ec" x="347.354062" y="317.72" style="stroke: #000000; stroke-width: 0.6"/>
      </g>
     </g>
    </g>
    <g id="xtick_119">
     <g id="line2d_185">
      <g>
       <use xlink:href="#m819f4e87ec" x="352.952031" y="317.72" style="stroke: #000000; stroke-width: 0.6"/>
      </g>
     </g>
    </g>
    <g id="xtick_120">
     <g id="line2d_186">
      <g>
       <use xlink:href="#m819f4e87ec" x="364.147969" y="317.72" style="stroke: #000000; stroke-width: 0.6"/>
      </g>
     </g>
    </g>
    <g id="xtick_121">
     <g id="line2d_187">
      <g>
       <use xlink:href="#m819f4e87ec" x="369.745938" y="317.72" style="stroke: #000000; stroke-width: 0.6"/>
      </g>
     </g>
    </g>
    <g id="xtick_122">
     <g id="line2d_188">
      <g>
       <use xlink:href="#m819f4e87ec" x="375.343907" y="317.72" style="stroke: #000000; stroke-width: 0.6"/>
      </g>
     </g>
    </g>
    <g id="xtick_123">
     <g id="line2d_189">
      <g>
       <use xlink:href="#m819f4e87ec" x="380.941876" y="317.72" style="stroke: #000000; stroke-width: 0.6"/>
      </g>
     </g>
    </g>
    <g id="xtick_124">
     <g id="line2d_190">
      <g>
       <use xlink:href="#m819f4e87ec" x="392.137814" y="317.72" style="stroke: #000000; stroke-width: 0.6"/>
      </g>
     </g>
    </g>
    <g id="xtick_125">
     <g id="line2d_191">
      <g>
       <use xlink:href="#m819f4e87ec" x="397.735783" y="317.72" style="stroke: #000000; stroke-width: 0.6"/>
      </g>
     </g>
    </g>
    <g id="xtick_126">
     <g id="line2d_192">
      <g>
       <use xlink:href="#m819f4e87ec" x="403.333752" y="317.72" style="stroke: #000000; stroke-width: 0.6"/>
      </g>
     </g>
    </g>
    <g id="xtick_127">
     <g id="line2d_193">
      <g>
       <use xlink:href="#m819f4e87ec" x="408.931722" y="317.72" style="stroke: #000000; stroke-width: 0.6"/>
      </g>
     </g>
    </g>
    <g id="xtick_128">
     <g id="line2d_194">
      <g>
       <use xlink:href="#m819f4e87ec" x="420.12766" y="317.72" style="stroke: #000000; stroke-width: 0.6"/>
      </g>
     </g>
    </g>
    <g id="xtick_129">
     <g id="line2d_195">
      <g>
       <use xlink:href="#m819f4e87ec" x="425.725629" y="317.72" style="stroke: #000000; stroke-width: 0.6"/>
      </g>
     </g>
    </g>
    <g id="xtick_130">
     <g id="line2d_196">
      <g>
       <use xlink:href="#m819f4e87ec" x="431.323598" y="317.72" style="stroke: #000000; stroke-width: 0.6"/>
      </g>
     </g>
    </g>
    <g id="xtick_131">
     <g id="line2d_197">
      <g>
       <use xlink:href="#m819f4e87ec" x="436.921567" y="317.72" style="stroke: #000000; stroke-width: 0.6"/>
      </g>
     </g>
    </g>
    <g id="xtick_132">
     <g id="line2d_198">
      <g>
       <use xlink:href="#m819f4e87ec" x="448.117505" y="317.72" style="stroke: #000000; stroke-width: 0.6"/>
      </g>
     </g>
    </g>
   </g>
   <g id="matplotlib.axis_8">
    <g id="ytick_64">
     <g id="line2d_199">
      <g>
       <use xlink:href="#m2bb9666e4e" x="267.1" y="315.06912" style="stroke: #000000; stroke-width: 0.8"/>
      </g>
     </g>
     <g id="text_44">
      <!-- −1.0 -->
      <g transform="translate(235.817188 318.868339) scale(0.1 -0.1)">
       <use xlink:href="#DejaVuSans-2212"/>
       <use xlink:href="#DejaVuSans-31" transform="translate(83.789062 0)"/>
       <use xlink:href="#DejaVuSans-2e" transform="translate(147.412109 0)"/>
       <use xlink:href="#DejaVuSans-30" transform="translate(179.199219 0)"/>
      </g>
     </g>
    </g>
    <g id="ytick_65">
     <g id="line2d_200">
      <g>
       <use xlink:href="#m2bb9666e4e" x="267.1" y="287.223198" style="stroke: #000000; stroke-width: 0.8"/>
      </g>
     </g>
     <g id="text_45">
      <!-- −0.5 -->
      <g transform="translate(235.817188 291.022417) scale(0.1 -0.1)">
       <use xlink:href="#DejaVuSans-2212"/>
       <use xlink:href="#DejaVuSans-30" transform="translate(83.789062 0)"/>
       <use xlink:href="#DejaVuSans-2e" transform="translate(147.412109 0)"/>
       <use xlink:href="#DejaVuSans-35" transform="translate(179.199219 0)"/>
      </g>
     </g>
    </g>
    <g id="ytick_66">
     <g id="line2d_201">
      <g>
       <use xlink:href="#m2bb9666e4e" x="267.1" y="259.377276" style="stroke: #000000; stroke-width: 0.8"/>
      </g>
     </g>
     <g id="text_46">
      <!-- 0.0 -->
      <g transform="translate(244.196875 263.176495) scale(0.1 -0.1)">
       <use xlink:href="#DejaVuSans-30"/>
       <use xlink:href="#DejaVuSans-2e" transform="translate(63.623047 0)"/>
       <use xlink:href="#DejaVuSans-30" transform="translate(95.410156 0)"/>
      </g>
     </g>
    </g>
    <g id="ytick_67">
     <g id="line2d_202">
      <g>
       <use xlink:href="#m2bb9666e4e" x="267.1" y="231.531354" style="stroke: #000000; stroke-width: 0.8"/>
      </g>
     </g>
     <g id="text_47">
      <!-- 0.5 -->
      <g transform="translate(244.196875 235.330572) scale(0.1 -0.1)">
       <use xlink:href="#DejaVuSans-30"/>
       <use xlink:href="#DejaVuSans-2e" transform="translate(63.623047 0)"/>
       <use xlink:href="#DejaVuSans-35" transform="translate(95.410156 0)"/>
      </g>
     </g>
    </g>
    <g id="ytick_68">
     <g id="line2d_203">
      <g>
       <use xlink:href="#m2bb9666e4e" x="267.1" y="203.685432" style="stroke: #000000; stroke-width: 0.8"/>
      </g>
     </g>
     <g id="text_48">
      <!-- 1.0 -->
      <g transform="translate(244.196875 207.48465) scale(0.1 -0.1)">
       <use xlink:href="#DejaVuSans-31"/>
       <use xlink:href="#DejaVuSans-2e" transform="translate(63.623047 0)"/>
       <use xlink:href="#DejaVuSans-30" transform="translate(95.410156 0)"/>
      </g>
     </g>
    </g>
    <g id="ytick_69">
     <g id="line2d_204">
      <g>
       <use xlink:href="#meeebc345f3" x="267.1" y="309.499935" style="stroke: #000000; stroke-width: 0.6"/>
      </g>
     </g>
    </g>
    <g id="ytick_70">
     <g id="line2d_205">
      <g>
       <use xlink:href="#meeebc345f3" x="267.1" y="303.930751" style="stroke: #000000; stroke-width: 0.6"/>
      </g>
     </g>
    </g>
    <g id="ytick_71">
     <g id="line2d_206">
      <g>
       <use xlink:href="#meeebc345f3" x="267.1" y="298.361567" style="stroke: #000000; stroke-width: 0.6"/>
      </g>
     </g>
    </g>
    <g id="ytick_72">
     <g id="line2d_207">
      <g>
       <use xlink:href="#meeebc345f3" x="267.1" y="292.792382" style="stroke: #000000; stroke-width: 0.6"/>
      </g>
     </g>
    </g>
    <g id="ytick_73">
     <g id="line2d_208">
      <g>
       <use xlink:href="#meeebc345f3" x="267.1" y="281.654013" style="stroke: #000000; stroke-width: 0.6"/>
      </g>
     </g>
    </g>
    <g id="ytick_74">
     <g id="line2d_209">
      <g>
       <use xlink:href="#meeebc345f3" x="267.1" y="276.084829" style="stroke: #000000; stroke-width: 0.6"/>
      </g>
     </g>
    </g>
    <g id="ytick_75">
     <g id="line2d_210">
      <g>
       <use xlink:href="#meeebc345f3" x="267.1" y="270.515645" style="stroke: #000000; stroke-width: 0.6"/>
      </g>
     </g>
    </g>
    <g id="ytick_76">
     <g id="line2d_211">
      <g>
       <use xlink:href="#meeebc345f3" x="267.1" y="264.94646" style="stroke: #000000; stroke-width: 0.6"/>
      </g>
     </g>
    </g>
    <g id="ytick_77">
     <g id="line2d_212">
      <g>
       <use xlink:href="#meeebc345f3" x="267.1" y="253.808091" style="stroke: #000000; stroke-width: 0.6"/>
      </g>
     </g>
    </g>
    <g id="ytick_78">
     <g id="line2d_213">
      <g>
       <use xlink:href="#meeebc345f3" x="267.1" y="248.238907" style="stroke: #000000; stroke-width: 0.6"/>
      </g>
     </g>
    </g>
    <g id="ytick_79">
     <g id="line2d_214">
      <g>
       <use xlink:href="#meeebc345f3" x="267.1" y="242.669723" style="stroke: #000000; stroke-width: 0.6"/>
      </g>
     </g>
    </g>
    <g id="ytick_80">
     <g id="line2d_215">
      <g>
       <use xlink:href="#meeebc345f3" x="267.1" y="237.100538" style="stroke: #000000; stroke-width: 0.6"/>
      </g>
     </g>
    </g>
    <g id="ytick_81">
     <g id="line2d_216">
      <g>
       <use xlink:href="#meeebc345f3" x="267.1" y="225.962169" style="stroke: #000000; stroke-width: 0.6"/>
      </g>
     </g>
    </g>
    <g id="ytick_82">
     <g id="line2d_217">
      <g>
       <use xlink:href="#meeebc345f3" x="267.1" y="220.392985" style="stroke: #000000; stroke-width: 0.6"/>
      </g>
     </g>
    </g>
    <g id="ytick_83">
     <g id="line2d_218">
      <g>
       <use xlink:href="#meeebc345f3" x="267.1" y="214.8238" style="stroke: #000000; stroke-width: 0.6"/>
      </g>
     </g>
    </g>
    <g id="ytick_84">
     <g id="line2d_219">
      <g>
       <use xlink:href="#meeebc345f3" x="267.1" y="209.254616" style="stroke: #000000; stroke-width: 0.6"/>
      </g>
     </g>
    </g>
    <g id="ytick_85">
     <g id="line2d_220">
      <g>
       <use xlink:href="#meeebc345f3" x="267.1" y="198.116247" style="stroke: #000000; stroke-width: 0.6"/>
      </g>
     </g>
    </g>
    <g id="ytick_86">
     <g id="line2d_221">
      <g>
       <use xlink:href="#meeebc345f3" x="267.1" y="192.547063" style="stroke: #000000; stroke-width: 0.6"/>
      </g>
     </g>
    </g>
    <g id="ytick_87">
     <g id="line2d_222">
      <g>
       <use xlink:href="#meeebc345f3" x="267.1" y="186.977878" style="stroke: #000000; stroke-width: 0.6"/>
      </g>
     </g>
    </g>
    <g id="ytick_88">
     <g id="line2d_223">
      <g>
       <use xlink:href="#meeebc345f3" x="267.1" y="181.408694" style="stroke: #000000; stroke-width: 0.6"/>
      </g>
     </g>
    </g>
   </g>
   <g id="line2d_224">
    <path d="M 270.617308 259.377276 
L 278.877687 275.575539 
L 283.641567 284.36674 
L 287.674432 291.25411 
L 291.131707 296.637618 
L 293.837859 300.459233 
L 295.872563 303.081725 
L 298.544275 306.172632 
L 300.649831 308.309635 
L 303.452025 310.722555 
L 305.7055 312.290932 
L 308.004149 313.537517 
L 309.7673 314.24664 
L 311.399376 314.70911 
L 312.664326 314.938235 
L 314.71683 315.06849 
L 316.186967 314.977776 
L 317.175507 314.83052 
L 318.922165 314.401434 
L 321.245769 313.498997 
L 323.625972 312.188143 
L 325.717473 310.720866 
L 328.056885 308.740602 
L 330.52216 306.28115 
L 333.12924 303.285067 
L 335.709897 299.944365 
L 338.335857 296.191464 
L 341.594601 291.08793 
L 344.831953 285.592606 
L 348.554423 278.845594 
L 353.589467 269.19574 
L 369.167298 238.754854 
L 372.769061 232.286666 
L 376.330267 226.33137 
L 379.692733 221.197218 
L 382.414643 217.441006 
L 385.524122 213.63677 
L 387.758111 211.249307 
L 390.295576 208.909966 
L 391.393439 208.025278 
L 393.290054 206.683759 
L 395.462732 205.444507 
L 397.687791 204.512074 
L 399.157015 204.086063 
L 400.358034 203.850922 
L 402.787609 203.688047 
L 404.451462 203.818478 
L 406.505155 204.249994 
L 408.165322 204.815814 
L 410.508024 205.940108 
L 412.774599 207.38406 
L 415.188921 209.296672 
L 417.736373 211.718172 
L 419.716437 213.873975 
L 422.564256 217.370653 
L 425.88005 221.986624 
L 429.27391 227.253473 
L 432.920853 233.436573 
L 437.3445 241.516163 
L 442.648006 251.771184 
L 446.482692 259.377276 
L 446.482692 259.377276 
" clip-path="url(#pec4d85c84f)" style="fill: none; stroke: #0000ff; stroke-linecap: square"/>
   </g>
   <g id="patch_22">
    <path d="M 267.1 317.72 
L 267.1 179.841454 
" style="fill: none; stroke: #000000; stroke-width: 0.8; stroke-linejoin: miter; stroke-linecap: square"/>
   </g>
   <g id="patch_23">
    <path d="M 450 317.72 
L 450 179.841454 
" style="fill: none; stroke: #000000; stroke-width: 0.8; stroke-linejoin: miter; stroke-linecap: square"/>
   </g>
   <g id="patch_24">
    <path d="M 267.1 317.72 
L 450 317.72 
" style="fill: none; stroke: #000000; stroke-width: 0.8; stroke-linejoin: miter; stroke-linecap: square"/>
   </g>
   <g id="patch_25">
    <path d="M 267.1 179.841454 
L 450 179.841454 
" style="fill: none; stroke: #000000; stroke-width: 0.8; stroke-linejoin: miter; stroke-linecap: square"/>
   </g>
  </g>
 </g>
 <defs>
  <clipPath id="pe84d9f3203">
   <rect x="42.1" y="12.448663" width="182.9" height="137.878546"/>
  </clipPath>
  <clipPath id="pbb9780d23c">
   <rect x="267.1" y="12.448663" width="182.9" height="137.878546"/>
  </clipPath>
  <clipPath id="p242be3b2ca">
   <rect x="42.1" y="179.841454" width="182.9" height="137.878546"/>
  </clipPath>
  <clipPath id="pec4d85c84f">
   <rect x="267.1" y="179.841454" width="182.9" height="137.878546"/>
  </clipPath>
 </defs>
</svg>
