<?xml version="1.0" encoding="utf-8" standalone="no"?>
<!DOCTYPE svg PUBLIC "-//W3C//DTD SVG 1.1//EN"
  "http://www.w3.org/Graphics/SVG/1.1/DTD/svg11.dtd">
<svg xmlns:xlink="http://www.w3.org/1999/xlink" width="460.8pt" height="345.6pt" viewBox="0 0 460.8 345.6" xmlns="http://www.w3.org/2000/svg" version="1.1">
 <metadata>
  <rdf:RDF xmlns:dc="http://purl.org/dc/elements/1.1/" xmlns:cc="http://creativecommons.org/ns#" xmlns:rdf="http://www.w3.org/1999/02/22-rdf-syntax-ns#">
   <cc:Work>
    <dc:type rdf:resource="http://purl.org/dc/dcmitype/StillImage"/>
    <dc:date>2025-08-03T20:17:18.835162</dc:date>
    <dc:format>image/svg+xml</dc:format>
    <dc:creator>
     <cc:Agent>
      <dc:title>Matplotlib v3.10.3, https://matplotlib.org/</dc:title>
     </cc:Agent>
    </dc:creator>
   </cc:Work>
  </rdf:RDF>
 </metadata>
 <defs>
  <style type="text/css">*{stroke-linejoin: round; stroke-linecap: butt}</style>
 </defs>
 <g id="figure_1">
  <g id="patch_1">
   <path d="M 0 345.6 
L 460.8 345.6 
L 460.8 0 
L 0 0 
z
" style="fill: #ffffff"/>
  </g>
  <g id="axes_1">
   <g id="patch_2">
    <path d="M 0 345.6 
L 460.8 345.6 
L 460.8 0 
L 0 0 
z
" style="fill: #ffffff"/>
   </g>
   <g id="PathCollection_1">
    <defs>
     <path id="C0_0_7666633bf7" d="M 0 2.738613 
C 0.726289 2.738613 1.422928 2.450055 1.936492 1.936492 
C 2.450055 1.422928 2.738613 0.726289 2.738613 -0 
C 2.738613 -0.726289 2.450055 -1.422928 1.936492 -1.936492 
C 1.422928 -2.450055 0.726289 -2.738613 0 -2.738613 
C -0.726289 -2.738613 -1.422928 -2.450055 -1.936492 -1.936492 
C -2.450055 -1.422928 -2.738613 -0.726289 -2.738613 0 
C -2.738613 0.726289 -2.450055 1.422928 -1.936492 1.936492 
C -1.422928 2.450055 -0.726289 2.738613 0 2.738613 
z
"/>
    </defs>
    <g clip-path="url(#p3a87b6e6cc)">
     <use xlink:href="#C0_0_7666633bf7" x="8.861538" y="245.943958" style="fill: #33991a"/>
    </g>
    <g clip-path="url(#p3a87b6e6cc)">
     <use xlink:href="#C0_0_7666633bf7" x="12.584874" y="288.186926" style="fill: #33991a"/>
    </g>
    <g clip-path="url(#p3a87b6e6cc)">
     <use xlink:href="#C0_0_7666633bf7" x="16.308209" y="318.538602" style="fill: #33991a"/>
    </g>
    <g clip-path="url(#p3a87b6e6cc)">
     <use xlink:href="#C0_0_7666633bf7" x="20.031545" y="335.386438" style="fill: #33991a"/>
    </g>
    <g clip-path="url(#p3a87b6e6cc)">
     <use xlink:href="#C0_0_7666633bf7" x="23.75488" y="338.454967" style="fill: #33991a"/>
    </g>
    <g clip-path="url(#p3a87b6e6cc)">
     <use xlink:href="#C0_0_7666633bf7" x="27.478216" y="328.648424" style="fill: #33991a"/>
    </g>
    <g clip-path="url(#p3a87b6e6cc)">
     <use xlink:href="#C0_0_7666633bf7" x="31.201551" y="307.810724" style="fill: #33991a"/>
    </g>
    <g clip-path="url(#p3a87b6e6cc)">
     <use xlink:href="#C0_0_7666633bf7" x="34.924887" y="278.440341" style="fill: #33991a"/>
    </g>
    <g clip-path="url(#p3a87b6e6cc)">
     <use xlink:href="#C0_0_7666633bf7" x="38.648222" y="243.394645" style="fill: #33991a"/>
    </g>
    <g clip-path="url(#p3a87b6e6cc)">
     <use xlink:href="#C0_0_7666633bf7" x="42.371558" y="205.612367" style="fill: #33991a"/>
    </g>
    <g clip-path="url(#p3a87b6e6cc)">
     <use xlink:href="#C0_0_7666633bf7" x="46.094893" y="167.875407" style="fill: #33991a"/>
    </g>
    <g clip-path="url(#p3a87b6e6cc)">
     <use xlink:href="#C0_0_7666633bf7" x="49.818229" y="132.623242" style="fill: #33991a"/>
    </g>
    <g clip-path="url(#p3a87b6e6cc)">
     <use xlink:href="#C0_0_7666633bf7" x="53.541564" y="101.825762" style="fill: #33991a"/>
    </g>
    <g clip-path="url(#p3a87b6e6cc)">
     <use xlink:href="#C0_0_7666633bf7" x="57.2649" y="76.913964" style="fill: #33991a"/>
    </g>
    <g clip-path="url(#p3a87b6e6cc)">
     <use xlink:href="#C0_0_7666633bf7" x="60.988235" y="58.763062" style="fill: #33991a"/>
    </g>
    <g clip-path="url(#p3a87b6e6cc)">
     <use xlink:href="#C0_0_7666633bf7" x="64.711571" y="47.719221" style="fill: #33991a"/>
    </g>
    <g clip-path="url(#p3a87b6e6cc)">
     <use xlink:href="#C0_0_7666633bf7" x="68.434906" y="43.659387" style="fill: #33991a"/>
    </g>
    <g clip-path="url(#p3a87b6e6cc)">
     <use xlink:href="#C0_0_7666633bf7" x="72.158242" y="46.073183" style="fill: #33991a"/>
    </g>
    <g clip-path="url(#p3a87b6e6cc)">
     <use xlink:href="#C0_0_7666633bf7" x="75.881577" y="54.156449" style="fill: #33991a"/>
    </g>
    <g clip-path="url(#p3a87b6e6cc)">
     <use xlink:href="#C0_0_7666633bf7" x="79.604913" y="66.907334" style="fill: #33991a"/>
    </g>
    <g clip-path="url(#p3a87b6e6cc)">
     <use xlink:href="#C0_0_7666633bf7" x="83.328248" y="83.217621" style="fill: #33991a"/>
    </g>
    <g clip-path="url(#p3a87b6e6cc)">
     <use xlink:href="#C0_0_7666633bf7" x="87.051584" y="101.953897" style="fill: #33991a"/>
    </g>
    <g clip-path="url(#p3a87b6e6cc)">
     <use xlink:href="#C0_0_7666633bf7" x="90.774919" y="122.025159" style="fill: #33991a"/>
    </g>
    <g clip-path="url(#p3a87b6e6cc)">
     <use xlink:href="#C0_0_7666633bf7" x="94.498255" y="142.435121" style="fill: #33991a"/>
    </g>
    <g clip-path="url(#p3a87b6e6cc)">
     <use xlink:href="#C0_0_7666633bf7" x="98.22159" y="162.318997" style="fill: #33991a"/>
    </g>
    <g clip-path="url(#p3a87b6e6cc)">
     <use xlink:href="#C0_0_7666633bf7" x="101.944926" y="180.965653" style="fill: #33991a"/>
    </g>
    <g clip-path="url(#p3a87b6e6cc)">
     <use xlink:href="#C0_0_7666633bf7" x="105.668261" y="197.826809" style="fill: #33991a"/>
    </g>
    <g clip-path="url(#p3a87b6e6cc)">
     <use xlink:href="#C0_0_7666633bf7" x="109.391597" y="212.515464" style="fill: #33991a"/>
    </g>
    <g clip-path="url(#p3a87b6e6cc)">
     <use xlink:href="#C0_0_7666633bf7" x="113.114932" y="224.795931" style="fill: #33991a"/>
    </g>
    <g clip-path="url(#p3a87b6e6cc)">
     <use xlink:href="#C0_0_7666633bf7" x="116.838268" y="234.567851" style="fill: #33991a"/>
    </g>
    <g clip-path="url(#p3a87b6e6cc)">
     <use xlink:href="#C0_0_7666633bf7" x="120.561603" y="241.846411" style="fill: #33991a"/>
    </g>
    <g clip-path="url(#p3a87b6e6cc)">
     <use xlink:href="#C0_0_7666633bf7" x="124.284939" y="246.740686" style="fill: #33991a"/>
    </g>
    <g clip-path="url(#p3a87b6e6cc)">
     <use xlink:href="#C0_0_7666633bf7" x="128.008274" y="249.431717" style="fill: #33991a"/>
    </g>
    <g clip-path="url(#p3a87b6e6cc)">
     <use xlink:href="#C0_0_7666633bf7" x="131.73161" y="250.151553" style="fill: #33991a"/>
    </g>
    <g clip-path="url(#p3a87b6e6cc)">
     <use xlink:href="#C0_0_7666633bf7" x="135.454945" y="249.164168" style="fill: #33991a"/>
    </g>
    <g clip-path="url(#p3a87b6e6cc)">
     <use xlink:href="#C0_0_7666633bf7" x="139.178281" y="246.748815" style="fill: #33991a"/>
    </g>
    <g clip-path="url(#p3a87b6e6cc)">
     <use xlink:href="#C0_0_7666633bf7" x="142.901616" y="243.186125" style="fill: #33991a"/>
    </g>
    <g clip-path="url(#p3a87b6e6cc)">
     <use xlink:href="#C0_0_7666633bf7" x="146.624952" y="238.747026" style="fill: #33991a"/>
    </g>
    <g clip-path="url(#p3a87b6e6cc)">
     <use xlink:href="#C0_0_7666633bf7" x="150.348287" y="233.684402" style="fill: #33991a"/>
    </g>
    <g clip-path="url(#p3a87b6e6cc)">
     <use xlink:href="#C0_0_7666633bf7" x="154.071622" y="228.227245" style="fill: #33991a"/>
    </g>
    <g clip-path="url(#p3a87b6e6cc)">
     <use xlink:href="#C0_0_7666633bf7" x="157.794958" y="222.577039" style="fill: #33991a"/>
    </g>
    <g clip-path="url(#p3a87b6e6cc)">
     <use xlink:href="#C0_0_7666633bf7" x="161.518293" y="216.906008" style="fill: #33991a"/>
    </g>
    <g clip-path="url(#p3a87b6e6cc)">
     <use xlink:href="#C0_0_7666633bf7" x="165.241629" y="211.356895" style="fill: #33991a"/>
    </g>
    <g clip-path="url(#p3a87b6e6cc)">
     <use xlink:href="#C0_0_7666633bf7" x="168.964964" y="206.043913" style="fill: #33991a"/>
    </g>
    <g clip-path="url(#p3a87b6e6cc)">
     <use xlink:href="#C0_0_7666633bf7" x="172.6883" y="201.054565" style="fill: #33991a"/>
    </g>
    <g clip-path="url(#p3a87b6e6cc)">
     <use xlink:href="#C0_0_7666633bf7" x="176.411635" y="196.452045" style="fill: #33991a"/>
    </g>
    <g clip-path="url(#p3a87b6e6cc)">
     <use xlink:href="#C0_0_7666633bf7" x="180.134971" y="192.277973" style="fill: #33991a"/>
    </g>
    <g clip-path="url(#p3a87b6e6cc)">
     <use xlink:href="#C0_0_7666633bf7" x="183.858306" y="188.55528" style="fill: #33991a"/>
    </g>
    <g clip-path="url(#p3a87b6e6cc)">
     <use xlink:href="#C0_0_7666633bf7" x="187.581642" y="185.291079" style="fill: #33991a"/>
    </g>
    <g clip-path="url(#p3a87b6e6cc)">
     <use xlink:href="#C0_0_7666633bf7" x="191.304977" y="182.479403" style="fill: #33991a"/>
    </g>
    <g clip-path="url(#p3a87b6e6cc)">
     <use xlink:href="#C0_0_7666633bf7" x="195.028313" y="180.103729" style="fill: #33991a"/>
    </g>
    <g clip-path="url(#p3a87b6e6cc)">
     <use xlink:href="#C0_0_7666633bf7" x="198.751648" y="178.13924" style="fill: #33991a"/>
    </g>
    <g clip-path="url(#p3a87b6e6cc)">
     <use xlink:href="#C0_0_7666633bf7" x="202.474984" y="176.554782" style="fill: #33991a"/>
    </g>
    <g clip-path="url(#p3a87b6e6cc)">
     <use xlink:href="#C0_0_7666633bf7" x="206.198319" y="175.314528" style="fill: #33991a"/>
    </g>
    <g clip-path="url(#p3a87b6e6cc)">
     <use xlink:href="#C0_0_7666633bf7" x="209.921655" y="174.379324" style="fill: #33991a"/>
    </g>
    <g clip-path="url(#p3a87b6e6cc)">
     <use xlink:href="#C0_0_7666633bf7" x="213.64499" y="173.707773" style="fill: #33991a"/>
    </g>
    <g clip-path="url(#p3a87b6e6cc)">
     <use xlink:href="#C0_0_7666633bf7" x="217.368326" y="173.257046" style="fill: #33991a"/>
    </g>
    <g clip-path="url(#p3a87b6e6cc)">
     <use xlink:href="#C0_0_7666633bf7" x="221.091661" y="172.983476" style="fill: #33991a"/>
    </g>
    <g clip-path="url(#p3a87b6e6cc)">
     <use xlink:href="#C0_0_7666633bf7" x="224.814997" y="172.842953" style="fill: #33991a"/>
    </g>
    <g clip-path="url(#p3a87b6e6cc)">
     <use xlink:href="#C0_0_7666633bf7" x="228.538332" y="172.791177" style="fill: #33991a"/>
    </g>
    <g clip-path="url(#p3a87b6e6cc)">
     <use xlink:href="#C0_0_7666633bf7" x="232.261668" y="172.78378" style="fill: #33991a"/>
    </g>
    <g clip-path="url(#p3a87b6e6cc)">
     <use xlink:href="#C0_0_7666633bf7" x="235.985003" y="172.776383" style="fill: #33991a"/>
    </g>
    <g clip-path="url(#p3a87b6e6cc)">
     <use xlink:href="#C0_0_7666633bf7" x="239.708339" y="172.724607" style="fill: #33991a"/>
    </g>
    <g clip-path="url(#p3a87b6e6cc)">
     <use xlink:href="#C0_0_7666633bf7" x="243.431674" y="172.584085" style="fill: #33991a"/>
    </g>
    <g clip-path="url(#p3a87b6e6cc)">
     <use xlink:href="#C0_0_7666633bf7" x="247.15501" y="172.310514" style="fill: #33991a"/>
    </g>
    <g clip-path="url(#p3a87b6e6cc)">
     <use xlink:href="#C0_0_7666633bf7" x="250.878345" y="171.859787" style="fill: #33991a"/>
    </g>
    <g clip-path="url(#p3a87b6e6cc)">
     <use xlink:href="#C0_0_7666633bf7" x="254.601681" y="171.188236" style="fill: #33991a"/>
    </g>
    <g clip-path="url(#p3a87b6e6cc)">
     <use xlink:href="#C0_0_7666633bf7" x="258.325016" y="170.253033" style="fill: #33991a"/>
    </g>
    <g clip-path="url(#p3a87b6e6cc)">
     <use xlink:href="#C0_0_7666633bf7" x="262.048352" y="169.012778" style="fill: #33991a"/>
    </g>
    <g clip-path="url(#p3a87b6e6cc)">
     <use xlink:href="#C0_0_7666633bf7" x="265.771687" y="167.428321" style="fill: #33991a"/>
    </g>
    <g clip-path="url(#p3a87b6e6cc)">
     <use xlink:href="#C0_0_7666633bf7" x="269.495023" y="165.463831" style="fill: #33991a"/>
    </g>
    <g clip-path="url(#p3a87b6e6cc)">
     <use xlink:href="#C0_0_7666633bf7" x="273.218358" y="163.088157" style="fill: #33991a"/>
    </g>
    <g clip-path="url(#p3a87b6e6cc)">
     <use xlink:href="#C0_0_7666633bf7" x="276.941694" y="160.276481" style="fill: #33991a"/>
    </g>
    <g clip-path="url(#p3a87b6e6cc)">
     <use xlink:href="#C0_0_7666633bf7" x="280.665029" y="157.01228" style="fill: #33991a"/>
    </g>
    <g clip-path="url(#p3a87b6e6cc)">
     <use xlink:href="#C0_0_7666633bf7" x="284.388365" y="153.289587" style="fill: #33991a"/>
    </g>
    <g clip-path="url(#p3a87b6e6cc)">
     <use xlink:href="#C0_0_7666633bf7" x="288.1117" y="149.115515" style="fill: #33991a"/>
    </g>
    <g clip-path="url(#p3a87b6e6cc)">
     <use xlink:href="#C0_0_7666633bf7" x="291.835036" y="144.512995" style="fill: #33991a"/>
    </g>
    <g clip-path="url(#p3a87b6e6cc)">
     <use xlink:href="#C0_0_7666633bf7" x="295.558371" y="139.523648" style="fill: #33991a"/>
    </g>
    <g clip-path="url(#p3a87b6e6cc)">
     <use xlink:href="#C0_0_7666633bf7" x="299.281707" y="134.210666" style="fill: #33991a"/>
    </g>
    <g clip-path="url(#p3a87b6e6cc)">
     <use xlink:href="#C0_0_7666633bf7" x="303.005042" y="128.661552" style="fill: #33991a"/>
    </g>
    <g clip-path="url(#p3a87b6e6cc)">
     <use xlink:href="#C0_0_7666633bf7" x="306.728378" y="122.990522" style="fill: #33991a"/>
    </g>
    <g clip-path="url(#p3a87b6e6cc)">
     <use xlink:href="#C0_0_7666633bf7" x="310.451713" y="117.340315" style="fill: #33991a"/>
    </g>
    <g clip-path="url(#p3a87b6e6cc)">
     <use xlink:href="#C0_0_7666633bf7" x="314.175048" y="111.883158" style="fill: #33991a"/>
    </g>
    <g clip-path="url(#p3a87b6e6cc)">
     <use xlink:href="#C0_0_7666633bf7" x="317.898384" y="106.820534" style="fill: #33991a"/>
    </g>
    <g clip-path="url(#p3a87b6e6cc)">
     <use xlink:href="#C0_0_7666633bf7" x="321.621719" y="102.381436" style="fill: #33991a"/>
    </g>
    <g clip-path="url(#p3a87b6e6cc)">
     <use xlink:href="#C0_0_7666633bf7" x="325.345055" y="98.818745" style="fill: #33991a"/>
    </g>
    <g clip-path="url(#p3a87b6e6cc)">
     <use xlink:href="#C0_0_7666633bf7" x="329.06839" y="96.403392" style="fill: #33991a"/>
    </g>
    <g clip-path="url(#p3a87b6e6cc)">
     <use xlink:href="#C0_0_7666633bf7" x="332.791726" y="95.416007" style="fill: #33991a"/>
    </g>
    <g clip-path="url(#p3a87b6e6cc)">
     <use xlink:href="#C0_0_7666633bf7" x="336.515061" y="96.135843" style="fill: #33991a"/>
    </g>
    <g clip-path="url(#p3a87b6e6cc)">
     <use xlink:href="#C0_0_7666633bf7" x="340.238397" y="98.826874" style="fill: #33991a"/>
    </g>
    <g clip-path="url(#p3a87b6e6cc)">
     <use xlink:href="#C0_0_7666633bf7" x="343.961732" y="103.72115" style="fill: #33991a"/>
    </g>
    <g clip-path="url(#p3a87b6e6cc)">
     <use xlink:href="#C0_0_7666633bf7" x="347.685068" y="110.99971" style="fill: #33991a"/>
    </g>
    <g clip-path="url(#p3a87b6e6cc)">
     <use xlink:href="#C0_0_7666633bf7" x="351.408403" y="120.77163" style="fill: #33991a"/>
    </g>
    <g clip-path="url(#p3a87b6e6cc)">
     <use xlink:href="#C0_0_7666633bf7" x="355.131739" y="133.052096" style="fill: #33991a"/>
    </g>
    <g clip-path="url(#p3a87b6e6cc)">
     <use xlink:href="#C0_0_7666633bf7" x="358.855074" y="147.740752" style="fill: #33991a"/>
    </g>
    <g clip-path="url(#p3a87b6e6cc)">
     <use xlink:href="#C0_0_7666633bf7" x="362.57841" y="164.601908" style="fill: #33991a"/>
    </g>
    <g clip-path="url(#p3a87b6e6cc)">
     <use xlink:href="#C0_0_7666633bf7" x="366.301745" y="183.248564" style="fill: #33991a"/>
    </g>
    <g clip-path="url(#p3a87b6e6cc)">
     <use xlink:href="#C0_0_7666633bf7" x="370.025081" y="203.132439" style="fill: #33991a"/>
    </g>
    <g clip-path="url(#p3a87b6e6cc)">
     <use xlink:href="#C0_0_7666633bf7" x="373.748416" y="223.542401" style="fill: #33991a"/>
    </g>
    <g clip-path="url(#p3a87b6e6cc)">
     <use xlink:href="#C0_0_7666633bf7" x="377.471752" y="243.613663" style="fill: #33991a"/>
    </g>
    <g clip-path="url(#p3a87b6e6cc)">
     <use xlink:href="#C0_0_7666633bf7" x="381.195087" y="262.34994" style="fill: #33991a"/>
    </g>
    <g clip-path="url(#p3a87b6e6cc)">
     <use xlink:href="#C0_0_7666633bf7" x="384.918423" y="278.660226" style="fill: #33991a"/>
    </g>
    <g clip-path="url(#p3a87b6e6cc)">
     <use xlink:href="#C0_0_7666633bf7" x="388.641758" y="291.411112" style="fill: #33991a"/>
    </g>
    <g clip-path="url(#p3a87b6e6cc)">
     <use xlink:href="#C0_0_7666633bf7" x="392.365094" y="299.494377" style="fill: #33991a"/>
    </g>
    <g clip-path="url(#p3a87b6e6cc)">
     <use xlink:href="#C0_0_7666633bf7" x="396.088429" y="301.908173" style="fill: #33991a"/>
    </g>
    <g clip-path="url(#p3a87b6e6cc)">
     <use xlink:href="#C0_0_7666633bf7" x="399.811765" y="297.84834" style="fill: #33991a"/>
    </g>
    <g clip-path="url(#p3a87b6e6cc)">
     <use xlink:href="#C0_0_7666633bf7" x="403.5351" y="286.804498" style="fill: #33991a"/>
    </g>
    <g clip-path="url(#p3a87b6e6cc)">
     <use xlink:href="#C0_0_7666633bf7" x="407.258436" y="268.653596" style="fill: #33991a"/>
    </g>
    <g clip-path="url(#p3a87b6e6cc)">
     <use xlink:href="#C0_0_7666633bf7" x="410.981771" y="243.741799" style="fill: #33991a"/>
    </g>
    <g clip-path="url(#p3a87b6e6cc)">
     <use xlink:href="#C0_0_7666633bf7" x="414.705107" y="212.944318" style="fill: #33991a"/>
    </g>
    <g clip-path="url(#p3a87b6e6cc)">
     <use xlink:href="#C0_0_7666633bf7" x="418.428442" y="177.692153" style="fill: #33991a"/>
    </g>
    <g clip-path="url(#p3a87b6e6cc)">
     <use xlink:href="#C0_0_7666633bf7" x="422.151778" y="139.955193" style="fill: #33991a"/>
    </g>
    <g clip-path="url(#p3a87b6e6cc)">
     <use xlink:href="#C0_0_7666633bf7" x="425.875113" y="102.172915" style="fill: #33991a"/>
    </g>
    <g clip-path="url(#p3a87b6e6cc)">
     <use xlink:href="#C0_0_7666633bf7" x="429.598449" y="67.127219" style="fill: #33991a"/>
    </g>
    <g clip-path="url(#p3a87b6e6cc)">
     <use xlink:href="#C0_0_7666633bf7" x="433.321784" y="37.756836" style="fill: #33991a"/>
    </g>
    <g clip-path="url(#p3a87b6e6cc)">
     <use xlink:href="#C0_0_7666633bf7" x="437.04512" y="16.919137" style="fill: #33991a"/>
    </g>
    <g clip-path="url(#p3a87b6e6cc)">
     <use xlink:href="#C0_0_7666633bf7" x="440.768455" y="7.112594" style="fill: #33991a"/>
    </g>
    <g clip-path="url(#p3a87b6e6cc)">
     <use xlink:href="#C0_0_7666633bf7" x="444.491791" y="10.181122" style="fill: #33991a"/>
    </g>
    <g clip-path="url(#p3a87b6e6cc)">
     <use xlink:href="#C0_0_7666633bf7" x="448.215126" y="27.028958" style="fill: #33991a"/>
    </g>
    <g clip-path="url(#p3a87b6e6cc)">
     <use xlink:href="#C0_0_7666633bf7" x="451.938462" y="57.380634" style="fill: #33991a"/>
    </g>
   </g>
   <g id="matplotlib.axis_1">
    <g id="xtick_1">
     <g id="line2d_1">
      <defs>
       <path id="m0c77d2d23d" d="M 0 0 
L 0 3.5 
" style="stroke: #000000; stroke-width: 0.8"/>
      </defs>
      <g>
       <use xlink:href="#m0c77d2d23d" x="8.861538" y="172.78378" style="stroke: #000000; stroke-width: 0.8"/>
      </g>
     </g>
     <g id="text_1">
      <!-- −3 -->
      <g transform="translate(1.490445 187.382218) scale(0.1 -0.1)">
       <defs>
        <path id="DejaVuSans-2212" d="M 678 2272 
L 4684 2272 
L 4684 1741 
L 678 1741 
L 678 2272 
z
" transform="scale(0.015625)"/>
        <path id="DejaVuSans-33" d="M 2597 2516 
Q 3050 2419 3304 2112 
Q 3559 1806 3559 1356 
Q 3559 666 3084 287 
Q 2609 -91 1734 -91 
Q 1441 -91 1130 -33 
Q 819 25 488 141 
L 488 750 
Q 750 597 1062 519 
Q 1375 441 1716 441 
Q 2309 441 2620 675 
Q 2931 909 2931 1356 
Q 2931 1769 2642 2001 
Q 2353 2234 1838 2234 
L 1294 2234 
L 1294 2753 
L 1863 2753 
Q 2328 2753 2575 2939 
Q 2822 3125 2822 3475 
Q 2822 3834 2567 4026 
Q 2313 4219 1838 4219 
Q 1578 4219 1281 4162 
Q 984 4106 628 3988 
L 628 4550 
Q 988 4650 1302 4700 
Q 1616 4750 1894 4750 
Q 2613 4750 3031 4423 
Q 3450 4097 3450 3541 
Q 3450 3153 3228 2886 
Q 3006 2619 2597 2516 
z
" transform="scale(0.015625)"/>
       </defs>
       <use xlink:href="#DejaVuSans-2212"/>
       <use xlink:href="#DejaVuSans-33" transform="translate(83.789062 0)"/>
      </g>
     </g>
    </g>
    <g id="xtick_2">
     <g id="line2d_2">
      <g>
       <use xlink:href="#m0c77d2d23d" x="83.328248" y="172.78378" style="stroke: #000000; stroke-width: 0.8"/>
      </g>
     </g>
     <g id="text_2">
      <!-- −2 -->
      <g transform="translate(75.957154 187.382218) scale(0.1 -0.1)">
       <defs>
        <path id="DejaVuSans-32" d="M 1228 531 
L 3431 531 
L 3431 0 
L 469 0 
L 469 531 
Q 828 903 1448 1529 
Q 2069 2156 2228 2338 
Q 2531 2678 2651 2914 
Q 2772 3150 2772 3378 
Q 2772 3750 2511 3984 
Q 2250 4219 1831 4219 
Q 1534 4219 1204 4116 
Q 875 4013 500 3803 
L 500 4441 
Q 881 4594 1212 4672 
Q 1544 4750 1819 4750 
Q 2544 4750 2975 4387 
Q 3406 4025 3406 3419 
Q 3406 3131 3298 2873 
Q 3191 2616 2906 2266 
Q 2828 2175 2409 1742 
Q 1991 1309 1228 531 
z
" transform="scale(0.015625)"/>
       </defs>
       <use xlink:href="#DejaVuSans-2212"/>
       <use xlink:href="#DejaVuSans-32" transform="translate(83.789062 0)"/>
      </g>
     </g>
    </g>
    <g id="xtick_3">
     <g id="line2d_3">
      <g>
       <use xlink:href="#m0c77d2d23d" x="157.794958" y="172.78378" style="stroke: #000000; stroke-width: 0.8"/>
      </g>
     </g>
     <g id="text_3">
      <!-- −1 -->
      <g transform="translate(150.423864 187.382218) scale(0.1 -0.1)">
       <defs>
        <path id="DejaVuSans-31" d="M 794 531 
L 1825 531 
L 1825 4091 
L 703 3866 
L 703 4441 
L 1819 4666 
L 2450 4666 
L 2450 531 
L 3481 531 
L 3481 0 
L 794 0 
L 794 531 
z
" transform="scale(0.015625)"/>
       </defs>
       <use xlink:href="#DejaVuSans-2212"/>
       <use xlink:href="#DejaVuSans-31" transform="translate(83.789062 0)"/>
      </g>
     </g>
    </g>
    <g id="xtick_4">
     <g id="line2d_4">
      <g>
       <use xlink:href="#m0c77d2d23d" x="232.261668" y="172.78378" style="stroke: #000000; stroke-width: 0.8"/>
      </g>
     </g>
    </g>
    <g id="xtick_5">
     <g id="line2d_5">
      <g>
       <use xlink:href="#m0c77d2d23d" x="306.728378" y="172.78378" style="stroke: #000000; stroke-width: 0.8"/>
      </g>
     </g>
     <g id="text_4">
      <!-- 1 -->
      <g transform="translate(303.547128 187.382218) scale(0.1 -0.1)">
       <use xlink:href="#DejaVuSans-31"/>
      </g>
     </g>
    </g>
    <g id="xtick_6">
     <g id="line2d_6">
      <g>
       <use xlink:href="#m0c77d2d23d" x="381.195087" y="172.78378" style="stroke: #000000; stroke-width: 0.8"/>
      </g>
     </g>
     <g id="text_5">
      <!-- 2 -->
      <g transform="translate(378.013837 187.382218) scale(0.1 -0.1)">
       <use xlink:href="#DejaVuSans-32"/>
      </g>
     </g>
    </g>
    <g id="xtick_7">
     <g id="line2d_7">
      <g>
       <use xlink:href="#m0c77d2d23d" x="455.661797" y="172.78378" style="stroke: #000000; stroke-width: 0.8"/>
      </g>
     </g>
     <g id="text_6">
      <!-- 3 -->
      <g transform="translate(452.480547 187.382218) scale(0.1 -0.1)">
       <use xlink:href="#DejaVuSans-33"/>
      </g>
     </g>
    </g>
    <g id="xtick_8">
     <g id="line2d_8">
      <defs>
       <path id="m745e5ff4c0" d="M 0 0 
L 0 2 
" style="stroke: #000000; stroke-width: 0.6"/>
      </defs>
      <g>
       <use xlink:href="#m745e5ff4c0" x="23.75488" y="172.78378" style="stroke: #000000; stroke-width: 0.6"/>
      </g>
     </g>
    </g>
    <g id="xtick_9">
     <g id="line2d_9">
      <g>
       <use xlink:href="#m745e5ff4c0" x="38.648222" y="172.78378" style="stroke: #000000; stroke-width: 0.6"/>
      </g>
     </g>
    </g>
    <g id="xtick_10">
     <g id="line2d_10">
      <g>
       <use xlink:href="#m745e5ff4c0" x="53.541564" y="172.78378" style="stroke: #000000; stroke-width: 0.6"/>
      </g>
     </g>
    </g>
    <g id="xtick_11">
     <g id="line2d_11">
      <g>
       <use xlink:href="#m745e5ff4c0" x="68.434906" y="172.78378" style="stroke: #000000; stroke-width: 0.6"/>
      </g>
     </g>
    </g>
    <g id="xtick_12">
     <g id="line2d_12">
      <g>
       <use xlink:href="#m745e5ff4c0" x="98.22159" y="172.78378" style="stroke: #000000; stroke-width: 0.6"/>
      </g>
     </g>
    </g>
    <g id="xtick_13">
     <g id="line2d_13">
      <g>
       <use xlink:href="#m745e5ff4c0" x="113.114932" y="172.78378" style="stroke: #000000; stroke-width: 0.6"/>
      </g>
     </g>
    </g>
    <g id="xtick_14">
     <g id="line2d_14">
      <g>
       <use xlink:href="#m745e5ff4c0" x="128.008274" y="172.78378" style="stroke: #000000; stroke-width: 0.6"/>
      </g>
     </g>
    </g>
    <g id="xtick_15">
     <g id="line2d_15">
      <g>
       <use xlink:href="#m745e5ff4c0" x="142.901616" y="172.78378" style="stroke: #000000; stroke-width: 0.6"/>
      </g>
     </g>
    </g>
    <g id="xtick_16">
     <g id="line2d_16">
      <g>
       <use xlink:href="#m745e5ff4c0" x="172.6883" y="172.78378" style="stroke: #000000; stroke-width: 0.6"/>
      </g>
     </g>
    </g>
    <g id="xtick_17">
     <g id="line2d_17">
      <g>
       <use xlink:href="#m745e5ff4c0" x="187.581642" y="172.78378" style="stroke: #000000; stroke-width: 0.6"/>
      </g>
     </g>
    </g>
    <g id="xtick_18">
     <g id="line2d_18">
      <g>
       <use xlink:href="#m745e5ff4c0" x="202.474984" y="172.78378" style="stroke: #000000; stroke-width: 0.6"/>
      </g>
     </g>
    </g>
    <g id="xtick_19">
     <g id="line2d_19">
      <g>
       <use xlink:href="#m745e5ff4c0" x="217.368326" y="172.78378" style="stroke: #000000; stroke-width: 0.6"/>
      </g>
     </g>
    </g>
    <g id="xtick_20">
     <g id="line2d_20">
      <g>
       <use xlink:href="#m745e5ff4c0" x="247.15501" y="172.78378" style="stroke: #000000; stroke-width: 0.6"/>
      </g>
     </g>
    </g>
    <g id="xtick_21">
     <g id="line2d_21">
      <g>
       <use xlink:href="#m745e5ff4c0" x="262.048352" y="172.78378" style="stroke: #000000; stroke-width: 0.6"/>
      </g>
     </g>
    </g>
    <g id="xtick_22">
     <g id="line2d_22">
      <g>
       <use xlink:href="#m745e5ff4c0" x="276.941694" y="172.78378" style="stroke: #000000; stroke-width: 0.6"/>
      </g>
     </g>
    </g>
    <g id="xtick_23">
     <g id="line2d_23">
      <g>
       <use xlink:href="#m745e5ff4c0" x="291.835036" y="172.78378" style="stroke: #000000; stroke-width: 0.6"/>
      </g>
     </g>
    </g>
    <g id="xtick_24">
     <g id="line2d_24">
      <g>
       <use xlink:href="#m745e5ff4c0" x="321.621719" y="172.78378" style="stroke: #000000; stroke-width: 0.6"/>
      </g>
     </g>
    </g>
    <g id="xtick_25">
     <g id="line2d_25">
      <g>
       <use xlink:href="#m745e5ff4c0" x="336.515061" y="172.78378" style="stroke: #000000; stroke-width: 0.6"/>
      </g>
     </g>
    </g>
    <g id="xtick_26">
     <g id="line2d_26">
      <g>
       <use xlink:href="#m745e5ff4c0" x="351.408403" y="172.78378" style="stroke: #000000; stroke-width: 0.6"/>
      </g>
     </g>
    </g>
    <g id="xtick_27">
     <g id="line2d_27">
      <g>
       <use xlink:href="#m745e5ff4c0" x="366.301745" y="172.78378" style="stroke: #000000; stroke-width: 0.6"/>
      </g>
     </g>
    </g>
    <g id="xtick_28">
     <g id="line2d_28">
      <g>
       <use xlink:href="#m745e5ff4c0" x="396.088429" y="172.78378" style="stroke: #000000; stroke-width: 0.6"/>
      </g>
     </g>
    </g>
    <g id="xtick_29">
     <g id="line2d_29">
      <g>
       <use xlink:href="#m745e5ff4c0" x="410.981771" y="172.78378" style="stroke: #000000; stroke-width: 0.6"/>
      </g>
     </g>
    </g>
    <g id="xtick_30">
     <g id="line2d_30">
      <g>
       <use xlink:href="#m745e5ff4c0" x="425.875113" y="172.78378" style="stroke: #000000; stroke-width: 0.6"/>
      </g>
     </g>
    </g>
    <g id="xtick_31">
     <g id="line2d_31">
      <g>
       <use xlink:href="#m745e5ff4c0" x="440.768455" y="172.78378" style="stroke: #000000; stroke-width: 0.6"/>
      </g>
     </g>
    </g>
   </g>
   <g id="matplotlib.axis_2">
    <g id="ytick_1">
     <g id="line2d_32">
      <defs>
       <path id="m4b13441c7b" d="M 0 0 
L -3.5 0 
" style="stroke: #000000; stroke-width: 0.8"/>
      </defs>
      <g>
       <use xlink:href="#m4b13441c7b" x="232.261668" y="291.131909" style="stroke: #000000; stroke-width: 0.8"/>
      </g>
     </g>
     <g id="text_7">
      <!-- −2 -->
      <g transform="translate(210.51948 294.931128) scale(0.1 -0.1)">
       <use xlink:href="#DejaVuSans-2212"/>
       <use xlink:href="#DejaVuSans-32" transform="translate(83.789062 0)"/>
      </g>
     </g>
    </g>
    <g id="ytick_2">
     <g id="line2d_33">
      <g>
       <use xlink:href="#m4b13441c7b" x="232.261668" y="231.957845" style="stroke: #000000; stroke-width: 0.8"/>
      </g>
     </g>
     <g id="text_8">
      <!-- −1 -->
      <g transform="translate(210.51948 235.757064) scale(0.1 -0.1)">
       <use xlink:href="#DejaVuSans-2212"/>
       <use xlink:href="#DejaVuSans-31" transform="translate(83.789062 0)"/>
      </g>
     </g>
    </g>
    <g id="ytick_3">
     <g id="line2d_34">
      <g>
       <use xlink:href="#m4b13441c7b" x="232.261668" y="172.78378" style="stroke: #000000; stroke-width: 0.8"/>
      </g>
     </g>
    </g>
    <g id="ytick_4">
     <g id="line2d_35">
      <g>
       <use xlink:href="#m4b13441c7b" x="232.261668" y="113.609716" style="stroke: #000000; stroke-width: 0.8"/>
      </g>
     </g>
     <g id="text_9">
      <!-- 1 -->
      <g transform="translate(218.899168 117.408934) scale(0.1 -0.1)">
       <use xlink:href="#DejaVuSans-31"/>
      </g>
     </g>
    </g>
    <g id="ytick_5">
     <g id="line2d_36">
      <g>
       <use xlink:href="#m4b13441c7b" x="232.261668" y="54.435651" style="stroke: #000000; stroke-width: 0.8"/>
      </g>
     </g>
     <g id="text_10">
      <!-- 2 -->
      <g transform="translate(218.899168 58.23487) scale(0.1 -0.1)">
       <use xlink:href="#DejaVuSans-32"/>
      </g>
     </g>
    </g>
    <g id="ytick_6">
     <g id="line2d_37">
      <defs>
       <path id="me3755ca45a" d="M 0 0 
L -2 0 
" style="stroke: #000000; stroke-width: 0.6"/>
      </defs>
      <g>
       <use xlink:href="#me3755ca45a" x="232.261668" y="338.471161" style="stroke: #000000; stroke-width: 0.6"/>
      </g>
     </g>
    </g>
    <g id="ytick_7">
     <g id="line2d_38">
      <g>
       <use xlink:href="#me3755ca45a" x="232.261668" y="326.636348" style="stroke: #000000; stroke-width: 0.6"/>
      </g>
     </g>
    </g>
    <g id="ytick_8">
     <g id="line2d_39">
      <g>
       <use xlink:href="#me3755ca45a" x="232.261668" y="314.801535" style="stroke: #000000; stroke-width: 0.6"/>
      </g>
     </g>
    </g>
    <g id="ytick_9">
     <g id="line2d_40">
      <g>
       <use xlink:href="#me3755ca45a" x="232.261668" y="302.966722" style="stroke: #000000; stroke-width: 0.6"/>
      </g>
     </g>
    </g>
    <g id="ytick_10">
     <g id="line2d_41">
      <g>
       <use xlink:href="#me3755ca45a" x="232.261668" y="279.297096" style="stroke: #000000; stroke-width: 0.6"/>
      </g>
     </g>
    </g>
    <g id="ytick_11">
     <g id="line2d_42">
      <g>
       <use xlink:href="#me3755ca45a" x="232.261668" y="267.462284" style="stroke: #000000; stroke-width: 0.6"/>
      </g>
     </g>
    </g>
    <g id="ytick_12">
     <g id="line2d_43">
      <g>
       <use xlink:href="#me3755ca45a" x="232.261668" y="255.627471" style="stroke: #000000; stroke-width: 0.6"/>
      </g>
     </g>
    </g>
    <g id="ytick_13">
     <g id="line2d_44">
      <g>
       <use xlink:href="#me3755ca45a" x="232.261668" y="243.792658" style="stroke: #000000; stroke-width: 0.6"/>
      </g>
     </g>
    </g>
    <g id="ytick_14">
     <g id="line2d_45">
      <g>
       <use xlink:href="#me3755ca45a" x="232.261668" y="220.123032" style="stroke: #000000; stroke-width: 0.6"/>
      </g>
     </g>
    </g>
    <g id="ytick_15">
     <g id="line2d_46">
      <g>
       <use xlink:href="#me3755ca45a" x="232.261668" y="208.288219" style="stroke: #000000; stroke-width: 0.6"/>
      </g>
     </g>
    </g>
    <g id="ytick_16">
     <g id="line2d_47">
      <g>
       <use xlink:href="#me3755ca45a" x="232.261668" y="196.453406" style="stroke: #000000; stroke-width: 0.6"/>
      </g>
     </g>
    </g>
    <g id="ytick_17">
     <g id="line2d_48">
      <g>
       <use xlink:href="#me3755ca45a" x="232.261668" y="184.618593" style="stroke: #000000; stroke-width: 0.6"/>
      </g>
     </g>
    </g>
    <g id="ytick_18">
     <g id="line2d_49">
      <g>
       <use xlink:href="#me3755ca45a" x="232.261668" y="160.948967" style="stroke: #000000; stroke-width: 0.6"/>
      </g>
     </g>
    </g>
    <g id="ytick_19">
     <g id="line2d_50">
      <g>
       <use xlink:href="#me3755ca45a" x="232.261668" y="149.114154" style="stroke: #000000; stroke-width: 0.6"/>
      </g>
     </g>
    </g>
    <g id="ytick_20">
     <g id="line2d_51">
      <g>
       <use xlink:href="#me3755ca45a" x="232.261668" y="137.279341" style="stroke: #000000; stroke-width: 0.6"/>
      </g>
     </g>
    </g>
    <g id="ytick_21">
     <g id="line2d_52">
      <g>
       <use xlink:href="#me3755ca45a" x="232.261668" y="125.444528" style="stroke: #000000; stroke-width: 0.6"/>
      </g>
     </g>
    </g>
    <g id="ytick_22">
     <g id="line2d_53">
      <g>
       <use xlink:href="#me3755ca45a" x="232.261668" y="101.774903" style="stroke: #000000; stroke-width: 0.6"/>
      </g>
     </g>
    </g>
    <g id="ytick_23">
     <g id="line2d_54">
      <g>
       <use xlink:href="#me3755ca45a" x="232.261668" y="89.94009" style="stroke: #000000; stroke-width: 0.6"/>
      </g>
     </g>
    </g>
    <g id="ytick_24">
     <g id="line2d_55">
      <g>
       <use xlink:href="#me3755ca45a" x="232.261668" y="78.105277" style="stroke: #000000; stroke-width: 0.6"/>
      </g>
     </g>
    </g>
    <g id="ytick_25">
     <g id="line2d_56">
      <g>
       <use xlink:href="#me3755ca45a" x="232.261668" y="66.270464" style="stroke: #000000; stroke-width: 0.6"/>
      </g>
     </g>
    </g>
    <g id="ytick_26">
     <g id="line2d_57">
      <g>
       <use xlink:href="#me3755ca45a" x="232.261668" y="42.600838" style="stroke: #000000; stroke-width: 0.6"/>
      </g>
     </g>
    </g>
    <g id="ytick_27">
     <g id="line2d_58">
      <g>
       <use xlink:href="#me3755ca45a" x="232.261668" y="30.766025" style="stroke: #000000; stroke-width: 0.6"/>
      </g>
     </g>
    </g>
    <g id="ytick_28">
     <g id="line2d_59">
      <g>
       <use xlink:href="#me3755ca45a" x="232.261668" y="18.931212" style="stroke: #000000; stroke-width: 0.6"/>
      </g>
     </g>
    </g>
    <g id="ytick_29">
     <g id="line2d_60">
      <g>
       <use xlink:href="#me3755ca45a" x="232.261668" y="7.096399" style="stroke: #000000; stroke-width: 0.6"/>
      </g>
     </g>
    </g>
   </g>
   <g id="line2d_61">
    <path d="M 10.280625 262.835124 
L 12.303464 285.320663 
L 13.855429 300.106575 
L 15.208472 311.001546 
L 16.627596 320.511802 
L 17.84062 327.117383 
L 18.866335 331.584809 
L 19.892051 335.003712 
L 20.575861 336.690505 
L 21.176534 337.782886 
L 21.777208 338.516246 
L 22.377881 338.895487 
L 22.978555 338.925514 
L 23.587887 338.604204 
L 24.264395 337.838917 
L 24.940903 336.653218 
L 25.617411 335.058092 
L 26.632138 331.921902 
L 27.646792 327.926723 
L 28.661447 323.113335 
L 29.820395 316.679172 
L 31.334691 306.891297 
L 33.068607 293.975179 
L 35.145484 276.493195 
L 37.488251 254.743015 
L 41.162028 218.010799 
L 47.331626 155.784099 
L 50.289947 128.440163 
L 52.645624 108.744362 
L 54.66287 93.654458 
L 56.669156 80.462209 
L 58.554856 69.832988 
L 60.099262 62.456299 
L 61.543303 56.664217 
L 62.906918 52.183279 
L 63.874694 49.582503 
L 64.842469 47.460021 
L 65.810245 45.811771 
L 66.558077 44.857581 
L 67.485087 44.0544 
L 68.412098 43.663864 
L 69.339108 43.677149 
L 70.266118 44.082407 
L 71.168198 44.841026 
L 72.115149 46.011047 
L 73.062099 47.550054 
L 74.009049 49.441928 
L 75.371813 52.750179 
L 76.875672 57.148725 
L 78.50774 62.729368 
L 80.386027 70.071966 
L 82.538777 79.518626 
L 84.691526 89.855268 
L 87.69066 105.333022 
L 93.639125 137.74306 
L 98.753156 165.071265 
L 101.675325 179.669775 
L 104.905745 194.540116 
L 107.676046 206.035466 
L 110.072764 214.946658 
L 112.344063 222.457715 
L 114.383527 228.408334 
L 116.413581 233.580381 
L 118.026 237.156829 
L 120.054341 240.998295 
L 121.392072 243.139162 
L 122.715308 244.957748 
L 124.35687 246.812869 
L 125.336815 247.714887 
L 127.267389 249.06125 
L 128.560956 249.657028 
L 130.394181 250.103661 
L 132.227407 250.112608 
L 133.977868 249.742455 
L 136.043895 248.869935 
L 137.668476 247.882277 
L 139.214326 246.719378 
L 141.569781 244.574978 
L 143.607625 242.40376 
L 146.342146 239.109132 
L 149.83595 234.409327 
L 153.786607 228.65419 
L 168.200332 207.111116 
L 172.284678 201.57768 
L 176.030391 196.904175 
L 179.201569 193.282607 
L 181.985843 190.370255 
L 185.67208 186.908018 
L 188.12287 184.854554 
L 191.727456 182.188311 
L 194.554718 180.382499 
L 198.219756 178.395827 
L 200.93332 177.166952 
L 204.536109 175.828133 
L 207.704665 174.901729 
L 211.044648 174.150947 
L 214.809675 173.545091 
L 220.136572 173.039197 
L 226.323381 172.813787 
L 241.826265 172.658401 
L 247.690467 172.257632 
L 250.967221 171.846502 
L 254.296694 171.252585 
L 257.704268 170.429041 
L 260.713858 169.494892 
L 264.473419 168.022196 
L 267.437462 166.59838 
L 271.494051 164.241201 
L 274.893461 161.878337 
L 278.313096 159.127376 
L 281.637194 156.084451 
L 283.982898 153.717132 
L 286.842248 150.588257 
L 290.475496 146.240983 
L 294.427413 141.076689 
L 299.532144 133.8437 
L 306.789005 122.897924 
L 313.675273 112.597438 
L 317.412351 107.451149 
L 320.527472 103.606782 
L 323.119371 100.828107 
L 325.468269 98.71893 
L 326.88929 97.66178 
L 328.907155 96.480439 
L 330.925019 95.71494 
L 332.606206 95.427066 
L 334.031647 95.452684 
L 335.713396 95.823024 
L 337.395145 96.584798 
L 338.577825 97.367472 
L 339.997272 98.588153 
L 341.416719 100.127791 
L 343.132228 102.429832 
L 344.847737 105.231675 
L 346.418079 108.246968 
L 348.135531 112.048167 
L 350.174884 117.255167 
L 351.918876 122.307941 
L 353.672552 127.944325 
L 356.022223 136.35267 
L 358.326068 145.514452 
L 360.694636 155.820508 
L 363.525243 169.193554 
L 366.618449 184.900685 
L 369.697281 201.349342 
L 377.815568 245.415834 
L 381.336676 263.021659 
L 383.4241 272.478082 
L 385.63274 281.417243 
L 387.183341 286.912791 
L 388.579846 291.234283 
L 389.822252 294.529511 
L 391.09063 297.318189 
L 392.150868 299.174182 
L 392.976994 300.304487 
L 393.859453 301.194228 
L 394.798243 301.768572 
L 395.594924 301.945409 
L 396.249495 301.871315 
L 396.904066 301.595039 
L 397.558636 301.113609 
L 398.408462 300.177804 
L 399.453542 298.53704 
L 400.500878 296.340006 
L 401.55047 293.576744 
L 402.5853 290.299002 
L 404.115405 284.439761 
L 405.645509 277.37712 
L 407.308841 268.360125 
L 408.923971 258.304797 
L 410.968221 243.843831 
L 412.919743 228.367428 
L 415.419098 206.475614 
L 417.739152 184.470761 
L 421.300843 148.677652 
L 427.161628 89.606454 
L 429.898081 64.514405 
L 432.138712 46.29531 
L 433.760657 34.805289 
L 435.089842 26.637145 
L 436.367979 19.956989 
L 437.646116 14.529142 
L 438.591406 11.376175 
L 439.411806 9.264742 
L 440.169761 7.851493 
L 440.927717 6.973387 
L 441.410587 6.699552 
L 441.893457 6.648378 
L 442.376327 6.819521 
L 442.859197 7.212635 
L 443.583502 8.217745 
L 444.307807 9.720346 
L 445.028068 11.70874 
L 445.977633 15.116299 
L 446.905167 19.364421 
L 447.981971 25.515871 
L 449.174821 33.908913 
L 450.445035 44.254175 
L 450.445035 44.254175 
" clip-path="url(#p3a87b6e6cc)" style="fill: none; stroke: #0000ff; stroke-linecap: square"/>
   </g>
   <g id="patch_3">
    <path d="M 232.261668 345.6 
L 232.261668 0 
" style="fill: none; stroke: #000000; stroke-width: 0.8; stroke-linejoin: miter; stroke-linecap: square"/>
   </g>
   <g id="patch_4">
    <path d="M 0 172.78378 
L 460.8 172.78378 
" style="fill: none; stroke: #000000; stroke-width: 0.8; stroke-linejoin: miter; stroke-linecap: square"/>
   </g>
  </g>
 </g>
 <defs>
  <clipPath id="p3a87b6e6cc">
   <rect x="0" y="0" width="460.8" height="345.6"/>
  </clipPath>
 </defs>
</svg>
