<?xml version="1.0" encoding="utf-8" standalone="no"?>
<!DOCTYPE svg PUBLIC "-//W3C//DTD SVG 1.1//EN"
  "http://www.w3.org/Graphics/SVG/1.1/DTD/svg11.dtd">
<svg xmlns:xlink="http://www.w3.org/1999/xlink" width="460.8pt" height="345.6pt" viewBox="0 0 460.8 345.6" xmlns="http://www.w3.org/2000/svg" version="1.1">
 <metadata>
  <rdf:RDF xmlns:dc="http://purl.org/dc/elements/1.1/" xmlns:cc="http://creativecommons.org/ns#" xmlns:rdf="http://www.w3.org/1999/02/22-rdf-syntax-ns#">
   <cc:Work>
    <dc:type rdf:resource="http://purl.org/dc/dcmitype/StillImage"/>
    <dc:date>2025-08-03T19:01:02.849767</dc:date>
    <dc:format>image/svg+xml</dc:format>
    <dc:creator>
     <cc:Agent>
      <dc:title>Matplotlib v3.10.3, https://matplotlib.org/</dc:title>
     </cc:Agent>
    </dc:creator>
   </cc:Work>
  </rdf:RDF>
 </metadata>
 <defs>
  <style type="text/css">*{stroke-linejoin: round; stroke-linecap: butt}</style>
 </defs>
 <g id="figure_1">
  <g id="patch_1">
   <path d="M 0 345.6 
L 460.8 345.6 
L 460.8 0 
L 0 0 
z
" style="fill: #ffffff"/>
  </g>
  <g id="axes_1">
   <g id="patch_2">
    <path d="M 3.826531 345.6 
L 460.8 345.6 
L 460.8 0 
L 3.826531 0 
z
" style="fill: #ffffff"/>
   </g>
   <g id="matplotlib.axis_1">
    <g id="xtick_1">
     <g id="line2d_1">
      <defs>
       <path id="mdd917e158c" d="M 0 0 
L 0 3.5 
" style="stroke: #000000; stroke-width: 0.8"/>
      </defs>
      <g>
       <use xlink:href="#mdd917e158c" x="12.614482" y="172.799999" style="stroke: #000000; stroke-width: 0.8"/>
      </g>
     </g>
     <g id="text_1">
      <!-- −1.0 -->
      <g transform="translate(0.473076 187.398437) scale(0.1 -0.1)">
       <defs>
        <path id="DejaVuSans-2212" d="M 678 2272 
L 4684 2272 
L 4684 1741 
L 678 1741 
L 678 2272 
z
" transform="scale(0.015625)"/>
        <path id="DejaVuSans-31" d="M 794 531 
L 1825 531 
L 1825 4091 
L 703 3866 
L 703 4441 
L 1819 4666 
L 2450 4666 
L 2450 531 
L 3481 531 
L 3481 0 
L 794 0 
L 794 531 
z
" transform="scale(0.015625)"/>
        <path id="DejaVuSans-2e" d="M 684 794 
L 1344 794 
L 1344 0 
L 684 0 
L 684 794 
z
" transform="scale(0.015625)"/>
        <path id="DejaVuSans-30" d="M 2034 4250 
Q 1547 4250 1301 3770 
Q 1056 3291 1056 2328 
Q 1056 1369 1301 889 
Q 1547 409 2034 409 
Q 2525 409 2770 889 
Q 3016 1369 3016 2328 
Q 3016 3291 2770 3770 
Q 2525 4250 2034 4250 
z
M 2034 4750 
Q 2819 4750 3233 4129 
Q 3647 3509 3647 2328 
Q 3647 1150 3233 529 
Q 2819 -91 2034 -91 
Q 1250 -91 836 529 
Q 422 1150 422 2328 
Q 422 3509 836 4129 
Q 1250 4750 2034 4750 
z
" transform="scale(0.015625)"/>
       </defs>
       <use xlink:href="#DejaVuSans-2212"/>
       <use xlink:href="#DejaVuSans-31" transform="translate(83.789062 0)"/>
       <use xlink:href="#DejaVuSans-2e" transform="translate(147.412109 0)"/>
       <use xlink:href="#DejaVuSans-30" transform="translate(179.199219 0)"/>
      </g>
     </g>
    </g>
    <g id="xtick_2">
     <g id="line2d_2">
      <g>
       <use xlink:href="#mdd917e158c" x="122.463874" y="172.799999" style="stroke: #000000; stroke-width: 0.8"/>
      </g>
     </g>
     <g id="text_2">
      <!-- −0.5 -->
      <g transform="translate(110.322468 187.398437) scale(0.1 -0.1)">
       <defs>
        <path id="DejaVuSans-35" d="M 691 4666 
L 3169 4666 
L 3169 4134 
L 1269 4134 
L 1269 2991 
Q 1406 3038 1543 3061 
Q 1681 3084 1819 3084 
Q 2600 3084 3056 2656 
Q 3513 2228 3513 1497 
Q 3513 744 3044 326 
Q 2575 -91 1722 -91 
Q 1428 -91 1123 -41 
Q 819 9 494 109 
L 494 744 
Q 775 591 1075 516 
Q 1375 441 1709 441 
Q 2250 441 2565 725 
Q 2881 1009 2881 1497 
Q 2881 1984 2565 2268 
Q 2250 2553 1709 2553 
Q 1456 2553 1204 2497 
Q 953 2441 691 2322 
L 691 4666 
z
" transform="scale(0.015625)"/>
       </defs>
       <use xlink:href="#DejaVuSans-2212"/>
       <use xlink:href="#DejaVuSans-30" transform="translate(83.789062 0)"/>
       <use xlink:href="#DejaVuSans-2e" transform="translate(147.412109 0)"/>
       <use xlink:href="#DejaVuSans-35" transform="translate(179.199219 0)"/>
      </g>
     </g>
    </g>
    <g id="xtick_3">
     <g id="line2d_3">
      <g>
       <use xlink:href="#mdd917e158c" x="232.313266" y="172.799999" style="stroke: #000000; stroke-width: 0.8"/>
      </g>
     </g>
    </g>
    <g id="xtick_4">
     <g id="line2d_4">
      <g>
       <use xlink:href="#mdd917e158c" x="342.162657" y="172.799999" style="stroke: #000000; stroke-width: 0.8"/>
      </g>
     </g>
     <g id="text_3">
      <!-- 0.5 -->
      <g transform="translate(334.211095 187.398437) scale(0.1 -0.1)">
       <use xlink:href="#DejaVuSans-30"/>
       <use xlink:href="#DejaVuSans-2e" transform="translate(63.623047 0)"/>
       <use xlink:href="#DejaVuSans-35" transform="translate(95.410156 0)"/>
      </g>
     </g>
    </g>
    <g id="xtick_5">
     <g id="line2d_5">
      <g>
       <use xlink:href="#mdd917e158c" x="452.012049" y="172.799999" style="stroke: #000000; stroke-width: 0.8"/>
      </g>
     </g>
     <g id="text_4">
      <!-- 1.0 -->
      <g transform="translate(444.060486 187.398437) scale(0.1 -0.1)">
       <use xlink:href="#DejaVuSans-31"/>
       <use xlink:href="#DejaVuSans-2e" transform="translate(63.623047 0)"/>
       <use xlink:href="#DejaVuSans-30" transform="translate(95.410156 0)"/>
      </g>
     </g>
    </g>
    <g id="xtick_6">
     <g id="line2d_6">
      <defs>
       <path id="m8d8b64fe0c" d="M 0 0 
L 0 2 
" style="stroke: #000000; stroke-width: 0.6"/>
      </defs>
      <g>
       <use xlink:href="#m8d8b64fe0c" x="34.584361" y="172.799999" style="stroke: #000000; stroke-width: 0.6"/>
      </g>
     </g>
    </g>
    <g id="xtick_7">
     <g id="line2d_7">
      <g>
       <use xlink:href="#m8d8b64fe0c" x="56.554239" y="172.799999" style="stroke: #000000; stroke-width: 0.6"/>
      </g>
     </g>
    </g>
    <g id="xtick_8">
     <g id="line2d_8">
      <g>
       <use xlink:href="#m8d8b64fe0c" x="78.524117" y="172.799999" style="stroke: #000000; stroke-width: 0.6"/>
      </g>
     </g>
    </g>
    <g id="xtick_9">
     <g id="line2d_9">
      <g>
       <use xlink:href="#m8d8b64fe0c" x="100.493996" y="172.799999" style="stroke: #000000; stroke-width: 0.6"/>
      </g>
     </g>
    </g>
    <g id="xtick_10">
     <g id="line2d_10">
      <g>
       <use xlink:href="#m8d8b64fe0c" x="144.433752" y="172.799999" style="stroke: #000000; stroke-width: 0.6"/>
      </g>
     </g>
    </g>
    <g id="xtick_11">
     <g id="line2d_11">
      <g>
       <use xlink:href="#m8d8b64fe0c" x="166.403631" y="172.799999" style="stroke: #000000; stroke-width: 0.6"/>
      </g>
     </g>
    </g>
    <g id="xtick_12">
     <g id="line2d_12">
      <g>
       <use xlink:href="#m8d8b64fe0c" x="188.373509" y="172.799999" style="stroke: #000000; stroke-width: 0.6"/>
      </g>
     </g>
    </g>
    <g id="xtick_13">
     <g id="line2d_13">
      <g>
       <use xlink:href="#m8d8b64fe0c" x="210.343387" y="172.799999" style="stroke: #000000; stroke-width: 0.6"/>
      </g>
     </g>
    </g>
    <g id="xtick_14">
     <g id="line2d_14">
      <g>
       <use xlink:href="#m8d8b64fe0c" x="254.283144" y="172.799999" style="stroke: #000000; stroke-width: 0.6"/>
      </g>
     </g>
    </g>
    <g id="xtick_15">
     <g id="line2d_15">
      <g>
       <use xlink:href="#m8d8b64fe0c" x="276.253022" y="172.799999" style="stroke: #000000; stroke-width: 0.6"/>
      </g>
     </g>
    </g>
    <g id="xtick_16">
     <g id="line2d_16">
      <g>
       <use xlink:href="#m8d8b64fe0c" x="298.2229" y="172.799999" style="stroke: #000000; stroke-width: 0.6"/>
      </g>
     </g>
    </g>
    <g id="xtick_17">
     <g id="line2d_17">
      <g>
       <use xlink:href="#m8d8b64fe0c" x="320.192779" y="172.799999" style="stroke: #000000; stroke-width: 0.6"/>
      </g>
     </g>
    </g>
    <g id="xtick_18">
     <g id="line2d_18">
      <g>
       <use xlink:href="#m8d8b64fe0c" x="364.132535" y="172.799999" style="stroke: #000000; stroke-width: 0.6"/>
      </g>
     </g>
    </g>
    <g id="xtick_19">
     <g id="line2d_19">
      <g>
       <use xlink:href="#m8d8b64fe0c" x="386.102414" y="172.799999" style="stroke: #000000; stroke-width: 0.6"/>
      </g>
     </g>
    </g>
    <g id="xtick_20">
     <g id="line2d_20">
      <g>
       <use xlink:href="#m8d8b64fe0c" x="408.072292" y="172.799999" style="stroke: #000000; stroke-width: 0.6"/>
      </g>
     </g>
    </g>
    <g id="xtick_21">
     <g id="line2d_21">
      <g>
       <use xlink:href="#m8d8b64fe0c" x="430.04217" y="172.799999" style="stroke: #000000; stroke-width: 0.6"/>
      </g>
     </g>
    </g>
   </g>
   <g id="matplotlib.axis_2">
    <g id="ytick_1">
     <g id="line2d_22">
      <defs>
       <path id="m6445600ab5" d="M 0 0 
L -3.5 0 
" style="stroke: #000000; stroke-width: 0.8"/>
      </defs>
      <g>
       <use xlink:href="#m6445600ab5" x="232.313266" y="338.953864" style="stroke: #000000; stroke-width: 0.8"/>
      </g>
     </g>
     <g id="text_5">
      <!-- −1.0 -->
      <g transform="translate(201.030453 342.753083) scale(0.1 -0.1)">
       <use xlink:href="#DejaVuSans-2212"/>
       <use xlink:href="#DejaVuSans-31" transform="translate(83.789062 0)"/>
       <use xlink:href="#DejaVuSans-2e" transform="translate(147.412109 0)"/>
       <use xlink:href="#DejaVuSans-30" transform="translate(179.199219 0)"/>
      </g>
     </g>
    </g>
    <g id="ytick_2">
     <g id="line2d_23">
      <g>
       <use xlink:href="#m6445600ab5" x="232.313266" y="255.876932" style="stroke: #000000; stroke-width: 0.8"/>
      </g>
     </g>
     <g id="text_6">
      <!-- −0.5 -->
      <g transform="translate(201.030453 259.676151) scale(0.1 -0.1)">
       <use xlink:href="#DejaVuSans-2212"/>
       <use xlink:href="#DejaVuSans-30" transform="translate(83.789062 0)"/>
       <use xlink:href="#DejaVuSans-2e" transform="translate(147.412109 0)"/>
       <use xlink:href="#DejaVuSans-35" transform="translate(179.199219 0)"/>
      </g>
     </g>
    </g>
    <g id="ytick_3">
     <g id="line2d_24">
      <g>
       <use xlink:href="#m6445600ab5" x="232.313266" y="172.799999" style="stroke: #000000; stroke-width: 0.8"/>
      </g>
     </g>
    </g>
    <g id="ytick_4">
     <g id="line2d_25">
      <g>
       <use xlink:href="#m6445600ab5" x="232.313266" y="89.723067" style="stroke: #000000; stroke-width: 0.8"/>
      </g>
     </g>
     <g id="text_7">
      <!-- 0.5 -->
      <g transform="translate(209.410141 93.522285) scale(0.1 -0.1)">
       <use xlink:href="#DejaVuSans-30"/>
       <use xlink:href="#DejaVuSans-2e" transform="translate(63.623047 0)"/>
       <use xlink:href="#DejaVuSans-35" transform="translate(95.410156 0)"/>
      </g>
     </g>
    </g>
    <g id="ytick_5">
     <g id="line2d_26">
      <g>
       <use xlink:href="#m6445600ab5" x="232.313266" y="6.646134" style="stroke: #000000; stroke-width: 0.8"/>
      </g>
     </g>
     <g id="text_8">
      <!-- 1.0 -->
      <g transform="translate(209.410141 10.445353) scale(0.1 -0.1)">
       <use xlink:href="#DejaVuSans-31"/>
       <use xlink:href="#DejaVuSans-2e" transform="translate(63.623047 0)"/>
       <use xlink:href="#DejaVuSans-30" transform="translate(95.410156 0)"/>
      </g>
     </g>
    </g>
    <g id="ytick_6">
     <g id="line2d_27">
      <defs>
       <path id="m143a80733c" d="M 0 0 
L -2 0 
" style="stroke: #000000; stroke-width: 0.6"/>
      </defs>
      <g>
       <use xlink:href="#m143a80733c" x="232.313266" y="322.338478" style="stroke: #000000; stroke-width: 0.6"/>
      </g>
     </g>
    </g>
    <g id="ytick_7">
     <g id="line2d_28">
      <g>
       <use xlink:href="#m143a80733c" x="232.313266" y="305.723091" style="stroke: #000000; stroke-width: 0.6"/>
      </g>
     </g>
    </g>
    <g id="ytick_8">
     <g id="line2d_29">
      <g>
       <use xlink:href="#m143a80733c" x="232.313266" y="289.107705" style="stroke: #000000; stroke-width: 0.6"/>
      </g>
     </g>
    </g>
    <g id="ytick_9">
     <g id="line2d_30">
      <g>
       <use xlink:href="#m143a80733c" x="232.313266" y="272.492318" style="stroke: #000000; stroke-width: 0.6"/>
      </g>
     </g>
    </g>
    <g id="ytick_10">
     <g id="line2d_31">
      <g>
       <use xlink:href="#m143a80733c" x="232.313266" y="239.261545" style="stroke: #000000; stroke-width: 0.6"/>
      </g>
     </g>
    </g>
    <g id="ytick_11">
     <g id="line2d_32">
      <g>
       <use xlink:href="#m143a80733c" x="232.313266" y="222.646159" style="stroke: #000000; stroke-width: 0.6"/>
      </g>
     </g>
    </g>
    <g id="ytick_12">
     <g id="line2d_33">
      <g>
       <use xlink:href="#m143a80733c" x="232.313266" y="206.030772" style="stroke: #000000; stroke-width: 0.6"/>
      </g>
     </g>
    </g>
    <g id="ytick_13">
     <g id="line2d_34">
      <g>
       <use xlink:href="#m143a80733c" x="232.313266" y="189.415386" style="stroke: #000000; stroke-width: 0.6"/>
      </g>
     </g>
    </g>
    <g id="ytick_14">
     <g id="line2d_35">
      <g>
       <use xlink:href="#m143a80733c" x="232.313266" y="156.184613" style="stroke: #000000; stroke-width: 0.6"/>
      </g>
     </g>
    </g>
    <g id="ytick_15">
     <g id="line2d_36">
      <g>
       <use xlink:href="#m143a80733c" x="232.313266" y="139.569226" style="stroke: #000000; stroke-width: 0.6"/>
      </g>
     </g>
    </g>
    <g id="ytick_16">
     <g id="line2d_37">
      <g>
       <use xlink:href="#m143a80733c" x="232.313266" y="122.95384" style="stroke: #000000; stroke-width: 0.6"/>
      </g>
     </g>
    </g>
    <g id="ytick_17">
     <g id="line2d_38">
      <g>
       <use xlink:href="#m143a80733c" x="232.313266" y="106.338453" style="stroke: #000000; stroke-width: 0.6"/>
      </g>
     </g>
    </g>
    <g id="ytick_18">
     <g id="line2d_39">
      <g>
       <use xlink:href="#m143a80733c" x="232.313266" y="73.10768" style="stroke: #000000; stroke-width: 0.6"/>
      </g>
     </g>
    </g>
    <g id="ytick_19">
     <g id="line2d_40">
      <g>
       <use xlink:href="#m143a80733c" x="232.313266" y="56.492294" style="stroke: #000000; stroke-width: 0.6"/>
      </g>
     </g>
    </g>
    <g id="ytick_20">
     <g id="line2d_41">
      <g>
       <use xlink:href="#m143a80733c" x="232.313266" y="39.876907" style="stroke: #000000; stroke-width: 0.6"/>
      </g>
     </g>
    </g>
    <g id="ytick_21">
     <g id="line2d_42">
      <g>
       <use xlink:href="#m143a80733c" x="232.313266" y="23.26152" style="stroke: #000000; stroke-width: 0.6"/>
      </g>
     </g>
    </g>
   </g>
   <g id="line2d_43">
    <path d="M 12.614482 312.613656 
L 55.877484 330.22445 
L 62.996625 332.790066 
L 69.774031 334.980611 
L 73.730871 336.106286 
L 80.172411 337.62102 
L 85.074492 338.439963 
L 89.111616 338.842562 
L 92.490371 338.953846 
L 95.700541 338.837732 
L 98.434971 338.544191 
L 101.284892 338.022508 
L 104.463709 337.146762 
L 107.591343 335.941395 
L 110.842992 334.275449 
L 113.342241 332.671733 
L 115.489224 331.044072 
L 118.118971 328.702636 
L 120.037279 326.730031 
L 122.450461 323.900161 
L 125.080546 320.330235 
L 126.886806 317.556976 
L 129.505434 313.025824 
L 131.337265 309.466047 
L 133.391161 305.059248 
L 135.19688 300.794636 
L 137.092169 295.896053 
L 139.589751 288.727229 
L 141.920929 281.242024 
L 143.920226 274.16123 
L 146.172634 265.396977 
L 148.548302 255.184343 
L 150.764126 244.700903 
L 153.143538 232.350157 
L 155.775482 217.299519 
L 158.401482 200.770553 
L 161.092412 182.238947 
L 163.901786 161.205425 
L 167.203796 134.48305 
L 170.697432 104.438242 
L 176.622716 53.215665 
L 178.777469 36.480659 
L 180.420057 25.324107 
L 181.631685 18.345482 
L 182.700963 13.305427 
L 183.727868 9.651256 
L 184.412472 7.960222 
L 184.925924 7.127718 
L 185.398572 6.718167 
L 185.850817 6.667761 
L 186.152315 6.829763 
L 186.60456 7.381356 
L 187.056806 8.321771 
L 187.685448 10.314493 
L 188.391037 13.565385 
L 189.096625 17.966809 
L 189.978611 25.206895 
L 190.853524 34.431516 
L 191.826184 47.229817 
L 192.839903 63.561154 
L 194.024293 86.624116 
L 195.294019 116.065475 
L 196.84093 157.922494 
L 198.781229 216.913723 
L 201.166853 288.532052 
L 202.233184 314.434134 
L 203.042106 328.974675 
L 203.581388 335.3909 
L 204.030789 338.340323 
L 204.30043 338.943459 
L 204.48019 338.824516 
L 204.659951 338.269812 
L 204.929592 336.586675 
L 205.327012 332.150445 
L 205.803916 323.576831 
L 206.360304 308.8651 
L 206.996176 285.678666 
L 207.782504 247.859957 
L 208.7665 188.471734 
L 211.192609 35.059736 
L 211.743712 14.811143 
L 212.109022 7.874682 
L 212.33734 6.646697 
L 212.428668 6.880474 
L 212.611323 8.652157 
L 212.885305 14.708986 
L 213.231964 28.464372 
L 213.668027 55.562186 
L 214.249445 107.48416 
L 215.194248 216.676128 
L 216.076981 309.384255 
L 216.486844 333.564434 
L 216.714545 338.722695 
L 216.760085 338.942846 
L 216.805626 338.879274 
L 216.896706 337.881703 
L 217.053986 333.345908 
L 217.277466 320.593921 
L 217.612685 287.634655 
L 218.171385 201.341469 
L 219.177043 31.507461 
L 219.512262 7.765402 
L 219.624002 6.747861 
L 219.735742 9.599017 
L 219.959222 27.369713 
L 220.294441 83.138188 
L 221.523774 338.673905 
L 221.571672 338.864829 
L 221.667468 335.064886 
L 221.859059 310.400516 
L 222.156246 231.472815 
L 222.895416 11.175544 
L 223.001012 6.723386 
L 223.106608 14.120701 
L 223.317799 64.563106 
L 224.05697 338.22518 
L 224.162565 333.745172 
L 224.373757 266.99419 
L 224.901736 10.034209 
L 225.007332 10.876903 
L 225.218523 100.602807 
L 225.66373 338.720613 
L 225.780737 305.595004 
L 226.248767 7.455049 
L 226.307271 23.303025 
L 226.482782 169.800137 
L 226.716797 338.939328 
L 226.775301 325.741638 
L 226.950812 151.40602 
L 227.126323 6.900833 
L 227.184827 21.620457 
L 227.504318 337.501371 
L 227.554939 308.189004 
L 227.808043 7.06087 
L 227.858664 38.038467 
L 228.061147 336.609102 
L 228.111768 322.099584 
L 228.314252 6.77659 
L 228.364873 42.021331 
L 228.516735 333.740957 
L 228.567356 316.086717 
L 228.719219 8.103148 
L 228.76984 50.184094 
L 228.921702 327.384185 
L 229.098216 55.883494 
L 229.186473 324.341542 
L 229.362987 39.498903 
L 229.451244 335.45676 
L 229.539501 70.120792 
L 229.716014 211.332818 
L 229.804271 108.078874 
L 229.892528 229.652667 
L 230.069042 92.289884 
L 230.157299 335.671826 
L 230.333812 30.024411 
L 230.510326 275.486448 
L 230.598583 276.931107 
L 230.775097 7.670004 
L 230.863354 283.499686 
L 230.951611 22.83783 
L 231.039867 215.203363 
L 231.128124 168.852912 
L 231.304638 28.702535 
L 231.481152 194.531591 
L 231.569409 179.641097 
L 231.657666 316.039445 
L 231.745922 50.685015 
L 231.780093 91.550794 
L 231.848435 336.632625 
L 231.916776 327.030843 
L 232.053459 87.973243 
L 232.1218 56.02538 
L 232.258483 337.038774 
L 232.429337 6.670811 
L 232.463508 337.917736 
L 232.531849 206.932538 
L 232.56602 32.826365 
L 232.60019 297.309721 
L 232.634361 273.485927 
L 232.702703 334.626188 
L 232.771044 60.785284 
L 232.931596 223.444673 
L 233.023806 11.710174 
L 233.116017 231.899635 
L 233.300438 93.218235 
L 233.392648 70.609399 
L 233.57707 317.065349 
L 233.66928 334.728727 
L 233.761491 42.064901 
L 233.853701 330.45354 
L 234.038122 8.218958 
L 234.130333 6.798692 
L 234.222543 19.822492 
L 234.406964 331.033072 
L 234.591385 37.578113 
L 234.683596 338.945535 
L 234.775806 15.033066 
L 234.868017 325.99003 
L 234.960227 11.887444 
L 235.052438 338.194281 
L 235.144648 38.069589 
L 235.329069 265.590968 
L 235.42128 6.646465 
L 235.605701 286.652063 
L 235.697911 27.609689 
L 235.832292 237.527879 
L 235.916632 331.985499 
L 236.085313 7.930951 
L 236.127483 28.567842 
L 236.296164 336.189889 
L 236.338334 326.143077 
L 236.549185 6.717856 
L 236.591355 25.566046 
L 236.844377 335.374243 
L 236.886547 304.563236 
L 237.139568 6.730956 
L 237.496095 338.91451 
L 237.614938 266.455819 
L 237.852623 19.218611 
L 237.971465 22.579597 
L 238.446835 331.072358 
L 238.68452 160.399137 
L 238.922205 12.058756 
L 239.041047 15.679703 
L 239.278732 152.048986 
L 239.635259 336.826557 
L 239.754102 330.569074 
L 239.991787 227.863462 
L 240.348314 39.431548 
L 240.585999 8.427468 
L 240.823684 67.996736 
L 241.505055 329.459515 
L 241.645687 338.918991 
L 241.786319 327.711425 
L 241.997267 279.282805 
L 242.911375 14.548138 
L 243.052007 6.76716 
L 243.122323 7.394051 
L 243.26577 17.363003 
L 243.558293 67.311266 
L 244.801516 330.846337 
L 245.020908 338.945635 
L 245.094039 338.296661 
L 245.240301 332.323063 
L 245.532824 304.107443 
L 246.019809 225.19074 
L 247.042479 54.525516 
L 247.428098 19.642322 
L 247.680788 8.745615 
L 247.849248 6.647544 
L 247.933478 7.078233 
L 248.101938 10.731183 
L 248.354628 22.571117 
L 248.775777 56.062279 
L 249.449617 131.007942 
L 250.672115 266.542878 
L 251.284144 311.299741 
L 251.760167 331.444569 
L 252.100183 337.991878 
L 252.304193 338.951212 
L 252.4402 338.423601 
L 252.64421 335.981147 
L 252.990075 327.697604 
L 253.451229 309.743855 
L 254.14296 271.951567 
L 255.526422 179.38298 
L 256.854933 97.150674 
L 257.724086 56.077083 
L 258.427448 31.939266 
L 259.026983 17.902936 
L 259.506611 10.839974 
L 259.926286 7.515917 
L 260.195294 6.700586 
L 260.373588 6.695853 
L 260.551883 7.099612 
L 260.819325 8.435459 
L 261.175914 11.492119 
L 261.710797 18.536184 
L 262.334828 29.94347 
L 263.211966 50.514807 
L 264.477504 86.329996 
L 269.13902 224.638032 
L 270.577819 258.455124 
L 271.893274 283.903997 
L 272.918646 300.074582 
L 273.935117 313.037365 
L 274.951589 323.112122 
L 275.832853 329.669038 
L 276.544705 333.596128 
L 277.223341 336.281855 
L 277.835548 337.879289 
L 278.243686 338.536348 
L 278.651823 338.885073 
L 279.059961 338.940638 
L 279.468099 338.717949 
L 279.876237 338.2316 
L 280.481382 337.055572 
L 281.24126 334.871096 
L 282.085541 331.615634 
L 283.098678 326.705662 
L 284.203448 320.294788 
L 285.835749 309.216237 
L 287.901348 293.22001 
L 290.70871 269.431314 
L 298.763076 200.032774 
L 302.19932 173.145372 
L 305.113012 152.292267 
L 307.590817 136.041694 
L 309.928595 121.957977 
L 312.700553 106.784657 
L 315.21571 94.383208 
L 317.596985 83.76847 
L 319.908792 74.443684 
L 322.235655 65.965712 
L 324.776603 57.66892 
L 327.025284 51.097374 
L 329.108209 45.604883 
L 331.410576 40.146863 
L 333.75068 35.205437 
L 335.99844 30.985543 
L 338.511542 26.824384 
L 340.616919 23.751689 
L 343.161549 20.495153 
L 345.186586 18.230489 
L 347.899623 15.607988 
L 350.77344 13.293732 
L 353.237151 11.649892 
L 356.095931 10.094146 
L 358.743062 8.955404 
L 361.060963 8.17209 
L 363.524655 7.536856 
L 366.844054 6.968248 
L 370.082438 6.693551 
L 374.410545 6.696738 
L 377.070246 6.880223 
L 381.234536 7.40369 
L 386.475732 8.406236 
L 391.454753 9.644724 
L 398.624527 11.802689 
L 405.549573 14.195026 
L 413.844169 17.3288 
L 423.676483 21.27187 
L 452.012049 32.986343 
L 452.012049 32.986343 
" clip-path="url(#pb36864011d)" style="fill: none; stroke: #0000ff; stroke-linecap: square"/>
   </g>
   <g id="patch_3">
    <path d="M 232.313266 345.6 
L 232.313266 -0 
" style="fill: none; stroke: #000000; stroke-width: 0.8; stroke-linejoin: miter; stroke-linecap: square"/>
   </g>
   <g id="patch_4">
    <path d="M 3.826531 172.799999 
L 460.8 172.799999 
" style="fill: none; stroke: #000000; stroke-width: 0.8; stroke-linejoin: miter; stroke-linecap: square"/>
   </g>
  </g>
 </g>
 <defs>
  <clipPath id="pb36864011d">
   <rect x="3.826531" y="0" width="456.973469" height="345.6"/>
  </clipPath>
 </defs>
</svg>
