<?xml version="1.0" encoding="utf-8" standalone="no"?>
<!DOCTYPE svg PUBLIC "-//W3C//DTD SVG 1.1//EN"
  "http://www.w3.org/Graphics/SVG/1.1/DTD/svg11.dtd">
<svg xmlns:xlink="http://www.w3.org/1999/xlink" width="460.8pt" height="345.6pt" viewBox="0 0 460.8 345.6" xmlns="http://www.w3.org/2000/svg" version="1.1">
 <metadata>
  <rdf:RDF xmlns:dc="http://purl.org/dc/elements/1.1/" xmlns:cc="http://creativecommons.org/ns#" xmlns:rdf="http://www.w3.org/1999/02/22-rdf-syntax-ns#">
   <cc:Work>
    <dc:type rdf:resource="http://purl.org/dc/dcmitype/StillImage"/>
    <dc:date>2025-08-02T18:54:33.826984</dc:date>
    <dc:format>image/svg+xml</dc:format>
    <dc:creator>
     <cc:Agent>
      <dc:title>Matplotlib v3.10.3, https://matplotlib.org/</dc:title>
     </cc:Agent>
    </dc:creator>
   </cc:Work>
  </rdf:RDF>
 </metadata>
 <defs>
  <style type="text/css">*{stroke-linejoin: round; stroke-linecap: butt}</style>
 </defs>
 <g id="figure_1">
  <g id="patch_1">
   <path d="M 0 345.6 
L 460.8 345.6 
L 460.8 0 
L 0 0 
z
" style="fill: #ffffff"/>
  </g>
  <g id="axes_1">
   <g id="patch_2">
    <path d="M 0 345.6 
L 460.8 345.6 
L 460.8 0 
L 0 0 
z
" style="fill: #ffffff"/>
   </g>
   <g id="matplotlib.axis_1">
    <g id="xtick_1">
     <g id="line2d_1">
      <defs>
       <path id="m22c520993f" d="M 0 0 
L 0 3.5 
" style="stroke: #000000; stroke-width: 0.8"/>
      </defs>
      <g>
       <use xlink:href="#m22c520993f" x="36.553846" y="172.799883" style="stroke: #000000; stroke-width: 0.8"/>
      </g>
     </g>
     <g id="text_1">
      <!-- −7 -->
      <g transform="translate(29.182752 187.39832) scale(0.1 -0.1)">
       <defs>
        <path id="DejaVuSans-2212" d="M 678 2272 
L 4684 2272 
L 4684 1741 
L 678 1741 
L 678 2272 
z
" transform="scale(0.015625)"/>
        <path id="DejaVuSans-37" d="M 525 4666 
L 3525 4666 
L 3525 4397 
L 1831 0 
L 1172 0 
L 2766 4134 
L 525 4134 
L 525 4666 
z
" transform="scale(0.015625)"/>
       </defs>
       <use xlink:href="#DejaVuSans-2212"/>
       <use xlink:href="#DejaVuSans-37" transform="translate(83.789062 0)"/>
      </g>
     </g>
    </g>
    <g id="xtick_2">
     <g id="line2d_2">
      <g>
       <use xlink:href="#m22c520993f" x="147.323077" y="172.799883" style="stroke: #000000; stroke-width: 0.8"/>
      </g>
     </g>
     <g id="text_2">
      <!-- −3 -->
      <g transform="translate(139.951983 187.39832) scale(0.1 -0.1)">
       <defs>
        <path id="DejaVuSans-33" d="M 2597 2516 
Q 3050 2419 3304 2112 
Q 3559 1806 3559 1356 
Q 3559 666 3084 287 
Q 2609 -91 1734 -91 
Q 1441 -91 1130 -33 
Q 819 25 488 141 
L 488 750 
Q 750 597 1062 519 
Q 1375 441 1716 441 
Q 2309 441 2620 675 
Q 2931 909 2931 1356 
Q 2931 1769 2642 2001 
Q 2353 2234 1838 2234 
L 1294 2234 
L 1294 2753 
L 1863 2753 
Q 2328 2753 2575 2939 
Q 2822 3125 2822 3475 
Q 2822 3834 2567 4026 
Q 2313 4219 1838 4219 
Q 1578 4219 1281 4162 
Q 984 4106 628 3988 
L 628 4550 
Q 988 4650 1302 4700 
Q 1616 4750 1894 4750 
Q 2613 4750 3031 4423 
Q 3450 4097 3450 3541 
Q 3450 3153 3228 2886 
Q 3006 2619 2597 2516 
z
" transform="scale(0.015625)"/>
       </defs>
       <use xlink:href="#DejaVuSans-2212"/>
       <use xlink:href="#DejaVuSans-33" transform="translate(83.789062 0)"/>
      </g>
     </g>
    </g>
    <g id="xtick_3">
     <g id="line2d_3">
      <g>
       <use xlink:href="#m22c520993f" x="230.4" y="172.799883" style="stroke: #000000; stroke-width: 0.8"/>
      </g>
     </g>
    </g>
    <g id="xtick_4">
     <g id="line2d_4">
      <g>
       <use xlink:href="#m22c520993f" x="313.476923" y="172.799883" style="stroke: #000000; stroke-width: 0.8"/>
      </g>
     </g>
     <g id="text_3">
      <!-- 3 -->
      <g transform="translate(310.295673 187.39832) scale(0.1 -0.1)">
       <use xlink:href="#DejaVuSans-33"/>
      </g>
     </g>
    </g>
    <g id="xtick_5">
     <g id="line2d_5">
      <g>
       <use xlink:href="#m22c520993f" x="424.246154" y="172.799883" style="stroke: #000000; stroke-width: 0.8"/>
      </g>
     </g>
     <g id="text_4">
      <!-- 7 -->
      <g transform="translate(421.064904 187.39832) scale(0.1 -0.1)">
       <use xlink:href="#DejaVuSans-37"/>
      </g>
     </g>
    </g>
   </g>
   <g id="matplotlib.axis_2">
    <g id="ytick_1">
     <g id="line2d_6">
      <defs>
       <path id="m1188e132a6" d="M 0 0 
L -3.5 0 
" style="stroke: #000000; stroke-width: 0.8"/>
      </defs>
      <g>
       <use xlink:href="#m1188e132a6" x="230.4" y="255.877056" style="stroke: #000000; stroke-width: 0.8"/>
      </g>
     </g>
     <g id="text_5">
      <!-- −0.5 -->
      <g transform="translate(199.117188 259.676275) scale(0.1 -0.1)">
       <defs>
        <path id="DejaVuSans-30" d="M 2034 4250 
Q 1547 4250 1301 3770 
Q 1056 3291 1056 2328 
Q 1056 1369 1301 889 
Q 1547 409 2034 409 
Q 2525 409 2770 889 
Q 3016 1369 3016 2328 
Q 3016 3291 2770 3770 
Q 2525 4250 2034 4250 
z
M 2034 4750 
Q 2819 4750 3233 4129 
Q 3647 3509 3647 2328 
Q 3647 1150 3233 529 
Q 2819 -91 2034 -91 
Q 1250 -91 836 529 
Q 422 1150 422 2328 
Q 422 3509 836 4129 
Q 1250 4750 2034 4750 
z
" transform="scale(0.015625)"/>
        <path id="DejaVuSans-2e" d="M 684 794 
L 1344 794 
L 1344 0 
L 684 0 
L 684 794 
z
" transform="scale(0.015625)"/>
        <path id="DejaVuSans-35" d="M 691 4666 
L 3169 4666 
L 3169 4134 
L 1269 4134 
L 1269 2991 
Q 1406 3038 1543 3061 
Q 1681 3084 1819 3084 
Q 2600 3084 3056 2656 
Q 3513 2228 3513 1497 
Q 3513 744 3044 326 
Q 2575 -91 1722 -91 
Q 1428 -91 1123 -41 
Q 819 9 494 109 
L 494 744 
Q 775 591 1075 516 
Q 1375 441 1709 441 
Q 2250 441 2565 725 
Q 2881 1009 2881 1497 
Q 2881 1984 2565 2268 
Q 2250 2553 1709 2553 
Q 1456 2553 1204 2497 
Q 953 2441 691 2322 
L 691 4666 
z
" transform="scale(0.015625)"/>
       </defs>
       <use xlink:href="#DejaVuSans-2212"/>
       <use xlink:href="#DejaVuSans-30" transform="translate(83.789062 0)"/>
       <use xlink:href="#DejaVuSans-2e" transform="translate(147.412109 0)"/>
       <use xlink:href="#DejaVuSans-35" transform="translate(179.199219 0)"/>
      </g>
     </g>
    </g>
    <g id="ytick_2">
     <g id="line2d_7">
      <g>
       <use xlink:href="#m1188e132a6" x="230.4" y="172.799883" style="stroke: #000000; stroke-width: 0.8"/>
      </g>
     </g>
    </g>
    <g id="ytick_3">
     <g id="line2d_8">
      <g>
       <use xlink:href="#m1188e132a6" x="230.4" y="89.72271" style="stroke: #000000; stroke-width: 0.8"/>
      </g>
     </g>
     <g id="text_6">
      <!-- 0.5 -->
      <g transform="translate(207.496875 93.521929) scale(0.1 -0.1)">
       <use xlink:href="#DejaVuSans-30"/>
       <use xlink:href="#DejaVuSans-2e" transform="translate(63.623047 0)"/>
       <use xlink:href="#DejaVuSans-35" transform="translate(95.410156 0)"/>
      </g>
     </g>
    </g>
   </g>
   <g id="line2d_9">
    <path d="M 8.861538 172.799883 
L 12.49874 106.169061 
L 14.460422 74.217699 
L 16.03324 52.044346 
L 17.411627 35.743718 
L 18.330552 26.713424 
L 19.348904 18.562549 
L 20.466684 11.986378 
L 21.466278 8.290585 
L 21.906982 7.330575 
L 22.347687 6.784092 
L 22.788391 6.6525 
L 23.174254 6.878228 
L 23.560118 7.421851 
L 23.945981 8.282326 
L 24.723437 10.971082 
L 25.506622 14.951599 
L 26.289807 20.177387 
L 27.072992 26.607221 
L 27.967871 35.362445 
L 29.094861 48.389532 
L 30.342268 65.166602 
L 31.900487 89.103582 
L 34.087113 126.907428 
L 41.230718 256.878757 
L 43.172646 286.163952 
L 44.629093 304.599748 
L 45.606238 314.983253 
L 46.611858 323.845731 
L 47.63977 330.874403 
L 48.592995 335.475183 
L 49.032265 336.958067 
L 49.471534 338.033369 
L 49.910803 338.698418 
L 50.350072 338.951564 
L 50.789342 338.792177 
L 51.228611 338.220654 
L 51.66788 337.238413 
L 52.271694 335.222582 
L 52.875508 332.44491 
L 53.479322 328.918426 
L 54.552123 320.859236 
L 55.490096 312.013248 
L 56.787382 297.207572 
L 58.370297 275.535328 
L 59.953213 250.55901 
L 62.307825 209.042887 
L 67.833431 107.032198 
L 69.533122 79.011226 
L 71.016197 57.368359 
L 72.456836 39.461134 
L 73.886982 25.198336 
L 74.596808 19.539398 
L 75.306634 14.87376 
L 76.01646 11.231662 
L 76.529417 9.250385 
L 77.042373 7.822801 
L 77.55533 6.953743 
L 78.068286 6.646154 
L 78.627991 6.95226 
L 79.187696 7.926806 
L 79.599249 9.067669 
L 80.422355 12.416687 
L 81.245461 17.163154 
L 82.068567 23.265714 
L 82.90011 30.753637 
L 84.160081 44.481469 
L 85.290671 59.036913 
L 87.019348 84.814862 
L 88.813612 115.123682 
L 91.121524 157.42297 
L 95.209434 233.051142 
L 97.054797 263.91618 
L 98.508509 285.490374 
L 99.962221 304.006546 
L 101.205892 317.038051 
L 102.449564 327.203053 
L 103.278678 332.284986 
L 104.289686 336.570465 
L 104.691855 337.679092 
L 105.094024 338.444565 
L 105.496192 338.865292 
L 105.898361 338.940396 
L 106.30053 338.669721 
L 106.702699 338.053831 
L 107.104867 337.094007 
L 107.85051 334.411775 
L 108.596152 330.573812 
L 109.341794 325.607564 
L 110.087437 319.548546 
L 111.50437 305.184639 
L 112.996529 286.376547 
L 114.488688 264.321597 
L 116.704789 226.946183 
L 119.87763 168.147265 
L 123.393046 104.016096 
L 124.917096 79.0212 
L 126.601391 54.679018 
L 127.893205 38.881383 
L 129.242204 25.453568 
L 130.521897 15.894958 
L 131.161744 12.343692 
L 132.183655 8.43063 
L 132.56572 7.532502 
L 132.947785 6.944812 
L 133.32985 6.668664 
L 133.722216 6.709866 
L 134.114582 7.080098 
L 134.506948 7.778628 
L 134.899315 8.804071 
L 135.684047 11.826929 
L 136.46878 16.124729 
L 137.102588 20.50374 
L 138.370205 31.596199 
L 139.889721 48.710278 
L 141.48291 70.594002 
L 143.209791 98.049393 
L 144.951565 128.635127 
L 152.108275 258.633548 
L 153.414681 278.700429 
L 154.884741 298.484657 
L 156.354801 314.781279 
L 157.334706 323.479372 
L 158.314612 330.317277 
L 159.212074 334.875457 
L 159.670489 336.558321 
L 160.128904 337.798387 
L 160.587319 338.592303 
L 161.045734 338.937922 
L 161.50415 338.834309 
L 161.962565 338.281745 
L 162.42098 337.281723 
L 162.879395 335.836947 
L 163.490183 333.227786 
L 164.100971 329.848664 
L 165.322547 320.849026 
L 166.56858 308.746069 
L 167.814613 293.931147 
L 169.485986 270.324701 
L 171.255828 241.536985 
L 174.014185 191.631554 
L 178.363717 111.192014 
L 180.683101 73.176282 
L 182.41691 49.110088 
L 183.818258 33.106753 
L 184.884514 23.272007 
L 185.950769 15.622487 
L 187.017024 10.269985 
L 187.550152 8.480906 
L 188.08328 7.292723 
L 188.601582 6.717786 
L 189.000809 6.666275 
L 189.400036 6.95549 
L 189.799263 7.584837 
L 190.19849 8.553026 
L 190.996944 11.497294 
L 191.795398 15.764154 
L 192.970208 24.370624 
L 194.145018 35.609744 
L 195.198562 47.765028 
L 196.704724 68.192091 
L 198.062364 89.234378 
L 199.872408 120.272672 
L 204.02973 197.626456 
L 206.889007 248.693345 
L 208.835428 279.224342 
L 210.240029 298.122382 
L 211.573283 313.129548 
L 212.475147 321.482172 
L 213.377011 328.279749 
L 214.278874 333.451183 
L 214.909428 336.071342 
L 215.539982 337.856377 
L 216.170536 338.797158 
L 216.80109 338.888873 
L 217.442799 338.110016 
L 218.084508 336.455438 
L 218.619632 334.412248 
L 219.154757 331.773626 
L 220.225007 324.751127 
L 221.412465 314.346846 
L 222.599923 301.377716 
L 224.310782 278.665767 
L 225.826824 255.187077 
L 228.222293 213.432516 
L 234.690456 95.082159 
L 236.802945 62.444148 
L 238.337642 42.595402 
L 239.687675 28.372674 
L 241.037708 17.531139 
L 241.887016 12.560824 
L 242.736324 9.076939 
L 243.324173 7.553589 
L 243.912022 6.764894 
L 244.49987 6.714359 
L 245.087719 7.402211 
L 245.485359 8.284744 
L 246.280638 11.051521 
L 247.214273 15.976331 
L 248.286265 23.794335 
L 249.238807 32.592368 
L 250.488444 46.596277 
L 251.321536 57.358485 
L 253.248634 86.024335 
L 255.000276 115.704224 
L 257.889859 168.98414 
L 261.851352 241.528203 
L 263.638138 270.575294 
L 264.959153 289.536867 
L 266.234705 305.366662 
L 267.464796 318.010787 
L 268.553631 326.853992 
L 269.640611 333.340569 
L 270.2538 335.928944 
L 270.866989 337.728228 
L 271.480178 338.72972 
L 272.136073 338.912478 
L 272.791969 338.175945 
L 273.369128 336.770562 
L 273.946287 334.662457 
L 274.523447 331.860664 
L 275.489933 325.649779 
L 276.657914 315.702944 
L 277.436568 307.66728 
L 278.853109 290.401042 
L 280.128885 272.24257 
L 282.091258 240.399014 
L 283.415744 216.916661 
L 290.186476 93.232355 
L 292.365633 59.95753 
L 293.643124 43.527267 
L 294.699655 31.973346 
L 295.756186 22.440163 
L 296.781824 15.248487 
L 297.807463 10.187413 
L 298.250085 8.679596 
L 298.692708 7.585511 
L 299.13533 6.907916 
L 299.577952 6.64852 
L 300.020574 6.807975 
L 300.463197 7.38588 
L 300.905819 8.380779 
L 301.348441 9.790162 
L 301.926558 12.249182 
L 302.485401 15.282564 
L 303.603086 23.233332 
L 304.827771 34.696769 
L 306.159455 50.17364 
L 307.650098 70.792398 
L 309.299697 96.974991 
L 311.240413 131.093397 
L 317.763844 250.458698 
L 319.801845 282.051836 
L 321.225042 300.75516 
L 322.363702 313.342997 
L 323.692226 325.056918 
L 324.356488 329.632965 
L 324.965633 333.047382 
L 325.574778 335.696835 
L 326.183923 337.568675 
L 326.793068 338.653968 
L 327.217853 338.942391 
L 327.642639 338.845054 
L 328.067424 338.362182 
L 328.492209 337.494899 
L 328.916994 336.245216 
L 329.766565 332.611142 
L 330.719578 326.771442 
L 331.776035 318.200093 
L 332.905874 306.728659 
L 334.166137 291.350412 
L 335.483442 272.695908 
L 337.009577 248.329905 
L 339.598933 202.243084 
L 344.713194 107.782768 
L 346.415198 79.650184 
L 348.117203 54.979661 
L 349.271013 40.696046 
L 350.424823 28.672622 
L 351.507222 19.63175 
L 352.71301 12.281195 
L 353.315904 9.724112 
L 353.767155 8.308667 
L 354.218406 7.32421 
L 354.669657 6.773321 
L 355.120907 6.657442 
L 355.572158 6.976878 
L 356.023409 7.730792 
L 356.47466 8.917208 
L 356.925911 10.533017 
L 357.450305 12.944505 
L 358.070178 16.523694 
L 359.309924 25.978075 
L 360.437595 37.101913 
L 361.45319 49.024244 
L 362.776226 66.990747 
L 364.406703 92.357193 
L 366.376282 126.571948 
L 373.575845 257.486612 
L 374.785752 276.250155 
L 376.472695 299.092869 
L 378.006139 315.874779 
L 379.156221 325.649781 
L 380.233256 332.450509 
L 380.92693 335.575158 
L 381.526825 337.465499 
L 382.126719 338.593469 
L 382.726613 338.953846 
L 383.326508 338.544962 
L 383.756287 337.779963 
L 384.186067 336.622845 
L 385.045626 333.144176 
L 385.87 328.37611 
L 386.694374 322.248302 
L 387.673761 313.275654 
L 388.653148 302.57062 
L 390.122228 283.559081 
L 391.455704 263.629209 
L 393.848969 222.989366 
L 401.370294 86.462407 
L 403.188108 59.222916 
L 404.76677 39.435933 
L 406.137479 25.696493 
L 407.051285 18.492033 
L 407.965091 12.944444 
L 408.590825 10.132917 
L 409.12979 8.367653 
L 409.668756 7.216935 
L 410.207721 6.685065 
L 410.746686 6.77403 
L 411.285652 7.483498 
L 411.824617 8.810816 
L 412.363583 10.751025 
L 413.395363 16.146749 
L 414.380994 23.304641 
L 415.297795 31.641049 
L 416.247593 41.885179 
L 417.672291 60.056558 
L 419.096989 81.166751 
L 420.93569 111.855506 
L 423.423003 157.306349 
L 428.16938 244.333706 
L 430.201952 276.715387 
L 431.614526 296.071537 
L 433.077146 312.779279 
L 434.025019 321.578058 
L 434.878953 328.03566 
L 435.732887 333.037528 
L 436.58682 336.536757 
L 437.013787 337.712067 
L 437.460956 338.528218 
L 437.908124 338.917959 
L 438.355293 338.880286 
L 438.802462 338.415298 
L 439.287129 337.430161 
L 439.771797 335.947437 
L 440.371803 333.429401 
L 440.971808 330.167404 
L 442.171819 321.475339 
L 443.211559 311.712483 
L 444.251299 300.01913 
L 445.810909 279.221686 
L 447.733664 249.086852 
L 450.306384 203.388445 
L 451.938462 172.799883 
L 451.938462 172.799883 
" clip-path="url(#p192937c1b1)" style="fill: none; stroke: #0000ff; stroke-linecap: square"/>
   </g>
   <g id="patch_3">
    <path d="M 230.4 345.6 
L 230.4 0 
" style="fill: none; stroke: #000000; stroke-width: 0.8; stroke-linejoin: miter; stroke-linecap: square"/>
   </g>
   <g id="patch_4">
    <path d="M 0 172.799883 
L 460.8 172.799883 
" style="fill: none; stroke: #000000; stroke-width: 0.8; stroke-linejoin: miter; stroke-linecap: square"/>
   </g>
  </g>
 </g>
 <defs>
  <clipPath id="p192937c1b1">
   <rect x="0" y="0" width="460.8" height="345.6"/>
  </clipPath>
 </defs>
</svg>
