<?xml version="1.0" encoding="utf-8" standalone="no"?>
<!DOCTYPE svg PUBLIC "-//W3C//DTD SVG 1.1//EN"
  "http://www.w3.org/Graphics/SVG/1.1/DTD/svg11.dtd">
<svg xmlns:xlink="http://www.w3.org/1999/xlink" width="460.8pt" height="345.6pt" viewBox="0 0 460.8 345.6" xmlns="http://www.w3.org/2000/svg" version="1.1">
 <metadata>
  <rdf:RDF xmlns:dc="http://purl.org/dc/elements/1.1/" xmlns:cc="http://creativecommons.org/ns#" xmlns:rdf="http://www.w3.org/1999/02/22-rdf-syntax-ns#">
   <cc:Work>
    <dc:type rdf:resource="http://purl.org/dc/dcmitype/StillImage"/>
    <dc:date>2025-08-02T22:46:10.714321</dc:date>
    <dc:format>image/svg+xml</dc:format>
    <dc:creator>
     <cc:Agent>
      <dc:title>Matplotlib v3.10.3, https://matplotlib.org/</dc:title>
     </cc:Agent>
    </dc:creator>
   </cc:Work>
  </rdf:RDF>
 </metadata>
 <defs>
  <style type="text/css">*{stroke-linejoin: round; stroke-linecap: butt}</style>
 </defs>
 <g id="figure_1">
  <g id="patch_1">
   <path d="M 0 345.6 
L 460.8 345.6 
L 460.8 0 
L 0 0 
z
" style="fill: #ffffff"/>
  </g>
  <g id="axes_1">
   <g id="patch_2">
    <path d="M 23.323698 345.6 
L 460.8 345.6 
L 460.8 3.875907 
L 23.323698 3.875907 
z
" style="fill: #ffffff"/>
   </g>
   <g id="patch_3">
    <path d="M 31.736704 216.45651 
L 31.736704 216.45651 
L 33.37917 202.638897 
L 35.977105 180.937061 
L 38.365915 161.334462 
L 39.299783 153.805534 
L 42.127669 131.615597 
L 44.551609 113.49576 
L 46.681578 98.409153 
L 49.268581 81.307136 
L 50.181165 75.626971 
L 52.435518 62.453407 
L 54.13868 53.362059 
L 55.841843 45.058849 
L 57.352004 38.386203 
L 58.564357 33.515157 
L 60.468987 26.763652 
L 62.373616 21.143922 
L 62.586896 20.586391 
L 65.26679 14.833224 
L 68.181826 11.243512 
L 69.860272 10.447524 
L 72.335859 10.963251 
L 73.818489 12.226855 
L 76.619702 16.526205 
L 77.891172 19.2829 
L 79.644713 23.883054 
L 81.398255 29.378415 
L 82.867045 34.642934 
L 84.02031 39.182108 
L 85.870149 47.172957 
L 87.719988 55.987732 
L 88.139446 58.09476 
L 91.110396 74.072474 
L 93.139527 85.945725 
L 94.201289 92.43105 
L 96.289389 105.663017 
L 99.29924 125.653439 
L 100.53662 134.114846 
L 102.833872 150.083744 
L 105.659635 169.987204 
L 106.929632 178.952949 
L 109.346483 195.923249 
L 111.172003 208.569803 
L 114.496185 230.948163 
L 116.912646 246.478328 
L 118.933175 258.855254 
L 121.101753 271.416262 
L 122.001846 276.386815 
L 125.669109 294.99429 
L 127.684478 303.994101 
L 129.914373 312.850023 
L 131.406081 318.096584 
L 132.960544 322.965011 
L 135.954781 330.566553 
L 136.900401 332.471237 
L 139.194358 336.087663 
L 140.650404 337.641685 
L 143.608094 339.028383 
L 144.962923 338.878523 
L 146.737507 337.948832 
L 148.512091 336.204283 
L 149.993195 334.140905 
L 152.120286 330.244989 
L 154.995725 323.322178 
L 155.796502 321.074328 
L 158.293732 313.233019 
L 161.674506 300.796766 
L 162.712859 296.604374 
L 165.809335 283.217589 
L 168.006145 273.04258 
L 169.980084 263.525878 
L 172.247311 252.271039 
L 172.322929 251.891095 
L 175.465792 235.94215 
L 178.280359 221.585113 
L 179.285574 216.489651 
L 182.254997 201.68022 
L 184.655678 190.115189 
L 186.636799 180.952554 
L 188.081491 174.533878 
L 190.876705 162.85394 
L 192.141353 157.928829 
L 193.684479 152.253551 
L 197.044687 141.283176 
L 197.851282 138.952627 
L 200.159526 132.972445 
L 203.302939 126.547628 
L 205.044234 123.876225 
L 208.109377 120.753765 
L 208.818751 120.32112 
L 211.535718 119.674181 
L 212.847517 119.932252 
L 216.483307 122.550271 
L 218.107364 124.597741 
L 219.138594 126.169085 
L 221.882731 131.335008 
L 223.867801 135.917249 
L 226.699298 143.578689 
L 228.781352 149.97684 
L 229.58551 152.605242 
L 232.625455 163.241672 
L 233.711045 167.277883 
L 237.476651 182.039471 
L 238.482256 186.139181 
L 240.230248 193.375406 
L 242.51506 202.971895 
L 245.530718 215.701044 
L 247.834641 225.329424 
L 249.101693 230.543412 
L 250.538454 236.357051 
L 253.914578 249.463156 
L 256.086513 257.367676 
L 257.129876 260.989512 
L 260.661682 272.275423 
L 261.196825 273.842064 
L 263.615067 280.404633 
L 266.476109 286.999715 
L 267.870609 289.72491 
L 271.530805 295.265543 
L 273.276709 297.058093 
L 275.67984 298.605585 
L 275.941375 298.70928 
L 277.949779 299.081588 
L 279.958184 298.706555 
L 281.663202 297.8084 
L 282.506635 297.170178 
L 285.884936 293.36298 
L 286.753753 292.070223 
L 290.150078 285.858339 
L 292.499006 280.55439 
L 293.865152 277.123184 
L 296.334793 270.333421 
L 297.689834 266.316349 
L 299.389027 261.020222 
L 303.143002 248.470809 
L 304.024746 245.38693 
L 306.962942 234.849644 
L 309.212165 226.60833 
L 310.506026 221.839613 
L 312.333603 215.111179 
L 314.803629 206.112105 
L 317.966923 194.923634 
L 318.72741 192.314921 
L 321.778356 182.265938 
L 323.122428 178.086524 
L 326.579397 168.1762 
L 327.271159 166.354195 
L 330.191388 159.3235 
L 331.595957 156.347328 
L 333.278584 153.151464 
L 336.484202 148.236998 
L 337.455142 147.064156 
L 340.553505 144.336597 
L 342.95092 143.305579 
L 345.249024 143.208501 
L 346.933647 143.688891 
L 349.602591 145.389883 
L 351.600382 147.397998 
L 353.335421 149.634178 
L 355.107753 152.371826 
L 357.843231 157.445646 
L 359.105273 160.111675 
L 362.541656 168.308602 
L 364.658417 173.963979 
L 364.843264 174.47729 
L 367.459918 182.0398 
L 370.901499 192.680718 
L 371.129338 193.406845 
L 373.167973 199.991991 
L 377.16907 213.189902 
L 379.231755 220.009945 
L 380.604041 224.510078 
L 383.050586 232.39263 
L 383.947417 235.220266 
L 387.706105 246.567298 
L 389.712545 252.207342 
L 391.518056 256.980795 
L 393.672358 262.254288 
L 394.327033 263.7584 
L 397.863245 271.014804 
L 399.847046 274.397074 
L 401.830126 277.248207 
L 404.220052 279.949004 
L 406.885288 281.979888 
L 408.852627 282.800931 
L 409.98615 283.010226 
L 411.771457 282.948673 
L 414.835729 281.736789 
L 416.007138 280.910239 
L 418.365247 278.654368 
L 419.655664 277.094557 
L 422.038879 273.635777 
L 425.452497 267.462384 
L 427.826822 262.403362 
L 429.563354 258.350159 
L 432.279489 251.487761 
L 432.32079 251.378985 
L 435.803545 241.807449 
L 436.696083 239.245854 
L 440.093202 229.214347 
L 442.561467 221.755666 
L 444.759297 215.087635 
L 446.170566 210.827937 
L 448.339793 204.364423 
L 450.722711 197.452753 
L 452.386994 192.787466 
L 452.386994 216.45651 
z
" clip-path="url(#p2b7da1a297)" style="fill: #b2b3ff; opacity: 0.5"/>
   </g>
   <g id="patch_4">
    <path d="M 31.736704 216.45651 
L 31.736704 216.45651 
L 33.623844 216.100359 
L 36.532559 214.164767 
L 37.945867 212.626273 
L 40.569221 208.763588 
L 41.543448 207.005455 
L 43.62998 202.674634 
L 45.686015 197.688034 
L 47.76761 191.961434 
L 50.130719 184.704969 
L 51.844167 178.990975 
L 55.676289 165.050841 
L 56.187142 163.089817 
L 58.924201 152.263338 
L 61.937805 139.886332 
L 63.841279 131.935254 
L 64.684856 128.400035 
L 66.910824 119.093191 
L 69.759345 107.369062 
L 71.932421 98.693558 
L 73.930798 91.014031 
L 75.164318 86.450032 
L 78.92501 73.561884 
L 80.658105 68.233476 
L 82.346831 63.467546 
L 84.015442 59.206457 
L 87.461926 51.948981 
L 89.019703 49.402996 
L 91.930474 45.957825 
L 92.221099 45.710834 
L 95.341635 44.206871 
L 96.483281 44.191103 
L 98.710409 44.999528 
L 101.638636 47.763609 
L 103.817134 51.071358 
L 105.94671 55.322972 
L 107.770412 59.747275 
L 110.94118 69.098235 
L 112.290446 73.689036 
L 113.131179 76.726108 
L 115.340342 85.324374 
L 117.992099 96.749571 
L 119.768601 105.016782 
L 122.98283 121.065913 
L 124.175873 127.335114 
L 127.618663 146.186243 
L 127.985808 148.252199 
L 130.364329 161.830705 
L 133.618668 180.771483 
L 134.562032 186.296313 
L 138.352451 208.406016 
L 139.027748 212.302352 
L 140.864743 222.787091 
L 143.30038 236.345646 
L 146.784582 254.80517 
L 148.623451 263.987173 
L 150.823315 274.366979 
L 151.19218 276.03729 
L 153.468063 285.860452 
L 155.866065 295.245819 
L 159.405388 307.108219 
L 161.065864 311.797265 
L 162.2714 314.834435 
L 165.024172 320.575735 
L 166.957673 323.591452 
L 168.712836 325.589498 
L 171.767698 327.375549 
L 172.490408 327.48392 
L 174.443716 327.179745 
L 176.397024 326.014182 
L 177.777094 324.681115 
L 179.668476 322.185843 
L 180.839829 320.2632 
L 184.154618 313.33131 
L 186.932666 305.936902 
L 188.240953 301.995083 
L 190.976605 292.890431 
L 191.53827 290.887565 
L 194.652398 279.056081 
L 196.20073 272.768834 
L 199.765073 257.496927 
L 200.25598 255.323572 
L 203.210568 241.997765 
L 204.399798 236.552011 
L 206.237517 228.097596 
L 209.061136 215.138727 
L 211.961483 202.066047 
L 212.925111 197.814792 
L 216.113172 184.216803 
L 217.537458 178.425943 
L 219.435498 171.037617 
L 221.803396 162.420042 
L 224.606971 153.197846 
L 225.243655 151.265369 
L 228.306176 142.877071 
L 229.678799 139.630623 
L 231.875433 135.133607 
L 233.608864 132.212744 
L 236.266728 128.844498 
L 239.12608 126.7546 
L 241.699271 126.24616 
L 242.233539 126.303253 
L 245.864723 128.153051 
L 247.856298 130.226033 
L 248.935627 131.652467 
L 251.1936 135.30112 
L 252.752982 138.325199 
L 256.462713 147.053068 
L 257.728476 150.486184 
L 259.022077 154.212473 
L 263.055933 167.08195 
L 264.900495 173.501822 
L 266.093227 177.798668 
L 269.376364 190.090926 
L 270.506473 194.44097 
L 272.218513 201.104856 
L 275.522027 214.06966 
L 276.918186 219.531154 
L 278.90594 227.225183 
L 281.972153 238.767876 
L 283.158862 243.086971 
L 285.204333 250.283835 
L 288.391194 260.742158 
L 289.139848 263.045526 
L 290.972794 268.409326 
L 294.663016 277.898795 
L 294.952365 278.563031 
L 298.169469 285.104887 
L 300.91844 289.405494 
L 302.238384 291.028558 
L 305.276127 293.642139 
L 307.217218 294.480746 
L 309.236108 294.661014 
L 311.690863 293.934982 
L 313.560906 292.696203 
L 315.672721 290.602299 
L 317.851586 287.695693 
L 319.770731 284.53578 
L 322.232787 279.708081 
L 324.159292 275.366358 
L 326.057653 270.644167 
L 327.693848 266.251291 
L 328.860723 262.951803 
L 332.788157 250.976201 
L 334.935302 243.97212 
L 336.303552 239.383856 
L 338.88092 230.554601 
L 339.99552 226.687467 
L 343.513639 214.438518 
L 345.202219 208.607472 
L 346.047389 205.717017 
L 348.666577 196.936509 
L 351.891525 186.644142 
L 352.958234 183.402264 
L 354.731466 178.225249 
L 356.374055 173.691772 
L 358.420645 168.435813 
L 362.401342 159.619748 
L 363.1227 158.238734 
L 365.89487 153.597375 
L 367.653968 151.222672 
L 370.634424 148.255279 
L 372.732274 146.984242 
L 373.136016 146.818175 
L 375.289077 146.362688 
L 379.316547 147.447737 
L 381.285549 148.880752 
L 383.182308 150.803791 
L 384.099606 151.91953 
L 386.193266 154.903693 
L 389.356376 160.503062 
L 391.415222 164.797027 
L 393.406272 169.389465 
L 394.672247 172.51484 
L 397.196341 179.169529 
L 400.099505 187.412842 
L 401.879352 192.713621 
L 403.295067 197.033139 
L 406.572879 207.270448 
L 408.783818 214.264166 
L 410.071678 218.334972 
L 412.27408 225.240265 
L 414.254072 231.33539 
L 416.423366 237.826207 
L 419.092463 245.448581 
L 420.325173 248.803069 
L 421.818491 252.704686 
L 424.922579 260.170266 
L 426.197172 262.955685 
L 429.123854 268.665402 
L 431.579786 272.660719 
L 434.146951 276.003443 
L 435.657126 277.554071 
L 437.40062 278.95011 
L 440.491558 280.365921 
L 441.064701 280.47814 
L 443.413848 280.445689 
L 446.662833 279.107124 
L 447.52225 278.506229 
L 451.076025 274.963273 
L 452.386994 273.241622 
L 452.386994 216.45651 
z
" clip-path="url(#p2b7da1a297)" style="fill: #c9ffb2; opacity: 0.5"/>
   </g>
   <g id="patch_5">
    <path d="M 31.736704 216.45651 
L 31.736704 216.45651 
L 33.427684 216.452677 
L 35.62051 216.410152 
L 37.091704 216.335229 
L 40.385279 215.948919 
L 43.131417 215.304642 
L 45.41571 214.479877 
L 47.423796 213.500207 
L 48.558755 212.830096 
L 51.123683 210.978556 
L 53.708667 208.603192 
L 55.871817 206.195731 
L 57.447322 204.191612 
L 59.221914 201.675258 
L 60.637154 199.469495 
L 63.178906 195.063221 
L 66.490735 188.475594 
L 68.532597 183.952673 
L 69.555096 181.561182 
L 71.848246 175.906272 
L 74.061879 170.090562 
L 75.916979 164.972825 
L 78.126059 158.623763 
L 79.379977 154.912828 
L 82.182011 146.394896 
L 83.819851 141.30629 
L 85.650206 135.559077 
L 88.182021 127.566465 
L 91.226537 118.013448 
L 92.684201 113.509187 
L 94.685633 107.445035 
L 96.66672 101.625006 
L 99.425518 93.915654 
L 101.814349 87.703468 
L 103.755238 83.033489 
L 106.208115 77.687239 
L 107.294287 75.537803 
L 110.402598 70.202589 
L 113.057142 66.688552 
L 114.032057 65.656779 
L 117.124336 63.358695 
L 118.8759 62.741791 
L 120.428879 62.624448 
L 122.164065 62.98162 
L 124.734174 64.475234 
L 127.665917 67.603196 
L 128.633038 68.969009 
L 130.357956 71.814421 
L 132.823636 76.782889 
L 135.491574 83.325573 
L 136.540742 86.220895 
L 140.518104 98.765946 
L 142.031882 104.156696 
L 144.397626 113.20552 
L 145.088807 115.984418 
L 149.019769 132.827406 
L 150.488967 139.524662 
L 152.864345 150.734738 
L 154.508938 158.728509 
L 156.045651 166.335489 
L 157.970412 176.006407 
L 159.861221 185.609906 
L 161.809328 195.552543 
L 164.83847 210.966282 
L 166.392434 218.787156 
L 168.381678 228.6491 
L 172.221905 246.987809 
L 173.497877 252.815662 
L 175.45796 261.452976 
L 177.905285 271.62731 
L 179.833503 279.105066 
L 180.961008 283.237282 
L 183.357764 291.386161 
L 187.101004 302.236522 
L 189.182536 307.203279 
L 189.696199 308.306093 
L 193.050809 314.272484 
L 194.022299 315.591633 
L 197.013389 318.474746 
L 199.496004 319.504014 
L 201.022417 319.5219 
L 202.092973 319.256578 
L 205.105912 317.2964 
L 207.613266 314.332814 
L 210.037016 310.364643 
L 210.380648 309.717346 
L 212.628701 304.984872 
L 215.270526 298.375295 
L 217.307943 292.564727 
L 219.465957 285.796066 
L 221.82422 277.754705 
L 224.307464 268.660334 
L 226.882293 258.674376 
L 229.176766 249.408047 
L 229.497012 248.093117 
L 232.964774 233.627328 
L 233.83537 229.955176 
L 235.900823 221.233262 
L 237.889567 212.878245 
L 240.005386 204.110638 
L 243.392721 190.525236 
L 244.477939 186.332636 
L 246.877742 177.409542 
L 249.12621 169.556028 
L 251.908235 160.633918 
L 254.490363 153.246676 
L 256.090902 149.141997 
L 258.638597 143.413131 
L 260.756862 139.444038 
L 262.918156 136.17218 
L 263.913255 134.937106 
L 266.658996 132.435594 
L 269.068244 131.350828 
L 270.581849 131.202772 
L 272.803341 131.727374 
L 275.172088 133.245659 
L 276.228951 134.236058 
L 279.471865 138.439729 
L 280.919927 140.862591 
L 282.599855 144.073742 
L 284.388698 147.942684 
L 286.755489 153.725763 
L 289.860435 162.343307 
L 290.804888 165.171463 
L 293.222856 172.793912 
L 294.981434 178.638873 
L 297.739416 188.21158 
L 300.669189 198.767482 
L 302.568755 205.734871 
L 303.804175 210.287673 
L 305.608295 216.931237 
L 309.259971 230.18746 
L 310.571643 234.830606 
L 312.961539 243.049158 
L 314.514464 248.18421 
L 317.587644 257.756953 
L 319.733214 263.896044 
L 321.337866 268.154767 
L 323.532736 273.475073 
L 325.124988 276.943595 
L 328.684772 283.41565 
L 329.316823 284.370488 
L 331.176917 286.826918 
L 334.700093 289.992482 
L 336.825304 290.939292 
L 337.20446 291.031348 
L 339.659491 291.064111 
L 342.418704 289.945004 
L 344.45831 288.346853 
L 347.055076 285.395455 
L 348.638692 283.111085 
L 351.695224 277.724962 
L 352.206199 276.705402 
L 355.89674 268.416511 
L 357.678972 263.882939 
L 360.027074 257.454474 
L 362.126953 251.326964 
L 364.112436 245.261117 
L 366.484083 237.744367 
L 366.79383 236.745354 
L 369.121598 229.146266 
L 371.094094 222.627374 
L 374.210232 212.321209 
L 375.565761 207.881752 
L 378.166612 199.523694 
L 380.66746 191.779461 
L 381.579139 189.048359 
L 385.307649 178.52035 
L 386.775308 174.704848 
L 388.365262 170.811315 
L 390.451845 166.113285 
L 392.815719 161.403852 
L 394.530896 158.423563 
L 396.531068 155.438241 
L 400.230408 151.379515 
L 402.580536 149.825599 
L 404.588909 149.14266 
L 406.247278 149.0294 
L 409.037405 149.754892 
L 409.747383 150.121063 
L 412.44003 152.165198 
L 413.756359 153.533434 
L 416.399863 156.982721 
L 417.914752 159.363183 
L 419.885717 162.874738 
L 421.784583 166.673282 
L 423.999869 171.576969 
L 427.534339 180.319582 
L 429.598398 185.862981 
L 430.550927 188.511338 
L 433.420092 196.765335 
L 435.354114 202.506101 
L 437.250067 208.218888 
L 438.953692 213.386295 
L 442.772134 224.91177 
L 444.244285 229.274356 
L 446.049972 234.518475 
L 448.020318 240.06557 
L 450.117215 245.717439 
L 452.386994 251.482575 
L 452.386994 216.45651 
z
" clip-path="url(#p2b7da1a297)" style="fill: #ffb2df; opacity: 0.5"/>
   </g>
   <g id="patch_6">
    <path d="M 31.736704 216.45651 
L 31.736704 216.45651 
L 33.910334 216.456404 
L 34.936156 216.456016 
L 38.063042 216.448994 
L 40.505998 216.42888 
L 41.934809 216.406129 
L 43.978224 216.352453 
L 47.336367 216.185003 
L 47.724021 216.157408 
L 50.842608 215.853974 
L 52.992483 215.542549 
L 54.708904 215.220367 
L 57.218789 214.610812 
L 58.476293 214.23538 
L 62.217378 212.797378 
L 62.984274 212.436955 
L 64.56852 211.614679 
L 68.604191 209.004619 
L 69.27011 208.497376 
L 71.59897 206.540625 
L 74.501151 203.684989 
L 77.087126 200.730657 
L 77.789599 199.85943 
L 80.119639 196.755794 
L 82.790762 192.78995 
L 84.818833 189.487866 
L 85.945122 187.546655 
L 88.886739 182.122933 
L 90.530863 178.875673 
L 92.741012 174.279233 
L 95.075966 169.153665 
L 96.974586 164.799258 
L 98.807761 160.452477 
L 102.012496 152.568382 
L 104.568882 146.077014 
L 106.05928 142.234588 
L 107.693767 137.989621 
L 109.493649 133.29749 
L 111.677957 127.612029 
L 114.889824 119.359519 
L 115.311494 118.292238 
L 119.103123 108.954834 
L 120.230264 106.292283 
L 122.215462 101.762498 
L 123.814069 98.284111 
L 127.263748 91.387816 
L 129.947959 86.694885 
L 131.653861 84.06145 
L 132.999808 82.191525 
L 134.629945 80.187247 
L 136.888492 77.910448 
L 139.60348 75.993396 
L 140.940328 75.395971 
L 142.786024 74.962628 
L 146.800762 75.650616 
L 148.775939 76.835485 
L 151.110379 78.971203 
L 151.554206 79.467943 
L 154.390688 83.327863 
L 157.284667 88.479716 
L 157.704531 89.327724 
L 159.790579 93.912083 
L 163.566671 103.734943 
L 165.951968 110.899514 
L 166.666027 113.180756 
L 168.271213 118.5277 
L 171.989325 131.992516 
L 173.387074 137.407477 
L 176.497368 150.05095 
L 176.662849 150.744271 
L 180.725674 168.296354 
L 182.476392 176.110511 
L 184.848195 186.851118 
L 186.026419 192.227779 
L 188.299693 202.626368 
L 189.318822 207.281354 
L 192.100637 219.891131 
L 194.236113 229.402364 
L 197.552016 243.708136 
L 198.196132 246.403996 
L 200.809088 257.001057 
L 201.951224 261.441937 
L 204.561838 271.091493 
L 206.845715 278.89568 
L 210.048714 288.709339 
L 211.382918 292.373595 
L 213.412363 297.436572 
L 216.213396 303.359147 
L 218.794998 307.668348 
L 220.162138 309.488111 
L 221.878319 311.309615 
L 224.803498 313.209255 
L 226.868136 313.628239 
L 227.814219 313.565285 
L 230.629408 312.4372 
L 233.403677 309.970979 
L 234.260298 308.944333 
L 237.727258 303.559852 
L 238.006823 303.042403 
L 240.355492 298.228325 
L 243.962947 289.30855 
L 246.111701 283.200928 
L 248.04127 277.267159 
L 250.014573 270.806776 
L 251.7304 264.905401 
L 252.965503 260.514119 
L 255.761117 250.207329 
L 257.724916 242.730192 
L 260.715998 231.10789 
L 261.440401 228.269863 
L 265.295078 213.184606 
L 265.494759 212.408786 
L 268.355354 201.430913 
L 270.909634 191.938769 
L 273.275811 183.514091 
L 274.333249 179.88829 
L 277.910509 168.384104 
L 278.46794 166.709453 
L 280.543816 160.785102 
L 282.931327 154.625955 
L 285.813495 148.210691 
L 287.766134 144.544343 
L 290.144358 140.86207 
L 291.468687 139.196831 
L 293.888102 136.885156 
L 295.837472 135.720695 
L 298.91886 135.163457 
L 300.774035 135.585022 
L 302.091493 136.226465 
L 304.88314 138.506959 
L 305.886442 139.625566 
L 308.933446 143.953555 
L 309.736141 145.318523 
L 312.127828 149.911 
L 315.811148 158.407529 
L 317.413046 162.587196 
L 319.826286 169.368982 
L 320.787808 172.217411 
L 323.262933 179.880915 
L 325.905413 188.498275 
L 328.162633 196.122297 
L 330.060609 202.65742 
L 330.924305 205.654656 
L 334.398052 217.743991 
L 335.269048 220.760256 
L 338.331655 231.212378 
L 341.059333 240.197935 
L 342.72776 245.482348 
L 345.034983 252.459354 
L 346.252022 255.962361 
L 349.55569 264.756868 
L 351.379884 269.113487 
L 354.038069 274.752625 
L 356.149533 278.587152 
L 357.252159 280.350315 
L 358.378246 281.975993 
L 361.29124 285.3355 
L 363.83991 287.244628 
L 366.113627 288.11885 
L 368.482407 288.192567 
L 370.392045 287.632763 
L 371.773901 286.886928 
L 374.319495 284.779246 
L 376.792773 281.849572 
L 379.291886 278.050868 
L 381.422107 274.188654 
L 383.579638 269.734495 
L 384.368962 267.977592 
L 386.709952 262.39792 
L 389.852456 254.137629 
L 391.092289 250.670741 
L 392.625363 246.24661 
L 394.853058 239.591528 
L 397.975726 229.936007 
L 400.321994 222.539861 
L 401.332786 219.340877 
L 402.992937 214.095294 
L 406.029519 204.618957 
L 408.300489 197.724285 
L 411.035384 189.757038 
L 411.86863 187.420374 
L 414.049326 181.542571 
L 416.874204 174.515184 
L 419.39514 168.889369 
L 421.054843 165.555213 
L 423.725907 160.859084 
L 425.956515 157.611758 
L 427.255249 156.01767 
L 429.35244 153.920074 
L 431.814713 152.227758 
L 434.410544 151.362328 
L 435.005354 151.297778 
L 437.688751 151.625765 
L 439.7371 152.552441 
L 441.210665 153.574803 
L 443.999408 156.301224 
L 446.67585 159.849958 
L 448.875192 163.407037 
L 451.109903 167.569896 
L 452.386994 170.179217 
L 452.386994 216.45651 
z
" clip-path="url(#p2b7da1a297)" style="fill: #b2f5ff; opacity: 0.5"/>
   </g>
   <g id="patch_7">
    <path d="M 31.736704 216.45651 
L 31.736704 216.45651 
L 33.759239 216.456509 
L 36.020191 216.456477 
L 37.098638 216.45641 
L 40.214337 216.455535 
L 41.657176 216.454376 
L 43.529027 216.451466 
L 47.300722 216.436507 
L 48.174198 216.430297 
L 50.38896 216.407555 
L 53.560856 216.350452 
L 54.808988 216.317194 
L 57.532079 216.216201 
L 58.163545 216.186161 
L 61.074847 216.00761 
L 63.300247 215.817805 
L 65.945265 215.517171 
L 66.835099 215.394766 
L 69.885404 214.88009 
L 71.940313 214.438743 
L 74.009253 213.905623 
L 76.7631 213.039577 
L 77.286387 212.852946 
L 81.335112 211.143048 
L 81.989714 210.819092 
L 83.992272 209.738839 
L 87.688848 207.366102 
L 89.858412 205.726824 
L 90.610182 205.113838 
L 93.328462 202.696508 
L 96.115414 199.879418 
L 97.466874 198.385928 
L 100.131323 195.192384 
L 100.497539 194.727377 
L 102.798419 191.660931 
L 106.461291 186.265476 
L 108.521559 182.958026 
L 110.85961 178.974869 
L 112.266601 176.464483 
L 114.439527 172.428384 
L 115.684131 170.034016 
L 118.081891 165.264437 
L 119.873758 161.577125 
L 122.992894 154.944728 
L 124.20089 152.315026 
L 125.918357 148.529943 
L 128.124872 143.607017 
L 130.356724 138.587835 
L 133.674911 131.124783 
L 134.976969 128.218357 
L 137.099476 123.535104 
L 140.240719 116.792492 
L 141.39701 114.386543 
L 143.236667 110.663891 
L 145.480413 106.328423 
L 147.242379 103.107509 
L 149.178779 99.780548 
L 151.445778 96.203668 
L 153.622966 93.128541 
L 156.705138 89.44883 
L 159.237062 87.077134 
L 161.669567 85.400725 
L 162.284104 85.075425 
L 164.314586 84.293872 
L 167.988201 84.073319 
L 168.178645 84.105229 
L 171.739457 85.514859 
L 172.309223 85.885747 
L 174.469745 87.66217 
L 178.012082 91.851505 
L 180.288187 95.38062 
L 182.502706 99.436089 
L 184.138132 102.818134 
L 185.729262 106.417454 
L 189.091418 114.989869 
L 189.760652 116.846997 
L 191.37151 121.513152 
L 193.939235 129.496718 
L 196.482669 138.015342 
L 198.03427 143.483246 
L 201.728228 157.219225 
L 202.153952 158.859581 
L 205.311553 171.327394 
L 207.443839 179.990242 
L 208.267917 183.377227 
L 211.509319 196.832801 
L 214.071347 207.522331 
L 215.408684 213.084045 
L 218.545526 225.981452 
L 219.568878 230.120512 
L 222.792108 242.83553 
L 223.864813 246.934613 
L 226.329433 256.044823 
L 229.196861 266.013018 
L 231.293841 272.804279 
L 231.733784 274.1705 
L 235.275802 284.362044 
L 237.101471 289.011926 
L 239.272134 293.962799 
L 240.907581 297.257746 
L 242.318555 299.788181 
L 245.229405 304.061408 
L 247.049762 306.066241 
L 249.874824 308.134247 
L 251.921354 308.829285 
L 253.499164 308.902246 
L 256.325362 308.02917 
L 257.048977 307.600194 
L 260.840589 304.012689 
L 262.320171 302.01812 
L 264.495369 298.505004 
L 266.903454 293.845194 
L 269.042019 289.068581 
L 271.276477 283.483191 
L 272.978431 278.853174 
L 274.914435 273.226781 
L 276.671912 267.819682 
L 278.714053 261.221624 
L 280.746139 254.368606 
L 282.484186 248.31972 
L 285.667463 236.911349 
L 288.383648 226.976468 
L 290.282759 219.998026 
L 291.148935 216.821373 
L 294.247424 205.571308 
L 294.984903 202.934737 
L 298.269404 191.487915 
L 300.023187 185.628175 
L 301.642076 180.412725 
L 303.675925 174.163429 
L 305.816691 167.998522 
L 308.845635 160.097192 
L 309.861384 157.683259 
L 313.836866 149.485839 
L 314.429371 148.443928 
L 317.046598 144.431423 
L 319.551403 141.522541 
L 321.810626 139.705553 
L 323.903408 138.717856 
L 324.754361 138.50894 
L 326.772996 138.459496 
L 329.539053 139.405293 
L 331.319144 140.624691 
L 333.905163 143.225589 
L 336.819313 147.287144 
L 339.187146 151.419251 
L 339.46713 151.954695 
L 343.089378 159.713673 
L 345.542112 165.770994 
L 346.701702 168.835196 
L 348.809431 174.698515 
L 351.610788 182.997032 
L 353.242593 188.049086 
L 356.102578 197.19212 
L 357.431327 201.529861 
L 359.033899 206.807407 
L 361.772102 215.866009 
L 363.515569 221.608025 
L 365.768963 228.932829 
L 367.962068 235.891614 
L 370.49648 243.636326 
L 372.077945 248.265958 
L 373.163289 251.338285 
L 376.803591 260.919983 
L 378.558737 265.089284 
L 379.694012 267.61307 
L 383.131955 274.357285 
L 385.759058 278.530502 
L 387.362676 280.63372 
L 389.797267 283.156953 
L 392.052065 284.753821 
L 392.789139 285.11897 
L 395.67589 285.798341 
L 396.850358 285.731948 
L 400.226515 284.445967 
L 401.432271 283.598756 
L 403.638237 281.534561 
L 405.488356 279.305652 
L 408.683889 274.442003 
L 410.780032 270.59958 
L 412.537811 267.010762 
L 413.696596 264.474467 
L 415.528047 260.210369 
L 418.437677 252.861804 
L 421.449005 244.640287 
L 422.871898 240.582134 
L 425.859526 231.797836 
L 426.481353 229.936336 
L 430.088013 219.029684 
L 430.414769 218.038513 
L 433.052316 210.073649 
L 434.465357 205.859037 
L 437.361249 197.425513 
L 440.435874 188.906817 
L 442.144112 184.427675 
L 443.203464 181.756579 
L 445.335359 176.657017 
L 447.920183 171.024639 
L 449.940613 167.088252 
L 452.386994 162.919527 
L 452.386994 216.45651 
z
" clip-path="url(#p2b7da1a297)" style="fill: #fff2b2; opacity: 0.5"/>
   </g>
   <g id="matplotlib.axis_1">
    <g id="xtick_1">
     <g id="line2d_1">
      <defs>
       <path id="m3e0bd0b363" d="M 0 0 
L 0 3.5 
" style="stroke: #000000; stroke-width: 0.8"/>
      </defs>
      <g>
       <use xlink:href="#m3e0bd0b363" x="31.736704" y="216.45651" style="stroke: #000000; stroke-width: 0.8"/>
      </g>
     </g>
    </g>
    <g id="xtick_2">
     <g id="line2d_2">
      <g>
       <use xlink:href="#m3e0bd0b363" x="136.899277" y="216.45651" style="stroke: #000000; stroke-width: 0.8"/>
      </g>
     </g>
     <g id="text_1">
      <!-- 5 -->
      <g transform="translate(133.718027 231.054947) scale(0.1 -0.1)">
       <defs>
        <path id="DejaVuSans-35" d="M 691 4666 
L 3169 4666 
L 3169 4134 
L 1269 4134 
L 1269 2991 
Q 1406 3038 1543 3061 
Q 1681 3084 1819 3084 
Q 2600 3084 3056 2656 
Q 3513 2228 3513 1497 
Q 3513 744 3044 326 
Q 2575 -91 1722 -91 
Q 1428 -91 1123 -41 
Q 819 9 494 109 
L 494 744 
Q 775 591 1075 516 
Q 1375 441 1709 441 
Q 2250 441 2565 725 
Q 2881 1009 2881 1497 
Q 2881 1984 2565 2268 
Q 2250 2553 1709 2553 
Q 1456 2553 1204 2497 
Q 953 2441 691 2322 
L 691 4666 
z
" transform="scale(0.015625)"/>
       </defs>
       <use xlink:href="#DejaVuSans-35"/>
      </g>
     </g>
    </g>
    <g id="xtick_3">
     <g id="line2d_3">
      <g>
       <use xlink:href="#m3e0bd0b363" x="242.061849" y="216.45651" style="stroke: #000000; stroke-width: 0.8"/>
      </g>
     </g>
     <g id="text_2">
      <!-- 10 -->
      <g transform="translate(235.699349 231.054947) scale(0.1 -0.1)">
       <defs>
        <path id="DejaVuSans-31" d="M 794 531 
L 1825 531 
L 1825 4091 
L 703 3866 
L 703 4441 
L 1819 4666 
L 2450 4666 
L 2450 531 
L 3481 531 
L 3481 0 
L 794 0 
L 794 531 
z
" transform="scale(0.015625)"/>
        <path id="DejaVuSans-30" d="M 2034 4250 
Q 1547 4250 1301 3770 
Q 1056 3291 1056 2328 
Q 1056 1369 1301 889 
Q 1547 409 2034 409 
Q 2525 409 2770 889 
Q 3016 1369 3016 2328 
Q 3016 3291 2770 3770 
Q 2525 4250 2034 4250 
z
M 2034 4750 
Q 2819 4750 3233 4129 
Q 3647 3509 3647 2328 
Q 3647 1150 3233 529 
Q 2819 -91 2034 -91 
Q 1250 -91 836 529 
Q 422 1150 422 2328 
Q 422 3509 836 4129 
Q 1250 4750 2034 4750 
z
" transform="scale(0.015625)"/>
       </defs>
       <use xlink:href="#DejaVuSans-31"/>
       <use xlink:href="#DejaVuSans-30" transform="translate(63.623047 0)"/>
      </g>
     </g>
    </g>
    <g id="xtick_4">
     <g id="line2d_4">
      <g>
       <use xlink:href="#m3e0bd0b363" x="347.224422" y="216.45651" style="stroke: #000000; stroke-width: 0.8"/>
      </g>
     </g>
     <g id="text_3">
      <!-- 15 -->
      <g transform="translate(340.861922 231.054947) scale(0.1 -0.1)">
       <use xlink:href="#DejaVuSans-31"/>
       <use xlink:href="#DejaVuSans-35" transform="translate(63.623047 0)"/>
      </g>
     </g>
    </g>
    <g id="xtick_5">
     <g id="line2d_5">
      <g>
       <use xlink:href="#m3e0bd0b363" x="452.386994" y="216.45651" style="stroke: #000000; stroke-width: 0.8"/>
      </g>
     </g>
     <g id="text_4">
      <!-- 20 -->
      <g transform="translate(446.024494 231.054947) scale(0.1 -0.1)">
       <defs>
        <path id="DejaVuSans-32" d="M 1228 531 
L 3431 531 
L 3431 0 
L 469 0 
L 469 531 
Q 828 903 1448 1529 
Q 2069 2156 2228 2338 
Q 2531 2678 2651 2914 
Q 2772 3150 2772 3378 
Q 2772 3750 2511 3984 
Q 2250 4219 1831 4219 
Q 1534 4219 1204 4116 
Q 875 4013 500 3803 
L 500 4441 
Q 881 4594 1212 4672 
Q 1544 4750 1819 4750 
Q 2544 4750 2975 4387 
Q 3406 4025 3406 3419 
Q 3406 3131 3298 2873 
Q 3191 2616 2906 2266 
Q 2828 2175 2409 1742 
Q 1991 1309 1228 531 
z
" transform="scale(0.015625)"/>
       </defs>
       <use xlink:href="#DejaVuSans-32"/>
       <use xlink:href="#DejaVuSans-30" transform="translate(63.623047 0)"/>
      </g>
     </g>
    </g>
    <g id="xtick_6">
     <g id="line2d_6">
      <defs>
       <path id="m57dec5cdac" d="M 0 0 
L 0 2 
" style="stroke: #000000; stroke-width: 0.6"/>
      </defs>
      <g>
       <use xlink:href="#m57dec5cdac" x="52.769219" y="216.45651" style="stroke: #000000; stroke-width: 0.6"/>
      </g>
     </g>
    </g>
    <g id="xtick_7">
     <g id="line2d_7">
      <g>
       <use xlink:href="#m57dec5cdac" x="73.801733" y="216.45651" style="stroke: #000000; stroke-width: 0.6"/>
      </g>
     </g>
    </g>
    <g id="xtick_8">
     <g id="line2d_8">
      <g>
       <use xlink:href="#m57dec5cdac" x="94.834248" y="216.45651" style="stroke: #000000; stroke-width: 0.6"/>
      </g>
     </g>
    </g>
    <g id="xtick_9">
     <g id="line2d_9">
      <g>
       <use xlink:href="#m57dec5cdac" x="115.866762" y="216.45651" style="stroke: #000000; stroke-width: 0.6"/>
      </g>
     </g>
    </g>
    <g id="xtick_10">
     <g id="line2d_10">
      <g>
       <use xlink:href="#m57dec5cdac" x="157.931791" y="216.45651" style="stroke: #000000; stroke-width: 0.6"/>
      </g>
     </g>
    </g>
    <g id="xtick_11">
     <g id="line2d_11">
      <g>
       <use xlink:href="#m57dec5cdac" x="178.964306" y="216.45651" style="stroke: #000000; stroke-width: 0.6"/>
      </g>
     </g>
    </g>
    <g id="xtick_12">
     <g id="line2d_12">
      <g>
       <use xlink:href="#m57dec5cdac" x="199.99682" y="216.45651" style="stroke: #000000; stroke-width: 0.6"/>
      </g>
     </g>
    </g>
    <g id="xtick_13">
     <g id="line2d_13">
      <g>
       <use xlink:href="#m57dec5cdac" x="221.029335" y="216.45651" style="stroke: #000000; stroke-width: 0.6"/>
      </g>
     </g>
    </g>
    <g id="xtick_14">
     <g id="line2d_14">
      <g>
       <use xlink:href="#m57dec5cdac" x="263.094364" y="216.45651" style="stroke: #000000; stroke-width: 0.6"/>
      </g>
     </g>
    </g>
    <g id="xtick_15">
     <g id="line2d_15">
      <g>
       <use xlink:href="#m57dec5cdac" x="284.126878" y="216.45651" style="stroke: #000000; stroke-width: 0.6"/>
      </g>
     </g>
    </g>
    <g id="xtick_16">
     <g id="line2d_16">
      <g>
       <use xlink:href="#m57dec5cdac" x="305.159393" y="216.45651" style="stroke: #000000; stroke-width: 0.6"/>
      </g>
     </g>
    </g>
    <g id="xtick_17">
     <g id="line2d_17">
      <g>
       <use xlink:href="#m57dec5cdac" x="326.191907" y="216.45651" style="stroke: #000000; stroke-width: 0.6"/>
      </g>
     </g>
    </g>
    <g id="xtick_18">
     <g id="line2d_18">
      <g>
       <use xlink:href="#m57dec5cdac" x="368.256936" y="216.45651" style="stroke: #000000; stroke-width: 0.6"/>
      </g>
     </g>
    </g>
    <g id="xtick_19">
     <g id="line2d_19">
      <g>
       <use xlink:href="#m57dec5cdac" x="389.289451" y="216.45651" style="stroke: #000000; stroke-width: 0.6"/>
      </g>
     </g>
    </g>
    <g id="xtick_20">
     <g id="line2d_20">
      <g>
       <use xlink:href="#m57dec5cdac" x="410.321965" y="216.45651" style="stroke: #000000; stroke-width: 0.6"/>
      </g>
     </g>
    </g>
    <g id="xtick_21">
     <g id="line2d_21">
      <g>
       <use xlink:href="#m57dec5cdac" x="431.35448" y="216.45651" style="stroke: #000000; stroke-width: 0.6"/>
      </g>
     </g>
    </g>
   </g>
   <g id="matplotlib.axis_2">
    <g id="ytick_1">
     <g id="line2d_22">
      <defs>
       <path id="me7b293aa02" d="M 0 0 
L -3.5 0 
" style="stroke: #000000; stroke-width: 0.8"/>
      </defs>
      <g>
       <use xlink:href="#me7b293aa02" x="31.736704" y="287.286787" style="stroke: #000000; stroke-width: 0.8"/>
      </g>
     </g>
     <g id="text_5">
      <!-- −0.2 -->
      <g transform="translate(0.453892 291.086005) scale(0.1 -0.1)">
       <defs>
        <path id="DejaVuSans-2212" d="M 678 2272 
L 4684 2272 
L 4684 1741 
L 678 1741 
L 678 2272 
z
" transform="scale(0.015625)"/>
        <path id="DejaVuSans-2e" d="M 684 794 
L 1344 794 
L 1344 0 
L 684 0 
L 684 794 
z
" transform="scale(0.015625)"/>
       </defs>
       <use xlink:href="#DejaVuSans-2212"/>
       <use xlink:href="#DejaVuSans-30" transform="translate(83.789062 0)"/>
       <use xlink:href="#DejaVuSans-2e" transform="translate(147.412109 0)"/>
       <use xlink:href="#DejaVuSans-32" transform="translate(179.199219 0)"/>
      </g>
     </g>
    </g>
    <g id="ytick_2">
     <g id="line2d_23">
      <g>
       <use xlink:href="#me7b293aa02" x="31.736704" y="216.45651" style="stroke: #000000; stroke-width: 0.8"/>
      </g>
     </g>
    </g>
    <g id="ytick_3">
     <g id="line2d_24">
      <g>
       <use xlink:href="#me7b293aa02" x="31.736704" y="145.626232" style="stroke: #000000; stroke-width: 0.8"/>
      </g>
     </g>
     <g id="text_6">
      <!-- 0.2 -->
      <g transform="translate(8.833579 149.425451) scale(0.1 -0.1)">
       <use xlink:href="#DejaVuSans-30"/>
       <use xlink:href="#DejaVuSans-2e" transform="translate(63.623047 0)"/>
       <use xlink:href="#DejaVuSans-32" transform="translate(95.410156 0)"/>
      </g>
     </g>
    </g>
    <g id="ytick_4">
     <g id="line2d_25">
      <g>
       <use xlink:href="#me7b293aa02" x="31.736704" y="74.795955" style="stroke: #000000; stroke-width: 0.8"/>
      </g>
     </g>
     <g id="text_7">
      <!-- 0.4 -->
      <g transform="translate(8.833579 78.595174) scale(0.1 -0.1)">
       <defs>
        <path id="DejaVuSans-34" d="M 2419 4116 
L 825 1625 
L 2419 1625 
L 2419 4116 
z
M 2253 4666 
L 3047 4666 
L 3047 1625 
L 3713 1625 
L 3713 1100 
L 3047 1100 
L 3047 0 
L 2419 0 
L 2419 1100 
L 313 1100 
L 313 1709 
L 2253 4666 
z
" transform="scale(0.015625)"/>
       </defs>
       <use xlink:href="#DejaVuSans-30"/>
       <use xlink:href="#DejaVuSans-2e" transform="translate(63.623047 0)"/>
       <use xlink:href="#DejaVuSans-34" transform="translate(95.410156 0)"/>
      </g>
     </g>
    </g>
    <g id="ytick_5">
     <g id="line2d_26">
      <g>
       <use xlink:href="#me7b293aa02" x="31.736704" y="3.965678" style="stroke: #000000; stroke-width: 0.8"/>
      </g>
     </g>
     <g id="text_8">
      <!-- 0.6 -->
      <g transform="translate(8.833579 7.764897) scale(0.1 -0.1)">
       <defs>
        <path id="DejaVuSans-36" d="M 2113 2584 
Q 1688 2584 1439 2293 
Q 1191 2003 1191 1497 
Q 1191 994 1439 701 
Q 1688 409 2113 409 
Q 2538 409 2786 701 
Q 3034 994 3034 1497 
Q 3034 2003 2786 2293 
Q 2538 2584 2113 2584 
z
M 3366 4563 
L 3366 3988 
Q 3128 4100 2886 4159 
Q 2644 4219 2406 4219 
Q 1781 4219 1451 3797 
Q 1122 3375 1075 2522 
Q 1259 2794 1537 2939 
Q 1816 3084 2150 3084 
Q 2853 3084 3261 2657 
Q 3669 2231 3669 1497 
Q 3669 778 3244 343 
Q 2819 -91 2113 -91 
Q 1303 -91 875 529 
Q 447 1150 447 2328 
Q 447 3434 972 4092 
Q 1497 4750 2381 4750 
Q 2619 4750 2861 4703 
Q 3103 4656 3366 4563 
z
" transform="scale(0.015625)"/>
       </defs>
       <use xlink:href="#DejaVuSans-30"/>
       <use xlink:href="#DejaVuSans-2e" transform="translate(63.623047 0)"/>
       <use xlink:href="#DejaVuSans-36" transform="translate(95.410156 0)"/>
      </g>
     </g>
    </g>
    <g id="ytick_6">
     <g id="line2d_27">
      <defs>
       <path id="mec28f5cfc5" d="M 0 0 
L -2 0 
" style="stroke: #000000; stroke-width: 0.6"/>
      </defs>
      <g>
       <use xlink:href="#mec28f5cfc5" x="31.736704" y="340.409495" style="stroke: #000000; stroke-width: 0.6"/>
      </g>
     </g>
    </g>
    <g id="ytick_7">
     <g id="line2d_28">
      <g>
       <use xlink:href="#mec28f5cfc5" x="31.736704" y="322.701925" style="stroke: #000000; stroke-width: 0.6"/>
      </g>
     </g>
    </g>
    <g id="ytick_8">
     <g id="line2d_29">
      <g>
       <use xlink:href="#mec28f5cfc5" x="31.736704" y="304.994356" style="stroke: #000000; stroke-width: 0.6"/>
      </g>
     </g>
    </g>
    <g id="ytick_9">
     <g id="line2d_30">
      <g>
       <use xlink:href="#mec28f5cfc5" x="31.736704" y="269.579217" style="stroke: #000000; stroke-width: 0.6"/>
      </g>
     </g>
    </g>
    <g id="ytick_10">
     <g id="line2d_31">
      <g>
       <use xlink:href="#mec28f5cfc5" x="31.736704" y="251.871648" style="stroke: #000000; stroke-width: 0.6"/>
      </g>
     </g>
    </g>
    <g id="ytick_11">
     <g id="line2d_32">
      <g>
       <use xlink:href="#mec28f5cfc5" x="31.736704" y="234.164079" style="stroke: #000000; stroke-width: 0.6"/>
      </g>
     </g>
    </g>
    <g id="ytick_12">
     <g id="line2d_33">
      <g>
       <use xlink:href="#mec28f5cfc5" x="31.736704" y="198.74894" style="stroke: #000000; stroke-width: 0.6"/>
      </g>
     </g>
    </g>
    <g id="ytick_13">
     <g id="line2d_34">
      <g>
       <use xlink:href="#mec28f5cfc5" x="31.736704" y="181.041371" style="stroke: #000000; stroke-width: 0.6"/>
      </g>
     </g>
    </g>
    <g id="ytick_14">
     <g id="line2d_35">
      <g>
       <use xlink:href="#mec28f5cfc5" x="31.736704" y="163.333802" style="stroke: #000000; stroke-width: 0.6"/>
      </g>
     </g>
    </g>
    <g id="ytick_15">
     <g id="line2d_36">
      <g>
       <use xlink:href="#mec28f5cfc5" x="31.736704" y="127.918663" style="stroke: #000000; stroke-width: 0.6"/>
      </g>
     </g>
    </g>
    <g id="ytick_16">
     <g id="line2d_37">
      <g>
       <use xlink:href="#mec28f5cfc5" x="31.736704" y="110.211094" style="stroke: #000000; stroke-width: 0.6"/>
      </g>
     </g>
    </g>
    <g id="ytick_17">
     <g id="line2d_38">
      <g>
       <use xlink:href="#mec28f5cfc5" x="31.736704" y="92.503525" style="stroke: #000000; stroke-width: 0.6"/>
      </g>
     </g>
    </g>
    <g id="ytick_18">
     <g id="line2d_39">
      <g>
       <use xlink:href="#mec28f5cfc5" x="31.736704" y="57.088386" style="stroke: #000000; stroke-width: 0.6"/>
      </g>
     </g>
    </g>
    <g id="ytick_19">
     <g id="line2d_40">
      <g>
       <use xlink:href="#mec28f5cfc5" x="31.736704" y="39.380817" style="stroke: #000000; stroke-width: 0.6"/>
      </g>
     </g>
    </g>
    <g id="ytick_20">
     <g id="line2d_41">
      <g>
       <use xlink:href="#mec28f5cfc5" x="31.736704" y="21.673247" style="stroke: #000000; stroke-width: 0.6"/>
      </g>
     </g>
    </g>
   </g>
   <g id="line2d_42">
    <path d="M 31.736704 216.45651 
L 38.365915 161.334462 
L 42.127669 131.615597 
L 46.681578 98.409153 
L 50.181165 75.626971 
L 52.435518 62.453407 
L 54.13868 53.362059 
L 55.841843 45.058849 
L 58.564357 33.515157 
L 60.468987 26.763652 
L 62.586896 20.586391 
L 65.26679 14.833224 
L 68.181826 11.243512 
L 69.860272 10.447524 
L 72.335859 10.963251 
L 73.818489 12.226855 
L 76.619702 16.526205 
L 77.891172 19.2829 
L 79.644713 23.883054 
L 81.398255 29.378415 
L 84.02031 39.182108 
L 85.870149 47.172957 
L 88.139446 58.09476 
L 91.110396 74.072474 
L 94.201289 92.43105 
L 96.289389 105.663017 
L 100.53662 134.114846 
L 114.496185 230.948163 
L 118.933175 258.855254 
L 122.001846 276.386815 
L 125.669109 294.99429 
L 127.684478 303.994101 
L 129.914373 312.850023 
L 131.406081 318.096584 
L 132.960544 322.965011 
L 135.954781 330.566553 
L 136.900401 332.471237 
L 139.194358 336.087663 
L 140.650404 337.641685 
L 143.608094 339.028383 
L 144.962923 338.878523 
L 146.737507 337.948832 
L 148.512091 336.204283 
L 149.993195 334.140905 
L 152.120286 330.244989 
L 154.995725 323.322178 
L 155.796502 321.074328 
L 158.293732 313.233019 
L 162.712859 296.604374 
L 165.809335 283.217589 
L 169.980084 263.525878 
L 175.465792 235.94215 
L 182.254997 201.68022 
L 186.636799 180.952554 
L 188.081491 174.533878 
L 192.141353 157.928829 
L 193.684479 152.253551 
L 197.851282 138.952627 
L 200.159526 132.972445 
L 203.302939 126.547628 
L 205.044234 123.876225 
L 208.109377 120.753765 
L 208.818751 120.32112 
L 211.535718 119.674181 
L 212.847517 119.932252 
L 216.483307 122.550271 
L 218.107364 124.597741 
L 219.138594 126.169085 
L 221.882731 131.335008 
L 223.867801 135.917249 
L 226.699298 143.578689 
L 229.58551 152.605242 
L 233.711045 167.277883 
L 238.482256 186.139181 
L 245.530718 215.701044 
L 250.538454 236.357051 
L 253.914578 249.463156 
L 257.129876 260.989512 
L 261.196825 273.842064 
L 263.615067 280.404633 
L 266.476109 286.999715 
L 267.870609 289.72491 
L 271.530805 295.265543 
L 273.276709 297.058093 
L 275.941375 298.70928 
L 277.949779 299.081588 
L 279.958184 298.706555 
L 281.663202 297.8084 
L 282.506635 297.170178 
L 285.884936 293.36298 
L 286.753753 292.070223 
L 290.150078 285.858339 
L 292.499006 280.55439 
L 293.865152 277.123184 
L 297.689834 266.316349 
L 299.389027 261.020222 
L 304.024746 245.38693 
L 310.506026 221.839613 
L 314.803629 206.112105 
L 318.72741 192.314921 
L 323.122428 178.086524 
L 327.271159 166.354195 
L 330.191388 159.3235 
L 331.595957 156.347328 
L 333.278584 153.151464 
L 336.484202 148.236998 
L 337.455142 147.064156 
L 340.553505 144.336597 
L 342.95092 143.305579 
L 345.249024 143.208501 
L 346.933647 143.688891 
L 349.602591 145.389883 
L 351.600382 147.397998 
L 353.335421 149.634178 
L 355.107753 152.371826 
L 357.843231 157.445646 
L 359.105273 160.111675 
L 362.541656 168.308602 
L 364.843264 174.47729 
L 367.459918 182.0398 
L 373.167973 199.991991 
L 383.947417 235.220266 
L 387.706105 246.567298 
L 391.518056 256.980795 
L 394.327033 263.7584 
L 397.863245 271.014804 
L 399.847046 274.397074 
L 401.830126 277.248207 
L 404.220052 279.949004 
L 406.885288 281.979888 
L 408.852627 282.800931 
L 409.98615 283.010226 
L 411.771457 282.948673 
L 414.835729 281.736789 
L 416.007138 280.910239 
L 418.365247 278.654368 
L 419.655664 277.094557 
L 422.038879 273.635777 
L 425.452497 267.462384 
L 427.826822 262.403362 
L 429.563354 258.350159 
L 432.32079 251.378985 
L 436.696083 239.245854 
L 442.561467 221.755666 
L 448.339793 204.364423 
L 452.386994 192.787466 
L 452.386994 192.787466 
" clip-path="url(#p2b7da1a297)" style="fill: none; stroke: #0000cc; stroke-linecap: square"/>
   </g>
   <g id="line2d_43">
    <path d="M 31.736704 216.45651 
L 33.623844 216.100359 
L 36.532559 214.164767 
L 37.945867 212.626273 
L 40.569221 208.763588 
L 41.543448 207.005455 
L 43.62998 202.674634 
L 45.686015 197.688034 
L 47.76761 191.961434 
L 50.130719 184.704969 
L 51.844167 178.990975 
L 56.187142 163.089817 
L 58.924201 152.263338 
L 73.930798 91.014031 
L 75.164318 86.450032 
L 78.92501 73.561884 
L 80.658105 68.233476 
L 82.346831 63.467546 
L 84.015442 59.206457 
L 87.461926 51.948981 
L 89.019703 49.402996 
L 92.221099 45.710834 
L 95.341635 44.206871 
L 96.483281 44.191103 
L 98.710409 44.999528 
L 101.638636 47.763609 
L 103.817134 51.071358 
L 105.94671 55.322972 
L 107.770412 59.747275 
L 110.94118 69.098235 
L 113.131179 76.726108 
L 115.340342 85.324374 
L 117.992099 96.749571 
L 119.768601 105.016782 
L 124.175873 127.335114 
L 130.364329 161.830705 
L 140.864743 222.787091 
L 143.30038 236.345646 
L 148.623451 263.987173 
L 151.19218 276.03729 
L 153.468063 285.860452 
L 155.866065 295.245819 
L 159.405388 307.108219 
L 161.065864 311.797265 
L 162.2714 314.834435 
L 165.024172 320.575735 
L 166.957673 323.591452 
L 168.712836 325.589498 
L 171.767698 327.375549 
L 172.490408 327.48392 
L 174.443716 327.179745 
L 176.397024 326.014182 
L 177.777094 324.681115 
L 179.668476 322.185843 
L 180.839829 320.2632 
L 184.154618 313.33131 
L 186.932666 305.936902 
L 188.240953 301.995083 
L 191.53827 290.887565 
L 196.20073 272.768834 
L 200.25598 255.323572 
L 216.113172 184.216803 
L 219.435498 171.037617 
L 221.803396 162.420042 
L 225.243655 151.265369 
L 228.306176 142.877071 
L 229.678799 139.630623 
L 231.875433 135.133607 
L 233.608864 132.212744 
L 236.266728 128.844498 
L 239.12608 126.7546 
L 241.699271 126.24616 
L 242.233539 126.303253 
L 245.864723 128.153051 
L 247.856298 130.226033 
L 248.935627 131.652467 
L 251.1936 135.30112 
L 252.752982 138.325199 
L 256.462713 147.053068 
L 259.022077 154.212473 
L 263.055933 167.08195 
L 266.093227 177.798668 
L 272.218513 201.104856 
L 278.90594 227.225183 
L 283.158862 243.086971 
L 285.204333 250.283835 
L 289.139848 263.045526 
L 290.972794 268.409326 
L 294.952365 278.563031 
L 298.169469 285.104887 
L 300.91844 289.405494 
L 302.238384 291.028558 
L 305.276127 293.642139 
L 307.217218 294.480746 
L 309.236108 294.661014 
L 311.690863 293.934982 
L 313.560906 292.696203 
L 315.672721 290.602299 
L 317.851586 287.695693 
L 319.770731 284.53578 
L 322.232787 279.708081 
L 324.159292 275.366358 
L 326.057653 270.644167 
L 328.860723 262.951803 
L 332.788157 250.976201 
L 336.303552 239.383856 
L 348.666577 196.936509 
L 352.958234 183.402264 
L 356.374055 173.691772 
L 358.420645 168.435813 
L 363.1227 158.238734 
L 365.89487 153.597375 
L 367.653968 151.222672 
L 370.634424 148.255279 
L 373.136016 146.818175 
L 375.289077 146.362688 
L 379.316547 147.447737 
L 381.285549 148.880752 
L 383.182308 150.803791 
L 384.099606 151.91953 
L 386.193266 154.903693 
L 389.356376 160.503062 
L 391.415222 164.797027 
L 394.672247 172.51484 
L 397.196341 179.169529 
L 401.879352 192.713621 
L 406.572879 207.270448 
L 414.254072 231.33539 
L 416.423366 237.826207 
L 420.325173 248.803069 
L 421.818491 252.704686 
L 426.197172 262.955685 
L 429.123854 268.665402 
L 431.579786 272.660719 
L 434.146951 276.003443 
L 435.657126 277.554071 
L 437.40062 278.95011 
L 440.491558 280.365921 
L 441.064701 280.47814 
L 443.413848 280.445689 
L 446.662833 279.107124 
L 447.52225 278.506229 
L 451.076025 274.963273 
L 452.386994 273.241622 
L 452.386994 273.241622 
" clip-path="url(#p2b7da1a297)" style="fill: none; stroke: #3ccc00; stroke-linecap: square"/>
   </g>
   <g id="line2d_44">
    <path d="M 31.736704 216.45651 
L 37.091704 216.335229 
L 40.385279 215.948919 
L 43.131417 215.304642 
L 45.41571 214.479877 
L 48.558755 212.830096 
L 51.123683 210.978556 
L 53.708667 208.603192 
L 55.871817 206.195731 
L 57.447322 204.191612 
L 59.221914 201.675258 
L 60.637154 199.469495 
L 63.178906 195.063221 
L 66.490735 188.475594 
L 69.555096 181.561182 
L 71.848246 175.906272 
L 75.916979 164.972825 
L 79.379977 154.912828 
L 85.650206 135.559077 
L 92.684201 113.509187 
L 96.66672 101.625006 
L 99.425518 93.915654 
L 101.814349 87.703468 
L 103.755238 83.033489 
L 107.294287 75.537803 
L 110.402598 70.202589 
L 113.057142 66.688552 
L 114.032057 65.656779 
L 117.124336 63.358695 
L 118.8759 62.741791 
L 120.428879 62.624448 
L 122.164065 62.98162 
L 124.734174 64.475234 
L 127.665917 67.603196 
L 128.633038 68.969009 
L 130.357956 71.814421 
L 132.823636 76.782889 
L 135.491574 83.325573 
L 136.540742 86.220895 
L 140.518104 98.765946 
L 142.031882 104.156696 
L 145.088807 115.984418 
L 150.488967 139.524662 
L 154.508938 158.728509 
L 159.861221 185.609906 
L 168.381678 228.6491 
L 173.497877 252.815662 
L 175.45796 261.452976 
L 177.905285 271.62731 
L 180.961008 283.237282 
L 183.357764 291.386161 
L 187.101004 302.236522 
L 189.696199 308.306093 
L 193.050809 314.272484 
L 194.022299 315.591633 
L 197.013389 318.474746 
L 199.496004 319.504014 
L 201.022417 319.5219 
L 202.092973 319.256578 
L 205.105912 317.2964 
L 207.613266 314.332814 
L 210.380648 309.717346 
L 212.628701 304.984872 
L 215.270526 298.375295 
L 217.307943 292.564727 
L 219.465957 285.796066 
L 221.82422 277.754705 
L 224.307464 268.660334 
L 229.497012 248.093117 
L 243.392721 190.525236 
L 246.877742 177.409542 
L 249.12621 169.556028 
L 251.908235 160.633918 
L 254.490363 153.246676 
L 256.090902 149.141997 
L 258.638597 143.413131 
L 260.756862 139.444038 
L 262.918156 136.17218 
L 263.913255 134.937106 
L 266.658996 132.435594 
L 269.068244 131.350828 
L 270.581849 131.202772 
L 272.803341 131.727374 
L 275.172088 133.245659 
L 276.228951 134.236058 
L 279.471865 138.439729 
L 280.919927 140.862591 
L 282.599855 144.073742 
L 284.388698 147.942684 
L 286.755489 153.725763 
L 290.804888 165.171463 
L 294.981434 178.638873 
L 300.669189 198.767482 
L 310.571643 234.830606 
L 314.514464 248.18421 
L 317.587644 257.756953 
L 321.337866 268.154767 
L 323.532736 273.475073 
L 325.124988 276.943595 
L 329.316823 284.370488 
L 331.176917 286.826918 
L 334.700093 289.992482 
L 337.20446 291.031348 
L 339.659491 291.064111 
L 342.418704 289.945004 
L 344.45831 288.346853 
L 347.055076 285.395455 
L 348.638692 283.111085 
L 352.206199 276.705402 
L 355.89674 268.416511 
L 357.678972 263.882939 
L 360.027074 257.454474 
L 364.112436 245.261117 
L 369.121598 229.146266 
L 378.166612 199.523694 
L 381.579139 189.048359 
L 386.775308 174.704848 
L 388.365262 170.811315 
L 390.451845 166.113285 
L 392.815719 161.403852 
L 394.530896 158.423563 
L 396.531068 155.438241 
L 400.230408 151.379515 
L 402.580536 149.825599 
L 404.588909 149.14266 
L 406.247278 149.0294 
L 409.037405 149.754892 
L 409.747383 150.121063 
L 412.44003 152.165198 
L 413.756359 153.533434 
L 416.399863 156.982721 
L 417.914752 159.363183 
L 419.885717 162.874738 
L 421.784583 166.673282 
L 423.999869 171.576969 
L 427.534339 180.319582 
L 430.550927 188.511338 
L 435.354114 202.506101 
L 446.049972 234.518475 
L 450.117215 245.717439 
L 452.386994 251.482575 
L 452.386994 251.482575 
" clip-path="url(#p2b7da1a297)" style="fill: none; stroke: #cc0077; stroke-linecap: square"/>
   </g>
   <g id="line2d_45">
    <path d="M 31.736704 216.45651 
L 43.978224 216.352453 
L 47.724021 216.157408 
L 52.992483 215.542549 
L 54.708904 215.220367 
L 58.476293 214.23538 
L 62.984274 212.436955 
L 64.56852 211.614679 
L 69.27011 208.497376 
L 71.59897 206.540625 
L 74.501151 203.684989 
L 77.789599 199.85943 
L 80.119639 196.755794 
L 82.790762 192.78995 
L 85.945122 187.546655 
L 90.530863 178.875673 
L 92.741012 174.279233 
L 96.974586 164.799258 
L 102.012496 152.568382 
L 109.493649 133.29749 
L 115.311494 118.292238 
L 120.230264 106.292283 
L 123.814069 98.284111 
L 127.263748 91.387816 
L 129.947959 86.694885 
L 131.653861 84.06145 
L 132.999808 82.191525 
L 134.629945 80.187247 
L 136.888492 77.910448 
L 139.60348 75.993396 
L 140.940328 75.395971 
L 142.786024 74.962628 
L 146.800762 75.650616 
L 148.775939 76.835485 
L 151.554206 79.467943 
L 154.390688 83.327863 
L 157.704531 89.327724 
L 159.790579 93.912083 
L 163.566671 103.734943 
L 166.666027 113.180756 
L 168.271213 118.5277 
L 173.387074 137.407477 
L 176.662849 150.744271 
L 182.476392 176.110511 
L 194.236113 229.402364 
L 198.196132 246.403996 
L 201.951224 261.441937 
L 204.561838 271.091493 
L 206.845715 278.89568 
L 210.048714 288.709339 
L 211.382918 292.373595 
L 213.412363 297.436572 
L 216.213396 303.359147 
L 218.794998 307.668348 
L 220.162138 309.488111 
L 221.878319 311.309615 
L 224.803498 313.209255 
L 226.868136 313.628239 
L 227.814219 313.565285 
L 230.629408 312.4372 
L 233.403677 309.970979 
L 234.260298 308.944333 
L 238.006823 303.042403 
L 240.355492 298.228325 
L 243.962947 289.30855 
L 246.111701 283.200928 
L 248.04127 277.267159 
L 251.7304 264.905401 
L 255.761117 250.207329 
L 261.440401 228.269863 
L 268.355354 201.430913 
L 273.275811 183.514091 
L 274.333249 179.88829 
L 278.46794 166.709453 
L 280.543816 160.785102 
L 282.931327 154.625955 
L 285.813495 148.210691 
L 287.766134 144.544343 
L 290.144358 140.86207 
L 291.468687 139.196831 
L 293.888102 136.885156 
L 295.837472 135.720695 
L 298.91886 135.163457 
L 300.774035 135.585022 
L 302.091493 136.226465 
L 304.88314 138.506959 
L 305.886442 139.625566 
L 308.933446 143.953555 
L 309.736141 145.318523 
L 312.127828 149.911 
L 315.811148 158.407529 
L 317.413046 162.587196 
L 320.787808 172.217411 
L 323.262933 179.880915 
L 328.162633 196.122297 
L 341.059333 240.197935 
L 345.034983 252.459354 
L 346.252022 255.962361 
L 349.55569 264.756868 
L 351.379884 269.113487 
L 354.038069 274.752625 
L 356.149533 278.587152 
L 358.378246 281.975993 
L 361.29124 285.3355 
L 363.83991 287.244628 
L 366.113627 288.11885 
L 368.482407 288.192567 
L 370.392045 287.632763 
L 371.773901 286.886928 
L 374.319495 284.779246 
L 376.792773 281.849572 
L 379.291886 278.050868 
L 381.422107 274.188654 
L 384.368962 267.977592 
L 386.709952 262.39792 
L 391.092289 250.670741 
L 394.853058 239.591528 
L 402.992937 214.095294 
L 408.300489 197.724285 
L 411.86863 187.420374 
L 414.049326 181.542571 
L 416.874204 174.515184 
L 419.39514 168.889369 
L 421.054843 165.555213 
L 423.725907 160.859084 
L 425.956515 157.611758 
L 427.255249 156.01767 
L 429.35244 153.920074 
L 431.814713 152.227758 
L 434.410544 151.362328 
L 435.005354 151.297778 
L 437.688751 151.625765 
L 439.7371 152.552441 
L 441.210665 153.574803 
L 443.999408 156.301224 
L 446.67585 159.849958 
L 448.875192 163.407037 
L 452.386994 170.179217 
L 452.386994 170.179217 
" clip-path="url(#p2b7da1a297)" style="fill: none; stroke: #00b3cc; stroke-linecap: square"/>
   </g>
   <g id="line2d_46">
    <path d="M 31.736704 216.45651 
L 53.560856 216.350452 
L 58.163545 216.186161 
L 63.300247 215.817805 
L 66.835099 215.394766 
L 71.940313 214.438743 
L 74.009253 213.905623 
L 77.286387 212.852946 
L 81.989714 210.819092 
L 83.992272 209.738839 
L 87.688848 207.366102 
L 90.610182 205.113838 
L 93.328462 202.696508 
L 97.466874 198.385928 
L 100.497539 194.727377 
L 102.798419 191.660931 
L 106.461291 186.265476 
L 108.521559 182.958026 
L 112.266601 176.464483 
L 115.684131 170.034016 
L 119.873758 161.577125 
L 125.918357 148.529943 
L 140.240719 116.792492 
L 143.236667 110.663891 
L 147.242379 103.107509 
L 149.178779 99.780548 
L 151.445778 96.203668 
L 153.622966 93.128541 
L 156.705138 89.44883 
L 159.237062 87.077134 
L 162.284104 85.075425 
L 164.314586 84.293872 
L 168.178645 84.105229 
L 171.739457 85.514859 
L 172.309223 85.885747 
L 174.469745 87.66217 
L 178.012082 91.851505 
L 180.288187 95.38062 
L 182.502706 99.436089 
L 184.138132 102.818134 
L 185.729262 106.417454 
L 189.760652 116.846997 
L 191.37151 121.513152 
L 193.939235 129.496718 
L 198.03427 143.483246 
L 202.153952 158.859581 
L 208.267917 183.377227 
L 219.568878 230.120512 
L 223.864813 246.934613 
L 226.329433 256.044823 
L 229.196861 266.013018 
L 231.733784 274.1705 
L 235.275802 284.362044 
L 237.101471 289.011926 
L 239.272134 293.962799 
L 240.907581 297.257746 
L 242.318555 299.788181 
L 245.229405 304.061408 
L 247.049762 306.066241 
L 249.874824 308.134247 
L 251.921354 308.829285 
L 253.499164 308.902246 
L 256.325362 308.02917 
L 257.048977 307.600194 
L 260.840589 304.012689 
L 262.320171 302.01812 
L 264.495369 298.505004 
L 266.903454 293.845194 
L 269.042019 289.068581 
L 271.276477 283.483191 
L 272.978431 278.853174 
L 276.671912 267.819682 
L 280.746139 254.368606 
L 285.667463 236.911349 
L 294.984903 202.934737 
L 300.023187 185.628175 
L 303.675925 174.163429 
L 305.816691 167.998522 
L 309.861384 157.683259 
L 314.429371 148.443928 
L 317.046598 144.431423 
L 319.551403 141.522541 
L 321.810626 139.705553 
L 323.903408 138.717856 
L 324.754361 138.50894 
L 326.772996 138.459496 
L 329.539053 139.405293 
L 331.319144 140.624691 
L 333.905163 143.225589 
L 336.819313 147.287144 
L 339.46713 151.954695 
L 343.089378 159.713673 
L 346.701702 168.835196 
L 348.809431 174.698515 
L 353.242593 188.049086 
L 359.033899 206.807407 
L 365.768963 228.932829 
L 370.49648 243.636326 
L 373.163289 251.338285 
L 376.803591 260.919983 
L 379.694012 267.61307 
L 383.131955 274.357285 
L 385.759058 278.530502 
L 387.362676 280.63372 
L 389.797267 283.156953 
L 392.052065 284.753821 
L 392.789139 285.11897 
L 395.67589 285.798341 
L 396.850358 285.731948 
L 400.226515 284.445967 
L 401.432271 283.598756 
L 403.638237 281.534561 
L 405.488356 279.305652 
L 408.683889 274.442003 
L 410.780032 270.59958 
L 413.696596 264.474467 
L 415.528047 260.210369 
L 418.437677 252.861804 
L 422.871898 240.582134 
L 430.088013 219.029684 
L 434.465357 205.859037 
L 437.361249 197.425513 
L 442.144112 184.427675 
L 445.335359 176.657017 
L 447.920183 171.024639 
L 449.940613 167.088252 
L 452.386994 162.919527 
L 452.386994 162.919527 
" clip-path="url(#p2b7da1a297)" style="fill: none; stroke: #ccaa00; stroke-linecap: square"/>
   </g>
   <g id="patch_8">
    <path d="M 31.736704 345.6 
L 31.736704 3.875907 
" style="fill: none; stroke: #000000; stroke-width: 0.8; stroke-linejoin: miter; stroke-linecap: square"/>
   </g>
   <g id="patch_9">
    <path d="M 23.323698 216.45651 
L 460.8 216.45651 
" style="fill: none; stroke: #000000; stroke-width: 0.8; stroke-linejoin: miter; stroke-linecap: square"/>
   </g>
  </g>
 </g>
 <defs>
  <clipPath id="p2b7da1a297">
   <rect x="23.323698" y="3.875907" width="437.476302" height="341.724093"/>
  </clipPath>
 </defs>
</svg>
