<?xml version="1.0" encoding="utf-8" standalone="no"?>
<!DOCTYPE svg PUBLIC "-//W3C//DTD SVG 1.1//EN"
  "http://www.w3.org/Graphics/SVG/1.1/DTD/svg11.dtd">
<svg xmlns:xlink="http://www.w3.org/1999/xlink" width="460.8pt" height="345.6pt" viewBox="0 0 460.8 345.6" xmlns="http://www.w3.org/2000/svg" version="1.1">
 <metadata>
  <rdf:RDF xmlns:dc="http://purl.org/dc/elements/1.1/" xmlns:cc="http://creativecommons.org/ns#" xmlns:rdf="http://www.w3.org/1999/02/22-rdf-syntax-ns#">
   <cc:Work>
    <dc:type rdf:resource="http://purl.org/dc/dcmitype/StillImage"/>
    <dc:date>2025-08-03T19:01:24.197894</dc:date>
    <dc:format>image/svg+xml</dc:format>
    <dc:creator>
     <cc:Agent>
      <dc:title>Matplotlib v3.10.3, https://matplotlib.org/</dc:title>
     </cc:Agent>
    </dc:creator>
   </cc:Work>
  </rdf:RDF>
 </metadata>
 <defs>
  <style type="text/css">*{stroke-linejoin: round; stroke-linecap: butt}</style>
 </defs>
 <g id="figure_1">
  <g id="patch_1">
   <path d="M 0 345.6 
L 460.8 345.6 
L 460.8 0 
L 0 0 
z
" style="fill: #ffffff"/>
  </g>
  <g id="axes_1">
   <g id="patch_2">
    <path d="M 17.474394 345.6 
L 443.325606 345.6 
L 443.325606 0 
L 17.474394 0 
z
" style="fill: #ffffff"/>
   </g>
   <g id="patch_3">
    <path d="M 196.469129 131.124865 
L 196.469129 131.124865 
L 196.469129 131.124865 
L 196.469129 131.124865 
L 196.469129 131.124865 
L 196.469129 131.124865 
L 196.469129 131.124865 
L 196.469129 131.124865 
L 196.469129 131.124865 
L 196.469129 131.124865 
L 196.469129 131.124865 
L 196.469129 131.124865 
L 196.469129 131.124865 
L 196.469129 131.124865 
L 196.469129 131.124865 
L 196.469129 131.124865 
L 196.469129 131.124865 
L 196.469129 131.124865 
L 196.469129 131.124865 
L 196.469129 131.124865 
L 196.469129 131.124865 
L 196.469129 131.124865 
L 196.469129 131.124865 
L 196.469129 131.124865 
L 196.469129 131.124865 
L 196.469129 131.124865 
L 196.469129 131.124865 
L 196.469129 131.124865 
L 196.469129 131.124865 
L 196.469129 131.124865 
L 196.469129 131.124865 
L 196.469129 131.124865 
L 196.469129 131.124865 
L 196.469129 131.124865 
L 196.469129 131.124865 
L 196.469129 131.124865 
L 196.469129 131.124865 
L 196.469129 131.124865 
L 196.469129 131.124865 
L 196.469129 131.124865 
L 196.469129 131.124865 
L 196.469129 131.124865 
L 196.469129 131.124865 
L 196.469129 131.124865 
L 196.469129 131.124865 
L 196.469129 131.124865 
L 196.469129 131.124865 
L 196.469129 131.124865 
L 196.469129 131.124865 
L 196.469129 131.124865 
L 196.469129 131.124865 
L 196.469129 131.124865 
L 196.469129 131.124865 
L 196.469129 131.124865 
L 196.469129 131.124865 
L 196.469129 131.124865 
L 196.469129 131.124865 
L 196.469129 131.124865 
L 196.469129 131.124865 
L 196.469129 131.124865 
L 196.469129 131.124865 
L 196.469129 131.124865 
L 196.469129 131.124865 
L 196.469129 131.124865 
L 196.469129 131.124865 
L 196.469129 131.124865 
L 196.469129 131.124865 
L 196.469129 131.124865 
L 196.469129 131.124865 
L 196.469129 131.124865 
L 196.469129 131.124865 
L 196.469129 131.124865 
L 196.469129 131.124865 
L 196.469129 131.124865 
L 196.469129 131.124865 
L 196.469129 131.124865 
L 196.469129 131.124865 
L 196.469129 131.124865 
L 196.469129 131.124865 
L 196.469129 131.124865 
L 196.469129 131.124865 
L 196.469129 131.124865 
L 196.469129 131.124865 
L 196.469129 131.124865 
L 196.469129 131.124865 
L 196.469129 131.124865 
L 196.469129 131.124865 
L 196.469129 131.124865 
L 196.469129 131.124865 
L 196.469129 131.124865 
L 196.469129 131.124865 
L 196.469129 131.124865 
L 196.469129 131.124865 
L 196.469129 131.124865 
L 196.469129 131.124865 
L 196.469129 131.124865 
L 196.469129 131.124865 
L 196.469129 131.124865 
L 196.469129 131.124865 
L 196.469129 131.124865 
L 196.469129 131.124865 
L 196.469129 131.124865 
L 196.469129 131.124865 
L 196.469129 131.124865 
L 196.469129 131.124865 
L 196.469129 131.124865 
L 196.469129 131.124865 
L 196.469129 131.124865 
L 196.469129 131.124865 
L 196.469129 131.124865 
L 196.469129 131.124865 
L 196.469129 131.124865 
L 196.469129 131.124865 
L 196.469129 131.124865 
L 196.469129 131.124865 
L 196.469129 131.124865 
L 196.469129 131.124865 
L 196.469129 131.124865 
L 196.469129 131.124865 
L 196.469129 131.124865 
L 196.469129 131.124865 
L 196.469129 131.124865 
L 196.469129 131.124865 
L 196.469129 131.124865 
L 196.469129 131.124865 
L 196.469129 131.124865 
L 196.469129 131.124865 
L 196.469129 131.124865 
L 196.469129 131.124865 
L 196.469129 131.124865 
L 196.469129 131.124865 
L 196.469129 131.124865 
L 196.469129 131.124865 
L 196.469129 131.124865 
L 196.469129 131.124865 
L 196.469129 131.124865 
L 196.469129 131.124865 
L 196.469129 131.124865 
L 196.469129 131.124865 
L 196.469129 131.124865 
L 196.469129 131.124865 
L 196.469129 131.124865 
L 196.469129 131.124865 
L 196.469129 131.124865 
L 196.469129 131.124865 
L 196.469129 131.124865 
L 196.469129 131.124865 
L 196.469129 131.124865 
L 196.469129 131.124865 
L 196.469129 131.124865 
L 196.469129 131.124865 
L 196.469129 131.124865 
L 196.469129 131.124865 
L 196.469129 131.124865 
L 196.469129 131.124865 
L 196.469129 131.124865 
L 196.469129 131.124865 
L 196.469129 131.124865 
L 196.469129 131.124865 
L 196.469129 131.124865 
L 196.469129 131.124865 
L 196.469129 131.124865 
L 196.469129 131.124865 
L 196.469129 131.124865 
L 196.469129 131.124865 
L 196.469129 131.124865 
L 196.469129 131.124865 
L 196.469129 131.124865 
L 196.469129 131.124865 
L 196.469129 131.124865 
L 196.469129 131.124865 
L 196.469129 131.124865 
L 196.469129 131.124865 
L 196.469129 131.124865 
L 196.469129 131.124865 
L 196.469129 131.124865 
L 196.469129 131.124865 
L 196.469129 131.124865 
L 196.469129 131.124865 
L 196.469129 131.124865 
L 196.469129 131.124865 
L 196.469129 131.124865 
L 196.469129 131.124865 
L 196.469129 131.124865 
L 196.469129 131.124865 
L 196.469129 131.124865 
L 196.469129 131.124865 
L 196.469129 131.124865 
L 196.469129 131.124865 
L 196.469129 131.124865 
L 196.469129 131.124865 
L 196.469129 131.124865 
L 196.469129 131.124865 
L 196.469129 131.124865 
L 196.469129 131.124865 
L 196.469129 131.124865 
L 196.469129 131.124865 
L 196.469129 131.124865 
L 196.469129 131.124865 
L 196.469129 131.124865 
L 196.469129 131.124865 
L 199.459392 131.121916 
L 200.697993 131.116523 
L 201.648396 131.10954 
L 202.449611 131.10127 
L 203.155482 131.091891 
L 203.793623 131.081519 
L 204.926611 131.05813 
L 205.924716 131.0316 
L 206.826984 131.002266 
L 208.428698 130.936115 
L 209.839397 130.861086 
L 211.11427 130.778128 
L 212.286088 130.687941 
L 213.376195 130.591067 
L 214.952429 130.427021 
L 216.40246 130.248971 
L 217.7518 130.057957 
L 219.018251 129.854823 
L 221.21991 129.442065 
L 223.231851 128.992554 
L 224.581867 128.648697 
L 225.864345 128.288298 
L 228.25704 127.520919 
L 230.351062 126.738267 
L 232.298876 125.907129 
L 234.469126 124.851147 
L 236.482967 123.734607 
L 238.285239 122.610228 
L 239.973076 121.436948 
L 242.198928 119.686345 
L 244.036847 118.038077 
L 245.731805 116.324931 
L 246.451333 115.533017 
L 248.254538 113.348672 
L 249.878405 111.085753 
L 250.300754 110.441249 
L 251.651312 108.189201 
L 252.853465 105.878342 
L 253.364208 104.783155 
L 254.694403 101.48586 
L 255.402913 99.35092 
L 256.525536 94.938689 
L 256.722165 93.928577 
L 257.352 89.351767 
L 257.474636 87.769363 
L 257.546792 82.397054 
L 257.49491 81.240912 
L 257.126076 77.156912 
L 256.791486 74.849421 
L 256.229957 71.888869 
L 255.382234 68.417228 
L 254.371074 65.073397 
L 252.64691 60.437938 
L 251.493001 57.798885 
L 250.324948 55.386646 
L 248.421592 51.872159 
L 247.804104 50.821016 
L 244.995329 46.465725 
L 243.843688 44.847613 
L 241.313609 41.565433 
L 238.743573 38.551797 
L 237.504758 37.197099 
L 233.352192 33.047536 
L 231.192257 31.096052 
L 229.032173 29.267253 
L 225.677903 26.645397 
L 222.329744 24.264439 
L 219.892276 22.664714 
L 216.97304 20.884402 
L 212.078154 18.20188 
L 208.642604 16.526164 
L 207.372853 15.94717 
L 204.738966 14.812344 
L 199.5818 12.835828 
L 195.337971 11.438247 
L 192.533825 10.621919 
L 189.734397 9.888639 
L 183.40552 8.519173 
L 181.710805 8.218043 
L 175.681445 7.362949 
L 170.31153 6.877528 
L 166.338839 6.681241 
L 165.016545 6.646154 
L 159.898495 6.651091 
L 155.71621 6.819759 
L 150.705223 7.215364 
L 147.628746 7.562505 
L 142.428322 8.329959 
L 139.292785 8.902908 
L 132.375439 10.463503 
L 130.878522 10.855594 
L 123.602038 13.043253 
L 121.354108 13.815388 
L 114.652152 16.396453 
L 111.057036 17.958654 
L 107.565418 19.599317 
L 103.669356 21.578764 
L 99.302072 23.992143 
L 94.597608 26.834169 
L 93.15046 27.761345 
L 89.539845 30.188455 
L 82.550492 35.379726 
L 81.13204 36.518394 
L 74.796243 41.991074 
L 74.400237 42.355393 
L 67.80258 48.854372 
L 64.941641 51.947937 
L 61.831929 55.52457 
L 60.536625 57.085656 
L 58.016882 60.252973 
L 54.335533 65.223025 
L 49.727051 72.118919 
L 46.892761 76.810002 
L 46.655133 77.221315 
L 43.020417 83.916014 
L 40.928209 88.169153 
L 38.990847 92.430411 
L 36.66947 98.043223 
L 35.578875 100.914949 
L 33.006527 108.477963 
L 31.610659 113.205477 
L 30.464326 117.557296 
L 29.624128 121.111302 
L 28.099253 128.766116 
L 26.980234 136.197326 
L 26.631389 139.156159 
L 26.082073 145.268379 
L 25.851639 149.151796 
L 25.663841 156.949858 
L 25.734239 161.921608 
L 25.940627 166.697443 
L 26.190718 170.357247 
L 27.195925 179.731008 
L 27.708108 183.24157 
L 28.816248 189.549972 
L 30.013136 195.187782 
L 31.682563 201.847176 
L 32.536349 204.880261 
L 33.868184 209.240642 
L 37.189484 218.69222 
L 38.651685 222.379674 
L 40.152964 225.934888 
L 44.421628 235.035998 
L 44.805829 235.794208 
L 48.152498 242.052044 
L 51.438363 247.675843 
L 56.254495 255.169319 
L 58.299223 258.123216 
L 61.011761 261.860161 
L 66.311572 268.635655 
L 70.559293 273.630068 
L 71.39828 274.575448 
L 76.703056 280.268425 
L 83.215679 286.65363 
L 87.141807 290.218264 
L 90.265933 292.915594 
L 97.030772 298.368475 
L 99.535871 300.262409 
L 105.111967 304.253298 
L 110.620406 307.910336 
L 114.332221 310.224826 
L 121.839299 314.561263 
L 127.170977 317.377496 
L 132.759733 320.108544 
L 137.927805 322.442278 
L 146.053112 325.757519 
L 152.934473 328.243114 
L 154.452703 328.753169 
L 160.765842 330.729762 
L 169.229542 333.025065 
L 173.690119 334.076313 
L 184.100612 336.117915 
L 186.245897 336.468414 
L 195.535594 337.715345 
L 204.573213 338.513075 
L 211.061459 338.837112 
L 215.777775 338.943391 
L 218.969339 338.953846 
L 230.992327 338.549052 
L 235.028779 338.255762 
L 238.778777 337.912206 
L 250.43592 336.404316 
L 255.024714 335.626444 
L 261.218657 334.409054 
L 268.587086 332.706625 
L 273.658216 331.371638 
L 278.658924 329.922242 
L 287.209516 327.130687 
L 295.168957 324.165404 
L 302.760304 320.994105 
L 308.31164 318.454151 
L 315.548249 314.85028 
L 321.550677 311.597883 
L 322.833534 310.870627 
L 330.287917 306.411074 
L 337.976994 301.371366 
L 343.910066 297.154693 
L 346.760616 295.020778 
L 354.341909 288.980453 
L 359.410531 284.624761 
L 364.604684 279.873312 
L 368.3458 276.25641 
L 375.724367 268.596291 
L 380.177331 263.598879 
L 385.655523 257.012211 
L 388.973315 252.761019 
L 391.276276 249.681944 
L 396.545674 242.196569 
L 398.752463 238.859651 
L 405.671199 227.476309 
L 408.728059 221.919664 
L 411.428038 216.684526 
L 414.850472 209.526099 
L 418.189489 201.853658 
L 420.08123 197.134649 
L 422.808614 189.735864 
L 424.370895 185.108049 
L 428.125994 172.357691 
L 429.251794 167.911608 
L 431.261633 158.851752 
L 432.886847 149.869017 
L 433.521173 145.687172 
L 434.65807 136.387794 
L 435.136159 131.124865 
z
" clip-path="url(#p2760eca958)" style="fill: #808080; opacity: 0.5"/>
   </g>
   <g id="matplotlib.axis_1">
    <g id="xtick_1">
     <g id="line2d_1">
      <defs>
       <path id="m92b1448e31" d="M 0 0 
L 0 3.5 
" style="stroke: #000000; stroke-width: 0.8"/>
      </defs>
      <g>
       <use xlink:href="#m92b1448e31" x="53.647574" y="131.124865" style="stroke: #000000; stroke-width: 0.8"/>
      </g>
     </g>
     <g id="text_1">
      <!-- −1.5 -->
      <g transform="translate(41.506168 145.723302) scale(0.1 -0.1)">
       <defs>
        <path id="DejaVuSans-2212" d="M 678 2272 
L 4684 2272 
L 4684 1741 
L 678 1741 
L 678 2272 
z
" transform="scale(0.015625)"/>
        <path id="DejaVuSans-31" d="M 794 531 
L 1825 531 
L 1825 4091 
L 703 3866 
L 703 4441 
L 1819 4666 
L 2450 4666 
L 2450 531 
L 3481 531 
L 3481 0 
L 794 0 
L 794 531 
z
" transform="scale(0.015625)"/>
        <path id="DejaVuSans-2e" d="M 684 794 
L 1344 794 
L 1344 0 
L 684 0 
L 684 794 
z
" transform="scale(0.015625)"/>
        <path id="DejaVuSans-35" d="M 691 4666 
L 3169 4666 
L 3169 4134 
L 1269 4134 
L 1269 2991 
Q 1406 3038 1543 3061 
Q 1681 3084 1819 3084 
Q 2600 3084 3056 2656 
Q 3513 2228 3513 1497 
Q 3513 744 3044 326 
Q 2575 -91 1722 -91 
Q 1428 -91 1123 -41 
Q 819 9 494 109 
L 494 744 
Q 775 591 1075 516 
Q 1375 441 1709 441 
Q 2250 441 2565 725 
Q 2881 1009 2881 1497 
Q 2881 1984 2565 2268 
Q 2250 2553 1709 2553 
Q 1456 2553 1204 2497 
Q 953 2441 691 2322 
L 691 4666 
z
" transform="scale(0.015625)"/>
       </defs>
       <use xlink:href="#DejaVuSans-2212"/>
       <use xlink:href="#DejaVuSans-31" transform="translate(83.789062 0)"/>
       <use xlink:href="#DejaVuSans-2e" transform="translate(147.412109 0)"/>
       <use xlink:href="#DejaVuSans-35" transform="translate(179.199219 0)"/>
      </g>
     </g>
    </g>
    <g id="xtick_2">
     <g id="line2d_2">
      <g>
       <use xlink:href="#m92b1448e31" x="101.254759" y="131.124865" style="stroke: #000000; stroke-width: 0.8"/>
      </g>
     </g>
     <g id="text_2">
      <!-- −1.0 -->
      <g transform="translate(89.113353 145.723302) scale(0.1 -0.1)">
       <defs>
        <path id="DejaVuSans-30" d="M 2034 4250 
Q 1547 4250 1301 3770 
Q 1056 3291 1056 2328 
Q 1056 1369 1301 889 
Q 1547 409 2034 409 
Q 2525 409 2770 889 
Q 3016 1369 3016 2328 
Q 3016 3291 2770 3770 
Q 2525 4250 2034 4250 
z
M 2034 4750 
Q 2819 4750 3233 4129 
Q 3647 3509 3647 2328 
Q 3647 1150 3233 529 
Q 2819 -91 2034 -91 
Q 1250 -91 836 529 
Q 422 1150 422 2328 
Q 422 3509 836 4129 
Q 1250 4750 2034 4750 
z
" transform="scale(0.015625)"/>
       </defs>
       <use xlink:href="#DejaVuSans-2212"/>
       <use xlink:href="#DejaVuSans-31" transform="translate(83.789062 0)"/>
       <use xlink:href="#DejaVuSans-2e" transform="translate(147.412109 0)"/>
       <use xlink:href="#DejaVuSans-30" transform="translate(179.199219 0)"/>
      </g>
     </g>
    </g>
    <g id="xtick_3">
     <g id="line2d_3">
      <g>
       <use xlink:href="#m92b1448e31" x="148.861944" y="131.124865" style="stroke: #000000; stroke-width: 0.8"/>
      </g>
     </g>
     <g id="text_3">
      <!-- −0.5 -->
      <g transform="translate(136.720537 145.723302) scale(0.1 -0.1)">
       <use xlink:href="#DejaVuSans-2212"/>
       <use xlink:href="#DejaVuSans-30" transform="translate(83.789062 0)"/>
       <use xlink:href="#DejaVuSans-2e" transform="translate(147.412109 0)"/>
       <use xlink:href="#DejaVuSans-35" transform="translate(179.199219 0)"/>
      </g>
     </g>
    </g>
    <g id="xtick_4">
     <g id="line2d_4">
      <g>
       <use xlink:href="#m92b1448e31" x="196.469129" y="131.124865" style="stroke: #000000; stroke-width: 0.8"/>
      </g>
     </g>
    </g>
    <g id="xtick_5">
     <g id="line2d_5">
      <g>
       <use xlink:href="#m92b1448e31" x="244.076313" y="131.124865" style="stroke: #000000; stroke-width: 0.8"/>
      </g>
     </g>
     <g id="text_4">
      <!-- 0.5 -->
      <g transform="translate(236.124751 145.723302) scale(0.1 -0.1)">
       <use xlink:href="#DejaVuSans-30"/>
       <use xlink:href="#DejaVuSans-2e" transform="translate(63.623047 0)"/>
       <use xlink:href="#DejaVuSans-35" transform="translate(95.410156 0)"/>
      </g>
     </g>
    </g>
    <g id="xtick_6">
     <g id="line2d_6">
      <g>
       <use xlink:href="#m92b1448e31" x="291.683498" y="131.124865" style="stroke: #000000; stroke-width: 0.8"/>
      </g>
     </g>
     <g id="text_5">
      <!-- 1.0 -->
      <g transform="translate(283.731936 145.723302) scale(0.1 -0.1)">
       <use xlink:href="#DejaVuSans-31"/>
       <use xlink:href="#DejaVuSans-2e" transform="translate(63.623047 0)"/>
       <use xlink:href="#DejaVuSans-30" transform="translate(95.410156 0)"/>
      </g>
     </g>
    </g>
    <g id="xtick_7">
     <g id="line2d_7">
      <g>
       <use xlink:href="#m92b1448e31" x="339.290683" y="131.124865" style="stroke: #000000; stroke-width: 0.8"/>
      </g>
     </g>
     <g id="text_6">
      <!-- 1.5 -->
      <g transform="translate(331.33912 145.723302) scale(0.1 -0.1)">
       <use xlink:href="#DejaVuSans-31"/>
       <use xlink:href="#DejaVuSans-2e" transform="translate(63.623047 0)"/>
       <use xlink:href="#DejaVuSans-35" transform="translate(95.410156 0)"/>
      </g>
     </g>
    </g>
    <g id="xtick_8">
     <g id="line2d_8">
      <g>
       <use xlink:href="#m92b1448e31" x="386.897868" y="131.124865" style="stroke: #000000; stroke-width: 0.8"/>
      </g>
     </g>
     <g id="text_7">
      <!-- 2.0 -->
      <g transform="translate(378.946305 145.723302) scale(0.1 -0.1)">
       <defs>
        <path id="DejaVuSans-32" d="M 1228 531 
L 3431 531 
L 3431 0 
L 469 0 
L 469 531 
Q 828 903 1448 1529 
Q 2069 2156 2228 2338 
Q 2531 2678 2651 2914 
Q 2772 3150 2772 3378 
Q 2772 3750 2511 3984 
Q 2250 4219 1831 4219 
Q 1534 4219 1204 4116 
Q 875 4013 500 3803 
L 500 4441 
Q 881 4594 1212 4672 
Q 1544 4750 1819 4750 
Q 2544 4750 2975 4387 
Q 3406 4025 3406 3419 
Q 3406 3131 3298 2873 
Q 3191 2616 2906 2266 
Q 2828 2175 2409 1742 
Q 1991 1309 1228 531 
z
" transform="scale(0.015625)"/>
       </defs>
       <use xlink:href="#DejaVuSans-32"/>
       <use xlink:href="#DejaVuSans-2e" transform="translate(63.623047 0)"/>
       <use xlink:href="#DejaVuSans-30" transform="translate(95.410156 0)"/>
      </g>
     </g>
    </g>
    <g id="xtick_9">
     <g id="line2d_9">
      <g>
       <use xlink:href="#m92b1448e31" x="434.505052" y="131.124865" style="stroke: #000000; stroke-width: 0.8"/>
      </g>
     </g>
     <g id="text_8">
      <!-- 2.5 -->
      <g transform="translate(426.55349 145.723302) scale(0.1 -0.1)">
       <use xlink:href="#DejaVuSans-32"/>
       <use xlink:href="#DejaVuSans-2e" transform="translate(63.623047 0)"/>
       <use xlink:href="#DejaVuSans-35" transform="translate(95.410156 0)"/>
      </g>
     </g>
    </g>
    <g id="xtick_10">
     <g id="line2d_10">
      <defs>
       <path id="m817630da1e" d="M 0 0 
L 0 2 
" style="stroke: #000000; stroke-width: 0.6"/>
      </defs>
      <g>
       <use xlink:href="#m817630da1e" x="25.083263" y="131.124865" style="stroke: #000000; stroke-width: 0.6"/>
      </g>
     </g>
    </g>
    <g id="xtick_11">
     <g id="line2d_11">
      <g>
       <use xlink:href="#m817630da1e" x="34.6047" y="131.124865" style="stroke: #000000; stroke-width: 0.6"/>
      </g>
     </g>
    </g>
    <g id="xtick_12">
     <g id="line2d_12">
      <g>
       <use xlink:href="#m817630da1e" x="44.126137" y="131.124865" style="stroke: #000000; stroke-width: 0.6"/>
      </g>
     </g>
    </g>
    <g id="xtick_13">
     <g id="line2d_13">
      <g>
       <use xlink:href="#m817630da1e" x="63.169011" y="131.124865" style="stroke: #000000; stroke-width: 0.6"/>
      </g>
     </g>
    </g>
    <g id="xtick_14">
     <g id="line2d_14">
      <g>
       <use xlink:href="#m817630da1e" x="72.690448" y="131.124865" style="stroke: #000000; stroke-width: 0.6"/>
      </g>
     </g>
    </g>
    <g id="xtick_15">
     <g id="line2d_15">
      <g>
       <use xlink:href="#m817630da1e" x="82.211885" y="131.124865" style="stroke: #000000; stroke-width: 0.6"/>
      </g>
     </g>
    </g>
    <g id="xtick_16">
     <g id="line2d_16">
      <g>
       <use xlink:href="#m817630da1e" x="91.733322" y="131.124865" style="stroke: #000000; stroke-width: 0.6"/>
      </g>
     </g>
    </g>
    <g id="xtick_17">
     <g id="line2d_17">
      <g>
       <use xlink:href="#m817630da1e" x="110.776196" y="131.124865" style="stroke: #000000; stroke-width: 0.6"/>
      </g>
     </g>
    </g>
    <g id="xtick_18">
     <g id="line2d_18">
      <g>
       <use xlink:href="#m817630da1e" x="120.297633" y="131.124865" style="stroke: #000000; stroke-width: 0.6"/>
      </g>
     </g>
    </g>
    <g id="xtick_19">
     <g id="line2d_19">
      <g>
       <use xlink:href="#m817630da1e" x="129.81907" y="131.124865" style="stroke: #000000; stroke-width: 0.6"/>
      </g>
     </g>
    </g>
    <g id="xtick_20">
     <g id="line2d_20">
      <g>
       <use xlink:href="#m817630da1e" x="139.340507" y="131.124865" style="stroke: #000000; stroke-width: 0.6"/>
      </g>
     </g>
    </g>
    <g id="xtick_21">
     <g id="line2d_21">
      <g>
       <use xlink:href="#m817630da1e" x="158.383381" y="131.124865" style="stroke: #000000; stroke-width: 0.6"/>
      </g>
     </g>
    </g>
    <g id="xtick_22">
     <g id="line2d_22">
      <g>
       <use xlink:href="#m817630da1e" x="167.904818" y="131.124865" style="stroke: #000000; stroke-width: 0.6"/>
      </g>
     </g>
    </g>
    <g id="xtick_23">
     <g id="line2d_23">
      <g>
       <use xlink:href="#m817630da1e" x="177.426255" y="131.124865" style="stroke: #000000; stroke-width: 0.6"/>
      </g>
     </g>
    </g>
    <g id="xtick_24">
     <g id="line2d_24">
      <g>
       <use xlink:href="#m817630da1e" x="186.947692" y="131.124865" style="stroke: #000000; stroke-width: 0.6"/>
      </g>
     </g>
    </g>
    <g id="xtick_25">
     <g id="line2d_25">
      <g>
       <use xlink:href="#m817630da1e" x="205.990565" y="131.124865" style="stroke: #000000; stroke-width: 0.6"/>
      </g>
     </g>
    </g>
    <g id="xtick_26">
     <g id="line2d_26">
      <g>
       <use xlink:href="#m817630da1e" x="215.512002" y="131.124865" style="stroke: #000000; stroke-width: 0.6"/>
      </g>
     </g>
    </g>
    <g id="xtick_27">
     <g id="line2d_27">
      <g>
       <use xlink:href="#m817630da1e" x="225.033439" y="131.124865" style="stroke: #000000; stroke-width: 0.6"/>
      </g>
     </g>
    </g>
    <g id="xtick_28">
     <g id="line2d_28">
      <g>
       <use xlink:href="#m817630da1e" x="234.554876" y="131.124865" style="stroke: #000000; stroke-width: 0.6"/>
      </g>
     </g>
    </g>
    <g id="xtick_29">
     <g id="line2d_29">
      <g>
       <use xlink:href="#m817630da1e" x="253.59775" y="131.124865" style="stroke: #000000; stroke-width: 0.6"/>
      </g>
     </g>
    </g>
    <g id="xtick_30">
     <g id="line2d_30">
      <g>
       <use xlink:href="#m817630da1e" x="263.119187" y="131.124865" style="stroke: #000000; stroke-width: 0.6"/>
      </g>
     </g>
    </g>
    <g id="xtick_31">
     <g id="line2d_31">
      <g>
       <use xlink:href="#m817630da1e" x="272.640624" y="131.124865" style="stroke: #000000; stroke-width: 0.6"/>
      </g>
     </g>
    </g>
    <g id="xtick_32">
     <g id="line2d_32">
      <g>
       <use xlink:href="#m817630da1e" x="282.162061" y="131.124865" style="stroke: #000000; stroke-width: 0.6"/>
      </g>
     </g>
    </g>
    <g id="xtick_33">
     <g id="line2d_33">
      <g>
       <use xlink:href="#m817630da1e" x="301.204935" y="131.124865" style="stroke: #000000; stroke-width: 0.6"/>
      </g>
     </g>
    </g>
    <g id="xtick_34">
     <g id="line2d_34">
      <g>
       <use xlink:href="#m817630da1e" x="310.726372" y="131.124865" style="stroke: #000000; stroke-width: 0.6"/>
      </g>
     </g>
    </g>
    <g id="xtick_35">
     <g id="line2d_35">
      <g>
       <use xlink:href="#m817630da1e" x="320.247809" y="131.124865" style="stroke: #000000; stroke-width: 0.6"/>
      </g>
     </g>
    </g>
    <g id="xtick_36">
     <g id="line2d_36">
      <g>
       <use xlink:href="#m817630da1e" x="329.769246" y="131.124865" style="stroke: #000000; stroke-width: 0.6"/>
      </g>
     </g>
    </g>
    <g id="xtick_37">
     <g id="line2d_37">
      <g>
       <use xlink:href="#m817630da1e" x="348.81212" y="131.124865" style="stroke: #000000; stroke-width: 0.6"/>
      </g>
     </g>
    </g>
    <g id="xtick_38">
     <g id="line2d_38">
      <g>
       <use xlink:href="#m817630da1e" x="358.333557" y="131.124865" style="stroke: #000000; stroke-width: 0.6"/>
      </g>
     </g>
    </g>
    <g id="xtick_39">
     <g id="line2d_39">
      <g>
       <use xlink:href="#m817630da1e" x="367.854994" y="131.124865" style="stroke: #000000; stroke-width: 0.6"/>
      </g>
     </g>
    </g>
    <g id="xtick_40">
     <g id="line2d_40">
      <g>
       <use xlink:href="#m817630da1e" x="377.376431" y="131.124865" style="stroke: #000000; stroke-width: 0.6"/>
      </g>
     </g>
    </g>
    <g id="xtick_41">
     <g id="line2d_41">
      <g>
       <use xlink:href="#m817630da1e" x="396.419305" y="131.124865" style="stroke: #000000; stroke-width: 0.6"/>
      </g>
     </g>
    </g>
    <g id="xtick_42">
     <g id="line2d_42">
      <g>
       <use xlink:href="#m817630da1e" x="405.940742" y="131.124865" style="stroke: #000000; stroke-width: 0.6"/>
      </g>
     </g>
    </g>
    <g id="xtick_43">
     <g id="line2d_43">
      <g>
       <use xlink:href="#m817630da1e" x="415.462179" y="131.124865" style="stroke: #000000; stroke-width: 0.6"/>
      </g>
     </g>
    </g>
    <g id="xtick_44">
     <g id="line2d_44">
      <g>
       <use xlink:href="#m817630da1e" x="424.983615" y="131.124865" style="stroke: #000000; stroke-width: 0.6"/>
      </g>
     </g>
    </g>
   </g>
   <g id="matplotlib.axis_2">
    <g id="ytick_1">
     <g id="line2d_45">
      <defs>
       <path id="m4619466749" d="M 0 0 
L -3.5 0 
" style="stroke: #000000; stroke-width: 0.8"/>
      </defs>
      <g>
       <use xlink:href="#m4619466749" x="196.469129" y="321.553604" style="stroke: #000000; stroke-width: 0.8"/>
      </g>
     </g>
     <g id="text_9">
      <!-- −2.0 -->
      <g transform="translate(165.186316 325.352823) scale(0.1 -0.1)">
       <use xlink:href="#DejaVuSans-2212"/>
       <use xlink:href="#DejaVuSans-32" transform="translate(83.789062 0)"/>
       <use xlink:href="#DejaVuSans-2e" transform="translate(147.412109 0)"/>
       <use xlink:href="#DejaVuSans-30" transform="translate(179.199219 0)"/>
      </g>
     </g>
    </g>
    <g id="ytick_2">
     <g id="line2d_46">
      <g>
       <use xlink:href="#m4619466749" x="196.469129" y="273.946419" style="stroke: #000000; stroke-width: 0.8"/>
      </g>
     </g>
     <g id="text_10">
      <!-- −1.5 -->
      <g transform="translate(165.186316 277.745638) scale(0.1 -0.1)">
       <use xlink:href="#DejaVuSans-2212"/>
       <use xlink:href="#DejaVuSans-31" transform="translate(83.789062 0)"/>
       <use xlink:href="#DejaVuSans-2e" transform="translate(147.412109 0)"/>
       <use xlink:href="#DejaVuSans-35" transform="translate(179.199219 0)"/>
      </g>
     </g>
    </g>
    <g id="ytick_3">
     <g id="line2d_47">
      <g>
       <use xlink:href="#m4619466749" x="196.469129" y="226.339235" style="stroke: #000000; stroke-width: 0.8"/>
      </g>
     </g>
     <g id="text_11">
      <!-- −1.0 -->
      <g transform="translate(165.186316 230.138453) scale(0.1 -0.1)">
       <use xlink:href="#DejaVuSans-2212"/>
       <use xlink:href="#DejaVuSans-31" transform="translate(83.789062 0)"/>
       <use xlink:href="#DejaVuSans-2e" transform="translate(147.412109 0)"/>
       <use xlink:href="#DejaVuSans-30" transform="translate(179.199219 0)"/>
      </g>
     </g>
    </g>
    <g id="ytick_4">
     <g id="line2d_48">
      <g>
       <use xlink:href="#m4619466749" x="196.469129" y="178.73205" style="stroke: #000000; stroke-width: 0.8"/>
      </g>
     </g>
     <g id="text_12">
      <!-- −0.5 -->
      <g transform="translate(165.186316 182.531269) scale(0.1 -0.1)">
       <use xlink:href="#DejaVuSans-2212"/>
       <use xlink:href="#DejaVuSans-30" transform="translate(83.789062 0)"/>
       <use xlink:href="#DejaVuSans-2e" transform="translate(147.412109 0)"/>
       <use xlink:href="#DejaVuSans-35" transform="translate(179.199219 0)"/>
      </g>
     </g>
    </g>
    <g id="ytick_5">
     <g id="line2d_49">
      <g>
       <use xlink:href="#m4619466749" x="196.469129" y="131.124865" style="stroke: #000000; stroke-width: 0.8"/>
      </g>
     </g>
    </g>
    <g id="ytick_6">
     <g id="line2d_50">
      <g>
       <use xlink:href="#m4619466749" x="196.469129" y="83.51768" style="stroke: #000000; stroke-width: 0.8"/>
      </g>
     </g>
     <g id="text_13">
      <!-- 0.5 -->
      <g transform="translate(173.566004 87.316899) scale(0.1 -0.1)">
       <use xlink:href="#DejaVuSans-30"/>
       <use xlink:href="#DejaVuSans-2e" transform="translate(63.623047 0)"/>
       <use xlink:href="#DejaVuSans-35" transform="translate(95.410156 0)"/>
      </g>
     </g>
    </g>
    <g id="ytick_7">
     <g id="line2d_51">
      <g>
       <use xlink:href="#m4619466749" x="196.469129" y="35.910495" style="stroke: #000000; stroke-width: 0.8"/>
      </g>
     </g>
     <g id="text_14">
      <!-- 1.0 -->
      <g transform="translate(173.566004 39.709714) scale(0.1 -0.1)">
       <use xlink:href="#DejaVuSans-31"/>
       <use xlink:href="#DejaVuSans-2e" transform="translate(63.623047 0)"/>
       <use xlink:href="#DejaVuSans-30" transform="translate(95.410156 0)"/>
      </g>
     </g>
    </g>
    <g id="ytick_8">
     <g id="line2d_52">
      <defs>
       <path id="m2cdde5e6a8" d="M 0 0 
L -2 0 
" style="stroke: #000000; stroke-width: 0.6"/>
      </defs>
      <g>
       <use xlink:href="#m2cdde5e6a8" x="196.469129" y="340.596478" style="stroke: #000000; stroke-width: 0.6"/>
      </g>
     </g>
    </g>
    <g id="ytick_9">
     <g id="line2d_53">
      <g>
       <use xlink:href="#m2cdde5e6a8" x="196.469129" y="331.075041" style="stroke: #000000; stroke-width: 0.6"/>
      </g>
     </g>
    </g>
    <g id="ytick_10">
     <g id="line2d_54">
      <g>
       <use xlink:href="#m2cdde5e6a8" x="196.469129" y="312.032167" style="stroke: #000000; stroke-width: 0.6"/>
      </g>
     </g>
    </g>
    <g id="ytick_11">
     <g id="line2d_55">
      <g>
       <use xlink:href="#m2cdde5e6a8" x="196.469129" y="302.51073" style="stroke: #000000; stroke-width: 0.6"/>
      </g>
     </g>
    </g>
    <g id="ytick_12">
     <g id="line2d_56">
      <g>
       <use xlink:href="#m2cdde5e6a8" x="196.469129" y="292.989293" style="stroke: #000000; stroke-width: 0.6"/>
      </g>
     </g>
    </g>
    <g id="ytick_13">
     <g id="line2d_57">
      <g>
       <use xlink:href="#m2cdde5e6a8" x="196.469129" y="283.467856" style="stroke: #000000; stroke-width: 0.6"/>
      </g>
     </g>
    </g>
    <g id="ytick_14">
     <g id="line2d_58">
      <g>
       <use xlink:href="#m2cdde5e6a8" x="196.469129" y="264.424982" style="stroke: #000000; stroke-width: 0.6"/>
      </g>
     </g>
    </g>
    <g id="ytick_15">
     <g id="line2d_59">
      <g>
       <use xlink:href="#m2cdde5e6a8" x="196.469129" y="254.903545" style="stroke: #000000; stroke-width: 0.6"/>
      </g>
     </g>
    </g>
    <g id="ytick_16">
     <g id="line2d_60">
      <g>
       <use xlink:href="#m2cdde5e6a8" x="196.469129" y="245.382108" style="stroke: #000000; stroke-width: 0.6"/>
      </g>
     </g>
    </g>
    <g id="ytick_17">
     <g id="line2d_61">
      <g>
       <use xlink:href="#m2cdde5e6a8" x="196.469129" y="235.860671" style="stroke: #000000; stroke-width: 0.6"/>
      </g>
     </g>
    </g>
    <g id="ytick_18">
     <g id="line2d_62">
      <g>
       <use xlink:href="#m2cdde5e6a8" x="196.469129" y="216.817798" style="stroke: #000000; stroke-width: 0.6"/>
      </g>
     </g>
    </g>
    <g id="ytick_19">
     <g id="line2d_63">
      <g>
       <use xlink:href="#m2cdde5e6a8" x="196.469129" y="207.296361" style="stroke: #000000; stroke-width: 0.6"/>
      </g>
     </g>
    </g>
    <g id="ytick_20">
     <g id="line2d_64">
      <g>
       <use xlink:href="#m2cdde5e6a8" x="196.469129" y="197.774924" style="stroke: #000000; stroke-width: 0.6"/>
      </g>
     </g>
    </g>
    <g id="ytick_21">
     <g id="line2d_65">
      <g>
       <use xlink:href="#m2cdde5e6a8" x="196.469129" y="188.253487" style="stroke: #000000; stroke-width: 0.6"/>
      </g>
     </g>
    </g>
    <g id="ytick_22">
     <g id="line2d_66">
      <g>
       <use xlink:href="#m2cdde5e6a8" x="196.469129" y="169.210613" style="stroke: #000000; stroke-width: 0.6"/>
      </g>
     </g>
    </g>
    <g id="ytick_23">
     <g id="line2d_67">
      <g>
       <use xlink:href="#m2cdde5e6a8" x="196.469129" y="159.689176" style="stroke: #000000; stroke-width: 0.6"/>
      </g>
     </g>
    </g>
    <g id="ytick_24">
     <g id="line2d_68">
      <g>
       <use xlink:href="#m2cdde5e6a8" x="196.469129" y="150.167739" style="stroke: #000000; stroke-width: 0.6"/>
      </g>
     </g>
    </g>
    <g id="ytick_25">
     <g id="line2d_69">
      <g>
       <use xlink:href="#m2cdde5e6a8" x="196.469129" y="140.646302" style="stroke: #000000; stroke-width: 0.6"/>
      </g>
     </g>
    </g>
    <g id="ytick_26">
     <g id="line2d_70">
      <g>
       <use xlink:href="#m2cdde5e6a8" x="196.469129" y="121.603428" style="stroke: #000000; stroke-width: 0.6"/>
      </g>
     </g>
    </g>
    <g id="ytick_27">
     <g id="line2d_71">
      <g>
       <use xlink:href="#m2cdde5e6a8" x="196.469129" y="112.081991" style="stroke: #000000; stroke-width: 0.6"/>
      </g>
     </g>
    </g>
    <g id="ytick_28">
     <g id="line2d_72">
      <g>
       <use xlink:href="#m2cdde5e6a8" x="196.469129" y="102.560554" style="stroke: #000000; stroke-width: 0.6"/>
      </g>
     </g>
    </g>
    <g id="ytick_29">
     <g id="line2d_73">
      <g>
       <use xlink:href="#m2cdde5e6a8" x="196.469129" y="93.039117" style="stroke: #000000; stroke-width: 0.6"/>
      </g>
     </g>
    </g>
    <g id="ytick_30">
     <g id="line2d_74">
      <g>
       <use xlink:href="#m2cdde5e6a8" x="196.469129" y="73.996243" style="stroke: #000000; stroke-width: 0.6"/>
      </g>
     </g>
    </g>
    <g id="ytick_31">
     <g id="line2d_75">
      <g>
       <use xlink:href="#m2cdde5e6a8" x="196.469129" y="64.474806" style="stroke: #000000; stroke-width: 0.6"/>
      </g>
     </g>
    </g>
    <g id="ytick_32">
     <g id="line2d_76">
      <g>
       <use xlink:href="#m2cdde5e6a8" x="196.469129" y="54.953369" style="stroke: #000000; stroke-width: 0.6"/>
      </g>
     </g>
    </g>
    <g id="ytick_33">
     <g id="line2d_77">
      <g>
       <use xlink:href="#m2cdde5e6a8" x="196.469129" y="45.431932" style="stroke: #000000; stroke-width: 0.6"/>
      </g>
     </g>
    </g>
    <g id="ytick_34">
     <g id="line2d_78">
      <g>
       <use xlink:href="#m2cdde5e6a8" x="196.469129" y="26.389058" style="stroke: #000000; stroke-width: 0.6"/>
      </g>
     </g>
    </g>
    <g id="ytick_35">
     <g id="line2d_79">
      <g>
       <use xlink:href="#m2cdde5e6a8" x="196.469129" y="16.867621" style="stroke: #000000; stroke-width: 0.6"/>
      </g>
     </g>
    </g>
    <g id="ytick_36">
     <g id="line2d_80">
      <g>
       <use xlink:href="#m2cdde5e6a8" x="196.469129" y="7.346185" style="stroke: #000000; stroke-width: 0.6"/>
      </g>
     </g>
    </g>
   </g>
   <g id="line2d_81">
    <path d="M 196.469129 131.124865 
L 205.924716 131.0316 
L 211.11427 130.778128 
L 214.952429 130.427021 
L 219.018251 129.854823 
L 223.231851 128.992554 
L 225.864345 128.288298 
L 230.351062 126.738267 
L 232.298876 125.907129 
L 234.469126 124.851147 
L 238.285239 122.610228 
L 239.973076 121.436948 
L 242.198928 119.686345 
L 244.036847 118.038077 
L 246.451333 115.533017 
L 248.254538 113.348672 
L 250.300754 110.441249 
L 251.651312 108.189201 
L 253.364208 104.783155 
L 254.694403 101.48586 
L 255.402913 99.35092 
L 256.722165 93.928577 
L 257.474636 87.769363 
L 257.49491 81.240912 
L 257.126076 77.156912 
L 256.791486 74.849421 
L 256.229957 71.888869 
L 255.382234 68.417228 
L 254.371074 65.073397 
L 252.64691 60.437938 
L 250.324948 55.386646 
L 247.804104 50.821016 
L 243.843688 44.847613 
L 241.313609 41.565433 
L 237.504758 37.197099 
L 233.352192 33.047536 
L 229.032173 29.267253 
L 225.677903 26.645397 
L 219.892276 22.664714 
L 216.97304 20.884402 
L 212.078154 18.20188 
L 207.372853 15.94717 
L 204.738966 14.812344 
L 199.5818 12.835828 
L 192.533825 10.621919 
L 189.734397 9.888639 
L 181.710805 8.218043 
L 175.681445 7.362949 
L 170.31153 6.877528 
L 165.016545 6.646154 
L 159.898495 6.651091 
L 155.71621 6.819759 
L 147.628746 7.562505 
L 139.292785 8.902908 
L 130.878522 10.855594 
L 121.354108 13.815388 
L 114.652152 16.396453 
L 111.057036 17.958654 
L 107.565418 19.599317 
L 103.669356 21.578764 
L 99.302072 23.992143 
L 93.15046 27.761345 
L 89.539845 30.188455 
L 81.13204 36.518394 
L 74.400237 42.355393 
L 67.80258 48.854372 
L 64.941641 51.947937 
L 60.536625 57.085656 
L 58.016882 60.252973 
L 54.335533 65.223025 
L 49.727051 72.118919 
L 46.655133 77.221315 
L 43.020417 83.916014 
L 40.928209 88.169153 
L 38.990847 92.430411 
L 35.578875 100.914949 
L 33.006527 108.477963 
L 31.610659 113.205477 
L 29.624128 121.111302 
L 28.099253 128.766116 
L 26.631389 139.156159 
L 26.082073 145.268379 
L 25.851639 149.151796 
L 25.663841 156.949858 
L 25.734239 161.921608 
L 26.190718 170.357247 
L 27.195925 179.731008 
L 27.708108 183.24157 
L 28.816248 189.549972 
L 30.013136 195.187782 
L 32.536349 204.880261 
L 33.868184 209.240642 
L 37.189484 218.69222 
L 40.152964 225.934888 
L 44.805829 235.794208 
L 48.152498 242.052044 
L 51.438363 247.675843 
L 56.254495 255.169319 
L 61.011761 261.860161 
L 66.311572 268.635655 
L 71.39828 274.575448 
L 76.703056 280.268425 
L 83.215679 286.65363 
L 90.265933 292.915594 
L 99.535871 300.262409 
L 105.111967 304.253298 
L 110.620406 307.910336 
L 114.332221 310.224826 
L 121.839299 314.561263 
L 127.170977 317.377496 
L 132.759733 320.108544 
L 137.927805 322.442278 
L 146.053112 325.757519 
L 154.452703 328.753169 
L 160.765842 330.729762 
L 169.229542 333.025065 
L 173.690119 334.076313 
L 186.245897 336.468414 
L 195.535594 337.715345 
L 204.573213 338.513075 
L 211.061459 338.837112 
L 218.969339 338.953846 
L 230.992327 338.549052 
L 238.778777 337.912206 
L 250.43592 336.404316 
L 255.024714 335.626444 
L 261.218657 334.409054 
L 268.587086 332.706625 
L 273.658216 331.371638 
L 278.658924 329.922242 
L 287.209516 327.130687 
L 295.168957 324.165404 
L 302.760304 320.994105 
L 308.31164 318.454151 
L 315.548249 314.85028 
L 322.833534 310.870627 
L 330.287917 306.411074 
L 337.976994 301.371366 
L 346.760616 295.020778 
L 354.341909 288.980453 
L 359.410531 284.624761 
L 364.604684 279.873312 
L 368.3458 276.25641 
L 375.724367 268.596291 
L 380.177331 263.598879 
L 385.655523 257.012211 
L 391.276276 249.681944 
L 396.545674 242.196569 
L 398.752463 238.859651 
L 405.671199 227.476309 
L 408.728059 221.919664 
L 411.428038 216.684526 
L 414.850472 209.526099 
L 418.189489 201.853658 
L 420.08123 197.134649 
L 422.808614 189.735864 
L 424.370895 185.108049 
L 428.125994 172.357691 
L 429.251794 167.911608 
L 431.261633 158.851752 
L 432.886847 149.869017 
L 433.521173 145.687172 
L 434.65807 136.387794 
L 435.136159 131.124865 
L 435.136159 131.124865 
" clip-path="url(#p2760eca958)" style="fill: none; stroke: #0000ff; stroke-linecap: square"/>
   </g>
   <g id="patch_4">
    <path d="M 196.469129 345.6 
L 196.469129 0 
" style="fill: none; stroke: #000000; stroke-width: 0.8; stroke-linejoin: miter; stroke-linecap: square"/>
   </g>
   <g id="patch_5">
    <path d="M 17.474394 131.124865 
L 443.325606 131.124865 
" style="fill: none; stroke: #000000; stroke-width: 0.8; stroke-linejoin: miter; stroke-linecap: square"/>
   </g>
  </g>
 </g>
 <defs>
  <clipPath id="p2760eca958">
   <rect x="17.474394" y="0" width="425.851212" height="345.6"/>
  </clipPath>
 </defs>
</svg>
