<?xml version="1.0" encoding="utf-8" standalone="no"?>
<!DOCTYPE svg PUBLIC "-//W3C//DTD SVG 1.1//EN"
  "http://www.w3.org/Graphics/SVG/1.1/DTD/svg11.dtd">
<svg xmlns:xlink="http://www.w3.org/1999/xlink" width="460.8pt" height="345.6pt" viewBox="0 0 460.8 345.6" xmlns="http://www.w3.org/2000/svg" version="1.1">
 <metadata>
  <rdf:RDF xmlns:dc="http://purl.org/dc/elements/1.1/" xmlns:cc="http://creativecommons.org/ns#" xmlns:rdf="http://www.w3.org/1999/02/22-rdf-syntax-ns#">
   <cc:Work>
    <dc:type rdf:resource="http://purl.org/dc/dcmitype/StillImage"/>
    <dc:date>2025-08-07T23:34:44.699247</dc:date>
    <dc:format>image/svg+xml</dc:format>
    <dc:creator>
     <cc:Agent>
      <dc:title>Matplotlib v3.10.3, https://matplotlib.org/</dc:title>
     </cc:Agent>
    </dc:creator>
   </cc:Work>
  </rdf:RDF>
 </metadata>
 <defs>
  <style type="text/css">*{stroke-linejoin: round; stroke-linecap: butt}</style>
 </defs>
 <g id="figure_1">
  <g id="patch_1">
   <path d="M 0 345.6 
L 460.8 345.6 
L 460.8 0 
L 0 0 
z
" style="fill: #ffffff"/>
  </g>
  <g id="axes_1">
   <g id="patch_2">
    <path d="M 65.875361 345.6 
L 394.924639 345.6 
L 394.924639 0 
L 65.875361 0 
z
" style="fill: #ffffff"/>
   </g>
   <g id="matplotlib.axis_1">
    <g id="xtick_1">
     <g id="line2d_1">
      <defs>
       <path id="m264c03592d" d="M 0 0 
L 0 3.5 
" style="stroke: #000000; stroke-width: 0.8"/>
      </defs>
      <g>
       <use xlink:href="#m264c03592d" x="147.314872" y="172.788123" style="stroke: #000000; stroke-width: 0.8"/>
      </g>
     </g>
     <g id="text_1">
      <!-- −0.5 -->
      <g transform="translate(135.173466 187.386561) scale(0.1 -0.1)">
       <defs>
        <path id="DejaVuSans-2212" d="M 678 2272 
L 4684 2272 
L 4684 1741 
L 678 1741 
L 678 2272 
z
" transform="scale(0.015625)"/>
        <path id="DejaVuSans-30" d="M 2034 4250 
Q 1547 4250 1301 3770 
Q 1056 3291 1056 2328 
Q 1056 1369 1301 889 
Q 1547 409 2034 409 
Q 2525 409 2770 889 
Q 3016 1369 3016 2328 
Q 3016 3291 2770 3770 
Q 2525 4250 2034 4250 
z
M 2034 4750 
Q 2819 4750 3233 4129 
Q 3647 3509 3647 2328 
Q 3647 1150 3233 529 
Q 2819 -91 2034 -91 
Q 1250 -91 836 529 
Q 422 1150 422 2328 
Q 422 3509 836 4129 
Q 1250 4750 2034 4750 
z
" transform="scale(0.015625)"/>
        <path id="DejaVuSans-2e" d="M 684 794 
L 1344 794 
L 1344 0 
L 684 0 
L 684 794 
z
" transform="scale(0.015625)"/>
        <path id="DejaVuSans-35" d="M 691 4666 
L 3169 4666 
L 3169 4134 
L 1269 4134 
L 1269 2991 
Q 1406 3038 1543 3061 
Q 1681 3084 1819 3084 
Q 2600 3084 3056 2656 
Q 3513 2228 3513 1497 
Q 3513 744 3044 326 
Q 2575 -91 1722 -91 
Q 1428 -91 1123 -41 
Q 819 9 494 109 
L 494 744 
Q 775 591 1075 516 
Q 1375 441 1709 441 
Q 2250 441 2565 725 
Q 2881 1009 2881 1497 
Q 2881 1984 2565 2268 
Q 2250 2553 1709 2553 
Q 1456 2553 1204 2497 
Q 953 2441 691 2322 
L 691 4666 
z
" transform="scale(0.015625)"/>
       </defs>
       <use xlink:href="#DejaVuSans-2212"/>
       <use xlink:href="#DejaVuSans-30" transform="translate(83.789062 0)"/>
       <use xlink:href="#DejaVuSans-2e" transform="translate(147.412109 0)"/>
       <use xlink:href="#DejaVuSans-35" transform="translate(179.199219 0)"/>
      </g>
     </g>
    </g>
    <g id="xtick_2">
     <g id="line2d_2">
      <g>
       <use xlink:href="#m264c03592d" x="230.398685" y="172.788123" style="stroke: #000000; stroke-width: 0.8"/>
      </g>
     </g>
    </g>
    <g id="xtick_3">
     <g id="line2d_3">
      <g>
       <use xlink:href="#m264c03592d" x="313.482498" y="172.788123" style="stroke: #000000; stroke-width: 0.8"/>
      </g>
     </g>
     <g id="text_2">
      <!-- 0.5 -->
      <g transform="translate(305.530936 187.386561) scale(0.1 -0.1)">
       <use xlink:href="#DejaVuSans-30"/>
       <use xlink:href="#DejaVuSans-2e" transform="translate(63.623047 0)"/>
       <use xlink:href="#DejaVuSans-35" transform="translate(95.410156 0)"/>
      </g>
     </g>
    </g>
    <g id="xtick_4">
     <g id="line2d_4">
      <defs>
       <path id="m3c20669ca1" d="M 0 0 
L 0 2 
" style="stroke: #000000; stroke-width: 0.6"/>
      </defs>
      <g>
       <use xlink:href="#m3c20669ca1" x="80.847822" y="172.788123" style="stroke: #000000; stroke-width: 0.6"/>
      </g>
     </g>
    </g>
    <g id="xtick_5">
     <g id="line2d_5">
      <g>
       <use xlink:href="#m3c20669ca1" x="97.464584" y="172.788123" style="stroke: #000000; stroke-width: 0.6"/>
      </g>
     </g>
    </g>
    <g id="xtick_6">
     <g id="line2d_6">
      <g>
       <use xlink:href="#m3c20669ca1" x="114.081347" y="172.788123" style="stroke: #000000; stroke-width: 0.6"/>
      </g>
     </g>
    </g>
    <g id="xtick_7">
     <g id="line2d_7">
      <g>
       <use xlink:href="#m3c20669ca1" x="130.698109" y="172.788123" style="stroke: #000000; stroke-width: 0.6"/>
      </g>
     </g>
    </g>
    <g id="xtick_8">
     <g id="line2d_8">
      <g>
       <use xlink:href="#m3c20669ca1" x="163.931635" y="172.788123" style="stroke: #000000; stroke-width: 0.6"/>
      </g>
     </g>
    </g>
    <g id="xtick_9">
     <g id="line2d_9">
      <g>
       <use xlink:href="#m3c20669ca1" x="180.548397" y="172.788123" style="stroke: #000000; stroke-width: 0.6"/>
      </g>
     </g>
    </g>
    <g id="xtick_10">
     <g id="line2d_10">
      <g>
       <use xlink:href="#m3c20669ca1" x="197.16516" y="172.788123" style="stroke: #000000; stroke-width: 0.6"/>
      </g>
     </g>
    </g>
    <g id="xtick_11">
     <g id="line2d_11">
      <g>
       <use xlink:href="#m3c20669ca1" x="213.781922" y="172.788123" style="stroke: #000000; stroke-width: 0.6"/>
      </g>
     </g>
    </g>
    <g id="xtick_12">
     <g id="line2d_12">
      <g>
       <use xlink:href="#m3c20669ca1" x="247.015448" y="172.788123" style="stroke: #000000; stroke-width: 0.6"/>
      </g>
     </g>
    </g>
    <g id="xtick_13">
     <g id="line2d_13">
      <g>
       <use xlink:href="#m3c20669ca1" x="263.63221" y="172.788123" style="stroke: #000000; stroke-width: 0.6"/>
      </g>
     </g>
    </g>
    <g id="xtick_14">
     <g id="line2d_14">
      <g>
       <use xlink:href="#m3c20669ca1" x="280.248973" y="172.788123" style="stroke: #000000; stroke-width: 0.6"/>
      </g>
     </g>
    </g>
    <g id="xtick_15">
     <g id="line2d_15">
      <g>
       <use xlink:href="#m3c20669ca1" x="296.865735" y="172.788123" style="stroke: #000000; stroke-width: 0.6"/>
      </g>
     </g>
    </g>
    <g id="xtick_16">
     <g id="line2d_16">
      <g>
       <use xlink:href="#m3c20669ca1" x="330.099261" y="172.788123" style="stroke: #000000; stroke-width: 0.6"/>
      </g>
     </g>
    </g>
    <g id="xtick_17">
     <g id="line2d_17">
      <g>
       <use xlink:href="#m3c20669ca1" x="346.716023" y="172.788123" style="stroke: #000000; stroke-width: 0.6"/>
      </g>
     </g>
    </g>
    <g id="xtick_18">
     <g id="line2d_18">
      <g>
       <use xlink:href="#m3c20669ca1" x="363.332786" y="172.788123" style="stroke: #000000; stroke-width: 0.6"/>
      </g>
     </g>
    </g>
    <g id="xtick_19">
     <g id="line2d_19">
      <g>
       <use xlink:href="#m3c20669ca1" x="379.949548" y="172.788123" style="stroke: #000000; stroke-width: 0.6"/>
      </g>
     </g>
    </g>
   </g>
   <g id="matplotlib.axis_2">
    <g id="ytick_1">
     <g id="line2d_20">
      <defs>
       <path id="m2aecc92297" d="M 0 0 
L -3.5 0 
" style="stroke: #000000; stroke-width: 0.8"/>
      </defs>
      <g>
       <use xlink:href="#m2aecc92297" x="230.398685" y="338.955749" style="stroke: #000000; stroke-width: 0.8"/>
      </g>
     </g>
     <g id="text_3">
      <!-- −1.0 -->
      <g transform="translate(199.115873 342.754968) scale(0.1 -0.1)">
       <defs>
        <path id="DejaVuSans-31" d="M 794 531 
L 1825 531 
L 1825 4091 
L 703 3866 
L 703 4441 
L 1819 4666 
L 2450 4666 
L 2450 531 
L 3481 531 
L 3481 0 
L 794 0 
L 794 531 
z
" transform="scale(0.015625)"/>
       </defs>
       <use xlink:href="#DejaVuSans-2212"/>
       <use xlink:href="#DejaVuSans-31" transform="translate(83.789062 0)"/>
       <use xlink:href="#DejaVuSans-2e" transform="translate(147.412109 0)"/>
       <use xlink:href="#DejaVuSans-30" transform="translate(179.199219 0)"/>
      </g>
     </g>
    </g>
    <g id="ytick_2">
     <g id="line2d_21">
      <g>
       <use xlink:href="#m2aecc92297" x="230.398685" y="255.871936" style="stroke: #000000; stroke-width: 0.8"/>
      </g>
     </g>
     <g id="text_4">
      <!-- −0.5 -->
      <g transform="translate(199.115873 259.671155) scale(0.1 -0.1)">
       <use xlink:href="#DejaVuSans-2212"/>
       <use xlink:href="#DejaVuSans-30" transform="translate(83.789062 0)"/>
       <use xlink:href="#DejaVuSans-2e" transform="translate(147.412109 0)"/>
       <use xlink:href="#DejaVuSans-35" transform="translate(179.199219 0)"/>
      </g>
     </g>
    </g>
    <g id="ytick_3">
     <g id="line2d_22">
      <g>
       <use xlink:href="#m2aecc92297" x="230.398685" y="172.788123" style="stroke: #000000; stroke-width: 0.8"/>
      </g>
     </g>
    </g>
    <g id="ytick_4">
     <g id="line2d_23">
      <g>
       <use xlink:href="#m2aecc92297" x="230.398685" y="89.70431" style="stroke: #000000; stroke-width: 0.8"/>
      </g>
     </g>
     <g id="text_5">
      <!-- 0.5 -->
      <g transform="translate(207.49556 93.503529) scale(0.1 -0.1)">
       <use xlink:href="#DejaVuSans-30"/>
       <use xlink:href="#DejaVuSans-2e" transform="translate(63.623047 0)"/>
       <use xlink:href="#DejaVuSans-35" transform="translate(95.410156 0)"/>
      </g>
     </g>
    </g>
    <g id="ytick_5">
     <g id="line2d_24">
      <g>
       <use xlink:href="#m2aecc92297" x="230.398685" y="6.620497" style="stroke: #000000; stroke-width: 0.8"/>
      </g>
     </g>
     <g id="text_6">
      <!-- 1.0 -->
      <g transform="translate(207.49556 10.419716) scale(0.1 -0.1)">
       <use xlink:href="#DejaVuSans-31"/>
       <use xlink:href="#DejaVuSans-2e" transform="translate(63.623047 0)"/>
       <use xlink:href="#DejaVuSans-30" transform="translate(95.410156 0)"/>
      </g>
     </g>
    </g>
    <g id="ytick_6">
     <g id="line2d_25">
      <defs>
       <path id="m81ec93fa2f" d="M 0 0 
L -2 0 
" style="stroke: #000000; stroke-width: 0.6"/>
      </defs>
      <g>
       <use xlink:href="#m81ec93fa2f" x="230.398685" y="322.338987" style="stroke: #000000; stroke-width: 0.6"/>
      </g>
     </g>
    </g>
    <g id="ytick_7">
     <g id="line2d_26">
      <g>
       <use xlink:href="#m81ec93fa2f" x="230.398685" y="305.722224" style="stroke: #000000; stroke-width: 0.6"/>
      </g>
     </g>
    </g>
    <g id="ytick_8">
     <g id="line2d_27">
      <g>
       <use xlink:href="#m81ec93fa2f" x="230.398685" y="289.105461" style="stroke: #000000; stroke-width: 0.6"/>
      </g>
     </g>
    </g>
    <g id="ytick_9">
     <g id="line2d_28">
      <g>
       <use xlink:href="#m81ec93fa2f" x="230.398685" y="272.488699" style="stroke: #000000; stroke-width: 0.6"/>
      </g>
     </g>
    </g>
    <g id="ytick_10">
     <g id="line2d_29">
      <g>
       <use xlink:href="#m81ec93fa2f" x="230.398685" y="239.255174" style="stroke: #000000; stroke-width: 0.6"/>
      </g>
     </g>
    </g>
    <g id="ytick_11">
     <g id="line2d_30">
      <g>
       <use xlink:href="#m81ec93fa2f" x="230.398685" y="222.638411" style="stroke: #000000; stroke-width: 0.6"/>
      </g>
     </g>
    </g>
    <g id="ytick_12">
     <g id="line2d_31">
      <g>
       <use xlink:href="#m81ec93fa2f" x="230.398685" y="206.021648" style="stroke: #000000; stroke-width: 0.6"/>
      </g>
     </g>
    </g>
    <g id="ytick_13">
     <g id="line2d_32">
      <g>
       <use xlink:href="#m81ec93fa2f" x="230.398685" y="189.404886" style="stroke: #000000; stroke-width: 0.6"/>
      </g>
     </g>
    </g>
    <g id="ytick_14">
     <g id="line2d_33">
      <g>
       <use xlink:href="#m81ec93fa2f" x="230.398685" y="156.171361" style="stroke: #000000; stroke-width: 0.6"/>
      </g>
     </g>
    </g>
    <g id="ytick_15">
     <g id="line2d_34">
      <g>
       <use xlink:href="#m81ec93fa2f" x="230.398685" y="139.554598" style="stroke: #000000; stroke-width: 0.6"/>
      </g>
     </g>
    </g>
    <g id="ytick_16">
     <g id="line2d_35">
      <g>
       <use xlink:href="#m81ec93fa2f" x="230.398685" y="122.937835" style="stroke: #000000; stroke-width: 0.6"/>
      </g>
     </g>
    </g>
    <g id="ytick_17">
     <g id="line2d_36">
      <g>
       <use xlink:href="#m81ec93fa2f" x="230.398685" y="106.321073" style="stroke: #000000; stroke-width: 0.6"/>
      </g>
     </g>
    </g>
    <g id="ytick_18">
     <g id="line2d_37">
      <g>
       <use xlink:href="#m81ec93fa2f" x="230.398685" y="73.087548" style="stroke: #000000; stroke-width: 0.6"/>
      </g>
     </g>
    </g>
    <g id="ytick_19">
     <g id="line2d_38">
      <g>
       <use xlink:href="#m81ec93fa2f" x="230.398685" y="56.470785" style="stroke: #000000; stroke-width: 0.6"/>
      </g>
     </g>
    </g>
    <g id="ytick_20">
     <g id="line2d_39">
      <g>
       <use xlink:href="#m81ec93fa2f" x="230.398685" y="39.854022" style="stroke: #000000; stroke-width: 0.6"/>
      </g>
     </g>
    </g>
    <g id="ytick_21">
     <g id="line2d_40">
      <g>
       <use xlink:href="#m81ec93fa2f" x="230.398685" y="23.23726" style="stroke: #000000; stroke-width: 0.6"/>
      </g>
     </g>
    </g>
   </g>
   <g id="line2d_41">
    <path d="M 230.398685 172.788123 
L 234.654869 172.651217 
L 242.025465 172.164559 
L 249.702226 171.441468 
L 256.729474 170.623389 
L 264.60174 169.549458 
L 275.878904 167.742548 
L 288.059215 165.450895 
L 299.347858 163.013628 
L 310.84596 160.211185 
L 327.184849 155.626297 
L 336.959887 152.499985 
L 346.272423 149.204893 
L 354.968343 145.7903 
L 362.904388 142.311177 
L 369.514991 139.056056 
L 374.51872 136.285268 
L 378.823125 133.582718 
L 382.383609 130.98233 
L 385.163806 128.517827 
L 386.397352 127.175842 
L 387.359902 125.895757 
L 388.04848 124.683504 
L 388.461101 123.544814 
L 388.596768 122.485192 
L 388.455479 121.509882 
L 388.038219 120.623839 
L 387.346955 119.831704 
L 386.145707 119.003418 
L 384.55321 118.326376 
L 382.578605 117.806634 
L 380.232996 117.449333 
L 376.615157 117.233772 
L 372.415396 117.311578 
L 367.672785 117.68631 
L 362.431026 118.35823 
L 357.541588 119.174924 
L 352.348909 120.206744 
L 346.887867 121.447734 
L 341.194912 122.890042 
L 334.660579 124.711819 
L 327.940671 126.753028 
L 321.889416 128.725275 
L 315.773018 130.84014 
L 303.49599 135.432887 
L 294.30965 139.160816 
L 285.359376 143.028347 
L 272.640646 148.928923 
L 263.954881 153.24371 
L 255.310712 157.787419 
L 247.18568 162.313629 
L 240.084055 166.511839 
L 233.765401 170.500185 
L 230.411404 172.77892 
L 232.033731 171.543593 
L 236.799858 167.684557 
L 242.318034 162.944481 
L 247.362423 158.405958 
L 253.731699 152.422416 
L 260.730507 145.535791 
L 265.658011 140.492388 
L 270.727838 135.131431 
L 275.88324 129.4941 
L 281.067466 123.625225 
L 293.742249 108.320766 
L 302.042347 97.402064 
L 305.929606 91.97457 
L 309.601991 86.617933 
L 315.62434 77.209391 
L 319.976264 69.719251 
L 322.253543 65.443512 
L 324.248766 61.389726 
L 325.951004 57.583573 
L 327.093933 54.738381 
L 328.040802 52.078465 
L 328.788931 49.614957 
L 329.33651 47.358289 
L 329.702275 45.15863 
L 329.831605 43.224232 
L 329.725595 41.565202 
L 329.38649 40.190432 
L 328.817652 39.107546 
L 328.023533 38.322852 
L 327.009633 37.841301 
L 325.782463 37.666453 
L 324.568593 37.762009 
L 323.209215 38.084255 
L 321.710002 38.632908 
L 320.077066 39.406903 
L 318.187856 40.4833 
L 316.161302 41.812622 
L 314.006336 43.390572 
L 311.732294 45.21184 
L 307.015057 49.416961 
L 301.96003 54.457599 
L 296.70827 60.191308 
L 291.278042 66.593679 
L 285.745791 73.574898 
L 280.187052 81.035694 
L 272.967094 91.384674 
L 265.985096 102.11542 
L 258.278302 114.842084 
L 251.80569 126.330928 
L 246.080967 137.207934 
L 241.775527 145.926308 
L 238.154328 153.709802 
L 235.119164 160.650375 
L 232.185018 167.890957 
L 230.407023 172.762236 
L 230.938361 170.998642 
L 232.702623 164.397628 
L 234.824975 155.223774 
L 236.635813 146.238041 
L 237.672916 140.508334 
L 239.6754 127.826461 
L 241.40354 114.226095 
L 242.141256 107.099459 
L 242.77492 99.829247 
L 244.006921 74.184928 
L 244.011276 63.496659 
L 243.800971 55.884946 
L 243.145347 45.094339 
L 242.486987 38.421522 
L 241.430013 30.794689 
L 240.67911 26.641357 
L 239.846818 22.829338 
L 238.362114 17.492658 
L 237.140499 14.14506 
L 235.733276 11.191474 
L 234.946093 9.898978 
L 234.14117 8.817154 
L 233.321635 7.948914 
L 232.490681 7.296594 
L 231.65155 6.861951 
L 230.807521 6.646154 
L 229.961893 6.649784 
L 228.961007 6.938681 
L 227.968033 7.535365 
L 226.98843 8.437576 
L 226.027575 9.641895 
L 225.090728 11.14376 
L 224.183002 12.937483 
L 223.309331 15.016274 
L 222.474434 17.372265 
L 221.057181 22.389421 
L 219.959356 27.455997 
L 219.006291 33.113153 
L 218.210213 39.30615 
L 217.874172 42.585073 
L 217.333604 49.425619 
L 216.966889 56.640051 
L 216.776574 64.159798 
L 216.762255 71.913544 
L 217.052943 83.584484 
L 217.693617 95.364856 
L 218.34911 103.749198 
L 219.148922 111.980006 
L 220.072409 119.972325 
L 221.789841 132.338152 
L 223.238415 141.161887 
L 225.087583 150.980196 
L 227.184762 160.629325 
L 229.065546 168.15042 
L 230.392951 172.770349 
L 229.630151 170.60049 
L 227.073426 164.011129 
L 224.201355 157.217503 
L 220.39702 148.827636 
L 216.959568 141.685543 
L 213.034048 133.933699 
L 207.294077 123.240518 
L 201.95568 113.87826 
L 196.218446 104.366054 
L 183.891468 85.646353 
L 179.486162 79.491294 
L 175.060345 73.586315 
L 170.651193 67.985203 
L 163.794454 59.857283 
L 158.915979 54.539892 
L 154.352535 49.959774 
L 150.144934 46.126589 
L 146.242843 42.974613 
L 142.694659 40.535758 
L 139.89376 38.994794 
L 137.739735 38.131437 
L 135.857864 37.710547 
L 134.263544 37.73269 
L 133.246806 38.047211 
L 132.281691 38.745942 
L 131.576278 39.794327 
L 131.136657 41.185077 
L 130.967458 42.909104 
L 131.071806 44.955581 
L 131.451279 47.312025 
L 132.105878 49.964381 
L 133.740983 54.837096 
L 135.458649 59.000417 
L 137.87723 64.127155 
L 141.146058 70.305911 
L 144.977924 76.888347 
L 149.32501 83.788951 
L 151.674557 87.33108 
L 156.180397 93.833022 
L 160.98601 100.419846 
L 177.491463 121.025446 
L 183.793487 128.242912 
L 193.168491 138.429362 
L 199.217568 144.678076 
L 205.994001 151.388915 
L 212.902417 157.916264 
L 218.908564 163.322009 
L 225.064346 168.570128 
L 230.225955 172.66072 
L 230.39545 172.785768 
L 227.818183 171.019713 
L 223.211822 168.054804 
L 215.508066 163.410376 
L 206.658379 158.423998 
L 198.138916 153.908707 
L 191.900521 150.759285 
L 179.418089 144.823133 
L 173.362516 142.110801 
L 160.81767 136.830821 
L 150.226857 132.730891 
L 139.622334 128.966113 
L 133.484543 126.951906 
L 127.448216 125.097302 
L 120.686382 123.180433 
L 114.167633 121.509987 
L 104.967556 119.497712 
L 99.254474 118.494137 
L 93.938279 117.774714 
L 91.461572 117.52618 
L 87.729413 117.281567 
L 82.810831 117.277864 
L 80.014057 117.514167 
L 77.623591 117.937022 
L 75.654389 118.54116 
L 74.118983 119.320094 
L 73.027393 120.2662 
L 72.650456 120.799267 
L 72.305918 121.639386 
L 72.203232 122.355794 
L 72.249794 123.117998 
L 72.445706 123.923951 
L 72.790779 124.771527 
L 73.28454 125.658529 
L 74.71478 127.541694 
L 75.648874 128.533158 
L 77.027794 129.822484 
L 78.630491 131.154422 
L 82.488349 133.92617 
L 87.178 136.808052 
L 92.644625 139.759547 
L 96.909771 141.850466 
L 101.500867 143.942433 
L 106.390911 146.022342 
L 111.551037 148.077583 
L 118.790678 150.756166 
L 126.378777 153.343302 
L 134.235091 155.81506 
L 142.276299 158.150344 
L 156.147266 161.762459 
L 169.877834 164.862055 
L 181.454957 167.126479 
L 192.322438 168.963664 
L 202.288317 170.394687 
L 212.821253 171.620518 
L 221.128063 172.345407 
L 228.189937 172.737064 
L 230.39849 172.788123 
L 229.142565 172.809997 
L 224.70951 173.000054 
L 216.639605 173.592948 
L 209.275848 174.333118 
L 199.963822 175.492816 
L 192.09695 176.64782 
L 180.810161 178.567587 
L 173.398164 179.992222 
L 165.771321 181.593524 
L 158.004921 183.367542 
L 135.617229 189.346318 
L 127.997252 191.707371 
L 120.610973 194.180146 
L 110.278143 197.9935 
L 105.432224 199.950853 
L 100.834865 201.928307 
L 96.510515 203.914993 
L 92.482087 205.89965 
L 88.770833 207.870703 
L 85.396232 209.81635 
L 82.370738 211.728071 
L 79.716511 213.590241 
L 77.915542 214.998342 
L 76.353603 216.363469 
L 75.035451 217.680068 
L 73.965029 218.942684 
L 73.232787 220.001129 
L 72.694978 221.010477 
L 72.352683 221.967335 
L 72.20648 222.868427 
L 72.256453 223.710605 
L 72.502188 224.490862 
L 72.942779 225.206347 
L 73.576829 225.854372 
L 74.317047 226.381315 
L 75.212897 226.849043 
L 76.262319 227.255952 
L 78.812076 227.881593 
L 81.943683 228.248276 
L 85.982542 228.344348 
L 91.042384 228.085817 
L 96.762869 227.448116 
L 103.077176 226.433962 
L 110.224155 224.982428 
L 118.180245 223.059775 
L 122.319761 221.949166 
L 130.415114 219.58358 
L 138.735244 216.908948 
L 147.181391 213.96224 
L 155.654292 210.785701 
L 169.064402 205.325811 
L 181.895649 199.612305 
L 187.616132 196.908027 
L 196.954304 192.275402 
L 205.38224 187.845305 
L 212.751272 183.754886 
L 220.308974 179.31054 
L 227.466707 174.789613 
L 230.39281 172.792404 
L 228.790023 174.012107 
L 224.542244 177.438132 
L 218.5294 182.587659 
L 212.079444 188.420611 
L 204.650554 195.493669 
L 196.582521 203.589913 
L 188.711369 211.911381 
L 183.572351 217.581348 
L 173.307184 229.524 
L 164.121009 241.022149 
L 160.211594 246.196458 
L 156.45866 251.352738 
L 152.887722 256.459392 
L 147.276626 264.976716 
L 143.156435 271.746465 
L 139.575032 278.158072 
L 136.576375 284.127517 
L 134.395143 289.080241 
L 132.888397 293.103925 
L 131.669703 297.281811 
L 131.240902 299.395614 
L 131.009836 301.292078 
L 130.976129 302.963013 
L 131.123338 304.321402 
L 131.442254 305.468595 
L 131.930645 306.399865 
L 132.585688 307.111207 
L 133.403983 307.599353 
L 134.381578 307.861792 
L 135.513985 307.896781 
L 136.796206 307.703361 
L 138.99921 306.980287 
L 141.509167 305.741163 
L 143.499117 304.529646 
L 145.627952 303.056681 
L 147.885983 301.327326 
L 150.263101 299.347732 
L 155.332399 294.667781 
L 160.748641 289.087068 
L 165.05441 284.280747 
L 169.468509 279.044593 
L 172.940539 274.718319 
L 179.931182 265.475721 
L 183.412929 260.611895 
L 197.158938 239.687564 
L 205.901445 224.828821 
L 211.740781 214.114068 
L 217.37482 203.046812 
L 222.005409 193.271963 
L 225.594587 185.123411 
L 228.486108 178.012062 
L 230.395033 172.799428 
L 229.958097 174.2379 
L 228.35555 180.143103 
L 226.618689 187.414585 
L 225.113119 194.469803 
L 223.305383 204.033214 
L 221.53615 214.913884 
L 219.961814 226.498701 
L 218.625068 238.80334 
L 216.821667 269.64551 
L 216.749981 278.370731 
L 216.895265 286.841558 
L 217.523038 298.854124 
L 217.840006 302.625822 
L 218.842635 311.325976 
L 219.984583 318.251676 
L 220.808613 322.145527 
L 221.709729 325.675997 
L 222.680918 328.823331 
L 223.658922 331.436149 
L 224.685975 333.675958 
L 225.754677 335.531487 
L 226.857284 336.993391 
L 227.985774 338.054308 
L 229.131914 338.708892 
L 230.287323 338.953846 
L 231.443548 338.787935 
L 232.092761 338.513414 
L 232.73803 338.108894 
L 234.010748 336.912657 
L 235.24989 335.20689 
L 236.443996 333.002519 
L 237.582128 330.31352 
L 238.653823 327.157201 
L 239.42932 324.414476 
L 240.827966 318.172696 
L 241.999673 311.003143 
L 242.920977 303.014684 
L 243.362381 297.650812 
L 243.701886 291.924643 
L 243.927243 285.981738 
L 244.037876 279.858746 
L 244.034465 273.593358 
L 243.709286 261.136038 
L 242.988528 248.57398 
L 241.917714 236.196436 
L 240.5588 224.286461 
L 239.492721 216.482965 
L 238.05233 207.29038 
L 236.560621 198.940759 
L 234.375093 188.293574 
L 232.224064 179.293752 
L 230.458605 172.976968 
L 230.405085 172.80797 
L 231.312727 175.372745 
L 233.25441 180.403285 
L 236.311822 187.706944 
L 240.273921 196.478695 
L 243.916911 204.05092 
L 247.049094 210.260887 
L 252.932057 221.302231 
L 255.500373 225.899463 
L 260.956633 235.267704 
L 276.501443 259.350917 
L 283.300237 268.773418 
L 290.108084 277.543879 
L 294.963926 283.378735 
L 299.698484 288.707791 
L 304.258182 293.472598 
L 308.590116 297.621744 
L 313.099573 301.477374 
L 317.191324 304.459738 
L 319.060257 305.611567 
L 320.801065 306.532492 
L 322.4066 307.220069 
L 323.870138 307.672704 
L 325.457949 307.905889 
L 326.273638 307.879628 
L 327.009203 307.735071 
L 327.662908 307.472791 
L 328.233161 307.093569 
L 328.718515 306.598396 
L 329.117674 305.988465 
L 329.429494 305.265169 
L 329.65299 304.430101 
L 329.800917 303.318295 
L 329.826756 302.06027 
L 329.729789 300.659512 
L 329.16614 297.445362 
L 328.110552 293.710063 
L 326.346008 288.942464 
L 323.690311 283.015522 
L 320.333142 276.50742 
L 316.320057 269.517219 
L 313.359698 264.722198 
L 308.452632 257.255238 
L 303.075245 249.594403 
L 297.308526 241.846344 
L 291.241242 234.116793 
L 279.145448 219.750901 
L 273.03833 212.947559 
L 267.014756 206.501204 
L 259.352694 198.659146 
L 251.769547 191.281356 
L 245.019661 185.039608 
L 239.139396 179.870336 
L 233.384626 175.098745 
L 230.431811 172.812032 
L 231.780389 173.750029 
L 236.383105 176.764115 
L 242.778846 180.687636 
L 249.388147 184.516295 
L 257.232859 188.822049 
L 264.376926 192.547816 
L 272.147289 196.408614 
L 280.445045 200.325075 
L 289.161953 204.219428 
L 299.577375 208.583176 
L 315.965529 214.804471 
L 324.128157 217.594896 
L 336.542426 221.406257 
L 345.049648 223.678513 
L 349.133731 224.656799 
L 354.548581 225.825514 
L 359.673954 226.777581 
L 366.742581 227.78836 
L 371.330419 228.20222 
L 375.737102 228.350706 
L 377.719865 228.310172 
L 380.460449 228.101352 
L 383.860435 227.46253 
L 385.633862 226.826664 
L 387.000039 226.029845 
L 387.950579 225.079202 
L 388.479357 223.982765 
L 388.582546 222.749391 
L 388.473988 222.084327 
L 388.124427 221.060211 
L 387.548586 219.975162 
L 386.56306 218.601395 
L 385.258456 217.153798 
L 383.639672 215.640118 
L 381.712943 214.068287 
L 379.485819 212.446381 
L 376.967138 210.782567 
L 374.166986 209.085053 
L 368.348986 205.916883 
L 363.823828 203.695674 
L 358.931209 201.473493 
L 353.70361 199.266031 
L 348.175876 197.088336 
L 341.871069 194.771961 
L 335.305419 192.524691 
L 328.531106 190.362207 
L 321.602105 188.298605 
L 297.912727 182.23581 
L 289.481384 180.415708 
L 281.284171 178.807541 
L 269.639868 176.795962 
L 259.878749 175.363267 
L 251.590942 174.340878 
L 242.724206 173.469312 
L 235.583062 172.972373 
L 230.398685 172.788123 
L 230.398685 172.788123 
" clip-path="url(#pd3d3591d7e)" style="fill: none; stroke: #0000ff; stroke-linecap: square"/>
   </g>
   <g id="patch_3">
    <path d="M 230.398685 345.6 
L 230.398685 0 
" style="fill: none; stroke: #000000; stroke-width: 0.8; stroke-linejoin: miter; stroke-linecap: square"/>
   </g>
   <g id="patch_4">
    <path d="M 65.875361 172.788123 
L 394.924639 172.788123 
" style="fill: none; stroke: #000000; stroke-width: 0.8; stroke-linejoin: miter; stroke-linecap: square"/>
   </g>
  </g>
 </g>
 <defs>
  <clipPath id="pd3d3591d7e">
   <rect x="65.875361" y="0" width="329.049278" height="345.6"/>
  </clipPath>
 </defs>
</svg>
