<?xml version="1.0" encoding="utf-8" standalone="no"?>
<!DOCTYPE svg PUBLIC "-//W3C//DTD SVG 1.1//EN"
  "http://www.w3.org/Graphics/SVG/1.1/DTD/svg11.dtd">
<svg xmlns:xlink="http://www.w3.org/1999/xlink" width="460.8pt" height="345.6pt" viewBox="0 0 460.8 345.6" xmlns="http://www.w3.org/2000/svg" version="1.1">
 <metadata>
  <rdf:RDF xmlns:dc="http://purl.org/dc/elements/1.1/" xmlns:cc="http://creativecommons.org/ns#" xmlns:rdf="http://www.w3.org/1999/02/22-rdf-syntax-ns#">
   <cc:Work>
    <dc:type rdf:resource="http://purl.org/dc/dcmitype/StillImage"/>
    <dc:date>2025-08-02T16:01:16.971173</dc:date>
    <dc:format>image/svg+xml</dc:format>
    <dc:creator>
     <cc:Agent>
      <dc:title>Matplotlib v3.10.3, https://matplotlib.org/</dc:title>
     </cc:Agent>
    </dc:creator>
   </cc:Work>
  </rdf:RDF>
 </metadata>
 <defs>
  <style type="text/css">*{stroke-linejoin: round; stroke-linecap: butt}</style>
 </defs>
 <g id="figure_1">
  <g id="patch_1">
   <path d="M 0 345.6 
L 460.8 345.6 
L 460.8 0 
L 0 0 
z
" style="fill: #ffffff"/>
  </g>
  <g id="axes_1">
   <g id="patch_2">
    <path d="M 0 345.6 
L 460.8 345.6 
L 460.8 0 
L 0 0 
z
" style="fill: #ffffff"/>
   </g>
   <g id="patch_3">
    <path d="M 451.938462 39.876923 
L 450.535656 40.613396 
L 448.231629 41.82301 
L 444.76904 43.640869 
L 442.582896 44.788595 
L 440.629111 45.814332 
L 439.097784 46.618279 
L 437.096434 47.668988 
L 434.916259 48.813579 
L 432.3382 50.16706 
L 428.647054 52.104912 
L 426.905357 53.019303 
L 425.83728 53.580043 
L 423.914574 54.589464 
L 421.331857 55.94539 
L 418.582831 57.388629 
L 417.373877 58.02333 
L 414.343306 59.61438 
L 412.610518 60.524094 
L 410.676657 61.53937 
L 407.350906 63.28539 
L 404.475975 64.794729 
L 403.851853 65.122392 
L 401.377929 66.421203 
L 399.581991 67.36407 
L 396.873596 68.785977 
L 392.948207 70.846807 
L 390.727398 72.012731 
L 388.792582 73.02851 
L 387.070595 73.932553 
L 385.378256 74.821031 
L 383.643836 75.731601 
L 380.223377 77.527342 
L 377.362587 79.029257 
L 377.049986 79.193373 
L 374.993736 80.272904 
L 370.687411 82.533725 
L 370.408457 82.680176 
L 366.738082 84.607122 
L 364.55338 85.754091 
L 362.337466 86.917446 
L 361.50005 87.357089 
L 357.868126 89.263849 
L 355.711676 90.395985 
L 353.614417 91.497046 
L 351.486537 92.614184 
L 349.677296 93.564035 
L 347.199293 94.864987 
L 345.796357 95.601528 
L 343.64814 96.729342 
L 341.283813 97.970613 
L 338.778813 99.285738 
L 335.975649 100.757399 
L 333.805382 101.89679 
L 332.666315 102.4948 
L 328.4306 104.71855 
L 326.323504 105.824776 
L 326.119104 105.932086 
L 322.326335 107.923289 
L 320.229194 109.024288 
L 318.325505 110.023725 
L 315.190294 111.669711 
L 314.066824 112.259533 
L 310.743866 114.004086 
L 308.816151 115.016136 
L 306.132299 116.425158 
L 304.06869 117.508553 
L 302.228825 118.474483 
L 300.100233 119.591993 
L 297.780555 120.809824 
L 295.98499 121.752496 
L 294.401898 122.583619 
L 291.251385 124.237638 
L 290.468816 124.648487 
L 286.456187 126.755117 
L 285.690477 127.157115 
L 281.852905 129.17184 
L 280.971072 129.634802 
L 278.504376 130.929818 
L 274.956159 132.792632 
L 273.300647 133.661776 
L 272.357223 134.157073 
L 269.919224 135.437023 
L 266.715663 137.118892 
L 265.103143 137.965465 
L 262.457847 139.354246 
L 260.883299 140.180883 
L 259.29325 141.015659 
L 255.250719 143.137988 
L 252.798639 144.42533 
L 250.61764 145.570355 
L 248.452505 146.70705 
L 246.062228 147.961945 
L 244.806273 148.621322 
L 243.39322 149.363175 
L 239.952538 151.169533 
L 237.677011 152.364185 
L 236.265256 153.105356 
L 232.629776 155.013983 
L 232.549874 155.055931 
L 229.333963 156.744285 
L 226.496596 158.233902 
L 225.45006 158.783334 
L 222.21522 160.481625 
L 219.818512 161.739897 
L 218.106635 162.638632 
L 216.483782 163.49063 
L 212.687919 165.483458 
L 211.164854 166.283067 
L 209.846479 166.975214 
L 207.751326 168.075169 
L 203.823842 170.137098 
L 201.867643 171.164103 
L 199.671984 172.316824 
L 197.722017 173.340557 
L 195.750471 174.375618 
L 193.271696 175.676975 
L 192.406888 176.130999 
L 189.673817 177.565862 
L 187.489643 178.712553 
L 184.616525 180.22094 
L 183.496396 180.809008 
L 179.487526 182.913664 
L 178.194983 183.592249 
L 175.547633 184.982108 
L 173.792335 185.903639 
L 170.590942 187.584371 
L 169.518413 188.147449 
L 166.920786 189.511203 
L 163.67888 191.213204 
L 161.64119 192.28299 
L 160.974276 192.63312 
L 158.56514 193.897917 
L 156.665582 194.895185 
L 154.413686 196.07743 
L 151.664222 197.520899 
L 149.338379 198.741966 
L 147.666351 199.619781 
L 144.532786 201.264903 
L 142.874068 202.13573 
L 140.865401 203.19028 
L 137.040418 205.198396 
L 135.095462 206.219498 
L 132.762518 207.444293 
L 132.046925 207.81998 
L 129.185361 209.322301 
L 127.158526 210.386389 
L 124.072053 212.006788 
L 123.384739 212.367628 
L 120.582189 213.838966 
L 118.938245 214.702037 
L 116.333828 216.069356 
L 113.149429 217.741165 
L 112.390636 218.139531 
L 108.394156 220.237684 
L 106.749288 221.101239 
L 104.295084 222.389696 
L 101.650187 223.778267 
L 99.425991 224.94597 
L 97.16675 226.132072 
L 94.971449 227.284605 
L 94.275485 227.649986 
L 91.36131 229.179928 
L 89.014495 230.412006 
L 87.441083 231.238047 
L 85.656833 232.174778 
L 82.327778 233.922532 
L 80.993227 234.623171 
L 78.434437 235.966536 
L 76.23441 237.12155 
L 73.19816 238.715581 
L 71.813077 239.44275 
L 68.95626 240.942579 
L 67.035429 241.951015 
L 63.572425 243.769092 
L 61.903353 244.645355 
L 59.158279 246.086519 
L 57.20728 247.110793 
L 56.479547 247.492853 
L 53.739862 248.931188 
L 50.804973 250.472005 
L 49.761052 251.020063 
L 46.582158 252.688983 
L 44.809887 253.619425 
L 41.906607 255.143647 
L 41.140617 255.545791 
L 38.607516 256.875669 
L 34.670162 258.94278 
L 32.739596 259.956327 
L 31.292778 260.715907 
L 29.265766 261.780088 
L 25.898864 263.547712 
L 24.158524 264.46139 
L 22.447762 265.35954 
L 21.055667 266.09039 
L 18.358405 267.506453 
L 14.682835 269.436127 
L 13.282188 270.171467 
L 11.035417 271.351022 
L 8.861538 272.492308 
L 8.861538 280.646154 
L 10.324369 279.926263 
L 12.981512 278.620149 
L 16.389635 276.947874 
L 16.730431 276.780843 
L 19.399591 275.473867 
L 22.124751 274.141774 
L 23.667488 273.38873 
L 27.655633 271.445736 
L 29.788257 270.409016 
L 30.382669 270.120349 
L 32.622848 269.033615 
L 34.629281 268.061883 
L 38.739246 266.076346 
L 40.30474 265.32187 
L 42.781572 264.130322 
L 45.54829 262.802526 
L 47.606399 261.817088 
L 47.854442 261.698458 
L 50.329222 260.516498 
L 54.475027 258.543369 
L 54.841428 258.36942 
L 57.103999 257.296878 
L 61.006215 255.453886 
L 61.882177 255.041408 
L 63.810255 254.13516 
L 66.905674 252.685171 
L 68.184538 252.087959 
L 70.108588 251.191572 
L 73.578891 249.581518 
L 75.299544 248.78657 
L 78.000301 247.543533 
L 80.569854 246.366497 
L 82.153218 245.644063 
L 84.79008 244.446028 
L 85.968123 243.912923 
L 88.021494 242.986984 
L 92.316538 241.064459 
L 93.937237 240.344341 
L 96.718531 239.115827 
L 97.837095 238.624465 
L 99.180587 238.036444 
L 102.138353 236.750532 
L 103.786133 236.039572 
L 106.580111 234.843534 
L 108.418732 234.063338 
L 111.240737 232.877227 
L 113.071971 232.115381 
L 114.685035 231.449732 
L 118.445893 229.91902 
L 120.652708 229.035807 
L 123.328836 227.981081 
L 124.276589 227.612125 
L 127.220709 226.482459 
L 129.774002 225.524549 
L 131.067265 225.047754 
L 134.257008 223.898185 
L 134.670428 223.752126 
L 136.32571 223.174566 
L 137.980991 222.609227 
L 139.944429 221.955737 
L 141.412162 221.480301 
L 142.879895 221.016919 
L 144.05108 220.656386 
L 146.00676 220.074037 
L 147.962441 219.518517 
L 149.932957 218.98887 
L 151.131806 218.682856 
L 152.330655 218.390167 
L 153.435225 218.133123 
L 154.539795 217.889049 
L 155.321272 217.7247 
L 156.435071 217.503176 
L 157.548871 217.297607 
L 159.205822 217.024011 
L 160.700057 216.813781 
L 162.194291 216.642284 
L 163.029306 216.565016 
L 163.864322 216.502202 
L 164.699337 216.454848 
L 165.534352 216.424061 
L 166.190389 216.412284 
L 167.102542 216.415372 
L 168.014695 216.442847 
L 168.926848 216.496851 
L 169.839001 216.579793 
L 170.909678 216.717762 
L 171.445016 216.804656 
L 171.980355 216.904413 
L 172.924675 217.114106 
L 173.396835 217.2363 
L 173.868996 217.370912 
L 174.459602 217.557847 
L 175.050208 217.766807 
L 175.484958 217.935649 
L 175.919708 218.11803 
L 176.354458 218.314718 
L 176.789208 218.526545 
L 177.223958 218.754408 
L 177.658707 218.999281 
L 178.093457 219.262215 
L 178.528207 219.544354 
L 178.887596 219.792968 
L 179.246985 220.056313 
L 179.825588 220.513326 
L 180.404191 221.014415 
L 180.693493 221.282793 
L 180.982794 221.563824 
L 181.272096 221.858128 
L 181.561397 222.166366 
L 181.822036 222.456583 
L 182.082676 222.759234 
L 182.343315 223.074906 
L 182.603955 223.404223 
L 182.864594 223.747848 
L 183.125234 224.106491 
L 183.385873 224.48091 
L 183.646513 224.871912 
L 183.895897 225.262354 
L 184.145282 225.669582 
L 184.394667 226.094464 
L 184.644052 226.537929 
L 184.893436 227.000973 
L 185.142821 227.484664 
L 185.392206 227.990151 
L 185.641591 228.51867 
L 185.890976 229.071551 
L 186.14036 229.650232 
L 186.389745 230.256266 
L 186.63913 230.891332 
L 186.888515 231.557252 
L 187.137899 232.256004 
L 187.387284 232.98974 
L 187.636669 233.760803 
L 187.780503 234.22348 
L 187.924336 234.699948 
L 188.06817 235.190761 
L 188.212004 235.696505 
L 188.355837 236.217796 
L 188.499671 236.755288 
L 188.643505 237.30967 
L 188.787339 237.88167 
L 188.931172 238.472061 
L 189.075006 239.081659 
L 189.21884 239.711333 
L 189.362673 240.362002 
L 189.506507 241.034644 
L 189.650341 241.730297 
L 189.794174 242.450067 
L 189.938008 243.195133 
L 190.094782 244.037519 
L 190.251557 244.913193 
L 190.408331 245.824026 
L 190.565105 246.772036 
L 190.721879 247.759396 
L 190.878653 248.788452 
L 191.035428 249.861742 
L 191.113815 250.415824 
L 191.192202 250.982013 
L 191.270589 251.560688 
L 191.348976 252.152245 
L 191.427363 252.757098 
L 191.50575 253.375678 
L 191.584138 254.008434 
L 191.662525 254.655836 
L 191.740912 255.318374 
L 191.819299 255.996562 
L 191.897686 256.690935 
L 191.976073 257.402056 
L 192.05446 258.130511 
L 192.132847 258.876915 
L 192.211234 259.641914 
L 192.289622 260.426183 
L 192.368009 261.230431 
L 192.446396 262.055403 
L 192.548084 263.15777 
L 192.649772 264.298141 
L 192.755109 265.521555 
L 192.860445 266.790119 
L 192.965781 268.106295 
L 193.071117 269.47273 
L 193.176454 270.892272 
L 193.28179 272.367986 
L 193.387126 273.903179 
L 193.492462 275.501423 
L 193.597799 277.166582 
L 193.703135 278.902843 
L 193.808471 280.714747 
L 193.913807 282.607235 
L 194.019144 284.585685 
L 194.12448 286.655965 
L 194.229816 288.824489 
L 194.335152 291.098286 
L 194.440489 293.485069 
L 194.545825 295.993324 
L 194.651161 298.632411 
L 194.756497 301.412674 
L 194.861834 304.34558 
L 194.96717 307.443872 
L 195.072506 310.721752 
L 195.177842 314.195097 
L 195.283179 317.881711 
L 195.388515 321.801631 
L 195.493851 325.977484 
L 195.599187 330.43492 
L 195.704524 335.20314 
L 195.80986 340.315522 
L 195.915196 345.810406 
L 196.020532 351.732046 
L 196.10167 356.616303 
L 196.182807 361.81092 
L 196.263944 367.346262 
L 196.345082 373.256788 
L 196.426219 379.58177 
L 196.507356 386.366154 
L 196.588494 393.661635 
L 196.669631 401.527961 
L 196.750769 410.034575 
L 196.831906 419.26266 
L 196.913043 429.307726 
L 196.994181 440.282923 
L 197.075318 452.323309 
L 197.156455 465.591417 
L 197.237593 480.284624 
L 197.31873 496.645007 
L 197.399867 514.972769 
L 197.481005 535.644785 
L 197.562142 559.140765 
L 197.643279 586.080879 
L 197.724417 617.281244 
L 197.805554 653.837933 
L 197.886692 697.258291 
L 197.967829 749.673796 
L 198.048966 814.200397 
L 198.130104 895.581084 
L 198.211241 1001.407317 
L 198.292378 1144.635167 
L 198.373516 1349.340832 
L 198.454653 1665.910408 
L 198.53579 2220.487098 
L 198.616928 3443.100002 
L 198.650477 4521.728006 
L 198.684027 6670.661665 
L 198.717576 13051.581944 
L 198.751126 838933.582289 
L 198.784675 -13077.810093 
L 198.818225 -6391.692224 
L 198.851775 -4186.252657 
L 198.885324 -3087.84846 
L 198.918874 -2430.1832 
L 198.952423 -1992.313957 
L 198.985973 -1679.83241 
L 199.019522 -1445.626463 
L 199.053072 -1263.559022 
L 199.086621 -1117.964138 
L 199.120171 -998.880648 
L 199.15372 -899.672089 
L 199.18727 -815.746436 
L 199.22082 -743.825134 
L 199.254369 -681.504816 
L 199.287919 -626.983543 
L 199.321468 -578.883751 
L 199.355018 -536.134264 
L 199.388567 -497.889605 
L 199.422117 -463.473522 
L 199.455666 -432.338669 
L 199.489216 -404.037288 
L 199.522765 -378.199545 
L 199.556315 -354.517284 
L 199.589865 -332.731685 
L 199.623414 -312.623773 
L 199.656964 -294.007028 
L 199.690513 -276.721593 
L 199.779873 -236.188412 
L 199.869233 -202.141926 
L 199.958593 -173.141338 
L 200.047954 -148.143133 
L 200.137314 -126.372975 
L 200.226674 -107.244175 
L 200.316034 -90.30409 
L 200.405394 -75.197914 
L 200.494754 -61.643596 
L 200.584114 -49.414103 
L 200.673474 -38.324627 
L 200.762834 -28.223206 
L 200.852194 -18.983735 
L 200.941554 -10.500693 
L 201.030915 -2.685108 
L 201.120275 4.538567 
L 201.209635 11.234892 
L 201.298995 17.459369 
L 201.388355 23.259975 
L 201.477715 28.678396 
L 201.567075 33.751028 
L 201.656435 38.509785 
L 201.745795 42.982775 
L 201.835155 47.194844 
L 201.924516 51.16804 
L 202.013876 54.921998 
L 202.103236 58.474255 
L 202.192596 61.84053 
L 202.281956 65.034946 
L 202.371316 68.070236 
L 202.460676 70.957903 
L 202.550036 73.708368 
L 202.617617 75.703155 
L 202.685197 77.628665 
L 202.752777 79.48841 
L 202.820358 81.285669 
L 202.887938 83.023504 
L 202.955519 84.704784 
L 203.023099 86.332193 
L 203.090679 87.90825 
L 203.15826 89.435317 
L 203.22584 90.915617 
L 203.293421 92.351237 
L 203.361001 93.744144 
L 203.428581 95.09619 
L 203.496162 96.409122 
L 203.563742 97.68459 
L 203.631323 98.92415 
L 203.698903 100.129275 
L 203.766484 101.301358 
L 203.834064 102.441718 
L 203.901644 103.551605 
L 203.969225 104.632204 
L 204.036805 105.684638 
L 204.104386 106.709976 
L 204.171966 107.709232 
L 204.239546 108.683371 
L 204.307127 109.633309 
L 204.374707 110.55992 
L 204.442288 111.464037 
L 204.509868 112.346451 
L 204.577448 113.20792 
L 204.645029 114.049163 
L 204.712609 114.870871 
L 204.80962 116.017587 
L 204.906632 117.127238 
L 205.003643 118.201552 
L 205.100654 119.242151 
L 205.197665 120.250559 
L 205.294677 121.228211 
L 205.391688 122.176456 
L 205.488699 123.096567 
L 205.585711 123.989743 
L 205.682722 124.857119 
L 205.779733 125.699765 
L 205.876744 126.518692 
L 205.973756 127.314859 
L 206.070767 128.089173 
L 206.167778 128.842492 
L 206.264789 129.575633 
L 206.361801 130.289369 
L 206.458812 130.984435 
L 206.555823 131.661529 
L 206.652834 132.321314 
L 206.749846 132.964422 
L 206.846857 133.591456 
L 206.943868 134.202987 
L 207.040879 134.799562 
L 207.137891 135.381702 
L 207.234902 135.949904 
L 207.331913 136.504642 
L 207.428924 137.046369 
L 207.525936 137.57552 
L 207.622947 138.092508 
L 207.816969 139.091566 
L 207.929003 139.648177 
L 208.041036 140.190621 
L 208.153069 140.719407 
L 208.265102 141.235019 
L 208.377136 141.737921 
L 208.489169 142.228554 
L 208.713235 143.174678 
L 208.937302 144.076539 
L 209.161368 144.937016 
L 209.385435 145.758744 
L 209.609501 146.544142 
L 209.775921 147.105289 
L 209.942342 147.648471 
L 210.108762 148.174486 
L 210.275183 148.684085 
L 210.441603 149.177978 
L 210.608023 149.656833 
L 210.774444 150.121282 
L 210.940864 150.571923 
L 211.107284 151.009322 
L 211.273705 151.434014 
L 211.440125 151.846506 
L 211.606546 152.247279 
L 211.939386 153.015475 
L 212.272227 153.741986 
L 212.496125 154.208795 
L 212.720022 154.658991 
L 212.94392 155.093377 
L 213.167817 155.512707 
L 213.391715 155.917689 
L 213.615612 156.308988 
L 213.83951 156.687231 
L 214.063407 157.053007 
L 214.354227 157.510409 
L 214.645046 157.948852 
L 214.935866 158.369397 
L 215.226685 158.773026 
L 215.517505 159.160658 
L 215.808324 159.533146 
L 216.099144 159.891288 
L 216.389963 160.23583 
L 216.797117 160.69667 
L 217.204271 161.133987 
L 217.611425 161.549402 
L 218.018579 161.944403 
L 218.663722 162.53179 
L 219.308864 163.076207 
L 219.954007 163.581961 
L 220.59915 164.052867 
L 221.226022 164.48027 
L 221.852894 164.88075 
L 222.479766 165.256803 
L 223.106639 165.610681 
L 223.711936 165.933253 
L 224.317234 166.238723 
L 225.222022 166.666731 
L 226.126809 167.064505 
L 227.031597 167.436106 
L 227.936385 167.785156 
L 229.273497 168.266517 
L 230.464308 168.667225 
L 231.743414 169.075136 
L 233.022519 169.465981 
L 236.101381 170.370731 
L 237.796541 170.866896 
L 240.071877 171.554311 
L 241.99571 172.17159 
L 242.894058 172.475721 
L 243.792405 172.792131 
L 244.690753 173.12243 
L 245.5891 173.468275 
L 246.405798 173.79762 
L 247.222497 174.142572 
L 247.947718 174.463094 
L 248.672939 174.798041 
L 249.398161 175.148478 
L 250.123382 175.515522 
L 250.806214 175.87734 
L 251.86374 176.471222 
L 252.921265 177.109469 
L 253.8738 177.725996 
L 254.826334 178.385648 
L 255.302602 178.732835 
L 255.778869 179.092272 
L 256.255136 179.464496 
L 256.731403 179.850069 
L 257.497933 180.500162 
L 258.264462 181.188987 
L 259.039921 181.928146 
L 259.427651 182.314664 
L 259.81538 182.713034 
L 260.20311 183.1237 
L 260.59084 183.547125 
L 260.978569 183.983794 
L 261.366299 184.434212 
L 261.742319 184.884664 
L 262.256477 185.523261 
L 262.770635 186.18929 
L 263.284794 186.884209 
L 263.798952 187.609576 
L 264.378035 188.465077 
L 264.957119 189.36387 
L 265.246661 189.830355 
L 265.536203 190.308716 
L 265.825745 190.799334 
L 266.115286 191.302607 
L 266.491476 191.97607 
L 266.867665 192.672545 
L 267.243855 193.393039 
L 267.620044 194.138613 
L 267.996233 194.910393 
L 268.372423 195.70957 
L 268.748612 196.537405 
L 269.124801 197.395238 
L 269.382822 198.001683 
L 269.640842 198.62339 
L 269.898862 199.260862 
L 270.156882 199.914624 
L 270.414902 200.585227 
L 270.672923 201.273242 
L 270.930943 201.979269 
L 271.188963 202.703934 
L 271.578827 203.835711 
L 271.773758 204.418862 
L 271.96869 205.01394 
L 272.163622 205.62127 
L 272.358553 206.241192 
L 272.553485 206.874057 
L 272.748417 207.520229 
L 272.943348 208.180086 
L 273.13828 208.854021 
L 273.333212 209.54244 
L 273.528143 210.245768 
L 273.723075 210.964442 
L 273.918007 211.69892 
L 274.112939 212.449676 
L 274.30787 213.217206 
L 274.483596 213.923914 
L 274.659322 214.645061 
L 274.835047 215.381053 
L 275.010773 216.132311 
L 275.186499 216.899271 
L 275.362224 217.682388 
L 275.53795 218.482132 
L 275.713676 219.298994 
L 275.889401 220.133481 
L 276.065127 220.986124 
L 276.240853 221.857473 
L 276.416579 222.748101 
L 276.592304 223.658603 
L 276.76803 224.589602 
L 276.943756 225.541744 
L 277.119481 226.515704 
L 277.309587 227.594747 
L 277.499692 228.70108 
L 277.689798 229.835677 
L 277.879903 230.999561 
L 278.101613 232.395363 
L 278.323323 233.834249 
L 278.545033 235.318115 
L 278.655888 236.077539 
L 278.766743 236.84897 
L 278.877597 237.632679 
L 278.988452 238.428943 
L 279.099307 239.23805 
L 279.210162 240.060294 
L 279.321017 240.89598 
L 279.431872 241.745423 
L 279.542727 242.608945 
L 279.653582 243.486881 
L 279.764437 244.379576 
L 279.875292 245.287384 
L 279.986147 246.210674 
L 280.097002 247.149825 
L 280.207857 248.105228 
L 280.318712 249.077287 
L 280.429566 250.066422 
L 280.540421 251.073063 
L 280.651276 252.097658 
L 280.762131 253.140669 
L 280.872986 254.202575 
L 280.983841 255.28387 
L 281.094696 256.385066 
L 281.205551 257.506694 
L 281.316406 258.649304 
L 281.427261 259.813464 
L 281.582555 261.481679 
L 281.737849 263.195041 
L 281.815496 264.069207 
L 281.893143 264.955335 
L 281.97079 265.853665 
L 282.048437 266.76444 
L 282.186644 268.417143 
L 282.324852 270.111541 
L 282.463059 271.849175 
L 282.601266 273.63166 
L 282.67037 274.54025 
L 282.739473 275.460696 
L 282.808577 276.393225 
L 282.877681 277.338068 
L 282.946784 278.295463 
L 283.015888 279.265653 
L 283.084992 280.24889 
L 283.154095 281.245428 
L 283.223199 282.255532 
L 283.292302 283.279473 
L 283.361406 284.317528 
L 283.43051 285.369982 
L 283.499613 286.437127 
L 283.568717 287.519266 
L 283.63782 288.616707 
L 283.706924 289.729768 
L 283.776028 290.858775 
L 283.845131 292.004065 
L 283.914235 293.165981 
L 283.983339 294.344881 
L 284.052442 295.541127 
L 284.121546 296.755097 
L 284.190649 297.987177 
L 284.259753 299.237765 
L 284.340694 300.72667 
L 284.421636 302.242209 
L 284.502577 303.785086 
L 284.583518 305.35603 
L 284.66446 306.955796 
L 284.745401 308.585166 
L 284.826342 310.244951 
L 284.907283 311.93599 
L 284.988225 313.659157 
L 285.069166 315.415355 
L 285.150107 317.205523 
L 285.231048 319.030635 
L 285.31199 320.891705 
L 285.392931 322.789784 
L 285.473872 324.725965 
L 285.554814 326.701385 
L 285.635755 328.717225 
L 285.716696 330.774717 
L 285.797637 332.875141 
L 285.878579 335.019831 
L 285.95952 337.210175 
L 286.040461 339.447623 
L 286.121403 341.733685 
L 286.202344 344.069936 
L 286.283285 346.45802 
L 286.364226 348.899655 
L 286.445168 351.396633 
L 286.526109 353.950829 
L 286.60705 356.564204 
L 286.687992 359.238807 
L 286.768933 361.976785 
L 286.849874 364.780387 
L 286.961552 368.76074 
L 287.07323 372.877067 
L 287.184908 377.136365 
L 287.296586 381.546118 
L 287.408264 386.114344 
L 287.519942 390.849639 
L 287.63162 395.761233 
L 287.743298 400.859048 
L 287.854976 406.153766 
L 287.966654 411.6569 
L 288.078332 417.38088 
L 288.19001 423.339142 
L 288.301688 429.546237 
L 288.413366 436.017946 
L 288.525044 442.771412 
L 288.636722 449.825291 
L 288.748399 457.199925 
L 288.860077 464.917533 
L 288.971755 473.002437 
L 289.083433 481.481312 
L 289.195111 490.38348 
L 289.306789 499.741248 
L 289.418467 509.590296 
L 289.530145 519.970129 
L 289.641823 530.924604 
L 289.753501 542.502546 
L 289.865179 554.758476 
L 289.976857 567.753456 
L 290.088535 581.556114 
L 290.200213 596.243842 
L 290.311891 611.904246 
L 290.423569 628.636892 
L 290.48804 638.828567 
L 290.552512 649.439446 
L 290.616983 660.495857 
L 290.681454 672.026379 
L 290.745926 684.062089 
L 290.810397 696.63684 
L 290.874868 709.787579 
L 290.93934 723.554709 
L 291.003811 737.982502 
L 291.068283 753.119574 
L 291.132754 769.019431 
L 291.197225 785.741097 
L 291.261697 803.349852 
L 291.326168 821.918072 
L 291.390639 841.526232 
L 291.455111 862.264061 
L 291.519582 884.23192 
L 291.584054 907.542418 
L 291.648525 932.322345 
L 291.712996 958.714972 
L 291.777468 986.882823 
L 291.841939 1017.011016 
L 291.90641 1049.311339 
L 291.970882 1084.027224 
L 292.035353 1121.43989 
L 292.099825 1161.875974 
L 292.164296 1205.717078 
L 292.228767 1253.411846 
L 292.293239 1305.49136 
L 292.35771 1362.588985 
L 292.422181 1425.466241 
L 292.486653 1495.046945 
L 292.54899 1569.761284 
L 292.611328 1653.061307 
L 292.673665 1746.516487 
L 292.736003 1852.103651 
L 292.79834 1972.348319 
L 292.860678 2110.529257 
L 292.923015 2270.981941 
L 292.985352 2459.561556 
L 293.04769 2684.372844 
L 293.110027 2956.965233 
L 293.172365 3294.380495 
L 293.234702 3722.858139 
L 293.29704 4285.008485 
L 293.359377 5054.939192 
L 293.421715 6173.956079 
L 293.484052 7949.05686 
L 293.54639 11196.506207 
L 293.608727 19046.094902 
L 293.671064 65066.30966 
L 293.733402 -45256.416299 
L 293.795739 -16695.684636 
L 293.858077 -10200.594102 
L 293.920414 -7325.256706 
L 293.982752 -5703.155086 
L 294.045089 -4661.556534 
L 294.107427 -3936.143835 
L 294.169764 -3401.921084 
L 294.232102 -2992.106436 
L 294.294439 -2667.77658 
L 294.356776 -2404.711909 
L 294.419114 -2187.052543 
L 294.481451 -2003.977999 
L 294.509372 -1931.089628 
L 294.537292 -1863.044114 
L 294.565212 -1799.374404 
L 294.593132 -1739.671632 
L 294.621052 -1683.576333 
L 294.648972 -1630.771197 
L 294.676892 -1580.975069 
L 294.704812 -1533.937942 
L 294.732733 -1489.436757 
L 294.760653 -1447.271869 
L 294.788573 -1407.264055 
L 294.816493 -1369.251965 
L 294.844413 -1333.089951 
L 294.872333 -1298.6462 
L 294.900253 -1265.801131 
L 294.928173 -1234.446006 
L 294.956093 -1204.481732 
L 294.984014 -1175.817811 
L 295.011934 -1148.37143 
L 295.039854 -1122.066662 
L 295.067774 -1096.833766 
L 295.095694 -1072.608565 
L 295.123614 -1049.331907 
L 295.151534 -1026.949182 
L 295.179454 -1005.409891 
L 295.207375 -984.667269 
L 295.235295 -964.677947 
L 295.263215 -945.401644 
L 295.291135 -926.800906 
L 295.319055 -908.840852 
L 295.346975 -891.488965 
L 295.374895 -874.71489 
L 295.497447 -807.244489 
L 295.619999 -748.379963 
L 295.742551 -696.574766 
L 295.865103 -650.631982 
L 295.987655 -609.610801 
L 296.110207 -572.761505 
L 296.232759 -539.479292 
L 296.355311 -509.270875 
L 296.477863 -481.729916 
L 296.600414 -456.518673 
L 296.722966 -433.354116 
L 296.845518 -411.997274 
L 296.96807 -392.244988 
L 297.090622 -373.923441 
L 297.213174 -356.883047 
L 297.335726 -340.99437 
L 297.458278 -326.144843 
L 297.58083 -312.236106 
L 297.703382 -299.181833 
L 297.825933 -286.905945 
L 297.948485 -275.341135 
L 298.071037 -264.42764 
L 298.193589 -254.112212 
L 298.316141 -244.34725 
L 298.438693 -235.090078 
L 298.561245 -226.302319 
L 298.683797 -217.949367 
L 298.806349 -209.999938 
L 298.928901 -202.425677 
L 299.051453 -195.200828 
L 299.174004 -188.301936 
L 299.296556 -181.707603 
L 299.335878 -179.65307 
L 299.375199 -177.627255 
L 299.41452 -175.629565 
L 299.453841 -173.659423 
L 299.493162 -171.716269 
L 299.532483 -169.799557 
L 299.571805 -167.908757 
L 299.611126 -166.043351 
L 299.650447 -164.202837 
L 299.689768 -162.386725 
L 299.729089 -160.594537 
L 299.76841 -158.825809 
L 299.807732 -157.080088 
L 299.847053 -155.356932 
L 299.886374 -153.655912 
L 299.925695 -151.976608 
L 299.965016 -150.318612 
L 300.004338 -148.681526 
L 300.043659 -147.06496 
L 300.08298 -145.468535 
L 300.122301 -143.891883 
L 300.161622 -142.334641 
L 300.200943 -140.796459 
L 300.240265 -139.276993 
L 300.279586 -137.775906 
L 300.318907 -136.292873 
L 300.358228 -134.827573 
L 300.397549 -133.379693 
L 300.43687 -131.94893 
L 300.476192 -130.534985 
L 300.515513 -129.137568 
L 300.554834 -127.756393 
L 300.605018 -126.016808 
L 300.655202 -124.302665 
L 300.705386 -122.613418 
L 300.75557 -120.948538 
L 300.805755 -119.307507 
L 300.855939 -117.689824 
L 300.906123 -116.095001 
L 300.956307 -114.522565 
L 301.006491 -112.972055 
L 301.056675 -111.443021 
L 301.106859 -109.935029 
L 301.157043 -108.447652 
L 301.207227 -106.980479 
L 301.257412 -105.533106 
L 301.307596 -104.105142 
L 301.35778 -102.696206 
L 301.407964 -101.305926 
L 301.458148 -99.93394 
L 301.508332 -98.579896 
L 301.558516 -97.24345 
L 301.6087 -95.924268 
L 301.658884 -94.622023 
L 301.709069 -93.336397 
L 301.759253 -92.067079 
L 301.809437 -90.813767 
L 301.859621 -89.576166 
L 301.909805 -88.353987 
L 301.959989 -87.146951 
L 302.010173 -85.954782 
L 302.060357 -84.777213 
L 302.110541 -83.613983 
L 302.160726 -82.464837 
L 302.269761 -80.015444 
L 302.378796 -77.628907 
L 302.487831 -75.302889 
L 302.596866 -73.035166 
L 302.705901 -70.823621 
L 302.814936 -68.666239 
L 302.923971 -66.561101 
L 303.033006 -64.506377 
L 303.142041 -62.50032 
L 303.251076 -60.541266 
L 303.360111 -58.627622 
L 303.469146 -56.757871 
L 303.578181 -54.930558 
L 303.687216 -53.144294 
L 303.796251 -51.397751 
L 303.905286 -49.689656 
L 304.014321 -48.01879 
L 304.123356 -46.383986 
L 304.232391 -44.784123 
L 304.341426 -43.21813 
L 304.450461 -41.684975 
L 304.559496 -40.18367 
L 304.668531 -38.713265 
L 304.777566 -37.27285 
L 304.886602 -35.861547 
L 304.995637 -34.478514 
L 305.104672 -33.12294 
L 305.213707 -31.794046 
L 305.322742 -30.491081 
L 305.431777 -29.213323 
L 305.540812 -27.960076 
L 305.649847 -26.730669 
L 305.800112 -25.074259 
L 305.950377 -23.460284 
L 306.100642 -21.887201 
L 306.250907 -20.353544 
L 306.401172 -18.857913 
L 306.551437 -17.398975 
L 306.701702 -15.975459 
L 306.851967 -14.586152 
L 306.9997 -13.252475 
L 307.147434 -11.949692 
L 307.295167 -10.676795 
L 307.442901 -9.432823 
L 307.590635 -8.216853 
L 307.738368 -7.028001 
L 307.886102 -5.865421 
L 308.033836 -4.7283 
L 308.181569 -3.615862 
L 308.329303 -2.527357 
L 308.477036 -1.462069 
L 308.62477 -0.41931 
L 308.772504 0.601584 
L 308.920237 1.601248 
L 309.067971 2.580293 
L 309.215705 3.53931 
L 309.439178 4.953181 
L 309.662651 6.324381 
L 309.886125 7.654674 
L 310.109598 8.945731 
L 310.333072 10.199133 
L 310.556545 11.416374 
L 310.780018 12.598873 
L 311.003492 13.747976 
L 311.231488 14.887239 
L 311.459484 15.994355 
L 311.68748 17.070544 
L 311.915476 18.116967 
L 312.143472 19.134726 
L 312.371468 20.124869 
L 312.599464 21.088396 
L 312.82746 22.026257 
L 313.132065 23.240762 
L 313.43667 24.413111 
L 313.741274 25.545224 
L 314.045879 26.638907 
L 314.350484 27.695857 
L 314.655088 28.717674 
L 314.959693 29.705866 
L 315.264298 30.661856 
L 315.640158 31.799085 
L 316.016018 32.891696 
L 316.391878 33.941903 
L 316.767738 34.951774 
L 317.143598 35.923246 
L 317.519458 36.858135 
L 317.895318 37.758142 
L 318.271178 38.624865 
L 318.559908 39.269009 
L 318.848638 39.895044 
L 319.137368 40.503586 
L 319.426099 41.095222 
L 319.714829 41.670515 
L 320.003559 42.230001 
L 320.292289 42.774194 
L 320.581019 43.303586 
L 320.866905 43.813643 
L 321.152791 44.310087 
L 321.438677 44.793341 
L 321.724563 45.263805 
L 322.129609 45.909217 
L 322.534654 46.530778 
L 322.9397 47.129476 
L 323.344745 47.706245 
L 323.749791 48.261969 
L 324.154836 48.797488 
L 324.559882 49.313592 
L 324.964928 49.811036 
L 325.373828 50.295012 
L 325.782729 50.761394 
L 326.19163 51.210845 
L 326.600531 51.643995 
L 327.009432 52.06144 
L 327.418333 52.463751 
L 327.827233 52.85147 
L 328.236134 53.225114 
L 328.689621 53.623633 
L 329.143108 54.006084 
L 329.596596 54.373073 
L 330.050083 54.725176 
L 330.471945 55.039841 
L 330.893808 55.342519 
L 331.597859 55.822052 
L 332.30191 56.271067 
L 333.005961 56.691199 
L 333.710012 57.083964 
L 334.294736 57.390376 
L 334.87946 57.679646 
L 335.464183 57.952492 
L 336.048907 58.209591 
L 337.068024 58.621937 
L 338.087142 58.99152 
L 339.054877 59.305493 
L 340.022612 59.585731 
L 340.939755 59.822051 
L 341.856899 60.031538 
L 342.916693 60.242141 
L 343.976487 60.421031 
L 345.036281 60.570159 
L 346.096075 60.691318 
L 347.134023 60.78446 
L 348.216447 60.85625 
L 349.298872 60.903644 
L 350.369778 60.927887 
L 351.440685 60.930851 
L 352.484711 60.914357 
L 353.528738 60.879727 
L 354.543992 60.829539 
L 355.559246 60.763869 
L 357.348059 60.612735 
L 359.136872 60.419541 
L 360.358442 60.265165 
L 361.723263 60.072512 
L 363.088084 59.859766 
L 364.446073 59.629285 
L 366.022045 59.339678 
L 367.598017 59.027731 
L 369.011036 58.730184 
L 370.424055 58.416711 
L 372.206503 57.999884 
L 374.320476 57.476597 
L 377.024077 56.765183 
L 379.475565 56.082613 
L 381.28542 55.557606 
L 382.435824 55.215141 
L 385.253084 54.349531 
L 386.916349 53.821597 
L 390.006485 52.810047 
L 391.393713 52.343756 
L 393.211722 51.721947 
L 396.211254 50.671027 
L 399.135642 49.618628 
L 401.761526 48.652081 
L 403.422713 48.030763 
L 405.592899 47.20821 
L 408.232595 46.19204 
L 410.053187 45.481733 
L 412.786941 44.401516 
L 414.696818 43.637641 
L 416.588965 42.873779 
L 419.034487 41.876593 
L 421.094923 41.028169 
L 423.196941 40.155229 
L 425.134945 39.344086 
L 427.232103 38.45981 
L 428.995423 37.711275 
L 432.00301 36.42447 
L 434.417695 35.382606 
L 435.346317 34.979954 
L 439.2241 33.287232 
L 440.358785 32.788608 
L 442.881048 31.675119 
L 445.744166 30.402974 
L 447.615169 29.567164 
L 449.108517 28.897615 
L 451.938462 27.623077 
z
" clip-path="url(#pfffd81f35c)" style="fill: #cccccc; opacity: 0.5"/>
   </g>
   <g id="matplotlib.axis_1">
    <g id="xtick_1">
     <g id="line2d_1">
      <defs>
       <path id="m2b4f17a338" d="M 0 0 
L 0 3.5 
" style="stroke: #000000; stroke-width: 0.8"/>
      </defs>
      <g>
       <use xlink:href="#m2b4f17a338" x="40.50989" y="172.8" style="stroke: #000000; stroke-width: 0.8"/>
      </g>
     </g>
     <g id="text_1">
      <!-- −6 -->
      <g transform="translate(33.138796 187.398437) scale(0.1 -0.1)">
       <defs>
        <path id="DejaVuSans-2212" d="M 678 2272 
L 4684 2272 
L 4684 1741 
L 678 1741 
L 678 2272 
z
" transform="scale(0.015625)"/>
        <path id="DejaVuSans-36" d="M 2113 2584 
Q 1688 2584 1439 2293 
Q 1191 2003 1191 1497 
Q 1191 994 1439 701 
Q 1688 409 2113 409 
Q 2538 409 2786 701 
Q 3034 994 3034 1497 
Q 3034 2003 2786 2293 
Q 2538 2584 2113 2584 
z
M 3366 4563 
L 3366 3988 
Q 3128 4100 2886 4159 
Q 2644 4219 2406 4219 
Q 1781 4219 1451 3797 
Q 1122 3375 1075 2522 
Q 1259 2794 1537 2939 
Q 1816 3084 2150 3084 
Q 2853 3084 3261 2657 
Q 3669 2231 3669 1497 
Q 3669 778 3244 343 
Q 2819 -91 2113 -91 
Q 1303 -91 875 529 
Q 447 1150 447 2328 
Q 447 3434 972 4092 
Q 1497 4750 2381 4750 
Q 2619 4750 2861 4703 
Q 3103 4656 3366 4563 
z
" transform="scale(0.015625)"/>
       </defs>
       <use xlink:href="#DejaVuSans-2212"/>
       <use xlink:href="#DejaVuSans-36" transform="translate(83.789062 0)"/>
      </g>
     </g>
    </g>
    <g id="xtick_2">
     <g id="line2d_2">
      <g>
       <use xlink:href="#m2b4f17a338" x="103.806593" y="172.8" style="stroke: #000000; stroke-width: 0.8"/>
      </g>
     </g>
     <g id="text_2">
      <!-- −4 -->
      <g transform="translate(96.4355 187.398437) scale(0.1 -0.1)">
       <defs>
        <path id="DejaVuSans-34" d="M 2419 4116 
L 825 1625 
L 2419 1625 
L 2419 4116 
z
M 2253 4666 
L 3047 4666 
L 3047 1625 
L 3713 1625 
L 3713 1100 
L 3047 1100 
L 3047 0 
L 2419 0 
L 2419 1100 
L 313 1100 
L 313 1709 
L 2253 4666 
z
" transform="scale(0.015625)"/>
       </defs>
       <use xlink:href="#DejaVuSans-2212"/>
       <use xlink:href="#DejaVuSans-34" transform="translate(83.789062 0)"/>
      </g>
     </g>
    </g>
    <g id="xtick_3">
     <g id="line2d_3">
      <g>
       <use xlink:href="#m2b4f17a338" x="167.103297" y="172.8" style="stroke: #000000; stroke-width: 0.8"/>
      </g>
     </g>
     <g id="text_3">
      <!-- −2 -->
      <g transform="translate(159.732203 187.398437) scale(0.1 -0.1)">
       <defs>
        <path id="DejaVuSans-32" d="M 1228 531 
L 3431 531 
L 3431 0 
L 469 0 
L 469 531 
Q 828 903 1448 1529 
Q 2069 2156 2228 2338 
Q 2531 2678 2651 2914 
Q 2772 3150 2772 3378 
Q 2772 3750 2511 3984 
Q 2250 4219 1831 4219 
Q 1534 4219 1204 4116 
Q 875 4013 500 3803 
L 500 4441 
Q 881 4594 1212 4672 
Q 1544 4750 1819 4750 
Q 2544 4750 2975 4387 
Q 3406 4025 3406 3419 
Q 3406 3131 3298 2873 
Q 3191 2616 2906 2266 
Q 2828 2175 2409 1742 
Q 1991 1309 1228 531 
z
" transform="scale(0.015625)"/>
       </defs>
       <use xlink:href="#DejaVuSans-2212"/>
       <use xlink:href="#DejaVuSans-32" transform="translate(83.789062 0)"/>
      </g>
     </g>
    </g>
    <g id="xtick_4">
     <g id="line2d_4">
      <g>
       <use xlink:href="#m2b4f17a338" x="230.4" y="172.8" style="stroke: #000000; stroke-width: 0.8"/>
      </g>
     </g>
    </g>
    <g id="xtick_5">
     <g id="line2d_5">
      <g>
       <use xlink:href="#m2b4f17a338" x="293.696703" y="172.8" style="stroke: #000000; stroke-width: 0.8"/>
      </g>
     </g>
     <g id="text_4">
      <!-- 2 -->
      <g transform="translate(290.515453 187.398437) scale(0.1 -0.1)">
       <use xlink:href="#DejaVuSans-32"/>
      </g>
     </g>
    </g>
    <g id="xtick_6">
     <g id="line2d_6">
      <g>
       <use xlink:href="#m2b4f17a338" x="356.993407" y="172.8" style="stroke: #000000; stroke-width: 0.8"/>
      </g>
     </g>
     <g id="text_5">
      <!-- 4 -->
      <g transform="translate(353.812157 187.398437) scale(0.1 -0.1)">
       <use xlink:href="#DejaVuSans-34"/>
      </g>
     </g>
    </g>
    <g id="xtick_7">
     <g id="line2d_7">
      <g>
       <use xlink:href="#m2b4f17a338" x="420.29011" y="172.8" style="stroke: #000000; stroke-width: 0.8"/>
      </g>
     </g>
     <g id="text_6">
      <!-- 6 -->
      <g transform="translate(417.10886 187.398437) scale(0.1 -0.1)">
       <use xlink:href="#DejaVuSans-36"/>
      </g>
     </g>
    </g>
    <g id="xtick_8">
     <g id="line2d_8">
      <defs>
       <path id="m69931efdfa" d="M 0 0 
L 0 2 
" style="stroke: #000000; stroke-width: 0.6"/>
      </defs>
      <g>
       <use xlink:href="#m69931efdfa" x="8.861538" y="172.8" style="stroke: #000000; stroke-width: 0.6"/>
      </g>
     </g>
    </g>
    <g id="xtick_9">
     <g id="line2d_9">
      <g>
       <use xlink:href="#m69931efdfa" x="24.685714" y="172.8" style="stroke: #000000; stroke-width: 0.6"/>
      </g>
     </g>
    </g>
    <g id="xtick_10">
     <g id="line2d_10">
      <g>
       <use xlink:href="#m69931efdfa" x="56.334066" y="172.8" style="stroke: #000000; stroke-width: 0.6"/>
      </g>
     </g>
    </g>
    <g id="xtick_11">
     <g id="line2d_11">
      <g>
       <use xlink:href="#m69931efdfa" x="72.158242" y="172.8" style="stroke: #000000; stroke-width: 0.6"/>
      </g>
     </g>
    </g>
    <g id="xtick_12">
     <g id="line2d_12">
      <g>
       <use xlink:href="#m69931efdfa" x="87.982418" y="172.8" style="stroke: #000000; stroke-width: 0.6"/>
      </g>
     </g>
    </g>
    <g id="xtick_13">
     <g id="line2d_13">
      <g>
       <use xlink:href="#m69931efdfa" x="119.630769" y="172.8" style="stroke: #000000; stroke-width: 0.6"/>
      </g>
     </g>
    </g>
    <g id="xtick_14">
     <g id="line2d_14">
      <g>
       <use xlink:href="#m69931efdfa" x="135.454945" y="172.8" style="stroke: #000000; stroke-width: 0.6"/>
      </g>
     </g>
    </g>
    <g id="xtick_15">
     <g id="line2d_15">
      <g>
       <use xlink:href="#m69931efdfa" x="151.279121" y="172.8" style="stroke: #000000; stroke-width: 0.6"/>
      </g>
     </g>
    </g>
    <g id="xtick_16">
     <g id="line2d_16">
      <g>
       <use xlink:href="#m69931efdfa" x="182.927473" y="172.8" style="stroke: #000000; stroke-width: 0.6"/>
      </g>
     </g>
    </g>
    <g id="xtick_17">
     <g id="line2d_17">
      <g>
       <use xlink:href="#m69931efdfa" x="198.751648" y="172.8" style="stroke: #000000; stroke-width: 0.6"/>
      </g>
     </g>
    </g>
    <g id="xtick_18">
     <g id="line2d_18">
      <g>
       <use xlink:href="#m69931efdfa" x="214.575824" y="172.8" style="stroke: #000000; stroke-width: 0.6"/>
      </g>
     </g>
    </g>
    <g id="xtick_19">
     <g id="line2d_19">
      <g>
       <use xlink:href="#m69931efdfa" x="246.224176" y="172.8" style="stroke: #000000; stroke-width: 0.6"/>
      </g>
     </g>
    </g>
    <g id="xtick_20">
     <g id="line2d_20">
      <g>
       <use xlink:href="#m69931efdfa" x="262.048352" y="172.8" style="stroke: #000000; stroke-width: 0.6"/>
      </g>
     </g>
    </g>
    <g id="xtick_21">
     <g id="line2d_21">
      <g>
       <use xlink:href="#m69931efdfa" x="277.872527" y="172.8" style="stroke: #000000; stroke-width: 0.6"/>
      </g>
     </g>
    </g>
    <g id="xtick_22">
     <g id="line2d_22">
      <g>
       <use xlink:href="#m69931efdfa" x="309.520879" y="172.8" style="stroke: #000000; stroke-width: 0.6"/>
      </g>
     </g>
    </g>
    <g id="xtick_23">
     <g id="line2d_23">
      <g>
       <use xlink:href="#m69931efdfa" x="325.345055" y="172.8" style="stroke: #000000; stroke-width: 0.6"/>
      </g>
     </g>
    </g>
    <g id="xtick_24">
     <g id="line2d_24">
      <g>
       <use xlink:href="#m69931efdfa" x="341.169231" y="172.8" style="stroke: #000000; stroke-width: 0.6"/>
      </g>
     </g>
    </g>
    <g id="xtick_25">
     <g id="line2d_25">
      <g>
       <use xlink:href="#m69931efdfa" x="372.817582" y="172.8" style="stroke: #000000; stroke-width: 0.6"/>
      </g>
     </g>
    </g>
    <g id="xtick_26">
     <g id="line2d_26">
      <g>
       <use xlink:href="#m69931efdfa" x="388.641758" y="172.8" style="stroke: #000000; stroke-width: 0.6"/>
      </g>
     </g>
    </g>
    <g id="xtick_27">
     <g id="line2d_27">
      <g>
       <use xlink:href="#m69931efdfa" x="404.465934" y="172.8" style="stroke: #000000; stroke-width: 0.6"/>
      </g>
     </g>
    </g>
    <g id="xtick_28">
     <g id="line2d_28">
      <g>
       <use xlink:href="#m69931efdfa" x="436.114286" y="172.8" style="stroke: #000000; stroke-width: 0.6"/>
      </g>
     </g>
    </g>
    <g id="xtick_29">
     <g id="line2d_29">
      <g>
       <use xlink:href="#m69931efdfa" x="451.938462" y="172.8" style="stroke: #000000; stroke-width: 0.6"/>
      </g>
     </g>
    </g>
   </g>
   <g id="matplotlib.axis_2">
    <g id="ytick_1">
     <g id="line2d_30">
      <defs>
       <path id="m123d2ca171" d="M 0 0 
L -3.5 0 
" style="stroke: #000000; stroke-width: 0.8"/>
      </defs>
      <g>
       <use xlink:href="#m123d2ca171" x="230.4" y="338.953846" style="stroke: #000000; stroke-width: 0.8"/>
      </g>
     </g>
     <g id="text_7">
      <!-- −20 -->
      <g transform="translate(202.295312 342.753065) scale(0.1 -0.1)">
       <defs>
        <path id="DejaVuSans-30" d="M 2034 4250 
Q 1547 4250 1301 3770 
Q 1056 3291 1056 2328 
Q 1056 1369 1301 889 
Q 1547 409 2034 409 
Q 2525 409 2770 889 
Q 3016 1369 3016 2328 
Q 3016 3291 2770 3770 
Q 2525 4250 2034 4250 
z
M 2034 4750 
Q 2819 4750 3233 4129 
Q 3647 3509 3647 2328 
Q 3647 1150 3233 529 
Q 2819 -91 2034 -91 
Q 1250 -91 836 529 
Q 422 1150 422 2328 
Q 422 3509 836 4129 
Q 1250 4750 2034 4750 
z
" transform="scale(0.015625)"/>
       </defs>
       <use xlink:href="#DejaVuSans-2212"/>
       <use xlink:href="#DejaVuSans-32" transform="translate(83.789062 0)"/>
       <use xlink:href="#DejaVuSans-30" transform="translate(147.412109 0)"/>
      </g>
     </g>
    </g>
    <g id="ytick_2">
     <g id="line2d_31">
      <g>
       <use xlink:href="#m123d2ca171" x="230.4" y="297.415385" style="stroke: #000000; stroke-width: 0.8"/>
      </g>
     </g>
     <g id="text_8">
      <!-- −15 -->
      <g transform="translate(202.295312 301.214603) scale(0.1 -0.1)">
       <defs>
        <path id="DejaVuSans-31" d="M 794 531 
L 1825 531 
L 1825 4091 
L 703 3866 
L 703 4441 
L 1819 4666 
L 2450 4666 
L 2450 531 
L 3481 531 
L 3481 0 
L 794 0 
L 794 531 
z
" transform="scale(0.015625)"/>
        <path id="DejaVuSans-35" d="M 691 4666 
L 3169 4666 
L 3169 4134 
L 1269 4134 
L 1269 2991 
Q 1406 3038 1543 3061 
Q 1681 3084 1819 3084 
Q 2600 3084 3056 2656 
Q 3513 2228 3513 1497 
Q 3513 744 3044 326 
Q 2575 -91 1722 -91 
Q 1428 -91 1123 -41 
Q 819 9 494 109 
L 494 744 
Q 775 591 1075 516 
Q 1375 441 1709 441 
Q 2250 441 2565 725 
Q 2881 1009 2881 1497 
Q 2881 1984 2565 2268 
Q 2250 2553 1709 2553 
Q 1456 2553 1204 2497 
Q 953 2441 691 2322 
L 691 4666 
z
" transform="scale(0.015625)"/>
       </defs>
       <use xlink:href="#DejaVuSans-2212"/>
       <use xlink:href="#DejaVuSans-31" transform="translate(83.789062 0)"/>
       <use xlink:href="#DejaVuSans-35" transform="translate(147.412109 0)"/>
      </g>
     </g>
    </g>
    <g id="ytick_3">
     <g id="line2d_32">
      <g>
       <use xlink:href="#m123d2ca171" x="230.4" y="255.876923" style="stroke: #000000; stroke-width: 0.8"/>
      </g>
     </g>
     <g id="text_9">
      <!-- −10 -->
      <g transform="translate(202.295312 259.676142) scale(0.1 -0.1)">
       <use xlink:href="#DejaVuSans-2212"/>
       <use xlink:href="#DejaVuSans-31" transform="translate(83.789062 0)"/>
       <use xlink:href="#DejaVuSans-30" transform="translate(147.412109 0)"/>
      </g>
     </g>
    </g>
    <g id="ytick_4">
     <g id="line2d_33">
      <g>
       <use xlink:href="#m123d2ca171" x="230.4" y="214.338462" style="stroke: #000000; stroke-width: 0.8"/>
      </g>
     </g>
     <g id="text_10">
      <!-- −5 -->
      <g transform="translate(208.657812 218.13768) scale(0.1 -0.1)">
       <use xlink:href="#DejaVuSans-2212"/>
       <use xlink:href="#DejaVuSans-35" transform="translate(83.789062 0)"/>
      </g>
     </g>
    </g>
    <g id="ytick_5">
     <g id="line2d_34">
      <g>
       <use xlink:href="#m123d2ca171" x="230.4" y="172.8" style="stroke: #000000; stroke-width: 0.8"/>
      </g>
     </g>
    </g>
    <g id="ytick_6">
     <g id="line2d_35">
      <g>
       <use xlink:href="#m123d2ca171" x="230.4" y="131.261538" style="stroke: #000000; stroke-width: 0.8"/>
      </g>
     </g>
     <g id="text_11">
      <!-- 5 -->
      <g transform="translate(217.0375 135.060757) scale(0.1 -0.1)">
       <use xlink:href="#DejaVuSans-35"/>
      </g>
     </g>
    </g>
    <g id="ytick_7">
     <g id="line2d_36">
      <g>
       <use xlink:href="#m123d2ca171" x="230.4" y="89.723077" style="stroke: #000000; stroke-width: 0.8"/>
      </g>
     </g>
     <g id="text_12">
      <!-- 10 -->
      <g transform="translate(210.675 93.522296) scale(0.1 -0.1)">
       <use xlink:href="#DejaVuSans-31"/>
       <use xlink:href="#DejaVuSans-30" transform="translate(63.623047 0)"/>
      </g>
     </g>
    </g>
    <g id="ytick_8">
     <g id="line2d_37">
      <g>
       <use xlink:href="#m123d2ca171" x="230.4" y="48.184615" style="stroke: #000000; stroke-width: 0.8"/>
      </g>
     </g>
     <g id="text_13">
      <!-- 15 -->
      <g transform="translate(210.675 51.983834) scale(0.1 -0.1)">
       <use xlink:href="#DejaVuSans-31"/>
       <use xlink:href="#DejaVuSans-35" transform="translate(63.623047 0)"/>
      </g>
     </g>
    </g>
    <g id="ytick_9">
     <g id="line2d_38">
      <g>
       <use xlink:href="#m123d2ca171" x="230.4" y="6.646154" style="stroke: #000000; stroke-width: 0.8"/>
      </g>
     </g>
     <g id="text_14">
      <!-- 20 -->
      <g transform="translate(210.675 10.445373) scale(0.1 -0.1)">
       <use xlink:href="#DejaVuSans-32"/>
       <use xlink:href="#DejaVuSans-30" transform="translate(63.623047 0)"/>
      </g>
     </g>
    </g>
    <g id="ytick_10">
     <g id="line2d_39">
      <defs>
       <path id="m20410ea420" d="M 0 0 
L -2 0 
" style="stroke: #000000; stroke-width: 0.6"/>
      </defs>
      <g>
       <use xlink:href="#m20410ea420" x="230.4" y="330.646154" style="stroke: #000000; stroke-width: 0.6"/>
      </g>
     </g>
    </g>
    <g id="ytick_11">
     <g id="line2d_40">
      <g>
       <use xlink:href="#m20410ea420" x="230.4" y="322.338462" style="stroke: #000000; stroke-width: 0.6"/>
      </g>
     </g>
    </g>
    <g id="ytick_12">
     <g id="line2d_41">
      <g>
       <use xlink:href="#m20410ea420" x="230.4" y="314.030769" style="stroke: #000000; stroke-width: 0.6"/>
      </g>
     </g>
    </g>
    <g id="ytick_13">
     <g id="line2d_42">
      <g>
       <use xlink:href="#m20410ea420" x="230.4" y="305.723077" style="stroke: #000000; stroke-width: 0.6"/>
      </g>
     </g>
    </g>
    <g id="ytick_14">
     <g id="line2d_43">
      <g>
       <use xlink:href="#m20410ea420" x="230.4" y="289.107692" style="stroke: #000000; stroke-width: 0.6"/>
      </g>
     </g>
    </g>
    <g id="ytick_15">
     <g id="line2d_44">
      <g>
       <use xlink:href="#m20410ea420" x="230.4" y="280.8" style="stroke: #000000; stroke-width: 0.6"/>
      </g>
     </g>
    </g>
    <g id="ytick_16">
     <g id="line2d_45">
      <g>
       <use xlink:href="#m20410ea420" x="230.4" y="272.492308" style="stroke: #000000; stroke-width: 0.6"/>
      </g>
     </g>
    </g>
    <g id="ytick_17">
     <g id="line2d_46">
      <g>
       <use xlink:href="#m20410ea420" x="230.4" y="264.184615" style="stroke: #000000; stroke-width: 0.6"/>
      </g>
     </g>
    </g>
    <g id="ytick_18">
     <g id="line2d_47">
      <g>
       <use xlink:href="#m20410ea420" x="230.4" y="247.569231" style="stroke: #000000; stroke-width: 0.6"/>
      </g>
     </g>
    </g>
    <g id="ytick_19">
     <g id="line2d_48">
      <g>
       <use xlink:href="#m20410ea420" x="230.4" y="239.261538" style="stroke: #000000; stroke-width: 0.6"/>
      </g>
     </g>
    </g>
    <g id="ytick_20">
     <g id="line2d_49">
      <g>
       <use xlink:href="#m20410ea420" x="230.4" y="230.953846" style="stroke: #000000; stroke-width: 0.6"/>
      </g>
     </g>
    </g>
    <g id="ytick_21">
     <g id="line2d_50">
      <g>
       <use xlink:href="#m20410ea420" x="230.4" y="222.646154" style="stroke: #000000; stroke-width: 0.6"/>
      </g>
     </g>
    </g>
    <g id="ytick_22">
     <g id="line2d_51">
      <g>
       <use xlink:href="#m20410ea420" x="230.4" y="206.030769" style="stroke: #000000; stroke-width: 0.6"/>
      </g>
     </g>
    </g>
    <g id="ytick_23">
     <g id="line2d_52">
      <g>
       <use xlink:href="#m20410ea420" x="230.4" y="197.723077" style="stroke: #000000; stroke-width: 0.6"/>
      </g>
     </g>
    </g>
    <g id="ytick_24">
     <g id="line2d_53">
      <g>
       <use xlink:href="#m20410ea420" x="230.4" y="189.415385" style="stroke: #000000; stroke-width: 0.6"/>
      </g>
     </g>
    </g>
    <g id="ytick_25">
     <g id="line2d_54">
      <g>
       <use xlink:href="#m20410ea420" x="230.4" y="181.107692" style="stroke: #000000; stroke-width: 0.6"/>
      </g>
     </g>
    </g>
    <g id="ytick_26">
     <g id="line2d_55">
      <g>
       <use xlink:href="#m20410ea420" x="230.4" y="164.492308" style="stroke: #000000; stroke-width: 0.6"/>
      </g>
     </g>
    </g>
    <g id="ytick_27">
     <g id="line2d_56">
      <g>
       <use xlink:href="#m20410ea420" x="230.4" y="156.184615" style="stroke: #000000; stroke-width: 0.6"/>
      </g>
     </g>
    </g>
    <g id="ytick_28">
     <g id="line2d_57">
      <g>
       <use xlink:href="#m20410ea420" x="230.4" y="147.876923" style="stroke: #000000; stroke-width: 0.6"/>
      </g>
     </g>
    </g>
    <g id="ytick_29">
     <g id="line2d_58">
      <g>
       <use xlink:href="#m20410ea420" x="230.4" y="139.569231" style="stroke: #000000; stroke-width: 0.6"/>
      </g>
     </g>
    </g>
    <g id="ytick_30">
     <g id="line2d_59">
      <g>
       <use xlink:href="#m20410ea420" x="230.4" y="122.953846" style="stroke: #000000; stroke-width: 0.6"/>
      </g>
     </g>
    </g>
    <g id="ytick_31">
     <g id="line2d_60">
      <g>
       <use xlink:href="#m20410ea420" x="230.4" y="114.646154" style="stroke: #000000; stroke-width: 0.6"/>
      </g>
     </g>
    </g>
    <g id="ytick_32">
     <g id="line2d_61">
      <g>
       <use xlink:href="#m20410ea420" x="230.4" y="106.338462" style="stroke: #000000; stroke-width: 0.6"/>
      </g>
     </g>
    </g>
    <g id="ytick_33">
     <g id="line2d_62">
      <g>
       <use xlink:href="#m20410ea420" x="230.4" y="98.030769" style="stroke: #000000; stroke-width: 0.6"/>
      </g>
     </g>
    </g>
    <g id="ytick_34">
     <g id="line2d_63">
      <g>
       <use xlink:href="#m20410ea420" x="230.4" y="81.415385" style="stroke: #000000; stroke-width: 0.6"/>
      </g>
     </g>
    </g>
    <g id="ytick_35">
     <g id="line2d_64">
      <g>
       <use xlink:href="#m20410ea420" x="230.4" y="73.107692" style="stroke: #000000; stroke-width: 0.6"/>
      </g>
     </g>
    </g>
    <g id="ytick_36">
     <g id="line2d_65">
      <g>
       <use xlink:href="#m20410ea420" x="230.4" y="64.8" style="stroke: #000000; stroke-width: 0.6"/>
      </g>
     </g>
    </g>
    <g id="ytick_37">
     <g id="line2d_66">
      <g>
       <use xlink:href="#m20410ea420" x="230.4" y="56.492308" style="stroke: #000000; stroke-width: 0.6"/>
      </g>
     </g>
    </g>
    <g id="ytick_38">
     <g id="line2d_67">
      <g>
       <use xlink:href="#m20410ea420" x="230.4" y="39.876923" style="stroke: #000000; stroke-width: 0.6"/>
      </g>
     </g>
    </g>
    <g id="ytick_39">
     <g id="line2d_68">
      <g>
       <use xlink:href="#m20410ea420" x="230.4" y="31.569231" style="stroke: #000000; stroke-width: 0.6"/>
      </g>
     </g>
    </g>
    <g id="ytick_40">
     <g id="line2d_69">
      <g>
       <use xlink:href="#m20410ea420" x="230.4" y="23.261538" style="stroke: #000000; stroke-width: 0.6"/>
      </g>
     </g>
    </g>
    <g id="ytick_41">
     <g id="line2d_70">
      <g>
       <use xlink:href="#m20410ea420" x="230.4" y="14.953846" style="stroke: #000000; stroke-width: 0.6"/>
      </g>
     </g>
    </g>
   </g>
   <g id="line2d_71">
    <path d="M 8.861538 280.646154 
L 34.629281 268.061883 
L 57.103999 257.296878 
L 78.000301 247.543533 
L 93.937237 240.344341 
L 108.418732 234.063338 
L 120.652708 229.035807 
L 131.067265 225.047754 
L 139.944429 221.955737 
L 146.00676 220.074037 
L 152.330655 218.390167 
L 156.435071 217.503176 
L 160.700057 216.813781 
L 164.699337 216.454848 
L 168.014695 216.442847 
L 170.909678 216.717762 
L 172.924675 217.114106 
L 175.050208 217.766807 
L 176.789208 218.526545 
L 178.528207 219.544354 
L 179.825588 220.513326 
L 181.272096 221.858128 
L 182.603955 223.404223 
L 183.895897 225.262354 
L 185.142821 227.484664 
L 186.389745 230.256266 
L 187.387284 232.98974 
L 188.499671 236.755288 
L 189.506507 241.034644 
L 190.408331 245.824026 
L 191.348976 252.152245 
L 192.211234 259.641914 
L 192.965781 268.106295 
L 193.703135 278.902843 
L 194.440489 293.485069 
L 195.072506 310.721752 
L 195.704524 335.20314 
L 195.929242 346.6 
M 198.784147 346.6 
L 198.784161 -1 
M 201.05176 -1 
L 201.567075 33.751028 
L 202.192596 61.84053 
L 202.887938 83.023504 
L 203.631323 98.92415 
L 204.442288 111.464037 
L 205.294677 121.228211 
L 206.167778 128.842492 
L 207.137891 135.381702 
L 208.153069 140.719407 
L 209.161368 144.937016 
L 210.275183 148.684085 
L 211.440125 151.846506 
L 212.720022 154.658991 
L 214.063407 157.053007 
L 215.517505 159.160658 
L 216.797117 160.69667 
L 218.018579 161.944403 
L 219.954007 163.581961 
L 221.852894 164.88075 
L 224.317234 166.238723 
L 227.031597 167.436106 
L 230.464308 168.667225 
L 236.101381 170.370731 
L 241.99571 172.17159 
L 245.5891 173.468275 
L 248.672939 174.798041 
L 250.806214 175.87734 
L 253.8738 177.725996 
L 256.255136 179.464496 
L 258.264462 181.188987 
L 260.59084 183.547125 
L 262.256477 185.523261 
L 263.798952 187.609576 
L 265.825745 190.799334 
L 267.620044 194.138613 
L 269.382822 198.001683 
L 270.930943 201.979269 
L 272.358553 206.241192 
L 273.723075 210.964442 
L 275.186499 216.899271 
L 276.592304 223.658603 
L 277.879903 230.999561 
L 279.210162 240.060294 
L 280.429566 250.066422 
L 281.582555 261.481679 
L 282.739473 275.460696 
L 283.776028 290.858775 
L 284.745401 308.585166 
L 285.716696 330.774717 
L 286.287992 346.6 
M 293.707634 346.6 
L 293.707831 -1 
M 308.5425 -1 
L 309.662651 6.324381 
L 311.003492 13.747976 
L 312.371468 20.124869 
L 313.741274 25.545224 
L 315.264298 30.661856 
L 316.767738 34.951774 
L 318.271178 38.624865 
L 320.003559 42.230001 
L 321.724563 45.263805 
L 323.344745 47.706245 
L 324.964928 49.811036 
L 327.009432 52.06144 
L 329.143108 54.006084 
L 330.893808 55.342519 
L 333.005961 56.691199 
L 335.464183 57.952492 
L 338.087142 58.99152 
L 340.939755 59.822051 
L 343.976487 60.421031 
L 347.134023 60.78446 
L 350.369778 60.927887 
L 354.543992 60.829539 
L 357.348059 60.612735 
L 361.723263 60.072512 
L 366.022045 59.339678 
L 370.424055 58.416711 
L 377.024077 56.765183 
L 382.435824 55.215141 
L 390.006485 52.810047 
L 396.211254 50.671027 
L 405.592899 47.20821 
L 416.588965 42.873779 
L 428.995423 37.711275 
L 442.881048 31.675119 
L 451.938462 27.623077 
L 451.938462 27.623077 
" clip-path="url(#pfffd81f35c)" style="fill: none; stroke: #0000cc; stroke-linecap: square"/>
   </g>
   <g id="line2d_72">
    <path d="M 8.861538 272.492308 
L 451.938462 39.876923 
L 451.938462 39.876923 
" clip-path="url(#pfffd81f35c)" style="fill: none; stroke: #3ccc00; stroke-linecap: square"/>
   </g>
   <g id="patch_4">
    <path d="M 230.4 345.6 
L 230.4 0 
" style="fill: none; stroke: #000000; stroke-width: 0.8; stroke-linejoin: miter; stroke-linecap: square"/>
   </g>
   <g id="patch_5">
    <path d="M 0 172.8 
L 460.8 172.8 
" style="fill: none; stroke: #000000; stroke-width: 0.8; stroke-linejoin: miter; stroke-linecap: square"/>
   </g>
  </g>
 </g>
 <defs>
  <clipPath id="pfffd81f35c">
   <rect x="0" y="0" width="460.8" height="345.6"/>
  </clipPath>
 </defs>
</svg>
