<?xml version="1.0" encoding="utf-8" standalone="no"?>
<!DOCTYPE svg PUBLIC "-//W3C//DTD SVG 1.1//EN"
  "http://www.w3.org/Graphics/SVG/1.1/DTD/svg11.dtd">
<svg xmlns:xlink="http://www.w3.org/1999/xlink" width="460.8pt" height="345.6pt" viewBox="0 0 460.8 345.6" xmlns="http://www.w3.org/2000/svg" version="1.1">
 <metadata>
  <rdf:RDF xmlns:dc="http://purl.org/dc/elements/1.1/" xmlns:cc="http://creativecommons.org/ns#" xmlns:rdf="http://www.w3.org/1999/02/22-rdf-syntax-ns#">
   <cc:Work>
    <dc:type rdf:resource="http://purl.org/dc/dcmitype/StillImage"/>
    <dc:date>2025-08-03T19:00:53.778074</dc:date>
    <dc:format>image/svg+xml</dc:format>
    <dc:creator>
     <cc:Agent>
      <dc:title>Matplotlib v3.10.3, https://matplotlib.org/</dc:title>
     </cc:Agent>
    </dc:creator>
   </cc:Work>
  </rdf:RDF>
 </metadata>
 <defs>
  <style type="text/css">*{stroke-linejoin: round; stroke-linecap: butt}</style>
 </defs>
 <g id="figure_1">
  <g id="patch_1">
   <path d="M 0 345.6 
L 460.8 345.6 
L 460.8 0 
L 0 0 
z
" style="fill: #ffffff"/>
  </g>
  <g id="axes_1">
   <g id="patch_2">
    <path d="M 65.246259 345.6 
L 395.553741 345.6 
L 395.553741 0 
L 65.246259 0 
z
" style="fill: #ffffff"/>
   </g>
   <g id="patch_3">
    <path d="M 389.201674 172.711025 
L 388.929636 170.068216 
L 388.411221 168.226595 
L 387.624765 166.421162 
L 386.639416 164.763907 
L 385.421229 163.164246 
L 384.245643 161.898253 
L 382.917408 160.686073 
L 379.815224 158.448752 
L 377.85622 157.334991 
L 374.568915 155.834031 
L 370.915142 154.580826 
L 367.547546 153.73076 
L 363.947946 153.090231 
L 360.006202 152.662346 
L 355.853049 152.483982 
L 350.737229 152.608023 
L 346.253288 153.002054 
L 339.338433 154.092721 
L 332.177885 155.804471 
L 330.232976 156.368438 
L 313.222146 163.079841 
L 310.636171 164.383504 
L 304.050044 168.056841 
L 296.123262 173.185435 
L 288.399732 178.994377 
L 281.811961 184.660193 
L 276.922611 189.345505 
L 270.880364 195.787936 
L 265.201522 202.619809 
L 261.030352 208.219305 
L 257.508566 213.413688 
L 254.216202 218.739481 
L 251.633062 223.305587 
L 249.225576 227.938689 
L 246.69111 233.309878 
L 243.385446 241.35622 
L 240.627964 249.454919 
L 239.258547 254.24489 
L 238.085003 259.017404 
L 236.923788 264.766768 
L 236.049413 270.446963 
L 235.829593 272.247121 
L 235.347871 277.512437 
L 235.114909 282.66813 
L 235.13862 288.184067 
L 235.445723 293.519655 
L 236.088326 299.092875 
L 237.035557 304.394812 
L 237.951601 308.242176 
L 239.024228 311.903564 
L 241.679264 318.805987 
L 243.812164 323.021407 
L 247.867259 329.078176 
L 252.145315 333.56864 
L 255.494513 336.054409 
L 259.082628 337.853276 
L 260.886148 338.436935 
L 265.184018 338.953846 
L 268.925859 338.304618 
L 272.141018 336.729215 
L 274.110728 335.136555 
L 275.864019 333.141708 
L 277.380768 330.748364 
L 278.623977 327.987224 
L 279.138936 326.463533 
L 280.04773 322.470925 
L 280.466055 318.039121 
L 280.381776 313.503474 
L 280.023609 310.075195 
L 279.408971 306.510225 
L 278.88973 304.211561 
L 278.048968 301.129066 
L 277.025798 297.983457 
L 275.81858 294.78502 
L 274.42626 291.544139 
L 273.057011 288.684267 
L 271.064597 284.940536 
L 268.833508 281.182702 
L 265.44142 276.107107 
L 261.624632 271.071285 
L 257.912677 266.690118 
L 253.888155 262.393311 
L 248.824753 257.529397 
L 244.919432 254.122963 
L 240.820639 250.82551 
L 236.132012 247.361567 
L 231.238066 244.058309 
L 224.014256 239.69964 
L 216.882386 235.935722 
L 209.494069 232.544258 
L 202.783435 229.875506 
L 191.003163 226.066318 
L 186.342285 224.851076 
L 174.2589 222.437267 
L 163.487692 221.162597 
L 154.19933 220.72556 
L 145.993266 220.860356 
L 137.986917 221.481628 
L 132.247931 222.240055 
L 125.180897 223.557531 
L 117.096352 225.631262 
L 109.515239 228.19776 
L 107.1068 229.155579 
L 103.615329 230.680624 
L 100.278286 232.303836 
L 95.666652 234.851611 
L 91.422091 237.567811 
L 88.671908 239.559424 
L 86.115916 241.61024 
L 83.144605 244.29569 
L 80.504374 247.038907 
L 78.624597 249.273006 
L 76.965644 251.518294 
L 75.464707 253.872414 
L 74.20969 256.211983 
L 72.897292 259.347006 
L 72.038353 262.394932 
L 71.737761 264.174763 
L 71.598326 265.903164 
L 71.64298 267.925434 
L 72.065103 270.481022 
L 72.890355 272.826922 
L 73.891187 274.625313 
L 75.158427 276.236509 
L 77.577699 278.298424 
L 79.969703 279.59993 
L 83.04883 280.607645 
L 86.507329 281.108342 
L 88.778217 281.152907 
L 92.373099 280.839278 
L 96.179128 280.057332 
L 100.511827 278.662118 
L 104.803984 276.7847 
L 112.609228 272.144666 
L 116.837498 268.956496 
L 122.441419 263.943914 
L 127.890042 258.107309 
L 130.211043 255.292048 
L 136.323589 246.744953 
L 139.333204 241.801976 
L 142.134579 236.641021 
L 144.739697 231.232553 
L 147.049103 225.802463 
L 149.145659 220.179202 
L 150.836006 214.982029 
L 152.335926 209.659874 
L 154.02151 202.422098 
L 155.343217 195.028314 
L 155.847631 191.413448 
L 156.67783 182.907546 
L 156.926786 178.172707 
L 157.025053 173.426704 
L 156.972298 168.679237 
L 156.768701 163.940012 
L 156.264505 157.657019 
L 155.496987 151.428541 
L 154.586247 145.89568 
L 153.569233 140.881782 
L 152.38372 135.946051 
L 150.263847 128.600408 
L 147.488181 120.735336 
L 144.301265 113.231424 
L 140.928322 106.48463 
L 136.205516 98.494213 
L 132.440443 93.043679 
L 128.48895 88.02101 
L 124.428523 83.489133 
L 117.886014 77.333046 
L 113.434191 73.861213 
L 107.974658 70.331398 
L 102.125236 67.409036 
L 95.452975 65.18228 
L 92.19715 64.557369 
L 89.09906 64.278805 
L 87.379493 64.272426 
L 83.348893 64.747348 
L 79.811312 65.892052 
L 78.332716 66.651056 
L 76.349579 68.047484 
L 74.686545 69.725662 
L 73.461731 71.48853 
L 72.534091 73.44968 
L 71.942845 75.459917 
L 71.607896 78.034711 
L 71.684808 80.780165 
L 72.083407 83.235105 
L 73.096373 86.624353 
L 74.625085 90.034344 
L 76.687912 93.495286 
L 79.177359 96.835508 
L 82.154293 100.142946 
L 84.718401 102.59402 
L 87.809111 105.19378 
L 91.207288 107.705818 
L 94.227131 109.693017 
L 97.442322 111.596714 
L 101.472774 113.718998 
L 104.901127 115.322677 
L 108.484348 116.823309 
L 116.085207 119.48526 
L 120.71001 120.796703 
L 125.495985 121.932715 
L 135.935872 123.700244 
L 145.495027 124.537386 
L 156.658863 124.64099 
L 159.553567 124.519918 
L 176.268413 122.655945 
L 183.80048 121.166286 
L 191.693392 119.161999 
L 204.391097 114.941392 
L 216.327991 109.758143 
L 221.822487 106.93332 
L 227.150291 103.901639 
L 235.517484 98.492063 
L 241.951978 93.712839 
L 245.601002 90.724135 
L 249.092193 87.64904 
L 252.214556 84.697686 
L 255.187727 81.687089 
L 259.634015 76.755687 
L 263.669333 71.72937 
L 265.364504 69.422768 
L 268.462088 64.82894 
L 271.205787 60.229674 
L 273.702313 55.424172 
L 275.80269 50.676386 
L 277.551964 45.884156 
L 278.886677 41.222885 
L 279.575961 38.067074 
L 280.125112 34.572792 
L 280.425143 31.215791 
L 280.459862 27.215553 
L 280.082829 23.177456 
L 279.297707 19.501233 
L 277.796118 15.490307 
L 276.251273 12.819591 
L 274.312081 10.482928 
L 272.091371 8.659716 
L 270.763739 7.883416 
L 267.014397 6.646154 
L 261.401677 6.857458 
L 259.561163 7.393176 
L 253.12378 11.041735 
L 250.973931 12.924196 
L 247.787909 16.443413 
L 244.831067 20.671497 
L 242.698442 24.489285 
L 240.774425 28.713214 
L 238.975591 33.670158 
L 237.483636 39.03806 
L 236.738458 42.494478 
L 235.889017 47.77009 
L 235.279161 54.180823 
L 235.090643 60.88671 
L 235.181343 64.869194 
L 235.4219 68.925537 
L 236.111966 75.449519 
L 236.804472 79.973636 
L 237.678848 84.543444 
L 238.736091 89.146939 
L 239.976505 93.772059 
L 241.440784 98.532266 
L 243.096703 103.289483 
L 245.643759 109.710185 
L 248.041737 115.045339 
L 250.674044 120.318917 
L 252.997486 124.575394 
L 255.469032 128.768826 
L 259.540492 135.062465 
L 264.11064 141.389846 
L 268.999293 147.462019 
L 272.860481 151.831605 
L 276.872399 156.026109 
L 283.158847 161.977906 
L 290.451145 168.053918 
L 297.621013 173.267666 
L 308.416267 179.857752 
L 315.0123 183.200005 
L 326.496381 187.853027 
L 333.09512 189.868995 
L 338.887835 191.238762 
L 344.522417 192.200638 
L 351.766756 192.867755 
L 357.854955 192.885041 
L 361.699715 192.608531 
L 365.347749 192.112982 
L 369.162186 191.316528 
L 372.692928 190.279142 
L 376.463535 188.773008 
L 379.781975 186.993849 
L 382.336339 185.210417 
L 384.504149 183.263334 
L 385.626106 182.012944 
L 386.598491 180.718399 
L 387.864032 178.516437 
L 388.714451 176.241181 
L 389.079766 174.482514 
L 389.201674 172.711025 
z
" clip-path="url(#p3f25cef6ae)" style="fill: #808080; opacity: 0.5"/>
   </g>
   <g id="matplotlib.axis_1">
    <g id="xtick_1">
     <g id="line2d_1">
      <defs>
       <path id="m060bed31b1" d="M 0 0 
L 0 3.5 
" style="stroke: #000000; stroke-width: 0.8"/>
      </defs>
      <g>
       <use xlink:href="#m060bed31b1" x="98.983043" y="172.711025" style="stroke: #000000; stroke-width: 0.8"/>
      </g>
     </g>
     <g id="text_1">
      <!-- −2 -->
      <g transform="translate(91.611949 187.309462) scale(0.1 -0.1)">
       <defs>
        <path id="DejaVuSans-2212" d="M 678 2272 
L 4684 2272 
L 4684 1741 
L 678 1741 
L 678 2272 
z
" transform="scale(0.015625)"/>
        <path id="DejaVuSans-32" d="M 1228 531 
L 3431 531 
L 3431 0 
L 469 0 
L 469 531 
Q 828 903 1448 1529 
Q 2069 2156 2228 2338 
Q 2531 2678 2651 2914 
Q 2772 3150 2772 3378 
Q 2772 3750 2511 3984 
Q 2250 4219 1831 4219 
Q 1534 4219 1204 4116 
Q 875 4013 500 3803 
L 500 4441 
Q 881 4594 1212 4672 
Q 1544 4750 1819 4750 
Q 2544 4750 2975 4387 
Q 3406 4025 3406 3419 
Q 3406 3131 3298 2873 
Q 3191 2616 2906 2266 
Q 2828 2175 2409 1742 
Q 1991 1309 1228 531 
z
" transform="scale(0.015625)"/>
       </defs>
       <use xlink:href="#DejaVuSans-2212"/>
       <use xlink:href="#DejaVuSans-32" transform="translate(83.789062 0)"/>
      </g>
     </g>
    </g>
    <g id="xtick_2">
     <g id="line2d_2">
      <g>
       <use xlink:href="#m060bed31b1" x="157.026769" y="172.711025" style="stroke: #000000; stroke-width: 0.8"/>
      </g>
     </g>
     <g id="text_2">
      <!-- −1 -->
      <g transform="translate(149.655675 187.309462) scale(0.1 -0.1)">
       <defs>
        <path id="DejaVuSans-31" d="M 794 531 
L 1825 531 
L 1825 4091 
L 703 3866 
L 703 4441 
L 1819 4666 
L 2450 4666 
L 2450 531 
L 3481 531 
L 3481 0 
L 794 0 
L 794 531 
z
" transform="scale(0.015625)"/>
       </defs>
       <use xlink:href="#DejaVuSans-2212"/>
       <use xlink:href="#DejaVuSans-31" transform="translate(83.789062 0)"/>
      </g>
     </g>
    </g>
    <g id="xtick_3">
     <g id="line2d_3">
      <g>
       <use xlink:href="#m060bed31b1" x="215.070495" y="172.711025" style="stroke: #000000; stroke-width: 0.8"/>
      </g>
     </g>
    </g>
    <g id="xtick_4">
     <g id="line2d_4">
      <g>
       <use xlink:href="#m060bed31b1" x="273.114221" y="172.711025" style="stroke: #000000; stroke-width: 0.8"/>
      </g>
     </g>
     <g id="text_3">
      <!-- 1 -->
      <g transform="translate(269.932971 187.309462) scale(0.1 -0.1)">
       <use xlink:href="#DejaVuSans-31"/>
      </g>
     </g>
    </g>
    <g id="xtick_5">
     <g id="line2d_5">
      <g>
       <use xlink:href="#m060bed31b1" x="331.157948" y="172.711025" style="stroke: #000000; stroke-width: 0.8"/>
      </g>
     </g>
     <g id="text_4">
      <!-- 2 -->
      <g transform="translate(327.976698 187.309462) scale(0.1 -0.1)">
       <use xlink:href="#DejaVuSans-32"/>
      </g>
     </g>
    </g>
    <g id="xtick_6">
     <g id="line2d_6">
      <g>
       <use xlink:href="#m060bed31b1" x="389.201674" y="172.711025" style="stroke: #000000; stroke-width: 0.8"/>
      </g>
     </g>
     <g id="text_5">
      <!-- 3 -->
      <g transform="translate(386.020424 187.309462) scale(0.1 -0.1)">
       <defs>
        <path id="DejaVuSans-33" d="M 2597 2516 
Q 3050 2419 3304 2112 
Q 3559 1806 3559 1356 
Q 3559 666 3084 287 
Q 2609 -91 1734 -91 
Q 1441 -91 1130 -33 
Q 819 25 488 141 
L 488 750 
Q 750 597 1062 519 
Q 1375 441 1716 441 
Q 2309 441 2620 675 
Q 2931 909 2931 1356 
Q 2931 1769 2642 2001 
Q 2353 2234 1838 2234 
L 1294 2234 
L 1294 2753 
L 1863 2753 
Q 2328 2753 2575 2939 
Q 2822 3125 2822 3475 
Q 2822 3834 2567 4026 
Q 2313 4219 1838 4219 
Q 1578 4219 1281 4162 
Q 984 4106 628 3988 
L 628 4550 
Q 988 4650 1302 4700 
Q 1616 4750 1894 4750 
Q 2613 4750 3031 4423 
Q 3450 4097 3450 3541 
Q 3450 3153 3228 2886 
Q 3006 2619 2597 2516 
z
" transform="scale(0.015625)"/>
       </defs>
       <use xlink:href="#DejaVuSans-33"/>
      </g>
     </g>
    </g>
    <g id="xtick_7">
     <g id="line2d_7">
      <defs>
       <path id="m60da23f5a1" d="M 0 0 
L 0 2 
" style="stroke: #000000; stroke-width: 0.6"/>
      </defs>
      <g>
       <use xlink:href="#m60da23f5a1" x="75.765552" y="172.711025" style="stroke: #000000; stroke-width: 0.6"/>
      </g>
     </g>
    </g>
    <g id="xtick_8">
     <g id="line2d_8">
      <g>
       <use xlink:href="#m60da23f5a1" x="87.374297" y="172.711025" style="stroke: #000000; stroke-width: 0.6"/>
      </g>
     </g>
    </g>
    <g id="xtick_9">
     <g id="line2d_9">
      <g>
       <use xlink:href="#m60da23f5a1" x="110.591788" y="172.711025" style="stroke: #000000; stroke-width: 0.6"/>
      </g>
     </g>
    </g>
    <g id="xtick_10">
     <g id="line2d_10">
      <g>
       <use xlink:href="#m60da23f5a1" x="122.200533" y="172.711025" style="stroke: #000000; stroke-width: 0.6"/>
      </g>
     </g>
    </g>
    <g id="xtick_11">
     <g id="line2d_11">
      <g>
       <use xlink:href="#m60da23f5a1" x="133.809278" y="172.711025" style="stroke: #000000; stroke-width: 0.6"/>
      </g>
     </g>
    </g>
    <g id="xtick_12">
     <g id="line2d_12">
      <g>
       <use xlink:href="#m60da23f5a1" x="145.418024" y="172.711025" style="stroke: #000000; stroke-width: 0.6"/>
      </g>
     </g>
    </g>
    <g id="xtick_13">
     <g id="line2d_13">
      <g>
       <use xlink:href="#m60da23f5a1" x="168.635514" y="172.711025" style="stroke: #000000; stroke-width: 0.6"/>
      </g>
     </g>
    </g>
    <g id="xtick_14">
     <g id="line2d_14">
      <g>
       <use xlink:href="#m60da23f5a1" x="180.244259" y="172.711025" style="stroke: #000000; stroke-width: 0.6"/>
      </g>
     </g>
    </g>
    <g id="xtick_15">
     <g id="line2d_15">
      <g>
       <use xlink:href="#m60da23f5a1" x="191.853005" y="172.711025" style="stroke: #000000; stroke-width: 0.6"/>
      </g>
     </g>
    </g>
    <g id="xtick_16">
     <g id="line2d_16">
      <g>
       <use xlink:href="#m60da23f5a1" x="203.46175" y="172.711025" style="stroke: #000000; stroke-width: 0.6"/>
      </g>
     </g>
    </g>
    <g id="xtick_17">
     <g id="line2d_17">
      <g>
       <use xlink:href="#m60da23f5a1" x="226.67924" y="172.711025" style="stroke: #000000; stroke-width: 0.6"/>
      </g>
     </g>
    </g>
    <g id="xtick_18">
     <g id="line2d_18">
      <g>
       <use xlink:href="#m60da23f5a1" x="238.287986" y="172.711025" style="stroke: #000000; stroke-width: 0.6"/>
      </g>
     </g>
    </g>
    <g id="xtick_19">
     <g id="line2d_19">
      <g>
       <use xlink:href="#m60da23f5a1" x="249.896731" y="172.711025" style="stroke: #000000; stroke-width: 0.6"/>
      </g>
     </g>
    </g>
    <g id="xtick_20">
     <g id="line2d_20">
      <g>
       <use xlink:href="#m60da23f5a1" x="261.505476" y="172.711025" style="stroke: #000000; stroke-width: 0.6"/>
      </g>
     </g>
    </g>
    <g id="xtick_21">
     <g id="line2d_21">
      <g>
       <use xlink:href="#m60da23f5a1" x="284.722967" y="172.711025" style="stroke: #000000; stroke-width: 0.6"/>
      </g>
     </g>
    </g>
    <g id="xtick_22">
     <g id="line2d_22">
      <g>
       <use xlink:href="#m60da23f5a1" x="296.331712" y="172.711025" style="stroke: #000000; stroke-width: 0.6"/>
      </g>
     </g>
    </g>
    <g id="xtick_23">
     <g id="line2d_23">
      <g>
       <use xlink:href="#m60da23f5a1" x="307.940457" y="172.711025" style="stroke: #000000; stroke-width: 0.6"/>
      </g>
     </g>
    </g>
    <g id="xtick_24">
     <g id="line2d_24">
      <g>
       <use xlink:href="#m60da23f5a1" x="319.549202" y="172.711025" style="stroke: #000000; stroke-width: 0.6"/>
      </g>
     </g>
    </g>
    <g id="xtick_25">
     <g id="line2d_25">
      <g>
       <use xlink:href="#m60da23f5a1" x="342.766693" y="172.711025" style="stroke: #000000; stroke-width: 0.6"/>
      </g>
     </g>
    </g>
    <g id="xtick_26">
     <g id="line2d_26">
      <g>
       <use xlink:href="#m60da23f5a1" x="354.375438" y="172.711025" style="stroke: #000000; stroke-width: 0.6"/>
      </g>
     </g>
    </g>
    <g id="xtick_27">
     <g id="line2d_27">
      <g>
       <use xlink:href="#m60da23f5a1" x="365.984183" y="172.711025" style="stroke: #000000; stroke-width: 0.6"/>
      </g>
     </g>
    </g>
    <g id="xtick_28">
     <g id="line2d_28">
      <g>
       <use xlink:href="#m60da23f5a1" x="377.592929" y="172.711025" style="stroke: #000000; stroke-width: 0.6"/>
      </g>
     </g>
    </g>
   </g>
   <g id="matplotlib.axis_2">
    <g id="ytick_1">
     <g id="line2d_29">
      <defs>
       <path id="me7dbd4681d" d="M 0 0 
L -3.5 0 
" style="stroke: #000000; stroke-width: 0.8"/>
      </defs>
      <g>
       <use xlink:href="#me7dbd4681d" x="215.070495" y="288.798477" style="stroke: #000000; stroke-width: 0.8"/>
      </g>
     </g>
     <g id="text_6">
      <!-- −2 -->
      <g transform="translate(193.328308 292.597696) scale(0.1 -0.1)">
       <use xlink:href="#DejaVuSans-2212"/>
       <use xlink:href="#DejaVuSans-32" transform="translate(83.789062 0)"/>
      </g>
     </g>
    </g>
    <g id="ytick_2">
     <g id="line2d_30">
      <g>
       <use xlink:href="#me7dbd4681d" x="215.070495" y="230.754751" style="stroke: #000000; stroke-width: 0.8"/>
      </g>
     </g>
     <g id="text_7">
      <!-- −1 -->
      <g transform="translate(193.328308 234.55397) scale(0.1 -0.1)">
       <use xlink:href="#DejaVuSans-2212"/>
       <use xlink:href="#DejaVuSans-31" transform="translate(83.789062 0)"/>
      </g>
     </g>
    </g>
    <g id="ytick_3">
     <g id="line2d_31">
      <g>
       <use xlink:href="#me7dbd4681d" x="215.070495" y="172.711025" style="stroke: #000000; stroke-width: 0.8"/>
      </g>
     </g>
    </g>
    <g id="ytick_4">
     <g id="line2d_32">
      <g>
       <use xlink:href="#me7dbd4681d" x="215.070495" y="114.667298" style="stroke: #000000; stroke-width: 0.8"/>
      </g>
     </g>
     <g id="text_8">
      <!-- 1 -->
      <g transform="translate(201.707995 118.466517) scale(0.1 -0.1)">
       <use xlink:href="#DejaVuSans-31"/>
      </g>
     </g>
    </g>
    <g id="ytick_5">
     <g id="line2d_33">
      <g>
       <use xlink:href="#me7dbd4681d" x="215.070495" y="56.623572" style="stroke: #000000; stroke-width: 0.8"/>
      </g>
     </g>
     <g id="text_9">
      <!-- 2 -->
      <g transform="translate(201.707995 60.422791) scale(0.1 -0.1)">
       <use xlink:href="#DejaVuSans-32"/>
      </g>
     </g>
    </g>
    <g id="ytick_6">
     <g id="line2d_34">
      <defs>
       <path id="mc8193a7676" d="M 0 0 
L -2 0 
" style="stroke: #000000; stroke-width: 0.6"/>
      </defs>
      <g>
       <use xlink:href="#mc8193a7676" x="215.070495" y="335.233458" style="stroke: #000000; stroke-width: 0.6"/>
      </g>
     </g>
    </g>
    <g id="ytick_7">
     <g id="line2d_35">
      <g>
       <use xlink:href="#mc8193a7676" x="215.070495" y="323.624713" style="stroke: #000000; stroke-width: 0.6"/>
      </g>
     </g>
    </g>
    <g id="ytick_8">
     <g id="line2d_36">
      <g>
       <use xlink:href="#mc8193a7676" x="215.070495" y="312.015968" style="stroke: #000000; stroke-width: 0.6"/>
      </g>
     </g>
    </g>
    <g id="ytick_9">
     <g id="line2d_37">
      <g>
       <use xlink:href="#mc8193a7676" x="215.070495" y="300.407222" style="stroke: #000000; stroke-width: 0.6"/>
      </g>
     </g>
    </g>
    <g id="ytick_10">
     <g id="line2d_38">
      <g>
       <use xlink:href="#mc8193a7676" x="215.070495" y="277.189732" style="stroke: #000000; stroke-width: 0.6"/>
      </g>
     </g>
    </g>
    <g id="ytick_11">
     <g id="line2d_39">
      <g>
       <use xlink:href="#mc8193a7676" x="215.070495" y="265.580987" style="stroke: #000000; stroke-width: 0.6"/>
      </g>
     </g>
    </g>
    <g id="ytick_12">
     <g id="line2d_40">
      <g>
       <use xlink:href="#mc8193a7676" x="215.070495" y="253.972241" style="stroke: #000000; stroke-width: 0.6"/>
      </g>
     </g>
    </g>
    <g id="ytick_13">
     <g id="line2d_41">
      <g>
       <use xlink:href="#mc8193a7676" x="215.070495" y="242.363496" style="stroke: #000000; stroke-width: 0.6"/>
      </g>
     </g>
    </g>
    <g id="ytick_14">
     <g id="line2d_42">
      <g>
       <use xlink:href="#mc8193a7676" x="215.070495" y="219.146006" style="stroke: #000000; stroke-width: 0.6"/>
      </g>
     </g>
    </g>
    <g id="ytick_15">
     <g id="line2d_43">
      <g>
       <use xlink:href="#mc8193a7676" x="215.070495" y="207.53726" style="stroke: #000000; stroke-width: 0.6"/>
      </g>
     </g>
    </g>
    <g id="ytick_16">
     <g id="line2d_44">
      <g>
       <use xlink:href="#mc8193a7676" x="215.070495" y="195.928515" style="stroke: #000000; stroke-width: 0.6"/>
      </g>
     </g>
    </g>
    <g id="ytick_17">
     <g id="line2d_45">
      <g>
       <use xlink:href="#mc8193a7676" x="215.070495" y="184.31977" style="stroke: #000000; stroke-width: 0.6"/>
      </g>
     </g>
    </g>
    <g id="ytick_18">
     <g id="line2d_46">
      <g>
       <use xlink:href="#mc8193a7676" x="215.070495" y="161.102279" style="stroke: #000000; stroke-width: 0.6"/>
      </g>
     </g>
    </g>
    <g id="ytick_19">
     <g id="line2d_47">
      <g>
       <use xlink:href="#mc8193a7676" x="215.070495" y="149.493534" style="stroke: #000000; stroke-width: 0.6"/>
      </g>
     </g>
    </g>
    <g id="ytick_20">
     <g id="line2d_48">
      <g>
       <use xlink:href="#mc8193a7676" x="215.070495" y="137.884789" style="stroke: #000000; stroke-width: 0.6"/>
      </g>
     </g>
    </g>
    <g id="ytick_21">
     <g id="line2d_49">
      <g>
       <use xlink:href="#mc8193a7676" x="215.070495" y="126.276044" style="stroke: #000000; stroke-width: 0.6"/>
      </g>
     </g>
    </g>
    <g id="ytick_22">
     <g id="line2d_50">
      <g>
       <use xlink:href="#mc8193a7676" x="215.070495" y="103.058553" style="stroke: #000000; stroke-width: 0.6"/>
      </g>
     </g>
    </g>
    <g id="ytick_23">
     <g id="line2d_51">
      <g>
       <use xlink:href="#mc8193a7676" x="215.070495" y="91.449808" style="stroke: #000000; stroke-width: 0.6"/>
      </g>
     </g>
    </g>
    <g id="ytick_24">
     <g id="line2d_52">
      <g>
       <use xlink:href="#mc8193a7676" x="215.070495" y="79.841063" style="stroke: #000000; stroke-width: 0.6"/>
      </g>
     </g>
    </g>
    <g id="ytick_25">
     <g id="line2d_53">
      <g>
       <use xlink:href="#mc8193a7676" x="215.070495" y="68.232317" style="stroke: #000000; stroke-width: 0.6"/>
      </g>
     </g>
    </g>
    <g id="ytick_26">
     <g id="line2d_54">
      <g>
       <use xlink:href="#mc8193a7676" x="215.070495" y="45.014827" style="stroke: #000000; stroke-width: 0.6"/>
      </g>
     </g>
    </g>
    <g id="ytick_27">
     <g id="line2d_55">
      <g>
       <use xlink:href="#mc8193a7676" x="215.070495" y="33.406081" style="stroke: #000000; stroke-width: 0.6"/>
      </g>
     </g>
    </g>
    <g id="ytick_28">
     <g id="line2d_56">
      <g>
       <use xlink:href="#mc8193a7676" x="215.070495" y="21.797336" style="stroke: #000000; stroke-width: 0.6"/>
      </g>
     </g>
    </g>
    <g id="ytick_29">
     <g id="line2d_57">
      <g>
       <use xlink:href="#mc8193a7676" x="215.070495" y="10.188591" style="stroke: #000000; stroke-width: 0.6"/>
      </g>
     </g>
    </g>
   </g>
   <g id="line2d_58">
    <path d="M 389.201674 172.711025 
L 388.929636 170.068216 
L 388.411221 168.226595 
L 387.624765 166.421162 
L 386.639416 164.763907 
L 385.421229 163.164246 
L 384.245643 161.898253 
L 382.917408 160.686073 
L 379.815224 158.448752 
L 377.85622 157.334991 
L 374.568915 155.834031 
L 370.915142 154.580826 
L 367.547546 153.73076 
L 363.947946 153.090231 
L 360.006202 152.662346 
L 355.853049 152.483982 
L 350.737229 152.608023 
L 346.253288 153.002054 
L 339.338433 154.092721 
L 330.232976 156.368438 
L 313.222146 163.079841 
L 310.636171 164.383504 
L 304.050044 168.056841 
L 296.123262 173.185435 
L 288.399732 178.994377 
L 281.811961 184.660193 
L 276.922611 189.345505 
L 270.880364 195.787936 
L 265.201522 202.619809 
L 261.030352 208.219305 
L 257.508566 213.413688 
L 254.216202 218.739481 
L 251.633062 223.305587 
L 249.225576 227.938689 
L 246.69111 233.309878 
L 243.385446 241.35622 
L 240.627964 249.454919 
L 239.258547 254.24489 
L 238.085003 259.017404 
L 236.923788 264.766768 
L 235.829593 272.247121 
L 235.347871 277.512437 
L 235.114909 282.66813 
L 235.13862 288.184067 
L 235.445723 293.519655 
L 236.088326 299.092875 
L 237.035557 304.394812 
L 237.951601 308.242176 
L 239.024228 311.903564 
L 241.679264 318.805987 
L 243.812164 323.021407 
L 247.867259 329.078176 
L 252.145315 333.56864 
L 255.494513 336.054409 
L 259.082628 337.853276 
L 260.886148 338.436935 
L 265.184018 338.953846 
L 268.925859 338.304618 
L 272.141018 336.729215 
L 274.110728 335.136555 
L 275.864019 333.141708 
L 277.380768 330.748364 
L 278.623977 327.987224 
L 279.138936 326.463533 
L 280.04773 322.470925 
L 280.466055 318.039121 
L 280.381776 313.503474 
L 280.023609 310.075195 
L 279.408971 306.510225 
L 278.88973 304.211561 
L 278.048968 301.129066 
L 277.025798 297.983457 
L 275.81858 294.78502 
L 274.42626 291.544139 
L 273.057011 288.684267 
L 271.064597 284.940536 
L 268.833508 281.182702 
L 265.44142 276.107107 
L 261.624632 271.071285 
L 257.912677 266.690118 
L 253.888155 262.393311 
L 248.824753 257.529397 
L 244.919432 254.122963 
L 240.820639 250.82551 
L 236.132012 247.361567 
L 231.238066 244.058309 
L 224.014256 239.69964 
L 216.882386 235.935722 
L 209.494069 232.544258 
L 202.783435 229.875506 
L 191.003163 226.066318 
L 186.342285 224.851076 
L 174.2589 222.437267 
L 163.487692 221.162597 
L 154.19933 220.72556 
L 145.993266 220.860356 
L 137.986917 221.481628 
L 132.247931 222.240055 
L 125.180897 223.557531 
L 117.096352 225.631262 
L 109.515239 228.19776 
L 107.1068 229.155579 
L 103.615329 230.680624 
L 100.278286 232.303836 
L 95.666652 234.851611 
L 91.422091 237.567811 
L 88.671908 239.559424 
L 86.115916 241.61024 
L 83.144605 244.29569 
L 80.504374 247.038907 
L 78.624597 249.273006 
L 76.965644 251.518294 
L 75.464707 253.872414 
L 74.20969 256.211983 
L 72.897292 259.347006 
L 72.038353 262.394932 
L 71.737761 264.174763 
L 71.598326 265.903164 
L 71.64298 267.925434 
L 72.065103 270.481022 
L 72.890355 272.826922 
L 73.891187 274.625313 
L 75.158427 276.236509 
L 77.577699 278.298424 
L 79.969703 279.59993 
L 83.04883 280.607645 
L 86.507329 281.108342 
L 88.778217 281.152907 
L 92.373099 280.839278 
L 96.179128 280.057332 
L 100.511827 278.662118 
L 104.803984 276.7847 
L 112.609228 272.144666 
L 116.837498 268.956496 
L 122.441419 263.943914 
L 127.890042 258.107309 
L 130.211043 255.292048 
L 136.323589 246.744953 
L 139.333204 241.801976 
L 142.134579 236.641021 
L 144.739697 231.232553 
L 147.049103 225.802463 
L 149.145659 220.179202 
L 150.836006 214.982029 
L 152.335926 209.659874 
L 154.02151 202.422098 
L 155.343217 195.028314 
L 155.847631 191.413448 
L 156.67783 182.907546 
L 156.926786 178.172707 
L 157.025053 173.426704 
L 156.972298 168.679237 
L 156.768701 163.940012 
L 156.264505 157.657019 
L 155.496987 151.428541 
L 154.586247 145.89568 
L 153.569233 140.881782 
L 152.38372 135.946051 
L 150.263847 128.600408 
L 147.488181 120.735336 
L 144.301265 113.231424 
L 140.928322 106.48463 
L 136.205516 98.494213 
L 132.440443 93.043679 
L 128.48895 88.02101 
L 124.428523 83.489133 
L 117.886014 77.333046 
L 113.434191 73.861213 
L 107.974658 70.331398 
L 102.125236 67.409036 
L 95.452975 65.18228 
L 92.19715 64.557369 
L 89.09906 64.278805 
L 87.379493 64.272426 
L 83.348893 64.747348 
L 79.811312 65.892052 
L 78.332716 66.651056 
L 76.349579 68.047484 
L 74.686545 69.725662 
L 73.461731 71.48853 
L 72.534091 73.44968 
L 71.942845 75.459917 
L 71.607896 78.034711 
L 71.684808 80.780165 
L 72.083407 83.235105 
L 73.096373 86.624353 
L 74.625085 90.034344 
L 76.687912 93.495286 
L 79.177359 96.835508 
L 82.154293 100.142946 
L 84.718401 102.59402 
L 87.809111 105.19378 
L 91.207288 107.705818 
L 94.227131 109.693017 
L 97.442322 111.596714 
L 101.472774 113.718998 
L 104.901127 115.322677 
L 108.484348 116.823309 
L 116.085207 119.48526 
L 120.71001 120.796703 
L 125.495985 121.932715 
L 135.935872 123.700244 
L 145.495027 124.537386 
L 156.658863 124.64099 
L 159.553567 124.519918 
L 176.268413 122.655945 
L 183.80048 121.166286 
L 191.693392 119.161999 
L 204.391097 114.941392 
L 216.327991 109.758143 
L 221.822487 106.93332 
L 227.150291 103.901639 
L 235.517484 98.492063 
L 241.951978 93.712839 
L 245.601002 90.724135 
L 249.092193 87.64904 
L 252.214556 84.697686 
L 255.187727 81.687089 
L 259.634015 76.755687 
L 263.669333 71.72937 
L 265.364504 69.422768 
L 268.462088 64.82894 
L 271.205787 60.229674 
L 273.702313 55.424172 
L 275.80269 50.676386 
L 277.551964 45.884156 
L 278.886677 41.222885 
L 279.575961 38.067074 
L 280.125112 34.572792 
L 280.425143 31.215791 
L 280.459862 27.215553 
L 280.082829 23.177456 
L 279.297707 19.501233 
L 277.796118 15.490307 
L 276.251273 12.819591 
L 274.312081 10.482928 
L 272.091371 8.659716 
L 270.763739 7.883416 
L 267.014397 6.646154 
L 261.401677 6.857458 
L 259.561163 7.393176 
L 253.12378 11.041735 
L 250.973931 12.924196 
L 247.787909 16.443413 
L 244.831067 20.671497 
L 242.698442 24.489285 
L 240.774425 28.713214 
L 238.975591 33.670158 
L 237.483636 39.03806 
L 236.738458 42.494478 
L 235.889017 47.77009 
L 235.279161 54.180823 
L 235.090643 60.88671 
L 235.181343 64.869194 
L 235.4219 68.925537 
L 236.111966 75.449519 
L 236.804472 79.973636 
L 237.678848 84.543444 
L 238.736091 89.146939 
L 239.976505 93.772059 
L 241.440784 98.532266 
L 243.096703 103.289483 
L 245.643759 109.710185 
L 248.041737 115.045339 
L 250.674044 120.318917 
L 252.997486 124.575394 
L 255.469032 128.768826 
L 259.540492 135.062465 
L 264.11064 141.389846 
L 268.999293 147.462019 
L 272.860481 151.831605 
L 276.872399 156.026109 
L 283.158847 161.977906 
L 290.451145 168.053918 
L 297.621013 173.267666 
L 308.416267 179.857752 
L 315.0123 183.200005 
L 326.496381 187.853027 
L 333.09512 189.868995 
L 338.887835 191.238762 
L 344.522417 192.200638 
L 351.766756 192.867755 
L 357.854955 192.885041 
L 361.699715 192.608531 
L 365.347749 192.112982 
L 369.162186 191.316528 
L 372.692928 190.279142 
L 376.463535 188.773008 
L 379.781975 186.993849 
L 382.336339 185.210417 
L 384.504149 183.263334 
L 385.626106 182.012944 
L 386.598491 180.718399 
L 387.864032 178.516437 
L 388.714451 176.241181 
L 389.079766 174.482514 
L 389.201674 172.711025 
L 389.201674 172.711025 
" clip-path="url(#p3f25cef6ae)" style="fill: none; stroke: #0000ff; stroke-linecap: square"/>
   </g>
   <g id="patch_4">
    <path d="M 215.070495 345.6 
L 215.070495 0 
" style="fill: none; stroke: #000000; stroke-width: 0.8; stroke-linejoin: miter; stroke-linecap: square"/>
   </g>
   <g id="patch_5">
    <path d="M 65.246259 172.711025 
L 395.553741 172.711025 
" style="fill: none; stroke: #000000; stroke-width: 0.8; stroke-linejoin: miter; stroke-linecap: square"/>
   </g>
  </g>
 </g>
 <defs>
  <clipPath id="p3f25cef6ae">
   <rect x="65.246259" y="0" width="330.307482" height="345.6"/>
  </clipPath>
 </defs>
</svg>
