<?xml version="1.0" encoding="utf-8" standalone="no"?>
<!DOCTYPE svg PUBLIC "-//W3C//DTD SVG 1.1//EN"
  "http://www.w3.org/Graphics/SVG/1.1/DTD/svg11.dtd">
<svg xmlns:xlink="http://www.w3.org/1999/xlink" width="460.8pt" height="345.6pt" viewBox="0 0 460.8 345.6" xmlns="http://www.w3.org/2000/svg" version="1.1">
 <metadata>
  <rdf:RDF xmlns:dc="http://purl.org/dc/elements/1.1/" xmlns:cc="http://creativecommons.org/ns#" xmlns:rdf="http://www.w3.org/1999/02/22-rdf-syntax-ns#">
   <cc:Work>
    <dc:type rdf:resource="http://purl.org/dc/dcmitype/StillImage"/>
    <dc:date>2025-08-02T16:00:58.230683</dc:date>
    <dc:format>image/svg+xml</dc:format>
    <dc:creator>
     <cc:Agent>
      <dc:title>Matplotlib v3.10.3, https://matplotlib.org/</dc:title>
     </cc:Agent>
    </dc:creator>
   </cc:Work>
  </rdf:RDF>
 </metadata>
 <defs>
  <style type="text/css">*{stroke-linejoin: round; stroke-linecap: butt}</style>
 </defs>
 <g id="figure_1">
  <g id="patch_1">
   <path d="M 0 345.6 
L 460.8 345.6 
L 460.8 0 
L 0 0 
z
" style="fill: #ffffff"/>
  </g>
  <g id="axes_1">
   <g id="patch_2">
    <path d="M 57.599508 345.6 
L 403.200492 345.6 
L 403.200492 0 
L 57.599508 0 
z
" style="fill: #ffffff"/>
   </g>
   <g id="matplotlib.axis_1">
    <g id="xtick_1">
     <g id="line2d_1">
      <defs>
       <path id="m38a5666167" d="M 0 0 
L 0 3.5 
" style="stroke: #000000; stroke-width: 0.8"/>
      </defs>
      <g>
       <use xlink:href="#m38a5666167" x="64.238717" y="172.803406" style="stroke: #000000; stroke-width: 0.8"/>
      </g>
     </g>
     <g id="text_1">
      <!-- −1.0 -->
      <g transform="translate(52.097311 187.401844) scale(0.1 -0.1)">
       <defs>
        <path id="DejaVuSans-2212" d="M 678 2272 
L 4684 2272 
L 4684 1741 
L 678 1741 
L 678 2272 
z
" transform="scale(0.015625)"/>
        <path id="DejaVuSans-31" d="M 794 531 
L 1825 531 
L 1825 4091 
L 703 3866 
L 703 4441 
L 1819 4666 
L 2450 4666 
L 2450 531 
L 3481 531 
L 3481 0 
L 794 0 
L 794 531 
z
" transform="scale(0.015625)"/>
        <path id="DejaVuSans-2e" d="M 684 794 
L 1344 794 
L 1344 0 
L 684 0 
L 684 794 
z
" transform="scale(0.015625)"/>
        <path id="DejaVuSans-30" d="M 2034 4250 
Q 1547 4250 1301 3770 
Q 1056 3291 1056 2328 
Q 1056 1369 1301 889 
Q 1547 409 2034 409 
Q 2525 409 2770 889 
Q 3016 1369 3016 2328 
Q 3016 3291 2770 3770 
Q 2525 4250 2034 4250 
z
M 2034 4750 
Q 2819 4750 3233 4129 
Q 3647 3509 3647 2328 
Q 3647 1150 3233 529 
Q 2819 -91 2034 -91 
Q 1250 -91 836 529 
Q 422 1150 422 2328 
Q 422 3509 836 4129 
Q 1250 4750 2034 4750 
z
" transform="scale(0.015625)"/>
       </defs>
       <use xlink:href="#DejaVuSans-2212"/>
       <use xlink:href="#DejaVuSans-31" transform="translate(83.789062 0)"/>
       <use xlink:href="#DejaVuSans-2e" transform="translate(147.412109 0)"/>
       <use xlink:href="#DejaVuSans-30" transform="translate(179.199219 0)"/>
      </g>
     </g>
    </g>
    <g id="xtick_2">
     <g id="line2d_2">
      <g>
       <use xlink:href="#m38a5666167" x="147.317617" y="172.803406" style="stroke: #000000; stroke-width: 0.8"/>
      </g>
     </g>
     <g id="text_2">
      <!-- −0.5 -->
      <g transform="translate(135.176211 187.401844) scale(0.1 -0.1)">
       <defs>
        <path id="DejaVuSans-35" d="M 691 4666 
L 3169 4666 
L 3169 4134 
L 1269 4134 
L 1269 2991 
Q 1406 3038 1543 3061 
Q 1681 3084 1819 3084 
Q 2600 3084 3056 2656 
Q 3513 2228 3513 1497 
Q 3513 744 3044 326 
Q 2575 -91 1722 -91 
Q 1428 -91 1123 -41 
Q 819 9 494 109 
L 494 744 
Q 775 591 1075 516 
Q 1375 441 1709 441 
Q 2250 441 2565 725 
Q 2881 1009 2881 1497 
Q 2881 1984 2565 2268 
Q 2250 2553 1709 2553 
Q 1456 2553 1204 2497 
Q 953 2441 691 2322 
L 691 4666 
z
" transform="scale(0.015625)"/>
       </defs>
       <use xlink:href="#DejaVuSans-2212"/>
       <use xlink:href="#DejaVuSans-30" transform="translate(83.789062 0)"/>
       <use xlink:href="#DejaVuSans-2e" transform="translate(147.412109 0)"/>
       <use xlink:href="#DejaVuSans-35" transform="translate(179.199219 0)"/>
      </g>
     </g>
    </g>
    <g id="xtick_3">
     <g id="line2d_3">
      <g>
       <use xlink:href="#m38a5666167" x="230.396518" y="172.803406" style="stroke: #000000; stroke-width: 0.8"/>
      </g>
     </g>
    </g>
    <g id="xtick_4">
     <g id="line2d_4">
      <g>
       <use xlink:href="#m38a5666167" x="313.475419" y="172.803406" style="stroke: #000000; stroke-width: 0.8"/>
      </g>
     </g>
     <g id="text_3">
      <!-- 0.5 -->
      <g transform="translate(305.523856 187.401844) scale(0.1 -0.1)">
       <use xlink:href="#DejaVuSans-30"/>
       <use xlink:href="#DejaVuSans-2e" transform="translate(63.623047 0)"/>
       <use xlink:href="#DejaVuSans-35" transform="translate(95.410156 0)"/>
      </g>
     </g>
    </g>
    <g id="xtick_5">
     <g id="line2d_5">
      <g>
       <use xlink:href="#m38a5666167" x="396.554319" y="172.803406" style="stroke: #000000; stroke-width: 0.8"/>
      </g>
     </g>
     <g id="text_4">
      <!-- 1.0 -->
      <g transform="translate(388.602757 187.401844) scale(0.1 -0.1)">
       <use xlink:href="#DejaVuSans-31"/>
       <use xlink:href="#DejaVuSans-2e" transform="translate(63.623047 0)"/>
       <use xlink:href="#DejaVuSans-30" transform="translate(95.410156 0)"/>
      </g>
     </g>
    </g>
    <g id="xtick_6">
     <g id="line2d_6">
      <defs>
       <path id="m1e7c74e9a2" d="M 0 0 
L 0 2 
" style="stroke: #000000; stroke-width: 0.6"/>
      </defs>
      <g>
       <use xlink:href="#m1e7c74e9a2" x="80.854497" y="172.803406" style="stroke: #000000; stroke-width: 0.6"/>
      </g>
     </g>
    </g>
    <g id="xtick_7">
     <g id="line2d_7">
      <g>
       <use xlink:href="#m1e7c74e9a2" x="97.470277" y="172.803406" style="stroke: #000000; stroke-width: 0.6"/>
      </g>
     </g>
    </g>
    <g id="xtick_8">
     <g id="line2d_8">
      <g>
       <use xlink:href="#m1e7c74e9a2" x="114.086057" y="172.803406" style="stroke: #000000; stroke-width: 0.6"/>
      </g>
     </g>
    </g>
    <g id="xtick_9">
     <g id="line2d_9">
      <g>
       <use xlink:href="#m1e7c74e9a2" x="130.701837" y="172.803406" style="stroke: #000000; stroke-width: 0.6"/>
      </g>
     </g>
    </g>
    <g id="xtick_10">
     <g id="line2d_10">
      <g>
       <use xlink:href="#m1e7c74e9a2" x="163.933398" y="172.803406" style="stroke: #000000; stroke-width: 0.6"/>
      </g>
     </g>
    </g>
    <g id="xtick_11">
     <g id="line2d_11">
      <g>
       <use xlink:href="#m1e7c74e9a2" x="180.549178" y="172.803406" style="stroke: #000000; stroke-width: 0.6"/>
      </g>
     </g>
    </g>
    <g id="xtick_12">
     <g id="line2d_12">
      <g>
       <use xlink:href="#m1e7c74e9a2" x="197.164958" y="172.803406" style="stroke: #000000; stroke-width: 0.6"/>
      </g>
     </g>
    </g>
    <g id="xtick_13">
     <g id="line2d_13">
      <g>
       <use xlink:href="#m1e7c74e9a2" x="213.780738" y="172.803406" style="stroke: #000000; stroke-width: 0.6"/>
      </g>
     </g>
    </g>
    <g id="xtick_14">
     <g id="line2d_14">
      <g>
       <use xlink:href="#m1e7c74e9a2" x="247.012298" y="172.803406" style="stroke: #000000; stroke-width: 0.6"/>
      </g>
     </g>
    </g>
    <g id="xtick_15">
     <g id="line2d_15">
      <g>
       <use xlink:href="#m1e7c74e9a2" x="263.628078" y="172.803406" style="stroke: #000000; stroke-width: 0.6"/>
      </g>
     </g>
    </g>
    <g id="xtick_16">
     <g id="line2d_16">
      <g>
       <use xlink:href="#m1e7c74e9a2" x="280.243858" y="172.803406" style="stroke: #000000; stroke-width: 0.6"/>
      </g>
     </g>
    </g>
    <g id="xtick_17">
     <g id="line2d_17">
      <g>
       <use xlink:href="#m1e7c74e9a2" x="296.859638" y="172.803406" style="stroke: #000000; stroke-width: 0.6"/>
      </g>
     </g>
    </g>
    <g id="xtick_18">
     <g id="line2d_18">
      <g>
       <use xlink:href="#m1e7c74e9a2" x="330.091199" y="172.803406" style="stroke: #000000; stroke-width: 0.6"/>
      </g>
     </g>
    </g>
    <g id="xtick_19">
     <g id="line2d_19">
      <g>
       <use xlink:href="#m1e7c74e9a2" x="346.706979" y="172.803406" style="stroke: #000000; stroke-width: 0.6"/>
      </g>
     </g>
    </g>
    <g id="xtick_20">
     <g id="line2d_20">
      <g>
       <use xlink:href="#m1e7c74e9a2" x="363.322759" y="172.803406" style="stroke: #000000; stroke-width: 0.6"/>
      </g>
     </g>
    </g>
    <g id="xtick_21">
     <g id="line2d_21">
      <g>
       <use xlink:href="#m1e7c74e9a2" x="379.938539" y="172.803406" style="stroke: #000000; stroke-width: 0.6"/>
      </g>
     </g>
    </g>
   </g>
   <g id="matplotlib.axis_2">
    <g id="ytick_1">
     <g id="line2d_22">
      <defs>
       <path id="ma97f41bfb1" d="M 0 0 
L -3.5 0 
" style="stroke: #000000; stroke-width: 0.8"/>
      </defs>
      <g>
       <use xlink:href="#ma97f41bfb1" x="230.396518" y="338.961207" style="stroke: #000000; stroke-width: 0.8"/>
      </g>
     </g>
     <g id="text_5">
      <!-- −1.0 -->
      <g transform="translate(199.113705 342.760426) scale(0.1 -0.1)">
       <use xlink:href="#DejaVuSans-2212"/>
       <use xlink:href="#DejaVuSans-31" transform="translate(83.789062 0)"/>
       <use xlink:href="#DejaVuSans-2e" transform="translate(147.412109 0)"/>
       <use xlink:href="#DejaVuSans-30" transform="translate(179.199219 0)"/>
      </g>
     </g>
    </g>
    <g id="ytick_2">
     <g id="line2d_23">
      <g>
       <use xlink:href="#ma97f41bfb1" x="230.396518" y="255.882307" style="stroke: #000000; stroke-width: 0.8"/>
      </g>
     </g>
     <g id="text_6">
      <!-- −0.5 -->
      <g transform="translate(199.113705 259.681526) scale(0.1 -0.1)">
       <use xlink:href="#DejaVuSans-2212"/>
       <use xlink:href="#DejaVuSans-30" transform="translate(83.789062 0)"/>
       <use xlink:href="#DejaVuSans-2e" transform="translate(147.412109 0)"/>
       <use xlink:href="#DejaVuSans-35" transform="translate(179.199219 0)"/>
      </g>
     </g>
    </g>
    <g id="ytick_3">
     <g id="line2d_24">
      <g>
       <use xlink:href="#ma97f41bfb1" x="230.396518" y="172.803406" style="stroke: #000000; stroke-width: 0.8"/>
      </g>
     </g>
    </g>
    <g id="ytick_4">
     <g id="line2d_25">
      <g>
       <use xlink:href="#ma97f41bfb1" x="230.396518" y="89.724506" style="stroke: #000000; stroke-width: 0.8"/>
      </g>
     </g>
     <g id="text_7">
      <!-- 0.5 -->
      <g transform="translate(207.493393 93.523724) scale(0.1 -0.1)">
       <use xlink:href="#DejaVuSans-30"/>
       <use xlink:href="#DejaVuSans-2e" transform="translate(63.623047 0)"/>
       <use xlink:href="#DejaVuSans-35" transform="translate(95.410156 0)"/>
      </g>
     </g>
    </g>
    <g id="ytick_5">
     <g id="line2d_26">
      <g>
       <use xlink:href="#ma97f41bfb1" x="230.396518" y="6.645605" style="stroke: #000000; stroke-width: 0.8"/>
      </g>
     </g>
     <g id="text_8">
      <!-- 1.0 -->
      <g transform="translate(207.493393 10.444824) scale(0.1 -0.1)">
       <use xlink:href="#DejaVuSans-31"/>
       <use xlink:href="#DejaVuSans-2e" transform="translate(63.623047 0)"/>
       <use xlink:href="#DejaVuSans-30" transform="translate(95.410156 0)"/>
      </g>
     </g>
    </g>
    <g id="ytick_6">
     <g id="line2d_27">
      <defs>
       <path id="mf672ddc9b2" d="M 0 0 
L -2 0 
" style="stroke: #000000; stroke-width: 0.6"/>
      </defs>
      <g>
       <use xlink:href="#mf672ddc9b2" x="230.396518" y="322.345427" style="stroke: #000000; stroke-width: 0.6"/>
      </g>
     </g>
    </g>
    <g id="ytick_7">
     <g id="line2d_28">
      <g>
       <use xlink:href="#mf672ddc9b2" x="230.396518" y="305.729647" style="stroke: #000000; stroke-width: 0.6"/>
      </g>
     </g>
    </g>
    <g id="ytick_8">
     <g id="line2d_29">
      <g>
       <use xlink:href="#mf672ddc9b2" x="230.396518" y="289.113867" style="stroke: #000000; stroke-width: 0.6"/>
      </g>
     </g>
    </g>
    <g id="ytick_9">
     <g id="line2d_30">
      <g>
       <use xlink:href="#mf672ddc9b2" x="230.396518" y="272.498087" style="stroke: #000000; stroke-width: 0.6"/>
      </g>
     </g>
    </g>
    <g id="ytick_10">
     <g id="line2d_31">
      <g>
       <use xlink:href="#mf672ddc9b2" x="230.396518" y="239.266527" style="stroke: #000000; stroke-width: 0.6"/>
      </g>
     </g>
    </g>
    <g id="ytick_11">
     <g id="line2d_32">
      <g>
       <use xlink:href="#mf672ddc9b2" x="230.396518" y="222.650747" style="stroke: #000000; stroke-width: 0.6"/>
      </g>
     </g>
    </g>
    <g id="ytick_12">
     <g id="line2d_33">
      <g>
       <use xlink:href="#mf672ddc9b2" x="230.396518" y="206.034966" style="stroke: #000000; stroke-width: 0.6"/>
      </g>
     </g>
    </g>
    <g id="ytick_13">
     <g id="line2d_34">
      <g>
       <use xlink:href="#mf672ddc9b2" x="230.396518" y="189.419186" style="stroke: #000000; stroke-width: 0.6"/>
      </g>
     </g>
    </g>
    <g id="ytick_14">
     <g id="line2d_35">
      <g>
       <use xlink:href="#mf672ddc9b2" x="230.396518" y="156.187626" style="stroke: #000000; stroke-width: 0.6"/>
      </g>
     </g>
    </g>
    <g id="ytick_15">
     <g id="line2d_36">
      <g>
       <use xlink:href="#mf672ddc9b2" x="230.396518" y="139.571846" style="stroke: #000000; stroke-width: 0.6"/>
      </g>
     </g>
    </g>
    <g id="ytick_16">
     <g id="line2d_37">
      <g>
       <use xlink:href="#mf672ddc9b2" x="230.396518" y="122.956066" style="stroke: #000000; stroke-width: 0.6"/>
      </g>
     </g>
    </g>
    <g id="ytick_17">
     <g id="line2d_38">
      <g>
       <use xlink:href="#mf672ddc9b2" x="230.396518" y="106.340286" style="stroke: #000000; stroke-width: 0.6"/>
      </g>
     </g>
    </g>
    <g id="ytick_18">
     <g id="line2d_39">
      <g>
       <use xlink:href="#mf672ddc9b2" x="230.396518" y="73.108726" style="stroke: #000000; stroke-width: 0.6"/>
      </g>
     </g>
    </g>
    <g id="ytick_19">
     <g id="line2d_40">
      <g>
       <use xlink:href="#mf672ddc9b2" x="230.396518" y="56.492945" style="stroke: #000000; stroke-width: 0.6"/>
      </g>
     </g>
    </g>
    <g id="ytick_20">
     <g id="line2d_41">
      <g>
       <use xlink:href="#mf672ddc9b2" x="230.396518" y="39.877165" style="stroke: #000000; stroke-width: 0.6"/>
      </g>
     </g>
    </g>
    <g id="ytick_21">
     <g id="line2d_42">
      <g>
       <use xlink:href="#mf672ddc9b2" x="230.396518" y="23.261385" style="stroke: #000000; stroke-width: 0.6"/>
      </g>
     </g>
    </g>
   </g>
   <g id="line2d_43">
    <path d="M 396.554319 172.803406 
L 396.42307 166.200453 
L 395.811026 157.104508 
L 395.457405 153.742492 
L 394.050215 144.065239 
L 393.052242 138.869202 
L 391.863137 133.599505 
L 389.803142 125.921179 
L 388.119758 120.536834 
L 385.636374 113.566578 
L 382.966565 106.994626 
L 381.488446 103.668436 
L 378.573658 97.623954 
L 375.937941 92.640392 
L 373.472514 88.318649 
L 370.564043 83.576282 
L 368.423848 80.300049 
L 362.810153 72.428886 
L 357.970736 66.345744 
L 355.295687 63.219592 
L 351.385326 58.916957 
L 348.416682 55.843346 
L 343.991777 51.541161 
L 341.146216 48.936868 
L 336.596702 45.014769 
L 327.869517 38.239558 
L 324.69276 35.994658 
L 317.45235 31.277094 
L 314.10048 29.269224 
L 308.358772 26.071332 
L 302.218761 22.970232 
L 297.784843 20.924413 
L 288.064251 16.97386 
L 278.187961 13.667009 
L 271.314959 11.76274 
L 266.327514 10.577088 
L 260.16963 9.334826 
L 251.967781 8.051789 
L 243.127292 7.13403 
L 235.351205 6.719494 
L 230.823547 6.646154 
L 224.631958 6.745631 
L 218.597814 7.065042 
L 210.985927 7.783275 
L 205.047286 8.590644 
L 198.354804 9.764321 
L 190.299719 11.5562 
L 185.420382 12.848531 
L 179.669156 14.578409 
L 173.708481 16.614798 
L 169.168153 18.338193 
L 163.729417 20.606453 
L 159.867769 22.357036 
L 152.507165 26.03262 
L 148.804418 28.058306 
L 141.61721 32.351816 
L 133.877002 37.554015 
L 128.54794 41.520193 
L 120.915832 47.813829 
L 114.823196 53.424923 
L 112.239761 55.981338 
L 106.076851 62.562601 
L 101.269537 68.234589 
L 98.830654 71.320213 
L 93.006457 79.35617 
L 88.377429 86.553808 
L 84.893196 92.571254 
L 81.095205 99.881991 
L 79.047605 104.232849 
L 75.906958 111.636497 
L 74.132347 116.323997 
L 72.684941 120.501652 
L 70.329072 128.229561 
L 68.663869 134.71187 
L 67.258373 141.269923 
L 66.499709 145.485812 
L 65.808738 150.015742 
L 65.135796 155.560769 
L 64.532107 162.933647 
L 64.257782 170.286405 
L 64.245681 174.324663 
L 64.456314 181.304199 
L 64.942056 188.075471 
L 65.791541 195.466514 
L 66.437566 199.745511 
L 68.035844 208.122329 
L 68.503748 210.208564 
L 70.324934 217.362387 
L 72.359595 224.113696 
L 73.589471 227.757612 
L 75.5053 232.945949 
L 78.848402 240.932574 
L 80.626929 244.75815 
L 83.846586 251.107507 
L 87.304022 257.260214 
L 89.688581 261.175865 
L 93.302176 266.683949 
L 96.97214 271.830424 
L 101.603564 277.783357 
L 105.177682 282.021802 
L 108.337362 285.541941 
L 112.073002 289.456569 
L 118.862394 295.96409 
L 124.118126 300.527007 
L 127.028301 302.893477 
L 131.976173 306.675923 
L 135.531483 309.218362 
L 140.727987 312.688965 
L 147.707492 316.924674 
L 157.521227 322.127238 
L 164.696131 325.420162 
L 167.846242 326.738061 
L 175.906233 329.772268 
L 180.26774 331.219064 
L 186.802645 333.140517 
L 193.401171 334.790317 
L 201.588477 336.444818 
L 209.248801 337.609926 
L 214.730082 338.220992 
L 218.953501 338.566708 
L 226.979242 338.926063 
L 231.960547 338.953846 
L 242.935038 338.487444 
L 250.164328 337.781128 
L 258.398177 336.58473 
L 266.15773 335.067236 
L 271.248597 333.860919 
L 280.250931 331.305622 
L 286.976039 329.031357 
L 293.002968 326.715223 
L 300.537974 323.430731 
L 302.939443 322.288987 
L 309.762547 318.780967 
L 316.652787 314.818444 
L 322.251945 311.26277 
L 326.332582 308.467279 
L 330.130079 305.700478 
L 335.172992 301.761948 
L 342.006066 295.895744 
L 345.960018 292.191397 
L 349.585017 288.572645 
L 353.876519 283.983909 
L 357.335261 280.018006 
L 363.11853 272.769812 
L 366.548358 268.045684 
L 370.361072 262.348582 
L 375.274288 254.159701 
L 377.580502 249.909111 
L 379.580732 245.964087 
L 381.717196 241.436249 
L 383.763424 236.73311 
L 385.8873 231.378414 
L 388.283037 224.574653 
L 390.662863 216.656725 
L 392.345983 209.962332 
L 393.199853 206.02221 
L 394.205991 200.639921 
L 395.354586 192.734552 
L 396.112403 184.913752 
L 396.503401 176.91661 
L 396.554319 172.803406 
L 396.554319 172.803406 
" clip-path="url(#p4812051e15)" style="fill: none; stroke: #0000ff; stroke-linecap: square"/>
   </g>
   <g id="patch_3">
    <path d="M 230.396518 345.6 
L 230.396518 0 
" style="fill: none; stroke: #000000; stroke-width: 0.8; stroke-linejoin: miter; stroke-linecap: square"/>
   </g>
   <g id="patch_4">
    <path d="M 57.599508 172.803406 
L 403.200492 172.803406 
" style="fill: none; stroke: #000000; stroke-width: 0.8; stroke-linejoin: miter; stroke-linecap: square"/>
   </g>
  </g>
 </g>
 <defs>
  <clipPath id="p4812051e15">
   <rect x="57.599508" y="0" width="345.600984" height="345.6"/>
  </clipPath>
 </defs>
</svg>
