<?xml version="1.0" encoding="utf-8" standalone="no"?>
<!DOCTYPE svg PUBLIC "-//W3C//DTD SVG 1.1//EN"
  "http://www.w3.org/Graphics/SVG/1.1/DTD/svg11.dtd">
<svg xmlns:xlink="http://www.w3.org/1999/xlink" width="460.8pt" height="345.6pt" viewBox="0 0 460.8 345.6" xmlns="http://www.w3.org/2000/svg" version="1.1">
 <metadata>
  <rdf:RDF xmlns:dc="http://purl.org/dc/elements/1.1/" xmlns:cc="http://creativecommons.org/ns#" xmlns:rdf="http://www.w3.org/1999/02/22-rdf-syntax-ns#">
   <cc:Work>
    <dc:type rdf:resource="http://purl.org/dc/dcmitype/StillImage"/>
    <dc:date>2025-08-01T20:14:03.038103</dc:date>
    <dc:format>image/svg+xml</dc:format>
    <dc:creator>
     <cc:Agent>
      <dc:title>Matplotlib v3.10.3, https://matplotlib.org/</dc:title>
     </cc:Agent>
    </dc:creator>
   </cc:Work>
  </rdf:RDF>
 </metadata>
 <defs>
  <style type="text/css">*{stroke-linejoin: round; stroke-linecap: butt}</style>
 </defs>
 <g id="figure_1">
  <g id="patch_1">
   <path d="M 0 345.6 
L 460.8 345.6 
L 460.8 0 
L 0 0 
z
" style="fill: #ffffff"/>
  </g>
  <g id="axes_1">
   <g id="patch_2">
    <path d="M 48.648263 345.6 
L 412.151737 345.6 
L 412.151737 0 
L 48.648263 0 
z
" style="fill: #ffffff"/>
   </g>
   <g id="matplotlib.axis_1">
    <g id="xtick_1">
     <g id="line2d_1">
      <defs>
       <path id="mf521b594dc" d="M 0 0 
L 0 3.5 
" style="stroke: #000000; stroke-width: 0.8"/>
      </defs>
      <g>
       <use xlink:href="#mf521b594dc" x="70.34203" y="159.962641" style="stroke: #000000; stroke-width: 0.8"/>
      </g>
     </g>
     <g id="text_1">
      <!-- −2 -->
      <g transform="translate(62.970937 174.561078) scale(0.1 -0.1)">
       <defs>
        <path id="DejaVuSans-2212" d="M 678 2272 
L 4684 2272 
L 4684 1741 
L 678 1741 
L 678 2272 
z
" transform="scale(0.015625)"/>
        <path id="DejaVuSans-32" d="M 1228 531 
L 3431 531 
L 3431 0 
L 469 0 
L 469 531 
Q 828 903 1448 1529 
Q 2069 2156 2228 2338 
Q 2531 2678 2651 2914 
Q 2772 3150 2772 3378 
Q 2772 3750 2511 3984 
Q 2250 4219 1831 4219 
Q 1534 4219 1204 4116 
Q 875 4013 500 3803 
L 500 4441 
Q 881 4594 1212 4672 
Q 1544 4750 1819 4750 
Q 2544 4750 2975 4387 
Q 3406 4025 3406 3419 
Q 3406 3131 3298 2873 
Q 3191 2616 2906 2266 
Q 2828 2175 2409 1742 
Q 1991 1309 1228 531 
z
" transform="scale(0.015625)"/>
       </defs>
       <use xlink:href="#DejaVuSans-2212"/>
       <use xlink:href="#DejaVuSans-32" transform="translate(83.789062 0)"/>
      </g>
     </g>
    </g>
    <g id="xtick_2">
     <g id="line2d_2">
      <g>
       <use xlink:href="#mf521b594dc" x="144.996707" y="159.962641" style="stroke: #000000; stroke-width: 0.8"/>
      </g>
     </g>
     <g id="text_2">
      <!-- −1 -->
      <g transform="translate(137.625613 174.561078) scale(0.1 -0.1)">
       <defs>
        <path id="DejaVuSans-31" d="M 794 531 
L 1825 531 
L 1825 4091 
L 703 3866 
L 703 4441 
L 1819 4666 
L 2450 4666 
L 2450 531 
L 3481 531 
L 3481 0 
L 794 0 
L 794 531 
z
" transform="scale(0.015625)"/>
       </defs>
       <use xlink:href="#DejaVuSans-2212"/>
       <use xlink:href="#DejaVuSans-31" transform="translate(83.789062 0)"/>
      </g>
     </g>
    </g>
    <g id="xtick_3">
     <g id="line2d_3">
      <g>
       <use xlink:href="#mf521b594dc" x="219.651383" y="159.962641" style="stroke: #000000; stroke-width: 0.8"/>
      </g>
     </g>
    </g>
    <g id="xtick_4">
     <g id="line2d_4">
      <g>
       <use xlink:href="#mf521b594dc" x="294.30606" y="159.962641" style="stroke: #000000; stroke-width: 0.8"/>
      </g>
     </g>
     <g id="text_3">
      <!-- 1 -->
      <g transform="translate(291.12481 174.561078) scale(0.1 -0.1)">
       <use xlink:href="#DejaVuSans-31"/>
      </g>
     </g>
    </g>
    <g id="xtick_5">
     <g id="line2d_5">
      <g>
       <use xlink:href="#mf521b594dc" x="368.960736" y="159.962641" style="stroke: #000000; stroke-width: 0.8"/>
      </g>
     </g>
     <g id="text_4">
      <!-- 2 -->
      <g transform="translate(365.779486 174.561078) scale(0.1 -0.1)">
       <use xlink:href="#DejaVuSans-32"/>
      </g>
     </g>
    </g>
    <g id="xtick_6">
     <g id="line2d_6">
      <defs>
       <path id="md0ee11ad5c" d="M 0 0 
L 0 2 
" style="stroke: #000000; stroke-width: 0.6"/>
      </defs>
      <g>
       <use xlink:href="#md0ee11ad5c" x="55.411095" y="159.962641" style="stroke: #000000; stroke-width: 0.6"/>
      </g>
     </g>
    </g>
    <g id="xtick_7">
     <g id="line2d_7">
      <g>
       <use xlink:href="#md0ee11ad5c" x="85.272966" y="159.962641" style="stroke: #000000; stroke-width: 0.6"/>
      </g>
     </g>
    </g>
    <g id="xtick_8">
     <g id="line2d_8">
      <g>
       <use xlink:href="#md0ee11ad5c" x="100.203901" y="159.962641" style="stroke: #000000; stroke-width: 0.6"/>
      </g>
     </g>
    </g>
    <g id="xtick_9">
     <g id="line2d_9">
      <g>
       <use xlink:href="#md0ee11ad5c" x="115.134836" y="159.962641" style="stroke: #000000; stroke-width: 0.6"/>
      </g>
     </g>
    </g>
    <g id="xtick_10">
     <g id="line2d_10">
      <g>
       <use xlink:href="#md0ee11ad5c" x="130.065772" y="159.962641" style="stroke: #000000; stroke-width: 0.6"/>
      </g>
     </g>
    </g>
    <g id="xtick_11">
     <g id="line2d_11">
      <g>
       <use xlink:href="#md0ee11ad5c" x="159.927642" y="159.962641" style="stroke: #000000; stroke-width: 0.6"/>
      </g>
     </g>
    </g>
    <g id="xtick_12">
     <g id="line2d_12">
      <g>
       <use xlink:href="#md0ee11ad5c" x="174.858578" y="159.962641" style="stroke: #000000; stroke-width: 0.6"/>
      </g>
     </g>
    </g>
    <g id="xtick_13">
     <g id="line2d_13">
      <g>
       <use xlink:href="#md0ee11ad5c" x="189.789513" y="159.962641" style="stroke: #000000; stroke-width: 0.6"/>
      </g>
     </g>
    </g>
    <g id="xtick_14">
     <g id="line2d_14">
      <g>
       <use xlink:href="#md0ee11ad5c" x="204.720448" y="159.962641" style="stroke: #000000; stroke-width: 0.6"/>
      </g>
     </g>
    </g>
    <g id="xtick_15">
     <g id="line2d_15">
      <g>
       <use xlink:href="#md0ee11ad5c" x="234.582319" y="159.962641" style="stroke: #000000; stroke-width: 0.6"/>
      </g>
     </g>
    </g>
    <g id="xtick_16">
     <g id="line2d_16">
      <g>
       <use xlink:href="#md0ee11ad5c" x="249.513254" y="159.962641" style="stroke: #000000; stroke-width: 0.6"/>
      </g>
     </g>
    </g>
    <g id="xtick_17">
     <g id="line2d_17">
      <g>
       <use xlink:href="#md0ee11ad5c" x="264.444189" y="159.962641" style="stroke: #000000; stroke-width: 0.6"/>
      </g>
     </g>
    </g>
    <g id="xtick_18">
     <g id="line2d_18">
      <g>
       <use xlink:href="#md0ee11ad5c" x="279.375125" y="159.962641" style="stroke: #000000; stroke-width: 0.6"/>
      </g>
     </g>
    </g>
    <g id="xtick_19">
     <g id="line2d_19">
      <g>
       <use xlink:href="#md0ee11ad5c" x="309.236995" y="159.962641" style="stroke: #000000; stroke-width: 0.6"/>
      </g>
     </g>
    </g>
    <g id="xtick_20">
     <g id="line2d_20">
      <g>
       <use xlink:href="#md0ee11ad5c" x="324.16793" y="159.962641" style="stroke: #000000; stroke-width: 0.6"/>
      </g>
     </g>
    </g>
    <g id="xtick_21">
     <g id="line2d_21">
      <g>
       <use xlink:href="#md0ee11ad5c" x="339.098866" y="159.962641" style="stroke: #000000; stroke-width: 0.6"/>
      </g>
     </g>
    </g>
    <g id="xtick_22">
     <g id="line2d_22">
      <g>
       <use xlink:href="#md0ee11ad5c" x="354.029801" y="159.962641" style="stroke: #000000; stroke-width: 0.6"/>
      </g>
     </g>
    </g>
    <g id="xtick_23">
     <g id="line2d_23">
      <g>
       <use xlink:href="#md0ee11ad5c" x="383.891672" y="159.962641" style="stroke: #000000; stroke-width: 0.6"/>
      </g>
     </g>
    </g>
    <g id="xtick_24">
     <g id="line2d_24">
      <g>
       <use xlink:href="#md0ee11ad5c" x="398.822607" y="159.962641" style="stroke: #000000; stroke-width: 0.6"/>
      </g>
     </g>
    </g>
   </g>
   <g id="matplotlib.axis_2">
    <g id="ytick_1">
     <g id="line2d_25">
      <defs>
       <path id="mb505ada489" d="M 0 0 
L -3.5 0 
" style="stroke: #000000; stroke-width: 0.8"/>
      </defs>
      <g>
       <use xlink:href="#mb505ada489" x="219.651383" y="309.271994" style="stroke: #000000; stroke-width: 0.8"/>
      </g>
     </g>
     <g id="text_5">
      <!-- −2 -->
      <g transform="translate(197.909196 313.071213) scale(0.1 -0.1)">
       <use xlink:href="#DejaVuSans-2212"/>
       <use xlink:href="#DejaVuSans-32" transform="translate(83.789062 0)"/>
      </g>
     </g>
    </g>
    <g id="ytick_2">
     <g id="line2d_26">
      <g>
       <use xlink:href="#mb505ada489" x="219.651383" y="234.617317" style="stroke: #000000; stroke-width: 0.8"/>
      </g>
     </g>
     <g id="text_6">
      <!-- −1 -->
      <g transform="translate(197.909196 238.416536) scale(0.1 -0.1)">
       <use xlink:href="#DejaVuSans-2212"/>
       <use xlink:href="#DejaVuSans-31" transform="translate(83.789062 0)"/>
      </g>
     </g>
    </g>
    <g id="ytick_3">
     <g id="line2d_27">
      <g>
       <use xlink:href="#mb505ada489" x="219.651383" y="159.962641" style="stroke: #000000; stroke-width: 0.8"/>
      </g>
     </g>
    </g>
    <g id="ytick_4">
     <g id="line2d_28">
      <g>
       <use xlink:href="#mb505ada489" x="219.651383" y="85.307965" style="stroke: #000000; stroke-width: 0.8"/>
      </g>
     </g>
     <g id="text_7">
      <!-- 1 -->
      <g transform="translate(206.288883 89.107183) scale(0.1 -0.1)">
       <use xlink:href="#DejaVuSans-31"/>
      </g>
     </g>
    </g>
    <g id="ytick_5">
     <g id="line2d_29">
      <g>
       <use xlink:href="#mb505ada489" x="219.651383" y="10.653288" style="stroke: #000000; stroke-width: 0.8"/>
      </g>
     </g>
     <g id="text_8">
      <!-- 2 -->
      <g transform="translate(206.288883 14.452507) scale(0.1 -0.1)">
       <use xlink:href="#DejaVuSans-32"/>
      </g>
     </g>
    </g>
    <g id="ytick_6">
     <g id="line2d_30">
      <defs>
       <path id="m21ef6a9891" d="M 0 0 
L -2 0 
" style="stroke: #000000; stroke-width: 0.6"/>
      </defs>
      <g>
       <use xlink:href="#m21ef6a9891" x="219.651383" y="339.133865" style="stroke: #000000; stroke-width: 0.6"/>
      </g>
     </g>
    </g>
    <g id="ytick_7">
     <g id="line2d_31">
      <g>
       <use xlink:href="#m21ef6a9891" x="219.651383" y="324.202929" style="stroke: #000000; stroke-width: 0.6"/>
      </g>
     </g>
    </g>
    <g id="ytick_8">
     <g id="line2d_32">
      <g>
       <use xlink:href="#m21ef6a9891" x="219.651383" y="294.341059" style="stroke: #000000; stroke-width: 0.6"/>
      </g>
     </g>
    </g>
    <g id="ytick_9">
     <g id="line2d_33">
      <g>
       <use xlink:href="#m21ef6a9891" x="219.651383" y="279.410123" style="stroke: #000000; stroke-width: 0.6"/>
      </g>
     </g>
    </g>
    <g id="ytick_10">
     <g id="line2d_34">
      <g>
       <use xlink:href="#m21ef6a9891" x="219.651383" y="264.479188" style="stroke: #000000; stroke-width: 0.6"/>
      </g>
     </g>
    </g>
    <g id="ytick_11">
     <g id="line2d_35">
      <g>
       <use xlink:href="#m21ef6a9891" x="219.651383" y="249.548253" style="stroke: #000000; stroke-width: 0.6"/>
      </g>
     </g>
    </g>
    <g id="ytick_12">
     <g id="line2d_36">
      <g>
       <use xlink:href="#m21ef6a9891" x="219.651383" y="219.686382" style="stroke: #000000; stroke-width: 0.6"/>
      </g>
     </g>
    </g>
    <g id="ytick_13">
     <g id="line2d_37">
      <g>
       <use xlink:href="#m21ef6a9891" x="219.651383" y="204.755447" style="stroke: #000000; stroke-width: 0.6"/>
      </g>
     </g>
    </g>
    <g id="ytick_14">
     <g id="line2d_38">
      <g>
       <use xlink:href="#m21ef6a9891" x="219.651383" y="189.824512" style="stroke: #000000; stroke-width: 0.6"/>
      </g>
     </g>
    </g>
    <g id="ytick_15">
     <g id="line2d_39">
      <g>
       <use xlink:href="#m21ef6a9891" x="219.651383" y="174.893576" style="stroke: #000000; stroke-width: 0.6"/>
      </g>
     </g>
    </g>
    <g id="ytick_16">
     <g id="line2d_40">
      <g>
       <use xlink:href="#m21ef6a9891" x="219.651383" y="145.031706" style="stroke: #000000; stroke-width: 0.6"/>
      </g>
     </g>
    </g>
    <g id="ytick_17">
     <g id="line2d_41">
      <g>
       <use xlink:href="#m21ef6a9891" x="219.651383" y="130.10077" style="stroke: #000000; stroke-width: 0.6"/>
      </g>
     </g>
    </g>
    <g id="ytick_18">
     <g id="line2d_42">
      <g>
       <use xlink:href="#m21ef6a9891" x="219.651383" y="115.169835" style="stroke: #000000; stroke-width: 0.6"/>
      </g>
     </g>
    </g>
    <g id="ytick_19">
     <g id="line2d_43">
      <g>
       <use xlink:href="#m21ef6a9891" x="219.651383" y="100.2389" style="stroke: #000000; stroke-width: 0.6"/>
      </g>
     </g>
    </g>
    <g id="ytick_20">
     <g id="line2d_44">
      <g>
       <use xlink:href="#m21ef6a9891" x="219.651383" y="70.377029" style="stroke: #000000; stroke-width: 0.6"/>
      </g>
     </g>
    </g>
    <g id="ytick_21">
     <g id="line2d_45">
      <g>
       <use xlink:href="#m21ef6a9891" x="219.651383" y="55.446094" style="stroke: #000000; stroke-width: 0.6"/>
      </g>
     </g>
    </g>
    <g id="ytick_22">
     <g id="line2d_46">
      <g>
       <use xlink:href="#m21ef6a9891" x="219.651383" y="40.515159" style="stroke: #000000; stroke-width: 0.6"/>
      </g>
     </g>
    </g>
    <g id="ytick_23">
     <g id="line2d_47">
      <g>
       <use xlink:href="#m21ef6a9891" x="219.651383" y="25.584223" style="stroke: #000000; stroke-width: 0.6"/>
      </g>
     </g>
    </g>
   </g>
   <g id="line2d_48">
    <path d="M 219.651383 159.962641 
L 219.651383 159.962641 
L 219.651383 159.962641 
L 219.651383 159.962641 
L 219.651383 159.962641 
L 219.651383 159.962641 
L 219.651383 159.962641 
L 219.651383 159.962641 
L 219.651383 159.962641 
L 219.651383 159.962641 
L 219.651383 159.962641 
L 219.651383 159.962641 
L 219.651383 159.962641 
L 219.651383 159.962641 
L 219.651383 159.962641 
L 219.651383 159.962641 
L 219.651383 159.962641 
L 219.651383 159.962641 
L 219.651383 159.962641 
L 219.651383 159.962641 
L 219.651383 159.962641 
L 219.651383 159.962641 
L 219.651383 159.962641 
" clip-path="url(#p3b78f4af1a)" style="fill: none; stroke: #0000ff; stroke-linecap: square"/>
   </g>
   <g id="line2d_49">
    <path d="M 197.574386 113.161734 
L 196.238339 113.815614 
L 194.609012 114.679108 
L 191.483629 116.554159 
L 188.726572 118.473187 
L 185.829088 120.799252 
L 184.676174 121.825344 
L 180.807558 125.773813 
L 180.321074 126.334595 
L 177.821149 129.500366 
L 176.113171 131.995825 
L 175.002073 133.80623 
L 172.759678 138.079162 
L 171.639234 140.661027 
L 170.631956 143.385111 
L 169.557115 146.990249 
L 169.46814 147.338823 
L 168.510448 152.068119 
L 168.493801 152.176724 
L 168.453612 152.445529 
L 168.434048 152.580009 
" clip-path="url(#p3b78f4af1a)" style="fill: none; stroke: #0000ff; stroke-linecap: square"/>
   </g>
   <g id="line2d_50">
    <path d="M 138.443377 148.474673 
L 138.327182 149.328359 
L 138.231628 150.086553 
L 137.739949 155.811667 
L 137.665814 162.216542 
L 137.790205 165.008538 
L 138.060162 168.304476 
L 138.757667 173.487443 
L 139.928317 179.222606 
L 141.069018 183.447221 
L 142.320252 187.286803 
L 144.494401 192.797709 
L 147.013783 198.047974 
L 148.07415 200.005284 
L 151.71301 205.909252 
L 155.19277 210.675566 
L 158.711871 214.854257 
L 159.889948 216.13456 
L 162.697832 218.979644 
L 165.327466 221.40876 
L 165.683726 221.721896 
L 165.862534 221.877691 
L 165.952107 221.955393 
" clip-path="url(#p3b78f4af1a)" style="fill: none; stroke: #0000ff; stroke-linecap: square"/>
   </g>
   <g id="line2d_51">
    <path d="M 152.91404 239.063855 
L 153.69268 239.714283 
L 160.400201 244.81647 
L 162.612213 246.318926 
L 171.179275 251.402947 
L 176.292205 253.935278 
L 180.214065 255.647399 
L 183.44319 256.915422 
L 188.674158 258.711243 
L 195.877567 260.68841 
L 204.539325 262.346725 
L 206.634895 262.634185 
L 216.604685 263.411143 
L 220.679381 263.450892 
L 228.017801 263.117273 
L 231.944537 262.723301 
L 238.009904 261.814689 
L 246.679019 259.864502 
L 247.858724 259.537843 
L 248.657229 259.308179 
L 248.856565 259.249761 
L 248.956189 259.220403 
" clip-path="url(#p3b78f4af1a)" style="fill: none; stroke: #0000ff; stroke-linecap: square"/>
   </g>
   <g id="line2d_52">
    <path d="M 254.250993 275.025172 
L 255.064311 274.777464 
L 261.917667 272.435217 
L 267.12627 270.337703 
L 271.98613 268.118054 
L 277.940065 265.029042 
L 285.90312 260.198495 
L 290.13336 257.270452 
L 295.121097 253.455109 
L 302.91094 246.590382 
L 305.487311 244.038278 
L 311.181812 237.800291 
L 315.162318 232.861067 
L 320.961149 224.560246 
L 324.271791 219.048083 
L 327.953616 211.992877 
L 329.979516 207.546485 
L 331.784258 203.122084 
L 334.621809 194.867086 
L 334.967804 193.706413 
L 334.995294 193.612328 
" clip-path="url(#p3b78f4af1a)" style="fill: none; stroke: #0000ff; stroke-linecap: square"/>
   </g>
   <g id="line2d_53">
    <path d="M 348.153067 197.109879 
L 348.273599 196.690362 
L 348.510554 195.85016 
L 350.050328 189.773966 
L 351.597304 181.937036 
L 352.125993 178.484999 
L 353.20103 167.518555 
L 353.413642 159.454479 
L 353.055234 150.164035 
L 352.35573 143.165128 
L 351.468774 137.229942 
L 349.403229 127.450203 
L 346.894727 118.710594 
L 344.671644 112.396536 
L 342.778996 107.692277 
L 338.324825 98.243809 
L 334.090411 90.707252 
L 331.938027 87.269384 
L 327.107941 80.302813 
L 321.918612 73.741914 
L 321.505471 73.254252 
L 321.00232 72.666664 
L 320.749472 72.373964 
L 320.622731 72.227888 
" clip-path="url(#p3b78f4af1a)" style="fill: none; stroke: #0000ff; stroke-linecap: square"/>
   </g>
   <g id="line2d_54">
    <path d="M 328.060528 63.261008 
L 324.893612 59.823628 
L 316.544687 51.724773 
L 314.125261 49.606695 
L 309.148324 45.533422 
L 300.894853 39.533213 
L 293.677615 34.967179 
L 286.727715 31.104137 
L 275.258489 25.755345 
L 270.413722 23.848963 
L 263.142773 21.354389 
L 253.336666 18.650751 
L 240.888904 16.252112 
L 233.047065 15.310285 
L 231.623192 15.185487 
L 214.956475 14.767234 
L 212.772156 14.85432 
L 201.971322 15.771227 
L 200.178163 16.002431 
L 199.345945 16.117455 
L 198.930088 16.176771 
L 198.722225 16.20688 
" clip-path="url(#p3b78f4af1a)" style="fill: none; stroke: #0000ff; stroke-linecap: square"/>
   </g>
   <g id="line2d_55">
    <path d="M 195.289048 6.646154 
L 193.810649 6.888394 
L 185.193103 8.595222 
L 172.633128 12.014162 
L 166.392292 14.144474 
L 159.232784 16.962426 
L 145.643596 23.499034 
L 138.67666 27.514301 
L 136.818607 28.668316 
L 124.878398 37.009195 
L 116.584998 43.873068 
L 114.146041 46.085113 
L 108.728256 51.35542 
L 99.809267 61.284701 
L 96.333475 65.66438 
L 91.0901 72.948475 
L 84.168796 84.173875 
L 80.881325 90.375721 
L 78.956919 94.353676 
L 78.466341 95.416128 
" clip-path="url(#p3b78f4af1a)" style="fill: none; stroke: #0000ff; stroke-linecap: square"/>
   </g>
   <g id="line2d_56">
    <path d="M 70.149709 92.463723 
L 70.086172 92.604626 
L 69.959496 92.886613 
L 69.423987 94.094714 
L 64.195395 107.614859 
L 62.518423 112.887305 
L 60.80411 119.043228 
L 58.901968 127.305633 
L 57.274135 136.714336 
L 55.740509 153.631786 
L 55.638715 157.374384 
L 55.898786 169.551247 
L 56.718907 178.932689 
L 58.747733 191.851037 
L 61.182117 202.322364 
L 63.483041 210.145342 
L 64.298862 212.616689 
L 67.925315 222.300871 
L 72.540596 232.524826 
L 76.57692 240.19077 
L 80.992964 247.602228 
L 81.708224 248.723778 
L 81.888459 249.003256 
" clip-path="url(#p3b78f4af1a)" style="fill: none; stroke: #0000ff; stroke-linecap: square"/>
   </g>
   <g id="line2d_57">
    <path d="M 75.471971 253.565396 
L 75.852689 254.149233 
L 76.507311 255.141174 
L 81.739966 262.576575 
L 86.256628 268.383201 
L 97.523115 280.933153 
L 101.00985 284.354622 
L 109.23954 291.713935 
L 120.03455 300.054272 
L 125.916634 304.056275 
L 134.204934 309.120553 
L 142.479398 313.56493 
L 149.806292 317.032185 
L 158.407177 320.581213 
L 174.252295 325.758001 
L 178.262469 326.804292 
L 189.98426 329.281985 
L 197.378801 330.412372 
L 211.909395 331.686956 
L 217.749897 331.850869 
L 218.423924 331.857004 
L 219.418036 331.861228 
L 219.915097 331.861184 
L 220.163626 331.860623 
" clip-path="url(#p3b78f4af1a)" style="fill: none; stroke: #0000ff; stroke-linecap: square"/>
   </g>
   <g id="line2d_58">
    <path d="M 222.51407 338.953846 
L 231.917536 338.556 
L 239.910108 337.82672 
L 250.289928 336.335332 
L 265.07003 333.119197 
L 270.284039 331.666982 
L 282.838767 327.454137 
L 291.208454 324.052958 
L 300.998773 319.426269 
L 312.655346 312.921163 
L 319.042866 308.849779 
L 323.489814 305.78317 
L 337.653668 294.578789 
L 341.635965 290.980992 
L 349.110367 283.600896 
L 357.746524 273.873917 
L 361.688622 268.918914 
L 368.168235 259.906581 
L 369.59206 257.757529 
L 370.155115 256.888764 
L 370.434756 256.453164 
L 370.574104 256.235061 
" clip-path="url(#p3b78f4af1a)" style="fill: none; stroke: #0000ff; stroke-linecap: square"/>
   </g>
   <g id="line2d_59">
    <path d="M 377.335464 257.684975 
L 382.191685 249.375023 
L 384.418434 245.201967 
L 389.901881 233.642297 
L 393.047273 225.90041 
L 398.010446 210.972136 
L 399.265914 206.35816 
L 402.338144 192.203476 
L 404.078182 179.979628 
L 404.80521 171.451073 
L 405.161285 159.962641 
" clip-path="url(#p3b78f4af1a)" style="fill: none; stroke: #0000ff; stroke-linecap: square"/>
   </g>
   <g id="patch_3">
    <path d="M 219.651383 345.6 
L 219.651383 0 
" style="fill: none; stroke: #000000; stroke-width: 0.8; stroke-linejoin: miter; stroke-linecap: square"/>
   </g>
   <g id="patch_4">
    <path d="M 48.648263 159.962641 
L 412.151737 159.962641 
" style="fill: none; stroke: #000000; stroke-width: 0.8; stroke-linejoin: miter; stroke-linecap: square"/>
   </g>
  </g>
 </g>
 <defs>
  <clipPath id="p3b78f4af1a">
   <rect x="48.648263" y="0" width="363.503474" height="345.6"/>
  </clipPath>
 </defs>
</svg>
