<?xml version="1.0" encoding="utf-8" standalone="no"?>
<!DOCTYPE svg PUBLIC "-//W3C//DTD SVG 1.1//EN"
  "http://www.w3.org/Graphics/SVG/1.1/DTD/svg11.dtd">
<svg xmlns:xlink="http://www.w3.org/1999/xlink" width="460.8pt" height="345.6pt" viewBox="0 0 460.8 345.6" xmlns="http://www.w3.org/2000/svg" version="1.1">
 <metadata>
  <rdf:RDF xmlns:dc="http://purl.org/dc/elements/1.1/" xmlns:cc="http://creativecommons.org/ns#" xmlns:rdf="http://www.w3.org/1999/02/22-rdf-syntax-ns#">
   <cc:Work>
    <dc:type rdf:resource="http://purl.org/dc/dcmitype/StillImage"/>
    <dc:date>2025-08-02T16:01:10.161906</dc:date>
    <dc:format>image/svg+xml</dc:format>
    <dc:creator>
     <cc:Agent>
      <dc:title>Matplotlib v3.10.3, https://matplotlib.org/</dc:title>
     </cc:Agent>
    </dc:creator>
   </cc:Work>
  </rdf:RDF>
 </metadata>
 <defs>
  <style type="text/css">*{stroke-linejoin: round; stroke-linecap: butt}</style>
 </defs>
 <g id="figure_1">
  <g id="patch_1">
   <path d="M 0 345.6 
L 460.8 345.6 
L 460.8 0 
L 0 0 
z
" style="fill: #ffffff"/>
  </g>
  <g id="axes_1">
   <g id="patch_2">
    <path d="M 0 345.6 
L 460.8 345.6 
L 460.8 0 
L 0 0 
z
" style="fill: #ffffff"/>
   </g>
   <g id="PathCollection_1">
    <defs>
     <path id="C0_0_d30bafe9ef" d="M 0 2.236068 
C 0.593012 2.236068 1.161816 2.000462 1.581139 1.581139 
C 2.000462 1.161816 2.236068 0.593012 2.236068 -0 
C 2.236068 -0.593012 2.000462 -1.161816 1.581139 -1.581139 
C 1.161816 -2.000462 0.593012 -2.236068 0 -2.236068 
C -0.593012 -2.236068 -1.161816 -2.000462 -1.581139 -1.581139 
C -2.000462 -1.161816 -2.236068 -0.593012 -2.236068 0 
C -2.236068 0.593012 -2.000462 1.161816 -1.581139 1.581139 
C -1.161816 2.000462 -0.593012 2.236068 0 2.236068 
z
"/>
    </defs>
    <g clip-path="url(#pc169b5a994)">
     <use xlink:href="#C0_0_d30bafe9ef" x="125.460729" y="338.953846" style="fill: #ff0000"/>
    </g>
    <g clip-path="url(#pc169b5a994)">
     <use xlink:href="#C0_0_d30bafe9ef" x="242.059919" y="255.876923" style="fill: #ff0000"/>
    </g>
    <g clip-path="url(#pc169b5a994)">
     <use xlink:href="#C0_0_d30bafe9ef" x="242.059919" y="297.415385" style="fill: #ff0000"/>
    </g>
    <g clip-path="url(#pc169b5a994)">
     <use xlink:href="#C0_0_d30bafe9ef" x="358.659109" y="172.8" style="fill: #ff0000"/>
    </g>
   </g>
   <g id="matplotlib.axis_1"/>
   <g id="matplotlib.axis_2"/>
   <g id="line2d_1">
    <path d="M 8.861538 297.415385 
L 15.610656 302.084958 
L 23.527798 307.207894 
L 29.824669 311.008938 
L 37.429986 315.27677 
L 44.322772 318.839428 
L 48.017548 320.629618 
L 55.377281 323.946972 
L 61.29778 326.375372 
L 69.59384 329.417801 
L 75.333213 331.27649 
L 79.222936 332.421736 
L 87.36783 334.520339 
L 90.608937 335.242687 
L 97.065455 336.490352 
L 103.985909 337.544822 
L 110.862536 338.302731 
L 118.475013 338.804745 
L 121.689126 338.910384 
L 129.636883 338.90056 
L 135.320333 338.656831 
L 141.947 338.123414 
L 148.675752 337.30721 
L 152.581149 336.706592 
L 158.6523 335.58784 
L 164.487486 334.300297 
L 171.318551 332.528653 
L 178.67187 330.302883 
L 184.229992 328.401237 
L 190.926812 325.859251 
L 197.973369 322.888623 
L 204.970816 319.638442 
L 210.976942 316.610086 
L 217.703334 312.956892 
L 224.306152 309.101913 
L 231.584086 304.544113 
L 237.884254 300.337273 
L 244.064002 295.975204 
L 252.279922 289.814507 
L 257.685885 285.535859 
L 263.840423 280.447352 
L 272.153241 273.206953 
L 279.552168 266.407363 
L 288.065503 258.16974 
L 293.25738 252.928601 
L 301.518732 244.249288 
L 309.012275 236.015916 
L 315.487115 228.625488 
L 322.210326 220.680456 
L 328.722491 212.721483 
L 337.562258 201.503151 
L 346.242783 190.022238 
L 354.848828 178.185292 
L 362.262241 167.625872 
L 370.953088 154.819291 
L 379.92309 141.117334 
L 387.144565 129.729059 
L 395.649946 115.907371 
L 404.662064 100.779862 
L 415.041484 82.74228 
L 422.857673 68.724605 
L 431.886998 52.066545 
L 440.39698 35.910574 
L 449.832432 17.480285 
L 451.938462 13.292308 
L 451.938462 13.292308 
" clip-path="url(#pc169b5a994)" style="fill: none; stroke: #0000ff; stroke-linecap: square"/>
   </g>
   <g id="line2d_2">
    <path d="M 125.460729 338.953846 
L 358.659109 172.8 
" clip-path="url(#pc169b5a994)" style="fill: none; stroke: #008000; stroke-linecap: square"/>
   </g>
   <g id="line2d_3">
    <path d="M 242.059919 255.876923 
L 242.059919 297.415385 
" clip-path="url(#pc169b5a994)" style="fill: none; stroke: #800080; stroke-linecap: square"/>
   </g>
   <g id="text_1">
    <!-- A -->
    <g style="fill: #ff0000" transform="translate(110.380497 325.097837) scale(0.1 -0.1)">
     <defs>
      <path id="DejaVuSans-41" d="M 2188 4044 
L 1331 1722 
L 3047 1722 
L 2188 4044 
z
M 1831 4666 
L 2547 4666 
L 4325 0 
L 3669 0 
L 3244 1197 
L 1141 1197 
L 716 0 
L 50 0 
L 1831 4666 
z
" transform="scale(0.015625)"/>
     </defs>
     <use xlink:href="#DejaVuSans-41"/>
    </g>
   </g>
   <g id="text_2">
    <!-- B -->
    <g style="fill: #ff0000" transform="translate(357.560624 158.94399) scale(0.1 -0.1)">
     <defs>
      <path id="DejaVuSans-42" d="M 1259 2228 
L 1259 519 
L 2272 519 
Q 2781 519 3026 730 
Q 3272 941 3272 1375 
Q 3272 1813 3026 2020 
Q 2781 2228 2272 2228 
L 1259 2228 
z
M 1259 4147 
L 1259 2741 
L 2194 2741 
Q 2656 2741 2882 2914 
Q 3109 3088 3109 3444 
Q 3109 3797 2882 3972 
Q 2656 4147 2194 4147 
L 1259 4147 
z
M 628 4666 
L 2241 4666 
Q 2963 4666 3353 4366 
Q 3744 4066 3744 3513 
Q 3744 3084 3544 2831 
Q 3344 2578 2956 2516 
Q 3422 2416 3680 2098 
Q 3938 1781 3938 1306 
Q 3938 681 3513 340 
Q 3088 0 2303 0 
L 628 0 
L 628 4666 
z
" transform="scale(0.015625)"/>
     </defs>
     <use xlink:href="#DejaVuSans-42"/>
    </g>
   </g>
   <g id="text_3">
    <!-- C -->
    <g style="fill: #ff0000" transform="translate(233.904545 247.005529) scale(0.1 -0.1)">
     <defs>
      <path id="DejaVuSans-43" d="M 4122 4306 
L 4122 3641 
Q 3803 3938 3442 4084 
Q 3081 4231 2675 4231 
Q 1875 4231 1450 3742 
Q 1025 3253 1025 2328 
Q 1025 1406 1450 917 
Q 1875 428 2675 428 
Q 3081 428 3442 575 
Q 3803 722 4122 1019 
L 4122 359 
Q 3791 134 3420 21 
Q 3050 -91 2638 -91 
Q 1578 -91 968 557 
Q 359 1206 359 2328 
Q 359 3453 968 4101 
Q 1578 4750 2638 4750 
Q 3056 4750 3426 4639 
Q 3797 4528 4122 4306 
z
" transform="scale(0.015625)"/>
     </defs>
     <use xlink:href="#DejaVuSans-43"/>
    </g>
   </g>
   <g id="text_4">
    <!-- D -->
    <g style="fill: #ff0000" transform="translate(245.20587 311.805529) scale(0.1 -0.1)">
     <defs>
      <path id="DejaVuSans-44" d="M 1259 4147 
L 1259 519 
L 2022 519 
Q 2988 519 3436 956 
Q 3884 1394 3884 2338 
Q 3884 3275 3436 3711 
Q 2988 4147 2022 4147 
L 1259 4147 
z
M 628 4666 
L 1925 4666 
Q 3281 4666 3915 4102 
Q 4550 3538 4550 2338 
Q 4550 1131 3912 565 
Q 3275 0 1925 0 
L 628 0 
L 628 4666 
z
" transform="scale(0.015625)"/>
     </defs>
     <use xlink:href="#DejaVuSans-44"/>
    </g>
   </g>
  </g>
 </g>
 <defs>
  <clipPath id="pc169b5a994">
   <rect x="0" y="0" width="460.8" height="345.6"/>
  </clipPath>
 </defs>
</svg>
