<?xml version="1.0" encoding="utf-8" standalone="no"?>
<!DOCTYPE svg PUBLIC "-//W3C//DTD SVG 1.1//EN"
  "http://www.w3.org/Graphics/SVG/1.1/DTD/svg11.dtd">
<svg xmlns:xlink="http://www.w3.org/1999/xlink" width="460.8pt" height="345.6pt" viewBox="0 0 460.8 345.6" xmlns="http://www.w3.org/2000/svg" version="1.1">
 <metadata>
  <rdf:RDF xmlns:dc="http://purl.org/dc/elements/1.1/" xmlns:cc="http://creativecommons.org/ns#" xmlns:rdf="http://www.w3.org/1999/02/22-rdf-syntax-ns#">
   <cc:Work>
    <dc:type rdf:resource="http://purl.org/dc/dcmitype/StillImage"/>
    <dc:date>2025-08-02T22:45:32.166026</dc:date>
    <dc:format>image/svg+xml</dc:format>
    <dc:creator>
     <cc:Agent>
      <dc:title>Matplotlib v3.10.3, https://matplotlib.org/</dc:title>
     </cc:Agent>
    </dc:creator>
   </cc:Work>
  </rdf:RDF>
 </metadata>
 <defs>
  <style type="text/css">*{stroke-linejoin: round; stroke-linecap: butt}</style>
 </defs>
 <g id="figure_1">
  <g id="patch_1">
   <path d="M 0 345.6 
L 460.8 345.6 
L 460.8 0 
L 0 0 
z
" style="fill: #ffffff"/>
  </g>
  <g id="axes_1">
   <g id="patch_2">
    <path d="M 0 345.6 
L 460.8 345.6 
L 460.8 0 
L 0 0 
z
" style="fill: #ffffff"/>
   </g>
   <g id="matplotlib.axis_1">
    <g id="xtick_1">
     <g id="line2d_1">
      <defs>
       <path id="m9d6262a1f9" d="M 0 0 
L 0 3.5 
" style="stroke: #000000; stroke-width: 0.8"/>
      </defs>
      <g>
       <use xlink:href="#m9d6262a1f9" x="8.861538" y="172.8" style="stroke: #000000; stroke-width: 0.8"/>
      </g>
     </g>
     <g id="text_1">
      <!-- −4 -->
      <g transform="translate(1.490445 187.398437) scale(0.1 -0.1)">
       <defs>
        <path id="DejaVuSans-2212" d="M 678 2272 
L 4684 2272 
L 4684 1741 
L 678 1741 
L 678 2272 
z
" transform="scale(0.015625)"/>
        <path id="DejaVuSans-34" d="M 2419 4116 
L 825 1625 
L 2419 1625 
L 2419 4116 
z
M 2253 4666 
L 3047 4666 
L 3047 1625 
L 3713 1625 
L 3713 1100 
L 3047 1100 
L 3047 0 
L 2419 0 
L 2419 1100 
L 313 1100 
L 313 1709 
L 2253 4666 
z
" transform="scale(0.015625)"/>
       </defs>
       <use xlink:href="#DejaVuSans-2212"/>
       <use xlink:href="#DejaVuSans-34" transform="translate(83.789062 0)"/>
      </g>
     </g>
    </g>
    <g id="xtick_2">
     <g id="line2d_2">
      <g>
       <use xlink:href="#m9d6262a1f9" x="64.246154" y="172.8" style="stroke: #000000; stroke-width: 0.8"/>
      </g>
     </g>
     <g id="text_2">
      <!-- −3 -->
      <g transform="translate(56.87506 187.398437) scale(0.1 -0.1)">
       <defs>
        <path id="DejaVuSans-33" d="M 2597 2516 
Q 3050 2419 3304 2112 
Q 3559 1806 3559 1356 
Q 3559 666 3084 287 
Q 2609 -91 1734 -91 
Q 1441 -91 1130 -33 
Q 819 25 488 141 
L 488 750 
Q 750 597 1062 519 
Q 1375 441 1716 441 
Q 2309 441 2620 675 
Q 2931 909 2931 1356 
Q 2931 1769 2642 2001 
Q 2353 2234 1838 2234 
L 1294 2234 
L 1294 2753 
L 1863 2753 
Q 2328 2753 2575 2939 
Q 2822 3125 2822 3475 
Q 2822 3834 2567 4026 
Q 2313 4219 1838 4219 
Q 1578 4219 1281 4162 
Q 984 4106 628 3988 
L 628 4550 
Q 988 4650 1302 4700 
Q 1616 4750 1894 4750 
Q 2613 4750 3031 4423 
Q 3450 4097 3450 3541 
Q 3450 3153 3228 2886 
Q 3006 2619 2597 2516 
z
" transform="scale(0.015625)"/>
       </defs>
       <use xlink:href="#DejaVuSans-2212"/>
       <use xlink:href="#DejaVuSans-33" transform="translate(83.789062 0)"/>
      </g>
     </g>
    </g>
    <g id="xtick_3">
     <g id="line2d_3">
      <g>
       <use xlink:href="#m9d6262a1f9" x="119.630769" y="172.8" style="stroke: #000000; stroke-width: 0.8"/>
      </g>
     </g>
     <g id="text_3">
      <!-- −2 -->
      <g transform="translate(112.259675 187.398437) scale(0.1 -0.1)">
       <defs>
        <path id="DejaVuSans-32" d="M 1228 531 
L 3431 531 
L 3431 0 
L 469 0 
L 469 531 
Q 828 903 1448 1529 
Q 2069 2156 2228 2338 
Q 2531 2678 2651 2914 
Q 2772 3150 2772 3378 
Q 2772 3750 2511 3984 
Q 2250 4219 1831 4219 
Q 1534 4219 1204 4116 
Q 875 4013 500 3803 
L 500 4441 
Q 881 4594 1212 4672 
Q 1544 4750 1819 4750 
Q 2544 4750 2975 4387 
Q 3406 4025 3406 3419 
Q 3406 3131 3298 2873 
Q 3191 2616 2906 2266 
Q 2828 2175 2409 1742 
Q 1991 1309 1228 531 
z
" transform="scale(0.015625)"/>
       </defs>
       <use xlink:href="#DejaVuSans-2212"/>
       <use xlink:href="#DejaVuSans-32" transform="translate(83.789062 0)"/>
      </g>
     </g>
    </g>
    <g id="xtick_4">
     <g id="line2d_4">
      <g>
       <use xlink:href="#m9d6262a1f9" x="175.015385" y="172.8" style="stroke: #000000; stroke-width: 0.8"/>
      </g>
     </g>
     <g id="text_4">
      <!-- −1 -->
      <g transform="translate(167.644291 187.398437) scale(0.1 -0.1)">
       <defs>
        <path id="DejaVuSans-31" d="M 794 531 
L 1825 531 
L 1825 4091 
L 703 3866 
L 703 4441 
L 1819 4666 
L 2450 4666 
L 2450 531 
L 3481 531 
L 3481 0 
L 794 0 
L 794 531 
z
" transform="scale(0.015625)"/>
       </defs>
       <use xlink:href="#DejaVuSans-2212"/>
       <use xlink:href="#DejaVuSans-31" transform="translate(83.789062 0)"/>
      </g>
     </g>
    </g>
    <g id="xtick_5">
     <g id="line2d_5">
      <g>
       <use xlink:href="#m9d6262a1f9" x="230.4" y="172.8" style="stroke: #000000; stroke-width: 0.8"/>
      </g>
     </g>
    </g>
    <g id="xtick_6">
     <g id="line2d_6">
      <g>
       <use xlink:href="#m9d6262a1f9" x="285.784615" y="172.8" style="stroke: #000000; stroke-width: 0.8"/>
      </g>
     </g>
     <g id="text_5">
      <!-- 1 -->
      <g transform="translate(282.603365 187.398437) scale(0.1 -0.1)">
       <use xlink:href="#DejaVuSans-31"/>
      </g>
     </g>
    </g>
    <g id="xtick_7">
     <g id="line2d_7">
      <g>
       <use xlink:href="#m9d6262a1f9" x="341.169231" y="172.8" style="stroke: #000000; stroke-width: 0.8"/>
      </g>
     </g>
     <g id="text_6">
      <!-- 2 -->
      <g transform="translate(337.987981 187.398437) scale(0.1 -0.1)">
       <use xlink:href="#DejaVuSans-32"/>
      </g>
     </g>
    </g>
    <g id="xtick_8">
     <g id="line2d_8">
      <g>
       <use xlink:href="#m9d6262a1f9" x="396.553846" y="172.8" style="stroke: #000000; stroke-width: 0.8"/>
      </g>
     </g>
     <g id="text_7">
      <!-- 3 -->
      <g transform="translate(393.372596 187.398437) scale(0.1 -0.1)">
       <use xlink:href="#DejaVuSans-33"/>
      </g>
     </g>
    </g>
    <g id="xtick_9">
     <g id="line2d_9">
      <g>
       <use xlink:href="#m9d6262a1f9" x="451.938462" y="172.8" style="stroke: #000000; stroke-width: 0.8"/>
      </g>
     </g>
     <g id="text_8">
      <!-- 4 -->
      <g transform="translate(448.757212 187.398437) scale(0.1 -0.1)">
       <use xlink:href="#DejaVuSans-34"/>
      </g>
     </g>
    </g>
    <g id="xtick_10">
     <g id="line2d_10">
      <defs>
       <path id="m8144eb62ed" d="M 0 0 
L 0 2 
" style="stroke: #000000; stroke-width: 0.6"/>
      </defs>
      <g>
       <use xlink:href="#m8144eb62ed" x="19.938462" y="172.8" style="stroke: #000000; stroke-width: 0.6"/>
      </g>
     </g>
    </g>
    <g id="xtick_11">
     <g id="line2d_11">
      <g>
       <use xlink:href="#m8144eb62ed" x="31.015385" y="172.8" style="stroke: #000000; stroke-width: 0.6"/>
      </g>
     </g>
    </g>
    <g id="xtick_12">
     <g id="line2d_12">
      <g>
       <use xlink:href="#m8144eb62ed" x="42.092308" y="172.8" style="stroke: #000000; stroke-width: 0.6"/>
      </g>
     </g>
    </g>
    <g id="xtick_13">
     <g id="line2d_13">
      <g>
       <use xlink:href="#m8144eb62ed" x="53.169231" y="172.8" style="stroke: #000000; stroke-width: 0.6"/>
      </g>
     </g>
    </g>
    <g id="xtick_14">
     <g id="line2d_14">
      <g>
       <use xlink:href="#m8144eb62ed" x="75.323077" y="172.8" style="stroke: #000000; stroke-width: 0.6"/>
      </g>
     </g>
    </g>
    <g id="xtick_15">
     <g id="line2d_15">
      <g>
       <use xlink:href="#m8144eb62ed" x="86.4" y="172.8" style="stroke: #000000; stroke-width: 0.6"/>
      </g>
     </g>
    </g>
    <g id="xtick_16">
     <g id="line2d_16">
      <g>
       <use xlink:href="#m8144eb62ed" x="97.476923" y="172.8" style="stroke: #000000; stroke-width: 0.6"/>
      </g>
     </g>
    </g>
    <g id="xtick_17">
     <g id="line2d_17">
      <g>
       <use xlink:href="#m8144eb62ed" x="108.553846" y="172.8" style="stroke: #000000; stroke-width: 0.6"/>
      </g>
     </g>
    </g>
    <g id="xtick_18">
     <g id="line2d_18">
      <g>
       <use xlink:href="#m8144eb62ed" x="130.707692" y="172.8" style="stroke: #000000; stroke-width: 0.6"/>
      </g>
     </g>
    </g>
    <g id="xtick_19">
     <g id="line2d_19">
      <g>
       <use xlink:href="#m8144eb62ed" x="141.784615" y="172.8" style="stroke: #000000; stroke-width: 0.6"/>
      </g>
     </g>
    </g>
    <g id="xtick_20">
     <g id="line2d_20">
      <g>
       <use xlink:href="#m8144eb62ed" x="152.861538" y="172.8" style="stroke: #000000; stroke-width: 0.6"/>
      </g>
     </g>
    </g>
    <g id="xtick_21">
     <g id="line2d_21">
      <g>
       <use xlink:href="#m8144eb62ed" x="163.938462" y="172.8" style="stroke: #000000; stroke-width: 0.6"/>
      </g>
     </g>
    </g>
    <g id="xtick_22">
     <g id="line2d_22">
      <g>
       <use xlink:href="#m8144eb62ed" x="186.092308" y="172.8" style="stroke: #000000; stroke-width: 0.6"/>
      </g>
     </g>
    </g>
    <g id="xtick_23">
     <g id="line2d_23">
      <g>
       <use xlink:href="#m8144eb62ed" x="197.169231" y="172.8" style="stroke: #000000; stroke-width: 0.6"/>
      </g>
     </g>
    </g>
    <g id="xtick_24">
     <g id="line2d_24">
      <g>
       <use xlink:href="#m8144eb62ed" x="208.246154" y="172.8" style="stroke: #000000; stroke-width: 0.6"/>
      </g>
     </g>
    </g>
    <g id="xtick_25">
     <g id="line2d_25">
      <g>
       <use xlink:href="#m8144eb62ed" x="219.323077" y="172.8" style="stroke: #000000; stroke-width: 0.6"/>
      </g>
     </g>
    </g>
    <g id="xtick_26">
     <g id="line2d_26">
      <g>
       <use xlink:href="#m8144eb62ed" x="241.476923" y="172.8" style="stroke: #000000; stroke-width: 0.6"/>
      </g>
     </g>
    </g>
    <g id="xtick_27">
     <g id="line2d_27">
      <g>
       <use xlink:href="#m8144eb62ed" x="252.553846" y="172.8" style="stroke: #000000; stroke-width: 0.6"/>
      </g>
     </g>
    </g>
    <g id="xtick_28">
     <g id="line2d_28">
      <g>
       <use xlink:href="#m8144eb62ed" x="263.630769" y="172.8" style="stroke: #000000; stroke-width: 0.6"/>
      </g>
     </g>
    </g>
    <g id="xtick_29">
     <g id="line2d_29">
      <g>
       <use xlink:href="#m8144eb62ed" x="274.707692" y="172.8" style="stroke: #000000; stroke-width: 0.6"/>
      </g>
     </g>
    </g>
    <g id="xtick_30">
     <g id="line2d_30">
      <g>
       <use xlink:href="#m8144eb62ed" x="296.861538" y="172.8" style="stroke: #000000; stroke-width: 0.6"/>
      </g>
     </g>
    </g>
    <g id="xtick_31">
     <g id="line2d_31">
      <g>
       <use xlink:href="#m8144eb62ed" x="307.938462" y="172.8" style="stroke: #000000; stroke-width: 0.6"/>
      </g>
     </g>
    </g>
    <g id="xtick_32">
     <g id="line2d_32">
      <g>
       <use xlink:href="#m8144eb62ed" x="319.015385" y="172.8" style="stroke: #000000; stroke-width: 0.6"/>
      </g>
     </g>
    </g>
    <g id="xtick_33">
     <g id="line2d_33">
      <g>
       <use xlink:href="#m8144eb62ed" x="330.092308" y="172.8" style="stroke: #000000; stroke-width: 0.6"/>
      </g>
     </g>
    </g>
    <g id="xtick_34">
     <g id="line2d_34">
      <g>
       <use xlink:href="#m8144eb62ed" x="352.246154" y="172.8" style="stroke: #000000; stroke-width: 0.6"/>
      </g>
     </g>
    </g>
    <g id="xtick_35">
     <g id="line2d_35">
      <g>
       <use xlink:href="#m8144eb62ed" x="363.323077" y="172.8" style="stroke: #000000; stroke-width: 0.6"/>
      </g>
     </g>
    </g>
    <g id="xtick_36">
     <g id="line2d_36">
      <g>
       <use xlink:href="#m8144eb62ed" x="374.4" y="172.8" style="stroke: #000000; stroke-width: 0.6"/>
      </g>
     </g>
    </g>
    <g id="xtick_37">
     <g id="line2d_37">
      <g>
       <use xlink:href="#m8144eb62ed" x="385.476923" y="172.8" style="stroke: #000000; stroke-width: 0.6"/>
      </g>
     </g>
    </g>
    <g id="xtick_38">
     <g id="line2d_38">
      <g>
       <use xlink:href="#m8144eb62ed" x="407.630769" y="172.8" style="stroke: #000000; stroke-width: 0.6"/>
      </g>
     </g>
    </g>
    <g id="xtick_39">
     <g id="line2d_39">
      <g>
       <use xlink:href="#m8144eb62ed" x="418.707692" y="172.8" style="stroke: #000000; stroke-width: 0.6"/>
      </g>
     </g>
    </g>
    <g id="xtick_40">
     <g id="line2d_40">
      <g>
       <use xlink:href="#m8144eb62ed" x="429.784615" y="172.8" style="stroke: #000000; stroke-width: 0.6"/>
      </g>
     </g>
    </g>
    <g id="xtick_41">
     <g id="line2d_41">
      <g>
       <use xlink:href="#m8144eb62ed" x="440.861538" y="172.8" style="stroke: #000000; stroke-width: 0.6"/>
      </g>
     </g>
    </g>
   </g>
   <g id="matplotlib.axis_2">
    <g id="ytick_1">
     <g id="line2d_42">
      <defs>
       <path id="mb96c9c0c05" d="M 0 0 
L -3.5 0 
" style="stroke: #000000; stroke-width: 0.8"/>
      </defs>
      <g>
       <use xlink:href="#mb96c9c0c05" x="230.4" y="331.465236" style="stroke: #000000; stroke-width: 0.8"/>
      </g>
     </g>
     <g id="text_9">
      <!-- −3 -->
      <g transform="translate(208.657813 335.264454) scale(0.1 -0.1)">
       <use xlink:href="#DejaVuSans-2212"/>
       <use xlink:href="#DejaVuSans-33" transform="translate(83.789062 0)"/>
      </g>
     </g>
    </g>
    <g id="ytick_2">
     <g id="line2d_43">
      <g>
       <use xlink:href="#mb96c9c0c05" x="230.4" y="278.576824" style="stroke: #000000; stroke-width: 0.8"/>
      </g>
     </g>
     <g id="text_10">
      <!-- −2 -->
      <g transform="translate(208.657813 282.376042) scale(0.1 -0.1)">
       <use xlink:href="#DejaVuSans-2212"/>
       <use xlink:href="#DejaVuSans-32" transform="translate(83.789062 0)"/>
      </g>
     </g>
    </g>
    <g id="ytick_3">
     <g id="line2d_44">
      <g>
       <use xlink:href="#mb96c9c0c05" x="230.4" y="225.688412" style="stroke: #000000; stroke-width: 0.8"/>
      </g>
     </g>
     <g id="text_11">
      <!-- −1 -->
      <g transform="translate(208.657813 229.487631) scale(0.1 -0.1)">
       <use xlink:href="#DejaVuSans-2212"/>
       <use xlink:href="#DejaVuSans-31" transform="translate(83.789062 0)"/>
      </g>
     </g>
    </g>
    <g id="ytick_4">
     <g id="line2d_45">
      <g>
       <use xlink:href="#mb96c9c0c05" x="230.4" y="172.8" style="stroke: #000000; stroke-width: 0.8"/>
      </g>
     </g>
    </g>
    <g id="ytick_5">
     <g id="line2d_46">
      <g>
       <use xlink:href="#mb96c9c0c05" x="230.4" y="119.911588" style="stroke: #000000; stroke-width: 0.8"/>
      </g>
     </g>
     <g id="text_12">
      <!-- 1 -->
      <g transform="translate(217.0375 123.710807) scale(0.1 -0.1)">
       <use xlink:href="#DejaVuSans-31"/>
      </g>
     </g>
    </g>
    <g id="ytick_6">
     <g id="line2d_47">
      <g>
       <use xlink:href="#mb96c9c0c05" x="230.4" y="67.023176" style="stroke: #000000; stroke-width: 0.8"/>
      </g>
     </g>
     <g id="text_13">
      <!-- 2 -->
      <g transform="translate(217.0375 70.822395) scale(0.1 -0.1)">
       <use xlink:href="#DejaVuSans-32"/>
      </g>
     </g>
    </g>
    <g id="ytick_7">
     <g id="line2d_48">
      <g>
       <use xlink:href="#mb96c9c0c05" x="230.4" y="14.134764" style="stroke: #000000; stroke-width: 0.8"/>
      </g>
     </g>
     <g id="text_14">
      <!-- 3 -->
      <g transform="translate(217.0375 17.933983) scale(0.1 -0.1)">
       <use xlink:href="#DejaVuSans-33"/>
      </g>
     </g>
    </g>
    <g id="ytick_8">
     <g id="line2d_49">
      <defs>
       <path id="m7468d4f407" d="M 0 0 
L -2 0 
" style="stroke: #000000; stroke-width: 0.6"/>
      </defs>
      <g>
       <use xlink:href="#m7468d4f407" x="230.4" y="342.042918" style="stroke: #000000; stroke-width: 0.6"/>
      </g>
     </g>
    </g>
    <g id="ytick_9">
     <g id="line2d_50">
      <g>
       <use xlink:href="#m7468d4f407" x="230.4" y="320.887553" style="stroke: #000000; stroke-width: 0.6"/>
      </g>
     </g>
    </g>
    <g id="ytick_10">
     <g id="line2d_51">
      <g>
       <use xlink:href="#m7468d4f407" x="230.4" y="310.309871" style="stroke: #000000; stroke-width: 0.6"/>
      </g>
     </g>
    </g>
    <g id="ytick_11">
     <g id="line2d_52">
      <g>
       <use xlink:href="#m7468d4f407" x="230.4" y="299.732188" style="stroke: #000000; stroke-width: 0.6"/>
      </g>
     </g>
    </g>
    <g id="ytick_12">
     <g id="line2d_53">
      <g>
       <use xlink:href="#m7468d4f407" x="230.4" y="289.154506" style="stroke: #000000; stroke-width: 0.6"/>
      </g>
     </g>
    </g>
    <g id="ytick_13">
     <g id="line2d_54">
      <g>
       <use xlink:href="#m7468d4f407" x="230.4" y="267.999141" style="stroke: #000000; stroke-width: 0.6"/>
      </g>
     </g>
    </g>
    <g id="ytick_14">
     <g id="line2d_55">
      <g>
       <use xlink:href="#m7468d4f407" x="230.4" y="257.421459" style="stroke: #000000; stroke-width: 0.6"/>
      </g>
     </g>
    </g>
    <g id="ytick_15">
     <g id="line2d_56">
      <g>
       <use xlink:href="#m7468d4f407" x="230.4" y="246.843777" style="stroke: #000000; stroke-width: 0.6"/>
      </g>
     </g>
    </g>
    <g id="ytick_16">
     <g id="line2d_57">
      <g>
       <use xlink:href="#m7468d4f407" x="230.4" y="236.266094" style="stroke: #000000; stroke-width: 0.6"/>
      </g>
     </g>
    </g>
    <g id="ytick_17">
     <g id="line2d_58">
      <g>
       <use xlink:href="#m7468d4f407" x="230.4" y="215.110729" style="stroke: #000000; stroke-width: 0.6"/>
      </g>
     </g>
    </g>
    <g id="ytick_18">
     <g id="line2d_59">
      <g>
       <use xlink:href="#m7468d4f407" x="230.4" y="204.533047" style="stroke: #000000; stroke-width: 0.6"/>
      </g>
     </g>
    </g>
    <g id="ytick_19">
     <g id="line2d_60">
      <g>
       <use xlink:href="#m7468d4f407" x="230.4" y="193.955365" style="stroke: #000000; stroke-width: 0.6"/>
      </g>
     </g>
    </g>
    <g id="ytick_20">
     <g id="line2d_61">
      <g>
       <use xlink:href="#m7468d4f407" x="230.4" y="183.377682" style="stroke: #000000; stroke-width: 0.6"/>
      </g>
     </g>
    </g>
    <g id="ytick_21">
     <g id="line2d_62">
      <g>
       <use xlink:href="#m7468d4f407" x="230.4" y="162.222318" style="stroke: #000000; stroke-width: 0.6"/>
      </g>
     </g>
    </g>
    <g id="ytick_22">
     <g id="line2d_63">
      <g>
       <use xlink:href="#m7468d4f407" x="230.4" y="151.644635" style="stroke: #000000; stroke-width: 0.6"/>
      </g>
     </g>
    </g>
    <g id="ytick_23">
     <g id="line2d_64">
      <g>
       <use xlink:href="#m7468d4f407" x="230.4" y="141.066953" style="stroke: #000000; stroke-width: 0.6"/>
      </g>
     </g>
    </g>
    <g id="ytick_24">
     <g id="line2d_65">
      <g>
       <use xlink:href="#m7468d4f407" x="230.4" y="130.489271" style="stroke: #000000; stroke-width: 0.6"/>
      </g>
     </g>
    </g>
    <g id="ytick_25">
     <g id="line2d_66">
      <g>
       <use xlink:href="#m7468d4f407" x="230.4" y="109.333906" style="stroke: #000000; stroke-width: 0.6"/>
      </g>
     </g>
    </g>
    <g id="ytick_26">
     <g id="line2d_67">
      <g>
       <use xlink:href="#m7468d4f407" x="230.4" y="98.756223" style="stroke: #000000; stroke-width: 0.6"/>
      </g>
     </g>
    </g>
    <g id="ytick_27">
     <g id="line2d_68">
      <g>
       <use xlink:href="#m7468d4f407" x="230.4" y="88.178541" style="stroke: #000000; stroke-width: 0.6"/>
      </g>
     </g>
    </g>
    <g id="ytick_28">
     <g id="line2d_69">
      <g>
       <use xlink:href="#m7468d4f407" x="230.4" y="77.600859" style="stroke: #000000; stroke-width: 0.6"/>
      </g>
     </g>
    </g>
    <g id="ytick_29">
     <g id="line2d_70">
      <g>
       <use xlink:href="#m7468d4f407" x="230.4" y="56.445494" style="stroke: #000000; stroke-width: 0.6"/>
      </g>
     </g>
    </g>
    <g id="ytick_30">
     <g id="line2d_71">
      <g>
       <use xlink:href="#m7468d4f407" x="230.4" y="45.867812" style="stroke: #000000; stroke-width: 0.6"/>
      </g>
     </g>
    </g>
    <g id="ytick_31">
     <g id="line2d_72">
      <g>
       <use xlink:href="#m7468d4f407" x="230.4" y="35.290129" style="stroke: #000000; stroke-width: 0.6"/>
      </g>
     </g>
    </g>
    <g id="ytick_32">
     <g id="line2d_73">
      <g>
       <use xlink:href="#m7468d4f407" x="230.4" y="24.712447" style="stroke: #000000; stroke-width: 0.6"/>
      </g>
     </g>
    </g>
    <g id="ytick_33">
     <g id="line2d_74">
      <g>
       <use xlink:href="#m7468d4f407" x="230.4" y="3.557082" style="stroke: #000000; stroke-width: 0.6"/>
      </g>
     </g>
    </g>
   </g>
   <g id="line2d_75">
    <path d="M 8.861538 182.806521 
L 16.832542 181.786862 
L 24.353536 180.57526 
L 33.281078 178.825402 
L 41.505725 176.921263 
L 49.170477 174.904999 
L 57.927484 172.332915 
L 67.205136 169.321731 
L 75.078933 166.56084 
L 83.487182 163.434075 
L 96.613255 158.26457 
L 114.19733 151.016368 
L 133.797108 142.932714 
L 146.981099 137.758897 
L 156.667966 134.206478 
L 165.300425 131.275785 
L 172.912464 128.909756 
L 179.454684 127.060635 
L 187.24791 125.102496 
L 193.416843 123.755305 
L 200.361522 122.466625 
L 206.715012 121.508957 
L 212.520021 120.825494 
L 219.224547 120.269748 
L 225.950587 119.96846 
L 234.44932 119.958694 
L 241.838749 120.286787 
L 247.069654 120.706496 
L 252.83823 121.34656 
L 260.155703 122.419438 
L 265.492667 123.380089 
L 270.990256 124.520559 
L 278.41908 126.293065 
L 284.342032 127.885374 
L 293.763975 130.717227 
L 302.609694 133.672217 
L 312.701682 137.33681 
L 323.632813 141.580699 
L 339.005375 147.855578 
L 368.802338 160.115571 
L 377.733242 163.594302 
L 389.602764 167.943829 
L 397.829195 170.730531 
L 406.159869 173.330711 
L 413.395969 175.389714 
L 421.57302 177.476269 
L 428.964305 179.131381 
L 435.982653 180.492637 
L 442.6431 181.591074 
L 449.871862 182.568268 
L 451.938462 182.806521 
L 451.938462 182.806521 
" clip-path="url(#pd14044a20d)" style="fill: none; stroke: #0000ff; stroke-linecap: square"/>
   </g>
   <g id="line2d_76">
    <path d="M 8.861538 34.519308 
L 12.103522 27.546856 
L 14.490232 22.89744 
L 17.273845 17.996894 
L 20.020492 13.714575 
L 22.728782 10.030571 
L 24.669605 7.718848 
L 26.66372 5.62809 
L 28.929432 3.600546 
L 31.500427 1.744553 
L 33.582873 0.584277 
L 35.567379 -0.239123 
L 37.513844 -0.782463 
L 38.875569 -1 
M 42.50527 -1 
L 43.862849 -0.782558 
L 45.597332 -0.324784 
L 47.956689 0.602007 
L 49.828497 1.580789 
L 51.700304 2.769427 
L 54.65924 5.063212 
L 57.298578 7.521875 
L 59.848993 10.250726 
L 61.956955 12.756505 
L 65.421586 17.340758 
L 68.532296 21.919031 
L 72.181615 27.801745 
L 74.585599 31.953801 
L 78.713522 39.543367 
L 82.555238 47.066445 
L 87.122391 56.490341 
L 92.417361 67.92414 
L 101.160222 87.535641 
L 114.73625 118.151633 
L 122.179326 134.162149 
L 128.03925 146.032829 
L 132.048123 153.681017 
L 135.257393 159.487377 
L 139.844484 167.249254 
L 144.545362 174.49231 
L 147.532234 178.695691 
L 150.226691 182.210057 
L 152.905009 185.435188 
L 156.045424 188.868461 
L 158.636146 191.412919 
L 161.591714 193.993957 
L 164.196596 195.982487 
L 166.309548 197.397972 
L 169.116086 199.004917 
L 171.956143 200.315454 
L 175.109875 201.402735 
L 176.717816 201.809999 
L 179.981499 202.336778 
L 183.025165 202.474147 
L 185.998469 202.289024 
L 189.044076 201.78442 
L 192.378533 200.883014 
L 193.659147 200.444032 
L 197.775632 198.703542 
L 201.67358 196.623851 
L 205.898322 193.944925 
L 209.595708 191.281445 
L 212.798079 188.766843 
L 218.509934 183.893533 
L 224.040169 178.833195 
L 239.631392 164.106838 
L 244.848032 159.469939 
L 250.764649 154.653049 
L 255.082443 151.532122 
L 258.738515 149.204472 
L 261.472657 147.676388 
L 264.353699 146.281058 
L 267.466801 145.03948 
L 269.908924 144.271022 
L 273.173186 143.541957 
L 275.715363 143.221163 
L 278.334714 143.125967 
L 281.743979 143.372217 
L 283.477695 143.662289 
L 285.211412 144.065708 
L 288.546215 145.16546 
L 291.060042 146.28008 
L 293.346669 147.509559 
L 296.811344 149.766377 
L 299.078196 151.500361 
L 302.146651 154.171062 
L 304.37066 156.337955 
L 308.090394 160.390934 
L 312.048585 165.281041 
L 315.060663 169.389271 
L 317.76938 173.359519 
L 321.497535 179.233275 
L 325.934602 186.805852 
L 328.687556 191.799747 
L 332.368569 198.800808 
L 336.042745 206.123096 
L 341.866297 218.310322 
L 348.455794 232.756472 
L 360.32694 259.623997 
L 368.187505 277.246256 
L 373.862934 289.500864 
L 379.597316 301.22832 
L 383.805369 309.283716 
L 387.979184 316.714791 
L 391.054159 321.783674 
L 393.853384 326.067232 
L 397.255133 330.812431 
L 399.792008 333.99891 
L 402.552853 337.10285 
L 404.982648 339.504793 
L 406.700293 341.008677 
L 408.417939 342.346558 
L 411.311995 344.213026 
L 413.723073 345.384053 
L 415.204965 345.925517 
L 416.686857 346.328364 
L 418.311141 346.6 
M 421.953404 346.6 
L 423.312878 346.37676 
L 425.562187 345.721315 
L 426.963001 345.136474 
L 428.310861 344.444377 
L 430.757788 342.860534 
L 433.281866 340.779856 
L 435.346034 338.737853 
L 437.465617 336.320142 
L 439.5852 333.575884 
L 441.954844 330.120277 
L 444.624435 325.7369 
L 447.187459 321.040696 
L 449.85214 315.65414 
L 451.938462 311.080692 
L 451.938462 311.080692 
" clip-path="url(#pd14044a20d)" style="fill: none; stroke: #ff0000; stroke-linecap: square"/>
   </g>
   <g id="line2d_77">
    <path d="M 8.861538 234.035329 
L 11.403457 228.637055 
L 13.427597 224.699858 
L 16.099411 219.914384 
L 19.487365 214.405064 
L 23.165436 208.993977 
L 26.950903 203.915797 
L 30.300712 199.752806 
L 34.329342 195.071891 
L 40.126155 188.807897 
L 43.854077 184.99381 
L 53.263255 175.802505 
L 67.667442 161.893529 
L 72.89177 156.57323 
L 77.843369 151.239166 
L 81.98939 146.467491 
L 85.968999 141.540442 
L 89.261188 137.138546 
L 92.272695 132.791639 
L 95.495733 127.723813 
L 98.692023 122.175386 
L 100.658027 118.449718 
L 103.248832 113.102012 
L 105.472305 108.041503 
L 107.763398 102.278377 
L 110.001188 96.000407 
L 112.578937 87.787331 
L 114.908751 79.230602 
L 116.887775 70.895081 
L 118.749131 61.935167 
L 120.204471 53.999861 
L 121.976841 42.971221 
L 123.355881 33.114424 
L 124.964761 19.838671 
L 126.182652 8.206022 
L 127.0406 -1 
M 143.374716 -1 
L 143.374727 346.6 
M 159.764252 346.6 
L 161.089983 332.735763 
L 162.664767 318.684465 
L 164.234653 306.712111 
L 166.035107 294.935673 
L 167.44309 286.891443 
L 169.485352 276.67391 
L 171.429871 268.232933 
L 173.184229 261.486373 
L 175.041058 255.084902 
L 177.297262 248.15085 
L 179.431688 242.294083 
L 181.483582 237.19745 
L 183.877413 231.802973 
L 186.136307 227.169458 
L 189.613301 220.746413 
L 192.845495 215.400031 
L 194.848589 212.334195 
L 198.905685 206.598966 
L 202.97844 201.358255 
L 206.767677 196.844477 
L 211.99518 191.052166 
L 216.051865 186.816438 
L 221.784637 181.094072 
L 234.297206 169.072288 
L 242.396129 161.161973 
L 248.289509 155.096779 
L 253.494949 149.372039 
L 257.900035 144.144883 
L 261.301069 139.793511 
L 265.142327 134.457207 
L 267.827677 130.399288 
L 270.74762 125.612035 
L 273.536177 120.599983 
L 276.734749 114.198128 
L 279.559369 107.823494 
L 281.602521 102.69271 
L 283.448936 97.604598 
L 285.629903 90.935072 
L 287.501233 84.52911 
L 289.131574 78.32911 
L 290.99993 70.3698 
L 292.753321 61.892457 
L 294.373784 52.991634 
L 295.726148 44.607799 
L 297.470558 32.204656 
L 299.124512 18.360797 
L 300.532464 4.521535 
L 301.036557 -1 
M 317.397423 -1 
L 317.397606 346.6 
M 333.759577 346.6 
L 335.006517 333.507981 
L 336.584088 319.316396 
L 338.278752 306.371769 
L 339.810168 296.283616 
L 341.291116 287.694412 
L 343.132233 278.31313 
L 345.155102 269.342765 
L 347.301964 261.044518 
L 349.348833 254.075028 
L 351.276642 248.198669 
L 353.943488 240.967068 
L 356.247203 235.407524 
L 358.487872 230.501767 
L 361.312866 224.899931 
L 363.801977 220.412087 
L 367.504743 214.365542 
L 371.188553 208.950085 
L 374.152578 204.94014 
L 376.949738 201.388607 
L 381.889798 195.558446 
L 385.975118 191.069226 
L 390.272489 186.587017 
L 396.321376 180.5657 
L 419.615684 157.888934 
L 423.814192 153.457772 
L 427.108047 149.807989 
L 431.999042 144.017392 
L 436.158871 138.638588 
L 439.951244 133.259952 
L 442.498659 129.329792 
L 445.659801 124.016827 
L 447.325784 120.987456 
L 450.390853 114.916114 
L 451.938462 111.564671 
L 451.938462 111.564671 
" clip-path="url(#pd14044a20d)" style="fill: none; stroke: #008000; stroke-linecap: square"/>
   </g>
   <g id="patch_3">
    <path d="M 230.4 345.6 
L 230.4 0 
" style="fill: none; stroke: #000000; stroke-width: 0.8; stroke-linejoin: miter; stroke-linecap: square"/>
   </g>
   <g id="patch_4">
    <path d="M 0 172.8 
L 460.8 172.8 
" style="fill: none; stroke: #000000; stroke-width: 0.8; stroke-linejoin: miter; stroke-linecap: square"/>
   </g>
  </g>
 </g>
 <defs>
  <clipPath id="pd14044a20d">
   <rect x="0" y="0" width="460.8" height="345.6"/>
  </clipPath>
 </defs>
</svg>
