<?xml version="1.0" encoding="utf-8" standalone="no"?>
<!DOCTYPE svg PUBLIC "-//W3C//DTD SVG 1.1//EN"
  "http://www.w3.org/Graphics/SVG/1.1/DTD/svg11.dtd">
<svg xmlns:xlink="http://www.w3.org/1999/xlink" width="460.8pt" height="345.6pt" viewBox="0 0 460.8 345.6" xmlns="http://www.w3.org/2000/svg" version="1.1">
 <metadata>
  <rdf:RDF xmlns:dc="http://purl.org/dc/elements/1.1/" xmlns:cc="http://creativecommons.org/ns#" xmlns:rdf="http://www.w3.org/1999/02/22-rdf-syntax-ns#">
   <cc:Work>
    <dc:type rdf:resource="http://purl.org/dc/dcmitype/StillImage"/>
    <dc:date>2025-08-03T20:17:45.242566</dc:date>
    <dc:format>image/svg+xml</dc:format>
    <dc:creator>
     <cc:Agent>
      <dc:title>Matplotlib v3.10.3, https://matplotlib.org/</dc:title>
     </cc:Agent>
    </dc:creator>
   </cc:Work>
  </rdf:RDF>
 </metadata>
 <defs>
  <style type="text/css">*{stroke-linejoin: round; stroke-linecap: butt}</style>
 </defs>
 <g id="figure_1">
  <g id="patch_1">
   <path d="M 0 345.6 
L 460.8 345.6 
L 460.8 0 
L 0 0 
z
" style="fill: #ffffff"/>
  </g>
  <g id="axes_1">
   <g id="patch_2">
    <path d="M 3.826531 345.6 
L 460.8 345.6 
L 460.8 0 
L 3.826531 0 
z
" style="fill: #ffffff"/>
   </g>
   <g id="matplotlib.axis_1">
    <g id="xtick_1">
     <g id="line2d_1">
      <defs>
       <path id="mea7a80b1a5" d="M 0 0 
L 0 3.5 
" style="stroke: #000000; stroke-width: 0.8"/>
      </defs>
      <g>
       <use xlink:href="#mea7a80b1a5" x="12.614482" y="172.796825" style="stroke: #000000; stroke-width: 0.8"/>
      </g>
     </g>
     <g id="text_1">
      <!-- −1.0 -->
      <g transform="translate(0.473076 187.395263) scale(0.1 -0.1)">
       <defs>
        <path id="DejaVuSans-2212" d="M 678 2272 
L 4684 2272 
L 4684 1741 
L 678 1741 
L 678 2272 
z
" transform="scale(0.015625)"/>
        <path id="DejaVuSans-31" d="M 794 531 
L 1825 531 
L 1825 4091 
L 703 3866 
L 703 4441 
L 1819 4666 
L 2450 4666 
L 2450 531 
L 3481 531 
L 3481 0 
L 794 0 
L 794 531 
z
" transform="scale(0.015625)"/>
        <path id="DejaVuSans-2e" d="M 684 794 
L 1344 794 
L 1344 0 
L 684 0 
L 684 794 
z
" transform="scale(0.015625)"/>
        <path id="DejaVuSans-30" d="M 2034 4250 
Q 1547 4250 1301 3770 
Q 1056 3291 1056 2328 
Q 1056 1369 1301 889 
Q 1547 409 2034 409 
Q 2525 409 2770 889 
Q 3016 1369 3016 2328 
Q 3016 3291 2770 3770 
Q 2525 4250 2034 4250 
z
M 2034 4750 
Q 2819 4750 3233 4129 
Q 3647 3509 3647 2328 
Q 3647 1150 3233 529 
Q 2819 -91 2034 -91 
Q 1250 -91 836 529 
Q 422 1150 422 2328 
Q 422 3509 836 4129 
Q 1250 4750 2034 4750 
z
" transform="scale(0.015625)"/>
       </defs>
       <use xlink:href="#DejaVuSans-2212"/>
       <use xlink:href="#DejaVuSans-31" transform="translate(83.789062 0)"/>
       <use xlink:href="#DejaVuSans-2e" transform="translate(147.412109 0)"/>
       <use xlink:href="#DejaVuSans-30" transform="translate(179.199219 0)"/>
      </g>
     </g>
    </g>
    <g id="xtick_2">
     <g id="line2d_2">
      <g>
       <use xlink:href="#mea7a80b1a5" x="122.463874" y="172.796825" style="stroke: #000000; stroke-width: 0.8"/>
      </g>
     </g>
     <g id="text_2">
      <!-- −0.5 -->
      <g transform="translate(110.322468 187.395263) scale(0.1 -0.1)">
       <defs>
        <path id="DejaVuSans-35" d="M 691 4666 
L 3169 4666 
L 3169 4134 
L 1269 4134 
L 1269 2991 
Q 1406 3038 1543 3061 
Q 1681 3084 1819 3084 
Q 2600 3084 3056 2656 
Q 3513 2228 3513 1497 
Q 3513 744 3044 326 
Q 2575 -91 1722 -91 
Q 1428 -91 1123 -41 
Q 819 9 494 109 
L 494 744 
Q 775 591 1075 516 
Q 1375 441 1709 441 
Q 2250 441 2565 725 
Q 2881 1009 2881 1497 
Q 2881 1984 2565 2268 
Q 2250 2553 1709 2553 
Q 1456 2553 1204 2497 
Q 953 2441 691 2322 
L 691 4666 
z
" transform="scale(0.015625)"/>
       </defs>
       <use xlink:href="#DejaVuSans-2212"/>
       <use xlink:href="#DejaVuSans-30" transform="translate(83.789062 0)"/>
       <use xlink:href="#DejaVuSans-2e" transform="translate(147.412109 0)"/>
       <use xlink:href="#DejaVuSans-35" transform="translate(179.199219 0)"/>
      </g>
     </g>
    </g>
    <g id="xtick_3">
     <g id="line2d_3">
      <g>
       <use xlink:href="#mea7a80b1a5" x="232.313266" y="172.796825" style="stroke: #000000; stroke-width: 0.8"/>
      </g>
     </g>
    </g>
    <g id="xtick_4">
     <g id="line2d_4">
      <g>
       <use xlink:href="#mea7a80b1a5" x="342.162657" y="172.796825" style="stroke: #000000; stroke-width: 0.8"/>
      </g>
     </g>
     <g id="text_3">
      <!-- 0.5 -->
      <g transform="translate(334.211095 187.395263) scale(0.1 -0.1)">
       <use xlink:href="#DejaVuSans-30"/>
       <use xlink:href="#DejaVuSans-2e" transform="translate(63.623047 0)"/>
       <use xlink:href="#DejaVuSans-35" transform="translate(95.410156 0)"/>
      </g>
     </g>
    </g>
    <g id="xtick_5">
     <g id="line2d_5">
      <g>
       <use xlink:href="#mea7a80b1a5" x="452.012049" y="172.796825" style="stroke: #000000; stroke-width: 0.8"/>
      </g>
     </g>
     <g id="text_4">
      <!-- 1.0 -->
      <g transform="translate(444.060486 187.395263) scale(0.1 -0.1)">
       <use xlink:href="#DejaVuSans-31"/>
       <use xlink:href="#DejaVuSans-2e" transform="translate(63.623047 0)"/>
       <use xlink:href="#DejaVuSans-30" transform="translate(95.410156 0)"/>
      </g>
     </g>
    </g>
    <g id="xtick_6">
     <g id="line2d_6">
      <defs>
       <path id="m934f720e0b" d="M 0 0 
L 0 2 
" style="stroke: #000000; stroke-width: 0.6"/>
      </defs>
      <g>
       <use xlink:href="#m934f720e0b" x="34.584361" y="172.796825" style="stroke: #000000; stroke-width: 0.6"/>
      </g>
     </g>
    </g>
    <g id="xtick_7">
     <g id="line2d_7">
      <g>
       <use xlink:href="#m934f720e0b" x="56.554239" y="172.796825" style="stroke: #000000; stroke-width: 0.6"/>
      </g>
     </g>
    </g>
    <g id="xtick_8">
     <g id="line2d_8">
      <g>
       <use xlink:href="#m934f720e0b" x="78.524117" y="172.796825" style="stroke: #000000; stroke-width: 0.6"/>
      </g>
     </g>
    </g>
    <g id="xtick_9">
     <g id="line2d_9">
      <g>
       <use xlink:href="#m934f720e0b" x="100.493996" y="172.796825" style="stroke: #000000; stroke-width: 0.6"/>
      </g>
     </g>
    </g>
    <g id="xtick_10">
     <g id="line2d_10">
      <g>
       <use xlink:href="#m934f720e0b" x="144.433752" y="172.796825" style="stroke: #000000; stroke-width: 0.6"/>
      </g>
     </g>
    </g>
    <g id="xtick_11">
     <g id="line2d_11">
      <g>
       <use xlink:href="#m934f720e0b" x="166.403631" y="172.796825" style="stroke: #000000; stroke-width: 0.6"/>
      </g>
     </g>
    </g>
    <g id="xtick_12">
     <g id="line2d_12">
      <g>
       <use xlink:href="#m934f720e0b" x="188.373509" y="172.796825" style="stroke: #000000; stroke-width: 0.6"/>
      </g>
     </g>
    </g>
    <g id="xtick_13">
     <g id="line2d_13">
      <g>
       <use xlink:href="#m934f720e0b" x="210.343387" y="172.796825" style="stroke: #000000; stroke-width: 0.6"/>
      </g>
     </g>
    </g>
    <g id="xtick_14">
     <g id="line2d_14">
      <g>
       <use xlink:href="#m934f720e0b" x="254.283144" y="172.796825" style="stroke: #000000; stroke-width: 0.6"/>
      </g>
     </g>
    </g>
    <g id="xtick_15">
     <g id="line2d_15">
      <g>
       <use xlink:href="#m934f720e0b" x="276.253022" y="172.796825" style="stroke: #000000; stroke-width: 0.6"/>
      </g>
     </g>
    </g>
    <g id="xtick_16">
     <g id="line2d_16">
      <g>
       <use xlink:href="#m934f720e0b" x="298.2229" y="172.796825" style="stroke: #000000; stroke-width: 0.6"/>
      </g>
     </g>
    </g>
    <g id="xtick_17">
     <g id="line2d_17">
      <g>
       <use xlink:href="#m934f720e0b" x="320.192779" y="172.796825" style="stroke: #000000; stroke-width: 0.6"/>
      </g>
     </g>
    </g>
    <g id="xtick_18">
     <g id="line2d_18">
      <g>
       <use xlink:href="#m934f720e0b" x="364.132535" y="172.796825" style="stroke: #000000; stroke-width: 0.6"/>
      </g>
     </g>
    </g>
    <g id="xtick_19">
     <g id="line2d_19">
      <g>
       <use xlink:href="#m934f720e0b" x="386.102414" y="172.796825" style="stroke: #000000; stroke-width: 0.6"/>
      </g>
     </g>
    </g>
    <g id="xtick_20">
     <g id="line2d_20">
      <g>
       <use xlink:href="#m934f720e0b" x="408.072292" y="172.796825" style="stroke: #000000; stroke-width: 0.6"/>
      </g>
     </g>
    </g>
    <g id="xtick_21">
     <g id="line2d_21">
      <g>
       <use xlink:href="#m934f720e0b" x="430.04217" y="172.796825" style="stroke: #000000; stroke-width: 0.6"/>
      </g>
     </g>
    </g>
   </g>
   <g id="matplotlib.axis_2">
    <g id="ytick_1">
     <g id="line2d_22">
      <defs>
       <path id="mde200d3096" d="M 0 0 
L -3.5 0 
" style="stroke: #000000; stroke-width: 0.8"/>
      </defs>
      <g>
       <use xlink:href="#mde200d3096" x="232.313266" y="338.953942" style="stroke: #000000; stroke-width: 0.8"/>
      </g>
     </g>
     <g id="text_5">
      <!-- −1.0 -->
      <g transform="translate(201.030453 342.75316) scale(0.1 -0.1)">
       <use xlink:href="#DejaVuSans-2212"/>
       <use xlink:href="#DejaVuSans-31" transform="translate(83.789062 0)"/>
       <use xlink:href="#DejaVuSans-2e" transform="translate(147.412109 0)"/>
       <use xlink:href="#DejaVuSans-30" transform="translate(179.199219 0)"/>
      </g>
     </g>
    </g>
    <g id="ytick_2">
     <g id="line2d_23">
      <g>
       <use xlink:href="#mde200d3096" x="232.313266" y="255.875384" style="stroke: #000000; stroke-width: 0.8"/>
      </g>
     </g>
     <g id="text_6">
      <!-- −0.5 -->
      <g transform="translate(201.030453 259.674602) scale(0.1 -0.1)">
       <use xlink:href="#DejaVuSans-2212"/>
       <use xlink:href="#DejaVuSans-30" transform="translate(83.789062 0)"/>
       <use xlink:href="#DejaVuSans-2e" transform="translate(147.412109 0)"/>
       <use xlink:href="#DejaVuSans-35" transform="translate(179.199219 0)"/>
      </g>
     </g>
    </g>
    <g id="ytick_3">
     <g id="line2d_24">
      <g>
       <use xlink:href="#mde200d3096" x="232.313266" y="172.796825" style="stroke: #000000; stroke-width: 0.8"/>
      </g>
     </g>
    </g>
    <g id="ytick_4">
     <g id="line2d_25">
      <g>
       <use xlink:href="#mde200d3096" x="232.313266" y="89.718267" style="stroke: #000000; stroke-width: 0.8"/>
      </g>
     </g>
     <g id="text_7">
      <!-- 0.5 -->
      <g transform="translate(209.410141 93.517486) scale(0.1 -0.1)">
       <use xlink:href="#DejaVuSans-30"/>
       <use xlink:href="#DejaVuSans-2e" transform="translate(63.623047 0)"/>
       <use xlink:href="#DejaVuSans-35" transform="translate(95.410156 0)"/>
      </g>
     </g>
    </g>
    <g id="ytick_5">
     <g id="line2d_26">
      <g>
       <use xlink:href="#mde200d3096" x="232.313266" y="6.639709" style="stroke: #000000; stroke-width: 0.8"/>
      </g>
     </g>
     <g id="text_8">
      <!-- 1.0 -->
      <g transform="translate(209.410141 10.438928) scale(0.1 -0.1)">
       <use xlink:href="#DejaVuSans-31"/>
       <use xlink:href="#DejaVuSans-2e" transform="translate(63.623047 0)"/>
       <use xlink:href="#DejaVuSans-30" transform="translate(95.410156 0)"/>
      </g>
     </g>
    </g>
    <g id="ytick_6">
     <g id="line2d_27">
      <defs>
       <path id="md11f87a63e" d="M 0 0 
L -2 0 
" style="stroke: #000000; stroke-width: 0.6"/>
      </defs>
      <g>
       <use xlink:href="#md11f87a63e" x="232.313266" y="322.33823" style="stroke: #000000; stroke-width: 0.6"/>
      </g>
     </g>
    </g>
    <g id="ytick_7">
     <g id="line2d_28">
      <g>
       <use xlink:href="#md11f87a63e" x="232.313266" y="305.722518" style="stroke: #000000; stroke-width: 0.6"/>
      </g>
     </g>
    </g>
    <g id="ytick_8">
     <g id="line2d_29">
      <g>
       <use xlink:href="#md11f87a63e" x="232.313266" y="289.106807" style="stroke: #000000; stroke-width: 0.6"/>
      </g>
     </g>
    </g>
    <g id="ytick_9">
     <g id="line2d_30">
      <g>
       <use xlink:href="#md11f87a63e" x="232.313266" y="272.491095" style="stroke: #000000; stroke-width: 0.6"/>
      </g>
     </g>
    </g>
    <g id="ytick_10">
     <g id="line2d_31">
      <g>
       <use xlink:href="#md11f87a63e" x="232.313266" y="239.259672" style="stroke: #000000; stroke-width: 0.6"/>
      </g>
     </g>
    </g>
    <g id="ytick_11">
     <g id="line2d_32">
      <g>
       <use xlink:href="#md11f87a63e" x="232.313266" y="222.64396" style="stroke: #000000; stroke-width: 0.6"/>
      </g>
     </g>
    </g>
    <g id="ytick_12">
     <g id="line2d_33">
      <g>
       <use xlink:href="#md11f87a63e" x="232.313266" y="206.028249" style="stroke: #000000; stroke-width: 0.6"/>
      </g>
     </g>
    </g>
    <g id="ytick_13">
     <g id="line2d_34">
      <g>
       <use xlink:href="#md11f87a63e" x="232.313266" y="189.412537" style="stroke: #000000; stroke-width: 0.6"/>
      </g>
     </g>
    </g>
    <g id="ytick_14">
     <g id="line2d_35">
      <g>
       <use xlink:href="#md11f87a63e" x="232.313266" y="156.181114" style="stroke: #000000; stroke-width: 0.6"/>
      </g>
     </g>
    </g>
    <g id="ytick_15">
     <g id="line2d_36">
      <g>
       <use xlink:href="#md11f87a63e" x="232.313266" y="139.565402" style="stroke: #000000; stroke-width: 0.6"/>
      </g>
     </g>
    </g>
    <g id="ytick_16">
     <g id="line2d_37">
      <g>
       <use xlink:href="#md11f87a63e" x="232.313266" y="122.94969" style="stroke: #000000; stroke-width: 0.6"/>
      </g>
     </g>
    </g>
    <g id="ytick_17">
     <g id="line2d_38">
      <g>
       <use xlink:href="#md11f87a63e" x="232.313266" y="106.333979" style="stroke: #000000; stroke-width: 0.6"/>
      </g>
     </g>
    </g>
    <g id="ytick_18">
     <g id="line2d_39">
      <g>
       <use xlink:href="#md11f87a63e" x="232.313266" y="73.102556" style="stroke: #000000; stroke-width: 0.6"/>
      </g>
     </g>
    </g>
    <g id="ytick_19">
     <g id="line2d_40">
      <g>
       <use xlink:href="#md11f87a63e" x="232.313266" y="56.486844" style="stroke: #000000; stroke-width: 0.6"/>
      </g>
     </g>
    </g>
    <g id="ytick_20">
     <g id="line2d_41">
      <g>
       <use xlink:href="#md11f87a63e" x="232.313266" y="39.871132" style="stroke: #000000; stroke-width: 0.6"/>
      </g>
     </g>
    </g>
    <g id="ytick_21">
     <g id="line2d_42">
      <g>
       <use xlink:href="#md11f87a63e" x="232.313266" y="23.255421" style="stroke: #000000; stroke-width: 0.6"/>
      </g>
     </g>
    </g>
   </g>
   <g id="line2d_43">
    <path d="M 12.614482 312.613218 
L 54.841148 329.83374 
L 62.441877 332.598593 
L 69.793309 334.9864 
L 75.34897 336.527085 
L 78.310859 337.229352 
L 84.016095 338.29158 
L 87.817833 338.743443 
L 91.687679 338.947939 
L 95.769377 338.832717 
L 99.337308 338.404137 
L 101.842129 337.892521 
L 104.799082 337.034671 
L 107.564848 335.953186 
L 109.949251 334.778538 
L 112.167975 333.462438 
L 115.09663 331.359918 
L 117.200267 329.56636 
L 118.898995 327.928585 
L 121.584476 324.962257 
L 124.111987 321.706843 
L 126.126478 318.757529 
L 128.373838 315.060909 
L 130.322133 311.479747 
L 132.572957 306.868958 
L 134.661613 302.097858 
L 136.926741 296.340871 
L 139.355378 289.435338 
L 141.123972 283.890391 
L 143.399079 276.067197 
L 145.943867 266.325488 
L 148.277481 256.399464 
L 150.564446 245.683298 
L 153.00668 233.090302 
L 155.43782 219.312006 
L 158.185362 202.186252 
L 160.506156 186.410413 
L 163.242804 166.285211 
L 166.439205 140.839028 
L 169.755264 112.660925 
L 177.116806 49.211898 
L 178.943069 35.27626 
L 180.600544 24.203227 
L 181.875927 17.087761 
L 183.006 12.083357 
L 183.821097 9.377571 
L 184.571276 7.654835 
L 185.191171 6.847847 
L 185.604435 6.646154 
L 186.017698 6.73116 
L 186.400458 7.079113 
L 186.928842 8.008618 
L 187.457226 9.489512 
L 188.161739 12.380319 
L 188.866251 16.392106 
L 189.616931 21.98975 
L 190.383001 29.203508 
L 191.340587 40.490784 
L 192.430543 56.585685 
L 193.508254 76.040579 
L 194.674835 101.108475 
L 195.94747 133.005954 
L 197.655887 182.093128 
L 201.746625 303.400127 
L 202.642855 322.460242 
L 203.343772 332.92607 
L 203.81105 337.189769 
L 204.122569 338.6482 
L 204.356208 338.952292 
L 204.524664 338.728536 
L 204.749272 337.82732 
L 205.030031 335.689944 
L 205.423095 330.714208 
L 205.87231 322.045499 
L 206.359226 308.898121 
L 206.977693 286.447345 
L 207.699238 252.314286 
L 208.626938 197.534398 
L 211.28811 30.818675 
L 211.799981 13.365622 
L 212.183885 7.187722 
L 212.311853 6.650526 
L 212.439821 6.931944 
L 212.695757 10.069778 
L 212.951693 16.80368 
L 213.335597 33.915239 
L 213.847469 69.776636 
L 214.544365 139.438103 
L 216.256056 322.055452 
L 216.600526 336.963006 
L 216.7602 338.943121 
L 216.792135 338.928057 
L 216.88794 338.028973 
L 217.047614 333.600225 
L 217.303093 318.653809 
L 217.668908 280.558474 
L 218.169727 201.636825 
L 219.254836 23.505804 
L 219.505245 7.94733 
L 219.588715 6.65379 
L 219.672185 7.486269 
L 219.839125 15.79885 
L 220.093967 45.808894 
L 220.489528 128.734873 
L 221.368553 329.05938 
L 221.516363 338.523012 
L 221.620221 337.645054 
L 221.827938 315.937708 
L 222.139513 236.96266 
L 222.866522 14.327393 
L 222.970381 6.822057 
L 223.074239 10.553863 
L 223.281956 52.865454 
L 223.69739 232.348076 
L 224.008965 333.890294 
L 224.112824 338.317509 
L 224.216682 323.743754 
L 224.424399 241.324123 
L 224.911207 8.878991 
L 224.998824 9.666731 
L 225.174057 73.251959 
L 225.61214 335.596557 
L 225.699756 334.464956 
L 225.87499 242.616052 
L 226.225456 6.772628 
L 226.313073 25.954718 
L 226.751155 334.606 
L 226.926389 182.201502 
L 227.101622 12.060091 
L 227.189238 24.259139 
L 227.452088 328.388494 
L 227.539705 320.862378 
L 227.808371 7.097171 
L 227.862104 41.834877 
L 228.077038 338.899458 
L 228.130771 300.744838 
L 228.291971 16.376031 
L 228.345704 19.490958 
L 228.506904 325.797284 
L 228.560637 324.114567 
L 228.721837 7.28216 
L 228.77557 62.039044 
L 228.883037 328.605245 
L 228.93677 303.604333 
L 229.044237 16.046952 
L 229.09797 55.262069 
L 229.205437 338.950738 
L 229.25917 225.196931 
L 229.335817 6.771536 
L 229.48911 285.700665 
L 229.565757 8.449035 
L 229.642403 263.32869 
L 229.71905 195.168736 
L 229.795697 65.966048 
L 229.872343 320.855711 
L 229.94899 11.698034 
L 230.025637 334.977818 
L 230.102284 20.205789 
L 230.17893 284.477698 
L 230.332224 38.138151 
L 230.40887 300.313941 
L 230.485517 294.435026 
L 230.638811 60.667157 
L 230.715457 61.992977 
L 230.868751 332.687752 
L 230.945397 109.199903 
L 231.022044 252.750619 
L 231.175337 8.238247 
L 231.328631 160.492616 
L 231.405278 162.904001 
L 231.558571 317.630808 
L 231.635218 103.143166 
L 231.711864 301.574033 
L 231.799642 250.486128 
L 231.88742 278.716156 
L 231.975198 243.913199 
L 232.062976 13.814904 
L 232.150755 314.024311 
L 232.238533 59.806838 
L 232.326311 90.196259 
L 232.414089 328.412141 
L 232.501867 72.915578 
L 232.589645 188.584939 
L 232.677423 152.610989 
L 232.765201 51.547318 
L 232.940757 336.693664 
L 233.116313 215.961501 
L 233.204091 6.646179 
L 233.291869 337.728874 
L 233.379647 333.854933 
L 233.467425 13.462594 
L 233.555203 35.65727 
L 233.642981 13.519801 
L 233.730759 317.17148 
L 233.818537 8.06646 
L 233.994093 329.848313 
L 234.081871 337.582966 
L 234.169649 315.482259 
L 234.345205 12.321401 
L 234.520761 313.236624 
L 234.612344 12.185579 
L 234.703927 291.124321 
L 234.749719 39.143616 
L 234.79551 86.869072 
L 234.841302 317.718292 
L 234.887093 257.621698 
L 234.932885 37.034813 
L 234.978676 60.212799 
L 235.070259 324.322857 
L 235.161842 8.678052 
L 235.207633 92.06073 
L 235.299216 333.791354 
L 235.345008 207.360802 
L 235.436591 16.403781 
L 235.573965 336.657891 
L 235.619757 248.231867 
L 235.71134 11.857258 
L 235.757131 36.455101 
L 235.894505 338.338834 
L 235.940297 301.109875 
L 236.090748 6.776902 
L 236.143078 51.681267 
L 236.300068 337.58098 
L 236.352398 311.296199 
L 236.561718 7.907562 
L 236.614048 51.542486 
L 236.823367 338.927285 
L 237.165908 13.066642 
L 237.508448 337.707625 
L 237.736808 118.585025 
L 237.850989 19.96496 
L 237.965169 19.643746 
L 238.421889 336.752405 
L 238.65025 191.330911 
L 238.87861 25.162644 
L 238.99279 7.394326 
L 239.10697 40.33495 
L 239.677871 338.938984 
L 239.792051 321.022566 
L 240.134591 142.294455 
L 240.477132 10.206772 
L 240.565441 7.176483 
L 240.74206 39.351294 
L 241.183606 232.097949 
L 241.536843 333.483538 
L 241.625152 338.871909 
L 241.713462 335.956868 
L 241.89008 307.907754 
L 242.243317 194.910965 
L 242.773173 34.135961 
L 243.038101 6.987336 
L 243.12641 7.513501 
L 243.326478 24.784275 
L 243.60787 78.689365 
L 244.724065 324.277296 
L 244.975562 338.525038 
L 245.059395 338.805667 
L 245.227059 333.108574 
L 245.478556 310.768058 
L 245.897718 247.282931 
L 247.113491 46.478102 
L 247.490942 16.038682 
L 247.742576 7.501402 
L 247.868393 6.654371 
L 247.99421 7.969655 
L 248.182935 13.731836 
L 248.497477 32.221283 
L 248.953488 74.03494 
L 251.201631 306.480394 
L 251.712573 330.014869 
L 252.080634 337.785928 
L 252.29587 338.953846 
L 252.388115 338.732853 
L 252.541855 337.447305 
L 252.78784 333.142841 
L 253.113992 323.584466 
L 253.613113 301.891145 
L 254.389523 256.369333 
L 257.271897 75.948228 
L 258.020147 44.894597 
L 258.64369 26.185619 
L 259.262121 13.9851 
L 259.694128 9.030022 
L 260.042594 7.035017 
L 260.233761 6.657775 
L 260.329344 6.651872 
L 260.520511 6.993249 
L 260.807261 8.35059 
L 261.189594 11.6305 
L 261.667511 17.859153 
L 262.336595 29.974062 
L 263.242502 51.301898 
L 264.526471 87.802932 
L 268.95435 219.866511 
L 270.336916 253.218975 
L 271.657541 279.733488 
L 272.843227 298.992078 
L 273.908429 312.734328 
L 274.855275 322.275692 
L 275.683765 328.694968 
L 276.393899 332.861696 
L 277.102783 335.876921 
L 277.811666 337.831022 
L 278.284255 338.584631 
L 278.651138 338.884813 
L 279.01802 338.948084 
L 279.384903 338.785282 
L 279.751786 338.407046 
L 280.336011 337.385737 
L 280.920235 335.885299 
L 281.655032 333.378092 
L 282.345658 330.45316 
L 283.381598 325.160857 
L 284.635296 317.531592 
L 286.324509 305.598917 
L 288.455619 288.661589 
L 292.273321 255.716228 
L 297.884312 207.263754 
L 301.297068 179.971802 
L 304.407834 157.164118 
L 307.008185 139.735829 
L 309.573629 124.015274 
L 312.305359 108.844953 
L 315.044748 95.18189 
L 317.24721 85.256853 
L 319.70827 75.210862 
L 322.088558 66.470733 
L 324.384493 58.881654 
L 326.918378 51.388755 
L 328.878337 46.178698 
L 331.032602 40.995155 
L 333.482825 35.735925 
L 335.751635 31.419129 
L 338.368 27.041143 
L 340.533928 23.860009 
L 342.388421 21.428224 
L 344.242913 19.24534 
L 346.43855 16.95809 
L 348.837231 14.796836 
L 351.324034 12.894084 
L 354.082329 11.146053 
L 357.323722 9.525531 
L 360.139219 8.45461 
L 362.388748 7.799336 
L 365.274932 7.191915 
L 368.514675 6.787967 
L 371.356169 6.646868 
L 373.971022 6.672554 
L 378.364685 7.007409 
L 382.561339 7.61778 
L 386.953356 8.507609 
L 392.315389 9.876203 
L 398.915751 11.891639 
L 404.691184 13.879218 
L 413.870984 17.333064 
L 425.107343 21.852038 
L 452.012049 32.980433 
L 452.012049 32.980433 
" clip-path="url(#p7d2359de3f)" style="fill: none; stroke: #0000ff; stroke-linecap: square"/>
   </g>
   <g id="patch_3">
    <path d="M 232.313266 345.6 
L 232.313266 0 
" style="fill: none; stroke: #000000; stroke-width: 0.8; stroke-linejoin: miter; stroke-linecap: square"/>
   </g>
   <g id="patch_4">
    <path d="M 3.826531 172.796825 
L 460.8 172.796825 
" style="fill: none; stroke: #000000; stroke-width: 0.8; stroke-linejoin: miter; stroke-linecap: square"/>
   </g>
  </g>
 </g>
 <defs>
  <clipPath id="p7d2359de3f">
   <rect x="3.826531" y="0" width="456.973469" height="345.6"/>
  </clipPath>
 </defs>
</svg>
