<?xml version="1.0" encoding="utf-8" standalone="no"?>
<!DOCTYPE svg PUBLIC "-//W3C//DTD SVG 1.1//EN"
  "http://www.w3.org/Graphics/SVG/1.1/DTD/svg11.dtd">
<svg xmlns:xlink="http://www.w3.org/1999/xlink" width="460.8pt" height="345.6pt" viewBox="0 0 460.8 345.6" xmlns="http://www.w3.org/2000/svg" version="1.1">
 <metadata>
  <rdf:RDF xmlns:dc="http://purl.org/dc/elements/1.1/" xmlns:cc="http://creativecommons.org/ns#" xmlns:rdf="http://www.w3.org/1999/02/22-rdf-syntax-ns#">
   <cc:Work>
    <dc:type rdf:resource="http://purl.org/dc/dcmitype/StillImage"/>
    <dc:date>2025-08-04T20:47:55.215670</dc:date>
    <dc:format>image/svg+xml</dc:format>
    <dc:creator>
     <cc:Agent>
      <dc:title>Matplotlib v3.10.3, https://matplotlib.org/</dc:title>
     </cc:Agent>
    </dc:creator>
   </cc:Work>
  </rdf:RDF>
 </metadata>
 <defs>
  <style type="text/css">*{stroke-linejoin: round; stroke-linecap: butt}</style>
 </defs>
 <g id="figure_1">
  <g id="patch_1">
   <path d="M 0 345.6 
L 460.8 345.6 
L 460.8 0 
L 0 0 
z
" style="fill: #ffffff"/>
  </g>
  <g id="axes_1">
   <g id="patch_2">
    <path d="M 57.598436 345.6 
L 403.201564 345.6 
L 403.201564 0 
L 57.598436 0 
z
" style="fill: #ffffff"/>
   </g>
   <g id="matplotlib.axis_1">
    <g id="xtick_1">
     <g id="line2d_1">
      <defs>
       <path id="m0302b97350" d="M 0 0 
L 0 3.5 
" style="stroke: #000000; stroke-width: 0.8"/>
      </defs>
      <g>
       <use xlink:href="#m0302b97350" x="64.244122" y="228.184902" style="stroke: #000000; stroke-width: 0.8"/>
      </g>
     </g>
     <g id="text_1">
      <!-- −1.0 -->
      <g transform="translate(52.102716 242.783339) scale(0.1 -0.1)">
       <defs>
        <path id="DejaVuSans-2212" d="M 678 2272 
L 4684 2272 
L 4684 1741 
L 678 1741 
L 678 2272 
z
" transform="scale(0.015625)"/>
        <path id="DejaVuSans-31" d="M 794 531 
L 1825 531 
L 1825 4091 
L 703 3866 
L 703 4441 
L 1819 4666 
L 2450 4666 
L 2450 531 
L 3481 531 
L 3481 0 
L 794 0 
L 794 531 
z
" transform="scale(0.015625)"/>
        <path id="DejaVuSans-2e" d="M 684 794 
L 1344 794 
L 1344 0 
L 684 0 
L 684 794 
z
" transform="scale(0.015625)"/>
        <path id="DejaVuSans-30" d="M 2034 4250 
Q 1547 4250 1301 3770 
Q 1056 3291 1056 2328 
Q 1056 1369 1301 889 
Q 1547 409 2034 409 
Q 2525 409 2770 889 
Q 3016 1369 3016 2328 
Q 3016 3291 2770 3770 
Q 2525 4250 2034 4250 
z
M 2034 4750 
Q 2819 4750 3233 4129 
Q 3647 3509 3647 2328 
Q 3647 1150 3233 529 
Q 2819 -91 2034 -91 
Q 1250 -91 836 529 
Q 422 1150 422 2328 
Q 422 3509 836 4129 
Q 1250 4750 2034 4750 
z
" transform="scale(0.015625)"/>
       </defs>
       <use xlink:href="#DejaVuSans-2212"/>
       <use xlink:href="#DejaVuSans-31" transform="translate(83.789062 0)"/>
       <use xlink:href="#DejaVuSans-2e" transform="translate(147.412109 0)"/>
       <use xlink:href="#DejaVuSans-30" transform="translate(179.199219 0)"/>
      </g>
     </g>
    </g>
    <g id="xtick_2">
     <g id="line2d_2">
      <g>
       <use xlink:href="#m0302b97350" x="119.629327" y="228.184902" style="stroke: #000000; stroke-width: 0.8"/>
      </g>
     </g>
     <g id="text_2">
      <!-- −0.5 -->
      <g transform="translate(107.487921 242.783339) scale(0.1 -0.1)">
       <defs>
        <path id="DejaVuSans-35" d="M 691 4666 
L 3169 4666 
L 3169 4134 
L 1269 4134 
L 1269 2991 
Q 1406 3038 1543 3061 
Q 1681 3084 1819 3084 
Q 2600 3084 3056 2656 
Q 3513 2228 3513 1497 
Q 3513 744 3044 326 
Q 2575 -91 1722 -91 
Q 1428 -91 1123 -41 
Q 819 9 494 109 
L 494 744 
Q 775 591 1075 516 
Q 1375 441 1709 441 
Q 2250 441 2565 725 
Q 2881 1009 2881 1497 
Q 2881 1984 2565 2268 
Q 2250 2553 1709 2553 
Q 1456 2553 1204 2497 
Q 953 2441 691 2322 
L 691 4666 
z
" transform="scale(0.015625)"/>
       </defs>
       <use xlink:href="#DejaVuSans-2212"/>
       <use xlink:href="#DejaVuSans-30" transform="translate(83.789062 0)"/>
       <use xlink:href="#DejaVuSans-2e" transform="translate(147.412109 0)"/>
       <use xlink:href="#DejaVuSans-35" transform="translate(179.199219 0)"/>
      </g>
     </g>
    </g>
    <g id="xtick_3">
     <g id="line2d_3">
      <g>
       <use xlink:href="#m0302b97350" x="175.014532" y="228.184902" style="stroke: #000000; stroke-width: 0.8"/>
      </g>
     </g>
    </g>
    <g id="xtick_4">
     <g id="line2d_4">
      <g>
       <use xlink:href="#m0302b97350" x="230.399736" y="228.184902" style="stroke: #000000; stroke-width: 0.8"/>
      </g>
     </g>
     <g id="text_3">
      <!-- 0.5 -->
      <g transform="translate(222.448174 242.783339) scale(0.1 -0.1)">
       <use xlink:href="#DejaVuSans-30"/>
       <use xlink:href="#DejaVuSans-2e" transform="translate(63.623047 0)"/>
       <use xlink:href="#DejaVuSans-35" transform="translate(95.410156 0)"/>
      </g>
     </g>
    </g>
    <g id="xtick_5">
     <g id="line2d_5">
      <g>
       <use xlink:href="#m0302b97350" x="285.784941" y="228.184902" style="stroke: #000000; stroke-width: 0.8"/>
      </g>
     </g>
     <g id="text_4">
      <!-- 1.0 -->
      <g transform="translate(277.833378 242.783339) scale(0.1 -0.1)">
       <use xlink:href="#DejaVuSans-31"/>
       <use xlink:href="#DejaVuSans-2e" transform="translate(63.623047 0)"/>
       <use xlink:href="#DejaVuSans-30" transform="translate(95.410156 0)"/>
      </g>
     </g>
    </g>
    <g id="xtick_6">
     <g id="line2d_6">
      <g>
       <use xlink:href="#m0302b97350" x="341.170146" y="228.184902" style="stroke: #000000; stroke-width: 0.8"/>
      </g>
     </g>
     <g id="text_5">
      <!-- 1.5 -->
      <g transform="translate(333.218583 242.783339) scale(0.1 -0.1)">
       <use xlink:href="#DejaVuSans-31"/>
       <use xlink:href="#DejaVuSans-2e" transform="translate(63.623047 0)"/>
       <use xlink:href="#DejaVuSans-35" transform="translate(95.410156 0)"/>
      </g>
     </g>
    </g>
    <g id="xtick_7">
     <g id="line2d_7">
      <g>
       <use xlink:href="#m0302b97350" x="396.55535" y="228.184902" style="stroke: #000000; stroke-width: 0.8"/>
      </g>
     </g>
     <g id="text_6">
      <!-- 2.0 -->
      <g transform="translate(388.603788 242.783339) scale(0.1 -0.1)">
       <defs>
        <path id="DejaVuSans-32" d="M 1228 531 
L 3431 531 
L 3431 0 
L 469 0 
L 469 531 
Q 828 903 1448 1529 
Q 2069 2156 2228 2338 
Q 2531 2678 2651 2914 
Q 2772 3150 2772 3378 
Q 2772 3750 2511 3984 
Q 2250 4219 1831 4219 
Q 1534 4219 1204 4116 
Q 875 4013 500 3803 
L 500 4441 
Q 881 4594 1212 4672 
Q 1544 4750 1819 4750 
Q 2544 4750 2975 4387 
Q 3406 4025 3406 3419 
Q 3406 3131 3298 2873 
Q 3191 2616 2906 2266 
Q 2828 2175 2409 1742 
Q 1991 1309 1228 531 
z
" transform="scale(0.015625)"/>
       </defs>
       <use xlink:href="#DejaVuSans-32"/>
       <use xlink:href="#DejaVuSans-2e" transform="translate(63.623047 0)"/>
       <use xlink:href="#DejaVuSans-30" transform="translate(95.410156 0)"/>
      </g>
     </g>
    </g>
    <g id="xtick_8">
     <g id="line2d_8">
      <defs>
       <path id="mbbb3205604" d="M 0 0 
L 0 2 
" style="stroke: #000000; stroke-width: 0.6"/>
      </defs>
      <g>
       <use xlink:href="#mbbb3205604" x="75.321163" y="228.184902" style="stroke: #000000; stroke-width: 0.6"/>
      </g>
     </g>
    </g>
    <g id="xtick_9">
     <g id="line2d_9">
      <g>
       <use xlink:href="#mbbb3205604" x="86.398204" y="228.184902" style="stroke: #000000; stroke-width: 0.6"/>
      </g>
     </g>
    </g>
    <g id="xtick_10">
     <g id="line2d_10">
      <g>
       <use xlink:href="#mbbb3205604" x="97.475245" y="228.184902" style="stroke: #000000; stroke-width: 0.6"/>
      </g>
     </g>
    </g>
    <g id="xtick_11">
     <g id="line2d_11">
      <g>
       <use xlink:href="#mbbb3205604" x="108.552286" y="228.184902" style="stroke: #000000; stroke-width: 0.6"/>
      </g>
     </g>
    </g>
    <g id="xtick_12">
     <g id="line2d_12">
      <g>
       <use xlink:href="#mbbb3205604" x="130.706368" y="228.184902" style="stroke: #000000; stroke-width: 0.6"/>
      </g>
     </g>
    </g>
    <g id="xtick_13">
     <g id="line2d_13">
      <g>
       <use xlink:href="#mbbb3205604" x="141.783409" y="228.184902" style="stroke: #000000; stroke-width: 0.6"/>
      </g>
     </g>
    </g>
    <g id="xtick_14">
     <g id="line2d_14">
      <g>
       <use xlink:href="#mbbb3205604" x="152.86045" y="228.184902" style="stroke: #000000; stroke-width: 0.6"/>
      </g>
     </g>
    </g>
    <g id="xtick_15">
     <g id="line2d_15">
      <g>
       <use xlink:href="#mbbb3205604" x="163.937491" y="228.184902" style="stroke: #000000; stroke-width: 0.6"/>
      </g>
     </g>
    </g>
    <g id="xtick_16">
     <g id="line2d_16">
      <g>
       <use xlink:href="#mbbb3205604" x="186.091572" y="228.184902" style="stroke: #000000; stroke-width: 0.6"/>
      </g>
     </g>
    </g>
    <g id="xtick_17">
     <g id="line2d_17">
      <g>
       <use xlink:href="#mbbb3205604" x="197.168613" y="228.184902" style="stroke: #000000; stroke-width: 0.6"/>
      </g>
     </g>
    </g>
    <g id="xtick_18">
     <g id="line2d_18">
      <g>
       <use xlink:href="#mbbb3205604" x="208.245654" y="228.184902" style="stroke: #000000; stroke-width: 0.6"/>
      </g>
     </g>
    </g>
    <g id="xtick_19">
     <g id="line2d_19">
      <g>
       <use xlink:href="#mbbb3205604" x="219.322695" y="228.184902" style="stroke: #000000; stroke-width: 0.6"/>
      </g>
     </g>
    </g>
    <g id="xtick_20">
     <g id="line2d_20">
      <g>
       <use xlink:href="#mbbb3205604" x="241.476777" y="228.184902" style="stroke: #000000; stroke-width: 0.6"/>
      </g>
     </g>
    </g>
    <g id="xtick_21">
     <g id="line2d_21">
      <g>
       <use xlink:href="#mbbb3205604" x="252.553818" y="228.184902" style="stroke: #000000; stroke-width: 0.6"/>
      </g>
     </g>
    </g>
    <g id="xtick_22">
     <g id="line2d_22">
      <g>
       <use xlink:href="#mbbb3205604" x="263.630859" y="228.184902" style="stroke: #000000; stroke-width: 0.6"/>
      </g>
     </g>
    </g>
    <g id="xtick_23">
     <g id="line2d_23">
      <g>
       <use xlink:href="#mbbb3205604" x="274.7079" y="228.184902" style="stroke: #000000; stroke-width: 0.6"/>
      </g>
     </g>
    </g>
    <g id="xtick_24">
     <g id="line2d_24">
      <g>
       <use xlink:href="#mbbb3205604" x="296.861982" y="228.184902" style="stroke: #000000; stroke-width: 0.6"/>
      </g>
     </g>
    </g>
    <g id="xtick_25">
     <g id="line2d_25">
      <g>
       <use xlink:href="#mbbb3205604" x="307.939023" y="228.184902" style="stroke: #000000; stroke-width: 0.6"/>
      </g>
     </g>
    </g>
    <g id="xtick_26">
     <g id="line2d_26">
      <g>
       <use xlink:href="#mbbb3205604" x="319.016064" y="228.184902" style="stroke: #000000; stroke-width: 0.6"/>
      </g>
     </g>
    </g>
    <g id="xtick_27">
     <g id="line2d_27">
      <g>
       <use xlink:href="#mbbb3205604" x="330.093105" y="228.184902" style="stroke: #000000; stroke-width: 0.6"/>
      </g>
     </g>
    </g>
    <g id="xtick_28">
     <g id="line2d_28">
      <g>
       <use xlink:href="#mbbb3205604" x="352.247187" y="228.184902" style="stroke: #000000; stroke-width: 0.6"/>
      </g>
     </g>
    </g>
    <g id="xtick_29">
     <g id="line2d_29">
      <g>
       <use xlink:href="#mbbb3205604" x="363.324228" y="228.184902" style="stroke: #000000; stroke-width: 0.6"/>
      </g>
     </g>
    </g>
    <g id="xtick_30">
     <g id="line2d_30">
      <g>
       <use xlink:href="#mbbb3205604" x="374.401269" y="228.184902" style="stroke: #000000; stroke-width: 0.6"/>
      </g>
     </g>
    </g>
    <g id="xtick_31">
     <g id="line2d_31">
      <g>
       <use xlink:href="#mbbb3205604" x="385.478309" y="228.184902" style="stroke: #000000; stroke-width: 0.6"/>
      </g>
     </g>
    </g>
   </g>
   <g id="matplotlib.axis_2">
    <g id="ytick_1">
     <g id="line2d_32">
      <defs>
       <path id="m83080bd3d1" d="M 0 0 
L -3.5 0 
" style="stroke: #000000; stroke-width: 0.8"/>
      </defs>
      <g>
       <use xlink:href="#m83080bd3d1" x="175.014532" y="338.955311" style="stroke: #000000; stroke-width: 0.8"/>
      </g>
     </g>
     <g id="text_7">
      <!-- −1.0 -->
      <g transform="translate(143.731719 342.75453) scale(0.1 -0.1)">
       <use xlink:href="#DejaVuSans-2212"/>
       <use xlink:href="#DejaVuSans-31" transform="translate(83.789062 0)"/>
       <use xlink:href="#DejaVuSans-2e" transform="translate(147.412109 0)"/>
       <use xlink:href="#DejaVuSans-30" transform="translate(179.199219 0)"/>
      </g>
     </g>
    </g>
    <g id="ytick_2">
     <g id="line2d_33">
      <g>
       <use xlink:href="#m83080bd3d1" x="175.014532" y="283.570106" style="stroke: #000000; stroke-width: 0.8"/>
      </g>
     </g>
     <g id="text_8">
      <!-- −0.5 -->
      <g transform="translate(143.731719 287.369325) scale(0.1 -0.1)">
       <use xlink:href="#DejaVuSans-2212"/>
       <use xlink:href="#DejaVuSans-30" transform="translate(83.789062 0)"/>
       <use xlink:href="#DejaVuSans-2e" transform="translate(147.412109 0)"/>
       <use xlink:href="#DejaVuSans-35" transform="translate(179.199219 0)"/>
      </g>
     </g>
    </g>
    <g id="ytick_3">
     <g id="line2d_34">
      <g>
       <use xlink:href="#m83080bd3d1" x="175.014532" y="228.184902" style="stroke: #000000; stroke-width: 0.8"/>
      </g>
     </g>
    </g>
    <g id="ytick_4">
     <g id="line2d_35">
      <g>
       <use xlink:href="#m83080bd3d1" x="175.014532" y="172.799697" style="stroke: #000000; stroke-width: 0.8"/>
      </g>
     </g>
     <g id="text_9">
      <!-- 0.5 -->
      <g transform="translate(152.111407 176.598916) scale(0.1 -0.1)">
       <use xlink:href="#DejaVuSans-30"/>
       <use xlink:href="#DejaVuSans-2e" transform="translate(63.623047 0)"/>
       <use xlink:href="#DejaVuSans-35" transform="translate(95.410156 0)"/>
      </g>
     </g>
    </g>
    <g id="ytick_5">
     <g id="line2d_36">
      <g>
       <use xlink:href="#m83080bd3d1" x="175.014532" y="117.414492" style="stroke: #000000; stroke-width: 0.8"/>
      </g>
     </g>
     <g id="text_10">
      <!-- 1.0 -->
      <g transform="translate(152.111407 121.213711) scale(0.1 -0.1)">
       <use xlink:href="#DejaVuSans-31"/>
       <use xlink:href="#DejaVuSans-2e" transform="translate(63.623047 0)"/>
       <use xlink:href="#DejaVuSans-30" transform="translate(95.410156 0)"/>
      </g>
     </g>
    </g>
    <g id="ytick_6">
     <g id="line2d_37">
      <g>
       <use xlink:href="#m83080bd3d1" x="175.014532" y="62.029287" style="stroke: #000000; stroke-width: 0.8"/>
      </g>
     </g>
     <g id="text_11">
      <!-- 1.5 -->
      <g transform="translate(152.111407 65.828506) scale(0.1 -0.1)">
       <use xlink:href="#DejaVuSans-31"/>
       <use xlink:href="#DejaVuSans-2e" transform="translate(63.623047 0)"/>
       <use xlink:href="#DejaVuSans-35" transform="translate(95.410156 0)"/>
      </g>
     </g>
    </g>
    <g id="ytick_7">
     <g id="line2d_38">
      <g>
       <use xlink:href="#m83080bd3d1" x="175.014532" y="6.644083" style="stroke: #000000; stroke-width: 0.8"/>
      </g>
     </g>
     <g id="text_12">
      <!-- 2.0 -->
      <g transform="translate(152.111407 10.443301) scale(0.1 -0.1)">
       <use xlink:href="#DejaVuSans-32"/>
       <use xlink:href="#DejaVuSans-2e" transform="translate(63.623047 0)"/>
       <use xlink:href="#DejaVuSans-30" transform="translate(95.410156 0)"/>
      </g>
     </g>
    </g>
    <g id="ytick_8">
     <g id="line2d_39">
      <defs>
       <path id="mdc8dfcc726" d="M 0 0 
L -2 0 
" style="stroke: #000000; stroke-width: 0.6"/>
      </defs>
      <g>
       <use xlink:href="#mdc8dfcc726" x="175.014532" y="327.87827" style="stroke: #000000; stroke-width: 0.6"/>
      </g>
     </g>
    </g>
    <g id="ytick_9">
     <g id="line2d_40">
      <g>
       <use xlink:href="#mdc8dfcc726" x="175.014532" y="316.801229" style="stroke: #000000; stroke-width: 0.6"/>
      </g>
     </g>
    </g>
    <g id="ytick_10">
     <g id="line2d_41">
      <g>
       <use xlink:href="#mdc8dfcc726" x="175.014532" y="305.724188" style="stroke: #000000; stroke-width: 0.6"/>
      </g>
     </g>
    </g>
    <g id="ytick_11">
     <g id="line2d_42">
      <g>
       <use xlink:href="#mdc8dfcc726" x="175.014532" y="294.647147" style="stroke: #000000; stroke-width: 0.6"/>
      </g>
     </g>
    </g>
    <g id="ytick_12">
     <g id="line2d_43">
      <g>
       <use xlink:href="#mdc8dfcc726" x="175.014532" y="272.493065" style="stroke: #000000; stroke-width: 0.6"/>
      </g>
     </g>
    </g>
    <g id="ytick_13">
     <g id="line2d_44">
      <g>
       <use xlink:href="#mdc8dfcc726" x="175.014532" y="261.416024" style="stroke: #000000; stroke-width: 0.6"/>
      </g>
     </g>
    </g>
    <g id="ytick_14">
     <g id="line2d_45">
      <g>
       <use xlink:href="#mdc8dfcc726" x="175.014532" y="250.338983" style="stroke: #000000; stroke-width: 0.6"/>
      </g>
     </g>
    </g>
    <g id="ytick_15">
     <g id="line2d_46">
      <g>
       <use xlink:href="#mdc8dfcc726" x="175.014532" y="239.261943" style="stroke: #000000; stroke-width: 0.6"/>
      </g>
     </g>
    </g>
    <g id="ytick_16">
     <g id="line2d_47">
      <g>
       <use xlink:href="#mdc8dfcc726" x="175.014532" y="217.107861" style="stroke: #000000; stroke-width: 0.6"/>
      </g>
     </g>
    </g>
    <g id="ytick_17">
     <g id="line2d_48">
      <g>
       <use xlink:href="#mdc8dfcc726" x="175.014532" y="206.03082" style="stroke: #000000; stroke-width: 0.6"/>
      </g>
     </g>
    </g>
    <g id="ytick_18">
     <g id="line2d_49">
      <g>
       <use xlink:href="#mdc8dfcc726" x="175.014532" y="194.953779" style="stroke: #000000; stroke-width: 0.6"/>
      </g>
     </g>
    </g>
    <g id="ytick_19">
     <g id="line2d_50">
      <g>
       <use xlink:href="#mdc8dfcc726" x="175.014532" y="183.876738" style="stroke: #000000; stroke-width: 0.6"/>
      </g>
     </g>
    </g>
    <g id="ytick_20">
     <g id="line2d_51">
      <g>
       <use xlink:href="#mdc8dfcc726" x="175.014532" y="161.722656" style="stroke: #000000; stroke-width: 0.6"/>
      </g>
     </g>
    </g>
    <g id="ytick_21">
     <g id="line2d_52">
      <g>
       <use xlink:href="#mdc8dfcc726" x="175.014532" y="150.645615" style="stroke: #000000; stroke-width: 0.6"/>
      </g>
     </g>
    </g>
    <g id="ytick_22">
     <g id="line2d_53">
      <g>
       <use xlink:href="#mdc8dfcc726" x="175.014532" y="139.568574" style="stroke: #000000; stroke-width: 0.6"/>
      </g>
     </g>
    </g>
    <g id="ytick_23">
     <g id="line2d_54">
      <g>
       <use xlink:href="#mdc8dfcc726" x="175.014532" y="128.491533" style="stroke: #000000; stroke-width: 0.6"/>
      </g>
     </g>
    </g>
    <g id="ytick_24">
     <g id="line2d_55">
      <g>
       <use xlink:href="#mdc8dfcc726" x="175.014532" y="106.337451" style="stroke: #000000; stroke-width: 0.6"/>
      </g>
     </g>
    </g>
    <g id="ytick_25">
     <g id="line2d_56">
      <g>
       <use xlink:href="#mdc8dfcc726" x="175.014532" y="95.26041" style="stroke: #000000; stroke-width: 0.6"/>
      </g>
     </g>
    </g>
    <g id="ytick_26">
     <g id="line2d_57">
      <g>
       <use xlink:href="#mdc8dfcc726" x="175.014532" y="84.183369" style="stroke: #000000; stroke-width: 0.6"/>
      </g>
     </g>
    </g>
    <g id="ytick_27">
     <g id="line2d_58">
      <g>
       <use xlink:href="#mdc8dfcc726" x="175.014532" y="73.106328" style="stroke: #000000; stroke-width: 0.6"/>
      </g>
     </g>
    </g>
    <g id="ytick_28">
     <g id="line2d_59">
      <g>
       <use xlink:href="#mdc8dfcc726" x="175.014532" y="50.952246" style="stroke: #000000; stroke-width: 0.6"/>
      </g>
     </g>
    </g>
    <g id="ytick_29">
     <g id="line2d_60">
      <g>
       <use xlink:href="#mdc8dfcc726" x="175.014532" y="39.875206" style="stroke: #000000; stroke-width: 0.6"/>
      </g>
     </g>
    </g>
    <g id="ytick_30">
     <g id="line2d_61">
      <g>
       <use xlink:href="#mdc8dfcc726" x="175.014532" y="28.798165" style="stroke: #000000; stroke-width: 0.6"/>
      </g>
     </g>
    </g>
    <g id="ytick_31">
     <g id="line2d_62">
      <g>
       <use xlink:href="#mdc8dfcc726" x="175.014532" y="17.721124" style="stroke: #000000; stroke-width: 0.6"/>
      </g>
     </g>
    </g>
   </g>
   <g id="line2d_63">
    <path d="M 175.014532 228.184902 
L 182.941495 227.900902 
L 187.297122 227.501828 
L 195.832284 226.211113 
L 201.603654 224.946358 
L 206.452244 223.630093 
L 215.361386 220.575604 
L 220.17955 218.558967 
L 227.093299 215.178932 
L 236.406932 209.615667 
L 239.887255 207.20098 
L 248.313915 200.464381 
L 253.114072 195.967312 
L 258.492338 190.226163 
L 263.922367 183.486274 
L 268.577483 176.710847 
L 271.570257 171.701466 
L 276.234019 162.411148 
L 277.99485 158.220589 
L 279.804911 153.317973 
L 281.60003 147.57432 
L 283.209596 141.161314 
L 284.649717 133.232509 
L 285.462361 125.862017 
L 285.777997 118.654795 
L 285.722803 113.704753 
L 285.446502 108.76212 
L 284.733637 102.189466 
L 283.552474 95.287615 
L 282.579504 90.95962 
L 280.164054 82.576846 
L 277.803495 76.128748 
L 274.525268 68.755506 
L 270.884597 61.925627 
L 268.684815 58.287834 
L 265.602661 53.665967 
L 261.549264 48.26376 
L 257.856469 43.880167 
L 253.941869 39.693459 
L 250.46793 36.316599 
L 245.776948 32.19264 
L 240.591618 28.141152 
L 234.113391 23.726668 
L 229.727458 21.099492 
L 225.224972 18.677492 
L 222.288323 17.238286 
L 215.431899 14.280987 
L 210.871369 12.608143 
L 206.241882 11.136855 
L 202.211981 10.034874 
L 196.117162 8.672768 
L 191.900674 7.938733 
L 187.658977 7.368131 
L 180.886028 6.799804 
L 174.337159 6.646154 
L 168.284578 6.848714 
L 164.049509 7.188126 
L 159.830571 7.689696 
L 154.559695 8.549056 
L 149.336363 9.661463 
L 143.146541 11.327194 
L 135.523938 13.922576 
L 128.539327 16.865305 
L 121.606093 20.370057 
L 117.594906 22.688201 
L 113.68416 25.172045 
L 107.827904 29.346106 
L 105.059784 31.528423 
L 100.687757 35.282804 
L 96.516903 39.25948 
L 93.669227 42.22789 
L 89.910897 46.509944 
L 86.268964 51.124916 
L 81.358981 58.264501 
L 78.962875 62.240558 
L 76.735468 66.31352 
L 73.666498 72.708121 
L 70.540325 80.601129 
L 68.73514 86.193112 
L 67.247974 91.793161 
L 65.882042 98.435997 
L 64.983076 104.640989 
L 64.343107 112.732686 
L 64.267691 119.699424 
L 64.470523 124.493034 
L 64.964754 130.029172 
L 65.736065 135.53355 
L 66.864787 141.366867 
L 67.54784 144.265822 
L 69.368799 150.717086 
L 71.576646 157.046391 
L 72.67554 159.803339 
L 74.573453 164.122878 
L 79.612778 173.704714 
L 82.431657 178.229744 
L 88.37721 186.436649 
L 90.19939 188.663881 
L 94.545758 193.538471 
L 101.445851 200.225921 
L 104.455549 202.804852 
L 112.315871 208.732407 
L 118.113625 212.453276 
L 121.672251 214.495308 
L 129.031876 218.189881 
L 137.542844 221.65439 
L 143.099045 223.487511 
L 150.396027 225.414552 
L 156.989359 226.708484 
L 168.597269 227.99886 
L 175.834507 228.181867 
L 185.409118 227.696114 
L 190.188324 227.140695 
L 196.354035 226.109981 
L 204.991408 224.051589 
L 215.046941 220.698033 
L 220.400197 218.46015 
L 225.503265 216.009479 
L 231.260044 212.842611 
L 235.132349 210.451751 
L 243.636853 204.368852 
L 246.276032 202.219458 
L 252.346467 196.7231 
L 259.860827 188.626779 
L 263.932634 183.472456 
L 267.077809 179.01349 
L 269.920189 174.537166 
L 274.5773 165.966925 
L 278.943855 155.739149 
L 280.842944 150.13193 
L 282.69352 143.401394 
L 283.79864 138.297529 
L 284.661984 133.147252 
L 285.575078 124.229851 
L 285.761847 119.676272 
L 285.740835 114.288898 
L 285.465662 109.010247 
L 284.938984 103.750734 
L 283.524828 95.152433 
L 281.579242 87.181297 
L 279.581602 80.865738 
L 276.554213 73.145127 
L 273.106806 65.955875 
L 270.30413 60.93462 
L 266.068712 54.333435 
L 263.679215 51.01677 
L 260.335163 46.771208 
L 256.788015 42.693805 
L 253.427086 39.174126 
L 248.980521 34.957739 
L 244.760468 31.358766 
L 240.365559 27.975537 
L 236.995647 25.608038 
L 232.325108 22.622186 
L 228.098736 20.19232 
L 223.769543 17.950768 
L 219.292172 15.878419 
L 214.697062 13.99602 
L 207.721693 11.582903 
L 202.564242 10.124711 
L 197.342293 8.917697 
L 189.59888 7.608389 
L 182.609701 6.904778 
L 179.686531 6.742653 
L 173.318521 6.657067 
L 166.956117 6.937592 
L 157.9499 7.966413 
L 153.354571 8.782408 
L 148.797694 9.791256 
L 144.595422 10.902702 
L 138.259866 12.919621 
L 133.545537 14.699322 
L 128.917026 16.691587 
L 124.056125 19.061432 
L 119.284134 21.684631 
L 113.794396 25.098846 
L 109.466087 28.120119 
L 105.286622 31.344159 
L 101.315769 34.718809 
L 96.585065 39.191079 
L 93.459324 42.455625 
L 90.469359 45.844964 
L 87.441518 49.583446 
L 83.152646 55.515562 
L 79.656494 61.050246 
L 76.575016 66.623297 
L 73.209992 73.757656 
L 70.455388 80.843067 
L 68.750332 86.141445 
L 67.313576 91.518784 
L 65.982123 97.869223 
L 64.856793 105.780223 
L 64.39822 111.573671 
L 64.24465 117.756336 
L 64.414323 123.552686 
L 64.706715 127.527311 
L 65.872121 136.33585 
L 67.423064 143.761401 
L 69.345425 150.642847 
L 70.895511 155.220751 
L 74.152146 163.206006 
L 77.667892 170.270101 
L 82.029943 177.613744 
L 86.004347 183.348327 
L 90.093933 188.538155 
L 92.8669 191.723645 
L 99.416082 198.377188 
L 106.249761 204.256244 
L 109.770241 206.931341 
L 116.969147 211.758633 
L 123.6864 215.575108 
L 128.535535 217.961926 
L 136.432252 221.248453 
L 143.057136 223.474892 
L 147.02218 224.589638 
L 155.128393 226.385246 
L 160.095126 227.175573 
L 171.270174 228.121598 
L 175.014532 228.184902 
L 175.014532 228.184902 
" clip-path="url(#pa2991b1833)" style="fill: none; stroke: #0000cc; stroke-linecap: square"/>
   </g>
   <g id="line2d_64">
    <path d="M 396.55535 228.184902 
L 396.448122 223.312128 
L 395.828018 215.511905 
L 395.16719 210.703277 
L 394.296339 205.928215 
L 393.351752 201.737507 
L 391.738948 195.876513 
L 389.751098 189.960278 
L 386.489609 182.047569 
L 384.025455 177.009859 
L 381.309492 172.10332 
L 379.498177 169.126347 
L 377.088634 165.465533 
L 372.92946 159.804229 
L 369.73343 155.91641 
L 366.364101 152.17778 
L 363.722786 149.47165 
L 358.607558 144.716644 
L 355.049072 141.740909 
L 351.369117 138.91677 
L 344.814174 134.453192 
L 341.019704 132.168213 
L 335.356003 129.125357 
L 329.938848 126.59496 
L 324.393051 124.360543 
L 319.408208 122.64079 
L 315.948379 121.600425 
L 308.935784 119.860749 
L 301.876355 118.589509 
L 295.84449 117.872214 
L 289.782374 117.486644 
L 283.855223 117.431302 
L 276.354403 117.816661 
L 270.406087 118.487251 
L 262.740546 119.838054 
L 257.047762 121.207062 
L 248.366347 123.925933 
L 239.867223 127.379908 
L 230.63381 132.120151 
L 224.691479 135.785375 
L 221.371491 138.06836 
L 211.074596 146.401969 
L 203.696799 153.810037 
L 197.672895 161.055541 
L 195.258586 164.348683 
L 190.607153 171.516813 
L 188.562775 175.100685 
L 185.976773 180.138953 
L 181.133034 191.879778 
L 180.463732 193.869796 
L 178.480453 200.692531 
L 177.06056 206.993097 
L 175.55283 217.277776 
L 175.156022 222.587945 
L 175.025471 229.741614 
L 175.511831 238.669404 
L 176.493285 246.224235 
L 177.101597 249.586172 
L 178.335505 255.105199 
L 181.644801 265.932945 
L 184.450077 272.921117 
L 186.807527 277.919749 
L 189.977448 283.781735 
L 194.584341 291.054085 
L 197.405421 294.961725 
L 200.294154 298.622172 
L 204.459031 303.392481 
L 209.618957 308.613917 
L 214.451143 312.929063 
L 219.52733 316.954336 
L 225.567142 321.15748 
L 230.334397 324.077137 
L 235.242882 326.752563 
L 240.921588 329.463543 
L 246.565211 331.779768 
L 251.45287 333.500582 
L 256.415657 334.990935 
L 260.221187 335.965132 
L 264.165596 336.825076 
L 271.849793 338.07528 
L 276.978372 338.604682 
L 282.12603 338.894865 
L 289.681025 338.886772 
L 296.520482 338.433855 
L 302.431508 337.697346 
L 306.883253 336.927464 
L 312.760129 335.62057 
L 317.009583 334.463335 
L 321.209676 333.13809 
L 326.762332 331.09718 
L 333.785416 328.014947 
L 340.174338 324.682969 
L 344.869215 321.881925 
L 349.750934 318.619604 
L 354.452935 315.103198 
L 357.05495 312.982716 
L 361.123506 309.389484 
L 365.011149 305.601254 
L 369.260931 300.998655 
L 371.730982 298.065956 
L 374.502189 294.512373 
L 377.126566 290.849016 
L 379.354264 287.471202 
L 382.187143 282.744035 
L 384.781405 277.88182 
L 387.831288 271.273492 
L 389.76499 266.371718 
L 391.536499 261.149908 
L 392.89358 256.430664 
L 394.040173 251.655911 
L 395.015111 246.592875 
L 395.71638 241.79234 
L 396.206774 236.965702 
L 396.425794 233.540757 
L 396.55535 228.173903 
L 396.268483 220.218055 
L 395.804055 215.305533 
L 395.121307 210.418568 
L 393.84934 203.850371 
L 392.68865 199.173171 
L 391.52227 195.174283 
L 390.206362 191.222077 
L 388.757384 187.358935 
L 387.165543 183.552435 
L 385.291212 179.516784 
L 382.858359 174.82916 
L 379.057194 168.432325 
L 375.494757 163.206194 
L 371.639845 158.191909 
L 369.682666 155.857485 
L 365.088224 150.847505 
L 361.295683 147.140399 
L 357.330053 143.619066 
L 353.147289 140.250848 
L 349.591422 137.637585 
L 344.418376 134.205096 
L 339.061152 131.067813 
L 336.57123 129.742855 
L 331.863266 127.45322 
L 324.913888 124.555711 
L 320.243764 122.910626 
L 315.504789 121.475885 
L 311.752582 120.501267 
L 306.570038 119.382037 
L 301.339873 118.51208 
L 296.553503 117.939168 
L 288.872692 117.457536 
L 280.687271 117.531852 
L 272.234964 118.246365 
L 267.23539 118.978685 
L 263.978739 119.582079 
L 255.505322 121.633373 
L 249.680126 123.46372 
L 242.275353 126.317343 
L 237.533915 128.475714 
L 230.549626 132.16853 
L 224.740053 135.753277 
L 219.539008 139.406752 
L 214.346662 143.528798 
L 209.41021 147.954084 
L 204.374152 153.069211 
L 201.128395 156.747146 
L 196.358845 162.816278 
L 194.424602 165.548075 
L 191.288354 170.388028 
L 185.261101 181.654898 
L 181.793988 190.027789 
L 177.854687 203.262144 
L 176.372581 210.892731 
L 175.440764 218.476851 
L 175.031351 226.254618 
L 175.138865 233.431748 
L 175.410747 237.545502 
L 176.336518 245.247324 
L 177.7454 252.629559 
L 181.020792 264.164849 
L 182.772332 268.909416 
L 185.869335 276.007023 
L 188.029433 280.280431 
L 192.992186 288.679433 
L 194.712897 291.240166 
L 198.899901 296.89497 
L 202.781301 301.536652 
L 212.264482 311.039145 
L 216.859505 314.89919 
L 222.558433 319.138144 
L 231.546728 324.768026 
L 237.832318 328.037941 
L 247.124801 331.989898 
L 251.048538 333.367913 
L 257.531804 335.291595 
L 262.370999 336.452491 
L 268.852081 337.653444 
L 276.80879 338.591026 
L 281.577784 338.875386 
L 286.354604 338.953846 
L 291.404519 338.812674 
L 295.590293 338.520475 
L 301.925982 337.772996 
L 309.372779 336.414738 
L 315.636906 334.857034 
L 321.799663 332.937101 
L 324.722281 331.886238 
L 329.001742 330.177017 
L 333.206411 328.291284 
L 340.107511 324.720605 
L 343.816207 322.537727 
L 347.437316 320.212442 
L 351.33171 317.480505 
L 356.847247 313.156852 
L 359.300831 311.0432 
L 363.796988 306.824612 
L 368.051469 302.362405 
L 371.11743 298.813861 
L 374.224948 294.881593 
L 377.449034 290.376362 
L 379.976123 286.478167 
L 382.337538 282.47744 
L 384.281819 278.864766 
L 386.090985 275.182572 
L 388.96578 268.481278 
L 390.236585 265.062234 
L 392.578211 257.600561 
L 393.825706 252.624145 
L 394.84144 247.595303 
L 395.722496 241.742838 
L 396.163887 237.489298 
L 396.457441 232.841216 
L 396.55535 228.184902 
L 396.55535 228.184902 
" clip-path="url(#pa2991b1833)" style="fill: none; stroke: #3ccc00; stroke-linecap: square"/>
   </g>
   <g id="patch_3">
    <path d="M 175.014532 345.6 
L 175.014532 0 
" style="fill: none; stroke: #000000; stroke-width: 0.8; stroke-linejoin: miter; stroke-linecap: square"/>
   </g>
   <g id="patch_4">
    <path d="M 57.598436 228.184902 
L 403.201564 228.184902 
" style="fill: none; stroke: #000000; stroke-width: 0.8; stroke-linejoin: miter; stroke-linecap: square"/>
   </g>
  </g>
 </g>
 <defs>
  <clipPath id="pa2991b1833">
   <rect x="57.598436" y="0" width="345.603129" height="345.6"/>
  </clipPath>
 </defs>
</svg>
