<?xml version="1.0" encoding="utf-8" standalone="no"?>
<!DOCTYPE svg PUBLIC "-//W3C//DTD SVG 1.1//EN"
  "http://www.w3.org/Graphics/SVG/1.1/DTD/svg11.dtd">
<svg xmlns:xlink="http://www.w3.org/1999/xlink" width="460.8pt" height="345.6pt" viewBox="0 0 460.8 345.6" xmlns="http://www.w3.org/2000/svg" version="1.1">
 <metadata>
  <rdf:RDF xmlns:dc="http://purl.org/dc/elements/1.1/" xmlns:cc="http://creativecommons.org/ns#" xmlns:rdf="http://www.w3.org/1999/02/22-rdf-syntax-ns#">
   <cc:Work>
    <dc:type rdf:resource="http://purl.org/dc/dcmitype/StillImage"/>
    <dc:date>2025-08-03T19:00:52.731576</dc:date>
    <dc:format>image/svg+xml</dc:format>
    <dc:creator>
     <cc:Agent>
      <dc:title>Matplotlib v3.10.3, https://matplotlib.org/</dc:title>
     </cc:Agent>
    </dc:creator>
   </cc:Work>
  </rdf:RDF>
 </metadata>
 <defs>
  <style type="text/css">*{stroke-linejoin: round; stroke-linecap: butt}</style>
 </defs>
 <g id="figure_1">
  <g id="patch_1">
   <path d="M 0 345.6 
L 460.8 345.6 
L 460.8 0 
L 0 0 
z
" style="fill: #ffffff"/>
  </g>
  <g id="axes_1">
   <g id="patch_2">
    <path d="M 57.607187 345.6 
L 403.192813 345.6 
L 403.192813 0 
L 57.607187 0 
z
" style="fill: #ffffff"/>
   </g>
   <g id="matplotlib.axis_1">
    <g id="xtick_1">
     <g id="line2d_1">
      <defs>
       <path id="m24163e24cd" d="M 0 0 
L 0 3.5 
" style="stroke: #000000; stroke-width: 0.8"/>
      </defs>
      <g>
       <use xlink:href="#m24163e24cd" x="64.237569" y="172.80049" style="stroke: #000000; stroke-width: 0.8"/>
      </g>
     </g>
     <g id="text_1">
      <!-- −1.0 -->
      <g transform="translate(52.096163 187.398928) scale(0.1 -0.1)">
       <defs>
        <path id="DejaVuSans-2212" d="M 678 2272 
L 4684 2272 
L 4684 1741 
L 678 1741 
L 678 2272 
z
" transform="scale(0.015625)"/>
        <path id="DejaVuSans-31" d="M 794 531 
L 1825 531 
L 1825 4091 
L 703 3866 
L 703 4441 
L 1819 4666 
L 2450 4666 
L 2450 531 
L 3481 531 
L 3481 0 
L 794 0 
L 794 531 
z
" transform="scale(0.015625)"/>
        <path id="DejaVuSans-2e" d="M 684 794 
L 1344 794 
L 1344 0 
L 684 0 
L 684 794 
z
" transform="scale(0.015625)"/>
        <path id="DejaVuSans-30" d="M 2034 4250 
Q 1547 4250 1301 3770 
Q 1056 3291 1056 2328 
Q 1056 1369 1301 889 
Q 1547 409 2034 409 
Q 2525 409 2770 889 
Q 3016 1369 3016 2328 
Q 3016 3291 2770 3770 
Q 2525 4250 2034 4250 
z
M 2034 4750 
Q 2819 4750 3233 4129 
Q 3647 3509 3647 2328 
Q 3647 1150 3233 529 
Q 2819 -91 2034 -91 
Q 1250 -91 836 529 
Q 422 1150 422 2328 
Q 422 3509 836 4129 
Q 1250 4750 2034 4750 
z
" transform="scale(0.015625)"/>
       </defs>
       <use xlink:href="#DejaVuSans-2212"/>
       <use xlink:href="#DejaVuSans-31" transform="translate(83.789062 0)"/>
       <use xlink:href="#DejaVuSans-2e" transform="translate(147.412109 0)"/>
       <use xlink:href="#DejaVuSans-30" transform="translate(179.199219 0)"/>
      </g>
     </g>
    </g>
    <g id="xtick_2">
     <g id="line2d_2">
      <g>
       <use xlink:href="#m24163e24cd" x="147.314915" y="172.80049" style="stroke: #000000; stroke-width: 0.8"/>
      </g>
     </g>
     <g id="text_2">
      <!-- −0.5 -->
      <g transform="translate(135.173509 187.398928) scale(0.1 -0.1)">
       <defs>
        <path id="DejaVuSans-35" d="M 691 4666 
L 3169 4666 
L 3169 4134 
L 1269 4134 
L 1269 2991 
Q 1406 3038 1543 3061 
Q 1681 3084 1819 3084 
Q 2600 3084 3056 2656 
Q 3513 2228 3513 1497 
Q 3513 744 3044 326 
Q 2575 -91 1722 -91 
Q 1428 -91 1123 -41 
Q 819 9 494 109 
L 494 744 
Q 775 591 1075 516 
Q 1375 441 1709 441 
Q 2250 441 2565 725 
Q 2881 1009 2881 1497 
Q 2881 1984 2565 2268 
Q 2250 2553 1709 2553 
Q 1456 2553 1204 2497 
Q 953 2441 691 2322 
L 691 4666 
z
" transform="scale(0.015625)"/>
       </defs>
       <use xlink:href="#DejaVuSans-2212"/>
       <use xlink:href="#DejaVuSans-30" transform="translate(83.789062 0)"/>
       <use xlink:href="#DejaVuSans-2e" transform="translate(147.412109 0)"/>
       <use xlink:href="#DejaVuSans-35" transform="translate(179.199219 0)"/>
      </g>
     </g>
    </g>
    <g id="xtick_3">
     <g id="line2d_3">
      <g>
       <use xlink:href="#m24163e24cd" x="230.392262" y="172.80049" style="stroke: #000000; stroke-width: 0.8"/>
      </g>
     </g>
    </g>
    <g id="xtick_4">
     <g id="line2d_4">
      <g>
       <use xlink:href="#m24163e24cd" x="313.469608" y="172.80049" style="stroke: #000000; stroke-width: 0.8"/>
      </g>
     </g>
     <g id="text_3">
      <!-- 0.5 -->
      <g transform="translate(305.518045 187.398928) scale(0.1 -0.1)">
       <use xlink:href="#DejaVuSans-30"/>
       <use xlink:href="#DejaVuSans-2e" transform="translate(63.623047 0)"/>
       <use xlink:href="#DejaVuSans-35" transform="translate(95.410156 0)"/>
      </g>
     </g>
    </g>
    <g id="xtick_5">
     <g id="line2d_5">
      <g>
       <use xlink:href="#m24163e24cd" x="396.546954" y="172.80049" style="stroke: #000000; stroke-width: 0.8"/>
      </g>
     </g>
     <g id="text_4">
      <!-- 1.0 -->
      <g transform="translate(388.595391 187.398928) scale(0.1 -0.1)">
       <use xlink:href="#DejaVuSans-31"/>
       <use xlink:href="#DejaVuSans-2e" transform="translate(63.623047 0)"/>
       <use xlink:href="#DejaVuSans-30" transform="translate(95.410156 0)"/>
      </g>
     </g>
    </g>
    <g id="xtick_6">
     <g id="line2d_6">
      <defs>
       <path id="m6ef5fdf5c6" d="M 0 0 
L 0 2 
" style="stroke: #000000; stroke-width: 0.6"/>
      </defs>
      <g>
       <use xlink:href="#m6ef5fdf5c6" x="80.853038" y="172.80049" style="stroke: #000000; stroke-width: 0.6"/>
      </g>
     </g>
    </g>
    <g id="xtick_7">
     <g id="line2d_7">
      <g>
       <use xlink:href="#m6ef5fdf5c6" x="97.468508" y="172.80049" style="stroke: #000000; stroke-width: 0.6"/>
      </g>
     </g>
    </g>
    <g id="xtick_8">
     <g id="line2d_8">
      <g>
       <use xlink:href="#m6ef5fdf5c6" x="114.083977" y="172.80049" style="stroke: #000000; stroke-width: 0.6"/>
      </g>
     </g>
    </g>
    <g id="xtick_9">
     <g id="line2d_9">
      <g>
       <use xlink:href="#m6ef5fdf5c6" x="130.699446" y="172.80049" style="stroke: #000000; stroke-width: 0.6"/>
      </g>
     </g>
    </g>
    <g id="xtick_10">
     <g id="line2d_10">
      <g>
       <use xlink:href="#m6ef5fdf5c6" x="163.930385" y="172.80049" style="stroke: #000000; stroke-width: 0.6"/>
      </g>
     </g>
    </g>
    <g id="xtick_11">
     <g id="line2d_11">
      <g>
       <use xlink:href="#m6ef5fdf5c6" x="180.545854" y="172.80049" style="stroke: #000000; stroke-width: 0.6"/>
      </g>
     </g>
    </g>
    <g id="xtick_12">
     <g id="line2d_12">
      <g>
       <use xlink:href="#m6ef5fdf5c6" x="197.161323" y="172.80049" style="stroke: #000000; stroke-width: 0.6"/>
      </g>
     </g>
    </g>
    <g id="xtick_13">
     <g id="line2d_13">
      <g>
       <use xlink:href="#m6ef5fdf5c6" x="213.776792" y="172.80049" style="stroke: #000000; stroke-width: 0.6"/>
      </g>
     </g>
    </g>
    <g id="xtick_14">
     <g id="line2d_14">
      <g>
       <use xlink:href="#m6ef5fdf5c6" x="247.007731" y="172.80049" style="stroke: #000000; stroke-width: 0.6"/>
      </g>
     </g>
    </g>
    <g id="xtick_15">
     <g id="line2d_15">
      <g>
       <use xlink:href="#m6ef5fdf5c6" x="263.6232" y="172.80049" style="stroke: #000000; stroke-width: 0.6"/>
      </g>
     </g>
    </g>
    <g id="xtick_16">
     <g id="line2d_16">
      <g>
       <use xlink:href="#m6ef5fdf5c6" x="280.238669" y="172.80049" style="stroke: #000000; stroke-width: 0.6"/>
      </g>
     </g>
    </g>
    <g id="xtick_17">
     <g id="line2d_17">
      <g>
       <use xlink:href="#m6ef5fdf5c6" x="296.854139" y="172.80049" style="stroke: #000000; stroke-width: 0.6"/>
      </g>
     </g>
    </g>
    <g id="xtick_18">
     <g id="line2d_18">
      <g>
       <use xlink:href="#m6ef5fdf5c6" x="330.085077" y="172.80049" style="stroke: #000000; stroke-width: 0.6"/>
      </g>
     </g>
    </g>
    <g id="xtick_19">
     <g id="line2d_19">
      <g>
       <use xlink:href="#m6ef5fdf5c6" x="346.700546" y="172.80049" style="stroke: #000000; stroke-width: 0.6"/>
      </g>
     </g>
    </g>
    <g id="xtick_20">
     <g id="line2d_20">
      <g>
       <use xlink:href="#m6ef5fdf5c6" x="363.316015" y="172.80049" style="stroke: #000000; stroke-width: 0.6"/>
      </g>
     </g>
    </g>
    <g id="xtick_21">
     <g id="line2d_21">
      <g>
       <use xlink:href="#m6ef5fdf5c6" x="379.931485" y="172.80049" style="stroke: #000000; stroke-width: 0.6"/>
      </g>
     </g>
    </g>
   </g>
   <g id="matplotlib.axis_2">
    <g id="ytick_1">
     <g id="line2d_22">
      <defs>
       <path id="mf6abad412f" d="M 0 0 
L -3.5 0 
" style="stroke: #000000; stroke-width: 0.8"/>
      </defs>
      <g>
       <use xlink:href="#mf6abad412f" x="230.392262" y="338.955183" style="stroke: #000000; stroke-width: 0.8"/>
      </g>
     </g>
     <g id="text_5">
      <!-- −1.0 -->
      <g transform="translate(199.109449 342.754401) scale(0.1 -0.1)">
       <use xlink:href="#DejaVuSans-2212"/>
       <use xlink:href="#DejaVuSans-31" transform="translate(83.789062 0)"/>
       <use xlink:href="#DejaVuSans-2e" transform="translate(147.412109 0)"/>
       <use xlink:href="#DejaVuSans-30" transform="translate(179.199219 0)"/>
      </g>
     </g>
    </g>
    <g id="ytick_2">
     <g id="line2d_23">
      <g>
       <use xlink:href="#mf6abad412f" x="230.392262" y="255.877836" style="stroke: #000000; stroke-width: 0.8"/>
      </g>
     </g>
     <g id="text_6">
      <!-- −0.5 -->
      <g transform="translate(199.109449 259.677055) scale(0.1 -0.1)">
       <use xlink:href="#DejaVuSans-2212"/>
       <use xlink:href="#DejaVuSans-30" transform="translate(83.789062 0)"/>
       <use xlink:href="#DejaVuSans-2e" transform="translate(147.412109 0)"/>
       <use xlink:href="#DejaVuSans-35" transform="translate(179.199219 0)"/>
      </g>
     </g>
    </g>
    <g id="ytick_3">
     <g id="line2d_24">
      <g>
       <use xlink:href="#mf6abad412f" x="230.392262" y="172.80049" style="stroke: #000000; stroke-width: 0.8"/>
      </g>
     </g>
    </g>
    <g id="ytick_4">
     <g id="line2d_25">
      <g>
       <use xlink:href="#mf6abad412f" x="230.392262" y="89.723144" style="stroke: #000000; stroke-width: 0.8"/>
      </g>
     </g>
     <g id="text_7">
      <!-- 0.5 -->
      <g transform="translate(207.489137 93.522363) scale(0.1 -0.1)">
       <use xlink:href="#DejaVuSans-30"/>
       <use xlink:href="#DejaVuSans-2e" transform="translate(63.623047 0)"/>
       <use xlink:href="#DejaVuSans-35" transform="translate(95.410156 0)"/>
      </g>
     </g>
    </g>
    <g id="ytick_5">
     <g id="line2d_26">
      <g>
       <use xlink:href="#mf6abad412f" x="230.392262" y="6.645798" style="stroke: #000000; stroke-width: 0.8"/>
      </g>
     </g>
     <g id="text_8">
      <!-- 1.0 -->
      <g transform="translate(207.489137 10.445017) scale(0.1 -0.1)">
       <use xlink:href="#DejaVuSans-31"/>
       <use xlink:href="#DejaVuSans-2e" transform="translate(63.623047 0)"/>
       <use xlink:href="#DejaVuSans-30" transform="translate(95.410156 0)"/>
      </g>
     </g>
    </g>
    <g id="ytick_6">
     <g id="line2d_27">
      <defs>
       <path id="mc41df1f514" d="M 0 0 
L -2 0 
" style="stroke: #000000; stroke-width: 0.6"/>
      </defs>
      <g>
       <use xlink:href="#mc41df1f514" x="230.392262" y="322.339713" style="stroke: #000000; stroke-width: 0.6"/>
      </g>
     </g>
    </g>
    <g id="ytick_7">
     <g id="line2d_28">
      <g>
       <use xlink:href="#mc41df1f514" x="230.392262" y="305.724244" style="stroke: #000000; stroke-width: 0.6"/>
      </g>
     </g>
    </g>
    <g id="ytick_8">
     <g id="line2d_29">
      <g>
       <use xlink:href="#mc41df1f514" x="230.392262" y="289.108775" style="stroke: #000000; stroke-width: 0.6"/>
      </g>
     </g>
    </g>
    <g id="ytick_9">
     <g id="line2d_30">
      <g>
       <use xlink:href="#mc41df1f514" x="230.392262" y="272.493306" style="stroke: #000000; stroke-width: 0.6"/>
      </g>
     </g>
    </g>
    <g id="ytick_10">
     <g id="line2d_31">
      <g>
       <use xlink:href="#mc41df1f514" x="230.392262" y="239.262367" style="stroke: #000000; stroke-width: 0.6"/>
      </g>
     </g>
    </g>
    <g id="ytick_11">
     <g id="line2d_32">
      <g>
       <use xlink:href="#mc41df1f514" x="230.392262" y="222.646898" style="stroke: #000000; stroke-width: 0.6"/>
      </g>
     </g>
    </g>
    <g id="ytick_12">
     <g id="line2d_33">
      <g>
       <use xlink:href="#mc41df1f514" x="230.392262" y="206.031429" style="stroke: #000000; stroke-width: 0.6"/>
      </g>
     </g>
    </g>
    <g id="ytick_13">
     <g id="line2d_34">
      <g>
       <use xlink:href="#mc41df1f514" x="230.392262" y="189.415959" style="stroke: #000000; stroke-width: 0.6"/>
      </g>
     </g>
    </g>
    <g id="ytick_14">
     <g id="line2d_35">
      <g>
       <use xlink:href="#mc41df1f514" x="230.392262" y="156.185021" style="stroke: #000000; stroke-width: 0.6"/>
      </g>
     </g>
    </g>
    <g id="ytick_15">
     <g id="line2d_36">
      <g>
       <use xlink:href="#mc41df1f514" x="230.392262" y="139.569552" style="stroke: #000000; stroke-width: 0.6"/>
      </g>
     </g>
    </g>
    <g id="ytick_16">
     <g id="line2d_37">
      <g>
       <use xlink:href="#mc41df1f514" x="230.392262" y="122.954082" style="stroke: #000000; stroke-width: 0.6"/>
      </g>
     </g>
    </g>
    <g id="ytick_17">
     <g id="line2d_38">
      <g>
       <use xlink:href="#mc41df1f514" x="230.392262" y="106.338613" style="stroke: #000000; stroke-width: 0.6"/>
      </g>
     </g>
    </g>
    <g id="ytick_18">
     <g id="line2d_39">
      <g>
       <use xlink:href="#mc41df1f514" x="230.392262" y="73.107675" style="stroke: #000000; stroke-width: 0.6"/>
      </g>
     </g>
    </g>
    <g id="ytick_19">
     <g id="line2d_40">
      <g>
       <use xlink:href="#mc41df1f514" x="230.392262" y="56.492206" style="stroke: #000000; stroke-width: 0.6"/>
      </g>
     </g>
    </g>
    <g id="ytick_20">
     <g id="line2d_41">
      <g>
       <use xlink:href="#mc41df1f514" x="230.392262" y="39.876736" style="stroke: #000000; stroke-width: 0.6"/>
      </g>
     </g>
    </g>
    <g id="ytick_21">
     <g id="line2d_42">
      <g>
       <use xlink:href="#mc41df1f514" x="230.392262" y="23.261267" style="stroke: #000000; stroke-width: 0.6"/>
      </g>
     </g>
    </g>
   </g>
   <g id="line2d_43">
    <path d="M 230.392262 172.80049 
L 247.559923 138.648936 
L 254.306092 125.470783 
L 266.209287 102.850582 
L 275.952765 85.172045 
L 283.598247 71.991817 
L 287.236929 65.971551 
L 291.472492 59.19373 
L 297.4599 50.078066 
L 300.858118 45.170427 
L 307.579296 36.094951 
L 311.030294 31.790836 
L 314.263298 27.997165 
L 320.275271 21.608559 
L 322.827243 19.179293 
L 330.53301 12.981669 
L 333.487791 11.100738 
L 338.498333 8.611034 
L 340.217438 7.974381 
L 345.609389 6.767719 
L 347.759708 6.646154 
L 353.382579 7.410628 
L 357.135577 8.888222 
L 358.383277 9.569268 
L 361.598629 11.799878 
L 363.941344 13.890733 
L 367.128787 17.435534 
L 370.476939 22.136602 
L 375.422605 31.261113 
L 378.874264 39.525944 
L 381.073697 45.805861 
L 382.613394 50.762957 
L 384.425805 57.293767 
L 386.090772 64.078516 
L 387.636485 71.196293 
L 389.951668 83.783092 
L 391.089193 91.103223 
L 392.590036 102.4267 
L 393.354544 109.217791 
L 394.699312 123.930408 
L 395.947334 144.695905 
L 396.479338 163.324951 
L 396.546936 172.644867 
L 396.402522 186.641292 
L 395.779068 204.564519 
L 395.242322 214.035647 
L 394.19737 227.700301 
L 392.691983 242.316246 
L 391.012769 255.01903 
L 389.546904 264.219295 
L 387.502913 275.055326 
L 385.773891 282.878782 
L 384.150606 289.352273 
L 381.164467 299.516504 
L 378.764559 306.365989 
L 375.737998 313.656101 
L 371.725083 321.425335 
L 369.621542 324.768531 
L 366.692115 328.701956 
L 364.231742 331.421804 
L 361.211099 334.107909 
L 356.631401 336.960205 
L 352.601787 338.39605 
L 351.541387 338.622237 
L 346.129247 338.882359 
L 343.910106 338.587832 
L 340.618797 337.75837 
L 335.46738 335.592837 
L 328.921237 331.472698 
L 324.392436 327.822651 
L 318.188205 321.877349 
L 311.537771 314.421287 
L 307.955311 309.987254 
L 304.828304 305.897695 
L 295.638421 292.810856 
L 288.261422 281.29229 
L 282.378749 271.553258 
L 278.746664 265.323434 
L 271.829212 253.055883 
L 265.414082 241.270521 
L 255.324843 222.101052 
L 243.699312 199.329101 
L 206.394443 125.30809 
L 204.041713 120.766355 
L 190.68419 95.685521 
L 181.103141 78.659501 
L 174.989676 68.336545 
L 170.855863 61.634224 
L 166.178509 54.351531 
L 158.754298 43.525601 
L 151.717901 34.208767 
L 144.828774 26.108305 
L 136.597454 17.958192 
L 133.004943 14.989974 
L 130.699128 13.291763 
L 125.662478 10.188745 
L 121.94178 8.474227 
L 117.930448 7.229505 
L 114.59749 6.71393 
L 111.91255 6.669623 
L 105.320713 8.127262 
L 103.2139 9.114471 
L 100.862575 10.548609 
L 96.136141 14.604716 
L 93.967338 17.050974 
L 91.177834 20.810453 
L 86.385426 29.132404 
L 83.1625 36.320535 
L 81.416061 40.861764 
L 77.780123 52.10437 
L 74.904496 63.172878 
L 72.610374 73.890531 
L 70.108609 88.337837 
L 68.898881 96.832615 
L 67.351507 109.966384 
L 66.306108 121.178285 
L 65.64409 130.018472 
L 64.994543 141.260358 
L 64.576079 151.642231 
L 64.253064 168.262671 
L 64.294761 181.51577 
L 64.746167 198.701953 
L 65.601421 214.94221 
L 66.233916 223.541742 
L 67.722899 239.087263 
L 68.65533 246.896159 
L 69.696506 254.505813 
L 71.508849 265.775987 
L 72.931371 273.333727 
L 74.4772 280.576618 
L 76.978615 290.633181 
L 79.489481 299.112825 
L 81.213156 304.17861 
L 84.504802 312.449932 
L 87.132096 317.937862 
L 91.354143 325.049972 
L 95.055521 329.826816 
L 99.998645 334.43226 
L 102.743607 336.22847 
L 105.60012 337.584512 
L 108.257853 338.414072 
L 112.667781 338.953846 
L 115.691524 338.772322 
L 121.833793 337.168702 
L 124.801132 335.854681 
L 128.863238 333.539429 
L 130.536658 332.42252 
L 137.538851 326.802967 
L 142.36488 322.117425 
L 146.856031 317.222103 
L 152.529699 310.368465 
L 157.579655 303.698171 
L 162.882739 296.172443 
L 170.476825 284.569194 
L 177.714027 272.721731 
L 186.375483 257.688777 
L 198.121614 236.112783 
L 210.783196 211.744548 
L 224.498213 184.581169 
L 230.392262 172.80049 
L 230.392262 172.80049 
" clip-path="url(#pd844141dc0)" style="fill: none; stroke: #0066ff; stroke-linecap: square"/>
   </g>
   <g id="patch_3">
    <path d="M 230.392262 345.6 
L 230.392262 -0 
" style="fill: none; stroke: #000000; stroke-width: 0.8; stroke-linejoin: miter; stroke-linecap: square"/>
   </g>
   <g id="patch_4">
    <path d="M 57.607187 172.80049 
L 403.192813 172.80049 
" style="fill: none; stroke: #000000; stroke-width: 0.8; stroke-linejoin: miter; stroke-linecap: square"/>
   </g>
  </g>
 </g>
 <defs>
  <clipPath id="pd844141dc0">
   <rect x="57.607187" y="0" width="345.585626" height="345.6"/>
  </clipPath>
 </defs>
</svg>
