<?xml version="1.0" encoding="utf-8" standalone="no"?>
<!DOCTYPE svg PUBLIC "-//W3C//DTD SVG 1.1//EN"
  "http://www.w3.org/Graphics/SVG/1.1/DTD/svg11.dtd">
<svg xmlns:xlink="http://www.w3.org/1999/xlink" width="460.8pt" height="345.6pt" viewBox="0 0 460.8 345.6" xmlns="http://www.w3.org/2000/svg" version="1.1">
 <metadata>
  <rdf:RDF xmlns:dc="http://purl.org/dc/elements/1.1/" xmlns:cc="http://creativecommons.org/ns#" xmlns:rdf="http://www.w3.org/1999/02/22-rdf-syntax-ns#">
   <cc:Work>
    <dc:type rdf:resource="http://purl.org/dc/dcmitype/StillImage"/>
    <dc:date>2025-08-02T16:01:02.150273</dc:date>
    <dc:format>image/svg+xml</dc:format>
    <dc:creator>
     <cc:Agent>
      <dc:title>Matplotlib v3.10.3, https://matplotlib.org/</dc:title>
     </cc:Agent>
    </dc:creator>
   </cc:Work>
  </rdf:RDF>
 </metadata>
 <defs>
  <style type="text/css">*{stroke-linejoin: round; stroke-linecap: butt}</style>
 </defs>
 <g id="figure_1">
  <g id="patch_1">
   <path d="M 0 345.6 
L 460.8 345.6 
L 460.8 0 
L 0 0 
z
" style="fill: #ffffff"/>
  </g>
  <g id="axes_1">
   <g id="patch_2">
    <path d="M 65.023863 152.646154 
L 395.776137 152.646154 
L 395.776137 10.8 
L 65.023863 10.8 
z
" style="fill: #ffffff"/>
   </g>
   <g id="matplotlib.axis_1">
    <g id="xtick_1">
     <g id="line2d_1">
      <defs>
       <path id="mea9fcc0f3c" d="M 0 0 
L 0 3.5 
" style="stroke: #000000; stroke-width: 0.8"/>
      </defs>
      <g>
       <use xlink:href="#mea9fcc0f3c" x="71.384484" y="149.918343" style="stroke: #000000; stroke-width: 0.8"/>
      </g>
     </g>
    </g>
    <g id="xtick_2">
     <g id="line2d_2">
      <g>
       <use xlink:href="#mea9fcc0f3c" x="150.892242" y="149.918343" style="stroke: #000000; stroke-width: 0.8"/>
      </g>
     </g>
     <g id="text_1">
      <!-- 0.5 -->
      <g transform="translate(142.940679 164.516781) scale(0.1 -0.1)">
       <defs>
        <path id="DejaVuSans-30" d="M 2034 4250 
Q 1547 4250 1301 3770 
Q 1056 3291 1056 2328 
Q 1056 1369 1301 889 
Q 1547 409 2034 409 
Q 2525 409 2770 889 
Q 3016 1369 3016 2328 
Q 3016 3291 2770 3770 
Q 2525 4250 2034 4250 
z
M 2034 4750 
Q 2819 4750 3233 4129 
Q 3647 3509 3647 2328 
Q 3647 1150 3233 529 
Q 2819 -91 2034 -91 
Q 1250 -91 836 529 
Q 422 1150 422 2328 
Q 422 3509 836 4129 
Q 1250 4750 2034 4750 
z
" transform="scale(0.015625)"/>
        <path id="DejaVuSans-2e" d="M 684 794 
L 1344 794 
L 1344 0 
L 684 0 
L 684 794 
z
" transform="scale(0.015625)"/>
        <path id="DejaVuSans-35" d="M 691 4666 
L 3169 4666 
L 3169 4134 
L 1269 4134 
L 1269 2991 
Q 1406 3038 1543 3061 
Q 1681 3084 1819 3084 
Q 2600 3084 3056 2656 
Q 3513 2228 3513 1497 
Q 3513 744 3044 326 
Q 2575 -91 1722 -91 
Q 1428 -91 1123 -41 
Q 819 9 494 109 
L 494 744 
Q 775 591 1075 516 
Q 1375 441 1709 441 
Q 2250 441 2565 725 
Q 2881 1009 2881 1497 
Q 2881 1984 2565 2268 
Q 2250 2553 1709 2553 
Q 1456 2553 1204 2497 
Q 953 2441 691 2322 
L 691 4666 
z
" transform="scale(0.015625)"/>
       </defs>
       <use xlink:href="#DejaVuSans-30"/>
       <use xlink:href="#DejaVuSans-2e" transform="translate(63.623047 0)"/>
       <use xlink:href="#DejaVuSans-35" transform="translate(95.410156 0)"/>
      </g>
     </g>
    </g>
    <g id="xtick_3">
     <g id="line2d_3">
      <g>
       <use xlink:href="#mea9fcc0f3c" x="230.4" y="149.918343" style="stroke: #000000; stroke-width: 0.8"/>
      </g>
     </g>
     <g id="text_2">
      <!-- 1.0 -->
      <g transform="translate(222.448437 164.516781) scale(0.1 -0.1)">
       <defs>
        <path id="DejaVuSans-31" d="M 794 531 
L 1825 531 
L 1825 4091 
L 703 3866 
L 703 4441 
L 1819 4666 
L 2450 4666 
L 2450 531 
L 3481 531 
L 3481 0 
L 794 0 
L 794 531 
z
" transform="scale(0.015625)"/>
       </defs>
       <use xlink:href="#DejaVuSans-31"/>
       <use xlink:href="#DejaVuSans-2e" transform="translate(63.623047 0)"/>
       <use xlink:href="#DejaVuSans-30" transform="translate(95.410156 0)"/>
      </g>
     </g>
    </g>
    <g id="xtick_4">
     <g id="line2d_4">
      <g>
       <use xlink:href="#mea9fcc0f3c" x="309.907758" y="149.918343" style="stroke: #000000; stroke-width: 0.8"/>
      </g>
     </g>
     <g id="text_3">
      <!-- 1.5 -->
      <g transform="translate(301.956196 164.516781) scale(0.1 -0.1)">
       <use xlink:href="#DejaVuSans-31"/>
       <use xlink:href="#DejaVuSans-2e" transform="translate(63.623047 0)"/>
       <use xlink:href="#DejaVuSans-35" transform="translate(95.410156 0)"/>
      </g>
     </g>
    </g>
    <g id="xtick_5">
     <g id="line2d_5">
      <g>
       <use xlink:href="#mea9fcc0f3c" x="389.415516" y="149.918343" style="stroke: #000000; stroke-width: 0.8"/>
      </g>
     </g>
     <g id="text_4">
      <!-- 2.0 -->
      <g transform="translate(381.463954 164.516781) scale(0.1 -0.1)">
       <defs>
        <path id="DejaVuSans-32" d="M 1228 531 
L 3431 531 
L 3431 0 
L 469 0 
L 469 531 
Q 828 903 1448 1529 
Q 2069 2156 2228 2338 
Q 2531 2678 2651 2914 
Q 2772 3150 2772 3378 
Q 2772 3750 2511 3984 
Q 2250 4219 1831 4219 
Q 1534 4219 1204 4116 
Q 875 4013 500 3803 
L 500 4441 
Q 881 4594 1212 4672 
Q 1544 4750 1819 4750 
Q 2544 4750 2975 4387 
Q 3406 4025 3406 3419 
Q 3406 3131 3298 2873 
Q 3191 2616 2906 2266 
Q 2828 2175 2409 1742 
Q 1991 1309 1228 531 
z
" transform="scale(0.015625)"/>
       </defs>
       <use xlink:href="#DejaVuSans-32"/>
       <use xlink:href="#DejaVuSans-2e" transform="translate(63.623047 0)"/>
       <use xlink:href="#DejaVuSans-30" transform="translate(95.410156 0)"/>
      </g>
     </g>
    </g>
    <g id="xtick_6">
     <g id="line2d_6">
      <defs>
       <path id="mb5239889b3" d="M 0 0 
L 0 2 
" style="stroke: #000000; stroke-width: 0.6"/>
      </defs>
      <g>
       <use xlink:href="#mb5239889b3" x="87.286035" y="149.918343" style="stroke: #000000; stroke-width: 0.6"/>
      </g>
     </g>
    </g>
    <g id="xtick_7">
     <g id="line2d_7">
      <g>
       <use xlink:href="#mb5239889b3" x="103.187587" y="149.918343" style="stroke: #000000; stroke-width: 0.6"/>
      </g>
     </g>
    </g>
    <g id="xtick_8">
     <g id="line2d_8">
      <g>
       <use xlink:href="#mb5239889b3" x="119.089139" y="149.918343" style="stroke: #000000; stroke-width: 0.6"/>
      </g>
     </g>
    </g>
    <g id="xtick_9">
     <g id="line2d_9">
      <g>
       <use xlink:href="#mb5239889b3" x="134.99069" y="149.918343" style="stroke: #000000; stroke-width: 0.6"/>
      </g>
     </g>
    </g>
    <g id="xtick_10">
     <g id="line2d_10">
      <g>
       <use xlink:href="#mb5239889b3" x="166.793793" y="149.918343" style="stroke: #000000; stroke-width: 0.6"/>
      </g>
     </g>
    </g>
    <g id="xtick_11">
     <g id="line2d_11">
      <g>
       <use xlink:href="#mb5239889b3" x="182.695345" y="149.918343" style="stroke: #000000; stroke-width: 0.6"/>
      </g>
     </g>
    </g>
    <g id="xtick_12">
     <g id="line2d_12">
      <g>
       <use xlink:href="#mb5239889b3" x="198.596897" y="149.918343" style="stroke: #000000; stroke-width: 0.6"/>
      </g>
     </g>
    </g>
    <g id="xtick_13">
     <g id="line2d_13">
      <g>
       <use xlink:href="#mb5239889b3" x="214.498448" y="149.918343" style="stroke: #000000; stroke-width: 0.6"/>
      </g>
     </g>
    </g>
    <g id="xtick_14">
     <g id="line2d_14">
      <g>
       <use xlink:href="#mb5239889b3" x="246.301552" y="149.918343" style="stroke: #000000; stroke-width: 0.6"/>
      </g>
     </g>
    </g>
    <g id="xtick_15">
     <g id="line2d_15">
      <g>
       <use xlink:href="#mb5239889b3" x="262.203103" y="149.918343" style="stroke: #000000; stroke-width: 0.6"/>
      </g>
     </g>
    </g>
    <g id="xtick_16">
     <g id="line2d_16">
      <g>
       <use xlink:href="#mb5239889b3" x="278.104655" y="149.918343" style="stroke: #000000; stroke-width: 0.6"/>
      </g>
     </g>
    </g>
    <g id="xtick_17">
     <g id="line2d_17">
      <g>
       <use xlink:href="#mb5239889b3" x="294.006207" y="149.918343" style="stroke: #000000; stroke-width: 0.6"/>
      </g>
     </g>
    </g>
    <g id="xtick_18">
     <g id="line2d_18">
      <g>
       <use xlink:href="#mb5239889b3" x="325.80931" y="149.918343" style="stroke: #000000; stroke-width: 0.6"/>
      </g>
     </g>
    </g>
    <g id="xtick_19">
     <g id="line2d_19">
      <g>
       <use xlink:href="#mb5239889b3" x="341.710861" y="149.918343" style="stroke: #000000; stroke-width: 0.6"/>
      </g>
     </g>
    </g>
    <g id="xtick_20">
     <g id="line2d_20">
      <g>
       <use xlink:href="#mb5239889b3" x="357.612413" y="149.918343" style="stroke: #000000; stroke-width: 0.6"/>
      </g>
     </g>
    </g>
    <g id="xtick_21">
     <g id="line2d_21">
      <g>
       <use xlink:href="#mb5239889b3" x="373.513965" y="149.918343" style="stroke: #000000; stroke-width: 0.6"/>
      </g>
     </g>
    </g>
   </g>
   <g id="matplotlib.axis_2">
    <g id="ytick_1">
     <g id="line2d_22">
      <defs>
       <path id="m995da96eea" d="M 0 0 
L -3.5 0 
" style="stroke: #000000; stroke-width: 0.8"/>
      </defs>
      <g>
       <use xlink:href="#m995da96eea" x="71.384484" y="149.918343" style="stroke: #000000; stroke-width: 0.8"/>
      </g>
     </g>
    </g>
    <g id="ytick_2">
     <g id="line2d_23">
      <g>
       <use xlink:href="#m995da96eea" x="71.384484" y="124.475861" style="stroke: #000000; stroke-width: 0.8"/>
      </g>
     </g>
     <g id="text_5">
      <!-- 0.2 -->
      <g transform="translate(48.481359 128.275079) scale(0.1 -0.1)">
       <use xlink:href="#DejaVuSans-30"/>
       <use xlink:href="#DejaVuSans-2e" transform="translate(63.623047 0)"/>
       <use xlink:href="#DejaVuSans-32" transform="translate(95.410156 0)"/>
      </g>
     </g>
    </g>
    <g id="ytick_3">
     <g id="line2d_24">
      <g>
       <use xlink:href="#m995da96eea" x="71.384484" y="99.033378" style="stroke: #000000; stroke-width: 0.8"/>
      </g>
     </g>
     <g id="text_6">
      <!-- 0.4 -->
      <g transform="translate(48.481359 102.832597) scale(0.1 -0.1)">
       <defs>
        <path id="DejaVuSans-34" d="M 2419 4116 
L 825 1625 
L 2419 1625 
L 2419 4116 
z
M 2253 4666 
L 3047 4666 
L 3047 1625 
L 3713 1625 
L 3713 1100 
L 3047 1100 
L 3047 0 
L 2419 0 
L 2419 1100 
L 313 1100 
L 313 1709 
L 2253 4666 
z
" transform="scale(0.015625)"/>
       </defs>
       <use xlink:href="#DejaVuSans-30"/>
       <use xlink:href="#DejaVuSans-2e" transform="translate(63.623047 0)"/>
       <use xlink:href="#DejaVuSans-34" transform="translate(95.410156 0)"/>
      </g>
     </g>
    </g>
    <g id="ytick_4">
     <g id="line2d_25">
      <g>
       <use xlink:href="#m995da96eea" x="71.384484" y="73.590895" style="stroke: #000000; stroke-width: 0.8"/>
      </g>
     </g>
     <g id="text_7">
      <!-- 0.6 -->
      <g transform="translate(48.481359 77.390114) scale(0.1 -0.1)">
       <defs>
        <path id="DejaVuSans-36" d="M 2113 2584 
Q 1688 2584 1439 2293 
Q 1191 2003 1191 1497 
Q 1191 994 1439 701 
Q 1688 409 2113 409 
Q 2538 409 2786 701 
Q 3034 994 3034 1497 
Q 3034 2003 2786 2293 
Q 2538 2584 2113 2584 
z
M 3366 4563 
L 3366 3988 
Q 3128 4100 2886 4159 
Q 2644 4219 2406 4219 
Q 1781 4219 1451 3797 
Q 1122 3375 1075 2522 
Q 1259 2794 1537 2939 
Q 1816 3084 2150 3084 
Q 2853 3084 3261 2657 
Q 3669 2231 3669 1497 
Q 3669 778 3244 343 
Q 2819 -91 2113 -91 
Q 1303 -91 875 529 
Q 447 1150 447 2328 
Q 447 3434 972 4092 
Q 1497 4750 2381 4750 
Q 2619 4750 2861 4703 
Q 3103 4656 3366 4563 
z
" transform="scale(0.015625)"/>
       </defs>
       <use xlink:href="#DejaVuSans-30"/>
       <use xlink:href="#DejaVuSans-2e" transform="translate(63.623047 0)"/>
       <use xlink:href="#DejaVuSans-36" transform="translate(95.410156 0)"/>
      </g>
     </g>
    </g>
    <g id="ytick_5">
     <g id="line2d_26">
      <g>
       <use xlink:href="#m995da96eea" x="71.384484" y="48.148413" style="stroke: #000000; stroke-width: 0.8"/>
      </g>
     </g>
     <g id="text_8">
      <!-- 0.8 -->
      <g transform="translate(48.481359 51.947632) scale(0.1 -0.1)">
       <defs>
        <path id="DejaVuSans-38" d="M 2034 2216 
Q 1584 2216 1326 1975 
Q 1069 1734 1069 1313 
Q 1069 891 1326 650 
Q 1584 409 2034 409 
Q 2484 409 2743 651 
Q 3003 894 3003 1313 
Q 3003 1734 2745 1975 
Q 2488 2216 2034 2216 
z
M 1403 2484 
Q 997 2584 770 2862 
Q 544 3141 544 3541 
Q 544 4100 942 4425 
Q 1341 4750 2034 4750 
Q 2731 4750 3128 4425 
Q 3525 4100 3525 3541 
Q 3525 3141 3298 2862 
Q 3072 2584 2669 2484 
Q 3125 2378 3379 2068 
Q 3634 1759 3634 1313 
Q 3634 634 3220 271 
Q 2806 -91 2034 -91 
Q 1263 -91 848 271 
Q 434 634 434 1313 
Q 434 1759 690 2068 
Q 947 2378 1403 2484 
z
M 1172 3481 
Q 1172 3119 1398 2916 
Q 1625 2713 2034 2713 
Q 2441 2713 2670 2916 
Q 2900 3119 2900 3481 
Q 2900 3844 2670 4047 
Q 2441 4250 2034 4250 
Q 1625 4250 1398 4047 
Q 1172 3844 1172 3481 
z
" transform="scale(0.015625)"/>
       </defs>
       <use xlink:href="#DejaVuSans-30"/>
       <use xlink:href="#DejaVuSans-2e" transform="translate(63.623047 0)"/>
       <use xlink:href="#DejaVuSans-38" transform="translate(95.410156 0)"/>
      </g>
     </g>
    </g>
    <g id="ytick_6">
     <g id="line2d_27">
      <g>
       <use xlink:href="#m995da96eea" x="71.384484" y="22.70593" style="stroke: #000000; stroke-width: 0.8"/>
      </g>
     </g>
     <g id="text_9">
      <!-- 1.0 -->
      <g transform="translate(48.481359 26.505149) scale(0.1 -0.1)">
       <use xlink:href="#DejaVuSans-31"/>
       <use xlink:href="#DejaVuSans-2e" transform="translate(63.623047 0)"/>
       <use xlink:href="#DejaVuSans-30" transform="translate(95.410156 0)"/>
      </g>
     </g>
    </g>
    <g id="ytick_7">
     <g id="line2d_28">
      <defs>
       <path id="m2d08299f33" d="M 0 0 
L -2 0 
" style="stroke: #000000; stroke-width: 0.6"/>
      </defs>
      <g>
       <use xlink:href="#m2d08299f33" x="71.384484" y="143.557723" style="stroke: #000000; stroke-width: 0.6"/>
      </g>
     </g>
    </g>
    <g id="ytick_8">
     <g id="line2d_29">
      <g>
       <use xlink:href="#m2d08299f33" x="71.384484" y="137.197102" style="stroke: #000000; stroke-width: 0.6"/>
      </g>
     </g>
    </g>
    <g id="ytick_9">
     <g id="line2d_30">
      <g>
       <use xlink:href="#m2d08299f33" x="71.384484" y="130.836481" style="stroke: #000000; stroke-width: 0.6"/>
      </g>
     </g>
    </g>
    <g id="ytick_10">
     <g id="line2d_31">
      <g>
       <use xlink:href="#m2d08299f33" x="71.384484" y="118.11524" style="stroke: #000000; stroke-width: 0.6"/>
      </g>
     </g>
    </g>
    <g id="ytick_11">
     <g id="line2d_32">
      <g>
       <use xlink:href="#m2d08299f33" x="71.384484" y="111.754619" style="stroke: #000000; stroke-width: 0.6"/>
      </g>
     </g>
    </g>
    <g id="ytick_12">
     <g id="line2d_33">
      <g>
       <use xlink:href="#m2d08299f33" x="71.384484" y="105.393999" style="stroke: #000000; stroke-width: 0.6"/>
      </g>
     </g>
    </g>
    <g id="ytick_13">
     <g id="line2d_34">
      <g>
       <use xlink:href="#m2d08299f33" x="71.384484" y="92.672757" style="stroke: #000000; stroke-width: 0.6"/>
      </g>
     </g>
    </g>
    <g id="ytick_14">
     <g id="line2d_35">
      <g>
       <use xlink:href="#m2d08299f33" x="71.384484" y="86.312137" style="stroke: #000000; stroke-width: 0.6"/>
      </g>
     </g>
    </g>
    <g id="ytick_15">
     <g id="line2d_36">
      <g>
       <use xlink:href="#m2d08299f33" x="71.384484" y="79.951516" style="stroke: #000000; stroke-width: 0.6"/>
      </g>
     </g>
    </g>
    <g id="ytick_16">
     <g id="line2d_37">
      <g>
       <use xlink:href="#m2d08299f33" x="71.384484" y="67.230275" style="stroke: #000000; stroke-width: 0.6"/>
      </g>
     </g>
    </g>
    <g id="ytick_17">
     <g id="line2d_38">
      <g>
       <use xlink:href="#m2d08299f33" x="71.384484" y="60.869654" style="stroke: #000000; stroke-width: 0.6"/>
      </g>
     </g>
    </g>
    <g id="ytick_18">
     <g id="line2d_39">
      <g>
       <use xlink:href="#m2d08299f33" x="71.384484" y="54.509033" style="stroke: #000000; stroke-width: 0.6"/>
      </g>
     </g>
    </g>
    <g id="ytick_19">
     <g id="line2d_40">
      <g>
       <use xlink:href="#m2d08299f33" x="71.384484" y="41.787792" style="stroke: #000000; stroke-width: 0.6"/>
      </g>
     </g>
    </g>
    <g id="ytick_20">
     <g id="line2d_41">
      <g>
       <use xlink:href="#m2d08299f33" x="71.384484" y="35.427171" style="stroke: #000000; stroke-width: 0.6"/>
      </g>
     </g>
    </g>
    <g id="ytick_21">
     <g id="line2d_42">
      <g>
       <use xlink:href="#m2d08299f33" x="71.384484" y="29.066551" style="stroke: #000000; stroke-width: 0.6"/>
      </g>
     </g>
    </g>
    <g id="ytick_22">
     <g id="line2d_43">
      <g>
       <use xlink:href="#m2d08299f33" x="71.384484" y="16.34531" style="stroke: #000000; stroke-width: 0.6"/>
      </g>
     </g>
    </g>
   </g>
   <g id="line2d_44">
    <path d="M 71.384484 149.918343 
L 86.061628 120.813071 
L 93.527399 106.482969 
L 100.41918 93.753022 
L 105.837833 84.171676 
L 110.789803 75.801768 
L 114.884631 69.191035 
L 119.884937 61.534201 
L 124.027771 55.561215 
L 128.468943 49.553937 
L 132.677571 44.256922 
L 137.064099 39.161794 
L 141.60001 34.364351 
L 145.607609 30.533539 
L 149.65382 27.060187 
L 153.546427 24.096188 
L 157.488402 21.473424 
L 160.546247 19.701311 
L 163.440383 18.234393 
L 167.385165 16.561857 
L 170.64805 15.460274 
L 173.452196 14.714565 
L 177.23234 13.998288 
L 180.585276 13.634904 
L 182.527133 13.53883 
L 185.708356 13.558609 
L 188.311275 13.734698 
L 191.534156 14.146296 
L 195.881673 15.028415 
L 199.859582 16.149375 
L 203.563553 17.448481 
L 207.202178 18.951188 
L 211.19592 20.843303 
L 215.060225 22.899614 
L 220.153762 25.920669 
L 225.526038 29.45075 
L 230.723367 33.159667 
L 235.409496 36.717085 
L 242.748677 42.622112 
L 251.364043 49.94169 
L 263.365719 60.534123 
L 282.599072 77.552349 
L 290.922643 84.644352 
L 299.341352 91.523075 
L 305.79696 96.555439 
L 313.861864 102.508077 
L 320.226611 106.923571 
L 326.986345 111.32704 
L 332.002723 114.399914 
L 337.579873 117.61955 
L 342.743808 120.416202 
L 349.376311 123.750905 
L 354.37619 126.077114 
L 360.447892 128.691172 
L 366.27873 130.99125 
L 372.608965 133.265227 
L 378.172645 135.081438 
L 385.805523 137.312337 
L 389.415516 138.26846 
L 389.415516 138.26846 
" clip-path="url(#p46f24563bc)" style="fill: none; stroke: #0000ff; stroke-linecap: square"/>
   </g>
   <g id="line2d_45">
    <path d="M 71.384484 149.918343 
L 82.353841 128.187435 
L 88.573818 116.333807 
L 93.264076 107.785091 
L 97.82039 99.889786 
L 102.191977 92.759416 
L 106.232391 86.605467 
L 110.573342 80.505795 
L 114.027668 76.057385 
L 117.139335 72.373347 
L 120.201164 69.057506 
L 123.019109 66.283451 
L 125.872189 63.750654 
L 128.451413 61.702436 
L 131.497595 59.580427 
L 133.689563 58.252662 
L 136.34934 56.864618 
L 139.084246 55.690526 
L 141.880187 54.752303 
L 144.189692 54.173961 
L 147.323786 53.667646 
L 150.168868 53.478565 
L 153.409912 53.566223 
L 156.210753 53.892041 
L 159.470373 54.549793 
L 162.924803 55.556492 
L 165.394624 56.460312 
L 167.61373 57.395817 
L 171.690288 59.398215 
L 175.214784 61.400935 
L 179.786255 64.330222 
L 184.265792 67.514174 
L 190.585235 72.431774 
L 197.884125 78.561721 
L 206.462406 86.113981 
L 221.681376 99.565129 
L 229.508011 106.150535 
L 235.389223 110.839906 
L 241.506861 115.433593 
L 246.951346 119.252367 
L 252.826216 123.07077 
L 258.729148 126.582126 
L 264.673544 129.786976 
L 270.031795 132.395319 
L 275.091781 134.62163 
L 280.97845 136.93471 
L 286.108162 138.720645 
L 291.458932 140.370585 
L 298.602284 142.262059 
L 302.654734 143.190561 
L 310.38084 144.702361 
L 317.823064 145.876734 
L 325.524107 146.845807 
L 334.26187 147.695053 
L 343.385923 148.35457 
L 354.635573 148.924755 
L 368.513339 149.367147 
L 384.348284 149.647947 
L 389.415516 149.704968 
L 389.415516 149.704968 
" clip-path="url(#p46f24563bc)" style="fill: none; stroke: #0000ff; stroke-linecap: square"/>
   </g>
   <g id="line2d_46">
    <path d="M 71.384484 149.918343 
L 81.263291 130.388173 
L 85.124573 123.046841 
L 90.266305 113.718753 
L 94.098584 107.187477 
L 97.414402 101.879669 
L 100.508122 97.247294 
L 103.369219 93.260447 
L 106.880934 88.783016 
L 109.549201 85.702521 
L 112.173695 82.953263 
L 114.467639 80.783488 
L 117.166788 78.513427 
L 119.741528 76.635702 
L 122.772659 74.786136 
L 124.917529 73.712309 
L 127.242586 72.766123 
L 129.57252 72.042195 
L 131.915682 71.536295 
L 134.58203 71.224832 
L 137.140737 71.182135 
L 139.263156 71.330297 
L 142.1468 71.786955 
L 145.279866 72.599015 
L 148.134889 73.606797 
L 151.153166 74.928891 
L 153.709432 76.238415 
L 157.284787 78.333459 
L 161.831451 81.384118 
L 166.740948 85.075577 
L 172.032794 89.401857 
L 179.841631 96.191653 
L 195.280856 109.817988 
L 202.18878 115.558273 
L 206.834535 119.194469 
L 212.690124 123.472653 
L 216.5142 126.067007 
L 222.454302 129.768284 
L 227.663557 132.679692 
L 231.532999 134.641381 
L 235.45448 136.458741 
L 240.676131 138.621754 
L 246.523439 140.715509 
L 251.701028 142.302012 
L 256.724675 143.622844 
L 262.872535 144.977142 
L 269.821199 146.20551 
L 275.473612 147.003138 
L 283.264388 147.857915 
L 292.117702 148.555682 
L 301.665857 149.06546 
L 313.576124 149.458258 
L 329.855421 149.731649 
L 354.513213 149.876407 
L 389.415516 149.914435 
L 389.415516 149.914435 
" clip-path="url(#p46f24563bc)" style="fill: none; stroke: #0000ff; stroke-linecap: square"/>
   </g>
   <g id="patch_3">
    <path d="M 71.384484 152.646154 
L 71.384484 10.8 
" style="fill: none; stroke: #000000; stroke-width: 0.8; stroke-linejoin: miter; stroke-linecap: square"/>
   </g>
   <g id="patch_4">
    <path d="M 65.023863 149.918343 
L 395.776137 149.918343 
" style="fill: none; stroke: #000000; stroke-width: 0.8; stroke-linejoin: miter; stroke-linecap: square"/>
   </g>
  </g>
  <g id="axes_2">
   <g id="patch_5">
    <path d="M 65.030325 320.046154 
L 395.769675 320.046154 
L 395.769675 178.2 
L 65.030325 178.2 
z
" style="fill: #ffffff"/>
   </g>
   <g id="matplotlib.axis_3">
    <g id="xtick_22">
     <g id="line2d_47">
      <g>
       <use xlink:href="#mea9fcc0f3c" x="71.390697" y="317.318343" style="stroke: #000000; stroke-width: 0.8"/>
      </g>
     </g>
    </g>
    <g id="xtick_23">
     <g id="line2d_48">
      <g>
       <use xlink:href="#mea9fcc0f3c" x="150.895349" y="317.318343" style="stroke: #000000; stroke-width: 0.8"/>
      </g>
     </g>
     <g id="text_10">
      <!-- 0.5 -->
      <g transform="translate(142.943786 331.916781) scale(0.1 -0.1)">
       <use xlink:href="#DejaVuSans-30"/>
       <use xlink:href="#DejaVuSans-2e" transform="translate(63.623047 0)"/>
       <use xlink:href="#DejaVuSans-35" transform="translate(95.410156 0)"/>
      </g>
     </g>
    </g>
    <g id="xtick_24">
     <g id="line2d_49">
      <g>
       <use xlink:href="#mea9fcc0f3c" x="230.4" y="317.318343" style="stroke: #000000; stroke-width: 0.8"/>
      </g>
     </g>
     <g id="text_11">
      <!-- 1.0 -->
      <g transform="translate(222.448437 331.916781) scale(0.1 -0.1)">
       <use xlink:href="#DejaVuSans-31"/>
       <use xlink:href="#DejaVuSans-2e" transform="translate(63.623047 0)"/>
       <use xlink:href="#DejaVuSans-30" transform="translate(95.410156 0)"/>
      </g>
     </g>
    </g>
    <g id="xtick_25">
     <g id="line2d_50">
      <g>
       <use xlink:href="#mea9fcc0f3c" x="309.904651" y="317.318343" style="stroke: #000000; stroke-width: 0.8"/>
      </g>
     </g>
     <g id="text_12">
      <!-- 1.5 -->
      <g transform="translate(301.953089 331.916781) scale(0.1 -0.1)">
       <use xlink:href="#DejaVuSans-31"/>
       <use xlink:href="#DejaVuSans-2e" transform="translate(63.623047 0)"/>
       <use xlink:href="#DejaVuSans-35" transform="translate(95.410156 0)"/>
      </g>
     </g>
    </g>
    <g id="xtick_26">
     <g id="line2d_51">
      <g>
       <use xlink:href="#mea9fcc0f3c" x="389.409303" y="317.318343" style="stroke: #000000; stroke-width: 0.8"/>
      </g>
     </g>
     <g id="text_13">
      <!-- 2.0 -->
      <g transform="translate(381.45774 331.916781) scale(0.1 -0.1)">
       <use xlink:href="#DejaVuSans-32"/>
       <use xlink:href="#DejaVuSans-2e" transform="translate(63.623047 0)"/>
       <use xlink:href="#DejaVuSans-30" transform="translate(95.410156 0)"/>
      </g>
     </g>
    </g>
    <g id="xtick_27">
     <g id="line2d_52">
      <g>
       <use xlink:href="#mb5239889b3" x="87.291627" y="317.318343" style="stroke: #000000; stroke-width: 0.6"/>
      </g>
     </g>
    </g>
    <g id="xtick_28">
     <g id="line2d_53">
      <g>
       <use xlink:href="#mb5239889b3" x="103.192558" y="317.318343" style="stroke: #000000; stroke-width: 0.6"/>
      </g>
     </g>
    </g>
    <g id="xtick_29">
     <g id="line2d_54">
      <g>
       <use xlink:href="#mb5239889b3" x="119.093488" y="317.318343" style="stroke: #000000; stroke-width: 0.6"/>
      </g>
     </g>
    </g>
    <g id="xtick_30">
     <g id="line2d_55">
      <g>
       <use xlink:href="#mb5239889b3" x="134.994418" y="317.318343" style="stroke: #000000; stroke-width: 0.6"/>
      </g>
     </g>
    </g>
    <g id="xtick_31">
     <g id="line2d_56">
      <g>
       <use xlink:href="#mb5239889b3" x="166.796279" y="317.318343" style="stroke: #000000; stroke-width: 0.6"/>
      </g>
     </g>
    </g>
    <g id="xtick_32">
     <g id="line2d_57">
      <g>
       <use xlink:href="#mb5239889b3" x="182.697209" y="317.318343" style="stroke: #000000; stroke-width: 0.6"/>
      </g>
     </g>
    </g>
    <g id="xtick_33">
     <g id="line2d_58">
      <g>
       <use xlink:href="#mb5239889b3" x="198.598139" y="317.318343" style="stroke: #000000; stroke-width: 0.6"/>
      </g>
     </g>
    </g>
    <g id="xtick_34">
     <g id="line2d_59">
      <g>
       <use xlink:href="#mb5239889b3" x="214.49907" y="317.318343" style="stroke: #000000; stroke-width: 0.6"/>
      </g>
     </g>
    </g>
    <g id="xtick_35">
     <g id="line2d_60">
      <g>
       <use xlink:href="#mb5239889b3" x="246.30093" y="317.318343" style="stroke: #000000; stroke-width: 0.6"/>
      </g>
     </g>
    </g>
    <g id="xtick_36">
     <g id="line2d_61">
      <g>
       <use xlink:href="#mb5239889b3" x="262.201861" y="317.318343" style="stroke: #000000; stroke-width: 0.6"/>
      </g>
     </g>
    </g>
    <g id="xtick_37">
     <g id="line2d_62">
      <g>
       <use xlink:href="#mb5239889b3" x="278.102791" y="317.318343" style="stroke: #000000; stroke-width: 0.6"/>
      </g>
     </g>
    </g>
    <g id="xtick_38">
     <g id="line2d_63">
      <g>
       <use xlink:href="#mb5239889b3" x="294.003721" y="317.318343" style="stroke: #000000; stroke-width: 0.6"/>
      </g>
     </g>
    </g>
    <g id="xtick_39">
     <g id="line2d_64">
      <g>
       <use xlink:href="#mb5239889b3" x="325.805582" y="317.318343" style="stroke: #000000; stroke-width: 0.6"/>
      </g>
     </g>
    </g>
    <g id="xtick_40">
     <g id="line2d_65">
      <g>
       <use xlink:href="#mb5239889b3" x="341.706512" y="317.318343" style="stroke: #000000; stroke-width: 0.6"/>
      </g>
     </g>
    </g>
    <g id="xtick_41">
     <g id="line2d_66">
      <g>
       <use xlink:href="#mb5239889b3" x="357.607442" y="317.318343" style="stroke: #000000; stroke-width: 0.6"/>
      </g>
     </g>
    </g>
    <g id="xtick_42">
     <g id="line2d_67">
      <g>
       <use xlink:href="#mb5239889b3" x="373.508373" y="317.318343" style="stroke: #000000; stroke-width: 0.6"/>
      </g>
     </g>
    </g>
   </g>
   <g id="matplotlib.axis_4">
    <g id="ytick_23">
     <g id="line2d_68">
      <g>
       <use xlink:href="#m995da96eea" x="71.390697" y="317.318343" style="stroke: #000000; stroke-width: 0.8"/>
      </g>
     </g>
    </g>
    <g id="ytick_24">
     <g id="line2d_69">
      <g>
       <use xlink:href="#m995da96eea" x="71.390697" y="291.876855" style="stroke: #000000; stroke-width: 0.8"/>
      </g>
     </g>
     <g id="text_14">
      <!-- 0.2 -->
      <g transform="translate(48.487572 295.676073) scale(0.1 -0.1)">
       <use xlink:href="#DejaVuSans-30"/>
       <use xlink:href="#DejaVuSans-2e" transform="translate(63.623047 0)"/>
       <use xlink:href="#DejaVuSans-32" transform="translate(95.410156 0)"/>
      </g>
     </g>
    </g>
    <g id="ytick_25">
     <g id="line2d_70">
      <g>
       <use xlink:href="#m995da96eea" x="71.390697" y="266.435366" style="stroke: #000000; stroke-width: 0.8"/>
      </g>
     </g>
     <g id="text_15">
      <!-- 0.4 -->
      <g transform="translate(48.487572 270.234585) scale(0.1 -0.1)">
       <use xlink:href="#DejaVuSans-30"/>
       <use xlink:href="#DejaVuSans-2e" transform="translate(63.623047 0)"/>
       <use xlink:href="#DejaVuSans-34" transform="translate(95.410156 0)"/>
      </g>
     </g>
    </g>
    <g id="ytick_26">
     <g id="line2d_71">
      <g>
       <use xlink:href="#m995da96eea" x="71.390697" y="240.993878" style="stroke: #000000; stroke-width: 0.8"/>
      </g>
     </g>
     <g id="text_16">
      <!-- 0.6 -->
      <g transform="translate(48.487572 244.793097) scale(0.1 -0.1)">
       <use xlink:href="#DejaVuSans-30"/>
       <use xlink:href="#DejaVuSans-2e" transform="translate(63.623047 0)"/>
       <use xlink:href="#DejaVuSans-36" transform="translate(95.410156 0)"/>
      </g>
     </g>
    </g>
    <g id="ytick_27">
     <g id="line2d_72">
      <g>
       <use xlink:href="#m995da96eea" x="71.390697" y="215.552389" style="stroke: #000000; stroke-width: 0.8"/>
      </g>
     </g>
     <g id="text_17">
      <!-- 0.8 -->
      <g transform="translate(48.487572 219.351608) scale(0.1 -0.1)">
       <use xlink:href="#DejaVuSans-30"/>
       <use xlink:href="#DejaVuSans-2e" transform="translate(63.623047 0)"/>
       <use xlink:href="#DejaVuSans-38" transform="translate(95.410156 0)"/>
      </g>
     </g>
    </g>
    <g id="ytick_28">
     <g id="line2d_73">
      <g>
       <use xlink:href="#m995da96eea" x="71.390697" y="190.110901" style="stroke: #000000; stroke-width: 0.8"/>
      </g>
     </g>
     <g id="text_18">
      <!-- 1.0 -->
      <g transform="translate(48.487572 193.91012) scale(0.1 -0.1)">
       <use xlink:href="#DejaVuSans-31"/>
       <use xlink:href="#DejaVuSans-2e" transform="translate(63.623047 0)"/>
       <use xlink:href="#DejaVuSans-30" transform="translate(95.410156 0)"/>
      </g>
     </g>
    </g>
    <g id="ytick_29">
     <g id="line2d_74">
      <g>
       <use xlink:href="#m2d08299f33" x="71.390697" y="310.957971" style="stroke: #000000; stroke-width: 0.6"/>
      </g>
     </g>
    </g>
    <g id="ytick_30">
     <g id="line2d_75">
      <g>
       <use xlink:href="#m2d08299f33" x="71.390697" y="304.597599" style="stroke: #000000; stroke-width: 0.6"/>
      </g>
     </g>
    </g>
    <g id="ytick_31">
     <g id="line2d_76">
      <g>
       <use xlink:href="#m2d08299f33" x="71.390697" y="298.237227" style="stroke: #000000; stroke-width: 0.6"/>
      </g>
     </g>
    </g>
    <g id="ytick_32">
     <g id="line2d_77">
      <g>
       <use xlink:href="#m2d08299f33" x="71.390697" y="285.516483" style="stroke: #000000; stroke-width: 0.6"/>
      </g>
     </g>
    </g>
    <g id="ytick_33">
     <g id="line2d_78">
      <g>
       <use xlink:href="#m2d08299f33" x="71.390697" y="279.156111" style="stroke: #000000; stroke-width: 0.6"/>
      </g>
     </g>
    </g>
    <g id="ytick_34">
     <g id="line2d_79">
      <g>
       <use xlink:href="#m2d08299f33" x="71.390697" y="272.795738" style="stroke: #000000; stroke-width: 0.6"/>
      </g>
     </g>
    </g>
    <g id="ytick_35">
     <g id="line2d_80">
      <g>
       <use xlink:href="#m2d08299f33" x="71.390697" y="260.074994" style="stroke: #000000; stroke-width: 0.6"/>
      </g>
     </g>
    </g>
    <g id="ytick_36">
     <g id="line2d_81">
      <g>
       <use xlink:href="#m2d08299f33" x="71.390697" y="253.714622" style="stroke: #000000; stroke-width: 0.6"/>
      </g>
     </g>
    </g>
    <g id="ytick_37">
     <g id="line2d_82">
      <g>
       <use xlink:href="#m2d08299f33" x="71.390697" y="247.35425" style="stroke: #000000; stroke-width: 0.6"/>
      </g>
     </g>
    </g>
    <g id="ytick_38">
     <g id="line2d_83">
      <g>
       <use xlink:href="#m2d08299f33" x="71.390697" y="234.633506" style="stroke: #000000; stroke-width: 0.6"/>
      </g>
     </g>
    </g>
    <g id="ytick_39">
     <g id="line2d_84">
      <g>
       <use xlink:href="#m2d08299f33" x="71.390697" y="228.273134" style="stroke: #000000; stroke-width: 0.6"/>
      </g>
     </g>
    </g>
    <g id="ytick_40">
     <g id="line2d_85">
      <g>
       <use xlink:href="#m2d08299f33" x="71.390697" y="221.912762" style="stroke: #000000; stroke-width: 0.6"/>
      </g>
     </g>
    </g>
    <g id="ytick_41">
     <g id="line2d_86">
      <g>
       <use xlink:href="#m2d08299f33" x="71.390697" y="209.192017" style="stroke: #000000; stroke-width: 0.6"/>
      </g>
     </g>
    </g>
    <g id="ytick_42">
     <g id="line2d_87">
      <g>
       <use xlink:href="#m2d08299f33" x="71.390697" y="202.831645" style="stroke: #000000; stroke-width: 0.6"/>
      </g>
     </g>
    </g>
    <g id="ytick_43">
     <g id="line2d_88">
      <g>
       <use xlink:href="#m2d08299f33" x="71.390697" y="196.471273" style="stroke: #000000; stroke-width: 0.6"/>
      </g>
     </g>
    </g>
    <g id="ytick_44">
     <g id="line2d_89">
      <g>
       <use xlink:href="#m2d08299f33" x="71.390697" y="183.750529" style="stroke: #000000; stroke-width: 0.6"/>
      </g>
     </g>
    </g>
   </g>
   <g id="line2d_90">
    <path d="M 71.390697 317.318343 
L 84.782438 290.724164 
L 93.35404 274.221784 
L 100.243083 261.482533 
L 106.436265 250.550579 
L 112.387091 240.598672 
L 118.182513 231.497654 
L 123.384823 223.874859 
L 127.465923 218.283017 
L 130.673256 214.139457 
L 134.860562 209.074645 
L 138.945078 204.521717 
L 142.419892 200.95719 
L 146.01411 197.574246 
L 148.88423 195.097512 
L 153.111561 191.815974 
L 156.124127 189.744853 
L 159.322897 187.789465 
L 163.067091 185.818555 
L 165.620239 184.670016 
L 169.15427 183.339193 
L 173.061106 182.213345 
L 176.772437 181.473556 
L 179.609544 181.120161 
L 183.407336 180.927811 
L 186.772287 181.018647 
L 189.30259 181.243911 
L 193.358484 181.876638 
L 196.535492 182.597431 
L 200.531853 183.772113 
L 203.326418 184.762976 
L 206.720303 186.144475 
L 210.292051 187.798382 
L 214.701569 190.104504 
L 218.176169 192.112459 
L 222.542703 194.854043 
L 226.01143 197.190133 
L 232.648776 202.003242 
L 239.394836 207.283191 
L 247.377924 213.917637 
L 256.532684 221.871781 
L 288.737155 250.211772 
L 296.828749 256.909777 
L 304.250826 262.775277 
L 310.314909 267.342155 
L 316.909849 272.058713 
L 323.144902 276.265275 
L 330.761373 281.05887 
L 337.281549 284.856187 
L 343.455413 288.1912 
L 349.731735 291.32479 
L 356.45878 294.40249 
L 361.603582 296.566045 
L 368.531285 299.229142 
L 374.629923 301.346671 
L 382.395422 303.753938 
L 389.409303 305.668915 
L 389.409303 305.668915 
" clip-path="url(#p472ee55977)" style="fill: none; stroke: #ff0000; stroke-linecap: square"/>
   </g>
   <g id="line2d_91">
    <path d="M 71.390697 317.318343 
L 82.695323 294.936491 
L 88.63562 283.630362 
L 94.535231 272.949676 
L 99.820128 263.980843 
L 104.080671 257.237865 
L 108.075961 251.357136 
L 111.798785 246.294256 
L 115.266672 241.961433 
L 118.314526 238.471804 
L 120.58872 236.067625 
L 123.408806 233.328194 
L 126.384604 230.732145 
L 129.675591 228.217214 
L 132.556856 226.323872 
L 135.631501 224.620692 
L 137.580495 223.70971 
L 140.87247 222.465012 
L 143.433451 221.748491 
L 146.283998 221.204767 
L 149.423595 220.907576 
L 152.336337 220.905814 
L 155.011227 221.12817 
L 157.108563 221.447131 
L 160.724006 222.282272 
L 163.660555 223.212906 
L 166.665978 224.38496 
L 170.921075 226.395905 
L 173.099852 227.572771 
L 176.440981 229.553907 
L 179.549619 231.572196 
L 184.138801 234.822005 
L 190.29125 239.595502 
L 195.898341 244.25914 
L 203.361112 250.760094 
L 223.288465 268.346256 
L 228.858475 273.019512 
L 235.663437 278.453965 
L 241.763421 283.021064 
L 246.69758 286.481908 
L 253.133308 290.663122 
L 258.678154 293.954738 
L 264.481609 297.090124 
L 270.291631 299.91657 
L 273.853484 301.49893 
L 279.147691 303.647586 
L 285.078683 305.779884 
L 291.477708 307.777072 
L 296.658461 309.181644 
L 302.391705 310.534151 
L 307.687903 311.612477 
L 314.198365 312.737234 
L 321.503047 313.768985 
L 329.834314 314.695163 
L 339.341773 315.487756 
L 350.789956 316.155567 
L 363.72608 316.640586 
L 379.134556 316.974991 
L 389.409303 317.104976 
L 389.409303 317.104976 
" clip-path="url(#p472ee55977)" style="fill: none; stroke-dasharray: 3.7,1.6; stroke-dashoffset: 0; stroke: #ff0000"/>
   </g>
   <g id="line2d_92">
    <path d="M 71.390697 317.318343 
L 80.528139 299.223608 
L 86.208647 288.444567 
L 91.262655 279.393681 
L 95.033472 273.067237 
L 98.070709 268.280005 
L 101.987026 262.558749 
L 105.485047 257.914764 
L 107.412364 255.555049 
L 110.648696 251.923945 
L 113.091698 249.465649 
L 116.155017 246.734744 
L 117.842491 245.399524 
L 120.248543 243.704836 
L 122.76532 242.195377 
L 125.172057 241.002537 
L 127.691732 240.013606 
L 130.192121 239.290935 
L 132.904161 238.792008 
L 134.858018 238.611598 
L 138.186724 238.63758 
L 141.229998 239.013133 
L 144.239404 239.696258 
L 146.562727 240.423263 
L 149.442938 241.550224 
L 152.758501 243.133252 
L 156.009646 244.954165 
L 159.085327 246.894612 
L 163.298418 249.84904 
L 167.167107 252.812768 
L 173.000933 257.623294 
L 181.084676 264.696787 
L 195.18617 277.137373 
L 200.056691 281.22583 
L 206.445182 286.298059 
L 210.675548 289.441913 
L 215.007739 292.465 
L 219.950544 295.658169 
L 224.89255 298.570532 
L 229.348051 300.955145 
L 233.72972 303.080889 
L 238.825353 305.288405 
L 243.728146 307.156856 
L 248.159172 308.643318 
L 253.334244 310.15453 
L 257.976853 311.321506 
L 263.760948 312.551498 
L 270.678402 313.737672 
L 277.360892 314.634617 
L 284.739872 315.392667 
L 293.524718 316.044924 
L 304.074399 316.563474 
L 316.644352 316.928269 
L 332.917591 317.161999 
L 360.309747 317.289478 
L 389.409303 317.314435 
L 389.409303 317.314435 
" clip-path="url(#p472ee55977)" style="fill: none; stroke-dasharray: 6.4,1.6,1,1.6; stroke-dashoffset: 0; stroke: #008000"/>
   </g>
   <g id="patch_6">
    <path d="M 71.390697 320.046154 
L 71.390697 178.2 
" style="fill: none; stroke: #000000; stroke-width: 0.8; stroke-linejoin: miter; stroke-linecap: square"/>
   </g>
   <g id="patch_7">
    <path d="M 65.030325 317.318343 
L 395.769675 317.318343 
" style="fill: none; stroke: #000000; stroke-width: 0.8; stroke-linejoin: miter; stroke-linecap: square"/>
   </g>
  </g>
 </g>
 <defs>
  <clipPath id="p46f24563bc">
   <rect x="65.023863" y="10.8" width="330.752274" height="141.846154"/>
  </clipPath>
  <clipPath id="p472ee55977">
   <rect x="65.030325" y="178.2" width="330.73935" height="141.846154"/>
  </clipPath>
 </defs>
</svg>
