<?xml version="1.0" encoding="utf-8" standalone="no"?>
<!DOCTYPE svg PUBLIC "-//W3C//DTD SVG 1.1//EN"
  "http://www.w3.org/Graphics/SVG/1.1/DTD/svg11.dtd">
<svg xmlns:xlink="http://www.w3.org/1999/xlink" width="460.8pt" height="345.6pt" viewBox="0 0 460.8 345.6" xmlns="http://www.w3.org/2000/svg" version="1.1">
 <metadata>
  <rdf:RDF xmlns:dc="http://purl.org/dc/elements/1.1/" xmlns:cc="http://creativecommons.org/ns#" xmlns:rdf="http://www.w3.org/1999/02/22-rdf-syntax-ns#">
   <cc:Work>
    <dc:type rdf:resource="http://purl.org/dc/dcmitype/StillImage"/>
    <dc:date>2025-08-02T18:54:30.896665</dc:date>
    <dc:format>image/svg+xml</dc:format>
    <dc:creator>
     <cc:Agent>
      <dc:title>Matplotlib v3.10.3, https://matplotlib.org/</dc:title>
     </cc:Agent>
    </dc:creator>
   </cc:Work>
  </rdf:RDF>
 </metadata>
 <defs>
  <style type="text/css">*{stroke-linejoin: round; stroke-linecap: butt}</style>
 </defs>
 <g id="figure_1">
  <g id="patch_1">
   <path d="M 0 345.6 
L 460.8 345.6 
L 460.8 0 
L 0 0 
z
" style="fill: #ffffff"/>
  </g>
  <g id="axes_1">
   <g id="patch_2">
    <path d="M 23.323698 345.6 
L 460.8 345.6 
L 460.8 3.883186 
L 23.323698 3.883186 
z
" style="fill: #ffffff"/>
   </g>
   <g id="patch_3">
    <path d="M 31.736704 216.45083 
L 31.736704 216.45083 
L 34.592883 192.460229 
L 35.048175 188.658066 
L 37.779235 166.102209 
L 39.943052 148.668535 
L 41.990501 132.664222 
L 44.732966 112.175763 
L 46.990017 96.2938 
L 48.939566 83.399321 
L 50.574991 73.233798 
L 53.866477 54.761449 
L 54.794001 50.070204 
L 56.369301 42.651803 
L 58.173323 35.036971 
L 60.348354 27.156975 
L 62.866222 19.877389 
L 65.649989 14.201045 
L 68.348978 11.121914 
L 69.156813 10.667404 
L 71.101355 10.454664 
L 72.888554 11.350641 
L 74.675753 13.27875 
L 76.949761 17.193456 
L 77.534379 18.458722 
L 80.068598 25.129755 
L 81.705833 30.430708 
L 83.77924 38.20317 
L 86.737785 51.206837 
L 88.058511 57.683389 
L 91.75197 77.746074 
L 92.097486 79.75631 
L 95.776964 102.358696 
L 96.599358 107.672898 
L 98.996718 123.600157 
L 102.04571 144.570169 
L 103.840431 157.149643 
L 106.0677 172.864503 
L 108.124663 187.361924 
L 109.196503 194.871094 
L 111.133421 208.299181 
L 114.290584 229.588861 
L 116.203429 241.990143 
L 117.708107 251.416304 
L 120.833839 269.901301 
L 122.498406 279.056848 
L 125.118622 292.371682 
L 127.720955 304.140639 
L 127.987334 305.258401 
L 130.449105 314.786399 
L 132.429056 321.361962 
L 134.289083 326.621555 
L 136.14911 330.969115 
L 137.116424 332.864043 
L 138.744177 335.48195 
L 140.371931 337.380419 
L 141.319916 338.154221 
L 143.816456 339.028523 
L 146.548356 338.078435 
L 147.568838 337.223104 
L 150.074213 334.003878 
L 152.65671 329.086011 
L 154.894295 323.588966 
L 157.424203 316.093507 
L 157.545398 315.702335 
L 161.553332 301.267563 
L 163.024888 295.305871 
L 164.176789 290.423086 
L 166.789276 278.732575 
L 168.19545 272.136764 
L 172.144415 252.781072 
L 172.960443 248.672245 
L 174.783032 239.418957 
L 176.901572 228.604336 
L 179.616611 214.813003 
L 180.898206 208.386381 
L 183.922076 193.595813 
L 186.191565 182.972542 
L 188.976389 170.678217 
L 190.809457 163.118046 
L 192.626924 156.098079 
L 193.636073 152.421639 
L 195.643106 145.613628 
L 197.906851 138.792791 
L 200.35153 132.518607 
L 202.24572 128.477725 
L 204.961436 123.985217 
L 208.102245 120.755327 
L 208.953932 120.247744 
L 212.288675 119.773869 
L 212.618111 119.857195 
L 215.332508 121.420155 
L 216.849564 122.962284 
L 219.015232 125.966744 
L 221.947335 131.469684 
L 223.615599 135.293891 
L 226.869074 144.073396 
L 227.557856 146.139221 
L 229.782852 153.258722 
L 232.779415 163.80273 
L 233.61936 166.928211 
L 237.235996 181.061776 
L 239.675281 191.060079 
L 240.185684 193.184398 
L 243.772782 208.278802 
L 244.672946 212.08034 
L 248.172706 226.721531 
L 248.584162 228.41651 
L 251.554779 240.386357 
L 253.197641 246.749603 
L 255.539726 255.415765 
L 257.936391 263.697035 
L 261.032196 273.357307 
L 262.531876 277.56508 
L 264.339446 282.190886 
L 266.621803 287.292397 
L 268.398032 290.66143 
L 269.54714 292.550104 
L 273.178366 296.964349 
L 274.260503 297.813398 
L 276.877403 298.968417 
L 279.555163 298.833704 
L 281.626323 297.825731 
L 282.728579 296.973501 
L 286.027105 293.152451 
L 287.901785 290.165546 
L 288.770766 288.59011 
L 291.409654 283.103761 
L 294.202983 276.230575 
L 296.021859 271.226008 
L 297.619126 266.523782 
L 300.583765 257.135183 
L 301.915323 252.680266 
L 303.893514 245.842214 
L 306.919008 235.003379 
L 309.163669 226.780935 
L 309.890873 224.101845 
L 313.302621 211.556718 
L 314.374864 207.656396 
L 317.658232 195.987529 
L 319.44011 189.899761 
L 322.096249 181.257692 
L 323.142051 178.022022 
L 324.581038 173.744485 
L 328.615763 162.976162 
L 330.619836 158.382403 
L 331.028895 157.511591 
L 334.276834 151.448658 
L 336.685291 147.97781 
L 338.736053 145.743671 
L 340.090808 144.640652 
L 341.552841 143.787643 
L 345.112398 143.186035 
L 345.674401 143.282078 
L 348.409389 144.484615 
L 351.704195 147.515112 
L 352.037604 147.915088 
L 354.930059 152.073166 
L 356.486586 154.800696 
L 360.029057 162.180674 
L 361.202528 164.955502 
L 364.426998 173.320921 
L 365.876862 177.395916 
L 368.883052 186.352828 
L 370.788435 192.316135 
L 371.509783 194.619059 
L 374.826477 205.431046 
L 376.708436 211.657702 
L 377.76968 215.173977 
L 379.845054 222.020514 
L 383.041318 232.357146 
L 384.536812 237.050303 
L 387.758703 246.712852 
L 389.422764 251.407033 
L 392.083432 258.404441 
L 394.156964 263.365436 
L 394.958169 265.155808 
L 397.890403 271.057557 
L 400.376345 275.203791 
L 401.243411 276.454125 
L 403.495079 279.20918 
L 404.93863 280.592378 
L 408.372592 282.646814 
L 410.397617 283.031133 
L 411.367891 282.997064 
L 413.477241 282.437899 
L 416.106676 280.823649 
L 419.313675 277.522673 
L 420.965697 275.276914 
L 422.414925 273.016922 
L 423.858902 270.507692 
L 427.300702 263.567572 
L 429.053477 259.562457 
L 430.495804 256.055295 
L 434.187553 246.334245 
L 434.797382 244.640692 
L 437.303411 237.476188 
L 438.823209 233.001615 
L 441.601896 224.6584 
L 444.589177 215.597235 
L 446.714535 209.190116 
L 447.71441 206.208799 
L 449.589896 200.703328 
L 452.386994 192.782364 
L 452.386994 216.45083 
z
" clip-path="url(#p8e819a4d42)" style="fill: #b2b3ff; opacity: 0.5"/>
   </g>
   <g id="patch_4">
    <path d="M 31.736704 216.45083 
L 31.736704 216.45083 
L 34.742726 215.548115 
L 36.737075 213.960462 
L 37.669527 212.951808 
L 41.129974 207.767108 
L 43.243858 203.527494 
L 44.542802 200.540822 
L 45.554567 198.022072 
L 48.661003 189.303119 
L 50.292879 184.174829 
L 52.297454 177.416547 
L 55.852745 164.371461 
L 57.569983 157.677724 
L 58.550393 153.765719 
L 61.893914 140.065045 
L 63.387972 133.829764 
L 65.345873 125.627022 
L 66.706113 119.942519 
L 69.28032 109.314519 
L 71.328905 101.070056 
L 73.376094 93.109812 
L 76.982199 80.009045 
L 78.181481 75.971433 
L 80.380529 69.056024 
L 81.827295 64.884802 
L 83.936729 59.395134 
L 86.056744 54.644005 
L 89.584969 48.596503 
L 91.524303 46.331443 
L 92.339223 45.614071 
L 94.30069 44.471167 
L 97.335123 44.367297 
L 98.652548 44.962914 
L 100.644686 46.60693 
L 103.680933 50.831861 
L 105.26659 53.855215 
L 107.286408 58.501892 
L 110.786403 68.592341 
L 111.836413 72.10262 
L 115.199328 84.747188 
L 115.393569 85.539716 
L 119.2636 102.616895 
L 119.649992 104.447612 
L 121.799982 115.005692 
L 123.88537 125.791131 
L 126.80722 141.65036 
L 129.847138 158.848777 
L 131.810838 170.210199 
L 132.671525 175.228334 
L 135.104805 189.470525 
L 137.731963 204.804818 
L 138.497459 209.238781 
L 141.611088 226.982738 
L 144.468039 242.663672 
L 146.003356 250.772353 
L 147.892151 260.380662 
L 150.185661 271.423682 
L 151.653204 278.087912 
L 155.146687 292.532026 
L 156.68983 298.217853 
L 159.381326 307.028152 
L 161.371144 312.587904 
L 162.275771 314.836793 
L 165.496027 321.381678 
L 166.516006 322.969222 
L 168.728794 325.596071 
L 171.203615 327.19921 
L 173.608014 327.40777 
L 176.038346 326.283665 
L 177.306867 325.173786 
L 179.769933 322.022322 
L 181.063643 319.855527 
L 183.958109 313.793356 
L 185.332638 310.355819 
L 188.535024 301.06317 
L 191.026671 292.70611 
L 191.438575 291.238696 
L 194.39957 280.051858 
L 196.955175 269.614758 
L 198.344959 263.690921 
L 200.32495 255.010498 
L 202.678125 244.417882 
L 205.582722 231.10642 
L 206.21014 228.217684 
L 209.885788 211.381882 
L 211.528581 203.987738 
L 214.424177 191.317393 
L 214.831712 189.581201 
L 218.36786 175.140007 
L 220.105938 168.521998 
L 222.286541 160.747036 
L 223.702327 156.045166 
L 226.864169 146.631044 
L 227.969143 143.720099 
L 230.48355 137.878034 
L 233.416315 132.505665 
L 233.626727 132.181967 
L 237.277653 127.919098 
L 238.361872 127.152664 
L 241.204071 126.239587 
L 243.929571 126.848612 
L 244.740135 127.306749 
L 247.087815 129.335724 
L 250.279973 133.714822 
L 250.82357 134.639311 
L 254.541483 142.269959 
L 255.621118 144.889568 
L 257.511529 149.878371 
L 259.305246 155.051918 
L 262.510923 165.239151 
L 264.954032 173.687757 
L 265.491296 175.612375 
L 268.862172 188.123558 
L 269.953835 192.30278 
L 271.809482 199.501247 
L 274.716982 210.903849 
L 277.795159 222.934743 
L 279.809774 230.670371 
L 281.719414 237.82979 
L 283.290963 243.555307 
L 284.338432 247.272068 
L 287.038648 256.420326 
L 289.143889 263.050971 
L 290.701079 267.632958 
L 294.151715 276.688454 
L 295.014719 278.697382 
L 297.568113 283.995364 
L 300.69694 289.097222 
L 302.171171 290.945471 
L 304.736154 293.285556 
L 307.172972 294.461311 
L 308.193955 294.648412 
L 311.24342 294.136444 
L 313.014315 293.111265 
L 316.016151 290.186191 
L 316.991305 288.924322 
L 319.877541 284.336673 
L 320.93756 282.345425 
L 323.296502 277.362104 
L 325.21002 272.797541 
L 328.658833 263.525225 
L 330.468503 258.193056 
L 332.37043 252.299253 
L 333.258178 249.459939 
L 335.22078 243.015572 
L 339.166367 229.560176 
L 339.882024 227.076134 
L 342.887945 216.606746 
L 343.619578 214.065378 
L 345.835342 206.434625 
L 349.505154 194.191843 
L 350.869285 189.826915 
L 352.439514 184.962535 
L 355.279858 176.67758 
L 358.113807 169.189889 
L 359.528478 165.783036 
L 361.648312 161.130505 
L 363.602466 157.354841 
L 366.515619 152.703539 
L 367.264915 151.704587 
L 370.372568 148.457714 
L 372.696991 146.99598 
L 375.113935 146.368695 
L 376.772034 146.466045 
L 378.310819 146.938303 
L 379.646807 147.643341 
L 382.073853 149.612236 
L 384.95694 153.064871 
L 386.494773 155.377987 
L 389.09989 159.998374 
L 391.296423 164.531853 
L 393.964298 170.743794 
L 394.621707 172.382591 
L 397.128222 178.978393 
L 398.917385 183.98449 
L 402.554922 194.75971 
L 403.467947 197.560609 
L 405.683625 204.464516 
L 407.872342 211.373128 
L 409.483055 216.470386 
L 411.705214 223.460773 
L 413.55149 229.182384 
L 416.641706 238.459958 
L 418.730786 244.436779 
L 420.022253 247.98303 
L 423.703887 257.343128 
L 425.928916 262.37709 
L 427.477999 265.569041 
L 428.774628 268.029785 
L 430.72129 271.343382 
L 433.130367 274.777518 
L 435.927818 277.79154 
L 437.157498 278.773873 
L 438.664447 279.686571 
L 442.392855 280.549708 
L 443.662918 280.388708 
L 445.118687 279.921631 
L 447.643584 278.406021 
L 450.837395 275.246085 
L 452.386994 273.234555 
L 452.386994 216.45083 
z
" clip-path="url(#p8e819a4d42)" style="fill: #c9ffb2; opacity: 0.5"/>
   </g>
   <g id="patch_5">
    <path d="M 31.736704 216.45083 
L 31.736704 216.45083 
L 33.144325 216.448619 
L 35.556253 216.406733 
L 38.164997 216.241412 
L 40.624494 215.900285 
L 42.790433 215.39819 
L 43.509213 215.182156 
L 46.576346 213.939064 
L 49.667477 212.083237 
L 50.287913 211.62958 
L 52.69082 209.596569 
L 54.62853 207.621898 
L 56.084611 205.932113 
L 59.221974 201.669849 
L 60.55855 199.591385 
L 63.433703 194.584988 
L 65.242563 191.064023 
L 67.72452 185.778595 
L 69.416285 181.885833 
L 70.843199 178.42832 
L 72.960941 173.020041 
L 76.661337 162.85814 
L 78.478737 157.583017 
L 79.710976 153.917651 
L 82.355233 145.855931 
L 83.730382 141.581973 
L 86.417428 133.135272 
L 88.449175 126.720077 
L 91.775653 116.306264 
L 93.91559 109.755945 
L 94.916255 106.754223 
L 97.772801 98.470095 
L 98.388307 96.750403 
L 101.206357 89.236139 
L 103.59522 83.402101 
L 104.999364 80.237364 
L 106.786642 76.522662 
L 109.026205 72.40807 
L 111.147931 69.112672 
L 113.416532 66.289552 
L 115.426396 64.431804 
L 117.98284 62.991002 
L 120.420995 62.622085 
L 121.576035 62.800352 
L 124.339702 64.16854 
L 127.885167 67.896274 
L 128.288919 68.462005 
L 130.571896 72.201562 
L 133.587793 78.532342 
L 134.713467 81.292194 
L 138.240264 91.281513 
L 139.814741 96.37034 
L 142.526654 105.98482 
L 143.563901 109.929996 
L 146.868127 123.395739 
L 146.969034 123.826996 
L 149.133184 133.333646 
L 152.139084 147.262444 
L 155.216329 162.21113 
L 155.816004 165.186972 
L 158.899733 180.712345 
L 160.800323 190.395391 
L 162.013269 196.588587 
L 164.56524 209.577674 
L 165.997904 216.804068 
L 169.651631 234.823833 
L 172.078678 246.317987 
L 173.098608 251.00189 
L 175.919906 263.421107 
L 177.764612 271.05544 
L 180.076186 280.002707 
L 180.791419 282.620267 
L 184.973587 296.35431 
L 185.768161 298.640301 
L 188.391517 305.401261 
L 190.823184 310.543528 
L 192.162019 312.895293 
L 195.064888 316.791303 
L 196.891248 318.383934 
L 199.077283 319.409168 
L 199.828675 319.539543 
L 202.81575 318.940576 
L 205.206049 317.192788 
L 206.394728 315.913152 
L 208.391142 313.166955 
L 211.684071 307.069194 
L 214.261236 301.020772 
L 214.942019 299.248074 
L 217.059821 293.296054 
L 220.110845 283.653039 
L 221.519418 278.821621 
L 224.366477 268.430363 
L 225.735066 263.17837 
L 227.686994 255.451855 
L 230.62416 243.425118 
L 231.566601 239.493859 
L 234.922332 225.358083 
L 235.819202 221.571731 
L 239.817598 204.876387 
L 240.220066 203.225653 
L 244.15196 187.577571 
L 245.010415 184.304475 
L 246.508622 178.743209 
L 250.001508 166.644081 
L 251.536824 161.765481 
L 254.083026 154.346609 
L 256.462386 148.239919 
L 258.219459 144.28142 
L 259.501522 141.703122 
L 261.878238 137.642869 
L 263.907861 134.939644 
L 265.362727 133.445989 
L 267.983841 131.706416 
L 269.716281 131.233484 
L 272.654958 131.661398 
L 274.828302 132.961117 
L 277.240825 135.357792 
L 278.959337 137.657501 
L 282.115175 143.100379 
L 282.537413 143.943008 
L 284.915903 149.163348 
L 287.190289 154.861123 
L 289.157636 160.294129 
L 292.23711 169.619424 
L 292.956701 171.925429 
L 296.693262 184.524927 
L 298.349386 190.377481 
L 301.117356 200.400137 
L 302.115187 204.060782 
L 305.095403 215.039685 
L 305.752556 217.45534 
L 308.186544 226.326863 
L 311.251859 237.198124 
L 312.959093 243.034604 
L 315.364796 250.909737 
L 316.645216 254.905991 
L 318.669092 260.905256 
L 322.00214 269.821447 
L 323.596552 273.613505 
L 325.136144 276.959529 
L 328.125912 282.514226 
L 329.030047 283.93739 
L 330.924004 286.51691 
L 333.057184 288.754478 
L 336.767432 290.915694 
L 338.186835 291.153978 
L 340.347601 290.89131 
L 343.232797 289.377156 
L 345.538228 287.234546 
L 346.851784 285.655213 
L 348.986657 282.554368 
L 350.551142 279.87943 
L 352.205055 276.700569 
L 355.056622 270.432412 
L 356.93125 265.816783 
L 360.23302 256.861603 
L 360.868777 255.031065 
L 363.018384 248.626554 
L 366.699349 237.044257 
L 368.476772 231.258874 
L 369.859556 226.706661 
L 371.69143 220.642078 
L 374.472716 211.452775 
L 377.341262 202.142613 
L 377.630781 201.218754 
L 380.48892 192.315467 
L 383.489489 183.510636 
L 385.659074 177.583594 
L 385.885089 176.990209 
L 388.239581 171.10497 
L 391.745548 163.447542 
L 392.331999 162.30767 
L 395.721214 156.577724 
L 398.419499 153.119813 
L 400.441155 151.203138 
L 402.033246 150.111028 
L 404.023102 149.270565 
L 406.500056 149.04388 
L 408.045135 149.361922 
L 409.154185 149.806049 
L 411.903807 151.672369 
L 414.791002 154.769663 
L 416.86005 157.671371 
L 419.466239 162.085124 
L 421.679586 166.448671 
L 423.548995 170.535571 
L 424.377163 172.454531 
L 426.199121 176.891236 
L 429.055147 184.371899 
L 430.406012 188.100111 
L 432.88109 195.182277 
L 435.99875 204.435954 
L 436.864399 207.046768 
L 439.395751 214.722512 
L 442.470618 224.004782 
L 444.394232 229.708744 
L 446.584159 236.036126 
L 448.368107 241.016034 
L 449.562613 244.244405 
L 452.386994 251.476041 
L 452.386994 216.45083 
z
" clip-path="url(#p8e819a4d42)" style="fill: #ffb2df; opacity: 0.5"/>
   </g>
   <g id="patch_6">
    <path d="M 31.736704 216.45083 
L 31.736704 216.45083 
L 32.92776 216.45082 
L 36.127526 216.449082 
L 38.633285 216.440226 
L 41.033565 216.415966 
L 43.361323 216.366077 
L 43.674415 216.356649 
L 46.999027 216.201769 
L 47.906011 216.138091 
L 51.137157 215.811112 
L 53.241139 215.494529 
L 54.770564 215.201797 
L 56.65864 214.756726 
L 58.636943 214.178141 
L 61.771595 212.990471 
L 63.923117 211.957048 
L 64.94825 211.395862 
L 68.474654 209.095165 
L 70.558792 207.444882 
L 72.737749 205.47126 
L 74.256143 203.939206 
L 75.902679 202.127489 
L 78.326015 199.168866 
L 80.586994 196.088246 
L 82.287703 193.565104 
L 85.257104 188.736535 
L 87.751695 184.270567 
L 89.097156 181.710966 
L 90.368466 179.198323 
L 92.790361 174.169044 
L 96.006053 167.035888 
L 96.90948 164.946735 
L 100.280206 156.866743 
L 101.037073 154.997907 
L 104.335042 146.672601 
L 105.425984 143.867479 
L 107.863179 137.544677 
L 110.939444 129.527186 
L 112.256262 126.11012 
L 113.40528 123.14714 
L 117.093274 113.83688 
L 118.970482 109.268988 
L 121.405792 103.580739 
L 123.34324 99.288778 
L 124.242351 97.377819 
L 127.523462 90.903649 
L 128.624868 88.925494 
L 130.935048 85.133716 
L 133.954059 80.980311 
L 135.062991 79.702364 
L 137.138315 77.693524 
L 139.8541 75.861349 
L 140.897111 75.409367 
L 144.381408 74.961959 
L 145.247504 75.111994 
L 148.688084 76.768445 
L 151.051407 78.905063 
L 152.387136 80.476186 
L 153.901533 82.575361 
L 157.38047 88.668427 
L 158.7141 91.467043 
L 160.740566 96.198751 
L 162.779278 101.526503 
L 164.553534 106.609344 
L 167.586018 116.205686 
L 168.581057 119.590319 
L 170.319586 125.764921 
L 173.656486 138.467595 
L 176.023946 148.074189 
L 177.87734 155.884985 
L 179.454068 162.699663 
L 182.104932 174.438239 
L 183.227444 179.491015 
L 185.47523 189.705258 
L 188.752689 204.691419 
L 190.852391 214.250481 
L 191.829707 218.666311 
L 193.454912 225.939151 
L 196.103671 237.535044 
L 198.786815 248.842296 
L 200.885914 257.296976 
L 203.864884 268.580689 
L 205.214991 273.380336 
L 207.566601 281.216925 
L 209.825908 288.064924 
L 210.629928 290.329991 
L 213.788832 298.298085 
L 214.747595 300.410039 
L 218.687034 307.502956 
L 220.441314 309.811732 
L 221.169603 310.612326 
L 224.63399 313.132881 
L 227.095081 313.619669 
L 228.970015 313.263815 
L 229.627447 312.991183 
L 233.389959 309.978452 
L 235.212943 307.651112 
L 237.047039 304.76022 
L 238.933752 301.23331 
L 239.965665 299.076222 
L 243.497056 290.550456 
L 246.233405 282.831431 
L 246.691825 281.452243 
L 249.167325 273.618986 
L 251.56909 265.463591 
L 252.93644 260.611953 
L 254.757266 253.953831 
L 258.026251 241.563506 
L 259.566031 235.593417 
L 262.526507 224.003856 
L 265.193658 213.5734 
L 266.039708 210.291127 
L 269.369348 197.615207 
L 271.326383 190.421411 
L 272.076331 187.729537 
L 274.322249 179.920733 
L 277.881663 168.467179 
L 278.798523 165.72816 
L 280.1214 161.945037 
L 282.788259 154.970003 
L 284.494002 150.999325 
L 286.765672 146.348082 
L 290.665916 140.169072 
L 292.642293 137.952795 
L 294.899733 136.198833 
L 295.894319 135.692455 
L 297.407601 135.236365 
L 300.369969 135.44132 
L 302.430898 136.433571 
L 303.86029 137.524133 
L 307.1721 141.279777 
L 309.568873 145.022657 
L 311.122785 147.883406 
L 313.479946 152.834701 
L 314.891847 156.131643 
L 317.703504 163.369337 
L 318.950951 166.841374 
L 320.771448 172.163703 
L 324.007838 182.264855 
L 326.544363 190.630721 
L 328.110272 195.938176 
L 329.101927 199.340434 
L 331.901694 209.050471 
L 334.726273 218.8764 
L 335.196258 220.502931 
L 338.293758 231.07899 
L 341.208539 240.671503 
L 342.827757 245.786707 
L 345.317116 253.276418 
L 345.874698 254.883769 
L 349.103129 263.611733 
L 350.281773 266.529255 
L 353.09366 272.842522 
L 355.461677 277.395955 
L 356.754988 279.568844 
L 360.321937 284.347849 
L 362.061756 286.008 
L 363.464173 287.017198 
L 365.100613 287.819053 
L 367.790143 288.251862 
L 369.665199 287.903182 
L 373.057344 285.9344 
L 375.081968 283.959584 
L 375.633447 283.3212 
L 378.673696 279.058958 
L 379.783531 277.201759 
L 382.080514 272.878168 
L 385.124588 266.228411 
L 387.705157 259.864078 
L 389.883235 254.046273 
L 390.856565 251.331428 
L 393.686382 243.10058 
L 395.005186 239.122563 
L 397.459115 231.546501 
L 400.50109 221.967371 
L 400.60092 221.651458 
L 403.139891 213.626702 
L 405.022218 207.731671 
L 408.078466 198.383353 
L 410.914742 190.094129 
L 411.299631 189.005966 
L 413.445611 183.128377 
L 416.101107 176.361983 
L 418.680951 170.412094 
L 419.80209 168.039126 
L 423.564092 161.114721 
L 424.51435 159.634791 
L 427.335877 155.921868 
L 429.540184 153.757341 
L 431.640203 152.315798 
L 433.173833 151.652207 
L 435.049398 151.290894 
L 437.115744 151.466783 
L 439.176751 152.237251 
L 441.627297 153.91282 
L 444.656327 157.08562 
L 446.141822 159.067441 
L 448.855694 163.368702 
L 450.949747 167.249661 
L 452.386994 170.174668 
L 452.386994 216.45083 
z
" clip-path="url(#p8e819a4d42)" style="fill: #b2f5ff; opacity: 0.5"/>
   </g>
   <g id="patch_7">
    <path d="M 31.736704 216.45083 
L 31.736704 216.45083 
L 34.450311 216.450827 
L 36.32483 216.450784 
L 38.190787 216.45058 
L 40.481686 216.449692 
L 41.586712 216.448771 
L 43.634742 216.445558 
L 47.53499 216.429291 
L 49.02792 216.417158 
L 51.764002 216.381319 
L 53.35063 216.349698 
L 55.590837 216.28683 
L 56.930509 216.236648 
L 58.954648 216.13879 
L 61.527996 215.967423 
L 63.180375 215.823726 
L 65.013487 215.627722 
L 68.636296 215.104101 
L 70.33122 214.785646 
L 71.902743 214.441938 
L 73.282742 214.098009 
L 76.677687 213.063745 
L 79.217443 212.092624 
L 81.222292 211.191926 
L 81.60435 211.005949 
L 85.03166 209.117388 
L 86.190944 208.383835 
L 88.291335 206.924416 
L 90.972127 204.804863 
L 93.181672 202.829904 
L 95.386576 200.644741 
L 96.757725 199.174855 
L 100.174429 195.132818 
L 101.812288 193.00069 
L 103.699784 190.38649 
L 105.208472 188.176428 
L 107.428674 184.731635 
L 110.442624 179.697948 
L 111.989189 176.961294 
L 114.537166 172.238061 
L 115.78205 169.838658 
L 117.985828 165.454838 
L 120.295119 160.691821 
L 122.758226 155.447818 
L 124.514864 151.622743 
L 126.246229 147.798123 
L 128.937434 141.778705 
L 130.045801 139.284438 
L 132.827289 133.022377 
L 135.664796 126.688647 
L 136.640368 124.537621 
L 138.621567 120.231136 
L 142.477726 112.179719 
L 143.139368 110.854137 
L 145.807113 105.715278 
L 147.9233 101.908027 
L 150.066863 98.333551 
L 152.730548 94.34126 
L 155.195012 91.145466 
L 157.062006 89.075021 
L 159.036412 87.239828 
L 160.083247 86.422375 
L 163.592152 84.51716 
L 165.186587 84.097451 
L 167.552973 84.014247 
L 168.588401 84.186223 
L 171.430456 85.328163 
L 172.470467 85.99558 
L 175.85924 89.113391 
L 178.009084 91.844651 
L 179.962358 94.832756 
L 181.605366 97.716726 
L 184.737205 104.134987 
L 185.588214 106.083278 
L 188.49827 113.381693 
L 190.639804 119.356476 
L 193.428937 127.85532 
L 194.046348 129.840072 
L 196.813904 139.162379 
L 199.685003 149.50062 
L 201.222421 155.2803 
L 202.103785 158.661462 
L 204.535608 168.214358 
L 207.967115 182.133953 
L 210.246455 191.566872 
L 210.967256 194.567658 
L 213.1458 203.657115 
L 215.969748 215.403275 
L 218.702672 226.613762 
L 219.265128 228.890349 
L 221.082423 236.15234 
L 224.011533 247.48291 
L 226.949912 258.256592 
L 229.031593 265.452129 
L 231.156998 272.368006 
L 233.155984 278.432446 
L 234.223866 281.483878 
L 235.97602 286.188915 
L 239.024586 293.423417 
L 241.879266 299.024207 
L 242.361835 299.853419 
L 245.353109 304.206292 
L 246.565547 305.576071 
L 250.285382 308.320074 
L 251.184936 308.649319 
L 253.430311 308.899531 
L 255.281989 308.492891 
L 258.347091 306.61548 
L 258.996646 306.027694 
L 261.133041 303.636553 
L 263.248152 300.594801 
L 266.38513 294.906617 
L 268.113494 291.205999 
L 269.867942 287.064824 
L 272.720247 279.568078 
L 274.134324 275.530555 
L 277.794592 264.224482 
L 278.151066 263.064927 
L 281.407155 252.079849 
L 283.148866 245.961997 
L 286.117371 235.268172 
L 286.808479 232.745525 
L 289.005756 224.684491 
L 292.687608 211.200486 
L 293.717564 207.471835 
L 296.429372 197.829615 
L 298.03912 192.26677 
L 300.221663 184.9733 
L 302.139222 178.847701 
L 305.097489 170.014701 
L 305.868316 167.851017 
L 307.7069 162.943347 
L 311.627502 153.784522 
L 311.820107 153.383786 
L 315.836071 146.162207 
L 318.03093 143.1738 
L 318.926669 142.157061 
L 321.208128 140.110496 
L 322.413178 139.34846 
L 324.591835 138.536443 
L 328.120574 138.770939 
L 329.929967 139.62869 
L 331.613935 140.868204 
L 334.101057 143.457826 
L 335.309384 145.033158 
L 337.395646 148.222287 
L 339.503093 152.020062 
L 342.349835 158.004874 
L 345.490254 165.632393 
L 346.689987 168.799125 
L 349.411813 176.433117 
L 351.383274 182.299433 
L 352.278656 185.042743 
L 355.099668 193.945975 
L 356.408007 198.180005 
L 358.418143 204.769846 
L 362.142786 217.084573 
L 364.586042 225.099258 
L 366.458945 231.137471 
L 368.206565 236.647871 
L 369.282982 239.967373 
L 371.062401 245.306321 
L 374.571171 255.176412 
L 376.555281 260.298336 
L 378.30333 264.495519 
L 380.503315 269.318029 
L 381.609348 271.535822 
L 384.54322 276.702073 
L 387.645356 280.961281 
L 387.938087 281.296508 
L 391.745456 284.571724 
L 392.675631 285.060447 
L 394.557211 285.669891 
L 398.345652 285.354396 
L 400.201371 284.454146 
L 402.662271 282.521511 
L 403.140609 282.050132 
L 404.923173 280.026383 
L 408.355092 274.992159 
L 411.094511 269.974313 
L 411.43547 269.292096 
L 414.248956 263.213575 
L 416.459147 257.924286 
L 419.040283 251.255386 
L 420.442136 247.443103 
L 423.253952 239.470627 
L 425.952818 231.513081 
L 426.264894 230.57929 
L 428.576117 223.609541 
L 431.477747 214.81278 
L 434.038118 207.122439 
L 435.008157 204.249472 
L 438.303216 194.755337 
L 440.252748 189.393656 
L 442.483775 183.557029 
L 444.448182 178.727533 
L 445.239786 176.872531 
L 447.854792 171.154536 
L 451.052869 165.104594 
L 452.386994 162.915154 
L 452.386994 216.45083 
z
" clip-path="url(#p8e819a4d42)" style="fill: #fff2b2; opacity: 0.5"/>
   </g>
   <g id="matplotlib.axis_1">
    <g id="xtick_1">
     <g id="line2d_1">
      <defs>
       <path id="mbfe59517a6" d="M 0 0 
L 0 3.5 
" style="stroke: #000000; stroke-width: 0.8"/>
      </defs>
      <g>
       <use xlink:href="#mbfe59517a6" x="31.736704" y="216.45083" style="stroke: #000000; stroke-width: 0.8"/>
      </g>
     </g>
    </g>
    <g id="xtick_2">
     <g id="line2d_2">
      <g>
       <use xlink:href="#mbfe59517a6" x="136.899277" y="216.45083" style="stroke: #000000; stroke-width: 0.8"/>
      </g>
     </g>
     <g id="text_1">
      <!-- 5 -->
      <g transform="translate(133.718027 231.049267) scale(0.1 -0.1)">
       <defs>
        <path id="DejaVuSans-35" d="M 691 4666 
L 3169 4666 
L 3169 4134 
L 1269 4134 
L 1269 2991 
Q 1406 3038 1543 3061 
Q 1681 3084 1819 3084 
Q 2600 3084 3056 2656 
Q 3513 2228 3513 1497 
Q 3513 744 3044 326 
Q 2575 -91 1722 -91 
Q 1428 -91 1123 -41 
Q 819 9 494 109 
L 494 744 
Q 775 591 1075 516 
Q 1375 441 1709 441 
Q 2250 441 2565 725 
Q 2881 1009 2881 1497 
Q 2881 1984 2565 2268 
Q 2250 2553 1709 2553 
Q 1456 2553 1204 2497 
Q 953 2441 691 2322 
L 691 4666 
z
" transform="scale(0.015625)"/>
       </defs>
       <use xlink:href="#DejaVuSans-35"/>
      </g>
     </g>
    </g>
    <g id="xtick_3">
     <g id="line2d_3">
      <g>
       <use xlink:href="#mbfe59517a6" x="242.061849" y="216.45083" style="stroke: #000000; stroke-width: 0.8"/>
      </g>
     </g>
     <g id="text_2">
      <!-- 10 -->
      <g transform="translate(235.699349 231.049267) scale(0.1 -0.1)">
       <defs>
        <path id="DejaVuSans-31" d="M 794 531 
L 1825 531 
L 1825 4091 
L 703 3866 
L 703 4441 
L 1819 4666 
L 2450 4666 
L 2450 531 
L 3481 531 
L 3481 0 
L 794 0 
L 794 531 
z
" transform="scale(0.015625)"/>
        <path id="DejaVuSans-30" d="M 2034 4250 
Q 1547 4250 1301 3770 
Q 1056 3291 1056 2328 
Q 1056 1369 1301 889 
Q 1547 409 2034 409 
Q 2525 409 2770 889 
Q 3016 1369 3016 2328 
Q 3016 3291 2770 3770 
Q 2525 4250 2034 4250 
z
M 2034 4750 
Q 2819 4750 3233 4129 
Q 3647 3509 3647 2328 
Q 3647 1150 3233 529 
Q 2819 -91 2034 -91 
Q 1250 -91 836 529 
Q 422 1150 422 2328 
Q 422 3509 836 4129 
Q 1250 4750 2034 4750 
z
" transform="scale(0.015625)"/>
       </defs>
       <use xlink:href="#DejaVuSans-31"/>
       <use xlink:href="#DejaVuSans-30" transform="translate(63.623047 0)"/>
      </g>
     </g>
    </g>
    <g id="xtick_4">
     <g id="line2d_4">
      <g>
       <use xlink:href="#mbfe59517a6" x="347.224422" y="216.45083" style="stroke: #000000; stroke-width: 0.8"/>
      </g>
     </g>
     <g id="text_3">
      <!-- 15 -->
      <g transform="translate(340.861922 231.049267) scale(0.1 -0.1)">
       <use xlink:href="#DejaVuSans-31"/>
       <use xlink:href="#DejaVuSans-35" transform="translate(63.623047 0)"/>
      </g>
     </g>
    </g>
    <g id="xtick_5">
     <g id="line2d_5">
      <g>
       <use xlink:href="#mbfe59517a6" x="452.386994" y="216.45083" style="stroke: #000000; stroke-width: 0.8"/>
      </g>
     </g>
     <g id="text_4">
      <!-- 20 -->
      <g transform="translate(446.024494 231.049267) scale(0.1 -0.1)">
       <defs>
        <path id="DejaVuSans-32" d="M 1228 531 
L 3431 531 
L 3431 0 
L 469 0 
L 469 531 
Q 828 903 1448 1529 
Q 2069 2156 2228 2338 
Q 2531 2678 2651 2914 
Q 2772 3150 2772 3378 
Q 2772 3750 2511 3984 
Q 2250 4219 1831 4219 
Q 1534 4219 1204 4116 
Q 875 4013 500 3803 
L 500 4441 
Q 881 4594 1212 4672 
Q 1544 4750 1819 4750 
Q 2544 4750 2975 4387 
Q 3406 4025 3406 3419 
Q 3406 3131 3298 2873 
Q 3191 2616 2906 2266 
Q 2828 2175 2409 1742 
Q 1991 1309 1228 531 
z
" transform="scale(0.015625)"/>
       </defs>
       <use xlink:href="#DejaVuSans-32"/>
       <use xlink:href="#DejaVuSans-30" transform="translate(63.623047 0)"/>
      </g>
     </g>
    </g>
    <g id="xtick_6">
     <g id="line2d_6">
      <defs>
       <path id="m70179c908f" d="M 0 0 
L 0 2 
" style="stroke: #000000; stroke-width: 0.6"/>
      </defs>
      <g>
       <use xlink:href="#m70179c908f" x="52.769219" y="216.45083" style="stroke: #000000; stroke-width: 0.6"/>
      </g>
     </g>
    </g>
    <g id="xtick_7">
     <g id="line2d_7">
      <g>
       <use xlink:href="#m70179c908f" x="73.801733" y="216.45083" style="stroke: #000000; stroke-width: 0.6"/>
      </g>
     </g>
    </g>
    <g id="xtick_8">
     <g id="line2d_8">
      <g>
       <use xlink:href="#m70179c908f" x="94.834248" y="216.45083" style="stroke: #000000; stroke-width: 0.6"/>
      </g>
     </g>
    </g>
    <g id="xtick_9">
     <g id="line2d_9">
      <g>
       <use xlink:href="#m70179c908f" x="115.866762" y="216.45083" style="stroke: #000000; stroke-width: 0.6"/>
      </g>
     </g>
    </g>
    <g id="xtick_10">
     <g id="line2d_10">
      <g>
       <use xlink:href="#m70179c908f" x="157.931791" y="216.45083" style="stroke: #000000; stroke-width: 0.6"/>
      </g>
     </g>
    </g>
    <g id="xtick_11">
     <g id="line2d_11">
      <g>
       <use xlink:href="#m70179c908f" x="178.964306" y="216.45083" style="stroke: #000000; stroke-width: 0.6"/>
      </g>
     </g>
    </g>
    <g id="xtick_12">
     <g id="line2d_12">
      <g>
       <use xlink:href="#m70179c908f" x="199.99682" y="216.45083" style="stroke: #000000; stroke-width: 0.6"/>
      </g>
     </g>
    </g>
    <g id="xtick_13">
     <g id="line2d_13">
      <g>
       <use xlink:href="#m70179c908f" x="221.029335" y="216.45083" style="stroke: #000000; stroke-width: 0.6"/>
      </g>
     </g>
    </g>
    <g id="xtick_14">
     <g id="line2d_14">
      <g>
       <use xlink:href="#m70179c908f" x="263.094364" y="216.45083" style="stroke: #000000; stroke-width: 0.6"/>
      </g>
     </g>
    </g>
    <g id="xtick_15">
     <g id="line2d_15">
      <g>
       <use xlink:href="#m70179c908f" x="284.126878" y="216.45083" style="stroke: #000000; stroke-width: 0.6"/>
      </g>
     </g>
    </g>
    <g id="xtick_16">
     <g id="line2d_16">
      <g>
       <use xlink:href="#m70179c908f" x="305.159393" y="216.45083" style="stroke: #000000; stroke-width: 0.6"/>
      </g>
     </g>
    </g>
    <g id="xtick_17">
     <g id="line2d_17">
      <g>
       <use xlink:href="#m70179c908f" x="326.191907" y="216.45083" style="stroke: #000000; stroke-width: 0.6"/>
      </g>
     </g>
    </g>
    <g id="xtick_18">
     <g id="line2d_18">
      <g>
       <use xlink:href="#m70179c908f" x="368.256936" y="216.45083" style="stroke: #000000; stroke-width: 0.6"/>
      </g>
     </g>
    </g>
    <g id="xtick_19">
     <g id="line2d_19">
      <g>
       <use xlink:href="#m70179c908f" x="389.289451" y="216.45083" style="stroke: #000000; stroke-width: 0.6"/>
      </g>
     </g>
    </g>
    <g id="xtick_20">
     <g id="line2d_20">
      <g>
       <use xlink:href="#m70179c908f" x="410.321965" y="216.45083" style="stroke: #000000; stroke-width: 0.6"/>
      </g>
     </g>
    </g>
    <g id="xtick_21">
     <g id="line2d_21">
      <g>
       <use xlink:href="#m70179c908f" x="431.35448" y="216.45083" style="stroke: #000000; stroke-width: 0.6"/>
      </g>
     </g>
    </g>
   </g>
   <g id="matplotlib.axis_2">
    <g id="ytick_1">
     <g id="line2d_22">
      <defs>
       <path id="m1efce338c6" d="M 0 0 
L -3.5 0 
" style="stroke: #000000; stroke-width: 0.8"/>
      </defs>
      <g>
       <use xlink:href="#m1efce338c6" x="31.736704" y="287.279378" style="stroke: #000000; stroke-width: 0.8"/>
      </g>
     </g>
     <g id="text_5">
      <!-- −0.2 -->
      <g transform="translate(0.453892 291.078597) scale(0.1 -0.1)">
       <defs>
        <path id="DejaVuSans-2212" d="M 678 2272 
L 4684 2272 
L 4684 1741 
L 678 1741 
L 678 2272 
z
" transform="scale(0.015625)"/>
        <path id="DejaVuSans-2e" d="M 684 794 
L 1344 794 
L 1344 0 
L 684 0 
L 684 794 
z
" transform="scale(0.015625)"/>
       </defs>
       <use xlink:href="#DejaVuSans-2212"/>
       <use xlink:href="#DejaVuSans-30" transform="translate(83.789062 0)"/>
       <use xlink:href="#DejaVuSans-2e" transform="translate(147.412109 0)"/>
       <use xlink:href="#DejaVuSans-32" transform="translate(179.199219 0)"/>
      </g>
     </g>
    </g>
    <g id="ytick_2">
     <g id="line2d_23">
      <g>
       <use xlink:href="#m1efce338c6" x="31.736704" y="216.45083" style="stroke: #000000; stroke-width: 0.8"/>
      </g>
     </g>
    </g>
    <g id="ytick_3">
     <g id="line2d_24">
      <g>
       <use xlink:href="#m1efce338c6" x="31.736704" y="145.622282" style="stroke: #000000; stroke-width: 0.8"/>
      </g>
     </g>
     <g id="text_6">
      <!-- 0.2 -->
      <g transform="translate(8.833579 149.421501) scale(0.1 -0.1)">
       <use xlink:href="#DejaVuSans-30"/>
       <use xlink:href="#DejaVuSans-2e" transform="translate(63.623047 0)"/>
       <use xlink:href="#DejaVuSans-32" transform="translate(95.410156 0)"/>
      </g>
     </g>
    </g>
    <g id="ytick_4">
     <g id="line2d_25">
      <g>
       <use xlink:href="#m1efce338c6" x="31.736704" y="74.793734" style="stroke: #000000; stroke-width: 0.8"/>
      </g>
     </g>
     <g id="text_7">
      <!-- 0.4 -->
      <g transform="translate(8.833579 78.592953) scale(0.1 -0.1)">
       <defs>
        <path id="DejaVuSans-34" d="M 2419 4116 
L 825 1625 
L 2419 1625 
L 2419 4116 
z
M 2253 4666 
L 3047 4666 
L 3047 1625 
L 3713 1625 
L 3713 1100 
L 3047 1100 
L 3047 0 
L 2419 0 
L 2419 1100 
L 313 1100 
L 313 1709 
L 2253 4666 
z
" transform="scale(0.015625)"/>
       </defs>
       <use xlink:href="#DejaVuSans-30"/>
       <use xlink:href="#DejaVuSans-2e" transform="translate(63.623047 0)"/>
       <use xlink:href="#DejaVuSans-34" transform="translate(95.410156 0)"/>
      </g>
     </g>
    </g>
    <g id="ytick_5">
     <g id="line2d_26">
      <g>
       <use xlink:href="#m1efce338c6" x="31.736704" y="3.965186" style="stroke: #000000; stroke-width: 0.8"/>
      </g>
     </g>
     <g id="text_8">
      <!-- 0.6 -->
      <g transform="translate(8.833579 7.764405) scale(0.1 -0.1)">
       <defs>
        <path id="DejaVuSans-36" d="M 2113 2584 
Q 1688 2584 1439 2293 
Q 1191 2003 1191 1497 
Q 1191 994 1439 701 
Q 1688 409 2113 409 
Q 2538 409 2786 701 
Q 3034 994 3034 1497 
Q 3034 2003 2786 2293 
Q 2538 2584 2113 2584 
z
M 3366 4563 
L 3366 3988 
Q 3128 4100 2886 4159 
Q 2644 4219 2406 4219 
Q 1781 4219 1451 3797 
Q 1122 3375 1075 2522 
Q 1259 2794 1537 2939 
Q 1816 3084 2150 3084 
Q 2853 3084 3261 2657 
Q 3669 2231 3669 1497 
Q 3669 778 3244 343 
Q 2819 -91 2113 -91 
Q 1303 -91 875 529 
Q 447 1150 447 2328 
Q 447 3434 972 4092 
Q 1497 4750 2381 4750 
Q 2619 4750 2861 4703 
Q 3103 4656 3366 4563 
z
" transform="scale(0.015625)"/>
       </defs>
       <use xlink:href="#DejaVuSans-30"/>
       <use xlink:href="#DejaVuSans-2e" transform="translate(63.623047 0)"/>
       <use xlink:href="#DejaVuSans-36" transform="translate(95.410156 0)"/>
      </g>
     </g>
    </g>
    <g id="ytick_6">
     <g id="line2d_27">
      <defs>
       <path id="m472f26a8c8" d="M 0 0 
L -2 0 
" style="stroke: #000000; stroke-width: 0.6"/>
      </defs>
      <g>
       <use xlink:href="#m472f26a8c8" x="31.736704" y="340.400789" style="stroke: #000000; stroke-width: 0.6"/>
      </g>
     </g>
    </g>
    <g id="ytick_7">
     <g id="line2d_28">
      <g>
       <use xlink:href="#m472f26a8c8" x="31.736704" y="322.693652" style="stroke: #000000; stroke-width: 0.6"/>
      </g>
     </g>
    </g>
    <g id="ytick_8">
     <g id="line2d_29">
      <g>
       <use xlink:href="#m472f26a8c8" x="31.736704" y="304.986515" style="stroke: #000000; stroke-width: 0.6"/>
      </g>
     </g>
    </g>
    <g id="ytick_9">
     <g id="line2d_30">
      <g>
       <use xlink:href="#m472f26a8c8" x="31.736704" y="269.572241" style="stroke: #000000; stroke-width: 0.6"/>
      </g>
     </g>
    </g>
    <g id="ytick_10">
     <g id="line2d_31">
      <g>
       <use xlink:href="#m472f26a8c8" x="31.736704" y="251.865104" style="stroke: #000000; stroke-width: 0.6"/>
      </g>
     </g>
    </g>
    <g id="ytick_11">
     <g id="line2d_32">
      <g>
       <use xlink:href="#m472f26a8c8" x="31.736704" y="234.157967" style="stroke: #000000; stroke-width: 0.6"/>
      </g>
     </g>
    </g>
    <g id="ytick_12">
     <g id="line2d_33">
      <g>
       <use xlink:href="#m472f26a8c8" x="31.736704" y="198.743693" style="stroke: #000000; stroke-width: 0.6"/>
      </g>
     </g>
    </g>
    <g id="ytick_13">
     <g id="line2d_34">
      <g>
       <use xlink:href="#m472f26a8c8" x="31.736704" y="181.036556" style="stroke: #000000; stroke-width: 0.6"/>
      </g>
     </g>
    </g>
    <g id="ytick_14">
     <g id="line2d_35">
      <g>
       <use xlink:href="#m472f26a8c8" x="31.736704" y="163.329419" style="stroke: #000000; stroke-width: 0.6"/>
      </g>
     </g>
    </g>
    <g id="ytick_15">
     <g id="line2d_36">
      <g>
       <use xlink:href="#m472f26a8c8" x="31.736704" y="127.915145" style="stroke: #000000; stroke-width: 0.6"/>
      </g>
     </g>
    </g>
    <g id="ytick_16">
     <g id="line2d_37">
      <g>
       <use xlink:href="#m472f26a8c8" x="31.736704" y="110.208008" style="stroke: #000000; stroke-width: 0.6"/>
      </g>
     </g>
    </g>
    <g id="ytick_17">
     <g id="line2d_38">
      <g>
       <use xlink:href="#m472f26a8c8" x="31.736704" y="92.500871" style="stroke: #000000; stroke-width: 0.6"/>
      </g>
     </g>
    </g>
    <g id="ytick_18">
     <g id="line2d_39">
      <g>
       <use xlink:href="#m472f26a8c8" x="31.736704" y="57.086597" style="stroke: #000000; stroke-width: 0.6"/>
      </g>
     </g>
    </g>
    <g id="ytick_19">
     <g id="line2d_40">
      <g>
       <use xlink:href="#m472f26a8c8" x="31.736704" y="39.37946" style="stroke: #000000; stroke-width: 0.6"/>
      </g>
     </g>
    </g>
    <g id="ytick_20">
     <g id="line2d_41">
      <g>
       <use xlink:href="#m472f26a8c8" x="31.736704" y="21.672323" style="stroke: #000000; stroke-width: 0.6"/>
      </g>
     </g>
    </g>
   </g>
   <g id="line2d_42">
    <path d="M 31.736704 216.45083 
L 37.779235 166.102209 
L 41.990501 132.664222 
L 44.732966 112.175763 
L 46.990017 96.2938 
L 50.574991 73.233798 
L 54.794001 50.070204 
L 56.369301 42.651803 
L 58.173323 35.036971 
L 60.348354 27.156975 
L 62.866222 19.877389 
L 65.649989 14.201045 
L 68.348978 11.121914 
L 69.156813 10.667404 
L 71.101355 10.454664 
L 72.888554 11.350641 
L 74.675753 13.27875 
L 76.949761 17.193456 
L 77.534379 18.458722 
L 80.068598 25.129755 
L 81.705833 30.430708 
L 83.77924 38.20317 
L 86.737785 51.206837 
L 88.058511 57.683389 
L 92.097486 79.75631 
L 96.599358 107.672898 
L 102.04571 144.570169 
L 111.133421 208.299181 
L 116.203429 241.990143 
L 117.708107 251.416304 
L 120.833839 269.901301 
L 122.498406 279.056848 
L 125.118622 292.371682 
L 127.987334 305.258401 
L 130.449105 314.786399 
L 132.429056 321.361962 
L 134.289083 326.621555 
L 136.14911 330.969115 
L 137.116424 332.864043 
L 138.744177 335.48195 
L 140.371931 337.380419 
L 141.319916 338.154221 
L 143.816456 339.028523 
L 146.548356 338.078435 
L 147.568838 337.223104 
L 150.074213 334.003878 
L 152.65671 329.086011 
L 154.894295 323.588966 
L 157.545398 315.702335 
L 161.553332 301.267563 
L 164.176789 290.423086 
L 168.19545 272.136764 
L 174.783032 239.418957 
L 180.898206 208.386381 
L 186.191565 182.972542 
L 188.976389 170.678217 
L 190.809457 163.118046 
L 193.636073 152.421639 
L 195.643106 145.613628 
L 197.906851 138.792791 
L 200.35153 132.518607 
L 202.24572 128.477725 
L 204.961436 123.985217 
L 208.102245 120.755327 
L 208.953932 120.247744 
L 212.288675 119.773869 
L 212.618111 119.857195 
L 215.332508 121.420155 
L 216.849564 122.962284 
L 219.015232 125.966744 
L 221.947335 131.469684 
L 223.615599 135.293891 
L 227.557856 146.139221 
L 229.782852 153.258722 
L 233.61936 166.928211 
L 237.235996 181.061776 
L 243.772782 208.278802 
L 248.584162 228.41651 
L 253.197641 246.749603 
L 255.539726 255.415765 
L 257.936391 263.697035 
L 261.032196 273.357307 
L 262.531876 277.56508 
L 264.339446 282.190886 
L 266.621803 287.292397 
L 268.398032 290.66143 
L 269.54714 292.550104 
L 273.178366 296.964349 
L 274.260503 297.813398 
L 276.877403 298.968417 
L 279.555163 298.833704 
L 281.626323 297.825731 
L 282.728579 296.973501 
L 286.027105 293.152451 
L 288.770766 288.59011 
L 291.409654 283.103761 
L 294.202983 276.230575 
L 297.619126 266.523782 
L 301.915323 252.680266 
L 306.919008 235.003379 
L 317.658232 195.987529 
L 319.44011 189.899761 
L 323.142051 178.022022 
L 324.581038 173.744485 
L 328.615763 162.976162 
L 331.028895 157.511591 
L 334.276834 151.448658 
L 336.685291 147.97781 
L 338.736053 145.743671 
L 340.090808 144.640652 
L 341.552841 143.787643 
L 345.112398 143.186035 
L 345.674401 143.282078 
L 348.409389 144.484615 
L 352.037604 147.915088 
L 354.930059 152.073166 
L 356.486586 154.800696 
L 360.029057 162.180674 
L 361.202528 164.955502 
L 364.426998 173.320921 
L 365.876862 177.395916 
L 370.788435 192.316135 
L 374.826477 205.431046 
L 383.041318 232.357146 
L 384.536812 237.050303 
L 389.422764 251.407033 
L 392.083432 258.404441 
L 394.958169 265.155808 
L 397.890403 271.057557 
L 401.243411 276.454125 
L 403.495079 279.20918 
L 404.93863 280.592378 
L 408.372592 282.646814 
L 410.397617 283.031133 
L 411.367891 282.997064 
L 413.477241 282.437899 
L 416.106676 280.823649 
L 419.313675 277.522673 
L 420.965697 275.276914 
L 422.414925 273.016922 
L 423.858902 270.507692 
L 427.300702 263.567572 
L 430.495804 256.055295 
L 434.797382 244.640692 
L 438.823209 233.001615 
L 449.589896 200.703328 
L 452.386994 192.782364 
L 452.386994 192.782364 
" clip-path="url(#p8e819a4d42)" style="fill: none; stroke: #0000cc; stroke-linecap: square"/>
   </g>
   <g id="line2d_43">
    <path d="M 31.736704 216.45083 
L 34.742726 215.548115 
L 36.737075 213.960462 
L 37.669527 212.951808 
L 41.129974 207.767108 
L 43.243858 203.527494 
L 45.554567 198.022072 
L 48.661003 189.303119 
L 50.292879 184.174829 
L 52.297454 177.416547 
L 57.569983 157.677724 
L 61.893914 140.065045 
L 71.328905 101.070056 
L 73.376094 93.109812 
L 78.181481 75.971433 
L 80.380529 69.056024 
L 81.827295 64.884802 
L 83.936729 59.395134 
L 86.056744 54.644005 
L 89.584969 48.596503 
L 91.524303 46.331443 
L 92.339223 45.614071 
L 94.30069 44.471167 
L 97.335123 44.367297 
L 98.652548 44.962914 
L 100.644686 46.60693 
L 103.680933 50.831861 
L 105.26659 53.855215 
L 107.286408 58.501892 
L 110.786403 68.592341 
L 111.836413 72.10262 
L 115.393569 85.539716 
L 119.649992 104.447612 
L 123.88537 125.791131 
L 126.80722 141.65036 
L 132.671525 175.228334 
L 141.611088 226.982738 
L 146.003356 250.772353 
L 147.892151 260.380662 
L 151.653204 278.087912 
L 155.146687 292.532026 
L 156.68983 298.217853 
L 159.381326 307.028152 
L 162.275771 314.836793 
L 165.496027 321.381678 
L 166.516006 322.969222 
L 168.728794 325.596071 
L 171.203615 327.19921 
L 173.608014 327.40777 
L 176.038346 326.283665 
L 177.306867 325.173786 
L 179.769933 322.022322 
L 181.063643 319.855527 
L 183.958109 313.793356 
L 185.332638 310.355819 
L 188.535024 301.06317 
L 191.438575 291.238696 
L 194.39957 280.051858 
L 198.344959 263.690921 
L 202.678125 244.417882 
L 211.528581 203.987738 
L 214.831712 189.581201 
L 218.36786 175.140007 
L 220.105938 168.521998 
L 223.702327 156.045166 
L 226.864169 146.631044 
L 227.969143 143.720099 
L 230.48355 137.878034 
L 233.626727 132.181967 
L 237.277653 127.919098 
L 238.361872 127.152664 
L 241.204071 126.239587 
L 243.929571 126.848612 
L 244.740135 127.306749 
L 247.087815 129.335724 
L 250.82357 134.639311 
L 254.541483 142.269959 
L 255.621118 144.889568 
L 257.511529 149.878371 
L 259.305246 155.051918 
L 262.510923 165.239151 
L 265.491296 175.612375 
L 269.953835 192.30278 
L 281.719414 237.82979 
L 284.338432 247.272068 
L 287.038648 256.420326 
L 290.701079 267.632958 
L 295.014719 278.697382 
L 297.568113 283.995364 
L 300.69694 289.097222 
L 302.171171 290.945471 
L 304.736154 293.285556 
L 307.172972 294.461311 
L 308.193955 294.648412 
L 311.24342 294.136444 
L 313.014315 293.111265 
L 316.016151 290.186191 
L 316.991305 288.924322 
L 319.877541 284.336673 
L 320.93756 282.345425 
L 323.296502 277.362104 
L 325.21002 272.797541 
L 328.658833 263.525225 
L 332.37043 252.299253 
L 335.22078 243.015572 
L 350.869285 189.826915 
L 352.439514 184.962535 
L 355.279858 176.67758 
L 358.113807 169.189889 
L 359.528478 165.783036 
L 361.648312 161.130505 
L 363.602466 157.354841 
L 367.264915 151.704587 
L 370.372568 148.457714 
L 372.696991 146.99598 
L 375.113935 146.368695 
L 376.772034 146.466045 
L 378.310819 146.938303 
L 379.646807 147.643341 
L 382.073853 149.612236 
L 384.95694 153.064871 
L 386.494773 155.377987 
L 389.09989 159.998374 
L 391.296423 164.531853 
L 394.621707 172.382591 
L 398.917385 183.98449 
L 403.467947 197.560609 
L 416.641706 238.459958 
L 420.022253 247.98303 
L 423.703887 257.343128 
L 425.928916 262.37709 
L 428.774628 268.029785 
L 430.72129 271.343382 
L 433.130367 274.777518 
L 435.927818 277.79154 
L 437.157498 278.773873 
L 438.664447 279.686571 
L 442.392855 280.549708 
L 443.662918 280.388708 
L 445.118687 279.921631 
L 447.643584 278.406021 
L 450.837395 275.246085 
L 452.386994 273.234555 
L 452.386994 273.234555 
" clip-path="url(#p8e819a4d42)" style="fill: none; stroke: #3ccc00; stroke-linecap: square"/>
   </g>
   <g id="line2d_44">
    <path d="M 31.736704 216.45083 
L 35.556253 216.406733 
L 38.164997 216.241412 
L 40.624494 215.900285 
L 43.509213 215.182156 
L 46.576346 213.939064 
L 50.287913 211.62958 
L 52.69082 209.596569 
L 54.62853 207.621898 
L 56.084611 205.932113 
L 59.221974 201.669849 
L 60.55855 199.591385 
L 63.433703 194.584988 
L 65.242563 191.064023 
L 67.72452 185.778595 
L 70.843199 178.42832 
L 72.960941 173.020041 
L 78.478737 157.583017 
L 82.355233 145.855931 
L 94.916255 106.754223 
L 98.388307 96.750403 
L 101.206357 89.236139 
L 104.999364 80.237364 
L 106.786642 76.522662 
L 109.026205 72.40807 
L 111.147931 69.112672 
L 113.416532 66.289552 
L 115.426396 64.431804 
L 117.98284 62.991002 
L 120.420995 62.622085 
L 121.576035 62.800352 
L 124.339702 64.16854 
L 128.288919 68.462005 
L 130.571896 72.201562 
L 133.587793 78.532342 
L 134.713467 81.292194 
L 138.240264 91.281513 
L 139.814741 96.37034 
L 143.563901 109.929996 
L 146.969034 123.826996 
L 149.133184 133.333646 
L 152.139084 147.262444 
L 155.816004 165.186972 
L 169.651631 234.823833 
L 173.098608 251.00189 
L 177.764612 271.05544 
L 180.791419 282.620267 
L 185.768161 298.640301 
L 188.391517 305.401261 
L 190.823184 310.543528 
L 192.162019 312.895293 
L 195.064888 316.791303 
L 196.891248 318.383934 
L 199.077283 319.409168 
L 199.828675 319.539543 
L 202.81575 318.940576 
L 205.206049 317.192788 
L 206.394728 315.913152 
L 208.391142 313.166955 
L 211.684071 307.069194 
L 214.942019 299.248074 
L 217.059821 293.296054 
L 220.110845 283.653039 
L 221.519418 278.821621 
L 225.735066 263.17837 
L 230.62416 243.425118 
L 240.220066 203.225653 
L 245.010415 184.304475 
L 246.508622 178.743209 
L 250.001508 166.644081 
L 251.536824 161.765481 
L 254.083026 154.346609 
L 256.462386 148.239919 
L 258.219459 144.28142 
L 259.501522 141.703122 
L 261.878238 137.642869 
L 263.907861 134.939644 
L 265.362727 133.445989 
L 267.983841 131.706416 
L 269.716281 131.233484 
L 272.654958 131.661398 
L 274.828302 132.961117 
L 277.240825 135.357792 
L 278.959337 137.657501 
L 282.537413 143.943008 
L 284.915903 149.163348 
L 287.190289 154.861123 
L 289.157636 160.294129 
L 292.956701 171.925429 
L 298.349386 190.377481 
L 312.959093 243.034604 
L 316.645216 254.905991 
L 318.669092 260.905256 
L 322.00214 269.821447 
L 323.596552 273.613505 
L 325.136144 276.959529 
L 328.125912 282.514226 
L 329.030047 283.93739 
L 330.924004 286.51691 
L 333.057184 288.754478 
L 336.767432 290.915694 
L 338.186835 291.153978 
L 340.347601 290.89131 
L 343.232797 289.377156 
L 345.538228 287.234546 
L 346.851784 285.655213 
L 348.986657 282.554368 
L 350.551142 279.87943 
L 352.205055 276.700569 
L 355.056622 270.432412 
L 356.93125 265.816783 
L 360.868777 255.031065 
L 363.018384 248.626554 
L 368.476772 231.258874 
L 377.630781 201.218754 
L 380.48892 192.315467 
L 383.489489 183.510636 
L 385.885089 176.990209 
L 388.239581 171.10497 
L 392.331999 162.30767 
L 395.721214 156.577724 
L 398.419499 153.119813 
L 400.441155 151.203138 
L 402.033246 150.111028 
L 404.023102 149.270565 
L 406.500056 149.04388 
L 408.045135 149.361922 
L 409.154185 149.806049 
L 411.903807 151.672369 
L 414.791002 154.769663 
L 416.86005 157.671371 
L 419.466239 162.085124 
L 421.679586 166.448671 
L 424.377163 172.454531 
L 426.199121 176.891236 
L 430.406012 188.100111 
L 435.99875 204.435954 
L 446.584159 236.036126 
L 449.562613 244.244405 
L 452.386994 251.476041 
L 452.386994 251.476041 
" clip-path="url(#p8e819a4d42)" style="fill: none; stroke: #cc0077; stroke-linecap: square"/>
   </g>
   <g id="line2d_45">
    <path d="M 31.736704 216.45083 
L 43.674415 216.356649 
L 47.906011 216.138091 
L 53.241139 215.494529 
L 56.65864 214.756726 
L 58.636943 214.178141 
L 61.771595 212.990471 
L 64.94825 211.395862 
L 68.474654 209.095165 
L 70.558792 207.444882 
L 72.737749 205.47126 
L 75.902679 202.127489 
L 78.326015 199.168866 
L 80.586994 196.088246 
L 82.287703 193.565104 
L 85.257104 188.736535 
L 89.097156 181.710966 
L 92.790361 174.169044 
L 96.90948 164.946735 
L 101.037073 154.997907 
L 107.863179 137.544677 
L 113.40528 123.14714 
L 118.970482 109.268988 
L 123.34324 99.288778 
L 124.242351 97.377819 
L 128.624868 88.925494 
L 130.935048 85.133716 
L 133.954059 80.980311 
L 135.062991 79.702364 
L 137.138315 77.693524 
L 139.8541 75.861349 
L 140.897111 75.409367 
L 144.381408 74.961959 
L 145.247504 75.111994 
L 148.688084 76.768445 
L 151.051407 78.905063 
L 152.387136 80.476186 
L 153.901533 82.575361 
L 157.38047 88.668427 
L 158.7141 91.467043 
L 160.740566 96.198751 
L 162.779278 101.526503 
L 164.553534 106.609344 
L 168.581057 119.590319 
L 170.319586 125.764921 
L 173.656486 138.467595 
L 177.87734 155.884985 
L 183.227444 179.491015 
L 196.103671 237.535044 
L 200.885914 257.296976 
L 205.214991 273.380336 
L 207.566601 281.216925 
L 210.629928 290.329991 
L 213.788832 298.298085 
L 214.747595 300.410039 
L 218.687034 307.502956 
L 221.169603 310.612326 
L 224.63399 313.132881 
L 227.095081 313.619669 
L 228.970015 313.263815 
L 229.627447 312.991183 
L 233.389959 309.978452 
L 235.212943 307.651112 
L 237.047039 304.76022 
L 239.965665 299.076222 
L 243.497056 290.550456 
L 246.691825 281.452243 
L 249.167325 273.618986 
L 252.93644 260.611953 
L 254.757266 253.953831 
L 259.566031 235.593417 
L 269.369348 197.615207 
L 272.076331 187.729537 
L 274.322249 179.920733 
L 278.798523 165.72816 
L 280.1214 161.945037 
L 282.788259 154.970003 
L 284.494002 150.999325 
L 286.765672 146.348082 
L 290.665916 140.169072 
L 292.642293 137.952795 
L 294.899733 136.198833 
L 295.894319 135.692455 
L 297.407601 135.236365 
L 300.369969 135.44132 
L 302.430898 136.433571 
L 303.86029 137.524133 
L 307.1721 141.279777 
L 309.568873 145.022657 
L 311.122785 147.883406 
L 313.479946 152.834701 
L 314.891847 156.131643 
L 318.950951 166.841374 
L 320.771448 172.163703 
L 324.007838 182.264855 
L 329.101927 199.340434 
L 338.293758 231.07899 
L 342.827757 245.786707 
L 345.874698 254.883769 
L 350.281773 266.529255 
L 353.09366 272.842522 
L 355.461677 277.395955 
L 356.754988 279.568844 
L 360.321937 284.347849 
L 362.061756 286.008 
L 363.464173 287.017198 
L 365.100613 287.819053 
L 367.790143 288.251862 
L 369.665199 287.903182 
L 373.057344 285.9344 
L 375.633447 283.3212 
L 378.673696 279.058958 
L 379.783531 277.201759 
L 382.080514 272.878168 
L 385.124588 266.228411 
L 387.705157 259.864078 
L 390.856565 251.331428 
L 395.005186 239.122563 
L 400.60092 221.651458 
L 408.078466 198.383353 
L 411.299631 189.005966 
L 413.445611 183.128377 
L 416.101107 176.361983 
L 419.80209 168.039126 
L 423.564092 161.114721 
L 424.51435 159.634791 
L 427.335877 155.921868 
L 429.540184 153.757341 
L 431.640203 152.315798 
L 433.173833 151.652207 
L 435.049398 151.290894 
L 437.115744 151.466783 
L 439.176751 152.237251 
L 441.627297 153.91282 
L 444.656327 157.08562 
L 446.141822 159.067441 
L 448.855694 163.368702 
L 450.949747 167.249661 
L 452.386994 170.174668 
L 452.386994 170.174668 
" clip-path="url(#p8e819a4d42)" style="fill: none; stroke: #00b3cc; stroke-linecap: square"/>
   </g>
   <g id="line2d_46">
    <path d="M 31.736704 216.45083 
L 53.35063 216.349698 
L 58.954648 216.13879 
L 65.013487 215.627722 
L 70.33122 214.785646 
L 73.282742 214.098009 
L 76.677687 213.063745 
L 79.217443 212.092624 
L 81.60435 211.005949 
L 86.190944 208.383835 
L 88.291335 206.924416 
L 90.972127 204.804863 
L 93.181672 202.829904 
L 96.757725 199.174855 
L 100.174429 195.132818 
L 103.699784 190.38649 
L 107.428674 184.731635 
L 111.989189 176.961294 
L 115.78205 169.838658 
L 120.295119 160.691821 
L 126.246229 147.798123 
L 138.621567 120.231136 
L 143.139368 110.854137 
L 145.807113 105.715278 
L 147.9233 101.908027 
L 150.066863 98.333551 
L 152.730548 94.34126 
L 155.195012 91.145466 
L 157.062006 89.075021 
L 159.036412 87.239828 
L 160.083247 86.422375 
L 163.592152 84.51716 
L 165.186587 84.097451 
L 167.552973 84.014247 
L 168.588401 84.186223 
L 171.430456 85.328163 
L 172.470467 85.99558 
L 175.85924 89.113391 
L 178.009084 91.844651 
L 179.962358 94.832756 
L 181.605366 97.716726 
L 185.588214 106.083278 
L 188.49827 113.381693 
L 190.639804 119.356476 
L 194.046348 129.840072 
L 196.813904 139.162379 
L 201.222421 155.2803 
L 204.535608 168.214358 
L 210.967256 194.567658 
L 219.265128 228.890349 
L 224.011533 247.48291 
L 226.949912 258.256592 
L 229.031593 265.452129 
L 231.156998 272.368006 
L 234.223866 281.483878 
L 235.97602 286.188915 
L 239.024586 293.423417 
L 242.361835 299.853419 
L 245.353109 304.206292 
L 246.565547 305.576071 
L 250.285382 308.320074 
L 251.184936 308.649319 
L 253.430311 308.899531 
L 255.281989 308.492891 
L 258.347091 306.61548 
L 258.996646 306.027694 
L 261.133041 303.636553 
L 263.248152 300.594801 
L 266.38513 294.906617 
L 268.113494 291.205999 
L 269.867942 287.064824 
L 272.720247 279.568078 
L 274.134324 275.530555 
L 278.151066 263.064927 
L 283.148866 245.961997 
L 292.687608 211.200486 
L 296.429372 197.829615 
L 300.221663 184.9733 
L 302.139222 178.847701 
L 305.868316 167.851017 
L 307.7069 162.943347 
L 311.820107 153.383786 
L 315.836071 146.162207 
L 318.03093 143.1738 
L 318.926669 142.157061 
L 321.208128 140.110496 
L 322.413178 139.34846 
L 324.591835 138.536443 
L 328.120574 138.770939 
L 329.929967 139.62869 
L 331.613935 140.868204 
L 334.101057 143.457826 
L 335.309384 145.033158 
L 337.395646 148.222287 
L 339.503093 152.020062 
L 342.349835 158.004874 
L 346.689987 168.799125 
L 349.411813 176.433117 
L 352.278656 185.042743 
L 358.418143 204.769846 
L 366.458945 231.137471 
L 371.062401 245.306321 
L 374.571171 255.176412 
L 376.555281 260.298336 
L 378.30333 264.495519 
L 381.609348 271.535822 
L 384.54322 276.702073 
L 387.938087 281.296508 
L 391.745456 284.571724 
L 392.675631 285.060447 
L 394.557211 285.669891 
L 398.345652 285.354396 
L 400.201371 284.454146 
L 403.140609 282.050132 
L 404.923173 280.026383 
L 408.355092 274.992159 
L 411.43547 269.292096 
L 414.248956 263.213575 
L 416.459147 257.924286 
L 420.442136 247.443103 
L 425.952818 231.513081 
L 438.303216 194.755337 
L 442.483775 183.557029 
L 445.239786 176.872531 
L 447.854792 171.154536 
L 451.052869 165.104594 
L 452.386994 162.915154 
L 452.386994 162.915154 
" clip-path="url(#p8e819a4d42)" style="fill: none; stroke: #ccaa00; stroke-linecap: square"/>
   </g>
   <g id="patch_8">
    <path d="M 31.736704 345.6 
L 31.736704 3.883186 
" style="fill: none; stroke: #000000; stroke-width: 0.8; stroke-linejoin: miter; stroke-linecap: square"/>
   </g>
   <g id="patch_9">
    <path d="M 23.323698 216.45083 
L 460.8 216.45083 
" style="fill: none; stroke: #000000; stroke-width: 0.8; stroke-linejoin: miter; stroke-linecap: square"/>
   </g>
  </g>
 </g>
 <defs>
  <clipPath id="p8e819a4d42">
   <rect x="23.323698" y="3.883186" width="437.476302" height="341.716814"/>
  </clipPath>
 </defs>
</svg>
