<?xml version="1.0" encoding="utf-8" standalone="no"?>
<!DOCTYPE svg PUBLIC "-//W3C//DTD SVG 1.1//EN"
  "http://www.w3.org/Graphics/SVG/1.1/DTD/svg11.dtd">
<svg xmlns:xlink="http://www.w3.org/1999/xlink" width="460.8pt" height="345.6pt" viewBox="0 0 460.8 345.6" xmlns="http://www.w3.org/2000/svg" version="1.1">
 <metadata>
  <rdf:RDF xmlns:dc="http://purl.org/dc/elements/1.1/" xmlns:cc="http://creativecommons.org/ns#" xmlns:rdf="http://www.w3.org/1999/02/22-rdf-syntax-ns#">
   <cc:Work>
    <dc:type rdf:resource="http://purl.org/dc/dcmitype/StillImage"/>
    <dc:date>2025-08-07T23:34:46.570407</dc:date>
    <dc:format>image/svg+xml</dc:format>
    <dc:creator>
     <cc:Agent>
      <dc:title>Matplotlib v3.10.3, https://matplotlib.org/</dc:title>
     </cc:Agent>
    </dc:creator>
   </cc:Work>
  </rdf:RDF>
 </metadata>
 <defs>
  <style type="text/css">*{stroke-linejoin: round; stroke-linecap: butt}</style>
 </defs>
 <g id="figure_1">
  <g id="patch_1">
   <path d="M 0 345.6 
L 460.8 345.6 
L 460.8 0 
L 0 0 
z
" style="fill: #ffffff"/>
  </g>
  <g id="axes_1">
   <g id="patch_2">
    <path d="M 57.595856 345.6 
L 403.204144 345.6 
L 403.204144 0 
L 57.595856 0 
z
" style="fill: #ffffff"/>
   </g>
   <g id="patch_3">
    <path d="M 396.557831 172.796814 
L 396.527049 174.466964 
L 396.434752 176.135595 
L 396.241854 178.14367 
L 395.960185 180.144695 
L 395.590419 182.136062 
L 395.133436 184.115195 
L 394.668705 185.815076 
L 394.140372 187.502319 
L 393.566012 189.130753 
L 392.933263 190.744336 
L 392.243183 192.341707 
L 391.496925 193.921553 
L 390.669169 195.532294 
L 389.784363 197.121687 
L 388.844064 198.688463 
L 387.849924 200.23142 
L 387.333663 200.99294 
L 386.222702 202.551576 
L 385.058864 204.081733 
L 383.844303 205.582372 
L 382.581256 207.052546 
L 380.963251 208.819297 
L 379.279733 210.53723 
L 376.503971 213.14358 
L 373.595463 215.622654 
L 370.202992 218.246847 
L 365.493055 221.502422 
L 360.853212 224.354155 
L 356.80469 226.609159 
L 352.534476 228.794796 
L 348.285772 230.809471 
L 347.972981 230.952439 
L 344.968467 232.29393 
L 342.008033 233.567853 
L 340.009321 234.407299 
L 338.04038 235.222575 
L 334.841978 236.533381 
L 331.748354 237.802515 
L 329.025599 238.93864 
L 326.4071 240.066556 
L 324.866752 240.754609 
L 323.195498 241.528877 
L 321.577558 242.312968 
L 319.938219 243.150516 
L 318.358945 244.00775 
L 316.839854 244.889056 
L 315.380667 245.798676 
L 314.230682 246.566969 
L 313.119816 247.359094 
L 311.833544 248.347046 
L 310.601318 249.375842 
L 309.603021 250.277265 
L 308.710155 251.141717 
L 307.846813 252.035741 
L 307.011725 252.960494 
L 306.203519 253.917021 
L 305.292421 255.074626 
L 304.413432 256.278025 
L 303.646924 257.402133 
L 302.902288 258.56483 
L 302.177405 259.766544 
L 301.470075 261.007536 
L 300.618704 262.591941 
L 299.786204 264.236017 
L 299.109833 265.638164 
L 298.359069 267.259525 
L 297.61377 268.929979 
L 296.87024 270.648211 
L 296.124773 272.412614 
L 295.502213 273.910079 
L 294.671851 275.929129 
L 293.826376 277.99587 
L 292.96114 280.106762 
L 292.071619 282.257895 
L 291.195203 284.3464 
L 289.708928 287.792811 
L 287.621712 292.385118 
L 285.034013 297.636208 
L 282.712325 301.932764 
L 280.198781 306.170796 
L 277.475357 310.321415 
L 275.921486 312.502237 
L 274.073501 314.932979 
L 272.143334 317.295868 
L 270.153708 319.556779 
L 268.085235 321.732363 
L 265.856609 323.89059 
L 263.547374 325.937265 
L 261.207257 327.827176 
L 259.236421 329.283314 
L 257.220212 330.651199 
L 255.161117 331.926664 
L 253.061847 333.1058 
L 250.482255 334.393906 
L 247.854036 335.531007 
L 245.299556 336.472767 
L 242.565538 337.3078 
L 239.800534 337.975237 
L 238.182746 338.284749 
L 236.558199 338.53615 
L 234.928291 338.729042 
L 233.294433 338.863122 
L 231.643924 338.938568 
L 229.992308 338.953846 
L 228.341054 338.908931 
L 226.691628 338.803896 
L 225.172863 338.653827 
L 223.658041 338.452938 
L 221.858308 338.147324 
L 220.067692 337.770426 
L 218.288065 337.322976 
L 216.521262 336.805839 
L 214.472016 336.113393 
L 212.445588 335.328685 
L 209.527605 334.018778 
L 206.672202 332.523213 
L 205.539481 331.869051 
L 203.871552 330.840585 
L 202.231464 329.751213 
L 200.620564 328.603114 
L 199.040101 327.398569 
L 197.404772 326.067371 
L 195.805907 324.678757 
L 192.885339 321.906252 
L 190.104841 318.960638 
L 188.452271 317.05621 
L 186.855736 315.099249 
L 184.024023 311.321923 
L 180.694215 306.32311 
L 178.920704 303.386717 
L 174.718632 295.57474 
L 173.070411 292.159814 
L 171.397665 288.491079 
L 169.829462 284.880457 
L 169.49118 284.082595 
L 168.5885 281.92637 
L 167.713176 279.805948 
L 166.86096 277.725395 
L 166.027462 275.688436 
L 165.28877 273.89323 
L 164.608164 272.257358 
L 163.931928 270.658089 
L 162.949761 268.398532 
L 161.962478 266.223056 
L 161.104517 264.424894 
L 160.231228 262.691882 
L 159.525643 261.366745 
L 158.804664 260.08302 
L 158.243448 259.132643 
L 157.670802 258.206187 
L 157.085692 257.303494 
L 156.487112 256.424344 
L 155.624877 255.232877 
L 154.731806 254.086015 
L 153.805495 252.982575 
L 152.843695 251.921167 
L 151.830055 250.886169 
L 150.775811 249.890872 
L 149.658485 248.915827 
L 148.495547 247.977439 
L 147.507995 247.234314 
L 146.488235 246.512564 
L 145.204328 245.661627 
L 143.871293 244.837006 
L 142.488657 244.035618 
L 141.056214 243.254268 
L 139.393235 242.399071 
L 137.668393 241.560118 
L 135.846324 240.716113 
L 133.962315 239.878758 
L 132.593464 239.287685 
L 131.0472 238.633231 
L 129.466541 237.974855 
L 127.852921 237.31007 
L 126.207937 236.636416 
L 123.859749 235.675471 
L 121.459061 234.685996 
L 118.27775 233.350327 
L 115.032238 231.943246 
L 113.713504 231.35499 
L 110.059053 229.663668 
L 104.371218 226.810047 
L 99.510068 224.099957 
L 94.915865 221.248415 
L 91.253536 218.727218 
L 87.70953 216.03191 
L 84.360921 213.203346 
L 81.607595 210.625333 
L 79.002153 207.925483 
L 76.739719 205.324581 
L 74.612629 202.602272 
L 73.11702 200.4835 
L 71.723607 198.315166 
L 70.437189 196.100411 
L 69.262225 193.842649 
L 68.138838 191.396835 
L 67.150755 188.911173 
L 66.461292 186.900183 
L 65.862451 184.869569 
L 65.18025 182.004119 
L 64.765129 179.685075 
L 64.469524 177.353762 
L 64.308871 175.292596 
L 64.242169 173.227963 
L 64.269585 171.16273 
L 64.39105 169.099768 
L 64.595395 167.127791 
L 64.885343 165.163026 
L 65.189439 163.544853 
L 65.551186 161.934687 
L 66.007701 160.200155 
L 66.530427 158.478326 
L 67.118401 156.77086 
L 67.770542 155.079375 
L 68.998909 152.295424 
L 70.396478 149.567304 
L 71.338448 147.917588 
L 72.340137 146.292934 
L 73.399639 144.694676 
L 74.514943 143.12406 
L 76.344962 140.751896 
L 78.894436 137.786103 
L 81.626849 134.949356 
L 83.915335 132.790679 
L 87.214852 129.960918 
L 90.661262 127.298018 
L 94.396222 124.688425 
L 97.31337 122.818006 
L 102.151907 119.985886 
L 105.835577 118.019432 
L 111.927157 115.053381 
L 114.497671 113.887568 
L 117.040185 112.77366 
L 120.769097 111.194469 
L 123.072915 110.241274 
L 125.330687 109.315932 
L 127.368466 108.482226 
L 129.359602 107.663021 
L 131.263425 106.869585 
L 133.117014 106.081344 
L 134.918226 105.29391 
L 136.665278 104.502887 
L 137.256556 104.227711 
L 138.400063 103.682941 
L 139.517349 103.132428 
L 140.608185 102.574825 
L 141.672419 102.008804 
L 143.417816 101.02508 
L 145.086554 100.007137 
L 146.39005 99.148311 
L 147.643913 98.259737 
L 148.765162 97.405037 
L 149.845454 96.519927 
L 150.885986 95.602328 
L 151.888139 94.650307 
L 153.116813 93.379293 
L 154.288872 92.0457 
L 155.013387 91.155165 
L 155.821083 90.097136 
L 156.603534 89.001718 
L 157.362702 87.868214 
L 158.100639 86.696081 
L 159.1495 84.905481 
L 159.781071 83.755022 
L 160.401309 82.572201 
L 161.011972 81.357151 
L 161.614847 80.110122 
L 162.210152 78.83495 
L 162.80133 77.528812 
L 163.390208 76.192301 
L 163.978621 74.826123 
L 164.695944 73.126585 
L 165.418579 71.386122 
L 166.383185 69.036514 
L 167.369951 66.624437 
L 168.078204 64.900631 
L 168.957441 62.781581 
L 169.865289 60.629034 
L 171.78232 56.241372 
L 173.113363 53.342272 
L 174.327825 50.810357 
L 176.685903 46.205388 
L 181.085639 38.649116 
L 182.732632 36.134805 
L 185.063234 32.837875 
L 187.537515 29.644144 
L 189.22221 27.635247 
L 190.967115 25.68583 
L 193.845041 22.741454 
L 196.075355 20.674654 
L 198.382067 18.720138 
L 200.517852 17.066413 
L 202.709888 15.516479 
L 205.645326 13.661951 
L 207.144432 12.808056 
L 208.663066 12.004895 
L 210.77044 10.990512 
L 212.909277 10.076486 
L 214.774938 9.371532 
L 216.659509 8.744679 
L 218.783454 8.138744 
L 220.925147 7.633604 
L 223.081387 7.23067 
L 225.24891 6.931068 
L 227.390763 6.737859 
L 229.537133 6.646154 
L 231.772774 6.658784 
L 234.006177 6.781638 
L 236.501254 7.04974 
L 238.983907 7.454743 
L 241.397177 7.982322 
L 243.789188 8.637777 
L 246.715276 9.623213 
L 249.593809 10.795884 
L 252.371998 12.126264 
L 254.301551 13.169636 
L 256.198594 14.294588 
L 258.060989 15.498238 
L 259.886748 16.777521 
L 262.340766 18.659486 
L 264.39282 20.384109 
L 266.385101 22.198106 
L 268.162413 23.939383 
L 269.886258 25.745779 
L 271.90491 28.017724 
L 273.842213 30.368288 
L 276.636105 34.078259 
L 279.240835 37.912989 
L 280.221098 39.458677 
L 283.978612 45.956882 
L 286.484665 50.840025 
L 288.984189 56.171434 
L 290.540219 59.712158 
L 291.531212 62.043654 
L 292.487412 64.338003 
L 293.656551 67.182646 
L 294.788704 69.949626 
L 295.468855 71.602836 
L 296.141904 73.221947 
L 296.810494 74.805405 
L 297.477289 76.351842 
L 298.073046 77.699767 
L 298.674726 79.023751 
L 299.28095 80.315629 
L 299.929283 81.646713 
L 300.587068 82.940909 
L 301.256502 84.197948 
L 301.939743 85.417714 
L 302.604452 86.543524 
L 303.285325 87.635794 
L 303.984072 88.694804 
L 304.702344 89.720955 
L 305.336221 90.576685 
L 305.986643 91.408938 
L 306.722846 92.298473 
L 307.481381 93.160812 
L 308.263348 93.996734 
L 309.069774 94.807101 
L 309.881982 95.57486 
L 311.121955 96.663103 
L 312.418391 97.705898 
L 313.293936 98.36222 
L 314.194701 99.001809 
L 315.121063 99.625752 
L 316.073328 100.235175 
L 317.026346 100.816134 
L 318.004327 101.385522 
L 319.007352 101.944477 
L 320.035433 102.494162 
L 321.204941 103.094428 
L 322.405025 103.686398 
L 323.635401 104.271741 
L 324.895682 104.85215 
L 326.452035 105.546833 
L 328.049955 106.239828 
L 330.295345 107.188256 
L 332.611831 108.14672 
L 334.692303 108.999044 
L 337.543963 110.166834 
L 340.470377 111.37876 
L 343.723668 112.758952 
L 348.339478 114.808773 
L 353.025908 117.041482 
L 356.017121 118.567594 
L 360.812778 121.215955 
L 366.966392 125.066583 
L 369.584668 126.895521 
L 372.141773 128.814272 
L 375.125903 131.246304 
L 378.420775 134.221779 
L 379.95437 135.73121 
L 381.437939 137.28013 
L 382.97923 138.995115 
L 384.454528 140.7538 
L 385.860024 142.554703 
L 387.192064 144.396152 
L 388.466338 146.306268 
L 389.707335 148.339179 
L 390.854484 150.410607 
L 392.274708 153.321782 
L 392.913055 154.800321 
L 393.502319 156.292782 
L 394.175723 158.197826 
L 394.76779 160.121155 
L 395.277159 162.060456 
L 395.702655 164.013355 
L 396.095165 166.329377 
L 396.297346 167.941396 
L 396.441985 169.55756 
L 396.528858 171.176494 
L 396.557831 172.796814 
L 368.864688 172.796814 
L 368.825103 171.579922 
L 368.706405 170.364928 
L 368.50877 169.153728 
L 368.232491 167.948208 
L 367.899932 166.817229 
L 367.498108 165.694542 
L 366.764574 164.025125 
L 365.877781 162.383129 
L 364.840366 160.773605 
L 363.65541 159.201458 
L 362.932473 158.343488 
L 362.165482 157.49939 
L 361.355141 156.669941 
L 360.502195 155.855896 
L 358.719416 154.315589 
L 357.089036 153.062373 
L 355.35301 151.859892 
L 353.515649 150.710914 
L 351.581504 149.618004 
L 350.242468 148.922626 
L 348.864105 148.253786 
L 345.995444 146.998054 
L 343.685426 146.105583 
L 341.298626 145.281888 
L 339.318375 144.667557 
L 337.295293 144.099566 
L 335.232737 143.578358 
L 333.134113 143.104253 
L 330.424126 142.570657 
L 327.668738 142.113328 
L 324.875154 141.732029 
L 322.050626 141.426192 
L 320.666915 141.304384 
L 315.838815 141.016874 
L 310.988241 140.932622 
L 305.85371 141.054536 
L 297.246524 141.720735 
L 291.332599 142.500894 
L 288.460653 142.972344 
L 285.655316 143.490748 
L 282.94566 144.045532 
L 280.31489 144.634802 
L 278.423371 145.089217 
L 276.580657 145.556539 
L 274.788936 146.034133 
L 273.050261 146.519316 
L 270.767508 147.188458 
L 268.59147 147.859618 
L 267.285697 148.277515 
L 265.09608 149.002591 
L 264.053923 149.357762 
L 263.047477 149.706416 
L 262.077139 150.047349 
L 261.14326 150.37936 
L 260.246138 150.701253 
L 259.386025 151.011837 
L 258.378312 151.376899 
L 257.631472 151.647154 
L 256.919205 151.903529 
L 256.241551 152.145009 
L 255.598509 152.370589 
L 254.99004 152.57928 
L 254.416058 152.770107 
L 253.876442 152.942111 
L 253.371028 153.09435 
L 252.771938 153.259355 
L 252.228359 153.38836 
L 251.796956 153.470388 
L 251.407246 153.522122 
L 251.058675 153.542398 
L 250.750632 153.530093 
L 250.384467 153.455517 
L 250.095177 153.311427 
L 249.880491 153.095153 
L 249.737933 152.804223 
L 249.694982 152.640495 
L 249.655058 152.287138 
L 249.666229 151.871688 
L 249.726368 151.392931 
L 249.833251 150.849796 
L 250.031505 150.070134 
L 250.295791 149.18471 
L 250.559788 148.374255 
L 250.862295 147.490659 
L 251.200299 146.533657 
L 251.570722 145.503172 
L 251.990171 144.344826 
L 252.438095 143.106285 
L 252.910781 141.788122 
L 253.404475 140.391137 
L 253.790356 139.280397 
L 254.184486 138.125491 
L 254.585213 136.927026 
L 254.990884 135.685682 
L 255.485978 134.127472 
L 255.98299 132.509066 
L 256.427292 131.010148 
L 256.868765 129.465535 
L 257.305377 127.876588 
L 257.735125 126.244762 
L 258.196556 124.406189 
L 258.644775 122.519984 
L 259.491598 118.61394 
L 259.950648 116.249719 
L 260.377797 113.834273 
L 260.925398 110.305436 
L 261.390963 106.694803 
L 262.005609 99.852658 
L 262.212069 88.337206 
L 262.103629 85.696811 
L 261.840374 81.923943 
L 261.447573 78.188898 
L 261.060467 75.382176 
L 260.596499 72.614439 
L 260.055446 69.893006 
L 259.437428 67.22512 
L 258.727409 64.563553 
L 257.804723 61.564498 
L 256.777717 58.672113 
L 255.648954 55.897466 
L 254.421613 53.251231 
L 253.342974 51.181974 
L 252.202812 49.211579 
L 251.204016 47.643502 
L 250.165697 46.151068 
L 249.063997 44.704877 
L 247.924785 43.343599 
L 246.750194 42.069875 
L 245.542461 40.886183 
L 244.553062 40.004827 
L 243.54515 39.183781 
L 242.414469 38.350036 
L 241.264607 37.592056 
L 240.097361 36.910995 
L 238.914569 36.307894 
L 237.917863 35.865314 
L 236.912754 35.478042 
L 235.900356 35.146489 
L 234.881796 34.871007 
L 233.602182 34.606034 
L 232.316958 34.429497 
L 231.028375 34.341687 
L 229.738689 34.342752 
L 228.563348 34.421221 
L 227.390682 34.573514 
L 226.222399 34.799421 
L 225.060197 35.09863 
L 223.421847 35.6493 
L 221.803973 36.345708 
L 220.213614 37.18456 
L 218.652928 38.164452 
L 217.126364 39.282667 
L 215.63823 40.536106 
L 214.69804 41.41732 
L 213.776753 42.352655 
L 212.539107 43.729408 
L 211.342055 45.204024 
L 210.188107 46.773277 
L 209.079632 48.433743 
L 207.694858 50.750077 
L 206.39715 53.209193 
L 205.268311 55.624712 
L 204.221803 58.148745 
L 203.349753 60.514092 
L 202.548412 62.955069 
L 201.81903 65.465313 
L 201.162556 68.038315 
L 200.316199 71.99922 
L 199.740938 75.359546 
L 199.279384 78.777638 
L 198.890844 82.723615 
L 198.645594 86.70766 
L 198.688026 98.010861 
L 199.157448 104.359396 
L 199.329182 106.006297 
L 199.883623 110.383114 
L 200.557877 114.639725 
L 201.070058 117.423005 
L 201.62288 120.134241 
L 202.140944 122.466963 
L 202.681901 124.734034 
L 203.241363 126.931479 
L 203.814829 129.055583 
L 204.35836 130.967902 
L 204.906277 132.810822 
L 205.454727 134.581983 
L 205.999823 136.279249 
L 206.226772 136.96945 
L 206.701178 138.384458 
L 207.165789 139.737984 
L 207.617847 141.029055 
L 208.054601 142.256844 
L 208.519734 143.549141 
L 208.958725 144.761356 
L 209.367858 145.892996 
L 209.743472 146.943792 
L 210.007846 147.698534 
L 210.248549 148.40529 
L 210.431732 148.963388 
L 210.596066 149.487692 
L 210.740638 149.978374 
L 210.864553 150.435647 
L 210.966934 150.85976 
L 211.046929 151.251001 
L 211.103705 151.609695 
L 211.136452 151.936205 
L 211.144224 152.239753 
L 211.124752 152.509944 
L 211.077234 152.747294 
L 211.000896 152.952357 
L 210.881725 153.142628 
L 210.725286 153.294825 
L 210.530674 153.40986 
L 210.297035 153.488698 
L 210.06357 153.528398 
L 209.800003 153.542606 
L 209.278351 153.509878 
L 208.66541 153.408395 
L 207.959473 153.242051 
L 207.159131 153.014923 
L 206.361742 152.763531 
L 205.487243 152.469986 
L 204.535259 152.137526 
L 203.50562 151.769466 
L 202.219599 151.304412 
L 200.830416 150.801686 
L 199.277781 150.244944 
L 197.615815 149.659463 
L 196.363093 149.227224 
L 195.056272 148.785744 
L 193.696232 148.337285 
L 192.283966 147.884105 
L 190.399223 147.299939 
L 188.056264 146.607646 
L 185.603427 145.924025 
L 183.046096 145.256707 
L 180.39019 144.613153 
L 177.540141 143.978921 
L 174.598806 143.385797 
L 171.636763 142.851805 
L 168.60323 142.371127 
L 163.459875 141.710695 
L 158.18641 141.238902 
L 154.651876 141.041944 
L 144.608849 141.030745 
L 142.198189 141.155568 
L 138.352221 141.464307 
L 134.551243 141.909173 
L 131.109636 142.440352 
L 127.735086 143.089112 
L 124.873831 143.746795 
L 122.082086 144.492291 
L 119.368481 145.324618 
L 116.741458 146.242362 
L 113.888542 147.379401 
L 112.179852 148.139114 
L 110.525062 148.937908 
L 108.92676 149.774769 
L 107.387449 150.648589 
L 105.752224 151.65945 
L 104.195696 152.712534 
L 102.72089 153.805955 
L 101.330677 154.937708 
L 99.779845 156.341541 
L 98.976341 157.14017 
L 98.213346 157.952898 
L 97.491521 158.779024 
L 96.81149 159.61783 
L 96.173841 160.468582 
L 95.579127 161.330529 
L 95.027865 162.202907 
L 94.520532 163.084938 
L 93.863378 164.380357 
L 93.300843 165.691975 
L 92.753842 167.278085 
L 92.345025 168.879426 
L 92.075462 170.491592 
L 91.945862 172.110133 
L 91.93442 173.005097 
L 91.98852 174.23446 
L 92.123364 175.461533 
L 92.33875 176.684362 
L 92.634351 177.901003 
L 93.055375 179.240519 
L 93.573698 180.567449 
L 94.188356 181.879226 
L 94.898211 183.17332 
L 95.668839 184.397947 
L 96.524848 185.601806 
L 97.432055 186.743753 
L 98.416226 187.862493 
L 99.475796 188.956238 
L 100.609082 190.023262 
L 102.347937 191.494438 
L 104.227244 192.903413 
L 105.326314 193.655413 
L 106.465545 194.386338 
L 108.859995 195.782397 
L 111.40124 197.086785 
L 114.079395 198.295252 
L 116.649733 199.317079 
L 119.318373 200.252574 
L 122.692477 201.273564 
L 125.106953 201.904323 
L 127.572476 202.469871 
L 130.083424 202.969866 
L 132.634104 203.404213 
L 136.75136 203.959432 
L 140.931104 204.351501 
L 147.689893 204.648628 
L 152.008612 204.63476 
L 158.149259 204.3573 
L 164.361226 203.78136 
L 167.399752 203.394535 
L 170.381892 202.948813 
L 174.657883 202.196534 
L 176.788445 201.772232 
L 178.872524 201.325485 
L 180.907138 200.859179 
L 182.889456 200.376279 
L 185.307637 199.749169 
L 187.633634 199.106793 
L 189.513841 198.559766 
L 191.323219 198.010295 
L 193.059511 197.462268 
L 194.720683 196.91961 
L 196.376263 196.361905 
L 197.866185 195.846793 
L 199.277558 195.348765 
L 200.60932 194.871661 
L 201.86064 194.419298 
L 203.118024 193.963977 
L 204.280906 193.546416 
L 205.349146 193.171196 
L 206.322918 192.842796 
L 206.854725 192.672334 
L 207.353777 192.520673 
L 207.82026 192.38868 
L 208.254397 192.277202 
L 208.706876 192.17686 
L 209.118713 192.105003 
L 209.599677 192.055749 
L 210.012326 192.060291 
L 210.35808 192.120995 
L 210.638517 192.240101 
L 210.801259 192.363498 
L 210.931597 192.519143 
L 211.030267 192.707744 
L 211.098047 192.929967 
L 211.14088 193.261614 
L 211.136956 193.649676 
L 211.088108 194.095224 
L 210.996256 194.599213 
L 210.87349 195.123058 
L 210.716683 195.699125 
L 210.527569 196.327904 
L 210.307929 197.009791 
L 210.00399 197.906239 
L 209.752227 198.625095 
L 209.48039 199.387595 
L 209.189898 200.193737 
L 208.882196 201.043452 
L 208.531839 202.011002 
L 208.164931 203.029073 
L 207.783351 204.097316 
L 207.388991 205.215293 
L 206.998377 206.339988 
L 206.599358 207.509887 
L 206.193646 208.724359 
L 205.782951 209.982698 
L 205.390113 211.216823 
L 204.99578 212.489024 
L 204.2084 215.144419 
L 203.581086 217.389596 
L 202.966965 219.723013 
L 202.371807 222.140158 
L 201.801235 224.636154 
L 201.226097 227.378422 
L 200.691485 230.19764 
L 200.069312 233.951165 
L 199.537816 237.805237 
L 199.059015 242.279595 
L 198.727242 246.8342 
L 198.677867 247.791582 
L 198.626758 258.435029 
L 198.902281 263.012315 
L 199.366984 267.538441 
L 199.963406 271.621939 
L 200.754967 275.758506 
L 201.216928 277.782207 
L 201.7228 279.772037 
L 202.276158 281.738013 
L 202.873315 283.663468 
L 203.513748 285.545371 
L 204.196828 287.380745 
L 204.930318 289.186748 
L 205.705803 290.939239 
L 206.990637 293.547313 
L 208.370126 296.009226 
L 209.108184 297.204695 
L 209.868923 298.358407 
L 210.651622 299.469166 
L 211.455524 300.53582 
L 212.751317 302.110556 
L 214.093709 303.571064 
L 215.479357 304.913629 
L 216.90475 306.134827 
L 217.906499 306.902829 
L 218.924095 307.610981 
L 219.956277 308.258425 
L 221.001757 308.844375 
L 222.44328 309.54162 
L 223.903626 310.122144 
L 224.979768 310.471512 
L 226.062765 310.757538 
L 227.151249 310.979877 
L 228.243847 311.138264 
L 229.8359 311.254055 
L 231.429461 311.234145 
L 233.020264 311.078582 
L 234.604058 310.787762 
L 236.187285 310.359065 
L 237.754853 309.795112 
L 239.313432 309.091936 
L 240.84764 308.254881 
L 242.353349 307.286124 
L 243.826545 306.188181 
L 244.726996 305.439393 
L 245.612373 304.642229 
L 246.471943 303.80741 
L 247.315072 302.926918 
L 248.140945 302.001617 
L 248.948774 301.032413 
L 250.180444 299.422277 
L 251.362825 297.70988 
L 252.493279 295.899345 
L 253.569362 293.99502 
L 254.616037 291.94544 
L 255.600738 289.806817 
L 256.458598 287.744137 
L 257.259856 285.613641 
L 258.347033 282.320661 
L 259.302644 278.902767 
L 260.169805 275.160476 
L 260.885438 271.315646 
L 261.492522 267.03533 
L 261.921814 262.683466 
L 262.200812 257.617827 
L 262.192919 249.576549 
L 261.693862 241.790032 
L 261.25855 237.792442 
L 260.717886 233.880582 
L 260.259697 231.067009 
L 259.756166 228.316686 
L 259.212739 225.636206 
L 258.635111 223.031814 
L 258.098765 220.789621 
L 257.544414 218.6158 
L 256.735837 215.656804 
L 256.044009 213.287358 
L 255.349608 211.031885 
L 254.7035 209.025494 
L 254.068599 207.126239 
L 253.451477 205.336824 
L 252.858709 203.659492 
L 252.541426 202.774241 
L 252.234862 201.924587 
L 251.946286 201.127703 
L 251.670088 200.365246 
L 251.407298 199.637321 
L 251.158939 198.943985 
L 250.926019 198.285258 
L 250.709534 197.661117 
L 250.510466 197.071497 
L 250.329781 196.516295 
L 250.142226 195.907641 
L 249.955329 195.242377 
L 249.811144 194.643496 
L 249.712085 194.110183 
L 249.660476 193.641475 
L 249.658076 193.24385 
L 249.705363 192.906 
L 249.804237 192.626625 
L 249.956497 192.404298 
L 250.217738 192.207679 
L 250.564206 192.09102 
L 251.024157 192.050973 
L 251.58423 192.09184 
L 252.246767 192.209224 
L 253.013741 192.398475 
L 253.862024 192.647044 
L 254.36889 192.808167 
L 254.906284 192.986089 
L 256.073052 193.389111 
L 257.3628 193.849547 
L 258.775478 194.360657 
L 259.586893 194.654452 
L 260.43364 194.959856 
L 261.980761 195.512182 
L 263.631605 196.090217 
L 265.384443 196.688202 
L 267.237154 197.300364 
L 268.717694 197.773813 
L 270.253755 198.24961 
L 272.095916 198.798974 
L 274.007975 199.344204 
L 275.987351 199.881468 
L 278.03125 200.407001 
L 281.198099 201.16221 
L 284.491356 201.871064 
L 287.950773 202.531308 
L 291.515025 203.120648 
L 297.583005 203.909488 
L 299.689021 204.119246 
L 308.903199 204.637082 
L 314.375682 204.623198 
L 319.832825 204.354017 
L 322.298361 204.143713 
L 327.085106 203.566653 
L 331.765539 202.769586 
L 334.489971 202.189375 
L 337.156603 201.530899 
L 340.230255 200.650611 
L 343.200716 199.663082 
L 345.653042 198.734183 
L 348.014245 197.730223 
L 350.277535 196.653384 
L 352.436374 195.506175 
L 354.134431 194.508691 
L 355.753763 193.466971 
L 357.241609 192.419433 
L 358.650081 191.334108 
L 359.976554 190.212918 
L 361.218548 189.057886 
L 362.297935 187.952843 
L 363.300171 186.822033 
L 364.223622 185.667306 
L 365.066782 184.49057 
L 365.750242 183.423548 
L 366.36778 182.341991 
L 366.91859 181.247356 
L 367.401953 180.141124 
L 367.844143 178.945128 
L 368.207574 177.739427 
L 368.494729 176.510802 
L 368.700157 175.276157 
L 368.823539 174.037492 
L 368.864688 172.796814 
z
" clip-path="url(#pe1d1c8ebf2)" style="fill: #ffa500; opacity: 0.5"/>
   </g>
   <g id="matplotlib.axis_1">
    <g id="xtick_1">
     <g id="line2d_1">
      <defs>
       <path id="m6910b6b6d3" d="M 0 0 
L 0 3.5 
" style="stroke: #000000; stroke-width: 0.8"/>
      </defs>
      <g>
       <use xlink:href="#m6910b6b6d3" x="64.240118" y="172.796814" style="stroke: #000000; stroke-width: 0.8"/>
      </g>
     </g>
     <g id="text_1">
      <!-- −3 -->
      <g transform="translate(56.869024 187.395252) scale(0.1 -0.1)">
       <defs>
        <path id="DejaVuSans-2212" d="M 678 2272 
L 4684 2272 
L 4684 1741 
L 678 1741 
L 678 2272 
z
" transform="scale(0.015625)"/>
        <path id="DejaVuSans-33" d="M 2597 2516 
Q 3050 2419 3304 2112 
Q 3559 1806 3559 1356 
Q 3559 666 3084 287 
Q 2609 -91 1734 -91 
Q 1441 -91 1130 -33 
Q 819 25 488 141 
L 488 750 
Q 750 597 1062 519 
Q 1375 441 1716 441 
Q 2309 441 2620 675 
Q 2931 909 2931 1356 
Q 2931 1769 2642 2001 
Q 2353 2234 1838 2234 
L 1294 2234 
L 1294 2753 
L 1863 2753 
Q 2328 2753 2575 2939 
Q 2822 3125 2822 3475 
Q 2822 3834 2567 4026 
Q 2313 4219 1838 4219 
Q 1578 4219 1281 4162 
Q 984 4106 628 3988 
L 628 4550 
Q 988 4650 1302 4700 
Q 1616 4750 1894 4750 
Q 2613 4750 3031 4423 
Q 3450 4097 3450 3541 
Q 3450 3153 3228 2886 
Q 3006 2619 2597 2516 
z
" transform="scale(0.015625)"/>
       </defs>
       <use xlink:href="#DejaVuSans-2212"/>
       <use xlink:href="#DejaVuSans-33" transform="translate(83.789062 0)"/>
      </g>
     </g>
    </g>
    <g id="xtick_2">
     <g id="line2d_2">
      <g>
       <use xlink:href="#m6910b6b6d3" x="119.626404" y="172.796814" style="stroke: #000000; stroke-width: 0.8"/>
      </g>
     </g>
     <g id="text_2">
      <!-- −2 -->
      <g transform="translate(112.25531 187.395252) scale(0.1 -0.1)">
       <defs>
        <path id="DejaVuSans-32" d="M 1228 531 
L 3431 531 
L 3431 0 
L 469 0 
L 469 531 
Q 828 903 1448 1529 
Q 2069 2156 2228 2338 
Q 2531 2678 2651 2914 
Q 2772 3150 2772 3378 
Q 2772 3750 2511 3984 
Q 2250 4219 1831 4219 
Q 1534 4219 1204 4116 
Q 875 4013 500 3803 
L 500 4441 
Q 881 4594 1212 4672 
Q 1544 4750 1819 4750 
Q 2544 4750 2975 4387 
Q 3406 4025 3406 3419 
Q 3406 3131 3298 2873 
Q 3191 2616 2906 2266 
Q 2828 2175 2409 1742 
Q 1991 1309 1228 531 
z
" transform="scale(0.015625)"/>
       </defs>
       <use xlink:href="#DejaVuSans-2212"/>
       <use xlink:href="#DejaVuSans-32" transform="translate(83.789062 0)"/>
      </g>
     </g>
    </g>
    <g id="xtick_3">
     <g id="line2d_3">
      <g>
       <use xlink:href="#m6910b6b6d3" x="175.012689" y="172.796814" style="stroke: #000000; stroke-width: 0.8"/>
      </g>
     </g>
     <g id="text_3">
      <!-- −1 -->
      <g transform="translate(167.641595 187.395252) scale(0.1 -0.1)">
       <defs>
        <path id="DejaVuSans-31" d="M 794 531 
L 1825 531 
L 1825 4091 
L 703 3866 
L 703 4441 
L 1819 4666 
L 2450 4666 
L 2450 531 
L 3481 531 
L 3481 0 
L 794 0 
L 794 531 
z
" transform="scale(0.015625)"/>
       </defs>
       <use xlink:href="#DejaVuSans-2212"/>
       <use xlink:href="#DejaVuSans-31" transform="translate(83.789062 0)"/>
      </g>
     </g>
    </g>
    <g id="xtick_4">
     <g id="line2d_4">
      <g>
       <use xlink:href="#m6910b6b6d3" x="230.398974" y="172.796814" style="stroke: #000000; stroke-width: 0.8"/>
      </g>
     </g>
    </g>
    <g id="xtick_5">
     <g id="line2d_5">
      <g>
       <use xlink:href="#m6910b6b6d3" x="285.78526" y="172.796814" style="stroke: #000000; stroke-width: 0.8"/>
      </g>
     </g>
     <g id="text_4">
      <!-- 1 -->
      <g transform="translate(282.60401 187.395252) scale(0.1 -0.1)">
       <use xlink:href="#DejaVuSans-31"/>
      </g>
     </g>
    </g>
    <g id="xtick_6">
     <g id="line2d_6">
      <g>
       <use xlink:href="#m6910b6b6d3" x="341.171545" y="172.796814" style="stroke: #000000; stroke-width: 0.8"/>
      </g>
     </g>
     <g id="text_5">
      <!-- 2 -->
      <g transform="translate(337.990295 187.395252) scale(0.1 -0.1)">
       <use xlink:href="#DejaVuSans-32"/>
      </g>
     </g>
    </g>
    <g id="xtick_7">
     <g id="line2d_7">
      <g>
       <use xlink:href="#m6910b6b6d3" x="396.557831" y="172.796814" style="stroke: #000000; stroke-width: 0.8"/>
      </g>
     </g>
     <g id="text_6">
      <!-- 3 -->
      <g transform="translate(393.376581 187.395252) scale(0.1 -0.1)">
       <use xlink:href="#DejaVuSans-33"/>
      </g>
     </g>
    </g>
    <g id="xtick_8">
     <g id="line2d_8">
      <defs>
       <path id="md3c9c56a16" d="M 0 0 
L 0 2 
" style="stroke: #000000; stroke-width: 0.6"/>
      </defs>
      <g>
       <use xlink:href="#md3c9c56a16" x="75.317375" y="172.796814" style="stroke: #000000; stroke-width: 0.6"/>
      </g>
     </g>
    </g>
    <g id="xtick_9">
     <g id="line2d_9">
      <g>
       <use xlink:href="#md3c9c56a16" x="86.394632" y="172.796814" style="stroke: #000000; stroke-width: 0.6"/>
      </g>
     </g>
    </g>
    <g id="xtick_10">
     <g id="line2d_10">
      <g>
       <use xlink:href="#md3c9c56a16" x="97.471889" y="172.796814" style="stroke: #000000; stroke-width: 0.6"/>
      </g>
     </g>
    </g>
    <g id="xtick_11">
     <g id="line2d_11">
      <g>
       <use xlink:href="#md3c9c56a16" x="108.549146" y="172.796814" style="stroke: #000000; stroke-width: 0.6"/>
      </g>
     </g>
    </g>
    <g id="xtick_12">
     <g id="line2d_12">
      <g>
       <use xlink:href="#md3c9c56a16" x="130.703661" y="172.796814" style="stroke: #000000; stroke-width: 0.6"/>
      </g>
     </g>
    </g>
    <g id="xtick_13">
     <g id="line2d_13">
      <g>
       <use xlink:href="#md3c9c56a16" x="141.780918" y="172.796814" style="stroke: #000000; stroke-width: 0.6"/>
      </g>
     </g>
    </g>
    <g id="xtick_14">
     <g id="line2d_14">
      <g>
       <use xlink:href="#md3c9c56a16" x="152.858175" y="172.796814" style="stroke: #000000; stroke-width: 0.6"/>
      </g>
     </g>
    </g>
    <g id="xtick_15">
     <g id="line2d_15">
      <g>
       <use xlink:href="#md3c9c56a16" x="163.935432" y="172.796814" style="stroke: #000000; stroke-width: 0.6"/>
      </g>
     </g>
    </g>
    <g id="xtick_16">
     <g id="line2d_16">
      <g>
       <use xlink:href="#md3c9c56a16" x="186.089946" y="172.796814" style="stroke: #000000; stroke-width: 0.6"/>
      </g>
     </g>
    </g>
    <g id="xtick_17">
     <g id="line2d_17">
      <g>
       <use xlink:href="#md3c9c56a16" x="197.167203" y="172.796814" style="stroke: #000000; stroke-width: 0.6"/>
      </g>
     </g>
    </g>
    <g id="xtick_18">
     <g id="line2d_18">
      <g>
       <use xlink:href="#md3c9c56a16" x="208.24446" y="172.796814" style="stroke: #000000; stroke-width: 0.6"/>
      </g>
     </g>
    </g>
    <g id="xtick_19">
     <g id="line2d_19">
      <g>
       <use xlink:href="#md3c9c56a16" x="219.321717" y="172.796814" style="stroke: #000000; stroke-width: 0.6"/>
      </g>
     </g>
    </g>
    <g id="xtick_20">
     <g id="line2d_20">
      <g>
       <use xlink:href="#md3c9c56a16" x="241.476232" y="172.796814" style="stroke: #000000; stroke-width: 0.6"/>
      </g>
     </g>
    </g>
    <g id="xtick_21">
     <g id="line2d_21">
      <g>
       <use xlink:href="#md3c9c56a16" x="252.553489" y="172.796814" style="stroke: #000000; stroke-width: 0.6"/>
      </g>
     </g>
    </g>
    <g id="xtick_22">
     <g id="line2d_22">
      <g>
       <use xlink:href="#md3c9c56a16" x="263.630746" y="172.796814" style="stroke: #000000; stroke-width: 0.6"/>
      </g>
     </g>
    </g>
    <g id="xtick_23">
     <g id="line2d_23">
      <g>
       <use xlink:href="#md3c9c56a16" x="274.708003" y="172.796814" style="stroke: #000000; stroke-width: 0.6"/>
      </g>
     </g>
    </g>
    <g id="xtick_24">
     <g id="line2d_24">
      <g>
       <use xlink:href="#md3c9c56a16" x="296.862517" y="172.796814" style="stroke: #000000; stroke-width: 0.6"/>
      </g>
     </g>
    </g>
    <g id="xtick_25">
     <g id="line2d_25">
      <g>
       <use xlink:href="#md3c9c56a16" x="307.939774" y="172.796814" style="stroke: #000000; stroke-width: 0.6"/>
      </g>
     </g>
    </g>
    <g id="xtick_26">
     <g id="line2d_26">
      <g>
       <use xlink:href="#md3c9c56a16" x="319.017031" y="172.796814" style="stroke: #000000; stroke-width: 0.6"/>
      </g>
     </g>
    </g>
    <g id="xtick_27">
     <g id="line2d_27">
      <g>
       <use xlink:href="#md3c9c56a16" x="330.094288" y="172.796814" style="stroke: #000000; stroke-width: 0.6"/>
      </g>
     </g>
    </g>
    <g id="xtick_28">
     <g id="line2d_28">
      <g>
       <use xlink:href="#md3c9c56a16" x="352.248803" y="172.796814" style="stroke: #000000; stroke-width: 0.6"/>
      </g>
     </g>
    </g>
    <g id="xtick_29">
     <g id="line2d_29">
      <g>
       <use xlink:href="#md3c9c56a16" x="363.32606" y="172.796814" style="stroke: #000000; stroke-width: 0.6"/>
      </g>
     </g>
    </g>
    <g id="xtick_30">
     <g id="line2d_30">
      <g>
       <use xlink:href="#md3c9c56a16" x="374.403317" y="172.796814" style="stroke: #000000; stroke-width: 0.6"/>
      </g>
     </g>
    </g>
    <g id="xtick_31">
     <g id="line2d_31">
      <g>
       <use xlink:href="#md3c9c56a16" x="385.480574" y="172.796814" style="stroke: #000000; stroke-width: 0.6"/>
      </g>
     </g>
    </g>
   </g>
   <g id="matplotlib.axis_2">
    <g id="ytick_1">
     <g id="line2d_32">
      <defs>
       <path id="m1424572469" d="M 0 0 
L -3.5 0 
" style="stroke: #000000; stroke-width: 0.8"/>
      </defs>
      <g>
       <use xlink:href="#m1424572469" x="230.398974" y="338.955671" style="stroke: #000000; stroke-width: 0.8"/>
      </g>
     </g>
     <g id="text_7">
      <!-- −3 -->
      <g transform="translate(208.656787 342.75489) scale(0.1 -0.1)">
       <use xlink:href="#DejaVuSans-2212"/>
       <use xlink:href="#DejaVuSans-33" transform="translate(83.789062 0)"/>
      </g>
     </g>
    </g>
    <g id="ytick_2">
     <g id="line2d_33">
      <g>
       <use xlink:href="#m1424572469" x="230.398974" y="283.569385" style="stroke: #000000; stroke-width: 0.8"/>
      </g>
     </g>
     <g id="text_8">
      <!-- −2 -->
      <g transform="translate(208.656787 287.368604) scale(0.1 -0.1)">
       <use xlink:href="#DejaVuSans-2212"/>
       <use xlink:href="#DejaVuSans-32" transform="translate(83.789062 0)"/>
      </g>
     </g>
    </g>
    <g id="ytick_3">
     <g id="line2d_34">
      <g>
       <use xlink:href="#m1424572469" x="230.398974" y="228.1831" style="stroke: #000000; stroke-width: 0.8"/>
      </g>
     </g>
     <g id="text_9">
      <!-- −1 -->
      <g transform="translate(208.656787 231.982319) scale(0.1 -0.1)">
       <use xlink:href="#DejaVuSans-2212"/>
       <use xlink:href="#DejaVuSans-31" transform="translate(83.789062 0)"/>
      </g>
     </g>
    </g>
    <g id="ytick_4">
     <g id="line2d_35">
      <g>
       <use xlink:href="#m1424572469" x="230.398974" y="172.796814" style="stroke: #000000; stroke-width: 0.8"/>
      </g>
     </g>
    </g>
    <g id="ytick_5">
     <g id="line2d_36">
      <g>
       <use xlink:href="#m1424572469" x="230.398974" y="117.410529" style="stroke: #000000; stroke-width: 0.8"/>
      </g>
     </g>
     <g id="text_10">
      <!-- 1 -->
      <g transform="translate(217.036474 121.209748) scale(0.1 -0.1)">
       <use xlink:href="#DejaVuSans-31"/>
      </g>
     </g>
    </g>
    <g id="ytick_6">
     <g id="line2d_37">
      <g>
       <use xlink:href="#m1424572469" x="230.398974" y="62.024244" style="stroke: #000000; stroke-width: 0.8"/>
      </g>
     </g>
     <g id="text_11">
      <!-- 2 -->
      <g transform="translate(217.036474 65.823462) scale(0.1 -0.1)">
       <use xlink:href="#DejaVuSans-32"/>
      </g>
     </g>
    </g>
    <g id="ytick_7">
     <g id="line2d_38">
      <g>
       <use xlink:href="#m1424572469" x="230.398974" y="6.637958" style="stroke: #000000; stroke-width: 0.8"/>
      </g>
     </g>
     <g id="text_12">
      <!-- 3 -->
      <g transform="translate(217.036474 10.437177) scale(0.1 -0.1)">
       <use xlink:href="#DejaVuSans-33"/>
      </g>
     </g>
    </g>
    <g id="ytick_8">
     <g id="line2d_39">
      <defs>
       <path id="m2ea487f3c6" d="M 0 0 
L -2 0 
" style="stroke: #000000; stroke-width: 0.6"/>
      </defs>
      <g>
       <use xlink:href="#m2ea487f3c6" x="230.398974" y="327.878414" style="stroke: #000000; stroke-width: 0.6"/>
      </g>
     </g>
    </g>
    <g id="ytick_9">
     <g id="line2d_40">
      <g>
       <use xlink:href="#m2ea487f3c6" x="230.398974" y="316.801157" style="stroke: #000000; stroke-width: 0.6"/>
      </g>
     </g>
    </g>
    <g id="ytick_10">
     <g id="line2d_41">
      <g>
       <use xlink:href="#m2ea487f3c6" x="230.398974" y="305.7239" style="stroke: #000000; stroke-width: 0.6"/>
      </g>
     </g>
    </g>
    <g id="ytick_11">
     <g id="line2d_42">
      <g>
       <use xlink:href="#m2ea487f3c6" x="230.398974" y="294.646643" style="stroke: #000000; stroke-width: 0.6"/>
      </g>
     </g>
    </g>
    <g id="ytick_12">
     <g id="line2d_43">
      <g>
       <use xlink:href="#m2ea487f3c6" x="230.398974" y="272.492128" style="stroke: #000000; stroke-width: 0.6"/>
      </g>
     </g>
    </g>
    <g id="ytick_13">
     <g id="line2d_44">
      <g>
       <use xlink:href="#m2ea487f3c6" x="230.398974" y="261.414871" style="stroke: #000000; stroke-width: 0.6"/>
      </g>
     </g>
    </g>
    <g id="ytick_14">
     <g id="line2d_45">
      <g>
       <use xlink:href="#m2ea487f3c6" x="230.398974" y="250.337614" style="stroke: #000000; stroke-width: 0.6"/>
      </g>
     </g>
    </g>
    <g id="ytick_15">
     <g id="line2d_46">
      <g>
       <use xlink:href="#m2ea487f3c6" x="230.398974" y="239.260357" style="stroke: #000000; stroke-width: 0.6"/>
      </g>
     </g>
    </g>
    <g id="ytick_16">
     <g id="line2d_47">
      <g>
       <use xlink:href="#m2ea487f3c6" x="230.398974" y="217.105843" style="stroke: #000000; stroke-width: 0.6"/>
      </g>
     </g>
    </g>
    <g id="ytick_17">
     <g id="line2d_48">
      <g>
       <use xlink:href="#m2ea487f3c6" x="230.398974" y="206.028586" style="stroke: #000000; stroke-width: 0.6"/>
      </g>
     </g>
    </g>
    <g id="ytick_18">
     <g id="line2d_49">
      <g>
       <use xlink:href="#m2ea487f3c6" x="230.398974" y="194.951329" style="stroke: #000000; stroke-width: 0.6"/>
      </g>
     </g>
    </g>
    <g id="ytick_19">
     <g id="line2d_50">
      <g>
       <use xlink:href="#m2ea487f3c6" x="230.398974" y="183.874072" style="stroke: #000000; stroke-width: 0.6"/>
      </g>
     </g>
    </g>
    <g id="ytick_20">
     <g id="line2d_51">
      <g>
       <use xlink:href="#m2ea487f3c6" x="230.398974" y="161.719557" style="stroke: #000000; stroke-width: 0.6"/>
      </g>
     </g>
    </g>
    <g id="ytick_21">
     <g id="line2d_52">
      <g>
       <use xlink:href="#m2ea487f3c6" x="230.398974" y="150.6423" style="stroke: #000000; stroke-width: 0.6"/>
      </g>
     </g>
    </g>
    <g id="ytick_22">
     <g id="line2d_53">
      <g>
       <use xlink:href="#m2ea487f3c6" x="230.398974" y="139.565043" style="stroke: #000000; stroke-width: 0.6"/>
      </g>
     </g>
    </g>
    <g id="ytick_23">
     <g id="line2d_54">
      <g>
       <use xlink:href="#m2ea487f3c6" x="230.398974" y="128.487786" style="stroke: #000000; stroke-width: 0.6"/>
      </g>
     </g>
    </g>
    <g id="ytick_24">
     <g id="line2d_55">
      <g>
       <use xlink:href="#m2ea487f3c6" x="230.398974" y="106.333272" style="stroke: #000000; stroke-width: 0.6"/>
      </g>
     </g>
    </g>
    <g id="ytick_25">
     <g id="line2d_56">
      <g>
       <use xlink:href="#m2ea487f3c6" x="230.398974" y="95.256015" style="stroke: #000000; stroke-width: 0.6"/>
      </g>
     </g>
    </g>
    <g id="ytick_26">
     <g id="line2d_57">
      <g>
       <use xlink:href="#m2ea487f3c6" x="230.398974" y="84.178758" style="stroke: #000000; stroke-width: 0.6"/>
      </g>
     </g>
    </g>
    <g id="ytick_27">
     <g id="line2d_58">
      <g>
       <use xlink:href="#m2ea487f3c6" x="230.398974" y="73.101501" style="stroke: #000000; stroke-width: 0.6"/>
      </g>
     </g>
    </g>
    <g id="ytick_28">
     <g id="line2d_59">
      <g>
       <use xlink:href="#m2ea487f3c6" x="230.398974" y="50.946986" style="stroke: #000000; stroke-width: 0.6"/>
      </g>
     </g>
    </g>
    <g id="ytick_29">
     <g id="line2d_60">
      <g>
       <use xlink:href="#m2ea487f3c6" x="230.398974" y="39.869729" style="stroke: #000000; stroke-width: 0.6"/>
      </g>
     </g>
    </g>
    <g id="ytick_30">
     <g id="line2d_61">
      <g>
       <use xlink:href="#m2ea487f3c6" x="230.398974" y="28.792472" style="stroke: #000000; stroke-width: 0.6"/>
      </g>
     </g>
    </g>
    <g id="ytick_31">
     <g id="line2d_62">
      <g>
       <use xlink:href="#m2ea487f3c6" x="230.398974" y="17.715215" style="stroke: #000000; stroke-width: 0.6"/>
      </g>
     </g>
    </g>
   </g>
   <g id="line2d_63">
    <path d="M 368.864688 172.796814 
L 368.706405 170.364928 
L 368.232491 167.948208 
L 367.498108 165.694542 
L 366.764574 164.025125 
L 365.877781 162.383129 
L 364.840366 160.773605 
L 362.932473 158.343488 
L 361.355141 156.669941 
L 360.502195 155.855896 
L 358.719416 154.315589 
L 355.35301 151.859892 
L 351.581504 149.618004 
L 348.864105 148.253786 
L 343.685426 146.105583 
L 339.318375 144.667557 
L 335.232737 143.578358 
L 330.424126 142.570657 
L 324.875154 141.732029 
L 320.666915 141.304384 
L 315.838815 141.016874 
L 310.988241 140.932622 
L 305.85371 141.054536 
L 297.246524 141.720735 
L 288.460653 142.972344 
L 282.94566 144.045532 
L 276.580657 145.556539 
L 270.767508 147.188458 
L 264.053923 149.357762 
L 252.228359 153.38836 
L 251.058675 153.542398 
L 250.384467 153.455517 
L 249.880491 153.095153 
L 249.694982 152.640495 
L 249.666229 151.871688 
L 249.833251 150.849796 
L 250.559788 148.374255 
L 256.427292 131.010148 
L 257.735125 126.244762 
L 258.644775 122.519984 
L 259.950648 116.249719 
L 260.925398 110.305436 
L 261.390963 106.694803 
L 262.005609 99.852658 
L 262.212069 88.337206 
L 261.840374 81.923943 
L 261.060467 75.382176 
L 260.055446 69.893006 
L 258.727409 64.563553 
L 257.804723 61.564498 
L 256.777717 58.672113 
L 255.648954 55.897466 
L 253.342974 51.181974 
L 251.204016 47.643502 
L 249.063997 44.704877 
L 246.750194 42.069875 
L 244.553062 40.004827 
L 242.414469 38.350036 
L 240.097361 36.910995 
L 237.917863 35.865314 
L 235.900356 35.146489 
L 233.602182 34.606034 
L 231.028375 34.341687 
L 228.563348 34.421221 
L 226.222399 34.799421 
L 225.060197 35.09863 
L 223.421847 35.6493 
L 221.803973 36.345708 
L 220.213614 37.18456 
L 218.652928 38.164452 
L 217.126364 39.282667 
L 214.69804 41.41732 
L 212.539107 43.729408 
L 210.188107 46.773277 
L 209.079632 48.433743 
L 207.694858 50.750077 
L 206.39715 53.209193 
L 205.268311 55.624712 
L 203.349753 60.514092 
L 201.81903 65.465313 
L 201.162556 68.038315 
L 200.316199 71.99922 
L 199.740938 75.359546 
L 199.279384 78.777638 
L 198.890844 82.723615 
L 198.645594 86.70766 
L 198.688026 98.010861 
L 199.329182 106.006297 
L 199.883623 110.383114 
L 201.070058 117.423005 
L 202.140944 122.466963 
L 203.814829 129.055583 
L 205.454727 134.581983 
L 207.617847 141.029055 
L 210.864553 150.435647 
L 211.136452 151.936205 
L 211.077234 152.747294 
L 210.881725 153.142628 
L 210.530674 153.40986 
L 209.800003 153.542606 
L 208.66541 153.408395 
L 206.361742 152.763531 
L 200.830416 150.801686 
L 193.696232 148.337285 
L 188.056264 146.607646 
L 183.046096 145.256707 
L 177.540141 143.978921 
L 171.636763 142.851805 
L 168.60323 142.371127 
L 163.459875 141.710695 
L 158.18641 141.238902 
L 154.651876 141.041944 
L 144.608849 141.030745 
L 138.352221 141.464307 
L 134.551243 141.909173 
L 131.109636 142.440352 
L 124.873831 143.746795 
L 119.368481 145.324618 
L 116.741458 146.242362 
L 112.179852 148.139114 
L 108.92676 149.774769 
L 105.752224 151.65945 
L 102.72089 153.805955 
L 99.779845 156.341541 
L 98.213346 157.952898 
L 96.81149 159.61783 
L 95.579127 161.330529 
L 94.520532 163.084938 
L 93.300843 165.691975 
L 92.753842 167.278085 
L 92.345025 168.879426 
L 92.075462 170.491592 
L 91.93442 173.005097 
L 92.123364 175.461533 
L 92.634351 177.901003 
L 93.573698 180.567449 
L 94.898211 183.17332 
L 96.524848 185.601806 
L 98.416226 187.862493 
L 100.609082 190.023262 
L 102.347937 191.494438 
L 105.326314 193.655413 
L 106.465545 194.386338 
L 108.859995 195.782397 
L 111.40124 197.086785 
L 114.079395 198.295252 
L 116.649733 199.317079 
L 119.318373 200.252574 
L 125.106953 201.904323 
L 130.083424 202.969866 
L 132.634104 203.404213 
L 136.75136 203.959432 
L 140.931104 204.351501 
L 147.689893 204.648628 
L 152.008612 204.63476 
L 158.149259 204.3573 
L 167.399752 203.394535 
L 170.381892 202.948813 
L 176.788445 201.772232 
L 182.889456 200.376279 
L 189.513841 198.559766 
L 196.376263 196.361905 
L 208.706876 192.17686 
L 210.012326 192.060291 
L 210.638517 192.240101 
L 210.931597 192.519143 
L 211.098047 192.929967 
L 211.136956 193.649676 
L 210.87349 195.123058 
L 210.00399 197.906239 
L 204.99578 212.489024 
L 203.581086 217.389596 
L 202.371807 222.140158 
L 201.226097 227.378422 
L 200.069312 233.951165 
L 199.537816 237.805237 
L 199.059015 242.279595 
L 198.677867 247.791582 
L 198.626758 258.435029 
L 198.902281 263.012315 
L 199.366984 267.538441 
L 199.963406 271.621939 
L 201.216928 277.782207 
L 202.276158 281.738013 
L 203.513748 285.545371 
L 204.930318 289.186748 
L 205.705803 290.939239 
L 206.990637 293.547313 
L 209.108184 297.204695 
L 210.651622 299.469166 
L 212.751317 302.110556 
L 214.093709 303.571064 
L 215.479357 304.913629 
L 217.906499 306.902829 
L 219.956277 308.258425 
L 222.44328 309.54162 
L 224.979768 310.471512 
L 227.151249 310.979877 
L 228.243847 311.138264 
L 229.8359 311.254055 
L 231.429461 311.234145 
L 233.020264 311.078582 
L 234.604058 310.787762 
L 236.187285 310.359065 
L 237.754853 309.795112 
L 239.313432 309.091936 
L 240.84764 308.254881 
L 242.353349 307.286124 
L 244.726996 305.439393 
L 246.471943 303.80741 
L 248.140945 302.001617 
L 250.180444 299.422277 
L 252.493279 295.899345 
L 254.616037 291.94544 
L 256.458598 287.744137 
L 257.259856 285.613641 
L 258.347033 282.320661 
L 259.302644 278.902767 
L 260.169805 275.160476 
L 260.885438 271.315646 
L 261.492522 267.03533 
L 261.921814 262.683466 
L 262.200812 257.617827 
L 262.192919 249.576549 
L 261.693862 241.790032 
L 261.25855 237.792442 
L 260.259697 231.067009 
L 259.212739 225.636206 
L 257.544414 218.6158 
L 256.044009 213.287358 
L 254.068599 207.126239 
L 249.811144 194.643496 
L 249.658076 193.24385 
L 249.804237 192.626625 
L 250.217738 192.207679 
L 251.024157 192.050973 
L 252.246767 192.209224 
L 254.36889 192.808167 
L 258.775478 194.360657 
L 265.384443 196.688202 
L 272.095916 198.798974 
L 278.03125 200.407001 
L 284.491356 201.871064 
L 291.515025 203.120648 
L 299.689021 204.119246 
L 308.903199 204.637082 
L 314.375682 204.623198 
L 322.298361 204.143713 
L 327.085106 203.566653 
L 331.765539 202.769586 
L 337.156603 201.530899 
L 340.230255 200.650611 
L 345.653042 198.734183 
L 350.277535 196.653384 
L 354.134431 194.508691 
L 357.241609 192.419433 
L 359.976554 190.212918 
L 362.297935 187.952843 
L 364.223622 185.667306 
L 365.750242 183.423548 
L 366.91859 181.247356 
L 367.844143 178.945128 
L 368.494729 176.510802 
L 368.823539 174.037492 
L 368.864688 172.796814 
L 368.864688 172.796814 
" clip-path="url(#pe1d1c8ebf2)" style="fill: none; stroke: #0000ff; stroke-linecap: square"/>
   </g>
   <g id="patch_4">
    <path d="M 230.398974 345.6 
L 230.398974 0 
" style="fill: none; stroke: #000000; stroke-width: 0.8; stroke-linejoin: miter; stroke-linecap: square"/>
   </g>
   <g id="patch_5">
    <path d="M 57.595856 172.796814 
L 403.204144 172.796814 
" style="fill: none; stroke: #000000; stroke-width: 0.8; stroke-linejoin: miter; stroke-linecap: square"/>
   </g>
  </g>
 </g>
 <defs>
  <clipPath id="pe1d1c8ebf2">
   <rect x="57.595856" y="0" width="345.608288" height="345.6"/>
  </clipPath>
 </defs>
</svg>
