<?xml version="1.0" encoding="utf-8" standalone="no"?>
<!DOCTYPE svg PUBLIC "-//W3C//DTD SVG 1.1//EN"
  "http://www.w3.org/Graphics/SVG/1.1/DTD/svg11.dtd">
<svg xmlns:xlink="http://www.w3.org/1999/xlink" width="460.8pt" height="345.6pt" viewBox="0 0 460.8 345.6" xmlns="http://www.w3.org/2000/svg" version="1.1">
 <metadata>
  <rdf:RDF xmlns:dc="http://purl.org/dc/elements/1.1/" xmlns:cc="http://creativecommons.org/ns#" xmlns:rdf="http://www.w3.org/1999/02/22-rdf-syntax-ns#">
   <cc:Work>
    <dc:type rdf:resource="http://purl.org/dc/dcmitype/StillImage"/>
    <dc:date>2025-08-02T18:54:45.826025</dc:date>
    <dc:format>image/svg+xml</dc:format>
    <dc:creator>
     <cc:Agent>
      <dc:title>Matplotlib v3.10.3, https://matplotlib.org/</dc:title>
     </cc:Agent>
    </dc:creator>
   </cc:Work>
  </rdf:RDF>
 </metadata>
 <defs>
  <style type="text/css">*{stroke-linejoin: round; stroke-linecap: butt}</style>
 </defs>
 <g id="figure_1">
  <g id="patch_1">
   <path d="M 0 345.6 
L 460.8 345.6 
L 460.8 0 
L 0 0 
z
" style="fill: #ffffff"/>
  </g>
  <g id="axes_1">
   <g id="patch_2">
    <path d="M 65.881693 345.6 
L 394.918307 345.6 
L 394.918307 0 
L 65.881693 0 
z
" style="fill: #ffffff"/>
   </g>
   <g id="matplotlib.axis_1">
    <g id="xtick_1">
     <g id="line2d_1">
      <defs>
       <path id="mc3192c46b9" d="M 0 0 
L 0 3.5 
" style="stroke: #000000; stroke-width: 0.8"/>
      </defs>
      <g>
       <use xlink:href="#mc3192c46b9" x="147.315069" y="172.81087" style="stroke: #000000; stroke-width: 0.8"/>
      </g>
     </g>
     <g id="text_1">
      <!-- −0.5 -->
      <g transform="translate(135.173663 187.409307) scale(0.1 -0.1)">
       <defs>
        <path id="DejaVuSans-2212" d="M 678 2272 
L 4684 2272 
L 4684 1741 
L 678 1741 
L 678 2272 
z
" transform="scale(0.015625)"/>
        <path id="DejaVuSans-30" d="M 2034 4250 
Q 1547 4250 1301 3770 
Q 1056 3291 1056 2328 
Q 1056 1369 1301 889 
Q 1547 409 2034 409 
Q 2525 409 2770 889 
Q 3016 1369 3016 2328 
Q 3016 3291 2770 3770 
Q 2525 4250 2034 4250 
z
M 2034 4750 
Q 2819 4750 3233 4129 
Q 3647 3509 3647 2328 
Q 3647 1150 3233 529 
Q 2819 -91 2034 -91 
Q 1250 -91 836 529 
Q 422 1150 422 2328 
Q 422 3509 836 4129 
Q 1250 4750 2034 4750 
z
" transform="scale(0.015625)"/>
        <path id="DejaVuSans-2e" d="M 684 794 
L 1344 794 
L 1344 0 
L 684 0 
L 684 794 
z
" transform="scale(0.015625)"/>
        <path id="DejaVuSans-35" d="M 691 4666 
L 3169 4666 
L 3169 4134 
L 1269 4134 
L 1269 2991 
Q 1406 3038 1543 3061 
Q 1681 3084 1819 3084 
Q 2600 3084 3056 2656 
Q 3513 2228 3513 1497 
Q 3513 744 3044 326 
Q 2575 -91 1722 -91 
Q 1428 -91 1123 -41 
Q 819 9 494 109 
L 494 744 
Q 775 591 1075 516 
Q 1375 441 1709 441 
Q 2250 441 2565 725 
Q 2881 1009 2881 1497 
Q 2881 1984 2565 2268 
Q 2250 2553 1709 2553 
Q 1456 2553 1204 2497 
Q 953 2441 691 2322 
L 691 4666 
z
" transform="scale(0.015625)"/>
       </defs>
       <use xlink:href="#DejaVuSans-2212"/>
       <use xlink:href="#DejaVuSans-30" transform="translate(83.789062 0)"/>
       <use xlink:href="#DejaVuSans-2e" transform="translate(147.412109 0)"/>
       <use xlink:href="#DejaVuSans-35" transform="translate(179.199219 0)"/>
      </g>
     </g>
    </g>
    <g id="xtick_2">
     <g id="line2d_2">
      <g>
       <use xlink:href="#mc3192c46b9" x="230.398032" y="172.81087" style="stroke: #000000; stroke-width: 0.8"/>
      </g>
     </g>
    </g>
    <g id="xtick_3">
     <g id="line2d_3">
      <g>
       <use xlink:href="#mc3192c46b9" x="313.480995" y="172.81087" style="stroke: #000000; stroke-width: 0.8"/>
      </g>
     </g>
     <g id="text_2">
      <!-- 0.5 -->
      <g transform="translate(305.529433 187.409307) scale(0.1 -0.1)">
       <use xlink:href="#DejaVuSans-30"/>
       <use xlink:href="#DejaVuSans-2e" transform="translate(63.623047 0)"/>
       <use xlink:href="#DejaVuSans-35" transform="translate(95.410156 0)"/>
      </g>
     </g>
    </g>
    <g id="xtick_4">
     <g id="line2d_4">
      <defs>
       <path id="md0743035a9" d="M 0 0 
L 0 2 
" style="stroke: #000000; stroke-width: 0.6"/>
      </defs>
      <g>
       <use xlink:href="#md0743035a9" x="80.848699" y="172.81087" style="stroke: #000000; stroke-width: 0.6"/>
      </g>
     </g>
    </g>
    <g id="xtick_5">
     <g id="line2d_5">
      <g>
       <use xlink:href="#md0743035a9" x="97.465291" y="172.81087" style="stroke: #000000; stroke-width: 0.6"/>
      </g>
     </g>
    </g>
    <g id="xtick_6">
     <g id="line2d_6">
      <g>
       <use xlink:href="#md0743035a9" x="114.081884" y="172.81087" style="stroke: #000000; stroke-width: 0.6"/>
      </g>
     </g>
    </g>
    <g id="xtick_7">
     <g id="line2d_7">
      <g>
       <use xlink:href="#md0743035a9" x="130.698477" y="172.81087" style="stroke: #000000; stroke-width: 0.6"/>
      </g>
     </g>
    </g>
    <g id="xtick_8">
     <g id="line2d_8">
      <g>
       <use xlink:href="#md0743035a9" x="163.931662" y="172.81087" style="stroke: #000000; stroke-width: 0.6"/>
      </g>
     </g>
    </g>
    <g id="xtick_9">
     <g id="line2d_9">
      <g>
       <use xlink:href="#md0743035a9" x="180.548254" y="172.81087" style="stroke: #000000; stroke-width: 0.6"/>
      </g>
     </g>
    </g>
    <g id="xtick_10">
     <g id="line2d_10">
      <g>
       <use xlink:href="#md0743035a9" x="197.164847" y="172.81087" style="stroke: #000000; stroke-width: 0.6"/>
      </g>
     </g>
    </g>
    <g id="xtick_11">
     <g id="line2d_11">
      <g>
       <use xlink:href="#md0743035a9" x="213.78144" y="172.81087" style="stroke: #000000; stroke-width: 0.6"/>
      </g>
     </g>
    </g>
    <g id="xtick_12">
     <g id="line2d_12">
      <g>
       <use xlink:href="#md0743035a9" x="247.014625" y="172.81087" style="stroke: #000000; stroke-width: 0.6"/>
      </g>
     </g>
    </g>
    <g id="xtick_13">
     <g id="line2d_13">
      <g>
       <use xlink:href="#md0743035a9" x="263.631217" y="172.81087" style="stroke: #000000; stroke-width: 0.6"/>
      </g>
     </g>
    </g>
    <g id="xtick_14">
     <g id="line2d_14">
      <g>
       <use xlink:href="#md0743035a9" x="280.24781" y="172.81087" style="stroke: #000000; stroke-width: 0.6"/>
      </g>
     </g>
    </g>
    <g id="xtick_15">
     <g id="line2d_15">
      <g>
       <use xlink:href="#md0743035a9" x="296.864403" y="172.81087" style="stroke: #000000; stroke-width: 0.6"/>
      </g>
     </g>
    </g>
    <g id="xtick_16">
     <g id="line2d_16">
      <g>
       <use xlink:href="#md0743035a9" x="330.097588" y="172.81087" style="stroke: #000000; stroke-width: 0.6"/>
      </g>
     </g>
    </g>
    <g id="xtick_17">
     <g id="line2d_17">
      <g>
       <use xlink:href="#md0743035a9" x="346.71418" y="172.81087" style="stroke: #000000; stroke-width: 0.6"/>
      </g>
     </g>
    </g>
    <g id="xtick_18">
     <g id="line2d_18">
      <g>
       <use xlink:href="#md0743035a9" x="363.330773" y="172.81087" style="stroke: #000000; stroke-width: 0.6"/>
      </g>
     </g>
    </g>
    <g id="xtick_19">
     <g id="line2d_19">
      <g>
       <use xlink:href="#md0743035a9" x="379.947366" y="172.81087" style="stroke: #000000; stroke-width: 0.6"/>
      </g>
     </g>
    </g>
   </g>
   <g id="matplotlib.axis_2">
    <g id="ytick_1">
     <g id="line2d_20">
      <defs>
       <path id="mcd94b686cd" d="M 0 0 
L -3.5 0 
" style="stroke: #000000; stroke-width: 0.8"/>
      </defs>
      <g>
       <use xlink:href="#mcd94b686cd" x="230.398032" y="338.976796" style="stroke: #000000; stroke-width: 0.8"/>
      </g>
     </g>
     <g id="text_3">
      <!-- −1.0 -->
      <g transform="translate(199.11522 342.776014) scale(0.1 -0.1)">
       <defs>
        <path id="DejaVuSans-31" d="M 794 531 
L 1825 531 
L 1825 4091 
L 703 3866 
L 703 4441 
L 1819 4666 
L 2450 4666 
L 2450 531 
L 3481 531 
L 3481 0 
L 794 0 
L 794 531 
z
" transform="scale(0.015625)"/>
       </defs>
       <use xlink:href="#DejaVuSans-2212"/>
       <use xlink:href="#DejaVuSans-31" transform="translate(83.789062 0)"/>
       <use xlink:href="#DejaVuSans-2e" transform="translate(147.412109 0)"/>
       <use xlink:href="#DejaVuSans-30" transform="translate(179.199219 0)"/>
      </g>
     </g>
    </g>
    <g id="ytick_2">
     <g id="line2d_21">
      <g>
       <use xlink:href="#mcd94b686cd" x="230.398032" y="255.893833" style="stroke: #000000; stroke-width: 0.8"/>
      </g>
     </g>
     <g id="text_4">
      <!-- −0.5 -->
      <g transform="translate(199.11522 259.693051) scale(0.1 -0.1)">
       <use xlink:href="#DejaVuSans-2212"/>
       <use xlink:href="#DejaVuSans-30" transform="translate(83.789062 0)"/>
       <use xlink:href="#DejaVuSans-2e" transform="translate(147.412109 0)"/>
       <use xlink:href="#DejaVuSans-35" transform="translate(179.199219 0)"/>
      </g>
     </g>
    </g>
    <g id="ytick_3">
     <g id="line2d_22">
      <g>
       <use xlink:href="#mcd94b686cd" x="230.398032" y="172.81087" style="stroke: #000000; stroke-width: 0.8"/>
      </g>
     </g>
    </g>
    <g id="ytick_4">
     <g id="line2d_23">
      <g>
       <use xlink:href="#mcd94b686cd" x="230.398032" y="89.727907" style="stroke: #000000; stroke-width: 0.8"/>
      </g>
     </g>
     <g id="text_5">
      <!-- 0.5 -->
      <g transform="translate(207.494907 93.527125) scale(0.1 -0.1)">
       <use xlink:href="#DejaVuSans-30"/>
       <use xlink:href="#DejaVuSans-2e" transform="translate(63.623047 0)"/>
       <use xlink:href="#DejaVuSans-35" transform="translate(95.410156 0)"/>
      </g>
     </g>
    </g>
    <g id="ytick_5">
     <g id="line2d_24">
      <g>
       <use xlink:href="#mcd94b686cd" x="230.398032" y="6.644944" style="stroke: #000000; stroke-width: 0.8"/>
      </g>
     </g>
     <g id="text_6">
      <!-- 1.0 -->
      <g transform="translate(207.494907 10.444162) scale(0.1 -0.1)">
       <use xlink:href="#DejaVuSans-31"/>
       <use xlink:href="#DejaVuSans-2e" transform="translate(63.623047 0)"/>
       <use xlink:href="#DejaVuSans-30" transform="translate(95.410156 0)"/>
      </g>
     </g>
    </g>
    <g id="ytick_6">
     <g id="line2d_25">
      <defs>
       <path id="m3640b86fcb" d="M 0 0 
L -2 0 
" style="stroke: #000000; stroke-width: 0.6"/>
      </defs>
      <g>
       <use xlink:href="#m3640b86fcb" x="230.398032" y="322.360203" style="stroke: #000000; stroke-width: 0.6"/>
      </g>
     </g>
    </g>
    <g id="ytick_7">
     <g id="line2d_26">
      <g>
       <use xlink:href="#m3640b86fcb" x="230.398032" y="305.743611" style="stroke: #000000; stroke-width: 0.6"/>
      </g>
     </g>
    </g>
    <g id="ytick_8">
     <g id="line2d_27">
      <g>
       <use xlink:href="#m3640b86fcb" x="230.398032" y="289.127018" style="stroke: #000000; stroke-width: 0.6"/>
      </g>
     </g>
    </g>
    <g id="ytick_9">
     <g id="line2d_28">
      <g>
       <use xlink:href="#m3640b86fcb" x="230.398032" y="272.510425" style="stroke: #000000; stroke-width: 0.6"/>
      </g>
     </g>
    </g>
    <g id="ytick_10">
     <g id="line2d_29">
      <g>
       <use xlink:href="#m3640b86fcb" x="230.398032" y="239.27724" style="stroke: #000000; stroke-width: 0.6"/>
      </g>
     </g>
    </g>
    <g id="ytick_11">
     <g id="line2d_30">
      <g>
       <use xlink:href="#m3640b86fcb" x="230.398032" y="222.660647" style="stroke: #000000; stroke-width: 0.6"/>
      </g>
     </g>
    </g>
    <g id="ytick_12">
     <g id="line2d_31">
      <g>
       <use xlink:href="#m3640b86fcb" x="230.398032" y="206.044055" style="stroke: #000000; stroke-width: 0.6"/>
      </g>
     </g>
    </g>
    <g id="ytick_13">
     <g id="line2d_32">
      <g>
       <use xlink:href="#m3640b86fcb" x="230.398032" y="189.427462" style="stroke: #000000; stroke-width: 0.6"/>
      </g>
     </g>
    </g>
    <g id="ytick_14">
     <g id="line2d_33">
      <g>
       <use xlink:href="#m3640b86fcb" x="230.398032" y="156.194277" style="stroke: #000000; stroke-width: 0.6"/>
      </g>
     </g>
    </g>
    <g id="ytick_15">
     <g id="line2d_34">
      <g>
       <use xlink:href="#m3640b86fcb" x="230.398032" y="139.577684" style="stroke: #000000; stroke-width: 0.6"/>
      </g>
     </g>
    </g>
    <g id="ytick_16">
     <g id="line2d_35">
      <g>
       <use xlink:href="#m3640b86fcb" x="230.398032" y="122.961092" style="stroke: #000000; stroke-width: 0.6"/>
      </g>
     </g>
    </g>
    <g id="ytick_17">
     <g id="line2d_36">
      <g>
       <use xlink:href="#m3640b86fcb" x="230.398032" y="106.344499" style="stroke: #000000; stroke-width: 0.6"/>
      </g>
     </g>
    </g>
    <g id="ytick_18">
     <g id="line2d_37">
      <g>
       <use xlink:href="#m3640b86fcb" x="230.398032" y="73.111314" style="stroke: #000000; stroke-width: 0.6"/>
      </g>
     </g>
    </g>
    <g id="ytick_19">
     <g id="line2d_38">
      <g>
       <use xlink:href="#m3640b86fcb" x="230.398032" y="56.494721" style="stroke: #000000; stroke-width: 0.6"/>
      </g>
     </g>
    </g>
    <g id="ytick_20">
     <g id="line2d_39">
      <g>
       <use xlink:href="#m3640b86fcb" x="230.398032" y="39.878129" style="stroke: #000000; stroke-width: 0.6"/>
      </g>
     </g>
    </g>
    <g id="ytick_21">
     <g id="line2d_40">
      <g>
       <use xlink:href="#m3640b86fcb" x="230.398032" y="23.261536" style="stroke: #000000; stroke-width: 0.6"/>
      </g>
     </g>
    </g>
   </g>
   <g id="line2d_41">
    <path d="M 230.398032 172.81087 
L 233.589996 172.722064 
L 240.96486 172.271289 
L 250.190822 171.411826 
L 260.35894 170.170764 
L 272.065047 168.410603 
L 283.984571 166.278979 
L 296.586974 163.660451 
L 322.631761 157.002411 
L 331.425494 154.330834 
L 339.929672 151.507688 
L 349.619748 147.955481 
L 358.550838 144.290981 
L 364.656538 141.507024 
L 370.177 138.729111 
L 375.055083 135.989314 
L 379.240686 133.320426 
L 381.522792 131.674932 
L 384.807046 128.889571 
L 386.85133 126.628991 
L 387.582007 125.566163 
L 388.116091 124.553075 
L 388.452505 123.593171 
L 388.590679 122.689777 
L 388.530551 121.846085 
L 388.281697 121.084471 
L 387.84593 120.385087 
L 387.224572 119.750455 
L 386.419395 119.182935 
L 385.432607 118.684714 
L 384.266855 118.257797 
L 382.925208 117.903999 
L 381.411156 117.624937 
L 379.189352 117.376006 
L 376.691844 117.258553 
L 373.929306 117.274507 
L 370.913454 117.425142 
L 366.816003 117.802648 
L 362.370923 118.390244 
L 357.606932 119.185897 
L 352.554608 120.185861 
L 343.356339 122.348508 
L 333.581753 125.051196 
L 324.299333 127.947827 
L 314.824155 131.201414 
L 295.858712 138.537551 
L 280.665315 145.172512 
L 271.457347 149.525184 
L 261.790346 154.379588 
L 252.210984 159.505295 
L 244.942366 163.635204 
L 237.454006 168.159497 
L 231.136064 172.29112 
L 230.410373 172.801867 
L 232.345442 171.32222 
L 236.889364 167.631961 
L 242.590683 162.726107 
L 249.705581 156.25879 
L 257.719739 148.560028 
L 263.717681 142.519786 
L 270.193948 135.726359 
L 273.496311 132.150025 
L 280.050316 124.815096 
L 286.578128 117.171157 
L 299.996942 100.192971 
L 304.386644 94.177902 
L 308.528461 88.230903 
L 312.38473 82.402236 
L 315.921057 76.741876 
L 320.518654 68.748997 
L 322.499987 64.981495 
L 324.257455 61.391705 
L 325.783474 57.997603 
L 327.071759 54.816369 
L 328.117339 51.864288 
L 329.272811 47.673908 
L 329.722568 44.991697 
L 329.816041 43.797329 
L 329.795373 42.230944 
L 329.588664 40.887659 
L 329.197933 39.773293 
L 328.625896 38.89285 
L 327.875947 38.250491 
L 326.952139 37.849516 
L 325.859153 37.692342 
L 324.602279 37.780487 
L 323.056708 38.155347 
L 321.453444 38.76687 
L 319.702037 39.629689 
L 317.810263 40.741444 
L 315.78636 42.098797 
L 313.638985 43.697437 
L 311.377174 45.532095 
L 306.548015 49.883676 
L 302.437689 53.982706 
L 298.150314 58.592566 
L 292.922759 64.628464 
L 287.577546 71.23586 
L 280.914113 80.056872 
L 274.304341 89.433406 
L 261.720358 109.059688 
L 256.676228 117.635067 
L 250.476906 128.812559 
L 245.022277 139.326088 
L 241.395647 146.743005 
L 236.923744 156.491967 
L 233.642434 164.232742 
L 231.23706 170.430429 
L 230.400672 172.802785 
L 231.063459 170.584669 
L 232.689576 164.470027 
L 234.14313 158.339321 
L 235.770188 150.700097 
L 237.510458 141.457062 
L 239.255997 130.71552 
L 240.804416 119.348109 
L 241.475988 113.58885 
L 242.336602 105.015202 
L 243.042452 96.259462 
L 243.912117 78.600561 
L 244.048665 67.864469 
L 243.860037 57.499202 
L 243.221907 46.076832 
L 242.406562 37.7677 
L 241.815424 33.308055 
L 241.141223 29.130416 
L 240.388493 25.25612 
L 239.562441 21.704972 
L 238.668899 18.495139 
L 237.714269 15.643054 
L 236.705471 13.163328 
L 235.625869 11.02644 
L 234.505667 9.303426 
L 233.353524 8.003525 
L 232.178377 7.133705 
L 231.081264 6.716631 
L 229.892239 6.684218 
L 228.707124 7.085623 
L 227.535079 7.918709 
L 226.385148 9.179041 
L 225.266186 10.859914 
L 224.186778 12.952383 
L 223.155167 15.445323 
L 222.179178 18.325481 
L 220.777597 23.586475 
L 219.556314 29.693446 
L 218.627701 35.859431 
L 217.876088 42.58331 
L 217.311095 49.793995 
L 216.938965 57.415391 
L 216.751934 66.728835 
L 216.829563 76.359466 
L 217.316681 89.235875 
L 218.067343 100.42413 
L 219.679568 116.751621 
L 221.007345 127.045136 
L 222.873039 139.070325 
L 224.679113 148.954535 
L 226.50905 157.698114 
L 228.575965 166.318047 
L 230.371593 172.728215 
L 230.396746 172.806897 
L 229.604209 170.55396 
L 227.32001 164.643503 
L 224.731876 158.461785 
L 220.360376 148.773672 
L 217.145475 142.086859 
L 213.41973 134.702347 
L 209.272612 126.871988 
L 204.740309 118.720723 
L 199.867485 110.377174 
L 187.353481 90.70204 
L 182.58492 83.8159 
L 177.761624 77.180949 
L 172.931014 70.869687 
L 168.14206 64.950409 
L 163.988608 60.101095 
L 157.544505 53.144961 
L 152.938007 48.650036 
L 150.743213 46.670129 
L 147.900559 44.284494 
L 145.22649 42.253222 
L 141.568391 39.892471 
L 139.388152 38.786942 
L 137.43191 38.061821 
L 135.713128 37.719517 
L 134.244021 37.760203 
L 133.606545 37.92361 
L 132.781386 38.341944 
L 132.106759 38.967973 
L 131.585836 39.798962 
L 131.221303 40.831539 
L 131.015452 42.060519 
L 130.969548 43.48214 
L 131.105077 45.261849 
L 131.436171 47.260609 
L 131.962786 49.469956 
L 132.68407 51.880679 
L 133.598355 54.482861 
L 134.703161 57.265929 
L 137.470351 63.329412 
L 140.374339 68.927269 
L 143.760839 74.880877 
L 147.594581 81.124763 
L 151.834349 87.591288 
L 155.301688 92.615386 
L 158.954322 97.697782 
L 166.717526 107.915555 
L 171.369179 113.719352 
L 177.953137 121.588417 
L 184.613646 129.182934 
L 194.487526 139.836384 
L 203.027174 148.511497 
L 211.379938 156.528805 
L 218.566172 163.044286 
L 225.390405 168.861822 
L 230.38262 172.799622 
L 228.50283 171.501132 
L 222.519926 167.646706 
L 215.694094 163.541996 
L 207.594551 158.959479 
L 198.004478 153.862592 
L 189.54754 149.626895 
L 178.986428 144.649322 
L 173.448186 142.171518 
L 136.27676 127.875752 
L 128.843495 125.537518 
L 118.491664 122.62067 
L 108.756436 120.295849 
L 100.140868 118.658699 
L 96.169163 118.071365 
L 92.447417 117.640914 
L 88.993708 117.368189 
L 85.824918 117.253086 
L 82.95664 117.294568 
L 80.4031 117.490695 
L 77.22542 118.059287 
L 75.917381 118.464704 
L 74.073338 119.374288 
L 72.971809 120.35798 
L 72.600588 120.913361 
L 72.350086 121.509388 
L 72.220835 122.144695 
L 72.213179 122.817855 
L 72.54956 124.236784 
L 73.325526 125.745137 
L 74.540178 127.363276 
L 76.187515 129.079209 
L 78.833562 131.336171 
L 82.839026 134.179351 
L 87.099476 136.785537 
L 91.314354 139.095477 
L 93.591829 140.26058 
L 98.46609 142.59912 
L 107.616328 146.545334 
L 115.839505 149.71372 
L 120.15286 151.259043 
L 129.10551 154.246556 
L 138.384425 157.066306 
L 155.336976 161.587948 
L 163.797589 163.568571 
L 176.890497 166.294211 
L 186.33117 168.008501 
L 195.388748 169.453303 
L 203.811726 170.613804 
L 214.782961 171.835599 
L 223.081684 172.501201 
L 230.047012 172.807642 
L 230.397031 172.81087 
L 227.474155 172.888702 
L 221.364666 173.236582 
L 212.123945 174.049656 
L 204.436735 174.929189 
L 193.959083 176.38321 
L 187.330857 177.444065 
L 180.367969 178.671614 
L 172.667138 180.162396 
L 159.819288 182.962597 
L 146.746014 186.229214 
L 131.453527 190.636492 
L 124.061417 193.023729 
L 116.933743 195.50894 
L 107.307681 199.201655 
L 98.552964 202.982627 
L 94.556293 204.882661 
L 90.839621 206.775838 
L 87.420838 208.651939 
L 82.051734 211.964264 
L 80.008125 213.397778 
L 77.731348 215.174273 
L 75.835527 216.88145 
L 74.32981 218.508215 
L 73.22127 220.043754 
L 72.61638 221.217355 
L 72.278827 222.318379 
L 72.209321 223.341647 
L 72.407644 224.282232 
L 72.872653 225.135478 
L 73.602289 225.897037 
L 74.593584 226.562882 
L 76.790353 227.442582 
L 79.000208 227.935755 
L 81.980792 228.272928 
L 85.880511 228.367955 
L 90.356732 228.162289 
L 95.367224 227.653701 
L 101.890126 226.668026 
L 110.125417 225.026721 
L 119.006191 222.866227 
L 128.384256 220.22229 
L 133.211551 218.733366 
L 143.605895 215.259513 
L 154.105679 211.404731 
L 166.294979 206.518567 
L 174.421684 203.021168 
L 182.266078 199.46257 
L 193.316412 194.135614 
L 202.480474 189.421217 
L 210.203166 185.216442 
L 218.667354 180.322758 
L 225.610523 176.022253 
L 230.397956 172.810925 
L 228.360167 174.3705 
L 224.065605 177.857044 
L 217.699057 183.343813 
L 210.159315 190.235439 
L 204.21563 195.941267 
L 197.834582 202.32725 
L 191.146882 209.312825 
L 185.532207 215.418176 
L 179.230663 222.549404 
L 172.977403 229.944604 
L 161.004835 245.153297 
L 156.368141 251.501721 
L 149.185505 262.023456 
L 144.050702 270.252638 
L 139.673188 277.99582 
L 137.793356 281.639416 
L 136.130512 285.10765 
L 133.79178 290.628681 
L 132.448242 294.481899 
L 131.589066 297.651798 
L 131.096273 300.43225 
L 130.970284 302.801225 
L 131.044204 303.825278 
L 131.29034 305.042527 
L 131.70247 306.051338 
L 132.278117 306.847568 
L 133.014251 307.42777 
L 133.907309 307.789203 
L 134.953212 307.929854 
L 136.147387 307.848445 
L 137.484787 307.544443 
L 138.715843 307.116821 
L 141.455789 305.792671 
L 144.540628 303.851364 
L 147.937279 301.307832 
L 149.741529 299.816528 
L 152.505609 297.370586 
L 155.39357 294.629513 
L 158.389938 291.606296 
L 161.478923 288.315475 
L 165.272292 284.051068 
L 169.147614 279.456975 
L 173.077268 274.565931 
L 177.033845 269.413124 
L 181.884005 262.790594 
L 190.394395 250.35663 
L 198.494352 237.522843 
L 203.357016 229.311877 
L 210.049117 217.312114 
L 214.047271 209.700268 
L 218.55539 200.641633 
L 222.725842 191.703999 
L 225.708373 184.875697 
L 228.855148 177.072742 
L 230.39763 172.812104 
L 229.759992 174.941447 
L 228.267137 180.512093 
L 226.694526 187.098252 
L 224.910308 195.498495 
L 223.218488 204.547299 
L 221.565364 214.737199 
L 220.552384 221.897697 
L 219.619488 229.385111 
L 218.788392 237.129645 
L 218.078503 245.058643 
L 216.970893 264.203007 
L 216.761721 273.686633 
L 216.799576 282.94023 
L 216.995888 289.71296 
L 217.2934 295.545131 
L 217.70485 301.136704 
L 218.227647 306.452868 
L 219.330664 314.58141 
L 220.403283 320.345445 
L 221.632235 325.420755 
L 222.998964 329.751977 
L 224.456065 333.23788 
L 225.976253 335.882657 
L 226.762301 336.906253 
L 227.561811 337.727004 
L 228.371828 338.342812 
L 229.189355 338.752108 
L 230.011363 338.953846 
L 231.167563 338.885838 
L 232.318136 338.407835 
L 233.454675 337.522244 
L 234.568889 336.233521 
L 235.453589 334.891571 
L 236.313874 333.291338 
L 237.145622 331.438154 
L 237.944872 329.338191 
L 239.430923 324.426691 
L 240.744238 318.622146 
L 241.47689 314.510564 
L 242.373382 308.130217 
L 243.086053 301.196876 
L 243.370482 297.546048 
L 243.791517 289.925341 
L 244.01966 281.46379 
L 244.023897 272.704184 
L 242.468813 242.092732 
L 240.812352 226.338108 
L 239.48415 216.451577 
L 238.042045 207.255903 
L 236.558207 198.954288 
L 234.396885 188.417554 
L 232.31222 179.661216 
L 230.632717 173.568657 
L 230.398073 172.810995 
L 231.156231 174.970156 
L 233.23462 180.378299 
L 236.808845 188.868528 
L 241.389052 198.864887 
L 245.896958 208.029944 
L 249.30691 214.611987 
L 256.195271 227.145741 
L 259.535232 232.900691 
L 266.631368 244.508556 
L 276.305026 259.092382 
L 281.283919 266.07107 
L 288.343097 275.358228 
L 294.192415 282.49913 
L 299.879651 288.927276 
L 305.312436 294.541218 
L 310.399857 299.254096 
L 313.747591 302.008681 
L 316.848017 304.254664 
L 319.672929 305.976256 
L 322.195975 307.162142 
L 323.683266 307.647703 
L 325.022219 307.896231 
L 326.048314 307.920504 
L 326.957425 307.770756 
L 327.746418 307.447939 
L 328.412465 306.953462 
L 328.953053 306.289175 
L 329.365999 305.45737 
L 329.649453 304.460767 
L 329.801914 303.302505 
L 329.815887 301.820878 
L 329.663701 300.147253 
L 329.344855 298.287762 
L 328.859431 296.249107 
L 328.208099 294.03853 
L 326.413331 289.133114 
L 324.13206 283.964143 
L 321.092469 277.938799 
L 316.993958 270.671173 
L 312.222155 262.967166 
L 306.854653 254.952298 
L 303.975183 250.868292 
L 299.373128 244.595072 
L 294.552319 238.309761 
L 284.454391 225.924421 
L 275.509298 215.690276 
L 266.038048 205.503081 
L 257.126295 196.477022 
L 249.097843 188.796686 
L 241.868923 182.260109 
L 235.962369 177.218847 
L 230.762637 173.081643 
L 230.398449 172.811172 
L 232.240845 174.085293 
L 236.838589 177.075362 
L 243.279938 181.008328 
L 250.147241 184.966694 
L 258.286875 189.405993 
L 269.277081 195.027901 
L 281.509972 200.835783 
L 292.698285 205.759228 
L 314.652781 214.358866 
L 325.639868 218.110635 
L 336.340234 221.371435 
L 345.932431 223.919224 
L 354.906387 225.919718 
L 362.787087 227.293324 
L 369.812187 228.112897 
L 374.327886 228.357468 
L 378.281443 228.305472 
L 381.6358 227.961898 
L 384.359107 227.33486 
L 385.513778 226.901704 
L 386.488577 226.397114 
L 387.280877 225.823122 
L 387.88849 225.181942 
L 388.30967 224.47596 
L 388.543124 223.707727 
L 388.588014 222.879943 
L 388.443958 221.995454 
L 388.136708 221.115857 
L 387.66333 220.191436 
L 387.024621 219.224835 
L 385.376235 217.298557 
L 383.308983 215.380002 
L 380.07475 212.883153 
L 377.803612 211.342391 
L 372.527409 208.172787 
L 366.335833 204.929946 
L 359.316654 201.666 
L 352.647347 198.861517 
L 345.504396 196.109686 
L 337.965093 193.439238 
L 330.111313 190.876408 
L 316.355486 186.851356 
L 302.375548 183.291539 
L 290.308459 180.609696 
L 282.82315 179.120315 
L 270.675765 176.984668 
L 261.426688 175.597328 
L 253.118463 174.53794 
L 242.773907 173.496282 
L 235.128717 172.971386 
L 230.398032 172.81087 
L 230.398032 172.81087 
" clip-path="url(#peae50a07f5)" style="fill: none; stroke: #0000ff; stroke-linecap: square"/>
   </g>
   <g id="patch_3">
    <path d="M 230.398032 345.6 
L 230.398032 0 
" style="fill: none; stroke: #000000; stroke-width: 0.8; stroke-linejoin: miter; stroke-linecap: square"/>
   </g>
   <g id="patch_4">
    <path d="M 65.881693 172.81087 
L 394.918307 172.81087 
" style="fill: none; stroke: #000000; stroke-width: 0.8; stroke-linejoin: miter; stroke-linecap: square"/>
   </g>
  </g>
 </g>
 <defs>
  <clipPath id="peae50a07f5">
   <rect x="65.881693" y="0" width="329.036613" height="345.6"/>
  </clipPath>
 </defs>
</svg>
