<?xml version="1.0" encoding="utf-8" standalone="no"?>
<!DOCTYPE svg PUBLIC "-//W3C//DTD SVG 1.1//EN"
  "http://www.w3.org/Graphics/SVG/1.1/DTD/svg11.dtd">
<svg xmlns:xlink="http://www.w3.org/1999/xlink" width="460.8pt" height="345.6pt" viewBox="0 0 460.8 345.6" xmlns="http://www.w3.org/2000/svg" version="1.1">
 <metadata>
  <rdf:RDF xmlns:dc="http://purl.org/dc/elements/1.1/" xmlns:cc="http://creativecommons.org/ns#" xmlns:rdf="http://www.w3.org/1999/02/22-rdf-syntax-ns#">
   <cc:Work>
    <dc:type rdf:resource="http://purl.org/dc/dcmitype/StillImage"/>
    <dc:date>2025-08-02T16:01:29.898008</dc:date>
    <dc:format>image/svg+xml</dc:format>
    <dc:creator>
     <cc:Agent>
      <dc:title>Matplotlib v3.10.3, https://matplotlib.org/</dc:title>
     </cc:Agent>
    </dc:creator>
   </cc:Work>
  </rdf:RDF>
 </metadata>
 <defs>
  <style type="text/css">*{stroke-linejoin: round; stroke-linecap: butt}</style>
 </defs>
 <g id="figure_1">
  <g id="patch_1">
   <path d="M 0 345.6 
L 460.8 345.6 
L 460.8 0 
L 0 0 
z
" style="fill: #ffffff"/>
  </g>
  <g id="axes_1">
   <g id="patch_2">
    <path d="M 65.880193 345.6 
L 394.919807 345.6 
L 394.919807 0 
L 65.880193 0 
z
" style="fill: #ffffff"/>
   </g>
   <g id="matplotlib.axis_1">
    <g id="xtick_1">
     <g id="line2d_1">
      <defs>
       <path id="m49440c72ca" d="M 0 0 
L 0 3.5 
" style="stroke: #000000; stroke-width: 0.8"/>
      </defs>
      <g>
       <use xlink:href="#m49440c72ca" x="147.318104" y="172.804138" style="stroke: #000000; stroke-width: 0.8"/>
      </g>
     </g>
     <g id="text_1">
      <!-- −0.5 -->
      <g transform="translate(135.176697 187.402575) scale(0.1 -0.1)">
       <defs>
        <path id="DejaVuSans-2212" d="M 678 2272 
L 4684 2272 
L 4684 1741 
L 678 1741 
L 678 2272 
z
" transform="scale(0.015625)"/>
        <path id="DejaVuSans-30" d="M 2034 4250 
Q 1547 4250 1301 3770 
Q 1056 3291 1056 2328 
Q 1056 1369 1301 889 
Q 1547 409 2034 409 
Q 2525 409 2770 889 
Q 3016 1369 3016 2328 
Q 3016 3291 2770 3770 
Q 2525 4250 2034 4250 
z
M 2034 4750 
Q 2819 4750 3233 4129 
Q 3647 3509 3647 2328 
Q 3647 1150 3233 529 
Q 2819 -91 2034 -91 
Q 1250 -91 836 529 
Q 422 1150 422 2328 
Q 422 3509 836 4129 
Q 1250 4750 2034 4750 
z
" transform="scale(0.015625)"/>
        <path id="DejaVuSans-2e" d="M 684 794 
L 1344 794 
L 1344 0 
L 684 0 
L 684 794 
z
" transform="scale(0.015625)"/>
        <path id="DejaVuSans-35" d="M 691 4666 
L 3169 4666 
L 3169 4134 
L 1269 4134 
L 1269 2991 
Q 1406 3038 1543 3061 
Q 1681 3084 1819 3084 
Q 2600 3084 3056 2656 
Q 3513 2228 3513 1497 
Q 3513 744 3044 326 
Q 2575 -91 1722 -91 
Q 1428 -91 1123 -41 
Q 819 9 494 109 
L 494 744 
Q 775 591 1075 516 
Q 1375 441 1709 441 
Q 2250 441 2565 725 
Q 2881 1009 2881 1497 
Q 2881 1984 2565 2268 
Q 2250 2553 1709 2553 
Q 1456 2553 1204 2497 
Q 953 2441 691 2322 
L 691 4666 
z
" transform="scale(0.015625)"/>
       </defs>
       <use xlink:href="#DejaVuSans-2212"/>
       <use xlink:href="#DejaVuSans-30" transform="translate(83.789062 0)"/>
       <use xlink:href="#DejaVuSans-2e" transform="translate(147.412109 0)"/>
       <use xlink:href="#DejaVuSans-35" transform="translate(179.199219 0)"/>
      </g>
     </g>
    </g>
    <g id="xtick_2">
     <g id="line2d_2">
      <g>
       <use xlink:href="#m49440c72ca" x="230.399309" y="172.804138" style="stroke: #000000; stroke-width: 0.8"/>
      </g>
     </g>
    </g>
    <g id="xtick_3">
     <g id="line2d_3">
      <g>
       <use xlink:href="#m49440c72ca" x="313.480514" y="172.804138" style="stroke: #000000; stroke-width: 0.8"/>
      </g>
     </g>
     <g id="text_2">
      <!-- 0.5 -->
      <g transform="translate(305.528952 187.402575) scale(0.1 -0.1)">
       <use xlink:href="#DejaVuSans-30"/>
       <use xlink:href="#DejaVuSans-2e" transform="translate(63.623047 0)"/>
       <use xlink:href="#DejaVuSans-35" transform="translate(95.410156 0)"/>
      </g>
     </g>
    </g>
    <g id="xtick_4">
     <g id="line2d_4">
      <defs>
       <path id="mbfb459ffe1" d="M 0 0 
L 0 2 
" style="stroke: #000000; stroke-width: 0.6"/>
      </defs>
      <g>
       <use xlink:href="#mbfb459ffe1" x="80.853139" y="172.804138" style="stroke: #000000; stroke-width: 0.6"/>
      </g>
     </g>
    </g>
    <g id="xtick_5">
     <g id="line2d_5">
      <g>
       <use xlink:href="#mbfb459ffe1" x="97.46938" y="172.804138" style="stroke: #000000; stroke-width: 0.6"/>
      </g>
     </g>
    </g>
    <g id="xtick_6">
     <g id="line2d_6">
      <g>
       <use xlink:href="#mbfb459ffe1" x="114.085621" y="172.804138" style="stroke: #000000; stroke-width: 0.6"/>
      </g>
     </g>
    </g>
    <g id="xtick_7">
     <g id="line2d_7">
      <g>
       <use xlink:href="#mbfb459ffe1" x="130.701863" y="172.804138" style="stroke: #000000; stroke-width: 0.6"/>
      </g>
     </g>
    </g>
    <g id="xtick_8">
     <g id="line2d_8">
      <g>
       <use xlink:href="#mbfb459ffe1" x="163.934345" y="172.804138" style="stroke: #000000; stroke-width: 0.6"/>
      </g>
     </g>
    </g>
    <g id="xtick_9">
     <g id="line2d_9">
      <g>
       <use xlink:href="#mbfb459ffe1" x="180.550586" y="172.804138" style="stroke: #000000; stroke-width: 0.6"/>
      </g>
     </g>
    </g>
    <g id="xtick_10">
     <g id="line2d_10">
      <g>
       <use xlink:href="#mbfb459ffe1" x="197.166827" y="172.804138" style="stroke: #000000; stroke-width: 0.6"/>
      </g>
     </g>
    </g>
    <g id="xtick_11">
     <g id="line2d_11">
      <g>
       <use xlink:href="#mbfb459ffe1" x="213.783068" y="172.804138" style="stroke: #000000; stroke-width: 0.6"/>
      </g>
     </g>
    </g>
    <g id="xtick_12">
     <g id="line2d_12">
      <g>
       <use xlink:href="#mbfb459ffe1" x="247.01555" y="172.804138" style="stroke: #000000; stroke-width: 0.6"/>
      </g>
     </g>
    </g>
    <g id="xtick_13">
     <g id="line2d_13">
      <g>
       <use xlink:href="#mbfb459ffe1" x="263.631791" y="172.804138" style="stroke: #000000; stroke-width: 0.6"/>
      </g>
     </g>
    </g>
    <g id="xtick_14">
     <g id="line2d_14">
      <g>
       <use xlink:href="#mbfb459ffe1" x="280.248032" y="172.804138" style="stroke: #000000; stroke-width: 0.6"/>
      </g>
     </g>
    </g>
    <g id="xtick_15">
     <g id="line2d_15">
      <g>
       <use xlink:href="#mbfb459ffe1" x="296.864273" y="172.804138" style="stroke: #000000; stroke-width: 0.6"/>
      </g>
     </g>
    </g>
    <g id="xtick_16">
     <g id="line2d_16">
      <g>
       <use xlink:href="#mbfb459ffe1" x="330.096756" y="172.804138" style="stroke: #000000; stroke-width: 0.6"/>
      </g>
     </g>
    </g>
    <g id="xtick_17">
     <g id="line2d_17">
      <g>
       <use xlink:href="#mbfb459ffe1" x="346.712997" y="172.804138" style="stroke: #000000; stroke-width: 0.6"/>
      </g>
     </g>
    </g>
    <g id="xtick_18">
     <g id="line2d_18">
      <g>
       <use xlink:href="#mbfb459ffe1" x="363.329238" y="172.804138" style="stroke: #000000; stroke-width: 0.6"/>
      </g>
     </g>
    </g>
    <g id="xtick_19">
     <g id="line2d_19">
      <g>
       <use xlink:href="#mbfb459ffe1" x="379.945479" y="172.804138" style="stroke: #000000; stroke-width: 0.6"/>
      </g>
     </g>
    </g>
   </g>
   <g id="matplotlib.axis_2">
    <g id="ytick_1">
     <g id="line2d_20">
      <defs>
       <path id="m7e3035b942" d="M 0 0 
L -3.5 0 
" style="stroke: #000000; stroke-width: 0.8"/>
      </defs>
      <g>
       <use xlink:href="#m7e3035b942" x="230.399309" y="338.966549" style="stroke: #000000; stroke-width: 0.8"/>
      </g>
     </g>
     <g id="text_3">
      <!-- −1.0 -->
      <g transform="translate(199.116497 342.765767) scale(0.1 -0.1)">
       <defs>
        <path id="DejaVuSans-31" d="M 794 531 
L 1825 531 
L 1825 4091 
L 703 3866 
L 703 4441 
L 1819 4666 
L 2450 4666 
L 2450 531 
L 3481 531 
L 3481 0 
L 794 0 
L 794 531 
z
" transform="scale(0.015625)"/>
       </defs>
       <use xlink:href="#DejaVuSans-2212"/>
       <use xlink:href="#DejaVuSans-31" transform="translate(83.789062 0)"/>
       <use xlink:href="#DejaVuSans-2e" transform="translate(147.412109 0)"/>
       <use xlink:href="#DejaVuSans-30" transform="translate(179.199219 0)"/>
      </g>
     </g>
    </g>
    <g id="ytick_2">
     <g id="line2d_21">
      <g>
       <use xlink:href="#m7e3035b942" x="230.399309" y="255.885343" style="stroke: #000000; stroke-width: 0.8"/>
      </g>
     </g>
     <g id="text_4">
      <!-- −0.5 -->
      <g transform="translate(199.116497 259.684562) scale(0.1 -0.1)">
       <use xlink:href="#DejaVuSans-2212"/>
       <use xlink:href="#DejaVuSans-30" transform="translate(83.789062 0)"/>
       <use xlink:href="#DejaVuSans-2e" transform="translate(147.412109 0)"/>
       <use xlink:href="#DejaVuSans-35" transform="translate(179.199219 0)"/>
      </g>
     </g>
    </g>
    <g id="ytick_3">
     <g id="line2d_22">
      <g>
       <use xlink:href="#m7e3035b942" x="230.399309" y="172.804138" style="stroke: #000000; stroke-width: 0.8"/>
      </g>
     </g>
    </g>
    <g id="ytick_4">
     <g id="line2d_23">
      <g>
       <use xlink:href="#m7e3035b942" x="230.399309" y="89.722932" style="stroke: #000000; stroke-width: 0.8"/>
      </g>
     </g>
     <g id="text_5">
      <!-- 0.5 -->
      <g transform="translate(207.496184 93.522151) scale(0.1 -0.1)">
       <use xlink:href="#DejaVuSans-30"/>
       <use xlink:href="#DejaVuSans-2e" transform="translate(63.623047 0)"/>
       <use xlink:href="#DejaVuSans-35" transform="translate(95.410156 0)"/>
      </g>
     </g>
    </g>
    <g id="ytick_5">
     <g id="line2d_24">
      <g>
       <use xlink:href="#m7e3035b942" x="230.399309" y="6.641727" style="stroke: #000000; stroke-width: 0.8"/>
      </g>
     </g>
     <g id="text_6">
      <!-- 1.0 -->
      <g transform="translate(207.496184 10.440946) scale(0.1 -0.1)">
       <use xlink:href="#DejaVuSans-31"/>
       <use xlink:href="#DejaVuSans-2e" transform="translate(63.623047 0)"/>
       <use xlink:href="#DejaVuSans-30" transform="translate(95.410156 0)"/>
      </g>
     </g>
    </g>
    <g id="ytick_6">
     <g id="line2d_25">
      <defs>
       <path id="md3325a1348" d="M 0 0 
L -2 0 
" style="stroke: #000000; stroke-width: 0.6"/>
      </defs>
      <g>
       <use xlink:href="#md3325a1348" x="230.399309" y="322.350307" style="stroke: #000000; stroke-width: 0.6"/>
      </g>
     </g>
    </g>
    <g id="ytick_7">
     <g id="line2d_26">
      <g>
       <use xlink:href="#md3325a1348" x="230.399309" y="305.734066" style="stroke: #000000; stroke-width: 0.6"/>
      </g>
     </g>
    </g>
    <g id="ytick_8">
     <g id="line2d_27">
      <g>
       <use xlink:href="#md3325a1348" x="230.399309" y="289.117825" style="stroke: #000000; stroke-width: 0.6"/>
      </g>
     </g>
    </g>
    <g id="ytick_9">
     <g id="line2d_28">
      <g>
       <use xlink:href="#md3325a1348" x="230.399309" y="272.501584" style="stroke: #000000; stroke-width: 0.6"/>
      </g>
     </g>
    </g>
    <g id="ytick_10">
     <g id="line2d_29">
      <g>
       <use xlink:href="#md3325a1348" x="230.399309" y="239.269102" style="stroke: #000000; stroke-width: 0.6"/>
      </g>
     </g>
    </g>
    <g id="ytick_11">
     <g id="line2d_30">
      <g>
       <use xlink:href="#md3325a1348" x="230.399309" y="222.652861" style="stroke: #000000; stroke-width: 0.6"/>
      </g>
     </g>
    </g>
    <g id="ytick_12">
     <g id="line2d_31">
      <g>
       <use xlink:href="#md3325a1348" x="230.399309" y="206.03662" style="stroke: #000000; stroke-width: 0.6"/>
      </g>
     </g>
    </g>
    <g id="ytick_13">
     <g id="line2d_32">
      <g>
       <use xlink:href="#md3325a1348" x="230.399309" y="189.420379" style="stroke: #000000; stroke-width: 0.6"/>
      </g>
     </g>
    </g>
    <g id="ytick_14">
     <g id="line2d_33">
      <g>
       <use xlink:href="#md3325a1348" x="230.399309" y="156.187897" style="stroke: #000000; stroke-width: 0.6"/>
      </g>
     </g>
    </g>
    <g id="ytick_15">
     <g id="line2d_34">
      <g>
       <use xlink:href="#md3325a1348" x="230.399309" y="139.571656" style="stroke: #000000; stroke-width: 0.6"/>
      </g>
     </g>
    </g>
    <g id="ytick_16">
     <g id="line2d_35">
      <g>
       <use xlink:href="#md3325a1348" x="230.399309" y="122.955414" style="stroke: #000000; stroke-width: 0.6"/>
      </g>
     </g>
    </g>
    <g id="ytick_17">
     <g id="line2d_36">
      <g>
       <use xlink:href="#md3325a1348" x="230.399309" y="106.339173" style="stroke: #000000; stroke-width: 0.6"/>
      </g>
     </g>
    </g>
    <g id="ytick_18">
     <g id="line2d_37">
      <g>
       <use xlink:href="#md3325a1348" x="230.399309" y="73.106691" style="stroke: #000000; stroke-width: 0.6"/>
      </g>
     </g>
    </g>
    <g id="ytick_19">
     <g id="line2d_38">
      <g>
       <use xlink:href="#md3325a1348" x="230.399309" y="56.49045" style="stroke: #000000; stroke-width: 0.6"/>
      </g>
     </g>
    </g>
    <g id="ytick_20">
     <g id="line2d_39">
      <g>
       <use xlink:href="#md3325a1348" x="230.399309" y="39.874209" style="stroke: #000000; stroke-width: 0.6"/>
      </g>
     </g>
    </g>
    <g id="ytick_21">
     <g id="line2d_40">
      <g>
       <use xlink:href="#md3325a1348" x="230.399309" y="23.257968" style="stroke: #000000; stroke-width: 0.6"/>
      </g>
     </g>
    </g>
   </g>
   <g id="line2d_41">
    <path d="M 230.399309 172.804138 
L 233.882977 172.702849 
L 240.816485 172.276068 
L 246.352352 171.796602 
L 254.523943 170.911078 
L 264.028794 169.649007 
L 273.644957 168.140859 
L 283.97869 166.273548 
L 293.175463 164.399953 
L 302.605756 162.269033 
L 327.060382 155.67995 
L 333.158042 153.769172 
L 339.102582 151.786879 
L 344.856206 149.743862 
L 354.468451 146.012334 
L 362.1112 142.692941 
L 368.954193 139.363105 
L 374.895831 136.077155 
L 379.425812 133.185825 
L 382.750543 130.699658 
L 385.3493 128.342977 
L 386.368653 127.222396 
L 387.198116 126.145106 
L 387.835883 125.1146 
L 388.377481 123.846579 
L 388.589166 122.671148 
L 388.461599 121.563087 
L 387.984044 120.56798 
L 387.159343 119.692439 
L 385.991901 118.94252 
L 384.487656 118.323675 
L 382.654045 117.840708 
L 380.499965 117.497741 
L 376.404528 117.248269 
L 372.827702 117.309515 
L 370.888144 117.421227 
L 366.723095 117.807427 
L 362.200318 118.41016 
L 353.978281 119.883395 
L 346.856038 121.47229 
L 343.139705 122.398216 
L 335.449833 124.499691 
L 327.490274 126.912246 
L 319.528171 129.544224 
L 311.479103 132.4113 
L 295.460467 138.696865 
L 284.0363 143.636277 
L 273.224076 148.664025 
L 262.423714 154.046126 
L 252.831293 159.157033 
L 244.75576 163.738364 
L 236.592128 168.696152 
L 231.080734 172.323666 
L 230.406054 172.799223 
L 232.131533 171.483828 
L 236.634567 167.839009 
L 241.986676 163.252594 
L 248.994322 156.915683 
L 254.811239 151.397846 
L 263.239528 143.004579 
L 268.779047 137.229636 
L 274.44947 131.097755 
L 280.17422 124.667802 
L 285.644419 118.281177 
L 297.341933 103.702469 
L 302.824122 96.344671 
L 307.958668 89.061226 
L 313.759847 80.236152 
L 318.795519 71.842541 
L 322.51321 64.949691 
L 325.506528 58.632353 
L 326.842528 55.405141 
L 327.936109 52.40456 
L 328.783358 49.64616 
L 329.381696 47.144432 
L 329.729873 44.912717 
L 329.827961 42.963128 
L 329.677336 41.30648 
L 329.280653 39.952215 
L 328.749316 39.040258 
L 328.044102 38.35935 
L 327.168779 37.912828 
L 326.127716 37.703194 
L 324.645474 37.769798 
L 322.935454 38.190421 
L 321.088317 38.927417 
L 319.05198 39.988376 
L 316.838052 41.369426 
L 314.458886 43.065068 
L 311.748647 45.216637 
L 308.881228 47.708612 
L 305.873896 50.528295 
L 302.744447 53.661021 
L 299.511078 57.090231 
L 296.192269 60.797557 
L 292.806657 64.762911 
L 286.358188 72.797754 
L 283.333214 76.776372 
L 277.300185 85.101754 
L 272.745364 91.731876 
L 262.610516 107.586409 
L 257.880282 115.54374 
L 253.439768 123.37252 
L 247.345798 134.757302 
L 242.125069 145.215955 
L 238.63807 152.659467 
L 234.902064 161.182694 
L 232.066608 168.216732 
L 230.40088 172.799283 
L 230.924158 171.065742 
L 232.571182 164.940458 
L 234.23776 157.917251 
L 235.724647 150.925581 
L 237.271115 142.804509 
L 239.034036 132.184702 
L 240.661526 120.499065 
L 241.594002 112.508948 
L 242.403712 104.274104 
L 243.574209 87.413589 
L 243.921398 78.286549 
L 244.050012 69.290788 
L 244.001829 62.924284 
L 243.833172 56.725801 
L 243.543946 50.735517 
L 242.711685 40.478712 
L 241.636307 32.107967 
L 240.27789 24.734049 
L 239.502316 21.462388 
L 238.668677 18.487332 
L 237.228877 14.380858 
L 236.076559 11.852698 
L 234.872004 9.809956 
L 233.62623 8.265615 
L 232.99145 7.683539 
L 232.189223 7.135793 
L 231.380528 6.789696 
L 230.229469 6.646154 
L 229.079643 6.909694 
L 227.939384 7.579 
L 226.816954 8.650732 
L 225.720466 10.119538 
L 224.657824 11.978088 
L 223.636656 14.217111 
L 222.664253 16.825439 
L 221.724215 19.87268 
L 220.849744 23.279206 
L 220.047219 27.027153 
L 219.322395 31.096885 
L 218.678623 35.480091 
L 218.122489 40.14245 
L 217.6576 45.059462 
L 217.286745 50.205321 
L 216.961944 56.819506 
L 216.784554 63.687506 
L 216.754318 70.754898 
L 216.868887 77.965804 
L 217.661202 94.890685 
L 218.453207 104.923939 
L 220.010533 119.483525 
L 221.239312 128.654279 
L 222.604329 137.454503 
L 224.057779 145.698179 
L 226.137642 156.000565 
L 227.861935 163.46997 
L 229.678274 170.382918 
L 230.391725 172.780986 
L 229.790597 171.057268 
L 227.341622 164.687134 
L 224.425844 157.746664 
L 220.290673 148.615789 
L 216.92625 141.632917 
L 213.097374 134.070695 
L 207.110119 122.924197 
L 200.404049 111.26727 
L 183.727649 85.428291 
L 179.252757 79.188807 
L 174.758734 73.2102 
L 170.284567 67.548592 
L 165.870126 62.25662 
L 162.454408 58.372734 
L 159.120893 54.771568 
L 155.889324 51.473316 
L 150.518451 46.467221 
L 148.346231 44.63761 
L 145.896969 42.734795 
L 143.595735 41.1277 
L 141.454627 39.822729 
L 139.485118 38.824809 
L 137.957434 38.221746 
L 136.567067 37.843237 
L 135.31974 37.689757 
L 134.220732 37.761009 
L 133.274844 38.055933 
L 132.486381 38.572711 
L 131.859124 39.308782 
L 131.396318 40.260854 
L 131.134616 41.235077 
L 130.994556 42.359087 
L 130.977149 43.629694 
L 131.083095 45.043367 
L 131.66626 48.284156 
L 132.743275 52.046843 
L 134.263385 56.180981 
L 136.237113 60.733785 
L 138.442949 65.258972 
L 141.00558 70.065982 
L 143.90658 75.116824 
L 149.476011 84.034111 
L 151.953843 87.758783 
L 157.251594 95.344174 
L 162.582381 102.554479 
L 168.186055 109.762713 
L 179.903871 123.840579 
L 185.441864 130.095162 
L 190.940394 136.080134 
L 198.962761 144.435078 
L 205.750078 151.167954 
L 212.886432 157.916935 
L 218.555973 163.027434 
L 224.962931 168.501917 
L 230.071549 172.561004 
L 230.395562 172.80141 
L 228.770847 171.674601 
L 224.159328 168.666324 
L 216.883802 164.232261 
L 209.108126 159.787656 
L 199.827439 154.799081 
L 192.908775 151.275555 
L 186.622326 148.207122 
L 180.02402 145.11633 
L 172.709227 141.840505 
L 165.170047 138.627006 
L 149.70851 132.554915 
L 141.238827 129.533362 
L 132.865794 126.772195 
L 119.978713 123.006777 
L 111.856885 120.980585 
L 104.240901 119.375333 
L 97.303858 118.22055 
L 91.120472 117.514273 
L 85.526631 117.244642 
L 82.98329 117.288039 
L 80.689808 117.454263 
L 78.655295 117.741356 
L 76.887909 118.146821 
L 75.394823 118.667648 
L 74.182188 119.300331 
L 73.255109 120.040897 
L 72.692141 120.756052 
L 72.342631 121.543805 
L 72.207878 122.400954 
L 72.288588 123.324104 
L 72.607161 124.365026 
L 73.164792 125.470979 
L 73.960139 126.637407 
L 75.843641 128.737986 
L 77.880335 130.561699 
L 79.061714 131.503654 
L 81.742309 133.439218 
L 84.833842 135.432142 
L 88.318718 137.468563 
L 92.176939 139.534663 
L 96.386218 141.616781 
L 100.922106 143.701527 
L 105.947829 145.85449 
L 111.265252 147.98225 
L 116.840695 150.071469 
L 122.638737 152.109589 
L 129.169632 154.259538 
L 136.546268 156.52105 
L 144.061852 158.659522 
L 159.232003 162.514452 
L 171.402693 165.194122 
L 183.087589 167.436223 
L 191.645986 168.873429 
L 203.331219 170.545632 
L 213.289205 171.683419 
L 220.054555 172.281611 
L 227.625759 172.732242 
L 230.399109 172.804138 
L 228.127678 172.857398 
L 222.520928 173.1504 
L 213.949084 173.859787 
L 204.246664 174.946479 
L 198.727788 175.680152 
L 186.755978 177.534599 
L 173.854922 179.916962 
L 167.121044 181.316383 
L 127.82194 191.780536 
L 118.4605 194.954323 
L 109.631771 198.264687 
L 104.68605 200.280403 
L 100.007202 202.315556 
L 95.621505 204.35826 
L 91.553495 206.396208 
L 87.719747 208.476821 
L 84.269522 210.524922 
L 79.856637 213.505023 
L 77.041842 215.76086 
L 75.697382 217.014767 
L 74.567813 218.223948 
L 73.090923 220.263494 
L 72.376566 221.914013 
L 72.228286 222.681039 
L 72.219482 223.40669 
L 72.349998 224.089135 
L 72.619428 224.726623 
L 73.027117 225.31748 
L 73.577497 225.864618 
L 74.266452 226.361158 
L 75.092555 226.805661 
L 77.149251 227.533319 
L 79.731283 228.038206 
L 83.117898 228.325877 
L 87.421409 228.321228 
L 92.345396 227.983271 
L 97.838748 227.310942 
L 105.122545 226.063666 
L 109.680582 225.118004 
L 119.355483 222.767222 
L 128.577801 220.157492 
L 138.127366 217.128026 
L 147.853656 213.734028 
L 157.605094 210.040033 
L 168.408722 205.620982 
L 177.547956 201.61836 
L 190.451532 195.546798 
L 198.341755 191.57925 
L 207.14034 186.905207 
L 214.227593 182.924569 
L 222.314214 178.0967 
L 227.951679 174.484066 
L 230.381816 172.816908 
L 228.945367 173.907871 
L 224.442427 177.537569 
L 218.395234 182.722487 
L 212.52904 188.021128 
L 205.067159 195.103993 
L 197.629766 202.531356 
L 188.799804 211.832371 
L 184.283877 216.801607 
L 175.649762 226.738162 
L 167.212628 237.073214 
L 159.46637 247.222292 
L 155.814169 252.276688 
L 152.34152 257.277856 
L 149.170933 262.041823 
L 146.208519 266.700659 
L 143.471568 271.227555 
L 139.140762 279.000525 
L 135.998219 285.394479 
L 133.5933 291.152007 
L 132.677314 293.762765 
L 131.955921 296.180382 
L 131.430796 298.394831 
L 131.095508 300.457602 
L 130.970238 302.284615 
L 131.054084 303.867393 
L 131.345235 305.198417 
L 131.717683 306.063287 
L 132.21477 306.765984 
L 132.834494 307.304195 
L 133.574539 307.676015 
L 134.275345 307.856696 
L 135.054972 307.922017 
L 135.911657 307.871559 
L 137.848523 307.422651 
L 140.069381 306.510711 
L 141.280633 305.882234 
L 143.381298 304.620188 
L 145.639409 303.062641 
L 148.043355 301.215627 
L 150.580992 299.086572 
L 153.239718 296.684269 
L 156.006537 294.018848 
L 161.810976 287.945601 
L 165.068813 284.279755 
L 168.38813 280.369697 
L 171.879376 276.07537 
L 178.926536 266.863177 
L 182.444402 261.998429 
L 188.923689 252.575222 
L 195.190564 242.874961 
L 201.141038 233.098697 
L 208.897659 219.434932 
L 215.437134 206.961213 
L 219.603682 198.447193 
L 223.862587 189.148011 
L 226.973359 181.828074 
L 229.650545 174.937527 
L 230.396484 172.812876 
L 229.806648 174.776893 
L 228.116789 181.108872 
L 226.365954 188.566755 
L 224.350005 198.365861 
L 222.48027 208.906222 
L 221.340568 216.257775 
L 220.272007 224.046832 
L 218.977373 235.259231 
L 217.907707 247.26218 
L 217.163457 259.468285 
L 216.788333 271.61208 
L 216.810467 283.427992 
L 216.986913 289.439945 
L 217.588136 299.692966 
L 218.417169 308.062287 
L 218.931786 311.957524 
L 219.690389 316.672753 
L 221.012554 323.011435 
L 222.005439 326.707729 
L 223.111765 330.04588 
L 224.3278 332.958011 
L 225.608487 335.313853 
L 226.940282 337.096071 
L 227.62094 337.767803 
L 228.380094 338.336945 
L 229.145816 338.724844 
L 229.915616 338.930632 
L 230.686991 338.953846 
L 231.457429 338.794436 
L 232.224424 338.452758 
L 232.985482 337.929578 
L 233.73813 337.226068 
L 235.032141 335.559217 
L 236.279802 333.352815 
L 237.468728 330.622088 
L 238.5872 327.385868 
L 239.873453 322.648132 
L 241.012376 317.202223 
L 241.749134 312.758722 
L 242.390516 307.98697 
L 242.931719 302.915076 
L 243.368942 297.572882 
L 243.699432 291.991778 
L 243.921519 286.204509 
L 244.039384 274.148015 
L 243.959467 268.885349 
L 243.017275 248.984707 
L 242.201865 239.127917 
L 240.622603 224.800625 
L 239.379567 215.723449 
L 237.694753 205.206583 
L 235.863282 195.372914 
L 233.620579 184.994399 
L 231.787483 177.647045 
L 230.403574 172.817182 
L 231.173988 175.008612 
L 233.322696 180.587785 
L 236.094469 187.220262 
L 239.507978 194.845987 
L 243.733262 203.693339 
L 246.983171 210.147386 
L 252.993356 221.428085 
L 256.582164 227.813378 
L 260.373937 234.306351 
L 268.464587 247.369724 
L 273.337325 254.754996 
L 278.320378 261.950779 
L 287.18884 273.879928 
L 293.054672 281.141923 
L 298.776775 287.713671 
L 304.363542 293.592017 
L 309.702293 298.633979 
L 312.207931 300.771075 
L 314.706397 302.728619 
L 317.053447 304.382197 
L 319.236394 305.724998 
L 321.243203 306.751782 
L 323.110796 307.474092 
L 324.768902 307.856328 
L 325.959076 307.915909 
L 326.997764 307.749483 
L 327.880321 307.358447 
L 328.602618 306.74496 
L 329.161061 305.911929 
L 329.552617 304.862998 
L 329.774824 303.602524 
L 329.825813 302.13556 
L 329.688774 300.339217 
L 329.352557 298.319826 
L 328.817217 296.086098 
L 327.333222 291.496262 
L 325.439799 286.823378 
L 323.03673 281.700106 
L 320.145879 276.182072 
L 318.526001 273.293343 
L 315.653725 268.431517 
L 312.506638 263.401206 
L 309.106398 258.236888 
L 305.476872 252.973525 
L 299.99499 245.418146 
L 294.185539 237.834274 
L 283.789579 225.133591 
L 278.472858 219.003398 
L 268.590755 208.178906 
L 259.75944 199.081104 
L 250.723287 190.308922 
L 244.177312 184.298579 
L 238.6994 179.510059 
L 232.777364 174.631801 
L 230.412404 172.813613 
L 231.63005 173.663012 
L 236.129425 176.618607 
L 241.626532 180.014011 
L 250.095584 184.930221 
L 257.382056 188.917311 
L 268.566724 194.669063 
L 278.727778 199.547116 
L 289.577535 204.415119 
L 312.429082 213.54577 
L 321.205358 216.635782 
L 328.0198 218.863525 
L 334.703342 220.892166 
L 341.202862 222.703523 
L 351.648261 225.2338 
L 359.532965 226.768533 
L 366.676334 227.795519 
L 372.964838 228.304768 
L 375.756401 228.364944 
L 378.781416 228.267177 
L 381.324361 228.001564 
L 383.503794 227.571335 
L 385.307584 226.981084 
L 386.725517 226.236358 
L 387.749366 225.343592 
L 388.372939 224.310054 
L 388.592122 223.143779 
L 388.404913 221.853498 
L 387.87944 220.57563 
L 387.017211 219.209772 
L 385.821356 217.763767 
L 384.296475 216.245731 
L 382.164794 214.438153 
L 379.624748 212.560454 
L 374.834897 209.494936 
L 369.132722 206.33775 
L 362.595714 203.138623 
L 355.31347 199.945864 
L 347.808017 196.964943 
L 339.815979 194.067788 
L 330.492556 190.98923 
L 320.837263 188.095625 
L 301.135082 182.992687 
L 293.787752 181.340175 
L 281.723167 178.905665 
L 272.382658 177.256672 
L 262.370919 175.722302 
L 252.298394 174.436714 
L 243.239022 173.528858 
L 235.431774 172.98032 
L 230.399309 172.804138 
L 230.399309 172.804138 
" clip-path="url(#p1b6c976a5b)" style="fill: none; stroke: #0000ff; stroke-linecap: square"/>
   </g>
   <g id="patch_3">
    <path d="M 230.399309 345.6 
L 230.399309 0 
" style="fill: none; stroke: #000000; stroke-width: 0.8; stroke-linejoin: miter; stroke-linecap: square"/>
   </g>
   <g id="patch_4">
    <path d="M 65.880193 172.804138 
L 394.919807 172.804138 
" style="fill: none; stroke: #000000; stroke-width: 0.8; stroke-linejoin: miter; stroke-linecap: square"/>
   </g>
  </g>
 </g>
 <defs>
  <clipPath id="p1b6c976a5b">
   <rect x="65.880193" y="0" width="329.039613" height="345.6"/>
  </clipPath>
 </defs>
</svg>
