<?xml version="1.0" encoding="utf-8" standalone="no"?>
<!DOCTYPE svg PUBLIC "-//W3C//DTD SVG 1.1//EN"
  "http://www.w3.org/Graphics/SVG/1.1/DTD/svg11.dtd">
<svg xmlns:xlink="http://www.w3.org/1999/xlink" width="460.8pt" height="345.6pt" viewBox="0 0 460.8 345.6" xmlns="http://www.w3.org/2000/svg" version="1.1">
 <metadata>
  <rdf:RDF xmlns:dc="http://purl.org/dc/elements/1.1/" xmlns:cc="http://creativecommons.org/ns#" xmlns:rdf="http://www.w3.org/1999/02/22-rdf-syntax-ns#">
   <cc:Work>
    <dc:type rdf:resource="http://purl.org/dc/dcmitype/StillImage"/>
    <dc:date>2025-08-07T23:34:34.505777</dc:date>
    <dc:format>image/svg+xml</dc:format>
    <dc:creator>
     <cc:Agent>
      <dc:title>Matplotlib v3.10.3, https://matplotlib.org/</dc:title>
     </cc:Agent>
    </dc:creator>
   </cc:Work>
  </rdf:RDF>
 </metadata>
 <defs>
  <style type="text/css">*{stroke-linejoin: round; stroke-linecap: butt}</style>
 </defs>
 <g id="figure_1">
  <g id="patch_1">
   <path d="M 0 345.6 
L 460.8 345.6 
L 460.8 0 
L 0 0 
z
" style="fill: #ffffff"/>
  </g>
  <g id="axes_1">
   <g id="patch_2">
    <path d="M 0 345.294256 
L 445.06 345.294256 
L 445.06 20.6 
L 0 20.6 
z
" style="fill: #ffffff"/>
   </g>
   <g id="matplotlib.axis_1">
    <g id="xtick_1">
     <g id="line2d_1">
      <defs>
       <path id="m66035e380e" d="M 0 0 
L 0 3.5 
" style="stroke: #000000; stroke-width: 0.8"/>
      </defs>
      <g>
       <use xlink:href="#m66035e380e" x="8.558846" y="182.947445" style="stroke: #000000; stroke-width: 0.8"/>
      </g>
     </g>
     <g id="text_1">
      <!-- −3 -->
      <g transform="translate(1.187752 197.545883) scale(0.1 -0.1)">
       <defs>
        <path id="DejaVuSans-2212" d="M 678 2272 
L 4684 2272 
L 4684 1741 
L 678 1741 
L 678 2272 
z
" transform="scale(0.015625)"/>
        <path id="DejaVuSans-33" d="M 2597 2516 
Q 3050 2419 3304 2112 
Q 3559 1806 3559 1356 
Q 3559 666 3084 287 
Q 2609 -91 1734 -91 
Q 1441 -91 1130 -33 
Q 819 25 488 141 
L 488 750 
Q 750 597 1062 519 
Q 1375 441 1716 441 
Q 2309 441 2620 675 
Q 2931 909 2931 1356 
Q 2931 1769 2642 2001 
Q 2353 2234 1838 2234 
L 1294 2234 
L 1294 2753 
L 1863 2753 
Q 2328 2753 2575 2939 
Q 2822 3125 2822 3475 
Q 2822 3834 2567 4026 
Q 2313 4219 1838 4219 
Q 1578 4219 1281 4162 
Q 984 4106 628 3988 
L 628 4550 
Q 988 4650 1302 4700 
Q 1616 4750 1894 4750 
Q 2613 4750 3031 4423 
Q 3450 4097 3450 3541 
Q 3450 3153 3228 2886 
Q 3006 2619 2597 2516 
z
" transform="scale(0.015625)"/>
       </defs>
       <use xlink:href="#DejaVuSans-2212"/>
       <use xlink:href="#DejaVuSans-33" transform="translate(83.789062 0)"/>
      </g>
     </g>
    </g>
    <g id="xtick_2">
     <g id="line2d_2">
      <g>
       <use xlink:href="#m66035e380e" x="79.882564" y="182.947445" style="stroke: #000000; stroke-width: 0.8"/>
      </g>
     </g>
     <g id="text_2">
      <!-- −2 -->
      <g transform="translate(72.51147 197.545883) scale(0.1 -0.1)">
       <defs>
        <path id="DejaVuSans-32" d="M 1228 531 
L 3431 531 
L 3431 0 
L 469 0 
L 469 531 
Q 828 903 1448 1529 
Q 2069 2156 2228 2338 
Q 2531 2678 2651 2914 
Q 2772 3150 2772 3378 
Q 2772 3750 2511 3984 
Q 2250 4219 1831 4219 
Q 1534 4219 1204 4116 
Q 875 4013 500 3803 
L 500 4441 
Q 881 4594 1212 4672 
Q 1544 4750 1819 4750 
Q 2544 4750 2975 4387 
Q 3406 4025 3406 3419 
Q 3406 3131 3298 2873 
Q 3191 2616 2906 2266 
Q 2828 2175 2409 1742 
Q 1991 1309 1228 531 
z
" transform="scale(0.015625)"/>
       </defs>
       <use xlink:href="#DejaVuSans-2212"/>
       <use xlink:href="#DejaVuSans-32" transform="translate(83.789062 0)"/>
      </g>
     </g>
    </g>
    <g id="xtick_3">
     <g id="line2d_3">
      <g>
       <use xlink:href="#m66035e380e" x="151.206282" y="182.947445" style="stroke: #000000; stroke-width: 0.8"/>
      </g>
     </g>
     <g id="text_3">
      <!-- −1 -->
      <g transform="translate(143.835188 197.545883) scale(0.1 -0.1)">
       <defs>
        <path id="DejaVuSans-31" d="M 794 531 
L 1825 531 
L 1825 4091 
L 703 3866 
L 703 4441 
L 1819 4666 
L 2450 4666 
L 2450 531 
L 3481 531 
L 3481 0 
L 794 0 
L 794 531 
z
" transform="scale(0.015625)"/>
       </defs>
       <use xlink:href="#DejaVuSans-2212"/>
       <use xlink:href="#DejaVuSans-31" transform="translate(83.789062 0)"/>
      </g>
     </g>
    </g>
    <g id="xtick_4">
     <g id="line2d_4">
      <g>
       <use xlink:href="#m66035e380e" x="222.53" y="182.947445" style="stroke: #000000; stroke-width: 0.8"/>
      </g>
     </g>
    </g>
    <g id="xtick_5">
     <g id="line2d_5">
      <g>
       <use xlink:href="#m66035e380e" x="293.853718" y="182.947445" style="stroke: #000000; stroke-width: 0.8"/>
      </g>
     </g>
     <g id="text_4">
      <!-- 1 -->
      <g transform="translate(290.672468 197.545883) scale(0.1 -0.1)">
       <use xlink:href="#DejaVuSans-31"/>
      </g>
     </g>
    </g>
    <g id="xtick_6">
     <g id="line2d_6">
      <g>
       <use xlink:href="#m66035e380e" x="365.177436" y="182.947445" style="stroke: #000000; stroke-width: 0.8"/>
      </g>
     </g>
     <g id="text_5">
      <!-- 2 -->
      <g transform="translate(361.996186 197.545883) scale(0.1 -0.1)">
       <use xlink:href="#DejaVuSans-32"/>
      </g>
     </g>
    </g>
    <g id="xtick_7">
     <g id="line2d_7">
      <g>
       <use xlink:href="#m66035e380e" x="436.501154" y="182.947445" style="stroke: #000000; stroke-width: 0.8"/>
      </g>
     </g>
     <g id="text_6">
      <!-- 3 -->
      <g transform="translate(433.319904 197.545883) scale(0.1 -0.1)">
       <use xlink:href="#DejaVuSans-33"/>
      </g>
     </g>
    </g>
    <g id="xtick_8">
     <g id="line2d_8">
      <defs>
       <path id="m81267559cd" d="M 0 0 
L 0 2 
" style="stroke: #000000; stroke-width: 0.6"/>
      </defs>
      <g>
       <use xlink:href="#m81267559cd" x="22.82359" y="182.947445" style="stroke: #000000; stroke-width: 0.6"/>
      </g>
     </g>
    </g>
    <g id="xtick_9">
     <g id="line2d_9">
      <g>
       <use xlink:href="#m81267559cd" x="37.088333" y="182.947445" style="stroke: #000000; stroke-width: 0.6"/>
      </g>
     </g>
    </g>
    <g id="xtick_10">
     <g id="line2d_10">
      <g>
       <use xlink:href="#m81267559cd" x="51.353077" y="182.947445" style="stroke: #000000; stroke-width: 0.6"/>
      </g>
     </g>
    </g>
    <g id="xtick_11">
     <g id="line2d_11">
      <g>
       <use xlink:href="#m81267559cd" x="65.617821" y="182.947445" style="stroke: #000000; stroke-width: 0.6"/>
      </g>
     </g>
    </g>
    <g id="xtick_12">
     <g id="line2d_12">
      <g>
       <use xlink:href="#m81267559cd" x="94.147308" y="182.947445" style="stroke: #000000; stroke-width: 0.6"/>
      </g>
     </g>
    </g>
    <g id="xtick_13">
     <g id="line2d_13">
      <g>
       <use xlink:href="#m81267559cd" x="108.412051" y="182.947445" style="stroke: #000000; stroke-width: 0.6"/>
      </g>
     </g>
    </g>
    <g id="xtick_14">
     <g id="line2d_14">
      <g>
       <use xlink:href="#m81267559cd" x="122.676795" y="182.947445" style="stroke: #000000; stroke-width: 0.6"/>
      </g>
     </g>
    </g>
    <g id="xtick_15">
     <g id="line2d_15">
      <g>
       <use xlink:href="#m81267559cd" x="136.941538" y="182.947445" style="stroke: #000000; stroke-width: 0.6"/>
      </g>
     </g>
    </g>
    <g id="xtick_16">
     <g id="line2d_16">
      <g>
       <use xlink:href="#m81267559cd" x="165.471026" y="182.947445" style="stroke: #000000; stroke-width: 0.6"/>
      </g>
     </g>
    </g>
    <g id="xtick_17">
     <g id="line2d_17">
      <g>
       <use xlink:href="#m81267559cd" x="179.735769" y="182.947445" style="stroke: #000000; stroke-width: 0.6"/>
      </g>
     </g>
    </g>
    <g id="xtick_18">
     <g id="line2d_18">
      <g>
       <use xlink:href="#m81267559cd" x="194.000513" y="182.947445" style="stroke: #000000; stroke-width: 0.6"/>
      </g>
     </g>
    </g>
    <g id="xtick_19">
     <g id="line2d_19">
      <g>
       <use xlink:href="#m81267559cd" x="208.265256" y="182.947445" style="stroke: #000000; stroke-width: 0.6"/>
      </g>
     </g>
    </g>
    <g id="xtick_20">
     <g id="line2d_20">
      <g>
       <use xlink:href="#m81267559cd" x="236.794744" y="182.947445" style="stroke: #000000; stroke-width: 0.6"/>
      </g>
     </g>
    </g>
    <g id="xtick_21">
     <g id="line2d_21">
      <g>
       <use xlink:href="#m81267559cd" x="251.059487" y="182.947445" style="stroke: #000000; stroke-width: 0.6"/>
      </g>
     </g>
    </g>
    <g id="xtick_22">
     <g id="line2d_22">
      <g>
       <use xlink:href="#m81267559cd" x="265.324231" y="182.947445" style="stroke: #000000; stroke-width: 0.6"/>
      </g>
     </g>
    </g>
    <g id="xtick_23">
     <g id="line2d_23">
      <g>
       <use xlink:href="#m81267559cd" x="279.588974" y="182.947445" style="stroke: #000000; stroke-width: 0.6"/>
      </g>
     </g>
    </g>
    <g id="xtick_24">
     <g id="line2d_24">
      <g>
       <use xlink:href="#m81267559cd" x="308.118462" y="182.947445" style="stroke: #000000; stroke-width: 0.6"/>
      </g>
     </g>
    </g>
    <g id="xtick_25">
     <g id="line2d_25">
      <g>
       <use xlink:href="#m81267559cd" x="322.383205" y="182.947445" style="stroke: #000000; stroke-width: 0.6"/>
      </g>
     </g>
    </g>
    <g id="xtick_26">
     <g id="line2d_26">
      <g>
       <use xlink:href="#m81267559cd" x="336.647949" y="182.947445" style="stroke: #000000; stroke-width: 0.6"/>
      </g>
     </g>
    </g>
    <g id="xtick_27">
     <g id="line2d_27">
      <g>
       <use xlink:href="#m81267559cd" x="350.912692" y="182.947445" style="stroke: #000000; stroke-width: 0.6"/>
      </g>
     </g>
    </g>
    <g id="xtick_28">
     <g id="line2d_28">
      <g>
       <use xlink:href="#m81267559cd" x="379.442179" y="182.947445" style="stroke: #000000; stroke-width: 0.6"/>
      </g>
     </g>
    </g>
    <g id="xtick_29">
     <g id="line2d_29">
      <g>
       <use xlink:href="#m81267559cd" x="393.706923" y="182.947445" style="stroke: #000000; stroke-width: 0.6"/>
      </g>
     </g>
    </g>
    <g id="xtick_30">
     <g id="line2d_30">
      <g>
       <use xlink:href="#m81267559cd" x="407.971667" y="182.947445" style="stroke: #000000; stroke-width: 0.6"/>
      </g>
     </g>
    </g>
    <g id="xtick_31">
     <g id="line2d_31">
      <g>
       <use xlink:href="#m81267559cd" x="422.23641" y="182.947445" style="stroke: #000000; stroke-width: 0.6"/>
      </g>
     </g>
    </g>
    <g id="text_7">
     <!-- x -->
     <g transform="translate(453.06 182.947445) scale(0.25 -0.25)">
      <defs>
       <path id="DejaVuSans-78" d="M 3513 3500 
L 2247 1797 
L 3578 0 
L 2900 0 
L 1881 1375 
L 863 0 
L 184 0 
L 1544 1831 
L 300 3500 
L 978 3500 
L 1906 2253 
L 2834 3500 
L 3513 3500 
z
" transform="scale(0.015625)"/>
      </defs>
      <use xlink:href="#DejaVuSans-78"/>
     </g>
    </g>
   </g>
   <g id="matplotlib.axis_2">
    <g id="ytick_1">
     <g id="line2d_32">
      <defs>
       <path id="m50822de972" d="M 0 0 
L -3.5 0 
" style="stroke: #000000; stroke-width: 0.8"/>
      </defs>
      <g>
       <use xlink:href="#m50822de972" x="222.53" y="339.051277" style="stroke: #000000; stroke-width: 0.8"/>
      </g>
     </g>
     <g id="text_8">
      <!-- −1.0 -->
      <g transform="translate(191.247188 342.850496) scale(0.1 -0.1)">
       <defs>
        <path id="DejaVuSans-2e" d="M 684 794 
L 1344 794 
L 1344 0 
L 684 0 
L 684 794 
z
" transform="scale(0.015625)"/>
        <path id="DejaVuSans-30" d="M 2034 4250 
Q 1547 4250 1301 3770 
Q 1056 3291 1056 2328 
Q 1056 1369 1301 889 
Q 1547 409 2034 409 
Q 2525 409 2770 889 
Q 3016 1369 3016 2328 
Q 3016 3291 2770 3770 
Q 2525 4250 2034 4250 
z
M 2034 4750 
Q 2819 4750 3233 4129 
Q 3647 3509 3647 2328 
Q 3647 1150 3233 529 
Q 2819 -91 2034 -91 
Q 1250 -91 836 529 
Q 422 1150 422 2328 
Q 422 3509 836 4129 
Q 1250 4750 2034 4750 
z
" transform="scale(0.015625)"/>
       </defs>
       <use xlink:href="#DejaVuSans-2212"/>
       <use xlink:href="#DejaVuSans-31" transform="translate(83.789062 0)"/>
       <use xlink:href="#DejaVuSans-2e" transform="translate(147.412109 0)"/>
       <use xlink:href="#DejaVuSans-30" transform="translate(179.199219 0)"/>
      </g>
     </g>
    </g>
    <g id="ytick_2">
     <g id="line2d_33">
      <g>
       <use xlink:href="#m50822de972" x="222.53" y="260.999361" style="stroke: #000000; stroke-width: 0.8"/>
      </g>
     </g>
     <g id="text_9">
      <!-- −0.5 -->
      <g transform="translate(191.247188 264.79858) scale(0.1 -0.1)">
       <defs>
        <path id="DejaVuSans-35" d="M 691 4666 
L 3169 4666 
L 3169 4134 
L 1269 4134 
L 1269 2991 
Q 1406 3038 1543 3061 
Q 1681 3084 1819 3084 
Q 2600 3084 3056 2656 
Q 3513 2228 3513 1497 
Q 3513 744 3044 326 
Q 2575 -91 1722 -91 
Q 1428 -91 1123 -41 
Q 819 9 494 109 
L 494 744 
Q 775 591 1075 516 
Q 1375 441 1709 441 
Q 2250 441 2565 725 
Q 2881 1009 2881 1497 
Q 2881 1984 2565 2268 
Q 2250 2553 1709 2553 
Q 1456 2553 1204 2497 
Q 953 2441 691 2322 
L 691 4666 
z
" transform="scale(0.015625)"/>
       </defs>
       <use xlink:href="#DejaVuSans-2212"/>
       <use xlink:href="#DejaVuSans-30" transform="translate(83.789062 0)"/>
       <use xlink:href="#DejaVuSans-2e" transform="translate(147.412109 0)"/>
       <use xlink:href="#DejaVuSans-35" transform="translate(179.199219 0)"/>
      </g>
     </g>
    </g>
    <g id="ytick_3">
     <g id="line2d_34">
      <g>
       <use xlink:href="#m50822de972" x="222.53" y="182.947445" style="stroke: #000000; stroke-width: 0.8"/>
      </g>
     </g>
    </g>
    <g id="ytick_4">
     <g id="line2d_35">
      <g>
       <use xlink:href="#m50822de972" x="222.53" y="104.895529" style="stroke: #000000; stroke-width: 0.8"/>
      </g>
     </g>
     <g id="text_10">
      <!-- 0.5 -->
      <g transform="translate(199.626875 108.694748) scale(0.1 -0.1)">
       <use xlink:href="#DejaVuSans-30"/>
       <use xlink:href="#DejaVuSans-2e" transform="translate(63.623047 0)"/>
       <use xlink:href="#DejaVuSans-35" transform="translate(95.410156 0)"/>
      </g>
     </g>
    </g>
    <g id="ytick_5">
     <g id="line2d_36">
      <g>
       <use xlink:href="#m50822de972" x="222.53" y="26.843613" style="stroke: #000000; stroke-width: 0.8"/>
      </g>
     </g>
     <g id="text_11">
      <!-- 1.0 -->
      <g transform="translate(199.626875 30.642832) scale(0.1 -0.1)">
       <use xlink:href="#DejaVuSans-31"/>
       <use xlink:href="#DejaVuSans-2e" transform="translate(63.623047 0)"/>
       <use xlink:href="#DejaVuSans-30" transform="translate(95.410156 0)"/>
      </g>
     </g>
    </g>
    <g id="ytick_6">
     <g id="line2d_37">
      <defs>
       <path id="m78414fe1f1" d="M 0 0 
L -2 0 
" style="stroke: #000000; stroke-width: 0.6"/>
      </defs>
      <g>
       <use xlink:href="#m78414fe1f1" x="222.53" y="323.440894" style="stroke: #000000; stroke-width: 0.6"/>
      </g>
     </g>
    </g>
    <g id="ytick_7">
     <g id="line2d_38">
      <g>
       <use xlink:href="#m78414fe1f1" x="222.53" y="307.830511" style="stroke: #000000; stroke-width: 0.6"/>
      </g>
     </g>
    </g>
    <g id="ytick_8">
     <g id="line2d_39">
      <g>
       <use xlink:href="#m78414fe1f1" x="222.53" y="292.220128" style="stroke: #000000; stroke-width: 0.6"/>
      </g>
     </g>
    </g>
    <g id="ytick_9">
     <g id="line2d_40">
      <g>
       <use xlink:href="#m78414fe1f1" x="222.53" y="276.609745" style="stroke: #000000; stroke-width: 0.6"/>
      </g>
     </g>
    </g>
    <g id="ytick_10">
     <g id="line2d_41">
      <g>
       <use xlink:href="#m78414fe1f1" x="222.53" y="245.388978" style="stroke: #000000; stroke-width: 0.6"/>
      </g>
     </g>
    </g>
    <g id="ytick_11">
     <g id="line2d_42">
      <g>
       <use xlink:href="#m78414fe1f1" x="222.53" y="229.778595" style="stroke: #000000; stroke-width: 0.6"/>
      </g>
     </g>
    </g>
    <g id="ytick_12">
     <g id="line2d_43">
      <g>
       <use xlink:href="#m78414fe1f1" x="222.53" y="214.168212" style="stroke: #000000; stroke-width: 0.6"/>
      </g>
     </g>
    </g>
    <g id="ytick_13">
     <g id="line2d_44">
      <g>
       <use xlink:href="#m78414fe1f1" x="222.53" y="198.557829" style="stroke: #000000; stroke-width: 0.6"/>
      </g>
     </g>
    </g>
    <g id="ytick_14">
     <g id="line2d_45">
      <g>
       <use xlink:href="#m78414fe1f1" x="222.53" y="167.337062" style="stroke: #000000; stroke-width: 0.6"/>
      </g>
     </g>
    </g>
    <g id="ytick_15">
     <g id="line2d_46">
      <g>
       <use xlink:href="#m78414fe1f1" x="222.53" y="151.726679" style="stroke: #000000; stroke-width: 0.6"/>
      </g>
     </g>
    </g>
    <g id="ytick_16">
     <g id="line2d_47">
      <g>
       <use xlink:href="#m78414fe1f1" x="222.53" y="136.116296" style="stroke: #000000; stroke-width: 0.6"/>
      </g>
     </g>
    </g>
    <g id="ytick_17">
     <g id="line2d_48">
      <g>
       <use xlink:href="#m78414fe1f1" x="222.53" y="120.505913" style="stroke: #000000; stroke-width: 0.6"/>
      </g>
     </g>
    </g>
    <g id="ytick_18">
     <g id="line2d_49">
      <g>
       <use xlink:href="#m78414fe1f1" x="222.53" y="89.285146" style="stroke: #000000; stroke-width: 0.6"/>
      </g>
     </g>
    </g>
    <g id="ytick_19">
     <g id="line2d_50">
      <g>
       <use xlink:href="#m78414fe1f1" x="222.53" y="73.674763" style="stroke: #000000; stroke-width: 0.6"/>
      </g>
     </g>
    </g>
    <g id="ytick_20">
     <g id="line2d_51">
      <g>
       <use xlink:href="#m78414fe1f1" x="222.53" y="58.06438" style="stroke: #000000; stroke-width: 0.6"/>
      </g>
     </g>
    </g>
    <g id="ytick_21">
     <g id="line2d_52">
      <g>
       <use xlink:href="#m78414fe1f1" x="222.53" y="42.453997" style="stroke: #000000; stroke-width: 0.6"/>
      </g>
     </g>
    </g>
    <g id="text_12">
     <!-- y -->
     <g transform="translate(215.131563 7.400781) scale(0.25 -0.25)">
      <defs>
       <path id="DejaVuSans-79" d="M 2059 -325 
Q 1816 -950 1584 -1140 
Q 1353 -1331 966 -1331 
L 506 -1331 
L 506 -850 
L 844 -850 
Q 1081 -850 1212 -737 
Q 1344 -625 1503 -206 
L 1606 56 
L 191 3500 
L 800 3500 
L 1894 763 
L 2988 3500 
L 3597 3500 
L 2059 -325 
z
" transform="scale(0.015625)"/>
      </defs>
      <use xlink:href="#DejaVuSans-79"/>
     </g>
    </g>
   </g>
   <g id="line2d_53">
    <path d="M 8.558846 118.614171 
L 10.966454 91.462848 
L 12.994303 71.615954 
L 14.450068 59.363966 
L 15.788295 49.712425 
L 17.008985 42.329909 
L 18.303387 36.038781 
L 19.329472 32.2016 
L 20.355557 29.39353 
L 21.023059 28.121164 
L 21.685045 27.290278 
L 22.347032 26.886643 
L 23.009018 26.907157 
L 23.707015 27.383473 
L 24.441022 28.380982 
L 25.27071 30.110391 
L 26.196078 32.77454 
L 27.121446 36.190243 
L 28.046813 40.32949 
L 29.263226 46.818524 
L 30.753799 56.285596 
L 32.227487 67.13929 
L 34.104565 82.848705 
L 36.272081 103.163838 
L 38.984338 130.993434 
L 43.759179 183.070629 
L 48.303072 231.473476 
L 51.147398 259.063178 
L 53.356182 278.31205 
L 55.505663 294.848921 
L 57.186636 306.104499 
L 58.931661 316.121758 
L 60.094863 321.817852 
L 61.257916 326.709585 
L 62.356108 330.581719 
L 63.389437 333.558769 
L 64.449716 335.941446 
L 65.536944 337.680885 
L 66.501179 338.632449 
L 67.342423 339.014172 
L 67.763045 339.050136 
L 68.499888 338.867318 
L 69.23673 338.37572 
L 69.973573 337.580751 
L 70.710415 336.488366 
L 71.381002 335.24115 
L 72.722175 332.045 
L 74.194578 327.504709 
L 75.330257 323.305589 
L 76.465935 318.53495 
L 77.955705 311.467669 
L 79.445475 303.556407 
L 81.459304 291.669351 
L 83.829094 276.189278 
L 86.369808 258.179165 
L 89.484472 234.716585 
L 101.129975 145.166497 
L 104.247049 123.4086 
L 107.253526 104.119242 
L 109.872202 88.888076 
L 112.587774 74.782076 
L 114.366509 66.521065 
L 116.143879 59.060308 
L 117.538455 53.76774 
L 119.611496 46.814518 
L 121.101467 42.488603 
L 122.591438 38.717765 
L 123.905455 35.845861 
L 125.382159 33.115864 
L 126.858864 30.899893 
L 128.294335 29.224482 
L 129.142304 28.450368 
L 129.990272 27.832313 
L 130.838241 27.366843 
L 131.68621 27.050352 
L 132.560528 26.876078 
L 133.434847 26.852025 
L 134.628453 27.053894 
L 135.822059 27.516462 
L 136.639664 27.977839 
L 137.670347 28.720266 
L 138.701031 29.634972 
L 140.245877 31.311892 
L 141.790724 33.332746 
L 143.2804 35.58289 
L 145.647508 39.70976 
L 148.761334 46.033005 
L 151.962154 53.397889 
L 155.051685 61.146277 
L 159.136539 72.059799 
L 175.686383 117.680385 
L 178.88919 125.86034 
L 183.360997 136.578532 
L 187.971086 146.633891 
L 190.532026 151.74027 
L 193.154776 156.594855 
L 196.727522 162.575713 
L 199.207537 166.287768 
L 201.528426 169.429676 
L 203.918391 172.326142 
L 207.042862 175.590001 
L 209.645264 177.853907 
L 211.780442 179.401848 
L 214.008142 180.719013 
L 215.778632 181.548749 
L 217.549122 182.186146 
L 220.157087 182.774659 
L 222.742273 182.946063 
L 224.045409 182.876975 
L 225.949339 182.588664 
L 227.348668 182.234924 
L 229.422614 181.489614 
L 231.946736 180.226472 
L 233.539735 179.228171 
L 235.820673 177.528032 
L 238.905816 174.722172 
L 241.529102 171.880003 
L 242.83355 170.311314 
L 244.688471 167.903883 
L 248.20219 162.779769 
L 250.690882 158.710514 
L 252.692099 155.179017 
L 256.305381 148.233815 
L 258.182611 144.346349 
L 260.85821 138.491535 
L 265.335807 127.92763 
L 268.410902 120.178678 
L 274.46751 103.995843 
L 288.806578 64.291619 
L 293.251115 53.028314 
L 295.898995 46.908971 
L 298.99602 40.500148 
L 301.209455 36.517463 
L 303.009133 33.705036 
L 305.131397 30.938578 
L 306.862189 29.167334 
L 307.727585 28.45749 
L 308.744293 27.78128 
L 310.489073 27.038094 
L 311.217145 26.890999 
L 312.083143 26.846152 
L 312.949142 26.946679 
L 313.777303 27.182611 
L 314.605464 27.558795 
L 315.433626 28.07865 
L 316.947931 29.411574 
L 318.320217 31.059873 
L 319.657594 33.082037 
L 321.243748 36.027529 
L 322.829903 39.5817 
L 324.315452 43.47403 
L 325.520349 47.037255 
L 327.370905 53.225667 
L 329.307883 60.636053 
L 330.916958 67.515517 
L 332.682997 75.812966 
L 334.486841 85.077848 
L 336.471784 96.163478 
L 339.284784 113.376727 
L 342.124184 132.36287 
L 344.922015 152.407007 
L 348.681766 180.884082 
L 358.591617 257.456609 
L 361.132478 275.516198 
L 363.003998 287.911436 
L 365.20035 301.218252 
L 366.939103 310.630538 
L 368.640009 318.738613 
L 370.510566 326.25604 
L 371.595838 329.888167 
L 372.453291 332.356144 
L 373.73947 335.363373 
L 374.596923 336.887821 
L 375.02565 337.501815 
L 375.813477 338.367131 
L 376.388839 338.780406 
L 376.9642 339.006135 
L 377.539562 339.04192 
L 378.114924 338.885587 
L 378.73897 338.496578 
L 379.363016 337.877109 
L 379.987063 337.025359 
L 381.175129 334.756735 
L 382.303169 331.813002 
L 383.409704 328.176693 
L 384.494734 323.893808 
L 385.720686 318.208626 
L 387.087561 310.830611 
L 388.758635 300.367856 
L 390.219735 289.978009 
L 392.197007 274.201403 
L 394.502201 253.580662 
L 397.057825 228.402707 
L 400.152609 195.61402 
L 407.826724 112.77236 
L 410.417726 87.691311 
L 412.530798 69.529578 
L 414.224916 56.847048 
L 415.639949 47.738206 
L 416.782095 41.472507 
L 417.924241 36.248836 
L 419.186315 31.759729 
L 420.171027 29.236215 
L 420.827502 28.046304 
L 421.555407 27.197626 
L 421.955074 26.945069 
L 422.354741 26.845329 
L 422.754408 26.899427 
L 423.154076 27.108234 
L 423.553743 27.472467 
L 424.353078 28.669305 
L 424.87794 29.795809 
L 425.801657 32.43448 
L 426.599365 35.3843 
L 427.431369 39.118136 
L 428.730822 46.27048 
L 430.030275 54.988003 
L 431.376377 65.594588 
L 433.042498 80.794066 
L 434.548839 96.32264 
L 436.501154 118.614171 
L 436.501154 118.614171 
" clip-path="url(#p1bf159a43e)" style="fill: none; stroke: #0000ff; stroke-linecap: square"/>
   </g>
   <g id="patch_3">
    <path d="M 222.53 345.294256 
L 222.53 20.6 
" style="fill: none; stroke: #000000; stroke-width: 0.8; stroke-linejoin: miter; stroke-linecap: square"/>
   </g>
   <g id="patch_4">
    <path d="M 0 182.947445 
L 445.06 182.947445 
" style="fill: none; stroke: #000000; stroke-width: 0.8; stroke-linejoin: miter; stroke-linecap: square"/>
   </g>
  </g>
 </g>
 <defs>
  <clipPath id="p1bf159a43e">
   <rect x="0" y="20.6" width="445.06" height="324.694256"/>
  </clipPath>
 </defs>
</svg>
