<?xml version="1.0" encoding="utf-8" standalone="no"?>
<!DOCTYPE svg PUBLIC "-//W3C//DTD SVG 1.1//EN"
  "http://www.w3.org/Graphics/SVG/1.1/DTD/svg11.dtd">
<svg xmlns:xlink="http://www.w3.org/1999/xlink" width="460.8pt" height="345.6pt" viewBox="0 0 460.8 345.6" xmlns="http://www.w3.org/2000/svg" version="1.1">
 <metadata>
  <rdf:RDF xmlns:dc="http://purl.org/dc/elements/1.1/" xmlns:cc="http://creativecommons.org/ns#" xmlns:rdf="http://www.w3.org/1999/02/22-rdf-syntax-ns#">
   <cc:Work>
    <dc:type rdf:resource="http://purl.org/dc/dcmitype/StillImage"/>
    <dc:date>2025-08-01T22:08:50.746888</dc:date>
    <dc:format>image/svg+xml</dc:format>
    <dc:creator>
     <cc:Agent>
      <dc:title>Matplotlib v3.10.3, https://matplotlib.org/</dc:title>
     </cc:Agent>
    </dc:creator>
   </cc:Work>
  </rdf:RDF>
 </metadata>
 <defs>
  <style type="text/css">*{stroke-linejoin: round; stroke-linecap: butt}</style>
 </defs>
 <g id="figure_1">
  <g id="patch_1">
   <path d="M 0 345.6 
L 460.8 345.6 
L 460.8 0 
L 0 0 
z
" style="fill: #ffffff"/>
  </g>
  <g id="axes_1">
   <g id="patch_2">
    <path d="M 57.61359 345.6 
L 403.18641 345.6 
L 403.18641 0 
L 57.61359 0 
z
" style="fill: #ffffff"/>
   </g>
   <g id="matplotlib.axis_1">
    <g id="xtick_1">
     <g id="line2d_1">
      <defs>
       <path id="m382f8078a5" d="M 0 0 
L 0 3.5 
" style="stroke: #000000; stroke-width: 0.8"/>
      </defs>
      <g>
       <use xlink:href="#m382f8078a5" x="64.230015" y="172.799255" style="stroke: #000000; stroke-width: 0.8"/>
      </g>
     </g>
     <g id="text_1">
      <!-- −1.0 -->
      <g transform="translate(52.088608 187.397692) scale(0.1 -0.1)">
       <defs>
        <path id="DejaVuSans-2212" d="M 678 2272 
L 4684 2272 
L 4684 1741 
L 678 1741 
L 678 2272 
z
" transform="scale(0.015625)"/>
        <path id="DejaVuSans-31" d="M 794 531 
L 1825 531 
L 1825 4091 
L 703 3866 
L 703 4441 
L 1819 4666 
L 2450 4666 
L 2450 531 
L 3481 531 
L 3481 0 
L 794 0 
L 794 531 
z
" transform="scale(0.015625)"/>
        <path id="DejaVuSans-2e" d="M 684 794 
L 1344 794 
L 1344 0 
L 684 0 
L 684 794 
z
" transform="scale(0.015625)"/>
        <path id="DejaVuSans-30" d="M 2034 4250 
Q 1547 4250 1301 3770 
Q 1056 3291 1056 2328 
Q 1056 1369 1301 889 
Q 1547 409 2034 409 
Q 2525 409 2770 889 
Q 3016 1369 3016 2328 
Q 3016 3291 2770 3770 
Q 2525 4250 2034 4250 
z
M 2034 4750 
Q 2819 4750 3233 4129 
Q 3647 3509 3647 2328 
Q 3647 1150 3233 529 
Q 2819 -91 2034 -91 
Q 1250 -91 836 529 
Q 422 1150 422 2328 
Q 422 3509 836 4129 
Q 1250 4750 2034 4750 
z
" transform="scale(0.015625)"/>
       </defs>
       <use xlink:href="#DejaVuSans-2212"/>
       <use xlink:href="#DejaVuSans-31" transform="translate(83.789062 0)"/>
       <use xlink:href="#DejaVuSans-2e" transform="translate(147.412109 0)"/>
       <use xlink:href="#DejaVuSans-30" transform="translate(179.199219 0)"/>
      </g>
     </g>
    </g>
    <g id="xtick_2">
     <g id="line2d_2">
      <g>
       <use xlink:href="#m382f8078a5" x="147.307706" y="172.799255" style="stroke: #000000; stroke-width: 0.8"/>
      </g>
     </g>
     <g id="text_2">
      <!-- −0.5 -->
      <g transform="translate(135.1663 187.397692) scale(0.1 -0.1)">
       <defs>
        <path id="DejaVuSans-35" d="M 691 4666 
L 3169 4666 
L 3169 4134 
L 1269 4134 
L 1269 2991 
Q 1406 3038 1543 3061 
Q 1681 3084 1819 3084 
Q 2600 3084 3056 2656 
Q 3513 2228 3513 1497 
Q 3513 744 3044 326 
Q 2575 -91 1722 -91 
Q 1428 -91 1123 -41 
Q 819 9 494 109 
L 494 744 
Q 775 591 1075 516 
Q 1375 441 1709 441 
Q 2250 441 2565 725 
Q 2881 1009 2881 1497 
Q 2881 1984 2565 2268 
Q 2250 2553 1709 2553 
Q 1456 2553 1204 2497 
Q 953 2441 691 2322 
L 691 4666 
z
" transform="scale(0.015625)"/>
       </defs>
       <use xlink:href="#DejaVuSans-2212"/>
       <use xlink:href="#DejaVuSans-30" transform="translate(83.789062 0)"/>
       <use xlink:href="#DejaVuSans-2e" transform="translate(147.412109 0)"/>
       <use xlink:href="#DejaVuSans-35" transform="translate(179.199219 0)"/>
      </g>
     </g>
    </g>
    <g id="xtick_3">
     <g id="line2d_3">
      <g>
       <use xlink:href="#m382f8078a5" x="230.385397" y="172.799255" style="stroke: #000000; stroke-width: 0.8"/>
      </g>
     </g>
    </g>
    <g id="xtick_4">
     <g id="line2d_4">
      <g>
       <use xlink:href="#m382f8078a5" x="313.463088" y="172.799255" style="stroke: #000000; stroke-width: 0.8"/>
      </g>
     </g>
     <g id="text_3">
      <!-- 0.5 -->
      <g transform="translate(305.511526 187.397692) scale(0.1 -0.1)">
       <use xlink:href="#DejaVuSans-30"/>
       <use xlink:href="#DejaVuSans-2e" transform="translate(63.623047 0)"/>
       <use xlink:href="#DejaVuSans-35" transform="translate(95.410156 0)"/>
      </g>
     </g>
    </g>
    <g id="xtick_5">
     <g id="line2d_5">
      <g>
       <use xlink:href="#m382f8078a5" x="396.540779" y="172.799255" style="stroke: #000000; stroke-width: 0.8"/>
      </g>
     </g>
     <g id="text_4">
      <!-- 1.0 -->
      <g transform="translate(388.589217 187.397692) scale(0.1 -0.1)">
       <use xlink:href="#DejaVuSans-31"/>
       <use xlink:href="#DejaVuSans-2e" transform="translate(63.623047 0)"/>
       <use xlink:href="#DejaVuSans-30" transform="translate(95.410156 0)"/>
      </g>
     </g>
    </g>
    <g id="xtick_6">
     <g id="line2d_6">
      <defs>
       <path id="m01fc5d44c3" d="M 0 0 
L 0 2 
" style="stroke: #000000; stroke-width: 0.6"/>
      </defs>
      <g>
       <use xlink:href="#m01fc5d44c3" x="80.845553" y="172.799255" style="stroke: #000000; stroke-width: 0.6"/>
      </g>
     </g>
    </g>
    <g id="xtick_7">
     <g id="line2d_7">
      <g>
       <use xlink:href="#m01fc5d44c3" x="97.461091" y="172.799255" style="stroke: #000000; stroke-width: 0.6"/>
      </g>
     </g>
    </g>
    <g id="xtick_8">
     <g id="line2d_8">
      <g>
       <use xlink:href="#m01fc5d44c3" x="114.076629" y="172.799255" style="stroke: #000000; stroke-width: 0.6"/>
      </g>
     </g>
    </g>
    <g id="xtick_9">
     <g id="line2d_9">
      <g>
       <use xlink:href="#m01fc5d44c3" x="130.692168" y="172.799255" style="stroke: #000000; stroke-width: 0.6"/>
      </g>
     </g>
    </g>
    <g id="xtick_10">
     <g id="line2d_10">
      <g>
       <use xlink:href="#m01fc5d44c3" x="163.923244" y="172.799255" style="stroke: #000000; stroke-width: 0.6"/>
      </g>
     </g>
    </g>
    <g id="xtick_11">
     <g id="line2d_11">
      <g>
       <use xlink:href="#m01fc5d44c3" x="180.538782" y="172.799255" style="stroke: #000000; stroke-width: 0.6"/>
      </g>
     </g>
    </g>
    <g id="xtick_12">
     <g id="line2d_12">
      <g>
       <use xlink:href="#m01fc5d44c3" x="197.15432" y="172.799255" style="stroke: #000000; stroke-width: 0.6"/>
      </g>
     </g>
    </g>
    <g id="xtick_13">
     <g id="line2d_13">
      <g>
       <use xlink:href="#m01fc5d44c3" x="213.769859" y="172.799255" style="stroke: #000000; stroke-width: 0.6"/>
      </g>
     </g>
    </g>
    <g id="xtick_14">
     <g id="line2d_14">
      <g>
       <use xlink:href="#m01fc5d44c3" x="247.000935" y="172.799255" style="stroke: #000000; stroke-width: 0.6"/>
      </g>
     </g>
    </g>
    <g id="xtick_15">
     <g id="line2d_15">
      <g>
       <use xlink:href="#m01fc5d44c3" x="263.616473" y="172.799255" style="stroke: #000000; stroke-width: 0.6"/>
      </g>
     </g>
    </g>
    <g id="xtick_16">
     <g id="line2d_16">
      <g>
       <use xlink:href="#m01fc5d44c3" x="280.232012" y="172.799255" style="stroke: #000000; stroke-width: 0.6"/>
      </g>
     </g>
    </g>
    <g id="xtick_17">
     <g id="line2d_17">
      <g>
       <use xlink:href="#m01fc5d44c3" x="296.84755" y="172.799255" style="stroke: #000000; stroke-width: 0.6"/>
      </g>
     </g>
    </g>
    <g id="xtick_18">
     <g id="line2d_18">
      <g>
       <use xlink:href="#m01fc5d44c3" x="330.078626" y="172.799255" style="stroke: #000000; stroke-width: 0.6"/>
      </g>
     </g>
    </g>
    <g id="xtick_19">
     <g id="line2d_19">
      <g>
       <use xlink:href="#m01fc5d44c3" x="346.694165" y="172.799255" style="stroke: #000000; stroke-width: 0.6"/>
      </g>
     </g>
    </g>
    <g id="xtick_20">
     <g id="line2d_20">
      <g>
       <use xlink:href="#m01fc5d44c3" x="363.309703" y="172.799255" style="stroke: #000000; stroke-width: 0.6"/>
      </g>
     </g>
    </g>
    <g id="xtick_21">
     <g id="line2d_21">
      <g>
       <use xlink:href="#m01fc5d44c3" x="379.925241" y="172.799255" style="stroke: #000000; stroke-width: 0.6"/>
      </g>
     </g>
    </g>
   </g>
   <g id="matplotlib.axis_2">
    <g id="ytick_1">
     <g id="line2d_22">
      <defs>
       <path id="ma0bc7f9297" d="M 0 0 
L -3.5 0 
" style="stroke: #000000; stroke-width: 0.8"/>
      </defs>
      <g>
       <use xlink:href="#ma0bc7f9297" x="230.385397" y="338.954637" style="stroke: #000000; stroke-width: 0.8"/>
      </g>
     </g>
     <g id="text_5">
      <!-- −1.0 -->
      <g transform="translate(199.102584 342.753856) scale(0.1 -0.1)">
       <use xlink:href="#DejaVuSans-2212"/>
       <use xlink:href="#DejaVuSans-31" transform="translate(83.789062 0)"/>
       <use xlink:href="#DejaVuSans-2e" transform="translate(147.412109 0)"/>
       <use xlink:href="#DejaVuSans-30" transform="translate(179.199219 0)"/>
      </g>
     </g>
    </g>
    <g id="ytick_2">
     <g id="line2d_23">
      <g>
       <use xlink:href="#ma0bc7f9297" x="230.385397" y="255.876946" style="stroke: #000000; stroke-width: 0.8"/>
      </g>
     </g>
     <g id="text_6">
      <!-- −0.5 -->
      <g transform="translate(199.102584 259.676165) scale(0.1 -0.1)">
       <use xlink:href="#DejaVuSans-2212"/>
       <use xlink:href="#DejaVuSans-30" transform="translate(83.789062 0)"/>
       <use xlink:href="#DejaVuSans-2e" transform="translate(147.412109 0)"/>
       <use xlink:href="#DejaVuSans-35" transform="translate(179.199219 0)"/>
      </g>
     </g>
    </g>
    <g id="ytick_3">
     <g id="line2d_24">
      <g>
       <use xlink:href="#ma0bc7f9297" x="230.385397" y="172.799255" style="stroke: #000000; stroke-width: 0.8"/>
      </g>
     </g>
    </g>
    <g id="ytick_4">
     <g id="line2d_25">
      <g>
       <use xlink:href="#ma0bc7f9297" x="230.385397" y="89.721564" style="stroke: #000000; stroke-width: 0.8"/>
      </g>
     </g>
     <g id="text_7">
      <!-- 0.5 -->
      <g transform="translate(207.482272 93.520782) scale(0.1 -0.1)">
       <use xlink:href="#DejaVuSans-30"/>
       <use xlink:href="#DejaVuSans-2e" transform="translate(63.623047 0)"/>
       <use xlink:href="#DejaVuSans-35" transform="translate(95.410156 0)"/>
      </g>
     </g>
    </g>
    <g id="ytick_5">
     <g id="line2d_26">
      <g>
       <use xlink:href="#ma0bc7f9297" x="230.385397" y="6.643872" style="stroke: #000000; stroke-width: 0.8"/>
      </g>
     </g>
     <g id="text_8">
      <!-- 1.0 -->
      <g transform="translate(207.482272 10.443091) scale(0.1 -0.1)">
       <use xlink:href="#DejaVuSans-31"/>
       <use xlink:href="#DejaVuSans-2e" transform="translate(63.623047 0)"/>
       <use xlink:href="#DejaVuSans-30" transform="translate(95.410156 0)"/>
      </g>
     </g>
    </g>
    <g id="ytick_6">
     <g id="line2d_27">
      <defs>
       <path id="m9fc55c098d" d="M 0 0 
L -2 0 
" style="stroke: #000000; stroke-width: 0.6"/>
      </defs>
      <g>
       <use xlink:href="#m9fc55c098d" x="230.385397" y="322.339099" style="stroke: #000000; stroke-width: 0.6"/>
      </g>
     </g>
    </g>
    <g id="ytick_7">
     <g id="line2d_28">
      <g>
       <use xlink:href="#m9fc55c098d" x="230.385397" y="305.723561" style="stroke: #000000; stroke-width: 0.6"/>
      </g>
     </g>
    </g>
    <g id="ytick_8">
     <g id="line2d_29">
      <g>
       <use xlink:href="#m9fc55c098d" x="230.385397" y="289.108022" style="stroke: #000000; stroke-width: 0.6"/>
      </g>
     </g>
    </g>
    <g id="ytick_9">
     <g id="line2d_30">
      <g>
       <use xlink:href="#m9fc55c098d" x="230.385397" y="272.492484" style="stroke: #000000; stroke-width: 0.6"/>
      </g>
     </g>
    </g>
    <g id="ytick_10">
     <g id="line2d_31">
      <g>
       <use xlink:href="#m9fc55c098d" x="230.385397" y="239.261408" style="stroke: #000000; stroke-width: 0.6"/>
      </g>
     </g>
    </g>
    <g id="ytick_11">
     <g id="line2d_32">
      <g>
       <use xlink:href="#m9fc55c098d" x="230.385397" y="222.645869" style="stroke: #000000; stroke-width: 0.6"/>
      </g>
     </g>
    </g>
    <g id="ytick_12">
     <g id="line2d_33">
      <g>
       <use xlink:href="#m9fc55c098d" x="230.385397" y="206.030331" style="stroke: #000000; stroke-width: 0.6"/>
      </g>
     </g>
    </g>
    <g id="ytick_13">
     <g id="line2d_34">
      <g>
       <use xlink:href="#m9fc55c098d" x="230.385397" y="189.414793" style="stroke: #000000; stroke-width: 0.6"/>
      </g>
     </g>
    </g>
    <g id="ytick_14">
     <g id="line2d_35">
      <g>
       <use xlink:href="#m9fc55c098d" x="230.385397" y="156.183717" style="stroke: #000000; stroke-width: 0.6"/>
      </g>
     </g>
    </g>
    <g id="ytick_15">
     <g id="line2d_36">
      <g>
       <use xlink:href="#m9fc55c098d" x="230.385397" y="139.568178" style="stroke: #000000; stroke-width: 0.6"/>
      </g>
     </g>
    </g>
    <g id="ytick_16">
     <g id="line2d_37">
      <g>
       <use xlink:href="#m9fc55c098d" x="230.385397" y="122.95264" style="stroke: #000000; stroke-width: 0.6"/>
      </g>
     </g>
    </g>
    <g id="ytick_17">
     <g id="line2d_38">
      <g>
       <use xlink:href="#m9fc55c098d" x="230.385397" y="106.337102" style="stroke: #000000; stroke-width: 0.6"/>
      </g>
     </g>
    </g>
    <g id="ytick_18">
     <g id="line2d_39">
      <g>
       <use xlink:href="#m9fc55c098d" x="230.385397" y="73.106025" style="stroke: #000000; stroke-width: 0.6"/>
      </g>
     </g>
    </g>
    <g id="ytick_19">
     <g id="line2d_40">
      <g>
       <use xlink:href="#m9fc55c098d" x="230.385397" y="56.490487" style="stroke: #000000; stroke-width: 0.6"/>
      </g>
     </g>
    </g>
    <g id="ytick_20">
     <g id="line2d_41">
      <g>
       <use xlink:href="#m9fc55c098d" x="230.385397" y="39.874949" style="stroke: #000000; stroke-width: 0.6"/>
      </g>
     </g>
    </g>
    <g id="ytick_21">
     <g id="line2d_42">
      <g>
       <use xlink:href="#m9fc55c098d" x="230.385397" y="23.259411" style="stroke: #000000; stroke-width: 0.6"/>
      </g>
     </g>
    </g>
   </g>
   <g id="line2d_43">
    <path d="M 396.540779 172.799255 
L 396.3856 165.619858 
L 396.086462 160.520488 
L 395.421347 153.544486 
L 394.649076 147.798157 
L 393.233796 139.81426 
L 392.338668 135.667746 
L 390.333692 127.808656 
L 389.046975 123.462507 
L 387.586491 118.990082 
L 385.656335 113.650741 
L 383.223448 107.621489 
L 379.375738 99.250023 
L 376.046062 92.85814 
L 372.125808 86.097081 
L 368.25491 80.065181 
L 365.263778 75.766099 
L 361.142581 70.280135 
L 358.721129 67.264658 
L 354.909813 62.793433 
L 348.525107 55.963387 
L 342.014305 49.727739 
L 335.9886 44.519971 
L 327.925131 38.28676 
L 321.923898 34.133059 
L 317.635053 31.395193 
L 309.630088 26.758541 
L 304.869976 24.274312 
L 300.474084 22.150036 
L 294.300263 19.428785 
L 289.951893 17.688186 
L 281.264127 14.625408 
L 274.650055 12.648541 
L 270.44882 11.546245 
L 265.250265 10.342947 
L 257.648063 8.895752 
L 249.477112 7.744362 
L 245.962223 7.375636 
L 239.273099 6.881746 
L 229.514689 6.646154 
L 226.449986 6.690484 
L 219.312097 7.013269 
L 210.425694 7.847076 
L 204.549981 8.66473 
L 197.004015 10.031646 
L 189.644673 11.716033 
L 183.214245 13.480412 
L 174.40045 16.35982 
L 167.245782 19.108006 
L 161.40794 21.638011 
L 152.782185 25.87971 
L 146.31716 29.480929 
L 141.737948 32.267262 
L 135.972921 36.073634 
L 132.218886 38.743493 
L 123.843033 45.298919 
L 116.017649 52.268639 
L 109.58044 58.721328 
L 104.677423 64.147903 
L 101.428946 68.024043 
L 98.160938 72.179656 
L 94.971851 76.514351 
L 89.196777 85.201397 
L 86.954506 88.923212 
L 83.997534 94.197698 
L 81.72998 98.575417 
L 79.222202 103.826074 
L 77.45821 107.830904 
L 74.418184 115.511912 
L 72.572752 120.810984 
L 70.288943 128.33875 
L 68.215943 136.623584 
L 67.313944 140.935288 
L 66.526563 145.269389 
L 65.517831 152.152296 
L 64.89302 157.970755 
L 64.304988 167.808389 
L 64.259221 175.914484 
L 64.443236 181.214149 
L 64.817977 186.764944 
L 65.196684 190.696185 
L 66.496891 200.151925 
L 67.573199 205.962477 
L 69.210135 213.17432 
L 71.347082 220.907732 
L 73.435233 227.336004 
L 75.066704 231.822257 
L 76.650241 235.831888 
L 78.455669 240.067144 
L 80.484711 244.474882 
L 83.965177 251.340519 
L 85.783554 254.640063 
L 90.513033 262.483885 
L 93.144795 266.461564 
L 95.889639 270.362067 
L 99.694295 275.402603 
L 102.720063 279.143853 
L 106.47498 283.496227 
L 109.828506 287.139306 
L 113.447164 290.837641 
L 120.209106 297.172869 
L 124.310978 300.689163 
L 131.192407 306.097273 
L 137.681402 310.688995 
L 147.706467 316.923526 
L 152.473261 319.555209 
L 162.204251 324.32134 
L 166.359375 326.123355 
L 175.833595 329.744188 
L 182.001949 331.754132 
L 187.12336 333.223714 
L 193.474046 334.802845 
L 201.18269 336.36824 
L 210.231502 337.72782 
L 213.609783 338.105606 
L 218.474032 338.527136 
L 223.889196 338.827597 
L 231.767542 338.948888 
L 238.626033 338.75016 
L 244.536872 338.350899 
L 248.898423 337.920056 
L 253.227764 337.377009 
L 258.68562 336.526798 
L 267.056217 334.857461 
L 273.684553 333.2137 
L 283.063044 330.383126 
L 288.680095 328.392761 
L 294.174267 326.222171 
L 301.656946 322.892484 
L 306.683886 320.400581 
L 310.519015 318.354105 
L 315.291259 315.622942 
L 319.302611 313.160717 
L 325.85069 308.791861 
L 333.16638 303.350703 
L 339.892456 297.76251 
L 342.138446 295.758057 
L 346.878072 291.277387 
L 351.569346 286.474501 
L 357.81962 279.420687 
L 360.412672 276.242567 
L 366.864494 267.567747 
L 372.168771 259.431153 
L 376.375254 252.137598 
L 378.69807 247.70561 
L 382.067252 240.624221 
L 384.373937 235.210317 
L 385.974591 231.105461 
L 387.587394 226.605791 
L 390.851349 215.907136 
L 391.957533 211.55562 
L 393.28443 205.533275 
L 394.879381 196.237267 
L 395.752745 188.962525 
L 396.207884 183.311814 
L 396.49564 176.671997 
L 396.540779 172.799255 
L 396.540779 172.799255 
" clip-path="url(#p6045ab47ba)" style="fill: none; stroke: #0000ff; stroke-linecap: square"/>
   </g>
   <g id="patch_3">
    <path d="M 230.385397 345.6 
L 230.385397 0 
" style="fill: none; stroke: #000000; stroke-width: 0.8; stroke-linejoin: miter; stroke-linecap: square"/>
   </g>
   <g id="patch_4">
    <path d="M 57.61359 172.799255 
L 403.18641 172.799255 
" style="fill: none; stroke: #000000; stroke-width: 0.8; stroke-linejoin: miter; stroke-linecap: square"/>
   </g>
  </g>
 </g>
 <defs>
  <clipPath id="p6045ab47ba">
   <rect x="57.61359" y="0" width="345.572821" height="345.6"/>
  </clipPath>
 </defs>
</svg>
