<?xml version="1.0" encoding="utf-8" standalone="no"?>
<!DOCTYPE svg PUBLIC "-//W3C//DTD SVG 1.1//EN"
  "http://www.w3.org/Graphics/SVG/1.1/DTD/svg11.dtd">
<svg xmlns:xlink="http://www.w3.org/1999/xlink" width="576pt" height="216pt" viewBox="0 0 576 216" xmlns="http://www.w3.org/2000/svg" version="1.1">
 <metadata>
  <rdf:RDF xmlns:dc="http://purl.org/dc/elements/1.1/" xmlns:cc="http://creativecommons.org/ns#" xmlns:rdf="http://www.w3.org/1999/02/22-rdf-syntax-ns#">
   <cc:Work>
    <dc:type rdf:resource="http://purl.org/dc/dcmitype/StillImage"/>
    <dc:date>2025-08-02T15:58:31.872883</dc:date>
    <dc:format>image/svg+xml</dc:format>
    <dc:creator>
     <cc:Agent>
      <dc:title>Matplotlib v3.10.3, https://matplotlib.org/</dc:title>
     </cc:Agent>
    </dc:creator>
   </cc:Work>
  </rdf:RDF>
 </metadata>
 <defs>
  <style type="text/css">*{stroke-linejoin: round; stroke-linecap: butt}</style>
 </defs>
 <g id="figure_1">
  <g id="patch_1">
   <path d="M 0 216 
L 576 216 
L 576 0 
L 0 0 
z
" style="fill: #ffffff"/>
  </g>
  <g id="axes_1">
   <g id="patch_2">
    <path d="M 61.598754 203.307837 
L 157.00442 203.307837 
L 157.00442 12.641538 
L 61.598754 12.641538 
z
" style="fill: #ffffff"/>
   </g>
   <g id="matplotlib.axis_1"/>
   <g id="matplotlib.axis_2"/>
   <g id="patch_3">
    <path d="M 106.490204 192.532884 
Q 86.771858 153.80844 67.560829 116.080304 
" clip-path="url(#pc853056631)" style="fill: none; stroke: #000000; stroke-linecap: round"/>
    <path d="M 67.64278 127.260344 
L 67.560829 116.080304 
L 76.554031 122.722767 
z
" clip-path="url(#pc853056631)" style="stroke: #000000; stroke-linecap: round"/>
   </g>
   <g id="patch_4">
    <path d="M 110.052418 191.660083 
Q 109.780645 153.807816 109.5169 117.073554 
" clip-path="url(#pc853056631)" style="fill: none; stroke: #000000; stroke-linecap: round"/>
    <path d="M 104.588825 127.109194 
L 109.5169 117.073554 
L 114.588568 127.037398 
z
" clip-path="url(#pc853056631)" style="stroke: #000000; stroke-linecap: round"/>
   </g>
   <g id="patch_5">
    <path d="M 67.071499 100.871989 
Q 86.91022 62.139822 106.239251 24.40275 
" clip-path="url(#pc853056631)" style="fill: none; stroke: #000000; stroke-linecap: round"/>
    <path d="M 97.230235 31.02375 
L 106.239251 24.40275 
L 106.130642 35.582563 
z
" clip-path="url(#pc853056631)" style="stroke: #000000; stroke-linecap: round"/>
   </g>
   <g id="patch_6">
    <path d="M 109.532869 99.993593 
Q 109.918438 62.141326 110.29262 25.407035 
" clip-path="url(#pc853056631)" style="fill: none; stroke: #000000; stroke-linecap: round"/>
    <path d="M 105.191023 35.355588 
L 110.29262 25.407035 
L 115.190504 35.457445 
z
" clip-path="url(#pc853056631)" style="stroke: #000000; stroke-linecap: round"/>
   </g>
   <g id="patch_7">
    <path d="M 151.666814 100.804851 
Q 132.777827 62.142114 114.379622 24.483932 
" clip-path="url(#pc853056631)" style="fill: none; stroke: #000000; stroke-linecap: round"/>
    <path d="M 114.276815 35.6638 
L 114.379622 24.483932 
L 123.261832 31.274098 
z
" clip-path="url(#pc853056631)" style="stroke: #000000; stroke-linecap: round"/>
   </g>
   <g id="PathCollection_1">
    <defs>
     <path id="m174e0e8e23" d="M 0 7.071068 
C 1.875269 7.071068 3.673985 6.326016 5 5 
C 6.326016 3.673985 7.071068 1.875269 7.071068 0 
C 7.071068 -1.875269 6.326016 -3.673985 5 -5 
C 3.673985 -6.326016 1.875269 -7.071068 0 -7.071068 
C -1.875269 -7.071068 -3.673985 -6.326016 -5 -5 
C -6.326016 -3.673985 -7.071068 -1.875269 -7.071068 0 
C -7.071068 1.875269 -6.326016 3.673985 -5 5 
C -3.673985 6.326016 -1.875269 7.071068 0 7.071068 
z
" style="stroke: #000000"/>
    </defs>
    <g>
     <use xlink:href="#m174e0e8e23" x="110.10972" y="199.641177" style="fill: #fec7b8; stroke: #000000"/>
     <use xlink:href="#m174e0e8e23" x="63.433478" y="107.974688" style="fill: #fec7b8; stroke: #000000"/>
     <use xlink:href="#m174e0e8e23" x="109.451572" y="107.974688" style="fill: #fec7b8; stroke: #000000"/>
     <use xlink:href="#m174e0e8e23" x="155.169695" y="107.974688" style="fill: #fec7b8; stroke: #000000"/>
     <use xlink:href="#m174e0e8e23" x="110.385302" y="16.308198" style="fill: #fec7b8; stroke: #000000"/>
    </g>
   </g>
   <g id="text_1">
    <!-- {V1_inter_V2} -->
    <g transform="translate(73.894095 202.261489) scale(0.1 -0.1)">
     <defs>
      <path id="DejaVuSans-7b" d="M 3272 -594 
L 3272 -1044 
L 3078 -1044 
Q 2300 -1044 2036 -812 
Q 1772 -581 1772 109 
L 1772 856 
Q 1772 1328 1603 1509 
Q 1434 1691 991 1691 
L 800 1691 
L 800 2138 
L 991 2138 
Q 1438 2138 1605 2317 
Q 1772 2497 1772 2963 
L 1772 3713 
Q 1772 4403 2036 4633 
Q 2300 4863 3078 4863 
L 3272 4863 
L 3272 4416 
L 3059 4416 
Q 2619 4416 2484 4278 
Q 2350 4141 2350 3700 
L 2350 2925 
Q 2350 2434 2208 2212 
Q 2066 1991 1722 1913 
Q 2069 1828 2209 1606 
Q 2350 1384 2350 897 
L 2350 122 
Q 2350 -319 2484 -456 
Q 2619 -594 3059 -594 
L 3272 -594 
z
" transform="scale(0.015625)"/>
      <path id="DejaVuSans-56" d="M 1831 0 
L 50 4666 
L 709 4666 
L 2188 738 
L 3669 4666 
L 4325 4666 
L 2547 0 
L 1831 0 
z
" transform="scale(0.015625)"/>
      <path id="DejaVuSans-31" d="M 794 531 
L 1825 531 
L 1825 4091 
L 703 3866 
L 703 4441 
L 1819 4666 
L 2450 4666 
L 2450 531 
L 3481 531 
L 3481 0 
L 794 0 
L 794 531 
z
" transform="scale(0.015625)"/>
      <path id="DejaVuSans-5f" d="M 3263 -1063 
L 3263 -1509 
L -63 -1509 
L -63 -1063 
L 3263 -1063 
z
" transform="scale(0.015625)"/>
      <path id="DejaVuSans-69" d="M 603 3500 
L 1178 3500 
L 1178 0 
L 603 0 
L 603 3500 
z
M 603 4863 
L 1178 4863 
L 1178 4134 
L 603 4134 
L 603 4863 
z
" transform="scale(0.015625)"/>
      <path id="DejaVuSans-6e" d="M 3513 2113 
L 3513 0 
L 2938 0 
L 2938 2094 
Q 2938 2591 2744 2837 
Q 2550 3084 2163 3084 
Q 1697 3084 1428 2787 
Q 1159 2491 1159 1978 
L 1159 0 
L 581 0 
L 581 3500 
L 1159 3500 
L 1159 2956 
Q 1366 3272 1645 3428 
Q 1925 3584 2291 3584 
Q 2894 3584 3203 3211 
Q 3513 2838 3513 2113 
z
" transform="scale(0.015625)"/>
      <path id="DejaVuSans-74" d="M 1172 4494 
L 1172 3500 
L 2356 3500 
L 2356 3053 
L 1172 3053 
L 1172 1153 
Q 1172 725 1289 603 
Q 1406 481 1766 481 
L 2356 481 
L 2356 0 
L 1766 0 
Q 1100 0 847 248 
Q 594 497 594 1153 
L 594 3053 
L 172 3053 
L 172 3500 
L 594 3500 
L 594 4494 
L 1172 4494 
z
" transform="scale(0.015625)"/>
      <path id="DejaVuSans-65" d="M 3597 1894 
L 3597 1613 
L 953 1613 
Q 991 1019 1311 708 
Q 1631 397 2203 397 
Q 2534 397 2845 478 
Q 3156 559 3463 722 
L 3463 178 
Q 3153 47 2828 -22 
Q 2503 -91 2169 -91 
Q 1331 -91 842 396 
Q 353 884 353 1716 
Q 353 2575 817 3079 
Q 1281 3584 2069 3584 
Q 2775 3584 3186 3129 
Q 3597 2675 3597 1894 
z
M 3022 2063 
Q 3016 2534 2758 2815 
Q 2500 3097 2075 3097 
Q 1594 3097 1305 2825 
Q 1016 2553 972 2059 
L 3022 2063 
z
" transform="scale(0.015625)"/>
      <path id="DejaVuSans-72" d="M 2631 2963 
Q 2534 3019 2420 3045 
Q 2306 3072 2169 3072 
Q 1681 3072 1420 2755 
Q 1159 2438 1159 1844 
L 1159 0 
L 581 0 
L 581 3500 
L 1159 3500 
L 1159 2956 
Q 1341 3275 1631 3429 
Q 1922 3584 2338 3584 
Q 2397 3584 2469 3576 
Q 2541 3569 2628 3553 
L 2631 2963 
z
" transform="scale(0.015625)"/>
      <path id="DejaVuSans-32" d="M 1228 531 
L 3431 531 
L 3431 0 
L 469 0 
L 469 531 
Q 828 903 1448 1529 
Q 2069 2156 2228 2338 
Q 2531 2678 2651 2914 
Q 2772 3150 2772 3378 
Q 2772 3750 2511 3984 
Q 2250 4219 1831 4219 
Q 1534 4219 1204 4116 
Q 875 4013 500 3803 
L 500 4441 
Q 881 4594 1212 4672 
Q 1544 4750 1819 4750 
Q 2544 4750 2975 4387 
Q 3406 4025 3406 3419 
Q 3406 3131 3298 2873 
Q 3191 2616 2906 2266 
Q 2828 2175 2409 1742 
Q 1991 1309 1228 531 
z
" transform="scale(0.015625)"/>
      <path id="DejaVuSans-7d" d="M 800 -594 
L 1019 -594 
Q 1456 -594 1589 -459 
Q 1722 -325 1722 122 
L 1722 897 
Q 1722 1384 1862 1606 
Q 2003 1828 2350 1913 
Q 2003 1991 1862 2212 
Q 1722 2434 1722 2925 
L 1722 3700 
Q 1722 4144 1589 4280 
Q 1456 4416 1019 4416 
L 800 4416 
L 800 4863 
L 997 4863 
Q 1775 4863 2036 4633 
Q 2297 4403 2297 3713 
L 2297 2963 
Q 2297 2497 2465 2317 
Q 2634 2138 3078 2138 
L 3272 2138 
L 3272 1691 
L 3078 1691 
Q 2634 1691 2465 1509 
Q 2297 1328 2297 856 
L 2297 109 
Q 2297 -581 2036 -812 
Q 1775 -1044 997 -1044 
L 800 -1044 
L 800 -594 
z
" transform="scale(0.015625)"/>
     </defs>
     <use xlink:href="#DejaVuSans-7b"/>
     <use xlink:href="#DejaVuSans-56" transform="translate(63.623047 0)"/>
     <use xlink:href="#DejaVuSans-31" transform="translate(132.03125 0)"/>
     <use xlink:href="#DejaVuSans-5f" transform="translate(195.654297 0)"/>
     <use xlink:href="#DejaVuSans-69" transform="translate(245.654297 0)"/>
     <use xlink:href="#DejaVuSans-6e" transform="translate(273.4375 0)"/>
     <use xlink:href="#DejaVuSans-74" transform="translate(336.816406 0)"/>
     <use xlink:href="#DejaVuSans-65" transform="translate(376.025391 0)"/>
     <use xlink:href="#DejaVuSans-72" transform="translate(437.548828 0)"/>
     <use xlink:href="#DejaVuSans-5f" transform="translate(478.662109 0)"/>
     <use xlink:href="#DejaVuSans-56" transform="translate(528.662109 0)"/>
     <use xlink:href="#DejaVuSans-32" transform="translate(597.070312 0)"/>
     <use xlink:href="#DejaVuSans-7d" transform="translate(660.693359 0)"/>
    </g>
   </g>
   <g id="text_2">
    <!-- {V2} -->
    <g transform="translate(50.469416 110.734063) scale(0.1 -0.1)">
     <use xlink:href="#DejaVuSans-7b"/>
     <use xlink:href="#DejaVuSans-56" transform="translate(63.623047 0)"/>
     <use xlink:href="#DejaVuSans-32" transform="translate(132.03125 0)"/>
     <use xlink:href="#DejaVuSans-7d" transform="translate(195.654297 0)"/>
    </g>
   </g>
   <g id="text_3">
    <!-- {V1} -->
    <g transform="translate(96.48751 110.734063) scale(0.1 -0.1)">
     <use xlink:href="#DejaVuSans-7b"/>
     <use xlink:href="#DejaVuSans-56" transform="translate(63.623047 0)"/>
     <use xlink:href="#DejaVuSans-31" transform="translate(132.03125 0)"/>
     <use xlink:href="#DejaVuSans-7d" transform="translate(195.654297 0)"/>
    </g>
   </g>
   <g id="text_4">
    <!-- {U} -->
    <g transform="translate(145.14782 110.734063) scale(0.1 -0.1)">
     <defs>
      <path id="DejaVuSans-55" d="M 556 4666 
L 1191 4666 
L 1191 1831 
Q 1191 1081 1462 751 
Q 1734 422 2344 422 
Q 2950 422 3222 751 
Q 3494 1081 3494 1831 
L 3494 4666 
L 4128 4666 
L 4128 1753 
Q 4128 841 3676 375 
Q 3225 -91 2344 -91 
Q 1459 -91 1007 375 
Q 556 841 556 1753 
L 556 4666 
z
" transform="scale(0.015625)"/>
     </defs>
     <use xlink:href="#DejaVuSans-7b"/>
     <use xlink:href="#DejaVuSans-55" transform="translate(63.623047 0)"/>
     <use xlink:href="#DejaVuSans-7d" transform="translate(136.816406 0)"/>
    </g>
   </g>
   <g id="text_5">
    <!-- {M} -->
    <g transform="translate(99.70874 19.067573) scale(0.1 -0.1)">
     <defs>
      <path id="DejaVuSans-4d" d="M 628 4666 
L 1569 4666 
L 2759 1491 
L 3956 4666 
L 4897 4666 
L 4897 0 
L 4281 0 
L 4281 4097 
L 3078 897 
L 2444 897 
L 1241 4097 
L 1241 0 
L 628 0 
L 628 4666 
z
" transform="scale(0.015625)"/>
     </defs>
     <use xlink:href="#DejaVuSans-7b"/>
     <use xlink:href="#DejaVuSans-4d" transform="translate(63.623047 0)"/>
     <use xlink:href="#DejaVuSans-7d" transform="translate(149.902344 0)"/>
    </g>
   </g>
  </g>
  <g id="axes_2">
   <g id="patch_8">
    <path d="M 256.163344 203.307837 
L 319.836656 203.307837 
L 319.836656 12.641538 
L 256.163344 12.641538 
z
" style="fill: #ffffff"/>
   </g>
   <g id="matplotlib.axis_3"/>
   <g id="matplotlib.axis_4"/>
   <g id="patch_9">
    <path d="M 284.534579 192.513302 
Q 272.753149 169.085143 261.474015 146.655832 
" clip-path="url(#pf4626774b2)" style="fill: none; stroke: #000000; stroke-linecap: round"/>
    <path d="M 261.499698 157.836143 
L 261.474015 146.655832 
L 270.433673 153.343472 
z
" clip-path="url(#pf4626774b2)" style="stroke: #000000; stroke-linecap: round"/>
   </g>
   <g id="patch_10">
    <path d="M 291.683119 192.498382 
Q 303.366783 169.083286 314.551264 146.668598 
" clip-path="url(#pf4626774b2)" style="fill: none; stroke: #000000; stroke-linecap: round"/>
    <path d="M 305.612471 153.384101 
L 314.551264 146.668598 
L 314.560391 157.848934 
z
" clip-path="url(#pf4626774b2)" style="stroke: #000000; stroke-linecap: round"/>
   </g>
   <g id="patch_11">
    <path d="M 260.93828 131.387389 
Q 272.575517 107.975587 283.715105 85.564956 
" clip-path="url(#pf4626774b2)" style="fill: none; stroke: #000000; stroke-linecap: round"/>
    <path d="M 274.786615 92.294152 
L 283.715105 85.564956 
L 283.741368 96.745265 
z
" clip-path="url(#pf4626774b2)" style="stroke: #000000; stroke-linecap: round"/>
   </g>
   <g id="patch_12">
    <path d="M 315.017872 131.409769 
Q 303.188329 107.975077 291.862606 85.538466 
" clip-path="url(#pf4626774b2)" style="fill: none; stroke: #000000; stroke-linecap: round"/>
    <path d="M 291.905346 96.718724 
L 291.862606 85.538466 
L 300.832457 92.212429 
z
" clip-path="url(#pf4626774b2)" style="stroke: #000000; stroke-linecap: round"/>
   </g>
   <g id="patch_13">
    <path d="M 287.702362 69.440894 
Q 287.527674 46.865011 287.361637 25.407129 
" clip-path="url(#pf4626774b2)" style="fill: none; stroke: #000000; stroke-linecap: round"/>
    <path d="M 282.439163 35.445518 
L 287.361637 25.407129 
L 292.438863 35.368142 
z
" clip-path="url(#pf4626774b2)" style="stroke: #000000; stroke-linecap: round"/>
   </g>
   <g id="PathCollection_2">
    <g>
     <use xlink:href="#m174e0e8e23" x="288.119008" y="199.641177" style="fill: #fec7b8; stroke: #000000"/>
     <use xlink:href="#m174e0e8e23" x="257.387831" y="138.530184" style="fill: #fec7b8; stroke: #000000"/>
     <use xlink:href="#m174e0e8e23" x="318.612169" y="138.530184" style="fill: #fec7b8; stroke: #000000"/>
     <use xlink:href="#m174e0e8e23" x="287.764097" y="77.419191" style="fill: #fec7b8; stroke: #000000"/>
     <use xlink:href="#m174e0e8e23" x="287.291231" y="16.308198" style="fill: #fec7b8; stroke: #000000"/>
    </g>
   </g>
   <g id="text_6">
    <!-- {V1_inter_V2} -->
    <g transform="translate(251.903383 202.261489) scale(0.1 -0.1)">
     <use xlink:href="#DejaVuSans-7b"/>
     <use xlink:href="#DejaVuSans-56" transform="translate(63.623047 0)"/>
     <use xlink:href="#DejaVuSans-31" transform="translate(132.03125 0)"/>
     <use xlink:href="#DejaVuSans-5f" transform="translate(195.654297 0)"/>
     <use xlink:href="#DejaVuSans-69" transform="translate(245.654297 0)"/>
     <use xlink:href="#DejaVuSans-6e" transform="translate(273.4375 0)"/>
     <use xlink:href="#DejaVuSans-74" transform="translate(336.816406 0)"/>
     <use xlink:href="#DejaVuSans-65" transform="translate(376.025391 0)"/>
     <use xlink:href="#DejaVuSans-72" transform="translate(437.548828 0)"/>
     <use xlink:href="#DejaVuSans-5f" transform="translate(478.662109 0)"/>
     <use xlink:href="#DejaVuSans-56" transform="translate(528.662109 0)"/>
     <use xlink:href="#DejaVuSans-32" transform="translate(597.070312 0)"/>
     <use xlink:href="#DejaVuSans-7d" transform="translate(660.693359 0)"/>
    </g>
   </g>
   <g id="text_7">
    <!-- {V2} -->
    <g transform="translate(244.423768 141.289559) scale(0.1 -0.1)">
     <use xlink:href="#DejaVuSans-7b"/>
     <use xlink:href="#DejaVuSans-56" transform="translate(63.623047 0)"/>
     <use xlink:href="#DejaVuSans-32" transform="translate(132.03125 0)"/>
     <use xlink:href="#DejaVuSans-7d" transform="translate(195.654297 0)"/>
    </g>
   </g>
   <g id="text_8">
    <!-- {V1} -->
    <g transform="translate(305.648107 141.289559) scale(0.1 -0.1)">
     <use xlink:href="#DejaVuSans-7b"/>
     <use xlink:href="#DejaVuSans-56" transform="translate(63.623047 0)"/>
     <use xlink:href="#DejaVuSans-31" transform="translate(132.03125 0)"/>
     <use xlink:href="#DejaVuSans-7d" transform="translate(195.654297 0)"/>
    </g>
   </g>
   <g id="text_9">
    <!-- {U} -->
    <g transform="translate(277.742222 80.178566) scale(0.1 -0.1)">
     <use xlink:href="#DejaVuSans-7b"/>
     <use xlink:href="#DejaVuSans-55" transform="translate(63.623047 0)"/>
     <use xlink:href="#DejaVuSans-7d" transform="translate(136.816406 0)"/>
    </g>
   </g>
   <g id="text_10">
    <!-- {M} -->
    <g transform="translate(276.614669 19.067573) scale(0.1 -0.1)">
     <use xlink:href="#DejaVuSans-7b"/>
     <use xlink:href="#DejaVuSans-4d" transform="translate(63.623047 0)"/>
     <use xlink:href="#DejaVuSans-7d" transform="translate(149.902344 0)"/>
    </g>
   </g>
  </g>
  <g id="axes_3">
   <g id="patch_14">
    <path d="M 466.455287 203.307837 
L 466.94154 203.307837 
L 466.94154 12.641538 
L 466.455287 12.641538 
z
" style="fill: #ffffff"/>
   </g>
   <g id="matplotlib.axis_5"/>
   <g id="matplotlib.axis_6"/>
   <g id="patch_15">
    <path d="M 466.911835 191.660083 
Q 466.698414 107.974883 466.487844 25.407714 
" clip-path="url(#pe944ed586a)" style="fill: none; stroke: #000000; stroke-linecap: round"/>
    <path d="M 461.513363 35.420433 
L 466.487844 25.407714 
L 471.513331 35.394931 
z
" clip-path="url(#pe944ed586a)" style="stroke: #000000; stroke-linecap: round"/>
   </g>
   <g id="PathCollection_3">
    <g>
     <use xlink:href="#m174e0e8e23" x="466.932189" y="199.641177" style="fill: #fec7b8; stroke: #000000"/>
     <use xlink:href="#m174e0e8e23" x="466.464638" y="16.308198" style="fill: #fec7b8; stroke: #000000"/>
    </g>
   </g>
   <g id="text_11">
    <!-- {U, V1, V1_inter_V2, V2} -->
    <g transform="translate(404.319689 202.261489) scale(0.1 -0.1)">
     <defs>
      <path id="DejaVuSans-2c" d="M 750 794 
L 1409 794 
L 1409 256 
L 897 -744 
L 494 -744 
L 750 256 
L 750 794 
z
" transform="scale(0.015625)"/>
      <path id="DejaVuSans-20" transform="scale(0.015625)"/>
     </defs>
     <use xlink:href="#DejaVuSans-7b"/>
     <use xlink:href="#DejaVuSans-55" transform="translate(63.623047 0)"/>
     <use xlink:href="#DejaVuSans-2c" transform="translate(136.816406 0)"/>
     <use xlink:href="#DejaVuSans-20" transform="translate(168.603516 0)"/>
     <use xlink:href="#DejaVuSans-56" transform="translate(200.390625 0)"/>
     <use xlink:href="#DejaVuSans-31" transform="translate(268.798828 0)"/>
     <use xlink:href="#DejaVuSans-2c" transform="translate(332.421875 0)"/>
     <use xlink:href="#DejaVuSans-20" transform="translate(364.208984 0)"/>
     <use xlink:href="#DejaVuSans-56" transform="translate(395.996094 0)"/>
     <use xlink:href="#DejaVuSans-31" transform="translate(464.404297 0)"/>
     <use xlink:href="#DejaVuSans-5f" transform="translate(528.027344 0)"/>
     <use xlink:href="#DejaVuSans-69" transform="translate(578.027344 0)"/>
     <use xlink:href="#DejaVuSans-6e" transform="translate(605.810547 0)"/>
     <use xlink:href="#DejaVuSans-74" transform="translate(669.189453 0)"/>
     <use xlink:href="#DejaVuSans-65" transform="translate(708.398438 0)"/>
     <use xlink:href="#DejaVuSans-72" transform="translate(769.921875 0)"/>
     <use xlink:href="#DejaVuSans-5f" transform="translate(811.035156 0)"/>
     <use xlink:href="#DejaVuSans-56" transform="translate(861.035156 0)"/>
     <use xlink:href="#DejaVuSans-32" transform="translate(929.443359 0)"/>
     <use xlink:href="#DejaVuSans-2c" transform="translate(993.066406 0)"/>
     <use xlink:href="#DejaVuSans-20" transform="translate(1024.853516 0)"/>
     <use xlink:href="#DejaVuSans-56" transform="translate(1056.640625 0)"/>
     <use xlink:href="#DejaVuSans-32" transform="translate(1125.048828 0)"/>
     <use xlink:href="#DejaVuSans-7d" transform="translate(1188.671875 0)"/>
    </g>
   </g>
   <g id="text_12">
    <!-- {M} -->
    <g transform="translate(455.788076 19.067573) scale(0.1 -0.1)">
     <use xlink:href="#DejaVuSans-7b"/>
     <use xlink:href="#DejaVuSans-4d" transform="translate(63.623047 0)"/>
     <use xlink:href="#DejaVuSans-7d" transform="translate(149.902344 0)"/>
    </g>
   </g>
  </g>
 </g>
 <defs>
  <clipPath id="pc853056631">
   <rect x="61.598754" y="12.641538" width="95.405666" height="190.666298"/>
  </clipPath>
  <clipPath id="pf4626774b2">
   <rect x="256.163344" y="12.641538" width="63.673312" height="190.666298"/>
  </clipPath>
  <clipPath id="pe944ed586a">
   <rect x="466.455287" y="12.641538" width="0.486253" height="190.666298"/>
  </clipPath>
 </defs>
</svg>
