<?xml version="1.0" encoding="utf-8" standalone="no"?>
<!DOCTYPE svg PUBLIC "-//W3C//DTD SVG 1.1//EN"
  "http://www.w3.org/Graphics/SVG/1.1/DTD/svg11.dtd">
<svg xmlns:xlink="http://www.w3.org/1999/xlink" width="576pt" height="216pt" viewBox="0 0 576 216" xmlns="http://www.w3.org/2000/svg" version="1.1">
 <metadata>
  <rdf:RDF xmlns:dc="http://purl.org/dc/elements/1.1/" xmlns:cc="http://creativecommons.org/ns#" xmlns:rdf="http://www.w3.org/1999/02/22-rdf-syntax-ns#">
   <cc:Work>
    <dc:type rdf:resource="http://purl.org/dc/dcmitype/StillImage"/>
    <dc:date>2025-08-02T15:58:33.676455</dc:date>
    <dc:format>image/svg+xml</dc:format>
    <dc:creator>
     <cc:Agent>
      <dc:title>Matplotlib v3.10.3, https://matplotlib.org/</dc:title>
     </cc:Agent>
    </dc:creator>
   </cc:Work>
  </rdf:RDF>
 </metadata>
 <defs>
  <style type="text/css">*{stroke-linejoin: round; stroke-linecap: butt}</style>
 </defs>
 <g id="figure_1">
  <g id="patch_1">
   <path d="M 0 216 
L 576 216 
L 576 0 
L 0 0 
z
" style="fill: #ffffff"/>
  </g>
  <g id="axes_1">
   <g id="patch_2">
    <path d="M 58.422084 203.358462 
L 154.344919 203.358462 
L 154.344919 12.641538 
L 58.422084 12.641538 
z
" style="fill: #ffffff"/>
   </g>
   <g id="matplotlib.axis_1"/>
   <g id="matplotlib.axis_2"/>
   <g id="patch_3">
    <path d="M 62.195471 191.948259 
Q 83.107438 108.000033 103.749156 25.136687 
" clip-path="url(#p779ce8edea)" style="fill: none; stroke: #000000; stroke-linecap: round"/>
    <path d="M 96.480238 33.631557 
L 103.749156 25.136687 
L 106.183702 36.048744 
z
" clip-path="url(#p779ce8edea)" style="stroke: #000000; stroke-linecap: round"/>
   </g>
   <g id="patch_4">
    <path d="M 106.519283 191.713211 
Q 106.2467 108.000445 105.977759 25.405707 
" clip-path="url(#p779ce8edea)" style="fill: none; stroke: #000000; stroke-linecap: round"/>
    <path d="M 101.010347 35.421934 
L 105.977759 25.405707 
L 111.010294 35.389373 
z
" clip-path="url(#p779ce8edea)" style="stroke: #000000; stroke-linecap: round"/>
   </g>
   <g id="patch_5">
    <path d="M 150.53761 191.959451 
Q 129.224325 108.000515 108.186131 25.125242 
" clip-path="url(#p779ce8edea)" style="fill: none; stroke: #000000; stroke-linecap: round"/>
    <path d="M 105.80034 36.048062 
L 108.186131 25.125242 
L 115.492912 33.587567 
z
" clip-path="url(#p779ce8edea)" style="stroke: #000000; stroke-linecap: round"/>
   </g>
   <g id="PathCollection_1">
    <defs>
     <path id="m9b01bc4238" d="M 0 7.071068 
C 1.875269 7.071068 3.673985 6.326016 5 5 
C 6.326016 3.673985 7.071068 1.875269 7.071068 0 
C 7.071068 -1.875269 6.326016 -3.673985 5 -5 
C 3.673985 -6.326016 1.875269 -7.071068 0 -7.071068 
C -1.875269 -7.071068 -3.673985 -6.326016 -5 -5 
C -6.326016 -3.673985 -7.071068 -1.875269 -7.071068 0 
C -7.071068 1.875269 -6.326016 3.673985 -5 5 
C -3.673985 6.326016 -1.875269 7.071068 0 7.071068 
z
" style="stroke: #000000"/>
    </defs>
    <g>
     <use xlink:href="#m9b01bc4238" x="60.266754" y="199.690828" style="fill: #fec7b8; stroke: #000000"/>
     <use xlink:href="#m9b01bc4238" x="106.545259" y="199.690828" style="fill: #fec7b8; stroke: #000000"/>
     <use xlink:href="#m9b01bc4238" x="152.500249" y="199.690828" style="fill: #fec7b8; stroke: #000000"/>
     <use xlink:href="#m9b01bc4238" x="105.948139" y="16.309172" style="fill: #fec7b8; stroke: #000000"/>
    </g>
   </g>
   <g id="text_1">
    <!-- {W} -->
    <g transform="translate(48.960504 202.450203) scale(0.1 -0.1)">
     <defs>
      <path id="DejaVuSans-7b" d="M 3272 -594 
L 3272 -1044 
L 3078 -1044 
Q 2300 -1044 2036 -812 
Q 1772 -581 1772 109 
L 1772 856 
Q 1772 1328 1603 1509 
Q 1434 1691 991 1691 
L 800 1691 
L 800 2138 
L 991 2138 
Q 1438 2138 1605 2317 
Q 1772 2497 1772 2963 
L 1772 3713 
Q 1772 4403 2036 4633 
Q 2300 4863 3078 4863 
L 3272 4863 
L 3272 4416 
L 3059 4416 
Q 2619 4416 2484 4278 
Q 2350 4141 2350 3700 
L 2350 2925 
Q 2350 2434 2208 2212 
Q 2066 1991 1722 1913 
Q 2069 1828 2209 1606 
Q 2350 1384 2350 897 
L 2350 122 
Q 2350 -319 2484 -456 
Q 2619 -594 3059 -594 
L 3272 -594 
z
" transform="scale(0.015625)"/>
      <path id="DejaVuSans-57" d="M 213 4666 
L 850 4666 
L 1831 722 
L 2809 4666 
L 3519 4666 
L 4500 722 
L 5478 4666 
L 6119 4666 
L 4947 0 
L 4153 0 
L 3169 4050 
L 2175 0 
L 1381 0 
L 213 4666 
z
" transform="scale(0.015625)"/>
      <path id="DejaVuSans-7d" d="M 800 -594 
L 1019 -594 
Q 1456 -594 1589 -459 
Q 1722 -325 1722 122 
L 1722 897 
Q 1722 1384 1862 1606 
Q 2003 1828 2350 1913 
Q 2003 1991 1862 2212 
Q 1722 2434 1722 2925 
L 1722 3700 
Q 1722 4144 1589 4280 
Q 1456 4416 1019 4416 
L 800 4416 
L 800 4863 
L 997 4863 
Q 1775 4863 2036 4633 
Q 2297 4403 2297 3713 
L 2297 2963 
Q 2297 2497 2465 2317 
Q 2634 2138 3078 2138 
L 3272 2138 
L 3272 1691 
L 3078 1691 
Q 2634 1691 2465 1509 
Q 2297 1328 2297 856 
L 2297 109 
Q 2297 -581 2036 -812 
Q 1775 -1044 997 -1044 
L 800 -1044 
L 800 -594 
z
" transform="scale(0.015625)"/>
     </defs>
     <use xlink:href="#DejaVuSans-7b"/>
     <use xlink:href="#DejaVuSans-57" transform="translate(63.623047 0)"/>
     <use xlink:href="#DejaVuSans-7d" transform="translate(162.5 0)"/>
    </g>
   </g>
   <g id="text_2">
    <!-- {V} -->
    <g transform="translate(96.762446 202.450203) scale(0.1 -0.1)">
     <defs>
      <path id="DejaVuSans-56" d="M 1831 0 
L 50 4666 
L 709 4666 
L 2188 738 
L 3669 4666 
L 4325 4666 
L 2547 0 
L 1831 0 
z
" transform="scale(0.015625)"/>
     </defs>
     <use xlink:href="#DejaVuSans-7b"/>
     <use xlink:href="#DejaVuSans-56" transform="translate(63.623047 0)"/>
     <use xlink:href="#DejaVuSans-7d" transform="translate(132.03125 0)"/>
    </g>
   </g>
   <g id="text_3">
    <!-- {U} -->
    <g transform="translate(142.478374 202.450203) scale(0.1 -0.1)">
     <defs>
      <path id="DejaVuSans-55" d="M 556 4666 
L 1191 4666 
L 1191 1831 
Q 1191 1081 1462 751 
Q 1734 422 2344 422 
Q 2950 422 3222 751 
Q 3494 1081 3494 1831 
L 3494 4666 
L 4128 4666 
L 4128 1753 
Q 4128 841 3676 375 
Q 3225 -91 2344 -91 
Q 1459 -91 1007 375 
Q 556 841 556 1753 
L 556 4666 
z
" transform="scale(0.015625)"/>
     </defs>
     <use xlink:href="#DejaVuSans-7b"/>
     <use xlink:href="#DejaVuSans-55" transform="translate(63.623047 0)"/>
     <use xlink:href="#DejaVuSans-7d" transform="translate(136.816406 0)"/>
    </g>
   </g>
   <g id="text_4">
    <!-- {M} -->
    <g transform="translate(95.271577 19.068547) scale(0.1 -0.1)">
     <defs>
      <path id="DejaVuSans-4d" d="M 628 4666 
L 1569 4666 
L 2759 1491 
L 3956 4666 
L 4897 4666 
L 4897 0 
L 4281 0 
L 4281 4097 
L 3078 897 
L 2444 897 
L 1241 4097 
L 1241 0 
L 628 0 
L 628 4666 
z
" transform="scale(0.015625)"/>
     </defs>
     <use xlink:href="#DejaVuSans-7b"/>
     <use xlink:href="#DejaVuSans-4d" transform="translate(63.623047 0)"/>
     <use xlink:href="#DejaVuSans-7d" transform="translate(149.902344 0)"/>
    </g>
   </g>
  </g>
  <g id="axes_2">
   <g id="patch_6">
    <path d="M 255.871136 203.358462 
L 320.128864 203.358462 
L 320.128864 12.641538 
L 255.871136 12.641538 
z
" style="fill: #ffffff"/>
   </g>
   <g id="matplotlib.axis_3"/>
   <g id="matplotlib.axis_4"/>
   <g id="patch_7">
    <path d="M 257.495935 191.713211 
Q 257.319939 153.845808 257.149139 117.096426 
" clip-path="url(#p5b2dc1d4d9)" style="fill: none; stroke: #000000; stroke-linecap: round"/>
    <path d="M 252.195669 127.119557 
L 257.149139 117.096426 
L 262.195561 127.07308 
z
" clip-path="url(#p5b2dc1d4d9)" style="stroke: #000000; stroke-linecap: round"/>
   </g>
   <g id="patch_8">
    <path d="M 314.433771 193.073128 
Q 288.000027 153.845454 262.191062 115.544953 
" clip-path="url(#p5b2dc1d4d9)" style="fill: none; stroke: #000000; stroke-linecap: round"/>
    <path d="M 263.632818 126.631942 
L 262.191062 115.544953 
L 271.925707 121.043742 
z
" clip-path="url(#p5b2dc1d4d9)" style="stroke: #000000; stroke-linecap: round"/>
   </g>
   <g id="patch_9">
    <path d="M 259.660478 100.44211 
Q 272.596259 62.156334 285.174159 24.929766 
" clip-path="url(#p5b2dc1d4d9)" style="fill: none; stroke: #000000; stroke-linecap: round"/>
    <path d="M 277.236266 32.803129 
L 285.174159 24.929766 
L 286.710114 36.004099 
z
" clip-path="url(#p5b2dc1d4d9)" style="stroke: #000000; stroke-linecap: round"/>
   </g>
   <g id="patch_10">
    <path d="M 315.661519 100.419725 
Q 303.116671 62.154403 290.920119 24.951479 
" clip-path="url(#p5b2dc1d4d9)" style="fill: none; stroke: #000000; stroke-linecap: round"/>
    <path d="M 289.284175 36.011483 
L 290.920119 24.951479 
L 298.786556 32.896236 
z
" clip-path="url(#p5b2dc1d4d9)" style="stroke: #000000; stroke-linecap: round"/>
   </g>
   <g id="PathCollection_2">
    <g>
     <use xlink:href="#m9b01bc4238" x="257.533012" y="199.690828" style="fill: #fec7b8; stroke: #000000"/>
     <use xlink:href="#m9b01bc4238" x="318.893138" y="199.690828" style="fill: #fec7b8; stroke: #000000"/>
     <use xlink:href="#m9b01bc4238" x="257.106862" y="108" style="fill: #fec7b8; stroke: #000000"/>
     <use xlink:href="#m9b01bc4238" x="318.146626" y="108" style="fill: #fec7b8; stroke: #000000"/>
     <use xlink:href="#m9b01bc4238" x="288.086837" y="16.309172" style="fill: #fec7b8; stroke: #000000"/>
    </g>
   </g>
   <g id="text_5">
    <!-- {W} -->
    <g transform="translate(246.226762 202.450203) scale(0.1 -0.1)">
     <use xlink:href="#DejaVuSans-7b"/>
     <use xlink:href="#DejaVuSans-57" transform="translate(63.623047 0)"/>
     <use xlink:href="#DejaVuSans-7d" transform="translate(162.5 0)"/>
    </g>
   </g>
   <g id="text_6">
    <!-- {V} -->
    <g transform="translate(309.110326 202.450203) scale(0.1 -0.1)">
     <use xlink:href="#DejaVuSans-7b"/>
     <use xlink:href="#DejaVuSans-56" transform="translate(63.623047 0)"/>
     <use xlink:href="#DejaVuSans-7d" transform="translate(132.03125 0)"/>
    </g>
   </g>
   <g id="text_7">
    <!-- {V_union_W} -->
    <g transform="translate(223.425612 110.620312) scale(0.1 -0.1)">
     <defs>
      <path id="DejaVuSans-5f" d="M 3263 -1063 
L 3263 -1509 
L -63 -1509 
L -63 -1063 
L 3263 -1063 
z
" transform="scale(0.015625)"/>
      <path id="DejaVuSans-75" d="M 544 1381 
L 544 3500 
L 1119 3500 
L 1119 1403 
Q 1119 906 1312 657 
Q 1506 409 1894 409 
Q 2359 409 2629 706 
Q 2900 1003 2900 1516 
L 2900 3500 
L 3475 3500 
L 3475 0 
L 2900 0 
L 2900 538 
Q 2691 219 2414 64 
Q 2138 -91 1772 -91 
Q 1169 -91 856 284 
Q 544 659 544 1381 
z
M 1991 3584 
L 1991 3584 
z
" transform="scale(0.015625)"/>
      <path id="DejaVuSans-6e" d="M 3513 2113 
L 3513 0 
L 2938 0 
L 2938 2094 
Q 2938 2591 2744 2837 
Q 2550 3084 2163 3084 
Q 1697 3084 1428 2787 
Q 1159 2491 1159 1978 
L 1159 0 
L 581 0 
L 581 3500 
L 1159 3500 
L 1159 2956 
Q 1366 3272 1645 3428 
Q 1925 3584 2291 3584 
Q 2894 3584 3203 3211 
Q 3513 2838 3513 2113 
z
" transform="scale(0.015625)"/>
      <path id="DejaVuSans-69" d="M 603 3500 
L 1178 3500 
L 1178 0 
L 603 0 
L 603 3500 
z
M 603 4863 
L 1178 4863 
L 1178 4134 
L 603 4134 
L 603 4863 
z
" transform="scale(0.015625)"/>
      <path id="DejaVuSans-6f" d="M 1959 3097 
Q 1497 3097 1228 2736 
Q 959 2375 959 1747 
Q 959 1119 1226 758 
Q 1494 397 1959 397 
Q 2419 397 2687 759 
Q 2956 1122 2956 1747 
Q 2956 2369 2687 2733 
Q 2419 3097 1959 3097 
z
M 1959 3584 
Q 2709 3584 3137 3096 
Q 3566 2609 3566 1747 
Q 3566 888 3137 398 
Q 2709 -91 1959 -91 
Q 1206 -91 779 398 
Q 353 888 353 1747 
Q 353 2609 779 3096 
Q 1206 3584 1959 3584 
z
" transform="scale(0.015625)"/>
     </defs>
     <use xlink:href="#DejaVuSans-7b"/>
     <use xlink:href="#DejaVuSans-56" transform="translate(63.623047 0)"/>
     <use xlink:href="#DejaVuSans-5f" transform="translate(132.03125 0)"/>
     <use xlink:href="#DejaVuSans-75" transform="translate(182.03125 0)"/>
     <use xlink:href="#DejaVuSans-6e" transform="translate(245.410156 0)"/>
     <use xlink:href="#DejaVuSans-69" transform="translate(308.789062 0)"/>
     <use xlink:href="#DejaVuSans-6f" transform="translate(336.572266 0)"/>
     <use xlink:href="#DejaVuSans-6e" transform="translate(397.753906 0)"/>
     <use xlink:href="#DejaVuSans-5f" transform="translate(461.132812 0)"/>
     <use xlink:href="#DejaVuSans-57" transform="translate(511.132812 0)"/>
     <use xlink:href="#DejaVuSans-7d" transform="translate(610.009766 0)"/>
    </g>
   </g>
   <g id="text_8">
    <!-- {U} -->
    <g transform="translate(308.124751 110.759375) scale(0.1 -0.1)">
     <use xlink:href="#DejaVuSans-7b"/>
     <use xlink:href="#DejaVuSans-55" transform="translate(63.623047 0)"/>
     <use xlink:href="#DejaVuSans-7d" transform="translate(136.816406 0)"/>
    </g>
   </g>
   <g id="text_9">
    <!-- {M} -->
    <g transform="translate(277.410274 19.068547) scale(0.1 -0.1)">
     <use xlink:href="#DejaVuSans-7b"/>
     <use xlink:href="#DejaVuSans-4d" transform="translate(63.623047 0)"/>
     <use xlink:href="#DejaVuSans-7d" transform="translate(149.902344 0)"/>
    </g>
   </g>
  </g>
  <g id="axes_3">
   <g id="patch_11">
    <path d="M 437.129102 203.358462 
L 502.103896 203.358462 
L 502.103896 12.641538 
L 437.129102 12.641538 
z
" style="fill: #ffffff"/>
   </g>
   <g id="matplotlib.axis_5"/>
   <g id="matplotlib.axis_6"/>
   <g id="patch_12">
    <path d="M 442.818776 101.354318 
Q 468.881304 62.155118 494.324814 23.886949 
" clip-path="url(#p64645cad97)" style="fill: none; stroke: #000000; stroke-linecap: round"/>
    <path d="M 484.624458 29.446004 
L 494.324814 23.886949 
L 492.951844 34.982667 
z
" clip-path="url(#p64645cad97)" style="stroke: #000000; stroke-linecap: round"/>
   </g>
   <g id="patch_13">
    <path d="M 442.964129 193.056339 
Q 469.146703 153.846789 494.7084 115.56703 
" clip-path="url(#p64645cad97)" style="fill: none; stroke: #000000; stroke-linecap: round"/>
    <path d="M 484.996952 121.106686 
L 494.7084 115.56703 
L 493.313255 126.659982 
z
" clip-path="url(#p64645cad97)" style="stroke: #000000; stroke-linecap: round"/>
   </g>
   <g id="patch_14">
    <path d="M 500.759281 191.713211 
Q 500.307875 153.845808 499.869796 117.096359 
" clip-path="url(#p64645cad97)" style="fill: none; stroke: #000000; stroke-linecap: round"/>
    <path d="M 494.98935 127.155248 
L 499.869796 117.096359 
L 504.988639 127.036049 
z
" clip-path="url(#p64645cad97)" style="stroke: #000000; stroke-linecap: round"/>
   </g>
   <g id="patch_15">
    <path d="M 495.323625 101.371107 
Q 469.071191 62.156381 443.440722 23.87072 
" clip-path="url(#p64645cad97)" style="fill: none; stroke: #000000; stroke-linecap: round"/>
    <path d="M 444.848846 34.962031 
L 443.440722 23.87072 
L 453.158646 29.399007 
z
" clip-path="url(#p64645cad97)" style="stroke: #000000; stroke-linecap: round"/>
   </g>
   <g id="patch_16">
    <path d="M 499.726708 100.022383 
Q 499.562222 62.15498 499.402593 25.4056 
" clip-path="url(#p64645cad97)" style="fill: none; stroke: #000000; stroke-linecap: round"/>
    <path d="M 494.446077 35.427224 
L 499.402593 25.4056 
L 504.445983 35.383787 
z
" clip-path="url(#p64645cad97)" style="stroke: #000000; stroke-linecap: round"/>
   </g>
   <g id="PathCollection_3">
    <g>
     <use xlink:href="#m9b01bc4238" x="438.400235" y="108" style="fill: #fec7b8; stroke: #000000"/>
     <use xlink:href="#m9b01bc4238" x="499.761361" y="108" style="fill: #fec7b8; stroke: #000000"/>
     <use xlink:href="#m9b01bc4238" x="438.533882" y="199.690828" style="fill: #fec7b8; stroke: #000000"/>
     <use xlink:href="#m9b01bc4238" x="500.85438" y="199.690828" style="fill: #fec7b8; stroke: #000000"/>
     <use xlink:href="#m9b01bc4238" x="438.378617" y="16.309172" style="fill: #fec7b8; stroke: #000000"/>
     <use xlink:href="#m9b01bc4238" x="499.363081" y="16.309172" style="fill: #fec7b8; stroke: #000000"/>
    </g>
   </g>
   <g id="text_10">
    <!-- {U} -->
    <g transform="translate(428.37836 110.759375) scale(0.1 -0.1)">
     <use xlink:href="#DejaVuSans-7b"/>
     <use xlink:href="#DejaVuSans-55" transform="translate(63.623047 0)"/>
     <use xlink:href="#DejaVuSans-7d" transform="translate(136.816406 0)"/>
    </g>
   </g>
   <g id="text_11">
    <!-- {W} -->
    <g transform="translate(427.227632 202.450203) scale(0.1 -0.1)">
     <use xlink:href="#DejaVuSans-7b"/>
     <use xlink:href="#DejaVuSans-57" transform="translate(63.623047 0)"/>
     <use xlink:href="#DejaVuSans-7d" transform="translate(162.5 0)"/>
    </g>
   </g>
   <g id="text_12">
    <!-- {V} -->
    <g transform="translate(491.071568 202.450203) scale(0.1 -0.1)">
     <use xlink:href="#DejaVuSans-7b"/>
     <use xlink:href="#DejaVuSans-56" transform="translate(63.623047 0)"/>
     <use xlink:href="#DejaVuSans-7d" transform="translate(132.03125 0)"/>
    </g>
   </g>
   <g id="text_13">
    <!-- {V_union_W} -->
    <g transform="translate(466.080111 110.620312) scale(0.1 -0.1)">
     <use xlink:href="#DejaVuSans-7b"/>
     <use xlink:href="#DejaVuSans-56" transform="translate(63.623047 0)"/>
     <use xlink:href="#DejaVuSans-5f" transform="translate(132.03125 0)"/>
     <use xlink:href="#DejaVuSans-75" transform="translate(182.03125 0)"/>
     <use xlink:href="#DejaVuSans-6e" transform="translate(245.410156 0)"/>
     <use xlink:href="#DejaVuSans-69" transform="translate(308.789062 0)"/>
     <use xlink:href="#DejaVuSans-6f" transform="translate(336.572266 0)"/>
     <use xlink:href="#DejaVuSans-6e" transform="translate(397.753906 0)"/>
     <use xlink:href="#DejaVuSans-5f" transform="translate(461.132812 0)"/>
     <use xlink:href="#DejaVuSans-57" transform="translate(511.132812 0)"/>
     <use xlink:href="#DejaVuSans-7d" transform="translate(610.009766 0)"/>
    </g>
   </g>
   <g id="text_14">
    <!-- [{V}, {W}] -->
    <g transform="translate(410.209867 19.068547) scale(0.1 -0.1)">
     <defs>
      <path id="DejaVuSans-5b" d="M 550 4863 
L 1875 4863 
L 1875 4416 
L 1125 4416 
L 1125 -397 
L 1875 -397 
L 1875 -844 
L 550 -844 
L 550 4863 
z
" transform="scale(0.015625)"/>
      <path id="DejaVuSans-2c" d="M 750 794 
L 1409 794 
L 1409 256 
L 897 -744 
L 494 -744 
L 750 256 
L 750 794 
z
" transform="scale(0.015625)"/>
      <path id="DejaVuSans-20" transform="scale(0.015625)"/>
      <path id="DejaVuSans-5d" d="M 1947 4863 
L 1947 -844 
L 622 -844 
L 622 -397 
L 1369 -397 
L 1369 4416 
L 622 4416 
L 622 4863 
L 1947 4863 
z
" transform="scale(0.015625)"/>
     </defs>
     <use xlink:href="#DejaVuSans-5b"/>
     <use xlink:href="#DejaVuSans-7b" transform="translate(39.013672 0)"/>
     <use xlink:href="#DejaVuSans-56" transform="translate(102.636719 0)"/>
     <use xlink:href="#DejaVuSans-7d" transform="translate(171.044922 0)"/>
     <use xlink:href="#DejaVuSans-2c" transform="translate(234.667969 0)"/>
     <use xlink:href="#DejaVuSans-20" transform="translate(266.455078 0)"/>
     <use xlink:href="#DejaVuSans-7b" transform="translate(298.242188 0)"/>
     <use xlink:href="#DejaVuSans-57" transform="translate(361.865234 0)"/>
     <use xlink:href="#DejaVuSans-7d" transform="translate(460.742188 0)"/>
     <use xlink:href="#DejaVuSans-5d" transform="translate(524.365234 0)"/>
    </g>
   </g>
   <g id="text_15">
    <!-- {M} -->
    <g transform="translate(488.686518 19.068547) scale(0.1 -0.1)">
     <use xlink:href="#DejaVuSans-7b"/>
     <use xlink:href="#DejaVuSans-4d" transform="translate(63.623047 0)"/>
     <use xlink:href="#DejaVuSans-7d" transform="translate(149.902344 0)"/>
    </g>
   </g>
  </g>
 </g>
 <defs>
  <clipPath id="p779ce8edea">
   <rect x="58.422084" y="12.641538" width="95.922835" height="190.716923"/>
  </clipPath>
  <clipPath id="p5b2dc1d4d9">
   <rect x="255.871136" y="12.641538" width="64.257728" height="190.716923"/>
  </clipPath>
  <clipPath id="p64645cad97">
   <rect x="437.129102" y="12.641538" width="64.974794" height="190.716923"/>
  </clipPath>
 </defs>
</svg>
