<?xml version="1.0" encoding="utf-8" standalone="no"?>
<!DOCTYPE svg PUBLIC "-//W3C//DTD SVG 1.1//EN"
  "http://www.w3.org/Graphics/SVG/1.1/DTD/svg11.dtd">
<svg xmlns:xlink="http://www.w3.org/1999/xlink" width="576pt" height="360pt" viewBox="0 0 576 360" xmlns="http://www.w3.org/2000/svg" version="1.1">
 <metadata>
  <rdf:RDF xmlns:dc="http://purl.org/dc/elements/1.1/" xmlns:cc="http://creativecommons.org/ns#" xmlns:rdf="http://www.w3.org/1999/02/22-rdf-syntax-ns#">
   <cc:Work>
    <dc:type rdf:resource="http://purl.org/dc/dcmitype/StillImage"/>
    <dc:date>2025-08-01T20:10:26.578441</dc:date>
    <dc:format>image/svg+xml</dc:format>
    <dc:creator>
     <cc:Agent>
      <dc:title>Matplotlib v3.10.3, https://matplotlib.org/</dc:title>
     </cc:Agent>
    </dc:creator>
   </cc:Work>
  </rdf:RDF>
 </metadata>
 <defs>
  <style type="text/css">*{stroke-linejoin: round; stroke-linecap: butt}</style>
 </defs>
 <g id="figure_1">
  <g id="patch_1">
   <path d="M 0 360 
L 576 360 
L 576 0 
L 0 0 
z
" style="fill: #ffffff"/>
  </g>
  <g id="axes_1">
   <g id="patch_2">
    <path d="M 69.698016 349.2 
L 250.538087 349.2 
L 250.538087 10.8 
L 69.698016 10.8 
z
" style="fill: #ffffff"/>
   </g>
   <g id="patch_3">
    <path d="M 126.504364 199.358716 
Q 114.66463 175.469947 92.710741 188.527961 
" clip-path="url(#p591552fad8)" style="fill: none; stroke: #000000; stroke-linecap: round"/>
    <path d="M 103.861357 187.713254 
L 92.710741 188.527961 
L 98.749345 179.118643 
z
" clip-path="url(#p591552fad8)" style="stroke: #000000; stroke-linecap: round"/>
   </g>
   <g id="patch_4">
    <path d="M 121.394131 213.986682 
Q 99.440242 227.044696 87.600507 203.155927 
" clip-path="url(#p591552fad8)" style="fill: none; stroke: #000000; stroke-linecap: round"/>
    <path d="M 110.243514 214.801389 
L 121.394131 213.986682 
L 115.355526 223.396 
z
" clip-path="url(#p591552fad8)" style="stroke: #000000; stroke-linecap: round"/>
   </g>
   <g id="patch_5">
    <path d="M 135.888508 216.985963 
Q 147.996317 238.217753 125.692566 245.038877 
" clip-path="url(#p591552fad8)" style="fill: none; stroke: #000000; stroke-linecap: round"/>
    <path d="M 136.717639 246.895697 
L 125.692566 245.038877 
L 133.793066 237.332911 
z
" clip-path="url(#p591552fad8)" style="stroke: #000000; stroke-linecap: round"/>
   </g>
   <g id="patch_6">
    <path d="M 120.318777 211.55709 
Q 98.015026 218.378214 110.122835 239.610004 
" clip-path="url(#p591552fad8)" style="fill: none; stroke: #000000; stroke-linecap: round"/>
    <path d="M 109.293705 209.70027 
L 120.318777 211.55709 
L 112.218278 219.263056 
z
" clip-path="url(#p591552fad8)" style="stroke: #000000; stroke-linecap: round"/>
   </g>
   <g id="patch_7">
    <path d="M 92.616034 197.438823 
Q 122.275533 207.584203 117.007 237.350187 
" clip-path="url(#p591552fad8)" style="fill: none; stroke: #000000; stroke-linecap: round"/>
    <path d="M 123.673366 228.374689 
L 117.007 237.350187 
L 113.826421 226.631795 
z
" clip-path="url(#p591552fad8)" style="stroke: #000000; stroke-linecap: round"/>
   </g>
   <g id="patch_8">
    <path d="M 81.228857 205.142899 
Q 75.960324 234.908883 105.619823 245.054263 
" clip-path="url(#p591552fad8)" style="fill: none; stroke: #000000; stroke-linecap: round"/>
    <path d="M 74.562491 214.118396 
L 81.228857 205.142899 
L 84.409435 215.86129 
z
" clip-path="url(#p591552fad8)" style="stroke: #000000; stroke-linecap: round"/>
   </g>
   <g id="matplotlib.axis_1"/>
   <g id="matplotlib.axis_2"/>
   <g id="patch_9">
    <path d="M 188.552688 96.668191 
Q 168.352845 126.917003 148.773898 156.236036 
" clip-path="url(#p591552fad8)" style="fill: none; stroke: #000000; stroke-linecap: round"/>
    <path d="M 158.485458 150.696579 
L 148.773898 156.236036 
L 150.169268 145.143113 
z
" clip-path="url(#p591552fad8)" style="stroke: #000000; stroke-linecap: round"/>
   </g>
   <g id="patch_10">
    <path d="M 139.687175 176.189572 
Q 136.772917 186.890802 133.564884 198.67078 
" clip-path="url(#p591552fad8)" style="fill: none; stroke: #000000; stroke-linecap: round"/>
    <path d="M 132.235269 184.524385 
L 139.687175 176.189572 
L 141.883881 187.151984 
z
" clip-path="url(#p591552fad8)" style="stroke: #000000; stroke-linecap: round"/>
   </g>
   <g id="patch_11">
    <path d="M 132.605677 170.30671 
Q 112.885173 179.839362 92.15807 189.858591 
" clip-path="url(#p591552fad8)" style="fill: none; stroke: #000000; stroke-linecap: round"/>
    <path d="M 121.426338 170.157146 
L 132.605677 170.30671 
L 125.778422 179.160443 
z
" clip-path="url(#p591552fad8)" style="stroke: #000000; stroke-linecap: round"/>
   </g>
   <g id="patch_12">
    <path d="M 139.10136 176.012565 
Q 128.838409 206.880024 118.222715 238.808413 
" clip-path="url(#p591552fad8)" style="fill: none; stroke: #000000; stroke-linecap: round"/>
    <path d="M 131.20171 183.924298 
L 139.10136 176.012565 
L 140.690956 187.079325 
z
" clip-path="url(#p591552fad8)" style="stroke: #000000; stroke-linecap: round"/>
   </g>
   <g id="patch_13">
    <path d="M 114.124944 258.23127 
Q 111.054885 290.495265 108.090734 321.646253 
" clip-path="url(#p591552fad8)" style="fill: none; stroke: #000000; stroke-linecap: round"/>
    <path d="M 114.015515 312.164852 
L 108.090734 321.646253 
L 104.060482 311.217587 
z
" clip-path="url(#p591552fad8)" style="stroke: #000000; stroke-linecap: round"/>
   </g>
   <g id="patch_14">
    <path d="M 200.492057 79.277778 
Q 215.585723 57.828919 231.322811 35.465725 
" clip-path="url(#p591552fad8)" style="fill: none; stroke: #000000; stroke-linecap: round"/>
    <path d="M 210.336027 73.977188 
L 200.492057 79.277778 
L 202.157968 68.222248 
z
" clip-path="url(#p591552fad8)" style="stroke: #000000; stroke-linecap: round"/>
   </g>
   <g id="patch_15">
    <path d="M 194.100036 98.350145 
C 196.749145 98.350145 199.29011 97.297643 201.163313 95.42444 
C 203.036516 93.551237 204.089018 91.010272 204.089018 88.361163 
C 204.089018 85.712054 203.036516 83.171089 201.163313 81.297886 
C 199.29011 79.424683 196.749145 78.37218 194.100036 78.37218 
C 191.450927 78.37218 188.909961 79.424683 187.036758 81.297886 
C 185.163555 83.171089 184.111053 85.712054 184.111053 88.361163 
C 184.111053 91.010272 185.163555 93.551237 187.036758 95.42444 
C 188.909961 97.297643 191.450927 98.350145 194.100036 98.350145 
z
" style="fill: #fec7b8; stroke: #000000; stroke-linejoin: miter"/>
   </g>
   <g id="patch_16">
    <path d="M 237.071411 37.285657 
C 239.72052 37.285657 242.261485 36.233155 244.134688 34.359952 
C 246.007891 32.486749 247.060393 29.945784 247.060393 27.296675 
C 247.060393 24.647566 246.007891 22.106601 244.134688 20.233398 
C 242.261485 18.360195 239.72052 17.307692 237.071411 17.307692 
C 234.422301 17.307692 231.881336 18.360195 230.008133 20.233398 
C 228.13493 22.106601 227.082428 24.647566 227.082428 27.296675 
C 227.082428 29.945784 228.13493 32.486749 230.008133 34.359952 
C 231.881336 36.233155 234.422301 37.285657 237.071411 37.285657 
z
" style="fill: #fec7b8; stroke: #000000; stroke-linejoin: miter"/>
   </g>
   <g id="patch_17">
    <path d="M 142.605654 175.461825 
C 145.254763 175.461825 147.795728 174.409323 149.668931 172.53612 
C 151.542134 170.662917 152.594637 168.121952 152.594637 165.472843 
C 152.594637 162.823733 151.542134 160.282768 149.668931 158.409565 
C 147.795728 156.536362 145.254763 155.48386 142.605654 155.48386 
C 139.956545 155.48386 137.41558 156.536362 135.542377 158.409565 
C 133.669174 160.282768 132.616672 162.823733 132.616672 165.472843 
C 132.616672 168.121952 133.669174 170.662917 135.542377 172.53612 
C 137.41558 174.409323 139.956545 175.461825 142.605654 175.461825 
z
" style="fill: #fec7b8; stroke: #000000; stroke-linejoin: miter"/>
   </g>
   <g id="patch_18">
    <path d="M 115.071164 258.276188 
C 117.720273 258.276188 120.261239 257.223685 122.134442 255.350482 
C 124.007645 253.477279 125.060147 250.936314 125.060147 248.287205 
C 125.060147 245.638096 124.007645 243.097131 122.134442 241.223928 
C 120.261239 239.350725 117.720273 238.298222 115.071164 238.298222 
C 112.422055 238.298222 109.88109 239.350725 108.007887 241.223928 
C 106.134684 243.097131 105.082182 245.638096 105.082182 248.287205 
C 105.082182 250.936314 106.134684 253.477279 108.007887 255.350482 
C 109.88109 257.223685 112.422055 258.276188 115.071164 258.276188 
z
" style="fill: #fec7b8; stroke: #000000; stroke-linejoin: miter"/>
   </g>
   <g id="patch_19">
    <path d="M 83.164692 204.194863 
C 85.813802 204.194863 88.354767 203.142361 90.22797 201.269158 
C 92.101173 199.395955 93.153675 196.85499 93.153675 194.205881 
C 93.153675 191.556772 92.101173 189.015807 90.22797 187.142604 
C 88.354767 185.2694 85.813802 184.216898 83.164692 184.216898 
C 80.515583 184.216898 77.974618 185.2694 76.101415 187.142604 
C 74.228212 189.015807 73.17571 191.556772 73.17571 194.205881 
C 73.17571 196.85499 74.228212 199.395955 76.101415 201.269158 
C 77.974618 203.142361 80.515583 204.194863 83.164692 204.194863 
z
" style="fill: #fec7b8; stroke: #000000; stroke-linejoin: miter"/>
   </g>
   <g id="patch_20">
    <path d="M 130.940179 218.297745 
C 133.589288 218.297745 136.130253 217.245242 138.003456 215.372039 
C 139.876659 213.498836 140.929162 210.957871 140.929162 208.308762 
C 140.929162 205.659653 139.876659 203.118688 138.003456 201.245485 
C 136.130253 199.372282 133.589288 198.319779 130.940179 198.319779 
C 128.29107 198.319779 125.750105 199.372282 123.876902 201.245485 
C 122.003699 203.118688 120.951197 205.659653 120.951197 208.308762 
C 120.951197 210.957871 122.003699 213.498836 123.876902 215.372039 
C 125.750105 217.245242 128.29107 218.297745 130.940179 218.297745 
z
" style="fill: #fec7b8; stroke: #000000; stroke-linejoin: miter"/>
   </g>
   <g id="patch_21">
    <path d="M 107.038606 342.692308 
C 109.687715 342.692308 112.22868 341.639805 114.101883 339.766602 
C 115.975087 337.893399 117.027589 335.352434 117.027589 332.703325 
C 117.027589 330.054216 115.975087 327.513251 114.101883 325.640048 
C 112.22868 323.766845 109.687715 322.714343 107.038606 322.714343 
C 104.389497 322.714343 101.848532 323.766845 99.975329 325.640048 
C 98.102126 327.513251 97.049624 330.054216 97.049624 332.703325 
C 97.049624 335.352434 98.102126 337.893399 99.975329 339.766602 
C 101.848532 341.639805 104.389497 342.692308 107.038606 342.692308 
z
" style="fill: #fec7b8; stroke: #000000; stroke-linejoin: miter"/>
   </g>
   <g id="text_1">
    <!-- {B} -->
    <g transform="translate(184.307067 91.120538) scale(0.1 -0.1)">
     <defs>
      <path id="DejaVuSans-7b" d="M 3272 -594 
L 3272 -1044 
L 3078 -1044 
Q 2300 -1044 2036 -812 
Q 1772 -581 1772 109 
L 1772 856 
Q 1772 1328 1603 1509 
Q 1434 1691 991 1691 
L 800 1691 
L 800 2138 
L 991 2138 
Q 1438 2138 1605 2317 
Q 1772 2497 1772 2963 
L 1772 3713 
Q 1772 4403 2036 4633 
Q 2300 4863 3078 4863 
L 3272 4863 
L 3272 4416 
L 3059 4416 
Q 2619 4416 2484 4278 
Q 2350 4141 2350 3700 
L 2350 2925 
Q 2350 2434 2208 2212 
Q 2066 1991 1722 1913 
Q 2069 1828 2209 1606 
Q 2350 1384 2350 897 
L 2350 122 
Q 2350 -319 2484 -456 
Q 2619 -594 3059 -594 
L 3272 -594 
z
" transform="scale(0.015625)"/>
      <path id="DejaVuSans-42" d="M 1259 2228 
L 1259 519 
L 2272 519 
Q 2781 519 3026 730 
Q 3272 941 3272 1375 
Q 3272 1813 3026 2020 
Q 2781 2228 2272 2228 
L 1259 2228 
z
M 1259 4147 
L 1259 2741 
L 2194 2741 
Q 2656 2741 2882 2914 
Q 3109 3088 3109 3444 
Q 3109 3797 2882 3972 
Q 2656 4147 2194 4147 
L 1259 4147 
z
M 628 4666 
L 2241 4666 
Q 2963 4666 3353 4366 
Q 3744 4066 3744 3513 
Q 3744 3084 3544 2831 
Q 3344 2578 2956 2516 
Q 3422 2416 3680 2098 
Q 3938 1781 3938 1306 
Q 3938 681 3513 340 
Q 3088 0 2303 0 
L 628 0 
L 628 4666 
z
" transform="scale(0.015625)"/>
      <path id="DejaVuSans-7d" d="M 800 -594 
L 1019 -594 
Q 1456 -594 1589 -459 
Q 1722 -325 1722 122 
L 1722 897 
Q 1722 1384 1862 1606 
Q 2003 1828 2350 1913 
Q 2003 1991 1862 2212 
Q 1722 2434 1722 2925 
L 1722 3700 
Q 1722 4144 1589 4280 
Q 1456 4416 1019 4416 
L 800 4416 
L 800 4863 
L 997 4863 
Q 1775 4863 2036 4633 
Q 2297 4403 2297 3713 
L 2297 2963 
Q 2297 2497 2465 2317 
Q 2634 2138 3078 2138 
L 3272 2138 
L 3272 1691 
L 3078 1691 
Q 2634 1691 2465 1509 
Q 2297 1328 2297 856 
L 2297 109 
Q 2297 -581 2036 -812 
Q 1775 -1044 997 -1044 
L 800 -1044 
L 800 -594 
z
" transform="scale(0.015625)"/>
     </defs>
     <use xlink:href="#DejaVuSans-7b"/>
     <use xlink:href="#DejaVuSans-42" transform="translate(63.623047 0)"/>
     <use xlink:href="#DejaVuSans-7d" transform="translate(132.226562 0)"/>
    </g>
   </g>
   <g id="text_2">
    <!-- {M} -->
    <g transform="translate(131.929092 168.232218) scale(0.1 -0.1)">
     <defs>
      <path id="DejaVuSans-4d" d="M 628 4666 
L 1569 4666 
L 2759 1491 
L 3956 4666 
L 4897 4666 
L 4897 0 
L 4281 0 
L 4281 4097 
L 3078 897 
L 2444 897 
L 1241 4097 
L 1241 0 
L 628 0 
L 628 4666 
z
" transform="scale(0.015625)"/>
     </defs>
     <use xlink:href="#DejaVuSans-7b"/>
     <use xlink:href="#DejaVuSans-4d" transform="translate(63.623047 0)"/>
     <use xlink:href="#DejaVuSans-7d" transform="translate(149.902344 0)"/>
    </g>
   </g>
   <g id="text_3">
    <!-- {AA} -->
    <g transform="translate(117.599554 211.068137) scale(0.1 -0.1)">
     <defs>
      <path id="DejaVuSans-41" d="M 2188 4044 
L 1331 1722 
L 3047 1722 
L 2188 4044 
z
M 1831 4666 
L 2547 4666 
L 4325 0 
L 3669 0 
L 3244 1197 
L 1141 1197 
L 716 0 
L 50 0 
L 1831 4666 
z
" transform="scale(0.015625)"/>
     </defs>
     <use xlink:href="#DejaVuSans-7b"/>
     <use xlink:href="#DejaVuSans-41" transform="translate(63.623047 0)"/>
     <use xlink:href="#DejaVuSans-41" transform="translate(134.78125 0)"/>
     <use xlink:href="#DejaVuSans-7d" transform="translate(203.189453 0)"/>
    </g>
   </g>
   <g id="text_4">
    <!-- {AD} -->
    <g transform="translate(69.53188 196.965256) scale(0.1 -0.1)">
     <defs>
      <path id="DejaVuSans-44" d="M 1259 4147 
L 1259 519 
L 2022 519 
Q 2988 519 3436 956 
Q 3884 1394 3884 2338 
Q 3884 3275 3436 3711 
Q 2988 4147 2022 4147 
L 1259 4147 
z
M 628 4666 
L 1925 4666 
Q 3281 4666 3915 4102 
Q 4550 3538 4550 2338 
Q 4550 1131 3912 565 
Q 3275 0 1925 0 
L 628 0 
L 628 4666 
z
" transform="scale(0.015625)"/>
     </defs>
     <use xlink:href="#DejaVuSans-7b"/>
     <use xlink:href="#DejaVuSans-41" transform="translate(63.623047 0)"/>
     <use xlink:href="#DejaVuSans-44" transform="translate(132.03125 0)"/>
     <use xlink:href="#DejaVuSans-7d" transform="translate(209.033203 0)"/>
    </g>
   </g>
   <g id="text_5">
    <!-- {A} -->
    <g transform="translate(105.288352 251.04658) scale(0.1 -0.1)">
     <use xlink:href="#DejaVuSans-7b"/>
     <use xlink:href="#DejaVuSans-41" transform="translate(63.623047 0)"/>
     <use xlink:href="#DejaVuSans-7d" transform="translate(132.03125 0)"/>
    </g>
   </g>
   <g id="text_6">
    <!-- [] -->
    <g transform="translate(103.137044 335.4627) scale(0.1 -0.1)">
     <defs>
      <path id="DejaVuSans-5b" d="M 550 4863 
L 1875 4863 
L 1875 4416 
L 1125 4416 
L 1125 -397 
L 1875 -397 
L 1875 -844 
L 550 -844 
L 550 4863 
z
" transform="scale(0.015625)"/>
      <path id="DejaVuSans-5d" d="M 1947 4863 
L 1947 -844 
L 622 -844 
L 622 -397 
L 1369 -397 
L 1369 4416 
L 622 4416 
L 622 4863 
L 1947 4863 
z
" transform="scale(0.015625)"/>
     </defs>
     <use xlink:href="#DejaVuSans-5b"/>
     <use xlink:href="#DejaVuSans-5d" transform="translate(39.013672 0)"/>
    </g>
   </g>
   <g id="text_7">
    <!-- b -->
    <g transform="translate(233.897192 30.05605) scale(0.1 -0.1)">
     <defs>
      <path id="DejaVuSans-62" d="M 3116 1747 
Q 3116 2381 2855 2742 
Q 2594 3103 2138 3103 
Q 1681 3103 1420 2742 
Q 1159 2381 1159 1747 
Q 1159 1113 1420 752 
Q 1681 391 2138 391 
Q 2594 391 2855 752 
Q 3116 1113 3116 1747 
z
M 1159 2969 
Q 1341 3281 1617 3432 
Q 1894 3584 2278 3584 
Q 2916 3584 3314 3078 
Q 3713 2572 3713 1747 
Q 3713 922 3314 415 
Q 2916 -91 2278 -91 
Q 1894 -91 1617 61 
Q 1341 213 1159 525 
L 1159 0 
L 581 0 
L 581 4863 
L 1159 4863 
L 1159 2969 
z
" transform="scale(0.015625)"/>
     </defs>
     <use xlink:href="#DejaVuSans-62"/>
    </g>
   </g>
  </g>
  <g id="axes_2">
   <g id="patch_22">
    <path d="M 358.207468 349.2 
L 473.556429 349.2 
L 473.556429 10.8 
L 358.207468 10.8 
z
" style="fill: #ffffff"/>
   </g>
   <g id="matplotlib.axis_3"/>
   <g id="matplotlib.axis_4"/>
   <g id="patch_23">
    <path d="M 361.159997 172.021285 
Q 360.811781 98.651782 360.468871 26.4003 
" clip-path="url(#p0b929b1b20)" style="fill: none; stroke: #000000; stroke-linecap: round"/>
    <path d="M 355.516387 36.423918 
L 360.468871 26.4003 
L 365.516275 36.376458 
z
" clip-path="url(#p0b929b1b20)" style="stroke: #000000; stroke-linecap: round"/>
   </g>
   <g id="patch_24">
    <path d="M 365.594024 173.344451 
Q 414.927779 98.655805 463.645332 24.900055 
" clip-path="url(#p0b929b1b20)" style="fill: none; stroke: #000000; stroke-linecap: round"/>
    <path d="M 453.961817 30.488395 
L 463.645332 24.900055 
L 462.305895 35.999871 
z
" clip-path="url(#p0b929b1b20)" style="stroke: #000000; stroke-linecap: round"/>
   </g>
   <g id="patch_25">
    <path d="M 418.999146 335.133133 
Q 443.89325 261.346895 468.429944 188.620024 
" clip-path="url(#p0b929b1b20)" style="fill: none; stroke: #000000; stroke-linecap: round"/>
    <path d="M 460.495535 196.496898 
L 468.429944 188.620024 
L 469.970798 199.693676 
z
" clip-path="url(#p0b929b1b20)" style="stroke: #000000; stroke-linecap: round"/>
   </g>
   <g id="patch_26">
    <path d="M 471.206851 172.021285 
Q 469.999197 98.651782 468.809942 26.400162 
" clip-path="url(#p0b929b1b20)" style="fill: none; stroke: #000000; stroke-linecap: round"/>
    <path d="M 463.975196 36.481096 
L 468.809942 26.400162 
L 473.973842 36.316519 
z
" clip-path="url(#p0b929b1b20)" style="stroke: #000000; stroke-linecap: round"/>
   </g>
   <g id="PathCollection_1">
    <defs>
     <path id="m611d8b70a4" d="M 0 7.071068 
C 1.875269 7.071068 3.673985 6.326016 5 5 
C 6.326016 3.673985 7.071068 1.875269 7.071068 0 
C 7.071068 -1.875269 6.326016 -3.673985 5 -5 
C 3.673985 -6.326016 1.875269 -7.071068 0 -7.071068 
C -1.875269 -7.071068 -3.673985 -6.326016 -5 -5 
C -6.326016 -3.673985 -7.071068 -1.875269 -7.071068 0 
C -7.071068 1.875269 -6.326016 3.673985 -5 5 
C -3.673985 6.326016 -1.875269 7.071068 0 7.071068 
z
" style="stroke: #000000"/>
    </defs>
    <g>
     <use xlink:href="#m611d8b70a4" x="361.197864" y="180" style="fill: #fec7b8; stroke: #000000"/>
     <use xlink:href="#m611d8b70a4" x="471.33818" y="180" style="fill: #fec7b8; stroke: #000000"/>
     <use xlink:href="#m611d8b70a4" x="360.425717" y="17.307692" style="fill: #fec7b8; stroke: #000000"/>
     <use xlink:href="#m611d8b70a4" x="468.660281" y="17.307692" style="fill: #fec7b8; stroke: #000000"/>
     <use xlink:href="#m611d8b70a4" x="416.448821" y="342.692308" style="fill: #fec7b8; stroke: #000000"/>
    </g>
   </g>
   <g id="text_8">
    <!-- {A, AA, AD} -->
    <g transform="translate(330.810364 182.759375) scale(0.1 -0.1)">
     <defs>
      <path id="DejaVuSans-2c" d="M 750 794 
L 1409 794 
L 1409 256 
L 897 -744 
L 494 -744 
L 750 256 
L 750 794 
z
" transform="scale(0.015625)"/>
      <path id="DejaVuSans-20" transform="scale(0.015625)"/>
     </defs>
     <use xlink:href="#DejaVuSans-7b"/>
     <use xlink:href="#DejaVuSans-41" transform="translate(63.623047 0)"/>
     <use xlink:href="#DejaVuSans-2c" transform="translate(132.03125 0)"/>
     <use xlink:href="#DejaVuSans-20" transform="translate(163.818359 0)"/>
     <use xlink:href="#DejaVuSans-41" transform="translate(195.605469 0)"/>
     <use xlink:href="#DejaVuSans-41" transform="translate(266.763672 0)"/>
     <use xlink:href="#DejaVuSans-2c" transform="translate(335.171875 0)"/>
     <use xlink:href="#DejaVuSans-20" transform="translate(366.958984 0)"/>
     <use xlink:href="#DejaVuSans-41" transform="translate(398.746094 0)"/>
     <use xlink:href="#DejaVuSans-44" transform="translate(467.154297 0)"/>
     <use xlink:href="#DejaVuSans-7d" transform="translate(544.15625 0)"/>
    </g>
   </g>
   <g id="text_9">
    <!-- [] -->
    <g transform="translate(356.524154 20.067067) scale(0.1 -0.1)">
     <use xlink:href="#DejaVuSans-5b"/>
     <use xlink:href="#DejaVuSans-5d" transform="translate(39.013672 0)"/>
    </g>
   </g>
   <g id="text_10">
    <!-- b -->
    <g transform="translate(413.274602 345.451683) scale(0.1 -0.1)">
     <use xlink:href="#DejaVuSans-62"/>
    </g>
   </g>
   <g id="text_11">
    <!-- {B} -->
    <g transform="translate(461.545211 182.759375) scale(0.1 -0.1)">
     <use xlink:href="#DejaVuSans-7b"/>
     <use xlink:href="#DejaVuSans-42" transform="translate(63.623047 0)"/>
     <use xlink:href="#DejaVuSans-7d" transform="translate(132.226562 0)"/>
    </g>
   </g>
   <g id="text_12">
    <!-- {M} -->
    <g transform="translate(457.983719 20.067067) scale(0.1 -0.1)">
     <use xlink:href="#DejaVuSans-7b"/>
     <use xlink:href="#DejaVuSans-4d" transform="translate(63.623047 0)"/>
     <use xlink:href="#DejaVuSans-7d" transform="translate(149.902344 0)"/>
    </g>
   </g>
  </g>
 </g>
 <defs>
  <clipPath id="p591552fad8">
   <rect x="69.698016" y="10.8" width="180.840071" height="338.4"/>
  </clipPath>
  <clipPath id="p0b929b1b20">
   <rect x="358.207468" y="10.8" width="115.348962" height="338.4"/>
  </clipPath>
 </defs>
</svg>
