<?xml version="1.0" encoding="utf-8" standalone="no"?>
<!DOCTYPE svg PUBLIC "-//W3C//DTD SVG 1.1//EN"
  "http://www.w3.org/Graphics/SVG/1.1/DTD/svg11.dtd">
<svg xmlns:xlink="http://www.w3.org/1999/xlink" width="576pt" height="216pt" viewBox="0 0 576 216" xmlns="http://www.w3.org/2000/svg" version="1.1">
 <metadata>
  <rdf:RDF xmlns:dc="http://purl.org/dc/elements/1.1/" xmlns:cc="http://creativecommons.org/ns#" xmlns:rdf="http://www.w3.org/1999/02/22-rdf-syntax-ns#">
   <cc:Work>
    <dc:type rdf:resource="http://purl.org/dc/dcmitype/StillImage"/>
    <dc:date>2025-08-03T20:15:10.963086</dc:date>
    <dc:format>image/svg+xml</dc:format>
    <dc:creator>
     <cc:Agent>
      <dc:title>Matplotlib v3.10.3, https://matplotlib.org/</dc:title>
     </cc:Agent>
    </dc:creator>
   </cc:Work>
  </rdf:RDF>
 </metadata>
 <defs>
  <style type="text/css">*{stroke-linejoin: round; stroke-linecap: butt}</style>
 </defs>
 <g id="figure_1">
  <g id="patch_1">
   <path d="M 0 216 
L 576 216 
L 576 0 
L 0 0 
z
" style="fill: #ffffff"/>
  </g>
  <g id="axes_1">
   <g id="patch_2">
    <path d="M 62.449828 203.358462 
L 156.998742 203.358462 
L 156.998742 12.641538 
L 62.449828 12.641538 
z
" style="fill: #ffffff"/>
   </g>
   <g id="matplotlib.axis_1"/>
   <g id="matplotlib.axis_2"/>
   <g id="patch_3">
    <path d="M 109.4307 191.713211 
Q 109.988086 108.000445 110.538029 25.405688 
" clip-path="url(#p280e0320f9)" style="fill: none; stroke: #000000; stroke-linecap: round"/>
    <path d="M 105.471558 35.372175 
L 110.538029 25.405688 
L 115.471336 35.438757 
z
" clip-path="url(#p280e0320f9)" style="stroke: #000000; stroke-linecap: round"/>
   </g>
   <g id="patch_4">
    <path d="M 108.370025 25.130119 
Q 87.433406 107.999726 66.222925 191.953307 
" clip-path="url(#p280e0320f9)" style="fill: none; stroke: #000000; stroke-linecap: round"/>
    <path d="M 101.072858 33.600736 
L 108.370025 25.130119 
L 110.768218 36.050223 
z
" clip-path="url(#p280e0320f9)" style="stroke: #000000; stroke-linecap: round"/>
   </g>
   <g id="patch_5">
    <path d="M 112.747725 25.149325 
Q 132.889654 108.000451 153.295696 191.937967 
" clip-path="url(#p280e0320f9)" style="fill: none; stroke: #000000; stroke-linecap: round"/>
    <path d="M 110.251531 36.047444 
L 112.747725 25.149325 
L 119.968504 33.685152 
z
" clip-path="url(#p280e0320f9)" style="stroke: #000000; stroke-linecap: round"/>
   </g>
   <g id="PathCollection_1">
    <defs>
     <path id="m312556a028" d="M 0 7.071068 
C 1.875269 7.071068 3.673985 6.326016 5 5 
C 6.326016 3.673985 7.071068 1.875269 7.071068 0 
C 7.071068 -1.875269 6.326016 -3.673985 5 -5 
C 3.673985 -6.326016 1.875269 -7.071068 0 -7.071068 
C -1.875269 -7.071068 -3.673985 -6.326016 -5 -5 
C -6.326016 -3.673985 -7.071068 -1.875269 -7.071068 0 
C -7.071068 1.875269 -6.326016 3.673985 -5 5 
C -3.673985 6.326016 -1.875269 7.071068 0 7.071068 
z
" style="stroke: #000000"/>
    </defs>
    <g>
     <use xlink:href="#m312556a028" x="64.268076" y="199.690828" style="fill: #fec7b8; stroke: #000000"/>
     <use xlink:href="#m312556a028" x="109.377582" y="199.690828" style="fill: #fec7b8; stroke: #000000"/>
     <use xlink:href="#m312556a028" x="155.180493" y="199.690828" style="fill: #fec7b8; stroke: #000000"/>
     <use xlink:href="#m312556a028" x="110.598596" y="16.309172" style="fill: #fec7b8; stroke: #000000"/>
    </g>
   </g>
   <g id="text_1">
    <!-- {V} -->
    <g transform="translate(99.59477 202.450203) scale(0.1 -0.1)">
     <defs>
      <path id="DejaVuSans-7b" d="M 3272 -594 
L 3272 -1044 
L 3078 -1044 
Q 2300 -1044 2036 -812 
Q 1772 -581 1772 109 
L 1772 856 
Q 1772 1328 1603 1509 
Q 1434 1691 991 1691 
L 800 1691 
L 800 2138 
L 991 2138 
Q 1438 2138 1605 2317 
Q 1772 2497 1772 2963 
L 1772 3713 
Q 1772 4403 2036 4633 
Q 2300 4863 3078 4863 
L 3272 4863 
L 3272 4416 
L 3059 4416 
Q 2619 4416 2484 4278 
Q 2350 4141 2350 3700 
L 2350 2925 
Q 2350 2434 2208 2212 
Q 2066 1991 1722 1913 
Q 2069 1828 2209 1606 
Q 2350 1384 2350 897 
L 2350 122 
Q 2350 -319 2484 -456 
Q 2619 -594 3059 -594 
L 3272 -594 
z
" transform="scale(0.015625)"/>
      <path id="DejaVuSans-56" d="M 1831 0 
L 50 4666 
L 709 4666 
L 2188 738 
L 3669 4666 
L 4325 4666 
L 2547 0 
L 1831 0 
z
" transform="scale(0.015625)"/>
      <path id="DejaVuSans-7d" d="M 800 -594 
L 1019 -594 
Q 1456 -594 1589 -459 
Q 1722 -325 1722 122 
L 1722 897 
Q 1722 1384 1862 1606 
Q 2003 1828 2350 1913 
Q 2003 1991 1862 2212 
Q 1722 2434 1722 2925 
L 1722 3700 
Q 1722 4144 1589 4280 
Q 1456 4416 1019 4416 
L 800 4416 
L 800 4863 
L 997 4863 
Q 1775 4863 2036 4633 
Q 2297 4403 2297 3713 
L 2297 2963 
Q 2297 2497 2465 2317 
Q 2634 2138 3078 2138 
L 3272 2138 
L 3272 1691 
L 3078 1691 
Q 2634 1691 2465 1509 
Q 2297 1328 2297 856 
L 2297 109 
Q 2297 -581 2036 -812 
Q 1775 -1044 997 -1044 
L 800 -1044 
L 800 -594 
z
" transform="scale(0.015625)"/>
     </defs>
     <use xlink:href="#DejaVuSans-7b"/>
     <use xlink:href="#DejaVuSans-56" transform="translate(63.623047 0)"/>
     <use xlink:href="#DejaVuSans-7d" transform="translate(132.03125 0)"/>
    </g>
   </g>
   <g id="text_2">
    <!-- {M} -->
    <g transform="translate(99.922034 19.068547) scale(0.1 -0.1)">
     <defs>
      <path id="DejaVuSans-4d" d="M 628 4666 
L 1569 4666 
L 2759 1491 
L 3956 4666 
L 4897 4666 
L 4897 0 
L 4281 0 
L 4281 4097 
L 3078 897 
L 2444 897 
L 1241 4097 
L 1241 0 
L 628 0 
L 628 4666 
z
" transform="scale(0.015625)"/>
     </defs>
     <use xlink:href="#DejaVuSans-7b"/>
     <use xlink:href="#DejaVuSans-4d" transform="translate(63.623047 0)"/>
     <use xlink:href="#DejaVuSans-7d" transform="translate(149.902344 0)"/>
    </g>
   </g>
   <g id="text_3">
    <!-- {U} -->
    <g transform="translate(54.246201 202.450203) scale(0.1 -0.1)">
     <defs>
      <path id="DejaVuSans-55" d="M 556 4666 
L 1191 4666 
L 1191 1831 
Q 1191 1081 1462 751 
Q 1734 422 2344 422 
Q 2950 422 3222 751 
Q 3494 1081 3494 1831 
L 3494 4666 
L 4128 4666 
L 4128 1753 
Q 4128 841 3676 375 
Q 3225 -91 2344 -91 
Q 1459 -91 1007 375 
Q 556 841 556 1753 
L 556 4666 
z
" transform="scale(0.015625)"/>
     </defs>
     <use xlink:href="#DejaVuSans-7b"/>
     <use xlink:href="#DejaVuSans-55" transform="translate(63.623047 0)"/>
     <use xlink:href="#DejaVuSans-7d" transform="translate(136.816406 0)"/>
    </g>
   </g>
   <g id="text_4">
    <!-- {W} -->
    <g transform="translate(143.874243 202.450203) scale(0.1 -0.1)">
     <defs>
      <path id="DejaVuSans-57" d="M 213 4666 
L 850 4666 
L 1831 722 
L 2809 4666 
L 3519 4666 
L 4500 722 
L 5478 4666 
L 6119 4666 
L 4947 0 
L 4153 0 
L 3169 4050 
L 2175 0 
L 1381 0 
L 213 4666 
z
" transform="scale(0.015625)"/>
     </defs>
     <use xlink:href="#DejaVuSans-7b"/>
     <use xlink:href="#DejaVuSans-57" transform="translate(63.623047 0)"/>
     <use xlink:href="#DejaVuSans-7d" transform="translate(162.5 0)"/>
    </g>
   </g>
  </g>
  <g id="axes_2">
   <g id="patch_6">
    <path d="M 240.479204 203.358462 
L 335.520796 203.358462 
L 335.520796 12.641538 
L 240.479204 12.641538 
z
" style="fill: #ffffff"/>
   </g>
   <g id="matplotlib.axis_3"/>
   <g id="matplotlib.axis_4"/>
   <g id="patch_7">
    <path d="M 287.660251 191.713211 
Q 287.917242 108.000445 288.170801 25.405707 
" clip-path="url(#pc81d508eff)" style="fill: none; stroke: #000000; stroke-linecap: round"/>
    <path d="M 283.140126 35.390311 
L 288.170801 25.405707 
L 293.140079 35.42101 
z
" clip-path="url(#pc81d508eff)" style="stroke: #000000; stroke-linecap: round"/>
   </g>
   <g id="patch_8">
    <path d="M 287.687354 191.713211 
Q 287.932254 153.845808 288.169922 117.096415 
" clip-path="url(#pc81d508eff)" style="fill: none; stroke: #000000; stroke-linecap: round"/>
    <path d="M 283.105355 127.06387 
L 288.169922 117.096415 
L 293.105146 127.128542 
z
" clip-path="url(#pc81d508eff)" style="stroke: #000000; stroke-linecap: round"/>
   </g>
   <g id="patch_9">
    <path d="M 285.989705 25.136329 
Q 265.252835 107.999967 244.244544 191.948193 
" clip-path="url(#pc81d508eff)" style="fill: none; stroke: #000000; stroke-linecap: round"/>
    <path d="M 278.711615 33.623343 
L 285.989705 25.136329 
L 288.412463 36.051009 
z
" clip-path="url(#pc81d508eff)" style="stroke: #000000; stroke-linecap: round"/>
   </g>
   <g id="patch_10">
    <path d="M 290.388754 25.136881 
Q 310.945892 107.999967 331.772237 191.948193 
" clip-path="url(#pc81d508eff)" style="fill: none; stroke: #000000; stroke-linecap: round"/>
    <path d="M 287.943728 36.046594 
L 290.388754 25.136881 
L 297.649509 33.63873 
z
" clip-path="url(#pc81d508eff)" style="stroke: #000000; stroke-linecap: round"/>
   </g>
   <g id="patch_11">
    <path d="M 330.14811 192.541473 
Q 310.96087 153.845328 292.270296 116.150843 
" clip-path="url(#pc81d508eff)" style="fill: none; stroke: #000000; stroke-linecap: round"/>
    <path d="M 292.233059 127.33112 
L 292.270296 116.150843 
L 301.192176 122.888799 
z
" clip-path="url(#pc81d508eff)" style="stroke: #000000; stroke-linecap: round"/>
   </g>
   <g id="patch_12">
    <path d="M 288.201705 25.404822 
Q 288.213739 62.154192 288.226139 100.021595 
" clip-path="url(#pc81d508eff)" style="fill: none; stroke: #000000; stroke-linecap: round"/>
    <path d="M 283.20498 35.406459 
L 288.201705 25.404822 
L 293.20498 35.403185 
z
" clip-path="url(#pc81d508eff)" style="stroke: #000000; stroke-linecap: round"/>
   </g>
   <g id="PathCollection_2">
    <g>
     <use xlink:href="#m312556a028" x="242.306927" y="199.690828" style="fill: #fec7b8; stroke: #000000"/>
     <use xlink:href="#m312556a028" x="287.635761" y="199.690828" style="fill: #fec7b8; stroke: #000000"/>
     <use xlink:href="#m312556a028" x="333.693073" y="199.690828" style="fill: #fec7b8; stroke: #000000"/>
     <use xlink:href="#m312556a028" x="288.228752" y="108" style="fill: #fec7b8; stroke: #000000"/>
     <use xlink:href="#m312556a028" x="288.198727" y="16.309172" style="fill: #fec7b8; stroke: #000000"/>
    </g>
   </g>
   <g id="text_5">
    <!-- {V} -->
    <g transform="translate(277.852948 202.450203) scale(0.1 -0.1)">
     <use xlink:href="#DejaVuSans-7b"/>
     <use xlink:href="#DejaVuSans-56" transform="translate(63.623047 0)"/>
     <use xlink:href="#DejaVuSans-7d" transform="translate(132.03125 0)"/>
    </g>
   </g>
   <g id="text_6">
    <!-- {M} -->
    <g transform="translate(277.522164 19.068547) scale(0.1 -0.1)">
     <use xlink:href="#DejaVuSans-7b"/>
     <use xlink:href="#DejaVuSans-4d" transform="translate(63.623047 0)"/>
     <use xlink:href="#DejaVuSans-7d" transform="translate(149.902344 0)"/>
    </g>
   </g>
   <g id="text_7">
    <!-- {U} -->
    <g transform="translate(232.285052 202.450203) scale(0.1 -0.1)">
     <use xlink:href="#DejaVuSans-7b"/>
     <use xlink:href="#DejaVuSans-55" transform="translate(63.623047 0)"/>
     <use xlink:href="#DejaVuSans-7d" transform="translate(136.816406 0)"/>
    </g>
   </g>
   <g id="text_8">
    <!-- {W} -->
    <g transform="translate(322.386823 202.450203) scale(0.1 -0.1)">
     <use xlink:href="#DejaVuSans-7b"/>
     <use xlink:href="#DejaVuSans-57" transform="translate(63.623047 0)"/>
     <use xlink:href="#DejaVuSans-7d" transform="translate(162.5 0)"/>
    </g>
   </g>
   <g id="text_9">
    <!-- {V_union_W} -->
    <g transform="translate(254.547502 110.620312) scale(0.1 -0.1)">
     <defs>
      <path id="DejaVuSans-5f" d="M 3263 -1063 
L 3263 -1509 
L -63 -1509 
L -63 -1063 
L 3263 -1063 
z
" transform="scale(0.015625)"/>
      <path id="DejaVuSans-75" d="M 544 1381 
L 544 3500 
L 1119 3500 
L 1119 1403 
Q 1119 906 1312 657 
Q 1506 409 1894 409 
Q 2359 409 2629 706 
Q 2900 1003 2900 1516 
L 2900 3500 
L 3475 3500 
L 3475 0 
L 2900 0 
L 2900 538 
Q 2691 219 2414 64 
Q 2138 -91 1772 -91 
Q 1169 -91 856 284 
Q 544 659 544 1381 
z
M 1991 3584 
L 1991 3584 
z
" transform="scale(0.015625)"/>
      <path id="DejaVuSans-6e" d="M 3513 2113 
L 3513 0 
L 2938 0 
L 2938 2094 
Q 2938 2591 2744 2837 
Q 2550 3084 2163 3084 
Q 1697 3084 1428 2787 
Q 1159 2491 1159 1978 
L 1159 0 
L 581 0 
L 581 3500 
L 1159 3500 
L 1159 2956 
Q 1366 3272 1645 3428 
Q 1925 3584 2291 3584 
Q 2894 3584 3203 3211 
Q 3513 2838 3513 2113 
z
" transform="scale(0.015625)"/>
      <path id="DejaVuSans-69" d="M 603 3500 
L 1178 3500 
L 1178 0 
L 603 0 
L 603 3500 
z
M 603 4863 
L 1178 4863 
L 1178 4134 
L 603 4134 
L 603 4863 
z
" transform="scale(0.015625)"/>
      <path id="DejaVuSans-6f" d="M 1959 3097 
Q 1497 3097 1228 2736 
Q 959 2375 959 1747 
Q 959 1119 1226 758 
Q 1494 397 1959 397 
Q 2419 397 2687 759 
Q 2956 1122 2956 1747 
Q 2956 2369 2687 2733 
Q 2419 3097 1959 3097 
z
M 1959 3584 
Q 2709 3584 3137 3096 
Q 3566 2609 3566 1747 
Q 3566 888 3137 398 
Q 2709 -91 1959 -91 
Q 1206 -91 779 398 
Q 353 888 353 1747 
Q 353 2609 779 3096 
Q 1206 3584 1959 3584 
z
" transform="scale(0.015625)"/>
     </defs>
     <use xlink:href="#DejaVuSans-7b"/>
     <use xlink:href="#DejaVuSans-56" transform="translate(63.623047 0)"/>
     <use xlink:href="#DejaVuSans-5f" transform="translate(132.03125 0)"/>
     <use xlink:href="#DejaVuSans-75" transform="translate(182.03125 0)"/>
     <use xlink:href="#DejaVuSans-6e" transform="translate(245.410156 0)"/>
     <use xlink:href="#DejaVuSans-69" transform="translate(308.789062 0)"/>
     <use xlink:href="#DejaVuSans-6f" transform="translate(336.572266 0)"/>
     <use xlink:href="#DejaVuSans-6e" transform="translate(397.753906 0)"/>
     <use xlink:href="#DejaVuSans-5f" transform="translate(461.132812 0)"/>
     <use xlink:href="#DejaVuSans-57" transform="translate(511.132812 0)"/>
     <use xlink:href="#DejaVuSans-7d" transform="translate(610.009766 0)"/>
    </g>
   </g>
  </g>
  <g id="axes_3">
   <g id="patch_13">
    <path d="M 418.986953 203.358462 
L 513.564478 203.358462 
L 513.564478 12.641538 
L 418.986953 12.641538 
z
" style="fill: #ffffff"/>
   </g>
   <g id="matplotlib.axis_5"/>
   <g id="matplotlib.axis_6"/>
   <g id="patch_14">
    <path d="M 467.841762 191.769175 
Q 478.041144 108.000249 488.105396 25.341161 
" clip-path="url(#p1173c7402a)" style="fill: none; stroke: #000000; stroke-linecap: round"/>
    <path d="M 481.933415 34.663535 
L 488.105396 25.341161 
L 491.860106 35.872171 
z
" clip-path="url(#p1173c7402a)" style="stroke: #000000; stroke-linecap: round"/>
   </g>
   <g id="patch_15">
    <path d="M 466.790379 191.713211 
Q 466.37802 153.845808 465.977834 117.096372 
" clip-path="url(#p1173c7402a)" style="fill: none; stroke: #000000; stroke-linecap: round"/>
    <path d="M 461.08702 127.150224 
L 465.977834 117.096372 
L 471.086427 127.041335 
z
" clip-path="url(#p1173c7402a)" style="stroke: #000000; stroke-linecap: round"/>
   </g>
   <g id="patch_16">
    <path d="M 486.026677 24.830655 
Q 455.005682 107.999309 423.593966 192.215502 
" clip-path="url(#p1173c7402a)" style="fill: none; stroke: #000000; stroke-linecap: round"/>
    <path d="M 477.847231 32.452771 
L 486.026677 24.830655 
L 487.216703 35.947481 
z
" clip-path="url(#p1173c7402a)" style="stroke: #000000; stroke-linecap: round"/>
   </g>
   <g id="patch_17">
    <path d="M 490.315194 25.340508 
Q 500.475686 108.002428 510.772576 191.774031 
" clip-path="url(#p1173c7402a)" style="fill: none; stroke: #000000; stroke-linecap: round"/>
    <path d="M 486.572523 35.875801 
L 490.315194 25.340508 
L 496.497827 34.65582 
z
" clip-path="url(#p1173c7402a)" style="stroke: #000000; stroke-linecap: round"/>
   </g>
   <g id="patch_18">
    <path d="M 508.174925 192.552666 
Q 488.81135 153.843657 469.947962 116.134554 
" clip-path="url(#p1173c7402a)" style="fill: none; stroke: #000000; stroke-linecap: round"/>
    <path d="M 469.950057 127.314893 
L 469.947962 116.134554 
L 478.893491 122.841081 
z
" clip-path="url(#p1173c7402a)" style="stroke: #000000; stroke-linecap: round"/>
   </g>
   <g id="patch_19">
    <path d="M 486.96257 25.124069 
Q 477.541797 62.155137 467.845375 100.269725 
" clip-path="url(#p1173c7402a)" style="fill: none; stroke: #000000; stroke-linecap: round"/>
    <path d="M 479.651432 33.582631 
L 486.96257 25.124069 
L 489.342736 36.048117 
z
" clip-path="url(#p1173c7402a)" style="stroke: #000000; stroke-linecap: round"/>
   </g>
   <g id="patch_20">
    <path d="M 463.969981 100.251834 
Q 454.584674 62.155115 445.466804 25.143972 
" clip-path="url(#p1173c7402a)" style="fill: none; stroke: #000000; stroke-linecap: round"/>
    <path d="M 443.003985 36.049683 
L 445.466804 25.143972 
L 452.713681 33.657653 
z
" clip-path="url(#p1173c7402a)" style="stroke: #000000; stroke-linecap: round"/>
   </g>
   <g id="PathCollection_3">
    <g>
     <use xlink:href="#m312556a028" x="420.805751" y="199.690828" style="fill: #fec7b8; stroke: #000000"/>
     <use xlink:href="#m312556a028" x="466.877252" y="199.690828" style="fill: #fec7b8; stroke: #000000"/>
     <use xlink:href="#m312556a028" x="511.745679" y="199.690828" style="fill: #fec7b8; stroke: #000000"/>
     <use xlink:href="#m312556a028" x="465.878779" y="108" style="fill: #fec7b8; stroke: #000000"/>
     <use xlink:href="#m312556a028" x="443.290309" y="16.309172" style="fill: #fec7b8; stroke: #000000"/>
     <use xlink:href="#m312556a028" x="489.205096" y="16.309172" style="fill: #fec7b8; stroke: #000000"/>
    </g>
   </g>
   <g id="text_10">
    <!-- {V} -->
    <g transform="translate(457.09444 202.450203) scale(0.1 -0.1)">
     <use xlink:href="#DejaVuSans-7b"/>
     <use xlink:href="#DejaVuSans-56" transform="translate(63.623047 0)"/>
     <use xlink:href="#DejaVuSans-7d" transform="translate(132.03125 0)"/>
    </g>
   </g>
   <g id="text_11">
    <!-- {M} -->
    <g transform="translate(478.528534 19.068547) scale(0.1 -0.1)">
     <use xlink:href="#DejaVuSans-7b"/>
     <use xlink:href="#DejaVuSans-4d" transform="translate(63.623047 0)"/>
     <use xlink:href="#DejaVuSans-7d" transform="translate(149.902344 0)"/>
    </g>
   </g>
   <g id="text_12">
    <!-- {U} -->
    <g transform="translate(410.783876 202.450203) scale(0.1 -0.1)">
     <use xlink:href="#DejaVuSans-7b"/>
     <use xlink:href="#DejaVuSans-55" transform="translate(63.623047 0)"/>
     <use xlink:href="#DejaVuSans-7d" transform="translate(136.816406 0)"/>
    </g>
   </g>
   <g id="text_13">
    <!-- {W} -->
    <g transform="translate(500.439429 202.450203) scale(0.1 -0.1)">
     <use xlink:href="#DejaVuSans-7b"/>
     <use xlink:href="#DejaVuSans-57" transform="translate(63.623047 0)"/>
     <use xlink:href="#DejaVuSans-7d" transform="translate(162.5 0)"/>
    </g>
   </g>
   <g id="text_14">
    <!-- {V_union_W} -->
    <g transform="translate(432.197529 110.620312) scale(0.1 -0.1)">
     <use xlink:href="#DejaVuSans-7b"/>
     <use xlink:href="#DejaVuSans-56" transform="translate(63.623047 0)"/>
     <use xlink:href="#DejaVuSans-5f" transform="translate(132.03125 0)"/>
     <use xlink:href="#DejaVuSans-75" transform="translate(182.03125 0)"/>
     <use xlink:href="#DejaVuSans-6e" transform="translate(245.410156 0)"/>
     <use xlink:href="#DejaVuSans-69" transform="translate(308.789062 0)"/>
     <use xlink:href="#DejaVuSans-6f" transform="translate(336.572266 0)"/>
     <use xlink:href="#DejaVuSans-6e" transform="translate(397.753906 0)"/>
     <use xlink:href="#DejaVuSans-5f" transform="translate(461.132812 0)"/>
     <use xlink:href="#DejaVuSans-57" transform="translate(511.132812 0)"/>
     <use xlink:href="#DejaVuSans-7d" transform="translate(610.009766 0)"/>
    </g>
   </g>
   <g id="text_15">
    <!-- [{V}, {W}] -->
    <g transform="translate(415.121559 19.068547) scale(0.1 -0.1)">
     <defs>
      <path id="DejaVuSans-5b" d="M 550 4863 
L 1875 4863 
L 1875 4416 
L 1125 4416 
L 1125 -397 
L 1875 -397 
L 1875 -844 
L 550 -844 
L 550 4863 
z
" transform="scale(0.015625)"/>
      <path id="DejaVuSans-2c" d="M 750 794 
L 1409 794 
L 1409 256 
L 897 -744 
L 494 -744 
L 750 256 
L 750 794 
z
" transform="scale(0.015625)"/>
      <path id="DejaVuSans-20" transform="scale(0.015625)"/>
      <path id="DejaVuSans-5d" d="M 1947 4863 
L 1947 -844 
L 622 -844 
L 622 -397 
L 1369 -397 
L 1369 4416 
L 622 4416 
L 622 4863 
L 1947 4863 
z
" transform="scale(0.015625)"/>
     </defs>
     <use xlink:href="#DejaVuSans-5b"/>
     <use xlink:href="#DejaVuSans-7b" transform="translate(39.013672 0)"/>
     <use xlink:href="#DejaVuSans-56" transform="translate(102.636719 0)"/>
     <use xlink:href="#DejaVuSans-7d" transform="translate(171.044922 0)"/>
     <use xlink:href="#DejaVuSans-2c" transform="translate(234.667969 0)"/>
     <use xlink:href="#DejaVuSans-20" transform="translate(266.455078 0)"/>
     <use xlink:href="#DejaVuSans-7b" transform="translate(298.242188 0)"/>
     <use xlink:href="#DejaVuSans-57" transform="translate(361.865234 0)"/>
     <use xlink:href="#DejaVuSans-7d" transform="translate(460.742188 0)"/>
     <use xlink:href="#DejaVuSans-5d" transform="translate(524.365234 0)"/>
    </g>
   </g>
  </g>
 </g>
 <defs>
  <clipPath id="p280e0320f9">
   <rect x="62.449828" y="12.641538" width="94.548913" height="190.716923"/>
  </clipPath>
  <clipPath id="pc81d508eff">
   <rect x="240.479204" y="12.641538" width="95.041592" height="190.716923"/>
  </clipPath>
  <clipPath id="p1173c7402a">
   <rect x="418.986953" y="12.641538" width="94.577525" height="190.716923"/>
  </clipPath>
 </defs>
</svg>
