<?xml version="1.0" encoding="utf-8" standalone="no"?>
<!DOCTYPE svg PUBLIC "-//W3C//DTD SVG 1.1//EN"
  "http://www.w3.org/Graphics/SVG/1.1/DTD/svg11.dtd">
<svg xmlns:xlink="http://www.w3.org/1999/xlink" width="576pt" height="216pt" viewBox="0 0 576 216" xmlns="http://www.w3.org/2000/svg" version="1.1">
 <metadata>
  <rdf:RDF xmlns:dc="http://purl.org/dc/elements/1.1/" xmlns:cc="http://creativecommons.org/ns#" xmlns:rdf="http://www.w3.org/1999/02/22-rdf-syntax-ns#">
   <cc:Work>
    <dc:type rdf:resource="http://purl.org/dc/dcmitype/StillImage"/>
    <dc:date>2025-08-02T22:42:59.902483</dc:date>
    <dc:format>image/svg+xml</dc:format>
    <dc:creator>
     <cc:Agent>
      <dc:title>Matplotlib v3.10.3, https://matplotlib.org/</dc:title>
     </cc:Agent>
    </dc:creator>
   </cc:Work>
  </rdf:RDF>
 </metadata>
 <defs>
  <style type="text/css">*{stroke-linejoin: round; stroke-linecap: butt}</style>
 </defs>
 <g id="figure_1">
  <g id="patch_1">
   <path d="M 0 216 
L 576 216 
L 576 0 
L 0 0 
z
" style="fill: #ffffff"/>
  </g>
  <g id="axes_1">
   <g id="patch_2">
    <path d="M 48.121977 203.307837 
L 162.420504 203.307837 
L 162.420504 12.641538 
L 48.121977 12.641538 
z
" style="fill: #ffffff"/>
   </g>
   <g id="matplotlib.axis_1"/>
   <g id="matplotlib.axis_2"/>
   <g id="patch_3">
    <path d="M 105.283819 191.66288 
Q 105.299922 169.086997 105.315228 147.629148 
" clip-path="url(#p3396c05d67)" style="fill: none; stroke: #000000; stroke-linecap: round"/>
    <path d="M 100.308096 157.625579 
L 105.315228 147.629148 
L 110.308094 157.632712 
z
" clip-path="url(#p3396c05d67)" style="stroke: #000000; stroke-linecap: round"/>
   </g>
   <g id="patch_4">
    <path d="M 55.650666 71.483025 
Q 77.758257 46.864155 99.118845 23.077142 
" clip-path="url(#p3396c05d67)" style="fill: none; stroke: #000000; stroke-linecap: round"/>
    <path d="M 88.717269 27.176803 
L 99.118845 23.077142 
L 96.157628 33.858199 
z
" clip-path="url(#p3396c05d67)" style="stroke: #000000; stroke-linecap: round"/>
   </g>
   <g id="patch_5">
    <path d="M 88.795632 69.791507 
Q 95.826712 46.864259 102.529993 25.005913 
" clip-path="url(#p3396c05d67)" style="fill: none; stroke: #000000; stroke-linecap: round"/>
    <path d="M 94.817804 33.100487 
L 102.529993 25.005913 
L 104.378339 36.032409 
z
" clip-path="url(#p3396c05d67)" style="stroke: #000000; stroke-linecap: round"/>
   </g>
   <g id="patch_6">
    <path d="M 107.572726 130.87266 
Q 114.303871 107.974517 120.7197 86.149023 
" clip-path="url(#p3396c05d67)" style="fill: none; stroke: #000000; stroke-linecap: round"/>
    <path d="M 113.102395 94.33295 
L 120.7197 86.149023 
L 122.696458 97.153224 
z
" clip-path="url(#p3396c05d67)" style="stroke: #000000; stroke-linecap: round"/>
   </g>
   <g id="patch_7">
    <path d="M 110.654636 132.594018 
Q 132.771674 107.975148 154.141532 84.187976 
" clip-path="url(#p3396c05d67)" style="fill: none; stroke: #000000; stroke-linecap: round"/>
    <path d="M 143.739086 88.285428 
L 154.141532 84.187976 
L 151.178026 94.968404 
z
" clip-path="url(#p3396c05d67)" style="stroke: #000000; stroke-linecap: round"/>
   </g>
   <g id="patch_8">
    <path d="M 121.021536 69.769127 
Q 114.241865 46.864526 107.779519 25.031981 
" clip-path="url(#p3396c05d67)" style="fill: none; stroke: #000000; stroke-linecap: round"/>
    <path d="M 105.823372 36.039864 
L 107.779519 25.031981 
L 115.412137 33.201627 
z
" clip-path="url(#p3396c05d67)" style="stroke: #000000; stroke-linecap: round"/>
   </g>
   <g id="patch_9">
    <path d="M 154.884171 71.490485 
Q 132.710986 46.864918 111.285917 23.070208 
" clip-path="url(#p3396c05d67)" style="fill: none; stroke: #000000; stroke-linecap: round"/>
    <path d="M 114.261553 33.847295 
L 111.285917 23.070208 
L 121.692967 27.155951 
z
" clip-path="url(#p3396c05d67)" style="stroke: #000000; stroke-linecap: round"/>
   </g>
   <g id="PathCollection_1">
    <defs>
     <path id="mfc7a14e9f4" d="M 0 7.071068 
C 1.875269 7.071068 3.673985 6.326016 5 5 
C 6.326016 3.673985 7.071068 1.875269 7.071068 0 
C 7.071068 -1.875269 6.326016 -3.673985 5 -5 
C 3.673985 -6.326016 1.875269 -7.071068 0 -7.071068 
C -1.875269 -7.071068 -3.673985 -6.326016 -5 -5 
C -6.326016 -3.673985 -7.071068 -1.875269 -7.071068 0 
C -7.071068 1.875269 -6.326016 3.673985 -5 5 
C -3.673985 6.326016 -1.875269 7.071068 0 7.071068 
z
" style="stroke: #000000"/>
    </defs>
    <g>
     <use xlink:href="#mfc7a14e9f4" x="105.278128" y="199.641177" style="fill: #fec7b8; stroke: #000000"/>
     <use xlink:href="#mfc7a14e9f4" x="50.320026" y="77.419191" style="fill: #fec7b8; stroke: #000000"/>
     <use xlink:href="#mfc7a14e9f4" x="86.456457" y="77.419191" style="fill: #fec7b8; stroke: #000000"/>
     <use xlink:href="#mfc7a14e9f4" x="123.285925" y="77.419191" style="fill: #fec7b8; stroke: #000000"/>
     <use xlink:href="#mfc7a14e9f4" x="160.222456" y="77.419191" style="fill: #fec7b8; stroke: #000000"/>
     <use xlink:href="#mfc7a14e9f4" x="105.321718" y="138.530184" style="fill: #fec7b8; stroke: #000000"/>
     <use xlink:href="#mfc7a14e9f4" x="105.197314" y="16.308198" style="fill: #fec7b8; stroke: #000000"/>
    </g>
   </g>
   <g id="text_1">
    <!-- {W} -->
    <g transform="translate(93.971878 202.400552) scale(0.1 -0.1)">
     <defs>
      <path id="DejaVuSans-7b" d="M 3272 -594 
L 3272 -1044 
L 3078 -1044 
Q 2300 -1044 2036 -812 
Q 1772 -581 1772 109 
L 1772 856 
Q 1772 1328 1603 1509 
Q 1434 1691 991 1691 
L 800 1691 
L 800 2138 
L 991 2138 
Q 1438 2138 1605 2317 
Q 1772 2497 1772 2963 
L 1772 3713 
Q 1772 4403 2036 4633 
Q 2300 4863 3078 4863 
L 3272 4863 
L 3272 4416 
L 3059 4416 
Q 2619 4416 2484 4278 
Q 2350 4141 2350 3700 
L 2350 2925 
Q 2350 2434 2208 2212 
Q 2066 1991 1722 1913 
Q 2069 1828 2209 1606 
Q 2350 1384 2350 897 
L 2350 122 
Q 2350 -319 2484 -456 
Q 2619 -594 3059 -594 
L 3272 -594 
z
" transform="scale(0.015625)"/>
      <path id="DejaVuSans-57" d="M 213 4666 
L 850 4666 
L 1831 722 
L 2809 4666 
L 3519 4666 
L 4500 722 
L 5478 4666 
L 6119 4666 
L 4947 0 
L 4153 0 
L 3169 4050 
L 2175 0 
L 1381 0 
L 213 4666 
z
" transform="scale(0.015625)"/>
      <path id="DejaVuSans-7d" d="M 800 -594 
L 1019 -594 
Q 1456 -594 1589 -459 
Q 1722 -325 1722 122 
L 1722 897 
Q 1722 1384 1862 1606 
Q 2003 1828 2350 1913 
Q 2003 1991 1862 2212 
Q 1722 2434 1722 2925 
L 1722 3700 
Q 1722 4144 1589 4280 
Q 1456 4416 1019 4416 
L 800 4416 
L 800 4863 
L 997 4863 
Q 1775 4863 2036 4633 
Q 2297 4403 2297 3713 
L 2297 2963 
Q 2297 2497 2465 2317 
Q 2634 2138 3078 2138 
L 3272 2138 
L 3272 1691 
L 3078 1691 
Q 2634 1691 2465 1509 
Q 2297 1328 2297 856 
L 2297 109 
Q 2297 -581 2036 -812 
Q 1775 -1044 997 -1044 
L 800 -1044 
L 800 -594 
z
" transform="scale(0.015625)"/>
     </defs>
     <use xlink:href="#DejaVuSans-7b"/>
     <use xlink:href="#DejaVuSans-57" transform="translate(63.623047 0)"/>
     <use xlink:href="#DejaVuSans-7d" transform="translate(162.5 0)"/>
    </g>
   </g>
   <g id="text_2">
    <!-- {V1} -->
    <g transform="translate(37.355963 80.178566) scale(0.1 -0.1)">
     <defs>
      <path id="DejaVuSans-56" d="M 1831 0 
L 50 4666 
L 709 4666 
L 2188 738 
L 3669 4666 
L 4325 4666 
L 2547 0 
L 1831 0 
z
" transform="scale(0.015625)"/>
      <path id="DejaVuSans-31" d="M 794 531 
L 1825 531 
L 1825 4091 
L 703 3866 
L 703 4441 
L 1819 4666 
L 2450 4666 
L 2450 531 
L 3481 531 
L 3481 0 
L 794 0 
L 794 531 
z
" transform="scale(0.015625)"/>
     </defs>
     <use xlink:href="#DejaVuSans-7b"/>
     <use xlink:href="#DejaVuSans-56" transform="translate(63.623047 0)"/>
     <use xlink:href="#DejaVuSans-31" transform="translate(132.03125 0)"/>
     <use xlink:href="#DejaVuSans-7d" transform="translate(195.654297 0)"/>
    </g>
   </g>
   <g id="text_3">
    <!-- {V0} -->
    <g transform="translate(73.492394 80.178566) scale(0.1 -0.1)">
     <defs>
      <path id="DejaVuSans-30" d="M 2034 4250 
Q 1547 4250 1301 3770 
Q 1056 3291 1056 2328 
Q 1056 1369 1301 889 
Q 1547 409 2034 409 
Q 2525 409 2770 889 
Q 3016 1369 3016 2328 
Q 3016 3291 2770 3770 
Q 2525 4250 2034 4250 
z
M 2034 4750 
Q 2819 4750 3233 4129 
Q 3647 3509 3647 2328 
Q 3647 1150 3233 529 
Q 2819 -91 2034 -91 
Q 1250 -91 836 529 
Q 422 1150 422 2328 
Q 422 3509 836 4129 
Q 1250 4750 2034 4750 
z
" transform="scale(0.015625)"/>
     </defs>
     <use xlink:href="#DejaVuSans-7b"/>
     <use xlink:href="#DejaVuSans-56" transform="translate(63.623047 0)"/>
     <use xlink:href="#DejaVuSans-30" transform="translate(132.03125 0)"/>
     <use xlink:href="#DejaVuSans-7d" transform="translate(195.654297 0)"/>
    </g>
   </g>
   <g id="text_4">
    <!-- {U_inter_V} -->
    <g transform="translate(75.22953 141.150496) scale(0.1 -0.1)">
     <defs>
      <path id="DejaVuSans-55" d="M 556 4666 
L 1191 4666 
L 1191 1831 
Q 1191 1081 1462 751 
Q 1734 422 2344 422 
Q 2950 422 3222 751 
Q 3494 1081 3494 1831 
L 3494 4666 
L 4128 4666 
L 4128 1753 
Q 4128 841 3676 375 
Q 3225 -91 2344 -91 
Q 1459 -91 1007 375 
Q 556 841 556 1753 
L 556 4666 
z
" transform="scale(0.015625)"/>
      <path id="DejaVuSans-5f" d="M 3263 -1063 
L 3263 -1509 
L -63 -1509 
L -63 -1063 
L 3263 -1063 
z
" transform="scale(0.015625)"/>
      <path id="DejaVuSans-69" d="M 603 3500 
L 1178 3500 
L 1178 0 
L 603 0 
L 603 3500 
z
M 603 4863 
L 1178 4863 
L 1178 4134 
L 603 4134 
L 603 4863 
z
" transform="scale(0.015625)"/>
      <path id="DejaVuSans-6e" d="M 3513 2113 
L 3513 0 
L 2938 0 
L 2938 2094 
Q 2938 2591 2744 2837 
Q 2550 3084 2163 3084 
Q 1697 3084 1428 2787 
Q 1159 2491 1159 1978 
L 1159 0 
L 581 0 
L 581 3500 
L 1159 3500 
L 1159 2956 
Q 1366 3272 1645 3428 
Q 1925 3584 2291 3584 
Q 2894 3584 3203 3211 
Q 3513 2838 3513 2113 
z
" transform="scale(0.015625)"/>
      <path id="DejaVuSans-74" d="M 1172 4494 
L 1172 3500 
L 2356 3500 
L 2356 3053 
L 1172 3053 
L 1172 1153 
Q 1172 725 1289 603 
Q 1406 481 1766 481 
L 2356 481 
L 2356 0 
L 1766 0 
Q 1100 0 847 248 
Q 594 497 594 1153 
L 594 3053 
L 172 3053 
L 172 3500 
L 594 3500 
L 594 4494 
L 1172 4494 
z
" transform="scale(0.015625)"/>
      <path id="DejaVuSans-65" d="M 3597 1894 
L 3597 1613 
L 953 1613 
Q 991 1019 1311 708 
Q 1631 397 2203 397 
Q 2534 397 2845 478 
Q 3156 559 3463 722 
L 3463 178 
Q 3153 47 2828 -22 
Q 2503 -91 2169 -91 
Q 1331 -91 842 396 
Q 353 884 353 1716 
Q 353 2575 817 3079 
Q 1281 3584 2069 3584 
Q 2775 3584 3186 3129 
Q 3597 2675 3597 1894 
z
M 3022 2063 
Q 3016 2534 2758 2815 
Q 2500 3097 2075 3097 
Q 1594 3097 1305 2825 
Q 1016 2553 972 2059 
L 3022 2063 
z
" transform="scale(0.015625)"/>
      <path id="DejaVuSans-72" d="M 2631 2963 
Q 2534 3019 2420 3045 
Q 2306 3072 2169 3072 
Q 1681 3072 1420 2755 
Q 1159 2438 1159 1844 
L 1159 0 
L 581 0 
L 581 3500 
L 1159 3500 
L 1159 2956 
Q 1341 3275 1631 3429 
Q 1922 3584 2338 3584 
Q 2397 3584 2469 3576 
Q 2541 3569 2628 3553 
L 2631 2963 
z
" transform="scale(0.015625)"/>
     </defs>
     <use xlink:href="#DejaVuSans-7b"/>
     <use xlink:href="#DejaVuSans-55" transform="translate(63.623047 0)"/>
     <use xlink:href="#DejaVuSans-5f" transform="translate(136.816406 0)"/>
     <use xlink:href="#DejaVuSans-69" transform="translate(186.816406 0)"/>
     <use xlink:href="#DejaVuSans-6e" transform="translate(214.599609 0)"/>
     <use xlink:href="#DejaVuSans-74" transform="translate(277.978516 0)"/>
     <use xlink:href="#DejaVuSans-65" transform="translate(317.1875 0)"/>
     <use xlink:href="#DejaVuSans-72" transform="translate(378.710938 0)"/>
     <use xlink:href="#DejaVuSans-5f" transform="translate(419.824219 0)"/>
     <use xlink:href="#DejaVuSans-56" transform="translate(469.824219 0)"/>
     <use xlink:href="#DejaVuSans-7d" transform="translate(538.232422 0)"/>
    </g>
   </g>
   <g id="text_5">
    <!-- {V} -->
    <g transform="translate(113.503112 80.178566) scale(0.1 -0.1)">
     <use xlink:href="#DejaVuSans-7b"/>
     <use xlink:href="#DejaVuSans-56" transform="translate(63.623047 0)"/>
     <use xlink:href="#DejaVuSans-7d" transform="translate(132.03125 0)"/>
    </g>
   </g>
   <g id="text_6">
    <!-- {U} -->
    <g transform="translate(150.200581 80.178566) scale(0.1 -0.1)">
     <use xlink:href="#DejaVuSans-7b"/>
     <use xlink:href="#DejaVuSans-55" transform="translate(63.623047 0)"/>
     <use xlink:href="#DejaVuSans-7d" transform="translate(136.816406 0)"/>
    </g>
   </g>
   <g id="text_7">
    <!-- {M} -->
    <g transform="translate(94.520751 19.067573) scale(0.1 -0.1)">
     <defs>
      <path id="DejaVuSans-4d" d="M 628 4666 
L 1569 4666 
L 2759 1491 
L 3956 4666 
L 4897 4666 
L 4897 0 
L 4281 0 
L 4281 4097 
L 3078 897 
L 2444 897 
L 1241 4097 
L 1241 0 
L 628 0 
L 628 4666 
z
" transform="scale(0.015625)"/>
     </defs>
     <use xlink:href="#DejaVuSans-7b"/>
     <use xlink:href="#DejaVuSans-4d" transform="translate(63.623047 0)"/>
     <use xlink:href="#DejaVuSans-7d" transform="translate(149.902344 0)"/>
    </g>
   </g>
  </g>
  <g id="axes_2">
   <g id="patch_10">
    <path d="M 255.897889 203.307837 
L 320.102111 203.307837 
L 320.102111 12.641538 
L 255.897889 12.641538 
z
" style="fill: #ffffff"/>
   </g>
   <g id="matplotlib.axis_3"/>
   <g id="matplotlib.axis_4"/>
   <g id="patch_11">
    <path d="M 288.559033 191.66288 
Q 288.628732 169.086997 288.694978 147.629143 
" clip-path="url(#p672004bb38)" style="fill: none; stroke: #000000; stroke-linecap: round"/>
    <path d="M 283.664129 157.613659 
L 288.694978 147.629143 
L 293.664082 157.644532 
z
" clip-path="url(#p672004bb38)" style="stroke: #000000; stroke-linecap: round"/>
   </g>
   <g id="patch_12">
    <path d="M 285.057694 131.439608 
Q 272.926532 107.972181 261.308781 85.497936 
" clip-path="url(#p672004bb38)" style="fill: none; stroke: #000000; stroke-linecap: round"/>
    <path d="M 261.45923 96.677263 
L 261.308781 85.497936 
L 270.342513 92.085173 
z
" clip-path="url(#p672004bb38)" style="stroke: #000000; stroke-linecap: round"/>
   </g>
   <g id="patch_13">
    <path d="M 292.25377 131.372469 
Q 303.795716 107.973726 314.843067 85.577666 
" clip-path="url(#p672004bb38)" style="fill: none; stroke: #000000; stroke-linecap: round"/>
    <path d="M 305.935128 92.334042 
L 314.843067 85.577666 
L 314.903405 96.757843 
z
" clip-path="url(#p672004bb38)" style="stroke: #000000; stroke-linecap: round"/>
   </g>
   <g id="patch_14">
    <path d="M 260.760787 70.313695 
Q 272.735344 46.862639 284.201459 24.407317 
" clip-path="url(#p672004bb38)" style="fill: none; stroke: #000000; stroke-linecap: round"/>
    <path d="M 275.200763 31.039621 
L 284.201459 24.407317 
L 284.106885 35.587257 
z
" clip-path="url(#p672004bb38)" style="stroke: #000000; stroke-linecap: round"/>
   </g>
   <g id="patch_15">
    <path d="M 315.302678 70.283856 
Q 303.603133 46.865523 292.403259 24.447355 
" clip-path="url(#p672004bb38)" style="fill: none; stroke: #000000; stroke-linecap: round"/>
    <path d="M 292.399583 35.627694 
L 292.403259 24.447355 
L 301.345325 31.158498 
z
" clip-path="url(#p672004bb38)" style="stroke: #000000; stroke-linecap: round"/>
   </g>
   <g id="PathCollection_2">
    <g>
     <use xlink:href="#mfc7a14e9f4" x="288.534402" y="199.641177" style="fill: #fec7b8; stroke: #000000"/>
     <use xlink:href="#mfc7a14e9f4" x="288.723069" y="138.530184" style="fill: #fec7b8; stroke: #000000"/>
     <use xlink:href="#mfc7a14e9f4" x="257.132586" y="77.419191" style="fill: #fec7b8; stroke: #000000"/>
     <use xlink:href="#mfc7a14e9f4" x="318.867414" y="77.419191" style="fill: #fec7b8; stroke: #000000"/>
     <use xlink:href="#mfc7a14e9f4" x="288.337024" y="16.308198" style="fill: #fec7b8; stroke: #000000"/>
    </g>
   </g>
   <g id="text_8">
    <!-- {W} -->
    <g transform="translate(277.228152 202.400552) scale(0.1 -0.1)">
     <use xlink:href="#DejaVuSans-7b"/>
     <use xlink:href="#DejaVuSans-57" transform="translate(63.623047 0)"/>
     <use xlink:href="#DejaVuSans-7d" transform="translate(162.5 0)"/>
    </g>
   </g>
   <g id="text_9">
    <!-- {U_inter_V} -->
    <g transform="translate(258.630882 141.150496) scale(0.1 -0.1)">
     <use xlink:href="#DejaVuSans-7b"/>
     <use xlink:href="#DejaVuSans-55" transform="translate(63.623047 0)"/>
     <use xlink:href="#DejaVuSans-5f" transform="translate(136.816406 0)"/>
     <use xlink:href="#DejaVuSans-69" transform="translate(186.816406 0)"/>
     <use xlink:href="#DejaVuSans-6e" transform="translate(214.599609 0)"/>
     <use xlink:href="#DejaVuSans-74" transform="translate(277.978516 0)"/>
     <use xlink:href="#DejaVuSans-65" transform="translate(317.1875 0)"/>
     <use xlink:href="#DejaVuSans-72" transform="translate(378.710938 0)"/>
     <use xlink:href="#DejaVuSans-5f" transform="translate(419.824219 0)"/>
     <use xlink:href="#DejaVuSans-56" transform="translate(469.824219 0)"/>
     <use xlink:href="#DejaVuSans-7d" transform="translate(538.232422 0)"/>
    </g>
   </g>
   <g id="text_10">
    <!-- {V, V0, V1} -->
    <g transform="translate(227.790398 80.178566) scale(0.1 -0.1)">
     <defs>
      <path id="DejaVuSans-2c" d="M 750 794 
L 1409 794 
L 1409 256 
L 897 -744 
L 494 -744 
L 750 256 
L 750 794 
z
" transform="scale(0.015625)"/>
      <path id="DejaVuSans-20" transform="scale(0.015625)"/>
     </defs>
     <use xlink:href="#DejaVuSans-7b"/>
     <use xlink:href="#DejaVuSans-56" transform="translate(63.623047 0)"/>
     <use xlink:href="#DejaVuSans-2c" transform="translate(132.03125 0)"/>
     <use xlink:href="#DejaVuSans-20" transform="translate(163.818359 0)"/>
     <use xlink:href="#DejaVuSans-56" transform="translate(195.605469 0)"/>
     <use xlink:href="#DejaVuSans-30" transform="translate(264.013672 0)"/>
     <use xlink:href="#DejaVuSans-2c" transform="translate(327.636719 0)"/>
     <use xlink:href="#DejaVuSans-20" transform="translate(359.423828 0)"/>
     <use xlink:href="#DejaVuSans-56" transform="translate(391.210938 0)"/>
     <use xlink:href="#DejaVuSans-31" transform="translate(459.619141 0)"/>
     <use xlink:href="#DejaVuSans-7d" transform="translate(523.242188 0)"/>
    </g>
   </g>
   <g id="text_11">
    <!-- {U} -->
    <g transform="translate(308.845539 80.178566) scale(0.1 -0.1)">
     <use xlink:href="#DejaVuSans-7b"/>
     <use xlink:href="#DejaVuSans-55" transform="translate(63.623047 0)"/>
     <use xlink:href="#DejaVuSans-7d" transform="translate(136.816406 0)"/>
    </g>
   </g>
   <g id="text_12">
    <!-- {M} -->
    <g transform="translate(277.660462 19.067573) scale(0.1 -0.1)">
     <use xlink:href="#DejaVuSans-7b"/>
     <use xlink:href="#DejaVuSans-4d" transform="translate(63.623047 0)"/>
     <use xlink:href="#DejaVuSans-7d" transform="translate(149.902344 0)"/>
    </g>
   </g>
  </g>
  <g id="axes_3">
   <g id="patch_16">
    <path d="M 469.672995 203.307837 
L 471.784523 203.307837 
L 471.784523 12.641538 
L 469.672995 12.641538 
z
" style="fill: #ffffff"/>
   </g>
   <g id="matplotlib.axis_5"/>
   <g id="matplotlib.axis_6"/>
   <g id="patch_17">
    <path d="M 469.89025 191.665678 
Q 470.72875 153.808326 471.542493 117.068734 
" clip-path="url(#p1c25025c43)" style="fill: none; stroke: #000000; stroke-linecap: round"/>
    <path d="M 466.322284 126.955565 
L 471.542493 117.068734 
L 476.319832 127.177 
z
" clip-path="url(#p1c25025c43)" style="stroke: #000000; stroke-linecap: round"/>
   </g>
   <g id="patch_18">
    <path d="M 471.588524 99.999188 
Q 470.850918 62.141836 470.135092 25.402307 
" clip-path="url(#p1c25025c43)" style="fill: none; stroke: #000000; stroke-linecap: round"/>
    <path d="M 465.330842 35.49781 
L 470.135092 25.402307 
L 475.328945 35.303008 
z
" clip-path="url(#p1c25025c43)" style="stroke: #000000; stroke-linecap: round"/>
   </g>
   <g id="PathCollection_3">
    <g>
     <use xlink:href="#mfc7a14e9f4" x="469.713601" y="199.641177" style="fill: #fec7b8; stroke: #000000"/>
     <use xlink:href="#mfc7a14e9f4" x="471.743917" y="107.974688" style="fill: #fec7b8; stroke: #000000"/>
     <use xlink:href="#mfc7a14e9f4" x="469.957904" y="16.308198" style="fill: #fec7b8; stroke: #000000"/>
    </g>
   </g>
   <g id="text_13">
    <!-- {U, U_inter_V, W} -->
    <g transform="translate(424.662039 202.261489) scale(0.1 -0.1)">
     <use xlink:href="#DejaVuSans-7b"/>
     <use xlink:href="#DejaVuSans-55" transform="translate(63.623047 0)"/>
     <use xlink:href="#DejaVuSans-2c" transform="translate(136.816406 0)"/>
     <use xlink:href="#DejaVuSans-20" transform="translate(168.603516 0)"/>
     <use xlink:href="#DejaVuSans-55" transform="translate(200.390625 0)"/>
     <use xlink:href="#DejaVuSans-5f" transform="translate(273.583984 0)"/>
     <use xlink:href="#DejaVuSans-69" transform="translate(323.583984 0)"/>
     <use xlink:href="#DejaVuSans-6e" transform="translate(351.367188 0)"/>
     <use xlink:href="#DejaVuSans-74" transform="translate(414.746094 0)"/>
     <use xlink:href="#DejaVuSans-65" transform="translate(453.955078 0)"/>
     <use xlink:href="#DejaVuSans-72" transform="translate(515.478516 0)"/>
     <use xlink:href="#DejaVuSans-5f" transform="translate(556.591797 0)"/>
     <use xlink:href="#DejaVuSans-56" transform="translate(606.591797 0)"/>
     <use xlink:href="#DejaVuSans-2c" transform="translate(675 0)"/>
     <use xlink:href="#DejaVuSans-20" transform="translate(706.787109 0)"/>
     <use xlink:href="#DejaVuSans-57" transform="translate(738.574219 0)"/>
     <use xlink:href="#DejaVuSans-7d" transform="translate(837.451172 0)"/>
    </g>
   </g>
   <g id="text_14">
    <!-- {V, V0, V1} -->
    <g transform="translate(442.401729 110.734063) scale(0.1 -0.1)">
     <use xlink:href="#DejaVuSans-7b"/>
     <use xlink:href="#DejaVuSans-56" transform="translate(63.623047 0)"/>
     <use xlink:href="#DejaVuSans-2c" transform="translate(132.03125 0)"/>
     <use xlink:href="#DejaVuSans-20" transform="translate(163.818359 0)"/>
     <use xlink:href="#DejaVuSans-56" transform="translate(195.605469 0)"/>
     <use xlink:href="#DejaVuSans-30" transform="translate(264.013672 0)"/>
     <use xlink:href="#DejaVuSans-2c" transform="translate(327.636719 0)"/>
     <use xlink:href="#DejaVuSans-20" transform="translate(359.423828 0)"/>
     <use xlink:href="#DejaVuSans-56" transform="translate(391.210938 0)"/>
     <use xlink:href="#DejaVuSans-31" transform="translate(459.619141 0)"/>
     <use xlink:href="#DejaVuSans-7d" transform="translate(523.242188 0)"/>
    </g>
   </g>
   <g id="text_15">
    <!-- {M} -->
    <g transform="translate(459.281342 19.067573) scale(0.1 -0.1)">
     <use xlink:href="#DejaVuSans-7b"/>
     <use xlink:href="#DejaVuSans-4d" transform="translate(63.623047 0)"/>
     <use xlink:href="#DejaVuSans-7d" transform="translate(149.902344 0)"/>
    </g>
   </g>
  </g>
 </g>
 <defs>
  <clipPath id="p3396c05d67">
   <rect x="48.121977" y="12.641538" width="114.298527" height="190.666298"/>
  </clipPath>
  <clipPath id="p672004bb38">
   <rect x="255.897889" y="12.641538" width="64.204221" height="190.666298"/>
  </clipPath>
  <clipPath id="p1c25025c43">
   <rect x="469.672995" y="12.641538" width="2.111528" height="190.666298"/>
  </clipPath>
 </defs>
</svg>
