<?xml version="1.0" encoding="utf-8" standalone="no"?>
<!DOCTYPE svg PUBLIC "-//W3C//DTD SVG 1.1//EN"
  "http://www.w3.org/Graphics/SVG/1.1/DTD/svg11.dtd">
<svg xmlns:xlink="http://www.w3.org/1999/xlink" width="576pt" height="216pt" viewBox="0 0 576 216" xmlns="http://www.w3.org/2000/svg" version="1.1">
 <metadata>
  <rdf:RDF xmlns:dc="http://purl.org/dc/elements/1.1/" xmlns:cc="http://creativecommons.org/ns#" xmlns:rdf="http://www.w3.org/1999/02/22-rdf-syntax-ns#">
   <cc:Work>
    <dc:type rdf:resource="http://purl.org/dc/dcmitype/StillImage"/>
    <dc:date>2025-08-04T21:51:01.896852</dc:date>
    <dc:format>image/svg+xml</dc:format>
    <dc:creator>
     <cc:Agent>
      <dc:title>Matplotlib v3.10.3, https://matplotlib.org/</dc:title>
     </cc:Agent>
    </dc:creator>
   </cc:Work>
  </rdf:RDF>
 </metadata>
 <defs>
  <style type="text/css">*{stroke-linejoin: round; stroke-linecap: butt}</style>
 </defs>
 <g id="figure_1">
  <g id="patch_1">
   <path d="M 0 216 
L 576 216 
L 576 0 
L 0 0 
z
" style="fill: #ffffff"/>
  </g>
  <g id="axes_1">
   <g id="patch_2">
    <path d="M 61.729299 203.358462 
L 157.306768 203.358462 
L 157.306768 12.641538 
L 61.729299 12.641538 
z
" style="fill: #ffffff"/>
   </g>
   <g id="matplotlib.axis_1"/>
   <g id="matplotlib.axis_2"/>
   <g id="patch_3">
    <path d="M 109.343512 191.713211 
Q 109.228504 108.000445 109.115032 25.405712 
" clip-path="url(#p63aab923f0)" style="fill: none; stroke: #000000; stroke-linecap: round"/>
    <path d="M 104.128775 35.412571 
L 109.115032 25.405712 
L 114.128766 35.398833 
z
" clip-path="url(#p63aab923f0)" style="stroke: #000000; stroke-linecap: round"/>
   </g>
   <g id="patch_4">
    <path d="M 106.910554 25.136824 
Q 86.334939 107.999967 65.489889 191.948193 
" clip-path="url(#p63aab923f0)" style="fill: none; stroke: #000000; stroke-linecap: round"/>
    <path d="M 99.648015 33.637149 
L 106.910554 25.136824 
L 109.353291 36.04705 
z
" clip-path="url(#p63aab923f0)" style="stroke: #000000; stroke-linecap: round"/>
   </g>
   <g id="patch_5">
    <path d="M 111.33281 25.130069 
Q 132.285568 107.999726 153.512386 191.953307 
" clip-path="url(#p63aab923f0)" style="fill: none; stroke: #000000; stroke-linecap: round"/>
    <path d="M 108.936615 36.050612 
L 111.33281 25.130069 
L 118.631527 33.599351 
z
" clip-path="url(#p63aab923f0)" style="stroke: #000000; stroke-linecap: round"/>
   </g>
   <g id="PathCollection_1">
    <defs>
     <path id="m216e3bf7a6" d="M 0 7.071068 
C 1.875269 7.071068 3.673985 6.326016 5 5 
C 6.326016 3.673985 7.071068 1.875269 7.071068 0 
C 7.071068 -1.875269 6.326016 -3.673985 5 -5 
C 3.673985 -6.326016 1.875269 -7.071068 0 -7.071068 
C -1.875269 -7.071068 -3.673985 -6.326016 -5 -5 
C -6.326016 -3.673985 -7.071068 -1.875269 -7.071068 0 
C -7.071068 1.875269 -6.326016 3.673985 -5 5 
C -3.673985 6.326016 -1.875269 7.071068 0 7.071068 
z
" style="stroke: #000000"/>
    </defs>
    <g>
     <use xlink:href="#m216e3bf7a6" x="63.567327" y="199.690828" style="fill: #fec7b8; stroke: #000000"/>
     <use xlink:href="#m216e3bf7a6" x="109.354472" y="199.690828" style="fill: #fec7b8; stroke: #000000"/>
     <use xlink:href="#m216e3bf7a6" x="155.46874" y="199.690828" style="fill: #fec7b8; stroke: #000000"/>
     <use xlink:href="#m216e3bf7a6" x="109.102535" y="16.309172" style="fill: #fec7b8; stroke: #000000"/>
    </g>
   </g>
   <g id="text_1">
    <!-- {V} -->
    <g transform="translate(99.57166 202.450203) scale(0.1 -0.1)">
     <defs>
      <path id="DejaVuSans-7b" d="M 3272 -594 
L 3272 -1044 
L 3078 -1044 
Q 2300 -1044 2036 -812 
Q 1772 -581 1772 109 
L 1772 856 
Q 1772 1328 1603 1509 
Q 1434 1691 991 1691 
L 800 1691 
L 800 2138 
L 991 2138 
Q 1438 2138 1605 2317 
Q 1772 2497 1772 2963 
L 1772 3713 
Q 1772 4403 2036 4633 
Q 2300 4863 3078 4863 
L 3272 4863 
L 3272 4416 
L 3059 4416 
Q 2619 4416 2484 4278 
Q 2350 4141 2350 3700 
L 2350 2925 
Q 2350 2434 2208 2212 
Q 2066 1991 1722 1913 
Q 2069 1828 2209 1606 
Q 2350 1384 2350 897 
L 2350 122 
Q 2350 -319 2484 -456 
Q 2619 -594 3059 -594 
L 3272 -594 
z
" transform="scale(0.015625)"/>
      <path id="DejaVuSans-56" d="M 1831 0 
L 50 4666 
L 709 4666 
L 2188 738 
L 3669 4666 
L 4325 4666 
L 2547 0 
L 1831 0 
z
" transform="scale(0.015625)"/>
      <path id="DejaVuSans-7d" d="M 800 -594 
L 1019 -594 
Q 1456 -594 1589 -459 
Q 1722 -325 1722 122 
L 1722 897 
Q 1722 1384 1862 1606 
Q 2003 1828 2350 1913 
Q 2003 1991 1862 2212 
Q 1722 2434 1722 2925 
L 1722 3700 
Q 1722 4144 1589 4280 
Q 1456 4416 1019 4416 
L 800 4416 
L 800 4863 
L 997 4863 
Q 1775 4863 2036 4633 
Q 2297 4403 2297 3713 
L 2297 2963 
Q 2297 2497 2465 2317 
Q 2634 2138 3078 2138 
L 3272 2138 
L 3272 1691 
L 3078 1691 
Q 2634 1691 2465 1509 
Q 2297 1328 2297 856 
L 2297 109 
Q 2297 -581 2036 -812 
Q 1775 -1044 997 -1044 
L 800 -1044 
L 800 -594 
z
" transform="scale(0.015625)"/>
     </defs>
     <use xlink:href="#DejaVuSans-7b"/>
     <use xlink:href="#DejaVuSans-56" transform="translate(63.623047 0)"/>
     <use xlink:href="#DejaVuSans-7d" transform="translate(132.03125 0)"/>
    </g>
   </g>
   <g id="text_2">
    <!-- {M} -->
    <g transform="translate(98.425972 19.068547) scale(0.1 -0.1)">
     <defs>
      <path id="DejaVuSans-4d" d="M 628 4666 
L 1569 4666 
L 2759 1491 
L 3956 4666 
L 4897 4666 
L 4897 0 
L 4281 0 
L 4281 4097 
L 3078 897 
L 2444 897 
L 1241 4097 
L 1241 0 
L 628 0 
L 628 4666 
z
" transform="scale(0.015625)"/>
     </defs>
     <use xlink:href="#DejaVuSans-7b"/>
     <use xlink:href="#DejaVuSans-4d" transform="translate(63.623047 0)"/>
     <use xlink:href="#DejaVuSans-7d" transform="translate(149.902344 0)"/>
    </g>
   </g>
   <g id="text_3">
    <!-- {U} -->
    <g transform="translate(53.545452 202.450203) scale(0.1 -0.1)">
     <defs>
      <path id="DejaVuSans-55" d="M 556 4666 
L 1191 4666 
L 1191 1831 
Q 1191 1081 1462 751 
Q 1734 422 2344 422 
Q 2950 422 3222 751 
Q 3494 1081 3494 1831 
L 3494 4666 
L 4128 4666 
L 4128 1753 
Q 4128 841 3676 375 
Q 3225 -91 2344 -91 
Q 1459 -91 1007 375 
Q 556 841 556 1753 
L 556 4666 
z
" transform="scale(0.015625)"/>
     </defs>
     <use xlink:href="#DejaVuSans-7b"/>
     <use xlink:href="#DejaVuSans-55" transform="translate(63.623047 0)"/>
     <use xlink:href="#DejaVuSans-7d" transform="translate(136.816406 0)"/>
    </g>
   </g>
   <g id="text_4">
    <!-- {W} -->
    <g transform="translate(144.16249 202.450203) scale(0.1 -0.1)">
     <defs>
      <path id="DejaVuSans-57" d="M 213 4666 
L 850 4666 
L 1831 722 
L 2809 4666 
L 3519 4666 
L 4500 722 
L 5478 4666 
L 6119 4666 
L 4947 0 
L 4153 0 
L 3169 4050 
L 2175 0 
L 1381 0 
L 213 4666 
z
" transform="scale(0.015625)"/>
     </defs>
     <use xlink:href="#DejaVuSans-7b"/>
     <use xlink:href="#DejaVuSans-57" transform="translate(63.623047 0)"/>
     <use xlink:href="#DejaVuSans-7d" transform="translate(162.5 0)"/>
    </g>
   </g>
  </g>
  <g id="axes_2">
   <g id="patch_6">
    <path d="M 240.241279 203.358462 
L 335.758721 203.358462 
L 335.758721 12.641538 
L 240.241279 12.641538 
z
" style="fill: #ffffff"/>
   </g>
   <g id="matplotlib.axis_3"/>
   <g id="matplotlib.axis_4"/>
   <g id="patch_7">
    <path d="M 287.917205 191.713211 
Q 287.91724 108.000445 287.917274 25.405713 
" clip-path="url(#p56223fed0c)" style="fill: none; stroke: #000000; stroke-linecap: round"/>
    <path d="M 282.91727 35.405711 
L 287.917274 25.405713 
L 292.91727 35.405715 
z
" clip-path="url(#p56223fed0c)" style="stroke: #000000; stroke-linecap: round"/>
   </g>
   <g id="patch_8">
    <path d="M 287.83104 191.713211 
Q 287.422056 153.845808 287.025147 117.096373 
" clip-path="url(#p56223fed0c)" style="fill: none; stroke: #000000; stroke-linecap: round"/>
    <path d="M 282.133436 127.149789 
L 287.025147 117.096373 
L 292.132853 127.041791 
z
" clip-path="url(#p56223fed0c)" style="stroke: #000000; stroke-linecap: round"/>
   </g>
   <g id="patch_9">
    <path d="M 285.710772 25.136402 
Q 264.997723 107.999967 244.013546 191.948193 
" clip-path="url(#p56223fed0c)" style="fill: none; stroke: #000000; stroke-linecap: round"/>
    <path d="M 278.434978 33.625384 
L 285.710772 25.136402 
L 288.136481 36.050427 
z
" clip-path="url(#p56223fed0c)" style="stroke: #000000; stroke-linecap: round"/>
   </g>
   <g id="patch_10">
    <path d="M 290.130284 25.130575 
Q 310.919494 107.999726 331.980751 191.953307 
" clip-path="url(#p56223fed0c)" style="fill: none; stroke: #000000; stroke-linecap: round"/>
    <path d="M 287.713842 36.046656 
L 290.130284 25.130575 
L 297.413283 33.613377 
z
" clip-path="url(#p56223fed0c)" style="stroke: #000000; stroke-linecap: round"/>
   </g>
   <g id="patch_11">
    <path d="M 330.283353 192.591841 
Q 310.425098 153.846826 291.076798 116.096772 
" clip-path="url(#p56223fed0c)" style="fill: none; stroke: #000000; stroke-linecap: round"/>
    <path d="M 291.188367 127.276555 
L 291.076798 116.096772 
L 300.087566 122.715386 
z
" clip-path="url(#p56223fed0c)" style="stroke: #000000; stroke-linecap: round"/>
   </g>
   <g id="patch_12">
    <path d="M 287.819034 25.404757 
Q 287.422094 62.154192 287.013079 100.021595 
" clip-path="url(#p56223fed0c)" style="fill: none; stroke: #000000; stroke-linecap: round"/>
    <path d="M 282.711319 35.350171 
L 287.819034 25.404757 
L 292.710736 35.458177 
z
" clip-path="url(#p56223fed0c)" style="stroke: #000000; stroke-linecap: round"/>
   </g>
   <g id="PathCollection_2">
    <g>
     <use xlink:href="#m216e3bf7a6" x="242.078153" y="199.690828" style="fill: #fec7b8; stroke: #000000"/>
     <use xlink:href="#m216e3bf7a6" x="287.917202" y="199.690828" style="fill: #fec7b8; stroke: #000000"/>
     <use xlink:href="#m216e3bf7a6" x="333.921847" y="199.690828" style="fill: #fec7b8; stroke: #000000"/>
     <use xlink:href="#m216e3bf7a6" x="286.926902" y="108" style="fill: #fec7b8; stroke: #000000"/>
     <use xlink:href="#m216e3bf7a6" x="287.917277" y="16.309172" style="fill: #fec7b8; stroke: #000000"/>
    </g>
   </g>
   <g id="text_5">
    <!-- {V} -->
    <g transform="translate(278.134389 202.450203) scale(0.1 -0.1)">
     <use xlink:href="#DejaVuSans-7b"/>
     <use xlink:href="#DejaVuSans-56" transform="translate(63.623047 0)"/>
     <use xlink:href="#DejaVuSans-7d" transform="translate(132.03125 0)"/>
    </g>
   </g>
   <g id="text_6">
    <!-- {M} -->
    <g transform="translate(277.240715 19.068547) scale(0.1 -0.1)">
     <use xlink:href="#DejaVuSans-7b"/>
     <use xlink:href="#DejaVuSans-4d" transform="translate(63.623047 0)"/>
     <use xlink:href="#DejaVuSans-7d" transform="translate(149.902344 0)"/>
    </g>
   </g>
   <g id="text_7">
    <!-- {U} -->
    <g transform="translate(232.056278 202.450203) scale(0.1 -0.1)">
     <use xlink:href="#DejaVuSans-7b"/>
     <use xlink:href="#DejaVuSans-55" transform="translate(63.623047 0)"/>
     <use xlink:href="#DejaVuSans-7d" transform="translate(136.816406 0)"/>
    </g>
   </g>
   <g id="text_8">
    <!-- {W} -->
    <g transform="translate(322.615597 202.450203) scale(0.1 -0.1)">
     <use xlink:href="#DejaVuSans-7b"/>
     <use xlink:href="#DejaVuSans-57" transform="translate(63.623047 0)"/>
     <use xlink:href="#DejaVuSans-7d" transform="translate(162.5 0)"/>
    </g>
   </g>
   <g id="text_9">
    <!-- {V_union_W} -->
    <g transform="translate(253.245652 110.620312) scale(0.1 -0.1)">
     <defs>
      <path id="DejaVuSans-5f" d="M 3263 -1063 
L 3263 -1509 
L -63 -1509 
L -63 -1063 
L 3263 -1063 
z
" transform="scale(0.015625)"/>
      <path id="DejaVuSans-75" d="M 544 1381 
L 544 3500 
L 1119 3500 
L 1119 1403 
Q 1119 906 1312 657 
Q 1506 409 1894 409 
Q 2359 409 2629 706 
Q 2900 1003 2900 1516 
L 2900 3500 
L 3475 3500 
L 3475 0 
L 2900 0 
L 2900 538 
Q 2691 219 2414 64 
Q 2138 -91 1772 -91 
Q 1169 -91 856 284 
Q 544 659 544 1381 
z
M 1991 3584 
L 1991 3584 
z
" transform="scale(0.015625)"/>
      <path id="DejaVuSans-6e" d="M 3513 2113 
L 3513 0 
L 2938 0 
L 2938 2094 
Q 2938 2591 2744 2837 
Q 2550 3084 2163 3084 
Q 1697 3084 1428 2787 
Q 1159 2491 1159 1978 
L 1159 0 
L 581 0 
L 581 3500 
L 1159 3500 
L 1159 2956 
Q 1366 3272 1645 3428 
Q 1925 3584 2291 3584 
Q 2894 3584 3203 3211 
Q 3513 2838 3513 2113 
z
" transform="scale(0.015625)"/>
      <path id="DejaVuSans-69" d="M 603 3500 
L 1178 3500 
L 1178 0 
L 603 0 
L 603 3500 
z
M 603 4863 
L 1178 4863 
L 1178 4134 
L 603 4134 
L 603 4863 
z
" transform="scale(0.015625)"/>
      <path id="DejaVuSans-6f" d="M 1959 3097 
Q 1497 3097 1228 2736 
Q 959 2375 959 1747 
Q 959 1119 1226 758 
Q 1494 397 1959 397 
Q 2419 397 2687 759 
Q 2956 1122 2956 1747 
Q 2956 2369 2687 2733 
Q 2419 3097 1959 3097 
z
M 1959 3584 
Q 2709 3584 3137 3096 
Q 3566 2609 3566 1747 
Q 3566 888 3137 398 
Q 2709 -91 1959 -91 
Q 1206 -91 779 398 
Q 353 888 353 1747 
Q 353 2609 779 3096 
Q 1206 3584 1959 3584 
z
" transform="scale(0.015625)"/>
     </defs>
     <use xlink:href="#DejaVuSans-7b"/>
     <use xlink:href="#DejaVuSans-56" transform="translate(63.623047 0)"/>
     <use xlink:href="#DejaVuSans-5f" transform="translate(132.03125 0)"/>
     <use xlink:href="#DejaVuSans-75" transform="translate(182.03125 0)"/>
     <use xlink:href="#DejaVuSans-6e" transform="translate(245.410156 0)"/>
     <use xlink:href="#DejaVuSans-69" transform="translate(308.789062 0)"/>
     <use xlink:href="#DejaVuSans-6f" transform="translate(336.572266 0)"/>
     <use xlink:href="#DejaVuSans-6e" transform="translate(397.753906 0)"/>
     <use xlink:href="#DejaVuSans-5f" transform="translate(461.132812 0)"/>
     <use xlink:href="#DejaVuSans-57" transform="translate(511.132812 0)"/>
     <use xlink:href="#DejaVuSans-7d" transform="translate(610.009766 0)"/>
    </g>
   </g>
  </g>
  <g id="axes_3">
   <g id="patch_13">
    <path d="M 418.917357 203.358462 
L 514.046576 203.358462 
L 514.046576 12.641538 
L 418.917357 12.641538 
z
" style="fill: #ffffff"/>
   </g>
   <g id="matplotlib.axis_5"/>
   <g id="matplotlib.axis_6"/>
   <g id="patch_14">
    <path d="M 467.754367 191.774771 
Q 478.174699 108.000496 488.457027 25.335706 
" clip-path="url(#p060efa8210)" style="fill: none; stroke: #000000; stroke-linecap: round"/>
    <path d="M 482.260917 34.64206 
L 488.457027 25.335706 
L 492.184444 35.876406 
z
" clip-path="url(#p060efa8210)" style="stroke: #000000; stroke-linecap: round"/>
   </g>
   <g id="patch_15">
    <path d="M 466.775872 191.713211 
Q 466.805068 153.845808 466.833402 117.096438 
" clip-path="url(#p060efa8210)" style="fill: none; stroke: #000000; stroke-linecap: round"/>
    <path d="M 461.825693 127.09258 
L 466.833402 117.096438 
L 471.825691 127.10029 
z
" clip-path="url(#p060efa8210)" style="stroke: #000000; stroke-linecap: round"/>
   </g>
   <g id="patch_16">
    <path d="M 486.383633 24.824245 
Q 455.163629 107.999076 423.550733 192.220633 
" clip-path="url(#p060efa8210)" style="fill: none; stroke: #000000; stroke-linecap: round"/>
    <path d="M 478.188392 32.429377 
L 486.383633 24.824245 
L 487.550594 35.943517 
z
" clip-path="url(#p060efa8210)" style="stroke: #000000; stroke-linecap: round"/>
   </g>
   <g id="patch_17">
    <path d="M 490.693965 25.33484 
Q 500.898422 107.999504 511.239855 191.773779 
" clip-path="url(#p060efa8210)" style="fill: none; stroke: #000000; stroke-linecap: round"/>
    <path d="M 486.956772 35.872078 
L 490.693965 25.33484 
L 496.881439 34.646937 
z
" clip-path="url(#p060efa8210)" style="stroke: #000000; stroke-linecap: round"/>
   </g>
   <g id="patch_18">
    <path d="M 508.679033 192.541473 
Q 489.528749 153.845328 470.874363 116.151223 
" clip-path="url(#p060efa8210)" style="fill: none; stroke: #000000; stroke-linecap: round"/>
    <path d="M 470.828553 127.331469 
L 470.874363 116.151223 
L 479.791074 122.896019 
z
" clip-path="url(#p060efa8210)" style="stroke: #000000; stroke-linecap: round"/>
   </g>
   <g id="patch_19">
    <path d="M 487.390517 25.136902 
Q 478.210361 62.153562 468.761085 100.255384 
" clip-path="url(#p060efa8210)" style="fill: none; stroke: #000000; stroke-linecap: round"/>
    <path d="M 480.130442 33.639332 
L 487.390517 25.136902 
L 489.836416 36.04642 
z
" clip-path="url(#p060efa8210)" style="stroke: #000000; stroke-linecap: round"/>
   </g>
   <g id="patch_20">
    <path d="M 464.86614 100.268623 
Q 455.133245 62.154035 445.676973 25.12272 
" clip-path="url(#p060efa8210)" style="fill: none; stroke: #000000; stroke-linecap: round"/>
    <path d="M 443.306624 36.048901 
L 445.676973 25.12272 
L 452.995709 33.574708 
z
" clip-path="url(#p060efa8210)" style="stroke: #000000; stroke-linecap: round"/>
   </g>
   <g id="PathCollection_3">
    <g>
     <use xlink:href="#m216e3bf7a6" x="420.746765" y="199.690828" style="fill: #fec7b8; stroke: #000000"/>
     <use xlink:href="#m216e3bf7a6" x="466.769722" y="199.690828" style="fill: #fec7b8; stroke: #000000"/>
     <use xlink:href="#m216e3bf7a6" x="512.217168" y="199.690828" style="fill: #fec7b8; stroke: #000000"/>
     <use xlink:href="#m216e3bf7a6" x="466.840415" y="108" style="fill: #fec7b8; stroke: #000000"/>
     <use xlink:href="#m216e3bf7a6" x="443.426356" y="16.309172" style="fill: #fec7b8; stroke: #000000"/>
     <use xlink:href="#m216e3bf7a6" x="489.5798" y="16.309172" style="fill: #fec7b8; stroke: #000000"/>
    </g>
   </g>
   <g id="text_10">
    <!-- {V} -->
    <g transform="translate(456.986909 202.450203) scale(0.1 -0.1)">
     <use xlink:href="#DejaVuSans-7b"/>
     <use xlink:href="#DejaVuSans-56" transform="translate(63.623047 0)"/>
     <use xlink:href="#DejaVuSans-7d" transform="translate(132.03125 0)"/>
    </g>
   </g>
   <g id="text_11">
    <!-- {M} -->
    <g transform="translate(478.903237 19.068547) scale(0.1 -0.1)">
     <use xlink:href="#DejaVuSans-7b"/>
     <use xlink:href="#DejaVuSans-4d" transform="translate(63.623047 0)"/>
     <use xlink:href="#DejaVuSans-7d" transform="translate(149.902344 0)"/>
    </g>
   </g>
   <g id="text_12">
    <!-- {U} -->
    <g transform="translate(410.72489 202.450203) scale(0.1 -0.1)">
     <use xlink:href="#DejaVuSans-7b"/>
     <use xlink:href="#DejaVuSans-55" transform="translate(63.623047 0)"/>
     <use xlink:href="#DejaVuSans-7d" transform="translate(136.816406 0)"/>
    </g>
   </g>
   <g id="text_13">
    <!-- {W} -->
    <g transform="translate(500.910918 202.450203) scale(0.1 -0.1)">
     <use xlink:href="#DejaVuSans-7b"/>
     <use xlink:href="#DejaVuSans-57" transform="translate(63.623047 0)"/>
     <use xlink:href="#DejaVuSans-7d" transform="translate(162.5 0)"/>
    </g>
   </g>
   <g id="text_14">
    <!-- {V_union_W} -->
    <g transform="translate(433.159165 110.620312) scale(0.1 -0.1)">
     <use xlink:href="#DejaVuSans-7b"/>
     <use xlink:href="#DejaVuSans-56" transform="translate(63.623047 0)"/>
     <use xlink:href="#DejaVuSans-5f" transform="translate(132.03125 0)"/>
     <use xlink:href="#DejaVuSans-75" transform="translate(182.03125 0)"/>
     <use xlink:href="#DejaVuSans-6e" transform="translate(245.410156 0)"/>
     <use xlink:href="#DejaVuSans-69" transform="translate(308.789062 0)"/>
     <use xlink:href="#DejaVuSans-6f" transform="translate(336.572266 0)"/>
     <use xlink:href="#DejaVuSans-6e" transform="translate(397.753906 0)"/>
     <use xlink:href="#DejaVuSans-5f" transform="translate(461.132812 0)"/>
     <use xlink:href="#DejaVuSans-57" transform="translate(511.132812 0)"/>
     <use xlink:href="#DejaVuSans-7d" transform="translate(610.009766 0)"/>
    </g>
   </g>
   <g id="text_15">
    <!-- [{V}, {W}] -->
    <g transform="translate(415.257606 19.068547) scale(0.1 -0.1)">
     <defs>
      <path id="DejaVuSans-5b" d="M 550 4863 
L 1875 4863 
L 1875 4416 
L 1125 4416 
L 1125 -397 
L 1875 -397 
L 1875 -844 
L 550 -844 
L 550 4863 
z
" transform="scale(0.015625)"/>
      <path id="DejaVuSans-2c" d="M 750 794 
L 1409 794 
L 1409 256 
L 897 -744 
L 494 -744 
L 750 256 
L 750 794 
z
" transform="scale(0.015625)"/>
      <path id="DejaVuSans-20" transform="scale(0.015625)"/>
      <path id="DejaVuSans-5d" d="M 1947 4863 
L 1947 -844 
L 622 -844 
L 622 -397 
L 1369 -397 
L 1369 4416 
L 622 4416 
L 622 4863 
L 1947 4863 
z
" transform="scale(0.015625)"/>
     </defs>
     <use xlink:href="#DejaVuSans-5b"/>
     <use xlink:href="#DejaVuSans-7b" transform="translate(39.013672 0)"/>
     <use xlink:href="#DejaVuSans-56" transform="translate(102.636719 0)"/>
     <use xlink:href="#DejaVuSans-7d" transform="translate(171.044922 0)"/>
     <use xlink:href="#DejaVuSans-2c" transform="translate(234.667969 0)"/>
     <use xlink:href="#DejaVuSans-20" transform="translate(266.455078 0)"/>
     <use xlink:href="#DejaVuSans-7b" transform="translate(298.242188 0)"/>
     <use xlink:href="#DejaVuSans-57" transform="translate(361.865234 0)"/>
     <use xlink:href="#DejaVuSans-7d" transform="translate(460.742188 0)"/>
     <use xlink:href="#DejaVuSans-5d" transform="translate(524.365234 0)"/>
    </g>
   </g>
  </g>
 </g>
 <defs>
  <clipPath id="p63aab923f0">
   <rect x="61.729299" y="12.641538" width="95.577469" height="190.716923"/>
  </clipPath>
  <clipPath id="p56223fed0c">
   <rect x="240.241279" y="12.641538" width="95.517442" height="190.716923"/>
  </clipPath>
  <clipPath id="p060efa8210">
   <rect x="418.917357" y="12.641538" width="95.129218" height="190.716923"/>
  </clipPath>
 </defs>
</svg>
