<?xml version="1.0" encoding="utf-8" standalone="no"?>
<!DOCTYPE svg PUBLIC "-//W3C//DTD SVG 1.1//EN"
  "http://www.w3.org/Graphics/SVG/1.1/DTD/svg11.dtd">
<svg xmlns:xlink="http://www.w3.org/1999/xlink" width="576pt" height="216pt" viewBox="0 0 576 216" xmlns="http://www.w3.org/2000/svg" version="1.1">
 <metadata>
  <rdf:RDF xmlns:dc="http://purl.org/dc/elements/1.1/" xmlns:cc="http://creativecommons.org/ns#" xmlns:rdf="http://www.w3.org/1999/02/22-rdf-syntax-ns#">
   <cc:Work>
    <dc:type rdf:resource="http://purl.org/dc/dcmitype/StillImage"/>
    <dc:date>2025-08-02T15:58:33.258035</dc:date>
    <dc:format>image/svg+xml</dc:format>
    <dc:creator>
     <cc:Agent>
      <dc:title>Matplotlib v3.10.3, https://matplotlib.org/</dc:title>
     </cc:Agent>
    </dc:creator>
   </cc:Work>
  </rdf:RDF>
 </metadata>
 <defs>
  <style type="text/css">*{stroke-linejoin: round; stroke-linecap: butt}</style>
 </defs>
 <g id="figure_1">
  <g id="patch_1">
   <path d="M 0 216 
L 576 216 
L 576 0 
L 0 0 
z
" style="fill: #ffffff"/>
  </g>
  <g id="axes_1">
   <g id="patch_2">
    <path d="M 62.05972 203.358462 
L 157.050838 203.358462 
L 157.050838 12.641538 
L 62.05972 12.641538 
z
" style="fill: #ffffff"/>
   </g>
   <g id="matplotlib.axis_1"/>
   <g id="matplotlib.axis_2"/>
   <g id="patch_3">
    <path d="M 109.174317 191.713211 
Q 108.968562 108.000445 108.765556 25.405709 
" clip-path="url(#pc748c4c6c0)" style="fill: none; stroke: #000000; stroke-linecap: round"/>
    <path d="M 103.79015 35.417968 
L 108.765556 25.405709 
L 113.79012 35.39339 
z
" clip-path="url(#pc748c4c6c0)" style="stroke: #000000; stroke-linecap: round"/>
   </g>
   <g id="patch_4">
    <path d="M 106.582282 25.143354 
Q 86.314784 108.000209 65.781638 191.94308 
" clip-path="url(#pc748c4c6c0)" style="fill: none; stroke: #000000; stroke-linecap: round"/>
    <path d="M 99.349435 33.668958 
L 106.582282 25.143354 
L 109.063057 36.044993 
z
" clip-path="url(#pc748c4c6c0)" style="stroke: #000000; stroke-linecap: round"/>
   </g>
   <g id="patch_5">
    <path d="M 110.978949 25.129908 
Q 131.984252 108.002406 153.264251 191.958667 
" clip-path="url(#pc748c4c6c0)" style="fill: none; stroke: #000000; stroke-linecap: round"/>
    <path d="M 108.589172 36.051857 
L 110.978949 25.129908 
L 118.282642 33.594898 
z
" clip-path="url(#pc748c4c6c0)" style="stroke: #000000; stroke-linecap: round"/>
   </g>
   <g id="PathCollection_1">
    <defs>
     <path id="m8c73f0817b" d="M 0 7.071068 
C 1.875269 7.071068 3.673985 6.326016 5 5 
C 6.326016 3.673985 7.071068 1.875269 7.071068 0 
C 7.071068 -1.875269 6.326016 -3.673985 5 -5 
C 3.673985 -6.326016 1.875269 -7.071068 0 -7.071068 
C -1.875269 -7.071068 -3.673985 -6.326016 -5 -5 
C -6.326016 -3.673985 -7.071068 -1.875269 -7.071068 0 
C -7.071068 1.875269 -6.326016 3.673985 -5 5 
C -3.673985 6.326016 -1.875269 7.071068 0 7.071068 
z
" style="stroke: #000000"/>
    </defs>
    <g>
     <use xlink:href="#m8c73f0817b" x="63.886473" y="199.690828" style="fill: #fec7b8; stroke: #000000"/>
     <use xlink:href="#m8c73f0817b" x="109.193924" y="199.690828" style="fill: #fec7b8; stroke: #000000"/>
     <use xlink:href="#m8c73f0817b" x="155.224086" y="199.690828" style="fill: #fec7b8; stroke: #000000"/>
     <use xlink:href="#m8c73f0817b" x="108.743198" y="16.309172" style="fill: #fec7b8; stroke: #000000"/>
    </g>
   </g>
   <g id="text_1">
    <!-- {V} -->
    <g transform="translate(99.411112 202.450203) scale(0.1 -0.1)">
     <defs>
      <path id="DejaVuSans-7b" d="M 3272 -594 
L 3272 -1044 
L 3078 -1044 
Q 2300 -1044 2036 -812 
Q 1772 -581 1772 109 
L 1772 856 
Q 1772 1328 1603 1509 
Q 1434 1691 991 1691 
L 800 1691 
L 800 2138 
L 991 2138 
Q 1438 2138 1605 2317 
Q 1772 2497 1772 2963 
L 1772 3713 
Q 1772 4403 2036 4633 
Q 2300 4863 3078 4863 
L 3272 4863 
L 3272 4416 
L 3059 4416 
Q 2619 4416 2484 4278 
Q 2350 4141 2350 3700 
L 2350 2925 
Q 2350 2434 2208 2212 
Q 2066 1991 1722 1913 
Q 2069 1828 2209 1606 
Q 2350 1384 2350 897 
L 2350 122 
Q 2350 -319 2484 -456 
Q 2619 -594 3059 -594 
L 3272 -594 
z
" transform="scale(0.015625)"/>
      <path id="DejaVuSans-56" d="M 1831 0 
L 50 4666 
L 709 4666 
L 2188 738 
L 3669 4666 
L 4325 4666 
L 2547 0 
L 1831 0 
z
" transform="scale(0.015625)"/>
      <path id="DejaVuSans-7d" d="M 800 -594 
L 1019 -594 
Q 1456 -594 1589 -459 
Q 1722 -325 1722 122 
L 1722 897 
Q 1722 1384 1862 1606 
Q 2003 1828 2350 1913 
Q 2003 1991 1862 2212 
Q 1722 2434 1722 2925 
L 1722 3700 
Q 1722 4144 1589 4280 
Q 1456 4416 1019 4416 
L 800 4416 
L 800 4863 
L 997 4863 
Q 1775 4863 2036 4633 
Q 2297 4403 2297 3713 
L 2297 2963 
Q 2297 2497 2465 2317 
Q 2634 2138 3078 2138 
L 3272 2138 
L 3272 1691 
L 3078 1691 
Q 2634 1691 2465 1509 
Q 2297 1328 2297 856 
L 2297 109 
Q 2297 -581 2036 -812 
Q 1775 -1044 997 -1044 
L 800 -1044 
L 800 -594 
z
" transform="scale(0.015625)"/>
     </defs>
     <use xlink:href="#DejaVuSans-7b"/>
     <use xlink:href="#DejaVuSans-56" transform="translate(63.623047 0)"/>
     <use xlink:href="#DejaVuSans-7d" transform="translate(132.03125 0)"/>
    </g>
   </g>
   <g id="text_2">
    <!-- {M} -->
    <g transform="translate(98.066636 19.068547) scale(0.1 -0.1)">
     <defs>
      <path id="DejaVuSans-4d" d="M 628 4666 
L 1569 4666 
L 2759 1491 
L 3956 4666 
L 4897 4666 
L 4897 0 
L 4281 0 
L 4281 4097 
L 3078 897 
L 2444 897 
L 1241 4097 
L 1241 0 
L 628 0 
L 628 4666 
z
" transform="scale(0.015625)"/>
     </defs>
     <use xlink:href="#DejaVuSans-7b"/>
     <use xlink:href="#DejaVuSans-4d" transform="translate(63.623047 0)"/>
     <use xlink:href="#DejaVuSans-7d" transform="translate(149.902344 0)"/>
    </g>
   </g>
   <g id="text_3">
    <!-- {U} -->
    <g transform="translate(53.864598 202.450203) scale(0.1 -0.1)">
     <defs>
      <path id="DejaVuSans-55" d="M 556 4666 
L 1191 4666 
L 1191 1831 
Q 1191 1081 1462 751 
Q 1734 422 2344 422 
Q 2950 422 3222 751 
Q 3494 1081 3494 1831 
L 3494 4666 
L 4128 4666 
L 4128 1753 
Q 4128 841 3676 375 
Q 3225 -91 2344 -91 
Q 1459 -91 1007 375 
Q 556 841 556 1753 
L 556 4666 
z
" transform="scale(0.015625)"/>
     </defs>
     <use xlink:href="#DejaVuSans-7b"/>
     <use xlink:href="#DejaVuSans-55" transform="translate(63.623047 0)"/>
     <use xlink:href="#DejaVuSans-7d" transform="translate(136.816406 0)"/>
    </g>
   </g>
   <g id="text_4">
    <!-- {W} -->
    <g transform="translate(143.917836 202.450203) scale(0.1 -0.1)">
     <defs>
      <path id="DejaVuSans-57" d="M 213 4666 
L 850 4666 
L 1831 722 
L 2809 4666 
L 3519 4666 
L 4500 722 
L 5478 4666 
L 6119 4666 
L 4947 0 
L 4153 0 
L 3169 4050 
L 2175 0 
L 1381 0 
L 213 4666 
z
" transform="scale(0.015625)"/>
     </defs>
     <use xlink:href="#DejaVuSans-7b"/>
     <use xlink:href="#DejaVuSans-57" transform="translate(63.623047 0)"/>
     <use xlink:href="#DejaVuSans-7d" transform="translate(162.5 0)"/>
    </g>
   </g>
  </g>
  <g id="axes_2">
   <g id="patch_6">
    <path d="M 240.309761 203.358462 
L 335.690239 203.358462 
L 335.690239 12.641538 
L 240.309761 12.641538 
z
" style="fill: #ffffff"/>
   </g>
   <g id="matplotlib.axis_3"/>
   <g id="matplotlib.axis_4"/>
   <g id="patch_7">
    <path d="M 287.437802 191.713211 
Q 287.495719 108.000445 287.552863 25.405712 
" clip-path="url(#pd89c381acd)" style="fill: none; stroke: #000000; stroke-linecap: round"/>
    <path d="M 282.545946 35.402251 
L 287.552863 25.405712 
L 292.545943 35.409169 
z
" clip-path="url(#pd89c381acd)" style="stroke: #000000; stroke-linecap: round"/>
   </g>
   <g id="patch_8">
    <path d="M 287.381311 191.713211 
Q 287.139361 153.845808 286.904555 117.096416 
" clip-path="url(#pd89c381acd)" style="fill: none; stroke: #000000; stroke-linecap: round"/>
    <path d="M 281.96855 127.128158 
L 286.904555 117.096416 
L 291.968346 127.064265 
z
" clip-path="url(#pd89c381acd)" style="stroke: #000000; stroke-linecap: round"/>
   </g>
   <g id="patch_9">
    <path d="M 285.372914 25.13699 
Q 264.851587 107.999967 244.061493 191.948193 
" clip-path="url(#pd89c381acd)" style="fill: none; stroke: #000000; stroke-linecap: round"/>
    <path d="M 278.115618 33.641792 
L 285.372914 25.13699 
L 287.822378 36.045708 
z
" clip-path="url(#pd89c381acd)" style="stroke: #000000; stroke-linecap: round"/>
   </g>
   <g id="patch_10">
    <path d="M 289.78612 25.130166 
Q 310.707509 107.999726 331.902572 191.953307 
" clip-path="url(#pd89c381acd)" style="fill: none; stroke: #000000; stroke-linecap: round"/>
    <path d="M 287.386042 36.049856 
L 289.78612 25.130166 
L 297.081825 33.602042 
z
" clip-path="url(#pd89c381acd)" style="stroke: #000000; stroke-linecap: round"/>
   </g>
   <g id="patch_11">
    <path d="M 330.216373 192.591841 
Q 310.351941 153.846826 290.997588 116.096708 
" clip-path="url(#pd89c381acd)" style="fill: none; stroke: #000000; stroke-linecap: round"/>
    <path d="M 291.110569 127.276477 
L 290.997588 116.096708 
L 300.009192 122.714184 
z
" clip-path="url(#pd89c381acd)" style="stroke: #000000; stroke-linecap: round"/>
   </g>
   <g id="patch_12">
    <path d="M 287.488455 25.404789 
Q 287.202798 62.154192 286.908451 100.021595 
" clip-path="url(#pd89c381acd)" style="fill: none; stroke: #000000; stroke-linecap: round"/>
    <path d="M 282.410878 35.365622 
L 287.488455 25.404789 
L 292.410576 35.443351 
z
" clip-path="url(#pd89c381acd)" style="stroke: #000000; stroke-linecap: round"/>
   </g>
   <g id="PathCollection_2">
    <g>
     <use xlink:href="#m8c73f0817b" x="242.144001" y="199.690828" style="fill: #fec7b8; stroke: #000000"/>
     <use xlink:href="#m8c73f0817b" x="287.432283" y="199.690828" style="fill: #fec7b8; stroke: #000000"/>
     <use xlink:href="#m8c73f0817b" x="333.855999" y="199.690828" style="fill: #fec7b8; stroke: #000000"/>
     <use xlink:href="#m8c73f0817b" x="286.846434" y="108" style="fill: #fec7b8; stroke: #000000"/>
     <use xlink:href="#m8c73f0817b" x="287.559156" y="16.309172" style="fill: #fec7b8; stroke: #000000"/>
    </g>
   </g>
   <g id="text_5">
    <!-- {V} -->
    <g transform="translate(277.64947 202.450203) scale(0.1 -0.1)">
     <use xlink:href="#DejaVuSans-7b"/>
     <use xlink:href="#DejaVuSans-56" transform="translate(63.623047 0)"/>
     <use xlink:href="#DejaVuSans-7d" transform="translate(132.03125 0)"/>
    </g>
   </g>
   <g id="text_6">
    <!-- {M} -->
    <g transform="translate(276.882594 19.068547) scale(0.1 -0.1)">
     <use xlink:href="#DejaVuSans-7b"/>
     <use xlink:href="#DejaVuSans-4d" transform="translate(63.623047 0)"/>
     <use xlink:href="#DejaVuSans-7d" transform="translate(149.902344 0)"/>
    </g>
   </g>
   <g id="text_7">
    <!-- {U} -->
    <g transform="translate(232.122126 202.450203) scale(0.1 -0.1)">
     <use xlink:href="#DejaVuSans-7b"/>
     <use xlink:href="#DejaVuSans-55" transform="translate(63.623047 0)"/>
     <use xlink:href="#DejaVuSans-7d" transform="translate(136.816406 0)"/>
    </g>
   </g>
   <g id="text_8">
    <!-- {W} -->
    <g transform="translate(322.549749 202.450203) scale(0.1 -0.1)">
     <use xlink:href="#DejaVuSans-7b"/>
     <use xlink:href="#DejaVuSans-57" transform="translate(63.623047 0)"/>
     <use xlink:href="#DejaVuSans-7d" transform="translate(162.5 0)"/>
    </g>
   </g>
   <g id="text_9">
    <!-- {V_union_W} -->
    <g transform="translate(253.165184 110.620312) scale(0.1 -0.1)">
     <defs>
      <path id="DejaVuSans-5f" d="M 3263 -1063 
L 3263 -1509 
L -63 -1509 
L -63 -1063 
L 3263 -1063 
z
" transform="scale(0.015625)"/>
      <path id="DejaVuSans-75" d="M 544 1381 
L 544 3500 
L 1119 3500 
L 1119 1403 
Q 1119 906 1312 657 
Q 1506 409 1894 409 
Q 2359 409 2629 706 
Q 2900 1003 2900 1516 
L 2900 3500 
L 3475 3500 
L 3475 0 
L 2900 0 
L 2900 538 
Q 2691 219 2414 64 
Q 2138 -91 1772 -91 
Q 1169 -91 856 284 
Q 544 659 544 1381 
z
M 1991 3584 
L 1991 3584 
z
" transform="scale(0.015625)"/>
      <path id="DejaVuSans-6e" d="M 3513 2113 
L 3513 0 
L 2938 0 
L 2938 2094 
Q 2938 2591 2744 2837 
Q 2550 3084 2163 3084 
Q 1697 3084 1428 2787 
Q 1159 2491 1159 1978 
L 1159 0 
L 581 0 
L 581 3500 
L 1159 3500 
L 1159 2956 
Q 1366 3272 1645 3428 
Q 1925 3584 2291 3584 
Q 2894 3584 3203 3211 
Q 3513 2838 3513 2113 
z
" transform="scale(0.015625)"/>
      <path id="DejaVuSans-69" d="M 603 3500 
L 1178 3500 
L 1178 0 
L 603 0 
L 603 3500 
z
M 603 4863 
L 1178 4863 
L 1178 4134 
L 603 4134 
L 603 4863 
z
" transform="scale(0.015625)"/>
      <path id="DejaVuSans-6f" d="M 1959 3097 
Q 1497 3097 1228 2736 
Q 959 2375 959 1747 
Q 959 1119 1226 758 
Q 1494 397 1959 397 
Q 2419 397 2687 759 
Q 2956 1122 2956 1747 
Q 2956 2369 2687 2733 
Q 2419 3097 1959 3097 
z
M 1959 3584 
Q 2709 3584 3137 3096 
Q 3566 2609 3566 1747 
Q 3566 888 3137 398 
Q 2709 -91 1959 -91 
Q 1206 -91 779 398 
Q 353 888 353 1747 
Q 353 2609 779 3096 
Q 1206 3584 1959 3584 
z
" transform="scale(0.015625)"/>
     </defs>
     <use xlink:href="#DejaVuSans-7b"/>
     <use xlink:href="#DejaVuSans-56" transform="translate(63.623047 0)"/>
     <use xlink:href="#DejaVuSans-5f" transform="translate(132.03125 0)"/>
     <use xlink:href="#DejaVuSans-75" transform="translate(182.03125 0)"/>
     <use xlink:href="#DejaVuSans-6e" transform="translate(245.410156 0)"/>
     <use xlink:href="#DejaVuSans-69" transform="translate(308.789062 0)"/>
     <use xlink:href="#DejaVuSans-6f" transform="translate(336.572266 0)"/>
     <use xlink:href="#DejaVuSans-6e" transform="translate(397.753906 0)"/>
     <use xlink:href="#DejaVuSans-5f" transform="translate(461.132812 0)"/>
     <use xlink:href="#DejaVuSans-57" transform="translate(511.132812 0)"/>
     <use xlink:href="#DejaVuSans-7d" transform="translate(610.009766 0)"/>
    </g>
   </g>
  </g>
  <g id="axes_3">
   <g id="patch_13">
    <path d="M 418.720757 203.358462 
L 514.168684 203.358462 
L 514.168684 12.641538 
L 418.720757 12.641538 
z
" style="fill: #ffffff"/>
   </g>
   <g id="matplotlib.axis_5"/>
   <g id="matplotlib.axis_6"/>
   <g id="patch_14">
    <path d="M 468.275474 191.774771 
Q 478.815342 108.000496 489.215647 25.335511 
" clip-path="url(#p6206fabce4)" style="fill: none; stroke: #000000; stroke-linecap: round"/>
    <path d="M 483.00647 34.633151 
L 489.215647 25.335511 
L 492.928253 35.881437 
z
" clip-path="url(#p6206fabce4)" style="stroke: #000000; stroke-linecap: round"/>
   </g>
   <g id="patch_15">
    <path d="M 467.220243 191.713211 
Q 466.938807 153.845808 466.66568 117.096408 
" clip-path="url(#p6206fabce4)" style="fill: none; stroke: #000000; stroke-linecap: round"/>
    <path d="M 461.740137 127.133291 
L 466.66568 117.096408 
L 471.739861 127.058972 
z
" clip-path="url(#p6206fabce4)" style="stroke: #000000; stroke-linecap: round"/>
   </g>
   <g id="patch_16">
    <path d="M 487.115393 24.811238 
Q 455.453292 108.001295 423.393498 192.236264 
" clip-path="url(#p6206fabce4)" style="fill: none; stroke: #000000; stroke-linecap: round"/>
    <path d="M 478.885332 32.378675 
L 487.115393 24.811238 
L 488.231306 35.935749 
z
" clip-path="url(#p6206fabce4)" style="stroke: #000000; stroke-linecap: round"/>
   </g>
   <g id="patch_17">
    <path d="M 491.433906 25.340912 
Q 501.342182 107.999751 511.383523 191.768676 
" clip-path="url(#p6206fabce4)" style="fill: none; stroke: #000000; stroke-linecap: round"/>
    <path d="M 487.65962 35.864921 
L 491.433906 25.340912 
L 497.588542 34.674746 
z
" clip-path="url(#p6206fabce4)" style="stroke: #000000; stroke-linecap: round"/>
   </g>
   <g id="patch_18">
    <path d="M 508.772656 192.552666 
Q 489.466021 153.846237 470.658422 116.140289 
" clip-path="url(#p6206fabce4)" style="fill: none; stroke: #000000; stroke-linecap: round"/>
    <path d="M 470.647654 127.320624 
L 470.658422 116.140289 
L 479.596229 122.857105 
z
" clip-path="url(#p6206fabce4)" style="stroke: #000000; stroke-linecap: round"/>
   </g>
   <g id="patch_19">
    <path d="M 488.069474 25.117259 
Q 478.47466 62.154643 468.599466 100.274334 
" clip-path="url(#p6206fabce4)" style="fill: none; stroke: #000000; stroke-linecap: round"/>
    <path d="M 480.721461 33.543806 
L 488.069474 25.117259 
L 490.401904 36.051598 
z
" clip-path="url(#p6206fabce4)" style="stroke: #000000; stroke-linecap: round"/>
   </g>
   <g id="patch_20">
    <path d="M 464.661421 100.25743 
Q 455.130355 62.153047 445.870584 25.133283 
" clip-path="url(#p6206fabce4)" style="fill: none; stroke: #000000; stroke-linecap: round"/>
    <path d="M 443.446568 36.047684 
L 445.870584 25.133283 
L 453.147695 33.621137 
z
" clip-path="url(#p6206fabce4)" style="stroke: #000000; stroke-linecap: round"/>
   </g>
   <g id="PathCollection_3">
    <g>
     <use xlink:href="#m8c73f0817b" x="420.556294" y="199.690828" style="fill: #fec7b8; stroke: #000000"/>
     <use xlink:href="#m8c73f0817b" x="467.279534" y="199.690828" style="fill: #fec7b8; stroke: #000000"/>
     <use xlink:href="#m8c73f0817b" x="512.333147" y="199.690828" style="fill: #fec7b8; stroke: #000000"/>
     <use xlink:href="#m8c73f0817b" x="466.598074" y="108" style="fill: #fec7b8; stroke: #000000"/>
     <use xlink:href="#m8c73f0817b" x="443.663405" y="16.309172" style="fill: #fec7b8; stroke: #000000"/>
     <use xlink:href="#m8c73f0817b" x="490.351276" y="16.309172" style="fill: #fec7b8; stroke: #000000"/>
    </g>
   </g>
   <g id="text_10">
    <!-- {V} -->
    <g transform="translate(457.496721 202.450203) scale(0.1 -0.1)">
     <use xlink:href="#DejaVuSans-7b"/>
     <use xlink:href="#DejaVuSans-56" transform="translate(63.623047 0)"/>
     <use xlink:href="#DejaVuSans-7d" transform="translate(132.03125 0)"/>
    </g>
   </g>
   <g id="text_11">
    <!-- {M} -->
    <g transform="translate(479.674713 19.068547) scale(0.1 -0.1)">
     <use xlink:href="#DejaVuSans-7b"/>
     <use xlink:href="#DejaVuSans-4d" transform="translate(63.623047 0)"/>
     <use xlink:href="#DejaVuSans-7d" transform="translate(149.902344 0)"/>
    </g>
   </g>
   <g id="text_12">
    <!-- {U} -->
    <g transform="translate(410.534419 202.450203) scale(0.1 -0.1)">
     <use xlink:href="#DejaVuSans-7b"/>
     <use xlink:href="#DejaVuSans-55" transform="translate(63.623047 0)"/>
     <use xlink:href="#DejaVuSans-7d" transform="translate(136.816406 0)"/>
    </g>
   </g>
   <g id="text_13">
    <!-- {W} -->
    <g transform="translate(501.026897 202.450203) scale(0.1 -0.1)">
     <use xlink:href="#DejaVuSans-7b"/>
     <use xlink:href="#DejaVuSans-57" transform="translate(63.623047 0)"/>
     <use xlink:href="#DejaVuSans-7d" transform="translate(162.5 0)"/>
    </g>
   </g>
   <g id="text_14">
    <!-- {V_union_W} -->
    <g transform="translate(432.916824 110.620312) scale(0.1 -0.1)">
     <use xlink:href="#DejaVuSans-7b"/>
     <use xlink:href="#DejaVuSans-56" transform="translate(63.623047 0)"/>
     <use xlink:href="#DejaVuSans-5f" transform="translate(132.03125 0)"/>
     <use xlink:href="#DejaVuSans-75" transform="translate(182.03125 0)"/>
     <use xlink:href="#DejaVuSans-6e" transform="translate(245.410156 0)"/>
     <use xlink:href="#DejaVuSans-69" transform="translate(308.789062 0)"/>
     <use xlink:href="#DejaVuSans-6f" transform="translate(336.572266 0)"/>
     <use xlink:href="#DejaVuSans-6e" transform="translate(397.753906 0)"/>
     <use xlink:href="#DejaVuSans-5f" transform="translate(461.132812 0)"/>
     <use xlink:href="#DejaVuSans-57" transform="translate(511.132812 0)"/>
     <use xlink:href="#DejaVuSans-7d" transform="translate(610.009766 0)"/>
    </g>
   </g>
   <g id="text_15">
    <!-- [{V}, {W}] -->
    <g transform="translate(415.494655 19.068547) scale(0.1 -0.1)">
     <defs>
      <path id="DejaVuSans-5b" d="M 550 4863 
L 1875 4863 
L 1875 4416 
L 1125 4416 
L 1125 -397 
L 1875 -397 
L 1875 -844 
L 550 -844 
L 550 4863 
z
" transform="scale(0.015625)"/>
      <path id="DejaVuSans-2c" d="M 750 794 
L 1409 794 
L 1409 256 
L 897 -744 
L 494 -744 
L 750 256 
L 750 794 
z
" transform="scale(0.015625)"/>
      <path id="DejaVuSans-20" transform="scale(0.015625)"/>
      <path id="DejaVuSans-5d" d="M 1947 4863 
L 1947 -844 
L 622 -844 
L 622 -397 
L 1369 -397 
L 1369 4416 
L 622 4416 
L 622 4863 
L 1947 4863 
z
" transform="scale(0.015625)"/>
     </defs>
     <use xlink:href="#DejaVuSans-5b"/>
     <use xlink:href="#DejaVuSans-7b" transform="translate(39.013672 0)"/>
     <use xlink:href="#DejaVuSans-56" transform="translate(102.636719 0)"/>
     <use xlink:href="#DejaVuSans-7d" transform="translate(171.044922 0)"/>
     <use xlink:href="#DejaVuSans-2c" transform="translate(234.667969 0)"/>
     <use xlink:href="#DejaVuSans-20" transform="translate(266.455078 0)"/>
     <use xlink:href="#DejaVuSans-7b" transform="translate(298.242188 0)"/>
     <use xlink:href="#DejaVuSans-57" transform="translate(361.865234 0)"/>
     <use xlink:href="#DejaVuSans-7d" transform="translate(460.742188 0)"/>
     <use xlink:href="#DejaVuSans-5d" transform="translate(524.365234 0)"/>
    </g>
   </g>
  </g>
 </g>
 <defs>
  <clipPath id="pc748c4c6c0">
   <rect x="62.05972" y="12.641538" width="94.991118" height="190.716923"/>
  </clipPath>
  <clipPath id="pd89c381acd">
   <rect x="240.309761" y="12.641538" width="95.380479" height="190.716923"/>
  </clipPath>
  <clipPath id="p6206fabce4">
   <rect x="418.720757" y="12.641538" width="95.447927" height="190.716923"/>
  </clipPath>
 </defs>
</svg>
