<?xml version="1.0" encoding="utf-8" standalone="no"?>
<!DOCTYPE svg PUBLIC "-//W3C//DTD SVG 1.1//EN"
  "http://www.w3.org/Graphics/SVG/1.1/DTD/svg11.dtd">
<svg xmlns:xlink="http://www.w3.org/1999/xlink" width="576pt" height="216pt" viewBox="0 0 576 216" xmlns="http://www.w3.org/2000/svg" version="1.1">
 <metadata>
  <rdf:RDF xmlns:dc="http://purl.org/dc/elements/1.1/" xmlns:cc="http://creativecommons.org/ns#" xmlns:rdf="http://www.w3.org/1999/02/22-rdf-syntax-ns#">
   <cc:Work>
    <dc:type rdf:resource="http://purl.org/dc/dcmitype/StillImage"/>
    <dc:date>2025-08-02T12:11:44.433225</dc:date>
    <dc:format>image/svg+xml</dc:format>
    <dc:creator>
     <cc:Agent>
      <dc:title>Matplotlib v3.10.3, https://matplotlib.org/</dc:title>
     </cc:Agent>
    </dc:creator>
   </cc:Work>
  </rdf:RDF>
 </metadata>
 <defs>
  <style type="text/css">*{stroke-linejoin: round; stroke-linecap: butt}</style>
 </defs>
 <g id="figure_1">
  <g id="patch_1">
   <path d="M 0 216 
L 576 216 
L 576 0 
L 0 0 
z
" style="fill: #ffffff"/>
  </g>
  <g id="axes_1">
   <g id="patch_2">
    <path d="M 61.565197 203.307837 
L 157.187411 203.307837 
L 157.187411 12.641538 
L 61.565197 12.641538 
z
" style="fill: #ffffff"/>
   </g>
   <g id="matplotlib.axis_1"/>
   <g id="matplotlib.axis_2"/>
   <g id="patch_3">
    <path d="M 105.711116 192.504909 
Q 86.342558 153.806175 67.474396 116.107243 
" clip-path="url(#p2a329e40dc)" style="fill: none; stroke: #000000; stroke-linecap: round"/>
    <path d="M 67.478831 127.287582 
L 67.474396 116.107243 
L 76.421328 122.811898 
z
" clip-path="url(#p2a329e40dc)" style="stroke: #000000; stroke-linecap: round"/>
   </g>
   <g id="patch_4">
    <path d="M 109.238314 191.660083 
Q 109.02738 153.807816 108.822677 117.073565 
" clip-path="url(#p2a329e40dc)" style="fill: none; stroke: #000000; stroke-linecap: round"/>
    <path d="M 103.878479 127.101272 
L 108.822677 117.073565 
L 113.878324 127.045548 
z
" clip-path="url(#p2a329e40dc)" style="stroke: #000000; stroke-linecap: round"/>
   </g>
   <g id="patch_5">
    <path d="M 66.969459 100.83842 
Q 86.302571 62.142265 105.135991 24.446265 
" clip-path="url(#p2a329e40dc)" style="fill: none; stroke: #000000; stroke-linecap: round"/>
    <path d="M 96.193796 31.157237 
L 105.135991 24.446265 
L 105.139451 35.626605 
z
" clip-path="url(#p2a329e40dc)" style="stroke: #000000; stroke-linecap: round"/>
   </g>
   <g id="patch_6">
    <path d="M 108.809403 99.993593 
Q 108.986926 62.141326 109.159205 25.407081 
" clip-path="url(#p2a329e40dc)" style="fill: none; stroke: #000000; stroke-linecap: round"/>
    <path d="M 104.112362 35.383522 
L 109.159205 25.407081 
L 114.112252 35.43042 
z
" clip-path="url(#p2a329e40dc)" style="stroke: #000000; stroke-linecap: round"/>
   </g>
   <g id="patch_7">
    <path d="M 151.761624 100.84961 
Q 132.276071 62.143173 113.293248 24.435366 
" clip-path="url(#p2a329e40dc)" style="fill: none; stroke: #000000; stroke-linecap: round"/>
    <path d="M 113.323786 35.615664 
L 113.293248 24.435366 
L 122.255809 31.119115 
z
" clip-path="url(#p2a329e40dc)" style="stroke: #000000; stroke-linecap: round"/>
   </g>
   <g id="PathCollection_1">
    <defs>
     <path id="md4fddcf23d" d="M 0 7.071068 
C 1.875269 7.071068 3.673985 6.326016 5 5 
C 6.326016 3.673985 7.071068 1.875269 7.071068 0 
C 7.071068 -1.875269 6.326016 -3.673985 5 -5 
C 3.673985 -6.326016 1.875269 -7.071068 0 -7.071068 
C -1.875269 -7.071068 -3.673985 -6.326016 -5 -5 
C -6.326016 -3.673985 -7.071068 -1.875269 -7.071068 0 
C -7.071068 1.875269 -6.326016 3.673985 -5 5 
C -3.673985 6.326016 -1.875269 7.071068 0 7.071068 
z
" style="stroke: #000000"/>
    </defs>
    <g>
     <use xlink:href="#md4fddcf23d" x="109.282789" y="199.641177" style="fill: #fec7b8; stroke: #000000"/>
     <use xlink:href="#md4fddcf23d" x="63.404086" y="107.974688" style="fill: #fec7b8; stroke: #000000"/>
     <use xlink:href="#md4fddcf23d" x="108.771973" y="107.974688" style="fill: #fec7b8; stroke: #000000"/>
     <use xlink:href="#md4fddcf23d" x="155.348522" y="107.974688" style="fill: #fec7b8; stroke: #000000"/>
     <use xlink:href="#md4fddcf23d" x="109.201878" y="16.308198" style="fill: #fec7b8; stroke: #000000"/>
    </g>
   </g>
   <g id="text_1">
    <!-- {V1_inter_V2} -->
    <g transform="translate(73.067164 202.261489) scale(0.1 -0.1)">
     <defs>
      <path id="DejaVuSans-7b" d="M 3272 -594 
L 3272 -1044 
L 3078 -1044 
Q 2300 -1044 2036 -812 
Q 1772 -581 1772 109 
L 1772 856 
Q 1772 1328 1603 1509 
Q 1434 1691 991 1691 
L 800 1691 
L 800 2138 
L 991 2138 
Q 1438 2138 1605 2317 
Q 1772 2497 1772 2963 
L 1772 3713 
Q 1772 4403 2036 4633 
Q 2300 4863 3078 4863 
L 3272 4863 
L 3272 4416 
L 3059 4416 
Q 2619 4416 2484 4278 
Q 2350 4141 2350 3700 
L 2350 2925 
Q 2350 2434 2208 2212 
Q 2066 1991 1722 1913 
Q 2069 1828 2209 1606 
Q 2350 1384 2350 897 
L 2350 122 
Q 2350 -319 2484 -456 
Q 2619 -594 3059 -594 
L 3272 -594 
z
" transform="scale(0.015625)"/>
      <path id="DejaVuSans-56" d="M 1831 0 
L 50 4666 
L 709 4666 
L 2188 738 
L 3669 4666 
L 4325 4666 
L 2547 0 
L 1831 0 
z
" transform="scale(0.015625)"/>
      <path id="DejaVuSans-31" d="M 794 531 
L 1825 531 
L 1825 4091 
L 703 3866 
L 703 4441 
L 1819 4666 
L 2450 4666 
L 2450 531 
L 3481 531 
L 3481 0 
L 794 0 
L 794 531 
z
" transform="scale(0.015625)"/>
      <path id="DejaVuSans-5f" d="M 3263 -1063 
L 3263 -1509 
L -63 -1509 
L -63 -1063 
L 3263 -1063 
z
" transform="scale(0.015625)"/>
      <path id="DejaVuSans-69" d="M 603 3500 
L 1178 3500 
L 1178 0 
L 603 0 
L 603 3500 
z
M 603 4863 
L 1178 4863 
L 1178 4134 
L 603 4134 
L 603 4863 
z
" transform="scale(0.015625)"/>
      <path id="DejaVuSans-6e" d="M 3513 2113 
L 3513 0 
L 2938 0 
L 2938 2094 
Q 2938 2591 2744 2837 
Q 2550 3084 2163 3084 
Q 1697 3084 1428 2787 
Q 1159 2491 1159 1978 
L 1159 0 
L 581 0 
L 581 3500 
L 1159 3500 
L 1159 2956 
Q 1366 3272 1645 3428 
Q 1925 3584 2291 3584 
Q 2894 3584 3203 3211 
Q 3513 2838 3513 2113 
z
" transform="scale(0.015625)"/>
      <path id="DejaVuSans-74" d="M 1172 4494 
L 1172 3500 
L 2356 3500 
L 2356 3053 
L 1172 3053 
L 1172 1153 
Q 1172 725 1289 603 
Q 1406 481 1766 481 
L 2356 481 
L 2356 0 
L 1766 0 
Q 1100 0 847 248 
Q 594 497 594 1153 
L 594 3053 
L 172 3053 
L 172 3500 
L 594 3500 
L 594 4494 
L 1172 4494 
z
" transform="scale(0.015625)"/>
      <path id="DejaVuSans-65" d="M 3597 1894 
L 3597 1613 
L 953 1613 
Q 991 1019 1311 708 
Q 1631 397 2203 397 
Q 2534 397 2845 478 
Q 3156 559 3463 722 
L 3463 178 
Q 3153 47 2828 -22 
Q 2503 -91 2169 -91 
Q 1331 -91 842 396 
Q 353 884 353 1716 
Q 353 2575 817 3079 
Q 1281 3584 2069 3584 
Q 2775 3584 3186 3129 
Q 3597 2675 3597 1894 
z
M 3022 2063 
Q 3016 2534 2758 2815 
Q 2500 3097 2075 3097 
Q 1594 3097 1305 2825 
Q 1016 2553 972 2059 
L 3022 2063 
z
" transform="scale(0.015625)"/>
      <path id="DejaVuSans-72" d="M 2631 2963 
Q 2534 3019 2420 3045 
Q 2306 3072 2169 3072 
Q 1681 3072 1420 2755 
Q 1159 2438 1159 1844 
L 1159 0 
L 581 0 
L 581 3500 
L 1159 3500 
L 1159 2956 
Q 1341 3275 1631 3429 
Q 1922 3584 2338 3584 
Q 2397 3584 2469 3576 
Q 2541 3569 2628 3553 
L 2631 2963 
z
" transform="scale(0.015625)"/>
      <path id="DejaVuSans-32" d="M 1228 531 
L 3431 531 
L 3431 0 
L 469 0 
L 469 531 
Q 828 903 1448 1529 
Q 2069 2156 2228 2338 
Q 2531 2678 2651 2914 
Q 2772 3150 2772 3378 
Q 2772 3750 2511 3984 
Q 2250 4219 1831 4219 
Q 1534 4219 1204 4116 
Q 875 4013 500 3803 
L 500 4441 
Q 881 4594 1212 4672 
Q 1544 4750 1819 4750 
Q 2544 4750 2975 4387 
Q 3406 4025 3406 3419 
Q 3406 3131 3298 2873 
Q 3191 2616 2906 2266 
Q 2828 2175 2409 1742 
Q 1991 1309 1228 531 
z
" transform="scale(0.015625)"/>
      <path id="DejaVuSans-7d" d="M 800 -594 
L 1019 -594 
Q 1456 -594 1589 -459 
Q 1722 -325 1722 122 
L 1722 897 
Q 1722 1384 1862 1606 
Q 2003 1828 2350 1913 
Q 2003 1991 1862 2212 
Q 1722 2434 1722 2925 
L 1722 3700 
Q 1722 4144 1589 4280 
Q 1456 4416 1019 4416 
L 800 4416 
L 800 4863 
L 997 4863 
Q 1775 4863 2036 4633 
Q 2297 4403 2297 3713 
L 2297 2963 
Q 2297 2497 2465 2317 
Q 2634 2138 3078 2138 
L 3272 2138 
L 3272 1691 
L 3078 1691 
Q 2634 1691 2465 1509 
Q 2297 1328 2297 856 
L 2297 109 
Q 2297 -581 2036 -812 
Q 1775 -1044 997 -1044 
L 800 -1044 
L 800 -594 
z
" transform="scale(0.015625)"/>
     </defs>
     <use xlink:href="#DejaVuSans-7b"/>
     <use xlink:href="#DejaVuSans-56" transform="translate(63.623047 0)"/>
     <use xlink:href="#DejaVuSans-31" transform="translate(132.03125 0)"/>
     <use xlink:href="#DejaVuSans-5f" transform="translate(195.654297 0)"/>
     <use xlink:href="#DejaVuSans-69" transform="translate(245.654297 0)"/>
     <use xlink:href="#DejaVuSans-6e" transform="translate(273.4375 0)"/>
     <use xlink:href="#DejaVuSans-74" transform="translate(336.816406 0)"/>
     <use xlink:href="#DejaVuSans-65" transform="translate(376.025391 0)"/>
     <use xlink:href="#DejaVuSans-72" transform="translate(437.548828 0)"/>
     <use xlink:href="#DejaVuSans-5f" transform="translate(478.662109 0)"/>
     <use xlink:href="#DejaVuSans-56" transform="translate(528.662109 0)"/>
     <use xlink:href="#DejaVuSans-32" transform="translate(597.070312 0)"/>
     <use xlink:href="#DejaVuSans-7d" transform="translate(660.693359 0)"/>
    </g>
   </g>
   <g id="text_2">
    <!-- {V2} -->
    <g transform="translate(50.440023 110.734063) scale(0.1 -0.1)">
     <use xlink:href="#DejaVuSans-7b"/>
     <use xlink:href="#DejaVuSans-56" transform="translate(63.623047 0)"/>
     <use xlink:href="#DejaVuSans-32" transform="translate(132.03125 0)"/>
     <use xlink:href="#DejaVuSans-7d" transform="translate(195.654297 0)"/>
    </g>
   </g>
   <g id="text_3">
    <!-- {V1} -->
    <g transform="translate(95.80791 110.734063) scale(0.1 -0.1)">
     <use xlink:href="#DejaVuSans-7b"/>
     <use xlink:href="#DejaVuSans-56" transform="translate(63.623047 0)"/>
     <use xlink:href="#DejaVuSans-31" transform="translate(132.03125 0)"/>
     <use xlink:href="#DejaVuSans-7d" transform="translate(195.654297 0)"/>
    </g>
   </g>
   <g id="text_4">
    <!-- {U} -->
    <g transform="translate(145.326647 110.734063) scale(0.1 -0.1)">
     <defs>
      <path id="DejaVuSans-55" d="M 556 4666 
L 1191 4666 
L 1191 1831 
Q 1191 1081 1462 751 
Q 1734 422 2344 422 
Q 2950 422 3222 751 
Q 3494 1081 3494 1831 
L 3494 4666 
L 4128 4666 
L 4128 1753 
Q 4128 841 3676 375 
Q 3225 -91 2344 -91 
Q 1459 -91 1007 375 
Q 556 841 556 1753 
L 556 4666 
z
" transform="scale(0.015625)"/>
     </defs>
     <use xlink:href="#DejaVuSans-7b"/>
     <use xlink:href="#DejaVuSans-55" transform="translate(63.623047 0)"/>
     <use xlink:href="#DejaVuSans-7d" transform="translate(136.816406 0)"/>
    </g>
   </g>
   <g id="text_5">
    <!-- {M} -->
    <g transform="translate(98.525315 19.067573) scale(0.1 -0.1)">
     <defs>
      <path id="DejaVuSans-4d" d="M 628 4666 
L 1569 4666 
L 2759 1491 
L 3956 4666 
L 4897 4666 
L 4897 0 
L 4281 0 
L 4281 4097 
L 3078 897 
L 2444 897 
L 1241 4097 
L 1241 0 
L 628 0 
L 628 4666 
z
" transform="scale(0.015625)"/>
     </defs>
     <use xlink:href="#DejaVuSans-7b"/>
     <use xlink:href="#DejaVuSans-4d" transform="translate(63.623047 0)"/>
     <use xlink:href="#DejaVuSans-7d" transform="translate(149.902344 0)"/>
    </g>
   </g>
  </g>
  <g id="axes_2">
   <g id="patch_8">
    <path d="M 256.186422 203.307837 
L 319.813578 203.307837 
L 319.813578 12.641538 
L 256.186422 12.641538 
z
" style="fill: #ffffff"/>
   </g>
   <g id="matplotlib.axis_3"/>
   <g id="matplotlib.axis_4"/>
   <g id="patch_9">
    <path d="M 284.722709 192.520762 
Q 272.867595 169.08607 261.517168 146.649021 
" clip-path="url(#paa6e308270)" style="fill: none; stroke: #000000; stroke-linecap: round"/>
    <path d="M 261.569626 157.829238 
L 261.517168 146.649021 
L 270.492816 153.315185 
z
" clip-path="url(#paa6e308270)" style="stroke: #000000; stroke-linecap: round"/>
   </g>
   <g id="patch_10">
    <path d="M 291.865937 192.490922 
Q 303.457392 169.08565 314.552659 146.682273 
" clip-path="url(#paa6e308270)" style="fill: none; stroke: #000000; stroke-linecap: round"/>
    <path d="M 305.633992 153.424483 
L 314.552659 146.682273 
L 314.595227 157.862532 
z
" clip-path="url(#paa6e308270)" style="stroke: #000000; stroke-linecap: round"/>
   </g>
   <g id="patch_11">
    <path d="M 260.991905 131.402309 
Q 272.764972 107.97415 284.036027 85.544982 
" clip-path="url(#paa6e308270)" style="fill: none; stroke: #000000; stroke-linecap: round"/>
    <path d="M 275.078275 92.235175 
L 284.036027 85.544982 
L 284.01353 96.7253 
z
" clip-path="url(#paa6e308270)" style="stroke: #000000; stroke-linecap: round"/>
   </g>
   <g id="patch_12">
    <path d="M 315.028505 131.387389 
Q 303.353487 107.972293 292.177356 85.557752 
" clip-path="url(#paa6e308270)" style="fill: none; stroke: #000000; stroke-linecap: round"/>
    <path d="M 292.164923 96.738085 
L 292.177356 85.557752 
L 301.114163 92.275898 
z
" clip-path="url(#paa6e308270)" style="stroke: #000000; stroke-linecap: round"/>
   </g>
   <g id="patch_13">
    <path d="M 288.028162 69.440894 
Q 287.770039 46.865011 287.524698 25.407089 
" clip-path="url(#paa6e308270)" style="fill: none; stroke: #000000; stroke-linecap: round"/>
    <path d="M 282.639353 35.4636 
L 287.524698 25.407089 
L 292.638699 35.349272 
z
" clip-path="url(#paa6e308270)" style="stroke: #000000; stroke-linecap: round"/>
   </g>
   <g id="PathCollection_2">
    <g>
     <use xlink:href="#md4fddcf23d" x="288.324776" y="199.641177" style="fill: #fec7b8; stroke: #000000"/>
     <use xlink:href="#md4fddcf23d" x="257.410021" y="138.530184" style="fill: #fec7b8; stroke: #000000"/>
     <use xlink:href="#md4fddcf23d" x="318.589979" y="138.530184" style="fill: #fec7b8; stroke: #000000"/>
     <use xlink:href="#md4fddcf23d" x="288.119382" y="77.419191" style="fill: #fec7b8; stroke: #000000"/>
     <use xlink:href="#md4fddcf23d" x="287.420665" y="16.308198" style="fill: #fec7b8; stroke: #000000"/>
    </g>
   </g>
   <g id="text_6">
    <!-- {V1_inter_V2} -->
    <g transform="translate(252.109151 202.261489) scale(0.1 -0.1)">
     <use xlink:href="#DejaVuSans-7b"/>
     <use xlink:href="#DejaVuSans-56" transform="translate(63.623047 0)"/>
     <use xlink:href="#DejaVuSans-31" transform="translate(132.03125 0)"/>
     <use xlink:href="#DejaVuSans-5f" transform="translate(195.654297 0)"/>
     <use xlink:href="#DejaVuSans-69" transform="translate(245.654297 0)"/>
     <use xlink:href="#DejaVuSans-6e" transform="translate(273.4375 0)"/>
     <use xlink:href="#DejaVuSans-74" transform="translate(336.816406 0)"/>
     <use xlink:href="#DejaVuSans-65" transform="translate(376.025391 0)"/>
     <use xlink:href="#DejaVuSans-72" transform="translate(437.548828 0)"/>
     <use xlink:href="#DejaVuSans-5f" transform="translate(478.662109 0)"/>
     <use xlink:href="#DejaVuSans-56" transform="translate(528.662109 0)"/>
     <use xlink:href="#DejaVuSans-32" transform="translate(597.070312 0)"/>
     <use xlink:href="#DejaVuSans-7d" transform="translate(660.693359 0)"/>
    </g>
   </g>
   <g id="text_7">
    <!-- {V2} -->
    <g transform="translate(244.445959 141.289559) scale(0.1 -0.1)">
     <use xlink:href="#DejaVuSans-7b"/>
     <use xlink:href="#DejaVuSans-56" transform="translate(63.623047 0)"/>
     <use xlink:href="#DejaVuSans-32" transform="translate(132.03125 0)"/>
     <use xlink:href="#DejaVuSans-7d" transform="translate(195.654297 0)"/>
    </g>
   </g>
   <g id="text_8">
    <!-- {V1} -->
    <g transform="translate(305.625916 141.289559) scale(0.1 -0.1)">
     <use xlink:href="#DejaVuSans-7b"/>
     <use xlink:href="#DejaVuSans-56" transform="translate(63.623047 0)"/>
     <use xlink:href="#DejaVuSans-31" transform="translate(132.03125 0)"/>
     <use xlink:href="#DejaVuSans-7d" transform="translate(195.654297 0)"/>
    </g>
   </g>
   <g id="text_9">
    <!-- {U} -->
    <g transform="translate(278.097507 80.178566) scale(0.1 -0.1)">
     <use xlink:href="#DejaVuSans-7b"/>
     <use xlink:href="#DejaVuSans-55" transform="translate(63.623047 0)"/>
     <use xlink:href="#DejaVuSans-7d" transform="translate(136.816406 0)"/>
    </g>
   </g>
   <g id="text_10">
    <!-- {M} -->
    <g transform="translate(276.744102 19.067573) scale(0.1 -0.1)">
     <use xlink:href="#DejaVuSans-7b"/>
     <use xlink:href="#DejaVuSans-4d" transform="translate(63.623047 0)"/>
     <use xlink:href="#DejaVuSans-7d" transform="translate(149.902344 0)"/>
    </g>
   </g>
  </g>
  <g id="axes_3">
   <g id="patch_14">
    <path d="M 466.136405 203.307837 
L 467.110987 203.307837 
L 467.110987 12.641538 
L 466.136405 12.641538 
z
" style="fill: #ffffff"/>
   </g>
   <g id="matplotlib.axis_5"/>
   <g id="matplotlib.axis_6"/>
   <g id="patch_15">
    <path d="M 467.05145 191.660083 
Q 466.623683 107.972208 466.201631 25.402352 
" clip-path="url(#p469291b0cd)" style="fill: none; stroke: #000000; stroke-linecap: round"/>
    <path d="M 461.252811 35.427778 
L 466.201631 25.402352 
L 471.25268 35.376665 
z
" clip-path="url(#p469291b0cd)" style="stroke: #000000; stroke-linecap: round"/>
   </g>
   <g id="PathCollection_3">
    <g>
     <use xlink:href="#md4fddcf23d" x="467.092245" y="199.641177" style="fill: #fec7b8; stroke: #000000"/>
     <use xlink:href="#md4fddcf23d" x="466.155147" y="16.308198" style="fill: #fec7b8; stroke: #000000"/>
    </g>
   </g>
   <g id="text_11">
    <!-- {U, V1, V1_inter_V2, V2} -->
    <g transform="translate(404.479745 202.261489) scale(0.1 -0.1)">
     <defs>
      <path id="DejaVuSans-2c" d="M 750 794 
L 1409 794 
L 1409 256 
L 897 -744 
L 494 -744 
L 750 256 
L 750 794 
z
" transform="scale(0.015625)"/>
      <path id="DejaVuSans-20" transform="scale(0.015625)"/>
     </defs>
     <use xlink:href="#DejaVuSans-7b"/>
     <use xlink:href="#DejaVuSans-55" transform="translate(63.623047 0)"/>
     <use xlink:href="#DejaVuSans-2c" transform="translate(136.816406 0)"/>
     <use xlink:href="#DejaVuSans-20" transform="translate(168.603516 0)"/>
     <use xlink:href="#DejaVuSans-56" transform="translate(200.390625 0)"/>
     <use xlink:href="#DejaVuSans-31" transform="translate(268.798828 0)"/>
     <use xlink:href="#DejaVuSans-2c" transform="translate(332.421875 0)"/>
     <use xlink:href="#DejaVuSans-20" transform="translate(364.208984 0)"/>
     <use xlink:href="#DejaVuSans-56" transform="translate(395.996094 0)"/>
     <use xlink:href="#DejaVuSans-31" transform="translate(464.404297 0)"/>
     <use xlink:href="#DejaVuSans-5f" transform="translate(528.027344 0)"/>
     <use xlink:href="#DejaVuSans-69" transform="translate(578.027344 0)"/>
     <use xlink:href="#DejaVuSans-6e" transform="translate(605.810547 0)"/>
     <use xlink:href="#DejaVuSans-74" transform="translate(669.189453 0)"/>
     <use xlink:href="#DejaVuSans-65" transform="translate(708.398438 0)"/>
     <use xlink:href="#DejaVuSans-72" transform="translate(769.921875 0)"/>
     <use xlink:href="#DejaVuSans-5f" transform="translate(811.035156 0)"/>
     <use xlink:href="#DejaVuSans-56" transform="translate(861.035156 0)"/>
     <use xlink:href="#DejaVuSans-32" transform="translate(929.443359 0)"/>
     <use xlink:href="#DejaVuSans-2c" transform="translate(993.066406 0)"/>
     <use xlink:href="#DejaVuSans-20" transform="translate(1024.853516 0)"/>
     <use xlink:href="#DejaVuSans-56" transform="translate(1056.640625 0)"/>
     <use xlink:href="#DejaVuSans-32" transform="translate(1125.048828 0)"/>
     <use xlink:href="#DejaVuSans-7d" transform="translate(1188.671875 0)"/>
    </g>
   </g>
   <g id="text_12">
    <!-- {M} -->
    <g transform="translate(455.478585 19.067573) scale(0.1 -0.1)">
     <use xlink:href="#DejaVuSans-7b"/>
     <use xlink:href="#DejaVuSans-4d" transform="translate(63.623047 0)"/>
     <use xlink:href="#DejaVuSans-7d" transform="translate(149.902344 0)"/>
    </g>
   </g>
  </g>
 </g>
 <defs>
  <clipPath id="p2a329e40dc">
   <rect x="61.565197" y="12.641538" width="95.622214" height="190.666298"/>
  </clipPath>
  <clipPath id="paa6e308270">
   <rect x="256.186422" y="12.641538" width="63.627156" height="190.666298"/>
  </clipPath>
  <clipPath id="p469291b0cd">
   <rect x="466.136405" y="12.641538" width="0.974582" height="190.666298"/>
  </clipPath>
 </defs>
</svg>
