<?xml version="1.0" encoding="utf-8" standalone="no"?>
<!DOCTYPE svg PUBLIC "-//W3C//DTD SVG 1.1//EN"
  "http://www.w3.org/Graphics/SVG/1.1/DTD/svg11.dtd">
<svg xmlns:xlink="http://www.w3.org/1999/xlink" width="576pt" height="360pt" viewBox="0 0 576 360" xmlns="http://www.w3.org/2000/svg" version="1.1">
 <metadata>
  <rdf:RDF xmlns:dc="http://purl.org/dc/elements/1.1/" xmlns:cc="http://creativecommons.org/ns#" xmlns:rdf="http://www.w3.org/1999/02/22-rdf-syntax-ns#">
   <cc:Work>
    <dc:type rdf:resource="http://purl.org/dc/dcmitype/StillImage"/>
    <dc:date>2025-08-08T16:18:17.166577</dc:date>
    <dc:format>image/svg+xml</dc:format>
    <dc:creator>
     <cc:Agent>
      <dc:title>Matplotlib v3.10.3, https://matplotlib.org/</dc:title>
     </cc:Agent>
    </dc:creator>
   </cc:Work>
  </rdf:RDF>
 </metadata>
 <defs>
  <style type="text/css">*{stroke-linejoin: round; stroke-linecap: butt}</style>
 </defs>
 <g id="figure_1">
  <g id="patch_1">
   <path d="M 0 360 
L 576 360 
L 576 0 
L 0 0 
z
" style="fill: #ffffff"/>
  </g>
  <g id="axes_1">
   <g id="patch_2">
    <path d="M 132.793668 349.2 
L 207.072514 349.2 
L 207.072514 10.8 
L 132.793668 10.8 
z
" style="fill: #ffffff"/>
   </g>
   <g id="patch_3">
    <path d="M 190.165995 130.98867 
Q 171.862522 110.948431 151.55314 127.218601 
" clip-path="url(#p31266da500)" style="fill: none; stroke: #000000; stroke-linecap: round"/>
    <path d="M 162.483708 124.86856 
L 151.55314 127.218601 
L 156.231448 117.064123 
z
" clip-path="url(#p31266da500)" style="stroke: #000000; stroke-linecap: round"/>
   </g>
   <g id="patch_4">
    <path d="M 188.313042 144.292885 
Q 168.00366 160.563054 149.700187 140.522815 
" clip-path="url(#p31266da500)" style="fill: none; stroke: #000000; stroke-linecap: round"/>
    <path d="M 177.382475 146.642925 
L 188.313042 144.292885 
L 183.634734 154.447363 
z
" clip-path="url(#p31266da500)" style="stroke: #000000; stroke-linecap: round"/>
   </g>
   <g id="patch_5">
    <path d="M 198.445657 128.799406 
Q 203.958196 104.506044 180.475448 100.676752 
" clip-path="url(#p31266da500)" style="fill: none; stroke: #000000; stroke-linecap: round"/>
    <path d="M 189.540373 107.220996 
L 180.475448 100.676752 
L 191.149798 97.351358 
z
" clip-path="url(#p31266da500)" style="stroke: #000000; stroke-linecap: round"/>
   </g>
   <g id="patch_6">
    <path d="M 186.17307 136.146559 
Q 162.690321 132.317267 168.202861 108.023905 
" clip-path="url(#p31266da500)" style="fill: none; stroke: #000000; stroke-linecap: round"/>
    <path d="M 177.108144 129.602315 
L 186.17307 136.146559 
L 175.498719 139.471953 
z
" clip-path="url(#p31266da500)" style="stroke: #000000; stroke-linecap: round"/>
   </g>
   <g id="patch_7">
    <path d="M 152.690925 133.101191 
Q 176.552325 131.55944 172.218627 109.182097 
" clip-path="url(#p31266da500)" style="fill: none; stroke: #000000; stroke-linecap: round"/>
    <path d="M 169.211152 119.950342 
L 172.218627 109.182097 
L 179.028738 118.049024 
z
" clip-path="url(#p31266da500)" style="stroke: #000000; stroke-linecap: round"/>
   </g>
   <g id="patch_8">
    <path d="M 141.495977 123.524189 
Q 137.162279 101.146846 161.023678 99.605095 
" clip-path="url(#p31266da500)" style="fill: none; stroke: #000000; stroke-linecap: round"/>
    <path d="M 144.503451 112.755944 
L 141.495977 123.524189 
L 134.685866 114.657262 
z
" clip-path="url(#p31266da500)" style="stroke: #000000; stroke-linecap: round"/>
   </g>
   <g id="matplotlib.axis_1"/>
   <g id="matplotlib.axis_2"/>
   <g id="patch_9">
    <path d="M 160.994225 256.523267 
Q 163.518412 222.900423 165.958899 190.392475 
" clip-path="url(#p31266da500)" style="fill: none; stroke: #000000; stroke-linecap: round"/>
    <path d="M 160.224301 199.990099 
L 165.958899 190.392475 
L 170.196239 200.738728 
z
" clip-path="url(#p31266da500)" style="stroke: #000000; stroke-linecap: round"/>
   </g>
   <g id="patch_10">
    <path d="M 172.689508 171.579412 
Q 181.567341 158.936874 191.087685 145.379362 
" clip-path="url(#p31266da500)" style="fill: none; stroke: #000000; stroke-linecap: round"/>
    <path d="M 182.528203 166.269037 
L 172.689508 171.579412 
L 174.344425 160.522231 
z
" clip-path="url(#p31266da500)" style="stroke: #000000; stroke-linecap: round"/>
   </g>
   <g id="patch_11">
    <path d="M 162.086622 170.798375 
Q 155.100384 156.878361 147.612639 141.959102 
" clip-path="url(#p31266da500)" style="fill: none; stroke: #000000; stroke-linecap: round"/>
    <path d="M 162.06978 159.618048 
L 162.086622 170.798375 
L 153.132255 164.103653 
z
" clip-path="url(#p31266da500)" style="stroke: #000000; stroke-linecap: round"/>
   </g>
   <g id="patch_12">
    <path d="M 167.183445 169.707156 
Q 168.491551 139.534274 169.848083 108.244407 
" clip-path="url(#p31266da500)" style="fill: none; stroke: #000000; stroke-linecap: round"/>
    <path d="M 172.611883 159.933106 
L 167.183445 169.707156 
L 162.621268 159.499976 
z
" clip-path="url(#p31266da500)" style="stroke: #000000; stroke-linecap: round"/>
   </g>
   <g id="patch_13">
    <path d="M 171.329669 89.828476 
Q 174.515133 62.780387 177.569829 36.842658 
" clip-path="url(#p31266da500)" style="fill: none; stroke: #000000; stroke-linecap: round"/>
    <path d="M 171.434527 46.189212 
L 177.569829 36.842658 
L 181.365891 47.358832 
z
" clip-path="url(#p31266da500)" style="stroke: #000000; stroke-linecap: round"/>
   </g>
   <g id="patch_14">
    <path d="M 159.436086 276.067154 
Q 157.46264 299.594817 155.395744 324.236602 
" clip-path="url(#p31266da500)" style="fill: none; stroke: #000000; stroke-linecap: round"/>
    <path d="M 153.617741 285.61424 
L 159.436086 276.067154 
L 163.582748 286.450082 
z
" clip-path="url(#p31266da500)" style="stroke: #000000; stroke-linecap: round"/>
   </g>
   <g id="patch_15">
    <path d="M 160.30219 274.985379 
C 162.753735 274.985379 165.1052 274.011371 166.838704 272.277867 
C 168.572208 270.544363 169.546217 268.192897 169.546217 265.741353 
C 169.546217 263.289808 168.572208 260.938343 166.838704 259.204839 
C 165.1052 257.471335 162.753735 256.497326 160.30219 256.497326 
C 157.850646 256.497326 155.49918 257.471335 153.765676 259.204839 
C 152.032173 260.938343 151.058164 263.289808 151.058164 265.741353 
C 151.058164 268.192897 152.032173 270.544363 153.765676 272.277867 
C 155.49918 274.011371 157.850646 274.985379 160.30219 274.985379 
z
" style="fill: #fec7b8; stroke: #000000; stroke-linejoin: miter"/>
   </g>
   <g id="patch_16">
    <path d="M 154.623089 342.692308 
C 157.074634 342.692308 159.4261 341.718299 161.159603 339.984795 
C 162.893107 338.251291 163.867116 335.899826 163.867116 333.448281 
C 163.867116 330.996737 162.893107 328.645271 161.159603 326.911767 
C 159.4261 325.178264 157.074634 324.204255 154.623089 324.204255 
C 152.171545 324.204255 149.820079 325.178264 148.086576 326.911767 
C 146.353072 328.645271 145.379063 330.996737 145.379063 333.448281 
C 145.379063 335.899826 146.353072 338.251291 148.086576 339.984795 
C 149.820079 341.718299 152.171545 342.692308 154.623089 342.692308 
z
" style="fill: #fec7b8; stroke: #000000; stroke-linejoin: miter"/>
   </g>
   <g id="patch_17">
    <path d="M 166.734633 189.303519 
C 169.186178 189.303519 171.537643 188.32951 173.271147 186.596006 
C 175.004651 184.862503 175.97866 182.511037 175.97866 180.059493 
C 175.97866 177.607948 175.004651 175.256482 173.271147 173.522979 
C 171.537643 171.789475 169.186178 170.815466 166.734633 170.815466 
C 164.283089 170.815466 161.931623 171.789475 160.198119 173.522979 
C 158.464615 175.256482 157.490607 177.607948 157.490607 180.059493 
C 157.490607 182.511037 158.464615 184.862503 160.198119 186.596006 
C 161.931623 188.32951 164.283089 189.303519 166.734633 189.303519 
z
" style="fill: #fec7b8; stroke: #000000; stroke-linejoin: miter"/>
   </g>
   <g id="patch_18">
    <path d="M 170.248469 108.253082 
C 172.700014 108.253082 175.051479 107.279073 176.784983 105.545569 
C 178.518487 103.812066 179.492496 101.4606 179.492496 99.009055 
C 179.492496 96.557511 178.518487 94.206045 176.784983 92.472542 
C 175.051479 90.739038 172.700014 89.765029 170.248469 89.765029 
C 167.796925 89.765029 165.445459 90.739038 163.711955 92.472542 
C 161.978452 94.206045 161.004443 96.557511 161.004443 99.009055 
C 161.004443 101.4606 161.978452 103.812066 163.711955 105.545569 
C 165.445459 107.279073 167.796925 108.253082 170.248469 108.253082 
z
" style="fill: #fec7b8; stroke: #000000; stroke-linejoin: miter"/>
   </g>
   <g id="patch_19">
    <path d="M 143.466134 142.941257 
C 145.917679 142.941257 148.269144 141.967248 150.002648 140.233744 
C 151.736152 138.50024 152.710161 136.148775 152.710161 133.69723 
C 152.710161 131.245686 151.736152 128.89422 150.002648 127.160716 
C 148.269144 125.427213 145.917679 124.453204 143.466134 124.453204 
C 141.01459 124.453204 138.663124 125.427213 136.92962 127.160716 
C 135.196117 128.89422 134.222108 131.245686 134.222108 133.69723 
C 134.222108 136.148775 135.196117 138.50024 136.92962 140.233744 
C 138.663124 141.967248 141.01459 142.941257 143.466134 142.941257 
z
" style="fill: #fec7b8; stroke: #000000; stroke-linejoin: miter"/>
   </g>
   <g id="patch_20">
    <path d="M 196.400048 147.058282 
C 198.851592 147.058282 201.203058 146.084273 202.936562 144.350769 
C 204.670066 142.617266 205.644075 140.2658 205.644075 137.814255 
C 205.644075 135.362711 204.670066 133.011245 202.936562 131.277742 
C 201.203058 129.544238 198.851592 128.570229 196.400048 128.570229 
C 193.948503 128.570229 191.597038 129.544238 189.863534 131.277742 
C 188.13003 133.011245 187.156021 135.362711 187.156021 137.814255 
C 187.156021 140.2658 188.13003 142.617266 189.863534 144.350769 
C 191.597038 146.084273 193.948503 147.058282 196.400048 147.058282 
z
" style="fill: #fec7b8; stroke: #000000; stroke-linejoin: miter"/>
   </g>
   <g id="patch_21">
    <path d="M 178.781797 35.795745 
C 181.233342 35.795745 183.584807 34.821736 185.318311 33.088233 
C 187.051815 31.354729 188.025824 29.003263 188.025824 26.551719 
C 188.025824 24.100174 187.051815 21.748709 185.318311 20.015205 
C 183.584807 18.281701 181.233342 17.307692 178.781797 17.307692 
C 176.330253 17.307692 173.978787 18.281701 172.245283 20.015205 
C 170.511779 21.748709 169.53777 24.100174 169.53777 26.551719 
C 169.53777 29.003263 170.511779 31.354729 172.245283 33.088233 
C 173.978787 34.821736 176.330253 35.795745 178.781797 35.795745 
z
" style="fill: #fec7b8; stroke: #000000; stroke-linejoin: miter"/>
   </g>
   <g id="text_1">
    <!-- {B} -->
    <g transform="translate(150.509222 268.500728) scale(0.1 -0.1)">
     <defs>
      <path id="DejaVuSans-7b" d="M 3272 -594 
L 3272 -1044 
L 3078 -1044 
Q 2300 -1044 2036 -812 
Q 1772 -581 1772 109 
L 1772 856 
Q 1772 1328 1603 1509 
Q 1434 1691 991 1691 
L 800 1691 
L 800 2138 
L 991 2138 
Q 1438 2138 1605 2317 
Q 1772 2497 1772 2963 
L 1772 3713 
Q 1772 4403 2036 4633 
Q 2300 4863 3078 4863 
L 3272 4863 
L 3272 4416 
L 3059 4416 
Q 2619 4416 2484 4278 
Q 2350 4141 2350 3700 
L 2350 2925 
Q 2350 2434 2208 2212 
Q 2066 1991 1722 1913 
Q 2069 1828 2209 1606 
Q 2350 1384 2350 897 
L 2350 122 
Q 2350 -319 2484 -456 
Q 2619 -594 3059 -594 
L 3272 -594 
z
" transform="scale(0.015625)"/>
      <path id="DejaVuSans-42" d="M 1259 2228 
L 1259 519 
L 2272 519 
Q 2781 519 3026 730 
Q 3272 941 3272 1375 
Q 3272 1813 3026 2020 
Q 2781 2228 2272 2228 
L 1259 2228 
z
M 1259 4147 
L 1259 2741 
L 2194 2741 
Q 2656 2741 2882 2914 
Q 3109 3088 3109 3444 
Q 3109 3797 2882 3972 
Q 2656 4147 2194 4147 
L 1259 4147 
z
M 628 4666 
L 2241 4666 
Q 2963 4666 3353 4366 
Q 3744 4066 3744 3513 
Q 3744 3084 3544 2831 
Q 3344 2578 2956 2516 
Q 3422 2416 3680 2098 
Q 3938 1781 3938 1306 
Q 3938 681 3513 340 
Q 3088 0 2303 0 
L 628 0 
L 628 4666 
z
" transform="scale(0.015625)"/>
      <path id="DejaVuSans-7d" d="M 800 -594 
L 1019 -594 
Q 1456 -594 1589 -459 
Q 1722 -325 1722 122 
L 1722 897 
Q 1722 1384 1862 1606 
Q 2003 1828 2350 1913 
Q 2003 1991 1862 2212 
Q 1722 2434 1722 2925 
L 1722 3700 
Q 1722 4144 1589 4280 
Q 1456 4416 1019 4416 
L 800 4416 
L 800 4863 
L 997 4863 
Q 1775 4863 2036 4633 
Q 2297 4403 2297 3713 
L 2297 2963 
Q 2297 2497 2465 2317 
Q 2634 2138 3078 2138 
L 3272 2138 
L 3272 1691 
L 3078 1691 
Q 2634 1691 2465 1509 
Q 2297 1328 2297 856 
L 2297 109 
Q 2297 -581 2036 -812 
Q 1775 -1044 997 -1044 
L 800 -1044 
L 800 -594 
z
" transform="scale(0.015625)"/>
     </defs>
     <use xlink:href="#DejaVuSans-7b"/>
     <use xlink:href="#DejaVuSans-42" transform="translate(63.623047 0)"/>
     <use xlink:href="#DejaVuSans-7d" transform="translate(132.226562 0)"/>
    </g>
   </g>
   <g id="text_2">
    <!-- {M} -->
    <g transform="translate(156.058071 182.818868) scale(0.1 -0.1)">
     <defs>
      <path id="DejaVuSans-4d" d="M 628 4666 
L 1569 4666 
L 2759 1491 
L 3956 4666 
L 4897 4666 
L 4897 0 
L 4281 0 
L 4281 4097 
L 3078 897 
L 2444 897 
L 1241 4097 
L 1241 0 
L 628 0 
L 628 4666 
z
" transform="scale(0.015625)"/>
     </defs>
     <use xlink:href="#DejaVuSans-7b"/>
     <use xlink:href="#DejaVuSans-4d" transform="translate(63.623047 0)"/>
     <use xlink:href="#DejaVuSans-7d" transform="translate(149.902344 0)"/>
    </g>
   </g>
   <g id="text_3">
    <!-- {AA} -->
    <g transform="translate(183.059423 140.57363) scale(0.1 -0.1)">
     <defs>
      <path id="DejaVuSans-41" d="M 2188 4044 
L 1331 1722 
L 3047 1722 
L 2188 4044 
z
M 1831 4666 
L 2547 4666 
L 4325 0 
L 3669 0 
L 3244 1197 
L 1141 1197 
L 716 0 
L 50 0 
L 1831 4666 
z
" transform="scale(0.015625)"/>
     </defs>
     <use xlink:href="#DejaVuSans-7b"/>
     <use xlink:href="#DejaVuSans-41" transform="translate(63.623047 0)"/>
     <use xlink:href="#DejaVuSans-41" transform="translate(134.78125 0)"/>
     <use xlink:href="#DejaVuSans-7d" transform="translate(203.189453 0)"/>
    </g>
   </g>
   <g id="text_4">
    <!-- {AD} -->
    <g transform="translate(129.833322 136.456605) scale(0.1 -0.1)">
     <defs>
      <path id="DejaVuSans-44" d="M 1259 4147 
L 1259 519 
L 2022 519 
Q 2988 519 3436 956 
Q 3884 1394 3884 2338 
Q 3884 3275 3436 3711 
Q 2988 4147 2022 4147 
L 1259 4147 
z
M 628 4666 
L 1925 4666 
Q 3281 4666 3915 4102 
Q 4550 3538 4550 2338 
Q 4550 1131 3912 565 
Q 3275 0 1925 0 
L 628 0 
L 628 4666 
z
" transform="scale(0.015625)"/>
     </defs>
     <use xlink:href="#DejaVuSans-7b"/>
     <use xlink:href="#DejaVuSans-41" transform="translate(63.623047 0)"/>
     <use xlink:href="#DejaVuSans-44" transform="translate(132.03125 0)"/>
     <use xlink:href="#DejaVuSans-7d" transform="translate(209.033203 0)"/>
    </g>
   </g>
   <g id="text_5">
    <!-- {A} -->
    <g transform="translate(160.465657 101.76843) scale(0.1 -0.1)">
     <use xlink:href="#DejaVuSans-7b"/>
     <use xlink:href="#DejaVuSans-41" transform="translate(63.623047 0)"/>
     <use xlink:href="#DejaVuSans-7d" transform="translate(132.03125 0)"/>
    </g>
   </g>
   <g id="text_6">
    <!-- [] -->
    <g transform="translate(174.880235 29.311094) scale(0.1 -0.1)">
     <defs>
      <path id="DejaVuSans-5b" d="M 550 4863 
L 1875 4863 
L 1875 4416 
L 1125 4416 
L 1125 -397 
L 1875 -397 
L 1875 -844 
L 550 -844 
L 550 4863 
z
" transform="scale(0.015625)"/>
      <path id="DejaVuSans-5d" d="M 1947 4863 
L 1947 -844 
L 622 -844 
L 622 -397 
L 1369 -397 
L 1369 4416 
L 622 4416 
L 622 4863 
L 1947 4863 
z
" transform="scale(0.015625)"/>
     </defs>
     <use xlink:href="#DejaVuSans-5b"/>
     <use xlink:href="#DejaVuSans-5d" transform="translate(39.013672 0)"/>
    </g>
   </g>
   <g id="text_7">
    <!-- b -->
    <g transform="translate(151.448871 336.207656) scale(0.1 -0.1)">
     <defs>
      <path id="DejaVuSans-62" d="M 3116 1747 
Q 3116 2381 2855 2742 
Q 2594 3103 2138 3103 
Q 1681 3103 1420 2742 
Q 1159 2381 1159 1747 
Q 1159 1113 1420 752 
Q 1681 391 2138 391 
Q 2594 391 2855 752 
Q 3116 1113 3116 1747 
z
M 1159 2969 
Q 1341 3281 1617 3432 
Q 1894 3584 2278 3584 
Q 2916 3584 3314 3078 
Q 3713 2572 3713 1747 
Q 3713 922 3314 415 
Q 2916 -91 2278 -91 
Q 1894 -91 1617 61 
Q 1341 213 1159 525 
L 1159 0 
L 581 0 
L 581 4863 
L 1159 4863 
L 1159 2969 
z
" transform="scale(0.015625)"/>
     </defs>
     <use xlink:href="#DejaVuSans-62"/>
    </g>
   </g>
  </g>
  <g id="axes_2">
   <g id="patch_22">
    <path d="M 349.497708 349.2 
L 462.63611 349.2 
L 462.63611 10.8 
L 349.497708 10.8 
z
" style="fill: #ffffff"/>
   </g>
   <g id="matplotlib.axis_3"/>
   <g id="matplotlib.axis_4"/>
   <g id="patch_23">
    <path d="M 351.798577 172.021285 
Q 352.949234 98.651782 354.082359 26.400176 
" clip-path="url(#pc8d63dd54f)" style="fill: none; stroke: #000000; stroke-linecap: round"/>
    <path d="M 348.926162 36.32054 
L 354.082359 26.400176 
L 358.924933 36.477352 
z
" clip-path="url(#pc8d63dd54f)" style="stroke: #000000; stroke-linecap: round"/>
   </g>
   <g id="patch_24">
    <path d="M 356.085926 173.354381 
Q 405.6847 98.653839 454.665042 24.884715 
" clip-path="url(#pc8d63dd54f)" style="fill: none; stroke: #000000; stroke-linecap: round"/>
    <path d="M 444.968182 30.449866 
L 454.665042 24.884715 
L 453.299047 35.981294 
z
" clip-path="url(#pc8d63dd54f)" style="stroke: #000000; stroke-linecap: round"/>
   </g>
   <g id="patch_25">
    <path d="M 408.393488 335.128168 
Q 433.158149 261.344292 457.567059 188.62034 
" clip-path="url(#pc8d63dd54f)" style="fill: none; stroke: #000000; stroke-linecap: round"/>
    <path d="M 449.644996 196.509632 
L 457.567059 188.62034 
L 459.125255 199.691565 
z
" clip-path="url(#pc8d63dd54f)" style="stroke: #000000; stroke-linecap: round"/>
   </g>
   <g id="patch_26">
    <path d="M 460.422882 172.021285 
Q 460.078148 98.651782 459.738666 26.400301 
" clip-path="url(#pc8d63dd54f)" style="fill: none; stroke: #000000; stroke-linecap: round"/>
    <path d="M 454.785707 36.423683 
L 459.738666 26.400301 
L 464.785597 36.376698 
z
" clip-path="url(#pc8d63dd54f)" style="stroke: #000000; stroke-linecap: round"/>
   </g>
   <g id="PathCollection_1">
    <defs>
     <path id="m5c4f3700a5" d="M 0 7.071068 
C 1.875269 7.071068 3.673985 6.326016 5 5 
C 6.326016 3.673985 7.071068 1.875269 7.071068 0 
C 7.071068 -1.875269 6.326016 -3.673985 5 -5 
C 3.673985 -6.326016 1.875269 -7.071068 0 -7.071068 
C -1.875269 -7.071068 -3.673985 -6.326016 -5 -5 
C -6.326016 -3.673985 -7.071068 -1.875269 -7.071068 0 
C -7.071068 1.875269 -6.326016 3.673985 -5 5 
C -3.673985 6.326016 -1.875269 7.071068 0 7.071068 
z
" style="stroke: #000000"/>
    </defs>
    <g>
     <use xlink:href="#m5c4f3700a5" x="351.673446" y="180" style="fill: #fec7b8; stroke: #000000"/>
     <use xlink:href="#m5c4f3700a5" x="460.460371" y="180" style="fill: #fec7b8; stroke: #000000"/>
     <use xlink:href="#m5c4f3700a5" x="354.224957" y="17.307692" style="fill: #fec7b8; stroke: #000000"/>
     <use xlink:href="#m5c4f3700a5" x="459.695944" y="17.307692" style="fill: #fec7b8; stroke: #000000"/>
     <use xlink:href="#m5c4f3700a5" x="405.854676" y="342.692308" style="fill: #fec7b8; stroke: #000000"/>
    </g>
   </g>
   <g id="text_8">
    <!-- {A, AA, AD} -->
    <g transform="translate(321.285946 182.759375) scale(0.1 -0.1)">
     <defs>
      <path id="DejaVuSans-2c" d="M 750 794 
L 1409 794 
L 1409 256 
L 897 -744 
L 494 -744 
L 750 256 
L 750 794 
z
" transform="scale(0.015625)"/>
      <path id="DejaVuSans-20" transform="scale(0.015625)"/>
     </defs>
     <use xlink:href="#DejaVuSans-7b"/>
     <use xlink:href="#DejaVuSans-41" transform="translate(63.623047 0)"/>
     <use xlink:href="#DejaVuSans-2c" transform="translate(132.03125 0)"/>
     <use xlink:href="#DejaVuSans-20" transform="translate(163.818359 0)"/>
     <use xlink:href="#DejaVuSans-41" transform="translate(195.605469 0)"/>
     <use xlink:href="#DejaVuSans-41" transform="translate(266.763672 0)"/>
     <use xlink:href="#DejaVuSans-2c" transform="translate(335.171875 0)"/>
     <use xlink:href="#DejaVuSans-20" transform="translate(366.958984 0)"/>
     <use xlink:href="#DejaVuSans-41" transform="translate(398.746094 0)"/>
     <use xlink:href="#DejaVuSans-44" transform="translate(467.154297 0)"/>
     <use xlink:href="#DejaVuSans-7d" transform="translate(544.15625 0)"/>
    </g>
   </g>
   <g id="text_9">
    <!-- [] -->
    <g transform="translate(350.323394 20.067067) scale(0.1 -0.1)">
     <use xlink:href="#DejaVuSans-5b"/>
     <use xlink:href="#DejaVuSans-5d" transform="translate(39.013672 0)"/>
    </g>
   </g>
   <g id="text_10">
    <!-- b -->
    <g transform="translate(402.680457 345.451683) scale(0.1 -0.1)">
     <use xlink:href="#DejaVuSans-62"/>
    </g>
   </g>
   <g id="text_11">
    <!-- {B} -->
    <g transform="translate(450.667403 182.759375) scale(0.1 -0.1)">
     <use xlink:href="#DejaVuSans-7b"/>
     <use xlink:href="#DejaVuSans-42" transform="translate(63.623047 0)"/>
     <use xlink:href="#DejaVuSans-7d" transform="translate(132.226562 0)"/>
    </g>
   </g>
   <g id="text_12">
    <!-- {M} -->
    <g transform="translate(449.019381 20.067067) scale(0.1 -0.1)">
     <use xlink:href="#DejaVuSans-7b"/>
     <use xlink:href="#DejaVuSans-4d" transform="translate(63.623047 0)"/>
     <use xlink:href="#DejaVuSans-7d" transform="translate(149.902344 0)"/>
    </g>
   </g>
  </g>
 </g>
 <defs>
  <clipPath id="p31266da500">
   <rect x="132.793668" y="10.8" width="74.278845" height="338.4"/>
  </clipPath>
  <clipPath id="pc8d63dd54f">
   <rect x="349.497708" y="10.8" width="113.138402" height="338.4"/>
  </clipPath>
 </defs>
</svg>
