<?xml version="1.0" encoding="utf-8" standalone="no"?>
<!DOCTYPE svg PUBLIC "-//W3C//DTD SVG 1.1//EN"
  "http://www.w3.org/Graphics/SVG/1.1/DTD/svg11.dtd">
<svg xmlns:xlink="http://www.w3.org/1999/xlink" width="576pt" height="360pt" viewBox="0 0 576 360" xmlns="http://www.w3.org/2000/svg" version="1.1">
 <metadata>
  <rdf:RDF xmlns:dc="http://purl.org/dc/elements/1.1/" xmlns:cc="http://creativecommons.org/ns#" xmlns:rdf="http://www.w3.org/1999/02/22-rdf-syntax-ns#">
   <cc:Work>
    <dc:type rdf:resource="http://purl.org/dc/dcmitype/StillImage"/>
    <dc:date>2025-08-03T18:58:11.878265</dc:date>
    <dc:format>image/svg+xml</dc:format>
    <dc:creator>
     <cc:Agent>
      <dc:title>Matplotlib v3.10.3, https://matplotlib.org/</dc:title>
     </cc:Agent>
    </dc:creator>
   </cc:Work>
  </rdf:RDF>
 </metadata>
 <defs>
  <style type="text/css">*{stroke-linejoin: round; stroke-linecap: butt}</style>
 </defs>
 <g id="figure_1">
  <g id="patch_1">
   <path d="M 0 360 
L 576 360 
L 576 0 
L 0 0 
z
" style="fill: #ffffff"/>
  </g>
  <g id="axes_1">
   <g id="patch_2">
    <path d="M 91.892725 349.2 
L 236.429637 349.2 
L 236.429637 10.8 
L 91.892725 10.8 
z
" style="fill: #ffffff"/>
   </g>
   <g id="patch_3">
    <path d="M 134.783914 208.813501 
Q 161.677141 197.202593 175.376732 221.822295 
" clip-path="url(#p0a422fff73)" style="fill: none; stroke: #000000; stroke-linecap: round"/>
    <path d="M 174.883472 210.652842 
L 175.376732 221.822295 
L 166.145213 215.515231 
z
" clip-path="url(#p0a422fff73)" style="stroke: #000000; stroke-linecap: round"/>
   </g>
   <g id="patch_4">
    <path d="M 131.128605 222.14085 
Q 144.828196 246.760553 171.721423 235.149644 
" clip-path="url(#p0a422fff73)" style="fill: none; stroke: #000000; stroke-linecap: round"/>
    <path d="M 131.621865 233.310304 
L 131.128605 222.14085 
L 140.360124 228.447915 
z
" clip-path="url(#p0a422fff73)" style="stroke: #000000; stroke-linecap: round"/>
   </g>
   <g id="patch_5">
    <path d="M 134.34215 217.415733 
Q 157.395808 230.316615 143.977831 251.76515 
" clip-path="url(#p0a422fff73)" style="fill: none; stroke: #000000; stroke-linecap: round"/>
    <path d="M 153.520282 245.939204 
L 143.977831 251.76515 
L 145.042545 240.635622 
z
" clip-path="url(#p0a422fff73)" style="stroke: #000000; stroke-linecap: round"/>
   </g>
   <g id="patch_6">
    <path d="M 120.107477 221.858412 
Q 106.6895 243.306947 129.743158 256.207829 
" clip-path="url(#p0a422fff73)" style="fill: none; stroke: #000000; stroke-linecap: round"/>
    <path d="M 110.565026 227.684358 
L 120.107477 221.858412 
L 119.042763 232.98794 
z
" clip-path="url(#p0a422fff73)" style="stroke: #000000; stroke-linecap: round"/>
   </g>
   <g id="patch_7">
    <path d="M 179.006938 240.879262 
Q 174.435335 267.574676 148.892594 262.905487 
" clip-path="url(#p0a422fff73)" style="fill: none; stroke: #000000; stroke-linecap: round"/>
    <path d="M 157.830494 269.622179 
L 148.892594 262.905487 
L 159.628688 259.785183 
z
" clip-path="url(#p0a422fff73)" style="stroke: #000000; stroke-linecap: round"/>
   </g>
   <g id="patch_8">
    <path d="M 169.983662 229.346156 
Q 144.440921 224.676967 139.869318 251.372381 
" clip-path="url(#p0a422fff73)" style="fill: none; stroke: #000000; stroke-linecap: round"/>
    <path d="M 161.045763 222.629464 
L 169.983662 229.346156 
L 159.247569 232.466461 
z
" clip-path="url(#p0a422fff73)" style="stroke: #000000; stroke-linecap: round"/>
   </g>
   <g id="matplotlib.axis_1"/>
   <g id="matplotlib.axis_2"/>
   <g id="patch_9">
    <path d="M 196.285392 101.180278 
Q 184.42477 134.553548 172.938548 166.873337 
" clip-path="url(#p0a422fff73)" style="fill: none; stroke: #000000; stroke-linecap: round"/>
    <path d="M 180.998599 159.125074 
L 172.938548 166.873337 
L 171.575968 155.776338 
z
" clip-path="url(#p0a422fff73)" style="stroke: #000000; stroke-linecap: round"/>
   </g>
   <g id="patch_10">
    <path d="M 160.920162 183.956909 
Q 147.582656 194.878064 133.380115 206.507536 
" clip-path="url(#p0a422fff73)" style="fill: none; stroke: #000000; stroke-linecap: round"/>
    <path d="M 150.015357 186.423735 
L 160.920162 183.956909 
L 156.350741 194.160848 
z
" clip-path="url(#p0a422fff73)" style="stroke: #000000; stroke-linecap: round"/>
   </g>
   <g id="patch_11">
    <path d="M 171.528024 187.700077 
Q 174.97813 204.192104 178.657172 221.778476 
" clip-path="url(#p0a422fff73)" style="fill: none; stroke: #000000; stroke-linecap: round"/>
    <path d="M 168.681626 198.512016 
L 171.528024 187.700077 
L 178.469736 196.464359 
z
" clip-path="url(#p0a422fff73)" style="stroke: #000000; stroke-linecap: round"/>
   </g>
   <g id="patch_12">
    <path d="M 165.540897 187.254203 
Q 153.768116 219.022313 141.606827 251.838784 
" clip-path="url(#p0a422fff73)" style="fill: none; stroke: #000000; stroke-linecap: round"/>
    <path d="M 157.377569 194.893579 
L 165.540897 187.254203 
L 166.754401 198.368492 
z
" clip-path="url(#p0a422fff73)" style="stroke: #000000; stroke-linecap: round"/>
   </g>
   <g id="patch_13">
    <path d="M 134.093609 269.756357 
Q 121.311779 296.962588 109.005361 323.156899 
" clip-path="url(#p0a422fff73)" style="fill: none; stroke: #000000; stroke-linecap: round"/>
    <path d="M 117.783028 316.23212 
L 109.005361 323.156899 
L 108.732138 311.979898 
z
" clip-path="url(#p0a422fff73)" style="stroke: #000000; stroke-linecap: round"/>
   </g>
   <g id="patch_14">
    <path d="M 203.350092 81.86835 
Q 211.73417 59.524678 220.511031 36.134238 
" clip-path="url(#p0a422fff73)" style="fill: none; stroke: #000000; stroke-linecap: round"/>
    <path d="M 211.544524 74.262348 
L 203.350092 81.86835 
L 202.181949 70.749203 
z
" clip-path="url(#p0a422fff73)" style="stroke: #000000; stroke-linecap: round"/>
   </g>
   <g id="patch_15">
    <path d="M 199.541422 101.741663 
C 202.120035 101.741663 204.593381 100.71717 206.416736 98.893815 
C 208.24009 97.070461 209.264584 94.597114 209.264584 92.018501 
C 209.264584 89.439889 208.24009 86.966542 206.416736 85.143188 
C 204.593381 83.319833 202.120035 82.295339 199.541422 82.295339 
C 196.962809 82.295339 194.489463 83.319833 192.666108 85.143188 
C 190.842754 86.966542 189.81826 89.439889 189.81826 92.018501 
C 189.81826 94.597114 190.842754 97.070461 192.666108 98.893815 
C 194.489463 100.71717 196.962809 101.741663 199.541422 101.741663 
z
" style="fill: #fec7b8; stroke: #000000; stroke-linejoin: miter"/>
   </g>
   <g id="patch_16">
    <path d="M 223.926919 36.754016 
C 226.505532 36.754016 228.978878 35.729523 230.802233 33.906168 
C 232.625587 32.082813 233.650081 29.609467 233.650081 27.030854 
C 233.650081 24.452242 232.625587 21.978895 230.802233 20.155541 
C 228.978878 18.332186 226.505532 17.307692 223.926919 17.307692 
C 221.348306 17.307692 218.87496 18.332186 217.051605 20.155541 
C 215.228251 21.978895 214.203757 24.452242 214.203757 27.030854 
C 214.203757 29.609467 215.228251 32.082813 217.051605 33.906168 
C 218.87496 35.729523 221.348306 36.754016 223.926919 36.754016 
z
" style="fill: #fec7b8; stroke: #000000; stroke-linejoin: miter"/>
   </g>
   <g id="patch_17">
    <path d="M 169.308118 186.811757 
C 171.886731 186.811757 174.360077 185.787264 176.183432 183.963909 
C 178.006786 182.140555 179.03128 179.667208 179.03128 177.088595 
C 179.03128 174.509983 178.006786 172.036636 176.183432 170.213282 
C 174.360077 168.389927 171.886731 167.365434 169.308118 167.365434 
C 166.729505 167.365434 164.256159 168.389927 162.432804 170.213282 
C 160.60945 172.036636 159.584956 174.509983 159.584956 177.088595 
C 159.584956 179.667208 160.60945 182.140555 162.432804 183.963909 
C 164.256159 185.787264 166.729505 186.811757 169.308118 186.811757 
z
" style="fill: #fec7b8; stroke: #000000; stroke-linejoin: miter"/>
   </g>
   <g id="patch_18">
    <path d="M 138.228114 270.679192 
C 140.806726 270.679192 143.280073 269.654698 145.103427 267.831344 
C 146.926782 266.007989 147.951276 263.534643 147.951276 260.95603 
C 147.951276 258.377417 146.926782 255.904071 145.103427 254.080716 
C 143.280073 252.257362 140.806726 251.232868 138.228114 251.232868 
C 135.649501 251.232868 133.176154 252.257362 131.3528 254.080716 
C 129.529445 255.904071 128.504952 258.377417 128.504952 260.95603 
C 128.504952 263.534643 129.529445 266.007989 131.3528 267.831344 
C 133.176154 269.654698 135.649501 270.679192 138.228114 270.679192 
z
" style="fill: #fec7b8; stroke: #000000; stroke-linejoin: miter"/>
   </g>
   <g id="patch_19">
    <path d="M 180.648143 241.018775 
C 183.226756 241.018775 185.700102 239.994282 187.523457 238.170927 
C 189.346811 236.347573 190.371305 233.874226 190.371305 231.295613 
C 190.371305 228.717001 189.346811 226.243654 187.523457 224.4203 
C 185.700102 222.596945 183.226756 221.572452 180.648143 221.572452 
C 178.06953 221.572452 175.596184 222.596945 173.772829 224.4203 
C 171.949475 226.243654 170.924981 228.717001 170.924981 231.295613 
C 170.924981 233.874226 171.949475 236.347573 173.772829 238.170927 
C 175.596184 239.994282 178.06953 241.018775 180.648143 241.018775 
z
" style="fill: #fec7b8; stroke: #000000; stroke-linejoin: miter"/>
   </g>
   <g id="patch_20">
    <path d="M 125.857194 222.390694 
C 128.435807 222.390694 130.909154 221.3662 132.732508 219.542846 
C 134.555863 217.719491 135.580356 215.246145 135.580356 212.667532 
C 135.580356 210.088919 134.555863 207.615573 132.732508 205.792218 
C 130.909154 203.968864 128.435807 202.94437 125.857194 202.94437 
C 123.278582 202.94437 120.805235 203.968864 118.981881 205.792218 
C 117.158526 207.615573 116.134032 210.088919 116.134032 212.667532 
C 116.134032 215.246145 117.158526 217.719491 118.981881 219.542846 
C 120.805235 221.3662 123.278582 222.390694 125.857194 222.390694 
z
" style="fill: #fec7b8; stroke: #000000; stroke-linejoin: miter"/>
   </g>
   <g id="patch_21">
    <path d="M 104.395443 342.692308 
C 106.974056 342.692308 109.447403 341.667814 111.270757 339.844459 
C 113.094112 338.021105 114.118605 335.547758 114.118605 332.969146 
C 114.118605 330.390533 113.094112 327.917187 111.270757 326.093832 
C 109.447403 324.270477 106.974056 323.245984 104.395443 323.245984 
C 101.816831 323.245984 99.343484 324.270477 97.52013 326.093832 
C 95.696775 327.917187 94.672281 330.390533 94.672281 332.969146 
C 94.672281 335.547758 95.696775 338.021105 97.52013 339.844459 
C 99.343484 341.667814 101.816831 342.692308 104.395443 342.692308 
z
" style="fill: #fec7b8; stroke: #000000; stroke-linejoin: miter"/>
   </g>
   <g id="text_1">
    <!-- {B} -->
    <g transform="translate(189.748453 94.777876) scale(0.1 -0.1)">
     <defs>
      <path id="DejaVuSans-7b" d="M 3272 -594 
L 3272 -1044 
L 3078 -1044 
Q 2300 -1044 2036 -812 
Q 1772 -581 1772 109 
L 1772 856 
Q 1772 1328 1603 1509 
Q 1434 1691 991 1691 
L 800 1691 
L 800 2138 
L 991 2138 
Q 1438 2138 1605 2317 
Q 1772 2497 1772 2963 
L 1772 3713 
Q 1772 4403 2036 4633 
Q 2300 4863 3078 4863 
L 3272 4863 
L 3272 4416 
L 3059 4416 
Q 2619 4416 2484 4278 
Q 2350 4141 2350 3700 
L 2350 2925 
Q 2350 2434 2208 2212 
Q 2066 1991 1722 1913 
Q 2069 1828 2209 1606 
Q 2350 1384 2350 897 
L 2350 122 
Q 2350 -319 2484 -456 
Q 2619 -594 3059 -594 
L 3272 -594 
z
" transform="scale(0.015625)"/>
      <path id="DejaVuSans-42" d="M 1259 2228 
L 1259 519 
L 2272 519 
Q 2781 519 3026 730 
Q 3272 941 3272 1375 
Q 3272 1813 3026 2020 
Q 2781 2228 2272 2228 
L 1259 2228 
z
M 1259 4147 
L 1259 2741 
L 2194 2741 
Q 2656 2741 2882 2914 
Q 3109 3088 3109 3444 
Q 3109 3797 2882 3972 
Q 2656 4147 2194 4147 
L 1259 4147 
z
M 628 4666 
L 2241 4666 
Q 2963 4666 3353 4366 
Q 3744 4066 3744 3513 
Q 3744 3084 3544 2831 
Q 3344 2578 2956 2516 
Q 3422 2416 3680 2098 
Q 3938 1781 3938 1306 
Q 3938 681 3513 340 
Q 3088 0 2303 0 
L 628 0 
L 628 4666 
z
" transform="scale(0.015625)"/>
      <path id="DejaVuSans-7d" d="M 800 -594 
L 1019 -594 
Q 1456 -594 1589 -459 
Q 1722 -325 1722 122 
L 1722 897 
Q 1722 1384 1862 1606 
Q 2003 1828 2350 1913 
Q 2003 1991 1862 2212 
Q 1722 2434 1722 2925 
L 1722 3700 
Q 1722 4144 1589 4280 
Q 1456 4416 1019 4416 
L 800 4416 
L 800 4863 
L 997 4863 
Q 1775 4863 2036 4633 
Q 2297 4403 2297 3713 
L 2297 2963 
Q 2297 2497 2465 2317 
Q 2634 2138 3078 2138 
L 3272 2138 
L 3272 1691 
L 3078 1691 
Q 2634 1691 2465 1509 
Q 2297 1328 2297 856 
L 2297 109 
Q 2297 -581 2036 -812 
Q 1775 -1044 997 -1044 
L 800 -1044 
L 800 -594 
z
" transform="scale(0.015625)"/>
     </defs>
     <use xlink:href="#DejaVuSans-7b"/>
     <use xlink:href="#DejaVuSans-42" transform="translate(63.623047 0)"/>
     <use xlink:href="#DejaVuSans-7d" transform="translate(132.226562 0)"/>
    </g>
   </g>
   <g id="text_2">
    <!-- {M} -->
    <g transform="translate(158.631555 179.84797) scale(0.1 -0.1)">
     <defs>
      <path id="DejaVuSans-4d" d="M 628 4666 
L 1569 4666 
L 2759 1491 
L 3956 4666 
L 4897 4666 
L 4897 0 
L 4281 0 
L 4281 4097 
L 3078 897 
L 2444 897 
L 1241 4097 
L 1241 0 
L 628 0 
L 628 4666 
z
" transform="scale(0.015625)"/>
     </defs>
     <use xlink:href="#DejaVuSans-7b"/>
     <use xlink:href="#DejaVuSans-4d" transform="translate(63.623047 0)"/>
     <use xlink:href="#DejaVuSans-7d" transform="translate(149.902344 0)"/>
    </g>
   </g>
   <g id="text_3">
    <!-- {AA} -->
    <g transform="translate(112.516569 215.426907) scale(0.1 -0.1)">
     <defs>
      <path id="DejaVuSans-41" d="M 2188 4044 
L 1331 1722 
L 3047 1722 
L 2188 4044 
z
M 1831 4666 
L 2547 4666 
L 4325 0 
L 3669 0 
L 3244 1197 
L 1141 1197 
L 716 0 
L 50 0 
L 1831 4666 
z
" transform="scale(0.015625)"/>
     </defs>
     <use xlink:href="#DejaVuSans-7b"/>
     <use xlink:href="#DejaVuSans-41" transform="translate(63.623047 0)"/>
     <use xlink:href="#DejaVuSans-41" transform="translate(134.78125 0)"/>
     <use xlink:href="#DejaVuSans-7d" transform="translate(203.189453 0)"/>
    </g>
   </g>
   <g id="text_4">
    <!-- {AD} -->
    <g transform="translate(167.01533 234.054988) scale(0.1 -0.1)">
     <defs>
      <path id="DejaVuSans-44" d="M 1259 4147 
L 1259 519 
L 2022 519 
Q 2988 519 3436 956 
Q 3884 1394 3884 2338 
Q 3884 3275 3436 3711 
Q 2988 4147 2022 4147 
L 1259 4147 
z
M 628 4666 
L 1925 4666 
Q 3281 4666 3915 4102 
Q 4550 3538 4550 2338 
Q 4550 1131 3912 565 
Q 3275 0 1925 0 
L 628 0 
L 628 4666 
z
" transform="scale(0.015625)"/>
     </defs>
     <use xlink:href="#DejaVuSans-7b"/>
     <use xlink:href="#DejaVuSans-41" transform="translate(63.623047 0)"/>
     <use xlink:href="#DejaVuSans-44" transform="translate(132.03125 0)"/>
     <use xlink:href="#DejaVuSans-7d" transform="translate(209.033203 0)"/>
    </g>
   </g>
   <g id="text_5">
    <!-- {A} -->
    <g transform="translate(128.445301 263.715405) scale(0.1 -0.1)">
     <use xlink:href="#DejaVuSans-7b"/>
     <use xlink:href="#DejaVuSans-41" transform="translate(63.623047 0)"/>
     <use xlink:href="#DejaVuSans-7d" transform="translate(132.03125 0)"/>
    </g>
   </g>
   <g id="text_6">
    <!-- [] -->
    <g transform="translate(100.493881 335.728521) scale(0.1 -0.1)">
     <defs>
      <path id="DejaVuSans-5b" d="M 550 4863 
L 1875 4863 
L 1875 4416 
L 1125 4416 
L 1125 -397 
L 1875 -397 
L 1875 -844 
L 550 -844 
L 550 4863 
z
" transform="scale(0.015625)"/>
      <path id="DejaVuSans-5d" d="M 1947 4863 
L 1947 -844 
L 622 -844 
L 622 -397 
L 1369 -397 
L 1369 4416 
L 622 4416 
L 622 4863 
L 1947 4863 
z
" transform="scale(0.015625)"/>
     </defs>
     <use xlink:href="#DejaVuSans-5b"/>
     <use xlink:href="#DejaVuSans-5d" transform="translate(39.013672 0)"/>
    </g>
   </g>
   <g id="text_7">
    <!-- b -->
    <g transform="translate(220.7527 29.790229) scale(0.1 -0.1)">
     <defs>
      <path id="DejaVuSans-62" d="M 3116 1747 
Q 3116 2381 2855 2742 
Q 2594 3103 2138 3103 
Q 1681 3103 1420 2742 
Q 1159 2381 1159 1747 
Q 1159 1113 1420 752 
Q 1681 391 2138 391 
Q 2594 391 2855 752 
Q 3116 1113 3116 1747 
z
M 1159 2969 
Q 1341 3281 1617 3432 
Q 1894 3584 2278 3584 
Q 2916 3584 3314 3078 
Q 3713 2572 3713 1747 
Q 3713 922 3314 415 
Q 2916 -91 2278 -91 
Q 1894 -91 1617 61 
Q 1341 213 1159 525 
L 1159 0 
L 581 0 
L 581 4863 
L 1159 4863 
L 1159 2969 
z
" transform="scale(0.015625)"/>
     </defs>
     <use xlink:href="#DejaVuSans-62"/>
    </g>
   </g>
  </g>
  <g id="axes_2">
   <g id="patch_22">
    <path d="M 354.093483 349.2 
L 469.584155 349.2 
L 469.584155 10.8 
L 354.093483 10.8 
z
" style="fill: #ffffff"/>
   </g>
   <g id="matplotlib.axis_3"/>
   <g id="matplotlib.axis_4"/>
   <g id="patch_23">
    <path d="M 358.626972 172.021285 
Q 357.530313 98.651782 356.450364 26.400188 
" clip-path="url(#p7ab31ff18b)" style="fill: none; stroke: #000000; stroke-linecap: round"/>
    <path d="M 351.600376 36.473798 
L 356.450364 26.400188 
L 361.599259 36.324344 
z
" clip-path="url(#p7ab31ff18b)" style="stroke: #000000; stroke-linecap: round"/>
   </g>
   <g id="patch_24">
    <path d="M 363.116635 173.324591 
Q 412.002997 98.654974 460.276955 24.92075 
" clip-path="url(#p7ab31ff18b)" style="fill: none; stroke: #000000; stroke-linecap: round"/>
    <path d="M 450.616238 30.548409 
L 460.276955 24.92075 
L 458.982652 36.025919 
z
" clip-path="url(#p7ab31ff18b)" style="stroke: #000000; stroke-linecap: round"/>
   </g>
   <g id="patch_25">
    <path d="M 414.344333 335.143063 
Q 439.5638 261.346184 464.421719 188.607266 
" clip-path="url(#p7ab31ff18b)" style="fill: none; stroke: #000000; stroke-linecap: round"/>
    <path d="M 456.456576 196.453061 
L 464.421719 188.607266 
L 465.919269 199.686857 
z
" clip-path="url(#p7ab31ff18b)" style="stroke: #000000; stroke-linecap: round"/>
   </g>
   <g id="patch_26">
    <path d="M 467.260097 172.021285 
Q 466.312184 98.651782 465.378713 26.40022 
" clip-path="url(#p7ab31ff18b)" style="fill: none; stroke: #000000; stroke-linecap: round"/>
    <path d="M 460.508317 36.463978 
L 465.378713 26.40022 
L 470.507483 36.334792 
z
" clip-path="url(#p7ab31ff18b)" style="stroke: #000000; stroke-linecap: round"/>
   </g>
   <g id="PathCollection_1">
    <defs>
     <path id="md9a9483c60" d="M 0 7.071068 
C 1.875269 7.071068 3.673985 6.326016 5 5 
C 6.326016 3.673985 7.071068 1.875269 7.071068 0 
C 7.071068 -1.875269 6.326016 -3.673985 5 -5 
C 3.673985 -6.326016 1.875269 -7.071068 0 -7.071068 
C -1.875269 -7.071068 -3.673985 -6.326016 -5 -5 
C -6.326016 -3.673985 -7.071068 -1.875269 -7.071068 0 
C -7.071068 1.875269 -6.326016 3.673985 -5 5 
C -3.673985 6.326016 -1.875269 7.071068 0 7.071068 
z
" style="stroke: #000000"/>
    </defs>
    <g>
     <use xlink:href="#md9a9483c60" x="358.74623" y="180" style="fill: #fec7b8; stroke: #000000"/>
     <use xlink:href="#md9a9483c60" x="467.36318" y="180" style="fill: #fec7b8; stroke: #000000"/>
     <use xlink:href="#md9a9483c60" x="356.314458" y="17.307692" style="fill: #fec7b8; stroke: #000000"/>
     <use xlink:href="#md9a9483c60" x="465.26124" y="17.307692" style="fill: #fec7b8; stroke: #000000"/>
     <use xlink:href="#md9a9483c60" x="411.764441" y="342.692308" style="fill: #fec7b8; stroke: #000000"/>
    </g>
   </g>
   <g id="text_8">
    <!-- {A, AA, AD} -->
    <g transform="translate(328.35873 182.759375) scale(0.1 -0.1)">
     <defs>
      <path id="DejaVuSans-2c" d="M 750 794 
L 1409 794 
L 1409 256 
L 897 -744 
L 494 -744 
L 750 256 
L 750 794 
z
" transform="scale(0.015625)"/>
      <path id="DejaVuSans-20" transform="scale(0.015625)"/>
     </defs>
     <use xlink:href="#DejaVuSans-7b"/>
     <use xlink:href="#DejaVuSans-41" transform="translate(63.623047 0)"/>
     <use xlink:href="#DejaVuSans-2c" transform="translate(132.03125 0)"/>
     <use xlink:href="#DejaVuSans-20" transform="translate(163.818359 0)"/>
     <use xlink:href="#DejaVuSans-41" transform="translate(195.605469 0)"/>
     <use xlink:href="#DejaVuSans-41" transform="translate(266.763672 0)"/>
     <use xlink:href="#DejaVuSans-2c" transform="translate(335.171875 0)"/>
     <use xlink:href="#DejaVuSans-20" transform="translate(366.958984 0)"/>
     <use xlink:href="#DejaVuSans-41" transform="translate(398.746094 0)"/>
     <use xlink:href="#DejaVuSans-44" transform="translate(467.154297 0)"/>
     <use xlink:href="#DejaVuSans-7d" transform="translate(544.15625 0)"/>
    </g>
   </g>
   <g id="text_9">
    <!-- [] -->
    <g transform="translate(352.412895 20.067067) scale(0.1 -0.1)">
     <use xlink:href="#DejaVuSans-5b"/>
     <use xlink:href="#DejaVuSans-5d" transform="translate(39.013672 0)"/>
    </g>
   </g>
   <g id="text_10">
    <!-- b -->
    <g transform="translate(408.590222 345.451683) scale(0.1 -0.1)">
     <use xlink:href="#DejaVuSans-62"/>
    </g>
   </g>
   <g id="text_11">
    <!-- {B} -->
    <g transform="translate(457.570211 182.759375) scale(0.1 -0.1)">
     <use xlink:href="#DejaVuSans-7b"/>
     <use xlink:href="#DejaVuSans-42" transform="translate(63.623047 0)"/>
     <use xlink:href="#DejaVuSans-7d" transform="translate(132.226562 0)"/>
    </g>
   </g>
   <g id="text_12">
    <!-- {M} -->
    <g transform="translate(454.584678 20.067067) scale(0.1 -0.1)">
     <use xlink:href="#DejaVuSans-7b"/>
     <use xlink:href="#DejaVuSans-4d" transform="translate(63.623047 0)"/>
     <use xlink:href="#DejaVuSans-7d" transform="translate(149.902344 0)"/>
    </g>
   </g>
  </g>
 </g>
 <defs>
  <clipPath id="p0a422fff73">
   <rect x="91.892725" y="10.8" width="144.536911" height="338.4"/>
  </clipPath>
  <clipPath id="p7ab31ff18b">
   <rect x="354.093483" y="10.8" width="115.490671" height="338.4"/>
  </clipPath>
 </defs>
</svg>
