<?xml version="1.0" encoding="utf-8" standalone="no"?>
<!DOCTYPE svg PUBLIC "-//W3C//DTD SVG 1.1//EN"
  "http://www.w3.org/Graphics/SVG/1.1/DTD/svg11.dtd">
<svg xmlns:xlink="http://www.w3.org/1999/xlink" width="576pt" height="216pt" viewBox="0 0 576 216" xmlns="http://www.w3.org/2000/svg" version="1.1">
 <metadata>
  <rdf:RDF xmlns:dc="http://purl.org/dc/elements/1.1/" xmlns:cc="http://creativecommons.org/ns#" xmlns:rdf="http://www.w3.org/1999/02/22-rdf-syntax-ns#">
   <cc:Work>
    <dc:type rdf:resource="http://purl.org/dc/dcmitype/StillImage"/>
    <dc:date>2025-08-03T18:58:13.577384</dc:date>
    <dc:format>image/svg+xml</dc:format>
    <dc:creator>
     <cc:Agent>
      <dc:title>Matplotlib v3.10.3, https://matplotlib.org/</dc:title>
     </cc:Agent>
    </dc:creator>
   </cc:Work>
  </rdf:RDF>
 </metadata>
 <defs>
  <style type="text/css">*{stroke-linejoin: round; stroke-linecap: butt}</style>
 </defs>
 <g id="figure_1">
  <g id="patch_1">
   <path d="M 0 216 
L 576 216 
L 576 0 
L 0 0 
z
" style="fill: #ffffff"/>
  </g>
  <g id="axes_1">
   <g id="patch_2">
    <path d="M 81.825953 203.307837 
L 144.967534 203.307837 
L 144.967534 12.641538 
L 81.825953 12.641538 
z
" style="fill: #ffffff"/>
   </g>
   <g id="matplotlib.axis_1"/>
   <g id="matplotlib.axis_2"/>
   <g id="patch_3">
    <path d="M 85.634727 192.096483 
Q 98.801566 153.808076 111.604827 116.576935 
" clip-path="url(#pb41db38ef9)" style="fill: none; stroke: #000000; stroke-linecap: round"/>
    <path d="M 103.624645 124.407433 
L 111.604827 116.576935 
L 113.081117 127.659379 
z
" clip-path="url(#pb41db38ef9)" style="stroke: #000000; stroke-linecap: round"/>
   </g>
   <g id="patch_4">
    <path d="M 141.332926 192.040535 
Q 129.158287 153.808379 117.32289 116.641547 
" clip-path="url(#pb41db38ef9)" style="fill: none; stroke: #000000; stroke-linecap: round"/>
    <path d="M 115.592885 127.687228 
L 117.32289 116.641547 
L 125.121432 124.65296 
z
" clip-path="url(#pb41db38ef9)" style="stroke: #000000; stroke-linecap: round"/>
   </g>
   <g id="patch_5">
    <path d="M 114.557765 99.993593 
Q 114.53285 62.141326 114.508672 25.407093 
" clip-path="url(#pb41db38ef9)" style="fill: none; stroke: #000000; stroke-linecap: round"/>
    <path d="M 109.515255 35.410382 
L 114.508672 25.407093 
L 119.515253 35.4038 
z
" clip-path="url(#pb41db38ef9)" style="stroke: #000000; stroke-linecap: round"/>
   </g>
   <g id="PathCollection_1">
    <defs>
     <path id="mdbaae74c54" d="M 0 7.071068 
C 1.875269 7.071068 3.673985 6.326016 5 5 
C 6.326016 3.673985 7.071068 1.875269 7.071068 0 
C 7.071068 -1.875269 6.326016 -3.673985 5 -5 
C 3.673985 -6.326016 1.875269 -7.071068 0 -7.071068 
C -1.875269 -7.071068 -3.673985 -6.326016 -5 -5 
C -6.326016 -3.673985 -7.071068 -1.875269 -7.071068 0 
C -7.071068 1.875269 -6.326016 3.673985 -5 5 
C -3.673985 6.326016 -1.875269 7.071068 0 7.071068 
z
" style="stroke: #000000"/>
    </defs>
    <g>
     <use xlink:href="#mdbaae74c54" x="83.040214" y="199.641177" style="fill: #fec7b8; stroke: #000000"/>
     <use xlink:href="#mdbaae74c54" x="143.753273" y="199.641177" style="fill: #fec7b8; stroke: #000000"/>
     <use xlink:href="#mdbaae74c54" x="114.563018" y="107.974688" style="fill: #fec7b8; stroke: #000000"/>
     <use xlink:href="#mdbaae74c54" x="114.502683" y="16.308198" style="fill: #fec7b8; stroke: #000000"/>
    </g>
   </g>
   <g id="text_1">
    <!-- {B} -->
    <g transform="translate(73.247245 202.400552) scale(0.1 -0.1)">
     <defs>
      <path id="DejaVuSans-7b" d="M 3272 -594 
L 3272 -1044 
L 3078 -1044 
Q 2300 -1044 2036 -812 
Q 1772 -581 1772 109 
L 1772 856 
Q 1772 1328 1603 1509 
Q 1434 1691 991 1691 
L 800 1691 
L 800 2138 
L 991 2138 
Q 1438 2138 1605 2317 
Q 1772 2497 1772 2963 
L 1772 3713 
Q 1772 4403 2036 4633 
Q 2300 4863 3078 4863 
L 3272 4863 
L 3272 4416 
L 3059 4416 
Q 2619 4416 2484 4278 
Q 2350 4141 2350 3700 
L 2350 2925 
Q 2350 2434 2208 2212 
Q 2066 1991 1722 1913 
Q 2069 1828 2209 1606 
Q 2350 1384 2350 897 
L 2350 122 
Q 2350 -319 2484 -456 
Q 2619 -594 3059 -594 
L 3272 -594 
z
" transform="scale(0.015625)"/>
      <path id="DejaVuSans-42" d="M 1259 2228 
L 1259 519 
L 2272 519 
Q 2781 519 3026 730 
Q 3272 941 3272 1375 
Q 3272 1813 3026 2020 
Q 2781 2228 2272 2228 
L 1259 2228 
z
M 1259 4147 
L 1259 2741 
L 2194 2741 
Q 2656 2741 2882 2914 
Q 3109 3088 3109 3444 
Q 3109 3797 2882 3972 
Q 2656 4147 2194 4147 
L 1259 4147 
z
M 628 4666 
L 2241 4666 
Q 2963 4666 3353 4366 
Q 3744 4066 3744 3513 
Q 3744 3084 3544 2831 
Q 3344 2578 2956 2516 
Q 3422 2416 3680 2098 
Q 3938 1781 3938 1306 
Q 3938 681 3513 340 
Q 3088 0 2303 0 
L 628 0 
L 628 4666 
z
" transform="scale(0.015625)"/>
      <path id="DejaVuSans-7d" d="M 800 -594 
L 1019 -594 
Q 1456 -594 1589 -459 
Q 1722 -325 1722 122 
L 1722 897 
Q 1722 1384 1862 1606 
Q 2003 1828 2350 1913 
Q 2003 1991 1862 2212 
Q 1722 2434 1722 2925 
L 1722 3700 
Q 1722 4144 1589 4280 
Q 1456 4416 1019 4416 
L 800 4416 
L 800 4863 
L 997 4863 
Q 1775 4863 2036 4633 
Q 2297 4403 2297 3713 
L 2297 2963 
Q 2297 2497 2465 2317 
Q 2634 2138 3078 2138 
L 3272 2138 
L 3272 1691 
L 3078 1691 
Q 2634 1691 2465 1509 
Q 2297 1328 2297 856 
L 2297 109 
Q 2297 -581 2036 -812 
Q 1775 -1044 997 -1044 
L 800 -1044 
L 800 -594 
z
" transform="scale(0.015625)"/>
     </defs>
     <use xlink:href="#DejaVuSans-7b"/>
     <use xlink:href="#DejaVuSans-42" transform="translate(63.623047 0)"/>
     <use xlink:href="#DejaVuSans-7d" transform="translate(132.226562 0)"/>
    </g>
   </g>
   <g id="text_2">
    <!-- {A} -->
    <g transform="translate(133.97046 202.400552) scale(0.1 -0.1)">
     <defs>
      <path id="DejaVuSans-41" d="M 2188 4044 
L 1331 1722 
L 3047 1722 
L 2188 4044 
z
M 1831 4666 
L 2547 4666 
L 4325 0 
L 3669 0 
L 3244 1197 
L 1141 1197 
L 716 0 
L 50 0 
L 1831 4666 
z
" transform="scale(0.015625)"/>
     </defs>
     <use xlink:href="#DejaVuSans-7b"/>
     <use xlink:href="#DejaVuSans-41" transform="translate(63.623047 0)"/>
     <use xlink:href="#DejaVuSans-7d" transform="translate(132.03125 0)"/>
    </g>
   </g>
   <g id="text_3">
    <!-- {AB} -->
    <g transform="translate(101.349736 110.734063) scale(0.1 -0.1)">
     <use xlink:href="#DejaVuSans-7b"/>
     <use xlink:href="#DejaVuSans-41" transform="translate(63.623047 0)"/>
     <use xlink:href="#DejaVuSans-42" transform="translate(132.03125 0)"/>
     <use xlink:href="#DejaVuSans-7d" transform="translate(200.634766 0)"/>
    </g>
   </g>
   <g id="text_4">
    <!-- {M} -->
    <g transform="translate(103.82612 19.067573) scale(0.1 -0.1)">
     <defs>
      <path id="DejaVuSans-4d" d="M 628 4666 
L 1569 4666 
L 2759 1491 
L 3956 4666 
L 4897 4666 
L 4897 0 
L 4281 0 
L 4281 4097 
L 3078 897 
L 2444 897 
L 1241 4097 
L 1241 0 
L 628 0 
L 628 4666 
z
" transform="scale(0.015625)"/>
     </defs>
     <use xlink:href="#DejaVuSans-7b"/>
     <use xlink:href="#DejaVuSans-4d" transform="translate(63.623047 0)"/>
     <use xlink:href="#DejaVuSans-7d" transform="translate(149.902344 0)"/>
    </g>
   </g>
  </g>
  <g id="axes_2">
   <g id="patch_6">
    <path d="M 255.915125 203.307837 
L 320.084875 203.307837 
L 320.084875 12.641538 
L 255.915125 12.641538 
z
" style="fill: #ffffff"/>
   </g>
   <g id="matplotlib.axis_3"/>
   <g id="matplotlib.axis_4"/>
   <g id="patch_7">
    <path d="M 259.758531 192.102078 
Q 273.012376 153.808557 285.900541 116.571576 
" clip-path="url(#pd0708b69f8)" style="fill: none; stroke: #000000; stroke-linecap: round"/>
    <path d="M 277.904797 124.386183 
L 285.900541 116.571576 
L 287.35478 127.656936 
z
" clip-path="url(#pd0708b69f8)" style="stroke: #000000; stroke-linecap: round"/>
   </g>
   <g id="patch_8">
    <path d="M 316.370931 192.057319 
Q 303.863216 153.807266 291.702991 116.619875 
" clip-path="url(#pd0708b69f8)" style="fill: none; stroke: #000000; stroke-linecap: round"/>
    <path d="M 290.058657 127.678635 
L 291.702991 116.619875 
L 299.563399 124.570597 
z
" clip-path="url(#pd0708b69f8)" style="stroke: #000000; stroke-linecap: round"/>
   </g>
   <g id="patch_9">
    <path d="M 288.783501 99.993593 
Q 288.344677 62.141326 287.918814 25.407018 
" clip-path="url(#pd0708b69f8)" style="fill: none; stroke: #000000; stroke-linecap: round"/>
    <path d="M 283.035073 35.464308 
L 287.918814 25.407018 
L 293.034401 35.348385 
z
" clip-path="url(#pd0708b69f8)" style="stroke: #000000; stroke-linecap: round"/>
   </g>
   <g id="PathCollection_2">
    <g>
     <use xlink:href="#mdbaae74c54" x="257.149159" y="199.641177" style="fill: #fec7b8; stroke: #000000"/>
     <use xlink:href="#mdbaae74c54" x="318.850841" y="199.641177" style="fill: #fec7b8; stroke: #000000"/>
     <use xlink:href="#mdbaae74c54" x="288.876027" y="107.974688" style="fill: #fec7b8; stroke: #000000"/>
     <use xlink:href="#mdbaae74c54" x="287.813331" y="16.308198" style="fill: #fec7b8; stroke: #000000"/>
    </g>
   </g>
   <g id="text_5">
    <!-- {B} -->
    <g transform="translate(247.35619 202.400552) scale(0.1 -0.1)">
     <use xlink:href="#DejaVuSans-7b"/>
     <use xlink:href="#DejaVuSans-42" transform="translate(63.623047 0)"/>
     <use xlink:href="#DejaVuSans-7d" transform="translate(132.226562 0)"/>
    </g>
   </g>
   <g id="text_6">
    <!-- {A} -->
    <g transform="translate(309.068029 202.400552) scale(0.1 -0.1)">
     <use xlink:href="#DejaVuSans-7b"/>
     <use xlink:href="#DejaVuSans-41" transform="translate(63.623047 0)"/>
     <use xlink:href="#DejaVuSans-7d" transform="translate(132.03125 0)"/>
    </g>
   </g>
   <g id="text_7">
    <!-- {AB} -->
    <g transform="translate(275.662745 110.734063) scale(0.1 -0.1)">
     <use xlink:href="#DejaVuSans-7b"/>
     <use xlink:href="#DejaVuSans-41" transform="translate(63.623047 0)"/>
     <use xlink:href="#DejaVuSans-42" transform="translate(132.03125 0)"/>
     <use xlink:href="#DejaVuSans-7d" transform="translate(200.634766 0)"/>
    </g>
   </g>
   <g id="text_8">
    <!-- {M} -->
    <g transform="translate(277.136768 19.067573) scale(0.1 -0.1)">
     <use xlink:href="#DejaVuSans-7b"/>
     <use xlink:href="#DejaVuSans-4d" transform="translate(63.623047 0)"/>
     <use xlink:href="#DejaVuSans-7d" transform="translate(149.902344 0)"/>
    </g>
   </g>
  </g>
  <g id="axes_3">
   <g id="patch_10">
    <path d="M 414.755891 203.307837 
L 510.450623 203.307837 
L 510.450623 12.641538 
L 414.755891 12.641538 
z
" style="fill: #ffffff"/>
   </g>
   <g id="matplotlib.axis_5"/>
   <g id="matplotlib.axis_6"/>
   <g id="patch_11">
    <path d="M 444.887002 102.326658 
Q 462.108035 85.058347 478.539583 68.581688 
" clip-path="url(#p4f11922668)" style="fill: none; stroke: #000000; stroke-linecap: round"/>
    <path d="M 467.937838 72.131758 
L 478.539583 68.581688 
L 475.018592 79.193127 
z
" clip-path="url(#p4f11922668)" style="stroke: #000000; stroke-linecap: round"/>
   </g>
   <g id="patch_12">
    <path d="M 457.310598 194.032311 
Q 439.792511 176.725075 423.069766 160.203607 
" clip-path="url(#p4f11922668)" style="fill: none; stroke: #000000; stroke-linecap: round"/>
    <path d="M 426.669452 170.788609 
L 423.069766 160.203607 
L 433.697579 163.67486 
z
" clip-path="url(#p4f11922668)" style="stroke: #000000; stroke-linecap: round"/>
   </g>
   <g id="patch_13">
    <path d="M 462.952773 191.660083 
Q 462.88723 176.723916 462.826593 162.905773 
" clip-path="url(#p4f11922668)" style="fill: none; stroke: #000000; stroke-linecap: round"/>
    <path d="M 457.870523 172.927617 
L 462.826593 162.905773 
L 467.870426 172.883736 
z
" clip-path="url(#p4f11922668)" style="stroke: #000000; stroke-linecap: round"/>
   </g>
   <g id="patch_14">
    <path d="M 468.61543 193.987552 
Q 485.799522 176.724098 502.194868 160.253032 
" clip-path="url(#p4f11922668)" style="fill: none; stroke: #000000; stroke-linecap: round"/>
    <path d="M 491.59644 163.812993 
L 502.194868 160.253032 
L 498.68378 170.867751 
z
" clip-path="url(#p4f11922668)" style="stroke: #000000; stroke-linecap: round"/>
   </g>
   <g id="patch_15">
    <path d="M 423.226855 149.369795 
Q 450.833381 130.891821 477.510791 113.035736 
" clip-path="url(#p4f11922668)" style="fill: none; stroke: #000000; stroke-linecap: round"/>
    <path d="M 466.419363 114.442942 
L 477.510791 113.035736 
L 471.981699 122.753202 
z
" clip-path="url(#p4f11922668)" style="stroke: #000000; stroke-linecap: round"/>
   </g>
   <g id="patch_16">
    <path d="M 504.965535 146.710829 
Q 496.841944 130.892704 489.229114 116.069126 
" clip-path="url(#p4f11922668)" style="fill: none; stroke: #000000; stroke-linecap: round"/>
    <path d="M 489.349757 127.248815 
L 489.229114 116.069126 
L 498.245251 122.680425 
z
" clip-path="url(#p4f11922668)" style="stroke: #000000; stroke-linecap: round"/>
   </g>
   <g id="patch_17">
    <path d="M 479.502453 102.259519 
Q 462.737694 85.056788 446.753245 68.654753 
" clip-path="url(#p4f11922668)" style="fill: none; stroke: #000000; stroke-linecap: round"/>
    <path d="M 450.151737 79.306056 
L 446.753245 68.654753 
L 457.313383 72.326742 
z
" clip-path="url(#p4f11922668)" style="stroke: #000000; stroke-linecap: round"/>
   </g>
   <g id="patch_18">
    <path d="M 485.052976 99.993593 
Q 485.017155 85.057427 484.984015 71.239291 
" clip-path="url(#p4f11922668)" style="fill: none; stroke: #000000; stroke-linecap: round"/>
    <path d="M 480.008012 81.251253 
L 484.984015 71.239291 
L 490.007983 81.227271 
z
" clip-path="url(#p4f11922668)" style="stroke: #000000; stroke-linecap: round"/>
   </g>
   <g id="patch_19">
    <path d="M 481.409689 54.99958 
Q 473.563446 39.22571 466.215136 24.452871 
" clip-path="url(#p4f11922668)" style="fill: none; stroke: #000000; stroke-linecap: round"/>
    <path d="M 466.192038 35.633187 
L 466.215136 24.452871 
L 475.14553 31.179538 
z
" clip-path="url(#p4f11922668)" style="stroke: #000000; stroke-linecap: round"/>
   </g>
   <g id="PathCollection_3">
    <g>
     <use xlink:href="#mdbaae74c54" x="439.254436" y="107.974688" style="fill: #fec7b8; stroke: #000000"/>
     <use xlink:href="#mdbaae74c54" x="485.072116" y="107.974688" style="fill: #fec7b8; stroke: #000000"/>
     <use xlink:href="#mdbaae74c54" x="462.987796" y="199.641177" style="fill: #fec7b8; stroke: #000000"/>
     <use xlink:href="#mdbaae74c54" x="416.596174" y="153.807932" style="fill: #fec7b8; stroke: #000000"/>
     <use xlink:href="#mdbaae74c54" x="462.78667" y="153.807932" style="fill: #fec7b8; stroke: #000000"/>
     <use xlink:href="#mdbaae74c54" x="508.61034" y="153.807932" style="fill: #fec7b8; stroke: #000000"/>
     <use xlink:href="#mdbaae74c54" x="440.40576" y="62.141443" style="fill: #fec7b8; stroke: #000000"/>
     <use xlink:href="#mdbaae74c54" x="484.962196" y="62.141443" style="fill: #fec7b8; stroke: #000000"/>
     <use xlink:href="#mdbaae74c54" x="462.16381" y="16.308198" style="fill: #fec7b8; stroke: #000000"/>
    </g>
   </g>
   <g id="text_9">
    <!-- {A} -->
    <g transform="translate(429.471623 110.734063) scale(0.1 -0.1)">
     <use xlink:href="#DejaVuSans-7b"/>
     <use xlink:href="#DejaVuSans-41" transform="translate(63.623047 0)"/>
     <use xlink:href="#DejaVuSans-7d" transform="translate(132.03125 0)"/>
    </g>
   </g>
   <g id="text_10">
    <!-- {B1_inter_B2} -->
    <g transform="translate(426.751858 202.261489) scale(0.1 -0.1)">
     <defs>
      <path id="DejaVuSans-31" d="M 794 531 
L 1825 531 
L 1825 4091 
L 703 3866 
L 703 4441 
L 1819 4666 
L 2450 4666 
L 2450 531 
L 3481 531 
L 3481 0 
L 794 0 
L 794 531 
z
" transform="scale(0.015625)"/>
      <path id="DejaVuSans-5f" d="M 3263 -1063 
L 3263 -1509 
L -63 -1509 
L -63 -1063 
L 3263 -1063 
z
" transform="scale(0.015625)"/>
      <path id="DejaVuSans-69" d="M 603 3500 
L 1178 3500 
L 1178 0 
L 603 0 
L 603 3500 
z
M 603 4863 
L 1178 4863 
L 1178 4134 
L 603 4134 
L 603 4863 
z
" transform="scale(0.015625)"/>
      <path id="DejaVuSans-6e" d="M 3513 2113 
L 3513 0 
L 2938 0 
L 2938 2094 
Q 2938 2591 2744 2837 
Q 2550 3084 2163 3084 
Q 1697 3084 1428 2787 
Q 1159 2491 1159 1978 
L 1159 0 
L 581 0 
L 581 3500 
L 1159 3500 
L 1159 2956 
Q 1366 3272 1645 3428 
Q 1925 3584 2291 3584 
Q 2894 3584 3203 3211 
Q 3513 2838 3513 2113 
z
" transform="scale(0.015625)"/>
      <path id="DejaVuSans-74" d="M 1172 4494 
L 1172 3500 
L 2356 3500 
L 2356 3053 
L 1172 3053 
L 1172 1153 
Q 1172 725 1289 603 
Q 1406 481 1766 481 
L 2356 481 
L 2356 0 
L 1766 0 
Q 1100 0 847 248 
Q 594 497 594 1153 
L 594 3053 
L 172 3053 
L 172 3500 
L 594 3500 
L 594 4494 
L 1172 4494 
z
" transform="scale(0.015625)"/>
      <path id="DejaVuSans-65" d="M 3597 1894 
L 3597 1613 
L 953 1613 
Q 991 1019 1311 708 
Q 1631 397 2203 397 
Q 2534 397 2845 478 
Q 3156 559 3463 722 
L 3463 178 
Q 3153 47 2828 -22 
Q 2503 -91 2169 -91 
Q 1331 -91 842 396 
Q 353 884 353 1716 
Q 353 2575 817 3079 
Q 1281 3584 2069 3584 
Q 2775 3584 3186 3129 
Q 3597 2675 3597 1894 
z
M 3022 2063 
Q 3016 2534 2758 2815 
Q 2500 3097 2075 3097 
Q 1594 3097 1305 2825 
Q 1016 2553 972 2059 
L 3022 2063 
z
" transform="scale(0.015625)"/>
      <path id="DejaVuSans-72" d="M 2631 2963 
Q 2534 3019 2420 3045 
Q 2306 3072 2169 3072 
Q 1681 3072 1420 2755 
Q 1159 2438 1159 1844 
L 1159 0 
L 581 0 
L 581 3500 
L 1159 3500 
L 1159 2956 
Q 1341 3275 1631 3429 
Q 1922 3584 2338 3584 
Q 2397 3584 2469 3576 
Q 2541 3569 2628 3553 
L 2631 2963 
z
" transform="scale(0.015625)"/>
      <path id="DejaVuSans-32" d="M 1228 531 
L 3431 531 
L 3431 0 
L 469 0 
L 469 531 
Q 828 903 1448 1529 
Q 2069 2156 2228 2338 
Q 2531 2678 2651 2914 
Q 2772 3150 2772 3378 
Q 2772 3750 2511 3984 
Q 2250 4219 1831 4219 
Q 1534 4219 1204 4116 
Q 875 4013 500 3803 
L 500 4441 
Q 881 4594 1212 4672 
Q 1544 4750 1819 4750 
Q 2544 4750 2975 4387 
Q 3406 4025 3406 3419 
Q 3406 3131 3298 2873 
Q 3191 2616 2906 2266 
Q 2828 2175 2409 1742 
Q 1991 1309 1228 531 
z
" transform="scale(0.015625)"/>
     </defs>
     <use xlink:href="#DejaVuSans-7b"/>
     <use xlink:href="#DejaVuSans-42" transform="translate(63.623047 0)"/>
     <use xlink:href="#DejaVuSans-31" transform="translate(132.226562 0)"/>
     <use xlink:href="#DejaVuSans-5f" transform="translate(195.849609 0)"/>
     <use xlink:href="#DejaVuSans-69" transform="translate(245.849609 0)"/>
     <use xlink:href="#DejaVuSans-6e" transform="translate(273.632812 0)"/>
     <use xlink:href="#DejaVuSans-74" transform="translate(337.011719 0)"/>
     <use xlink:href="#DejaVuSans-65" transform="translate(376.220703 0)"/>
     <use xlink:href="#DejaVuSans-72" transform="translate(437.744141 0)"/>
     <use xlink:href="#DejaVuSans-5f" transform="translate(478.857422 0)"/>
     <use xlink:href="#DejaVuSans-42" transform="translate(528.857422 0)"/>
     <use xlink:href="#DejaVuSans-32" transform="translate(597.460938 0)"/>
     <use xlink:href="#DejaVuSans-7d" transform="translate(661.083984 0)"/>
    </g>
   </g>
   <g id="text_11">
    <!-- {B2} -->
    <g transform="translate(403.621955 156.567307) scale(0.1 -0.1)">
     <use xlink:href="#DejaVuSans-7b"/>
     <use xlink:href="#DejaVuSans-42" transform="translate(63.623047 0)"/>
     <use xlink:href="#DejaVuSans-32" transform="translate(132.226562 0)"/>
     <use xlink:href="#DejaVuSans-7d" transform="translate(195.849609 0)"/>
    </g>
   </g>
   <g id="text_12">
    <!-- [] -->
    <g transform="translate(458.885107 156.567307) scale(0.1 -0.1)">
     <defs>
      <path id="DejaVuSans-5b" d="M 550 4863 
L 1875 4863 
L 1875 4416 
L 1125 4416 
L 1125 -397 
L 1875 -397 
L 1875 -844 
L 550 -844 
L 550 4863 
z
" transform="scale(0.015625)"/>
      <path id="DejaVuSans-5d" d="M 1947 4863 
L 1947 -844 
L 622 -844 
L 622 -397 
L 1369 -397 
L 1369 4416 
L 622 4416 
L 622 4863 
L 1947 4863 
z
" transform="scale(0.015625)"/>
     </defs>
     <use xlink:href="#DejaVuSans-5b"/>
     <use xlink:href="#DejaVuSans-5d" transform="translate(39.013672 0)"/>
    </g>
   </g>
   <g id="text_13">
    <!-- {B1} -->
    <g transform="translate(495.636121 156.567307) scale(0.1 -0.1)">
     <use xlink:href="#DejaVuSans-7b"/>
     <use xlink:href="#DejaVuSans-42" transform="translate(63.623047 0)"/>
     <use xlink:href="#DejaVuSans-31" transform="translate(132.226562 0)"/>
     <use xlink:href="#DejaVuSans-7d" transform="translate(195.849609 0)"/>
    </g>
   </g>
   <g id="text_14">
    <!-- {B} -->
    <g transform="translate(475.279148 110.734063) scale(0.1 -0.1)">
     <use xlink:href="#DejaVuSans-7b"/>
     <use xlink:href="#DejaVuSans-42" transform="translate(63.623047 0)"/>
     <use xlink:href="#DejaVuSans-7d" transform="translate(132.226562 0)"/>
    </g>
   </g>
   <g id="text_15">
    <!-- [{B1}, {B2}] -->
    <g transform="translate(407.377635 64.900818) scale(0.1 -0.1)">
     <defs>
      <path id="DejaVuSans-2c" d="M 750 794 
L 1409 794 
L 1409 256 
L 897 -744 
L 494 -744 
L 750 256 
L 750 794 
z
" transform="scale(0.015625)"/>
      <path id="DejaVuSans-20" transform="scale(0.015625)"/>
     </defs>
     <use xlink:href="#DejaVuSans-5b"/>
     <use xlink:href="#DejaVuSans-7b" transform="translate(39.013672 0)"/>
     <use xlink:href="#DejaVuSans-42" transform="translate(102.636719 0)"/>
     <use xlink:href="#DejaVuSans-31" transform="translate(171.240234 0)"/>
     <use xlink:href="#DejaVuSans-7d" transform="translate(234.863281 0)"/>
     <use xlink:href="#DejaVuSans-2c" transform="translate(298.486328 0)"/>
     <use xlink:href="#DejaVuSans-20" transform="translate(330.273438 0)"/>
     <use xlink:href="#DejaVuSans-7b" transform="translate(362.060547 0)"/>
     <use xlink:href="#DejaVuSans-42" transform="translate(425.683594 0)"/>
     <use xlink:href="#DejaVuSans-32" transform="translate(494.287109 0)"/>
     <use xlink:href="#DejaVuSans-7d" transform="translate(557.910156 0)"/>
     <use xlink:href="#DejaVuSans-5d" transform="translate(621.533203 0)"/>
    </g>
   </g>
   <g id="text_16">
    <!-- {AB} -->
    <g transform="translate(471.748915 64.900818) scale(0.1 -0.1)">
     <use xlink:href="#DejaVuSans-7b"/>
     <use xlink:href="#DejaVuSans-41" transform="translate(63.623047 0)"/>
     <use xlink:href="#DejaVuSans-42" transform="translate(132.03125 0)"/>
     <use xlink:href="#DejaVuSans-7d" transform="translate(200.634766 0)"/>
    </g>
   </g>
   <g id="text_17">
    <!-- {M} -->
    <g transform="translate(451.487248 19.067573) scale(0.1 -0.1)">
     <use xlink:href="#DejaVuSans-7b"/>
     <use xlink:href="#DejaVuSans-4d" transform="translate(63.623047 0)"/>
     <use xlink:href="#DejaVuSans-7d" transform="translate(149.902344 0)"/>
    </g>
   </g>
  </g>
 </g>
 <defs>
  <clipPath id="pb41db38ef9">
   <rect x="81.825953" y="12.641538" width="63.141581" height="190.666298"/>
  </clipPath>
  <clipPath id="pd0708b69f8">
   <rect x="255.915125" y="12.641538" width="64.16975" height="190.666298"/>
  </clipPath>
  <clipPath id="p4f11922668">
   <rect x="414.755891" y="12.641538" width="95.694732" height="190.666298"/>
  </clipPath>
 </defs>
</svg>
