<?xml version="1.0" encoding="utf-8" standalone="no"?>
<!DOCTYPE svg PUBLIC "-//W3C//DTD SVG 1.1//EN"
  "http://www.w3.org/Graphics/SVG/1.1/DTD/svg11.dtd">
<svg xmlns:xlink="http://www.w3.org/1999/xlink" width="460.8pt" height="345.6pt" viewBox="0 0 460.8 345.6" xmlns="http://www.w3.org/2000/svg" version="1.1">
 <metadata>
  <rdf:RDF xmlns:dc="http://purl.org/dc/elements/1.1/" xmlns:cc="http://creativecommons.org/ns#" xmlns:rdf="http://www.w3.org/1999/02/22-rdf-syntax-ns#">
   <cc:Work>
    <dc:type rdf:resource="http://purl.org/dc/dcmitype/StillImage"/>
    <dc:date>2025-08-04T21:04:47.245473</dc:date>
    <dc:format>image/svg+xml</dc:format>
    <dc:creator>
     <cc:Agent>
      <dc:title>Matplotlib v3.10.3, https://matplotlib.org/</dc:title>
     </cc:Agent>
    </dc:creator>
   </cc:Work>
  </rdf:RDF>
 </metadata>
 <defs>
  <style type="text/css">*{stroke-linejoin: round; stroke-linecap: butt}</style>
 </defs>
 <g id="figure_1">
  <g id="patch_1">
   <path d="M 0 345.6 
L 460.8 345.6 
L 460.8 0 
L 0 0 
z
" style="fill: #ffffff"/>
  </g>
  <g id="axes_1">
   <g id="patch_2">
    <path d="M 23.323698 345.6 
L 460.8 345.6 
L 460.8 0 
L 23.323698 0 
z
" style="fill: #ffffff"/>
   </g>
   <g id="matplotlib.axis_1">
    <g id="xtick_1">
     <g id="line2d_1">
      <defs>
       <path id="m62e33e4abc" d="M 0 0 
L 0 3.5 
" style="stroke: #000000; stroke-width: 0.8"/>
      </defs>
      <g>
       <use xlink:href="#m62e33e4abc" x="31.736704" y="219.406352" style="stroke: #000000; stroke-width: 0.8"/>
      </g>
     </g>
    </g>
    <g id="xtick_2">
     <g id="line2d_2">
      <g>
       <use xlink:href="#m62e33e4abc" x="98.685277" y="219.406352" style="stroke: #000000; stroke-width: 0.8"/>
      </g>
     </g>
     <g id="text_1">
      <!-- 0.5 -->
      <g transform="translate(90.733715 234.004789) scale(0.1 -0.1)">
       <defs>
        <path id="DejaVuSans-30" d="M 2034 4250 
Q 1547 4250 1301 3770 
Q 1056 3291 1056 2328 
Q 1056 1369 1301 889 
Q 1547 409 2034 409 
Q 2525 409 2770 889 
Q 3016 1369 3016 2328 
Q 3016 3291 2770 3770 
Q 2525 4250 2034 4250 
z
M 2034 4750 
Q 2819 4750 3233 4129 
Q 3647 3509 3647 2328 
Q 3647 1150 3233 529 
Q 2819 -91 2034 -91 
Q 1250 -91 836 529 
Q 422 1150 422 2328 
Q 422 3509 836 4129 
Q 1250 4750 2034 4750 
z
" transform="scale(0.015625)"/>
        <path id="DejaVuSans-2e" d="M 684 794 
L 1344 794 
L 1344 0 
L 684 0 
L 684 794 
z
" transform="scale(0.015625)"/>
        <path id="DejaVuSans-35" d="M 691 4666 
L 3169 4666 
L 3169 4134 
L 1269 4134 
L 1269 2991 
Q 1406 3038 1543 3061 
Q 1681 3084 1819 3084 
Q 2600 3084 3056 2656 
Q 3513 2228 3513 1497 
Q 3513 744 3044 326 
Q 2575 -91 1722 -91 
Q 1428 -91 1123 -41 
Q 819 9 494 109 
L 494 744 
Q 775 591 1075 516 
Q 1375 441 1709 441 
Q 2250 441 2565 725 
Q 2881 1009 2881 1497 
Q 2881 1984 2565 2268 
Q 2250 2553 1709 2553 
Q 1456 2553 1204 2497 
Q 953 2441 691 2322 
L 691 4666 
z
" transform="scale(0.015625)"/>
       </defs>
       <use xlink:href="#DejaVuSans-30"/>
       <use xlink:href="#DejaVuSans-2e" transform="translate(63.623047 0)"/>
       <use xlink:href="#DejaVuSans-35" transform="translate(95.410156 0)"/>
      </g>
     </g>
    </g>
    <g id="xtick_3">
     <g id="line2d_3">
      <g>
       <use xlink:href="#m62e33e4abc" x="165.63385" y="219.406352" style="stroke: #000000; stroke-width: 0.8"/>
      </g>
     </g>
     <g id="text_2">
      <!-- 1.0 -->
      <g transform="translate(157.682288 234.004789) scale(0.1 -0.1)">
       <defs>
        <path id="DejaVuSans-31" d="M 794 531 
L 1825 531 
L 1825 4091 
L 703 3866 
L 703 4441 
L 1819 4666 
L 2450 4666 
L 2450 531 
L 3481 531 
L 3481 0 
L 794 0 
L 794 531 
z
" transform="scale(0.015625)"/>
       </defs>
       <use xlink:href="#DejaVuSans-31"/>
       <use xlink:href="#DejaVuSans-2e" transform="translate(63.623047 0)"/>
       <use xlink:href="#DejaVuSans-30" transform="translate(95.410156 0)"/>
      </g>
     </g>
    </g>
    <g id="xtick_4">
     <g id="line2d_4">
      <g>
       <use xlink:href="#m62e33e4abc" x="232.582423" y="219.406352" style="stroke: #000000; stroke-width: 0.8"/>
      </g>
     </g>
     <g id="text_3">
      <!-- 1.5 -->
      <g transform="translate(224.630861 234.004789) scale(0.1 -0.1)">
       <use xlink:href="#DejaVuSans-31"/>
       <use xlink:href="#DejaVuSans-2e" transform="translate(63.623047 0)"/>
       <use xlink:href="#DejaVuSans-35" transform="translate(95.410156 0)"/>
      </g>
     </g>
    </g>
    <g id="xtick_5">
     <g id="line2d_5">
      <g>
       <use xlink:href="#m62e33e4abc" x="299.530996" y="219.406352" style="stroke: #000000; stroke-width: 0.8"/>
      </g>
     </g>
     <g id="text_4">
      <!-- 2.0 -->
      <g transform="translate(291.579434 234.004789) scale(0.1 -0.1)">
       <defs>
        <path id="DejaVuSans-32" d="M 1228 531 
L 3431 531 
L 3431 0 
L 469 0 
L 469 531 
Q 828 903 1448 1529 
Q 2069 2156 2228 2338 
Q 2531 2678 2651 2914 
Q 2772 3150 2772 3378 
Q 2772 3750 2511 3984 
Q 2250 4219 1831 4219 
Q 1534 4219 1204 4116 
Q 875 4013 500 3803 
L 500 4441 
Q 881 4594 1212 4672 
Q 1544 4750 1819 4750 
Q 2544 4750 2975 4387 
Q 3406 4025 3406 3419 
Q 3406 3131 3298 2873 
Q 3191 2616 2906 2266 
Q 2828 2175 2409 1742 
Q 1991 1309 1228 531 
z
" transform="scale(0.015625)"/>
       </defs>
       <use xlink:href="#DejaVuSans-32"/>
       <use xlink:href="#DejaVuSans-2e" transform="translate(63.623047 0)"/>
       <use xlink:href="#DejaVuSans-30" transform="translate(95.410156 0)"/>
      </g>
     </g>
    </g>
    <g id="xtick_6">
     <g id="line2d_6">
      <g>
       <use xlink:href="#m62e33e4abc" x="366.479569" y="219.406352" style="stroke: #000000; stroke-width: 0.8"/>
      </g>
     </g>
     <g id="text_5">
      <!-- 2.5 -->
      <g transform="translate(358.528006 234.004789) scale(0.1 -0.1)">
       <use xlink:href="#DejaVuSans-32"/>
       <use xlink:href="#DejaVuSans-2e" transform="translate(63.623047 0)"/>
       <use xlink:href="#DejaVuSans-35" transform="translate(95.410156 0)"/>
      </g>
     </g>
    </g>
    <g id="xtick_7">
     <g id="line2d_7">
      <g>
       <use xlink:href="#m62e33e4abc" x="433.428142" y="219.406352" style="stroke: #000000; stroke-width: 0.8"/>
      </g>
     </g>
     <g id="text_6">
      <!-- 3.0 -->
      <g transform="translate(425.476579 234.004789) scale(0.1 -0.1)">
       <defs>
        <path id="DejaVuSans-33" d="M 2597 2516 
Q 3050 2419 3304 2112 
Q 3559 1806 3559 1356 
Q 3559 666 3084 287 
Q 2609 -91 1734 -91 
Q 1441 -91 1130 -33 
Q 819 25 488 141 
L 488 750 
Q 750 597 1062 519 
Q 1375 441 1716 441 
Q 2309 441 2620 675 
Q 2931 909 2931 1356 
Q 2931 1769 2642 2001 
Q 2353 2234 1838 2234 
L 1294 2234 
L 1294 2753 
L 1863 2753 
Q 2328 2753 2575 2939 
Q 2822 3125 2822 3475 
Q 2822 3834 2567 4026 
Q 2313 4219 1838 4219 
Q 1578 4219 1281 4162 
Q 984 4106 628 3988 
L 628 4550 
Q 988 4650 1302 4700 
Q 1616 4750 1894 4750 
Q 2613 4750 3031 4423 
Q 3450 4097 3450 3541 
Q 3450 3153 3228 2886 
Q 3006 2619 2597 2516 
z
" transform="scale(0.015625)"/>
       </defs>
       <use xlink:href="#DejaVuSans-33"/>
       <use xlink:href="#DejaVuSans-2e" transform="translate(63.623047 0)"/>
       <use xlink:href="#DejaVuSans-30" transform="translate(95.410156 0)"/>
      </g>
     </g>
    </g>
    <g id="xtick_8">
     <g id="line2d_8">
      <defs>
       <path id="mb8d6f1dc46" d="M 0 0 
L 0 2 
" style="stroke: #000000; stroke-width: 0.6"/>
      </defs>
      <g>
       <use xlink:href="#mb8d6f1dc46" x="45.126419" y="219.406352" style="stroke: #000000; stroke-width: 0.6"/>
      </g>
     </g>
    </g>
    <g id="xtick_9">
     <g id="line2d_9">
      <g>
       <use xlink:href="#mb8d6f1dc46" x="58.516133" y="219.406352" style="stroke: #000000; stroke-width: 0.6"/>
      </g>
     </g>
    </g>
    <g id="xtick_10">
     <g id="line2d_10">
      <g>
       <use xlink:href="#mb8d6f1dc46" x="71.905848" y="219.406352" style="stroke: #000000; stroke-width: 0.6"/>
      </g>
     </g>
    </g>
    <g id="xtick_11">
     <g id="line2d_11">
      <g>
       <use xlink:href="#mb8d6f1dc46" x="85.295562" y="219.406352" style="stroke: #000000; stroke-width: 0.6"/>
      </g>
     </g>
    </g>
    <g id="xtick_12">
     <g id="line2d_12">
      <g>
       <use xlink:href="#mb8d6f1dc46" x="112.074992" y="219.406352" style="stroke: #000000; stroke-width: 0.6"/>
      </g>
     </g>
    </g>
    <g id="xtick_13">
     <g id="line2d_13">
      <g>
       <use xlink:href="#mb8d6f1dc46" x="125.464706" y="219.406352" style="stroke: #000000; stroke-width: 0.6"/>
      </g>
     </g>
    </g>
    <g id="xtick_14">
     <g id="line2d_14">
      <g>
       <use xlink:href="#mb8d6f1dc46" x="138.854421" y="219.406352" style="stroke: #000000; stroke-width: 0.6"/>
      </g>
     </g>
    </g>
    <g id="xtick_15">
     <g id="line2d_15">
      <g>
       <use xlink:href="#mb8d6f1dc46" x="152.244135" y="219.406352" style="stroke: #000000; stroke-width: 0.6"/>
      </g>
     </g>
    </g>
    <g id="xtick_16">
     <g id="line2d_16">
      <g>
       <use xlink:href="#mb8d6f1dc46" x="179.023565" y="219.406352" style="stroke: #000000; stroke-width: 0.6"/>
      </g>
     </g>
    </g>
    <g id="xtick_17">
     <g id="line2d_17">
      <g>
       <use xlink:href="#mb8d6f1dc46" x="192.413279" y="219.406352" style="stroke: #000000; stroke-width: 0.6"/>
      </g>
     </g>
    </g>
    <g id="xtick_18">
     <g id="line2d_18">
      <g>
       <use xlink:href="#mb8d6f1dc46" x="205.802994" y="219.406352" style="stroke: #000000; stroke-width: 0.6"/>
      </g>
     </g>
    </g>
    <g id="xtick_19">
     <g id="line2d_19">
      <g>
       <use xlink:href="#mb8d6f1dc46" x="219.192708" y="219.406352" style="stroke: #000000; stroke-width: 0.6"/>
      </g>
     </g>
    </g>
    <g id="xtick_20">
     <g id="line2d_20">
      <g>
       <use xlink:href="#mb8d6f1dc46" x="245.972138" y="219.406352" style="stroke: #000000; stroke-width: 0.6"/>
      </g>
     </g>
    </g>
    <g id="xtick_21">
     <g id="line2d_21">
      <g>
       <use xlink:href="#mb8d6f1dc46" x="259.361852" y="219.406352" style="stroke: #000000; stroke-width: 0.6"/>
      </g>
     </g>
    </g>
    <g id="xtick_22">
     <g id="line2d_22">
      <g>
       <use xlink:href="#mb8d6f1dc46" x="272.751567" y="219.406352" style="stroke: #000000; stroke-width: 0.6"/>
      </g>
     </g>
    </g>
    <g id="xtick_23">
     <g id="line2d_23">
      <g>
       <use xlink:href="#mb8d6f1dc46" x="286.141281" y="219.406352" style="stroke: #000000; stroke-width: 0.6"/>
      </g>
     </g>
    </g>
    <g id="xtick_24">
     <g id="line2d_24">
      <g>
       <use xlink:href="#mb8d6f1dc46" x="312.920711" y="219.406352" style="stroke: #000000; stroke-width: 0.6"/>
      </g>
     </g>
    </g>
    <g id="xtick_25">
     <g id="line2d_25">
      <g>
       <use xlink:href="#mb8d6f1dc46" x="326.310425" y="219.406352" style="stroke: #000000; stroke-width: 0.6"/>
      </g>
     </g>
    </g>
    <g id="xtick_26">
     <g id="line2d_26">
      <g>
       <use xlink:href="#mb8d6f1dc46" x="339.70014" y="219.406352" style="stroke: #000000; stroke-width: 0.6"/>
      </g>
     </g>
    </g>
    <g id="xtick_27">
     <g id="line2d_27">
      <g>
       <use xlink:href="#mb8d6f1dc46" x="353.089854" y="219.406352" style="stroke: #000000; stroke-width: 0.6"/>
      </g>
     </g>
    </g>
    <g id="xtick_28">
     <g id="line2d_28">
      <g>
       <use xlink:href="#mb8d6f1dc46" x="379.869284" y="219.406352" style="stroke: #000000; stroke-width: 0.6"/>
      </g>
     </g>
    </g>
    <g id="xtick_29">
     <g id="line2d_29">
      <g>
       <use xlink:href="#mb8d6f1dc46" x="393.258998" y="219.406352" style="stroke: #000000; stroke-width: 0.6"/>
      </g>
     </g>
    </g>
    <g id="xtick_30">
     <g id="line2d_30">
      <g>
       <use xlink:href="#mb8d6f1dc46" x="406.648713" y="219.406352" style="stroke: #000000; stroke-width: 0.6"/>
      </g>
     </g>
    </g>
    <g id="xtick_31">
     <g id="line2d_31">
      <g>
       <use xlink:href="#mb8d6f1dc46" x="420.038427" y="219.406352" style="stroke: #000000; stroke-width: 0.6"/>
      </g>
     </g>
    </g>
    <g id="xtick_32">
     <g id="line2d_32">
      <g>
       <use xlink:href="#mb8d6f1dc46" x="446.817857" y="219.406352" style="stroke: #000000; stroke-width: 0.6"/>
      </g>
     </g>
    </g>
    <g id="xtick_33">
     <g id="line2d_33">
      <g>
       <use xlink:href="#mb8d6f1dc46" x="460.207571" y="219.406352" style="stroke: #000000; stroke-width: 0.6"/>
      </g>
     </g>
    </g>
   </g>
   <g id="matplotlib.axis_2">
    <g id="ytick_1">
     <g id="line2d_34">
      <defs>
       <path id="mf53f4b6e73" d="M 0 0 
L -3.5 0 
" style="stroke: #000000; stroke-width: 0.8"/>
      </defs>
      <g>
       <use xlink:href="#mf53f4b6e73" x="31.736704" y="312.619605" style="stroke: #000000; stroke-width: 0.8"/>
      </g>
     </g>
     <g id="text_7">
      <!-- −1.0 -->
      <g transform="translate(0.453892 316.418823) scale(0.1 -0.1)">
       <defs>
        <path id="DejaVuSans-2212" d="M 678 2272 
L 4684 2272 
L 4684 1741 
L 678 1741 
L 678 2272 
z
" transform="scale(0.015625)"/>
       </defs>
       <use xlink:href="#DejaVuSans-2212"/>
       <use xlink:href="#DejaVuSans-31" transform="translate(83.789062 0)"/>
       <use xlink:href="#DejaVuSans-2e" transform="translate(147.412109 0)"/>
       <use xlink:href="#DejaVuSans-30" transform="translate(179.199219 0)"/>
      </g>
     </g>
    </g>
    <g id="ytick_2">
     <g id="line2d_35">
      <g>
       <use xlink:href="#mf53f4b6e73" x="31.736704" y="266.012978" style="stroke: #000000; stroke-width: 0.8"/>
      </g>
     </g>
     <g id="text_8">
      <!-- −0.5 -->
      <g transform="translate(0.453892 269.812197) scale(0.1 -0.1)">
       <use xlink:href="#DejaVuSans-2212"/>
       <use xlink:href="#DejaVuSans-30" transform="translate(83.789062 0)"/>
       <use xlink:href="#DejaVuSans-2e" transform="translate(147.412109 0)"/>
       <use xlink:href="#DejaVuSans-35" transform="translate(179.199219 0)"/>
      </g>
     </g>
    </g>
    <g id="ytick_3">
     <g id="line2d_36">
      <g>
       <use xlink:href="#mf53f4b6e73" x="31.736704" y="219.406352" style="stroke: #000000; stroke-width: 0.8"/>
      </g>
     </g>
    </g>
    <g id="ytick_4">
     <g id="line2d_37">
      <g>
       <use xlink:href="#mf53f4b6e73" x="31.736704" y="172.799725" style="stroke: #000000; stroke-width: 0.8"/>
      </g>
     </g>
     <g id="text_9">
      <!-- 0.5 -->
      <g transform="translate(8.833579 176.598944) scale(0.1 -0.1)">
       <use xlink:href="#DejaVuSans-30"/>
       <use xlink:href="#DejaVuSans-2e" transform="translate(63.623047 0)"/>
       <use xlink:href="#DejaVuSans-35" transform="translate(95.410156 0)"/>
      </g>
     </g>
    </g>
    <g id="ytick_5">
     <g id="line2d_38">
      <g>
       <use xlink:href="#mf53f4b6e73" x="31.736704" y="126.193099" style="stroke: #000000; stroke-width: 0.8"/>
      </g>
     </g>
     <g id="text_10">
      <!-- 1.0 -->
      <g transform="translate(8.833579 129.992318) scale(0.1 -0.1)">
       <use xlink:href="#DejaVuSans-31"/>
       <use xlink:href="#DejaVuSans-2e" transform="translate(63.623047 0)"/>
       <use xlink:href="#DejaVuSans-30" transform="translate(95.410156 0)"/>
      </g>
     </g>
    </g>
    <g id="ytick_6">
     <g id="line2d_39">
      <g>
       <use xlink:href="#mf53f4b6e73" x="31.736704" y="79.586472" style="stroke: #000000; stroke-width: 0.8"/>
      </g>
     </g>
     <g id="text_11">
      <!-- 1.5 -->
      <g transform="translate(8.833579 83.385691) scale(0.1 -0.1)">
       <use xlink:href="#DejaVuSans-31"/>
       <use xlink:href="#DejaVuSans-2e" transform="translate(63.623047 0)"/>
       <use xlink:href="#DejaVuSans-35" transform="translate(95.410156 0)"/>
      </g>
     </g>
    </g>
    <g id="ytick_7">
     <g id="line2d_40">
      <g>
       <use xlink:href="#mf53f4b6e73" x="31.736704" y="32.979846" style="stroke: #000000; stroke-width: 0.8"/>
      </g>
     </g>
     <g id="text_12">
      <!-- 2.0 -->
      <g transform="translate(8.833579 36.779065) scale(0.1 -0.1)">
       <use xlink:href="#DejaVuSans-32"/>
       <use xlink:href="#DejaVuSans-2e" transform="translate(63.623047 0)"/>
       <use xlink:href="#DejaVuSans-30" transform="translate(95.410156 0)"/>
      </g>
     </g>
    </g>
    <g id="ytick_8">
     <g id="line2d_41">
      <defs>
       <path id="m7ebd975550" d="M 0 0 
L -2 0 
" style="stroke: #000000; stroke-width: 0.6"/>
      </defs>
      <g>
       <use xlink:href="#m7ebd975550" x="31.736704" y="340.583581" style="stroke: #000000; stroke-width: 0.6"/>
      </g>
     </g>
    </g>
    <g id="ytick_9">
     <g id="line2d_42">
      <g>
       <use xlink:href="#m7ebd975550" x="31.736704" y="331.262255" style="stroke: #000000; stroke-width: 0.6"/>
      </g>
     </g>
    </g>
    <g id="ytick_10">
     <g id="line2d_43">
      <g>
       <use xlink:href="#m7ebd975550" x="31.736704" y="321.94093" style="stroke: #000000; stroke-width: 0.6"/>
      </g>
     </g>
    </g>
    <g id="ytick_11">
     <g id="line2d_44">
      <g>
       <use xlink:href="#m7ebd975550" x="31.736704" y="303.298279" style="stroke: #000000; stroke-width: 0.6"/>
      </g>
     </g>
    </g>
    <g id="ytick_12">
     <g id="line2d_45">
      <g>
       <use xlink:href="#m7ebd975550" x="31.736704" y="293.976954" style="stroke: #000000; stroke-width: 0.6"/>
      </g>
     </g>
    </g>
    <g id="ytick_13">
     <g id="line2d_46">
      <g>
       <use xlink:href="#m7ebd975550" x="31.736704" y="284.655629" style="stroke: #000000; stroke-width: 0.6"/>
      </g>
     </g>
    </g>
    <g id="ytick_14">
     <g id="line2d_47">
      <g>
       <use xlink:href="#m7ebd975550" x="31.736704" y="275.334303" style="stroke: #000000; stroke-width: 0.6"/>
      </g>
     </g>
    </g>
    <g id="ytick_15">
     <g id="line2d_48">
      <g>
       <use xlink:href="#m7ebd975550" x="31.736704" y="256.691653" style="stroke: #000000; stroke-width: 0.6"/>
      </g>
     </g>
    </g>
    <g id="ytick_16">
     <g id="line2d_49">
      <g>
       <use xlink:href="#m7ebd975550" x="31.736704" y="247.370328" style="stroke: #000000; stroke-width: 0.6"/>
      </g>
     </g>
    </g>
    <g id="ytick_17">
     <g id="line2d_50">
      <g>
       <use xlink:href="#m7ebd975550" x="31.736704" y="238.049002" style="stroke: #000000; stroke-width: 0.6"/>
      </g>
     </g>
    </g>
    <g id="ytick_18">
     <g id="line2d_51">
      <g>
       <use xlink:href="#m7ebd975550" x="31.736704" y="228.727677" style="stroke: #000000; stroke-width: 0.6"/>
      </g>
     </g>
    </g>
    <g id="ytick_19">
     <g id="line2d_52">
      <g>
       <use xlink:href="#m7ebd975550" x="31.736704" y="210.085026" style="stroke: #000000; stroke-width: 0.6"/>
      </g>
     </g>
    </g>
    <g id="ytick_20">
     <g id="line2d_53">
      <g>
       <use xlink:href="#m7ebd975550" x="31.736704" y="200.763701" style="stroke: #000000; stroke-width: 0.6"/>
      </g>
     </g>
    </g>
    <g id="ytick_21">
     <g id="line2d_54">
      <g>
       <use xlink:href="#m7ebd975550" x="31.736704" y="191.442376" style="stroke: #000000; stroke-width: 0.6"/>
      </g>
     </g>
    </g>
    <g id="ytick_22">
     <g id="line2d_55">
      <g>
       <use xlink:href="#m7ebd975550" x="31.736704" y="182.121051" style="stroke: #000000; stroke-width: 0.6"/>
      </g>
     </g>
    </g>
    <g id="ytick_23">
     <g id="line2d_56">
      <g>
       <use xlink:href="#m7ebd975550" x="31.736704" y="163.4784" style="stroke: #000000; stroke-width: 0.6"/>
      </g>
     </g>
    </g>
    <g id="ytick_24">
     <g id="line2d_57">
      <g>
       <use xlink:href="#m7ebd975550" x="31.736704" y="154.157075" style="stroke: #000000; stroke-width: 0.6"/>
      </g>
     </g>
    </g>
    <g id="ytick_25">
     <g id="line2d_58">
      <g>
       <use xlink:href="#m7ebd975550" x="31.736704" y="144.835749" style="stroke: #000000; stroke-width: 0.6"/>
      </g>
     </g>
    </g>
    <g id="ytick_26">
     <g id="line2d_59">
      <g>
       <use xlink:href="#m7ebd975550" x="31.736704" y="135.514424" style="stroke: #000000; stroke-width: 0.6"/>
      </g>
     </g>
    </g>
    <g id="ytick_27">
     <g id="line2d_60">
      <g>
       <use xlink:href="#m7ebd975550" x="31.736704" y="116.871774" style="stroke: #000000; stroke-width: 0.6"/>
      </g>
     </g>
    </g>
    <g id="ytick_28">
     <g id="line2d_61">
      <g>
       <use xlink:href="#m7ebd975550" x="31.736704" y="107.550448" style="stroke: #000000; stroke-width: 0.6"/>
      </g>
     </g>
    </g>
    <g id="ytick_29">
     <g id="line2d_62">
      <g>
       <use xlink:href="#m7ebd975550" x="31.736704" y="98.229123" style="stroke: #000000; stroke-width: 0.6"/>
      </g>
     </g>
    </g>
    <g id="ytick_30">
     <g id="line2d_63">
      <g>
       <use xlink:href="#m7ebd975550" x="31.736704" y="88.907798" style="stroke: #000000; stroke-width: 0.6"/>
      </g>
     </g>
    </g>
    <g id="ytick_31">
     <g id="line2d_64">
      <g>
       <use xlink:href="#m7ebd975550" x="31.736704" y="70.265147" style="stroke: #000000; stroke-width: 0.6"/>
      </g>
     </g>
    </g>
    <g id="ytick_32">
     <g id="line2d_65">
      <g>
       <use xlink:href="#m7ebd975550" x="31.736704" y="60.943822" style="stroke: #000000; stroke-width: 0.6"/>
      </g>
     </g>
    </g>
    <g id="ytick_33">
     <g id="line2d_66">
      <g>
       <use xlink:href="#m7ebd975550" x="31.736704" y="51.622497" style="stroke: #000000; stroke-width: 0.6"/>
      </g>
     </g>
    </g>
    <g id="ytick_34">
     <g id="line2d_67">
      <g>
       <use xlink:href="#m7ebd975550" x="31.736704" y="42.301171" style="stroke: #000000; stroke-width: 0.6"/>
      </g>
     </g>
    </g>
    <g id="ytick_35">
     <g id="line2d_68">
      <g>
       <use xlink:href="#m7ebd975550" x="31.736704" y="23.658521" style="stroke: #000000; stroke-width: 0.6"/>
      </g>
     </g>
    </g>
    <g id="ytick_36">
     <g id="line2d_69">
      <g>
       <use xlink:href="#m7ebd975550" x="31.736704" y="14.337195" style="stroke: #000000; stroke-width: 0.6"/>
      </g>
     </g>
    </g>
    <g id="ytick_37">
     <g id="line2d_70">
      <g>
       <use xlink:href="#m7ebd975550" x="31.736704" y="5.01587" style="stroke: #000000; stroke-width: 0.6"/>
      </g>
     </g>
    </g>
   </g>
   <g id="line2d_71">
    <path d="M 34.896166 312.619605 
L 242.029884 312.619605 
L 242.120997 32.979846 
L 452.386994 32.979846 
L 452.386994 32.979846 
" clip-path="url(#p50a9a09a50)" style="fill: none; stroke: #0000ff; stroke-linecap: square"/>
   </g>
   <g id="line2d_72">
    <path d="M 31.736704 172.799725 
L 38.226471 223.633908 
L 41.506068 247.575218 
L 44.386728 266.95557 
L 46.531332 280.153003 
L 48.798322 292.806066 
L 50.783387 302.699137 
L 52.693019 311.112574 
L 54.286133 317.277044 
L 55.880415 322.655578 
L 57.382608 326.997288 
L 58.758637 330.359742 
L 60.134665 333.142834 
L 61.501177 335.345694 
L 62.864039 337.002222 
L 63.772614 337.81652 
L 64.733244 338.433858 
L 65.944324 338.869018 
L 67.033759 338.948646 
L 68.187855 338.728837 
L 69.34195 338.21565 
L 70.250426 337.619088 
L 71.29798 336.735851 
L 72.831164 335.100377 
L 74.498191 332.918524 
L 76.47105 329.891948 
L 78.799785 325.861288 
L 82.514278 318.889501 
L 86.786084 310.944659 
L 89.534288 306.34685 
L 91.223738 303.845353 
L 93.070439 301.457713 
L 94.982193 299.415498 
L 96.527816 298.110424 
L 97.733081 297.317634 
L 99.029169 296.690308 
L 100.401826 296.282824 
L 101.844587 296.138509 
L 103.105029 296.246828 
L 104.189613 296.510386 
L 105.637788 297.098537 
L 107.449554 298.192257 
L 109.595431 299.952367 
L 111.411856 301.782249 
L 113.854952 304.635676 
L 116.518463 308.103633 
L 122.917546 316.779494 
L 126.109887 320.634835 
L 127.892549 322.49067 
L 129.75633 324.141695 
L 131.207403 325.195282 
L 132.862609 326.126228 
L 134.684109 326.795896 
L 136.503882 327.078051 
L 137.977396 327.018164 
L 139.234872 326.763452 
L 140.658683 326.252617 
L 142.176238 325.456505 
L 143.894002 324.259009 
L 145.71823 322.671146 
L 148.033936 320.247807 
L 150.638814 317.090921 
L 154.908862 311.347832 
L 159.586834 305.082543 
L 162.46496 301.69774 
L 164.353653 299.813885 
L 166.110319 298.364236 
L 167.866985 297.249617 
L 169.355283 296.594202 
L 170.888083 296.216065 
L 171.924784 296.138565 
L 173.500538 296.3044 
L 174.914829 296.748987 
L 176.375532 297.502435 
L 177.364806 298.180682 
L 178.946566 299.539874 
L 180.528327 301.223093 
L 182.259892 303.411249 
L 184.442372 306.626429 
L 187.027558 310.971379 
L 189.879161 316.217688 
L 194.823998 325.54409 
L 197.402385 330.014252 
L 199.628117 333.377381 
L 201.438507 335.64358 
L 202.938419 337.129473 
L 204.40699 338.18733 
L 205.457707 338.677228 
L 206.508423 338.926205 
L 207.637148 338.907921 
L 208.765874 338.576451 
L 209.518357 338.173382 
L 210.54953 337.37508 
L 211.672211 336.171444 
L 212.794892 334.607446 
L 214.00565 332.505069 
L 215.596478 329.07007 
L 217.116753 325.059323 
L 218.25696 321.57895 
L 219.972627 315.577063 
L 221.771111 308.305683 
L 223.478317 300.493713 
L 225.330549 291.050133 
L 227.33093 279.777568 
L 229.526892 266.2161 
L 232.155039 248.538497 
L 235.296287 225.710288 
L 238.975966 197.315432 
L 249.549343 114.503815 
L 252.686469 92.089833 
L 255.547637 73.366524 
L 257.922813 59.321049 
L 260.238693 47.094372 
L 262.245961 37.755993 
L 264.036068 30.457477 
L 265.743546 24.420848 
L 267.337066 19.608194 
L 268.70288 16.112057 
L 269.65907 14.006304 
L 270.888543 11.706001 
L 272.334111 9.574463 
L 273.568927 8.22917 
L 274.953899 7.220864 
L 276.105244 6.767636 
L 277.25659 6.646154 
L 278.293428 6.805569 
L 279.361845 7.220698 
L 280.430262 7.874048 
L 281.716298 8.951754 
L 283.002335 10.317747 
L 284.428627 12.130043 
L 286.477664 15.190954 
L 288.880743 19.297837 
L 291.889456 24.898695 
L 297.445389 35.242958 
L 299.629678 38.891418 
L 301.460547 41.630433 
L 303.059875 43.736764 
L 304.659656 45.543638 
L 306.40145 47.140859 
L 307.343353 47.835722 
L 309.14377 48.823238 
L 310.629608 49.296435 
L 311.787972 49.450868 
L 313.114141 49.400012 
L 314.449995 49.109132 
L 316.165322 48.397952 
L 317.595725 47.532029 
L 319.026128 46.437789 
L 320.806026 44.790469 
L 322.945131 42.455201 
L 325.790479 38.899658 
L 335.813296 25.667436 
L 338.346396 22.984755 
L 340.013659 21.512145 
L 341.888218 20.179123 
L 343.182528 19.475688 
L 344.476837 18.959775 
L 345.755456 18.640477 
L 347.034075 18.514244 
L 348.688118 18.639559 
L 350.260966 19.058331 
L 351.980598 19.841204 
L 353.376861 20.715324 
L 354.951096 21.940381 
L 357.07001 23.950994 
L 359.166197 26.287535 
L 361.607037 29.340803 
L 371.425928 42.364031 
L 373.641691 44.789335 
L 375.307019 46.339942 
L 376.818685 47.508288 
L 378.330351 48.422218 
L 379.968562 49.099815 
L 381.301725 49.395695 
L 382.875912 49.436319 
L 384.246093 49.192227 
L 385.540016 48.720037 
L 386.972305 47.924184 
L 388.415209 46.836919 
L 390.151339 45.16227 
L 392.04836 42.903039 
L 394.411153 39.529537 
L 396.855561 35.501005 
L 399.062685 31.521725 
L 406.807699 17.122227 
L 408.559309 14.263886 
L 410.474989 11.520857 
L 411.92619 9.776592 
L 413.337477 8.406945 
L 414.748764 7.402573 
L 415.789227 6.919969 
L 416.653473 6.698144 
L 417.517719 6.647893 
L 418.381965 6.777298 
L 419.246211 7.093989 
L 420.283837 7.731658 
L 421.35604 8.697047 
L 422.428243 9.985059 
L 423.719378 11.978114 
L 424.872044 14.176512 
L 425.977762 16.664757 
L 427.311519 20.168009 
L 428.874684 24.979055 
L 430.392266 30.379583 
L 432.253636 37.977221 
L 434.107947 46.590061 
L 436.214159 57.587232 
L 438.647111 71.795433 
L 441.132187 87.811315 
L 443.943783 107.495082 
L 447.39741 133.423526 
L 452.386994 172.799725 
L 452.386994 172.799725 
" clip-path="url(#p50a9a09a50)" style="fill: none; stroke: #ff0000; stroke-linecap: square"/>
   </g>
   <g id="patch_3">
    <path d="M 31.736704 345.6 
L 31.736704 0 
" style="fill: none; stroke: #000000; stroke-width: 0.8; stroke-linejoin: miter; stroke-linecap: square"/>
   </g>
   <g id="patch_4">
    <path d="M 23.323698 219.406352 
L 460.8 219.406352 
" style="fill: none; stroke: #000000; stroke-width: 0.8; stroke-linejoin: miter; stroke-linecap: square"/>
   </g>
  </g>
 </g>
 <defs>
  <clipPath id="p50a9a09a50">
   <rect x="23.323698" y="0" width="437.476302" height="345.6"/>
  </clipPath>
 </defs>
</svg>
